<svg width="105" height="21" viewBox="0 0 105 21" fill="none" xmlns="http://www.w3.org/2000/svg"><path d="M17.432 5.12V.068H.297V21h17.315v-5.054H5.919v-3.14h10.706V8.021H5.919v-2.9h11.513zm19.754-.239V.067H19.393V4.88h6.07V21h5.652V4.881h6.07zM59.81 21V.067H54.16v7.895h-8.523V.067h-5.622V21h5.622v-7.985h8.523V21h5.652zM81.214 5.12V.068H64.078V21h17.315v-5.054H69.7v-3.14h10.706V8.021H69.7v-2.9h11.514zM84.579.098V21h5.622v-6.37h3.35L97.618 21h6.489l-4.695-7.117c2.901-.987 4.127-3.11 4.127-6.52 0-5.113-2.721-7.266-9.54-7.266h-9.42zm5.622 5.053h4.067c2.483 0 3.41.778 3.41 2.572 0 1.824-.927 2.572-3.41 2.572h-4.067V5.15z" fill="#09B45B"/></svg>