<svg width="129" height="23" viewBox="0 0 129 23" fill="none" xmlns="http://www.w3.org/2000/svg"><path d="M.798 1.097V22H12.58c5.443 0 7.177-2.841 7.177-5.712 0-2.183-.987-4.366-3.917-5.263 1.974-.808 3.08-2.363 3.08-4.635 0-3.5-2.542-5.323-6.848-5.323l-11.274.03zM6.42 9.53V5.672h4.007c1.675 0 2.602.658 2.602 1.944 0 1.256-.957 1.914-2.602 1.914H6.42zm0 7.895v-4.157h4.755c2.063 0 2.721 1.046 2.721 2.093s-.658 2.064-2.721 2.064H6.42zM28.615 22V1.097h-5.622V22h5.622zM49.28 5.881V1.067H31.487V5.88h6.07V22h5.653V5.881h6.07zM61.407.798c-6.1 0-11.034 4.814-11.034 10.765 0 5.921 4.934 10.736 11.034 10.736 3.739 0 7.028-1.794 9.002-4.575l-4.875-2.752a5 5 0 01-4.097 2.064c-3.05 0-5.173-2.452-5.173-5.473 0-3.05 2.123-5.502 5.173-5.502a5 5 0 014.097 2.063l4.875-2.751C68.435 2.592 65.145.798 61.407.798zm22.492 0c-6.19 0-11.215 4.814-11.215 10.765 0 5.921 5.024 10.736 11.215 10.736 6.19 0 11.214-4.815 11.214-10.736 0-5.95-5.024-10.765-11.214-10.765zm0 5.263c3.14 0 5.352 2.452 5.352 5.502 0 3.02-2.212 5.473-5.352 5.473s-5.323-2.452-5.323-5.473c0-3.05 2.183-5.502 5.323-5.502zM104.457 22V1.097h-5.622V22h5.622zm23.896 0V1.067h-5.533v11.692l-8.433-11.692h-5.831V22h5.532V10.337L122.521 22h5.832z" fill="#09B45B"/></svg>