<svg width="114" height="21" viewBox="0 0 114 21" fill="none" xmlns="http://www.w3.org/2000/svg"><path d="M.975.097V21h5.622v-6.37h3.349L14.013 21h6.49l-4.695-7.117c2.9-.987 4.127-3.11 4.127-6.52 0-5.113-2.722-7.266-9.54-7.266H.975zM6.597 5.15h4.067c2.482 0 3.41.778 3.41 2.572 0 1.824-.928 2.572-3.41 2.572H6.597V5.15zM28.967 21V.097h-5.622V21h5.622zM33.245.097V21h5.622v-5.951h3.589c6.22 0 9.18-2.303 9.18-7.416 0-5.114-2.81-7.536-9.24-7.536h-9.15zm5.622 4.844h3.32c2.512 0 3.588.927 3.588 2.9 0 2.005-1.106 2.872-3.588 2.872h-3.32V4.94zM55.148.097V21h5.622v-5.951h3.589c6.22 0 9.18-2.303 9.18-7.416 0-5.114-2.81-7.536-9.24-7.536h-9.151zM60.77 4.94h3.32c2.511 0 3.588.927 3.588 2.9 0 2.005-1.106 2.872-3.588 2.872h-3.32V4.94zm21.903 11.005V.066h-5.622V21h15.88v-5.054H82.672zm30.233-10.825V.067H95.77V21h17.315v-5.054h-11.692v-3.14h10.706V8.021h-10.706v-2.9h11.513z" fill="#09B45B"/></svg>