<svg width="135" height="13" viewBox="0 0 135 13" fill="none" xmlns="http://www.w3.org/2000/svg"><path d="M7.221.408C3.753.408.948 3.145.948 6.528c0 3.366 2.805 6.103 6.273 6.103 2.125 0 3.995-1.02 5.117-2.6l-2.77-1.565a2.842 2.842 0 01-2.33 1.173c-1.734 0-2.94-1.394-2.94-3.11 0-1.735 1.206-3.129 2.94-3.129.986 0 1.802.46 2.33 1.173l2.77-1.564C11.216 1.43 9.346.41 7.221.41zm12.786 0c-3.519 0-6.375 2.737-6.375 6.12 0 3.366 2.856 6.103 6.375 6.103s6.375-2.737 6.375-6.103c0-3.383-2.856-6.12-6.375-6.12zm0 2.992c1.785 0 3.043 1.394 3.043 3.128 0 1.717-1.258 3.111-3.043 3.111-1.785 0-3.026-1.394-3.026-3.11 0-1.735 1.241-3.129 3.026-3.129zm22.975 9.061V.561h-4.199l-3.094 5.117L32.612.561h-4.199v11.9h3.145V4.845l3.587 6.052h1.088l3.587-6.052v7.616h3.162zm16.9 0V.561h-4.199L52.59 5.678 49.512.561h-4.199v11.9h3.145V4.845l3.587 6.052h1.088l3.587-6.052v7.616h3.162zM68.351.408c-3.52 0-6.375 2.737-6.375 6.12 0 3.366 2.856 6.103 6.375 6.103s6.375-2.737 6.375-6.103c0-3.383-2.856-6.12-6.375-6.12zm0 2.992c1.785 0 3.043 1.394 3.043 3.128 0 1.717-1.258 3.111-3.043 3.111-1.785 0-3.026-1.394-3.026-3.11 0-1.735 1.24-3.129 3.026-3.129zM76.84.578v11.883h5.1c3.52 0 6.376-2.567 6.376-5.933 0-3.383-2.856-5.967-6.375-5.967l-5.1.017zm3.197 2.856h1.785c1.768 0 3.213 1.326 3.213 3.077 0 1.768-1.445 3.094-3.213 3.094h-1.785v-6.17zm13.58 9.027V.578h-3.196v11.883h3.196zm11.748-9.163V.561H95.251v2.737h3.45v9.163h3.214V3.298h3.451zm4.804 9.163V.578h-3.196v11.883h3.196zm12.172-9.027V.561h-9.741v11.9h9.843V9.588h-6.647V7.803h6.086v-2.72h-6.086V3.434h6.545zm6.759-3.043c-2.771.017-4.947 1.224-4.947 3.893 0 2.33 1.938 2.958 4.641 3.604 1.955.493 2.295.561 2.295 1.241 0 .544-.578.782-1.241.782-1.513 0-3.23-.442-4.777-1.309l-1.428 2.38c1.632 1.088 3.638 1.666 5.848 1.666 3.06 0 4.981-1.394 4.981-3.927 0-2.43-1.989-3.11-4.777-3.859-1.853-.459-2.074-.612-2.074-.986 0-.544.527-.782 1.139-.782 1.173 0 2.771.408 4.131 1.105l1.343-2.465c-1.394-.85-3.23-1.343-5.134-1.343z" fill="#09B45B"/></svg>