<svg width="266" height="30" viewBox="0 0 266 30" fill="none" xmlns="http://www.w3.org/2000/svg"><path d="M5.301 22.91h3.627L12.4 12.12l3.348 10.788h3.596l5.27-15.872h-3.41L17.453 19.19 13.981 7.037h-3.069L7.285 19.19 3.658 7.037H.124L5.301 22.91zM34.715 6.85c-2.48 0-3.999 1.116-4.99 2.48V1.21h-3.349v21.7h3.348V14.88c0-3.193 1.612-5.146 4.247-5.146 2.48 0 3.813 1.612 3.813 4.62v8.555h3.348v-8.835c0-5.3-2.883-7.223-6.417-7.223zM51.59 23.095c3.937 0 6.603-2.387 7.161-5.518h-3.348c-.465 1.767-1.953 2.79-3.999 2.79-2.635 0-4.34-1.767-4.433-4.464v-.217h11.966c.062-.434.093-.868.093-1.27-.093-4.65-3.162-7.565-7.75-7.565-4.68 0-7.812 3.255-7.812 8.153 0 4.867 3.131 8.091 8.122 8.091zm-4.495-9.858c.248-2.263 2.077-3.689 4.216-3.689 2.325 0 3.968 1.333 4.247 3.69h-8.463zm23.012-6.386c-2.573 0-4.092 1.023-5.084 2.263l-.372-2.077h-2.914V22.91h3.348v-7.998c0-3.224 1.58-5.177 4.247-5.177 2.51 0 3.782 1.612 3.782 4.62v8.555h3.379v-8.835c0-5.3-2.883-7.223-6.386-7.223zm18.51 11.75c0 2.882 1.301 4.308 4.34 4.308h3.1v-2.945h-2.357c-1.27 0-1.705-.465-1.705-1.705V9.982h3.875V7.037h-3.875V2.604h-3.379v4.433h-2.759v2.945h2.76V18.6zm17.598-11.564c-2.604 0-3.875 1.054-4.681 2.387l-.372-2.387h-2.976V22.91h3.348v-7.967c0-2.449.961-4.774 3.937-4.774h1.488v-3.13h-.744zm16.833 12.958c-.682 0-1.023-.217-1.023-1.023v-6.355c0-3.75-2.418-5.766-6.634-5.766-3.999 0-6.665 1.922-7.006 5.022h3.286c.248-1.395 1.581-2.325 3.565-2.325 2.201 0 3.472 1.085 3.472 2.852v.961h-3.999c-4.433 0-6.789 1.83-6.789 5.084 0 2.945 2.418 4.65 5.89 4.65 2.573 0 4.185-1.116 5.239-2.728 0 1.581.744 2.542 2.914 2.542h1.767v-2.914h-.682zm-4.34-3.596c-.031 2.45-1.643 4.092-4.433 4.092-1.829 0-2.945-.93-2.945-2.263 0-1.612 1.147-2.387 3.224-2.387h4.154v.558zm18.783-7.16c-1.023-1.396-2.728-2.388-5.146-2.388-4.309 0-7.502 3.224-7.502 8.122 0 5.084 3.193 8.122 7.502 8.122 2.511 0 4.154-1.178 5.177-2.573l.403 2.387h2.914V1.21h-3.348v8.03zm-4.588 11.035c-2.79 0-4.619-2.17-4.619-5.3 0-3.1 1.829-5.27 4.619-5.27s4.619 2.17 4.619 5.331c0 3.07-1.829 5.24-4.619 5.24zm12.913-15.469c1.147 0 2.046-.837 2.046-2.015 0-1.178-.899-2.015-2.046-2.015-1.147 0-2.046.837-2.046 2.015 0 1.178.899 2.015 2.046 2.015zM144.11 22.91h3.348V7.037h-3.348V22.91zm15-16.058c-2.573 0-4.092 1.023-5.084 2.263l-.372-2.077h-2.914V22.91h3.348v-7.998c0-3.224 1.581-5.177 4.247-5.177 2.511 0 3.782 1.612 3.782 4.62v8.555h3.379v-8.835c0-5.3-2.883-7.223-6.386-7.223zm21.551 2.666c-1.023-1.58-2.728-2.666-5.208-2.666-4.309 0-7.502 3.193-7.502 8.06 0 5.053 3.193 8.06 7.502 8.06 2.48 0 4.123-1.023 5.177-2.604v1.767c0 3.038-1.643 4.433-4.557 4.433-2.356 0-3.906-1.023-4.309-2.79h-3.41c.31 3.565 3.255 5.518 7.471 5.518 5.704 0 8.122-2.728 8.122-7.037V7.038h-2.914l-.372 2.48zm-4.65 10.633c-2.79 0-4.619-2.139-4.619-5.239 0-3.069 1.829-5.239 4.619-5.239s4.619 2.17 4.619 5.301c0 3.038-1.829 5.177-4.619 5.177zm19.481 2.76h3.441V6.943l6.51 15.965h3.007l6.51-15.965V22.91h3.441V1.21h-4.526l-6.82 17.081-6.944-17.08h-4.619v21.7zm34.075.185c3.937 0 6.603-2.387 7.161-5.518h-3.348c-.465 1.767-1.953 2.79-3.999 2.79-2.635 0-4.34-1.767-4.433-4.464v-.217h11.966c.062-.434.093-.868.093-1.27-.093-4.65-3.162-7.565-7.75-7.565-4.681 0-7.812 3.255-7.812 8.153 0 4.867 3.131 8.091 8.122 8.091zm-4.495-9.858c.248-2.263 2.077-3.689 4.216-3.689 2.325 0 3.968 1.333 4.247 3.69h-8.463zm15.667 5.363c0 2.883 1.302 4.31 4.34 4.31h3.1v-2.946h-2.356c-1.271 0-1.705-.465-1.705-1.705V9.982h3.875V7.037h-3.875V2.604h-3.379v4.433h-2.759v2.945h2.759V18.6zm23.896 1.395c-.682 0-1.023-.217-1.023-1.023v-6.355c0-3.75-2.418-5.766-6.634-5.766-3.999 0-6.665 1.922-7.006 5.022h3.286c.248-1.395 1.581-2.325 3.565-2.325 2.201 0 3.472 1.085 3.472 2.852v.961h-3.999c-4.433 0-6.789 1.83-6.789 5.084 0 2.945 2.418 4.65 5.89 4.65 2.573 0 4.185-1.116 5.239-2.728 0 1.581.744 2.542 2.914 2.542h1.767v-2.914h-.682zm-4.34-3.596c-.031 2.45-1.643 4.092-4.433 4.092-1.829 0-2.945-.93-2.945-2.263 0-1.612 1.147-2.387 3.224-2.387h4.154v.558z" fill="url(#paint0_linear_42_1166)"/><defs><linearGradient id="paint0_linear_42_1166" x1="268" y1="11.909" x2="0" y2="11.909" gradientUnits="userSpaceOnUse"><stop stop-color="#FF4343"/><stop offset=".5" stop-color="#9C0B93"/><stop offset="1" stop-color="#4C1BB7"/></linearGradient></defs></svg>