<svg width="251" height="36" viewBox="0 0 251 36" fill="none" xmlns="http://www.w3.org/2000/svg"><path d="M.818 8.96c.125 2.348 1.832 3.931 4.625 3.931 2.614 0 4.34-1.423 4.34-3.521 0-2.366-2.1-2.97-4.163-3.326-1.903-.32-3.557-.64-3.557-2.42 0-1.618 1.263-2.525 3.22-2.525 1.867 0 3.148 1.05 3.361 2.668h.978C9.445 1.632 7.826.227 5.282.227c-2.525 0-4.18 1.334-4.18 3.45 0 2.367 2.028 2.9 4.02 3.238 1.957.338 3.7.73 3.7 2.544 0 1.6-1.352 2.56-3.362 2.56-2.098 0-3.521-1.209-3.646-3.059H.818zm14.846 3.931c1.974 0 3.486-1.28 3.877-3.095h-.924c-.356 1.406-1.548 2.277-3.024 2.277-2.01 0-3.273-1.53-3.308-3.628v-.16h7.363c0-.125.018-.267.018-.374-.089-2.686-1.743-4.25-4.162-4.25-2.472 0-4.162 1.884-4.162 4.552 0 2.829 1.76 4.678 4.322 4.678zM12.356 7.52c.142-1.832 1.512-3.06 3.166-3.06 1.76 0 3.024 1.085 3.166 3.06h-6.332zm9.565-5.656c.356 0 .64-.267.64-.64a.627.627 0 00-.64-.64.627.627 0 00-.64.64c0 .373.285.64.64.64zm-.462 10.92h.907V3.768h-.907v9.018zm2.613-8.181h5.798l-6.047 7.47v.711h7.506v-.835h-6.315L31.08 4.46v-.694h-7.008v.836zM36.23 12.89c1.974 0 3.486-1.28 3.877-3.095h-.925c-.356 1.406-1.547 2.277-3.024 2.277-2.01 0-3.272-1.53-3.308-3.628v-.16h7.364c0-.125.017-.267.017-.374-.088-2.686-1.743-4.25-4.162-4.25-2.472 0-4.162 1.884-4.162 4.552 0 2.829 1.761 4.678 4.323 4.678zM32.92 7.52c.143-1.832 1.512-3.06 3.166-3.06 1.761 0 3.024 1.085 3.166 3.06h-6.332zm17.882 5.371c2.543 0 4.34-1.885 4.34-4.624 0-2.721-1.797-4.607-4.34-4.607-2.544 0-4.322 1.885-4.322 4.607 0 2.739 1.778 4.624 4.322 4.624zm0-.818c-2.01 0-3.398-1.565-3.398-3.806 0-2.223 1.388-3.806 3.398-3.806 2.01 0 3.397 1.583 3.397 3.806 0 2.24-1.388 3.806-3.397 3.806zM61.107 3.66c-1.654 0-2.721.854-3.237 2.028l-.143-1.921h-.782v9.018h.907V8.337c0-2.348 1.192-3.842 3.113-3.842 1.743 0 2.792 1.138 2.792 3.273v5.015h.907v-5.05c0-2.847-1.512-4.074-3.557-4.074zm14.343 9.231c1.974 0 3.486-1.28 3.877-3.095h-.925c-.355 1.406-1.547 2.277-3.023 2.277-2.01 0-3.273-1.53-3.309-3.628v-.16h7.364c0-.125.018-.267.018-.374-.09-2.686-1.743-4.25-4.162-4.25-2.473 0-4.162 1.884-4.162 4.552 0 2.829 1.76 4.678 4.322 4.678zM72.142 7.52c.142-1.832 1.511-3.06 3.166-3.06 1.76 0 3.023 1.085 3.166 3.06h-6.332zm17.035 4.429c-.533 0-.8-.178-.8-.872V6.88c0-2.063-1.263-3.219-3.522-3.219-2.063 0-3.432.996-3.664 2.633h.907C82.33 5.19 83.29 4.46 84.82 4.46c1.69 0 2.65.889 2.65 2.383v.782h-3.06c-2.311 0-3.557.997-3.557 2.686 0 1.601 1.263 2.58 3.184 2.58 1.832 0 2.917-.837 3.468-1.957v.32c-.035 1.067.41 1.53 1.477 1.53h.533v-.836h-.338zm-1.707-2.81c0 1.725-1.227 2.97-3.362 2.97-1.44 0-2.33-.73-2.33-1.85 0-1.192.89-1.85 2.562-1.85h3.13v.73zm6.94-5.372c-1.672 0-2.383.8-2.757 1.796l-.142-1.796h-.782v9.018h.907V8.212c0-1.832.48-3.575 2.596-3.575h.659v-.871h-.48zm5.987-.107c-1.654 0-2.722.854-3.238 2.028l-.142-1.921h-.782v9.018h.907V8.337c0-2.348 1.191-3.842 3.112-3.842 1.743 0 2.793 1.138 2.793 3.273v5.015h.907v-5.05c0-2.847-1.512-4.074-3.557-4.074zm6.027-1.796c.356 0 .64-.267.64-.64a.626.626 0 00-.64-.64.626.626 0 00-.64.64c0 .373.284.64.64.64zm-.462 10.92h.907V3.768h-.907v9.018zm7.201-9.124c-1.654 0-2.721.854-3.237 2.028l-.142-1.921h-.783v9.018h.907V8.337c0-2.348 1.192-3.842 3.113-3.842 1.743 0 2.792 1.138 2.792 3.273v5.015h.907v-5.05c0-2.847-1.511-4.074-3.557-4.074zm12.911 2.206c-.552-1.334-1.761-2.206-3.433-2.206-2.472 0-4.251 1.868-4.251 4.607 0 2.846 1.779 4.624 4.251 4.624 1.69 0 2.881-.89 3.451-2.294v1.6c0 2.402-1.139 3.433-3.309 3.433-1.689 0-2.863-.764-3.148-2.134h-.942c.284 1.92 1.832 2.952 4.019 2.952 2.917 0 4.287-1.387 4.287-4.215V3.767h-.783l-.142 2.099zm-3.362 6.207c-2.01 0-3.397-1.565-3.397-3.806s1.387-3.806 3.397-3.806 3.397 1.565 3.397 3.824c0 2.223-1.387 3.788-3.397 3.788zm6.011-2.063c.071 1.867 1.583 2.881 3.842 2.881 1.939 0 3.504-.978 3.504-2.579 0-1.903-1.672-2.276-3.611-2.543-1.405-.196-2.65-.356-2.65-1.619 0-1.031 1.014-1.707 2.544-1.707 1.44 0 2.472.693 2.632 1.867h.925c-.16-1.76-1.601-2.65-3.557-2.65-2.01-.018-3.451 1.014-3.451 2.561 0 1.815 1.672 2.153 3.522 2.402 1.512.213 2.739.409 2.739 1.743 0 1.067-1.121 1.743-2.597 1.743-1.725 0-2.846-.8-2.917-2.1h-.925zm16.059 2.774h.978l2.668-7.576 2.543 7.576h.978l3.202-9.017h-.925l-2.775 7.933-2.579-7.933h-.836l-2.721 7.933-2.632-7.933h-.961l3.06 9.018zm12.1-10.92a.627.627 0 00.641-.64.627.627 0 00-.641-.64.627.627 0 00-.64.64c0 .373.285.64.64.64zm-.462 10.92h.907V3.768h-.907v9.018zm3.715-2.098c0 1.44.587 2.098 2.117 2.098h1.316v-.835h-1.245c-.943 0-1.28-.356-1.28-1.281V4.603h2.436v-.836h-2.436V1.24h-.908v2.526h-1.707v.836h1.707v6.083zm8.975-7.026c-1.689 0-2.739.943-3.255 2.241V.334h-.907v12.45h.907V8.338c0-2.348 1.192-3.842 3.113-3.842 1.725 0 2.792 1.138 2.792 3.273v5.015h.908v-5.05c0-2.847-1.512-4.074-3.558-4.074zm14.361 9.231c1.974 0 3.486-1.28 3.877-3.095h-.925c-.355 1.406-1.547 2.277-3.023 2.277-2.01 0-3.273-1.53-3.309-3.628v-.16h7.364c0-.125.018-.267.018-.374-.089-2.686-1.743-4.25-4.162-4.25-2.473 0-4.162 1.884-4.162 4.552 0 2.829 1.76 4.678 4.322 4.678zm-3.309-5.371c.143-1.832 1.512-3.06 3.166-3.06 1.761 0 3.024 1.085 3.166 3.06h-6.332zm7.83 5.264h1.05l2.988-3.966 2.988 3.966h1.103l-3.504-4.606 3.326-4.411h-1.032l-2.845 3.735-2.811-3.735h-1.085l3.326 4.41-3.504 4.607zm10.096-2.098c0 1.44.587 2.098 2.116 2.098h1.317v-.835h-1.246c-.942 0-1.28-.356-1.28-1.281V4.603h2.437v-.836h-2.437V1.24h-.907v2.526h-1.708v.836h1.708v6.083zm8.519 2.205c1.974 0 3.486-1.28 3.877-3.095h-.925c-.355 1.406-1.547 2.277-3.023 2.277-2.01 0-3.273-1.53-3.309-3.628v-.16h7.364c0-.125.018-.267.018-.374-.089-2.686-1.743-4.25-4.162-4.25-2.472 0-4.162 1.884-4.162 4.552 0 2.829 1.761 4.678 4.322 4.678zm-3.308-5.371c.142-1.832 1.511-3.06 3.166-3.06 1.76 0 3.023 1.085 3.166 3.06h-6.332zm13.265-3.86c-1.654 0-2.722.854-3.237 2.028l-.143-1.921h-.782v9.018h.907V8.337c0-2.348 1.192-3.842 3.112-3.842 1.744 0 2.793 1.138 2.793 3.273v5.015h.907v-5.05c0-2.847-1.512-4.074-3.557-4.074zm12.789 2.135c-.551-1.281-1.761-2.135-3.45-2.135-2.473 0-4.251 1.885-4.251 4.607 0 2.846 1.778 4.624 4.251 4.624 1.689 0 2.863-.907 3.432-2.17l.143 2.063h.782V.335h-.907v5.46zm-3.379 6.278c-2.01 0-3.397-1.565-3.397-3.806 0-2.223 1.387-3.806 3.397-3.806s3.397 1.583 3.397 3.824c0 2.223-1.387 3.788-3.397 3.788zm10.404.818c1.974 0 3.486-1.28 3.878-3.095h-.925c-.356 1.406-1.548 2.277-3.024 2.277-2.01 0-3.273-1.53-3.308-3.628v-.16h7.363c0-.125.018-.267.018-.374-.089-2.686-1.743-4.25-4.162-4.25-2.472 0-4.162 1.884-4.162 4.552 0 2.829 1.761 4.678 4.322 4.678zM233.07 7.52c.142-1.832 1.512-3.06 3.166-3.06 1.761 0 3.024 1.085 3.166 3.06h-6.332zm16.467-1.725c-.552-1.281-1.761-2.135-3.451-2.135-2.472 0-4.251 1.885-4.251 4.607 0 2.846 1.779 4.624 4.251 4.624 1.69 0 2.864-.907 3.433-2.17l.142 2.063h.783V.335h-.907v5.46zm-3.38 6.278c-2.01 0-3.397-1.565-3.397-3.806 0-2.223 1.387-3.806 3.397-3.806s3.397 1.583 3.397 3.824c0 2.223-1.387 3.788-3.397 3.788zM5.229 24.66c-1.69 0-2.739.943-3.255 2.241v-5.567h-.907v12.45h.907v-4.446c0-2.348 1.192-3.842 3.113-3.842 1.725 0 2.792 1.138 2.792 3.273v5.016h.907v-5.052c0-2.846-1.511-4.073-3.557-4.073zm9.428 9.231c2.543 0 4.34-1.885 4.34-4.624 0-2.721-1.797-4.607-4.34-4.607-2.544 0-4.322 1.886-4.322 4.607 0 2.739 1.778 4.624 4.322 4.624zm0-.818c-2.01 0-3.398-1.565-3.398-3.806 0-2.223 1.388-3.806 3.398-3.806 2.01 0 3.397 1.583 3.397 3.806 0 2.24-1.387 3.806-3.397 3.806zm12.687-3.877c0 2.365-1.174 3.86-3.041 3.86-1.672 0-2.704-1.139-2.704-3.291v-4.998h-.907v5.051c0 2.828 1.477 4.073 3.468 4.073 1.601 0 2.65-.853 3.166-2.01l.125 1.904h.8v-9.018h-.907v4.429zm6.725-4.43c-1.672 0-2.384.801-2.757 1.797l-.143-1.796h-.782v9.018h.907v-4.571c0-1.832.48-3.576 2.597-3.576h.658v-.871h-.48zm1.19 6.244c.07 1.867 1.582 2.881 3.841 2.881 1.939 0 3.504-.978 3.504-2.579 0-1.903-1.672-2.276-3.61-2.543-1.406-.196-2.65-.356-2.65-1.619 0-1.031 1.013-1.707 2.542-1.707 1.441 0 2.473.693 2.633 1.867h.925c-.16-1.76-1.601-2.65-3.558-2.65-2.01-.018-3.45 1.014-3.45 2.561 0 1.815 1.672 2.152 3.522 2.401 1.511.214 2.739.41 2.739 1.744 0 1.067-1.12 1.743-2.597 1.743-1.725 0-2.846-.8-2.917-2.1h-.925zm21.802 1.939c-.533 0-.8-.178-.8-.872V27.88c0-2.064-1.263-3.22-3.522-3.22-2.063 0-3.433.996-3.664 2.633h.907c.232-1.103 1.192-1.832 2.722-1.832 1.69 0 2.65.889 2.65 2.383v.782h-3.06c-2.312 0-3.557.996-3.557 2.686 0 1.601 1.263 2.58 3.184 2.58 1.832 0 2.917-.837 3.468-1.957v.32c-.035 1.067.41 1.53 1.477 1.53h.533v-.836h-.338zm-1.707-2.81c0 1.725-1.227 2.97-3.362 2.97-1.44 0-2.33-.73-2.33-1.85 0-1.192.89-1.85 2.561-1.85h3.13v.73zm7.42-5.479c-1.654 0-2.721.854-3.237 2.028l-.142-1.921h-.783v9.018h.907v-4.447c0-2.348 1.192-3.842 3.113-3.842 1.743 0 2.792 1.138 2.792 3.273v5.016h.908v-5.052c0-2.846-1.512-4.073-3.558-4.073zm12.79 2.134c-.552-1.28-1.761-2.134-3.45-2.134-2.473 0-4.252 1.886-4.252 4.607 0 2.846 1.779 4.624 4.251 4.624 1.69 0 2.864-.907 3.433-2.17l.142 2.064h.783v-12.45h-.907v5.46zm-3.38 6.28c-2.01 0-3.397-1.566-3.397-3.807 0-2.223 1.387-3.806 3.397-3.806s3.398 1.583 3.398 3.824c0 2.223-1.388 3.788-3.398 3.788zm19.93-2.704c0-2.366-2.099-2.97-4.162-3.326-1.903-.32-3.557-.64-3.557-2.42 0-1.618 1.262-2.525 3.219-2.525 1.867 0 3.148 1.05 3.362 2.668h.978c-.16-1.957-1.548-3.308-3.753-3.522v-1.832h-.854v1.814c-2.383.09-3.913 1.405-3.913 3.45 0 2.367 2.028 2.9 4.02 3.238 1.956.338 3.7.73 3.7 2.544 0 1.6-1.352 2.56-3.362 2.56-2.099 0-3.522-1.209-3.646-3.058h-.996c.124 2.223 1.654 3.77 4.197 3.913v1.814h.854v-1.815c2.366-.142 3.913-1.53 3.913-3.503zm1.684-2.526c0 3.646 1.796 6.047 4.5 6.047 2.668 0 4.482-2.4 4.482-6.047v-.57c0-3.539-1.814-6.047-4.482-6.047-2.704 0-4.5 2.508-4.5 6.048v.569zm8.039-.036c0 3.166-1.405 5.23-3.54 5.23-2.151 0-3.556-2.064-3.556-5.23v-.498c0-3.166 1.405-5.229 3.557-5.229 2.134 0 3.539 2.063 3.539 5.23v.497zm11.581 6.083c2.046 0 3.486-1.174 3.842-3.006h-.96c-.303 1.334-1.388 2.188-2.882 2.188-1.974 0-3.344-1.547-3.344-3.788 0-2.241 1.352-3.825 3.344-3.825 1.512 0 2.579.854 2.9 2.206h.942c-.373-1.867-1.778-3.006-3.824-3.006-2.543 0-4.286 1.886-4.286 4.625 0 2.774 1.725 4.606 4.268 4.606zm9.59 0c2.543 0 4.339-1.885 4.339-4.624 0-2.721-1.796-4.607-4.339-4.607-2.544 0-4.323 1.886-4.323 4.607 0 2.739 1.779 4.624 4.323 4.624zm0-.818c-2.01 0-3.398-1.565-3.398-3.806 0-2.223 1.388-3.806 3.398-3.806 2.009 0 3.397 1.583 3.397 3.806 0 2.24-1.388 3.806-3.397 3.806zm16.209-8.413c-1.654 0-2.721.925-3.237 2.259-.427-1.494-1.548-2.259-2.971-2.259-1.547 0-2.472.907-2.934 2.028l-.143-1.921h-.782v9.018h.907v-4.59c0-2.205 1.067-3.699 2.792-3.699 1.566 0 2.544 1.103 2.544 3.184v5.105h.907v-4.91c.053-2.063 1.12-3.379 2.81-3.379 1.565 0 2.508 1.05 2.508 3.095v5.194h.925v-5.23c0-2.721-1.441-3.895-3.326-3.895zm15.407 0c-1.655 0-2.722.925-3.238 2.259-.426-1.494-1.547-2.259-2.97-2.259-1.547 0-2.472.907-2.935 2.028l-.142-1.921h-.782v9.018h.907v-4.59c0-2.205 1.067-3.699 2.792-3.699 1.565 0 2.544 1.103 2.544 3.184v5.105h.907v-4.91c.053-2.063 1.12-3.379 2.81-3.379 1.565 0 2.508 1.05 2.508 3.095v5.194h.925v-5.23c0-2.721-1.441-3.895-3.326-3.895zm5.802-1.796c.355 0 .64-.267.64-.64a.627.627 0 00-.64-.64.627.627 0 00-.641.64c0 .373.285.64.641.64zm-.463 10.92h.907v-9.017h-.907v9.018zm2.631-2.774c.071 1.867 1.583 2.881 3.842 2.881 1.938 0 3.504-.978 3.504-2.579 0-1.903-1.672-2.276-3.611-2.543-1.405-.196-2.65-.356-2.65-1.619 0-1.031 1.014-1.707 2.543-1.707 1.441 0 2.473.693 2.633 1.867h.925c-.161-1.76-1.601-2.65-3.558-2.65-2.01-.018-3.45 1.014-3.45 2.561 0 1.815 1.672 2.152 3.521 2.401 1.512.214 2.74.41 2.74 1.744 0 1.067-1.121 1.743-2.597 1.743-1.726 0-2.846-.8-2.917-2.1h-.925zm8.494 0c.071 1.867 1.583 2.881 3.841 2.881 1.939 0 3.504-.978 3.504-2.579 0-1.903-1.672-2.276-3.61-2.543-1.405-.196-2.651-.356-2.651-1.619 0-1.031 1.014-1.707 2.544-1.707 1.441 0 2.472.693 2.632 1.867h.925c-.16-1.76-1.601-2.65-3.557-2.65-2.01-.018-3.451 1.014-3.451 2.561 0 1.815 1.672 2.152 3.522 2.401 1.512.214 2.739.41 2.739 1.744 0 1.067-1.12 1.743-2.597 1.743-1.725 0-2.845-.8-2.917-2.1h-.924zm9.538-8.146a.627.627 0 00.641-.64.627.627 0 00-.641-.64.627.627 0 00-.64.64c0 .373.285.64.64.64zm-.462 10.92h.907v-9.017h-.907v9.018zm7.024.107c2.543 0 4.34-1.885 4.34-4.624 0-2.721-1.797-4.607-4.34-4.607-2.544 0-4.322 1.886-4.322 4.607 0 2.739 1.778 4.624 4.322 4.624zm0-.818c-2.01 0-3.397-1.565-3.397-3.806 0-2.223 1.387-3.806 3.397-3.806s3.397 1.583 3.397 3.806c0 2.24-1.387 3.806-3.397 3.806zm10.304-8.413c-1.654 0-2.721.854-3.237 2.028l-.142-1.921h-.783v9.018h.907v-4.447c0-2.348 1.192-3.842 3.113-3.842 1.743 0 2.792 1.138 2.792 3.273v5.016h.907v-5.052c0-2.846-1.512-4.073-3.557-4.073zm5.458 8.538c0 .409.285.675.676.675.391 0 .676-.266.676-.675 0-.41-.285-.659-.676-.659-.391 0-.676.25-.676.659z" fill="#000"/></svg>