<svg width="88" height="60" viewBox="0 0 88 60" fill="none" xmlns="http://www.w3.org/2000/svg"><path fill="#fff" d="M0 0h88v60H0z"/><path d="M7.777 3.734v.47L6.43 8h-.867l1.353-3.583H5.199v-.683h2.578zm2.356-.008V8h-.82V4.733l-.815.314V4.36l1.547-.635h.088zm1.31 3.855c0-.129.042-.236.128-.322a.465.465 0 01.349-.132c.146 0 .263.044.349.132a.437.437 0 01.129.322.437.437 0 01-.13.322.471.471 0 01-.348.13.47.47 0 01-.349-.13.437.437 0 01-.129-.322zm3.518-3.894h.108v.698h-.038c-.185 0-.347.032-.486.096a.887.887 0 00-.343.276c-.09.119-.157.264-.202.433a2.19 2.19 0 00-.067.566v.718c0 .148.01.279.029.392.021.113.052.208.09.284.042.075.089.13.141.167a.311.311 0 00.36-.003.495.495 0 00.141-.16.867.867 0 00.088-.247c.022-.094.033-.196.033-.307 0-.114-.011-.217-.033-.31a.888.888 0 00-.09-.244.447.447 0 00-.144-.161.31.31 0 00-.185-.059c-.1 0-.184.03-.255.091a.558.558 0 00-.16.229.856.856 0 00-.062.29l-.246-.176c.008-.149.035-.288.082-.42.049-.132.115-.251.199-.357a.893.893 0 01.302-.246.849.849 0 01.395-.09c.17 0 .319.038.445.114.127.076.233.18.317.313.086.133.15.287.19.463.043.174.065.36.065.557 0 .207-.03.4-.088.577a1.46 1.46 0 01-.25.466 1.128 1.128 0 01-.907.422c-.196 0-.372-.041-.53-.123a1.204 1.204 0 01-.405-.35 1.68 1.68 0 01-.255-.538 2.512 2.512 0 01-.088-.686v-.33c0-.345.04-.659.12-.944a2.23 2.23 0 01.355-.744c.158-.21.351-.37.58-.484.23-.115.495-.172.794-.172zm2.56 1.093v-.225c0-.162.03-.31.088-.443a.76.76 0 01.267-.319c.12-.08.267-.12.442-.12.178 0 .326.04.446.12.119.08.207.186.263.32.059.132.088.28.088.442v.225c0 .158-.03.304-.088.437a.733.733 0 01-.266.32.76.76 0 01-.44.12.775.775 0 01-.442-.12.753.753 0 01-.27-.32 1.07 1.07 0 01-.088-.437zm.537-.225v.225c0 .067.01.13.029.19.02.06.049.107.088.144a.21.21 0 00.146.053.2.2 0 00.144-.053.334.334 0 00.082-.143c.02-.06.03-.124.03-.19v-.226a.61.61 0 00-.03-.194.3.3 0 00-.085-.143.204.204 0 00-.147-.056.204.204 0 00-.146.056.334.334 0 00-.085.143.67.67 0 00-.026.194zm1.148 2.628v-.229c0-.16.03-.307.09-.44a.76.76 0 01.268-.319.77.77 0 01.439-.12c.18 0 .328.04.445.12a.74.74 0 01.264.32c.06.132.09.279.09.44v.228c0 .16-.029.306-.087.44a.737.737 0 01-.267.315.761.761 0 01-.44.12.79.79 0 01-.444-.12.754.754 0 01-.27-.319 1.071 1.071 0 01-.088-.436zm.536-.229v.226c0 .068.012.133.035.193a.4.4 0 00.094.144.206.206 0 00.138.052c.07 0 .124-.017.16-.052a.274.274 0 00.074-.144.88.88 0 00.02-.193v-.223a.61.61 0 00-.029-.193.3.3 0 00-.085-.144.194.194 0 00-.143-.056c-.06 0-.11.019-.15.056a.32.32 0 00-.087.144.66.66 0 00-.027.19zm.478-2.607L18.47 7.68l-.392-.223 1.75-3.334.392.223zM24.29 7.3V3.5h.822V8l-.744.003-.079-.703zm-1.645-.774v-.21c0-.258.022-.484.065-.677.045-.194.111-.355.2-.484a.836.836 0 01.321-.287.977.977 0 01.443-.097c.15 0 .282.039.395.115a.927.927 0 01.293.313c.08.135.145.294.194.478.049.183.083.385.102.603v.305c-.023.207-.06.4-.108.58-.047.18-.111.336-.194.469a.977.977 0 01-.29.313.705.705 0 01-.395.112.952.952 0 01-.442-.1.886.886 0 01-.323-.293 1.5 1.5 0 01-.196-.48 3.025 3.025 0 01-.065-.66zm.82-.21v.21c0 .149.008.277.021.384.016.106.04.193.074.26a.365.365 0 00.137.15.432.432 0 00.211.047c.11 0 .198-.027.267-.082a.501.501 0 00.152-.231c.035-.1.055-.214.059-.343v-.554a1.416 1.416 0 00-.038-.29.729.729 0 00-.091-.22.42.42 0 00-.147-.14.387.387 0 00-.199-.05.421.421 0 00-.21.05.343.343 0 00-.136.155.969.969 0 00-.076.267 2.723 2.723 0 00-.023.386zm3.543 1.743a1.56 1.56 0 01-.577-.1 1.14 1.14 0 01-.422-.287 1.286 1.286 0 01-.264-.46c-.06-.18-.09-.385-.09-.615v-.261c0-.258.029-.483.087-.677.059-.195.142-.36.25-.492a.984.984 0 01.395-.296c.158-.066.337-.1.536-.1.2 0 .374.034.524.1a.915.915 0 01.378.293c.1.129.175.29.226.48.05.192.076.415.076.668v.375h-2.124V6.11h1.318v-.073a1.08 1.08 0 00-.04-.322.37.37 0 00-.13-.196.388.388 0 00-.234-.065.405.405 0 00-.208.05.342.342 0 00-.135.155.961.961 0 00-.073.276 2.944 2.944 0 00-.024.4v.262c0 .146.013.27.039.369a.652.652 0 00.111.24c.05.06.112.105.184.132a.956.956 0 00.642-.038.9.9 0 00.299-.214l.328.498a1.278 1.278 0 01-.592.404 1.5 1.5 0 01-.48.07zm2.414-2.523V8h-.82V4.83h.773l.047.706zm.747-.73l-.012.818a1.779 1.779 0 00-.27-.023.564.564 0 00-.234.044.391.391 0 00-.16.126.586.586 0 00-.095.205 1.3 1.3 0 00-.038.278l-.155-.059c0-.207.016-.396.047-.568.033-.174.082-.324.146-.451a.859.859 0 01.232-.3.498.498 0 01.31-.105c.04 0 .08.004.123.012.045.006.08.014.106.024zm2.701-1.072V8h-.858V3.734h.858zm2.118 0l-1.383 2.119-.846 1.054-.164-.858.548-.914.802-1.4h1.043zM33.998 8l-.932-1.96.63-.557L35.01 8h-1.011zm2.156-4.5V8h-.823V3.5h.823zm1.928 4.559a1.56 1.56 0 01-.577-.1 1.141 1.141 0 01-.422-.287 1.286 1.286 0 01-.264-.46c-.06-.18-.09-.385-.09-.615v-.261c0-.258.029-.483.087-.677.059-.195.142-.36.25-.492a.985.985 0 01.395-.296c.158-.066.337-.1.536-.1.2 0 .374.034.525.1a.915.915 0 01.377.293c.1.129.175.29.226.48.05.192.076.415.076.668v.375h-2.124V6.11h1.319v-.073a1.08 1.08 0 00-.041-.322.37.37 0 00-.13-.196.388.388 0 00-.234-.065.405.405 0 00-.208.05.343.343 0 00-.135.155.961.961 0 00-.073.276 2.946 2.946 0 00-.023.4v.262c0 .146.013.27.038.369a.652.652 0 00.111.24c.051.06.112.105.185.132a.956.956 0 00.642-.038.9.9 0 00.298-.214l.328.498a1.278 1.278 0 01-.592.404 1.5 1.5 0 01-.48.07zm2.455-3.229V8h-.823V4.83h.823zm-.861-.82a.43.43 0 01.12-.314.438.438 0 01.328-.126c.139 0 .248.042.328.126a.43.43 0 01.12.314c0 .125-.04.23-.123.313a.43.43 0 01-.322.123.447.447 0 01-.331-.123.436.436 0 01-.12-.313zm2.317 1.497V8h-.823V4.83h.77l.053.677zm-.123.8l-.22.005a2.413 2.413 0 01.068-.641c.05-.19.122-.35.214-.484a.978.978 0 01.334-.307.888.888 0 01.436-.109c.123 0 .236.022.337.065a.66.66 0 01.267.205c.074.094.132.219.172.375.041.154.062.344.062.568V8h-.823V5.979a.955.955 0 00-.041-.317.274.274 0 00-.123-.158.408.408 0 00-.205-.047.34.34 0 00-.208.067.511.511 0 00-.153.18c-.039.075-.069.165-.09.269a1.66 1.66 0 00-.027.334zm3.668.964V5.806a.609.609 0 00-.035-.229.227.227 0 00-.1-.123.289.289 0 00-.158-.04.326.326 0 00-.176.043.269.269 0 00-.105.126.536.536 0 00-.032.196h-.824a.959.959 0 01.31-.709c.105-.093.227-.167.37-.22.143-.052.303-.079.48-.079.212 0 .399.037.563.109.164.07.294.183.39.337.095.154.143.354.143.6V7.23c0 .178.009.323.027.434.02.111.047.207.085.287V8h-.827a1.373 1.373 0 01-.084-.328 3.052 3.052 0 01-.027-.401zm.1-1.208l.003.493h-.302a.512.512 0 00-.205.038.45.45 0 00-.232.267.693.693 0 00-.026.193c0 .076.01.14.032.193a.249.249 0 00.25.161c.09 0 .167-.018.234-.055a.38.38 0 00.146-.135c.033-.053.044-.102.032-.147l.188.32a1.448 1.448 0 01-.097.225.95.95 0 01-.15.217.722.722 0 01-.225.164.735.735 0 01-.313.062.943.943 0 01-.466-.118.869.869 0 01-.334-.328.996.996 0 01-.12-.5c0-.16.025-.305.076-.434a.854.854 0 01.234-.331c.104-.092.235-.162.393-.211.158-.05.344-.074.556-.074h.326zm2.138-.556V8h-.823V4.83h.77l.053.677zm-.123.8l-.22.005a2.413 2.413 0 01.068-.641c.05-.19.122-.35.214-.484a.978.978 0 01.334-.307.888.888 0 01.436-.109c.123 0 .236.022.337.065a.66.66 0 01.267.205c.074.094.132.219.173.375.04.154.061.344.061.568V8H48.5V5.979a.955.955 0 00-.041-.317.274.274 0 00-.123-.158.408.408 0 00-.205-.047.34.34 0 00-.208.067.51.51 0 00-.153.18c-.039.075-.069.165-.09.269a1.66 1.66 0 00-.027.334zM50.785 3.5V8h-.823V3.5h.823zm1.928 4.559c-.217 0-.41-.034-.577-.1a1.14 1.14 0 01-.422-.287 1.283 1.283 0 01-.264-.46c-.06-.18-.09-.385-.09-.615v-.261c0-.258.029-.483.087-.677.059-.195.142-.36.25-.492a.984.984 0 01.395-.296c.158-.066.337-.1.536-.1.2 0 .374.034.524.1a.915.915 0 01.378.293c.1.129.175.29.226.48.05.192.076.415.076.668v.375h-2.124V6.11h1.318v-.073a1.08 1.08 0 00-.04-.322.37.37 0 00-.13-.196.387.387 0 00-.234-.065.405.405 0 00-.208.05.342.342 0 00-.135.155.961.961 0 00-.073.276 2.928 2.928 0 00-.023.4v.262c0 .146.012.27.038.369a.653.653 0 00.111.24c.05.06.112.105.185.132a.956.956 0 00.642-.038.898.898 0 00.298-.214l.328.498a1.28 1.28 0 01-.592.404 1.5 1.5 0 01-.48.07zm3.26-3.229h.745V8c0 .29-.056.525-.167.709a.972.972 0 01-.46.407 1.657 1.657 0 01-1.38-.035.945.945 0 01-.284-.2l.278-.568a.94.94 0 00.299.194.89.89 0 00.363.082c.115 0 .211-.019.287-.056a.348.348 0 00.176-.181.812.812 0 00.062-.346v-2.44l.082-.736zm-1.769 1.696v-.21c0-.258.024-.484.073-.677.05-.194.12-.355.211-.484a.86.86 0 01.337-.287c.135-.064.285-.097.451-.097.174 0 .32.039.437.115a.82.82 0 01.284.313c.074.135.13.294.17.478.041.183.072.385.094.603v.305c-.022.207-.057.4-.106.58-.047.18-.11.336-.187.469a.951.951 0 01-.287.313.732.732 0 01-.41.112.982.982 0 01-.446-.1.941.941 0 01-.337-.293 1.469 1.469 0 01-.21-.48 2.68 2.68 0 01-.074-.66zm.823-.21v.21c0 .149.01.277.027.384a.83.83 0 00.088.26c.039.067.088.117.149.15a.486.486 0 00.22.047.45.45 0 00.284-.082.483.483 0 00.158-.231c.035-.1.055-.214.059-.343v-.554a1.18 1.18 0 00-.038-.29.729.729 0 00-.091-.22.404.404 0 00-.153-.14.438.438 0 00-.213-.05.445.445 0 00-.217.05.402.402 0 00-.152.155.883.883 0 00-.091.267 2.2 2.2 0 00-.03.386zm3.58 1.743a1.56 1.56 0 01-.577-.1 1.141 1.141 0 01-.422-.287 1.286 1.286 0 01-.263-.46c-.06-.18-.091-.385-.091-.615v-.261c0-.258.03-.483.088-.677.058-.195.141-.36.249-.492a.984.984 0 01.395-.296c.159-.066.337-.1.537-.1.199 0 .373.034.524.1a.915.915 0 01.378.293c.1.129.175.29.225.48.051.192.077.415.077.668v.375h-2.124V6.11h1.318v-.073a1.08 1.08 0 00-.041-.322.37.37 0 00-.129-.196.388.388 0 00-.234-.065.405.405 0 00-.208.05.343.343 0 00-.135.155.961.961 0 00-.073.276 2.944 2.944 0 00-.024.4v.262c0 .146.013.27.038.369a.652.652 0 00.112.24c.05.06.112.105.184.132a.956.956 0 00.642-.038.9.9 0 00.299-.214l.328.498a1.278 1.278 0 01-.592.404 1.5 1.5 0 01-.48.07zm2.415-2.523V8h-.82V4.83h.773l.047.706zm.747-.73l-.012.818a1.779 1.779 0 00-.27-.023.564.564 0 00-.234.044.391.391 0 00-.161.126.586.586 0 00-.094.205 1.3 1.3 0 00-.038.278l-.155-.059c0-.207.015-.396.047-.568.033-.174.082-.324.146-.451a.859.859 0 01.232-.3.498.498 0 01.31-.105c.04 0 .08.004.123.012.045.006.08.014.106.024zm1.239-1.309V8h-.82V3.497h.82zm1.667 1.333l-1.116 1.576-.671.753-.29-.624.515-.753.583-.952h.979zM63.819 8l-.691-1.456.565-.522L64.76 8h-.94zm1.146-1.477V6.31c0-.248.03-.468.088-.66.06-.191.146-.351.258-.48.11-.13.245-.23.4-.296.16-.068.336-.103.531-.103.197 0 .374.035.53.103.159.066.293.165.405.296.113.129.2.289.26.48.061.192.091.412.091.66v.213c0 .247-.03.465-.09.657a1.35 1.35 0 01-.261.483c-.112.13-.245.23-.402.296-.156.066-.332.1-.527.1s-.372-.034-.53-.1a1.095 1.095 0 01-.404-.296 1.35 1.35 0 01-.261-.483 2.243 2.243 0 01-.088-.657zm.82-.213v.213c0 .147.01.274.03.381a.92.92 0 00.09.267c.041.07.09.122.147.155a.38.38 0 00.196.05c.074 0 .14-.017.2-.05a.37.37 0 00.143-.155c.039-.07.067-.16.085-.267.02-.107.03-.234.03-.38V6.31c0-.143-.012-.268-.033-.375a.883.883 0 00-.091-.267.411.411 0 00-.146-.158.345.345 0 00-.194-.056.345.345 0 00-.193.056.455.455 0 00-.144.158.88.88 0 00-.09.267c-.02.107-.03.232-.03.375zm3.068-.803V8h-.824V4.83h.77l.053.677zm-.123.8l-.22.005a2.417 2.417 0 01.067-.641c.05-.19.122-.35.214-.484a.978.978 0 01.334-.307.888.888 0 01.436-.109c.124 0 .236.022.337.065a.659.659 0 01.267.205c.074.094.132.219.173.375.04.154.061.344.061.568V8h-.823V5.979a.955.955 0 00-.04-.317.274.274 0 00-.124-.158.408.408 0 00-.205-.047.34.34 0 00-.208.067.511.511 0 00-.152.18 1.06 1.06 0 00-.091.269c-.02.103-.028.215-.026.334zm3.653-1.477v.618h-1.617V4.83h1.617zm-1.245-.782h.817v2.985c0 .088.009.155.026.202a.18.18 0 00.08.1.345.345 0 00.146.026.563.563 0 00.193-.023v.641a1.134 1.134 0 01-.457.08.921.921 0 01-.427-.094.64.64 0 01-.279-.299 1.27 1.27 0 01-.1-.545V4.048zm2.98 4.01c-.218 0-.41-.033-.578-.099a1.14 1.14 0 01-.422-.287 1.283 1.283 0 01-.263-.46c-.061-.18-.091-.385-.091-.615v-.261c0-.258.029-.483.088-.677.058-.195.141-.36.249-.492a.984.984 0 01.395-.296c.158-.066.337-.1.536-.1.2 0 .374.034.525.1a.915.915 0 01.378.293c.1.129.174.29.225.48.05.192.076.415.076.668v.375h-2.124V6.11h1.319v-.073c0-.129-.014-.236-.041-.322a.37.37 0 00-.13-.196.388.388 0 00-.234-.065.405.405 0 00-.208.05.342.342 0 00-.134.155.961.961 0 00-.074.276 2.928 2.928 0 00-.023.4v.262c0 .146.013.27.038.369a.653.653 0 00.111.24c.051.06.113.105.185.132a.956.956 0 00.642-.038.898.898 0 00.298-.214l.328.498a1.28 1.28 0 01-.592.404 1.5 1.5 0 01-.48.07zm2.399-2.551V8h-.824V4.83h.77l.054.677zm-.123.8l-.22.005a2.417 2.417 0 01.067-.641c.051-.19.122-.35.214-.484a.977.977 0 01.334-.307.887.887 0 01.437-.109c.123 0 .235.022.337.065a.66.66 0 01.266.205c.074.094.132.219.173.375.041.154.062.344.062.568V8h-.824V5.979a.953.953 0 00-.04-.317.274.274 0 00-.124-.158.409.409 0 00-.205-.047.34.34 0 00-.208.067.511.511 0 00-.152.18c-.04.075-.07.165-.091.269-.02.103-.028.215-.026.334zm-70.155 8.06l.51-2.537h.855L6.734 15h-.512l.017-.633zm-.301-2.537l.518 2.54.009.63h-.516l-.87-3.17h.859zm3.298 3.229c-.216 0-.409-.034-.577-.1a1.141 1.141 0 01-.422-.287 1.285 1.285 0 01-.263-.46c-.06-.18-.091-.385-.091-.615v-.261c0-.258.03-.484.088-.677.058-.195.141-.36.249-.492a.984.984 0 01.395-.296c.158-.066.337-.1.536-.1.2 0 .374.034.525.1a.914.914 0 01.378.293c.1.129.175.29.225.48.051.192.076.415.076.668v.376H8.231v-.578H9.55v-.073c0-.129-.014-.236-.041-.322a.37.37 0 00-.13-.196.387.387 0 00-.233-.065.405.405 0 00-.209.05.343.343 0 00-.134.155.962.962 0 00-.074.276 2.941 2.941 0 00-.023.4v.262c0 .146.013.27.038.369a.653.653 0 00.111.24c.051.06.113.104.185.132a.956.956 0 00.642-.038.897.897 0 00.298-.214l.329.498a1.277 1.277 0 01-.592.404c-.139.047-.299.07-.48.07zm2.414-2.523V15h-.82v-3.17h.774l.046.706zm.748-.73l-.012.818a.564.564 0 00-.504.02.392.392 0 00-.161.127.585.585 0 00-.094.205 1.293 1.293 0 00-.038.278l-.155-.059c0-.207.015-.396.046-.568.034-.174.082-.324.147-.451a.858.858 0 01.231-.299.497.497 0 01.31-.106c.04 0 .081.004.124.012.045.006.08.014.106.024zm1.28-1.306V15h-.824v-4.5h.824zm1.511 1.33V15h-.823v-3.17h.824zm-.86-.82a.43.43 0 01.12-.314.438.438 0 01.327-.126c.139 0 .248.042.329.126a.43.43 0 01.12.314.43.43 0 01-.123.313.43.43 0 01-.323.123.447.447 0 01-.33-.123.437.437 0 01-.12-.313zm2.788 4.049c-.217 0-.409-.034-.577-.1a1.14 1.14 0 01-.422-.287 1.284 1.284 0 01-.263-.46c-.061-.18-.091-.385-.091-.615v-.261c0-.258.029-.484.088-.677.058-.195.141-.36.249-.492a.983.983 0 01.395-.296c.158-.066.337-.1.536-.1.2 0 .374.034.525.1a.914.914 0 01.378.293c.1.129.174.29.225.48.05.192.076.415.076.668v.376h-2.124v-.578h1.319v-.073c0-.129-.014-.236-.041-.322a.37.37 0 00-.13-.196.387.387 0 00-.234-.065.405.405 0 00-.208.05.342.342 0 00-.134.155.961.961 0 00-.074.276 2.927 2.927 0 00-.023.4v.262c0 .146.013.27.038.369a.653.653 0 00.111.24c.051.06.113.104.185.132a.956.956 0 00.642-.038.896.896 0 00.298-.214l.328.498a1.278 1.278 0 01-.592.404 1.5 1.5 0 01-.48.07zm2.414-2.523V15h-.82v-3.17h.773l.047.706zm.747-.73l-.011.818a1.779 1.779 0 00-.27-.023.564.564 0 00-.234.044.39.39 0 00-.161.126.585.585 0 00-.094.205 1.293 1.293 0 00-.038.278l-.155-.059c0-.207.015-.396.046-.568a1.7 1.7 0 01.147-.451.858.858 0 01.231-.299.497.497 0 01.31-.106c.04 0 .08.004.124.012.045.006.08.014.105.024zm1.638 3.253a1.56 1.56 0 01-.577-.1 1.141 1.141 0 01-.422-.287 1.287 1.287 0 01-.264-.46c-.06-.18-.09-.385-.09-.615v-.261c0-.258.029-.484.087-.677.059-.195.142-.36.25-.492a.984.984 0 01.395-.296c.158-.066.337-.1.536-.1.2 0 .374.034.524.1a.914.914 0 01.378.293c.1.129.175.29.226.48.05.192.076.415.076.668v.376h-2.124v-.578h1.319v-.073a1.08 1.08 0 00-.041-.322.37.37 0 00-.13-.196.387.387 0 00-.234-.065.405.405 0 00-.208.05.342.342 0 00-.135.155.961.961 0 00-.073.276 2.943 2.943 0 00-.023.4v.262c0 .146.012.27.038.369a.652.652 0 00.111.24c.05.06.113.104.185.132a.956.956 0 00.642-.038.898.898 0 00.298-.214l.328.498a1.277 1.277 0 01-.592.404c-.138.047-.298.07-.48.07zm2.4-2.552V15h-.824v-3.17h.77l.053.677zm-.124.8l-.22.005a2.417 2.417 0 01.068-.641c.05-.19.122-.35.214-.483a.977.977 0 01.334-.308.888.888 0 01.436-.109c.123 0 .236.022.337.065a.66.66 0 01.267.205c.074.094.132.219.173.375.04.154.061.344.061.568V15h-.823v-2.021a.952.952 0 00-.041-.317.274.274 0 00-.123-.158.409.409 0 00-.205-.047.34.34 0 00-.208.067.512.512 0 00-.152.18c-.04.075-.07.165-.091.269-.02.103-.029.214-.027.334zm6.592-.548v1.758a1.724 1.724 0 01-.72.448 2.146 2.146 0 01-.68.094c-.236 0-.451-.037-.645-.112a1.31 1.31 0 01-.495-.337 1.536 1.536 0 01-.313-.568 2.702 2.702 0 01-.109-.812v-.726c0-.309.034-.577.103-.806.07-.23.172-.422.305-.574.132-.152.29-.266.474-.34.186-.074.395-.111.627-.111.32 0 .583.054.788.161.207.107.363.267.469.478.107.21.172.47.193.776h-.829a1.258 1.258 0 00-.09-.422.429.429 0 00-.191-.217.662.662 0 00-.32-.067.666.666 0 00-.295.061.498.498 0 00-.211.194c-.057.09-.099.205-.126.345-.028.141-.041.313-.041.516v.732c0 .202.015.373.047.516.03.143.077.259.137.349.063.09.14.155.235.196.095.04.208.059.337.059.103 0 .186-.011.249-.033a.73.73 0 00.149-.067c.04-.025.071-.045.097-.059v-.785h-.613v-.647h1.468zm1.855 2.3c-.217 0-.41-.034-.578-.1a1.142 1.142 0 01-.421-.287 1.285 1.285 0 01-.264-.46c-.06-.18-.09-.385-.09-.615v-.261c0-.258.028-.484.087-.677.059-.195.142-.36.25-.492a.983.983 0 01.395-.296c.158-.066.337-.1.536-.1s.374.034.524.1a.915.915 0 01.378.293c.1.129.175.29.226.48.05.192.076.415.076.668v.376h-2.124v-.578h1.318v-.073c0-.129-.014-.236-.04-.322a.37.37 0 00-.13-.196.387.387 0 00-.234-.065.405.405 0 00-.208.05.343.343 0 00-.135.155.964.964 0 00-.073.276 2.945 2.945 0 00-.024.4v.262c0 .146.013.27.039.369a.653.653 0 00.11.24c.052.06.113.104.185.132a.956.956 0 00.642-.038.896.896 0 00.299-.214l.328.498a1.278 1.278 0 01-.592.404c-.139.047-.299.07-.48.07zm2.455-4.559V15h-.824v-4.5h.824zm2.185 3.8v-3.8h.823V15l-.744.003-.079-.703zm-1.643-.774v-.21c0-.258.021-.484.064-.677.045-.194.111-.355.2-.484a.835.835 0 01.322-.287.975.975 0 01.442-.097c.15 0 .282.039.396.115a.928.928 0 01.292.313c.08.135.145.294.194.478.049.183.083.385.102.603v.305c-.023.207-.06.4-.108.58-.047.18-.111.336-.193.469a.979.979 0 01-.29.313.705.705 0 01-.396.112.952.952 0 01-.442-.1.885.885 0 01-.322-.293 1.497 1.497 0 01-.197-.48 3.025 3.025 0 01-.064-.66zm.82-.21v.21c0 .149.007.277.02.384.016.106.04.192.074.26a.367.367 0 00.138.15.431.431 0 00.21.047c.11 0 .199-.027.267-.082a.502.502 0 00.152-.231c.035-.1.055-.214.059-.343v-.554a1.409 1.409 0 00-.038-.29.73.73 0 00-.09-.22.42.42 0 00-.147-.14.387.387 0 00-.2-.05.421.421 0 00-.21.05.343.343 0 00-.135.155.972.972 0 00-.076.267 2.739 2.739 0 00-.024.386zm3.65-2.816h.818v3.765l-.059.735h-.759v-4.5zm2.464 2.81v.208c0 .257-.02.482-.061.673-.04.192-.1.352-.185.48a.79.79 0 01-.316.29 1.01 1.01 0 01-.457.098.726.726 0 01-.407-.112.95.95 0 01-.288-.313 2.055 2.055 0 01-.187-.472 3.972 3.972 0 01-.103-.595v-.307c.02-.211.053-.408.1-.59.049-.18.111-.338.188-.47a.889.889 0 01.284-.314.722.722 0 01.407-.114 1 1 0 01.463.1.79.79 0 01.316.29c.084.128.146.29.185.482a3.2 3.2 0 01.061.666zm-.817.208v-.208c0-.147-.006-.273-.018-.378a.902.902 0 00-.064-.264.338.338 0 00-.135-.158.423.423 0 00-.226-.053.411.411 0 00-.21.05.419.419 0 00-.147.14.684.684 0 00-.088.217 1.447 1.447 0 00-.03.273v.553c.003.135.02.254.05.358a.484.484 0 00.15.24c.07.057.164.085.281.085a.46.46 0 00.223-.047.312.312 0 00.132-.15.768.768 0 00.064-.263c.012-.11.018-.241.018-.395zm2.599 1.54c-.217 0-.41-.033-.578-.099a1.142 1.142 0 01-.422-.287 1.285 1.285 0 01-.263-.46c-.06-.18-.091-.385-.091-.615v-.261c0-.258.03-.484.088-.677.059-.195.142-.36.249-.492a.983.983 0 01.395-.296c.159-.066.337-.1.537-.1.199 0 .374.034.524.1a.914.914 0 01.378.293c.1.129.175.29.226.48.05.192.076.415.076.668v.376h-2.124v-.578h1.318v-.073c0-.129-.014-.236-.041-.322a.37.37 0 00-.129-.196.387.387 0 00-.234-.065.405.405 0 00-.208.05.343.343 0 00-.135.155.964.964 0 00-.073.276 2.945 2.945 0 00-.024.4v.262c0 .146.013.27.038.369a.653.653 0 00.112.24c.05.06.112.104.184.132a.957.957 0 00.642-.038.896.896 0 00.299-.214l.328.498a1.28 1.28 0 01-.592.404c-.139.047-.299.07-.48.07zm2.455-3.228V15h-.824v-3.17h.824zm-.862-.82a.43.43 0 01.12-.314.438.438 0 01.329-.126c.138 0 .248.042.328.126a.43.43 0 01.12.314.43.43 0 01-.123.313.43.43 0 01-.322.123.447.447 0 01-.332-.123.437.437 0 01-.12-.313zm2.338 1.476V15h-.823v-3.17h.773l.05.656zm-.117.82l-.226.007a2.556 2.556 0 01.059-.616c.043-.187.107-.35.193-.489a.949.949 0 01.331-.322.92.92 0 01.466-.114c.116 0 .222.021.32.064a.649.649 0 01.255.196.923.923 0 01.166.346c.04.14.06.31.06.507V15h-.821v-2.016a.975.975 0 00-.041-.322.283.283 0 00-.117-.158.352.352 0 00-.188-.047.337.337 0 00-.205.064.469.469 0 00-.144.182 1.156 1.156 0 00-.082.27 1.993 1.993 0 00-.026.334zm1.544-.081l-.296.038a2.414 2.414 0 01.056-.583 1.48 1.48 0 01.19-.475.95.95 0 01.322-.32.887.887 0 01.455-.114c.128 0 .246.022.351.065a.646.646 0 01.27.208.955.955 0 01.172.372c.042.154.062.342.062.563V15h-.823v-2.019c0-.142-.014-.252-.041-.328-.028-.076-.067-.128-.117-.155a.378.378 0 00-.182-.041c-.07 0-.132.02-.185.059a.466.466 0 00-.129.164.89.89 0 00-.079.243 1.612 1.612 0 00-.026.302zm5.657.354h.853c-.012.32-.076.59-.194.812a1.174 1.174 0 01-.5.498c-.216.113-.475.17-.78.17-.236 0-.446-.04-.63-.118a1.259 1.259 0 01-.468-.351 1.565 1.565 0 01-.294-.571 2.91 2.91 0 01-.096-.789v-.723c0-.297.034-.56.102-.788.07-.229.17-.42.3-.574.13-.157.287-.274.47-.352.186-.08.395-.12.628-.12.31 0 .57.058.78.176.208.117.37.288.483.512.115.223.184.495.207.818h-.855a1.61 1.61 0 00-.07-.478.412.412 0 00-.188-.246.727.727 0 00-.357-.073c-.114 0-.211.02-.293.061a.471.471 0 00-.202.19 1.023 1.023 0 00-.117.347 3.286 3.286 0 00-.036.521v.73c0 .2.011.373.033.515.021.14.055.256.102.346.047.09.11.155.19.196a.693.693 0 00.311.062.8.8 0 00.349-.065.402.402 0 00.199-.231 1.49 1.49 0 00.073-.475zm2.247-2.845V15h-.858v-4.266h.858zm1.336 1.814v.709h-1.553v-.71h1.553zm.164-1.814v.712h-1.716v-.712h1.716zM60.728 15h-.752l.005-.709h.747c.207 0 .369-.037.484-.111a.598.598 0 00.243-.352c.049-.16.073-.37.073-.63v-.665c0-.197-.012-.364-.038-.5a.819.819 0 00-.129-.335.536.536 0 00-.243-.19 1.015 1.015 0 00-.378-.062h-.78v-.712h.78c.246 0 .47.04.671.12.201.08.374.198.519.352.144.152.255.34.334.566.078.224.117.48.117.767v.66c0 .288-.04.544-.117.767a1.58 1.58 0 01-.334.565 1.405 1.405 0 01-.519.349c-.203.08-.43.12-.683.12zm-.254-4.266V15h-.859v-4.266h.859zm3.97 2.095v.683h-1.427v-.683h1.426zm3.096-.366v.709h-1.749v-.71h1.749zm-1.506-1.729V15h-.858v-4.266h.858zm2.127 0V15h-.85v-4.266h.85zm2.057 3.537v-1.465a.61.61 0 00-.035-.229.227.227 0 00-.1-.123.29.29 0 00-.158-.04.326.326 0 00-.176.043.268.268 0 00-.105.126.536.536 0 00-.033.196h-.823a.959.959 0 01.31-.709c.104-.093.227-.167.37-.22.142-.052.302-.079.48-.079.211 0 .399.037.563.109.164.07.294.182.39.337.095.154.143.354.143.6v1.412c0 .178.009.323.026.434.02.111.048.207.085.287V15h-.826a1.378 1.378 0 01-.085-.328 3.07 3.07 0 01-.026-.402zm.1-1.208l.002.493h-.301a.512.512 0 00-.206.038.394.394 0 00-.143.108.45.45 0 00-.088.158.693.693 0 00-.026.194c0 .076.01.14.032.193a.249.249 0 00.249.161c.09 0 .168-.018.234-.056a.38.38 0 00.147-.134c.033-.053.044-.102.032-.147l.188.32a1.446 1.446 0 01-.097.225.95.95 0 01-.15.217.723.723 0 01-.225.164.736.736 0 01-.314.062.943.943 0 01-.466-.118.87.87 0 01-.334-.328.997.997 0 01-.12-.5c0-.16.026-.305.077-.434a.854.854 0 01.234-.331c.103-.092.234-.163.392-.211.159-.05.344-.074.557-.074h.325zm2.138-.556V15h-.823v-3.17h.77l.053.677zm-.123.8l-.22.005a2.413 2.413 0 01.068-.641c.05-.19.122-.35.213-.483a.977.977 0 01.334-.308.888.888 0 01.437-.109c.123 0 .235.022.337.065a.661.661 0 01.267.205c.074.094.131.219.172.375.041.154.062.344.062.568V15h-.823v-2.021a.955.955 0 00-.041-.317.274.274 0 00-.123-.158.409.409 0 00-.206-.047.34.34 0 00-.207.067.512.512 0 00-.153.18c-.039.075-.07.165-.09.269-.02.103-.029.214-.027.334zm3.806.993v-3.8h.823V15l-.744.003-.08-.703zm-1.644-.774v-.21c0-.258.022-.484.065-.677.044-.194.11-.355.199-.484a.835.835 0 01.322-.287.975.975 0 01.442-.097c.15 0 .283.039.396.115a.928.928 0 01.293.313c.08.135.144.294.193.478.05.183.083.385.103.603v.305c-.024.207-.06.4-.109.58a1.71 1.71 0 01-.193.469.979.979 0 01-.29.313.705.705 0 01-.395.112.952.952 0 01-.443-.1.885.885 0 01-.322-.293 1.497 1.497 0 01-.196-.48 3.025 3.025 0 01-.065-.66zm.82-.21v.21c0 .149.007.277.02.384.017.106.041.192.074.26a.365.365 0 00.138.15.431.431 0 00.21.047c.11 0 .2-.027.267-.082a.502.502 0 00.153-.231c.035-.1.054-.214.058-.343v-.554a1.416 1.416 0 00-.038-.29.727.727 0 00-.09-.22.418.418 0 00-.147-.14.387.387 0 00-.2-.05.421.421 0 00-.21.05.343.343 0 00-.135.155.969.969 0 00-.076.267 2.722 2.722 0 00-.024.386zm3.542 1.743a1.56 1.56 0 01-.577-.1 1.141 1.141 0 01-.422-.287 1.287 1.287 0 01-.263-.46c-.06-.18-.091-.385-.091-.615v-.261c0-.258.03-.484.088-.677.058-.195.141-.36.249-.492a.984.984 0 01.395-.296c.158-.066.337-.1.536-.1.2 0 .374.034.525.1a.914.914 0 01.378.293c.1.129.175.29.225.48.051.192.077.415.077.668v.376h-2.124v-.578h1.318v-.073a1.08 1.08 0 00-.041-.322.37.37 0 00-.129-.196.387.387 0 00-.234-.065.405.405 0 00-.208.05.343.343 0 00-.135.155.961.961 0 00-.073.276 2.943 2.943 0 00-.024.4v.262c0 .146.013.27.038.369a.652.652 0 00.112.24c.05.06.112.104.184.132a.956.956 0 00.642-.038.898.898 0 00.299-.214l.328.498a1.277 1.277 0 01-.592.404c-.139.047-.299.07-.48.07zm2.456-4.559V15h-.824v-4.5h.823zM6.13 19.486V22h-.823v-3.17h.773l.05.656zm-.117.82l-.226.006a2.552 2.552 0 01.059-.615c.043-.187.107-.35.193-.489a.949.949 0 01.331-.322.92.92 0 01.466-.114c.115 0 .222.021.32.064a.648.648 0 01.254.196.922.922 0 01.167.346c.04.14.059.31.059.507V22h-.82v-2.016a.977.977 0 00-.042-.322.283.283 0 00-.117-.158.352.352 0 00-.187-.047.337.337 0 00-.205.064.469.469 0 00-.144.182 1.155 1.155 0 00-.082.27 1.996 1.996 0 00-.026.334zm1.544-.081l-.296.038a2.413 2.413 0 01.055-.583c.041-.182.105-.34.19-.475a.95.95 0 01.323-.32.887.887 0 01.454-.114c.13 0 .246.022.352.065a.647.647 0 01.27.208.955.955 0 01.172.372c.041.154.062.342.062.563V22h-.824v-2.019c0-.142-.013-.252-.04-.328-.028-.076-.067-.128-.118-.155a.378.378 0 00-.181-.041c-.07 0-.132.02-.185.059a.464.464 0 00-.129.164.888.888 0 00-.079.243 1.606 1.606 0 00-.026.302zm3.061-1.395V22h-.823v-3.17h.823zm-.861-.82a.43.43 0 01.12-.314.438.438 0 01.328-.126c.139 0 .248.042.328.126a.43.43 0 01.12.314.43.43 0 01-.123.313.43.43 0 01-.322.123.447.447 0 01-.331-.123.436.436 0 01-.12-.313zm2.894.82v.618h-1.617v-.618h1.617zm-1.245-.782h.818v2.985c0 .088.008.155.026.202a.18.18 0 00.08.1.346.346 0 00.146.026.559.559 0 00.193-.023v.642a1.132 1.132 0 01-.457.079.92.92 0 01-.428-.094.64.64 0 01-.278-.299 1.27 1.27 0 01-.1-.545v-3.073zm4.62 3.252v-3.8h.824V22l-.745.003-.079-.703zm-1.643-.774v-.21c0-.258.021-.484.064-.677.045-.194.112-.355.2-.484a.836.836 0 01.322-.287.976.976 0 01.442-.096c.15 0 .282.038.396.114a.928.928 0 01.293.313c.08.135.144.294.193.478.049.183.083.384.102.603v.305c-.023.207-.06.4-.108.58-.047.18-.111.336-.193.469a.979.979 0 01-.29.313.705.705 0 01-.396.112.952.952 0 01-.442-.1.885.885 0 01-.322-.293 1.502 1.502 0 01-.197-.48 3.031 3.031 0 01-.064-.66zm.82-.21v.21c0 .149.007.277.02.384.016.106.04.192.074.26a.366.366 0 00.137.15.432.432 0 00.211.047c.11 0 .199-.027.267-.082a.503.503 0 00.152-.231c.036-.1.055-.214.059-.343v-.554a1.409 1.409 0 00-.038-.29.725.725 0 00-.09-.22.419.419 0 00-.147-.14.387.387 0 00-.2-.05.421.421 0 00-.21.05.342.342 0 00-.135.155.972.972 0 00-.077.267 2.739 2.739 0 00-.023.386zm3.126-1.486V22h-.823v-3.17h.823zm-.861-.82a.43.43 0 01.12-.314.438.438 0 01.328-.126c.139 0 .248.042.328.126a.43.43 0 01.12.314.43.43 0 01-.123.313.43.43 0 01-.322.123.447.447 0 01-.331-.123.436.436 0 01-.12-.313zm2.789 4.049a1.56 1.56 0 01-.577-.1 1.14 1.14 0 01-.422-.287 1.287 1.287 0 01-.264-.46c-.06-.18-.09-.385-.09-.615v-.261c0-.258.029-.483.087-.677.059-.195.142-.36.25-.492a.984.984 0 01.395-.296c.158-.066.337-.1.536-.1.2 0 .374.034.524.1a.914.914 0 01.378.293c.1.129.175.29.226.48.05.192.076.415.076.669v.375h-2.124v-.578h1.318v-.073a1.08 1.08 0 00-.04-.322.37.37 0 00-.13-.196.388.388 0 00-.234-.065.405.405 0 00-.208.05.342.342 0 00-.135.155.961.961 0 00-.073.276 2.943 2.943 0 00-.024.4v.262c0 .146.013.27.039.369a.652.652 0 00.111.24c.05.06.112.105.184.132a.956.956 0 00.642-.038.898.898 0 00.299-.214l.328.498a1.277 1.277 0 01-.592.404c-.138.047-.299.07-.48.07zm3-.915a.218.218 0 00-.056-.146.66.66 0 00-.176-.132 2.922 2.922 0 00-.319-.155 3.393 3.393 0 01-.384-.182 1.351 1.351 0 01-.284-.208.77.77 0 01-.173-.26.892.892 0 01-.058-.334c0-.135.024-.26.073-.372a.894.894 0 01.217-.302.983.983 0 01.342-.205c.137-.051.29-.076.46-.076.239 0 .443.042.613.126a.914.914 0 01.395.345.965.965 0 01.138.519h-.82c0-.07-.011-.133-.033-.188a.262.262 0 00-.105-.132.339.339 0 00-.19-.047.303.303 0 00-.267.14.273.273 0 00-.038.148c0 .043.009.08.026.114.02.033.05.065.091.097.041.03.096.064.164.1.07.032.156.07.258.11.21.079.384.163.518.252.137.09.239.196.305.317.067.119.1.267.1.442 0 .14-.028.269-.082.384a.836.836 0 01-.232.299 1.075 1.075 0 01-.366.193c-.14.045-.298.068-.472.068-.255 0-.471-.051-.647-.153a1.047 1.047 0 01-.399-.39 1.005 1.005 0 01-.134-.497h.779a.539.539 0 00.059.249c.037.058.087.1.149.123a.587.587 0 00.208.035c.076 0 .139-.01.188-.03a.234.234 0 00.114-.096.31.31 0 00.038-.155zm2.596.915a1.56 1.56 0 01-.578-.1 1.141 1.141 0 01-.421-.287 1.287 1.287 0 01-.264-.46c-.06-.18-.091-.385-.091-.615v-.261c0-.258.03-.483.088-.677.058-.195.142-.36.249-.492a.984.984 0 01.395-.296c.159-.066.337-.1.537-.1.199 0 .374.034.524.1a.914.914 0 01.378.293c.1.129.175.29.226.48.05.192.076.415.076.669v.375h-2.124v-.578h1.318v-.073a1.08 1.08 0 00-.041-.322.37.37 0 00-.129-.196.387.387 0 00-.234-.065.405.405 0 00-.208.05.342.342 0 00-.135.155.961.961 0 00-.073.276 2.943 2.943 0 00-.024.4v.262c0 .146.013.27.038.369a.652.652 0 00.112.24c.05.06.112.105.184.132a.956.956 0 00.642-.038.898.898 0 00.299-.214l.328.498a1.277 1.277 0 01-.592.404c-.139.047-.299.07-.48.07zm2.42-2.573V22h-.824v-3.17h.774l.05.656zm-.118.82l-.225.006a2.55 2.55 0 01.058-.615 1.6 1.6 0 01.194-.489.95.95 0 01.33-.322.92.92 0 01.466-.114c.116 0 .222.021.32.064a.648.648 0 01.255.196.922.922 0 01.167.346c.039.14.058.31.058.507V22h-.82v-2.016a.979.979 0 00-.041-.322.283.283 0 00-.117-.158.352.352 0 00-.188-.047.337.337 0 00-.205.064.47.47 0 00-.143.182 1.156 1.156 0 00-.082.27 1.993 1.993 0 00-.027.334zm1.544-.081l-.296.038a2.41 2.41 0 01.056-.583c.041-.182.104-.34.19-.475a.95.95 0 01.323-.32.887.887 0 01.454-.114c.129 0 .246.022.351.065a.647.647 0 01.27.208.957.957 0 01.173.372c.04.154.061.342.061.563V22h-.823v-2.019c0-.142-.014-.252-.041-.328-.027-.076-.066-.128-.117-.155a.379.379 0 00-.182-.041c-.07 0-.132.02-.184.059a.464.464 0 00-.13.164.884.884 0 00-.078.243 1.604 1.604 0 00-.027.302zm5.168-1.729L33.951 22h-.905l1.333-4.266h.565l-.076.762zM35.592 22l-.923-3.504-.085-.762h.574L36.503 22h-.911zm.032-1.59v.711h-1.925v-.712h1.925zm1.91-.903V22h-.823v-3.17h.77l.053.677zm-.123.8l-.22.006a2.417 2.417 0 01.068-.642c.05-.19.122-.35.214-.483a.976.976 0 01.334-.308.888.888 0 01.436-.108c.123 0 .235.021.337.064a.66.66 0 01.267.205c.074.094.131.219.172.375.041.154.062.344.062.568V22h-.823v-2.021a.955.955 0 00-.041-.317.274.274 0 00-.123-.158.41.41 0 00-.205-.047.34.34 0 00-.208.067.511.511 0 00-.153.18c-.039.075-.069.165-.09.269a1.66 1.66 0 00-.027.334zm2.274-2.807h.817v3.765l-.059.735h-.758v-4.5zm2.463 2.81v.208c0 .257-.02.482-.061.673-.04.192-.1.352-.185.48a.79.79 0 01-.316.29 1.01 1.01 0 01-.457.098.727.727 0 01-.407-.112.95.95 0 01-.287-.313 2.046 2.046 0 01-.188-.472 3.958 3.958 0 01-.102-.595v-.307a3.75 3.75 0 01.1-.59c.048-.18.11-.338.187-.47a.889.889 0 01.284-.314.722.722 0 01.407-.114 1 1 0 01.463.1.79.79 0 01.316.29c.084.128.146.29.185.483a3.2 3.2 0 01.061.665zm-.817.208v-.208c0-.147-.006-.273-.018-.378a.896.896 0 00-.064-.264.337.337 0 00-.135-.158.424.424 0 00-.225-.053.412.412 0 00-.211.05.42.42 0 00-.147.14.682.682 0 00-.088.217 1.431 1.431 0 00-.029.273v.553c.002.135.019.254.05.358a.483.483 0 00.15.24c.07.057.163.085.28.085a.46.46 0 00.223-.047.312.312 0 00.132-.15.768.768 0 00.064-.263c.012-.11.018-.241.018-.395zm2.183-1.688V22h-.824v-3.17h.824zm-.862-.82a.43.43 0 01.12-.314.438.438 0 01.329-.126c.138 0 .248.042.328.126a.43.43 0 01.12.314.43.43 0 01-.123.313.43.43 0 01-.323.123.447.447 0 01-.33-.123.436.436 0 01-.12-.313zm2.79 4.049a1.56 1.56 0 01-.578-.1 1.14 1.14 0 01-.422-.287 1.285 1.285 0 01-.263-.46c-.06-.18-.091-.385-.091-.615v-.261c0-.258.03-.483.088-.677.058-.195.141-.36.249-.492a.984.984 0 01.395-.296c.158-.066.337-.1.536-.1.2 0 .374.034.525.1a.914.914 0 01.378.293c.1.129.175.29.225.48.051.192.076.415.076.669v.375h-2.123v-.578h1.318v-.073a1.08 1.08 0 00-.041-.322.37.37 0 00-.129-.196.388.388 0 00-.234-.065.405.405 0 00-.208.05.342.342 0 00-.135.155.961.961 0 00-.073.276 2.927 2.927 0 00-.024.4v.262c0 .146.013.27.038.369a.653.653 0 00.111.24c.051.06.113.105.185.132a.956.956 0 00.642-.038.896.896 0 00.298-.214l.329.498a1.278 1.278 0 01-.592.404 1.5 1.5 0 01-.48.07zm2.976-3.229v.618h-1.617v-.618h1.617zm-1.245-.782h.817v2.985c0 .088.009.155.027.202a.18.18 0 00.079.1.346.346 0 00.146.026.556.556 0 00.193-.023v.642a1.134 1.134 0 01-.457.079.92.92 0 01-.427-.094.64.64 0 01-.279-.299 1.27 1.27 0 01-.1-.545v-3.073zm2.98 4.01a1.56 1.56 0 01-.578-.099 1.142 1.142 0 01-.422-.287 1.287 1.287 0 01-.263-.46c-.06-.18-.091-.385-.091-.615v-.261c0-.258.03-.483.088-.677.058-.195.141-.36.249-.492a.985.985 0 01.395-.296c.159-.066.337-.1.536-.1.2 0 .374.034.525.1a.914.914 0 01.378.293c.1.129.175.29.225.48.051.192.077.415.077.669v.375h-2.124v-.578h1.318v-.073a1.08 1.08 0 00-.041-.322.37.37 0 00-.13-.196.387.387 0 00-.233-.065.405.405 0 00-.209.05.343.343 0 00-.134.155.958.958 0 00-.074.276 2.945 2.945 0 00-.023.4v.262c0 .146.013.27.038.369a.652.652 0 00.112.24c.05.06.112.105.184.132a.957.957 0 00.642-.038.897.897 0 00.299-.214l.328.498a1.277 1.277 0 01-.592.404c-.139.047-.299.07-.48.07zm2.413-2.522V22h-.82v-3.17h.773l.047.706zm.747-.73l-.011.818a1.781 1.781 0 00-.27-.023.563.563 0 00-.234.043.392.392 0 00-.161.127.586.586 0 00-.094.205 1.293 1.293 0 00-.038.278l-.155-.059c0-.207.015-.396.047-.568.033-.174.081-.324.146-.451a.858.858 0 01.231-.299.497.497 0 01.311-.105.69.69 0 01.123.011c.045.006.08.014.105.024zm-.017 2.775c0-.129.043-.236.129-.322a.465.465 0 01.348-.132c.147 0 .263.044.35.132a.437.437 0 01.128.322.437.437 0 01-.129.322.471.471 0 01-.349.13.47.47 0 01-.348-.13.437.437 0 01-.13-.322zm5.08-.66c0-.212-.058-.375-.173-.488-.115-.114-.323-.224-.624-.331-.3-.108-.531-.22-.691-.337a1.239 1.239 0 01-.358-.405 1.126 1.126 0 01-.117-.521c0-.338.112-.616.337-.835.227-.219.523-.328.888-.328.25 0 .472.056.668.17.195.111.345.266.45.465.106.2.159.419.159.657h-.539c0-.264-.063-.468-.19-.613-.127-.144-.31-.216-.548-.216-.217 0-.385.06-.504.181-.12.121-.179.291-.179.51 0 .18.065.33.193.451.13.121.329.23.598.325.42.14.72.31.9.513.181.203.272.469.272.797 0 .346-.112.623-.337.832-.225.207-.53.31-.917.31-.248 0-.477-.053-.688-.16a1.256 1.256 0 01-.495-.458 1.282 1.282 0 01-.18-.676h.54c0 .263.073.468.22.615.148.146.35.22.603.22.236 0 .414-.06.533-.182.12-.121.179-.286.179-.495zM60.11 22h-.518v-3.17h.518V22zm.041-4.01a.331.331 0 01-.073.219c-.049.059-.123.088-.223.088-.097 0-.17-.03-.22-.088a.332.332 0 01-.072-.22c0-.088.024-.162.073-.222.049-.06.122-.091.22-.091.097 0 .17.031.22.094a.33.33 0 01.075.22zm1.91 4.069c-.394 0-.697-.118-.908-.352-.21-.236-.318-.582-.322-1.037v-.384c0-.473.103-.843.308-1.11.207-.27.495-.404.864-.404.371 0 .648.118.832.354.184.236.277.604.281 1.104v.34h-1.77v.074c0 .34.064.587.191.74.129.155.314.232.554.232a.898.898 0 00.401-.085 1.01 1.01 0 00.328-.275l.27.328c-.225.316-.568.475-1.029.475zm-.058-2.842c-.215 0-.374.074-.478.223-.103.146-.162.374-.175.685h1.248v-.07c-.014-.301-.069-.516-.164-.645-.094-.129-.238-.193-.431-.193zm4.655 1.972a.383.383 0 00-.126-.288c-.084-.08-.246-.174-.486-.28a3.237 3.237 0 01-.592-.297.853.853 0 01-.255-.278.782.782 0 01-.085-.375c0-.258.094-.472.281-.642.19-.172.431-.258.724-.258.309 0 .557.09.744.27.188.18.281.41.281.691h-.515a.505.505 0 00-.51-.515.515.515 0 00-.36.12.407.407 0 00-.13.316c0 .106.032.19.095.255.064.065.217.15.46.255.384.15.646.298.785.442a.75.75 0 01.208.545.837.837 0 01-.284.663c-.19.164-.444.246-.762.246-.33 0-.598-.095-.803-.285a.938.938 0 01-.308-.72h.522c.006.176.06.313.161.413.102.1.244.15.428.15.172 0 .303-.039.392-.115a.395.395 0 00.135-.313zm1.087-.92c0-.461.111-.826.334-1.093.225-.27.52-.404.888-.404.367 0 .662.13.885.392.224.262.34.618.345 1.07v.333c0 .46-.111.823-.334 1.09-.222.268-.52.402-.89.402-.367 0-.662-.13-.885-.39-.22-.26-.335-.611-.343-1.055v-.345zm.519.298c0 .327.063.583.19.77a.602.602 0 00.519.28c.457 0 .692-.33.706-.991v-.357c0-.325-.065-.58-.194-.768a.598.598 0 00-.518-.284.593.593 0 00-.513.284c-.127.188-.19.442-.19.765v.301zM71.424 22h-.518v-4.5h.519V22zm1.378 0h-.519v-4.5h.519V22zm1.497-3.938v.768h.477v.419H74.3v1.966c0 .125.02.22.061.284.041.065.112.097.211.097a.654.654 0 00.208-.035l-.006.439c-.117.04-.237.059-.36.059-.205 0-.361-.074-.469-.22-.107-.147-.16-.354-.16-.621v-1.969H73.3v-.419h.483v-.767h.516zm2.23 3.997c-.395 0-.698-.118-.909-.352-.21-.236-.318-.582-.322-1.037v-.384c0-.473.102-.843.308-1.11.207-.27.495-.404.864-.404.37 0 .648.118.832.354.183.236.277.604.281 1.104v.34h-1.77v.074c0 .34.064.587.19.74.13.155.314.232.555.232a.898.898 0 00.401-.085c.117-.058.227-.15.328-.275l.27.328c-.225.316-.568.475-1.029.475zm-.06-2.842c-.214 0-.373.074-.477.223-.103.146-.162.374-.176.685h1.248v-.07c-.013-.301-.068-.516-.164-.645-.093-.129-.237-.193-.43-.193zm2.227-.387l.015.343c.201-.268.458-.401.77-.401.561 0 .845.373.853 1.122V22h-.516v-2.083c0-.248-.042-.424-.126-.527-.082-.106-.206-.159-.372-.159a.531.531 0 00-.348.13.936.936 0 00-.246.336V22h-.519v-3.17h.49zM7.004 28.722c-.172.224-.423.337-.753.337-.287 0-.504-.099-.65-.296-.147-.2-.221-.489-.223-.868V25.83h.516v2.027c0 .495.148.742.445.742.314 0 .531-.141.65-.422V25.83h.519V29h-.492l-.012-.278zm-1.5-3.739c0-.088.026-.16.079-.22.055-.06.135-.09.24-.09.106 0 .186.03.24.09a.31.31 0 01.083.22.31.31 0 01-.083.22c-.054.059-.134.088-.24.088-.105 0-.185-.03-.24-.088a.316.316 0 01-.08-.22zm1.26.006c0-.088.026-.162.079-.222.054-.06.135-.091.24-.091.105 0 .186.03.24.09a.32.32 0 01.082.223.31.31 0 01-.082.22c-.054.059-.135.088-.24.088-.105 0-.186-.03-.24-.088a.316.316 0 01-.08-.22zm3.82 2.578c0 .494-.089.867-.267 1.117-.177.25-.435.375-.773.375a.82.82 0 01-.756-.434L8.762 29H8.29v-4.5h.516v1.679a.815.815 0 01.732-.407c.348 0 .608.123.782.369.174.246.262.617.264 1.113v.313zm-.516-.296c0-.375-.052-.641-.158-.8-.103-.16-.272-.24-.507-.24-.267 0-.466.145-.597.434v1.509c.129.285.33.428.603.428.235 0 .403-.082.504-.247.102-.164.153-.419.155-.764v-.32zm2.312 1.788c-.395 0-.697-.118-.908-.352-.211-.236-.319-.582-.323-1.037v-.384c0-.473.103-.843.308-1.11.207-.27.495-.404.864-.404.371 0 .649.118.832.354.184.236.278.604.282 1.104v.34h-1.77v.074c0 .34.064.587.19.74.13.155.314.232.554.232a.898.898 0 00.401-.085c.118-.058.227-.15.329-.275l.27.328c-.225.316-.568.475-1.03.475zm-.059-2.842c-.215 0-.374.074-.477.223-.104.146-.162.374-.176.685h1.248v-.07c-.014-.301-.068-.516-.164-.645-.094-.129-.237-.193-.43-.193zm3.047.1a1.26 1.26 0 00-.234-.021c-.266 0-.451.145-.557.436V29h-.518v-3.17h.504l.008.322c.139-.254.335-.38.59-.38.081 0 .15.013.204.04l.003.504zM16.446 29h-.518v-4.5h.518V29zm1.951.059c-.394 0-.697-.118-.908-.352-.21-.236-.318-.582-.322-1.037v-.384c0-.473.102-.843.308-1.11.207-.27.495-.404.864-.404.371 0 .648.118.832.354.184.236.277.604.281 1.104v.34h-1.77v.074c0 .34.064.587.191.74.129.155.313.232.554.232a.898.898 0 00.401-.085 1.01 1.01 0 00.328-.275l.27.328c-.225.316-.568.475-1.028.475zm-.058-2.842c-.215 0-.374.074-.478.223-.103.146-.162.374-.175.685h1.248v-.07c-.014-.301-.069-.516-.165-.645-.093-.129-.237-.193-.43-.193zm1.635 1.055c0-.495.09-.868.27-1.12.179-.254.442-.38.787-.38a.81.81 0 01.736.413l.026-.355h.469v3.2c0 .392-.1.693-.302.902-.201.21-.482.316-.84.316a1.44 1.44 0 01-.528-.117 1.093 1.093 0 01-.437-.284l.211-.358c.215.211.452.317.712.317.432 0 .653-.236.665-.706v-.414a.813.813 0 01-.715.373c-.328 0-.584-.123-.767-.37-.184-.248-.28-.603-.287-1.066v-.352zm.518.295c0 .356.052.618.155.785.106.167.278.25.516.25.258 0 .451-.132.58-.396v-1.585c-.135-.26-.326-.39-.574-.39-.238 0-.41.084-.516.252-.105.166-.159.422-.16.768v.316zm3.677 1.492c-.395 0-.697-.118-.908-.352-.211-.236-.319-.582-.322-1.037v-.384c0-.473.102-.843.307-1.11.207-.27.495-.404.864-.404.371 0 .649.118.832.354.184.236.278.604.282 1.104v.34h-1.77v.074c0 .34.064.587.19.74.13.155.314.232.554.232a.898.898 0 00.402-.085 1.01 1.01 0 00.328-.275l.27.328c-.225.316-.568.475-1.03.475zm-.059-2.842c-.215 0-.374.074-.477.223-.104.146-.162.374-.176.685h1.248v-.07c-.014-.301-.068-.516-.164-.645-.094-.129-.237-.193-.43-.193zm2.227-.387l.015.343c.2-.268.458-.401.77-.401.56 0 .845.373.853 1.122V29h-.516v-2.083c0-.248-.042-.424-.126-.527-.082-.106-.206-.159-.372-.159a.531.531 0 00-.349.13.936.936 0 00-.246.336V29h-.518v-3.17h.489zm2.423 4.02l-.308-.211c.184-.256.28-.52.287-.791v-.49h.53v.425c0 .197-.048.395-.146.592a1.37 1.37 0 01-.363.475zm2.44-2.581c0-.461.111-.826.334-1.093.225-.27.52-.404.888-.404.367 0 .662.13.885.392.224.262.34.618.345 1.07v.333c0 .46-.111.823-.334 1.09-.222.268-.52.402-.89.402-.367 0-.662-.13-.885-.39-.22-.26-.335-.611-.343-1.055v-.345zm.519.298c0 .327.063.583.19.77a.601.601 0 00.519.28c.457 0 .692-.33.706-.991v-.357c0-.325-.065-.58-.194-.768a.598.598 0 00-.518-.284.593.593 0 00-.513.284c-.127.188-.19.442-.19.765v.301zm4.898 0c0 .494-.089.867-.266 1.117-.178.25-.436.375-.774.375a.82.82 0 01-.756-.434l-.026.375h-.472v-4.5h.516v1.679a.814.814 0 01.732-.407c.348 0 .609.123.782.369.174.246.262.617.264 1.113v.313zm-.515-.296c0-.375-.053-.641-.159-.8-.103-.16-.272-.24-.506-.24-.268 0-.467.145-.598.434v1.509c.129.285.33.428.603.428.235 0 .403-.082.504-.247.102-.164.154-.419.156-.764v-.32zm4.49.65c0-.212-.057-.375-.172-.488-.115-.114-.323-.224-.624-.331-.3-.108-.531-.22-.691-.337a1.237 1.237 0 01-.358-.405 1.126 1.126 0 01-.117-.521c0-.338.112-.616.337-.835.226-.219.522-.328.888-.328.25 0 .472.056.668.17.195.111.345.266.45.465.106.2.159.419.159.657h-.54c0-.264-.063-.468-.19-.613-.127-.144-.31-.216-.547-.216-.217 0-.385.06-.504.181-.12.121-.18.291-.18.51 0 .18.065.33.194.451.13.121.328.23.598.325.42.14.72.31.9.513.18.203.272.469.272.797 0 .346-.112.623-.337.832-.225.207-.53.31-.917.31-.248 0-.478-.053-.689-.16a1.256 1.256 0 01-.495-.458 1.282 1.282 0 01-.178-.676h.539c0 .263.073.468.22.615.148.146.349.22.603.22.236 0 .414-.06.533-.182.12-.121.179-.286.179-.495zM42.328 29h-.518v-3.17h.518V29zm.041-4.01a.331.331 0 01-.073.219c-.049.059-.123.088-.223.088-.097 0-.17-.03-.22-.088a.332.332 0 01-.073-.22c0-.088.025-.162.073-.222.05-.06.123-.091.22-.091.098 0 .171.031.22.094a.33.33 0 01.076.22zm1.91 4.069c-.394 0-.697-.118-.908-.352-.21-.236-.318-.582-.322-1.037v-.384c0-.473.102-.843.307-1.11.208-.27.496-.404.865-.404.37 0 .648.118.832.354.183.236.277.604.281 1.104v.34h-1.77v.074c0 .34.064.587.19.74.13.155.314.232.555.232a.898.898 0 00.401-.085c.117-.058.226-.15.328-.275l.27.328c-.225.316-.568.475-1.029.475zm-.058-2.842c-.215 0-.374.074-.478.223-.103.146-.162.374-.176.685h1.248v-.07c-.013-.301-.068-.516-.164-.645-.093-.129-.237-.193-.43-.193zm4.013 1.995l.601-2.382h.527l-.94 3.17h-.387l-.952-3.17h.527l.624 2.382zm2.801.847c-.394 0-.697-.118-.908-.352-.211-.236-.318-.582-.322-1.037v-.384c0-.473.102-.843.307-1.11.207-.27.495-.404.865-.404s.648.118.832.354c.183.236.277.604.28 1.104v.34H50.32v.074c0 .34.064.587.19.74.13.155.314.232.554.232a.898.898 0 00.402-.085c.117-.058.226-.15.328-.275l.27.328c-.225.316-.568.475-1.029.475zm-.058-2.842c-.215 0-.374.074-.478.223-.103.146-.162.374-.176.685h1.248v-.07c-.013-.301-.068-.516-.164-.645-.093-.129-.237-.193-.43-.193zm3.047.1a1.26 1.26 0 00-.235-.021c-.265 0-.451.145-.557.436V29h-.518v-3.17h.504l.009.322c.138-.254.334-.38.589-.38.082 0 .15.013.205.04l.002.504zm2.059 1.872a.383.383 0 00-.126-.288c-.084-.08-.246-.174-.486-.28a3.24 3.24 0 01-.592-.297.853.853 0 01-.255-.278.782.782 0 01-.085-.375c0-.258.094-.472.281-.642.19-.172.431-.258.724-.258.309 0 .557.09.744.27.188.18.281.41.281.691h-.515a.505.505 0 00-.51-.515.515.515 0 00-.36.12.407.407 0 00-.13.316c0 .106.032.19.095.255.064.065.217.15.46.255.384.15.646.298.785.442a.75.75 0 01.208.545.837.837 0 01-.285.663c-.189.164-.443.246-.761.246-.33 0-.598-.095-.803-.285a.938.938 0 01-.308-.72h.522a.58.58 0 00.161.413c.101.1.244.15.428.15.172 0 .302-.039.392-.115a.395.395 0 00.135-.313zm1.875-3.127v.768h.478v.419h-.478v1.966c0 .125.02.22.062.284.04.065.11.097.21.097a.653.653 0 00.209-.035l-.006.439a1.13 1.13 0 01-.36.059c-.206 0-.362-.074-.47-.22-.107-.147-.16-.354-.16-.621v-1.969h-.484v-.419h.483v-.767h.516zm2.23 3.997c-.395 0-.698-.118-.909-.352-.21-.236-.318-.582-.322-1.037v-.384c0-.473.103-.843.308-1.11.207-.27.495-.404.864-.404.371 0 .648.118.832.354.184.236.277.604.281 1.104v.34h-1.77v.074c0 .34.064.587.191.74.129.155.314.232.554.232a.898.898 0 00.401-.085 1.01 1.01 0 00.328-.275l.27.328c-.225.316-.568.475-1.029.475zm-.06-2.842c-.214 0-.373.074-.477.223-.103.146-.162.374-.175.685h1.248v-.07c-.014-.301-.069-.516-.164-.645-.094-.129-.238-.193-.431-.193zm2.257-.062a.914.914 0 01.756-.384c.56 0 .844.374.852 1.123V29h-.515v-2.083c0-.248-.042-.424-.126-.527-.082-.106-.206-.159-.373-.159a.531.531 0 00-.348.13.936.936 0 00-.246.336V29h-.519v-4.5h.519v1.655zm3.515 2.904c-.394 0-.697-.118-.908-.352-.21-.236-.318-.582-.322-1.037v-.384c0-.473.103-.843.308-1.11.207-.27.495-.404.864-.404.37 0 .648.118.832.354.183.236.277.604.281 1.104v.34h-1.77v.074c0 .34.064.587.191.74.129.155.314.232.554.232a.899.899 0 00.401-.085c.117-.058.227-.15.328-.275l.27.328c-.225.316-.568.475-1.029.475zm-.058-2.842c-.215 0-.374.074-.478.223-.103.146-.162.374-.175.685h1.248v-.07c-.014-.301-.069-.516-.165-.645-.093-.129-.237-.193-.43-.193zm2.226-.387l.015.343c.201-.268.458-.401.77-.401.561 0 .845.373.853 1.122V29h-.516v-2.083c0-.248-.041-.424-.125-.527-.083-.106-.207-.159-.373-.159a.531.531 0 00-.348.13.936.936 0 00-.246.336V29h-.519v-3.17h.49zm2.423 4.02l-.307-.211c.183-.256.279-.52.287-.791v-.49H71v.425c0 .197-.049.395-.147.592a1.37 1.37 0 01-.363.475zm4.913-1.761l.48-2.259h.514L75.62 29h-.413l-.618-2.268L73.985 29h-.416l-.77-3.17h.51l.492 2.203.589-2.203h.41l.603 2.259zm2.098.911h-.519v-3.17h.519V29zm.041-4.01a.332.332 0 01-.073.219c-.05.059-.123.088-.223.088-.098 0-.17-.03-.22-.088a.331.331 0 01-.073-.22c0-.088.025-.162.073-.222.05-.06.122-.091.22-.091s.171.031.22.094a.33.33 0 01.076.22zm1.91 4.069c-.394 0-.697-.118-.908-.352-.211-.236-.318-.582-.322-1.037v-.384c0-.473.102-.843.307-1.11.207-.27.495-.404.865-.404s.648.118.832.354c.183.236.277.604.28 1.104v.34h-1.769v.074c0 .34.064.587.19.74.13.155.314.232.554.232a.898.898 0 00.402-.085 1.01 1.01 0 00.328-.275l.27.328c-.225.316-.568.475-1.029.475zm-.058-2.842c-.215 0-.375.074-.478.223-.103.146-.162.374-.176.685h1.248v-.07c-.013-.301-.068-.516-.164-.645-.093-.129-.237-.193-.43-.193zm-71.26 8.43c-.023.456-.152.806-.386 1.048-.232.242-.561.364-.987.364-.428 0-.768-.162-1.02-.487-.252-.326-.378-.767-.378-1.324v-.773c0-.555.13-.994.387-1.316.26-.322.613-.483 1.06-.483.413 0 .731.124.956.372.226.246.35.599.369 1.057h-.542c-.024-.347-.097-.595-.22-.744-.123-.148-.31-.222-.562-.222a.764.764 0 00-.671.342c-.157.227-.235.56-.235 1v.782c0 .431.073.762.217.993.147.23.36.346.639.346s.48-.07.603-.208c.123-.14.2-.388.229-.747h.542zm2.708-.53H9.4V36h-.536v-4.266h2.221v.463H9.4v1.46h1.442v.46zM11.747 36v-4.266h1.017c.498 0 .884.157 1.16.47.275.31.413.747.413 1.312v.715c0 .564-.14 1-.419 1.309-.28.307-.685.46-1.216.46h-.955zm.536-3.803v3.343h.43c.378 0 .653-.107.827-.322.174-.217.263-.537.267-.961V33.5c0-.45-.087-.778-.261-.987-.172-.211-.433-.317-.782-.317h-.48zm4.36 2.991a.383.383 0 00-.126-.287c-.084-.08-.247-.174-.487-.28a3.237 3.237 0 01-.592-.297.852.852 0 01-.254-.278.782.782 0 01-.085-.375c0-.258.093-.472.28-.642.19-.172.431-.258.725-.258.308 0 .556.09.744.27.187.18.28.41.28.691h-.515a.505.505 0 00-.51-.515.515.515 0 00-.36.12.406.406 0 00-.129.316c0 .106.031.19.094.255.065.065.218.15.46.255.385.15.646.298.785.443a.749.749 0 01.208.544.837.837 0 01-.284.663c-.19.164-.443.246-.762.246-.33 0-.597-.095-.802-.285a.938.938 0 01-.308-.72h.521a.58.58 0 00.162.413c.101.1.244.15.427.15.172 0 .303-.039.393-.115a.395.395 0 00.135-.314zm2.8.812v-2.751h-.413v-.419h.413v-.366c.006-.322.087-.573.243-.753.159-.182.381-.272.669-.272.103 0 .207.016.313.05l-.026.439a1.031 1.031 0 00-.238-.027c-.295 0-.442.21-.442.63v.3h.542v.418h-.542V36h-.519zm3.287-.278c-.171.224-.422.337-.753.337-.287 0-.503-.099-.65-.296-.146-.2-.22-.489-.223-.867V32.83h.516v2.027c0 .495.149.742.445.742.315 0 .532-.141.65-.422V32.83h.52V36h-.493l-.012-.278zm1.773-2.892l.015.343c.2-.268.458-.401.77-.401.56 0 .845.373.853 1.122V36h-.516v-2.083c0-.248-.042-.424-.126-.527-.082-.106-.206-.159-.372-.159a.532.532 0 00-.349.13.937.937 0 00-.246.336V36h-.518v-3.17h.489zm3.214 1.72l-.276.316V36h-.518v-4.5h.518v2.692l.988-1.362h.62l-1.007 1.324L29.182 36h-.604l-.861-1.45zm2.59-2.487v.767h.477v.419h-.477v1.966c0 .125.02.22.061.284.041.064.112.097.211.097a.653.653 0 00.208-.035l-.006.439a1.13 1.13 0 01-.36.059c-.205 0-.361-.074-.469-.22-.107-.147-.161-.354-.161-.621v-1.969h-.483v-.419h.483v-.767h.516zM31.962 36h-.519v-3.17h.519V36zm.04-4.01a.332.332 0 01-.072.219c-.05.059-.123.088-.223.088-.098 0-.17-.03-.22-.088a.332.332 0 01-.073-.22c0-.088.024-.162.073-.222.05-.06.122-.091.22-.091s.17.031.22.094c.05.06.076.133.076.22zm.669 2.279c0-.461.111-.826.334-1.093.224-.27.52-.404.888-.404.367 0 .662.13.884.392.225.262.34.618.346 1.07v.333c0 .46-.111.823-.334 1.09-.223.268-.52.402-.89.402-.368 0-.663-.13-.885-.39-.221-.26-.335-.611-.343-1.055v-.345zm.519.298c0 .327.063.583.19.77a.601.601 0 00.518.28c.457 0 .693-.33.706-.991v-.357c0-.325-.064-.58-.193-.768a.598.598 0 00-.518-.284.593.593 0 00-.513.284c-.127.188-.19.442-.19.765v.301zm3.09-1.737l.015.343c.201-.268.458-.401.77-.401.561 0 .845.373.853 1.122V36h-.516v-2.083c0-.248-.042-.424-.126-.527-.082-.106-.206-.159-.372-.159a.531.531 0 00-.348.13.936.936 0 00-.246.336V36h-.519v-3.17h.49zM39.257 36h-.519v-3.17h.519V36zm.04-4.01a.332.332 0 01-.072.219c-.05.059-.123.088-.223.088-.098 0-.17-.03-.22-.088a.332.332 0 01-.073-.22c0-.088.024-.162.073-.222.05-.06.122-.091.22-.091s.17.031.22.094a.33.33 0 01.076.22zm1.911 4.069c-.395 0-.697-.118-.908-.352-.211-.236-.319-.582-.322-1.037v-.384c0-.473.102-.843.307-1.11.207-.27.495-.404.864-.404.371 0 .649.118.832.354.184.236.278.605.282 1.105v.34h-1.77v.073c0 .34.064.587.19.74.13.155.314.232.554.232a.899.899 0 00.402-.085c.117-.058.226-.15.328-.275l.27.328c-.225.316-.568.475-1.029.475zm-.059-2.842c-.214 0-.374.074-.477.223-.104.146-.162.375-.176.685h1.248v-.07c-.014-.301-.068-.516-.164-.645-.094-.129-.237-.193-.43-.193zm3.047.1a1.26 1.26 0 00-.234-.021c-.266 0-.451.145-.557.436V36h-.518v-3.17h.504l.008.322c.14-.254.335-.38.59-.38.081 0 .15.013.204.04l.003.504zm1.653 2.742c-.395 0-.698-.118-.909-.352-.21-.236-.318-.582-.322-1.037v-.384c0-.473.103-.843.308-1.11.207-.27.495-.404.864-.404.371 0 .648.118.832.354.184.236.277.605.281 1.105v.34h-1.77v.073c0 .34.064.587.191.74.13.155.314.232.554.232a.898.898 0 00.401-.085 1.01 1.01 0 00.328-.275l.27.328c-.225.316-.567.475-1.028.475zm-.059-2.842c-.215 0-.374.074-.477.223-.104.146-.163.375-.176.685h1.248v-.07c-.014-.301-.069-.516-.164-.645-.094-.129-.238-.193-.431-.193zm2.227-.387l.014.343c.201-.268.458-.401.77-.401.561 0 .846.373.853 1.122V36h-.515v-2.083c0-.248-.042-.424-.126-.527-.082-.106-.206-.159-.372-.159a.531.531 0 00-.349.13.936.936 0 00-.246.336V36h-.519v-3.17h.49zm2.422 4.02l-.307-.211c.183-.256.28-.52.287-.791v-.49h.53v.425c0 .197-.049.395-.146.592a1.37 1.37 0 01-.363.475zm4.166-1.128c-.171.224-.422.337-.752.337-.288 0-.504-.099-.65-.296-.147-.2-.222-.489-.224-.867V32.83h.516v2.027c0 .495.149.742.445.742.315 0 .532-.141.65-.422V32.83h.52V36h-.493l-.011-.278zm1.773-2.892l.015.343c.2-.268.458-.401.77-.401.56 0 .845.373.853 1.122V36H57.5v-2.083c0-.248-.042-.424-.126-.527-.082-.106-.206-.159-.372-.159a.532.532 0 00-.349.13.937.937 0 00-.246.336V36h-.518v-3.17h.489zm2.309 1.442c0-.489.09-.86.272-1.117.184-.256.446-.383.788-.383.303 0 .54.123.71.369V31.5h.518V36H60.5l-.026-.34a.816.816 0 01-.73.399.909.909 0 01-.773-.381c-.186-.256-.28-.616-.284-1.081v-.325zm.518.295c0 .356.053.618.158.785.106.167.278.25.516.25.258 0 .45-.13.577-.39v-1.6c-.133-.254-.324-.38-.574-.38-.238 0-.41.083-.516.251-.105.166-.159.422-.16.768v.316zm3.835-.298c0-.461.111-.826.334-1.093.225-.27.52-.404.888-.404.367 0 .662.13.885.392.224.262.34.618.345 1.07v.333c0 .46-.111.823-.334 1.09-.222.268-.52.402-.89.402-.368 0-.663-.13-.885-.39-.22-.26-.335-.611-.343-1.055v-.345zm.519.298c0 .327.063.583.19.77a.602.602 0 00.519.28c.457 0 .692-.33.706-.991v-.357c0-.325-.065-.58-.194-.768a.598.598 0 00-.518-.284.593.593 0 00-.513.284c-.127.188-.19.442-.19.765v.301zm4.898 0c0 .495-.089.867-.267 1.117-.177.25-.435.375-.773.375a.82.82 0 01-.756-.434l-.026.375h-.472v-4.5h.516v1.679a.815.815 0 01.732-.407c.348 0 .608.123.782.369.174.246.262.617.264 1.113v.313zm-.516-.295c0-.375-.052-.642-.158-.8-.103-.16-.272-.24-.507-.24-.267 0-.466.144-.597.433v1.509c.129.285.33.428.603.428.235 0 .403-.082.504-.246.102-.165.153-.42.155-.765v-.32zm4.492.65c0-.213-.058-.376-.173-.49-.116-.113-.324-.223-.624-.33a2.78 2.78 0 01-.692-.337 1.239 1.239 0 01-.357-.405 1.127 1.127 0 01-.117-.521c0-.338.112-.616.337-.835.226-.219.522-.328.887-.328.25 0 .473.056.668.17.196.111.346.266.452.466.105.199.158.418.158.656h-.54c0-.264-.063-.468-.19-.613-.127-.144-.31-.216-.548-.216-.216 0-.384.06-.504.181-.119.121-.178.291-.178.51 0 .18.064.33.193.451s.328.23.598.325c.42.14.72.31.9.513.18.203.272.469.272.797 0 .346-.113.623-.337.832-.225.207-.53.31-.917.31-.248 0-.478-.053-.689-.16a1.256 1.256 0 01-.495-.458 1.283 1.283 0 01-.179-.676h.54c0 .263.073.468.22.615.148.146.349.22.603.22.236 0 .414-.06.533-.182.119-.121.179-.286.179-.495zM74.167 36h-.519v-3.17h.519V36zm.041-4.01a.332.332 0 01-.073.219c-.05.059-.123.088-.223.088-.098 0-.17-.03-.22-.088a.332.332 0 01-.073-.22c0-.088.025-.162.073-.222.05-.06.123-.091.22-.091.098 0 .171.031.22.094a.33.33 0 01.076.22zm1.91 4.069c-.394 0-.697-.118-.908-.352-.211-.236-.318-.582-.322-1.037v-.384c0-.473.102-.843.307-1.11.207-.27.495-.404.865-.404s.648.118.832.354c.183.236.277.605.28 1.105v.34h-1.769v.073c0 .34.064.587.19.74.13.155.314.232.554.232a.898.898 0 00.402-.085c.117-.058.226-.15.328-.275l.27.328c-.225.316-.568.475-1.029.475zm-.058-2.842c-.215 0-.374.074-.478.223-.103.146-.162.375-.176.685h1.248v-.07c-.013-.301-.068-.516-.164-.645-.093-.129-.237-.193-.43-.193zm4.248 2.842c-.395 0-.698-.118-.909-.352-.21-.236-.318-.582-.322-1.037v-.384c0-.473.103-.843.308-1.11.207-.27.495-.404.864-.404.371 0 .648.118.832.354.184.236.277.605.281 1.105v.34h-1.77v.073c0 .34.064.587.191.74.13.155.314.232.554.232a.899.899 0 00.401-.085c.118-.058.227-.15.328-.275l.27.328c-.225.316-.567.475-1.028.475zm-.059-2.842c-.215 0-.374.074-.477.223-.104.146-.163.375-.176.685h1.248v-.07c-.014-.301-.069-.516-.164-.645-.094-.129-.238-.193-.431-.193zm3.278 1.971a.383.383 0 00-.126-.287c-.084-.08-.246-.174-.486-.28a3.24 3.24 0 01-.592-.297.852.852 0 01-.255-.278.781.781 0 01-.085-.375c0-.258.094-.472.282-.642.19-.172.43-.258.723-.258.309 0 .557.09.744.27.188.18.282.41.282.691h-.516a.505.505 0 00-.51-.515.515.515 0 00-.36.12.407.407 0 00-.129.316c0 .106.031.19.094.255.064.065.218.15.46.255.385.15.646.298.785.443a.749.749 0 01.208.544.837.837 0 01-.284.663c-.19.164-.444.246-.762.246-.33 0-.598-.095-.803-.285a.938.938 0 01-.307-.72h.521a.58.58 0 00.161.413c.102.1.244.15.428.15.172 0 .303-.039.393-.115a.395.395 0 00.134-.314zm-76.6 7a.383.383 0 00-.125-.287c-.084-.08-.246-.174-.487-.28a3.238 3.238 0 01-.591-.297.852.852 0 01-.255-.278.782.782 0 01-.085-.375c0-.258.094-.472.281-.642.19-.172.43-.258.724-.258.308 0 .556.09.744.27.187.18.281.41.281.691h-.516a.505.505 0 00-.51-.515.515.515 0 00-.36.12.406.406 0 00-.129.316c0 .106.032.19.094.255.065.065.218.15.46.255.385.15.647.298.785.443a.75.75 0 01.208.544.837.837 0 01-.284.663c-.19.164-.443.246-.762.246-.33 0-.597-.095-.802-.285a.938.938 0 01-.308-.72h.522a.58.58 0 00.16.413c.102.1.245.15.428.15.172 0 .303-.039.393-.115a.395.395 0 00.135-.314zM8.684 43h-.519v-3.17h.519V43zm.04-4.01a.332.332 0 01-.073.219c-.048.059-.123.088-.222.088-.098 0-.171-.03-.22-.088a.332.332 0 01-.073-.22c0-.088.024-.162.073-.222.049-.06.122-.091.22-.091.097 0 .17.031.22.093a.33.33 0 01.076.22zm1.879 3.626c.171 0 .31-.053.413-.158.103-.107.16-.26.17-.457h.489a1.08 1.08 0 01-.325.759c-.204.199-.453.299-.747.299-.393 0-.693-.123-.9-.37-.205-.248-.307-.616-.307-1.104v-.349c0-.478.102-.841.307-1.09.205-.25.504-.374.897-.374.324 0 .58.102.77.307.191.205.293.486.305.84h-.49c-.011-.233-.068-.41-.17-.526a.516.516 0 00-.415-.176c-.23 0-.402.076-.513.228-.111.15-.169.399-.173.745v.404c0 .373.055.636.164.79.111.155.286.232.525.232zm2.188-2.46a.915.915 0 01.756-.384c.56 0 .845.373.852 1.122V43h-.515v-2.083c0-.248-.042-.424-.126-.527-.082-.106-.206-.159-.372-.159a.532.532 0 00-.349.13.937.937 0 00-.246.336V43h-.518v-4.5h.518v1.655zM17.108 43h-.518v-4.5h.518V43zm1.952.059c-.395 0-.698-.118-.909-.352-.21-.236-.318-.582-.322-1.037v-.384c0-.473.103-.843.308-1.11.207-.27.495-.404.864-.404.371 0 .648.118.832.354.184.236.277.605.281 1.105v.34h-1.77v.073c0 .34.064.587.191.74.13.155.314.232.554.232a.898.898 0 00.401-.085c.117-.058.227-.15.328-.275l.27.328c-.225.316-.568.475-1.028.475zM19 40.217c-.215 0-.374.074-.478.223-.103.146-.162.375-.175.685h1.248v-.07c-.014-.301-.069-.516-.164-.645-.094-.129-.238-.193-.431-.193zM21.298 43h-.519v-3.17h.519V43zm.04-4.01a.331.331 0 01-.072.219c-.05.059-.123.088-.223.088-.098 0-.17-.03-.22-.088a.332.332 0 01-.073-.22c0-.088.024-.162.073-.222.05-.06.122-.091.22-.091s.17.031.22.093a.33.33 0 01.076.22zm2.318 3.198a.383.383 0 00-.126-.287c-.084-.08-.246-.174-.486-.28a3.24 3.24 0 01-.592-.297.852.852 0 01-.255-.278.781.781 0 01-.085-.375c0-.258.094-.472.282-.642.189-.172.43-.258.723-.258.309 0 .557.09.744.27.188.18.282.41.282.691h-.516a.505.505 0 00-.51-.515.515.515 0 00-.36.12.407.407 0 00-.13.316c0 .106.032.19.095.255.064.065.217.15.46.255.384.15.646.298.785.443a.749.749 0 01.208.544.837.837 0 01-.284.663c-.19.164-.444.246-.762.246-.33 0-.598-.095-.803-.285a.938.938 0 01-.307-.72h.521a.58.58 0 00.161.413c.102.1.244.15.428.15.172 0 .303-.039.392-.115a.395.395 0 00.135-.314zm1.875-3.126v.768h.478v.419h-.478v1.966c0 .125.02.22.062.284.04.064.111.097.21.097a.653.653 0 00.209-.035l-.006.439c-.117.04-.237.059-.36.059-.206 0-.362-.074-.47-.22-.107-.147-.16-.354-.16-.621v-1.969h-.484v-.419h.484v-.767h.515zm2.23 3.997c-.395 0-.697-.118-.909-.352-.21-.236-.318-.582-.322-1.037v-.384c0-.473.103-.843.308-1.11.207-.27.495-.404.864-.404.371 0 .649.118.832.354.184.236.277.605.281 1.105v.34h-1.77v.073c0 .34.064.587.191.74.13.155.314.232.554.232a.898.898 0 00.401-.085 1.01 1.01 0 00.329-.275l.27.328c-.226.316-.568.475-1.03.475zm-.059-2.842c-.215 0-.374.074-.477.223-.104.146-.163.375-.176.685h1.248v-.07c-.014-.301-.069-.516-.164-.645-.094-.129-.238-.193-.43-.193zm2.227-.387l.014.343c.201-.268.458-.401.77-.401.561 0 .846.373.853 1.122V43h-.515v-2.083c0-.248-.042-.424-.126-.527-.082-.106-.206-.159-.372-.159a.531.531 0 00-.349.13.936.936 0 00-.246.336V43h-.518v-3.17h.489zm4.59 1.72l-.275.316V43h-.518v-4.5h.518v2.692l.987-1.362h.621l-1.007 1.324L35.985 43h-.604l-.861-1.45zm1.802-.281c0-.461.112-.826.334-1.093.225-.27.52-.404.888-.404.367 0 .662.13.885.392.224.262.34.618.345 1.07v.333c0 .46-.11.823-.334 1.09-.222.268-.52.402-.89.402-.367 0-.662-.13-.885-.39-.22-.26-.335-.611-.343-1.055v-.345zm.519.298c0 .327.063.583.19.77a.601.601 0 00.519.28c.457 0 .692-.33.706-.991v-.357c0-.325-.065-.58-.194-.768a.598.598 0 00-.518-.284.593.593 0 00-.513.284c-.127.188-.19.442-.19.765v.301zm-.264-2.584c0-.087.026-.16.08-.22.054-.06.134-.09.24-.09.105 0 .185.03.24.09a.31.31 0 01.082.22.31.31 0 01-.082.22c-.055.059-.135.088-.24.088-.106 0-.186-.03-.24-.088a.316.316 0 01-.08-.22zm1.26.006c0-.088.026-.162.079-.222.055-.06.135-.091.24-.091.106 0 .186.03.24.09a.32.32 0 01.082.223.31.31 0 01-.081.22c-.055.059-.135.088-.24.088-.106 0-.186-.03-.241-.088a.316.316 0 01-.08-.22zm2.095.841l.014.343c.202-.268.458-.401.77-.401.561 0 .845.373.853 1.122V43h-.515v-2.083c0-.248-.042-.424-.126-.527-.082-.106-.206-.159-.372-.159a.531.531 0 00-.349.13.936.936 0 00-.246.336V43h-.519v-3.17h.49zm2.906 0l.015.343c.2-.268.458-.401.77-.401.56 0 .845.373.853 1.122V43h-.516v-2.083c0-.248-.042-.424-.126-.527-.082-.106-.206-.159-.372-.159a.531.531 0 00-.349.13.936.936 0 00-.246.336V43h-.518v-3.17h.489zm3.55 3.229c-.394 0-.697-.118-.907-.352-.211-.236-.319-.582-.323-1.037v-.384c0-.473.103-.843.308-1.11.207-.27.495-.404.864-.404.371 0 .648.118.832.354.184.236.277.605.281 1.105v.34h-1.77v.073c0 .34.064.587.191.74.13.155.314.232.554.232a.899.899 0 00.401-.085c.117-.058.227-.15.329-.275l.269.328c-.225.316-.567.475-1.028.475zm-.058-2.842c-.215 0-.374.074-.477.223-.104.146-.162.375-.176.685h1.248v-.07c-.014-.301-.069-.516-.164-.645-.094-.129-.237-.193-.43-.193zm2.227-.387l.014.343c.202-.268.458-.401.77-.401.561 0 .845.373.853 1.122V43h-.515v-2.083c0-.248-.042-.424-.126-.527-.082-.106-.206-.159-.372-.159a.531.531 0 00-.349.13.936.936 0 00-.246.336V43h-.519v-3.17h.49zm2.422 4.02l-.307-.211c.184-.256.28-.52.287-.791v-.49h.53v.425c0 .197-.048.395-.146.592a1.37 1.37 0 01-.364.475zm2.44-2.578c0-.489.092-.86.273-1.117.184-.256.447-.383.788-.383.303 0 .54.123.71.369V38.5h.518V43h-.475l-.026-.34a.816.816 0 01-.73.399.909.909 0 01-.773-.381c-.185-.256-.28-.616-.284-1.081v-.325zm.52.295c0 .356.052.618.158.785.105.167.277.25.515.25.258 0 .45-.13.578-.39v-1.6c-.133-.254-.325-.38-.575-.38-.238 0-.41.083-.515.251-.106.166-.16.422-.161.768v.316zM58.136 43a1.14 1.14 0 01-.068-.346c-.183.27-.418.405-.703.405-.287 0-.512-.08-.674-.24-.16-.163-.24-.39-.24-.683 0-.323.11-.578.328-.768.219-.19.519-.286.9-.29h.38v-.337c0-.19-.041-.324-.125-.404-.084-.08-.212-.12-.384-.12a.528.528 0 00-.381.14.461.461 0 00-.146.352h-.52c0-.162.049-.316.145-.463a.995.995 0 01.386-.349 1.16 1.16 0 01.542-.125c.324 0 .57.08.739.243.17.16.256.394.26.703v1.6c.002.244.035.455.1.635V43h-.54zm-.692-.413a.686.686 0 00.364-.106.65.65 0 00.252-.263v-.756h-.293c-.247.004-.44.06-.583.167a.522.522 0 00-.214.445c0 .18.036.31.108.393.072.08.194.12.366.12zm3.478-.399a.383.383 0 00-.126-.287c-.084-.08-.246-.174-.486-.28a3.237 3.237 0 01-.592-.297.852.852 0 01-.255-.278.781.781 0 01-.085-.375c0-.258.094-.472.281-.642.19-.172.43-.258.724-.258.308 0 .556.09.744.27.188.18.281.41.281.691h-.515a.505.505 0 00-.51-.515.515.515 0 00-.36.12.406.406 0 00-.13.316c0 .106.032.19.094.255.065.065.218.15.46.255.385.15.647.298.785.443a.749.749 0 01.208.544.837.837 0 01-.284.663c-.19.164-.443.246-.761.246-.33 0-.598-.095-.803-.285a.938.938 0 01-.308-.72h.522a.58.58 0 00.16.413c.102.1.245.15.428.15.172 0 .303-.039.393-.115a.395.395 0 00.135-.314zm3.09-2.033a.915.915 0 01.757-.383c.56 0 .844.373.852 1.122V43h-.515v-2.083c0-.248-.042-.424-.126-.527-.083-.106-.207-.159-.373-.159a.531.531 0 00-.348.13.936.936 0 00-.246.336V43h-.519v-4.5h.519v1.655zm2.274 1.114c0-.461.111-.826.334-1.093.225-.27.52-.404.888-.404.367 0 .662.13.885.392.224.262.34.618.345 1.07v.333c0 .46-.111.823-.334 1.09-.222.268-.52.402-.89.402-.367 0-.662-.13-.885-.39-.22-.26-.335-.611-.343-1.055v-.345zm.519.298c0 .327.063.583.19.77a.602.602 0 00.519.28c.457 0 .692-.33.706-.991v-.357c0-.325-.065-.58-.194-.768a.598.598 0 00-.518-.284.593.593 0 00-.513.284c-.127.188-.19.442-.19.765v.301zm3.12-1.412a.915.915 0 01.756-.383c.56 0 .844.373.852 1.122V43h-.515v-2.083c0-.248-.042-.424-.126-.527-.082-.106-.206-.159-.373-.159a.531.531 0 00-.348.13.936.936 0 00-.246.336V43h-.519v-4.5h.519v1.655zm3.515 2.904c-.394 0-.697-.118-.908-.352-.21-.236-.318-.582-.322-1.037v-.384c0-.473.103-.843.308-1.11.207-.27.495-.404.864-.404.37 0 .648.118.832.354.183.236.277.605.281 1.105v.34h-1.77v.073c0 .34.064.587.191.74.129.155.314.232.554.232a.898.898 0 00.401-.085 1.01 1.01 0 00.328-.275l.27.328c-.225.316-.568.475-1.029.475zm-.058-2.842c-.215 0-.374.074-.478.223-.103.146-.162.375-.175.685h1.248v-.07c-.014-.301-.069-.516-.165-.645-.093-.129-.237-.193-.43-.193zM6.749 48.274h-.75V50H5.46v-4.266h1.195c.418 0 .735.11.95.328.214.217.322.536.322.956 0 .263-.059.494-.176.691-.115.195-.28.343-.492.442l.826 1.814V50h-.577l-.759-1.726zm-.75-.46h.65a.693.693 0 00.537-.216c.134-.145.202-.338.202-.58 0-.547-.248-.82-.744-.82h-.645v1.617zM9.134 50h-.519v-3.17h.519V50zm.04-4.01a.332.332 0 01-.072.219c-.05.059-.123.088-.223.088-.098 0-.171-.03-.22-.088a.332.332 0 01-.073-.22c0-.088.024-.162.073-.222.049-.06.122-.091.22-.091s.17.031.22.093a.33.33 0 01.076.22zm2.318 3.198a.383.383 0 00-.126-.287c-.084-.08-.246-.174-.486-.28a3.237 3.237 0 01-.592-.297.852.852 0 01-.255-.278.782.782 0 01-.085-.375c0-.258.094-.472.281-.642.19-.172.431-.258.724-.258.309 0 .557.09.744.27.188.18.282.41.282.691h-.516a.505.505 0 00-.51-.515.515.515 0 00-.36.12.406.406 0 00-.13.316c0 .106.032.19.095.255.064.065.217.15.46.255.384.15.646.298.785.443a.749.749 0 01.208.544.837.837 0 01-.284.663c-.19.164-.444.246-.762.246-.33 0-.598-.095-.803-.285a.938.938 0 01-.308-.72h.522a.58.58 0 00.161.413c.102.1.244.15.428.15.172 0 .303-.039.392-.115a.395.395 0 00.135-.314zm1.755.812h-.518v-3.17h.518V50zm.041-4.01a.331.331 0 01-.073.219c-.049.059-.123.088-.223.088-.098 0-.17-.03-.22-.088a.331.331 0 01-.073-.22c0-.088.025-.162.074-.222.048-.06.122-.091.22-.091.097 0 .17.031.219.093a.33.33 0 01.076.22zm1.573 2.56l-.275.316V50h-.519v-4.5h.519v2.692l.987-1.362h.621l-1.007 1.324L16.326 50h-.604l-.862-1.45zm1.802-.281c0-.461.111-.826.334-1.093.225-.27.52-.404.888-.404.367 0 .662.13.884.392.225.262.34.618.346 1.07v.333c0 .46-.111.823-.334 1.09-.222.268-.52.402-.89.402-.368 0-.662-.13-.885-.39-.22-.26-.335-.611-.343-1.055v-.345zm.519.298c0 .327.063.583.19.77a.601.601 0 00.519.28c.457 0 .692-.33.706-.991v-.357c0-.325-.065-.58-.194-.768a.598.598 0 00-.518-.284.593.593 0 00-.513.284c-.127.188-.19.442-.19.765v.301zm5.112 1.492c-.395 0-.697-.118-.908-.352-.211-.236-.319-.582-.322-1.037v-.384c0-.473.102-.843.307-1.11.207-.27.495-.404.864-.404.371 0 .649.118.832.354.184.236.278.605.282 1.105v.34h-1.77v.073c0 .34.064.587.19.74.13.155.314.232.554.232a.898.898 0 00.402-.085 1.01 1.01 0 00.328-.275l.27.328c-.225.316-.568.475-1.03.475zm-.059-2.842c-.215 0-.374.074-.477.223-.104.146-.162.375-.176.685h1.248v-.07c-.014-.301-.068-.516-.164-.645-.094-.129-.237-.193-.43-.193zM24.532 50h-.518v-3.17h.518V50zm.041-4.01a.332.332 0 01-.073.219c-.049.059-.123.088-.223.088-.097 0-.17-.03-.22-.088a.332.332 0 01-.073-.22c0-.088.025-.162.074-.222.048-.06.122-.091.22-.091.097 0 .17.031.22.093a.33.33 0 01.075.22zm1.266.84l.015.343c.2-.268.457-.401.77-.401.56 0 .845.373.853 1.122V50h-.516v-2.083c0-.248-.042-.424-.126-.527-.082-.106-.206-.159-.372-.159a.531.531 0 00-.349.13.936.936 0 00-.246.336V50h-.518v-3.17h.489zm2.897 2.728h1.53V50h-2.121v-.398l1.453-2.324h-1.442v-.448h2.051v.384l-1.47 2.344zm3.774.164c-.172.224-.423.337-.753.337-.287 0-.504-.099-.65-.296-.147-.2-.221-.489-.223-.867V46.83h.515v2.027c0 .495.149.742.446.742.314 0 .531-.141.65-.422V46.83h.519V50h-.492l-.012-.278zm1.18-1.45c0-.495.09-.868.27-1.12.18-.254.442-.38.788-.38a.81.81 0 01.735.413l.027-.355h.468v3.2c0 .392-.1.693-.301.902-.201.21-.482.316-.841.316a1.44 1.44 0 01-.527-.117 1.093 1.093 0 01-.437-.284l.211-.358c.215.211.452.317.712.317.432 0 .653-.236.665-.706v-.413a.813.813 0 01-.715.372c-.328 0-.584-.123-.767-.37-.184-.248-.28-.603-.288-1.066v-.351zm.519.295c0 .356.052.618.155.785.106.167.278.25.516.25.258 0 .451-.132.58-.396v-1.585c-.135-.26-.326-.39-.574-.39-.239 0-.41.084-.516.252-.105.166-.16.422-.161.768v.316zm3.677 1.492c-.395 0-.698-.118-.909-.352-.21-.236-.318-.582-.322-1.037v-.384c0-.473.103-.843.308-1.11.207-.27.495-.404.864-.404.371 0 .649.118.832.354.184.236.278.605.281 1.105v.34h-1.77v.073c0 .34.064.587.191.74.13.155.314.232.554.232a.898.898 0 00.401-.085 1.01 1.01 0 00.328-.275l.27.328c-.224.316-.567.475-1.028.475zm-.059-2.842c-.215 0-.374.074-.477.223-.104.146-.163.375-.176.685h1.248v-.07c-.014-.301-.069-.516-.164-.645-.094-.129-.238-.193-.43-.193zm2.256-.062a.915.915 0 01.756-.383c.56 0 .845.373.852 1.122V50h-.515v-2.083c0-.248-.042-.424-.126-.527-.082-.106-.206-.159-.372-.159a.531.531 0 00-.349.13.936.936 0 00-.246.336V50h-.518v-4.5h.518v1.655zm3.516 2.904c-.395 0-.698-.118-.909-.352-.21-.236-.318-.582-.322-1.037v-.384c0-.473.103-.843.308-1.11.207-.27.495-.404.864-.404.371 0 .648.118.832.354.184.236.277.605.281 1.105v.34h-1.77v.073c0 .34.064.587.191.74.13.155.314.232.554.232a.898.898 0 00.401-.085 1.01 1.01 0 00.328-.275l.27.328c-.225.316-.567.475-1.028.475zm-.059-2.842c-.215 0-.374.074-.477.223-.104.146-.163.375-.176.685h1.248v-.07c-.014-.301-.069-.516-.164-.645-.094-.129-.238-.193-.431-.193zm2.227-.387l.014.343c.201-.268.458-.401.77-.401.561 0 .846.373.853 1.122V50h-.515v-2.083c0-.248-.042-.424-.126-.527-.082-.106-.206-.159-.372-.159a.531.531 0 00-.349.13.936.936 0 00-.246.336V50h-.519v-3.17h.49zm2.422 4.02l-.307-.211c.183-.256.28-.52.287-.791v-.49h.53v.425c0 .197-.049.395-.146.592a1.37 1.37 0 01-.363.475zm3.182-.85h-.536v-4.266h.536V50zm1.386-2.845a.915.915 0 01.756-.383c.56 0 .844.373.852 1.122V50h-.515v-2.083c0-.248-.042-.424-.126-.527-.082-.106-.206-.159-.372-.159a.532.532 0 00-.35.13.937.937 0 00-.245.336V50h-.519v-4.5h.519v1.655zm3.691.161a1.258 1.258 0 00-.234-.02c-.266 0-.451.145-.557.436V50h-.518v-3.17h.504l.008.322c.139-.254.335-.38.59-.38.081 0 .15.013.204.04l.003.504zm4.638 2.154l-.094.117c-.27.314-.664.472-1.183.472-.461 0-.824-.153-1.087-.457-.262-.307-.396-.74-.402-1.298v-.838c0-.598.12-1.045.358-1.342.24-.299.598-.448 1.075-.448.406 0 .724.113.952.34.23.226.358.55.38.97h-.535c-.022-.266-.096-.473-.223-.622-.125-.15-.315-.225-.571-.225-.307 0-.531.1-.674.301-.142.2-.217.519-.223.958v.87c0 .43.082.76.246.99.165.23.4.344.707.344.289 0 .508-.07.659-.211l.079-.074v-.984h-.78v-.457h1.316v1.594zm1.937.589c-.395 0-.698-.118-.909-.352-.21-.236-.318-.582-.322-1.037v-.384c0-.473.102-.843.308-1.11.207-.27.495-.404.864-.404.371 0 .648.118.832.354.184.236.277.605.281 1.105v.34h-1.77v.073c0 .34.064.587.191.74.129.155.314.232.554.232a.898.898 0 00.401-.085 1.01 1.01 0 00.328-.275l.27.328c-.225.316-.568.475-1.029.475zm-.06-2.842c-.214 0-.373.074-.477.223-.103.146-.162.375-.175.685h1.248v-.07c-.014-.301-.069-.516-.164-.645-.094-.129-.238-.193-.431-.193zM65.262 50h-.519v-4.5h.519V50zm.709-1.728c0-.489.09-.86.272-1.117.184-.256.447-.383.788-.383.303 0 .54.123.71.369V45.5h.518V50h-.475l-.026-.34a.816.816 0 01-.73.399.909.909 0 01-.773-.381c-.186-.256-.28-.616-.284-1.081v-.325zm.518.295c0 .356.053.618.159.785.105.167.277.25.515.25.258 0 .45-.13.577-.39v-1.6c-.133-.254-.324-.38-.574-.38-.238 0-.41.083-.516.251-.105.166-.159.422-.16.768v.316zm4.424.99h1.53V50H70.32v-.398l1.453-2.324h-1.441v-.448h2.05v.384l-1.47 2.344zm3.773.165c-.171.224-.422.337-.752.337-.288 0-.504-.099-.65-.296-.147-.2-.222-.489-.223-.867V46.83h.515v2.027c0 .495.149.742.445.742.315 0 .532-.141.65-.422V46.83h.52V50h-.493l-.011-.278zm-68.399 6.49l.6-2.382h.528L6.474 57h-.387l-.952-3.17h.527l.624 2.382zm2.8.847c-.394 0-.696-.118-.907-.352-.211-.236-.319-.582-.323-1.037v-.384c0-.473.103-.843.308-1.11.207-.27.495-.404.864-.404.371 0 .649.118.832.354.184.236.278.605.282 1.105v.34h-1.77v.073c0 .34.064.587.19.74.13.155.314.232.554.232a.898.898 0 00.402-.085c.117-.058.226-.15.328-.275l.27.328c-.225.316-.568.475-1.03.475zm-.058-2.842c-.215 0-.374.074-.477.223-.104.146-.162.375-.176.685h1.248v-.07c-.014-.301-.068-.516-.164-.645-.094-.129-.237-.193-.43-.193zm3.047.1a1.26 1.26 0 00-.234-.021c-.266 0-.451.145-.557.436V57h-.518v-3.17h.504l.008.322c.139-.254.335-.38.59-.38.081 0 .15.013.204.04l.003.504zM13.153 57h-.518v-4.5h.518V57zm1.377 0h-.518v-3.17h.518V57zm.041-4.01a.331.331 0 01-.073.219c-.049.059-.123.088-.223.088-.097 0-.17-.03-.22-.088a.331.331 0 01-.073-.22c0-.088.025-.162.074-.222.049-.06.122-.091.22-.091.097 0 .17.031.22.093a.33.33 0 01.075.22zm1.91 4.069c-.394 0-.697-.118-.908-.352-.21-.236-.318-.582-.322-1.037v-.384c0-.473.103-.843.308-1.11.207-.27.495-.404.864-.404.37 0 .648.118.832.354.184.236.277.605.281 1.105v.34h-1.77v.073c0 .34.064.587.191.74.129.155.313.232.554.232a.898.898 0 00.401-.085 1.01 1.01 0 00.328-.275l.27.328c-.225.316-.568.475-1.029.475zm-.058-2.842c-.215 0-.374.074-.478.223-.103.146-.162.375-.175.685h1.248v-.07c-.014-.301-.069-.516-.165-.645-.093-.129-.237-.193-.43-.193zm3.047.1a1.258 1.258 0 00-.235-.021c-.265 0-.45.145-.556.436V57h-.519v-3.17h.504l.009.322c.139-.254.335-.38.589-.38.082 0 .15.013.205.04l.003.504zm1.652 2.742c-.395 0-.697-.118-.908-.352-.211-.236-.319-.582-.322-1.037v-.384c0-.473.102-.843.307-1.11.207-.27.495-.404.864-.404.372 0 .649.118.832.354.184.236.278.605.282 1.105v.34h-1.77v.073c0 .34.064.587.19.74.13.155.314.232.554.232a.898.898 0 00.402-.085c.117-.058.226-.15.328-.275l.27.328c-.225.316-.568.475-1.029.475zm-.058-2.842c-.215 0-.375.074-.478.223-.104.146-.162.375-.176.685h1.248v-.07c-.014-.301-.068-.516-.164-.645-.094-.129-.237-.193-.43-.193zm2.226-.387l.015.343c.2-.268.458-.401.77-.401.56 0 .845.373.853 1.122V57h-.516v-2.083c0-.248-.042-.424-.126-.527-.082-.106-.206-.159-.372-.159a.532.532 0 00-.349.13.937.937 0 00-.246.336V57h-.518v-3.17h.489zm2.452 2.886c0-.094.027-.172.082-.235.057-.062.14-.093.252-.093.111 0 .195.03.252.093a.33.33 0 01.088.235c0 .09-.03.165-.088.225-.056.061-.14.091-.252.091-.111 0-.195-.03-.252-.09a.324.324 0 01-.082-.226z" fill="#000"/></svg>