<svg width="468" height="60" viewBox="0 0 468 60" fill="none" xmlns="http://www.w3.org/2000/svg"><path fill="url(#paint0_linear_14_806)" d="M0 0h468v60H0z"/><rect x="259" y="19" width="124" height="22" rx="11" fill="#14964F"/><path d="M272.133 33h1.08l-2.241-6.264h-1.188L267.543 33h1.071l.45-1.278h2.619l.45 1.278zm-.738-2.115h-2.043l1.026-2.907 1.017 2.907zM277.707 33h1.017v-2.925c0-1.386-.873-2.115-2.034-2.115-.594 0-1.143.243-1.476.648v-.567h-1.026V33h1.026v-2.772c0-.909.495-1.377 1.251-1.377.747 0 1.242.468 1.242 1.377V33zm9.354 0h1.017v-2.925c0-1.386-.882-2.115-2.043-2.115-.72 0-1.422.378-1.728.981-.342-.648-.999-.981-1.782-.981-.594 0-1.134.243-1.467.648v-.567h-1.026V33h1.026v-2.772c0-.909.495-1.377 1.251-1.377.747 0 1.242.468 1.242 1.377V33h1.017v-2.772c0-.909.495-1.377 1.251-1.377.747 0 1.242.468 1.242 1.377V33zm4.411-4.176c.765 0 1.368.486 1.386 1.251h-2.745c.108-.783.666-1.251 1.359-1.251zm2.322 2.7h-1.107c-.189.387-.54.693-1.17.693-.756 0-1.341-.495-1.413-1.314h3.789c.027-.171.036-.333.036-.504 0-1.458-.999-2.439-2.412-2.439-1.467 0-2.475.999-2.475 2.556s1.053 2.565 2.475 2.565c1.215 0 1.998-.693 2.277-1.557zM294.939 33h1.026v-6.66h-1.026V33zm2.031-2.502c0 1.53 1.035 2.583 2.34 2.583.81 0 1.404-.378 1.719-.828V33h1.035v-6.66h-1.035v2.394c-.378-.468-1.062-.774-1.71-.774-1.314 0-2.349 1.008-2.349 2.538zm4.059.018c0 1.071-.729 1.674-1.503 1.674-.765 0-1.503-.621-1.503-1.692s.738-1.647 1.503-1.647c.774 0 1.503.603 1.503 1.665zm4.47-1.692c.765 0 1.368.486 1.386 1.251h-2.745c.108-.783.666-1.251 1.359-1.251zm2.322 2.7h-1.107c-.189.387-.54.693-1.17.693-.756 0-1.341-.495-1.413-1.314h3.789c.027-.171.036-.333.036-.504 0-1.458-.999-2.439-2.412-2.439-1.467 0-2.475.999-2.475 2.556s1.053 2.565 2.475 2.565c1.215 0 1.998-.693 2.277-1.557zM312.485 33h1.017v-2.925c0-1.386-.873-2.115-2.034-2.115-.594 0-1.143.243-1.476.648v-.567h-1.026V33h1.026v-2.772c0-.909.495-1.377 1.251-1.377.747 0 1.242.468 1.242 1.377V33zm9.155-4.959h-1.026v2.763c0 .909-.495 1.377-1.251 1.377-.747 0-1.242-.468-1.242-1.377v-2.763h-1.017v2.916c0 1.386.882 2.115 2.043 2.115.585 0 1.143-.243 1.467-.666V33h1.026v-4.959zM326.512 33h1.017v-2.925c0-1.386-.873-2.115-2.034-2.115-.594 0-1.143.243-1.476.648v-.567h-1.026V33h1.026v-2.772c0-.909.495-1.377 1.251-1.377.747 0 1.242.468 1.242 1.377V33zm1.984-2.502c0 1.53 1.035 2.583 2.34 2.583.81 0 1.404-.378 1.719-.828V33h1.035v-6.66h-1.035v2.394c-.378-.468-1.062-.774-1.71-.774-1.314 0-2.349 1.008-2.349 2.538zm4.059.018c0 1.071-.729 1.674-1.503 1.674-.765 0-1.503-.621-1.503-1.692s.738-1.647 1.503-1.647c.774 0 1.503.603 1.503 1.665zm8.69 2.484h1.026v-6.255h-1.026v2.682h-2.943v-2.682h-1.026V33h1.026v-2.736h2.943V33zm2.034-2.502c0 1.53 1.035 2.583 2.322 2.583.828 0 1.422-.396 1.737-.819V33h1.035v-4.959h-1.035v.72c-.306-.405-.882-.801-1.719-.801-1.305 0-2.34 1.008-2.34 2.538zm4.059.018c0 1.071-.729 1.674-1.503 1.674-.765 0-1.503-.621-1.503-1.692s.738-1.647 1.503-1.647c.774 0 1.503.603 1.503 1.665zM353.24 33h1.017v-2.925c0-1.386-.873-2.115-2.034-2.115-.594 0-1.143.243-1.476.648v-.567h-1.026V33h1.026v-2.772c0-.909.495-1.377 1.251-1.377.747 0 1.242.468 1.242 1.377V33zm1.984-2.502c0 1.53 1.035 2.583 2.34 2.583.81 0 1.404-.378 1.719-.828V33h1.035v-6.66h-1.035v2.394c-.378-.468-1.062-.774-1.71-.774-1.314 0-2.349 1.008-2.349 2.538zm4.059.018c0 1.071-.729 1.674-1.503 1.674-.765 0-1.503-.621-1.503-1.692s.738-1.647 1.503-1.647c.774 0 1.503.603 1.503 1.665zm4.47-1.692c.765 0 1.368.486 1.386 1.251h-2.745c.108-.783.666-1.251 1.359-1.251zm2.322 2.7h-1.107c-.189.387-.54.693-1.17.693-.756 0-1.341-.495-1.413-1.314h3.789c.027-.171.036-.333.036-.504 0-1.458-.999-2.439-2.412-2.439-1.467 0-2.475.999-2.475 2.556s1.053 2.565 2.475 2.565c1.215 0 1.998-.693 2.277-1.557zM367.22 33h1.026v-6.66h-1.026V33zm5.892 0h1.017v-2.925c0-1.386-.873-2.115-2.034-2.115-.594 0-1.143.243-1.476.648v-.567h-1.026V33h1.026v-2.772c0-.909.495-1.377 1.251-1.377.747 0 1.242.468 1.242 1.377V33zM115 21.415h14.071v4.282h-9.187v2.984h8.304v4.062h-8.304v6.272H115v-17.6z" fill="#fff"/><path fill-rule="evenodd" clip-rule="evenodd" d="M153.209 21.415h8.419c2.713 0 4.616.718 5.818 1.906 1.035.995 1.567 2.376 1.567 4.09v.054c0 2.68-1.455 4.477-3.665 5.416l4.252 6.134h-5.706l-3.58-5.333h-2.182v5.333h-4.951v-17.6h.028zm8.195 8.454c1.679 0 2.658-.801 2.658-2.1v-.055c0-1.381-1.008-2.1-2.686-2.1h-3.244v4.228h3.272v.027z" fill="#fff"/><path d="M171.322 21.415h14.154v4.144h-9.326v2.68h8.443v3.84h-8.443v2.791h9.436v4.145h-14.264v-17.6zM193.229 30.063l-5.794-8.648h5.601l3.118 4.945 3.145-4.945h5.463l-5.766 8.592 6.042 9.008h-5.601l-3.366-5.305-3.394 5.305h-5.49l6.042-8.952zM209.811 30.67c0-2.017 1.545-3.702 3.752-3.702 1.435 0 2.401.635 3.008 1.575l-1.683 1.243c-.331-.47-.718-.746-1.297-.746-.8 0-1.38.691-1.38 1.547v.028c0 .912.58 1.603 1.408 1.603.579 0 .965-.277 1.352-.719l1.655 1.188c-.662.967-1.573 1.603-3.118 1.603-2.152.028-3.697-1.63-3.697-3.62" fill="#fff"/><path fill-rule="evenodd" clip-rule="evenodd" d="M218.103 30.67c0-2.017 1.65-3.702 3.944-3.702 2.266 0 3.916 1.658 3.916 3.647v.028c0 1.99-1.65 3.675-3.944 3.675-2.266 0-3.916-1.658-3.916-3.648m5.427 0c0-.884-.644-1.602-1.511-1.602-.895 0-1.482.718-1.482 1.547v.028c0 .856.643 1.575 1.51 1.575.923 0 1.483-.719 1.483-1.548" fill="#fff"/><path d="M227.294 27.106h2.455v.967c.442-.58 1.104-1.105 2.097-1.105.938 0 1.656.414 2.015 1.133.607-.691 1.324-1.133 2.345-1.133 1.49 0 2.4.94 2.4 2.57v4.614h-2.455v-3.84c0-.774-.387-1.161-.966-1.161-.58 0-1.021.414-1.021 1.16v3.813h-2.428v-3.813c0-.773-.386-1.16-.966-1.16-.579 0-.993.414-.993 1.16v3.813h-2.455v-7.018h-.028z" fill="#fff"/><path fill-rule="evenodd" clip-rule="evenodd" d="M148.929 30.173c0-.177-.003-.352-.01-.525h2.108l.56-1.602h-2.839c-.779-4.384-4.04-7.046-8.965-7.046-5.539 0-9.119 3.647-9.119 9.284 0 5.691 3.468 9.2 9.119 9.173 4.605 0 7.873-2.504 8.845-6.604h1.924l.587-1.602h-2.256c.03-.35.046-.71.046-1.078zm-9.035 6.742c-2.853 0-3.972-2.984-3.972-6.687 0-3.702.896-6.659 3.777-6.686 2.266 0 3.437 1.866 3.823 4.504h-2.453l-.559 1.602h3.15a20.07 20.07 0 01-.014 1.603h-3.024l-.588 1.602h3.451c-.388 2.402-1.432 4.062-3.591 4.062z" fill="#14964F"/><path d="M206.39 32.825c0-.359.138-.635.387-.911.248-.249.551-.387.91-.387s.662.138.911.387c.248.248.386.552.386.911 0 .36-.138.664-.386.912-.249.249-.552.36-.911.36s-.662-.111-.91-.36c-.276-.22-.387-.525-.387-.912" fill="#fff"/><defs><linearGradient id="paint0_linear_14_806" x1="180" y1="40" x2="501" y2="40" gradientUnits="userSpaceOnUse"><stop stop-color="#12225C"/><stop offset="1" stop-color="#0954B5"/></linearGradient></defs></svg>