<svg width="124" height="20" viewBox="0 0 124 20" fill="none" xmlns="http://www.w3.org/2000/svg"><rect width="124" height="20" rx="10" fill="#14964F"/><path d="M13.133 13h1.08l-2.24-6.264h-1.189L8.544 13h1.07l.45-1.278h2.62l.45 1.278zm-.738-2.115h-2.043l1.026-2.907 1.017 2.907zM18.707 13h1.017v-2.925c0-1.386-.873-2.115-2.034-2.115-.594 0-1.143.243-1.476.648v-.567h-1.026V13h1.026v-2.772c0-.909.495-1.377 1.25-1.377.748 0 1.243.468 1.243 1.377V13zm9.354 0h1.017v-2.925c0-1.386-.882-2.115-2.043-2.115-.72 0-1.422.378-1.728.981-.342-.648-.999-.981-1.782-.981-.594 0-1.134.243-1.467.648v-.567h-1.026V13h1.026v-2.772c0-.909.495-1.377 1.251-1.377.747 0 1.242.468 1.242 1.377V13h1.017v-2.772c0-.909.495-1.377 1.251-1.377.747 0 1.242.468 1.242 1.377V13zm4.411-4.176c.765 0 1.368.486 1.386 1.251h-2.745c.108-.783.666-1.251 1.359-1.251zm2.322 2.7h-1.107c-.189.387-.54.693-1.17.693-.756 0-1.341-.495-1.413-1.314h3.789c.027-.171.036-.333.036-.504 0-1.458-.999-2.439-2.412-2.439-1.467 0-2.475.999-2.475 2.556s1.053 2.565 2.475 2.565c1.215 0 1.998-.693 2.277-1.557zM35.939 13h1.026V6.34h-1.026V13zm2.03-2.502c0 1.53 1.036 2.583 2.34 2.583.81 0 1.405-.378 1.72-.828V13h1.035V6.34h-1.035v2.394c-.378-.468-1.062-.774-1.71-.774-1.314 0-2.35 1.008-2.35 2.538zm4.06.018c0 1.071-.73 1.674-1.503 1.674-.765 0-1.503-.621-1.503-1.692s.738-1.647 1.503-1.647c.774 0 1.503.603 1.503 1.665zm4.47-1.692c.765 0 1.368.486 1.386 1.251H45.14c.108-.783.666-1.251 1.36-1.251zm2.322 2.7h-1.107c-.189.387-.54.693-1.17.693-.756 0-1.34-.495-1.413-1.314h3.79c.026-.171.035-.333.035-.504 0-1.458-.999-2.439-2.412-2.439-1.467 0-2.475.999-2.475 2.556s1.053 2.565 2.475 2.565c1.215 0 1.998-.693 2.277-1.557zM53.485 13h1.017v-2.925c0-1.386-.873-2.115-2.034-2.115-.594 0-1.143.243-1.476.648v-.567h-1.026V13h1.026v-2.772c0-.909.495-1.377 1.251-1.377.747 0 1.242.468 1.242 1.377V13zm9.155-4.959h-1.026v2.763c0 .909-.495 1.377-1.251 1.377-.747 0-1.242-.468-1.242-1.377V8.041h-1.017v2.916c0 1.386.882 2.115 2.043 2.115.585 0 1.143-.243 1.467-.666V13h1.026V8.041zM67.512 13h1.017v-2.925c0-1.386-.873-2.115-2.034-2.115-.594 0-1.143.243-1.476.648v-.567h-1.026V13h1.026v-2.772c0-.909.495-1.377 1.251-1.377.747 0 1.242.468 1.242 1.377V13zm1.984-2.502c0 1.53 1.035 2.583 2.34 2.583.81 0 1.404-.378 1.72-.828V13h1.034V6.34h-1.035v2.394c-.378-.468-1.062-.774-1.71-.774-1.314 0-2.349 1.008-2.349 2.538zm4.06.018c0 1.071-.73 1.674-1.504 1.674-.765 0-1.503-.621-1.503-1.692s.738-1.647 1.503-1.647c.774 0 1.503.603 1.503 1.665zM82.244 13h1.026V6.745h-1.026v2.682h-2.943V6.745h-1.026V13h1.026v-2.736h2.943V13zm2.034-2.502c0 1.53 1.035 2.583 2.322 2.583.828 0 1.422-.396 1.737-.819V13h1.035V8.041h-1.035v.72c-.306-.405-.882-.801-1.719-.801-1.305 0-2.34 1.008-2.34 2.538zm4.06.018c0 1.071-.73 1.674-1.504 1.674-.765 0-1.503-.621-1.503-1.692s.738-1.647 1.503-1.647c.774 0 1.503.603 1.503 1.665zm5.9 2.484h1.018v-2.925c0-1.386-.873-2.115-2.034-2.115-.594 0-1.143.243-1.476.648v-.567H90.72V13h1.026v-2.772c0-.909.495-1.377 1.25-1.377.748 0 1.243.468 1.243 1.377V13zm1.985-2.502c0 1.53 1.035 2.583 2.34 2.583.81 0 1.404-.378 1.719-.828V13h1.035V6.34h-1.035v2.394c-.378-.468-1.062-.774-1.71-.774-1.314 0-2.35 1.008-2.35 2.538zm4.059.018c0 1.071-.73 1.674-1.503 1.674-.765 0-1.503-.621-1.503-1.692s.738-1.647 1.503-1.647c.774 0 1.503.603 1.503 1.665zm4.47-1.692c.765 0 1.368.486 1.386 1.251h-2.745c.108-.783.666-1.251 1.359-1.251zm2.322 2.7h-1.107c-.189.387-.54.693-1.17.693-.756 0-1.341-.495-1.413-1.314h3.789c.027-.171.036-.333.036-.504 0-1.458-.999-2.439-2.412-2.439-1.467 0-2.475.999-2.475 2.556s1.053 2.565 2.475 2.565c1.215 0 1.998-.693 2.277-1.557zM108.22 13h1.026V6.34h-1.026V13zm5.892 0h1.017v-2.925c0-1.386-.873-2.115-2.034-2.115-.594 0-1.143.243-1.476.648v-.567h-1.026V13h1.026v-2.772c0-.909.495-1.377 1.251-1.377.747 0 1.242.468 1.242 1.377V13z" fill="#fff"/></svg>