<svg width="89" height="60" viewBox="0 0 89 60" fill="none" xmlns="http://www.w3.org/2000/svg"><path fill="#fff" d="M0 0h89v60H0z"/><path d="M7 25.24h8.424v2.49h-5.5v1.733h4.972v2.36H9.924v3.645H7V25.24z" fill="#12225C"/><path fill-rule="evenodd" clip-rule="evenodd" d="M29.875 25.24h5.04c1.625 0 2.763.418 3.483 1.109.62.578.938 1.38.938 2.376v.032c0 1.557-.87 2.6-2.193 3.146l2.545 3.565h-3.416l-2.144-3.099H32.822v3.099h-2.964V25.24h.017zm4.906 4.914c1.005 0 1.591-.466 1.591-1.22V28.9c0-.802-.603-1.22-1.607-1.22h-1.943v2.456h1.96v.017z" fill="#12225C"/><path d="M40.719 25.24h8.473v2.409H43.61v1.557h5.055v2.232h-5.055v1.622h5.65v2.408h-8.54V25.24zM53.834 30.266l-3.469-5.025h3.353l1.867 2.874 1.883-2.874h3.27l-3.452 4.993 3.617 5.234H57.55l-2.015-3.083-2.032 3.083h-3.287l3.618-5.202zM63.761 30.619c0-1.172.925-2.151 2.246-2.151.86 0 1.438.369 1.801.915l-1.008.722c-.198-.273-.43-.433-.776-.433-.479 0-.826.401-.826.899v.016c0 .53.347.931.843.931.347 0 .578-.16.809-.417l.991.69c-.396.562-.941.931-1.866.931-1.289.016-2.214-.947-2.214-2.103" fill="#12225C"/><path fill-rule="evenodd" clip-rule="evenodd" d="M68.725 30.619c0-1.172.988-2.151 2.362-2.151 1.356 0 2.344.963 2.344 2.119v.016c0 1.156-.988 2.135-2.361 2.135-1.357 0-2.345-.963-2.345-2.119m3.25 0c0-.514-.386-.931-.905-.931-.536 0-.888.417-.888.899v.016c0 .498.385.915.905.915.552 0 .887-.417.887-.899" fill="#12225C"/><path d="M74.228 28.548h1.47v.562c.264-.337.66-.642 1.255-.642.562 0 .991.24 1.206.658.363-.401.793-.658 1.404-.658.892 0 1.437.546 1.437 1.493v2.68h-1.47v-2.23c0-.45-.231-.675-.578-.675s-.611.24-.611.674v2.216h-1.454V30.41c0-.45-.231-.674-.578-.674s-.595.24-.595.674v2.216h-1.47v-4.078h-.016z" fill="#12225C"/><path fill-rule="evenodd" clip-rule="evenodd" d="M27.313 30.33c0-.103-.002-.204-.006-.305h1.262l.335-.931h-1.7C26.738 26.547 24.785 25 21.837 25c-3.316 0-5.46 2.12-5.46 5.394 0 3.308 2.077 5.347 5.46 5.33 2.757 0 4.713-1.454 5.295-3.836h1.152l.352-.932h-1.35c.017-.203.027-.412.027-.626zm-5.41 3.918c-1.707 0-2.377-1.734-2.377-3.886 0-2.151.536-3.869 2.26-3.885 1.357 0 2.059 1.085 2.29 2.617h-1.469l-.335.931h1.886a11.752 11.752 0 01-.009.931h-1.81l-.351.931h2.065c-.232 1.396-.857 2.36-2.15 2.36z" fill="#14964F"/><path d="M61.713 31.871c0-.208.083-.369.231-.53a.76.76 0 01.545-.224.76.76 0 01.546.224.718.718 0 01.23.53.718.718 0 01-.23.53.746.746 0 01-.546.209.746.746 0 01-.545-.209c-.165-.128-.231-.305-.231-.53" fill="#12225C"/></svg>