<svg width="132" height="20" viewBox="0 0 132 20" fill="none" xmlns="http://www.w3.org/2000/svg"><path d="M10.986.915C5.812.889.924 4.295.924 10.3c0 5.148 4.368 9.334 9.75 9.334 3.068 0 5.902-1.014 8.086-2.756V8.923h-7.774v3.484h3.12v1.742a6.752 6.752 0 01-3.432.91c-2.73 0-4.628-2.132-4.628-4.758 0-3.042 2.314-4.862 4.94-4.862 1.404 0 2.834.494 3.978 1.482l3.198-3.354C16.134 1.825 13.56.94 10.986.915zm11.329.286v18.174h10.244c4.732 0 6.24-2.47 6.24-4.966 0-1.898-.858-3.796-3.406-4.576 1.716-.702 2.678-2.054 2.678-4.03 0-3.042-2.21-4.628-5.954-4.628l-9.802.026zm4.888 7.332V5.179h3.484c1.456 0 2.262.572 2.262 1.69 0 1.092-.832 1.664-2.262 1.664h-3.484zm0 6.864v-3.614h4.134c1.794 0 2.366.91 2.366 1.82s-.572 1.794-2.366 1.794h-4.134zM41.612 1.2v18.174H46.5V14.2h3.12c5.408 0 7.982-2.002 7.982-6.448 0-4.446-2.444-6.552-8.034-6.552h-7.956zM46.5 5.413h2.886c2.184 0 3.12.806 3.12 2.522 0 1.742-.962 2.496-3.12 2.496H46.5V5.413zm16.937 14.404l9.1-19.084-4.056.026-9.1 19.058h4.056zm28.23-18.642h-4.913v9.854c0 2.912-1.327 4.134-3.459 4.134-2.106 0-3.431-1.222-3.457-4.134V1.2H74.95v9.828c0 5.954 3.224 8.606 8.346 8.606 5.121 0 8.371-2.652 8.371-8.606V1.175zm10.98-.26c-4.238.026-7.566 1.872-7.566 5.954 0 3.562 2.964 4.524 7.098 5.512 2.99.754 3.51.858 3.51 1.898 0 .832-.884 1.196-1.898 1.196-2.314 0-4.94-.676-7.306-2.002l-2.184 3.64c2.496 1.664 5.564 2.548 8.944 2.548 4.68 0 7.618-2.132 7.618-6.006 0-3.718-3.042-4.758-7.306-5.902-2.834-.702-3.172-.936-3.172-1.508 0-.832.806-1.196 1.742-1.196 1.794 0 4.238.624 6.318 1.69l2.054-3.77c-2.132-1.3-4.94-2.054-7.852-2.054zm11.023.286v18.174h7.8c5.382 0 9.75-3.926 9.75-9.074 0-5.174-4.368-9.126-9.75-9.126l-7.8.026zm4.888 4.368h2.73c2.704 0 4.914 2.028 4.914 4.706 0 2.704-2.21 4.732-4.914 4.732h-2.73V5.569z" fill="#09B45B"/></svg>