<svg width="248" height="43" viewBox="0 0 248 43" fill="none" xmlns="http://www.w3.org/2000/svg"><path d="M.624 5.368H3.6V15h1.824V5.368h2.96V3.88H.624v1.488zm9 5.184c0 2.72 1.84 4.592 4.127 4.592 1.472 0 2.528-.704 3.088-1.456V15h1.84V6.184h-1.84v1.28c-.544-.72-1.568-1.424-3.056-1.424-2.32 0-4.16 1.792-4.16 4.512zm7.215.032c0 1.904-1.296 2.976-2.672 2.976-1.36 0-2.672-1.104-2.672-3.008s1.312-2.928 2.672-2.928c1.376 0 2.672 1.072 2.672 2.96zM22.9 7.48V6.184h-1.824v13.008h1.824V13.72a3.986 3.986 0 003.072 1.424c2.32 0 4.144-1.872 4.144-4.592 0-2.72-1.824-4.512-4.144-4.512-1.44 0-2.512.704-3.072 1.44zm5.36 3.072c0 1.904-1.312 3.008-2.688 3.008-1.36 0-2.672-1.072-2.672-2.976 0-1.888 1.312-2.96 2.672-2.96 1.376 0 2.688 1.024 2.688 2.928zM36.075 15h1.824V6.184h-1.824V15zm.928-9.984a1.15 1.15 0 001.152-1.168 1.15 1.15 0 00-1.152-1.168c-.656 0-1.168.512-1.168 1.168 0 .656.512 1.168 1.168 1.168zM46.55 15h1.808V9.8c0-2.464-1.552-3.76-3.616-3.76-1.056 0-2.032.432-2.624 1.152V6.184h-1.824V15h1.824v-4.928c0-1.616.88-2.448 2.224-2.448 1.328 0 2.208.832 2.208 2.448V15zm4.422-2.448c0 1.792.976 2.448 2.544 2.448h1.44v-1.52h-1.12c-.768 0-1.024-.272-1.024-.928v-4.88h2.144V6.184h-2.144V3.992h-1.84v2.192h-1.04v1.488h1.04v4.88zm14.065-1.968c0-2.768-1.984-4.544-4.496-4.544-2.511 0-4.495 1.776-4.495 4.544s1.904 4.56 4.416 4.56c2.527 0 4.575-1.792 4.575-4.56zm-7.136 0c0-2 1.232-2.96 2.608-2.96 1.36 0 2.657.96 2.657 2.96s-1.344 2.976-2.704 2.976c-1.377 0-2.56-.976-2.56-2.976zm13.384 1.968c0 1.792.976 2.448 2.544 2.448h1.44v-1.52h-1.12c-.768 0-1.024-.272-1.024-.928v-4.88h2.144V6.184h-2.144V3.992h-1.84v2.192h-1.04v1.488h1.04v4.88zm9.377-4.976c1.36 0 2.432.864 2.464 2.224h-4.88c.192-1.392 1.184-2.224 2.416-2.224zm4.128 4.8h-1.968c-.336.688-.96 1.232-2.08 1.232-1.344 0-2.384-.88-2.512-2.336h6.736c.048-.304.064-.592.064-.896 0-2.592-1.776-4.336-4.288-4.336-2.608 0-4.4 1.776-4.4 4.544s1.872 4.56 4.4 4.56c2.16 0 3.552-1.232 4.048-2.768zm1.427-1.792c0 2.768 1.792 4.56 4.32 4.56 2.16 0 3.568-1.2 4.064-2.928h-1.968c-.336.912-1.008 1.392-2.096 1.392-1.472 0-2.448-1.088-2.448-3.024 0-1.92.976-3.008 2.448-3.008 1.088 0 1.792.544 2.096 1.392h1.968c-.496-1.856-1.904-2.928-4.064-2.928-2.528 0-4.32 1.792-4.32 4.544zM96.419 15h1.824v-4.928c0-1.616.88-2.448 2.224-2.448 1.328 0 2.208.832 2.208 2.448V15h1.808V9.8c0-2.464-1.536-3.76-3.504-3.76-1.136 0-2.128.432-2.736 1.168V3.16h-1.824V15zm21.123-2.464c-.096-3.184-5.072-2.192-5.072-3.968 0-.592.512-.992 1.488-.992.992 0 1.584.528 1.648 1.296h1.824c-.096-1.76-1.408-2.832-3.408-2.832-2.08 0-3.392 1.136-3.392 2.544 0 3.232 5.12 2.24 5.12 3.968 0 .608-.56 1.056-1.616 1.056-1.008 0-1.696-.592-1.76-1.312h-1.888c.08 1.6 1.568 2.848 3.68 2.848 2.08 0 3.376-1.12 3.376-2.608zm2.259.016c0 1.792.976 2.448 2.544 2.448h1.44v-1.52h-1.12c-.768 0-1.024-.272-1.024-.928v-4.88h2.144V6.184h-2.144V3.992h-1.84v2.192h-1.04v1.488h1.04v4.88zm14.065-1.968c0-2.768-1.984-4.544-4.496-4.544-2.512 0-4.496 1.776-4.496 4.544s1.904 4.56 4.416 4.56c2.528 0 4.576-1.792 4.576-4.56zm-7.136 0c0-2 1.232-2.96 2.608-2.96 1.36 0 2.656.96 2.656 2.96s-1.344 2.976-2.704 2.976c-1.376 0-2.56-.976-2.56-2.976zm8.331 0c0 2.768 1.792 4.56 4.32 4.56 2.16 0 3.568-1.2 4.064-2.928h-1.968c-.336.912-1.008 1.392-2.096 1.392-1.472 0-2.448-1.088-2.448-3.024 0-1.92.976-3.008 2.448-3.008 1.088 0 1.792.544 2.096 1.392h1.968c-.496-1.856-1.904-2.928-4.064-2.928-2.528 0-4.32 1.792-4.32 4.544zM145.263 15h1.824v-3.792L150.351 15h2.464l-4.064-4.4 4.064-4.416h-2.528l-3.2 3.856V3.16h-1.824V15zm15.435-2.464c-.096-3.184-5.072-2.192-5.072-3.968 0-.592.512-.992 1.488-.992.992 0 1.584.528 1.648 1.296h1.824c-.096-1.76-1.408-2.832-3.408-2.832-2.08 0-3.392 1.136-3.392 2.544 0 3.232 5.12 2.24 5.12 3.968 0 .608-.56 1.056-1.616 1.056-1.008 0-1.696-.592-1.76-1.312h-1.888c.08 1.6 1.568 2.848 3.68 2.848 2.08 0 3.376-1.12 3.376-2.608zM167.049 15h1.84V7.672h1.632V6.184h-1.632V5.56c0-1.008.384-1.392 1.504-1.392v-1.52c-2.304 0-3.344.88-3.344 2.912v.624h-1.04v1.488h1.04V15zm6.913-4.64c0-1.872.832-2.432 2.176-2.432h.464V6.04c-1.248 0-2.128.544-2.64 1.424v-1.28h-1.824V15h1.824v-4.64zm12.716.224c0-2.768-1.984-4.544-4.496-4.544-2.512 0-4.496 1.776-4.496 4.544s1.904 4.56 4.416 4.56c2.528 0 4.576-1.792 4.576-4.56zm-7.136 0c0-2 1.232-2.96 2.608-2.96 1.36 0 2.656.96 2.656 2.96s-1.344 2.976-2.704 2.976c-1.376 0-2.56-.976-2.56-2.976zM200.977 15h1.808V9.8c0-2.464-1.568-3.76-3.632-3.76-1.28 0-2.528.672-3.072 1.744-.608-1.152-1.776-1.744-3.168-1.744-1.056 0-2.016.432-2.608 1.152V6.184h-1.824V15h1.824v-4.928c0-1.616.88-2.448 2.224-2.448 1.328 0 2.208.832 2.208 2.448V15h1.808v-4.928c0-1.616.88-2.448 2.224-2.448 1.328 0 2.208.832 2.208 2.448V15zm8.014-8.784h1.776c.112-.816.704-1.584 1.984-1.584 1.248 0 1.904.672 1.904 1.68 0 1.248-1.008 1.728-2.656 1.744h-.432V9.56h.416c1.904 0 2.896.528 2.896 2.064 0 1.088-.672 1.92-2.032 1.92-1.376 0-2.176-.832-2.256-1.92h-1.76c.112 2.288 1.824 3.44 4.032 3.44 2.432 0 3.744-1.408 3.744-3.264 0-1.616-.784-2.624-2-2.992v-.064c.912-.304 1.792-1.248 1.792-2.64 0-1.696-1.264-3.04-3.584-3.04-2.128 0-3.697 1.136-3.824 3.152zm15.752 1.264V6.184h-1.824v13.008h1.824V13.72a3.986 3.986 0 003.072 1.424c2.32 0 4.144-1.872 4.144-4.592 0-2.72-1.824-4.512-4.144-4.512-1.44 0-2.512.704-3.072 1.44zm5.36 3.072c0 1.904-1.312 3.008-2.688 3.008-1.36 0-2.672-1.072-2.672-2.976 0-1.888 1.312-2.96 2.672-2.96 1.376 0 2.688 1.024 2.688 2.928zm3.948 2c0 1.792.976 2.448 2.544 2.448h1.44v-1.52h-1.12c-.768 0-1.024-.272-1.024-.928v-4.88h2.144V6.184h-2.144V3.992h-1.84v2.192h-1.04v1.488h1.04v4.88zm12.241-.016c-.096-3.184-5.072-2.192-5.072-3.968 0-.592.512-.992 1.488-.992.992 0 1.584.528 1.648 1.296h1.824c-.096-1.76-1.408-2.832-3.408-2.832-2.08 0-3.392 1.136-3.392 2.544 0 3.232 5.12 2.24 5.12 3.968 0 .608-.56 1.056-1.616 1.056-1.008 0-1.696-.592-1.76-1.312h-1.888c.08 1.6 1.568 2.848 3.68 2.848 2.08 0 3.376-1.12 3.376-2.608zM3.912 23.408v.464H2.36V29H1.8v-5.128H.24v-.464h3.672zm1.444 2c.123-.272.31-.483.56-.632.256-.15.568-.224.936-.224v.584H6.7c-.405 0-.73.11-.976.328-.245.219-.368.584-.368 1.096V29h-.56v-4.368h.56v.776zm2.083 1.4c0-.448.088-.84.264-1.176a1.92 1.92 0 01.744-.784c.32-.187.68-.28 1.08-.28.416 0 .773.096 1.072.288.304.192.522.437.656.736v-.96h.56V29h-.56v-.968c-.139.299-.36.547-.664.744-.299.192-.656.288-1.072.288-.395 0-.752-.093-1.072-.28a1.976 1.976 0 01-.744-.792 2.548 2.548 0 01-.264-1.184zm3.816.008c0-.352-.072-.661-.216-.928a1.532 1.532 0 00-.592-.616 1.582 1.582 0 00-.816-.216c-.31 0-.587.07-.832.208-.246.139-.44.341-.584.608-.139.261-.208.573-.208.936 0 .357.069.672.208.944.144.267.338.472.584.616.245.139.522.208.832.208.298 0 .57-.072.816-.216.25-.144.448-.35.592-.616.144-.267.216-.576.216-.928zm1.582-.008c0-.448.09-.84.272-1.176.181-.341.43-.603.744-.784.32-.187.68-.28 1.08-.28.384 0 .73.093 1.04.28.31.187.536.43.68.728V23.08h.56V29h-.56v-.976a1.706 1.706 0 01-.656.752 1.965 1.965 0 01-1.072.288c-.4 0-.76-.093-1.08-.28a1.977 1.977 0 01-.744-.792 2.548 2.548 0 01-.264-1.184zm3.816.008c0-.352-.072-.661-.216-.928a1.582 1.582 0 00-1.408-.832c-.31 0-.586.07-.832.208-.245.139-.44.341-.584.608-.138.261-.208.573-.208.936 0 .357.07.672.208.944.144.267.339.472.584.616.246.139.523.208.832.208a1.582 1.582 0 001.408-.832c.144-.267.216-.576.216-.928zm5.79-.224c0 .192-.005.339-.015.44h-3.624c.016.33.096.613.24.848s.333.413.568.536c.234.117.49.176.768.176.362 0 .666-.088.912-.264.25-.176.416-.413.496-.712h.592a1.861 1.861 0 01-.688 1.048c-.347.267-.784.4-1.312.4-.411 0-.78-.09-1.104-.272a2.01 2.01 0 01-.768-.784c-.182-.341-.272-.739-.272-1.192 0-.453.09-.85.272-1.192a1.89 1.89 0 01.76-.784 2.245 2.245 0 011.112-.272c.416 0 .778.09 1.088.272.314.181.554.427.72.736.17.304.256.643.256 1.016zm-.567-.016c.005-.325-.062-.603-.2-.832a1.299 1.299 0 00-.552-.52 1.694 1.694 0 00-.768-.176c-.416 0-.771.133-1.064.4-.294.267-.456.643-.488 1.128h3.072zm4.515-1.472v2.712c0 .267.051.45.152.552.102.101.28.152.536.152h.512V29h-.6c-.394 0-.688-.09-.88-.272-.192-.187-.288-.49-.288-.912v-2.712h-.608v-.472h.608v-1.096h.568v1.096h1.2v.472h-1.2zm4.204-.552c.33 0 .627.07.888.208.267.139.475.352.624.64.155.283.232.63.232 1.04V29h-.552v-2.496c0-.475-.12-.837-.36-1.088-.235-.25-.557-.376-.968-.376-.421 0-.757.133-1.008.4-.25.267-.376.659-.376 1.176V29h-.56v-5.92h.56v2.296c.139-.261.341-.464.608-.608.272-.144.576-.216.912-.216zm6.934 2.04c0 .192-.005.339-.016.44H33.89c.016.33.096.613.24.848.143.235.333.413.567.536.235.117.491.176.768.176.363 0 .667-.088.912-.264.251-.176.416-.413.496-.712h.593a1.861 1.861 0 01-.688 1.048c-.347.267-.785.4-1.313.4-.41 0-.778-.09-1.104-.272a2.011 2.011 0 01-.767-.784c-.182-.341-.273-.739-.273-1.192 0-.453.091-.85.273-1.192a1.89 1.89 0 01.76-.784 2.245 2.245 0 011.111-.272c.416 0 .78.09 1.088.272.315.181.555.427.72.736.171.304.256.643.256 1.016zm-.568-.016c.006-.325-.06-.603-.2-.832a1.297 1.297 0 00-.552-.52 1.694 1.694 0 00-.768-.176c-.416 0-.77.133-1.064.4-.293.267-.456.643-.488 1.128h3.072zm4.324-3.168v3.52c0 .555.131.965.392 1.232.267.267.63.4 1.088.4.459 0 .816-.13 1.072-.392.262-.267.392-.68.392-1.24v-3.52h.56v3.512c0 .71-.189 1.243-.568 1.6-.373.357-.861.536-1.464.536-.602 0-1.093-.179-1.472-.536-.373-.357-.56-.89-.56-1.6v-3.512h.56zm6.45 5.648c-.369 0-.694-.064-.977-.192a1.595 1.595 0 01-.656-.536 1.408 1.408 0 01-.256-.768h.592c.027.272.147.512.36.72.214.203.526.304.936.304.38 0 .678-.096.896-.288a.95.95 0 00.336-.744c0-.24-.06-.432-.184-.576a1.078 1.078 0 00-.456-.328 6.375 6.375 0 00-.752-.24c-.373-.101-.669-.2-.888-.296a1.414 1.414 0 01-.56-.448c-.154-.203-.232-.477-.232-.824 0-.288.075-.544.224-.768.15-.23.36-.408.632-.536.272-.128.584-.192.936-.192.518 0 .934.128 1.248.384.32.25.504.576.552.976h-.608c-.037-.23-.162-.432-.376-.608-.213-.181-.5-.272-.864-.272-.336 0-.616.09-.84.272-.224.176-.336.419-.336.728 0 .235.062.424.184.568.123.144.275.253.456.328.187.075.438.155.752.24.363.101.656.203.88.304a1.4 1.4 0 01.568.448c.155.203.232.475.232.816 0 .261-.069.51-.208.744a1.517 1.517 0 01-.616.568c-.272.144-.597.216-.976.216zm8.349-5.648v.464h-1.552V29h-.56v-5.128h-1.56v-.464h3.672zm4.836 3.184c0 .192-.005.339-.016.44H57.28c.016.33.096.613.24.848s.333.413.568.536c.235.117.49.176.768.176.363 0 .667-.088.912-.264.25-.176.416-.413.496-.712h.592a1.86 1.86 0 01-.688 1.048c-.346.267-.784.4-1.312.4-.41 0-.779-.09-1.104-.272a2.011 2.011 0 01-.768-.784c-.181-.341-.272-.739-.272-1.192 0-.453.09-.85.272-1.192.181-.341.435-.603.76-.784a2.246 2.246 0 011.112-.272c.416 0 .779.09 1.088.272.315.181.555.427.72.736.17.304.256.643.256 1.016zm-.568-.016c.006-.325-.061-.603-.2-.832a1.297 1.297 0 00-.552-.52 1.693 1.693 0 00-.768-.176c-.416 0-.77.133-1.064.4-.293.267-.456.643-.488 1.128h3.072zm1.337.24c0-.453.09-.848.272-1.184.181-.341.432-.603.752-.784.32-.187.685-.28 1.096-.28.538 0 .981.133 1.328.4.352.267.578.63.68 1.088h-.6a1.206 1.206 0 00-.488-.736c-.246-.181-.552-.272-.92-.272-.294 0-.558.067-.792.2a1.422 1.422 0 00-.56.6c-.134.261-.2.584-.2.968s.066.71.2.976c.138.267.325.467.56.6.234.133.498.2.792.2.368 0 .674-.088.92-.264.25-.181.413-.432.488-.752h.6a1.832 1.832 0 01-.68 1.08c-.352.272-.795.408-1.328.408-.411 0-.776-.09-1.096-.272a1.972 1.972 0 01-.752-.784c-.182-.341-.272-.739-.272-1.192zm7.242-2.264c.33 0 .627.07.888.208.267.139.475.352.624.64.155.283.232.63.232 1.04V29h-.552v-2.496c0-.475-.12-.837-.36-1.088-.235-.25-.557-.376-.968-.376-.421 0-.757.133-1.008.4-.25.267-.376.659-.376 1.176V29h-.56v-5.92h.56v2.296c.139-.261.341-.464.608-.608.272-.144.576-.216.912-.216zm4.786-.784v-.504h1.36V29h-.568v-5.232h-.792zm2.608 2.312c0-.917.141-1.63.424-2.136.282-.507.789-.76 1.52-.76.73 0 1.237.253 1.52.76.282.507.424 1.219.424 2.136 0 .933-.142 1.656-.424 2.168-.283.512-.79.768-1.52.768-.736 0-1.246-.256-1.528-.768-.278-.512-.416-1.235-.416-2.168zm3.336 0c0-.496-.035-.915-.104-1.256-.07-.341-.206-.616-.408-.824-.203-.208-.496-.312-.88-.312s-.678.104-.88.312c-.203.208-.339.483-.408.824-.07.341-.104.76-.104 1.256 0 .512.034.941.104 1.288.069.341.205.616.408.824.202.208.496.312.88.312s.677-.104.88-.312c.202-.208.338-.483.408-.824.069-.347.104-.776.104-1.288zm1.593 0c0-.917.142-1.63.424-2.136.283-.507.79-.76 1.52-.76.731 0 1.238.253 1.52.76.283.507.424 1.219.424 2.136 0 .933-.141 1.656-.424 2.168-.282.512-.789.768-1.52.768-.736 0-1.245-.256-1.528-.768-.277-.512-.416-1.235-.416-2.168zm3.336 0c0-.496-.034-.915-.104-1.256-.069-.341-.205-.616-.408-.824-.202-.208-.496-.312-.88-.312s-.677.104-.88.312c-.202.208-.338.483-.408.824-.069.341-.104.76-.104 1.256 0 .512.035.941.104 1.288.07.341.206.616.408.824.203.208.496.312.88.312s.678-.104.88-.312c.203-.208.339-.483.408-.824.07-.347.104-.776.104-1.288zm5.821 2.984c-.41 0-.781-.09-1.112-.272a2.067 2.067 0 01-.776-.784c-.186-.341-.28-.739-.28-1.192 0-.453.096-.848.288-1.184a1.98 1.98 0 01.784-.784c.331-.187.702-.28 1.112-.28.411 0 .782.093 1.112.28.336.181.598.443.784.784.192.336.288.73.288 1.184 0 .448-.096.843-.288 1.184a2.02 2.02 0 01-.792.792 2.32 2.32 0 01-1.12.272zm0-.488c.288 0 .555-.064.8-.192.246-.133.443-.33.592-.592.155-.267.232-.592.232-.976s-.074-.707-.224-.968a1.439 1.439 0 00-.592-.592 1.65 1.65 0 00-.8-.2c-.288 0-.554.067-.8.2a1.437 1.437 0 00-.592.592c-.144.261-.216.584-.216.968s.072.71.216.976c.15.261.344.459.584.592.246.128.512.192.8.192zm5.27-4.024c.522 0 .948.163 1.28.488.33.32.495.787.495 1.4V29h-.552v-2.496c0-.475-.12-.837-.36-1.088-.234-.25-.557-.376-.968-.376-.421 0-.757.133-1.008.4-.25.267-.376.659-.376 1.176V29h-.56v-4.368h.56v.744c.139-.267.339-.47.6-.608.261-.144.558-.216.888-.216zm4.953 2.256c0-.448.088-.84.264-1.176.181-.341.429-.603.744-.784.32-.187.68-.28 1.08-.28.416 0 .773.096 1.072.288.304.192.523.437.656.736v-.96h.56V29h-.56v-.968c-.139.299-.36.547-.664.744-.299.192-.656.288-1.072.288-.395 0-.752-.093-1.072-.28a1.972 1.972 0 01-.744-.792 2.548 2.548 0 01-.264-1.184zm3.816.008c0-.352-.072-.661-.216-.928a1.58 1.58 0 00-1.408-.832c-.309 0-.587.07-.832.208-.245.139-.44.341-.584.608-.139.261-.208.573-.208.936 0 .357.069.672.208.944.144.267.339.472.584.616.245.139.523.208.832.208a1.58 1.58 0 001.408-.832c.144-.267.216-.576.216-.928zm3.886-2.264c.523 0 .95.163 1.28.488.331.32.496.787.496 1.4V29h-.552v-2.496c0-.475-.12-.837-.36-1.088-.234-.25-.557-.376-.968-.376-.421 0-.757.133-1.008.4-.25.267-.376.659-.376 1.176V29h-.56v-4.368h.56v.744a1.41 1.41 0 01.6-.608c.262-.144.558-.216.888-.216zM.384 37.808c0-.448.088-.84.264-1.176a1.92 1.92 0 01.744-.784c.32-.187.68-.28 1.08-.28.416 0 .773.096 1.072.288.304.192.523.437.656.736v-.96h.56V40H4.2v-.968c-.139.299-.36.547-.664.744-.299.192-.656.288-1.072.288-.395 0-.752-.093-1.072-.28a1.976 1.976 0 01-.744-.792 2.548 2.548 0 01-.264-1.184zm3.816.008c0-.352-.072-.661-.216-.928a1.533 1.533 0 00-.592-.616 1.582 1.582 0 00-.816-.216c-.31 0-.587.07-.832.208-.245.139-.44.341-.584.608-.139.261-.208.573-.208.936 0 .357.07.672.208.944.144.267.339.472.584.616.245.139.523.208.832.208.299 0 .57-.072.816-.216.25-.144.448-.35.592-.616.144-.267.216-.576.216-.928zm7.598-2.184L10.43 40h-.56l-1.208-3.664L7.454 40h-.568l-1.368-4.368h.568l1.088 3.8 1.224-3.8h.56l1.208 3.808 1.08-3.808h.552zm.508 2.176c0-.448.088-.84.264-1.176a1.92 1.92 0 01.744-.784c.32-.187.68-.28 1.08-.28.416 0 .773.096 1.072.288.304.192.523.437.656.736v-.96h.56V40h-.56v-.968c-.139.299-.36.547-.664.744-.299.192-.656.288-1.072.288-.395 0-.752-.093-1.072-.28a1.976 1.976 0 01-.744-.792 2.548 2.548 0 01-.264-1.184zm3.816.008c0-.352-.072-.661-.216-.928a1.533 1.533 0 00-.592-.616 1.583 1.583 0 00-.816-.216c-.31 0-.587.07-.832.208-.245.139-.44.341-.584.608-.139.261-.208.573-.208.936 0 .357.07.672.208.944.144.267.338.472.584.616.245.139.522.208.832.208.299 0 .57-.072.816-.216.25-.144.448-.35.592-.616.144-.267.216-.576.216-.928zm2.398-1.408c.123-.272.31-.483.56-.632.256-.15.568-.224.936-.224v.584h-.152c-.405 0-.73.11-.976.328-.245.219-.368.584-.368 1.096V40h-.56v-4.368h.56v.776zm2.083 1.4c0-.448.09-.84.272-1.176a1.92 1.92 0 01.744-.784c.32-.187.68-.28 1.08-.28.384 0 .73.093 1.04.28.31.187.536.43.68.728V34.08h.56V40h-.56v-.976a1.707 1.707 0 01-.656.752 1.965 1.965 0 01-1.072.288c-.4 0-.76-.093-1.08-.28a1.976 1.976 0 01-.744-.792 2.548 2.548 0 01-.264-1.184zm3.816.008c0-.352-.072-.661-.216-.928a1.533 1.533 0 00-.592-.616 1.583 1.583 0 00-.816-.216c-.31 0-.587.07-.832.208-.246.139-.44.341-.584.608-.139.261-.208.573-.208.936 0 .357.07.672.208.944.144.267.338.472.584.616.245.139.522.208.832.208.298 0 .57-.072.816-.216.25-.144.448-.35.592-.616.144-.267.216-.576.216-.928zm4.55-1.016v.472h-3.112V36.8h3.112zm7.197-1.168L34.798 40h-.56l-1.208-3.664L31.822 40h-.568l-1.368-4.368h.568l1.088 3.8 1.224-3.8h.56l1.208 3.808 1.08-3.808h.552zm1.043-.824a.393.393 0 01-.288-.12.402.402 0 01-.12-.296c0-.117.04-.213.12-.288.08-.08.176-.12.288-.12.112 0 .208.04.288.12.08.075.12.17.12.288 0 .117-.04.216-.12.296a.393.393 0 01-.288.12zm.28.824V40h-.56v-4.368h.56zm3.316-.08c.523 0 .95.163 1.28.488.33.32.496.787.496 1.4V40h-.552v-2.496c0-.475-.12-.837-.36-1.088-.234-.25-.557-.376-.968-.376-.421 0-.757.133-1.008.4-.25.267-.376.659-.376 1.176V40h-.56v-4.368h.56v.744c.139-.267.339-.47.6-.608.261-.144.557-.216.888-.216zm5.063 0c.522 0 .949.163 1.28.488.33.32.496.787.496 1.4V40h-.552v-2.496c0-.475-.12-.837-.36-1.088-.235-.25-.558-.376-.968-.376-.422 0-.758.133-1.008.4-.251.267-.376.659-.376 1.176V40h-.56v-4.368h.56v.744c.138-.267.338-.47.6-.608.261-.144.557-.216.888-.216zm3.294-.744a.393.393 0 01-.288-.12.402.402 0 01-.12-.296c0-.117.04-.213.12-.288.08-.08.176-.12.288-.12.112 0 .208.04.288.12.08.075.12.17.12.288 0 .117-.04.216-.12.296a.393.393 0 01-.288.12zm.28.824V40h-.56v-4.368h.56zm3.316-.08c.523 0 .95.163 1.28.488.331.32.496.787.496 1.4V40h-.552v-2.496c0-.475-.12-.837-.36-1.088-.234-.25-.557-.376-.968-.376-.421 0-.757.133-1.008.4-.25.267-.376.659-.376 1.176V40h-.56v-4.368h.56v.744c.139-.267.339-.47.6-.608.262-.144.558-.216.888-.216zm4.847.016c.41 0 .768.096 1.072.288.304.192.523.435.656.728v-.952h.56v4.48c0 .4-.088.755-.264 1.064-.17.31-.41.547-.72.712-.31.17-.661.256-1.056.256-.56 0-1.027-.133-1.4-.4a1.702 1.702 0 01-.688-1.088h.552c.096.304.277.547.544.728.272.181.603.272.992.272.282 0 .536-.061.76-.184.224-.117.4-.293.528-.528.128-.235.192-.512.192-.832v-1.08c-.139.299-.36.547-.664.744-.299.192-.653.288-1.064.288-.4 0-.76-.093-1.08-.28a1.976 1.976 0 01-.744-.792 2.548 2.548 0 01-.264-1.184c0-.448.088-.84.264-1.176a1.92 1.92 0 01.744-.784c.32-.187.68-.28 1.08-.28zm1.728 2.248c0-.352-.072-.661-.216-.928a1.582 1.582 0 00-1.408-.832c-.31 0-.587.07-.832.208-.245.139-.44.341-.584.608-.139.261-.208.573-.208.936 0 .357.07.672.208.944.144.267.339.472.584.616.245.139.523.208.832.208a1.582 1.582 0 001.408-.832c.144-.267.216-.576.216-.928zm4.586-1.224c.138-.293.357-.536.656-.728.304-.197.664-.296 1.08-.296.394 0 .749.093 1.064.28.32.181.568.443.744.784.18.336.272.728.272 1.176 0 .448-.091.843-.272 1.184a1.906 1.906 0 01-.744.792c-.315.187-.67.28-1.064.28-.411 0-.768-.096-1.072-.288a1.784 1.784 0 01-.664-.736v3.024h-.552v-6.432h.552v.96zm3.248 1.216c0-.363-.072-.675-.216-.936a1.444 1.444 0 00-.576-.608 1.661 1.661 0 00-.832-.208c-.3 0-.574.072-.824.216a1.55 1.55 0 00-.584.616 1.923 1.923 0 00-.216.928c0 .352.072.661.216.928.144.267.338.472.584.616.25.144.525.216.824.216.309 0 .586-.07.832-.208.245-.144.437-.35.576-.616.144-.272.216-.587.216-.944zm2.158-3.728V40h-.56v-5.92h.56zm1.012 3.728c0-.448.088-.84.264-1.176.181-.341.43-.603.744-.784.32-.187.68-.28 1.08-.28.416 0 .773.096 1.072.288.304.192.523.437.656.736v-.96h.56V40h-.56v-.968a1.77 1.77 0 01-.664.744c-.299.192-.656.288-1.072.288-.395 0-.752-.093-1.072-.28a1.977 1.977 0 01-.744-.792 2.548 2.548 0 01-.264-1.184zm3.816.008c0-.352-.072-.661-.216-.928a1.582 1.582 0 00-1.408-.832c-.31 0-.587.07-.832.208-.245.139-.44.341-.584.608-.138.261-.208.573-.208.936 0 .357.07.672.208.944.144.267.339.472.584.616.245.139.523.208.832.208a1.582 1.582 0 001.408-.832c.144-.267.216-.576.216-.928zm2.567-1.712v2.712c0 .267.05.45.152.552.1.101.28.152.536.152h.512V40h-.6c-.395 0-.688-.09-.88-.272-.192-.187-.288-.49-.288-.912v-2.712h-.608v-.472h.608v-1.096h.568v1.096h1.2v.472h-1.2zm3.843 0h-1.016V40h-.56v-3.896h-.608v-.472h.608v-.304c0-.475.12-.824.36-1.048.246-.224.64-.336 1.184-.336v.48c-.363 0-.619.07-.768.208-.144.139-.216.37-.216.696v.304h1.016v.472zm2.794 3.96c-.411 0-.782-.09-1.112-.272a2.068 2.068 0 01-.776-.784c-.187-.341-.28-.739-.28-1.192 0-.453.096-.848.288-1.184a1.98 1.98 0 01.784-.784c.33-.187.701-.28 1.112-.28.41 0 .781.093 1.112.28.336.181.597.443.784.784.192.336.288.73.288 1.184 0 .448-.096.843-.288 1.184a2.02 2.02 0 01-.792.792 2.32 2.32 0 01-1.12.272zm0-.488c.288 0 .554-.064.8-.192.245-.133.442-.33.592-.592.154-.267.232-.592.232-.976s-.075-.707-.224-.968a1.438 1.438 0 00-.592-.592 1.649 1.649 0 00-.8-.2c-.288 0-.555.067-.8.2a1.438 1.438 0 00-.592.592c-.144.261-.216.584-.216.968s.072.71.216.976c.149.261.344.459.584.592.245.128.512.192.8.192zm3.78-3.168c.123-.272.31-.483.56-.632.257-.15.569-.224.936-.224v.584h-.151c-.406 0-.731.11-.977.328-.245.219-.367.584-.367 1.096V40h-.56v-4.368h.56v.776zm7.539-.856c.512 0 .928.163 1.248.488.325.32.488.787.488 1.4V40h-.552v-2.496c0-.475-.115-.837-.344-1.088-.23-.25-.541-.376-.936-.376-.41 0-.739.136-.984.408-.245.272-.368.667-.368 1.184V40h-.552v-2.496c0-.475-.115-.837-.344-1.088-.23-.25-.544-.376-.944-.376-.41 0-.739.136-.984.408-.245.272-.368.667-.368 1.184V40h-.56v-4.368h.56v.752c.139-.272.336-.477.592-.616.256-.144.541-.216.856-.216.379 0 .71.09.992.272.288.181.496.448.624.8.117-.347.317-.61.6-.792.288-.187.613-.28.976-.28z" fill="#fff"/></svg>