<svg width="64" height="20" viewBox="0 0 64 20" fill="none" xmlns="http://www.w3.org/2000/svg"><rect width="64" height="20" rx="10" fill="#14964F"/><path d="M8.533 7.582h1.674V13h1.026V7.582h1.665v-.837H8.533v.837zm6.43 2.808c0-1.053.468-1.368 1.224-1.368h.26V7.96c-.701 0-1.196.306-1.484.801v-.72h-1.026V13h1.026v-2.61zm2.086.108c0 1.53 1.035 2.583 2.322 2.583.828 0 1.422-.396 1.737-.819V13h1.035V8.041h-1.035v.72c-.306-.405-.882-.801-1.72-.801-1.304 0-2.34 1.008-2.34 2.538zm4.059.018c0 1.071-.73 1.674-1.503 1.674-.765 0-1.503-.621-1.503-1.692s.738-1.647 1.503-1.647c.774 0 1.503.603 1.503 1.665zm2.04-.018c0 1.53 1.035 2.583 2.34 2.583.81 0 1.404-.378 1.72-.828V13h1.034V6.34h-1.035v2.394c-.378-.468-1.062-.774-1.71-.774-1.314 0-2.349 1.008-2.349 2.538zm4.06.018c0 1.071-.73 1.674-1.504 1.674-.765 0-1.503-.621-1.503-1.692s.738-1.647 1.503-1.647c.774 0 1.503.603 1.503 1.665zm4.47-1.692c.765 0 1.368.486 1.386 1.251h-2.745c.108-.783.666-1.251 1.359-1.251zm2.322 2.7h-1.107c-.189.387-.54.693-1.17.693-.756 0-1.341-.495-1.413-1.314h3.789c.027-.171.036-.333.036-.504 0-1.458-.999-2.439-2.412-2.439-1.467 0-2.475.999-2.475 2.556s1.053 2.565 2.475 2.565c1.215 0 1.998-.693 2.277-1.557zM41.002 13h1.017v-2.925c0-1.386-.873-2.115-2.034-2.115-.594 0-1.143.243-1.476.648v-.567h-1.026V13h1.026v-2.772c0-.909.495-1.377 1.25-1.377.748 0 1.243.468 1.243 1.377V13zm7.05-2.484c0-1.557-1.116-2.556-2.529-2.556-1.413 0-2.529.999-2.529 2.556s1.071 2.565 2.484 2.565c1.422 0 2.574-1.008 2.574-2.565zm-4.014 0c0-1.125.693-1.665 1.467-1.665.765 0 1.494.54 1.494 1.665s-.756 1.674-1.52 1.674c-.775 0-1.44-.549-1.44-1.674zM50.03 13h1.08l.999-3.663.999 3.663h1.08l1.539-4.959h-1.008l-1.026 3.969-1.008-3.969h-1.071l-1.053 3.987-1.035-3.987h-1.044L50.03 13z" fill="#fff"/></svg>