<svg width="134" height="20" viewBox="0 0 134 20" fill="none" xmlns="http://www.w3.org/2000/svg"><path d="M17.676 1.175h-4.914v9.854c0 2.912-1.326 4.134-3.458 4.134-2.106 0-3.432-1.222-3.458-4.134V1.2H.958v9.828c0 5.954 3.224 8.606 8.346 8.606s8.372-2.652 8.372-8.606V1.175zm10.98-.26c-4.239.026-7.567 1.872-7.567 5.954 0 3.562 2.964 4.524 7.098 5.512 2.99.754 3.51.858 3.51 1.898 0 .832-.884 1.196-1.898 1.196-2.314 0-4.94-.676-7.306-2.002l-2.184 3.64c2.496 1.664 5.564 2.548 8.944 2.548 4.68 0 7.618-2.132 7.618-6.006 0-3.718-3.042-4.758-7.306-5.902-2.834-.702-3.172-.936-3.172-1.508 0-.832.806-1.196 1.742-1.196 1.794 0 4.238.624 6.318 1.69l2.054-3.77c-2.132-1.3-4.94-2.054-7.852-2.054zm11.023.286v18.174h7.8c5.382 0 9.75-3.926 9.75-9.074 0-5.174-4.368-9.126-9.75-9.126l-7.8.026zm4.888 4.368h2.73c2.704 0 4.914 2.028 4.914 4.706 0 2.704-2.21 4.732-4.914 4.732h-2.73V5.569zM63.23 19.817L72.33.733l-4.055.026-9.1 19.058h4.056zM83.844.94c-5.304 0-9.594 4.186-9.594 9.36 0 5.148 4.29 9.334 9.594 9.334 3.25 0 6.11-1.56 7.826-3.978l-4.238-2.392a4.346 4.346 0 01-3.562 1.794c-2.652 0-4.498-2.132-4.498-4.758 0-2.652 1.846-4.784 4.498-4.784 1.508 0 2.756.702 3.562 1.794l4.238-2.392C89.953 2.5 87.093.94 83.843.94zm29.827 18.434l-7.254-18.2h-6.422l-7.176 18.2h5.85l1.17-3.172h6.812l1.17 3.172h5.85zm-12.558-7.072l2.106-5.668 2.106 5.668h-4.212zM116.13 1.2v18.174h7.8c5.382 0 9.75-3.926 9.75-9.074 0-5.174-4.368-9.126-9.75-9.126l-7.8.026zm4.888 4.368h2.73c2.704 0 4.914 2.028 4.914 4.706 0 2.704-2.21 4.732-4.914 4.732h-2.73V5.569z" fill="#09B45B"/></svg>