<svg width="180" height="28" viewBox="0 0 180 28" fill="none" xmlns="http://www.w3.org/2000/svg"><path d="M20.927 7.297V1.14H.047v25.507h21.098v-6.158H6.898v-3.826h13.045v-5.83H6.898V7.297h14.029zm27.53-6.158h-6.886v13.81c0 4.082-1.858 5.794-4.846 5.794-2.952 0-4.81-1.712-4.847-5.793V1.176h-6.85V14.95c0 8.344 4.518 12.06 11.697 12.06 7.178 0 11.733-3.716 11.733-12.06V1.14zm5.003.037v25.47h6.85v-7.761h4.082l4.955 7.761h7.907l-5.72-8.672c3.534-1.203 5.028-3.79 5.028-7.944 0-6.23-3.316-8.854-11.624-8.854H53.46zm6.85 6.158h4.956c3.024 0 4.154.947 4.154 3.133 0 2.223-1.13 3.134-4.154 3.134H60.31V7.334zm24.307 19.932L97.37.52l-5.684.036-12.754 26.71h5.685zm39.565-26.127h-6.887v13.81c0 4.082-1.858 5.794-4.846 5.794-2.952 0-4.81-1.712-4.846-5.793V1.176h-6.851V14.95c0 8.344 4.518 12.06 11.697 12.06 7.178 0 11.733-3.716 11.733-12.06V1.14zm15.387-.364c-5.939.036-10.603 2.623-10.603 8.344 0 4.992 4.154 6.34 9.947 7.725 4.191 1.057 4.92 1.203 4.92 2.66 0 1.166-1.239 1.676-2.66 1.676-3.243 0-6.924-.947-10.24-2.805l-3.061 5.101c3.499 2.332 7.798 3.571 12.535 3.571 6.559 0 10.677-2.988 10.677-8.417 0-5.21-4.263-6.668-10.239-8.272-3.972-.984-4.446-1.312-4.446-2.113 0-1.166 1.13-1.676 2.441-1.676 2.515 0 5.94.874 8.855 2.368l2.879-5.283c-2.988-1.822-6.924-2.88-11.005-2.88zm15.45.4v25.471h10.931c7.543 0 13.665-5.502 13.665-12.717 0-7.251-6.122-12.79-13.665-12.79l-10.931.037zm6.85 6.122h3.826c3.79 0 6.887 2.843 6.887 6.596 0 3.79-3.097 6.632-6.887 6.632h-3.826V7.297z" fill="#09B45B"/></svg>