<svg width="970" height="250" viewBox="0 0 970 250" fill="none" xmlns="http://www.w3.org/2000/svg"><path fill="url(#paint0_linear_23_1575)" d="M0 0h970v250H0z"/><rect x="551" y="103" width="133" height="44" rx="22" fill="#14964F"/><path d="M575.78 121.368h2.976V131h1.824v-9.632h2.96v-1.488h-7.76v1.488zm11.432 4.992c0-1.872.832-2.432 2.176-2.432h.464v-1.888c-1.248 0-2.128.544-2.64 1.424v-1.28h-1.824V131h1.824v-4.64zm3.708.192c0 2.72 1.84 4.592 4.128 4.592 1.472 0 2.528-.704 3.088-1.456V131h1.84v-8.816h-1.84v1.28c-.544-.72-1.568-1.424-3.056-1.424-2.32 0-4.16 1.792-4.16 4.512zm7.216.032c0 1.904-1.296 2.976-2.672 2.976-1.36 0-2.672-1.104-2.672-3.008s1.312-2.928 2.672-2.928c1.376 0 2.672 1.072 2.672 2.96zm3.628-.032c0 2.72 1.84 4.592 4.16 4.592 1.44 0 2.496-.672 3.056-1.472V131h1.84v-11.84h-1.84v4.256c-.672-.832-1.888-1.376-3.04-1.376-2.336 0-4.176 1.792-4.176 4.512zm7.216.032c0 1.904-1.296 2.976-2.672 2.976-1.36 0-2.672-1.104-2.672-3.008s1.312-2.928 2.672-2.928c1.376 0 2.672 1.072 2.672 2.96zm7.948-3.008c1.36 0 2.432.864 2.464 2.224h-4.88c.192-1.392 1.184-2.224 2.416-2.224zm4.128 4.8h-1.968c-.336.688-.96 1.232-2.08 1.232-1.344 0-2.384-.88-2.512-2.336h6.736c.048-.304.064-.592.064-.896 0-2.592-1.776-4.336-4.288-4.336-2.608 0-4.4 1.776-4.4 4.544s1.872 4.56 4.4 4.56c2.16 0 3.552-1.232 4.048-2.768zM633.503 131h1.808v-5.2c0-2.464-1.552-3.76-3.616-3.76-1.056 0-2.032.432-2.624 1.152v-1.008h-1.824V131h1.824v-4.928c0-1.616.88-2.448 2.224-2.448 1.328 0 2.208.832 2.208 2.448V131zm12.535-4.416c0-2.768-1.984-4.544-4.496-4.544-2.512 0-4.496 1.776-4.496 4.544s1.904 4.56 4.416 4.56c2.528 0 4.576-1.792 4.576-4.56zm-7.136 0c0-2 1.232-2.96 2.608-2.96 1.36 0 2.656.96 2.656 2.96s-1.344 2.976-2.704 2.976c-1.376 0-2.56-.976-2.56-2.976zM649.553 131h1.92l1.776-6.512 1.776 6.512h1.92l2.736-8.816h-1.792l-1.824 7.056-1.792-7.056h-1.904l-1.872 7.088-1.84-7.088h-1.856l2.752 8.816zM280 107.805h27.322v8.315h-17.84v5.794h16.125v7.886h-16.125v12.179H280v-34.174z" fill="#fff"/><path fill-rule="evenodd" clip-rule="evenodd" d="M354.188 107.805h16.348c5.268 0 8.961 1.395 11.297 3.702 2.009 1.931 3.041 4.613 3.041 7.939v.108c0 5.204-2.824 8.691-7.115 10.515l8.255 11.91h-11.079l-6.952-10.354h-4.236v10.354h-9.613v-34.174h.054zm15.913 16.416c3.259 0 5.16-1.556 5.16-4.077v-.107c0-2.683-1.956-4.078-5.214-4.078h-6.3v8.208h6.354v.054z" fill="#fff"/><path d="M389.358 107.805h27.482v8.047h-18.107v5.204h16.393v7.457h-16.393v5.418h18.321v8.048h-27.696v-34.174zM431.894 124.597l-11.25-16.792h10.875l6.053 9.603 6.107-9.603h10.608l-11.197 16.684 11.732 17.49h-10.875l-6.535-10.301-6.59 10.301h-10.661l11.733-17.382zM464.09 125.776c0-3.916 3-7.188 7.286-7.188 2.786 0 4.661 1.234 5.839 3.057l-3.268 2.415c-.643-.912-1.393-1.449-2.518-1.449-1.553 0-2.678 1.341-2.678 3.004v.054c0 1.77 1.125 3.112 2.732 3.112 1.125 0 1.875-.537 2.625-1.395l3.214 2.307c-1.285 1.877-3.053 3.111-6.053 3.111-4.179.054-7.179-3.165-7.179-7.028" fill="#fff"/><path fill-rule="evenodd" clip-rule="evenodd" d="M480.191 125.776c0-3.916 3.204-7.188 7.657-7.188 4.4 0 7.604 3.219 7.604 7.081v.054c0 3.863-3.204 7.135-7.658 7.135-4.399 0-7.603-3.219-7.603-7.082m10.536 0c0-1.716-1.249-3.111-2.933-3.111-1.738 0-2.879 1.395-2.879 3.004v.054c0 1.663 1.25 3.058 2.933 3.058 1.793 0 2.879-1.395 2.879-3.005" fill="#fff"/><path d="M498.036 118.856h4.767v1.877c.858-1.126 2.143-2.145 4.072-2.145 1.821 0 3.214.804 3.911 2.199 1.178-1.341 2.571-2.199 4.553-2.199 2.893 0 4.661 1.824 4.661 4.989v8.959h-4.768v-7.457c0-1.502-.75-2.253-1.875-2.253s-1.982.804-1.982 2.253v7.403h-4.714v-7.403c0-1.502-.75-2.253-1.875-2.253s-1.929.804-1.929 2.253v7.403h-4.768v-13.626h-.053z" fill="#fff"/><path fill-rule="evenodd" clip-rule="evenodd" d="M345.879 124.811c0-.344-.007-.683-.02-1.019h4.093l1.086-3.112h-5.512c-1.513-8.512-7.844-13.68-17.407-13.68-10.753 0-17.705 7.081-17.705 18.026 0 11.051 6.734 17.864 17.705 17.811 8.942 0 15.288-4.862 17.174-12.822h3.736l1.141-3.112h-4.38c.058-.68.089-1.377.089-2.092zm-17.543 13.09c-5.54 0-7.712-5.794-7.712-12.983 0-7.188 1.738-12.929 7.332-12.982 4.401 0 6.675 3.624 7.425 8.744h-4.764l-1.086 3.112h6.118a40.188 40.188 0 01-.028 3.111h-5.873l-1.14 3.112h6.699c-.753 4.663-2.779 7.886-6.971 7.886z" fill="#14964F"/><path d="M457.448 129.961c0-.697.268-1.234.75-1.771.482-.482 1.071-.751 1.768-.751.696 0 1.286.269 1.768.751.482.483.75 1.074.75 1.771 0 .697-.268 1.288-.75 1.77-.482.483-1.072.698-1.768.698-.697 0-1.286-.215-1.768-.698-.536-.429-.75-1.019-.75-1.77" fill="#fff"/><defs><linearGradient id="paint0_linear_23_1575" x1="485" y1="139" x2="1091" y2="139" gradientUnits="userSpaceOnUse"><stop stop-color="#12225C"/><stop offset="1" stop-color="#0954B5"/></linearGradient></defs></svg>