<svg width="492" height="34" viewBox="0 0 492 34" fill="none" xmlns="http://www.w3.org/2000/svg"><path d="M.248 5.736H6.2V25h3.648V5.736h5.92V2.76H.248v2.976zm17.998 10.368c0 5.44 3.68 9.184 8.257 9.184 2.944 0 5.055-1.408 6.175-2.912V25h3.68V7.368h-3.68v2.56c-1.087-1.44-3.135-2.848-6.111-2.848-4.64 0-8.32 3.584-8.32 9.024zm14.433.064c0 3.808-2.593 5.952-5.345 5.952-2.72 0-5.343-2.208-5.343-6.016s2.623-5.856 5.343-5.856c2.753 0 5.345 2.144 5.345 5.92zM44.797 9.96V7.368H41.15v26.016h3.648V22.44a7.971 7.971 0 006.144 2.848c4.64 0 8.288-3.744 8.288-9.184 0-5.44-3.648-9.024-8.288-9.024-2.88 0-5.024 1.408-6.144 2.88zm10.72 6.144c0 3.808-2.624 6.016-5.376 6.016-2.72 0-5.344-2.144-5.344-5.952 0-3.776 2.624-5.92 5.344-5.92 2.752 0 5.376 2.048 5.376 5.856zM71.15 25h3.648V7.368H71.15V25zm1.856-19.968c1.28 0 2.304-1.024 2.304-2.336 0-1.312-1.024-2.336-2.304-2.336a2.309 2.309 0 00-2.336 2.336 2.309 2.309 0 002.336 2.336zM92.1 25h3.616V14.6c0-4.928-3.104-7.52-7.232-7.52-2.112 0-4.064.864-5.248 2.304V7.368h-3.648V25h3.648v-9.856c0-3.232 1.76-4.896 4.447-4.896 2.656 0 4.416 1.664 4.416 4.896V25zm8.845-4.896c0 3.584 1.952 4.896 5.088 4.896h2.88v-3.04h-2.24c-1.536 0-2.048-.544-2.048-1.856v-9.76h4.288V7.368h-4.288V2.984h-3.68v4.384h-2.08v2.976h2.08v9.76zm28.13-3.936c0-5.536-3.968-9.088-8.992-9.088-5.024 0-8.992 3.552-8.992 9.088s3.808 9.12 8.832 9.12c5.056 0 9.152-3.584 9.152-9.12zm-14.272 0c0-4 2.464-5.92 5.216-5.92 2.72 0 5.312 1.92 5.312 5.92s-2.688 5.952-5.408 5.952c-2.752 0-5.12-1.952-5.12-5.952zm26.767 3.936c0 3.584 1.952 4.896 5.088 4.896h2.88v-3.04h-2.24c-1.536 0-2.048-.544-2.048-1.856v-9.76h4.288V7.368h-4.288V2.984h-3.68v4.384h-2.08v2.976h2.08v9.76zm18.754-9.952c2.72 0 4.864 1.728 4.928 4.448h-9.76c.384-2.784 2.368-4.448 4.832-4.448zm8.256 9.6h-3.936c-.672 1.376-1.92 2.464-4.16 2.464-2.688 0-4.768-1.76-5.024-4.672h13.472c.096-.608.128-1.184.128-1.792 0-5.184-3.552-8.672-8.576-8.672-5.216 0-8.8 3.552-8.8 9.088s3.744 9.12 8.8 9.12c4.32 0 7.104-2.464 8.096-5.536zm2.854-3.584c0 5.536 3.584 9.12 8.64 9.12 4.32 0 7.136-2.4 8.128-5.856h-3.936c-.672 1.824-2.016 2.784-4.192 2.784-2.944 0-4.896-2.176-4.896-6.048 0-3.84 1.952-6.016 4.896-6.016 2.176 0 3.584 1.088 4.192 2.784h3.936c-.992-3.712-3.808-5.856-8.128-5.856-5.056 0-8.64 3.584-8.64 9.088zM191.838 25h3.648v-9.856c0-3.232 1.76-4.896 4.448-4.896 2.656 0 4.416 1.664 4.416 4.896V25h3.616V14.6c0-4.928-3.072-7.52-7.008-7.52-2.272 0-4.256.864-5.472 2.336V1.32h-3.648V25zm42.245-4.928c-.192-6.368-10.144-4.384-10.144-7.936 0-1.184 1.024-1.984 2.976-1.984 1.984 0 3.168 1.056 3.296 2.592h3.648c-.192-3.52-2.816-5.664-6.816-5.664-4.16 0-6.784 2.272-6.784 5.088 0 6.464 10.24 4.48 10.24 7.936 0 1.216-1.12 2.112-3.232 2.112-2.016 0-3.392-1.184-3.52-2.624h-3.776c.16 3.2 3.136 5.696 7.36 5.696 4.16 0 6.752-2.24 6.752-5.216zm4.518.032c0 3.584 1.952 4.896 5.088 4.896h2.88v-3.04h-2.24c-1.536 0-2.048-.544-2.048-1.856v-9.76h4.288V7.368h-4.288V2.984h-3.68v4.384h-2.08v2.976h2.08v9.76zm28.13-3.936c0-5.536-3.968-9.088-8.992-9.088-5.024 0-8.992 3.552-8.992 9.088s3.808 9.12 8.832 9.12c5.056 0 9.152-3.584 9.152-9.12zm-14.272 0c0-4 2.464-5.92 5.216-5.92 2.72 0 5.312 1.92 5.312 5.92s-2.688 5.952-5.408 5.952c-2.752 0-5.12-1.952-5.12-5.952zm16.663 0c0 5.536 3.584 9.12 8.64 9.12 4.32 0 7.136-2.4 8.128-5.856h-3.936c-.672 1.824-2.016 2.784-4.192 2.784-2.944 0-4.896-2.176-4.896-6.048 0-3.84 1.952-6.016 4.896-6.016 2.176 0 3.584 1.088 4.192 2.784h3.936c-.992-3.712-3.808-5.856-8.128-5.856-5.056 0-8.64 3.584-8.64 9.088zM289.525 25h3.648v-7.584L299.701 25h4.928l-8.128-8.8 8.128-8.832h-5.056l-6.4 7.712V1.32h-3.648V25zm30.871-4.928c-.192-6.368-10.144-4.384-10.144-7.936 0-1.184 1.024-1.984 2.976-1.984 1.984 0 3.168 1.056 3.296 2.592h3.648c-.192-3.52-2.816-5.664-6.816-5.664-4.16 0-6.784 2.272-6.784 5.088 0 6.464 10.24 4.48 10.24 7.936 0 1.216-1.12 2.112-3.232 2.112-2.016 0-3.392-1.184-3.52-2.624h-3.776c.16 3.2 3.136 5.696 7.36 5.696 4.16 0 6.752-2.24 6.752-5.216zM333.098 25h3.68V10.344h3.264V7.368h-3.264V6.12c0-2.016.768-2.784 3.008-2.784V.296c-4.608 0-6.688 1.76-6.688 5.824v1.248h-2.08v2.976h2.08V25zm13.825-9.28c0-3.744 1.664-4.864 4.352-4.864h.928V7.08c-2.496 0-4.256 1.088-5.28 2.848v-2.56h-3.648V25h3.648v-9.28zm25.433.448c0-5.536-3.968-9.088-8.992-9.088-5.024 0-8.992 3.552-8.992 9.088s3.808 9.12 8.832 9.12c5.056 0 9.152-3.584 9.152-9.12zm-14.272 0c0-4 2.464-5.92 5.216-5.92 2.72 0 5.312 1.92 5.312 5.92s-2.688 5.952-5.408 5.952c-2.752 0-5.12-1.952-5.12-5.952zM400.955 25h3.616V14.6c0-4.928-3.136-7.52-7.264-7.52-2.56 0-5.056 1.344-6.144 3.488-1.216-2.304-3.552-3.488-6.336-3.488-2.112 0-4.032.864-5.216 2.304V7.368h-3.648V25h3.648v-9.856c0-3.232 1.76-4.896 4.448-4.896 2.656 0 4.416 1.664 4.416 4.896V25h3.616v-9.856c0-3.232 1.76-4.896 4.448-4.896 2.656 0 4.416 1.664 4.416 4.896V25zm16.026-17.568h3.552c.224-1.632 1.408-3.168 3.968-3.168 2.496 0 3.808 1.344 3.808 3.36 0 2.496-2.016 3.456-5.312 3.488h-.864v3.008h.832c3.808 0 5.792 1.056 5.792 4.128 0 2.176-1.344 3.84-4.064 3.84-2.752 0-4.352-1.664-4.512-3.84h-3.52c.224 4.576 3.648 6.88 8.064 6.88 4.864 0 7.488-2.816 7.488-6.528 0-3.232-1.568-5.248-4-5.984v-.128c1.824-.608 3.584-2.496 3.584-5.28 0-3.392-2.528-6.08-7.168-6.08-4.256 0-7.392 2.272-7.648 6.304zm31.505 2.528V7.368h-3.648v26.016h3.648V22.44a7.971 7.971 0 006.144 2.848c4.64 0 8.288-3.744 8.288-9.184 0-5.44-3.648-9.024-8.288-9.024-2.88 0-5.024 1.408-6.144 2.88zm10.72 6.144c0 3.808-2.624 6.016-5.376 6.016-2.72 0-5.344-2.144-5.344-5.952 0-3.776 2.624-5.92 5.344-5.92 2.752 0 5.376 2.048 5.376 5.856zm7.895 4c0 3.584 1.952 4.896 5.088 4.896h2.88v-3.04h-2.24c-1.536 0-2.048-.544-2.048-1.856v-9.76h4.288V7.368h-4.288V2.984h-3.68v4.384h-2.08v2.976h2.08v9.76zm24.482-.032c-.192-6.368-10.144-4.384-10.144-7.936 0-1.184 1.024-1.984 2.976-1.984 1.984 0 3.168 1.056 3.296 2.592h3.648c-.192-3.52-2.816-5.664-6.816-5.664-4.16 0-6.784 2.272-6.784 5.088 0 6.464 10.24 4.48 10.24 7.936 0 1.216-1.12 2.112-3.232 2.112-2.016 0-3.392-1.184-3.52-2.624h-3.776c.16 3.2 3.136 5.696 7.36 5.696 4.16 0 6.752-2.24 6.752-5.216z" fill="#fff"/></svg>