<svg width="186" height="250" viewBox="0 0 186 250" fill="none" xmlns="http://www.w3.org/2000/svg"><path fill="#fff" d="M0 0h186v250H0z"/><path d="M19 114.494h16.734v5.105H24.808v3.557h9.877v4.841h-9.877v7.476H19v-20.979z" fill="#12225C"/><path fill-rule="evenodd" clip-rule="evenodd" d="M64.44 114.494h10.014c3.226 0 5.488.856 6.919 2.273 1.23 1.185 1.863 2.832 1.863 4.874v.066c0 3.194-1.73 5.335-4.358 6.455l5.056 7.311h-6.786l-4.258-6.356h-2.595v6.356h-5.888v-20.979h.034zm9.747 10.078c1.996 0 3.16-.955 3.16-2.503v-.066c0-1.647-1.197-2.503-3.193-2.503h-3.859v5.039h3.892v.033z" fill="#12225C"/><path d="M85.981 114.494h16.833v4.94h-11.09v3.195h10.04v4.577h-10.04v3.327h11.222v4.94H85.981v-20.979zM112.035 124.802l-6.891-10.308h6.661l3.708 5.895 3.74-5.895h6.497l-6.858 10.242 7.186 10.737h-6.661l-4.003-6.323-4.036 6.323h-6.529l7.186-10.671zM131.755 125.527c0-2.405 1.838-4.414 4.463-4.414 1.706 0 2.854.758 3.576 1.878l-2.001 1.482c-.394-.56-.853-.89-1.543-.89-.951 0-1.64.824-1.64 1.845v.033c0 1.086.689 1.91 1.673 1.91.689 0 1.149-.329 1.608-.856l1.969 1.416c-.788 1.152-1.87 1.91-3.708 1.91-2.559.033-4.397-1.943-4.397-4.314" fill="#12225C"/><path fill-rule="evenodd" clip-rule="evenodd" d="M141.617 125.527c0-2.405 1.962-4.414 4.69-4.414 2.695 0 4.657 1.977 4.657 4.348v.033c0 2.371-1.962 4.38-4.69 4.38-2.695 0-4.657-1.976-4.657-4.347m6.453 0c0-1.054-.765-1.911-1.796-1.911-1.065 0-1.763.857-1.763 1.845v.033c0 1.021.765 1.877 1.796 1.877 1.098 0 1.763-.856 1.763-1.844" fill="#12225C"/><path d="M152.547 121.278h2.92v1.153c.525-.692 1.313-1.318 2.494-1.318 1.116 0 1.969.494 2.395 1.351.722-.824 1.575-1.351 2.789-1.351 1.772 0 2.855 1.12 2.855 3.063v5.5h-2.92v-4.578c0-.922-.46-1.383-1.149-1.383-.689 0-1.214.494-1.214 1.383v4.545h-2.887v-4.545c0-.922-.46-1.383-1.149-1.383-.689 0-1.181.494-1.181 1.383v4.545h-2.92v-8.365h-.033z" fill="#12225C"/><path fill-rule="evenodd" clip-rule="evenodd" d="M59.35 124.934c0-.211-.003-.42-.011-.626h2.507l.665-1.91h-3.377C58.209 117.173 54.33 114 48.474 114c-6.587 0-10.844 4.347-10.844 11.066 0 6.784 4.124 10.967 10.844 10.934 5.477 0 9.364-2.985 10.519-7.871h2.288l.699-1.911h-2.683c.036-.417.055-.845.055-1.284zm-10.744 8.036c-3.393 0-4.724-3.557-4.724-7.97s1.065-7.937 4.491-7.97c2.696 0 4.089 2.225 4.548 5.368h-2.918l-.665 1.91h3.747a24.684 24.684 0 01-.017 1.91h-3.597l-.699 1.911h4.104c-.461 2.862-1.703 4.841-4.27 4.841z" fill="#14964F"/><path d="M127.687 128.096c0-.429.164-.758.459-1.087a1.482 1.482 0 011.083-.461c.426 0 .787.164 1.083.461.295.296.459.658.459 1.087 0 .428-.164.79-.459 1.086-.296.297-.657.428-1.083.428-.427 0-.788-.131-1.083-.428-.328-.263-.459-.625-.459-1.086" fill="#12225C"/></svg>