<svg width="398" height="184" viewBox="0 0 398 184" fill="none" xmlns="http://www.w3.org/2000/svg"><path d="M7.344 32.034L11.696 32l5.27-17.884L21.93 32h4.386L33.32 8.37h-4.148l-4.93 19.142-4.93-19.142H14.96L9.656 27.614 4.76 8.37H.646l6.698 23.664zM36.517 32h3.876V21.528c0-3.434 1.87-5.202 4.726-5.202 2.822 0 4.692 1.768 4.692 5.202V32h3.842V20.95c0-5.236-3.264-7.99-7.446-7.99-2.414 0-4.522.918-5.814 2.482V6.84h-3.876V32zm22.08 0h3.876V13.266h-3.876V32zm1.972-21.216c1.36 0 2.448-1.088 2.448-2.482 0-1.394-1.088-2.482-2.448-2.482a2.453 2.453 0 00-2.482 2.482 2.453 2.453 0 002.482 2.482zm5.7 11.832c0 5.882 3.809 9.69 9.18 9.69 4.59 0 7.583-2.55 8.637-6.222h-4.182c-.714 1.938-2.142 2.958-4.454 2.958-3.128 0-5.202-2.312-5.202-6.426 0-4.08 2.074-6.392 5.202-6.392 2.312 0 3.808 1.156 4.454 2.958h4.182c-1.054-3.944-4.046-6.222-8.636-6.222-5.372 0-9.18 3.808-9.18 9.656zM87.95 32h3.875V21.528c0-3.434 1.87-5.202 4.726-5.202 2.822 0 4.692 1.768 4.692 5.202V32h3.842V20.95c0-5.236-3.264-7.99-7.446-7.99-2.414 0-4.522.918-5.814 2.482V6.84h-3.876V32zm44.886-5.236c-.204-6.766-10.778-4.658-10.778-8.432 0-1.258 1.088-2.108 3.162-2.108 2.108 0 3.366 1.122 3.502 2.754h3.876c-.204-3.74-2.992-6.018-7.242-6.018-4.42 0-7.208 2.414-7.208 5.406 0 6.868 10.88 4.76 10.88 8.432 0 1.292-1.19 2.244-3.434 2.244-2.142 0-3.604-1.258-3.74-2.788h-4.012c.17 3.4 3.332 6.052 7.82 6.052 4.42 0 7.174-2.38 7.174-5.542zM137.023 32h3.876V13.266h-3.876V32zm1.972-21.216c1.36 0 2.448-1.088 2.448-2.482 0-1.394-1.088-2.482-2.448-2.482a2.453 2.453 0 00-2.482 2.482 2.453 2.453 0 002.482 2.482zm5.701 11.764c0 5.78 3.91 9.758 8.84 9.758 3.06 0 5.304-1.428 6.494-3.128V32h3.91V6.84h-3.91v9.044c-1.428-1.768-4.012-2.924-6.46-2.924-4.964 0-8.874 3.808-8.874 9.588zm15.334.068c0 4.046-2.754 6.324-5.678 6.324-2.89 0-5.678-2.346-5.678-6.392s2.788-6.222 5.678-6.222c2.924 0 5.678 2.278 5.678 6.29zm16.888-6.392c2.89 0 5.168 1.836 5.236 4.726h-10.37c.408-2.958 2.516-4.726 5.134-4.726zm8.772 10.2h-4.182c-.714 1.462-2.04 2.618-4.42 2.618-2.856 0-5.066-1.87-5.338-4.964h14.314c.102-.646.136-1.258.136-1.904 0-5.508-3.774-9.214-9.112-9.214-5.542 0-9.35 3.774-9.35 9.656 0 5.882 3.978 9.69 9.35 9.69 4.59 0 7.548-2.618 8.602-5.882zm31.007-3.808c0-5.882-4.216-9.656-9.554-9.656s-9.554 3.774-9.554 9.656c0 5.882 4.046 9.69 9.384 9.69 5.372 0 9.724-3.808 9.724-9.69zm-15.164 0c0-4.25 2.618-6.29 5.542-6.29 2.89 0 5.644 2.04 5.644 6.29s-2.856 6.324-5.746 6.324c-2.924 0-5.44-2.074-5.44-6.324zM221.005 32h3.91V16.428h3.468v-3.162h-3.468V11.94c0-2.142.816-2.958 3.196-2.958v-3.23c-4.896 0-7.106 1.87-7.106 6.188v1.326h-2.21v3.162h2.21V32zm24.439.034l4.352-.034 5.27-17.884L260.03 32h4.386l7.004-23.63h-4.148l-4.93 19.142-4.93-19.142h-4.352l-5.304 19.244L242.86 8.37h-4.114l6.698 23.664zm27.88-9.486c0 5.78 3.91 9.758 8.772 9.758 3.128 0 5.372-1.496 6.562-3.094V32h3.91V13.266h-3.91v2.72c-1.156-1.53-3.332-3.026-6.494-3.026-4.93 0-8.84 3.808-8.84 9.588zm15.334.068c0 4.046-2.754 6.324-5.678 6.324-2.89 0-5.678-2.346-5.678-6.392s2.788-6.222 5.678-6.222c2.924 0 5.678 2.278 5.678 6.29zM297.659 32h3.876V6.84h-3.876V32zm8.965 0h3.876V6.84h-3.876V32zM18.496 66.302c0-8.636-12.512-5.304-12.512-10.642 0-2.278 1.734-3.366 3.978-3.298 2.448.068 3.842 1.53 3.978 3.128h4.284c-.34-4.046-3.536-6.426-8.058-6.426-4.828 0-8.126 2.584-8.126 6.732 0 8.704 12.546 4.998 12.546 10.71 0 2.006-1.53 3.468-4.25 3.468-2.686 0-4.046-1.564-4.216-3.502H1.972c0 4.182 3.638 6.766 8.364 6.766 5.27 0 8.16-3.4 8.16-6.936zm5.186 1.496c0 3.808 2.074 5.202 5.405 5.202h3.06v-3.23h-2.38c-1.631 0-2.175-.578-2.175-1.972v-10.37h4.556v-3.162H27.59v-4.658h-3.91v4.658h-2.21v3.162h2.21v10.37zm15.914-4.658c0-3.978 1.768-5.168 4.624-5.168h.986V53.96c-2.652 0-4.522 1.156-5.61 3.026v-2.72H35.72V73h3.876v-9.86zm17.06-5.916c2.89 0 5.169 1.836 5.237 4.726h-10.37c.408-2.958 2.516-4.726 5.134-4.726zm8.773 10.2h-4.182c-.714 1.462-2.04 2.618-4.42 2.618-2.856 0-5.066-1.87-5.338-4.964h14.314c.102-.646.136-1.258.136-1.904 0-5.508-3.774-9.214-9.112-9.214-5.542 0-9.35 3.774-9.35 9.656 0 5.882 3.978 9.69 9.35 9.69 4.59 0 7.548-2.618 8.602-5.882zm12.212-10.2c2.89 0 5.168 1.836 5.236 4.726h-10.37c.408-2.958 2.516-4.726 5.134-4.726zm8.772 10.2h-4.182c-.714 1.462-2.04 2.618-4.42 2.618-2.856 0-5.066-1.87-5.338-4.964h14.314c.102-.646.136-1.258.136-1.904 0-5.508-3.774-9.214-9.112-9.214-5.542 0-9.35 3.774-9.35 9.656 0 5.882 3.978 9.69 9.35 9.69 4.59 0 7.548-2.618 8.602-5.882zm4.937.374c0 3.808 2.074 5.202 5.406 5.202h3.06v-3.23h-2.38c-1.633 0-2.177-.578-2.177-1.972v-10.37h4.556v-3.162H95.26v-4.658h-3.91v4.658h-2.21v3.162h2.21v10.37zM115.858 73h4.08l3.774-13.838L127.486 73h4.08l5.814-18.734h-3.808l-3.876 14.994-3.808-14.994h-4.046l-3.978 15.062-3.91-15.062h-3.944L115.858 73zm24.419 0h3.876V54.266h-3.876V73zm1.972-21.216c1.36 0 2.448-1.088 2.448-2.482 0-1.394-1.088-2.482-2.448-2.482a2.453 2.453 0 00-2.482 2.482 2.453 2.453 0 002.482 2.482zM149.241 73h3.876V47.84h-3.876V73zm8.965 0h3.876V47.84h-3.876V73zm25.175-4.454l-5.27-14.28h-4.318l7.378 18.428-3.808 9.112h4.012l11.492-27.54h-4.012l-5.474 14.28zm30.261-4.93c0-5.882-4.216-9.656-9.554-9.656s-9.554 3.774-9.554 9.656c0 5.882 4.046 9.69 9.384 9.69 5.372 0 9.724-3.808 9.724-9.69zm-15.164 0c0-4.25 2.618-6.29 5.542-6.29 2.89 0 5.644 2.04 5.644 6.29s-2.856 6.324-5.746 6.324c-2.924 0-5.44-2.074-5.44-6.324zm35.962-9.35h-3.876v10.438c0 3.434-1.87 5.202-4.726 5.202-2.822 0-4.692-1.768-4.692-5.202V54.266h-3.842v11.016c0 5.236 3.332 7.99 7.718 7.99 2.21 0 4.318-.918 5.542-2.516V73h3.876V54.266zm14.558 13.532c0 3.808 2.074 5.202 5.406 5.202h3.06v-3.23h-2.38c-1.632 0-2.176-.578-2.176-1.972v-10.37h4.556v-3.162h-4.556v-4.658h-3.91v4.658h-2.21v3.162h2.21v10.37zm10.746-4.25c0 5.78 3.91 9.758 8.772 9.758 3.128 0 5.372-1.496 6.562-3.094V73h3.91V54.266h-3.91v2.72c-1.156-1.53-3.332-3.026-6.494-3.026-4.93 0-8.84 3.808-8.84 9.588zm15.334.068c0 4.046-2.754 6.324-5.678 6.324-2.89 0-5.678-2.346-5.678-6.392s2.788-6.222 5.678-6.222c2.924 0 5.678 2.278 5.678 6.29zM284.079 73h3.876v-8.058L294.891 73h5.236l-8.636-9.35 8.636-9.384h-5.372l-6.8 8.194V47.84h-3.876V73zm26.714-15.776c2.89 0 5.168 1.836 5.236 4.726h-10.37c.408-2.958 2.516-4.726 5.134-4.726zm8.772 10.2h-4.182c-.714 1.462-2.04 2.618-4.42 2.618-2.856 0-5.066-1.87-5.338-4.964h14.314c.102-.646.136-1.258.136-1.904 0-5.508-3.774-9.214-9.112-9.214-5.542 0-9.35 3.774-9.35 9.656 0 5.882 3.978 9.69 9.35 9.69 4.59 0 7.548-2.618 8.602-5.882zm3.135-11.39h3.638c0-2.38 1.53-3.74 3.944-3.74 2.448 0 3.91 1.462 3.91 3.842 0 3.57-2.958 4.25-6.8 4.25h-1.122l.17 5.338h3.366l.136-2.686c4.556 0 7.956-2.108 7.956-6.902 0-4.42-3.094-7.106-7.65-7.106-4.624 0-7.582 2.89-7.548 7.004zm7.82 14.722c0-1.394-1.088-2.482-2.448-2.482a2.453 2.453 0 00-2.482 2.482 2.453 2.453 0 002.482 2.482c1.36 0 2.448-1.088 2.448-2.482zM10.08 99.08a3.763 3.763 0 00-1.472-1.728c-.65-.427-1.419-.64-2.304-.64-.832 0-1.579.192-2.24.576a4.101 4.101 0 00-1.568 1.648c-.384.704-.576 1.525-.576 2.464 0 .939.192 1.765.576 2.48a4.1 4.1 0 001.568 1.648c.661.384 1.408.576 2.24.576.779 0 1.477-.165 2.096-.496a3.896 3.896 0 001.504-1.44c.384-.629.603-1.36.656-2.192H5.856v-.912h5.888v.816a5.714 5.714 0 01-.8 2.672 5.263 5.263 0 01-1.936 1.872c-.8.459-1.701.688-2.704.688-1.035 0-1.973-.24-2.816-.72a5.383 5.383 0 01-2-2.032c-.48-.875-.72-1.861-.72-2.96s.24-2.08.72-2.944a5.233 5.233 0 012-2.032c.843-.49 1.781-.736 2.816-.736 1.195 0 2.24.299 3.136.896.896.597 1.547 1.43 1.952 2.496H10.08zm7.54 8.048c-.822 0-1.563-.181-2.224-.544a4.133 4.133 0 01-1.552-1.568c-.374-.683-.56-1.477-.56-2.384 0-.907.192-1.696.576-2.368a3.96 3.96 0 011.568-1.568c.661-.373 1.402-.56 2.224-.56.821 0 1.562.187 2.224.56a3.829 3.829 0 011.568 1.568c.384.672.576 1.461.576 2.368 0 .896-.192 1.685-.576 2.368a4.035 4.035 0 01-1.584 1.584c-.672.363-1.419.544-2.24.544zm0-.976c.576 0 1.109-.128 1.6-.384.49-.267.885-.661 1.184-1.184.309-.533.464-1.184.464-1.952s-.15-1.413-.448-1.936c-.299-.533-.694-.928-1.184-1.184a3.297 3.297 0 00-1.6-.4c-.576 0-1.11.133-1.6.4-.491.256-.886.651-1.184 1.184-.288.523-.432 1.168-.432 1.936s.144 1.419.432 1.952c.298.523.688.917 1.168 1.184.49.256 1.024.384 1.6.384zM29.572 95.16V107h-1.12V95.16h1.12zm6.36 11.968c-.821 0-1.563-.181-2.224-.544a4.133 4.133 0 01-1.552-1.568c-.373-.683-.56-1.477-.56-2.384 0-.907.192-1.696.576-2.368a3.96 3.96 0 011.568-1.568c.661-.373 1.403-.56 2.224-.56.822 0 1.563.187 2.224.56a3.829 3.829 0 011.568 1.568c.384.672.576 1.461.576 2.368 0 .896-.192 1.685-.576 2.368a4.035 4.035 0 01-1.584 1.584c-.672.363-1.418.544-2.24.544zm0-.976c.576 0 1.11-.128 1.6-.384.49-.267.886-.661 1.184-1.184.31-.533.464-1.184.464-1.952s-.15-1.413-.448-1.936c-.298-.533-.693-.928-1.184-1.184a3.297 3.297 0 00-1.6-.4c-.576 0-1.11.133-1.6.4-.49.256-.885.651-1.184 1.184-.288.523-.432 1.168-.432 1.936s.144 1.419.432 1.952c.299.523.688.917 1.168 1.184.49.256 1.024.384 1.6.384zm10.538-8.048c1.045 0 1.898.325 2.56.976.661.64.992 1.573.992 2.8V107h-1.104v-4.992c0-.949-.24-1.675-.72-2.176-.47-.501-1.115-.752-1.936-.752-.843 0-1.515.267-2.016.8-.502.533-.752 1.317-.752 2.352V107h-1.12v-8.736h1.12v1.488a2.81 2.81 0 011.2-1.216c.522-.288 1.114-.432 1.776-.432zm9.693.032c.821 0 1.536.192 2.144.576.608.384 1.045.87 1.312 1.456v-1.904h1.12v8.96c0 .8-.176 1.509-.528 2.128a3.495 3.495 0 01-1.44 1.424c-.619.341-1.323.512-2.112.512-1.12 0-2.054-.267-2.8-.8-.736-.533-1.195-1.259-1.376-2.176h1.104a2.7 2.7 0 001.088 1.456c.544.363 1.205.544 1.984.544.565 0 1.072-.123 1.52-.368.448-.235.8-.587 1.056-1.056.256-.469.384-1.024.384-1.664v-2.16c-.278.597-.72 1.093-1.328 1.488-.598.384-1.307.576-2.128.576-.8 0-1.52-.187-2.16-.56a3.947 3.947 0 01-1.488-1.584c-.352-.683-.528-1.472-.528-2.368 0-.896.176-1.68.528-2.352.362-.683.858-1.205 1.488-1.568.64-.373 1.36-.56 2.16-.56zm3.456 4.496c0-.704-.144-1.323-.432-1.856a3.068 3.068 0 00-1.184-1.232 3.165 3.165 0 00-1.632-.432c-.619 0-1.174.139-1.664.416a2.99 2.99 0 00-1.168 1.216c-.278.523-.416 1.147-.416 1.872 0 .715.138 1.344.416 1.888.288.533.677.944 1.168 1.232.49.277 1.045.416 1.664.416.597 0 1.141-.144 1.632-.432a3.068 3.068 0 001.184-1.232c.288-.533.432-1.152.432-1.856zm11.891 4.496c-.821 0-1.562-.181-2.224-.544a4.132 4.132 0 01-1.552-1.568c-.373-.683-.56-1.477-.56-2.384 0-.907.192-1.696.576-2.368a3.959 3.959 0 011.568-1.568c.662-.373 1.403-.56 2.224-.56.822 0 1.563.187 2.224.56a3.83 3.83 0 011.568 1.568c.384.672.576 1.461.576 2.368 0 .896-.192 1.685-.576 2.368a4.035 4.035 0 01-1.584 1.584c-.672.363-1.418.544-2.24.544zm0-.976c.576 0 1.11-.128 1.6-.384a3.01 3.01 0 001.184-1.184c.31-.533.464-1.184.464-1.952s-.15-1.413-.448-1.936c-.298-.533-.693-.928-1.184-1.184a3.297 3.297 0 00-1.6-.4c-.576 0-1.11.133-1.6.4-.49.256-.885.651-1.184 1.184-.288.523-.432 1.168-.432 1.936s.144 1.419.432 1.952a3.04 3.04 0 001.168 1.184c.49.256 1.024.384 1.6.384zm7.562-6.336a2.75 2.75 0 011.12-1.264c.512-.299 1.136-.448 1.872-.448v1.168h-.304c-.81 0-1.462.219-1.952.656-.49.437-.736 1.168-.736 2.192V107h-1.12v-8.736h1.12v1.552zm12.075 7.312c-1.002 0-1.824-.229-2.464-.688-.629-.469-.981-1.104-1.056-1.904h1.152c.054.491.283.891.688 1.2.416.299.971.448 1.664.448.608 0 1.083-.144 1.424-.432.352-.288.528-.645.528-1.072a.996.996 0 00-.288-.736 1.954 1.954 0 00-.736-.448 9.562 9.562 0 00-1.184-.368 12.118 12.118 0 01-1.584-.512 2.804 2.804 0 01-1.04-.752c-.277-.341-.416-.795-.416-1.36 0-.427.128-.821.384-1.184s.619-.65 1.088-.864c.47-.213 1.003-.32 1.6-.32.939 0 1.696.24 2.272.72.576.47.886 1.12.928 1.952h-1.12c-.032-.512-.234-.923-.608-1.232-.362-.32-.864-.48-1.504-.48-.565 0-1.024.133-1.376.4-.352.267-.528.597-.528.992 0 .341.102.624.304.848.214.213.475.384.784.512.31.117.726.251 1.248.4.63.171 1.131.336 1.504.496.374.16.694.395.96.704.267.309.406.72.416 1.232 0 .469-.128.891-.384 1.264-.256.363-.613.651-1.072.864-.458.213-.986.32-1.584.32zm9.309-9.024c.661 0 1.253.139 1.776.416.533.277.949.704 1.248 1.28.309.565.464 1.259.464 2.08V107h-1.104v-4.992c0-.949-.24-1.675-.72-2.176-.47-.501-1.115-.752-1.936-.752-.843 0-1.515.267-2.016.8-.502.533-.752 1.317-.752 2.352V107h-1.12V95.16h1.12v4.592a2.907 2.907 0 011.216-1.216 3.838 3.838 0 011.824-.432zm9.789 9.024c-.822 0-1.563-.181-2.224-.544a4.13 4.13 0 01-1.552-1.568c-.374-.683-.56-1.477-.56-2.384 0-.907.192-1.696.576-2.368a3.955 3.955 0 011.568-1.568c.661-.373 1.402-.56 2.224-.56.821 0 1.562.187 2.224.56a3.833 3.833 0 011.568 1.568c.384.672.576 1.461.576 2.368 0 .896-.192 1.685-.576 2.368a4.035 4.035 0 01-1.584 1.584c-.672.363-1.419.544-2.24.544zm0-.976c.576 0 1.109-.128 1.6-.384.49-.267.885-.661 1.184-1.184.309-.533.464-1.184.464-1.952s-.15-1.413-.448-1.936c-.299-.533-.694-.928-1.184-1.184a3.298 3.298 0 00-1.6-.4c-.576 0-1.11.133-1.6.4-.491.256-.886.651-1.184 1.184-.288.523-.432 1.168-.432 1.936s.144 1.419.432 1.952c.298.523.688.917 1.168 1.184.49.256 1.024.384 1.6.384zm7.561-6.336a2.755 2.755 0 011.12-1.264c.512-.299 1.136-.448 1.872-.448v1.168h-.304c-.81 0-1.461.219-1.952.656-.49.437-.736 1.168-.736 2.192V107h-1.12v-8.736h1.12v1.552zm6.133-.608v5.424c0 .533.101.901.304 1.104.203.203.56.304 1.072.304h1.024v.96h-1.2c-.789 0-1.376-.181-1.76-.544-.384-.373-.576-.981-.576-1.824v-5.424h-1.216v-.944h1.216v-2.192h1.136v2.192h2.4v.944h-2.4zm12.462 7.92c-.821 0-1.563-.181-2.224-.544a4.13 4.13 0 01-1.552-1.568c-.373-.683-.56-1.477-.56-2.384 0-.907.192-1.696.576-2.368a3.962 3.962 0 011.568-1.568c.661-.373 1.403-.56 2.224-.56.821 0 1.563.187 2.224.56a3.827 3.827 0 011.568 1.568c.384.672.576 1.461.576 2.368 0 .896-.192 1.685-.576 2.368a4.035 4.035 0 01-1.584 1.584c-.672.363-1.419.544-2.24.544zm0-.976c.576 0 1.109-.128 1.6-.384a3.008 3.008 0 001.184-1.184c.309-.533.464-1.184.464-1.952s-.149-1.413-.448-1.936c-.299-.533-.693-.928-1.184-1.184a3.298 3.298 0 00-1.6-.4c-.576 0-1.109.133-1.6.4-.491.256-.885.651-1.184 1.184-.288.523-.432 1.168-.432 1.936s.144 1.419.432 1.952c.299.523.688.917 1.168 1.184a3.408 3.408 0 001.6.384zm10.538-8.048c1.045 0 1.898.325 2.56.976.661.64.992 1.573.992 2.8V107h-1.104v-4.992c0-.949-.24-1.675-.72-2.176-.47-.501-1.115-.752-1.936-.752-.843 0-1.515.267-2.016.8-.502.533-.752 1.317-.752 2.352V107h-1.12v-8.736h1.12v1.488a2.808 2.808 0 011.2-1.216c.522-.288 1.114-.432 1.776-.432zm11.875 1.104v5.424c0 .533.101.901.304 1.104.203.203.56.304 1.072.304h1.024v.96h-1.2c-.789 0-1.376-.181-1.76-.544-.384-.373-.576-.981-.576-1.824v-5.424h-1.216v-.944h1.216v-2.192h1.136v2.192h2.4v.944h-2.4zm8.407-1.104c.662 0 1.254.139 1.776.416.534.277.95.704 1.248 1.28.31.565.464 1.259.464 2.08V107h-1.104v-4.992c0-.949-.24-1.675-.72-2.176-.469-.501-1.114-.752-1.936-.752-.842 0-1.514.267-2.016.8-.501.533-.752 1.317-.752 2.352V107h-1.12V95.16h1.12v4.592a2.912 2.912 0 011.216-1.216 3.837 3.837 0 011.824-.432zm13.869 4.08c0 .384-.01.677-.032.88h-7.248c.032.661.192 1.227.48 1.696.288.469.667.827 1.136 1.072.47.235.982.352 1.536.352.726 0 1.334-.176 1.824-.528.502-.352.832-.827.992-1.424h1.184a3.721 3.721 0 01-1.376 2.096c-.693.533-1.568.8-2.624.8-.821 0-1.557-.181-2.208-.544a4.028 4.028 0 01-1.536-1.568c-.362-.683-.544-1.477-.544-2.384 0-.907.182-1.701.544-2.384a3.787 3.787 0 011.52-1.568c.651-.363 1.392-.544 2.224-.544.832 0 1.558.181 2.176.544.63.363 1.11.853 1.44 1.472a4.07 4.07 0 01.512 2.032zm-1.136-.032c.011-.651-.122-1.205-.4-1.664a2.586 2.586 0 00-1.104-1.04 3.384 3.384 0 00-1.536-.352c-.832 0-1.541.267-2.128.8-.586.533-.912 1.285-.976 2.256h6.144zm8.648-6.336v7.04c0 1.109.261 1.931.784 2.464.533.533 1.259.8 2.176.8.917 0 1.632-.261 2.144-.784.523-.533.784-1.36.784-2.48v-7.04h1.12v7.024c0 1.419-.379 2.485-1.136 3.2-.747.715-1.723 1.072-2.928 1.072-1.205 0-2.187-.357-2.944-1.072-.747-.715-1.12-1.781-1.12-3.2v-7.024h1.12zm12.898 11.296c-.736 0-1.387-.128-1.952-.384a3.184 3.184 0 01-1.312-1.072 2.814 2.814 0 01-.512-1.536h1.184c.053.544.293 1.024.72 1.44.427.405 1.051.608 1.872.608.757 0 1.355-.192 1.792-.576a1.9 1.9 0 00.672-1.488c0-.48-.123-.864-.368-1.152a2.154 2.154 0 00-.912-.656 12.928 12.928 0 00-1.504-.48c-.747-.203-1.339-.4-1.776-.592a2.83 2.83 0 01-1.12-.896c-.309-.405-.464-.955-.464-1.648 0-.576.149-1.088.448-1.536.299-.459.72-.816 1.264-1.072.544-.256 1.168-.384 1.872-.384 1.035 0 1.867.256 2.496.768a2.818 2.818 0 011.104 1.952h-1.216c-.075-.459-.325-.864-.752-1.216-.427-.363-1.003-.544-1.728-.544-.672 0-1.232.181-1.68.544-.448.352-.672.837-.672 1.456 0 .47.123.848.368 1.136.245.288.549.507.912.656.373.149.875.309 1.504.48.725.203 1.312.405 1.76.608.448.192.827.491 1.136.896.309.405.464.949.464 1.632 0 .523-.139 1.019-.416 1.488-.277.469-.688.848-1.232 1.136-.544.288-1.195.432-1.952.432zm11.259-6.912a3.563 3.563 0 011.328-1.488c.608-.384 1.323-.576 2.144-.576.8 0 1.515.187 2.144.56a3.74 3.74 0 011.472 1.568c.363.672.544 1.456.544 2.352 0 .896-.181 1.685-.544 2.368a3.808 3.808 0 01-1.488 1.584c-.629.373-1.339.56-2.128.56-.832 0-1.552-.187-2.16-.56a3.451 3.451 0 01-1.312-1.488V107h-1.104V95.16h1.104v5.04zm6.496 2.416c0-.725-.144-1.349-.432-1.872a2.885 2.885 0 00-1.152-1.216 3.322 3.322 0 00-1.664-.416 3.25 3.25 0 00-1.648.432 3.1 3.1 0 00-1.168 1.232c-.288.533-.432 1.152-.432 1.856 0 .704.144 1.323.432 1.856a3.1 3.1 0 001.168 1.232 3.25 3.25 0 001.648.432c.619 0 1.173-.139 1.664-.416a2.99 2.99 0 001.152-1.232c.288-.544.432-1.173.432-1.888zm11.101-.432c0 .384-.011.677-.032.88h-7.248c.032.661.192 1.227.48 1.696.288.469.667.827 1.136 1.072a3.38 3.38 0 001.536.352c.725 0 1.333-.176 1.824-.528a2.47 2.47 0 00.992-1.424h1.184a3.721 3.721 0 01-1.376 2.096c-.693.533-1.568.8-2.624.8-.821 0-1.557-.181-2.208-.544a4.014 4.014 0 01-1.536-1.568c-.363-.683-.544-1.477-.544-2.384 0-.907.181-1.701.544-2.384a3.781 3.781 0 011.52-1.568c.651-.363 1.392-.544 2.224-.544.832 0 1.557.181 2.176.544a3.679 3.679 0 011.44 1.472c.341.608.512 1.285.512 2.032zm-1.136-.032c.011-.651-.123-1.205-.4-1.664a2.598 2.598 0 00-1.104-1.04 3.384 3.384 0 00-1.536-.352c-.832 0-1.541.267-2.128.8-.587.533-.912 1.285-.976 2.256h6.144zm7.281-4.048c1.045 0 1.899.325 2.56.976.661.64.992 1.573.992 2.8V107h-1.104v-4.992c0-.949-.24-1.675-.72-2.176-.469-.501-1.115-.752-1.936-.752-.843 0-1.515.267-2.016.8-.501.533-.752 1.317-.752 2.352V107h-1.12v-8.736h1.12v1.488a2.808 2.808 0 011.2-1.216c.523-.288 1.115-.432 1.776-.432zm5.517 4.528c0-.907.181-1.696.544-2.368a3.812 3.812 0 011.504-1.568c.64-.373 1.371-.56 2.192-.56 1.077 0 1.963.267 2.656.8.704.533 1.157 1.259 1.36 2.176h-1.2c-.149-.629-.475-1.12-.976-1.472-.491-.363-1.104-.544-1.84-.544-.587 0-1.115.133-1.584.4-.469.267-.843.667-1.12 1.2-.267.523-.4 1.168-.4 1.936s.133 1.419.4 1.952c.277.533.651.933 1.12 1.2.469.267.997.4 1.584.4.736 0 1.349-.176 1.84-.528.501-.363.827-.864.976-1.504h1.2c-.203.896-.656 1.616-1.36 2.16-.704.544-1.589.816-2.656.816-.821 0-1.552-.181-2.192-.544a3.943 3.943 0 01-1.504-1.568c-.363-.683-.544-1.477-.544-2.384zm14.485-4.528c.661 0 1.253.139 1.776.416.533.277.949.704 1.248 1.28.309.565.464 1.259.464 2.08V107h-1.104v-4.992c0-.949-.24-1.675-.72-2.176-.47-.501-1.115-.752-1.936-.752-.843 0-1.515.267-2.016.8-.502.533-.752 1.317-.752 2.352V107h-1.12V95.16h1.12v4.592a2.9 2.9 0 011.216-1.216 3.837 3.837 0 011.824-.432zm16.365 0c1.024 0 1.856.325 2.496.976.65.64.976 1.573.976 2.8V107h-1.104v-4.992c0-.949-.23-1.675-.688-2.176-.459-.501-1.083-.752-1.872-.752-.822 0-1.478.272-1.968.816-.491.544-.736 1.333-.736 2.368V107h-1.104v-4.992c0-.949-.23-1.675-.688-2.176-.459-.501-1.088-.752-1.888-.752-.822 0-1.478.272-1.968.816-.491.544-.736 1.333-.736 2.368V107h-1.12v-8.736h1.12v1.504a2.813 2.813 0 011.184-1.232 3.43 3.43 0 011.712-.432c.757 0 1.418.181 1.984.544.576.363.992.896 1.248 1.6.234-.693.634-1.221 1.2-1.584a3.51 3.51 0 011.952-.56zm5.447 4.512c0-.896.176-1.68.528-2.352.363-.683.859-1.205 1.488-1.568.64-.373 1.36-.56 2.16-.56.832 0 1.547.192 2.144.576.608.384 1.045.875 1.312 1.472v-1.92h1.12V107h-1.12v-1.936c-.277.597-.72 1.093-1.328 1.488-.597.384-1.312.576-2.144.576a4.18 4.18 0 01-2.144-.56 3.952 3.952 0 01-1.488-1.584c-.352-.683-.528-1.472-.528-2.368zm7.632.016c0-.704-.144-1.323-.432-1.856a3.07 3.07 0 00-1.184-1.232 3.166 3.166 0 00-1.632-.432c-.619 0-1.173.139-1.664.416-.491.277-.88.683-1.168 1.216-.277.523-.416 1.147-.416 1.872 0 .715.139 1.344.416 1.888a3.1 3.1 0 001.168 1.232 3.326 3.326 0 001.664.416c.597 0 1.141-.144 1.632-.432a3.07 3.07 0 001.184-1.232c.288-.533.432-1.152.432-1.856zm4.797-2.816a2.744 2.744 0 011.12-1.264c.512-.299 1.136-.448 1.872-.448v1.168h-.304c-.811 0-1.462.219-1.952.656-.491.437-.736 1.168-.736 2.192V107h-1.12v-8.736h1.12v1.552zm9.397 7.184l-3.6-3.92V107h-1.12V95.16h1.12v7.008l3.52-3.904h1.568l-4.144 4.352 4.176 4.384h-1.52zM5.104 129.128c-.821 0-1.563-.181-2.224-.544a4.132 4.132 0 01-1.552-1.568c-.373-.683-.56-1.477-.56-2.384 0-.907.192-1.696.576-2.368a3.96 3.96 0 011.568-1.568c.661-.373 1.403-.56 2.224-.56.821 0 1.563.187 2.224.56a3.829 3.829 0 011.568 1.568c.384.672.576 1.461.576 2.368 0 .896-.192 1.685-.576 2.368a4.035 4.035 0 01-1.584 1.584c-.672.363-1.419.544-2.24.544zm0-.976c.576 0 1.11-.128 1.6-.384.49-.267.885-.661 1.184-1.184.31-.533.464-1.184.464-1.952s-.15-1.413-.448-1.936c-.299-.533-.693-.928-1.184-1.184a3.294 3.294 0 00-1.6-.4c-.576 0-1.11.133-1.6.4-.49.256-.885.651-1.184 1.184-.288.523-.432 1.168-.432 1.936s.144 1.419.432 1.952c.299.523.688.917 1.168 1.184.49.256 1.024.384 1.6.384zm10.538-8.048c1.045 0 1.898.325 2.56.976.661.64.992 1.573.992 2.8V129H18.09v-4.992c0-.949-.24-1.675-.72-2.176-.47-.501-1.115-.752-1.936-.752-.843 0-1.515.267-2.016.8-.502.533-.752 1.317-.752 2.352V129h-1.12v-8.736h1.12v1.488a2.812 2.812 0 011.2-1.216c.522-.288 1.114-.432 1.776-.432zm9.907 4.512c0-.896.176-1.68.528-2.352a3.84 3.84 0 011.488-1.568c.64-.373 1.36-.56 2.16-.56.832 0 1.547.192 2.144.576.608.384 1.046.875 1.312 1.472v-1.92h1.12V129h-1.12v-1.936c-.277.597-.72 1.093-1.328 1.488-.597.384-1.312.576-2.144.576a4.18 4.18 0 01-2.144-.56 3.947 3.947 0 01-1.488-1.584c-.352-.683-.528-1.472-.528-2.368zm7.632.016c0-.704-.144-1.323-.432-1.856a3.068 3.068 0 00-1.184-1.232 3.165 3.165 0 00-1.632-.432c-.618 0-1.173.139-1.664.416-.49.277-.88.683-1.168 1.216-.277.523-.416 1.147-.416 1.872 0 .715.139 1.344.416 1.888.288.533.678.944 1.168 1.232.49.277 1.046.416 1.664.416.598 0 1.142-.144 1.632-.432a3.068 3.068 0 001.184-1.232c.288-.533.432-1.152.432-1.856zm7.773-4.528c1.045 0 1.899.325 2.56.976.661.64.992 1.573.992 2.8V129h-1.104v-4.992c0-.949-.24-1.675-.72-2.176-.47-.501-1.114-.752-1.936-.752-.843 0-1.515.267-2.016.8-.501.533-.752 1.317-.752 2.352V129h-1.12v-8.736h1.12v1.488a2.812 2.812 0 011.2-1.216c.523-.288 1.115-.432 1.776-.432zm9.908 4.512c0-.896.176-1.68.528-2.352a3.84 3.84 0 011.488-1.568c.64-.373 1.36-.56 2.16-.56.832 0 1.546.192 2.144.576.608.384 1.045.875 1.312 1.472v-1.92h1.12V129h-1.12v-1.936c-.278.597-.72 1.093-1.328 1.488-.598.384-1.312.576-2.144.576a4.18 4.18 0 01-2.144-.56 3.947 3.947 0 01-1.488-1.584c-.352-.683-.528-1.472-.528-2.368zm7.632.016c0-.704-.144-1.323-.432-1.856a3.068 3.068 0 00-1.184-1.232 3.165 3.165 0 00-1.632-.432c-.619 0-1.174.139-1.664.416-.49.277-.88.683-1.168 1.216-.278.523-.416 1.147-.416 1.872 0 .715.138 1.344.416 1.888.288.533.677.944 1.168 1.232.49.277 1.045.416 1.664.416.597 0 1.141-.144 1.632-.432a3.068 3.068 0 001.184-1.232c.288-.533.432-1.152.432-1.856zm15.197-4.368L70.955 129h-1.12l-2.416-7.328L65.003 129h-1.136l-2.736-8.736h1.136l2.176 7.6 2.448-7.6h1.12l2.416 7.616 2.16-7.616h1.104zm1.014 4.352c0-.896.177-1.68.529-2.352a3.842 3.842 0 011.488-1.568c.64-.373 1.36-.56 2.16-.56.831 0 1.546.192 2.143.576.608.384 1.046.875 1.313 1.472v-1.92h1.12V129h-1.12v-1.936c-.278.597-.72 1.093-1.328 1.488-.598.384-1.313.576-2.145.576a4.18 4.18 0 01-2.143-.56 3.948 3.948 0 01-1.488-1.584c-.352-.683-.528-1.472-.528-2.368zm7.633.016c0-.704-.144-1.323-.432-1.856a3.068 3.068 0 00-1.184-1.232 3.165 3.165 0 00-1.632-.432c-.62 0-1.174.139-1.665.416-.49.277-.88.683-1.168 1.216-.277.523-.416 1.147-.416 1.872 0 .715.14 1.344.416 1.888.288.533.678.944 1.168 1.232.491.277 1.046.416 1.665.416.597 0 1.14-.144 1.632-.432a3.068 3.068 0 001.184-1.232c.287-.533.431-1.152.431-1.856zm4.796-2.816a2.75 2.75 0 011.12-1.264c.512-.299 1.136-.448 1.872-.448v1.168h-.304c-.81 0-1.461.219-1.952.656-.49.437-.736 1.168-.736 2.192V129h-1.12v-8.736h1.12v1.552zm4.165 2.8c0-.896.182-1.68.544-2.352a3.84 3.84 0 011.488-1.568c.64-.373 1.36-.56 2.16-.56a3.95 3.95 0 012.08.56c.619.373 1.072.859 1.36 1.456v-4.992h1.12V129h-1.12v-1.952c-.266.608-.704 1.109-1.312 1.504-.608.384-1.322.576-2.144.576-.8 0-1.52-.187-2.16-.56a3.947 3.947 0 01-1.488-1.584c-.352-.683-.528-1.472-.528-2.368zm7.632.016c0-.704-.144-1.323-.432-1.856a3.068 3.068 0 00-1.184-1.232 3.165 3.165 0 00-1.632-.432c-.618 0-1.173.139-1.664.416-.49.277-.88.683-1.168 1.216-.277.523-.416 1.147-.416 1.872 0 .715.139 1.344.416 1.888.288.533.678.944 1.168 1.232.49.277 1.046.416 1.664.416.598 0 1.142-.144 1.632-.432a3.068 3.068 0 001.184-1.232c.288-.533.432-1.152.432-1.856zm9.101-2.032v.944h-6.224v-.944h6.224zm14.393-2.336L119.689 129h-1.12l-2.416-7.328-2.416 7.328h-1.136l-2.736-8.736h1.136l2.176 7.6 2.448-7.6h1.12l2.416 7.616 2.16-7.616h1.104zm2.087-1.648a.786.786 0 01-.576-.24.804.804 0 01-.24-.592c0-.235.08-.427.24-.576.16-.16.352-.24.576-.24.224 0 .416.08.576.24.16.149.24.341.24.576 0 .235-.08.432-.24.592a.786.786 0 01-.576.24zm.56 1.648V129h-1.12v-8.736h1.12zm6.632-.16c1.045 0 1.899.325 2.56.976.661.64.992 1.573.992 2.8V129h-1.104v-4.992c0-.949-.24-1.675-.72-2.176-.469-.501-1.115-.752-1.936-.752-.843 0-1.515.267-2.016.8-.501.533-.752 1.317-.752 2.352V129h-1.12v-8.736h1.12v1.488a2.808 2.808 0 011.2-1.216c.523-.288 1.115-.432 1.776-.432zm10.125 0c1.045 0 1.899.325 2.56.976.661.64.992 1.573.992 2.8V129h-1.104v-4.992c0-.949-.24-1.675-.72-2.176-.469-.501-1.115-.752-1.936-.752-.843 0-1.515.267-2.016.8-.501.533-.752 1.317-.752 2.352V129h-1.12v-8.736h1.12v1.488a2.808 2.808 0 011.2-1.216c.523-.288 1.115-.432 1.776-.432zm6.589-1.488a.786.786 0 01-.576-.24.804.804 0 01-.24-.592c0-.235.08-.427.24-.576.16-.16.352-.24.576-.24.224 0 .416.08.576.24.16.149.24.341.24.576 0 .235-.08.432-.24.592a.786.786 0 01-.576.24zm.56 1.648V129h-1.12v-8.736h1.12zm6.632-.16c1.046 0 1.899.325 2.56.976.662.64.992 1.573.992 2.8V129h-1.104v-4.992c0-.949-.24-1.675-.72-2.176-.469-.501-1.114-.752-1.936-.752-.842 0-1.514.267-2.016.8-.501.533-.752 1.317-.752 2.352V129h-1.12v-8.736h1.12v1.488a2.818 2.818 0 011.2-1.216c.523-.288 1.115-.432 1.776-.432zm9.693.032c.822 0 1.536.192 2.144.576.608.384 1.046.869 1.312 1.456v-1.904h1.12v8.96c0 .8-.176 1.509-.528 2.128a3.49 3.49 0 01-1.44 1.424c-.618.341-1.322.512-2.112.512-1.12 0-2.053-.267-2.8-.8-.736-.533-1.194-1.259-1.376-2.176h1.104a2.702 2.702 0 001.088 1.456c.544.363 1.206.544 1.984.544.566 0 1.072-.123 1.52-.368.448-.235.8-.587 1.056-1.056.256-.469.384-1.024.384-1.664v-2.16c-.277.597-.72 1.093-1.328 1.488-.597.384-1.306.576-2.128.576-.8 0-1.52-.187-2.16-.56a3.952 3.952 0 01-1.488-1.584c-.352-.683-.528-1.472-.528-2.368 0-.896.176-1.68.528-2.352a3.846 3.846 0 011.488-1.568c.64-.373 1.36-.56 2.16-.56zm3.456 4.496c0-.704-.144-1.323-.432-1.856a3.064 3.064 0 00-1.184-1.232 3.161 3.161 0 00-1.632-.432c-.618 0-1.173.139-1.664.416-.49.277-.88.683-1.168 1.216-.277.523-.416 1.147-.416 1.872 0 .715.139 1.344.416 1.888.288.533.678.944 1.168 1.232a3.328 3.328 0 001.664.416c.598 0 1.142-.144 1.632-.432a3.064 3.064 0 001.184-1.232c.288-.533.432-1.152.432-1.856zm9.172-2.448c.277-.587.715-1.072 1.312-1.456.608-.395 1.328-.592 2.16-.592.789 0 1.499.187 2.128.56a3.71 3.71 0 011.488 1.568c.363.672.544 1.456.544 2.352 0 .896-.181 1.685-.544 2.368a3.808 3.808 0 01-1.488 1.584c-.629.373-1.339.56-2.128.56-.821 0-1.536-.192-2.144-.576-.608-.395-1.051-.885-1.328-1.472v6.048h-1.104v-12.864h1.104v1.92zm6.496 2.432c0-.725-.144-1.349-.432-1.872a2.883 2.883 0 00-1.152-1.216 3.326 3.326 0 00-1.664-.416 3.25 3.25 0 00-1.648.432 3.1 3.1 0 00-1.168 1.232c-.288.533-.432 1.152-.432 1.856 0 .704.144 1.323.432 1.856a3.1 3.1 0 001.168 1.232 3.25 3.25 0 001.648.432c.619 0 1.173-.139 1.664-.416a2.99 2.99 0 001.152-1.232c.288-.544.432-1.173.432-1.888zm4.317-7.456V129h-1.12v-11.84h1.12zm2.024 7.456c0-.896.176-1.68.528-2.352a3.846 3.846 0 011.488-1.568c.64-.373 1.36-.56 2.16-.56.832 0 1.547.192 2.144.576.608.384 1.045.875 1.312 1.472v-1.92h1.12V129h-1.12v-1.936c-.277.597-.72 1.093-1.328 1.488-.597.384-1.312.576-2.144.576a4.18 4.18 0 01-2.144-.56 3.952 3.952 0 01-1.488-1.584c-.352-.683-.528-1.472-.528-2.368zm7.632.016c0-.704-.144-1.323-.432-1.856a3.07 3.07 0 00-1.184-1.232 3.166 3.166 0 00-1.632-.432c-.619 0-1.173.139-1.664.416-.491.277-.88.683-1.168 1.216-.277.523-.416 1.147-.416 1.872 0 .715.139 1.344.416 1.888a3.1 3.1 0 001.168 1.232 3.326 3.326 0 001.664.416c.597 0 1.141-.144 1.632-.432a3.07 3.07 0 001.184-1.232c.288-.533.432-1.152.432-1.856zm5.133-3.424v5.424c0 .533.101.901.304 1.104.203.203.56.304 1.072.304h1.024v.96h-1.2c-.789 0-1.376-.181-1.76-.544-.384-.373-.576-.981-.576-1.824v-5.424h-1.216v-.944h1.216v-2.192h1.136v2.192h2.4v.944h-2.4zm7.687 0h-2.032V129h-1.12v-7.792h-1.216v-.944h1.216v-.608c0-.949.24-1.648.72-2.096.491-.448 1.28-.672 2.368-.672v.96c-.725 0-1.237.139-1.536.416-.288.277-.432.741-.432 1.392v.608h2.032v.944zm5.587 7.92c-.821 0-1.563-.181-2.224-.544a4.13 4.13 0 01-1.552-1.568c-.373-.683-.56-1.477-.56-2.384 0-.907.192-1.696.576-2.368a3.962 3.962 0 011.568-1.568c.661-.373 1.403-.56 2.224-.56.821 0 1.563.187 2.224.56a3.827 3.827 0 011.568 1.568c.384.672.576 1.461.576 2.368 0 .896-.192 1.685-.576 2.368a4.035 4.035 0 01-1.584 1.584c-.672.363-1.419.544-2.24.544zm0-.976c.576 0 1.109-.128 1.6-.384a3.008 3.008 0 001.184-1.184c.309-.533.464-1.184.464-1.952s-.149-1.413-.448-1.936c-.299-.533-.693-.928-1.184-1.184a3.294 3.294 0 00-1.6-.4c-.576 0-1.109.133-1.6.4-.491.256-.885.651-1.184 1.184-.288.523-.432 1.168-.432 1.936s.144 1.419.432 1.952c.299.523.688.917 1.168 1.184a3.408 3.408 0 001.6.384zm7.562-6.336a2.746 2.746 0 011.12-1.264c.512-.299 1.136-.448 1.872-.448v1.168h-.304c-.811 0-1.462.219-1.952.656-.491.437-.736 1.168-.736 2.192V129h-1.12v-8.736h1.12v1.552zm15.077-1.712c1.024 0 1.856.325 2.496.976.65.64.976 1.573.976 2.8V129h-1.104v-4.992c0-.949-.23-1.675-.688-2.176-.459-.501-1.083-.752-1.872-.752-.822 0-1.478.272-1.968.816-.491.544-.736 1.333-.736 2.368V129h-1.104v-4.992c0-.949-.23-1.675-.688-2.176-.459-.501-1.088-.752-1.888-.752-.822 0-1.478.272-1.968.816-.491.544-.736 1.333-.736 2.368V129h-1.12v-8.736h1.12v1.504a2.812 2.812 0 011.184-1.232 3.43 3.43 0 011.712-.432c.757 0 1.418.181 1.984.544.576.363.992.896 1.248 1.6.234-.693.634-1.221 1.2-1.584a3.512 3.512 0 011.952-.56z" fill="#fff"/><rect y="150" width="159" height="34" rx="17" fill="#14964F"/><path d="M15.216 161.88V173H20.8v-1.472h-3.76v-9.648h-1.824zm15.509 6.704c0-2.768-1.984-4.544-4.496-4.544-2.512 0-4.496 1.776-4.496 4.544s1.904 4.56 4.416 4.56c2.528 0 4.576-1.792 4.576-4.56zm-7.136 0c0-2 1.232-2.96 2.608-2.96 1.36 0 2.656.96 2.656 2.96s-1.344 2.976-2.704 2.976c-1.376 0-2.56-.976-2.56-2.976zm8.331-.032c0 2.72 1.84 4.592 4.16 4.592 1.44 0 2.496-.72 3.056-1.472v1.472c0 1.76-1.056 2.624-2.464 2.624-1.264 0-2.24-.624-2.512-1.536h-1.808c.224 1.952 1.968 3.12 4.32 3.12 2.752 0 4.304-1.808 4.304-4.208v-8.96h-1.84v1.28c-.544-.752-1.616-1.424-3.056-1.424-2.32 0-4.16 1.792-4.16 4.512zm7.216.032c0 1.904-1.296 2.976-2.672 2.976-1.36 0-2.672-1.104-2.672-3.008s1.312-2.928 2.672-2.928c1.376 0 2.672 1.072 2.672 2.96zM47.528 173h1.824v-8.816h-1.824V173zm.928-9.984a1.15 1.15 0 001.152-1.168 1.15 1.15 0 00-1.152-1.168c-.656 0-1.168.512-1.168 1.168 0 .656.512 1.168 1.168 1.168zM58.003 173h1.808v-5.2c0-2.464-1.552-3.76-3.616-3.76-1.056 0-2.032.432-2.624 1.152v-1.008h-1.824V173h1.824v-4.928c0-1.616.88-2.448 2.224-2.448 1.328 0 2.208.832 2.208 2.448V173zm7.683-4.448c0 2.72 1.84 4.592 4.128 4.592 1.472 0 2.528-.704 3.088-1.456V173h1.84v-8.816h-1.84v1.28c-.544-.72-1.568-1.424-3.056-1.424-2.32 0-4.16 1.792-4.16 4.512zm7.216.032c0 1.904-1.296 2.976-2.672 2.976-1.36 0-2.672-1.104-2.672-3.008s1.312-2.928 2.672-2.928c1.376 0 2.672 1.072 2.672 2.96zM83.394 173H85.2v-5.2c0-2.464-1.551-3.76-3.615-3.76-1.056 0-2.032.432-2.624 1.152v-1.008h-1.825V173h1.825v-4.928c0-1.616.88-2.448 2.224-2.448 1.327 0 2.207.832 2.207 2.448V173zm3.526-4.448c0 2.72 1.84 4.592 4.16 4.592 1.44 0 2.496-.672 3.056-1.472V173h1.84v-11.84h-1.84v4.256c-.672-.832-1.888-1.376-3.04-1.376-2.336 0-4.176 1.792-4.176 4.512zm7.216.032c0 1.904-1.296 2.976-2.672 2.976-1.36 0-2.672-1.104-2.672-3.008s1.312-2.928 2.672-2.928c1.376 0 2.672 1.072 2.672 2.96zm8.68 1.968c0 1.792.976 2.448 2.544 2.448h1.44v-1.52h-1.12c-.768 0-1.024-.272-1.024-.928v-4.88h2.144v-1.488h-2.144v-2.192h-1.84v2.192h-1.04v1.488h1.04v4.88zm7.489-2.192c0-1.872.832-2.432 2.176-2.432h.464v-1.888c-1.248 0-2.128.544-2.64 1.424v-1.28h-1.824V173h1.824v-4.64zm3.709.192c0 2.72 1.84 4.592 4.128 4.592 1.472 0 2.528-.704 3.088-1.456V173h1.84v-8.816h-1.84v1.28c-.544-.72-1.568-1.424-3.056-1.424-2.32 0-4.16 1.792-4.16 4.512zm7.216.032c0 1.904-1.296 2.976-2.672 2.976-1.36 0-2.672-1.104-2.672-3.008s1.312-2.928 2.672-2.928c1.376 0 2.672 1.072 2.672 2.96zm3.628-.032c0 2.72 1.84 4.592 4.16 4.592 1.44 0 2.496-.672 3.056-1.472V173h1.84v-11.84h-1.84v4.256c-.672-.832-1.888-1.376-3.04-1.376-2.336 0-4.176 1.792-4.176 4.512zm7.216.032c0 1.904-1.296 2.976-2.672 2.976-1.36 0-2.672-1.104-2.672-3.008s1.312-2.928 2.672-2.928c1.376 0 2.672 1.072 2.672 2.96zm7.947-3.008c1.36 0 2.432.864 2.464 2.224h-4.88c.192-1.392 1.184-2.224 2.416-2.224zm4.128 4.8h-1.968c-.336.688-.96 1.232-2.08 1.232-1.344 0-2.384-.88-2.512-2.336h6.736c.048-.304.064-.592.064-.896 0-2.592-1.776-4.336-4.288-4.336-2.608 0-4.4 1.776-4.4 4.544s1.872 4.56 4.4 4.56c2.16 0 3.552-1.232 4.048-2.768z" fill="#fff"/></svg>