<svg width="104" height="81" viewBox="0 0 104 81" fill="none" xmlns="http://www.w3.org/2000/svg"><path d="M.52 3.452h5.616V19h2.99V3.452h5.616V.8H.52v2.652zm21.608 2.236c-2.184 0-3.25.884-3.926 2.002l-.312-2.002h-2.496V19h2.808v-6.682c0-2.054.806-4.004 3.302-4.004h1.248V5.688h-.624zm14.117 10.868c-.572 0-.858-.182-.858-.858v-5.33c0-3.146-2.028-4.836-5.564-4.836-3.354 0-5.59 1.612-5.876 4.212h2.756c.208-1.17 1.326-1.95 2.99-1.95 1.846 0 2.912.91 2.912 2.392v.806h-3.354c-3.718 0-5.694 1.534-5.694 4.264 0 2.47 2.028 3.9 4.94 3.9 2.158 0 3.51-.936 4.394-2.288 0 1.326.624 2.132 2.444 2.132h1.482v-2.444h-.572zm-3.64-3.016c-.026 2.054-1.378 3.432-3.718 3.432-1.534 0-2.47-.78-2.47-1.898 0-1.352.962-2.002 2.704-2.002h3.484v.468zM48.36 7.534c-.858-1.17-2.288-2.002-4.316-2.002-3.614 0-6.292 2.704-6.292 6.812 0 4.264 2.678 6.812 6.292 6.812 2.106 0 3.484-.988 4.342-2.158L48.723 19h2.444V.8H48.36v6.734zm-3.848 9.256c-2.34 0-3.874-1.82-3.874-4.446 0-2.6 1.534-4.42 3.874-4.42s3.874 1.82 3.874 4.472c0 2.574-1.534 4.394-3.874 4.394zm15.718 2.366c3.302 0 5.538-2.002 6.006-4.628h-2.808c-.39 1.482-1.638 2.34-3.354 2.34-2.21 0-3.64-1.482-3.718-3.744v-.182h10.036c.052-.364.078-.728.078-1.066-.078-3.9-2.652-6.344-6.5-6.344-3.926 0-6.552 2.73-6.552 6.838 0 4.082 2.626 6.786 6.812 6.786zm-3.77-8.268c.208-1.898 1.742-3.094 3.536-3.094 1.95 0 3.328 1.118 3.562 3.094H56.46zm25.225 8.268c4.056 0 6.786-2.73 6.786-6.812 0-4.056-2.73-6.812-6.786-6.812-4.056 0-6.786 2.756-6.786 6.812 0 4.082 2.73 6.812 6.786 6.812zm0-2.392c-2.366 0-3.9-1.846-3.9-4.42s1.534-4.42 3.9-4.42c2.366 0 3.926 1.846 3.926 4.42s-1.56 4.42-3.926 4.42zM97.748 5.532c-2.158 0-3.432.858-4.264 1.898l-.312-1.742h-2.444V19h2.808v-6.708c0-2.704 1.326-4.342 3.562-4.342 2.106 0 3.172 1.352 3.172 3.874V19h2.834v-7.41c0-4.446-2.418-6.058-5.356-6.058zM4.966 47h3.432l4.914-13.312h-2.964L6.734 43.984 3.068 33.688H.052L4.966 47zm15.45.156c4.056 0 6.786-2.73 6.786-6.812 0-4.056-2.73-6.812-6.786-6.812-4.056 0-6.786 2.756-6.786 6.812 0 4.082 2.73 6.812 6.786 6.812zm0-2.392c-2.366 0-3.9-1.846-3.9-4.42s1.534-4.42 3.9-4.42c2.366 0 3.926 1.846 3.926 4.42s-1.56 4.42-3.926 4.42zM29.46 47h2.808V28.8H29.46V47zm17.729-2.444c-.572 0-.858-.182-.858-.858v-5.33c0-3.146-2.028-4.836-5.564-4.836-3.354 0-5.59 1.612-5.876 4.212h2.756c.208-1.17 1.326-1.95 2.99-1.95 1.846 0 2.912.91 2.912 2.392v.806h-3.354c-3.718 0-5.694 1.534-5.694 4.264 0 2.47 2.028 3.9 4.94 3.9 2.158 0 3.51-.936 4.394-2.288 0 1.326.624 2.132 2.444 2.132h1.482v-2.444h-.572zm-3.64-3.016c-.026 2.054-1.378 3.432-3.718 3.432-1.534 0-2.47-.78-2.47-1.898 0-1.352.962-2.002 2.704-2.002h3.484v.468zm6.703 1.846c0 2.418 1.092 3.614 3.64 3.614h2.6v-2.47h-1.976c-1.066 0-1.43-.39-1.43-1.43v-6.942h3.25v-2.47h-3.25V29.97h-2.834v3.718h-2.314v2.47h2.314v7.228zm9.456-11.57c.962 0 1.716-.702 1.716-1.69s-.754-1.69-1.716-1.69-1.716.702-1.716 1.69.754 1.69 1.716 1.69zM58.278 47h2.808V33.688h-2.808V47zm5.56 0h2.809V28.8h-2.808V47zm6.991-15.184c.963 0 1.717-.702 1.717-1.69s-.755-1.69-1.717-1.69c-.961 0-1.715.702-1.715 1.69s.754 1.69 1.715 1.69zM69.4 47h2.808V33.688H69.4V47zm6.523-3.614c0 2.418 1.092 3.614 3.64 3.614h2.6v-2.47h-1.976c-1.066 0-1.43-.39-1.43-1.43v-6.942h3.25v-2.47h-3.25V29.97h-2.834v3.718h-2.314v2.47h2.314v7.228zm11.874 3.692l-.52 1.3c-.416 1.092-.676 1.352-1.768 1.352h-1.976v2.47h3.016c1.95 0 2.522-.962 3.354-3.12l6.032-15.392h-2.99L89.33 43.802l-3.718-10.114h-2.99l5.174 13.39zM2.34 71.386C2.34 73.804 3.432 75 5.98 75h2.6v-2.47H6.604c-1.066 0-1.43-.39-1.43-1.43v-6.942h3.25v-2.47h-3.25V57.97H2.34v3.718H.026v2.47H2.34v7.228zm14.039 3.77c4.056 0 6.786-2.73 6.786-6.812 0-4.056-2.73-6.812-6.786-6.812-4.056 0-6.786 2.756-6.786 6.812 0 4.082 2.73 6.812 6.786 6.812zm0-2.392c-2.366 0-3.9-1.846-3.9-4.42s1.534-4.42 3.9-4.42c2.366 0 3.926 1.846 3.926 4.42s-1.56 4.42-3.926 4.42zm19.158-9.23c-.858-1.17-2.288-2.002-4.316-2.002-3.614 0-6.292 2.704-6.292 6.812 0 4.264 2.678 6.812 6.292 6.812 2.106 0 3.484-.988 4.342-2.158L35.9 75h2.444V56.8h-2.808v6.734zm-3.848 9.256c-2.34 0-3.874-1.82-3.874-4.446 0-2.6 1.534-4.42 3.874-4.42s3.874 1.82 3.874 4.472c0 2.574-1.534 4.394-3.874 4.394zm21.568-.234c-.572 0-.858-.182-.858-.858v-5.33c0-3.146-2.028-4.836-5.564-4.836-3.354 0-5.59 1.612-5.876 4.212h2.756c.208-1.17 1.326-1.95 2.99-1.95 1.846 0 2.912.91 2.912 2.392v.806h-3.354c-3.718 0-5.694 1.534-5.694 4.264 0 2.47 2.028 3.9 4.94 3.9 2.158 0 3.51-.936 4.394-2.288 0 1.326.624 2.132 2.444 2.132h1.482v-2.444h-.572zm-3.64-3.016c-.026 2.054-1.378 3.432-3.718 3.432-1.534 0-2.47-.78-2.47-1.898 0-1.352.962-2.002 2.704-2.002h3.484v.468zm9.03 5.538l-.52 1.3c-.415 1.092-.675 1.352-1.767 1.352h-1.976v2.47H57.4c1.95 0 2.522-.962 3.354-3.12l6.032-15.392h-2.99l-3.614 10.114-3.718-10.114h-2.99l5.174 13.39z" fill="#000"/></svg>