<svg width="135" height="30" viewBox="0 0 135 30" fill="none" xmlns="http://www.w3.org/2000/svg"><path d="M.644 6.99c.098 1.848 1.442 3.094 3.64 3.094 2.058 0 3.416-1.12 3.416-2.772 0-1.862-1.652-2.338-3.276-2.618-1.498-.252-2.8-.504-2.8-1.904 0-1.274.994-1.988 2.534-1.988 1.47 0 2.478.826 2.646 2.1h.77C7.434 1.222 6.16.116 4.158.116 2.17.116.868 1.166.868 2.832c0 1.862 1.596 2.282 3.164 2.548 1.54.266 2.912.574 2.912 2.002 0 1.26-1.064 2.016-2.646 2.016-1.652 0-2.772-.952-2.87-2.408H.644zm11.685 3.094c1.554 0 2.744-1.008 3.053-2.436h-.729c-.28 1.106-1.218 1.792-2.38 1.792-1.582 0-2.575-1.204-2.603-2.856v-.126h5.796c0-.098.014-.21.014-.294-.07-2.114-1.373-3.346-3.277-3.346-1.945 0-3.275 1.484-3.275 3.584 0 2.226 1.385 3.682 3.401 3.682zM9.726 5.856c.112-1.442 1.19-2.408 2.491-2.408 1.386 0 2.38.854 2.492 2.408H9.727zm7.529-4.452c.28 0 .504-.21.504-.504a.493.493 0 00-.504-.504c-.28 0-.504.21-.504.504 0 .294.224.504.504.504zM16.89 10h.714V2.902h-.714V10zm2.056-6.44h4.564l-4.76 5.88V10h5.908v-.658h-4.97l4.774-5.894v-.546h-5.516v.658zm9.57 6.524c1.554 0 2.744-1.008 3.052-2.436h-.728c-.28 1.106-1.218 1.792-2.38 1.792-1.582 0-2.576-1.204-2.604-2.856v-.126h5.796c0-.098.014-.21.014-.294-.07-2.114-1.372-3.346-3.276-3.346-1.946 0-3.276 1.484-3.276 3.584 0 2.226 1.386 3.682 3.402 3.682zm-2.604-4.228c.112-1.442 1.19-2.408 2.492-2.408 1.386 0 2.38.854 2.492 2.408h-4.984zm14.075 4.228c2.002 0 3.416-1.484 3.416-3.64 0-2.142-1.414-3.626-3.416-3.626s-3.402 1.484-3.402 3.626c0 2.156 1.4 3.64 3.402 3.64zm0-.644c-1.582 0-2.674-1.232-2.674-2.996 0-1.75 1.092-2.996 2.674-2.996 1.582 0 2.674 1.246 2.674 2.996 0 1.764-1.092 2.996-2.674 2.996zm8.11-6.622c-1.302 0-2.142.672-2.548 1.596l-.112-1.512h-.616V10h.714V6.5c0-1.848.938-3.024 2.45-3.024 1.372 0 2.198.896 2.198 2.576V10h.714V6.024c0-2.24-1.19-3.206-2.8-3.206zm11.29 7.266c2.002 0 3.416-1.484 3.416-3.64 0-2.142-1.414-3.626-3.416-3.626s-3.402 1.484-3.402 3.626c0 2.156 1.4 3.64 3.402 3.64zm0-.644c-1.582 0-2.674-1.232-2.674-2.996 0-1.75 1.092-2.996 2.674-2.996 1.582 0 2.674 1.246 2.674 2.996 0 1.764-1.092 2.996-2.674 2.996zm8.265-6.622c-1.33 0-2.254.714-2.702 1.708l-.112-1.624h-.616V12.8h.714V8.362c.406 1.036 1.372 1.722 2.716 1.722 1.946 0 3.346-1.484 3.346-3.64 0-2.226-1.4-3.626-3.346-3.626zm-.056 6.622c-1.582 0-2.674-1.232-2.674-3.01 0-1.736 1.092-2.982 2.674-2.982 1.582 0 2.674 1.246 2.674 2.996 0 1.764-1.092 2.996-2.674 2.996zm8.245-6.622c-1.33 0-2.254.714-2.702 1.708l-.112-1.624h-.616V12.8h.714V8.362c.406 1.036 1.372 1.722 2.716 1.722 1.946 0 3.346-1.484 3.346-3.64 0-2.226-1.4-3.626-3.346-3.626zm-.056 6.622c-1.582 0-2.674-1.232-2.674-3.01 0-1.736 1.092-2.982 2.674-2.982 1.582 0 2.674 1.246 2.674 2.996 0 1.764-1.092 2.996-2.674 2.996zm7.952.644c2.002 0 3.416-1.484 3.416-3.64 0-2.142-1.414-3.626-3.416-3.626s-3.402 1.484-3.402 3.626c0 2.156 1.4 3.64 3.402 3.64zm0-.644c-1.582 0-2.674-1.232-2.674-2.996 0-1.75 1.092-2.996 2.674-2.996 1.582 0 2.674 1.246 2.674 2.996 0 1.764-1.092 2.996-2.674 2.996zm7.732-6.538c-1.316 0-1.876.63-2.17 1.414l-.112-1.414h-.616V10h.714V6.402c0-1.442.378-2.814 2.044-2.814h.518v-.686h-.378zm2.16 5.446c0 1.134.462 1.652 1.666 1.652h1.036v-.658h-.98c-.742 0-1.008-.28-1.008-1.008V3.56h1.918v-.658h-1.918V.914h-.714v1.988h-1.344v.658h1.344v4.788zm8.94-1.96c0 1.862-.924 3.038-2.394 3.038-1.316 0-2.128-.896-2.128-2.59V2.902h-.714v3.976c0 2.226 1.162 3.206 2.73 3.206 1.26 0 2.086-.672 2.492-1.582l.098 1.498h.63V2.902h-.714v3.486zm5.671-3.57c-1.302 0-2.142.672-2.548 1.596l-.112-1.512h-.616V10h.714V6.5c0-1.848.938-3.024 2.45-3.024 1.372 0 2.198.896 2.198 2.576V10h.714V6.024c0-2.24-1.19-3.206-2.8-3.206zm4.744-1.414c.28 0 .504-.21.504-.504a.493.493 0 00-.504-.504c-.28 0-.504.21-.504.504 0 .294.224.504.504.504zM112.621 10h.714V2.902h-.714V10zm2.925-1.652c0 1.134.462 1.652 1.666 1.652h1.036v-.658h-.98c-.742 0-1.008-.28-1.008-1.008V3.56h1.918v-.658h-1.918V.914h-.714v1.988h-1.344v.658h1.344v4.788zm4.152-6.944c.28 0 .504-.21.504-.504a.493.493 0 00-.504-.504c-.28 0-.504.21-.504.504 0 .294.224.504.504.504zM119.334 10h.714V2.902h-.714V10zm5.529.084c1.554 0 2.744-1.008 3.052-2.436h-.728c-.28 1.106-1.218 1.792-2.38 1.792-1.582 0-2.576-1.204-2.604-2.856v-.126h5.796c0-.098.014-.21.014-.294-.07-2.114-1.372-3.346-3.276-3.346-1.946 0-3.276 1.484-3.276 3.584 0 2.226 1.386 3.682 3.402 3.682zm-2.604-4.228c.112-1.442 1.19-2.408 2.492-2.408 1.386 0 2.38.854 2.492 2.408h-4.984zm6.829 1.96c.056 1.47 1.246 2.268 3.024 2.268 1.526 0 2.758-.77 2.758-2.03 0-1.498-1.316-1.792-2.842-2.002-1.106-.154-2.086-.28-2.086-1.274 0-.812.798-1.344 2.002-1.344 1.134 0 1.946.546 2.072 1.47h.728c-.126-1.386-1.26-2.086-2.8-2.086-1.582-.014-2.716.798-2.716 2.016 0 1.428 1.316 1.694 2.772 1.89 1.19.168 2.156.322 2.156 1.372 0 .84-.882 1.372-2.044 1.372-1.358 0-2.24-.63-2.296-1.652h-.728zM1.204 19.404c.28 0 .504-.21.504-.504a.493.493 0 00-.504-.504c-.28 0-.504.21-.504.504 0 .294.224.504.504.504zM.84 28h.714v-7.098H.84V28zm5.669-7.182c-1.302 0-2.142.672-2.548 1.596l-.112-1.512h-.616V28h.714v-3.5c0-1.848.938-3.024 2.45-3.024 1.372 0 2.198.896 2.198 2.576V28h.714v-3.976c0-2.24-1.19-3.206-2.8-3.206zM14.844 28l1.176-2.996h4.508L21.704 28h.812l-3.78-9.8h-.882L14.06 28h.784zm3.43-8.96l2.03 5.264h-4.06l2.03-5.264zm4.963 4.914c0 2.73 1.163 4.13 3.57 4.13 2.423 0 3.599-1.4 3.599-4.13V18.2h-.756v5.796c0 2.254-.868 3.388-2.842 3.388-1.947 0-2.814-1.134-2.814-3.388V18.2h-.756v5.754zM35.242 28c3.108 0 4.928-1.932 4.928-4.9 0-2.982-1.82-4.9-4.928-4.9h-2.856V28h2.856zm-2.1-9.1h2.1c2.674 0 4.158 1.624 4.158 4.2 0 2.562-1.484 4.2-4.158 4.2h-2.1v-8.4zm7.938 10.92l3.962-12.04h-.714l-3.962 12.04h.714zm5.168-5.866c0 2.73 1.162 4.13 3.57 4.13 2.422 0 3.598-1.4 3.598-4.13V18.2h-.756v5.796c0 2.254-.868 3.388-2.842 3.388-1.946 0-2.814-1.134-2.814-3.388V18.2h-.756v5.754zm8.784 1.036c.098 1.848 1.442 3.094 3.64 3.094 2.058 0 3.416-1.12 3.416-2.772 0-1.862-1.652-2.338-3.276-2.618-1.498-.252-2.8-.504-2.8-1.904 0-1.274.994-1.988 2.534-1.988 1.47 0 2.478.826 2.646 2.1h.77c-.14-1.68-1.414-2.786-3.416-2.786-1.988 0-3.29 1.05-3.29 2.716 0 1.862 1.596 2.282 3.164 2.548 1.54.266 2.912.574 2.912 2.002 0 1.26-1.064 2.016-2.646 2.016-1.652 0-2.772-.952-2.87-2.408h-.784zM66.604 28c3.108 0 4.928-1.932 4.928-4.9 0-2.982-1.82-4.9-4.928-4.9h-2.856V28h2.856zm-2.1-9.1h2.1c2.674 0 4.158 1.624 4.158 4.2 0 2.562-1.484 4.2-4.158 4.2h-2.1v-8.4z" fill="#000"/></svg>