<svg width="729" height="90" viewBox="0 0 729 90" fill="none" xmlns="http://www.w3.org/2000/svg"><path fill="url(#paint0_linear_1_466)" d="M0 0h729v90H0z"/><rect x="414" y="34" width="123" height="24" rx="12" fill="#14964F"/><path d="M427.287 41.66V50h4.188v-1.104h-2.82V41.66h-1.368zm11.632 5.028c0-2.076-1.488-3.408-3.372-3.408s-3.372 1.332-3.372 3.408c0 2.076 1.428 3.42 3.312 3.42 1.896 0 3.432-1.344 3.432-3.42zm-5.352 0c0-1.5.924-2.22 1.956-2.22 1.02 0 1.992.72 1.992 2.22 0 1.5-1.008 2.232-2.028 2.232-1.032 0-1.92-.732-1.92-2.232zm6.248-.024c0 2.04 1.38 3.444 3.12 3.444 1.08 0 1.872-.54 2.292-1.104v1.104c0 1.32-.792 1.968-1.848 1.968-.948 0-1.68-.468-1.884-1.152h-1.356c.168 1.464 1.476 2.34 3.24 2.34 2.064 0 3.228-1.356 3.228-3.156v-6.72h-1.38v.96c-.408-.564-1.212-1.068-2.292-1.068-1.74 0-3.12 1.344-3.12 3.384zm5.412.024c0 1.428-.972 2.232-2.004 2.232-1.02 0-2.004-.828-2.004-2.256s.984-2.196 2.004-2.196c1.032 0 2.004.804 2.004 2.22zM451.521 50h1.368v-6.612h-1.368V50zm.696-7.488c.48 0 .864-.384.864-.876a.863.863 0 00-.864-.876.866.866 0 00-.876.876c0 .492.384.876.876.876zm7.16 7.488h1.356v-3.9c0-1.848-1.164-2.82-2.712-2.82-.792 0-1.524.324-1.968.864v-.756h-1.368V50h1.368v-3.696c0-1.212.66-1.836 1.668-1.836.996 0 1.656.624 1.656 1.836V50zm5.762-3.336c0 2.04 1.38 3.444 3.096 3.444 1.104 0 1.896-.528 2.316-1.092V50h1.38v-6.612h-1.38v.96c-.408-.54-1.176-1.068-2.292-1.068-1.74 0-3.12 1.344-3.12 3.384zm5.412.024c0 1.428-.972 2.232-2.004 2.232-1.02 0-2.004-.828-2.004-2.256s.984-2.196 2.004-2.196c1.032 0 2.004.804 2.004 2.22zM478.42 50h1.356v-3.9c0-1.848-1.164-2.82-2.712-2.82-.792 0-1.524.324-1.968.864v-.756h-1.368V50h1.368v-3.696c0-1.212.66-1.836 1.668-1.836.996 0 1.656.624 1.656 1.836V50zm2.645-3.336c0 2.04 1.38 3.444 3.12 3.444 1.08 0 1.872-.504 2.292-1.104V50h1.38v-8.88h-1.38v3.192c-.504-.624-1.416-1.032-2.28-1.032-1.752 0-3.132 1.344-3.132 3.384zm5.412.024c0 1.428-.972 2.232-2.004 2.232-1.02 0-2.004-.828-2.004-2.256s.984-2.196 2.004-2.196c1.032 0 2.004.804 2.004 2.22zm6.51 1.476c0 1.344.732 1.836 1.908 1.836h1.08v-1.14h-.84c-.576 0-.768-.204-.768-.696v-3.66h1.608v-1.116h-1.608v-1.644h-1.38v1.644h-.78v1.116h.78v3.66zm5.617-1.644c0-1.404.624-1.824 1.632-1.824h.348V43.28c-.936 0-1.596.408-1.98 1.068v-.96h-1.368V50h1.368v-3.48zm2.781.144c0 2.04 1.38 3.444 3.096 3.444 1.104 0 1.896-.528 2.316-1.092V50h1.38v-6.612h-1.38v.96c-.408-.54-1.176-1.068-2.292-1.068-1.74 0-3.12 1.344-3.12 3.384zm5.412.024c0 1.428-.972 2.232-2.004 2.232-1.02 0-2.004-.828-2.004-2.256s.984-2.196 2.004-2.196c1.032 0 2.004.804 2.004 2.22zm2.721-.024c0 2.04 1.38 3.444 3.12 3.444 1.08 0 1.872-.504 2.292-1.104V50h1.38v-8.88h-1.38v3.192c-.504-.624-1.416-1.032-2.28-1.032-1.752 0-3.132 1.344-3.132 3.384zm5.412.024c0 1.428-.972 2.232-2.004 2.232-1.02 0-2.004-.828-2.004-2.256s.984-2.196 2.004-2.196c1.032 0 2.004.804 2.004 2.22zm5.961-2.256c1.02 0 1.824.648 1.848 1.668h-3.66c.144-1.044.888-1.668 1.812-1.668zm3.096 3.6h-1.476c-.252.516-.72.924-1.56.924-1.008 0-1.788-.66-1.884-1.752h5.052a4.22 4.22 0 00.048-.672c0-1.944-1.332-3.252-3.216-3.252-1.956 0-3.3 1.332-3.3 3.408 0 2.076 1.404 3.42 3.3 3.42 1.62 0 2.664-.924 3.036-2.076zM215 32.57h19.353v5.89h-12.636v4.104h11.422v5.586h-11.422v8.627H215V32.57z" fill="#fff"/><path fill-rule="evenodd" clip-rule="evenodd" d="M267.55 32.57h11.58c3.731 0 6.347.988 8.001 2.622 1.424 1.368 2.155 3.268 2.155 5.624v.076c0 3.686-2.001 6.156-5.04 7.448l5.848 8.436h-7.848l-4.924-7.334h-3.001v7.334h-6.809V32.57h.038zm11.271 11.628c2.309 0 3.655-1.102 3.655-2.888v-.076c0-1.9-1.385-2.888-3.693-2.888h-4.463v5.814h4.501v.038z" fill="#fff"/><path d="M292.462 32.57h19.466v5.7h-12.826v3.686h11.612v5.282h-11.612v3.838h12.978v5.7h-19.618V32.57zM322.591 44.464l-7.968-11.894h7.703l4.288 6.802 4.326-6.802h7.513l-7.931 11.818 8.311 12.389h-7.704L326.5 49.48l-4.668 7.297h-7.551l8.31-12.313zM345.397 45.3c0-2.774 2.125-5.092 5.161-5.092 1.973 0 3.301.874 4.136 2.166l-2.315 1.71c-.455-.646-.986-1.026-1.783-1.026-1.101 0-1.897.95-1.897 2.128v.038c0 1.254.796 2.204 1.935 2.204.797 0 1.328-.38 1.859-.988l2.277 1.634c-.911 1.33-2.163 2.204-4.288 2.204-2.96.038-5.085-2.242-5.085-4.978" fill="#fff"/><path fill-rule="evenodd" clip-rule="evenodd" d="M356.802 45.3c0-2.774 2.269-5.092 5.424-5.092 3.116 0 5.386 2.28 5.386 5.016v.038c0 2.736-2.27 5.054-5.425 5.054-3.116 0-5.385-2.28-5.385-5.016m7.463 0c0-1.216-.885-2.204-2.078-2.204-1.231 0-2.039.988-2.039 2.128v.038c0 1.178.885 2.166 2.078 2.166 1.269 0 2.039-.988 2.039-2.128" fill="#fff"/><path d="M369.442 40.398h3.377v1.33c.607-.798 1.518-1.52 2.884-1.52 1.29 0 2.277.57 2.77 1.558.835-.95 1.822-1.558 3.226-1.558 2.049 0 3.301 1.292 3.301 3.534v6.346h-3.377v-5.282c0-1.064-.532-1.596-1.328-1.596-.797 0-1.404.57-1.404 1.596v5.244h-3.34v-5.244c0-1.064-.531-1.596-1.328-1.596s-1.366.57-1.366 1.596v5.244h-3.377v-9.652h-.038z" fill="#fff"/><path fill-rule="evenodd" clip-rule="evenodd" d="M261.664 44.616c0-.243-.004-.484-.014-.722h2.9l.769-2.204h-3.905c-1.071-6.029-5.556-9.69-12.33-9.69-7.617 0-12.541 5.016-12.541 12.768 0 7.828 4.771 12.654 12.541 12.616 6.334 0 10.829-3.444 12.165-9.082h2.647l.808-2.204h-3.103c.041-.482.063-.975.063-1.482zm-12.426 9.272c-3.924 0-5.463-4.104-5.463-9.196s1.231-9.158 5.194-9.196c3.117 0 4.728 2.567 5.259 6.194h-3.374l-.77 2.204h4.334a26.197 26.197 0 01-.02 2.204h-4.16l-.807 2.204h4.745c-.533 3.303-1.969 5.586-4.938 5.586z" fill="#14964F"/><path d="M340.692 48.264c0-.494.19-.874.532-1.254a1.717 1.717 0 011.252-.532c.493 0 .911.19 1.252.532.342.342.531.76.531 1.254s-.189.912-.531 1.254c-.341.342-.759.494-1.252.494-.494 0-.911-.152-1.252-.494-.38-.304-.532-.722-.532-1.254" fill="#fff"/><defs><linearGradient id="paint0_linear_1_466" x1="365" y1="60" x2="772" y2="60" gradientUnits="userSpaceOnUse"><stop stop-color="#12225C"/><stop offset="1" stop-color="#0954B5"/></linearGradient></defs></svg>