<svg width="231" height="74" viewBox="0 0 231 74" fill="none" xmlns="http://www.w3.org/2000/svg"><path d="M3.888 17.018L6.192 17l2.79-9.468L11.61 17h2.322L17.64 4.49h-2.196l-2.61 10.134-2.61-10.134H7.92L5.112 14.678 2.52 4.49H.342l3.546 12.528zM19.332 17h2.052v-5.544c0-1.818.99-2.754 2.502-2.754 1.494 0 2.484.936 2.484 2.754V17h2.034v-5.85c0-2.772-1.728-4.23-3.942-4.23-1.278 0-2.394.486-3.078 1.314V3.68h-2.052V17zm11.69 0h2.052V7.082h-2.052V17zm1.044-11.232c.72 0 1.296-.576 1.296-1.314 0-.738-.576-1.314-1.296-1.314-.738 0-1.314.576-1.314 1.314 0 .738.576 1.314 1.314 1.314zm3.018 6.264c0 3.114 2.016 5.13 4.86 5.13 2.43 0 4.014-1.35 4.572-3.294h-2.214c-.378 1.026-1.134 1.566-2.358 1.566-1.656 0-2.754-1.224-2.754-3.402 0-2.16 1.098-3.384 2.754-3.384 1.224 0 2.016.612 2.358 1.566h2.214c-.558-2.088-2.142-3.294-4.572-3.294-2.844 0-4.86 2.016-4.86 5.112zM46.561 17h2.052v-5.544c0-1.818.99-2.754 2.502-2.754 1.494 0 2.484.936 2.484 2.754V17h2.034v-5.85c0-2.772-1.728-4.23-3.942-4.23-1.278 0-2.394.486-3.078 1.314V3.68H46.56V17zm23.763-2.772c-.108-3.582-5.706-2.466-5.706-4.464 0-.666.576-1.116 1.674-1.116 1.116 0 1.782.594 1.854 1.458h2.052c-.108-1.98-1.584-3.186-3.834-3.186-2.34 0-3.816 1.278-3.816 2.862 0 3.636 5.76 2.52 5.76 4.464 0 .684-.63 1.188-1.818 1.188-1.134 0-1.908-.666-1.98-1.476h-2.124c.09 1.8 1.764 3.204 4.14 3.204 2.34 0 3.798-1.26 3.798-2.934zM72.541 17h2.052V7.082h-2.052V17zm1.044-11.232c.72 0 1.296-.576 1.296-1.314 0-.738-.576-1.314-1.296-1.314-.738 0-1.314.576-1.314 1.314 0 .738.576 1.314 1.314 1.314zm3.019 6.228c0 3.06 2.07 5.166 4.68 5.166 1.62 0 2.807-.756 3.438-1.656V17h2.07V3.68h-2.07v4.788c-.756-.936-2.124-1.548-3.42-1.548-2.629 0-4.699 2.016-4.699 5.076zm8.118.036c0 2.142-1.459 3.348-3.006 3.348-1.53 0-3.006-1.242-3.006-3.384s1.476-3.294 3.006-3.294c1.547 0 3.006 1.206 3.006 3.33zm8.94-3.384c1.53 0 2.737.972 2.773 2.502h-5.49c.216-1.566 1.332-2.502 2.718-2.502zm4.645 5.4h-2.214c-.378.774-1.08 1.386-2.34 1.386-1.512 0-2.682-.99-2.826-2.628h7.578a6.33 6.33 0 00.072-1.008c0-2.916-1.998-4.878-4.824-4.878-2.934 0-4.95 1.998-4.95 5.112s2.106 5.13 4.95 5.13c2.43 0 3.996-1.386 4.554-3.114zm16.415-2.016c0-3.114-2.232-5.112-5.058-5.112-2.826 0-5.058 1.998-5.058 5.112s2.142 5.13 4.968 5.13c2.844 0 5.148-2.016 5.148-5.13zm-8.028 0c0-2.25 1.386-3.33 2.934-3.33 1.53 0 2.988 1.08 2.988 3.33s-1.512 3.348-3.042 3.348c-1.548 0-2.88-1.098-2.88-3.348zM117.002 17h2.07V8.756h1.836V7.082h-1.836V6.38c0-1.134.432-1.566 1.692-1.566v-1.71c-2.592 0-3.762.99-3.762 3.276v.702h-1.17v1.674h1.17V17zm12.939.018l2.304-.018 2.79-9.468L137.663 17h2.322l3.708-12.51h-2.196l-2.61 10.134-2.61-10.134h-2.304l-2.808 10.188-2.592-10.188h-2.178l3.546 12.528zm14.76-5.022c0 3.06 2.07 5.166 4.644 5.166 1.656 0 2.844-.792 3.474-1.638V17h2.07V7.082h-2.07v1.44c-.612-.81-1.764-1.602-3.438-1.602-2.61 0-4.68 2.016-4.68 5.076zm8.118.036c0 2.142-1.458 3.348-3.006 3.348-1.53 0-3.006-1.242-3.006-3.384s1.476-3.294 3.006-3.294c1.548 0 3.006 1.206 3.006 3.33zM157.584 17h2.052V3.68h-2.052V17zm4.746 0h2.052V3.68h-2.052V17zm17.864-3.546c0-4.572-6.624-2.808-6.624-5.634 0-1.206.918-1.782 2.106-1.746 1.296.036 2.034.81 2.106 1.656h2.268c-.18-2.142-1.872-3.402-4.266-3.402-2.556 0-4.302 1.368-4.302 3.564 0 4.608 6.642 2.646 6.642 5.67 0 1.062-.81 1.836-2.25 1.836-1.422 0-2.142-.828-2.232-1.854h-2.196c0 2.214 1.926 3.582 4.428 3.582 2.79 0 4.32-1.8 4.32-3.672zm2.746.792c0 2.016 1.098 2.754 2.862 2.754h1.62v-1.71h-1.26c-.864 0-1.152-.306-1.152-1.044v-5.49h2.412V7.082h-2.412V4.616h-2.07v2.466h-1.17v1.674h1.17v5.49zm8.425-2.466c0-2.106.936-2.736 2.448-2.736h.522V6.92c-1.404 0-2.394.612-2.97 1.602v-1.44h-2.052V17h2.052v-5.22zm9.032-3.132c1.53 0 2.736.972 2.772 2.502h-5.49c.216-1.566 1.332-2.502 2.718-2.502zm4.644 5.4h-2.214c-.378.774-1.08 1.386-2.34 1.386-1.512 0-2.682-.99-2.826-2.628h7.578a6.33 6.33 0 00.072-1.008c0-2.916-1.998-4.878-4.824-4.878-2.934 0-4.95 1.998-4.95 5.112s2.106 5.13 4.95 5.13c2.43 0 3.996-1.386 4.554-3.114zm6.465-5.4c1.53 0 2.736.972 2.772 2.502h-5.49c.216-1.566 1.332-2.502 2.718-2.502zm4.644 5.4h-2.214c-.378.774-1.08 1.386-2.34 1.386-1.512 0-2.682-.99-2.826-2.628h7.578a6.33 6.33 0 00.072-1.008c0-2.916-1.998-4.878-4.824-4.878-2.934 0-4.95 1.998-4.95 5.112s2.106 5.13 4.95 5.13c2.43 0 3.996-1.386 4.554-3.114zm2.614.198c0 2.016 1.098 2.754 2.862 2.754h1.62v-1.71h-1.26c-.864 0-1.152-.306-1.152-1.044v-5.49h2.412V7.082h-2.412V4.616h-2.07v2.466h-1.17v1.674h1.17v5.49zM3.276 39h2.16l1.998-7.326L9.432 39h2.16l3.078-9.918h-2.016l-2.052 7.938-2.016-7.938H6.444l-2.106 7.974-2.07-7.974H.18L3.276 39zm12.927 0h2.053v-9.918h-2.053V39zm1.044-11.232c.72 0 1.297-.576 1.297-1.314 0-.738-.576-1.314-1.297-1.314-.738 0-1.313.576-1.313 1.314 0 .738.575 1.314 1.313 1.314zM20.95 39h2.052V25.68H20.95V39zm4.746 0h2.052V25.68h-2.052V39zm13.328-2.358l-2.79-7.56h-2.286l3.906 9.756-2.016 4.824h2.124l6.084-14.58h-2.124l-2.898 7.56zm16.02-2.61c0-3.114-2.232-5.112-5.058-5.112-2.826 0-5.058 1.998-5.058 5.112s2.142 5.13 4.968 5.13c2.844 0 5.148-2.016 5.148-5.13zm-8.028 0c0-2.25 1.386-3.33 2.934-3.33 1.53 0 2.988 1.08 2.988 3.33s-1.512 3.348-3.042 3.348c-1.548 0-2.88-1.098-2.88-3.348zm19.039-4.95h-2.052v5.526c0 1.818-.99 2.754-2.502 2.754-1.494 0-2.484-.936-2.484-2.754v-5.526h-2.034v5.832c0 2.772 1.764 4.23 4.086 4.23 1.17 0 2.286-.486 2.934-1.332V39h2.052v-9.918zm7.707 7.164c0 2.016 1.098 2.754 2.862 2.754h1.62v-1.71h-1.26c-.864 0-1.152-.306-1.152-1.044v-5.49h2.412v-1.674h-2.412v-2.466h-2.07v2.466h-1.17v1.674h1.17v5.49zm5.69-2.25c0 3.06 2.07 5.166 4.643 5.166 1.656 0 2.844-.792 3.474-1.638V39h2.07v-9.918h-2.07v1.44c-.612-.81-1.764-1.602-3.438-1.602-2.61 0-4.68 2.016-4.68 5.076zm8.117.036c0 2.142-1.458 3.348-3.006 3.348-1.53 0-3.006-1.242-3.006-3.384s1.476-3.294 3.006-3.294c1.548 0 3.006 1.206 3.006 3.33zM92.334 39h2.052v-4.266L98.058 39h2.772l-4.572-4.95 4.572-4.968h-2.844l-3.6 4.338v-7.74h-2.052V39zm14.143-8.352c1.53 0 2.736.972 2.772 2.502h-5.49c.216-1.566 1.332-2.502 2.718-2.502zm4.644 5.4h-2.214c-.378.774-1.08 1.386-2.34 1.386-1.512 0-2.682-.99-2.826-2.628h7.578a6.33 6.33 0 00.072-1.008c0-2.916-1.998-4.878-4.824-4.878-2.934 0-4.95 1.998-4.95 5.112s2.106 5.13 4.95 5.13c2.43 0 3.996-1.386 4.554-3.114zm1.66-6.03h1.926c0-1.26.81-1.98 2.088-1.98 1.296 0 2.07.774 2.07 2.034 0 1.89-1.566 2.25-3.6 2.25h-.594l.09 2.826h1.782l.072-1.422c2.412 0 4.212-1.116 4.212-3.654 0-2.34-1.638-3.762-4.05-3.762-2.448 0-4.014 1.53-3.996 3.708zm4.14 7.794c0-.738-.576-1.314-1.296-1.314-.738 0-1.314.576-1.314 1.314 0 .738.576 1.314 1.314 1.314.72 0 1.296-.576 1.296-1.314zM6.3 52.05c-.2-.46-.507-.82-.92-1.08-.407-.267-.887-.4-1.44-.4-.52 0-.987.12-1.4.36-.413.24-.74.583-.98 1.03-.24.44-.36.953-.36 1.54 0 .587.12 1.103.36 1.55.24.447.567.79.98 1.03.413.24.88.36 1.4.36.487 0 .923-.103 1.31-.31.393-.213.707-.513.94-.9.24-.393.377-.85.41-1.37H3.66v-.57h3.68v.51c-.033.613-.2 1.17-.5 1.67a3.336 3.336 0 01-2.9 1.6c-.647 0-1.233-.15-1.76-.45a3.363 3.363 0 01-1.25-1.27c-.3-.547-.45-1.163-.45-1.85s.15-1.3.45-1.84a3.27 3.27 0 011.25-1.27 3.433 3.433 0 011.76-.46c.747 0 1.4.187 1.96.56.56.373.967.893 1.22 1.56H6.3zm4.712 5.03c-.513 0-.976-.113-1.39-.34a2.584 2.584 0 01-.97-.98c-.233-.427-.35-.923-.35-1.49s.12-1.06.36-1.48c.24-.427.567-.753.98-.98.414-.233.877-.35 1.39-.35.514 0 .977.117 1.39.35.42.227.747.553.98.98.24.42.36.913.36 1.48 0 .56-.12 1.053-.36 1.48-.24.427-.57.757-.99.99a2.9 2.9 0 01-1.4.34zm0-.61c.36 0 .694-.08 1-.24a1.88 1.88 0 00.74-.74c.194-.333.29-.74.29-1.22s-.093-.883-.28-1.21a1.798 1.798 0 00-.74-.74 2.06 2.06 0 00-1-.25c-.36 0-.693.083-1 .25-.306.16-.553.407-.74.74-.18.327-.27.73-.27 1.21s.09.887.27 1.22a1.9 1.9 0 00.73.74c.307.16.64.24 1 .24zm7.47-6.87V57h-.7v-7.4h.7zm3.976 7.48c-.514 0-.977-.113-1.39-.34a2.584 2.584 0 01-.97-.98c-.234-.427-.35-.923-.35-1.49s.12-1.06.36-1.48c.24-.427.566-.753.98-.98.413-.233.876-.35 1.39-.35.513 0 .976.117 1.39.35.42.227.746.553.98.98.24.42.36.913.36 1.48 0 .56-.12 1.053-.36 1.48-.24.427-.57.757-.99.99a2.9 2.9 0 01-1.4.34zm0-.61c.36 0 .693-.08 1-.24a1.88 1.88 0 00.74-.74c.193-.333.29-.74.29-1.22s-.094-.883-.28-1.21a1.798 1.798 0 00-.74-.74 2.06 2.06 0 00-1-.25c-.36 0-.694.083-1 .25-.307.16-.554.407-.74.74-.18.327-.27.73-.27 1.21s.09.887.27 1.22a1.9 1.9 0 00.73.74c.306.16.64.24 1 .24zm6.586-5.03c.653 0 1.186.203 1.6.61.413.4.62.983.62 1.75V57h-.69v-3.12c0-.593-.15-1.047-.45-1.36-.294-.313-.697-.47-1.21-.47-.527 0-.947.167-1.26.5-.314.333-.47.823-.47 1.47V57h-.7v-5.46h.7v.93c.173-.333.423-.587.75-.76.326-.18.696-.27 1.11-.27zm6.058.02c.513 0 .96.12 1.34.36.38.24.653.543.82.91v-1.19h.7v5.6c0 .5-.11.943-.33 1.33a2.184 2.184 0 01-.9.89c-.387.213-.827.32-1.32.32-.7 0-1.284-.167-1.75-.5a2.128 2.128 0 01-.86-1.36h.69c.12.38.346.683.68.91.34.227.753.34 1.24.34.353 0 .67-.077.95-.23.28-.147.5-.367.66-.66.16-.293.24-.64.24-1.04v-1.35c-.174.373-.45.683-.83.93-.374.24-.817.36-1.33.36-.5 0-.95-.117-1.35-.35a2.47 2.47 0 01-.93-.99c-.22-.427-.33-.92-.33-1.48 0-.56.11-1.05.33-1.47.226-.427.536-.753.93-.98.4-.233.85-.35 1.35-.35zm2.16 2.81c0-.44-.09-.827-.27-1.16a1.916 1.916 0 00-.74-.77 1.977 1.977 0 00-1.02-.27c-.387 0-.734.087-1.04.26-.307.173-.55.427-.73.76-.174.327-.26.717-.26 1.17 0 .447.086.84.26 1.18.18.333.423.59.73.77.306.173.653.26 1.04.26.373 0 .713-.09 1.02-.27.313-.18.56-.437.74-.77.18-.333.27-.72.27-1.16zm7.432 2.81c-.513 0-.977-.113-1.39-.34a2.584 2.584 0 01-.97-.98c-.233-.427-.35-.923-.35-1.49s.12-1.06.36-1.48c.24-.427.567-.753.98-.98.413-.233.877-.35 1.39-.35.513 0 .977.117 1.39.35.42.227.747.553.98.98.24.42.36.913.36 1.48 0 .56-.12 1.053-.36 1.48-.24.427-.57.757-.99.99a2.9 2.9 0 01-1.4.34zm0-.61c.36 0 .693-.08 1-.24a1.88 1.88 0 00.74-.74c.193-.333.29-.74.29-1.22s-.093-.883-.28-1.21a1.798 1.798 0 00-.74-.74 2.06 2.06 0 00-1-.25c-.36 0-.693.083-1 .25-.307.16-.553.407-.74.74-.18.327-.27.73-.27 1.21s.09.887.27 1.22c.187.327.43.573.73.74.307.16.64.24 1 .24zm4.726-3.96a1.72 1.72 0 01.7-.79c.32-.187.71-.28 1.17-.28v.73h-.19c-.507 0-.913.137-1.22.41-.307.273-.46.73-.46 1.37V57h-.7v-5.46h.7v.97zm7.547 4.57c-.627 0-1.14-.143-1.54-.43a1.606 1.606 0 01-.66-1.19h.72c.033.307.177.557.43.75.26.187.607.28 1.04.28.38 0 .677-.09.89-.27.22-.18.33-.403.33-.67 0-.187-.06-.34-.18-.46a1.218 1.218 0 00-.46-.28 5.947 5.947 0 00-.74-.23 7.572 7.572 0 01-.99-.32 1.753 1.753 0 01-.65-.47c-.173-.213-.26-.497-.26-.85 0-.267.08-.513.24-.74.16-.227.387-.407.68-.54.293-.133.627-.2 1-.2.587 0 1.06.15 1.42.45.36.293.553.7.58 1.22h-.7a1.04 1.04 0 00-.38-.77c-.227-.2-.54-.3-.94-.3-.353 0-.64.083-.86.25-.22.167-.33.373-.33.62 0 .213.063.39.19.53.133.133.297.24.49.32.193.073.453.157.78.25.393.107.707.21.94.31.233.1.433.247.6.44.167.193.253.45.26.77 0 .293-.08.557-.24.79-.16.227-.383.407-.67.54-.287.133-.617.2-.99.2zm5.818-5.64c.413 0 .783.087 1.11.26.333.173.593.44.78.8.193.353.29.787.29 1.3V57h-.69v-3.12c0-.593-.15-1.047-.45-1.36-.294-.313-.697-.47-1.21-.47-.527 0-.947.167-1.26.5-.314.333-.47.823-.47 1.47V57h-.7v-7.4h.7v2.87c.173-.327.426-.58.76-.76.34-.18.72-.27 1.14-.27zm6.118 5.64c-.513 0-.977-.113-1.39-.34a2.584 2.584 0 01-.97-.98c-.233-.427-.35-.923-.35-1.49s.12-1.06.36-1.48c.24-.427.567-.753.98-.98.413-.233.877-.35 1.39-.35.513 0 .977.117 1.39.35.42.227.747.553.98.98.24.42.36.913.36 1.48 0 .56-.12 1.053-.36 1.48-.24.427-.57.757-.99.99a2.9 2.9 0 01-1.4.34zm0-.61c.36 0 .693-.08 1-.24a1.88 1.88 0 00.74-.74c.193-.333.29-.74.29-1.22s-.093-.883-.28-1.21a1.798 1.798 0 00-.74-.74 2.06 2.06 0 00-1-.25c-.36 0-.693.083-1 .25-.307.16-.553.407-.74.74-.18.327-.27.73-.27 1.21s.09.887.27 1.22c.187.327.43.573.73.74.307.16.64.24 1 .24zm4.726-3.96c.153-.34.387-.603.7-.79.32-.187.71-.28 1.17-.28v.73h-.19c-.507 0-.913.137-1.22.41-.307.273-.46.73-.46 1.37V57h-.7v-5.46h.7v.97zm3.833-.38v3.39c0 .333.063.563.19.69s.35.19.67.19h.64v.6h-.75c-.493 0-.86-.113-1.1-.34-.24-.233-.36-.613-.36-1.14v-3.39h-.76v-.59h.76v-1.37h.71v1.37h1.5v.59h-1.5zm7.788 4.95c-.513 0-.976-.113-1.39-.34a2.584 2.584 0 01-.97-.98c-.233-.427-.35-.923-.35-1.49s.12-1.06.36-1.48c.24-.427.567-.753.98-.98.414-.233.877-.35 1.39-.35.514 0 .977.117 1.39.35.42.227.747.553.98.98.24.42.36.913.36 1.48 0 .56-.12 1.053-.36 1.48-.24.427-.57.757-.99.99a2.9 2.9 0 01-1.4.34zm0-.61c.36 0 .694-.08 1-.24a1.88 1.88 0 00.74-.74c.194-.333.29-.74.29-1.22s-.093-.883-.28-1.21a1.797 1.797 0 00-.74-.74 2.06 2.06 0 00-1-.25c-.36 0-.693.083-1 .25-.306.16-.553.407-.74.74-.18.327-.27.73-.27 1.21s.09.887.27 1.22c.187.327.43.573.73.74.307.16.64.24 1 .24zm6.587-5.03c.653 0 1.186.203 1.6.61.413.4.62.983.62 1.75V57h-.69v-3.12c0-.593-.15-1.047-.45-1.36-.294-.313-.697-.47-1.21-.47-.527 0-.947.167-1.26.5-.314.333-.47.823-.47 1.47V57h-.7v-5.46h.7v.93c.173-.333.423-.587.75-.76.326-.18.696-.27 1.11-.27zm7.422.69v3.39c0 .333.063.563.19.69s.35.19.67.19h.64v.6h-.75c-.493 0-.86-.113-1.1-.34-.24-.233-.36-.613-.36-1.14v-3.39h-.76v-.59h.76v-1.37h.71v1.37h1.5v.59h-1.5zm5.254-.69c.414 0 .784.087 1.11.26.334.173.594.44.78.8.194.353.29.787.29 1.3V57h-.69v-3.12c0-.593-.15-1.047-.45-1.36-.293-.313-.696-.47-1.21-.47-.526 0-.946.167-1.26.5-.313.333-.47.823-.47 1.47V57h-.7v-7.4h.7v2.87c.174-.327.427-.58.76-.76.34-.18.72-.27 1.14-.27zm8.668 2.55c0 .24-.006.423-.02.55h-4.53c.02.413.12.767.3 1.06.18.293.417.517.71.67.294.147.614.22.96.22.454 0 .834-.11 1.14-.33.314-.22.52-.517.62-.89h.74c-.133.533-.42.97-.86 1.31-.433.333-.98.5-1.64.5-.513 0-.973-.113-1.38-.34a2.522 2.522 0 01-.96-.98c-.226-.427-.34-.923-.34-1.49s.114-1.063.34-1.49a2.37 2.37 0 01.95-.98c.407-.227.87-.34 1.39-.34.52 0 .974.113 1.36.34.394.227.694.533.9.92.214.38.32.803.32 1.27zm-.71-.02c.007-.407-.076-.753-.25-1.04a1.615 1.615 0 00-.69-.65 2.114 2.114 0 00-.96-.22c-.52 0-.963.167-1.33.5-.366.333-.57.803-.61 1.41h3.84zm5.405-3.96v4.4c0 .693.164 1.207.49 1.54.334.333.787.5 1.36.5.574 0 1.02-.163 1.34-.49.327-.333.49-.85.49-1.55v-4.4h.7v4.39c0 .887-.236 1.553-.71 2-.466.447-1.076.67-1.83.67-.753 0-1.366-.223-1.84-.67-.466-.447-.7-1.113-.7-2v-4.39h.7zm8.062 7.06c-.46 0-.867-.08-1.22-.24a1.99 1.99 0 01-.82-.67 1.757 1.757 0 01-.32-.96h.74c.033.34.183.64.45.9.266.253.656.38 1.17.38.473 0 .846-.12 1.12-.36.28-.247.42-.557.42-.93 0-.3-.077-.54-.23-.72a1.357 1.357 0 00-.57-.41 8.02 8.02 0 00-.94-.3 8.19 8.19 0 01-1.11-.37 1.76 1.76 0 01-.7-.56c-.194-.253-.29-.597-.29-1.03 0-.36.093-.68.28-.96.186-.287.45-.51.79-.67.34-.16.73-.24 1.17-.24.646 0 1.166.16 1.56.48.4.313.63.72.69 1.22h-.76c-.047-.287-.204-.54-.47-.76-.267-.227-.627-.34-1.08-.34-.42 0-.77.113-1.05.34-.28.22-.42.523-.42.91 0 .293.076.53.23.71.153.18.343.317.57.41.233.093.546.193.94.3.453.127.82.253 1.1.38.28.12.516.307.71.56.193.253.29.593.29 1.02 0 .327-.087.637-.26.93-.174.293-.43.53-.77.71-.34.18-.747.27-1.22.27zm7.036-4.32c.18-.38.457-.69.83-.93.38-.24.827-.36 1.34-.36.5 0 .947.117 1.34.35.394.227.7.553.92.98.227.42.34.91.34 1.47 0 .56-.113 1.053-.34 1.48-.22.427-.53.757-.93.99-.393.233-.836.35-1.33.35-.52 0-.97-.117-1.35-.35a2.164 2.164 0 01-.82-.93V57h-.69v-7.4h.69v3.15zm4.06 1.51c0-.453-.09-.843-.27-1.17a1.8 1.8 0 00-.72-.76 2.074 2.074 0 00-1.04-.26c-.373 0-.716.09-1.03.27-.306.18-.55.437-.73.77-.18.333-.27.72-.27 1.16 0 .44.09.827.27 1.16.18.333.424.59.73.77.314.18.657.27 1.03.27.387 0 .734-.087 1.04-.26.307-.18.547-.437.72-.77.18-.34.27-.733.27-1.18zm6.938-.27c0 .24-.006.423-.02.55h-4.53c.02.413.12.767.3 1.06.18.293.417.517.71.67.294.147.614.22.96.22.454 0 .834-.11 1.14-.33.314-.22.52-.517.62-.89h.74c-.133.533-.42.97-.86 1.31-.433.333-.98.5-1.64.5-.513 0-.973-.113-1.38-.34a2.522 2.522 0 01-.96-.98c-.226-.427-.34-.923-.34-1.49s.114-1.063.34-1.49a2.37 2.37 0 01.95-.98c.407-.227.87-.34 1.39-.34.52 0 .974.113 1.36.34.394.227.694.533.9.92.214.38.32.803.32 1.27zm-.71-.02c.007-.407-.076-.753-.25-1.04a1.615 1.615 0 00-.69-.65 2.114 2.114 0 00-.96-.22c-.52 0-.963.167-1.33.5-.366.333-.57.803-.61 1.41h3.84zm4.551-2.53c.653 0 1.187.203 1.6.61.413.4.62.983.62 1.75V57h-.69v-3.12c0-.593-.15-1.047-.45-1.36-.293-.313-.697-.47-1.21-.47-.527 0-.947.167-1.26.5-.313.333-.47.823-.47 1.47V57h-.7v-5.46h.7v.93c.173-.333.423-.587.75-.76.327-.18.697-.27 1.11-.27zm3.448 2.83c0-.567.114-1.06.34-1.48.227-.427.54-.753.94-.98.4-.233.857-.35 1.37-.35.674 0 1.227.167 1.66.5.44.333.724.787.85 1.36h-.75a1.503 1.503 0 00-.61-.92c-.306-.227-.69-.34-1.15-.34-.366 0-.696.083-.99.25a1.784 1.784 0 00-.7.75c-.166.327-.25.73-.25 1.21s.084.887.25 1.22c.174.333.407.583.7.75.294.167.624.25.99.25.46 0 .844-.11 1.15-.33.314-.227.517-.54.61-.94h.75c-.126.56-.41 1.01-.85 1.35-.44.34-.993.51-1.66.51a2.73 2.73 0 01-1.37-.34c-.4-.233-.713-.56-.94-.98-.226-.427-.34-.923-.34-1.49zm9.053-2.83c.413 0 .783.087 1.11.26.333.173.593.44.78.8.193.353.29.787.29 1.3V57h-.69v-3.12c0-.593-.15-1.047-.45-1.36-.293-.313-.697-.47-1.21-.47-.527 0-.947.167-1.26.5-.313.333-.47.823-.47 1.47V57h-.7v-7.4h.7v2.87c.173-.327.427-.58.76-.76.34-.18.72-.27 1.14-.27zm10.228 0c.64 0 1.16.203 1.56.61.407.4.61.983.61 1.75V57h-.69v-3.12c0-.593-.143-1.047-.43-1.36-.286-.313-.676-.47-1.17-.47-.513 0-.923.17-1.23.51-.306.34-.46.833-.46 1.48V57h-.69v-3.12c0-.593-.143-1.047-.43-1.36-.286-.313-.68-.47-1.18-.47-.513 0-.923.17-1.23.51-.306.34-.46.833-.46 1.48V57h-.7v-5.46h.7v.94c.174-.34.42-.597.74-.77.32-.18.677-.27 1.07-.27.474 0 .887.113 1.24.34.36.227.62.56.78 1 .147-.433.397-.763.75-.99.36-.233.767-.35 1.22-.35zm3.405 2.82c0-.56.11-1.05.33-1.47.226-.427.536-.753.93-.98.4-.233.85-.35 1.35-.35.52 0 .966.12 1.34.36.38.24.653.547.82.92v-1.2h.7V57h-.7v-1.21a2.22 2.22 0 01-.83.93c-.374.24-.82.36-1.34.36-.494 0-.94-.117-1.34-.35a2.46 2.46 0 01-.93-.99c-.22-.427-.33-.92-.33-1.48zm4.77.01c0-.44-.09-.827-.27-1.16a1.918 1.918 0 00-.74-.77 1.98 1.98 0 00-1.02-.27c-.387 0-.734.087-1.04.26-.307.173-.55.427-.73.76-.174.327-.26.717-.26 1.17 0 .447.086.84.26 1.18.18.333.423.59.73.77.306.173.653.26 1.04.26.373 0 .713-.09 1.02-.27.313-.18.56-.437.74-.77.18-.333.27-.72.27-1.16zm2.998-1.76c.153-.34.387-.603.7-.79.32-.187.71-.28 1.17-.28v.73h-.19c-.507 0-.913.137-1.22.41-.307.273-.46.73-.46 1.37V57h-.7v-5.46h.7v.97zm5.873 4.49l-2.25-2.45V57h-.7v-7.4h.7v4.38l2.2-2.44h.98l-2.59 2.72 2.61 2.74h-.95zm6.989.08a2.84 2.84 0 01-1.39-.34 2.581 2.581 0 01-.97-.98c-.234-.427-.35-.923-.35-1.49s.12-1.06.36-1.48a2.47 2.47 0 01.98-.98c.413-.233.876-.35 1.39-.35.513 0 .976.117 1.39.35.42.227.746.553.98.98.24.42.36.913.36 1.48 0 .56-.12 1.053-.36 1.48-.24.427-.57.757-.99.99a2.9 2.9 0 01-1.4.34zm0-.61c.36 0 .693-.08 1-.24.306-.167.553-.413.74-.74.193-.333.29-.74.29-1.22s-.094-.883-.28-1.21a1.804 1.804 0 00-.74-.74 2.061 2.061 0 00-1-.25c-.36 0-.694.083-1 .25-.307.16-.554.407-.74.74-.18.327-.27.73-.27 1.21s.09.887.27 1.22c.186.327.43.573.73.74.306.16.64.24 1 .24zm6.586-5.03c.653 0 1.186.203 1.6.61.413.4.62.983.62 1.75V57h-.69v-3.12c0-.593-.15-1.047-.45-1.36-.294-.313-.697-.47-1.21-.47-.527 0-.947.167-1.26.5-.314.333-.47.823-.47 1.47V57h-.7v-5.46h.7v.93c.173-.333.423-.587.75-.76.326-.18.696-.27 1.11-.27zm6.192 2.82c0-.56.11-1.05.33-1.47.227-.427.537-.753.93-.98.4-.233.85-.35 1.35-.35.52 0 .967.12 1.34.36.38.24.653.547.82.92v-1.2h.7V57h-.7v-1.21c-.173.373-.45.683-.83.93-.373.24-.82.36-1.34.36-.493 0-.94-.117-1.34-.35a2.474 2.474 0 01-.93-.99c-.22-.427-.33-.92-.33-1.48zm4.77.01c0-.44-.09-.827-.27-1.16a1.918 1.918 0 00-.74-.77 1.98 1.98 0 00-1.02-.27c-.387 0-.733.087-1.04.26-.307.173-.55.427-.73.76-.173.327-.26.717-.26 1.17 0 .447.087.84.26 1.18.18.333.423.59.73.77.307.173.653.26 1.04.26.373 0 .713-.09 1.02-.27.313-.18.56-.437.74-.77.18-.333.27-.72.27-1.16zm4.858-2.83c.653 0 1.187.203 1.6.61.413.4.62.983.62 1.75V57h-.69v-3.12c0-.593-.15-1.047-.45-1.36-.293-.313-.697-.47-1.21-.47-.527 0-.947.167-1.26.5-.313.333-.47.823-.47 1.47V57h-.7v-5.46h.7v.93c.173-.333.423-.587.75-.76.327-.18.697-.27 1.11-.27zM.48 68.26c0-.56.11-1.05.33-1.47.227-.427.537-.753.93-.98.4-.233.85-.35 1.35-.35.52 0 .967.12 1.34.36.38.24.653.547.82.92v-1.2h.7V71h-.7v-1.21c-.173.373-.45.683-.83.93-.373.24-.82.36-1.34.36a2.61 2.61 0 01-1.34-.35 2.47 2.47 0 01-.93-.99c-.22-.427-.33-.92-.33-1.48zm4.77.01c0-.44-.09-.827-.27-1.16a1.916 1.916 0 00-.74-.77 1.978 1.978 0 00-1.02-.27c-.387 0-.733.087-1.04.26-.307.173-.55.427-.73.76-.173.327-.26.717-.26 1.17 0 .447.087.84.26 1.18.18.333.423.59.73.77.307.173.653.26 1.04.26.373 0 .713-.09 1.02-.27.313-.18.56-.437.74-.77.18-.333.27-.72.27-1.16zm9.498-2.73L13.038 71h-.7l-1.51-4.58L9.318 71h-.71l-1.71-5.46h.71l1.36 4.75 1.53-4.75h.7l1.51 4.76 1.35-4.76h.69zm.634 2.72c0-.56.11-1.05.33-1.47.227-.427.537-.753.93-.98.4-.233.85-.35 1.35-.35.52 0 .967.12 1.34.36.38.24.654.547.82.92v-1.2h.7V71h-.7v-1.21c-.173.373-.45.683-.83.93-.373.24-.82.36-1.34.36a2.61 2.61 0 01-1.34-.35 2.47 2.47 0 01-.93-.99c-.22-.427-.33-.92-.33-1.48zm4.77.01c0-.44-.09-.827-.27-1.16a1.916 1.916 0 00-.74-.77 1.977 1.977 0 00-1.02-.27c-.386 0-.733.087-1.04.26-.306.173-.55.427-.73.76-.173.327-.26.717-.26 1.17 0 .447.087.84.26 1.18.18.333.424.59.73.77.307.173.654.26 1.04.26.374 0 .714-.09 1.02-.27.314-.18.56-.437.74-.77.18-.333.27-.72.27-1.16zm2.998-1.76c.154-.34.387-.603.7-.79.32-.187.71-.28 1.17-.28v.73h-.19c-.506 0-.913.137-1.22.41-.306.273-.46.73-.46 1.37V71h-.7v-5.46h.7v.97zm2.603 1.75c0-.56.114-1.05.34-1.47.227-.427.537-.753.93-.98.4-.233.85-.35 1.35-.35.48 0 .914.117 1.3.35.387.233.67.537.85.91V63.6h.7V71h-.7v-1.22c-.166.38-.44.693-.82.94-.38.24-.826.36-1.34.36-.5 0-.95-.117-1.35-.35a2.47 2.47 0 01-.93-.99c-.22-.427-.33-.92-.33-1.48zm4.77.01c0-.44-.09-.827-.27-1.16a1.916 1.916 0 00-.74-.77 1.977 1.977 0 00-1.02-.27c-.386 0-.733.087-1.04.26-.306.173-.55.427-.73.76-.173.327-.26.717-.26 1.17 0 .447.087.84.26 1.18.18.333.424.59.73.77.307.173.654.26 1.04.26.374 0 .714-.09 1.02-.27.314-.18.56-.437.74-.77.18-.333.27-.72.27-1.16zM36.212 67v.59h-3.89V67h3.89zm8.995-1.46L43.497 71h-.7l-1.51-4.58-1.51 4.58h-.71l-1.71-5.46h.71l1.36 4.75 1.53-4.75h.7l1.51 4.76 1.35-4.76h.69zm1.304-1.03c-.14 0-.26-.05-.36-.15a.503.503 0 01-.15-.37.47.47 0 01.15-.36c.1-.1.22-.15.36-.15.14 0 .26.05.36.15.1.093.15.213.15.36s-.05.27-.15.37c-.1.1-.22.15-.36.15zm.35 1.03V71h-.7v-5.46h.7zm4.146-.1c.653 0 1.186.203 1.6.61.413.4.62.983.62 1.75V71h-.69v-3.12c0-.593-.15-1.047-.45-1.36-.294-.313-.697-.47-1.21-.47-.527 0-.947.167-1.26.5-.314.333-.47.823-.47 1.47V71h-.7v-5.46h.7v.93c.173-.333.423-.587.75-.76.326-.18.696-.27 1.11-.27zm6.328 0c.653 0 1.186.203 1.6.61.413.4.62.983.62 1.75V71h-.69v-3.12c0-.593-.15-1.047-.45-1.36-.294-.313-.697-.47-1.21-.47-.527 0-.947.167-1.26.5-.314.333-.47.823-.47 1.47V71h-.7v-5.46h.7v.93c.173-.333.423-.587.75-.76.326-.18.696-.27 1.11-.27zm4.118-.93c-.14 0-.26-.05-.36-.15a.503.503 0 01-.15-.37.47.47 0 01.15-.36c.1-.1.22-.15.36-.15.14 0 .26.05.36.15.1.093.15.213.15.36s-.05.27-.15.37c-.1.1-.22.15-.36.15zm.35 1.03V71h-.7v-5.46h.7zm4.145-.1c.653 0 1.187.203 1.6.61.413.4.62.983.62 1.75V71h-.69v-3.12c0-.593-.15-1.047-.45-1.36-.293-.313-.697-.47-1.21-.47-.527 0-.947.167-1.26.5-.313.333-.47.823-.47 1.47V71h-.7v-5.46h.7v.93c.173-.333.423-.587.75-.76.327-.18.697-.27 1.11-.27zm6.058.02c.513 0 .96.12 1.34.36.38.24.653.543.82.91v-1.19h.7v5.6c0 .5-.11.943-.33 1.33a2.184 2.184 0 01-.9.89c-.387.213-.827.32-1.32.32-.7 0-1.283-.167-1.75-.5a2.127 2.127 0 01-.86-1.36h.69c.12.38.347.683.68.91.34.227.753.34 1.24.34.353 0 .67-.077.95-.23.28-.147.5-.367.66-.66.16-.293.24-.64.24-1.04v-1.35c-.173.373-.45.683-.83.93-.373.24-.817.36-1.33.36-.5 0-.95-.117-1.35-.35a2.47 2.47 0 01-.93-.99c-.22-.427-.33-.92-.33-1.48 0-.56.11-1.05.33-1.47.227-.427.537-.753.93-.98.4-.233.85-.35 1.35-.35zm2.16 2.81c0-.44-.09-.827-.27-1.16a1.917 1.917 0 00-.74-.77 1.978 1.978 0 00-1.02-.27c-.387 0-.733.087-1.04.26-.307.173-.55.427-.73.76-.173.327-.26.717-.26 1.17 0 .447.087.84.26 1.18.18.333.423.59.73.77.307.173.653.26 1.04.26.373 0 .713-.09 1.02-.27.313-.18.56-.437.74-.77.18-.333.27-.72.27-1.16zm5.732-1.53c.174-.367.447-.67.82-.91.38-.247.83-.37 1.35-.37.493 0 .937.117 1.33.35.4.227.71.553.93.98.227.42.34.91.34 1.47 0 .56-.113 1.053-.34 1.48-.22.427-.53.757-.93.99-.393.233-.837.35-1.33.35-.513 0-.96-.12-1.34-.36a2.23 2.23 0 01-.83-.92v3.78h-.69v-8.04h.69v1.2zm4.06 1.52c0-.453-.09-.843-.27-1.17a1.804 1.804 0 00-.72-.76 2.077 2.077 0 00-1.04-.26c-.373 0-.716.09-1.03.27-.306.18-.55.437-.73.77-.18.333-.27.72-.27 1.16 0 .44.09.827.27 1.16.18.333.423.59.73.77.314.18.657.27 1.03.27.387 0 .734-.087 1.04-.26a1.87 1.87 0 00.72-.77c.18-.34.27-.733.27-1.18zm2.698-4.66V71h-.7v-7.4h.7zm1.265 4.66c0-.56.11-1.05.33-1.47.227-.427.537-.753.93-.98.4-.233.85-.35 1.35-.35.52 0 .967.12 1.34.36.38.24.654.547.82.92v-1.2h.7V71h-.7v-1.21c-.173.373-.45.683-.83.93-.373.24-.82.36-1.34.36a2.61 2.61 0 01-1.34-.35 2.47 2.47 0 01-.93-.99c-.22-.427-.33-.92-.33-1.48zm4.77.01c0-.44-.09-.827-.27-1.16a1.917 1.917 0 00-.74-.77 1.978 1.978 0 00-1.02-.27c-.386 0-.733.087-1.04.26-.306.173-.55.427-.73.76-.173.327-.26.717-.26 1.17 0 .447.087.84.26 1.18.18.333.424.59.73.77.307.173.654.26 1.04.26.374 0 .714-.09 1.02-.27.314-.18.56-.437.74-.77.18-.333.27-.72.27-1.16zm3.209-2.14v3.39c0 .333.063.563.19.69.126.127.35.19.67.19h.64v.6h-.75c-.494 0-.86-.113-1.1-.34-.24-.233-.36-.613-.36-1.14v-3.39h-.76v-.59h.76v-1.37h.71v1.37h1.5v.59h-1.5zm4.804 0h-1.27V71h-.7v-4.87h-.76v-.59h.76v-.38c0-.593.15-1.03.45-1.31.307-.28.8-.42 1.48-.42v.6c-.453 0-.773.087-.96.26-.18.173-.27.463-.27.87v.38h1.27v.59zm3.492 4.95c-.513 0-.977-.113-1.39-.34a2.581 2.581 0 01-.97-.98c-.233-.427-.35-.923-.35-1.49s.12-1.06.36-1.48c.24-.427.567-.753.98-.98.413-.233.877-.35 1.39-.35.513 0 .977.117 1.39.35.42.227.747.553.98.98.24.42.36.913.36 1.48 0 .56-.12 1.053-.36 1.48-.24.427-.57.757-.99.99a2.9 2.9 0 01-1.4.34zm0-.61c.36 0 .693-.08 1-.24a1.88 1.88 0 00.74-.74c.193-.333.29-.74.29-1.22s-.093-.883-.28-1.21a1.798 1.798 0 00-.74-.74 2.061 2.061 0 00-1-.25c-.36 0-.693.083-1 .25-.307.16-.553.407-.74.74-.18.327-.27.73-.27 1.21s.09.887.27 1.22c.187.327.43.573.73.74.307.16.64.24 1 .24zm4.726-3.96c.153-.34.387-.603.7-.79.32-.187.71-.28 1.17-.28v.73h-.19c-.507 0-.913.137-1.22.41-.307.273-.46.73-.46 1.37V71h-.7v-5.46h.7v.97zm9.423-1.07c.64 0 1.16.203 1.56.61.407.4.61.983.61 1.75V71h-.69v-3.12c0-.593-.143-1.047-.43-1.36-.287-.313-.677-.47-1.17-.47-.513 0-.923.17-1.23.51-.307.34-.46.833-.46 1.48V71h-.69v-3.12c0-.593-.143-1.047-.43-1.36-.287-.313-.68-.47-1.18-.47-.513 0-.923.17-1.23.51-.307.34-.46.833-.46 1.48V71h-.7v-5.46h.7v.94c.173-.34.42-.597.74-.77.32-.18.677-.27 1.07-.27.473 0 .887.113 1.24.34.36.227.62.56.78 1 .147-.433.397-.763.75-.99.36-.233.767-.35 1.22-.35z" fill="#fff"/></svg>