<svg width="137" height="20" viewBox="0 0 137 20" fill="none" xmlns="http://www.w3.org/2000/svg"><path d="M11.367.291C5.994.264.918 3.801.918 10.038c0 5.346 4.536 9.693 10.125 9.693 3.186 0 6.13-1.053 8.397-2.862V8.607h-8.073v3.618h3.24v1.81a7.012 7.012 0 01-3.564.944c-2.835 0-4.806-2.214-4.806-4.94 0-3.16 2.403-5.05 5.13-5.05 1.458 0 2.943.513 4.131 1.54l3.321-3.484C16.713 1.236 14.04.318 11.367.291zm11.764.297v18.873H33.77c4.914 0 6.48-2.565 6.48-5.157 0-1.97-.89-3.942-3.537-4.752 1.782-.729 2.781-2.133 2.781-4.185 0-3.159-2.295-4.806-6.183-4.806L23.131.588zm5.076 7.614V4.72h3.618c1.512 0 2.35.594 2.35 1.755 0 1.134-.865 1.728-2.35 1.728h-3.618zm0 7.128v-3.753H32.5c1.863 0 2.457.945 2.457 1.89s-.594 1.863-2.457 1.863h-4.293zM43.17.588v18.873h5.076v-5.373h3.24c5.616 0 8.29-2.079 8.29-6.696 0-4.617-2.539-6.804-8.344-6.804H43.17zm5.076 4.374h2.997c2.268 0 3.24.837 3.24 2.62 0 1.808-.999 2.591-3.24 2.591h-2.997v-5.21zM65.835 19.92L75.285.102 71.073.13l-9.45 19.791h4.212zM95.152.561h-5.103v10.233c0 3.024-1.378 4.293-3.592 4.293-2.186 0-3.563-1.269-3.59-4.293V.588H77.79v10.206c0 6.183 3.348 8.937 8.667 8.937 5.32 0 8.695-2.754 8.695-8.937V.561zm11.401-.27c-4.401.027-7.857 1.944-7.857 6.183 0 3.7 3.078 4.698 7.371 5.724 3.105.783 3.645.891 3.645 1.971 0 .864-.918 1.242-1.971 1.242-2.403 0-5.13-.702-7.587-2.079l-2.268 3.78c2.592 1.728 5.778 2.646 9.288 2.646 4.86 0 7.911-2.214 7.911-6.237 0-3.86-3.159-4.94-7.587-6.129-2.943-.729-3.294-.972-3.294-1.566 0-.864.837-1.242 1.809-1.242 1.863 0 4.401.648 6.561 1.755l2.133-3.915c-2.214-1.35-5.13-2.133-8.154-2.133zM118 .588v18.873h8.1c5.589 0 10.125-4.077 10.125-9.423 0-5.373-4.536-9.477-10.125-9.477l-8.1.027zm5.076 4.536h2.835c2.808 0 5.103 2.106 5.103 4.887 0 2.808-2.295 4.914-5.103 4.914h-2.835v-9.8z" fill="#09B45B"/></svg>