<svg width="248" height="22" viewBox="0 0 248 22" fill="none" xmlns="http://www.w3.org/2000/svg"><path d="M.46 2.746h4.968V16.5h2.645V2.746h4.968V.4H.46v2.346zm19.114 1.978c-1.932 0-2.875.782-3.473 1.771l-.276-1.771h-2.208V16.5h2.484v-5.911c0-1.817.713-3.542 2.921-3.542h1.104V4.724h-.552zm12.49 9.614c-.507 0-.76-.161-.76-.759V8.864c0-2.783-1.794-4.278-4.922-4.278-2.967 0-4.945 1.426-5.198 3.726h2.438c.184-1.035 1.173-1.725 2.645-1.725 1.633 0 2.576.805 2.576 2.116v.713h-2.967c-3.289 0-5.037 1.357-5.037 3.772 0 2.185 1.794 3.45 4.37 3.45 1.91 0 3.105-.828 3.887-2.024 0 1.173.552 1.886 2.162 1.886h1.311v-2.162h-.506zm-3.22-2.668c-.024 1.817-1.22 3.036-3.29 3.036-1.357 0-2.185-.69-2.185-1.679 0-1.196.851-1.771 2.392-1.771h3.082v.414zm13.935-5.313c-.759-1.035-2.024-1.771-3.818-1.771-3.197 0-5.566 2.392-5.566 6.026 0 3.772 2.37 6.026 5.566 6.026 1.863 0 3.082-.874 3.841-1.909l.3 1.771h2.161V.4H42.78v5.957zm-3.404 8.188c-2.07 0-3.427-1.61-3.427-3.933 0-2.3 1.357-3.91 3.427-3.91 2.07 0 3.427 1.61 3.427 3.956 0 2.277-1.357 3.887-3.427 3.887zm13.905 2.093c2.92 0 4.899-1.771 5.313-4.094h-2.484c-.345 1.311-1.45 2.07-2.967 2.07-1.955 0-3.22-1.311-3.29-3.312v-.161h8.879c.046-.322.069-.644.069-.943-.07-3.45-2.346-5.612-5.75-5.612-3.473 0-5.796 2.415-5.796 6.049 0 3.611 2.323 6.003 6.026 6.003zm-3.335-7.314c.184-1.679 1.54-2.737 3.128-2.737 1.725 0 2.944.989 3.15 2.737h-6.278zm22.314 7.314c3.588 0 6.003-2.415 6.003-6.026 0-3.588-2.415-6.026-6.003-6.026s-6.003 2.438-6.003 6.026c0 3.611 2.415 6.026 6.003 6.026zm0-2.116c-2.093 0-3.45-1.633-3.45-3.91s1.357-3.91 3.45-3.91 3.473 1.633 3.473 3.91-1.38 3.91-3.473 3.91zm14.21-9.936c-1.909 0-3.036.759-3.772 1.679l-.276-1.541h-2.162V16.5h2.484v-5.934c0-2.392 1.173-3.841 3.151-3.841 1.863 0 2.806 1.196 2.806 3.427V16.5h2.507V9.945c0-3.933-2.139-5.359-4.738-5.359zM102.525 16.5h3.036l4.347-11.776h-2.622l-3.197 9.108-3.243-9.108h-2.668l4.347 11.776zm13.667.138c3.588 0 6.003-2.415 6.003-6.026 0-3.588-2.415-6.026-6.003-6.026s-6.003 2.438-6.003 6.026c0 3.611 2.415 6.026 6.003 6.026zm0-2.116c-2.093 0-3.45-1.633-3.45-3.91s1.357-3.91 3.45-3.91 3.473 1.633 3.473 3.91-1.38 3.91-3.473 3.91zm8.001 1.978h2.484V.4h-2.484v16.1zm15.683-2.162c-.506 0-.759-.161-.759-.759V8.864c0-2.783-1.794-4.278-4.922-4.278-2.967 0-4.945 1.426-5.198 3.726h2.438c.184-1.035 1.173-1.725 2.645-1.725 1.633 0 2.576.805 2.576 2.116v.713h-2.967c-3.289 0-5.037 1.357-5.037 3.772 0 2.185 1.794 3.45 4.37 3.45 1.909 0 3.105-.828 3.887-2.024 0 1.173.552 1.886 2.162 1.886h1.311v-2.162h-.506zm-3.22-2.668c-.023 1.817-1.219 3.036-3.289 3.036-1.357 0-2.185-.69-2.185-1.679 0-1.196.851-1.771 2.392-1.771h3.082v.414zm5.93 1.633c0 2.139.966 3.197 3.22 3.197h2.3v-2.185h-1.748c-.943 0-1.265-.345-1.265-1.265V6.909h2.875V4.724h-2.875V1.435h-2.507v3.289h-2.047v2.185h2.047v6.394zm8.365-10.235c.851 0 1.518-.621 1.518-1.495 0-.874-.667-1.495-1.518-1.495s-1.518.621-1.518 1.495c0 .874.667 1.495 1.518 1.495zM149.686 16.5h2.484V4.724h-2.484V16.5zm4.919 0h2.484V.4h-2.484v16.1zm6.184-13.432c.851 0 1.518-.621 1.518-1.495 0-.874-.667-1.495-1.518-1.495s-1.518.621-1.518 1.495c0 .874.667 1.495 1.518 1.495zM159.524 16.5h2.484V4.724h-2.484V16.5zm5.77-3.197c0 2.139.966 3.197 3.22 3.197h2.3v-2.185h-1.748c-.943 0-1.265-.345-1.265-1.265V6.909h2.875V4.724h-2.875V1.435h-2.507v3.289h-2.047v2.185h2.047v6.394zm10.504 3.266l-.46 1.15c-.368.966-.598 1.196-1.564 1.196h-1.748V21.1h2.668c1.725 0 2.231-.851 2.967-2.76l5.336-13.616h-2.645l-3.197 8.947-3.289-8.947h-2.645l4.577 11.845zm15.191-3.266c0 2.139.966 3.197 3.22 3.197h2.3v-2.185h-1.748c-.943 0-1.265-.345-1.265-1.265V6.909h2.875V4.724h-2.875V1.435h-2.507v3.289h-2.047v2.185h2.047v6.394zm12.419 3.335c3.588 0 6.003-2.415 6.003-6.026 0-3.588-2.415-6.026-6.003-6.026s-6.003 2.438-6.003 6.026c0 3.611 2.415 6.026 6.003 6.026zm0-2.116c-2.093 0-3.45-1.633-3.45-3.91s1.357-3.91 3.45-3.91 3.473 1.633 3.473 3.91-1.38 3.91-3.473 3.91zm16.947-8.165c-.759-1.035-2.024-1.771-3.818-1.771-3.197 0-5.566 2.392-5.566 6.026 0 3.772 2.369 6.026 5.566 6.026 1.863 0 3.082-.874 3.841-1.909l.299 1.771h2.162V.4h-2.484v5.957zm-3.404 8.188c-2.07 0-3.427-1.61-3.427-3.933 0-2.3 1.357-3.91 3.427-3.91 2.07 0 3.427 1.61 3.427 3.956 0 2.277-1.357 3.887-3.427 3.887zm19.08-.207c-.506 0-.759-.161-.759-.759V8.864c0-2.783-1.794-4.278-4.922-4.278-2.967 0-4.945 1.426-5.198 3.726h2.438c.184-1.035 1.173-1.725 2.645-1.725 1.633 0 2.576.805 2.576 2.116v.713h-2.967c-3.289 0-5.037 1.357-5.037 3.772 0 2.185 1.794 3.45 4.37 3.45 1.909 0 3.105-.828 3.887-2.024 0 1.173.552 1.886 2.162 1.886h1.311v-2.162h-.506zm-3.22-2.668c-.023 1.817-1.219 3.036-3.289 3.036-1.357 0-2.185-.69-2.185-1.679 0-1.196.851-1.771 2.392-1.771h3.082v.414zm7.989 4.899l-.46 1.15c-.368.966-.598 1.196-1.564 1.196h-1.748V21.1h2.668c1.725 0 2.231-.851 2.967-2.76l5.336-13.616h-2.645l-3.197 8.947-3.289-8.947h-2.645l4.577 11.845z" fill="#000"/></svg>