<svg width="142" height="14" viewBox="0 0 142 14" fill="none" xmlns="http://www.w3.org/2000/svg"><path d="M6.705.708C3.033.708.063 3.606.063 7.188c0 3.564 2.97 6.462 6.642 6.462 2.25 0 4.23-1.08 5.418-2.754L9.19 9.24a3.01 3.01 0 01-2.466 1.242c-1.836 0-3.114-1.476-3.114-3.294 0-1.836 1.278-3.312 3.114-3.312A3.01 3.01 0 019.19 5.118l2.934-1.656C10.935 1.788 8.955.708 6.705.708zm13.538 0c-3.726 0-6.75 2.898-6.75 6.48 0 3.564 3.024 6.462 6.75 6.462s6.75-2.898 6.75-6.462c0-3.582-3.024-6.48-6.75-6.48zm0 3.168c1.89 0 3.222 1.476 3.222 3.312 0 1.818-1.332 3.294-3.222 3.294s-3.204-1.476-3.204-3.294c0-1.836 1.314-3.312 3.204-3.312zm24.326 9.594V.87h-4.446l-3.276 5.418L33.59.87h-4.446v12.6h3.33V5.406l3.798 6.408h1.152l3.798-6.408v8.064h3.348zm17.895 0V.87h-4.446l-3.276 5.418L51.484.87h-4.446v12.6h3.33V5.406l3.798 6.408h1.152l3.798-6.408v8.064h3.348zM71.43.708c-3.726 0-6.75 2.898-6.75 6.48 0 3.564 3.024 6.462 6.75 6.462s6.75-2.898 6.75-6.462c0-3.582-3.024-6.48-6.75-6.48zm0 3.168c1.89 0 3.222 1.476 3.222 3.312 0 1.818-1.332 3.294-3.222 3.294s-3.204-1.476-3.204-3.294c0-1.836 1.314-3.312 3.204-3.312zM80.42.888V13.47h5.4c3.727 0 6.75-2.718 6.75-6.282 0-3.582-3.023-6.318-6.75-6.318l-5.4.018zm3.385 3.024h1.89c1.872 0 3.402 1.404 3.402 3.258 0 1.872-1.53 3.276-3.402 3.276h-1.89V3.912zm14.379 9.558V.888H94.8V13.47h3.384zm12.439-9.702V.87h-10.71v2.898h3.654v9.702h3.402V3.768h3.654zm5.086 9.702V.888h-3.384V13.47h3.384zm12.889-9.558V.87h-10.314v12.6h10.422v-3.042h-7.038v-1.89h6.444v-2.88h-6.444V3.912h6.93zM135.754.69c-2.934.018-5.238 1.296-5.238 4.122 0 2.466 2.052 3.132 4.914 3.816 2.07.522 2.43.594 2.43 1.314 0 .576-.612.828-1.314.828-1.602 0-3.42-.468-5.058-1.386l-1.512 2.52c1.728 1.152 3.852 1.764 6.192 1.764 3.24 0 5.274-1.476 5.274-4.158 0-2.574-2.106-3.294-5.058-4.086-1.962-.486-2.196-.648-2.196-1.044 0-.576.558-.828 1.206-.828 1.242 0 2.934.432 4.374 1.17l1.422-2.61c-1.476-.9-3.42-1.422-5.436-1.422z" fill="#09B45B"/></svg>