<svg width="40" height="14" viewBox="0 0 40 14" fill="none" xmlns="http://www.w3.org/2000/svg"><path d="M27.3 5.415h-2.05C24.686 2.34 22.333.47 18.775.47c-3.998 0-6.584 2.559-6.584 6.514s2.505 6.457 6.584 6.437c3.326 0 5.685-1.757 6.387-4.635h1.388l.424-1.124h-1.628a8.81 8.81 0 00.025-1.125h1.523l.404-1.125v.003zm-5.733 2.25h-2.185l-.424 1.125h2.492c-.28 1.685-1.034 2.85-2.593 2.85-2.06 0-2.867-2.095-2.867-4.691 0-2.596.646-4.673 2.727-4.691 1.636 0 2.482 1.309 2.762 3.16h-1.773l-.404 1.124h2.274a13.91 13.91 0 01-.01 1.125v-.002zM.883 13.42h3.574V8.712h6.08v-2.85h-6.08V3.766h6.727V.76H.883v12.66zM37.238 8.807c1.596-.66 2.645-1.92 2.645-3.8v-.04c0-1.201-.384-2.17-1.132-2.87-.867-.834-2.242-1.336-4.2-1.336h-6.099v12.66h3.575V9.368h1.575l1.939 4.102h4.12l-2.425-4.663h.002zm-.93-3.589c0 .912-.706 1.473-1.918 1.473h-2.365V3.707h2.344c1.212 0 1.939.504 1.939 1.473v.038z" fill="#fff"/></svg>