<svg width="123" height="44" viewBox="0 0 123 44" fill="none" xmlns="http://www.w3.org/2000/svg"><path d="M19.36.625c-4.076.025-7.276 1.8-7.276 5.725 0 3.425 2.85 4.35 6.825 5.3 2.875.725 3.375.825 3.375 1.825 0 .8-.85 1.15-1.825 1.15-2.225 0-4.75-.65-7.025-1.925l-2.1 3.5c2.4 1.6 5.35 2.45 8.6 2.45 4.5 0 7.325-2.05 7.325-5.775 0-3.575-2.925-4.575-7.025-5.675-2.725-.675-3.05-.9-3.05-1.45 0-.8.775-1.15 1.675-1.15 1.725 0 4.075.6 6.075 1.625L26.91 2.6C24.86 1.35 22.16.625 19.36.625zM38.858.65c-5.175 0-9.375 4.025-9.375 9 0 4.95 4.2 8.975 9.375 8.975s9.375-4.025 9.375-8.975c0-4.975-4.2-9-9.375-9zm0 4.4c2.625 0 4.475 2.05 4.475 4.6 0 2.525-1.85 4.575-4.475 4.575-2.625 0-4.45-2.05-4.45-4.575 0-2.55 1.825-4.6 4.45-4.6zM60.096.65c-5.1 0-9.225 4.025-9.225 9 0 4.95 4.125 8.975 9.225 8.975 3.125 0 5.875-1.5 7.525-3.825l-4.075-2.3a4.18 4.18 0 01-3.425 1.725c-2.55 0-4.325-2.05-4.325-4.575 0-2.55 1.775-4.6 4.325-4.6 1.45 0 2.65.675 3.425 1.725l4.075-2.3C65.97 2.15 63.22.65 60.096.65zm14.92 17.725V.9h-4.7v17.475h4.7zm22.45 0L90.493.875h-6.175l-6.9 17.5h5.625l1.125-3.05h6.55l1.125 3.05h5.625zm-12.074-6.8l2.025-5.45 2.025 5.45h-4.05zm19.14 2.575V.875h-4.7v17.5h13.275V14.15h-8.575zM15.473 29.9v-4.025H.598V29.9h5.075v13.475h4.725V29.9h5.075zm2.364-4v17.475h4.7V38.05h2.8l3.4 5.325h5.425l-3.925-5.95c2.425-.825 3.45-2.6 3.45-5.45 0-4.275-2.275-6.075-7.975-6.075h-7.875zm4.7 4.225h3.4c2.075 0 2.85.65 2.85 2.15 0 1.525-.775 2.15-2.85 2.15h-3.4v-4.3zm32.877 13.25l-6.975-17.5h-6.175l-6.9 17.5h5.625l1.125-3.05h6.55l1.125 3.05h5.625zm-12.075-6.8l2.025-5.45 2.025 5.45h-4.05zM57.779 25.9v17.475h7.5c5.175 0 9.375-3.775 9.375-8.725 0-4.975-4.2-8.775-9.375-8.775l-7.5.025zm4.7 4.2h2.625c2.6 0 4.725 1.95 4.725 4.525 0 2.6-2.125 4.55-4.725 4.55h-2.625V30.1zm19.97 13.275V25.9h-4.7v17.475h4.7zm19.977 0v-17.5h-4.625v9.775l-7.05-9.775h-4.875v17.5H90.5v-9.75l7.05 9.75h4.875zm12.624-17.75c-4.975-.025-9.675 3.25-9.675 9.025 0 4.95 4.2 8.975 9.375 8.975 2.95 0 5.675-.975 7.775-2.65v-7.65h-7.475v3.35h3v1.675c-.95.55-2.05.875-3.3.875-2.625 0-4.45-2.05-4.45-4.575 0-2.925 2.225-4.675 4.75-4.675 1.35 0 2.725.475 3.825 1.425l3.075-3.225c-1.95-1.675-4.425-2.525-6.9-2.55z" fill="#09B45B"/></svg>