<svg width="83" height="13" viewBox="0 0 83 13" fill="none" xmlns="http://www.w3.org/2000/svg"><path d="M10.314 3.667V.857H.783V12.5h9.63V9.689H3.91V7.942h5.955V5.281H3.91V3.667h6.404zM22.882.857h-3.144V7.16c0 1.863-.848 2.645-2.212 2.645-1.348 0-2.196-.782-2.213-2.645V.873h-3.127V7.16c0 3.81 2.063 5.506 5.34 5.506 3.277 0 5.356-1.696 5.356-5.506V.856zm2.283.016V12.5h3.128V8.957h1.863l2.262 3.543h3.61l-2.612-3.959c1.613-.549 2.295-1.73 2.295-3.626 0-2.845-1.513-4.042-5.306-4.042h-5.24zm3.128 2.81h2.262c1.38 0 1.896.433 1.896 1.431 0 1.015-.516 1.431-1.896 1.431h-2.262V3.684zm11.095 9.1L45.21.573 42.615.59l-5.822 12.193h2.595zM57.45.856h-3.144V7.16c0 1.863-.848 2.645-2.212 2.645-1.348 0-2.196-.782-2.213-2.645V.873h-3.127V7.16c0 3.81 2.063 5.506 5.34 5.506 3.276 0 5.356-1.696 5.356-5.506V.856zM64.474.69c-2.712.016-4.84 1.197-4.84 3.809 0 2.279 1.896 2.894 4.54 3.526 1.913.483 2.246.55 2.246 1.215 0 .532-.566.765-1.214.765-1.48 0-3.16-.433-4.674-1.281l-1.398 2.329c1.597 1.064 3.56 1.63 5.722 1.63 2.995 0 4.874-1.364 4.874-3.843 0-2.378-1.946-3.044-4.674-3.775-1.813-.45-2.03-.6-2.03-.965 0-.533.516-.765 1.115-.765 1.148 0 2.712.399 4.042 1.08l1.314-2.411C68.133 1.172 66.337.69 64.474.69zm7.052.183V12.5h4.99c3.444 0 6.238-2.512 6.238-5.805 0-3.31-2.794-5.839-6.237-5.839l-4.99.017zm3.128 2.794H76.4c1.73 0 3.144 1.298 3.144 3.011 0 1.73-1.414 3.027-3.144 3.027h-1.746V3.667z" fill="#09B45B"/></svg>