<svg width="183" height="28" viewBox="0 0 183 28" fill="none" xmlns="http://www.w3.org/2000/svg"><path d="M14.283.775C7.03.738.18 5.512.18 13.929c0 7.215 6.121 13.082 13.664 13.082 4.3 0 8.272-1.421 11.333-3.863v-11.15H14.282v4.883h4.373v2.441a9.463 9.463 0 01-4.81 1.276c-3.826 0-6.486-2.988-6.486-6.669 0-4.263 3.243-6.814 6.924-6.814 1.967 0 3.971.693 5.575 2.077l4.482-4.7C21.497 2.05 17.89.812 14.283.775zm15.876.4v25.471h14.357c6.632 0 8.745-3.461 8.745-6.96 0-2.66-1.202-5.32-4.773-6.413 2.405-.983 3.753-2.878 3.753-5.648 0-4.263-3.097-6.486-8.344-6.486l-13.738.037zm6.85 10.276v-4.7h4.883c2.041 0 3.17.801 3.17 2.368 0 1.53-1.165 2.332-3.17 2.332H37.01zm0 9.62v-5.065h5.794c2.515 0 3.316 1.276 3.316 2.55 0 1.276-.801 2.515-3.316 2.515H37.01zM57.205 1.176v25.47h6.85v-7.251h4.373c7.579 0 11.186-2.806 11.186-9.037 0-6.23-3.425-9.182-11.26-9.182h-11.15zm6.85 5.903H68.1c3.06 0 4.372 1.13 4.372 3.534 0 2.442-1.348 3.498-4.372 3.498h-4.045V7.08zm23.737 20.187L100.545.52 94.86.556l-12.753 26.71h5.684zm39.565-26.127h-6.886v13.81c0 4.082-1.859 5.794-4.847 5.794-2.951 0-4.81-1.712-4.846-5.793V1.176h-6.851V14.95c0 8.344 4.519 12.06 11.697 12.06 7.179 0 11.733-3.716 11.733-12.06V1.14zm15.388-.364c-5.94.036-10.604 2.623-10.604 8.344 0 4.992 4.154 6.34 9.948 7.725 4.19 1.057 4.919 1.203 4.919 2.66 0 1.166-1.239 1.676-2.66 1.676-3.243 0-6.924-.947-10.239-2.805l-3.061 5.101c3.498 2.332 7.798 3.571 12.535 3.571 6.559 0 10.676-2.988 10.676-8.417 0-5.21-4.263-6.668-10.239-8.272-3.972-.984-4.446-1.312-4.446-2.113 0-1.166 1.13-1.676 2.442-1.676 2.514 0 5.939.874 8.854 2.368l2.879-5.283c-2.988-1.822-6.923-2.88-11.004-2.88zm15.449.4v25.471h10.932c7.542 0 13.664-5.502 13.664-12.717 0-7.251-6.122-12.79-13.664-12.79l-10.932.037zm6.851 6.122h3.826c3.789 0 6.886 2.843 6.886 6.596 0 3.79-3.097 6.632-6.886 6.632h-3.826V7.297z" fill="#09B45B"/></svg>