<svg width="728" height="21" viewBox="0 0 728 21" fill="none" xmlns="http://www.w3.org/2000/svg"><path fill="#fff" d="M0 0h728v21H0z"/><path d="M218.48 15h.78v-3.2h1.61v-.71h-1.61V8.71h2V8h-2.78v7zm5.088.1c1.04 0 1.61-.62 1.61-1.73V9.62c0-1.11-.57-1.72-1.61-1.72-1.03 0-1.6.61-1.6 1.72v3.75c0 1.11.57 1.73 1.6 1.73zm0-.71c-.52 0-.82-.3-.82-.97V9.57c0-.66.3-.96.82-.96.53 0 .83.3.83.96v3.85c0 .67-.3.97-.83.97zm2.634.61h.78v-3.16h.63c.66 0 .93.26.93 1.02v1.29c0 .47.03.65.09.85h.79c-.09-.25-.1-.53-.1-.85V12.9c0-.82-.23-1.31-.82-1.46v-.01c.56-.18.81-.64.81-1.41v-.43c0-1.09-.47-1.59-1.58-1.59h-1.53v7zm.78-3.87V8.71h.73c.58 0 .82.28.82.96v.5c0 .7-.31.96-.92.96h-.63zm3.384 3.87h2.87v-.71h-2.09V11.7h1.7v-.71h-1.7V8.71h2.09V8h-2.87v7zm3.423 0h.75l1.05-2.79 1.05 2.79h.83l-1.38-3.58 1.32-3.42h-.75l-1 2.62-.98-2.62h-.83l1.32 3.42-1.38 3.58zm7.185 0h.78V8.71h1.24V8h-3.26v.71h1.24V15zm2.814 0h.78v-3.16h.63c.66 0 .93.26.93 1.02v1.29c0 .47.03.65.09.85h.79c-.09-.25-.1-.53-.1-.85V12.9c0-.82-.23-1.31-.82-1.46v-.01c.56-.18.81-.64.81-1.41v-.43c0-1.09-.47-1.59-1.58-1.59h-1.53v7zm.78-3.87V8.71h.73c.58 0 .82.28.82.96v.5c0 .7-.31.96-.92.96h-.63zm5.973 3.87h.79l-1.31-7h-1.05l-1.3 7h.73l.26-1.49h1.62l.26 1.49zm-1.76-2.17l.68-3.94.7 3.94h-1.38zm3.354 2.17h1.6c1.08 0 1.58-.57 1.58-1.7V9.7c0-1.13-.5-1.7-1.58-1.7h-1.6v7zm.78-.71V8.71h.8c.55 0 .82.26.82.95v3.67c0 .69-.27.96-.82.96h-.8zm3.432.71h.78V8h-.78v7zm1.879 0h.71V9.31l1.77 5.69h.81V8h-.71v5l-1.58-5h-1v7zm5.898.1c1.04 0 1.59-.62 1.59-1.73v-2.22h-1.51v.71h.77v1.57c0 .67-.3.96-.83.96-.52 0-.82-.29-.82-.96V9.57c0-.66.3-.96.82-.96.53 0 .83.3.83.96v.62h.74v-.57c0-1.11-.55-1.72-1.59-1.72-1.03 0-1.58.61-1.58 1.72v3.75c0 1.11.55 1.73 1.58 1.73zm4.356-.1h.78V8h-.78v7zm1.879 0h.71V9.31l1.77 5.69h.81V8h-.71v5l-1.58-5h-1v7zm5.348 0h1.04l1.24-7h-.72l-1.01 5.94-1.01-5.94h-.79l1.25 7zm4.568.1c1.04 0 1.61-.62 1.61-1.73V9.62c0-1.11-.57-1.72-1.61-1.72-1.03 0-1.6.61-1.6 1.72v3.75c0 1.11.57 1.73 1.6 1.73zm0-.71c-.52 0-.82-.3-.82-.97V9.57c0-.66.3-.96.82-.96.53 0 .83.3.83.96v3.85c0 .67-.3.97-.83.97zm2.634.61h2.78v-.71h-2V8h-.78v7zm3.98 0h1.04l1.24-7h-.72l-1.01 5.94-1.01-5.94h-.79l1.25 7zm3.077 0h2.87v-.71h-2.09V11.7h1.7v-.71h-1.7V8.71h2.09V8h-2.87v7zm5.094.1c1.02 0 1.59-.62 1.59-1.71 0-.85-.31-1.41-1.27-2.21-.83-.68-1.11-1.08-1.11-1.66 0-.61.3-.91.8-.91.51 0 .8.3.8.93v.33h.74v-.28c0-1.07-.53-1.69-1.54-1.69s-1.57.62-1.57 1.67c0 .79.32 1.35 1.29 2.15.81.67 1.08 1.08 1.08 1.73 0 .64-.31.94-.82.94-.5 0-.81-.3-.81-.93v-.45h-.74v.39c0 1.08.54 1.7 1.56 1.7zm5.623 0c1.02 0 1.59-.62 1.59-1.71 0-.85-.31-1.41-1.27-2.21-.83-.68-1.11-1.08-1.11-1.66 0-.61.3-.91.8-.91.51 0 .8.3.8.93v.33h.74v-.28c0-1.07-.53-1.69-1.54-1.69s-1.57.62-1.57 1.67c0 .79.32 1.35 1.29 2.15.81.67 1.08 1.08 1.08 1.73 0 .64-.31.94-.82.94-.5 0-.81-.3-.81-.93v-.45h-.74v.39c0 1.08.54 1.7 1.56 1.7zm2.481-.1h.78V8h-.78v7zm3.379.1c1.04 0 1.59-.62 1.59-1.73v-2.22h-1.51v.71h.77v1.57c0 .67-.3.96-.83.96-.52 0-.82-.29-.82-.96V9.57c0-.66.3-.96.82-.96.53 0 .83.3.83.96v.62h.74v-.57c0-1.11-.55-1.72-1.59-1.72-1.03 0-1.58.61-1.58 1.72v3.75c0 1.11.55 1.73 1.58 1.73zm2.575-.1h.71V9.31l1.77 5.69h.81V8h-.71v5l-1.58-5h-1v7zm4.398 0h.78V8h-.78v7zm1.879 0h.78v-3.2h1.61v-.71h-1.61V8.71h2V8h-2.78v7zm3.568 0h.78V8h-.78v7zm3.358.1c1.01 0 1.56-.63 1.56-1.67v-.93h-.74v.98c0 .6-.31.91-.8.91-.49 0-.8-.31-.8-.91V9.52c0-.6.31-.91.8-.91.49 0 .8.31.8.91v.77h.74v-.72c0-1.05-.55-1.67-1.56-1.67-1 0-1.56.62-1.56 1.67v3.86c0 1.04.56 1.67 1.56 1.67zm5.039-.1h.79l-1.31-7h-1.05l-1.3 7h.73l.26-1.49h1.62l.26 1.49zm-1.76-2.17l.68-3.94.7 3.94h-1.38zm3.354 2.17h.71V9.31l1.77 5.69h.81V8h-.71v5l-1.58-5h-1v7zm5.328 0h.78V8.71h1.24V8h-3.26v.71h1.24V15zm4.594 0h.78v-3.16h.63c.66 0 .93.26.93 1.02v1.29c0 .47.03.65.09.85h.79c-.09-.25-.1-.53-.1-.85V12.9c0-.82-.23-1.31-.82-1.46v-.01c.56-.18.81-.64.81-1.41v-.43c0-1.09-.47-1.59-1.58-1.59h-1.53v7zm.78-3.87V8.71h.73c.58 0 .82.28.82.96v.5c0 .7-.31.96-.92.96h-.63zM343.04 15h.78V8h-.78v7zm3.239.1c1.02 0 1.59-.62 1.59-1.71 0-.85-.31-1.41-1.27-2.21-.83-.68-1.11-1.08-1.11-1.66 0-.61.3-.91.8-.91.51 0 .8.3.8.93v.33h.74v-.28c0-1.07-.53-1.69-1.54-1.69s-1.57.62-1.57 1.67c0 .79.32 1.35 1.29 2.15.81.67 1.08 1.08 1.08 1.73 0 .64-.31.94-.82.94-.5 0-.81-.3-.81-.93v-.45h-.74v.39c0 1.08.54 1.7 1.56 1.7zm5.101-.1h.82l-1.47-4.37L352.18 8h-.81l-1.83 3.45V8h-.78v7h.78v-2.31l.67-1.17 1.17 3.48zm4.913.1c1.04 0 1.61-.62 1.61-1.73V9.62c0-1.11-.57-1.72-1.61-1.72-1.03 0-1.6.61-1.6 1.72v3.75c0 1.11.57 1.73 1.6 1.73zm0-.71c-.52 0-.82-.3-.82-.97V9.57c0-.66.3-.96.82-.96.53 0 .83.3.83.96v3.85c0 .67-.3.97-.83.97zm2.634.61h.78v-3.2h1.61v-.71h-1.61V8.71h2V8h-2.78v7zm5.349 0h2.78v-.71h-2V8h-.78v7zm5.029.1c1.04 0 1.61-.62 1.61-1.73V9.62c0-1.11-.57-1.72-1.61-1.72-1.03 0-1.6.61-1.6 1.72v3.75c0 1.11.57 1.73 1.6 1.73zm0-.71c-.52 0-.82-.3-.82-.97V9.57c0-.66.3-.96.82-.96.53 0 .83.3.83.96v3.85c0 .67-.3.97-.83.97zm3.994.71c1.02 0 1.59-.62 1.59-1.71 0-.85-.31-1.41-1.27-2.21-.83-.68-1.11-1.08-1.11-1.66 0-.61.3-.91.8-.91.51 0 .8.3.8.93v.33h.74v-.28c0-1.07-.53-1.69-1.54-1.69s-1.57.62-1.57 1.67c0 .79.32 1.35 1.29 2.15.81.67 1.08 1.08 1.08 1.73 0 .64-.31.94-.82.94-.5 0-.81-.3-.81-.93v-.45h-.74v.39c0 1.08.54 1.7 1.56 1.7zm3.832 0c1.02 0 1.59-.62 1.59-1.71 0-.85-.31-1.41-1.27-2.21-.83-.68-1.11-1.08-1.11-1.66 0-.61.3-.91.8-.91.51 0 .8.3.8.93v.33h.74v-.28c0-1.07-.53-1.69-1.54-1.69s-1.57.62-1.57 1.67c0 .79.32 1.35 1.29 2.15.81.67 1.08 1.08 1.08 1.73 0 .64-.31.94-.82.94-.5 0-.81-.3-.81-.93v-.45h-.74v.39c0 1.08.54 1.7 1.56 1.7zm6.822-.1h.79l-1.31-7h-1.05l-1.3 7h.73l.26-1.49h1.62l.26 1.49zm-1.76-2.17l.68-3.94.7 3.94h-1.38zm3.354 2.17h.71V9.31l1.77 5.69h.81V8h-.71v5l-1.58-5h-1v7zm4.398 0h1.6c1.08 0 1.58-.57 1.58-1.7V9.7c0-1.13-.5-1.7-1.58-1.7h-1.6v7zm.78-.71V8.71h.8c.55 0 .82.26.82.95v3.67c0 .69-.27.96-.82.96h-.8zm5.213.71h.78V8h-.78v7zm3.239.1c1.02 0 1.59-.62 1.59-1.71 0-.85-.31-1.41-1.27-2.21-.83-.68-1.11-1.08-1.11-1.66 0-.61.3-.91.8-.91.51 0 .8.3.8.93v.33h.74v-.28c0-1.07-.53-1.69-1.54-1.69s-1.57.62-1.57 1.67c0 .79.32 1.35 1.29 2.15.81.67 1.08 1.08 1.08 1.73 0 .64-.31.94-.82.94-.5 0-.81-.3-.81-.93v-.45h-.74v.39c0 1.08.54 1.7 1.56 1.7zm4.262-.1h.71V9.31l1.77 5.69h.81V8h-.71v5l-1.58-5h-1v7zm5.918.1c1.04 0 1.61-.62 1.61-1.73V9.62c0-1.11-.57-1.72-1.61-1.72-1.03 0-1.6.61-1.6 1.72v3.75c0 1.11.57 1.73 1.6 1.73zm0-.71c-.52 0-.82-.3-.82-.97V9.57c0-.66.3-.96.82-.96.53 0 .83.3.83.96v3.85c0 .67-.3.97-.83.97zm3.505.61h.78V8.71h1.24V8h-3.26v.71h1.24V15zm5.955.1c1.02 0 1.59-.62 1.59-1.71 0-.85-.31-1.41-1.27-2.21-.83-.68-1.11-1.08-1.11-1.66 0-.61.3-.91.8-.91.51 0 .8.3.8.93v.33h.74v-.28c0-1.07-.53-1.69-1.54-1.69s-1.57.62-1.57 1.67c0 .79.32 1.35 1.29 2.15.81.67 1.08 1.08 1.08 1.73 0 .64-.31.94-.82.94-.5 0-.81-.3-.81-.93v-.45h-.74v.39c0 1.08.54 1.7 1.56 1.7zm4.021 0c1.03 0 1.58-.62 1.58-1.73V8h-.76v5.43c0 .66-.29.96-.81.96s-.81-.3-.81-.96V8h-.78v5.37c0 1.11.54 1.73 1.58 1.73zm2.644-.1h.78V8h-.78v7zm2.808 0h.78V8.71h1.24V8h-3.26v.71h1.24V15zm4.837 0h.79l-1.31-7h-1.05l-1.3 7h.73l.26-1.49h1.62l.26 1.49zm-1.76-2.17l.68-3.94.7 3.94h-1.38zm3.354 2.17h1.64c1.09 0 1.61-.55 1.61-1.63v-.6c0-.78-.26-1.29-.89-1.47v-.02c.53-.19.78-.65.78-1.4v-.29c0-1.09-.47-1.59-1.58-1.59h-1.56v7zm.78-4.01V8.71h.76c.58 0 .82.28.82.96v.36c0 .7-.31.96-.92.96h-.66zm0 3.3V11.7h.7c.71 0 .99.28.99 1.05v.6c0 .67-.26.94-.83.94h-.86zm3.393.71h2.78v-.71h-2V8h-.78v7zm3.568 0h2.87v-.71h-2.09V11.7h1.7v-.71h-1.7V8.71h2.09V8h-2.87v7zm5.495 0h.78v-3.2h1.61v-.71h-1.61V8.71h2V8h-2.78v7zm5.088.1c1.04 0 1.61-.62 1.61-1.73V9.62c0-1.11-.57-1.72-1.61-1.72-1.03 0-1.6.61-1.6 1.72v3.75c0 1.11.57 1.73 1.6 1.73zm0-.71c-.52 0-.82-.3-.82-.97V9.57c0-.66.3-.96.82-.96.53 0 .83.3.83.96v3.85c0 .67-.3.97-.83.97zm2.634.61h.78v-3.16h.63c.66 0 .93.26.93 1.02v1.29c0 .47.03.65.09.85h.79c-.09-.25-.1-.53-.1-.85V12.9c0-.82-.23-1.31-.82-1.46v-.01c.56-.18.81-.64.81-1.41v-.43c0-1.09-.47-1.59-1.58-1.59h-1.53v7zm.78-3.87V8.71h.73c.58 0 .82.28.82.96v.5c0 .7-.31.96-.92.96h-.63zm7.725 3.87h.79l-1.31-7h-1.05l-1.3 7h.73l.26-1.49h1.62l.26 1.49zm-1.76-2.17l.68-3.94.7 3.94h-1.38zm3.354 2.17h2.78v-.71h-2V8h-.78v7zm3.568 0h2.78v-.71h-2V8h-.78v7zm5.348 0h.78V8h-.78v7zm1.879 0h.71V9.31l1.77 5.69h.81V8h-.71v5l-1.58-5h-1v7zm5.348 0h1.04l1.24-7h-.72l-1.01 5.94-1.01-5.94h-.79l1.25 7zm3.077 0h2.87v-.71h-2.09V11.7h1.7v-.71h-1.7V8.71h2.09V8h-2.87v7zm5.094.1c1.02 0 1.59-.62 1.59-1.71 0-.85-.31-1.41-1.27-2.21-.83-.68-1.11-1.08-1.11-1.66 0-.61.3-.91.8-.91.51 0 .8.3.8.93v.33h.74v-.28c0-1.07-.53-1.69-1.54-1.69s-1.57.62-1.57 1.67c0 .79.32 1.35 1.29 2.15.81.67 1.08 1.08 1.08 1.73 0 .64-.31.94-.82.94-.5 0-.81-.3-.81-.93v-.45h-.74v.39c0 1.08.54 1.7 1.56 1.7zm3.392-.1h.78V8.71h1.24V8h-3.26v.71h1.24V15zm4.275.1c1.04 0 1.61-.62 1.61-1.73V9.62c0-1.11-.57-1.72-1.61-1.72-1.03 0-1.6.61-1.6 1.72v3.75c0 1.11.57 1.73 1.6 1.73zm0-.71c-.52 0-.82-.3-.82-.97V9.57c0-.66.3-.96.82-.96.53 0 .83.3.83.96v3.85c0 .67-.3.97-.83.97zm2.634.61h.78v-3.16h.63c.66 0 .93.26.93 1.02v1.29c0 .47.03.65.09.85h.79c-.09-.25-.1-.53-.1-.85V12.9c0-.82-.23-1.31-.82-1.46v-.01c.56-.18.81-.64.81-1.41v-.43c0-1.09-.47-1.59-1.58-1.59h-1.53v7zm.78-3.87V8.71h.73c.58 0 .82.28.82.96v.5c0 .7-.31.96-.92.96h-.63zm4.744 3.97c1.02 0 1.59-.62 1.59-1.71 0-.85-.31-1.41-1.27-2.21-.83-.68-1.11-1.08-1.11-1.66 0-.61.3-.91.8-.91.51 0 .8.3.8.93v.33h.74v-.28c0-1.07-.53-1.69-1.54-1.69s-1.57.62-1.57 1.67c0 .79.32 1.35 1.29 2.15.81.67 1.08 1.08 1.08 1.73 0 .64-.31.94-.82.94-.5 0-.81-.3-.81-.93v-.45h-.74v.39c0 1.08.54 1.7 1.56 1.7zm2.521-.1h.79v-1.01h-.79V15z" fill="#000"/></svg>