<svg width="105" height="38" viewBox="0 0 105 38" fill="none" xmlns="http://www.w3.org/2000/svg"><rect width="105" height="38" rx="19" fill="#14964F"/><path d="M31.885 15h1.2l-2.49-6.96h-1.32L26.785 15h1.19l.5-1.42h2.91l.5 1.42zm-.82-2.35h-2.27l1.14-3.23 1.13 3.23zM38.078 15h1.13v-3.25c0-1.54-.97-2.35-2.26-2.35-.66 0-1.27.27-1.64.72v-.63h-1.14V15h1.14v-3.08c0-1.01.55-1.53 1.39-1.53.83 0 1.38.52 1.38 1.53V15zm10.394 0h1.13v-3.25c0-1.54-.98-2.35-2.27-2.35-.8 0-1.58.42-1.92 1.09-.38-.72-1.11-1.09-1.98-1.09-.66 0-1.26.27-1.63.72v-.63h-1.14V15h1.14v-3.08c0-1.01.55-1.53 1.39-1.53.83 0 1.38.52 1.38 1.53V15h1.13v-3.08c0-1.01.55-1.53 1.39-1.53.83 0 1.38.52 1.38 1.53V15zm4.9-4.64c.85 0 1.52.54 1.54 1.39h-3.05c.12-.87.74-1.39 1.51-1.39zm2.58 3h-1.23c-.21.43-.6.77-1.3.77-.84 0-1.49-.55-1.57-1.46h4.21c.03-.19.04-.37.04-.56 0-1.62-1.11-2.71-2.68-2.71-1.63 0-2.75 1.11-2.75 2.84 0 1.73 1.17 2.85 2.75 2.85 1.35 0 2.22-.77 2.53-1.73zM57.226 15h1.14V7.6h-1.14V15zm2.256-2.78c0 1.7 1.15 2.87 2.6 2.87.9 0 1.56-.42 1.91-.92V15h1.15V7.6h-1.15v2.66c-.42-.52-1.18-.86-1.9-.86-1.46 0-2.61 1.12-2.61 2.82zm4.51.02c0 1.19-.81 1.86-1.67 1.86-.85 0-1.67-.69-1.67-1.88s.82-1.83 1.67-1.83c.86 0 1.67.67 1.67 1.85zm4.968-1.88c.85 0 1.52.54 1.54 1.39h-3.05c.12-.87.74-1.39 1.51-1.39zm2.58 3h-1.23c-.21.43-.6.77-1.3.77-.84 0-1.49-.55-1.57-1.46h4.21c.03-.19.04-.37.04-.56 0-1.62-1.11-2.71-2.68-2.71-1.63 0-2.75 1.11-2.75 2.84 0 1.73 1.17 2.85 2.75 2.85 1.35 0 2.22-.77 2.53-1.73zM76.72 15h1.13v-3.25c0-1.54-.97-2.35-2.26-2.35-.66 0-1.27.27-1.64.72v-.63h-1.14V15h1.14v-3.08c0-1.01.55-1.53 1.39-1.53.83 0 1.38.52 1.38 1.53V15zm-50.863 9.49h-1.14v3.07c0 1.01-.55 1.53-1.39 1.53-.83 0-1.38-.52-1.38-1.53v-3.07h-1.13v3.24c0 1.54.98 2.35 2.27 2.35.65 0 1.27-.27 1.63-.74V30h1.14v-5.51zM31.271 30h1.13v-3.25c0-1.54-.97-2.35-2.26-2.35-.66 0-1.27.27-1.64.72v-.63h-1.14V30h1.14v-3.08c0-1.01.55-1.53 1.39-1.53.83 0 1.38.52 1.38 1.53V30zm2.204-2.78c0 1.7 1.15 2.87 2.6 2.87.9 0 1.56-.42 1.91-.92V30h1.15v-7.4h-1.15v2.66c-.42-.52-1.18-.86-1.9-.86-1.46 0-2.61 1.12-2.61 2.82zm4.51.02c0 1.19-.81 1.86-1.67 1.86-.85 0-1.67-.69-1.67-1.88s.82-1.83 1.67-1.83c.86 0 1.67.67 1.67 1.85zM47.642 30h1.14v-6.95h-1.14v2.98h-3.27v-2.98h-1.14V30h1.14v-3.04h3.27V30zm2.26-2.78c0 1.7 1.15 2.87 2.58 2.87.92 0 1.58-.44 1.93-.91V30h1.15v-5.51h-1.15v.8c-.34-.45-.98-.89-1.91-.89-1.45 0-2.6 1.12-2.6 2.82zm4.51.02c0 1.19-.81 1.86-1.67 1.86-.85 0-1.67-.69-1.67-1.88s.82-1.83 1.67-1.83c.86 0 1.67.67 1.67 1.85zM60.97 30h1.13v-3.25c0-1.54-.97-2.35-2.26-2.35-.66 0-1.27.27-1.64.72v-.63h-1.14V30h1.14v-3.08c0-1.01.55-1.53 1.39-1.53.83 0 1.38.52 1.38 1.53V30zm2.204-2.78c0 1.7 1.15 2.87 2.6 2.87.9 0 1.56-.42 1.91-.92V30h1.15v-7.4h-1.15v2.66c-.42-.52-1.18-.86-1.9-.86-1.46 0-2.61 1.12-2.61 2.82zm4.51.02c0 1.19-.81 1.86-1.67 1.86-.85 0-1.67-.69-1.67-1.88s.82-1.83 1.67-1.83c.86 0 1.67.67 1.67 1.85zm4.967-1.88c.85 0 1.52.54 1.54 1.39h-3.05c.12-.87.74-1.39 1.51-1.39zm2.58 3H74c-.21.43-.6.77-1.3.77-.84 0-1.49-.55-1.57-1.46h4.21c.03-.19.04-.37.04-.56 0-1.62-1.11-2.71-2.68-2.71-1.63 0-2.75 1.11-2.75 2.84 0 1.73 1.17 2.85 2.75 2.85 1.35 0 2.22-.77 2.53-1.73zM76.502 30h1.14v-7.4h-1.14V30zm6.547 0h1.13v-3.25c0-1.54-.97-2.35-2.26-2.35-.66 0-1.27.27-1.64.72v-.63h-1.14V30h1.14v-3.08c0-1.01.55-1.53 1.39-1.53.83 0 1.38.52 1.38 1.53V30z" fill="#fff"/></svg>