<svg width="105" height="39" viewBox="0 0 105 39" fill="none" xmlns="http://www.w3.org/2000/svg"><path d="M5.99 1.01V8h-.7V4.73H1.5V8H.8V1.01h.7v3.14h3.79V1.01h.7zm1.277 4.25c0-.56.11-1.05.33-1.47.227-.427.537-.753.93-.98.4-.233.85-.35 1.35-.35.52 0 .967.12 1.34.36.38.24.653.547.82.92v-1.2h.7V8h-.7V6.79c-.173.373-.45.683-.83.93-.373.24-.82.36-1.34.36a2.61 2.61 0 01-1.34-.35 2.47 2.47 0 01-.93-.99c-.22-.427-.33-.92-.33-1.48zm4.77.01c0-.44-.09-.827-.27-1.16a1.916 1.916 0 00-.74-.77 1.978 1.978 0 00-1.02-.27c-.387 0-.733.087-1.04.26-.307.173-.55.427-.73.76-.173.327-.26.717-.26 1.17 0 .447.087.84.26 1.18.18.333.423.59.73.77.307.173.653.26 1.04.26.373 0 .713-.09 1.02-.27.313-.18.56-.437.74-.77.18-.333.27-.72.27-1.16zm4.858-2.83c.654 0 1.187.203 1.6.61.413.4.62.983.62 1.75V8h-.69V4.88c0-.593-.15-1.047-.45-1.36-.293-.313-.697-.47-1.21-.47-.527 0-.947.167-1.26.5-.313.333-.47.823-.47 1.47V8h-.7V2.54h.7v.93c.174-.333.424-.587.75-.76.327-.18.697-.27 1.11-.27zm3.448 2.82c0-.56.114-1.05.34-1.47a2.4 2.4 0 01.93-.98c.4-.233.85-.35 1.35-.35.48 0 .914.117 1.3.35.387.233.67.537.85.91V.6h.7V8h-.7V6.78c-.166.38-.44.693-.82.94-.38.24-.826.36-1.34.36-.5 0-.95-.117-1.35-.35a2.469 2.469 0 01-.93-.99c-.22-.427-.33-.92-.33-1.48zm4.77.01c0-.44-.09-.827-.27-1.16a1.916 1.916 0 00-.74-.77 1.978 1.978 0 00-1.02-.27c-.386 0-.733.087-1.04.26-.306.173-.55.427-.73.76-.173.327-.26.717-.26 1.17 0 .447.087.84.26 1.18.18.333.424.59.73.77.307.173.654.26 1.04.26.374 0 .714-.09 1.02-.27.314-.18.56-.437.74-.77.18-.333.27-.72.27-1.16zm7.238-.28c0 .24-.006.423-.02.55h-4.53c.02.413.12.767.3 1.06.18.293.417.517.71.67.294.147.614.22.96.22.454 0 .834-.11 1.14-.33.314-.22.52-.517.62-.89h.74c-.133.533-.42.97-.86 1.31-.433.333-.98.5-1.64.5-.513 0-.973-.113-1.38-.34a2.514 2.514 0 01-.96-.98c-.226-.427-.34-.923-.34-1.49s.114-1.063.34-1.49c.227-.427.544-.753.95-.98.407-.227.87-.34 1.39-.34.52 0 .974.113 1.36.34.394.227.694.533.9.92.214.38.32.803.32 1.27zm-.71-.02c.007-.407-.076-.753-.25-1.04a1.621 1.621 0 00-.69-.65 2.116 2.116 0 00-.96-.22c-.52 0-.963.167-1.33.5-.366.333-.57.803-.61 1.41h3.84zM34.332.6V8h-.7V.6h.7zm4.68.91c-.14 0-.26-.05-.36-.15a.503.503 0 01-.15-.37.47.47 0 01.15-.36c.1-.1.22-.15.36-.15.14 0 .26.05.36.15.1.093.15.213.15.36s-.05.27-.15.37c-.1.1-.22.15-.36.15zm.35 1.03V8h-.7V2.54h.7zm4.145-.1c.653 0 1.186.203 1.6.61.413.4.62.983.62 1.75V8h-.69V4.88c0-.593-.15-1.047-.45-1.36-.294-.313-.697-.47-1.21-.47-.527 0-.947.167-1.26.5-.314.333-.47.823-.47 1.47V8h-.7V2.54h.7v.93c.173-.333.423-.587.75-.76.326-.18.696-.27 1.11-.27zm6.192 2.82c0-.56.113-1.05.34-1.47a2.4 2.4 0 01.93-.98c.4-.233.85-.35 1.35-.35.48 0 .913.117 1.3.35.386.233.67.537.85.91V.6h.7V8h-.7V6.78c-.167.38-.44.693-.82.94-.38.24-.827.36-1.34.36-.5 0-.95-.117-1.35-.35a2.469 2.469 0 01-.93-.99c-.22-.427-.33-.92-.33-1.48zm4.77.01c0-.44-.09-.827-.27-1.16a1.916 1.916 0 00-.74-.77 1.978 1.978 0 00-1.02-.27c-.387 0-.734.087-1.04.26-.307.173-.55.427-.73.76-.174.327-.26.717-.26 1.17 0 .447.086.84.26 1.18.18.333.423.59.73.77.306.173.653.26 1.04.26.373 0 .713-.09 1.02-.27.313-.18.56-.437.74-.77.18-.333.27-.72.27-1.16zm7.238-.28c0 .24-.007.423-.02.55h-4.53c.02.413.12.767.3 1.06.18.293.416.517.71.67.293.147.613.22.96.22.453 0 .833-.11 1.14-.33.313-.22.52-.517.62-.89h.74c-.134.533-.42.97-.86 1.31-.434.333-.98.5-1.64.5-.514 0-.974-.113-1.38-.34a2.513 2.513 0 01-.96-.98c-.227-.427-.34-.923-.34-1.49s.113-1.063.34-1.49c.227-.427.543-.753.95-.98.407-.227.87-.34 1.39-.34.52 0 .973.113 1.36.34.393.227.693.533.9.92.213.38.32.803.32 1.27zm-.71-.02c.007-.407-.077-.753-.25-1.04a1.623 1.623 0 00-.69-.65 2.116 2.116 0 00-.96-.22c-.52 0-.964.167-1.33.5-.367.333-.57.803-.61 1.41h3.84zm2.69-1.46c.154-.34.387-.603.7-.79.32-.187.71-.28 1.17-.28v.73h-.19c-.506 0-.913.137-1.22.41-.306.273-.46.73-.46 1.37V8h-.7V2.54h.7v.97zm10.858-2.5V8h-.7V4.73h-3.79V8h-.7V1.01h.7v3.14h3.79V1.01h.7zm6.537 3.98c0 .24-.007.423-.02.55h-4.53c.02.413.12.767.3 1.06.18.293.417.517.71.67.293.147.613.22.96.22.453 0 .833-.11 1.14-.33.313-.22.52-.517.62-.89h.74c-.133.533-.42.97-.86 1.31-.433.333-.98.5-1.64.5-.513 0-.974-.113-1.38-.34a2.513 2.513 0 01-.96-.98c-.227-.427-.34-.923-.34-1.49s.113-1.063.34-1.49c.226-.427.543-.753.95-.98.407-.227.87-.34 1.39-.34.52 0 .973.113 1.36.34.393.227.693.533.9.92.213.38.32.803.32 1.27zm-.71-.02c.007-.407-.077-.753-.25-1.04a1.623 1.623 0 00-.69-.65 2.116 2.116 0 00-.96-.22c-.52 0-.963.167-1.33.5-.367.333-.57.803-.61 1.41h3.84zm2.34-3.46c-.14 0-.26-.05-.36-.15a.503.503 0 01-.15-.37.47.47 0 01.15-.36c.1-.1.22-.15.36-.15.14 0 .26.05.36.15.1.093.15.213.15.36s-.05.27-.15.37c-.1.1-.22.15-.36.15zm.35 1.03V8h-.7V2.54h.7zm8.086-.1c.64 0 1.16.203 1.56.61.406.4.61.983.61 1.75V8h-.69V4.88c0-.593-.144-1.047-.43-1.36-.287-.313-.677-.47-1.17-.47-.514 0-.924.17-1.23.51-.307.34-.46.833-.46 1.48V8h-.69V4.88c0-.593-.144-1.047-.43-1.36-.287-.313-.68-.47-1.18-.47-.514 0-.924.17-1.23.51-.307.34-.46.833-.46 1.48V8h-.7V2.54h.7v.94c.173-.34.42-.597.74-.77.32-.18.676-.27 1.07-.27.473 0 .886.113 1.24.34.36.227.62.56.78 1 .146-.433.396-.763.75-.99.36-.233.766-.35 1.22-.35zm3.404 2.82c0-.56.11-1.05.33-1.47a2.4 2.4 0 01.93-.98c.4-.233.85-.35 1.35-.35.52 0 .967.12 1.34.36.38.24.654.547.82.92v-1.2h.7V8h-.7V6.79c-.173.373-.45.683-.83.93-.373.24-.82.36-1.34.36a2.61 2.61 0 01-1.34-.35 2.469 2.469 0 01-.93-.99c-.22-.427-.33-.92-.33-1.48zm4.77.01c0-.44-.09-.827-.27-1.16a1.916 1.916 0 00-.74-.77 1.978 1.978 0 00-1.02-.27c-.386 0-.733.087-1.04.26-.306.173-.55.427-.73.76-.173.327-.26.717-.26 1.17 0 .447.087.84.26 1.18.18.333.424.59.73.77.307.173.654.26 1.04.26.374 0 .714-.09 1.02-.27.314-.18.56-.437.74-.77.18-.333.27-.72.27-1.16zm3.208-2.14v3.39c0 .333.064.563.19.69.127.127.35.19.67.19h.64V8h-.75c-.493 0-.86-.113-1.1-.34-.24-.233-.36-.613-.36-1.14V3.13h-.76v-.59h.76V1.17h.71v1.37h1.5v.59h-1.5zM2.74 21.32l1.84-4.78h.74L3.13 22h-.79L.15 16.54H.9l1.84 4.78zm5.919.76c-.514 0-.977-.113-1.39-.34a2.584 2.584 0 01-.97-.98c-.234-.427-.35-.923-.35-1.49s.12-1.06.36-1.48c.24-.427.566-.753.98-.98.413-.233.876-.35 1.39-.35.513 0 .976.117 1.39.35.42.227.746.553.98.98.24.42.36.913.36 1.48 0 .56-.12 1.053-.36 1.48-.24.427-.57.757-.99.99a2.9 2.9 0 01-1.4.34zm0-.61c.36 0 .693-.08 1-.24a1.88 1.88 0 00.74-.74c.193-.333.29-.74.29-1.22s-.094-.883-.28-1.21a1.798 1.798 0 00-.74-.74 2.06 2.06 0 00-1-.25c-.36 0-.694.083-1 .25-.307.16-.554.407-.74.74-.18.327-.27.73-.27 1.21s.09.887.27 1.22a1.9 1.9 0 00.73.74c.306.16.64.24 1 .24zm6.586-5.03c.653 0 1.186.203 1.6.61.413.4.62.983.62 1.75V22h-.69v-3.12c0-.593-.15-1.047-.45-1.36-.294-.313-.697-.47-1.21-.47-.527 0-.947.167-1.26.5-.314.333-.47.823-.47 1.47V22h-.7v-5.46h.7v.93c.173-.333.423-.587.75-.76.326-.18.696-.27 1.11-.27zm10.292-1.43v.58h-3.08v2.61h2.6v.58h-2.6V22h-.7v-6.99h3.78zm3.542 7.07c-.514 0-.977-.113-1.39-.34a2.584 2.584 0 01-.97-.98c-.234-.427-.35-.923-.35-1.49s.12-1.06.36-1.48c.24-.427.566-.753.98-.98.413-.233.876-.35 1.39-.35.513 0 .976.117 1.39.35.42.227.746.553.98.98.24.42.36.913.36 1.48 0 .56-.12 1.053-.36 1.48-.24.427-.57.757-.99.99a2.9 2.9 0 01-1.4.34zm0-.61c.36 0 .693-.08 1-.24a1.88 1.88 0 00.74-.74c.193-.333.29-.74.29-1.22s-.094-.883-.28-1.21a1.798 1.798 0 00-.74-.74 2.06 2.06 0 00-1-.25c-.36 0-.694.083-1 .25-.307.16-.554.407-.74.74-.18.327-.27.73-.27 1.21s.09.887.27 1.22a1.9 1.9 0 00.73.74c.306.16.64.24 1 .24zm4.726-3.96c.153-.34.386-.603.7-.79.32-.187.71-.28 1.17-.28v.73h-.19c-.507 0-.914.137-1.22.41-.307.273-.46.73-.46 1.37V22h-.7v-5.46h.7v.97zm7.863 1.48c0 .24-.007.423-.02.55h-4.53c.02.413.12.767.3 1.06.18.293.416.517.71.67.293.147.613.22.96.22.453 0 .833-.11 1.14-.33.313-.22.52-.517.62-.89h.74c-.134.533-.42.97-.86 1.31-.434.333-.98.5-1.64.5-.514 0-.974-.113-1.38-.34a2.514 2.514 0 01-.96-.98c-.227-.427-.34-.923-.34-1.49s.113-1.063.34-1.49c.226-.427.543-.753.95-.98.406-.227.87-.34 1.39-.34.52 0 .973.113 1.36.34.393.227.693.533.9.92.213.38.32.803.32 1.27zm-.71-.02c.006-.407-.077-.753-.25-1.04a1.621 1.621 0 00-.69-.65 2.116 2.116 0 00-.96-.22c-.52 0-.964.167-1.33.5-.367.333-.57.803-.61 1.41h3.84zm4.85 3.03l-1.41-2.2-1.36 2.2h-.74l1.76-2.73-1.74-2.73h.79l1.39 2.17 1.35-2.17h.73l-1.74 2.7 1.76 2.76h-.79zm9.214-5.46V22h-.7v-.96c-.16.34-.407.6-.74.78-.333.18-.706.27-1.12.27-.653 0-1.187-.2-1.6-.6-.413-.407-.62-.993-.62-1.76v-3.19h.69v3.11c0 .593.147 1.047.44 1.36.3.313.707.47 1.22.47.527 0 .947-.167 1.26-.5.314-.333.47-.823.47-1.47v-2.97h.7zm4.158-.1c.654 0 1.187.203 1.6.61.414.4.62.983.62 1.75V22h-.69v-3.12c0-.593-.15-1.047-.45-1.36-.293-.313-.696-.47-1.21-.47-.526 0-.946.167-1.26.5-.313.333-.47.823-.47 1.47V22h-.7v-5.46h.7v.93c.174-.333.424-.587.75-.76.327-.18.697-.27 1.11-.27zm3.448 2.82c0-.56.114-1.05.34-1.47.227-.427.537-.753.93-.98.4-.233.85-.35 1.35-.35.48 0 .914.117 1.3.35.387.233.67.537.85.91V14.6h.7V22h-.7v-1.22c-.166.38-.44.693-.82.94-.38.24-.826.36-1.34.36-.5 0-.95-.117-1.35-.35a2.47 2.47 0 01-.93-.99c-.22-.427-.33-.92-.33-1.48zm4.77.01c0-.44-.09-.827-.27-1.16a1.916 1.916 0 00-.74-.77 1.977 1.977 0 00-1.02-.27c-.386 0-.733.087-1.04.26-.306.173-.55.427-.73.76-.173.327-.26.717-.26 1.17 0 .447.087.84.26 1.18.18.333.424.59.73.77.307.173.654.26 1.04.26.374 0 .714-.09 1.02-.27.314-.18.56-.437.74-.77.18-.333.27-.72.27-1.16zM1.49 31.74c.173-.367.447-.67.82-.91.38-.247.83-.37 1.35-.37.493 0 .937.117 1.33.35.4.227.71.553.93.98.227.42.34.91.34 1.47 0 .56-.113 1.053-.34 1.48-.22.427-.53.757-.93.99-.393.233-.837.35-1.33.35-.513 0-.96-.12-1.34-.36a2.23 2.23 0 01-.83-.92v3.78H.8v-8.04h.69v1.2zm4.06 1.52c0-.453-.09-.843-.27-1.17a1.805 1.805 0 00-.72-.76 2.077 2.077 0 00-1.04-.26c-.373 0-.717.09-1.03.27-.307.18-.55.437-.73.77-.18.333-.27.72-.27 1.16 0 .44.09.827.27 1.16.18.333.423.59.73.77.313.18.657.27 1.03.27.387 0 .733-.087 1.04-.26a1.87 1.87 0 00.72-.77c.18-.34.27-.733.27-1.18zm2.698-1.75c.153-.34.387-.603.7-.79.32-.187.71-.28 1.17-.28v.73h-.19c-.507 0-.913.137-1.22.41-.307.273-.46.73-.46 1.37V36h-.7v-5.46h.7v.97zm5.313 4.57c-.513 0-.977-.113-1.39-.34a2.584 2.584 0 01-.97-.98c-.233-.427-.35-.923-.35-1.49s.12-1.06.36-1.48c.24-.427.567-.753.98-.98.413-.233.877-.35 1.39-.35.513 0 .977.117 1.39.35.42.227.747.553.98.98.24.42.36.913.36 1.48 0 .56-.12 1.053-.36 1.48-.24.427-.57.757-.99.99a2.9 2.9 0 01-1.4.34zm0-.61c.36 0 .693-.08 1-.24a1.88 1.88 0 00.74-.74c.193-.333.29-.74.29-1.22s-.093-.883-.28-1.21a1.798 1.798 0 00-.74-.74 2.06 2.06 0 00-1-.25c-.36 0-.693.083-1 .25-.307.16-.553.407-.74.74-.18.327-.27.73-.27 1.21s.09.887.27 1.22c.187.327.43.573.73.74.307.16.64.24 1 .24zm6.176-4.34h-1.27V36h-.7v-4.87h-.76v-.59h.76v-.38c0-.593.15-1.03.45-1.31.307-.28.8-.42 1.48-.42v.6c-.453 0-.773.087-.96.26-.18.173-.27.463-.27.87v.38h1.27v.59zm1.452-1.62c-.14 0-.26-.05-.36-.15a.503.503 0 01-.15-.37.47.47 0 01.15-.36c.1-.1.22-.15.36-.15.14 0 .26.05.36.15.1.093.15.213.15.36s-.05.27-.15.37c-.1.1-.22.15-.36.15zm.35 1.03V36h-.7v-5.46h.7zm2.495.59v3.39c0 .333.064.563.19.69.127.127.35.19.67.19h.64v.6h-.75c-.493 0-.86-.113-1.1-.34-.24-.233-.36-.613-.36-1.14v-3.39h-.76v-.59h.76v-1.37h.71v1.37h1.5v.59h-1.5zm3.005-1.62c-.14 0-.26-.05-.36-.15a.503.503 0 01-.15-.37.47.47 0 01.15-.36c.1-.1.22-.15.36-.15.14 0 .26.05.36.15.1.093.15.213.15.36s-.05.27-.15.37c-.1.1-.22.15-.36.15zm.35 1.03V36h-.7v-5.46h.7zm6.525 2.45c0 .24-.007.423-.02.55h-4.53c.02.413.12.767.3 1.06.18.293.416.517.71.67.293.147.613.22.96.22.453 0 .833-.11 1.14-.33.313-.22.52-.517.62-.89h.74c-.134.533-.42.97-.86 1.31-.433.333-.98.5-1.64.5-.514 0-.974-.113-1.38-.34a2.514 2.514 0 01-.96-.98c-.227-.427-.34-.923-.34-1.49s.113-1.063.34-1.49c.227-.427.543-.753.95-.98.407-.227.87-.34 1.39-.34.52 0 .973.113 1.36.34.393.227.693.533.9.92.213.38.32.803.32 1.27zm-.71-.02c.007-.407-.077-.753-.25-1.04a1.621 1.621 0 00-.69-.65 2.116 2.116 0 00-.96-.22c-.52 0-.963.167-1.33.5-.367.333-.57.803-.61 1.41h3.84zm2.69-1.46a1.72 1.72 0 01.7-.79c.32-.187.71-.28 1.17-.28v.73h-.19c-.506 0-.913.137-1.22.41-.306.273-.46.73-.46 1.37V36h-.7v-5.46h.7v.97zm7.864 1.48c0 .24-.007.423-.02.55h-4.53c.02.413.12.767.3 1.06.18.293.416.517.71.67.293.147.613.22.96.22.453 0 .833-.11 1.14-.33.313-.22.52-.517.62-.89h.74c-.134.533-.42.97-.86 1.31-.434.333-.98.5-1.64.5-.514 0-.974-.113-1.38-.34a2.512 2.512 0 01-.96-.98c-.227-.427-.34-.923-.34-1.49s.113-1.063.34-1.49c.226-.427.543-.753.95-.98.406-.227.87-.34 1.39-.34.52 0 .973.113 1.36.34.393.227.693.533.9.92.213.38.32.803.32 1.27zm-.71-.02c.006-.407-.077-.753-.25-1.04a1.623 1.623 0 00-.69-.65 2.116 2.116 0 00-.96-.22c-.52 0-.964.167-1.33.5-.367.333-.57.803-.61 1.41h3.84zm6.674 2.35l1.84-4.78h.74L50.112 36h-.79l-2.19-5.46h.75l1.84 4.78zm5.92.76c-.514 0-.978-.113-1.39-.34a2.584 2.584 0 01-.97-.98c-.234-.427-.35-.923-.35-1.49s.12-1.06.36-1.48c.24-.427.566-.753.98-.98.413-.233.876-.35 1.39-.35.513 0 .976.117 1.39.35.42.227.746.553.98.98.24.42.36.913.36 1.48 0 .56-.12 1.053-.36 1.48-.24.427-.57.757-.99.99a2.9 2.9 0 01-1.4.34zm0-.61c.36 0 .692-.08 1-.24a1.88 1.88 0 00.74-.74c.193-.333.29-.74.29-1.22s-.094-.883-.28-1.21a1.798 1.798 0 00-.74-.74 2.06 2.06 0 00-1-.25c-.36 0-.694.083-1 .25-.308.16-.554.407-.74.74-.18.327-.27.73-.27 1.21s.09.887.27 1.22a1.9 1.9 0 00.73.74c.306.16.64.24 1 .24zm6.585-5.03c.654 0 1.187.203 1.6.61.413.4.62.983.62 1.75V36h-.69v-3.12c0-.593-.15-1.047-.45-1.36-.293-.313-.697-.47-1.21-.47-.526 0-.947.167-1.26.5-.313.333-.47.823-.47 1.47V36h-.7v-5.46h.7v.93c.174-.333.424-.587.75-.76.327-.18.697-.27 1.11-.27zm3.888 5.61a.503.503 0 01-.37-.15.522.522 0 01-.14-.37c0-.147.047-.267.14-.36.1-.1.224-.15.37-.15.14 0 .257.05.35.15.1.093.15.213.15.36s-.05.27-.15.37c-.093.1-.21.15-.35.15zm0-4.35a.503.503 0 01-.37-.15.522.522 0 01-.14-.37c0-.147.047-.267.14-.36.1-.1.224-.15.37-.15.14 0 .257.05.35.15.1.093.15.213.15.36s-.05.27-.15.37c-.093.1-.21.15-.35.15z" fill="#fff"/></svg>