<svg width="120" height="103" viewBox="0 0 120 103" fill="none" xmlns="http://www.w3.org/2000/svg"><path fill="#fff" d="M0 0h120v103H0z"/><path d="M8.166 8.602v.703L6.145 15H4.844l2.03-5.375H4.299V8.602h3.867zm3.533-.014V15h-1.23v-4.9l-1.222.47V9.542l2.32-.954h.132zm1.965 5.784c0-.194.064-.355.193-.484.129-.132.303-.198.523-.198.22 0 .394.066.523.198.129.13.193.29.193.484a.656.656 0 01-.193.483c-.13.129-.303.193-.523.193-.22 0-.394-.064-.523-.193a.656.656 0 01-.193-.483zm5.277-5.84h.163v1.045h-.057c-.278 0-.522.048-.73.145a1.33 1.33 0 00-.514.413 1.856 1.856 0 00-.303.65 3.285 3.285 0 00-.101.849v1.076c0 .223.015.42.044.59.032.17.077.311.136.426a.731.731 0 00.211.25.468.468 0 00.54-.004.745.745 0 00.212-.242c.058-.106.102-.229.131-.37a2.06 2.06 0 00.049-.46c0-.17-.016-.326-.049-.466a1.333 1.333 0 00-.136-.365.671.671 0 00-.215-.242.466.466 0 00-.277-.088.566.566 0 00-.382.136.837.837 0 00-.242.343 1.283 1.283 0 00-.092.435l-.37-.263c.012-.223.053-.433.123-.629.074-.199.173-.378.3-.536.125-.158.276-.281.452-.369.176-.09.373-.136.593-.136.255 0 .478.057.668.171.19.114.349.271.475.47.129.2.224.431.285.695.065.26.097.539.097.835 0 .31-.044.599-.132.865a2.19 2.19 0 01-.373.7 1.69 1.69 0 01-.59.465 1.743 1.743 0 01-.773.167c-.293 0-.558-.062-.795-.185a1.806 1.806 0 01-.606-.523 2.52 2.52 0 01-.383-.808 3.769 3.769 0 01-.131-1.028v-.497c0-.516.06-.987.18-1.415.12-.43.297-.803.531-1.116.238-.314.528-.556.87-.725.346-.173.743-.26 1.191-.26zm3.841 1.638v-.338c0-.243.044-.464.132-.664.09-.199.224-.358.4-.479.179-.12.4-.18.663-.18.267 0 .49.06.668.18.18.12.311.28.396.48.088.199.132.42.132.663v.338c0 .238-.044.456-.132.655a1.1 1.1 0 01-.4.48c-.176.12-.395.18-.66.18-.263 0-.484-.06-.663-.18a1.13 1.13 0 01-.404-.48 1.604 1.604 0 01-.132-.655zm.804-.338v.338c0 .1.015.195.044.286.03.088.074.16.132.215.059.053.132.08.22.08a.3.3 0 00.215-.08.503.503 0 00.123-.215.925.925 0 00.044-.286v-.338a.913.913 0 00-.044-.29.45.45 0 00-.127-.215.307.307 0 00-.22-.084.307.307 0 00-.22.084.503.503 0 00-.127.215c-.026.088-.04.185-.04.29zm1.723 3.942v-.343c0-.24.046-.46.136-.659.091-.2.224-.359.4-.479.179-.12.399-.18.66-.18.269 0 .492.06.667.18.176.12.308.28.396.479.09.2.136.419.136.66v.342c0 .24-.044.46-.132.66a1.105 1.105 0 01-.4.474c-.175.12-.395.18-.659.18s-.486-.06-.668-.18a1.13 1.13 0 01-.404-.48 1.604 1.604 0 01-.132-.654zm.804-.343v.339c0 .102.018.199.053.29.035.088.082.16.14.215a.31.31 0 00.207.079c.106 0 .186-.026.242-.08a.41.41 0 00.11-.214c.02-.091.03-.188.03-.29v-.335a.913.913 0 00-.043-.29.45.45 0 00-.128-.215.291.291 0 00-.215-.083.312.312 0 00-.224.083.48.48 0 00-.132.216.992.992 0 00-.04.285zm.717-3.911l-2.624 5.001-.589-.334 2.624-5.001.589.334zm6.104 4.43v-5.7h1.235V15l-1.117.004-.118-1.054zm-2.466-1.16v-.317c0-.387.032-.725.097-1.015.067-.29.167-.532.299-.725.132-.193.293-.337.483-.43.194-.097.415-.146.664-.146.225 0 .423.057.593.172.173.11.32.268.44.47.12.202.216.44.29.716.073.275.124.577.153.905v.457c-.035.311-.09.601-.162.87-.07.27-.167.505-.29.704-.12.199-.265.356-.435.47-.17.111-.368.167-.594.167-.249 0-.47-.05-.663-.15-.19-.1-.352-.246-.484-.439a2.25 2.25 0 01-.294-.72 4.544 4.544 0 01-.097-.99zm1.23-.317v.317c0 .222.011.414.032.575.023.158.06.289.11.391.052.1.12.175.206.224.085.047.19.07.316.07a.62.62 0 00.4-.122.752.752 0 00.229-.347c.053-.15.082-.321.088-.515v-.83a2.114 2.114 0 00-.057-.435 1.095 1.095 0 00-.137-.33.63.63 0 00-.22-.21.579.579 0 00-.298-.075.631.631 0 00-.317.074.513.513 0 00-.202.233c-.05.103-.088.236-.114.4a4.092 4.092 0 00-.035.58zm5.314 2.615c-.325 0-.614-.05-.866-.15-.249-.1-.46-.243-.633-.43a1.926 1.926 0 01-.395-.69 2.886 2.886 0 01-.137-.923v-.391c0-.387.044-.725.132-1.015.088-.293.213-.54.374-.739.16-.199.359-.347.593-.443.237-.1.505-.15.804-.15.3 0 .561.05.787.15.228.096.417.243.567.44.15.193.262.433.338.72.076.287.114.62.114 1.002v.562h-3.186v-.866h1.978v-.11c0-.193-.02-.354-.062-.483a.556.556 0 00-.193-.294.582.582 0 00-.351-.097.607.607 0 00-.313.075.513.513 0 00-.202.233 1.44 1.44 0 00-.11.413 4.4 4.4 0 00-.035.602v.391c0 .22.02.404.057.554a.98.98 0 00.167.36c.077.09.169.157.277.198.109.038.235.057.378.057a1.346 1.346 0 001.033-.435l.492.747a1.766 1.766 0 01-.351.334 1.92 1.92 0 01-.537.272 2.25 2.25 0 01-.72.106zm3.62-3.784V15h-1.23v-4.755h1.16l.07 1.06zm1.121-1.094l-.017 1.226a2.651 2.651 0 00-.404-.035.847.847 0 00-.352.066.585.585 0 00-.242.189.877.877 0 00-.14.307 1.939 1.939 0 00-.057.418l-.233-.088c0-.31.023-.595.07-.853.05-.26.123-.486.22-.676.096-.194.212-.343.347-.449a.747.747 0 01.466-.158c.058 0 .12.006.184.018.068.009.12.02.158.035zm4.052-1.608V15h-1.287V8.602h1.287zm3.177 0l-2.074 3.177-1.27 1.582-.246-1.288.822-1.37 1.204-2.101h1.564zM47.497 15L46.1 12.06l.944-.835L49.014 15h-1.517zm3.234-6.75V15h-1.234V8.25h1.234zm2.892 6.838c-.325 0-.614-.05-.866-.15-.249-.1-.46-.243-.633-.43a1.927 1.927 0 01-.395-.69 2.886 2.886 0 01-.136-.923v-.391c0-.387.044-.725.132-1.015.087-.293.212-.54.373-.739.161-.199.359-.347.593-.443.238-.1.506-.15.805-.15.298 0 .56.05.786.15.229.096.418.243.567.44.15.193.262.433.339.72.076.287.114.62.114 1.002v.562h-3.186v-.866h1.977v-.11c0-.193-.02-.354-.061-.483a.555.555 0 00-.194-.294.582.582 0 00-.351-.097.608.608 0 00-.312.075.513.513 0 00-.202.233 1.44 1.44 0 00-.11.413 4.415 4.415 0 00-.035.602v.391c0 .22.019.404.057.554a.979.979 0 00.167.36c.076.09.168.157.277.198.108.038.234.057.377.057a1.347 1.347 0 001.033-.435l.492.747a1.766 1.766 0 01-.351.334c-.15.111-.328.202-.536.272a2.25 2.25 0 01-.721.106zm3.683-4.843V15H56.07v-4.755h1.235zm-1.292-1.23c0-.19.06-.348.18-.47a.657.657 0 01.492-.19c.208 0 .372.063.492.19.12.122.18.28.18.47a.646.646 0 01-.184.47.645.645 0 01-.484.184.671.671 0 01-.496-.184.655.655 0 01-.18-.47zm3.476 2.245V15h-1.235v-4.755h1.156l.079 1.015zm-.185 1.2l-.33.009a3.62 3.62 0 01.102-.963c.076-.284.183-.526.32-.725.141-.202.308-.356.501-.461.197-.109.415-.163.655-.163.185 0 .353.033.506.097a.99.99 0 01.4.308c.11.14.197.328.259.562.061.231.092.516.092.853V15h-1.235v-3.032c0-.205-.02-.364-.061-.475a.41.41 0 00-.185-.237.612.612 0 00-.307-.07.51.51 0 00-.313.1.767.767 0 00-.228.269 1.597 1.597 0 00-.136.404c-.03.155-.043.322-.04.501zm5.502 1.446v-2.197a.914.914 0 00-.053-.343.34.34 0 00-.149-.185.433.433 0 00-.237-.061.49.49 0 00-.264.066.404.404 0 00-.158.188.806.806 0 00-.048.295h-1.235c0-.205.04-.399.118-.58.08-.185.195-.346.347-.484.156-.14.34-.25.554-.33.214-.078.454-.118.72-.118.317 0 .599.054.845.163.246.105.44.274.584.505.144.232.215.532.215.901v2.118c0 .267.014.484.04.65.03.168.072.311.127.431V15h-1.239a2.064 2.064 0 01-.127-.492c-.027-.2-.04-.4-.04-.602zm.15-1.81l.004.738h-.453a.768.768 0 00-.307.057.59.59 0 00-.216.162.671.671 0 00-.132.237c-.026.091-.039.188-.039.29 0 .115.016.211.048.29a.373.373 0 00.374.242.709.709 0 00.351-.083.569.569 0 00.22-.202c.05-.08.066-.153.049-.22l.28.479a2.173 2.173 0 01-.144.338 1.431 1.431 0 01-.224.325c-.091.1-.204.182-.339.247a1.104 1.104 0 01-.47.092c-.255 0-.488-.059-.699-.176a1.303 1.303 0 01-.5-.492c-.12-.211-.18-.461-.18-.752 0-.24.037-.457.113-.65a1.28 1.28 0 01.352-.497c.155-.137.352-.243.589-.316a2.84 2.84 0 01.835-.11h.488zm3.208-.836V15H66.93v-4.755h1.155l.08 1.015zm-.185 1.2l-.33.009a3.62 3.62 0 01.101-.963c.077-.284.184-.526.321-.725.14-.202.308-.356.501-.461.197-.109.415-.163.655-.163.185 0 .353.033.505.097a.99.99 0 01.4.308c.112.14.198.328.26.562.061.231.092.516.092.853V15H69.25v-3.032c0-.205-.02-.364-.061-.475a.41.41 0 00-.185-.237.612.612 0 00-.308-.07.51.51 0 00-.312.1.767.767 0 00-.228.269 1.597 1.597 0 00-.137.404c-.029.155-.042.322-.039.501zm4.698-4.21V15h-1.235V8.25h1.235zm2.891 6.838c-.325 0-.613-.05-.865-.15-.25-.1-.46-.243-.633-.43a1.926 1.926 0 01-.396-.69 2.886 2.886 0 01-.136-.923v-.391c0-.387.044-.725.132-1.015.088-.293.212-.54.373-.739.162-.199.36-.347.594-.443.237-.1.505-.15.804-.15.299 0 .56.05.787.15.228.096.417.243.566.44.15.193.263.433.339.72.076.287.114.62.114 1.002v.562h-3.186v-.866h1.978v-.11c0-.193-.021-.354-.062-.483a.555.555 0 00-.193-.294.582.582 0 00-.352-.097.608.608 0 00-.312.075.514.514 0 00-.202.233 1.44 1.44 0 00-.11.413 4.4 4.4 0 00-.035.602v.391c0 .22.019.404.057.554a.979.979 0 00.167.36c.076.09.168.157.277.198.108.038.234.057.378.057a1.346 1.346 0 001.033-.435l.492.747a1.766 1.766 0 01-.352.334 1.92 1.92 0 01-.536.272 2.25 2.25 0 01-.72.106zm4.891-4.843h1.117V15c0 .434-.084.788-.25 1.064a1.458 1.458 0 01-.69.61 2.485 2.485 0 01-1.534.137 2.388 2.388 0 01-.537-.19 1.421 1.421 0 01-.426-.298l.418-.853c.114.114.263.211.448.29.184.082.366.123.545.123a.98.98 0 00.43-.083.521.521 0 00.264-.273c.062-.129.092-.301.092-.518v-3.66l.123-1.104zm-2.654 2.545v-.317c0-.387.037-.725.11-1.015.073-.29.179-.532.316-.725.138-.193.307-.337.506-.43a1.55 1.55 0 01.677-.146c.26 0 .479.057.654.172.176.11.318.268.427.47.11.202.196.44.255.716.061.275.108.577.14.905v.457c-.032.311-.085.601-.158.87-.07.27-.164.505-.281.704-.117.199-.261.356-.431.47-.17.111-.375.167-.615.167-.246 0-.469-.05-.668-.15a1.413 1.413 0 01-.506-.439 2.202 2.202 0 01-.316-.72 4.019 4.019 0 01-.11-.99zm1.235-.317v.317c0 .222.013.414.04.575.029.158.073.289.131.391.059.1.134.175.224.224a.73.73 0 00.33.07c.179 0 .32-.04.426-.122a.724.724 0 00.238-.347 1.7 1.7 0 00.088-.515v-.83a1.78 1.78 0 00-.058-.435 1.093 1.093 0 00-.136-.33.607.607 0 00-.228-.21.656.656 0 00-.321-.075.666.666 0 00-.325.074.602.602 0 00-.229.233 1.325 1.325 0 00-.136.4c-.03.161-.044.355-.044.58zm5.37 2.615c-.325 0-.614-.05-.866-.15-.249-.1-.46-.243-.632-.43a1.926 1.926 0 01-.396-.69 2.886 2.886 0 01-.136-.923v-.391c0-.387.044-.725.132-1.015.088-.293.212-.54.373-.739.161-.199.36-.347.594-.443.237-.1.505-.15.804-.15.298 0 .56.05.786.15.229.096.418.243.567.44.15.193.262.433.339.72.076.287.114.62.114 1.002v.562h-3.186v-.866h1.977v-.11c0-.193-.02-.354-.061-.483a.555.555 0 00-.194-.294.582.582 0 00-.351-.097.608.608 0 00-.312.075.513.513 0 00-.202.233 1.44 1.44 0 00-.11.413 4.4 4.4 0 00-.035.602v.391c0 .22.019.404.057.554a.979.979 0 00.167.36c.076.09.168.157.277.198.108.038.234.057.378.057a1.346 1.346 0 001.033-.435l.492.747a1.766 1.766 0 01-.352.334 1.92 1.92 0 01-.536.272 2.25 2.25 0 01-.72.106zm3.621-3.784V15h-1.23v-4.755h1.16l.07 1.06zm1.12-1.094l-.017 1.226a2.649 2.649 0 00-.404-.035.847.847 0 00-.352.066.585.585 0 00-.241.189.877.877 0 00-.14.307 1.939 1.939 0 00-.058.418l-.233-.088c0-.31.024-.595.07-.853.05-.26.123-.486.22-.676.097-.194.213-.343.347-.449a.747.747 0 01.466-.158c.059 0 .12.006.185.018.067.009.12.02.158.035zm1.86-1.964V15h-1.23V8.246h1.23zm2.5 2l-1.674 2.363-1.006 1.13-.435-.936.773-1.13.874-1.428h1.468zM92.23 15l-1.037-2.184.848-.782L93.64 15h-1.411zm1.718-2.215v-.32c0-.373.044-.702.132-.99.09-.287.22-.527.387-.72.167-.196.368-.344.602-.444.237-.102.502-.154.795-.154.296 0 .561.052.796.154.237.1.44.248.606.444.17.193.3.433.391.72.091.288.136.617.136.99v.32c0 .37-.045.697-.136.985-.09.287-.22.528-.39.725a1.605 1.605 0 01-.603.444c-.234.1-.498.149-.79.149-.294 0-.559-.05-.796-.15a1.643 1.643 0 01-.607-.443c-.17-.197-.3-.438-.39-.725a3.364 3.364 0 01-.133-.985zm1.23-.32v.32c0 .22.015.41.045.571.032.162.077.295.136.4a.627.627 0 00.22.233c.085.05.183.075.294.075.111 0 .211-.025.299-.075a.556.556 0 00.215-.233c.059-.105.101-.238.128-.4.029-.16.044-.351.044-.57v-.322c0-.213-.017-.401-.049-.562a1.324 1.324 0 00-.136-.4.618.618 0 00-.22-.237.518.518 0 00-.29-.084.518.518 0 00-.29.084.684.684 0 00-.215.237 1.325 1.325 0 00-.136.4c-.03.161-.044.349-.044.562zm4.602-1.205V15h-1.235v-4.755H99.7l.079 1.015zm-.185 1.2l-.33.009a3.628 3.628 0 01.102-.963c.076-.284.183-.526.32-.725.141-.202.308-.356.502-.461.196-.109.414-.163.654-.163.185 0 .353.033.506.097a.997.997 0 01.4.308c.111.14.197.328.259.562.061.231.092.516.092.853V15h-1.235v-3.032c0-.205-.02-.364-.061-.475a.411.411 0 00-.185-.237.61.61 0 00-.307-.07.509.509 0 00-.313.1.767.767 0 00-.228.269 1.593 1.593 0 00-.136.404c-.03.155-.043.322-.04.501zm5.48-2.215v.927h-2.426v-.927h2.426zm-1.867-1.173h1.226v4.478c0 .132.013.233.039.303.027.07.066.12.119.15.055.026.129.039.22.039a.86.86 0 00.29-.035v.962c-.097.038-.2.068-.308.088-.105.02-.231.03-.378.03-.246 0-.46-.046-.642-.14a.964.964 0 01-.417-.448c-.1-.208-.149-.48-.149-.817v-4.61zm4.469 6.016c-.325 0-.614-.05-.866-.15-.249-.1-.46-.243-.633-.43a1.926 1.926 0 01-.395-.69 2.88 2.88 0 01-.136-.923v-.391c0-.387.043-.725.131-1.015a2.14 2.14 0 01.374-.739c.161-.199.359-.347.593-.443.237-.1.506-.15.804-.15.299 0 .561.05.787.15.228.096.417.243.567.44.149.193.262.433.338.72.076.287.114.62.114 1.002v.562h-3.186v-.866h1.978v-.11c0-.193-.021-.354-.062-.483a.554.554 0 00-.193-.294.581.581 0 00-.351-.097.605.605 0 00-.312.075.516.516 0 00-.203.233 1.456 1.456 0 00-.109.413 4.308 4.308 0 00-.036.602v.391c0 .22.019.404.058.554a.981.981 0 00.166.36.67.67 0 00.277.198c.109.038.235.057.378.057a1.343 1.343 0 001.033-.435l.492.747a1.776 1.776 0 01-.351.334c-.15.111-.329.202-.537.272-.208.07-.448.106-.72.106zm3.599-3.828V15h-1.235v-4.755h1.156l.079 1.015zm-.185 1.2l-.329.009a3.628 3.628 0 01.101-.963c.076-.284.183-.526.321-.725.14-.202.307-.356.501-.461.196-.109.414-.163.654-.163.185 0 .353.033.506.097a.997.997 0 01.4.308c.111.14.197.328.259.562.061.231.092.516.092.853V15h-1.235v-3.032c0-.205-.02-.364-.061-.475a.411.411 0 00-.185-.237.61.61 0 00-.307-.07.506.506 0 00-.312.1.77.77 0 00-.229.269 1.61 1.61 0 00-.136.404 2.497 2.497 0 00-.04.501zM5.859 24.05l.765-3.805h1.283L6.602 25h-.77l.027-.95zm-.453-3.805l.778 3.81.013.945h-.773l-1.305-4.755h1.287zm4.949 4.843c-.326 0-.614-.05-.866-.15-.25-.1-.46-.243-.633-.43a1.927 1.927 0 01-.396-.69 2.885 2.885 0 01-.136-.923v-.391c0-.387.044-.725.132-1.015.088-.293.212-.54.374-.739.16-.199.358-.347.593-.443.237-.1.505-.15.804-.15.299 0 .561.05.787.15.228.096.417.243.567.44.149.192.262.433.338.72.076.287.114.62.114 1.002v.562H8.847v-.865h1.978v-.11c0-.194-.02-.355-.062-.484a.555.555 0 00-.193-.294.582.582 0 00-.352-.097.608.608 0 00-.312.075.514.514 0 00-.202.233c-.05.105-.086.243-.11.413a4.41 4.41 0 00-.035.602v.391c0 .22.02.404.057.554a.98.98 0 00.167.36c.076.09.169.157.277.198.108.038.234.057.378.057a1.347 1.347 0 001.033-.435l.492.747a1.77 1.77 0 01-.352.334c-.15.111-.328.202-.536.272a2.25 2.25 0 01-.72.106zm3.62-3.784V25h-1.23v-4.755h1.16l.07 1.06zm1.121-1.094l-.017 1.226a2.651 2.651 0 00-.404-.035.846.846 0 00-.352.066.585.585 0 00-.242.189.877.877 0 00-.14.307 1.946 1.946 0 00-.058.418l-.233-.088c0-.31.024-.595.07-.853.05-.26.124-.486.22-.676.097-.194.213-.343.348-.449a.747.747 0 01.465-.158c.059 0 .12.006.185.018.067.009.12.02.158.035zm1.92-1.96V25h-1.234v-6.75h1.235zm2.268 1.995V25H18.05v-4.755h1.235zm-1.292-1.23c0-.19.06-.348.18-.47a.657.657 0 01.493-.19c.208 0 .372.064.492.19.12.122.18.28.18.47a.646.646 0 01-.185.47.645.645 0 01-.483.184.67.67 0 01-.497-.184.655.655 0 01-.18-.47zm4.184 6.073c-.325 0-.614-.05-.866-.15-.249-.1-.46-.243-.633-.43a1.929 1.929 0 01-.395-.69 2.886 2.886 0 01-.137-.923v-.391c0-.387.044-.725.132-1.015.088-.293.213-.54.374-.739.161-.199.359-.347.593-.443.237-.1.506-.15.804-.15.3 0 .561.05.787.15.229.096.417.243.567.44.15.192.262.433.338.72.076.287.115.62.115 1.002v.562h-3.186v-.865h1.977v-.11c0-.194-.02-.355-.062-.484a.555.555 0 00-.193-.294.582.582 0 00-.351-.097.608.608 0 00-.313.075.514.514 0 00-.202.233c-.05.105-.086.243-.11.413a4.417 4.417 0 00-.035.602v.391c0 .22.02.404.058.554a.979.979 0 00.167.36c.076.09.168.157.276.198.109.038.235.057.378.057.217 0 .412-.038.585-.114.175-.08.325-.186.448-.321l.492.747a1.77 1.77 0 01-.351.334c-.15.111-.328.202-.537.272a2.25 2.25 0 01-.72.106zm3.62-3.784V25h-1.23v-4.755h1.16l.07 1.06zm1.122-1.094l-.018 1.226a2.651 2.651 0 00-.404-.035.847.847 0 00-.352.066.587.587 0 00-.242.189.877.877 0 00-.14.307 1.94 1.94 0 00-.057.418l-.233-.088c0-.31.023-.595.07-.853.05-.26.123-.486.22-.676.096-.194.212-.343.347-.449a.747.747 0 01.466-.158c.058 0 .12.006.184.018.068.009.12.02.159.035zm2.456 4.878c-.325 0-.614-.05-.866-.15-.249-.1-.46-.243-.633-.43a1.926 1.926 0 01-.395-.69 2.886 2.886 0 01-.136-.923v-.391c0-.387.044-.725.132-1.015.088-.293.212-.54.373-.739.161-.199.359-.347.593-.443.238-.1.506-.15.805-.15.298 0 .56.05.786.15.229.096.418.243.567.44.15.192.262.433.338.72.077.287.115.62.115 1.002v.562h-3.186v-.865h1.977v-.11c0-.194-.02-.355-.061-.484a.556.556 0 00-.194-.294.582.582 0 00-.351-.097.607.607 0 00-.312.075.513.513 0 00-.202.233 1.44 1.44 0 00-.11.413 4.4 4.4 0 00-.035.602v.391c0 .22.019.404.057.554a.98.98 0 00.167.36c.076.09.168.157.277.198.108.038.234.057.378.057a1.346 1.346 0 001.033-.435l.491.747a1.766 1.766 0 01-.351.334 1.92 1.92 0 01-.536.272 2.25 2.25 0 01-.721.106zm3.6-3.828V25h-1.236v-4.755h1.156l.08 1.015zm-.185 1.2l-.33.009a3.62 3.62 0 01.101-.963c.076-.284.183-.526.32-.725.142-.202.308-.356.502-.461.196-.109.414-.163.655-.163.184 0 .353.032.505.097a.99.99 0 01.4.307c.111.141.198.329.26.563.06.232.092.516.092.853V25h-1.235v-3.032c0-.205-.02-.363-.062-.475a.41.41 0 00-.184-.237.612.612 0 00-.308-.07.51.51 0 00-.312.1.767.767 0 00-.229.269 1.597 1.597 0 00-.136.404c-.03.155-.042.322-.04.501zm9.887-.822v2.637a2.588 2.588 0 01-1.081.672c-.278.094-.618.14-1.02.14-.354 0-.676-.055-.966-.166a1.961 1.961 0 01-.743-.505 2.305 2.305 0 01-.47-.853 4.055 4.055 0 01-.163-1.217v-1.09c0-.463.052-.866.154-1.209.106-.345.258-.632.457-.861.2-.229.437-.398.712-.51.279-.111.592-.167.94-.167.481 0 .875.08 1.183.242.31.161.545.4.703.716.161.317.258.705.29 1.165h-1.244c-.02-.27-.066-.48-.136-.633a.643.643 0 00-.286-.325.993.993 0 00-.479-.101c-.17 0-.318.03-.444.092a.747.747 0 00-.316.29 1.51 1.51 0 00-.189.519 4.133 4.133 0 00-.061.773v1.099c0 .302.023.56.07.773.047.214.116.388.206.523.094.135.211.233.352.294.144.06.312.088.505.088.156 0 .28-.016.374-.048a1.09 1.09 0 00.224-.101c.059-.038.107-.067.145-.088V22.61h-.918v-.97h2.201zm2.782 3.45c-.325 0-.614-.05-.866-.15-.249-.1-.46-.243-.633-.43a1.926 1.926 0 01-.395-.69 2.883 2.883 0 01-.136-.923v-.391c0-.387.044-.725.132-1.015.087-.293.212-.54.373-.739.161-.199.359-.347.593-.443.238-.1.506-.15.805-.15.298 0 .56.05.786.15.229.096.418.243.567.44.15.192.262.433.339.72.076.287.114.62.114 1.002v.562H43.95v-.865h1.977v-.11c0-.194-.02-.355-.061-.484a.555.555 0 00-.194-.294.582.582 0 00-.351-.097.607.607 0 00-.312.075.513.513 0 00-.202.233 1.44 1.44 0 00-.11.413 4.4 4.4 0 00-.035.602v.391c0 .22.019.404.057.554a.98.98 0 00.167.36c.076.09.168.157.277.198.108.038.234.057.377.057a1.346 1.346 0 001.033-.435l.492.747a1.767 1.767 0 01-.351.334c-.15.111-.328.202-.536.272a2.25 2.25 0 01-.721.106zm3.683-6.838V25h-1.235v-6.75h1.235zm3.278 5.7v-5.7h1.235V25l-1.116.004-.12-1.054zm-2.465-1.16v-.317c0-.387.032-.725.096-1.015.068-.29.167-.532.3-.725.131-.193.292-.337.483-.43.193-.097.414-.146.663-.146.226 0 .423.057.593.172.173.11.32.268.44.47.12.202.217.44.29.716.073.276.124.577.154.905v.457c-.035.311-.09.601-.163.87-.07.27-.167.505-.29.704-.12.199-.265.356-.435.47-.17.111-.368.167-.593.167-.25 0-.47-.05-.664-.15-.19-.1-.351-.246-.483-.439a2.25 2.25 0 01-.295-.72 4.538 4.538 0 01-.096-.99zm1.23-.317v.317c0 .222.01.414.03.575.024.158.06.289.11.391.053.1.122.175.207.224a.65.65 0 00.317.07.62.62 0 00.4-.122.752.752 0 00.228-.347 1.7 1.7 0 00.088-.515v-.83a2.113 2.113 0 00-.057-.435 1.093 1.093 0 00-.136-.33.63.63 0 00-.22-.21.58.58 0 00-.299-.075.631.631 0 00-.316.074.514.514 0 00-.203.233c-.05.103-.087.236-.114.4a4.108 4.108 0 00-.035.58zm5.476-4.223h1.226v5.647L57.798 25H56.66v-6.75zm3.696 4.214v.312c0 .387-.031.724-.093 1.011-.058.287-.15.527-.277.72a1.185 1.185 0 01-.474.436 1.516 1.516 0 01-.686.145 1.09 1.09 0 01-.61-.167 1.425 1.425 0 01-.431-.47 3.074 3.074 0 01-.282-.708 5.941 5.941 0 01-.153-.892v-.461c.029-.317.079-.611.149-.884a2.97 2.97 0 01.281-.707 1.33 1.33 0 01.426-.47c.173-.115.377-.172.611-.172.27 0 .501.05.695.15.193.096.351.241.474.435.126.193.219.435.277.725a4.8 4.8 0 01.093.997zm-1.227.312v-.312c0-.22-.008-.408-.026-.566a1.346 1.346 0 00-.097-.396.507.507 0 00-.202-.237.636.636 0 00-.338-.08.616.616 0 00-.317.075.625.625 0 00-.22.211c-.058.091-.102.2-.131.325-.026.123-.041.26-.044.41v.83c.003.202.028.38.075.536a.725.725 0 00.224.36.653.653 0 00.422.128.69.69 0 00.334-.07.466.466 0 00.197-.225c.05-.102.082-.234.097-.395.018-.164.026-.362.026-.594zm3.898 2.312c-.325 0-.613-.05-.865-.15-.25-.1-.46-.243-.633-.43a1.927 1.927 0 01-.396-.69 2.886 2.886 0 01-.136-.923v-.391c0-.387.044-.725.132-1.015.088-.293.212-.54.373-.739.162-.199.36-.347.594-.443.237-.1.505-.15.804-.15.299 0 .56.05.787.15.228.096.417.243.566.44.15.192.263.433.339.72.076.287.114.62.114 1.002v.562H61.52v-.865h1.978v-.11c0-.194-.02-.355-.062-.484a.555.555 0 00-.193-.294.582.582 0 00-.352-.097.608.608 0 00-.312.075.513.513 0 00-.202.233c-.05.105-.087.243-.11.413a4.415 4.415 0 00-.035.602v.391c0 .22.019.404.057.554a.977.977 0 00.167.36c.076.09.168.157.277.198.108.038.234.057.378.057a1.347 1.347 0 001.033-.435l.492.747a1.766 1.766 0 01-.352.334c-.15.111-.328.202-.536.272a2.25 2.25 0 01-.72.106zm3.683-4.843V25h-1.235v-4.755h1.235zm-1.292-1.23c0-.19.06-.348.18-.47a.657.657 0 01.492-.19c.208 0 .372.064.492.19.12.122.18.28.18.47a.646.646 0 01-.184.47.645.645 0 01-.483.184.671.671 0 01-.497-.184.655.655 0 01-.18-.47zm3.507 2.215V25H67.69v-4.755h1.16l.075.985zm-.176 1.23l-.338.009a3.834 3.834 0 01.088-.923c.064-.281.16-.526.29-.734.131-.208.297-.37.496-.483.2-.115.432-.172.699-.172.173 0 .332.032.479.097a.97.97 0 01.382.294c.109.132.192.305.25.519.06.21.089.464.089.76V25h-1.23v-3.023c0-.211-.021-.372-.062-.484a.424.424 0 00-.176-.237.527.527 0 00-.281-.07.506.506 0 00-.308.096.704.704 0 00-.215.273 1.734 1.734 0 00-.123.404 2.99 2.99 0 00-.04.501zm2.316-.123l-.444.057a3.62 3.62 0 01.084-.874c.061-.273.156-.51.285-.712.13-.206.29-.365.484-.48a1.33 1.33 0 01.68-.17c.194 0 .37.031.528.096a.97.97 0 01.404.312c.115.14.201.327.26.558.061.232.092.513.092.844V25h-1.235v-3.028c0-.214-.02-.378-.061-.492-.041-.114-.1-.192-.176-.233a.567.567 0 00-.273-.061.452.452 0 00-.276.087.697.697 0 00-.194.247 1.337 1.337 0 00-.118.364c-.027.138-.04.289-.04.453zm8.486.532h1.279c-.018.48-.115.886-.29 1.217a1.761 1.761 0 01-.752.747c-.322.17-.712.255-1.169.255-.354 0-.67-.059-.945-.176a1.888 1.888 0 01-.703-.527 2.347 2.347 0 01-.44-.857 4.37 4.37 0 01-.144-1.182V21.26c0-.445.051-.84.153-1.182.106-.343.255-.63.449-.861.196-.235.432-.41.707-.527.279-.12.592-.18.94-.18.467 0 .856.087 1.17.263.313.176.555.432.725.769.173.334.277.743.312 1.226H79.56c-.01-.305-.044-.543-.106-.716-.058-.176-.152-.3-.281-.37-.13-.073-.308-.11-.536-.11-.17 0-.317.032-.44.093a.708.708 0 00-.303.286c-.08.131-.138.304-.176.518a4.916 4.916 0 00-.053.782v1.095c0 .302.017.56.049.773.032.211.083.384.154.519.07.134.165.233.285.294.123.062.279.092.466.092.217 0 .391-.032.523-.096a.602.602 0 00.299-.347c.064-.167.101-.405.11-.712zm3.37-4.267V25h-1.287v-6.398h1.287zm2.004 2.72v1.063h-2.329v-1.063h2.33zm.246-2.72v1.067h-2.575v-1.067h2.575zM87.593 25h-1.13l.01-1.064h1.12c.31 0 .552-.055.725-.166.173-.112.294-.288.365-.528.073-.24.11-.555.11-.945V21.3c0-.296-.02-.547-.058-.752a1.228 1.228 0 00-.193-.5.803.803 0 00-.365-.286 1.52 1.52 0 00-.567-.093h-1.169v-1.067h1.17c.368 0 .704.06 1.006.18.301.12.56.296.777.527.217.229.384.511.501.848.118.337.176.72.176 1.152v.988c0 .434-.058.818-.175 1.152a2.37 2.37 0 01-.502.848 2.107 2.107 0 01-.777.523c-.305.12-.646.18-1.024.18zm-.383-6.398V25h-1.287v-6.398h1.287zm5.955 3.142v1.024h-2.14v-1.024h2.14zm-85.1 9.45v1.064H5.44v-1.064h2.624zm-2.259-2.592V35H4.52v-6.398h1.287zm3.19 0V35H7.723v-6.398h1.275zm3.085 5.304v-2.197a.914.914 0 00-.052-.343.34.34 0 00-.15-.185.433.433 0 00-.237-.061.49.49 0 00-.264.066.404.404 0 00-.158.189.806.806 0 00-.048.294H9.937c0-.205.04-.399.119-.58.079-.185.195-.346.347-.483.155-.141.34-.251.553-.33.214-.08.455-.119.721-.119.317 0 .598.054.844.163.246.105.44.274.584.505.144.232.216.532.216.901v2.118c0 .267.013.484.04.65.029.168.071.311.127.431V35h-1.24a2.064 2.064 0 01-.127-.492c-.026-.2-.04-.4-.04-.602zm.15-1.81l.004.738h-.452a.768.768 0 00-.308.057.591.591 0 00-.215.162.671.671 0 00-.132.238c-.026.09-.04.187-.04.29 0 .114.017.21.049.29a.373.373 0 00.373.241.709.709 0 00.352-.083.569.569 0 00.22-.202c.05-.08.066-.153.048-.22l.281.479a2.173 2.173 0 01-.145.338 1.431 1.431 0 01-.224.325c-.09.1-.204.182-.338.247a1.104 1.104 0 01-.47.092c-.255 0-.488-.059-.7-.176a1.303 1.303 0 01-.5-.492c-.12-.211-.18-.462-.18-.752 0-.24.038-.457.114-.65.079-.196.196-.362.351-.496.156-.138.352-.244.59-.317a2.84 2.84 0 01.834-.11h.488zm3.208-.836V35h-1.235v-4.755h1.156l.079 1.015zm-.185 1.2l-.33.009a3.62 3.62 0 01.102-.963c.076-.284.183-.526.32-.725.141-.202.308-.356.502-.461.196-.109.414-.163.654-.163.185 0 .354.032.506.097a.99.99 0 01.4.307c.111.141.197.329.259.563.061.232.092.516.092.853V35h-1.235v-3.032c0-.205-.02-.363-.061-.475a.41.41 0 00-.185-.237.612.612 0 00-.307-.07.51.51 0 00-.312.1.767.767 0 00-.229.269 1.597 1.597 0 00-.136.404c-.03.155-.043.322-.04.501zm5.709 1.49v-5.7h1.235V35l-1.117.004-.118-1.054zm-2.465-1.16v-.317c0-.387.032-.725.096-1.015.068-.29.167-.532.3-.725.13-.193.292-.337.483-.43.193-.097.414-.146.663-.146.226 0 .423.057.593.172.173.11.32.268.44.47.12.202.217.44.29.716.073.276.124.577.154.905v.457c-.036.311-.09.601-.163.87-.07.27-.167.505-.29.704-.12.199-.265.356-.435.47-.17.111-.368.167-.593.167-.25 0-.47-.05-.664-.15-.19-.1-.352-.246-.483-.439a2.25 2.25 0 01-.295-.72 4.544 4.544 0 01-.096-.99zm1.23-.317v.317c0 .222.01.414.03.575.024.158.06.289.11.391.053.1.122.175.207.224.085.047.19.07.317.07a.62.62 0 00.4-.122.752.752 0 00.228-.347c.053-.15.082-.321.088-.515v-.83a2.114 2.114 0 00-.057-.435 1.095 1.095 0 00-.136-.33.63.63 0 00-.22-.21.579.579 0 00-.299-.075.63.63 0 00-.316.074.513.513 0 00-.203.233c-.05.103-.087.236-.114.4a4.092 4.092 0 00-.035.58zm5.313 2.615c-.325 0-.614-.05-.866-.15-.249-.1-.46-.243-.633-.43a1.926 1.926 0 01-.395-.69 2.886 2.886 0 01-.136-.923v-.391c0-.387.044-.725.132-1.015.087-.293.212-.54.373-.739.161-.199.359-.347.593-.443.238-.1.506-.15.805-.15.298 0 .56.05.786.15.229.096.418.243.567.44.15.192.262.433.338.72.077.287.115.62.115 1.002v.562h-3.186v-.865h1.977v-.11c0-.194-.02-.355-.061-.484a.555.555 0 00-.194-.294.581.581 0 00-.351-.097.607.607 0 00-.312.075.513.513 0 00-.202.233 1.44 1.44 0 00-.11.413 4.4 4.4 0 00-.035.602v.391c0 .22.019.404.057.554a.98.98 0 00.167.36c.076.09.168.157.277.198.108.038.234.057.378.057a1.346 1.346 0 001.033-.435l.491.747a1.766 1.766 0 01-.351.334 1.92 1.92 0 01-.536.272 2.25 2.25 0 01-.721.106zm3.683-6.838V35h-1.235v-6.75h1.235zm4.289 2.98V35h-1.235v-4.755h1.16l.075.985zm-.176 1.23l-.339.009a3.834 3.834 0 01.088-.923c.065-.281.162-.526.29-.734.132-.208.298-.37.497-.483.2-.115.432-.172.699-.172.173 0 .332.032.479.097a.97.97 0 01.382.294c.108.132.192.305.25.519.06.21.089.464.089.76V35H34.04v-3.023c0-.211-.02-.372-.061-.484a.424.424 0 00-.176-.237.527.527 0 00-.282-.07.507.507 0 00-.307.096.704.704 0 00-.216.273 1.734 1.734 0 00-.123.404 2.99 2.99 0 00-.04.501zm2.316-.123l-.444.057a3.62 3.62 0 01.083-.874c.062-.273.157-.51.286-.712.129-.206.29-.365.483-.48a1.33 1.33 0 01.682-.17c.193 0 .369.031.527.096a.97.97 0 01.404.312c.115.14.201.327.26.558.061.232.092.513.092.844V35H36.29v-3.028c0-.214-.02-.378-.061-.492-.041-.114-.1-.192-.176-.233a.567.567 0 00-.273-.061.452.452 0 00-.277.087.697.697 0 00-.193.247 1.337 1.337 0 00-.119.364c-.026.138-.04.289-.04.453zm4.592-2.092V35H38.51v-4.755h1.235zm-1.292-1.23c0-.19.06-.348.18-.47a.657.657 0 01.492-.19c.209 0 .373.064.493.19.12.122.18.28.18.47a.647.647 0 01-.185.47.645.645 0 01-.483.184.671.671 0 01-.497-.184.655.655 0 01-.18-.47zm4.342 1.23v.927h-2.426v-.927h2.426zm-1.868-1.173h1.226v4.478c0 .132.014.233.04.303a.27.27 0 00.119.15c.055.026.128.039.22.039a.84.84 0 00.29-.035v.962c-.097.038-.2.068-.308.088a2.01 2.01 0 01-.378.03c-.246 0-.46-.046-.642-.14a.96.96 0 01-.417-.448c-.1-.208-.15-.48-.15-.817v-4.61zm6.93 4.878v-5.7h1.235V35l-1.116.004-.119-1.054zm-2.465-1.16v-.317c0-.387.032-.725.097-1.015.067-.29.167-.532.299-.725.131-.193.293-.337.483-.43.193-.097.414-.146.664-.146.225 0 .423.057.593.172.173.11.32.268.44.47.12.202.216.44.29.716.073.276.124.577.153.905v.457c-.035.311-.09.601-.163.87-.07.27-.166.505-.29.704-.12.199-.265.356-.435.47-.17.111-.367.167-.593.167-.249 0-.47-.05-.663-.15-.19-.1-.352-.246-.484-.439a2.25 2.25 0 01-.294-.72 4.538 4.538 0 01-.097-.99zm1.23-.317v.317c0 .222.01.414.031.575.024.158.06.289.11.391.053.1.122.175.207.224a.65.65 0 00.316.07.62.62 0 00.4-.122.753.753 0 00.229-.347c.052-.15.082-.321.087-.515v-.83a2.114 2.114 0 00-.057-.435 1.093 1.093 0 00-.136-.33.63.63 0 00-.22-.21.58.58 0 00-.298-.075.631.631 0 00-.317.074.514.514 0 00-.202.233c-.05.103-.088.236-.114.4a4.108 4.108 0 00-.035.58zm4.69-2.228V35h-1.235v-4.755h1.235zm-1.292-1.23c0-.19.06-.348.18-.47a.657.657 0 01.492-.19c.208 0 .372.064.492.19.12.122.18.28.18.47a.647.647 0 01-.184.47.645.645 0 01-.484.184.671.671 0 01-.496-.184.655.655 0 01-.18-.47zm4.183 6.073c-.325 0-.614-.05-.866-.15-.249-.1-.46-.243-.632-.43a1.926 1.926 0 01-.396-.69 2.886 2.886 0 01-.136-.923v-.391c0-.387.044-.725.132-1.015.088-.293.212-.54.373-.739.161-.199.36-.347.594-.443.237-.1.505-.15.804-.15.298 0 .56.05.786.15.229.096.418.243.567.44.15.192.262.433.339.72.076.287.114.62.114 1.002v.562h-3.186v-.865h1.977v-.11c0-.194-.02-.355-.061-.484a.556.556 0 00-.194-.294.582.582 0 00-.351-.097.607.607 0 00-.312.075.513.513 0 00-.202.233 1.44 1.44 0 00-.11.413 4.4 4.4 0 00-.035.602v.391c0 .22.019.404.057.554a.98.98 0 00.167.36c.076.09.168.157.277.198.108.038.234.057.378.057a1.346 1.346 0 001.033-.435l.492.747a1.766 1.766 0 01-.352.334 1.92 1.92 0 01-.536.272 2.25 2.25 0 01-.72.106zm4.5-1.371a.327.327 0 00-.083-.22.987.987 0 00-.264-.198c-.12-.07-.28-.148-.479-.233a5.069 5.069 0 01-.576-.272 2.026 2.026 0 01-.426-.312 1.154 1.154 0 01-.26-.391 1.34 1.34 0 01-.087-.501c0-.202.037-.388.11-.558.076-.173.184-.324.325-.453.14-.132.312-.234.514-.308.205-.076.435-.114.69-.114.357 0 .664.063.918.19.258.122.456.295.594.518.137.222.206.482.206.778h-1.23c0-.106-.016-.2-.049-.282a.393.393 0 00-.158-.197.508.508 0 00-.285-.07.454.454 0 00-.4.21.409.409 0 00-.057.22c0 .064.013.121.04.171.028.05.074.099.135.145.062.047.144.097.246.15a7.4 7.4 0 00.387.167c.317.117.576.243.778.378.205.134.357.293.457.474.1.179.15.4.15.664 0 .21-.042.403-.124.575-.079.173-.194.323-.347.449a1.61 1.61 0 01-.55.29c-.21.067-.446.1-.707.1-.383 0-.707-.075-.97-.228a1.572 1.572 0 01-.599-.584 1.508 1.508 0 01-.202-.747h1.17a.808.808 0 00.087.373c.056.088.13.15.224.185a.882.882 0 00.312.053.765.765 0 00.282-.044.35.35 0 00.171-.145.465.465 0 00.057-.233zm3.894 1.37c-.325 0-.614-.049-.866-.149-.25-.1-.46-.243-.633-.43a1.929 1.929 0 01-.395-.69 2.886 2.886 0 01-.137-.923v-.391c0-.387.044-.725.132-1.015.088-.293.213-.54.374-.739.16-.199.359-.347.593-.443.237-.1.505-.15.804-.15.3 0 .561.05.787.15.228.096.417.243.567.44.15.192.262.433.338.72.076.287.114.62.114 1.002v.562H61.09v-.865h1.978v-.11c0-.194-.02-.355-.062-.484a.555.555 0 00-.193-.294.582.582 0 00-.352-.097.608.608 0 00-.312.075.514.514 0 00-.202.233c-.05.105-.086.243-.11.413a4.417 4.417 0 00-.035.602v.391c0 .22.02.404.057.554a.979.979 0 00.167.36c.077.09.169.157.277.198.109.038.235.057.378.057a1.347 1.347 0 001.033-.435l.492.747a1.77 1.77 0 01-.352.334c-.149.111-.328.202-.536.272a2.25 2.25 0 01-.72.106zm3.63-3.858V35h-1.235v-4.755h1.16l.075.985zm-.176 1.231l-.339.009a3.824 3.824 0 01.088-.923 2.4 2.4 0 01.29-.734c.132-.208.298-.37.497-.483.2-.115.432-.172.699-.172.172 0 .332.032.479.097a.97.97 0 01.382.294c.108.132.192.305.25.519.06.21.088.464.088.76V35h-1.23v-3.023c0-.211-.02-.372-.062-.484a.425.425 0 00-.175-.237.527.527 0 00-.282-.07.506.506 0 00-.307.096.702.702 0 00-.216.273 1.729 1.729 0 00-.123.404c-.026.155-.04.322-.04.501zm2.316-.123l-.444.057a3.62 3.62 0 01.083-.874c.062-.273.157-.51.286-.712.129-.206.29-.365.483-.48a1.33 1.33 0 01.681-.17c.194 0 .37.031.528.096a.97.97 0 01.404.312c.114.14.2.327.26.558.061.232.092.513.092.844V35h-1.235v-3.028c0-.214-.02-.378-.062-.492-.04-.114-.1-.192-.175-.233a.567.567 0 00-.273-.061.452.452 0 00-.277.087.696.696 0 00-.193.247 1.337 1.337 0 00-.119.364c-.026.138-.04.289-.04.453zm7.752-2.593L74.743 35h-1.358l2-6.398h.848l-.114 1.142zM77.204 35l-1.384-5.256-.128-1.142h.862L78.57 35h-1.367zm.048-2.386v1.068h-2.887v-1.068h2.887zm2.866-1.354V35h-1.235v-4.755h1.156l.079 1.015zm-.185 1.2l-.33.009a3.624 3.624 0 01.102-.963c.076-.284.183-.526.32-.725.141-.202.308-.356.501-.461.197-.109.415-.163.655-.163.185 0 .353.032.505.097a.99.99 0 01.4.307c.112.141.198.329.26.563.061.232.092.516.092.853V35h-1.235v-3.032c0-.205-.02-.363-.061-.475a.41.41 0 00-.185-.237.612.612 0 00-.308-.07.51.51 0 00-.312.1.767.767 0 00-.228.269 1.593 1.593 0 00-.136.404c-.03.155-.043.322-.04.501zm3.41-4.21h1.226v5.647L84.481 35h-1.138v-6.75zm3.696 4.214v.312c0 .387-.03.724-.092 1.011-.059.287-.151.528-.277.72a1.185 1.185 0 01-.475.436 1.516 1.516 0 01-.685.145 1.09 1.09 0 01-.611-.167 1.424 1.424 0 01-.43-.47 3.074 3.074 0 01-.282-.708 5.941 5.941 0 01-.154-.892v-.461c.03-.317.08-.611.15-.884a2.97 2.97 0 01.28-.707 1.33 1.33 0 01.427-.47c.173-.115.377-.172.611-.172.27 0 .501.05.694.15.194.096.352.241.475.435.126.193.218.435.277.725a4.8 4.8 0 01.092.997zm-1.226.312v-.312c0-.22-.009-.408-.026-.566a1.346 1.346 0 00-.097-.396.507.507 0 00-.202-.237.636.636 0 00-.339-.08.616.616 0 00-.316.075.625.625 0 00-.22.211c-.058.091-.102.2-.132.325a2.16 2.16 0 00-.043.41v.83c.002.202.027.38.074.536a.725.725 0 00.224.36.653.653 0 00.422.128.69.69 0 00.334-.07.467.467 0 00.198-.225c.05-.102.082-.234.097-.395.017-.164.026-.362.026-.594zm3.274-2.53V35h-1.235v-4.755h1.235zm-1.292-1.231c0-.19.06-.348.18-.47a.657.657 0 01.492-.19c.208 0 .372.064.493.19.12.122.18.28.18.47a.647.647 0 01-.185.47.645.645 0 01-.483.184.671.671 0 01-.497-.184.655.655 0 01-.18-.47zm4.183 6.073c-.325 0-.613-.05-.865-.15-.25-.1-.46-.243-.633-.43a1.926 1.926 0 01-.395-.69 2.886 2.886 0 01-.137-.923v-.391c0-.387.044-.725.132-1.015.088-.293.213-.54.374-.739.16-.199.359-.347.593-.443.237-.1.505-.15.804-.15.299 0 .561.05.787.15.228.096.417.243.567.44.149.192.262.433.338.72.076.287.114.62.114 1.002v.562h-3.186v-.865h1.978v-.11c0-.194-.02-.355-.062-.484a.555.555 0 00-.193-.294.581.581 0 00-.352-.097.607.607 0 00-.312.075.513.513 0 00-.202.233 1.44 1.44 0 00-.11.413 4.4 4.4 0 00-.035.602v.391c0 .22.02.404.057.554a.98.98 0 00.167.36c.076.09.169.157.277.198.109.038.234.057.378.057a1.346 1.346 0 001.033-.435l.492.747a1.766 1.766 0 01-.352.334 1.92 1.92 0 01-.536.272 2.25 2.25 0 01-.72.106zm4.465-4.843v.927h-2.425v-.927h2.425zm-1.867-1.173h1.226v4.478c0 .132.013.233.04.303a.27.27 0 00.118.15c.056.026.129.039.22.039a.837.837 0 00.29-.035v.962c-.097.038-.2.068-.308.088-.105.02-.231.03-.378.03-.246 0-.46-.046-.641-.14a.96.96 0 01-.418-.448c-.1-.208-.15-.48-.15-.817v-4.61zm4.469 6.016c-.325 0-.614-.05-.866-.15-.249-.1-.46-.243-.633-.43a1.926 1.926 0 01-.395-.69 2.886 2.886 0 01-.136-.923v-.391c0-.387.044-.725.132-1.015.087-.293.212-.54.373-.739.161-.199.359-.347.593-.443.238-.1.506-.15.805-.15.298 0 .56.05.786.15.229.096.418.243.567.44.149.192.262.433.338.72.077.287.115.62.115 1.002v.562h-3.186v-.865h1.977v-.11c0-.194-.02-.355-.061-.484a.556.556 0 00-.194-.294.582.582 0 00-.351-.097.607.607 0 00-.312.075.513.513 0 00-.203.233 1.44 1.44 0 00-.11.413 4.4 4.4 0 00-.035.602v.391c0 .22.02.404.058.554a.98.98 0 00.167.36c.076.09.168.157.276.198.109.038.235.057.378.057a1.346 1.346 0 001.033-.435l.492.747a1.776 1.776 0 01-.351.334c-.15.111-.328.202-.536.272a2.25 2.25 0 01-.721.106zm3.621-3.784V35h-1.23v-4.755h1.16l.07 1.06zm1.121-1.094l-.018 1.226a2.655 2.655 0 00-.404-.035.849.849 0 00-.352.066.595.595 0 00-.242.189.882.882 0 00-.14.307 1.965 1.965 0 00-.057.418l-.233-.088c0-.31.023-.595.07-.853.05-.26.123-.486.22-.676.097-.194.212-.343.347-.449a.748.748 0 01.466-.158c.058 0 .12.006.184.018.068.009.121.02.159.035zm-.027 4.162c0-.194.065-.355.194-.484.129-.132.303-.198.523-.198.219 0 .394.066.523.198.128.13.193.29.193.484a.66.66 0 01-.193.483c-.129.129-.304.193-.523.193-.22 0-.394-.064-.523-.193a.656.656 0 01-.194-.483zm-96.275 9.01c0-.319-.087-.563-.26-.733-.172-.17-.484-.336-.935-.497-.452-.16-.797-.33-1.038-.505a1.857 1.857 0 01-.536-.606 1.69 1.69 0 01-.175-.783c0-.507.168-.924.505-1.252.34-.328.784-.492 1.331-.492.375 0 .71.085 1.002.255.293.166.519.4.677.698.158.3.237.627.237.985h-.808c0-.396-.095-.702-.286-.919-.19-.217-.464-.325-.822-.325-.325 0-.577.09-.755.273-.18.181-.268.436-.268.764 0 .27.096.495.29.677.193.181.492.344.896.488.63.208 1.08.464 1.35.769.272.304.408.703.408 1.195 0 .519-.169.935-.506 1.248-.336.31-.795.466-1.375.466-.372 0-.716-.08-1.033-.242a1.884 1.884 0 01-.742-.685 1.924 1.924 0 01-.268-1.016h.808c0 .396.11.704.33.923.222.22.524.33.905.33.354 0 .621-.09.8-.273.179-.181.268-.429.268-.742zM10.086 45H9.31v-4.755h.777V45zm.062-6.016a.498.498 0 01-.11.33c-.073.087-.184.131-.334.131-.146 0-.256-.044-.33-.132a.498.498 0 01-.11-.33c0-.13.037-.242.11-.333.074-.09.184-.136.33-.136.147 0 .256.046.33.14.076.091.114.201.114.33zm2.865 6.104c-.592 0-1.046-.176-1.362-.528-.316-.354-.478-.873-.483-1.555v-.576c0-.709.153-1.264.46-1.665.312-.405.744-.607 1.297-.607.557 0 .973.178 1.248.532.276.355.416.907.422 1.657v.51h-2.654v.11c0 .51.095.88.286 1.111.193.232.47.347.83.347.229 0 .43-.042.602-.127a1.52 1.52 0 00.492-.413l.405.492c-.337.475-.851.712-1.543.712zm-.088-4.263c-.322 0-.56.111-.716.334-.155.22-.243.563-.264 1.029h1.872v-.106c-.02-.451-.102-.773-.246-.967-.14-.193-.356-.29-.646-.29zm6.983 2.958a.574.574 0 00-.189-.43c-.126-.121-.369-.262-.73-.423-.418-.173-.714-.32-.887-.444a1.278 1.278 0 01-.382-.417 1.173 1.173 0 01-.128-.563c0-.386.14-.707.422-.962.284-.258.646-.387 1.086-.387.462 0 .835.135 1.116.405.281.27.422.615.422 1.037h-.774a.757.757 0 00-.215-.545.722.722 0 00-.55-.229c-.228 0-.408.06-.54.18a.61.61 0 00-.193.475c0 .158.047.286.14.382.097.097.327.224.69.383.577.225.97.446 1.178.663.208.214.312.486.312.818 0 .413-.142.744-.426.993-.284.246-.665.369-1.143.369-.495 0-.896-.142-1.204-.426a1.408 1.408 0 01-.461-1.081h.782c.009.263.09.47.242.62.152.149.366.223.641.223.258 0 .454-.057.59-.171a.592.592 0 00.201-.47zm1.63-1.38c0-.692.168-1.238.502-1.64.337-.404.78-.606 1.331-.606.55 0 .993.197 1.327.59.337.392.51.926.519 1.603v.501c0 .689-.167 1.233-.501 1.635-.334.401-.78.602-1.336.602-.55 0-.993-.195-1.327-.585-.331-.39-.503-.917-.514-1.582v-.518zm.778.448c0 .49.096.875.286 1.156a.902.902 0 00.778.417c.685 0 1.039-.495 1.059-1.485v-.536c0-.486-.097-.87-.29-1.151-.193-.285-.453-.427-.778-.427-.32 0-.576.142-.769.426-.19.282-.286.664-.286 1.147v.453zM27.058 45h-.778v-6.75h.778V45zm2.066 0h-.778v-6.75h.777V45zm2.245-5.906v1.151h.716v.629h-.716v2.948c0 .188.03.33.092.426.062.097.167.146.317.146a.98.98 0 00.312-.053L32.08 45a1.699 1.699 0 01-.54.088c-.308 0-.543-.11-.704-.33-.16-.22-.241-.53-.241-.931v-2.953h-.725v-.629h.725v-1.151h.773zm3.344 5.994c-.591 0-1.046-.176-1.362-.528-.316-.354-.477-.873-.483-1.555v-.576c0-.709.154-1.264.461-1.665.31-.405.743-.607 1.297-.607.556 0 .972.178 1.248.532.275.355.416.907.421 1.657v.51h-2.654v.11c0 .51.095.88.286 1.111.193.232.47.347.83.347.229 0 .43-.042.602-.127a1.52 1.52 0 00.493-.413l.404.492c-.337.475-.851.712-1.543.712zm-.087-4.263c-.323 0-.561.111-.717.334-.155.22-.243.563-.264 1.029h1.873v-.106c-.02-.451-.103-.773-.246-.967-.141-.193-.356-.29-.646-.29zm3.34-.58l.021.514c.302-.401.687-.602 1.156-.602.84 0 1.267.561 1.279 1.683V45h-.774v-3.124c0-.373-.063-.636-.189-.791-.123-.159-.309-.238-.558-.238a.798.798 0 00-.523.194 1.405 1.405 0 00-.369.505V45h-.778v-4.755h.734zm8.116 4.338c-.258.336-.634.505-1.13.505-.43 0-.755-.148-.975-.444-.22-.299-.331-.732-.334-1.3v-3.099h.773v3.041c0 .741.223 1.112.669 1.112.471 0 .796-.211.975-.633v-3.52h.778V45H46.1l-.018-.417zm-2.25-5.608c0-.132.04-.242.119-.33.082-.09.202-.136.36-.136.158 0 .278.046.36.136a.465.465 0 01.123.33.465.465 0 01-.123.33c-.082.088-.202.132-.36.132-.158 0-.278-.044-.36-.132a.474.474 0 01-.119-.33zm1.89.009a.49.49 0 01.118-.334c.082-.09.202-.136.36-.136.159 0 .279.045.361.136a.48.48 0 01.123.334.464.464 0 01-.123.33c-.082.087-.202.131-.36.131-.159 0-.279-.044-.36-.132a.474.474 0 01-.12-.33zm5.73 3.867c0 .741-.133 1.3-.4 1.674-.266.375-.653.563-1.16.563-.504 0-.882-.217-1.134-.65l-.04.562h-.707v-6.75h.774v2.518c.255-.407.62-.61 1.098-.61.522 0 .913.184 1.174.553.26.37.392.926.395 1.67v.47zm-.773-.444c0-.562-.08-.962-.238-1.2-.155-.24-.408-.36-.76-.36-.401 0-.7.217-.896.65v2.264c.193.427.495.641.905.641.352 0 .604-.123.756-.369.152-.246.23-.628.233-1.147v-.479zm3.467 2.68c-.592 0-1.046-.175-1.362-.527-.317-.354-.478-.873-.484-1.555v-.576c0-.709.154-1.264.462-1.665.31-.405.742-.607 1.296-.607.557 0 .973.178 1.248.532.276.355.416.907.422 1.657v.51h-2.654v.11c0 .51.095.88.285 1.111.194.232.47.347.83.347.23 0 .43-.042.603-.127a1.52 1.52 0 00.492-.413l.404.492c-.336.475-.85.712-1.542.712zm-.088-4.262c-.322 0-.56.111-.716.334-.155.22-.243.563-.264 1.029h1.872v-.106c-.02-.451-.102-.773-.246-.967-.14-.193-.356-.29-.646-.29zm4.57.15a1.893 1.893 0 00-.351-.031c-.399 0-.677.218-.835.655V45h-.778v-4.755h.756l.013.483c.208-.38.502-.57.883-.57.123 0 .226.02.308.06l.004.757zM60.246 45h-.778v-6.75h.778V45zm2.926.088c-.591 0-1.045-.176-1.362-.528-.316-.354-.477-.873-.483-1.555v-.576c0-.709.154-1.264.461-1.665.31-.405.743-.607 1.297-.607.556 0 .972.178 1.247.532.276.355.417.907.422 1.657v.51H62.1v.11c0 .51.095.88.286 1.111.193.232.47.347.83.347.229 0 .43-.042.602-.127a1.52 1.52 0 00.493-.413l.404.492c-.337.475-.851.712-1.543.712zm-.087-4.263c-.323 0-.562.111-.717.334-.155.22-.243.563-.264 1.029h1.873v-.106c-.02-.451-.103-.773-.246-.967-.141-.193-.357-.29-.647-.29zm2.452 1.582c0-.741.134-1.3.404-1.678.27-.381.663-.572 1.182-.572.483 0 .851.207 1.103.62l.04-.532h.703v4.799c0 .589-.151 1.04-.453 1.354-.302.316-.722.474-1.261.474-.234 0-.498-.059-.791-.176-.29-.114-.508-.256-.655-.426l.317-.536c.322.316.678.474 1.067.474.648 0 .98-.352.998-1.059v-.62c-.252.373-.61.559-1.072.559-.493 0-.876-.185-1.152-.554-.275-.372-.419-.905-.43-1.6v-.527zm.777.444c0 .533.078.926.233 1.178.159.249.416.373.774.373.386 0 .677-.197.87-.593v-2.377c-.202-.39-.49-.585-.861-.585-.358 0-.616.126-.774.378-.158.25-.239.633-.242 1.151v.475zm5.516 2.237c-.592 0-1.046-.176-1.363-.528-.316-.354-.477-.873-.483-1.555v-.576c0-.709.154-1.264.461-1.665.31-.405.743-.607 1.297-.607.556 0 .972.178 1.248.532.275.355.416.907.422 1.657v.51h-2.655v.11c0 .51.096.88.286 1.111.193.232.47.347.83.347.23 0 .43-.042.603-.127a1.52 1.52 0 00.492-.413l.404.492c-.337.475-.851.712-1.542.712zm-.088-4.263c-.323 0-.561.111-.717.334-.155.22-.243.563-.263 1.029h1.872v-.106c-.02-.451-.103-.773-.246-.967-.14-.193-.356-.29-.646-.29zm3.34-.58l.022.514c.301-.401.686-.602 1.155-.602.841 0 1.267.561 1.28 1.683V45h-.774v-3.124c0-.373-.063-.636-.19-.791-.122-.159-.308-.238-.557-.238a.798.798 0 00-.523.194 1.405 1.405 0 00-.37.505V45h-.777v-4.755h.734zm3.634 6.03l-.462-.317c.276-.384.42-.78.431-1.186v-.734h.796v.637c0 .296-.074.592-.22.888a2.055 2.055 0 01-.545.711zm3.66-3.872c0-.692.167-1.238.501-1.64.337-.404.781-.606 1.332-.606.55 0 .993.197 1.327.59.337.392.51.926.519 1.603v.501c0 .689-.167 1.233-.501 1.635-.334.401-.78.602-1.336.602-.551 0-.993-.195-1.327-.585-.331-.39-.503-.917-.515-1.582v-.518zm.778.448c0 .49.096.875.286 1.156a.902.902 0 00.778.417c.685 0 1.038-.495 1.059-1.485v-.536c0-.486-.097-.87-.29-1.151-.194-.285-.453-.427-.778-.427-.32 0-.576.142-.77.426-.19.282-.285.664-.285 1.147v.453zm7.348 0c0 .741-.133 1.3-.4 1.674-.267.375-.653.563-1.16.563-.504 0-.882-.217-1.134-.65l-.04.562h-.707v-6.75h.773v2.518c.255-.407.622-.61 1.1-.61.52 0 .912.184 1.172.553.261.37.393.926.396 1.67v.47zm-.773-.444c0-.562-.08-.962-.238-1.2-.155-.24-.409-.36-.76-.36-.401 0-.7.217-.896.65v2.264c.193.427.495.641.905.641.351 0 .603-.123.756-.369.152-.246.23-.628.233-1.147v-.479zm6.736.976c0-.32-.086-.564-.259-.734-.173-.17-.485-.336-.936-.497-.451-.16-.797-.33-1.037-.505a1.857 1.857 0 01-.536-.606 1.69 1.69 0 01-.176-.783c0-.507.168-.924.505-1.252.34-.328.784-.492 1.332-.492.375 0 .709.085 1.002.255.293.166.518.4.677.698.158.3.237.627.237.985h-.809c0-.396-.095-.702-.285-.919-.19-.217-.465-.325-.822-.325-.325 0-.577.09-.756.273-.179.181-.268.436-.268.764 0 .27.097.495.29.677.193.181.492.344.897.488.63.208 1.08.464 1.349.769.272.304.408.703.408 1.195 0 .519-.168.935-.505 1.248-.337.31-.795.466-1.376.466-.372 0-.716-.08-1.032-.242a1.884 1.884 0 01-.743-.685 1.925 1.925 0 01-.268-1.016h.809c0 .396.11.704.33.923.222.22.524.33.904.33.355 0 .622-.09.8-.273.179-.181.268-.429.268-.742zM99.067 45h-.778v-4.755h.778V45zm.061-6.016a.498.498 0 01-.11.33c-.073.087-.184.131-.333.131-.147 0-.257-.044-.33-.132a.497.497 0 01-.11-.33c0-.13.037-.242.11-.333.073-.09.183-.136.33-.136.146 0 .256.046.33.14.075.091.113.201.113.33zm2.866 6.104c-.592 0-1.046-.176-1.363-.528-.316-.354-.477-.873-.483-1.555v-.576c0-.709.154-1.264.461-1.665.311-.405.743-.607 1.297-.607.556 0 .972.178 1.248.532.275.355.416.907.422 1.657v.51h-2.655v.11c0 .51.096.88.286 1.111.193.232.47.347.831.347.228 0 .429-.042.602-.127.175-.088.339-.226.492-.413l.404.492c-.337.475-.851.712-1.542.712zm-.088-4.263c-.323 0-.561.111-.717.334-.155.22-.243.563-.263 1.029h1.872v-.106c-.021-.451-.103-.773-.246-.967-.141-.193-.356-.29-.646-.29zM5.929 53.818l.901-3.573h.791L6.211 55h-.58l-1.429-4.755h.791l.936 3.573zm4.201 1.27c-.591 0-1.046-.176-1.362-.528-.316-.354-.477-.873-.483-1.555v-.576c0-.709.153-1.264.461-1.665.31-.405.743-.607 1.296-.607.557 0 .973.178 1.248.532.276.355.417.907.422 1.657v.51H9.058v.11c0 .51.095.88.286 1.111.193.232.47.347.83.347.229 0 .43-.042.602-.127a1.52 1.52 0 00.493-.413l.404.492c-.337.475-.851.712-1.543.712zm-.088-4.263c-.322 0-.56.111-.716.334-.155.22-.243.563-.264 1.029h1.873v-.106c-.02-.451-.103-.773-.247-.967-.14-.193-.356-.29-.646-.29zm4.57.15a1.893 1.893 0 00-.35-.031c-.4 0-.678.218-.836.655V55h-.778v-4.755h.756l.014.483c.208-.38.502-.57.883-.57.123 0 .225.02.307.06l.005.757zm3.09 2.808a.574.574 0 00-.189-.43c-.126-.121-.369-.262-.73-.423-.418-.173-.714-.32-.887-.444a1.278 1.278 0 01-.382-.417 1.172 1.172 0 01-.128-.563c0-.386.14-.707.422-.962.284-.258.646-.387 1.086-.387.462 0 .835.135 1.116.405.281.27.422.615.422 1.037h-.774a.758.758 0 00-.215-.545.722.722 0 00-.55-.229c-.228 0-.408.06-.54.18a.61.61 0 00-.193.475c0 .158.046.286.14.382.097.097.327.224.69.383.577.225.97.446 1.178.663.208.214.312.486.312.818 0 .413-.142.744-.426.993-.284.246-.665.369-1.143.369-.495 0-.896-.142-1.204-.426a1.408 1.408 0 01-.461-1.081h.782c.009.263.09.47.242.62.152.149.366.223.641.223.258 0 .454-.057.589-.171a.592.592 0 00.202-.47zm2.813-4.69v1.152h.716v.629h-.716v2.948c0 .188.03.33.092.426.062.097.167.146.316.146a.982.982 0 00.312-.053l-.008.659a1.699 1.699 0 01-.541.088c-.308 0-.542-.11-.703-.33-.161-.22-.242-.53-.242-.931v-2.953h-.725v-.629h.725v-1.151h.774zm3.344 5.995c-.592 0-1.046-.176-1.362-.528-.317-.354-.478-.873-.484-1.555v-.576c0-.709.154-1.264.462-1.665.31-.405.742-.607 1.296-.607.557 0 .973.178 1.248.532.275.355.416.907.422 1.657v.51h-2.654v.11c0 .51.095.88.285 1.111.194.232.47.347.83.347.23 0 .43-.042.603-.127a1.52 1.52 0 00.492-.413l.404.492c-.337.475-.85.712-1.542.712zm-.088-4.263c-.322 0-.561.111-.716.334-.156.22-.244.563-.264 1.029h1.872v-.106c-.02-.451-.102-.773-.246-.967-.14-.193-.356-.29-.646-.29zm3.384-.092c.296-.384.674-.576 1.134-.576.84 0 1.267.561 1.278 1.683V55h-.773v-3.124c0-.373-.063-.636-.189-.791-.123-.159-.31-.238-.558-.238a.798.798 0 00-.523.194 1.405 1.405 0 00-.37.505V55h-.777v-6.75h.778v2.483zm5.273 4.355c-.592 0-1.046-.176-1.362-.528-.316-.354-.478-.873-.483-1.555v-.576c0-.709.153-1.264.46-1.665.312-.405.744-.607 1.297-.607.557 0 .973.178 1.248.532.276.355.416.907.422 1.657v.51h-2.654v.11c0 .51.095.88.286 1.111.193.232.47.347.83.347.229 0 .43-.042.602-.127.176-.088.34-.226.492-.413l.405.492c-.337.475-.851.712-1.543.712zm-.088-4.263c-.322 0-.56.111-.716.334-.155.22-.243.563-.264 1.029h1.872v-.106c-.02-.451-.102-.773-.246-.967-.14-.193-.356-.29-.646-.29zm3.34-.58l.022.514c.302-.401.687-.602 1.156-.602.84 0 1.267.561 1.279 1.683V55h-.774v-3.124c0-.373-.063-.636-.189-.791-.123-.159-.309-.238-.558-.238a.797.797 0 00-.523.194 1.405 1.405 0 00-.369.505V55h-.778v-4.755h.734zm3.635 6.03l-.462-.317c.275-.384.419-.78.43-1.186v-.734h.796v.637c0 .296-.073.592-.22.888a2.056 2.056 0 01-.544.711zm7.37-2.642l.72-3.388h.769L47.009 55h-.62l-.927-3.401L44.557 55h-.624l-1.156-4.755h.765l.738 3.305.884-3.305h.615l.905 3.388zM49.83 55h-.778v-4.755h.778V55zm.061-6.016a.497.497 0 01-.11.33c-.073.087-.184.131-.334.131-.146 0-.256-.044-.33-.132a.497.497 0 01-.11-.33c0-.13.037-.242.11-.333.074-.09.184-.136.33-.136.147 0 .257.046.33.14.076.091.114.201.114.33zm2.865 6.104c-.591 0-1.046-.176-1.362-.528-.316-.354-.478-.873-.483-1.555v-.576c0-.709.153-1.264.461-1.665.31-.405.743-.607 1.296-.607.557 0 .973.178 1.248.532.276.355.416.907.422 1.657v.51h-2.654v.11c0 .51.095.88.286 1.111.193.232.47.347.83.347.229 0 .43-.042.602-.127.176-.088.34-.226.492-.413l.405.492c-.337.475-.851.712-1.543.712zm-.088-4.263c-.322 0-.56.111-.716.334-.155.22-.243.563-.264 1.029h1.873v-.106c-.021-.451-.103-.773-.247-.967-.14-.193-.355-.29-.646-.29zm8.794 2.145c-.035.685-.229 1.21-.58 1.573-.349.363-.843.545-1.481.545-.642 0-1.151-.243-1.53-.73-.377-.489-.566-1.151-.566-1.986v-1.16c0-.832.193-1.49.58-1.973.39-.484.92-.725 1.59-.725.619 0 1.096.186 1.433.558.34.369.525.898.554 1.586h-.813c-.035-.521-.145-.893-.33-1.116-.184-.223-.465-.334-.843-.334-.437 0-.772.171-1.007.514-.234.34-.351.84-.351 1.499v1.173c0 .648.108 1.144.325 1.49.22.346.539.518.958.518.419 0 .72-.104.905-.312.185-.208.299-.581.343-1.12h.813zm4.06-.796h-2.162V55h-.804v-6.398h3.331v.694h-2.527v2.188h2.162v.69zM66.881 55v-6.398h1.525c.747 0 1.327.234 1.74.703.414.465.62 1.122.62 1.968v1.073c0 .846-.21 1.501-.628 1.964-.42.46-1.027.69-1.824.69h-1.433zm.805-5.704v5.014h.645c.566 0 .98-.161 1.24-.483.26-.325.394-.806.4-1.442v-1.133c0-.674-.13-1.168-.391-1.482-.258-.316-.65-.474-1.174-.474h-.72zm6.539 4.487a.574.574 0 00-.19-.43c-.125-.121-.368-.262-.729-.423-.419-.173-.715-.32-.888-.444a1.278 1.278 0 01-.382-.417 1.173 1.173 0 01-.127-.563c0-.386.14-.707.422-.962.284-.258.646-.387 1.085-.387.463 0 .835.135 1.116.405.282.27.422.615.422 1.037h-.773a.757.757 0 00-.216-.545.722.722 0 00-.549-.229c-.228 0-.409.06-.54.18a.61.61 0 00-.194.475c0 .158.047.286.14.382.097.097.327.224.69.383.578.225.97.446 1.178.663.208.214.312.486.312.818 0 .413-.142.744-.426.993-.284.246-.665.369-1.142.369-.495 0-.897-.142-1.204-.426a1.408 1.408 0 01-.462-1.081h.782c.01.263.09.47.242.62.152.149.366.223.642.223.257 0 .454-.057.588-.171a.592.592 0 00.203-.47zM4.923 65v-4.127h-.62v-.628h.62v-.55c.009-.483.13-.86.365-1.129.237-.272.57-.408 1.002-.408.155 0 .312.025.47.074l-.04.66a1.54 1.54 0 00-.356-.04c-.442 0-.663.315-.663.945v.448h.813v.629H5.7V65h-.778zm4.93-.418c-.257.337-.634.506-1.129.506-.43 0-.756-.148-.975-.444-.22-.299-.332-.732-.334-1.3v-3.099h.773v3.041c0 .741.223 1.112.668 1.112.472 0 .797-.211.976-.633v-3.52h.777V65h-.738l-.017-.418zm2.66-4.337l.021.514c.302-.401.687-.602 1.156-.602.84 0 1.267.561 1.279 1.683V65h-.774v-3.124c0-.373-.063-.636-.189-.791-.123-.159-.309-.238-.558-.238a.798.798 0 00-.523.194 1.404 1.404 0 00-.369.505V65h-.778v-4.755h.734zm4.82 2.58l-.413.474V65h-.778v-6.75h.778v4.039l1.48-2.044h.933l-1.512 1.986L19.53 65h-.906l-1.292-2.175zm3.885-3.731v1.151h.716v.629h-.716v2.948c0 .188.03.33.092.427.062.096.167.145.317.145a.982.982 0 00.312-.053l-.01.659a1.698 1.698 0 01-.54.088c-.308 0-.542-.11-.703-.33-.161-.22-.242-.53-.242-.931v-2.953h-.725v-.629h.725v-1.151h.774zM23.7 65h-.778v-4.755h.778V65zm.061-6.016a.497.497 0 01-.11.33c-.073.087-.184.131-.334.131-.146 0-.256-.044-.33-.132a.497.497 0 01-.11-.33c0-.13.038-.242.11-.333.074-.09.184-.136.33-.136.147 0 .257.046.33.14.076.091.114.201.114.33zm1.002 3.419c0-.692.167-1.238.501-1.64.337-.404.78-.606 1.332-.606.55 0 .993.197 1.327.59.337.392.51.926.518 1.603v.501c0 .689-.167 1.234-.5 1.635-.335.401-.78.602-1.337.602-.55 0-.993-.195-1.327-.585-.33-.39-.502-.917-.514-1.582v-.518zm.778.448c0 .49.095.875.286 1.156a.902.902 0 00.777.417c.686 0 1.039-.495 1.06-1.485v-.536c0-.486-.097-.87-.29-1.151-.194-.285-.453-.427-.778-.427-.32 0-.576.142-.77.426-.19.282-.285.664-.285 1.147v.453zm4.636-2.606l.022.514c.302-.401.687-.602 1.156-.602.84 0 1.267.561 1.279 1.683V65h-.774v-3.124c0-.373-.063-.636-.189-.791-.123-.159-.309-.238-.558-.238a.798.798 0 00-.523.194 1.405 1.405 0 00-.369.505V65h-.778v-4.755h.734zM34.643 65h-.778v-4.755h.778V65zm.062-6.016a.497.497 0 01-.11.33c-.073.087-.185.131-.334.131-.147 0-.257-.044-.33-.132a.497.497 0 01-.11-.33c0-.13.037-.242.11-.333.073-.09.183-.136.33-.136.146 0 .256.046.33.14.075.091.114.201.114.33zm2.865 6.104c-.592 0-1.046-.176-1.362-.527-.317-.355-.478-.874-.484-1.556v-.576c0-.709.154-1.264.462-1.665.31-.405.742-.607 1.296-.607.557 0 .973.178 1.248.532.275.355.416.907.422 1.657v.51h-2.654v.11c0 .51.095.88.285 1.111.194.232.47.347.83.347.23 0 .43-.042.603-.127.176-.088.34-.226.492-.413l.404.492c-.337.475-.85.712-1.542.712zm-.088-4.263c-.322 0-.561.111-.716.334-.156.22-.243.563-.264 1.029h1.872v-.106c-.02-.451-.102-.773-.246-.967-.14-.193-.356-.29-.646-.29zm4.57.15a1.892 1.892 0 00-.351-.031c-.399 0-.677.218-.835.655V65h-.778v-4.755h.756l.013.483c.208-.38.502-.57.883-.57.123 0 .226.02.308.06l.004.757zm2.479 4.113c-.592 0-1.046-.176-1.362-.527-.317-.355-.478-.874-.484-1.556v-.576c0-.709.154-1.264.462-1.665.31-.405.742-.607 1.296-.607.556 0 .973.178 1.248.532.275.355.416.907.422 1.657v.51h-2.654v.11c0 .51.095.88.285 1.111.194.232.47.347.83.347.23 0 .43-.042.603-.127a1.52 1.52 0 00.492-.413l.404.492c-.337.475-.85.712-1.542.712zm-.088-4.263c-.322 0-.561.111-.716.334-.156.22-.244.563-.264 1.029h1.872v-.106c-.02-.451-.103-.773-.246-.967-.14-.193-.356-.29-.646-.29zm3.34-.58l.022.514c.301-.401.687-.602 1.155-.602.841 0 1.267.561 1.28 1.683V65h-.774v-3.124c0-.373-.063-.636-.19-.791-.122-.159-.308-.238-.557-.238a.798.798 0 00-.523.194 1.405 1.405 0 00-.37.505V65h-.777v-4.755h.734zm3.634 6.03l-.461-.317c.275-.384.418-.78.43-1.186v-.734h.796v.637c0 .296-.074.592-.22.888a2.055 2.055 0 01-.545.711zm6.249-1.693c-.258.337-.634.506-1.13.506-.43 0-.755-.148-.975-.444-.22-.299-.331-.732-.334-1.3v-3.099h.774v3.041c0 .741.222 1.112.668 1.112.471 0 .796-.211.975-.633v-3.52h.778V65h-.738l-.018-.418zm2.659-4.337l.022.514c.301-.401.687-.602 1.155-.602.841 0 1.267.561 1.28 1.683V65h-.774v-3.124c0-.373-.063-.636-.19-.791-.122-.159-.308-.238-.557-.238a.798.798 0 00-.523.194 1.404 1.404 0 00-.37.505V65h-.777v-4.755h.734zm3.463 2.162c0-.732.136-1.29.408-1.674.276-.384.67-.576 1.182-.576.454 0 .809.185 1.064.554V58.25h.778V65h-.712l-.04-.51c-.255.399-.62.598-1.094.598-.492 0-.879-.19-1.16-.571-.279-.384-.42-.925-.426-1.622v-.488zm.777.444c0 .533.08.926.238 1.178.158.249.416.373.773.373.387 0 .675-.195.866-.584v-2.4c-.2-.38-.486-.57-.861-.57-.358 0-.616.125-.774.377-.158.25-.239.633-.242 1.151v.475zm5.753-.448c0-.692.167-1.238.5-1.64.338-.404.782-.606 1.332-.606.551 0 .994.197 1.328.59.337.392.51.926.518 1.603v.501c0 .689-.167 1.234-.5 1.635-.335.401-.78.602-1.337.602-.55 0-.993-.195-1.327-.585-.331-.39-.502-.917-.514-1.582v-.518zm.778.448c0 .49.095.875.285 1.156a.902.902 0 00.778.417c.686 0 1.039-.495 1.06-1.485v-.536c0-.486-.097-.87-.29-1.151-.194-.285-.453-.427-.779-.427-.319 0-.575.142-.769.426-.19.282-.285.664-.285 1.147v.453zm7.347 0c0 .741-.133 1.3-.4 1.674-.266.375-.653.563-1.16.563-.504 0-.882-.217-1.133-.65l-.04.562h-.708v-6.75h.774v2.518c.255-.407.621-.61 1.099-.61.521 0 .912.184 1.173.553.26.37.392.926.395 1.67v.47zm-.773-.444c0-.562-.08-.962-.237-1.2-.156-.24-.41-.36-.76-.36-.402 0-.7.217-.897.65v2.264c.193.428.495.641.905.641.352 0 .604-.123.756-.369.152-.246.23-.628.233-1.147v-.479zm6.737.976c0-.32-.087-.564-.26-.734-.172-.17-.484-.336-.936-.497-.45-.16-.796-.33-1.037-.505a1.857 1.857 0 01-.536-.606 1.69 1.69 0 01-.176-.783c0-.507.169-.924.506-1.252.34-.328.783-.492 1.331-.492.375 0 .71.085 1.002.255.293.166.519.4.677.698.158.3.237.627.237.985h-.808c0-.396-.096-.702-.286-.919-.19-.217-.464-.325-.822-.325-.325 0-.577.09-.756.273-.178.181-.268.436-.268.764 0 .27.097.495.29.677.194.181.493.344.897.488.63.208 1.08.464 1.349.769.272.304.409.703.409 1.195 0 .519-.169.935-.506 1.248-.337.31-.795.466-1.375.466-.372 0-.716-.08-1.033-.242a1.883 1.883 0 01-.742-.685 1.925 1.925 0 01-.269-1.016h.809c0 .396.11.704.33.923.222.22.524.33.905.33.354 0 .621-.09.8-.272.178-.182.268-.43.268-.743zM87.008 65h-.777v-4.755h.777V65zm.062-6.016a.498.498 0 01-.11.33c-.073.087-.185.131-.334.131-.147 0-.256-.044-.33-.132a.497.497 0 01-.11-.33c0-.13.037-.242.11-.333.074-.09.183-.136.33-.136.146 0 .256.046.33.14.076.091.114.201.114.33zm2.865 6.104c-.592 0-1.046-.176-1.362-.527-.317-.355-.478-.874-.484-1.556v-.576c0-.709.154-1.264.462-1.665.31-.405.742-.607 1.296-.607.557 0 .973.178 1.248.532.276.355.416.907.422 1.657v.51h-2.654v.11c0 .51.095.88.285 1.111.194.232.47.347.831.347.228 0 .43-.042.602-.127a1.52 1.52 0 00.492-.413l.405.492c-.337.475-.852.712-1.543.712zm-.088-4.263c-.322 0-.56.111-.716.334-.155.22-.243.563-.264 1.029h1.872v-.106c-.02-.451-.102-.773-.246-.967-.14-.193-.356-.29-.646-.29zm6.372 4.263c-.592 0-1.046-.176-1.362-.527-.317-.355-.478-.874-.483-1.556v-.576c0-.709.153-1.264.461-1.665.31-.405.743-.607 1.296-.607.557 0 .973.178 1.248.532.276.355.416.907.422 1.657v.51h-2.654v.11c0 .51.095.88.286 1.111.193.232.47.347.83.347.229 0 .43-.042.602-.127.176-.088.34-.226.492-.413l.405.492c-.337.475-.851.712-1.543.712zm-.088-4.263c-.322 0-.56.111-.716.334-.155.22-.243.563-.264 1.029h1.872v-.106c-.02-.451-.102-.773-.246-.967-.14-.193-.356-.29-.646-.29zm4.918 2.958a.574.574 0 00-.189-.43c-.126-.121-.369-.262-.73-.423-.419-.173-.715-.32-.887-.444a1.278 1.278 0 01-.383-.417 1.172 1.172 0 01-.127-.563c0-.386.14-.707.422-.962.284-.258.646-.387 1.085-.387.463 0 .835.135 1.116.405.282.27.422.615.422 1.037h-.773a.76.76 0 00-.215-.545.723.723 0 00-.55-.229c-.228 0-.408.06-.54.18a.61.61 0 00-.194.475c0 .158.047.286.141.382.097.097.327.224.69.383.577.225.97.446 1.178.663.208.214.312.486.312.818 0 .413-.142.744-.427.993-.284.246-.665.369-1.142.369-.495 0-.897-.142-1.204-.426a1.408 1.408 0 01-.462-1.081h.782c.01.263.09.47.242.62.153.149.366.223.642.223.258 0 .454-.057.589-.171a.594.594 0 00.202-.47zm-94.157 10a.574.574 0 00-.19-.43c-.125-.121-.369-.262-.729-.423-.419-.173-.715-.32-.888-.444a1.278 1.278 0 01-.382-.417 1.173 1.173 0 01-.127-.563c0-.386.14-.707.422-.962.284-.258.646-.387 1.085-.387.463 0 .835.135 1.116.404.281.27.422.616.422 1.038h-.773a.757.757 0 00-.216-.545.722.722 0 00-.549-.229c-.229 0-.409.06-.54.18a.61.61 0 00-.194.475c0 .158.047.286.14.382.097.097.327.224.69.383.578.225.97.446 1.178.663.208.214.312.486.312.818 0 .413-.142.744-.426.993-.284.246-.665.369-1.142.369-.496 0-.897-.142-1.205-.426a1.408 1.408 0 01-.46-1.081h.781c.01.263.09.47.242.62.152.149.366.223.642.223.257 0 .454-.057.588-.171a.592.592 0 00.203-.47zM9.524 75h-.778v-4.755h.778V75zm.061-6.016a.498.498 0 01-.11.33c-.073.087-.184.131-.333.131-.147 0-.257-.044-.33-.131a.498.498 0 01-.11-.33c0-.132.037-.243.11-.334.073-.09.183-.136.33-.136.146 0 .256.047.33.14.075.091.113.201.113.33zm2.817 5.44c.258 0 .465-.079.62-.237.155-.161.24-.39.255-.686h.734a1.62 1.62 0 01-.488 1.139 1.539 1.539 0 01-1.12.448c-.59 0-1.04-.185-1.35-.554-.307-.372-.461-.924-.461-1.657v-.522c0-.718.154-1.263.461-1.635.308-.375.756-.563 1.345-.563.486 0 .872.154 1.156.462.287.307.44.728.457 1.26h-.734c-.018-.35-.103-.614-.255-.79-.15-.176-.357-.264-.624-.264-.346 0-.602.114-.77.343-.166.226-.252.598-.258 1.116v.607c0 .56.082.955.246 1.186.167.232.429.347.786.347zm3.283-3.691c.296-.384.674-.576 1.134-.576.84 0 1.267.561 1.279 1.683V75h-.774v-3.124c0-.373-.063-.636-.189-.791-.123-.159-.309-.238-.558-.238a.798.798 0 00-.523.194 1.405 1.405 0 00-.369.505V75h-.778v-6.75h.778v2.483zM22.163 75h-.778v-6.75h.778V75zm2.926.088c-.591 0-1.045-.176-1.362-.527-.316-.355-.477-.874-.483-1.556v-.576c0-.709.154-1.264.461-1.665.31-.405.743-.607 1.297-.607.556 0 .972.178 1.248.532.275.355.416.907.421 1.657v.51h-2.654v.11c0 .51.095.88.286 1.111.193.232.47.347.83.347.229 0 .43-.042.602-.127a1.52 1.52 0 00.492-.413l.405.492c-.337.475-.851.712-1.543.712zm-.087-4.263c-.323 0-.562.111-.717.334-.155.22-.243.563-.264 1.028h1.873v-.105c-.021-.451-.103-.773-.246-.967-.141-.193-.357-.29-.646-.29zM28.447 75h-.778v-4.755h.778V75zm.061-6.016a.497.497 0 01-.11.33c-.073.087-.184.131-.334.131-.146 0-.256-.044-.33-.131a.497.497 0 01-.109-.33c0-.132.037-.243.11-.334.073-.09.183-.136.33-.136.146 0 .256.047.329.14.076.091.114.201.114.33zm3.476 4.799a.574.574 0 00-.189-.43c-.126-.121-.369-.262-.73-.423-.418-.173-.714-.32-.887-.444a1.279 1.279 0 01-.382-.417 1.172 1.172 0 01-.127-.563c0-.386.14-.707.421-.962.285-.258.646-.387 1.086-.387.463 0 .835.135 1.116.404.281.27.422.616.422 1.038h-.774a.757.757 0 00-.215-.545.722.722 0 00-.55-.229c-.228 0-.408.06-.54.18a.61.61 0 00-.193.475c0 .158.047.286.14.382.097.097.327.224.69.383.578.225.97.446 1.178.663.208.214.312.486.312.818 0 .413-.142.744-.426.993-.284.246-.665.369-1.143.369-.495 0-.896-.142-1.204-.426a1.408 1.408 0 01-.461-1.081h.782c.009.263.09.47.242.62.152.149.366.223.641.223.258 0 .454-.057.59-.171a.592.592 0 00.201-.47zm2.813-4.69v1.152h.716v.629h-.716v2.948c0 .188.03.33.092.427.062.096.167.145.317.145a.982.982 0 00.312-.053l-.01.659a1.698 1.698 0 01-.54.088c-.307 0-.542-.11-.703-.33-.161-.22-.242-.53-.242-.931v-2.953h-.725v-.629h.725v-1.151h.774zm3.344 5.995c-.592 0-1.046-.176-1.362-.527-.317-.355-.478-.874-.484-1.556v-.576c0-.709.154-1.264.462-1.665.31-.405.742-.607 1.296-.607.557 0 .973.178 1.248.532.276.355.416.907.422 1.657v.51H37.07v.11c0 .51.095.88.285 1.111.194.232.47.347.831.347.229 0 .43-.042.602-.127.176-.088.34-.226.492-.413l.405.492c-.337.475-.851.712-1.543.712zm-.088-4.263c-.322 0-.56.111-.716.334-.155.22-.243.563-.264 1.028h1.872v-.105c-.02-.451-.102-.773-.246-.967-.14-.193-.356-.29-.646-.29zm3.34-.58l.022.514c.302-.401.687-.602 1.156-.602.84 0 1.267.561 1.279 1.683V75h-.774v-3.124c0-.373-.063-.636-.189-.791-.123-.159-.309-.238-.558-.238a.797.797 0 00-.523.194 1.405 1.405 0 00-.369.505V75h-.778v-4.755h.734zm6.886 2.58l-.413.474V75h-.778v-6.75h.778v4.039l1.481-2.044h.932l-1.512 1.986L50.477 75h-.906l-1.292-2.175zm2.703-.422c0-.692.167-1.238.5-1.64.338-.404.782-.606 1.333-.606.55 0 .993.197 1.327.59.336.392.51.926.518 1.603v.501c0 .689-.167 1.234-.5 1.635-.335.401-.78.602-1.337.602-.55 0-.993-.195-1.327-.585-.331-.39-.502-.917-.514-1.582v-.518zm.778.448c0 .49.095.875.285 1.156a.902.902 0 00.778.417c.686 0 1.039-.495 1.06-1.485v-.536c0-.487-.097-.87-.29-1.152-.194-.284-.453-.426-.779-.426-.319 0-.575.142-.769.426-.19.282-.285.664-.285 1.147v.453zm-.396-3.876c0-.132.04-.242.119-.33.082-.09.202-.136.36-.136.158 0 .279.046.36.136a.465.465 0 01.124.33.465.465 0 01-.123.33c-.082.088-.203.131-.36.131-.159 0-.28-.043-.361-.131a.474.474 0 01-.119-.33zm1.89.009a.49.49 0 01.119-.334c.082-.09.202-.136.36-.136.158 0 .278.045.36.136a.48.48 0 01.123.334.465.465 0 01-.123.33c-.082.087-.202.131-.36.131-.158 0-.278-.044-.36-.131a.474.474 0 01-.12-.33zm3.142 1.261l.022.514c.302-.401.687-.602 1.156-.602.84 0 1.267.561 1.279 1.683V75h-.774v-3.124c0-.373-.063-.636-.189-.791-.123-.159-.309-.238-.558-.238a.798.798 0 00-.523.194 1.405 1.405 0 00-.37.505V75h-.777v-4.755h.734zm4.36 0l.021.514c.302-.401.687-.602 1.156-.602.84 0 1.267.561 1.279 1.683V75h-.774v-3.124c0-.373-.063-.636-.189-.791-.123-.159-.309-.238-.558-.238a.797.797 0 00-.523.194 1.405 1.405 0 00-.369.505V75h-.777v-4.755h.733zm5.326 4.843c-.592 0-1.046-.176-1.363-.527-.316-.355-.477-.874-.483-1.556v-.576c0-.709.154-1.264.461-1.665.31-.405.743-.607 1.297-.607.556 0 .972.178 1.248.532.275.355.416.907.422 1.657v.51h-2.655v.11c0 .51.096.88.286 1.111.193.232.47.347.83.347.229 0 .43-.042.603-.127.175-.088.34-.226.492-.413l.404.492c-.337.475-.851.712-1.542.712zm-.088-4.263c-.323 0-.561.111-.717.334-.155.22-.243.563-.263 1.028h1.872v-.105c-.02-.451-.103-.773-.246-.967-.141-.193-.356-.29-.646-.29zm3.34-.58l.022.514c.301-.401.687-.602 1.155-.602.841 0 1.267.561 1.279 1.683V75h-.773v-3.124c0-.373-.063-.636-.19-.791-.122-.159-.308-.238-.558-.238a.798.798 0 00-.522.194 1.405 1.405 0 00-.37.505V75H68.6v-4.755h.734zm3.634 6.03l-.462-.317c.276-.384.42-.78.431-1.186v-.734h.795v.637c0 .296-.073.592-.22.888a2.056 2.056 0 01-.544.711zm3.66-3.868c0-.732.137-1.29.41-1.674.275-.384.669-.576 1.181-.576.454 0 .809.185 1.064.554V68.25h.778V75h-.712l-.04-.51c-.255.399-.62.598-1.094.598-.492 0-.88-.19-1.16-.571-.279-.384-.42-.925-.427-1.622v-.488zm.778.444c0 .533.08.926.238 1.178.158.249.416.373.773.373.387 0 .675-.195.866-.584v-2.4c-.2-.38-.487-.57-.862-.57-.357 0-.615.125-.773.377-.158.25-.239.633-.242 1.151v.475zM83.704 75c-.047-.103-.081-.275-.101-.519-.276.405-.627.607-1.055.607-.43 0-.768-.12-1.01-.36-.241-.244-.361-.585-.361-1.024 0-.484.164-.868.492-1.152.328-.284.778-.429 1.35-.435h.57v-.505c0-.284-.063-.486-.189-.607-.126-.12-.318-.18-.575-.18a.79.79 0 00-.572.211.692.692 0 00-.22.528h-.777c0-.244.072-.475.215-.695.144-.222.337-.397.58-.523a1.74 1.74 0 01.813-.189c.487 0 .856.122 1.108.365.255.24.385.592.39 1.055v2.4c.004.365.053.683.15.953V75h-.808zm-1.037-.62c.19 0 .372-.052.544-.158a.976.976 0 00.378-.395v-1.134h-.44c-.368.006-.66.09-.874.25-.214.159-.32.381-.32.668 0 .27.054.466.162.59.109.12.292.18.55.18zm5.216-.597a.574.574 0 00-.19-.43c-.125-.121-.368-.262-.729-.423-.419-.173-.715-.32-.887-.444a1.278 1.278 0 01-.383-.417 1.173 1.173 0 01-.127-.563c0-.386.14-.707.422-.962.284-.258.646-.387 1.085-.387.463 0 .835.135 1.116.404.282.27.422.616.422 1.038h-.773a.757.757 0 00-.215-.545.722.722 0 00-.55-.229c-.228 0-.409.06-.54.18a.61.61 0 00-.194.475c0 .158.047.286.141.382.097.097.327.224.69.383.577.225.97.446 1.178.663.208.214.312.486.312.818 0 .413-.142.744-.427.993-.284.246-.665.369-1.142.369-.495 0-.897-.142-1.204-.426a1.408 1.408 0 01-.462-1.081h.782c.01.263.09.47.242.62.153.149.366.223.642.223.258 0 .454-.057.589-.171a.592.592 0 00.202-.47zm4.636-3.05c.296-.384.674-.576 1.134-.576.84 0 1.267.561 1.279 1.683V75h-.774v-3.124c0-.373-.063-.636-.189-.791-.123-.159-.309-.238-.558-.238a.798.798 0 00-.523.194 1.405 1.405 0 00-.369.505V75h-.778v-6.75h.778v2.483zm3.41 1.67c0-.692.167-1.238.501-1.64.337-.404.78-.606 1.332-.606.55 0 .993.197 1.327.59.337.392.51.926.518 1.603v.501c0 .689-.167 1.234-.5 1.635-.335.401-.78.602-1.337.602-.55 0-.993-.195-1.327-.585-.33-.39-.502-.917-.514-1.582v-.518zm.778.448c0 .49.095.875.286 1.156a.902.902 0 00.778.417c.685 0 1.038-.495 1.059-1.485v-.536c0-.487-.097-.87-.29-1.152-.194-.284-.453-.426-.778-.426-.32 0-.576.142-.77.426-.19.282-.285.664-.285 1.147v.453zm4.68-2.118c.296-.384.674-.576 1.134-.576.841 0 1.267.561 1.279 1.683V75h-.774v-3.124c0-.373-.063-.636-.189-.791-.123-.159-.309-.238-.558-.238a.8.8 0 00-.523.194 1.412 1.412 0 00-.369.505V75h-.778v-6.75h.778v2.483zm5.274 4.355c-.592 0-1.046-.176-1.363-.527-.316-.355-.477-.874-.483-1.556v-.576c0-.709.154-1.264.461-1.665.311-.405.743-.607 1.297-.607.556 0 .972.178 1.248.532.275.355.416.907.422 1.657v.51h-2.655v.11c0 .51.096.88.286 1.111.193.232.47.347.831.347.228 0 .429-.042.602-.127.175-.088.339-.226.492-.413l.404.492c-.337.475-.851.712-1.542.712zm-.088-4.263c-.323 0-.561.111-.717.334-.155.22-.243.563-.263 1.028h1.872v-.105c-.021-.451-.103-.773-.246-.967-.141-.193-.356-.29-.646-.29zM6.623 82.412H5.5V85h-.81v-6.398h1.794c.627 0 1.101.164 1.424.492.322.325.483.803.483 1.432 0 .396-.088.742-.264 1.038a1.644 1.644 0 01-.738.663l1.24 2.72V85h-.866l-1.138-2.588zm-1.124-.69h.975c.337 0 .605-.109.804-.325.202-.217.304-.507.304-.87 0-.82-.373-1.231-1.117-1.231H5.5v2.426zM10.2 85h-.778v-4.755h.778V85zm.061-6.016a.497.497 0 01-.11.33c-.073.087-.184.131-.334.131-.146 0-.256-.044-.33-.131a.498.498 0 01-.11-.33c0-.132.038-.243.11-.334.074-.09.184-.136.33-.136.147 0 .257.047.33.14.076.091.114.201.114.33zm3.476 4.799a.574.574 0 00-.189-.43c-.126-.121-.369-.262-.73-.423-.418-.173-.714-.32-.887-.444a1.279 1.279 0 01-.382-.417 1.172 1.172 0 01-.128-.563c0-.386.141-.707.422-.962.284-.258.646-.387 1.086-.387.463 0 .835.135 1.116.404.281.27.422.616.422 1.038h-.774a.757.757 0 00-.215-.545.722.722 0 00-.55-.229c-.228 0-.408.06-.54.18a.61.61 0 00-.193.475c0 .158.047.286.14.382.097.097.327.224.69.383.578.225.97.446 1.178.663.208.214.312.486.312.818 0 .413-.142.744-.426.993-.284.246-.665.369-1.143.369-.495 0-.896-.142-1.204-.426a1.408 1.408 0 01-.461-1.081h.782c.009.263.09.47.242.62.152.149.366.223.641.223.258 0 .454-.057.59-.171a.592.592 0 00.201-.47zM16.371 85h-.778v-4.755h.778V85zm.061-6.016a.498.498 0 01-.11.33c-.073.087-.184.131-.334.131-.146 0-.256-.044-.33-.131a.497.497 0 01-.11-.33c0-.132.037-.243.11-.334.074-.09.184-.136.33-.136.147 0 .257.047.33.14.076.091.114.201.114.33zm2.36 3.84l-.413.475V85H17.6v-6.75h.778v4.039l1.48-2.044h.932l-1.511 1.986L20.99 85h-.906l-1.292-2.175zm2.703-.421c0-.692.167-1.238.5-1.64.337-.404.781-.606 1.332-.606.55 0 .993.197 1.327.59.337.392.51.926.519 1.603v.501c0 .689-.167 1.234-.501 1.635-.334.401-.78.602-1.336.602-.55 0-.993-.195-1.327-.585-.331-.39-.503-.917-.514-1.582v-.518zm.777.448c0 .49.096.875.286 1.156a.902.902 0 00.778.417c.686 0 1.039-.495 1.059-1.485v-.536c0-.487-.097-.87-.29-1.152-.193-.284-.453-.426-.778-.426-.32 0-.576.142-.769.426-.19.282-.285.664-.285 1.147v.453zm7.669 2.237c-.592 0-1.046-.176-1.362-.527-.317-.355-.478-.874-.484-1.556v-.576c0-.709.154-1.264.462-1.665.31-.405.742-.607 1.296-.607.557 0 .973.178 1.248.532.276.355.416.907.422 1.657v.51h-2.654v.11c0 .51.095.88.285 1.111.194.232.47.347.83.347.23 0 .43-.042.603-.127.176-.088.34-.226.492-.413l.404.492c-.337.475-.85.712-1.542.712zm-.088-4.263c-.322 0-.561.111-.716.334-.156.22-.243.563-.264 1.028h1.872v-.105c-.02-.451-.102-.773-.246-.967-.14-.193-.356-.29-.646-.29zM33.298 85h-.778v-4.755h.778V85zm.062-6.016a.498.498 0 01-.11.33c-.073.087-.185.131-.334.131-.146 0-.256-.044-.33-.131a.498.498 0 01-.11-.33c0-.132.037-.243.11-.334.074-.09.184-.136.33-.136.147 0 .256.047.33.14.076.091.114.201.114.33zm1.898 1.261l.022.514c.302-.401.687-.602 1.156-.602.84 0 1.267.561 1.279 1.683V85h-.774v-3.124c0-.373-.063-.636-.189-.791-.123-.159-.309-.238-.558-.238a.798.798 0 00-.523.194 1.405 1.405 0 00-.369.505V85h-.778v-4.755h.734zm4.346 4.091h2.294V85h-3.181v-.598l2.18-3.484h-2.163v-.673h3.076v.576l-2.206 3.515zm5.66.246c-.257.337-.634.506-1.129.506-.43 0-.756-.148-.975-.444-.22-.299-.331-.732-.334-1.3v-3.099h.773v3.041c0 .741.223 1.112.668 1.112.472 0 .797-.211.976-.633v-3.52h.777V85h-.738l-.017-.418zm1.772-2.175c0-.741.134-1.3.404-1.678.27-.381.663-.572 1.182-.572.483 0 .851.207 1.103.62l.04-.532h.703v4.799c0 .589-.151 1.04-.453 1.353-.302.317-.722.475-1.261.475-.234 0-.498-.058-.791-.176-.29-.114-.508-.256-.655-.426l.316-.536c.323.316.679.475 1.068.475.648 0 .98-.353.998-1.06v-.62c-.252.373-.61.559-1.072.559-.492 0-.876-.185-1.152-.554-.275-.372-.419-.905-.43-1.6v-.527zm.777.444c0 .533.078.926.233 1.178.159.249.416.373.774.373.386 0 .677-.197.87-.593v-2.377c-.202-.39-.49-.585-.861-.585-.358 0-.616.126-.774.378-.158.25-.239.633-.242 1.151v.475zm5.516 2.237c-.592 0-1.046-.176-1.363-.527-.316-.355-.477-.874-.483-1.556v-.576c0-.709.154-1.264.461-1.665.31-.405.743-.607 1.297-.607.556 0 .972.178 1.248.532.275.355.416.907.422 1.657v.51h-2.655v.11c0 .51.096.88.286 1.111.193.232.47.347.83.347.23 0 .43-.042.603-.127.175-.088.34-.226.492-.413l.404.492c-.337.475-.851.712-1.542.712zm-.088-4.263c-.322 0-.561.111-.717.334-.155.22-.243.563-.263 1.028h1.872v-.105c-.02-.451-.103-.773-.246-.967-.14-.193-.356-.29-.646-.29zm3.383-.092c.296-.384.674-.576 1.134-.576.841 0 1.267.561 1.28 1.683V85h-.774v-3.124c0-.373-.063-.636-.19-.791-.122-.159-.308-.238-.557-.238a.797.797 0 00-.523.194 1.405 1.405 0 00-.37.505V85h-.777v-6.75h.777v2.483zm5.274 4.355c-.592 0-1.046-.176-1.362-.527-.317-.355-.478-.874-.484-1.556v-.576c0-.709.154-1.264.462-1.665.31-.405.742-.607 1.296-.607.557 0 .973.178 1.248.532.276.355.416.907.422 1.657v.51h-2.654v.11c0 .51.095.88.285 1.111.194.232.47.347.83.347.23 0 .43-.042.603-.127.176-.088.34-.226.492-.413l.404.492c-.337.475-.85.712-1.542.712zm-.088-4.263c-.322 0-.561.111-.716.334-.156.22-.243.563-.264 1.028h1.872v-.105c-.02-.451-.102-.773-.246-.967-.14-.193-.356-.29-.646-.29zm3.34-.58l.022.514c.302-.401.687-.602 1.156-.602.84 0 1.267.561 1.278 1.683V85h-.773v-3.124c0-.373-.063-.636-.189-.791-.123-.159-.309-.238-.558-.238a.798.798 0 00-.523.194 1.405 1.405 0 00-.37.505V85h-.777v-4.755h.734zm3.634 6.03l-.461-.317c.275-.384.419-.78.43-1.186v-.734h.796v.637c0 .296-.073.592-.22.888a2.056 2.056 0 01-.545.711zM73.557 85h-.805v-6.398h.805V85zm2.078-4.267c.296-.384.674-.576 1.134-.576.84 0 1.267.561 1.279 1.683V85h-.774v-3.124c0-.373-.063-.636-.189-.791-.123-.159-.309-.238-.558-.238a.798.798 0 00-.523.194 1.405 1.405 0 00-.369.505V85h-.778v-6.75h.778v2.483zm5.537.242a1.893 1.893 0 00-.351-.031c-.399 0-.677.218-.835.655V85h-.778v-4.755h.756l.013.483c.208-.38.502-.57.883-.57.123 0 .226.02.308.06l.004.757zm6.957 3.23l-.14.175c-.405.472-.997.708-1.776.708-.691 0-1.235-.229-1.63-.686-.393-.46-.594-1.109-.602-1.946v-1.257c0-.897.178-1.568.536-2.013.36-.448.898-.672 1.612-.672.61 0 1.086.17 1.429.51.345.34.536.824.57 1.454h-.803c-.032-.398-.144-.709-.334-.932-.188-.225-.473-.338-.857-.338-.46 0-.797.15-1.011.453-.214.299-.325.778-.334 1.437v1.305c0 .644.123 1.14.37 1.485.245.343.598.514 1.058.514.434 0 .764-.105.99-.316l.118-.11V82.5h-1.17v-.685h1.974v2.39zm2.905.883c-.592 0-1.046-.176-1.363-.527-.316-.355-.477-.874-.483-1.556v-.576c0-.709.154-1.264.461-1.665.311-.405.743-.607 1.297-.607.556 0 .972.178 1.248.532.275.355.416.907.422 1.657v.51H89.96v.11c0 .51.096.88.286 1.111.193.232.47.347.83.347.23 0 .43-.042.603-.127a1.52 1.52 0 00.492-.413l.404.492c-.337.475-.85.712-1.542.712zm-.088-4.263c-.322 0-.561.111-.716.334-.156.22-.244.563-.264 1.028h1.872v-.105c-.02-.451-.103-.773-.246-.967-.14-.193-.356-.29-.646-.29zM94.39 85h-.778v-6.75h.778V85zm1.064-2.593c0-.732.136-1.29.408-1.674.276-.384.67-.576 1.182-.576.454 0 .809.185 1.064.554V78.25h.778V85h-.712l-.04-.51c-.255.399-.62.598-1.094.598-.492 0-.879-.19-1.16-.571-.278-.384-.42-.925-.426-1.622v-.488zm.777.444c0 .533.08.926.238 1.178.158.249.416.373.773.373.387 0 .675-.195.866-.584v-2.4c-.2-.38-.486-.57-.861-.57-.358 0-.616.125-.774.377-.158.25-.239.633-.242 1.151v.475zm6.636 1.485h2.294V85h-3.182v-.598l2.18-3.484h-2.162v-.673h3.076v.576l-2.206 3.515zm5.66.246c-.257.337-.634.506-1.129.506-.431 0-.756-.148-.976-.444-.219-.299-.331-.732-.334-1.3v-3.099h.774v3.041c0 .741.222 1.112.668 1.112.471 0 .797-.211.975-.633v-3.52h.778V85h-.738l-.018-.418zM5.929 93.819l.901-3.573h.791L6.211 95h-.58l-1.429-4.755h.791l.936 3.573zm4.201 1.27c-.591 0-1.046-.176-1.362-.527-.316-.355-.477-.874-.483-1.556v-.576c0-.709.153-1.264.461-1.665.31-.405.743-.607 1.296-.607.557 0 .973.178 1.248.532.276.355.417.907.422 1.657v.51H9.058v.11c0 .51.095.88.286 1.111.193.232.47.347.83.347.229 0 .43-.042.602-.127a1.52 1.52 0 00.493-.413l.404.492c-.337.475-.851.712-1.543.712zm-.088-4.263c-.322 0-.56.111-.716.334-.155.22-.243.563-.264 1.028h1.873v-.105c-.02-.451-.103-.773-.247-.967-.14-.193-.356-.29-.646-.29zm4.57.15a1.893 1.893 0 00-.35-.031c-.4 0-.678.218-.836.655V95h-.778v-4.755h.756l.014.483c.208-.38.502-.57.883-.57.123 0 .225.02.307.06l.005.757zM16.23 95h-.778v-6.75h.778V95zm2.065 0h-.777v-4.755h.777V95zm.062-6.016a.498.498 0 01-.11.33c-.073.087-.184.131-.334.131-.146 0-.256-.044-.33-.131a.498.498 0 01-.11-.33c0-.132.037-.243.11-.334.074-.09.184-.136.33-.136.147 0 .256.047.33.14.076.091.114.201.114.33zm2.865 6.104c-.592 0-1.046-.176-1.362-.527-.316-.355-.478-.874-.483-1.556v-.576c0-.709.153-1.264.46-1.665.311-.405.744-.607 1.297-.607.557 0 .973.178 1.248.532.276.355.416.907.422 1.657v.51H20.15v.11c0 .51.095.88.286 1.111.193.232.47.347.83.347.229 0 .43-.042.602-.127a1.52 1.52 0 00.492-.413l.405.492c-.337.475-.851.712-1.543.712zm-.088-4.263c-.322 0-.56.111-.716.334-.155.22-.243.563-.264 1.028h1.872v-.105c-.02-.451-.102-.773-.246-.967-.14-.193-.356-.29-.646-.29zm4.57.15a1.893 1.893 0 00-.351-.031c-.398 0-.677.218-.835.655V95h-.778v-4.755h.756l.013.483c.208-.38.503-.57.884-.57.123 0 .225.02.307.06l.005.757zm2.48 4.113c-.593 0-1.047-.176-1.363-.527-.317-.355-.478-.874-.484-1.556v-.576c0-.709.154-1.264.462-1.665.31-.405.742-.607 1.296-.607.557 0 .973.178 1.248.532.276.355.416.907.422 1.657v.51h-2.654v.11c0 .51.095.88.285 1.111.194.232.47.347.831.347.229 0 .43-.042.602-.127a1.52 1.52 0 00.492-.413l.405.492c-.337.475-.851.712-1.543.712zm-.089-4.263c-.322 0-.56.111-.716.334-.155.22-.243.563-.264 1.028h1.872v-.105c-.02-.451-.102-.773-.246-.967-.14-.193-.356-.29-.646-.29zm3.34-.58l.022.514c.302-.401.687-.602 1.156-.602.84 0 1.267.561 1.279 1.683V95h-.774v-3.124c0-.373-.063-.636-.189-.791-.123-.159-.309-.238-.558-.238a.798.798 0 00-.523.194 1.406 1.406 0 00-.369.505V95h-.778v-4.755h.734zm3.678 4.329c0-.14.041-.258.123-.352.085-.094.211-.14.378-.14s.293.046.378.14c.088.094.132.211.132.352a.467.467 0 01-.132.338c-.085.09-.21.136-.378.136-.167 0-.293-.045-.378-.136a.486.486 0 01-.123-.338z" fill="#000"/></svg>