<svg width="109" height="89" viewBox="0 0 109 89" fill="none" xmlns="http://www.w3.org/2000/svg"><path d="M8.256 12h1.824V.88H8.256v4.768H3.024V.88H1.2V12h1.824V7.136h5.232V12zm3.617-4.448c0 2.72 1.84 4.592 4.128 4.592 1.472 0 2.528-.704 3.088-1.456V12h1.84V3.184h-1.84v1.28c-.544-.72-1.568-1.424-3.056-1.424-2.32 0-4.16 1.792-4.16 4.512zm7.216.032c0 1.904-1.296 2.976-2.672 2.976-1.36 0-2.672-1.104-2.672-3.008s1.312-2.928 2.672-2.928c1.376 0 2.672 1.072 2.672 2.96zM29.581 12h1.808V6.8c0-2.464-1.552-3.76-3.616-3.76-1.056 0-2.032.432-2.624 1.152V3.184h-1.824V12h1.824V7.072c0-1.616.88-2.448 2.224-2.448 1.328 0 2.208.832 2.208 2.448V12zm3.527-4.448c0 2.72 1.84 4.592 4.16 4.592 1.44 0 2.496-.672 3.056-1.472V12h1.84V.16h-1.84v4.256c-.672-.832-1.888-1.376-3.04-1.376-2.336 0-4.176 1.792-4.176 4.512zm7.216.032c0 1.904-1.296 2.976-2.672 2.976-1.36 0-2.672-1.104-2.672-3.008s1.312-2.928 2.672-2.928c1.376 0 2.672 1.072 2.672 2.96zm7.947-3.008c1.36 0 2.432.864 2.464 2.224h-4.88c.192-1.392 1.184-2.224 2.416-2.224zm4.128 4.8h-1.968c-.336.688-.96 1.232-2.08 1.232-1.344 0-2.384-.88-2.512-2.336h6.736c.048-.304.064-.592.064-.896 0-2.592-1.776-4.336-4.288-4.336-2.608 0-4.4 1.776-4.4 4.544s1.872 4.56 4.4 4.56c2.16 0 3.552-1.232 4.048-2.768zM54.434 12h1.824V.16h-1.824V12zm-47.09 7.864H1.2V31h6.144v-1.488h-4.32v-3.408h3.84v-1.488h-3.84v-3.264h4.32v-1.488zm2.23 7.072c0 2.832 1.985 4.176 4.32 4.176 2.32 0 4.369-1.344 4.369-4.176V19.88h-1.824v7.088c0 1.728-.976 2.544-2.528 2.544-1.536 0-2.512-.816-2.512-2.544V19.88H9.575v7.056zm16.968-3.728c0 1.104-.64 1.888-2.065 1.888h-2.015v-3.728h2.015c1.424 0 2.064.72 2.064 1.84zm-5.905-3.328V31h1.825v-4.448h1.392L26.413 31h2.175l-2.752-4.608c1.872-.464 2.576-1.872 2.576-3.184 0-1.808-1.296-3.328-3.936-3.328h-3.84zm9.886 13.92h1.792l4.352-17.904h-1.808L30.523 33.8zm8.427-6.864c0 2.832 1.984 4.176 4.32 4.176 2.32 0 4.368-1.344 4.368-4.176V19.88h-1.824v7.088c0 1.728-.976 2.544-2.528 2.544-1.536 0-2.512-.816-2.512-2.544V19.88H38.95v7.056zm18.566.912c0-4.064-5.887-2.496-5.887-5.008 0-1.072.816-1.584 1.872-1.552 1.152.032 1.808.72 1.872 1.472h2.016c-.16-1.904-1.665-3.024-3.793-3.024-2.271 0-3.823 1.216-3.823 3.168 0 4.096 5.903 2.352 5.903 5.04 0 .944-.72 1.632-2 1.632-1.264 0-1.904-.736-1.983-1.648H49.74c0 1.968 1.712 3.184 3.936 3.184 2.48 0 3.84-1.6 3.84-3.264zm5.785-7.968h-3.632V31H63.3c3.568 0 5.904-2.096 5.904-5.52 0-3.44-2.336-5.6-5.904-5.6zm-1.808 9.632v-8.144H63.3c2.624 0 4.032 1.568 4.032 4.112 0 2.528-1.408 4.032-4.032 4.032h-1.808zM87.665 31h1.808v-5.2c0-2.464-1.568-3.76-3.632-3.76-1.28 0-2.528.672-3.072 1.744-.608-1.152-1.776-1.744-3.168-1.744-1.056 0-2.016.432-2.608 1.152v-1.008h-1.824V31h1.824v-4.928c0-1.616.88-2.448 2.224-2.448 1.328 0 2.208.832 2.208 2.448V31h1.808v-4.928c0-1.616.88-2.448 2.224-2.448 1.328 0 2.208.832 2.208 2.448V31zm4.129 0h1.824v-8.816h-1.824V31zm.928-9.984a1.15 1.15 0 001.152-1.168 1.15 1.15 0 00-1.152-1.168c-.656 0-1.168.512-1.168 1.168 0 .656.512 1.168 1.168 1.168zm3.579 7.536c0 1.792.975 2.448 2.543 2.448h1.441v-1.52h-1.12c-.769 0-1.025-.272-1.025-.928v-4.88h2.145v-1.488h-2.144v-2.192H96.3v2.192h-1.04v1.488h1.04v4.88zM7.456 50h1.808v-5.2c0-2.464-1.552-3.76-3.616-3.76-1.056 0-2.032.432-2.624 1.152v-1.008H1.2V50h1.824v-4.928c0-1.616.88-2.448 2.224-2.448 1.328 0 2.208.832 2.208 2.448V50zm4.135 0h1.824v-8.816H11.59V50zm.928-9.984a1.15 1.15 0 001.152-1.168 1.15 1.15 0 00-1.152-1.168c-.656 0-1.168.512-1.168 1.168 0 .656.512 1.168 1.168 1.168zm7.002 2.56c1.36 0 2.432.864 2.464 2.224h-4.88c.192-1.392 1.184-2.224 2.416-2.224zm4.128 4.8h-1.968c-.336.688-.96 1.232-2.08 1.232-1.344 0-2.384-.88-2.512-2.336h6.736c.048-.304.064-.592.064-.896 0-2.592-1.776-4.336-4.288-4.336-2.608 0-4.4 1.776-4.4 4.544s1.872 4.56 4.4 4.56c2.16 0 3.552-1.232 4.048-2.768zm1.427-1.824c0 2.72 1.84 4.592 4.16 4.592 1.44 0 2.496-.672 3.056-1.472V50h1.84V38.16h-1.84v4.256c-.672-.832-1.888-1.376-3.04-1.376-2.336 0-4.176 1.792-4.176 4.512zm7.216.032c0 1.904-1.296 2.976-2.672 2.976-1.36 0-2.672-1.104-2.672-3.008s1.312-2.928 2.672-2.928c1.376 0 2.672 1.072 2.672 2.96zm6.06-.224c0-1.872.832-2.432 2.176-2.432h.464V41.04c-1.248 0-2.128.544-2.64 1.424v-1.28h-1.824V50h1.824v-4.64zM42.67 50h1.824v-8.816h-1.824V50zm.928-9.984a1.15 1.15 0 001.152-1.168 1.15 1.15 0 00-1.152-1.168c-.656 0-1.168.512-1.168 1.168 0 .656.512 1.168 1.168 1.168zm2.682 5.536c0 2.72 1.84 4.592 4.16 4.592 1.44 0 2.496-.72 3.056-1.472v1.472c0 1.76-1.055 2.624-2.463 2.624-1.264 0-2.24-.624-2.512-1.536H46.71c.224 1.952 1.968 3.12 4.32 3.12 2.752 0 4.305-1.808 4.305-4.208v-8.96h-1.84v1.28c-.544-.752-1.617-1.424-3.056-1.424-2.32 0-4.16 1.792-4.16 4.512zm7.216.032c0 1.904-1.295 2.976-2.671 2.976-1.36 0-2.672-1.104-2.672-3.008s1.312-2.928 2.672-2.928c1.376 0 2.672 1.072 2.672 2.96zm7.948-3.008c1.36 0 2.432.864 2.464 2.224h-4.88c.192-1.392 1.184-2.224 2.416-2.224zm4.128 4.8h-1.968c-.336.688-.96 1.232-2.08 1.232-1.344 0-2.384-.88-2.512-2.336h6.736c.048-.304.064-.592.064-.896 0-2.592-1.776-4.336-4.288-4.336-2.608 0-4.4 1.776-4.4 4.544s1.872 4.56 4.4 4.56c2.16 0 3.552-1.232 4.048-2.768zM73.862 50h1.808v-5.2c0-2.464-1.552-3.76-3.616-3.76-1.056 0-2.032.432-2.624 1.152v-1.008h-1.824V50h1.824v-4.928c0-1.616.88-2.448 2.224-2.448 1.328 0 2.208.832 2.208 2.448V50zM8.704 65.848c0-4.064-5.888-2.496-5.888-5.008 0-1.072.816-1.584 1.872-1.552 1.152.032 1.808.72 1.872 1.472h2.016c-.16-1.904-1.664-3.024-3.792-3.024-2.272 0-3.824 1.216-3.824 3.168 0 4.096 5.904 2.352 5.904 5.04 0 .944-.72 1.632-2 1.632-1.264 0-1.904-.736-1.984-1.648H.928c0 1.968 1.712 3.184 3.936 3.184 2.48 0 3.84-1.6 3.84-3.264zm3.976-4.368v-1.296h-1.824v13.008h1.824V67.72a3.986 3.986 0 003.072 1.424c2.32 0 4.144-1.872 4.144-4.592 0-2.72-1.824-4.512-4.144-4.512-1.44 0-2.512.704-3.072 1.44zm5.36 3.072c0 1.904-1.312 3.008-2.688 3.008-1.36 0-2.672-1.072-2.672-2.976 0-1.888 1.312-2.96 2.672-2.96 1.376 0 2.688 1.024 2.688 2.928zm5.484-.192c0-1.872.832-2.432 2.176-2.432h.464V60.04c-1.248 0-2.128.544-2.64 1.424v-1.28H21.7V69h1.824v-4.64zm8.029-2.784c1.36 0 2.432.864 2.464 2.224h-4.88c.192-1.392 1.184-2.224 2.416-2.224zm4.128 4.8h-1.968c-.336.688-.96 1.232-2.08 1.232-1.344 0-2.384-.88-2.512-2.336h6.736c.048-.304.064-.592.064-.896 0-2.592-1.776-4.336-4.288-4.336-2.608 0-4.4 1.776-4.4 4.544s1.872 4.56 4.4 4.56c2.16 0 3.552-1.232 4.048-2.768zm1.427-1.824c0 2.72 1.84 4.592 4.128 4.592 1.472 0 2.528-.704 3.088-1.456V69h1.84v-8.816h-1.84v1.28c-.544-.72-1.568-1.424-3.056-1.424-2.32 0-4.16 1.792-4.16 4.512zm7.216.032c0 1.904-1.296 2.976-2.672 2.976-1.36 0-2.672-1.104-2.672-3.008s1.312-2.928 2.672-2.928c1.376 0 2.672 1.072 2.672 2.96zm3.627-.032c0 2.72 1.84 4.592 4.16 4.592 1.44 0 2.496-.672 3.056-1.472V69h1.84V57.16h-1.84v4.256c-.672-.832-1.888-1.376-3.04-1.376-2.336 0-4.176 1.792-4.176 4.512zm7.216.032c0 1.904-1.296 2.976-2.672 2.976-1.36 0-2.672-1.104-2.672-3.008s1.312-2.928 2.672-2.928c1.376 0 2.672 1.072 2.672 2.96zm10.812 1.952c-.096-3.184-5.072-2.192-5.072-3.968 0-.592.512-.992 1.488-.992.992 0 1.584.528 1.648 1.296h1.824c-.096-1.76-1.408-2.832-3.408-2.832-2.08 0-3.392 1.136-3.392 2.544 0 3.232 5.12 2.24 5.12 3.968 0 .608-.56 1.056-1.616 1.056-1.008 0-1.696-.592-1.76-1.312h-1.888c.08 1.6 1.568 2.848 3.68 2.848 2.08 0 3.376-1.12 3.376-2.608zm14.111-6.352h-1.824v4.912c0 1.616-.88 2.448-2.224 2.448-1.328 0-2.208-.832-2.208-2.448v-4.912h-1.808v5.184c0 2.464 1.568 3.76 3.632 3.76 1.04 0 2.032-.432 2.608-1.184V69h1.824v-8.816zM88.753 69h1.808v-5.2c0-2.464-1.552-3.76-3.616-3.76-1.056 0-2.032.432-2.624 1.152v-1.008h-1.824V69h1.824v-4.928c0-1.616.88-2.448 2.224-2.448 1.328 0 2.208.832 2.208 2.448V69zm3.526-4.448c0 2.72 1.84 4.592 4.16 4.592 1.44 0 2.497-.672 3.057-1.472V69h1.84V57.16h-1.84v4.256c-.672-.832-1.888-1.376-3.04-1.376-2.337 0-4.177 1.792-4.177 4.512zm7.217.032c0 1.904-1.296 2.976-2.672 2.976-1.36 0-2.672-1.104-2.672-3.008s1.311-2.928 2.671-2.928c1.377 0 2.673 1.072 2.673 2.96zM.96 82.016c0 3.392.896 5.952 4.16 5.952 3.264 0 4.16-2.56 4.16-5.952 0-3.328-.896-5.888-4.16-5.888-3.264 0-4.16 2.56-4.16 5.888zm6.528 0c0 2.288-.24 4.288-2.368 4.288s-2.368-2-2.368-4.288c0-2.176.24-4.224 2.368-4.224s2.368 2.048 2.368 4.224zm1.994-2.864c0 1.6 1.04 2.512 2.432 2.512s2.432-.912 2.432-2.512c0-1.584-1.04-2.496-2.432-2.496s-2.432.912-2.432 2.496zm2.432-1.392c.608 0 1.008.4 1.008 1.392 0 .992-.4 1.408-1.008 1.408-.624 0-1.008-.416-1.008-1.408s.384-1.392 1.008-1.392zM11.066 88h1.792l6.384-11.136H17.45L11.066 88zm4.928-2.304c0 1.6 1.04 2.512 2.432 2.512 1.376 0 2.416-.912 2.416-2.512s-1.04-2.496-2.416-2.496c-1.392 0-2.432.896-2.432 2.496zm2.416-1.392c.608 0 1.008.4 1.008 1.392 0 .992-.4 1.392-1.008 1.392s-1.008-.4-1.008-1.392c0-.992.4-1.392 1.008-1.392zM30.117 88h2.384l-4.912-5.552 4.832-5.568h-2.288l-4.32 5.072V76.88H23.99V88h1.824v-4.976L30.117 88zm10.957-4.416c0-2.768-1.984-4.544-4.496-4.544-2.512 0-4.496 1.776-4.496 4.544s1.904 4.56 4.416 4.56c2.528 0 4.576-1.792 4.576-4.56zm-7.136 0c0-2 1.232-2.96 2.608-2.96 1.36 0 2.656.96 2.656 2.96s-1.344 2.976-2.704 2.976c-1.376 0-2.56-.976-2.56-2.976zM53.933 88h1.809v-5.2c0-2.464-1.569-3.76-3.633-3.76-1.28 0-2.528.672-3.072 1.744-.608-1.152-1.776-1.744-3.167-1.744-1.056 0-2.017.432-2.608 1.152v-1.008h-1.825V88h1.825v-4.928c0-1.616.88-2.448 2.224-2.448 1.328 0 2.208.832 2.208 2.448V88H49.5v-4.928c0-1.616.88-2.448 2.224-2.448 1.328 0 2.209.832 2.209 2.448V88zm15.185 0h1.809v-5.2c0-2.464-1.569-3.76-3.633-3.76-1.28 0-2.528.672-3.072 1.744-.607-1.152-1.775-1.744-3.167-1.744-1.056 0-2.017.432-2.608 1.152v-1.008h-1.825V88h1.825v-4.928c0-1.616.88-2.448 2.223-2.448 1.328 0 2.209.832 2.209 2.448V88h1.807v-4.928c0-1.616.88-2.448 2.224-2.448 1.329 0 2.209.832 2.209 2.448V88zm2.69 0h1.823v-8.816h-1.823V88zm.927-9.984a1.15 1.15 0 001.153-1.168 1.15 1.15 0 00-1.153-1.168c-.656 0-1.168.512-1.168 1.168 0 .656.513 1.168 1.169 1.168zm8.427 7.52c-.096-3.184-5.072-2.192-5.072-3.968 0-.592.512-.992 1.488-.992.992 0 1.584.528 1.648 1.296h1.824c-.096-1.76-1.408-2.832-3.408-2.832-2.08 0-3.392 1.136-3.392 2.544 0 3.232 5.12 2.24 5.12 3.968 0 .608-.56 1.056-1.616 1.056-1.008 0-1.696-.592-1.76-1.312h-1.888c.08 1.6 1.568 2.848 3.68 2.848 2.08 0 3.376-1.12 3.376-2.608zm7.107 0c-.096-3.184-5.072-2.192-5.072-3.968 0-.592.512-.992 1.488-.992.992 0 1.584.528 1.648 1.296h1.824c-.096-1.76-1.408-2.832-3.408-2.832-2.08 0-3.392 1.136-3.392 2.544 0 3.232 5.12 2.24 5.12 3.968 0 .608-.56 1.056-1.616 1.056-1.008 0-1.696-.592-1.76-1.312h-1.888c.08 1.6 1.568 2.848 3.68 2.848 2.08 0 3.376-1.12 3.376-2.608zM88.8 88h1.824v-8.816H88.8V88zm.928-9.984a1.15 1.15 0 001.152-1.168 1.15 1.15 0 00-1.152-1.168c-.656 0-1.168.512-1.168 1.168 0 .656.512 1.168 1.168 1.168zm10.25 5.568c0-2.768-1.983-4.544-4.495-4.544s-4.496 1.776-4.496 4.544 1.904 4.56 4.416 4.56c2.528 0 4.576-1.792 4.576-4.56zm-7.135 0c0-2 1.232-2.96 2.608-2.96 1.36 0 2.656.96 2.656 2.96s-1.344 2.976-2.704 2.976c-1.376 0-2.56-.976-2.56-2.976zM106.598 88h1.808v-5.2c0-2.464-1.552-3.76-3.616-3.76-1.056 0-2.032.432-2.624 1.152v-1.008h-1.824V88h1.824v-4.928c0-1.616.88-2.448 2.224-2.448 1.328 0 2.208.832 2.208 2.448V88z" fill="#fff"/></svg>