<svg width="107" height="51" viewBox="0 0 107 51" fill="none" xmlns="http://www.w3.org/2000/svg"><path d="M1.489 5.82c-.313 0-.583-.11-.81-.33-.227-.227-.34-.5-.34-.82 0-.327.113-.6.34-.82.227-.227.497-.34.81-.34.327 0 .6.113.82.34.227.22.34.493.34.82 0 .32-.113.593-.34.82-.22.22-.493.33-.82.33zm12.781-2.8c0 .6-.197 1.083-.59 1.45-.393.367-.983.55-1.77.55H10.5V8h-.7V1.01h2.11c.78 0 1.367.183 1.76.55.4.367.6.853.6 1.46zm-2.36 1.4c1.093 0 1.64-.467 1.64-1.4 0-.467-.13-.82-.39-1.06-.26-.24-.677-.36-1.25-.36H10.5v2.82h1.41zm4.235-.91a1.72 1.72 0 01.7-.79c.32-.187.71-.28 1.17-.28v.73h-.19c-.507 0-.914.137-1.22.41-.307.273-.46.73-.46 1.37V8h-.7V2.54h.7v.97zm7.863 1.48c0 .24-.007.423-.02.55h-4.53c.02.413.12.767.3 1.06.18.293.416.517.71.67.293.147.613.22.96.22.453 0 .833-.11 1.14-.33.313-.22.52-.517.62-.89h.74c-.134.533-.42.97-.86 1.31-.434.333-.98.5-1.64.5-.514 0-.974-.113-1.38-.34a2.513 2.513 0 01-.96-.98c-.227-.427-.34-.923-.34-1.49s.113-1.063.34-1.49c.226-.427.543-.753.95-.98.406-.227.87-.34 1.39-.34.52 0 .973.113 1.36.34.393.227.693.533.9.92.213.38.32.803.32 1.27zm-.71-.02c.006-.407-.077-.753-.25-1.04a1.623 1.623 0 00-.69-.65 2.117 2.117 0 00-.96-.22c-.52 0-.964.167-1.33.5-.367.333-.57.803-.61 1.41h3.84zm2.34-3.46c-.14 0-.26-.05-.36-.15a.503.503 0 01-.15-.37.47.47 0 01.15-.36c.1-.1.22-.15.36-.15.14 0 .26.05.36.15.1.093.15.213.15.36s-.05.27-.15.37c-.1.1-.22.15-.36.15zm.35 1.03V8h-.7V2.54h.7zm3.465 5.54c-.626 0-1.14-.143-1.54-.43a1.606 1.606 0 01-.66-1.19h.72c.034.307.177.557.43.75.26.187.607.28 1.04.28.38 0 .677-.09.89-.27.22-.18.33-.403.33-.67 0-.187-.06-.34-.18-.46a1.218 1.218 0 00-.46-.28 5.937 5.937 0 00-.74-.23 7.582 7.582 0 01-.99-.32 1.753 1.753 0 01-.65-.47c-.173-.213-.26-.497-.26-.85 0-.267.08-.513.24-.74.16-.227.387-.407.68-.54.294-.133.627-.2 1-.2.587 0 1.06.15 1.42.45.36.293.554.7.58 1.22h-.7a1.04 1.04 0 00-.38-.77c-.226-.2-.54-.3-.94-.3-.353 0-.64.083-.86.25-.22.167-.33.373-.33.62 0 .213.064.39.19.53.134.133.297.24.49.32.194.073.454.157.78.25.394.107.707.21.94.31.234.1.434.247.6.44.167.193.254.45.26.77 0 .293-.08.557-.24.79-.16.227-.383.407-.67.54-.286.133-.616.2-.99.2zm5.508-5.62c.513 0 .96.12 1.34.36.38.24.653.543.82.91V2.54h.7v5.6c0 .5-.11.943-.33 1.33a2.184 2.184 0 01-.9.89c-.387.213-.827.32-1.32.32-.7 0-1.283-.167-1.75-.5a2.127 2.127 0 01-.86-1.36h.69c.12.38.347.683.68.91.34.227.753.34 1.24.34.353 0 .67-.077.95-.23.28-.147.5-.367.66-.66.16-.293.24-.64.24-1.04V6.79c-.173.373-.45.683-.83.93-.373.24-.817.36-1.33.36-.5 0-.95-.117-1.35-.35a2.47 2.47 0 01-.93-.99c-.22-.427-.33-.92-.33-1.48 0-.56.11-1.05.33-1.47.227-.427.537-.753.93-.98.4-.233.85-.35 1.35-.35zm2.16 2.81c0-.44-.09-.827-.27-1.16a1.916 1.916 0 00-.74-.77 1.978 1.978 0 00-1.02-.27c-.387 0-.733.087-1.04.26-.307.173-.55.427-.73.76-.173.327-.26.717-.26 1.17 0 .447.087.84.26 1.18.18.333.423.59.73.77.307.173.653.26 1.04.26.373 0 .713-.09 1.02-.27.313-.18.56-.437.74-.77.18-.333.27-.72.27-1.16zm7.238-.28c0 .24-.007.423-.02.55h-4.53c.02.413.12.767.3 1.06.18.293.417.517.71.67.293.147.613.22.96.22.453 0 .833-.11 1.14-.33.314-.22.52-.517.62-.89h.74c-.133.533-.42.97-.86 1.31-.433.333-.98.5-1.64.5-.513 0-.973-.113-1.38-.34a2.514 2.514 0 01-.96-.98c-.227-.427-.34-.923-.34-1.49s.114-1.063.34-1.49c.227-.427.544-.753.95-.98.407-.227.87-.34 1.39-.34.52 0 .973.113 1.36.34.393.227.694.533.9.92.213.38.32.803.32 1.27zm-.71-.02c.007-.407-.077-.753-.25-1.04a1.621 1.621 0 00-.69-.65 2.116 2.116 0 00-.96-.22c-.52 0-.963.167-1.33.5-.366.333-.57.803-.61 1.41h3.84zm3.87 3.11c-.626 0-1.14-.143-1.54-.43a1.606 1.606 0 01-.66-1.19h.72c.034.307.178.557.43.75.26.187.608.28 1.04.28.38 0 .678-.09.89-.27.22-.18.33-.403.33-.67 0-.187-.06-.34-.18-.46a1.218 1.218 0 00-.46-.28 5.937 5.937 0 00-.74-.23 7.582 7.582 0 01-.99-.32 1.753 1.753 0 01-.65-.47c-.173-.213-.26-.497-.26-.85 0-.267.08-.513.24-.74.16-.227.388-.407.68-.54.294-.133.627-.2 1-.2.587 0 1.06.15 1.42.45.36.293.554.7.58 1.22h-.7a1.04 1.04 0 00-.38-.77c-.226-.2-.54-.3-.94-.3-.352 0-.64.083-.86.25-.22.167-.33.373-.33.62 0 .213.064.39.19.53.134.133.298.24.49.32.194.073.454.157.78.25.394.107.708.21.94.31.234.1.434.247.6.44.168.193.254.45.26.77 0 .293-.08.557-.24.79-.16.227-.383.407-.67.54-.286.133-.616.2-.99.2zm4.129-4.95v3.39c0 .333.063.563.19.69.126.127.35.19.67.19h.64V8h-.75c-.494 0-.86-.113-1.1-.34-.24-.233-.36-.613-.36-1.14V3.13h-.76v-.59h.76V1.17h.71v1.37h1.5v.59h-1.5zm2.334 2.13c0-.56.11-1.05.33-1.47a2.4 2.4 0 01.93-.98c.4-.233.85-.35 1.35-.35.52 0 .967.12 1.34.36.38.24.653.547.82.92v-1.2h.7V8h-.7V6.79c-.173.373-.45.683-.83.93-.373.24-.82.36-1.34.36a2.61 2.61 0 01-1.34-.35 2.469 2.469 0 01-.93-.99c-.22-.427-.33-.92-.33-1.48zm4.77.01c0-.44-.09-.827-.27-1.16a1.916 1.916 0 00-.74-.77 1.978 1.978 0 00-1.02-.27c-.387 0-.733.087-1.04.26-.307.173-.55.427-.73.76-.173.327-.26.717-.26 1.17 0 .447.087.84.26 1.18.18.333.423.59.73.77.307.173.653.26 1.04.26.373 0 .713-.09 1.02-.27.313-.18.56-.437.74-.77.18-.333.27-.72.27-1.16zM61.75.6V8h-.7V.6h.7zm2.495 2.53v3.39c0 .333.063.563.19.69s.35.19.67.19h.64V8h-.75c-.493 0-.86-.113-1.1-.34-.24-.233-.36-.613-.36-1.14V3.13h-.76v-.59h.76V1.17h.71v1.37h1.5v.59h-1.5zm7.385-.59V8h-.7v-.96c-.16.34-.407.6-.74.78-.334.18-.707.27-1.12.27-.654 0-1.187-.2-1.6-.6-.414-.407-.62-.993-.62-1.76V2.54h.69v3.11c0 .593.146 1.047.44 1.36.3.313.706.47 1.22.47.526 0 .946-.167 1.26-.5.313-.333.47-.823.47-1.47V2.54h.7zm4.158-.1c.653 0 1.186.203 1.6.61.413.4.62.983.62 1.75V8h-.69V4.88c0-.593-.15-1.047-.45-1.36-.294-.313-.697-.47-1.21-.47-.527 0-.947.167-1.26.5-.314.333-.47.823-.47 1.47V8h-.7V2.54h.7v.93c.173-.333.423-.587.75-.76.326-.18.696-.27 1.11-.27zm6.058.02c.513 0 .96.12 1.34.36.38.24.653.543.82.91V2.54h.7v5.6c0 .5-.11.943-.33 1.33a2.185 2.185 0 01-.9.89c-.387.213-.827.32-1.32.32-.7 0-1.284-.167-1.75-.5a2.127 2.127 0 01-.86-1.36h.69c.12.38.346.683.68.91.34.227.753.34 1.24.34.353 0 .67-.077.95-.23.28-.147.5-.367.66-.66.16-.293.24-.64.24-1.04V6.79c-.174.373-.45.683-.83.93-.374.24-.817.36-1.33.36-.5 0-.95-.117-1.35-.35a2.469 2.469 0 01-.93-.99c-.22-.427-.33-.92-.33-1.48 0-.56.11-1.05.33-1.47a2.4 2.4 0 01.93-.98c.4-.233.85-.35 1.35-.35zm2.16 2.81c0-.44-.09-.827-.27-1.16a1.916 1.916 0 00-.74-.77 1.978 1.978 0 00-1.02-.27c-.387 0-.733.087-1.04.26-.307.173-.55.427-.73.76-.174.327-.26.717-.26 1.17 0 .447.087.84.26 1.18.18.333.423.59.73.77.306.173.653.26 1.04.26.373 0 .713-.09 1.02-.27.313-.18.56-.437.74-.77.18-.333.27-.72.27-1.16zm9.772-2.73V8h-.7v-.96c-.16.34-.407.6-.74.78-.333.18-.707.27-1.12.27-.653 0-1.187-.2-1.6-.6-.413-.407-.62-.993-.62-1.76V2.54h.69v3.11c0 .593.147 1.047.44 1.36.3.313.707.47 1.22.47.527 0 .947-.167 1.26-.5.313-.333.47-.823.47-1.47V2.54h.7zm4.158-.1c.653 0 1.187.203 1.6.61.413.4.62.983.62 1.75V8h-.69V4.88c0-.593-.15-1.047-.45-1.36-.293-.313-.697-.47-1.21-.47-.526 0-.947.167-1.26.5-.313.333-.47.823-.47 1.47V8h-.7V2.54h.7v.93c.174-.333.424-.587.75-.76.327-.18.697-.27 1.11-.27zm3.448 2.82c0-.56.114-1.05.34-1.47.227-.427.537-.753.93-.98.4-.233.85-.35 1.35-.35.48 0 .914.117 1.3.35.387.233.67.537.85.91V.6h.7V8h-.7V6.78a2.13 2.13 0 01-.82.94c-.38.24-.826.36-1.34.36-.5 0-.95-.117-1.35-.35a2.474 2.474 0 01-.93-.99c-.22-.427-.33-.92-.33-1.48zm4.77.01c0-.44-.09-.827-.27-1.16a1.974 1.974 0 00-1.76-1.04c-.386 0-.733.087-1.04.26-.306.173-.55.427-.73.76-.173.327-.26.717-.26 1.17 0 .447.087.84.26 1.18.18.333.424.59.73.77.307.173.654.26 1.04.26a1.974 1.974 0 001.76-1.04c.18-.333.27-.72.27-1.16zM10.5 21.43h2.51V22H9.8v-6.99h.7v6.42zm3.859-5.92c-.14 0-.26-.05-.36-.15a.503.503 0 01-.15-.37.47.47 0 01.15-.36c.1-.1.22-.15.36-.15.14 0 .26.05.36.15.1.093.15.213.15.36s-.05.27-.15.37c-.1.1-.22.15-.36.15zm.35 1.03V22h-.7v-5.46h.7zm1.265 2.72c0-.56.113-1.05.34-1.47.227-.427.537-.753.93-.98.4-.233.85-.35 1.35-.35.514 0 .96.123 1.34.37.38.24.65.543.81.91v-1.2h.7v8.04h-.7V20.8c-.16.367-.433.673-.82.92-.38.24-.83.36-1.35.36a2.61 2.61 0 01-1.34-.35 2.47 2.47 0 01-.93-.99c-.22-.427-.33-.92-.33-1.48zm4.77.01c0-.44-.09-.827-.27-1.16a1.916 1.916 0 00-.74-.77 1.977 1.977 0 00-1.02-.27c-.386 0-.733.087-1.04.26-.306.173-.55.427-.73.76-.173.327-.26.717-.26 1.17 0 .447.087.84.26 1.18.18.333.424.59.73.77.307.173.654.26 1.04.26.373 0 .713-.09 1.02-.27.313-.18.56-.437.74-.77.18-.333.27-.72.27-1.16zm7.028-2.73V22h-.7v-.96c-.16.34-.406.6-.74.78-.333.18-.707.27-1.12.27-.653 0-1.186-.2-1.6-.6-.413-.407-.62-.993-.62-1.76v-3.19h.69v3.11c0 .593.147 1.047.44 1.36.3.313.707.47 1.22.47.527 0 .947-.167 1.26-.5.314-.333.47-.823.47-1.47v-2.97h.7zm1.948-1.03c-.14 0-.26-.05-.36-.15a.503.503 0 01-.15-.37.47.47 0 01.15-.36c.1-.1.22-.15.36-.15.14 0 .26.05.36.15.1.093.15.213.15.36s-.05.27-.15.37c-.1.1-.22.15-.36.15zm.35 1.03V22h-.7v-5.46h.7zm1.265 2.72c0-.56.114-1.05.34-1.47a2.4 2.4 0 01.93-.98c.4-.233.85-.35 1.35-.35.48 0 .914.117 1.3.35.387.233.67.537.85.91V14.6h.7V22h-.7v-1.22c-.166.38-.44.693-.82.94-.38.24-.826.36-1.34.36-.5 0-.95-.117-1.35-.35a2.468 2.468 0 01-.93-.99c-.22-.427-.33-.92-.33-1.48zm4.77.01c0-.44-.09-.827-.27-1.16a1.917 1.917 0 00-.74-.77 1.978 1.978 0 00-1.02-.27c-.386 0-.733.087-1.04.26-.306.173-.55.427-.73.76-.173.327-.26.717-.26 1.17 0 .447.087.84.26 1.18.18.333.424.59.73.77.307.173.654.26 1.04.26.374 0 .714-.09 1.02-.27.314-.18.56-.437.74-.77.18-.333.27-.72.27-1.16zm2.649-3.76c-.14 0-.26-.05-.36-.15a.503.503 0 01-.15-.37.47.47 0 01.15-.36c.1-.1.22-.15.36-.15.14 0 .26.05.36.15.1.093.15.213.15.36s-.05.27-.15.37c-.1.1-.22.15-.36.15zm.35 1.03V22h-.7v-5.46h.7zm2.495.59v3.39c0 .333.063.563.19.69.126.127.35.19.67.19h.64v.6h-.75c-.494 0-.86-.113-1.1-.34-.24-.233-.36-.613-.36-1.14v-3.39h-.76v-.59h.76v-1.37h.71v1.37h1.5v.59h-1.5zm2.334 2.13c0-.56.11-1.05.33-1.47.227-.427.537-.753.93-.98.4-.233.85-.35 1.35-.35.52 0 .967.12 1.34.36.38.24.653.547.82.92v-1.2h.7V22h-.7v-1.21c-.173.373-.45.683-.83.93-.373.24-.82.36-1.34.36a2.61 2.61 0 01-1.34-.35 2.47 2.47 0 01-.93-.99c-.22-.427-.33-.92-.33-1.48zm4.77.01c0-.44-.09-.827-.27-1.16a1.916 1.916 0 00-.74-.77 1.977 1.977 0 00-1.02-.27c-.387 0-.733.087-1.04.26-.306.173-.55.427-.73.76-.173.327-.26.717-.26 1.17 0 .447.087.84.26 1.18.18.333.424.59.73.77.307.173.653.26 1.04.26.373 0 .713-.09 1.02-.27.314-.18.56-.437.74-.77.18-.333.27-.72.27-1.16zm-2.62-3.5a.47.47 0 01-.33-.13.47.47 0 01-.13-.33c0-.127.044-.233.13-.32a.452.452 0 01.33-.14.42.42 0 01.32.14.42.42 0 01.14.32.451.451 0 01-.14.33.435.435 0 01-.32.13zm1.54 0a.47.47 0 01-.33-.13.47.47 0 01-.13-.33c0-.127.044-.233.13-.32a.452.452 0 01.33-.14.42.42 0 01.32.14c.087.087.13.193.13.32a.469.469 0 01-.13.33.435.435 0 01-.32.13zm4.288 1.36v3.39c0 .333.063.563.19.69s.35.19.67.19h.64v.6h-.75c-.493 0-.86-.113-1.1-.34-.24-.233-.36-.613-.36-1.14v-3.39h-.76v-.59h.76v-1.37h.71v1.37h1.5v.59h-1.5zm5.079 2.13c0-.56.11-1.05.33-1.47a2.4 2.4 0 01.93-.98c.4-.233.85-.35 1.35-.35.52 0 .966.12 1.34.36.38.24.653.547.82.92v-1.2h.7V22h-.7v-1.21c-.174.373-.45.683-.83.93-.374.24-.82.36-1.34.36a2.61 2.61 0 01-1.34-.35 2.468 2.468 0 01-.93-.99c-.22-.427-.33-.92-.33-1.48zm4.77.01c0-.44-.09-.827-.27-1.16a1.917 1.917 0 00-.74-.77 1.978 1.978 0 00-1.02-.27c-.387 0-.734.087-1.04.26-.307.173-.55.427-.73.76-.174.327-.26.717-.26 1.17 0 .447.086.84.26 1.18.18.333.423.59.73.77.306.173.653.26 1.04.26.373 0 .713-.09 1.02-.27.313-.18.56-.437.74-.77.18-.333.27-.72.27-1.16zm7.028-2.73V22h-.7v-.96c-.16.34-.407.6-.74.78-.334.18-.707.27-1.12.27-.653 0-1.187-.2-1.6-.6-.413-.407-.62-.993-.62-1.76v-3.19h.69v3.11c0 .593.147 1.047.44 1.36.3.313.706.47 1.22.47.526 0 .947-.167 1.26-.5.313-.333.47-.823.47-1.47v-2.97h.7zm3.748.59h-1.27V22h-.7v-4.87h-.76v-.59h.76v-.38c0-.593.15-1.03.45-1.31.307-.28.8-.42 1.48-.42v.6c-.453 0-.773.087-.96.26-.18.173-.27.463-.27.87v.38h1.27v.59zM10.15 29.51c-.14 0-.26-.05-.36-.15a.503.503 0 01-.15-.37.47.47 0 01.15-.36c.1-.1.22-.15.36-.15.14 0 .26.05.36.15.1.093.15.213.15.36s-.05.27-.15.37c-.1.1-.22.15-.36.15zm.35 1.03V36h-.7v-5.46h.7zm4.145-.1c.654 0 1.187.203 1.6.61.413.4.62.983.62 1.75V36h-.69v-3.12c0-.593-.15-1.047-.45-1.36-.293-.313-.697-.47-1.21-.47-.527 0-.947.167-1.26.5-.313.333-.47.823-.47 1.47V36h-.7v-5.46h.7v.93c.174-.333.424-.587.75-.76.327-.18.697-.27 1.11-.27zm5.648 5.64c-.626 0-1.14-.143-1.54-.43a1.605 1.605 0 01-.66-1.19h.72c.034.307.177.557.43.75.26.187.607.28 1.04.28.38 0 .677-.09.89-.27.22-.18.33-.403.33-.67 0-.187-.06-.34-.18-.46a1.22 1.22 0 00-.46-.28 5.947 5.947 0 00-.74-.23 7.572 7.572 0 01-.99-.32 1.752 1.752 0 01-.65-.47c-.173-.213-.26-.497-.26-.85 0-.267.08-.513.24-.74.16-.227.387-.407.68-.54.294-.133.627-.2 1-.2.587 0 1.06.15 1.42.45.36.293.554.7.58 1.22h-.7a1.04 1.04 0 00-.38-.77c-.226-.2-.54-.3-.94-.3-.353 0-.64.083-.86.25-.22.167-.33.373-.33.62 0 .213.064.39.19.53.134.133.297.24.49.32.194.073.454.157.78.25.394.107.707.21.94.31.234.1.434.247.6.44.167.193.254.45.26.77 0 .293-.08.557-.24.79-.16.227-.383.407-.67.54-.286.133-.616.2-.99.2zm4.128-4.95v3.39c0 .333.063.563.19.69s.35.19.67.19h.64v.6h-.75c-.493 0-.86-.113-1.1-.34-.24-.233-.36-.613-.36-1.14v-3.39h-.76v-.59h.76v-1.37h.71v1.37h1.5v.59h-1.5zm3.004-1.62c-.14 0-.26-.05-.36-.15a.503.503 0 01-.15-.37.47.47 0 01.15-.36c.1-.1.22-.15.36-.15.14 0 .26.05.36.15.1.093.15.213.15.36s-.05.27-.15.37c-.1.1-.22.15-.36.15zm.35 1.03V36h-.7v-5.46h.7zm2.495.59v3.39c0 .333.064.563.19.69.127.127.35.19.67.19h.64v.6h-.75c-.493 0-.86-.113-1.1-.34-.24-.233-.36-.613-.36-1.14v-3.39h-.76v-.59h.76v-1.37h.71v1.37h1.5v.59h-1.5zm7.385-.59V36h-.7v-.96c-.16.34-.407.6-.74.78-.333.18-.707.27-1.12.27-.653 0-1.187-.2-1.6-.6-.413-.407-.62-.993-.62-1.76v-3.19h.69v3.11c0 .593.147 1.047.44 1.36.3.313.707.47 1.22.47.527 0 .947-.167 1.26-.5.313-.333.47-.823.47-1.47v-2.97h.7zm2.508.59v3.39c0 .333.064.563.19.69.127.127.35.19.67.19h.64v.6h-.75c-.493 0-.86-.113-1.1-.34-.24-.233-.36-.613-.36-1.14v-3.39h-.76v-.59h.76v-1.37h.71v1.37h1.5v.59h-1.5zm3.005-1.62c-.14 0-.26-.05-.36-.15a.503.503 0 01-.15-.37.47.47 0 01.15-.36c.1-.1.22-.15.36-.15.14 0 .26.05.36.15.1.093.15.213.15.36s-.05.27-.15.37c-.1.1-.22.15-.36.15zm.35 1.03V36h-.7v-5.46h.7zm3.975 5.54c-.514 0-.977-.113-1.39-.34a2.584 2.584 0 01-.97-.98c-.234-.427-.35-.923-.35-1.49s.12-1.06.36-1.48c.24-.427.566-.753.98-.98.413-.233.876-.35 1.39-.35.513 0 .976.117 1.39.35.42.227.746.553.98.98.24.42.36.913.36 1.48 0 .56-.12 1.053-.36 1.48-.24.427-.57.757-.99.99a2.9 2.9 0 01-1.4.34zm0-.61c.36 0 .693-.08 1-.24a1.88 1.88 0 00.74-.74c.193-.333.29-.74.29-1.22s-.094-.883-.28-1.21a1.797 1.797 0 00-.74-.74 2.06 2.06 0 00-1-.25c-.36 0-.694.083-1 .25-.307.16-.554.407-.74.74-.18.327-.27.73-.27 1.21s.09.887.27 1.22c.186.327.43.573.73.74.306.16.64.24 1 .24zm6.586-5.03c.653 0 1.186.203 1.6.61.413.4.62.983.62 1.75V36h-.69v-3.12c0-.593-.15-1.047-.45-1.36-.294-.313-.697-.47-1.21-.47-.527 0-.947.167-1.26.5-.314.333-.47.823-.47 1.47V36h-.7v-5.46h.7v.93c.173-.333.423-.587.75-.76.326-.18.696-.27 1.11-.27zm8.708 2.55c0 .24-.007.423-.02.55h-4.53c.02.413.12.767.3 1.06.18.293.416.517.71.67.293.147.613.22.96.22.453 0 .833-.11 1.14-.33.313-.22.52-.517.62-.89h.74c-.133.533-.42.97-.86 1.31-.434.333-.98.5-1.64.5-.514 0-.974-.113-1.38-.34a2.512 2.512 0 01-.96-.98c-.227-.427-.34-.923-.34-1.49s.113-1.063.34-1.49c.227-.427.543-.753.95-.98.407-.227.87-.34 1.39-.34.52 0 .973.113 1.36.34.393.227.693.533.9.92.213.38.32.803.32 1.27zm-.71-.02c.007-.407-.077-.753-.25-1.04a1.623 1.623 0 00-.69-.65 2.116 2.116 0 00-.96-.22c-.52 0-.963.167-1.33.5-.367.333-.57.803-.61 1.41h3.84zm2.69-4.37V36h-.7v-7.4h.7zm2.286 0V36h-.7v-7.4h.7zm6.525 4.39c0 .24-.007.423-.02.55h-4.53c.02.413.12.767.3 1.06.18.293.417.517.71.67.293.147.613.22.96.22.453 0 .833-.11 1.14-.33.313-.22.52-.517.62-.89h.74c-.133.533-.42.97-.86 1.31-.433.333-.98.5-1.64.5-.513 0-.973-.113-1.38-.34a2.512 2.512 0 01-.96-.98c-.227-.427-.34-.923-.34-1.49s.113-1.063.34-1.49c.227-.427.543-.753.95-.98.407-.227.87-.34 1.39-.34.52 0 .973.113 1.36.34.393.227.693.533.9.92.213.38.32.803.32 1.27zm-.71-.02c.007-.407-.077-.753-.25-1.04a1.623 1.623 0 00-.69-.65 2.116 2.116 0 00-.96-.22c-.52 0-.963.167-1.33.5-.367.333-.57.803-.61 1.41h3.84zm8.49-2.53c.64 0 1.16.203 1.56.61.407.4.61.983.61 1.75V36h-.69v-3.12c0-.593-.143-1.047-.43-1.36-.286-.313-.676-.47-1.17-.47-.513 0-.923.17-1.23.51-.306.34-.46.833-.46 1.48V36h-.69v-3.12c0-.593-.143-1.047-.43-1.36-.286-.313-.68-.47-1.18-.47-.513 0-.923.17-1.23.51-.306.34-.46.833-.46 1.48V36h-.7v-5.46h.7v.94c.174-.34.42-.597.74-.77.32-.18.677-.27 1.07-.27.474 0 .887.113 1.24.34.36.227.62.56.78 1 .147-.433.397-.763.75-.99.36-.233.767-.35 1.22-.35zM15.07 50h-.7l-3.87-5.88V50h-.7v-6.99h.7l3.87 5.87v-5.87h.7V50zm1.936-6.49c-.14 0-.26-.05-.36-.15a.503.503 0 01-.15-.37.47.47 0 01.15-.36c.1-.1.22-.15.36-.15.14 0 .26.05.36.15.1.093.15.213.15.36s-.05.27-.15.37c-.1.1-.22.15-.36.15zm.35 1.03V50h-.7v-5.46h.7zm3.525 4.78l1.84-4.78h.74L21.27 50h-.79l-2.19-5.46h.75l1.84 4.78zm8.468-2.33c0 .24-.006.423-.02.55H24.8c.02.413.12.767.3 1.06.18.293.417.517.71.67.294.147.614.22.96.22.454 0 .834-.11 1.14-.33.314-.22.52-.517.62-.89h.74c-.133.533-.42.97-.86 1.31-.433.333-.98.5-1.64.5-.513 0-.973-.113-1.38-.34a2.512 2.512 0 01-.96-.98c-.226-.427-.34-.923-.34-1.49s.114-1.063.34-1.49c.227-.427.544-.753.95-.98.407-.227.87-.34 1.39-.34.52 0 .974.113 1.36.34.394.227.694.533.9.92.214.38.32.803.32 1.27zm-.71-.02c.007-.407-.076-.753-.25-1.04a1.623 1.623 0 00-.69-.65 2.116 2.116 0 00-.96-.22c-.52 0-.963.167-1.33.5-.366.333-.57.803-.61 1.41h3.84zm1.671.29c0-.56.11-1.05.33-1.47a2.4 2.4 0 01.93-.98c.4-.233.85-.35 1.35-.35.52 0 .967.12 1.34.36.38.24.653.547.82.92v-1.2h.7V50h-.7v-1.21c-.173.373-.45.683-.83.93-.373.24-.82.36-1.34.36a2.61 2.61 0 01-1.34-.35 2.468 2.468 0 01-.93-.99c-.22-.427-.33-.92-.33-1.48zm4.77.01c0-.44-.09-.827-.27-1.16a1.917 1.917 0 00-.74-.77 1.978 1.978 0 00-1.02-.27c-.387 0-.733.087-1.04.26-.307.173-.55.427-.73.76-.173.327-.26.717-.26 1.17 0 .447.087.84.26 1.18.18.333.423.59.73.77.307.173.653.26 1.04.26.373 0 .713-.09 1.02-.27.313-.18.56-.437.74-.77.18-.333.27-.72.27-1.16zm7.028-2.73V50h-.7v-.96c-.16.34-.407.6-.74.78-.333.18-.706.27-1.12.27-.653 0-1.187-.2-1.6-.6-.413-.407-.62-.993-.62-1.76v-3.19h.69v3.11c0 .593.147 1.047.44 1.36.3.313.707.47 1.22.47.527 0 .947-.167 1.26-.5.313-.333.47-.823.47-1.47v-2.97h.7z" fill="#fff"/></svg>