<svg width="970" height="24" viewBox="0 0 970 24" fill="none" xmlns="http://www.w3.org/2000/svg"><path fill="#fff" d="M0 0h970v24H0z"/><path d="M304.124 17h1.014v-4.16h2.093v-.923h-2.093V8.823h2.6V7.9h-3.614V17zm6.419.13c1.352 0 2.093-.806 2.093-2.249v-4.875c0-1.443-.741-2.236-2.093-2.236-1.339 0-2.08.793-2.08 2.236v4.875c0 1.443.741 2.249 2.08 2.249zm0-.923c-.676 0-1.066-.39-1.066-1.261V9.941c0-.858.39-1.248 1.066-1.248.689 0 1.079.39 1.079 1.248v5.005c0 .871-.39 1.261-1.079 1.261zm3.229.793h1.014v-4.108h.819c.858 0 1.209.338 1.209 1.326v1.677c0 .611.039.845.117 1.105h1.027c-.117-.325-.13-.689-.13-1.105V14.27c0-1.066-.299-1.703-1.066-1.898v-.013c.728-.234 1.053-.832 1.053-1.833v-.559c0-1.417-.611-2.067-2.054-2.067h-1.989V17zm1.014-5.031V8.823h.949c.754 0 1.066.364 1.066 1.248v.65c0 .91-.403 1.248-1.196 1.248h-.819zM318.99 17h3.731v-.923h-2.717V12.71h2.21v-.923h-2.21V8.823h2.717V7.9h-3.731V17zm4.256 0h.975l1.365-3.627L326.951 17h1.079l-1.794-4.654 1.716-4.446h-.975l-1.3 3.406-1.274-3.406h-1.079l1.716 4.446L323.246 17zm8.95 0h1.014V8.823h1.612V7.9h-4.238v.923h1.612V17zm3.463 0h1.014v-4.108h.819c.858 0 1.209.338 1.209 1.326v1.677c0 .611.039.845.117 1.105h1.027c-.117-.325-.13-.689-.13-1.105V14.27c0-1.066-.299-1.703-1.066-1.898v-.013c.728-.234 1.053-.832 1.053-1.833v-.559c0-1.417-.611-2.067-2.054-2.067h-1.989V17zm1.014-5.031V8.823h.949c.754 0 1.066.364 1.066 1.248v.65c0 .91-.403 1.248-1.196 1.248h-.819zm7.57 5.031h1.027l-1.703-9.1h-1.365l-1.69 9.1h.949l.338-1.937h2.106l.338 1.937zm-2.288-2.821l.884-5.122.91 5.122h-1.794zM346.12 17h2.08c1.404 0 2.054-.741 2.054-2.21v-4.68c0-1.469-.65-2.21-2.054-2.21h-2.08V17zm1.014-.923V8.823h1.04c.715 0 1.066.338 1.066 1.235v4.771c0 .897-.351 1.248-1.066 1.248h-1.04zm4.267.923h1.014V7.9h-1.014V17zm2.247 0h.923V9.603L356.872 17h1.053V7.9h-.923v6.5l-2.054-6.5h-1.3V17zm7.473.13c1.352 0 2.067-.806 2.067-2.249v-2.886h-1.963v.923h1.001v2.041c0 .871-.39 1.248-1.079 1.248-.676 0-1.066-.377-1.066-1.248V9.941c0-.858.39-1.248 1.066-1.248.689 0 1.079.39 1.079 1.248v.806h.962v-.741c0-1.443-.715-2.236-2.067-2.236-1.339 0-2.054.793-2.054 2.236v4.875c0 1.443.715 2.249 2.054 2.249zm5.274-.13h1.014V7.9h-1.014V17zm2.247 0h.923V9.603L371.866 17h1.053V7.9h-.923v6.5l-2.054-6.5h-1.3V17zm6.757 0h1.352l1.612-9.1h-.936l-1.313 7.722-1.313-7.722h-1.027l1.625 9.1zm5.743.13c1.352 0 2.093-.806 2.093-2.249v-4.875c0-1.443-.741-2.236-2.093-2.236-1.339 0-2.08.793-2.08 2.236v4.875c0 1.443.741 2.249 2.08 2.249zm0-.923c-.676 0-1.066-.39-1.066-1.261V9.941c0-.858.39-1.248 1.066-1.248.689 0 1.079.39 1.079 1.248v5.005c0 .871-.39 1.261-1.079 1.261zm3.229.793h3.614v-.923h-2.6V7.9h-1.014V17zm4.98 0h1.352l1.612-9.1h-.936l-1.313 7.722-1.313-7.722h-1.027l1.625 9.1zm3.805 0h3.731v-.923h-2.717V12.71h2.21v-.923h-2.21V8.823h2.717V7.9h-3.731V17zm6.427.13c1.326 0 2.067-.806 2.067-2.223 0-1.105-.403-1.833-1.651-2.873-1.079-.884-1.443-1.404-1.443-2.158 0-.793.39-1.183 1.04-1.183.663 0 1.04.39 1.04 1.209v.429h.962v-.364c0-1.391-.689-2.197-2.002-2.197-1.313 0-2.041.806-2.041 2.171 0 1.027.416 1.755 1.677 2.795 1.053.871 1.404 1.404 1.404 2.249 0 .832-.403 1.222-1.066 1.222-.65 0-1.053-.39-1.053-1.209v-.585h-.962v.507c0 1.404.702 2.21 2.028 2.21zm6.919 0c1.326 0 2.067-.806 2.067-2.223 0-1.105-.403-1.833-1.651-2.873-1.079-.884-1.443-1.404-1.443-2.158 0-.793.39-1.183 1.04-1.183.663 0 1.04.39 1.04 1.209v.429h.962v-.364c0-1.391-.689-2.197-2.002-2.197-1.313 0-2.041.806-2.041 2.171 0 1.027.416 1.755 1.677 2.795 1.053.871 1.404 1.404 1.404 2.249 0 .832-.403 1.222-1.066 1.222-.65 0-1.053-.39-1.053-1.209v-.585h-.962v.507c0 1.404.702 2.21 2.028 2.21zm3.031-.13h1.014V7.9h-1.014V17zm4.197.13c1.352 0 2.067-.806 2.067-2.249v-2.886h-1.963v.923h1.001v2.041c0 .871-.39 1.248-1.079 1.248-.676 0-1.066-.377-1.066-1.248V9.941c0-.858.39-1.248 1.066-1.248.689 0 1.079.39 1.079 1.248v.806h.962v-.741c0-1.443-.715-2.236-2.067-2.236-1.339 0-2.054.793-2.054 2.236v4.875c0 1.443.715 2.249 2.054 2.249zm3.154-.13h.923V9.603L420.108 17h1.053V7.9h-.923v6.5l-2.054-6.5h-1.3V17zm5.522 0h1.014V7.9h-1.014V17zm2.247 0h1.014v-4.16h2.093v-.923h-2.093V8.823h2.6V7.9h-3.614V17zm4.444 0h1.014V7.9h-1.014V17zm4.171.13c1.313 0 2.028-.819 2.028-2.171V13.75h-.962v1.274c0 .78-.403 1.183-1.04 1.183s-1.04-.403-1.04-1.183V9.876c0-.78.403-1.183 1.04-1.183s1.04.403 1.04 1.183v1.001h.962v-.936c0-1.365-.715-2.171-2.028-2.171-1.3 0-2.028.806-2.028 2.171v5.018c0 1.352.728 2.171 2.028 2.171zm6.355-.13h1.027l-1.703-9.1h-1.365l-1.69 9.1h.949l.338-1.937h2.106l.338 1.937zm-2.288-2.821l.884-5.122.91 5.122h-1.794zM441.5 17h.923V9.603L444.724 17h1.053V7.9h-.923v6.5L442.8 7.9h-1.3V17zm6.731 0h1.014V8.823h1.612V7.9h-4.238v.923h1.612V17zm5.583 0h1.014v-4.108h.819c.858 0 1.209.338 1.209 1.326v1.677c0 .611.039.845.117 1.105H458c-.117-.325-.13-.689-.13-1.105V14.27c0-1.066-.299-1.703-1.066-1.898v-.013c.728-.234 1.053-.832 1.053-1.833v-.559c0-1.417-.611-2.067-2.054-2.067h-1.989V17zm1.014-5.031V8.823h.949c.754 0 1.066.364 1.066 1.248v.65c0 .91-.403 1.248-1.196 1.248h-.819zM459.032 17h1.014V7.9h-1.014V17zm4.015.13c1.326 0 2.067-.806 2.067-2.223 0-1.105-.403-1.833-1.651-2.873-1.079-.884-1.443-1.404-1.443-2.158 0-.793.39-1.183 1.04-1.183.663 0 1.04.39 1.04 1.209v.429h.962v-.364c0-1.391-.689-2.197-2.002-2.197-1.313 0-2.041.806-2.041 2.171 0 1.027.416 1.755 1.677 2.795 1.053.871 1.404 1.404 1.404 2.249 0 .832-.403 1.222-1.066 1.222-.65 0-1.053-.39-1.053-1.209v-.585h-.962v.507c0 1.404.702 2.21 2.028 2.21zm6.437-.13h1.066l-1.911-5.681 1.885-3.419h-1.053l-2.379 4.485V7.9h-1.014V17h1.014v-3.003l.871-1.521L469.484 17zm5.997.13c1.352 0 2.093-.806 2.093-2.249v-4.875c0-1.443-.741-2.236-2.093-2.236-1.339 0-2.08.793-2.08 2.236v4.875c0 1.443.741 2.249 2.08 2.249zm0-.923c-.676 0-1.066-.39-1.066-1.261V9.941c0-.858.39-1.248 1.066-1.248.689 0 1.079.39 1.079 1.248v5.005c0 .871-.39 1.261-1.079 1.261zm3.229.793h1.014v-4.16h2.093v-.923h-2.093V8.823h2.6V7.9h-3.614V17zm6.563 0h3.614v-.923h-2.6V7.9h-1.014V17zm6.344.13c1.352 0 2.093-.806 2.093-2.249v-4.875c0-1.443-.741-2.236-2.093-2.236-1.339 0-2.08.793-2.08 2.236v4.875c0 1.443.741 2.249 2.08 2.249zm0-.923c-.676 0-1.066-.39-1.066-1.261V9.941c0-.858.39-1.248 1.066-1.248.689 0 1.079.39 1.079 1.248v5.005c0 .871-.39 1.261-1.079 1.261zm4.997.923c1.326 0 2.067-.806 2.067-2.223 0-1.105-.403-1.833-1.651-2.873-1.079-.884-1.443-1.404-1.443-2.158 0-.793.39-1.183 1.04-1.183.663 0 1.04.39 1.04 1.209v.429h.962v-.364c0-1.391-.689-2.197-2.002-2.197-1.313 0-2.041.806-2.041 2.171 0 1.027.416 1.755 1.677 2.795 1.053.871 1.404 1.404 1.404 2.249 0 .832-.403 1.222-1.066 1.222-.65 0-1.053-.39-1.053-1.209v-.585h-.962v.507c0 1.404.702 2.21 2.028 2.21zm4.786 0c1.326 0 2.067-.806 2.067-2.223 0-1.105-.403-1.833-1.651-2.873-1.079-.884-1.443-1.404-1.443-2.158 0-.793.39-1.183 1.04-1.183.663 0 1.04.39 1.04 1.209v.429h.962v-.364c0-1.391-.689-2.197-2.002-2.197-1.313 0-2.041.806-2.041 2.171 0 1.027.416 1.755 1.677 2.795 1.053.871 1.404 1.404 1.404 2.249 0 .832-.403 1.222-1.066 1.222-.65 0-1.053-.39-1.053-1.209v-.585h-.962v.507c0 1.404.702 2.21 2.028 2.21zm8.479-.13h1.027l-1.703-9.1h-1.365l-1.69 9.1h.949l.338-1.937h2.106l.338 1.937zm-2.288-2.821l.884-5.122.91 5.122h-1.794zM511.756 17h.923V9.603L514.98 17h1.053V7.9h-.923v6.5l-2.054-6.5h-1.3V17zm5.522 0h2.08c1.404 0 2.054-.741 2.054-2.21v-4.68c0-1.469-.65-2.21-2.054-2.21h-2.08V17zm1.014-.923V8.823h1.04c.715 0 1.066.338 1.066 1.235v4.771c0 .897-.351 1.248-1.066 1.248h-1.04zm6.388.923h1.014V7.9h-1.014V17zm4.015.13c1.326 0 2.067-.806 2.067-2.223 0-1.105-.403-1.833-1.651-2.873-1.079-.884-1.443-1.404-1.443-2.158 0-.793.39-1.183 1.04-1.183.663 0 1.04.39 1.04 1.209v.429h.962v-.364c0-1.391-.689-2.197-2.002-2.197-1.313 0-2.041.806-2.041 2.171 0 1.027.416 1.755 1.677 2.795 1.053.871 1.404 1.404 1.404 2.249 0 .832-.403 1.222-1.066 1.222-.65 0-1.053-.39-1.053-1.209v-.585h-.962v.507c0 1.404.702 2.21 2.028 2.21zm5.151-.13h.923V9.603L537.07 17h1.053V7.9h-.923v6.5l-2.054-6.5h-1.3V17zm7.498.13c1.352 0 2.093-.806 2.093-2.249v-4.875c0-1.443-.741-2.236-2.093-2.236-1.339 0-2.08.793-2.08 2.236v4.875c0 1.443.741 2.249 2.08 2.249zm0-.923c-.676 0-1.066-.39-1.066-1.261V9.941c0-.858.39-1.248 1.066-1.248.689 0 1.079.39 1.079 1.248v5.005c0 .871-.39 1.261-1.079 1.261zm4.362.793h1.014V8.823h1.612V7.9h-4.238v.923h1.612V17zm7.351.13c1.326 0 2.067-.806 2.067-2.223 0-1.105-.403-1.833-1.651-2.873-1.079-.884-1.443-1.404-1.443-2.158 0-.793.39-1.183 1.04-1.183.663 0 1.04.39 1.04 1.209v.429h.962v-.364c0-1.391-.689-2.197-2.002-2.197-1.313 0-2.041.806-2.041 2.171 0 1.027.416 1.755 1.677 2.795 1.053.871 1.404 1.404 1.404 2.249 0 .832-.403 1.222-1.066 1.222-.65 0-1.053-.39-1.053-1.209v-.585h-.962v.507c0 1.404.702 2.21 2.028 2.21zm5.033 0c1.339 0 2.054-.806 2.054-2.249V7.9h-.988v7.059c0 .858-.377 1.248-1.053 1.248-.676 0-1.053-.39-1.053-1.248V7.9h-1.014v6.981c0 1.443.702 2.249 2.054 2.249zm3.241-.13h1.014V7.9h-1.014V17zm3.456 0h1.014V8.823h1.612V7.9h-4.238v.923h1.612V17zm6.093 0h1.027l-1.703-9.1h-1.365l-1.69 9.1h.949l.338-1.937h2.106L570.88 17zm-2.288-2.821l.884-5.122.91 5.122h-1.794zM572.757 17h2.132c1.417 0 2.093-.715 2.093-2.119v-.78c0-1.014-.338-1.677-1.157-1.911v-.026c.689-.247 1.014-.845 1.014-1.82v-.377c0-1.417-.611-2.067-2.054-2.067h-2.028V17zm1.014-5.213V8.823h.988c.754 0 1.066.364 1.066 1.248v.468c0 .91-.403 1.248-1.196 1.248h-.858zm0 4.29V12.71h.91c.923 0 1.287.364 1.287 1.365v.78c0 .871-.338 1.222-1.079 1.222h-1.118zm4.216.923h3.614v-.923h-2.6V7.9h-1.014V17zm4.444 0h3.731v-.923h-2.717V12.71h2.21v-.923h-2.21V8.823h2.717V7.9h-3.731V17zm6.754 0h1.014v-4.16h2.093v-.923h-2.093V8.823h2.6V7.9h-3.614V17zm6.419.13c1.352 0 2.093-.806 2.093-2.249v-4.875c0-1.443-.741-2.236-2.093-2.236-1.339 0-2.08.793-2.08 2.236v4.875c0 1.443.741 2.249 2.08 2.249zm0-.923c-.676 0-1.066-.39-1.066-1.261V9.941c0-.858.39-1.248 1.066-1.248.689 0 1.079.39 1.079 1.248v5.005c0 .871-.39 1.261-1.079 1.261zm3.229.793h1.014v-4.108h.819c.858 0 1.209.338 1.209 1.326v1.677c0 .611.039.845.117 1.105h1.027c-.117-.325-.13-.689-.13-1.105V14.27c0-1.066-.299-1.703-1.066-1.898v-.013c.728-.234 1.053-.832 1.053-1.833v-.559c0-1.417-.611-2.067-2.054-2.067h-1.989V17zm1.014-5.031V8.823h.949c.754 0 1.066.364 1.066 1.248v.65c0 .91-.403 1.248-1.196 1.248h-.819zM609.499 17h1.027l-1.703-9.1h-1.365l-1.69 9.1h.949l.338-1.937h2.106l.338 1.937zm-2.288-2.821l.884-5.122.91 5.122h-1.794zM611.376 17h3.614v-.923h-2.6V7.9h-1.014V17zm4.443 0h3.614v-.923h-2.6V7.9h-1.014V17zm6.564 0h1.014V7.9h-1.014V17zm2.247 0h.923V9.603L627.854 17h1.053V7.9h-.923v6.5l-2.054-6.5h-1.3V17zm6.757 0h1.352l1.612-9.1h-.936l-1.313 7.722-1.313-7.722h-1.027l1.625 9.1zm3.805 0h3.731v-.923h-2.717V12.71h2.21v-.923h-2.21V8.823h2.717V7.9h-3.731V17zm6.428.13c1.326 0 2.067-.806 2.067-2.223 0-1.105-.403-1.833-1.651-2.873-1.079-.884-1.443-1.404-1.443-2.158 0-.793.39-1.183 1.04-1.183.663 0 1.04.39 1.04 1.209v.429h.962v-.364c0-1.391-.689-2.197-2.002-2.197-1.313 0-2.041.806-2.041 2.171 0 1.027.416 1.755 1.677 2.795 1.053.871 1.404 1.404 1.404 2.249 0 .832-.403 1.222-1.066 1.222-.65 0-1.053-.39-1.053-1.209v-.585h-.962v.507c0 1.404.702 2.21 2.028 2.21zm4.214-.13h1.014V8.823h1.612V7.9h-4.238v.923h1.612V17zm5.363.13c1.352 0 2.093-.806 2.093-2.249v-4.875c0-1.443-.741-2.236-2.093-2.236-1.339 0-2.08.793-2.08 2.236v4.875c0 1.443.741 2.249 2.08 2.249zm0-.923c-.676 0-1.066-.39-1.066-1.261V9.941c0-.858.39-1.248 1.066-1.248.689 0 1.079.39 1.079 1.248v5.005c0 .871-.39 1.261-1.079 1.261zm3.229.793h1.014v-4.108h.819c.858 0 1.209.338 1.209 1.326v1.677c0 .611.039.845.117 1.105h1.027c-.117-.325-.13-.689-.13-1.105V14.27c0-1.066-.299-1.703-1.066-1.898v-.013c.728-.234 1.053-.832 1.053-1.833v-.559c0-1.417-.611-2.067-2.054-2.067h-1.989V17zm1.014-5.031V8.823h.949c.754 0 1.066.364 1.066 1.248v.65c0 .91-.403 1.248-1.196 1.248h-.819zm5.972 5.161c1.326 0 2.067-.806 2.067-2.223 0-1.105-.403-1.833-1.651-2.873-1.079-.884-1.443-1.404-1.443-2.158 0-.793.39-1.183 1.04-1.183.663 0 1.04.39 1.04 1.209v.429h.962v-.364c0-1.391-.689-2.197-2.002-2.197-1.313 0-2.041.806-2.041 2.171 0 1.027.416 1.755 1.677 2.795 1.053.871 1.404 1.404 1.404 2.249 0 .832-.403 1.222-1.066 1.222-.65 0-1.053-.39-1.053-1.209v-.585h-.962v.507c0 1.404.702 2.21 2.028 2.21zm3.082-.13h1.027v-1.313h-1.027V17z" fill="#000"/></svg>