<svg width="130" height="94" viewBox="0 0 130 94" fill="none" xmlns="http://www.w3.org/2000/svg"><path d="M8.514 13h1.881V1.533H8.514v4.916H3.119V1.532H1.237V13h1.881V7.984h5.396V13zm3.73-4.587c0 2.805 1.898 4.736 4.257 4.736 1.518 0 2.607-.726 3.185-1.502V13h1.897V3.909h-1.897v1.32c-.561-.743-1.617-1.469-3.152-1.469-2.392 0-4.29 1.848-4.29 4.653zm7.442.033c0 1.963-1.337 3.069-2.756 3.069-1.402 0-2.755-1.139-2.755-3.102 0-1.964 1.353-3.02 2.755-3.02 1.42 0 2.756 1.106 2.756 3.053zM30.506 13h1.864V7.638c0-2.542-1.6-3.878-3.73-3.878-1.088 0-2.095.446-2.705 1.188v-1.04h-1.881V13h1.88V7.918c0-1.667.908-2.524 2.294-2.524 1.37 0 2.277.857 2.277 2.524V13zm3.636-4.587c0 2.805 1.898 4.736 4.29 4.736 1.485 0 2.574-.693 3.152-1.518V13h1.897V.79h-1.897v4.389c-.693-.858-1.947-1.419-3.135-1.419-2.41 0-4.307 1.848-4.307 4.653zm7.442.033c0 1.963-1.337 3.069-2.756 3.069-1.402 0-2.755-1.139-2.755-3.102 0-1.964 1.353-3.02 2.755-3.02 1.42 0 2.756 1.106 2.756 3.053zm8.196-3.102c1.402 0 2.508.891 2.54 2.293h-5.032c.198-1.435 1.221-2.293 2.492-2.293zm4.257 4.95h-2.03c-.346.71-.99 1.27-2.145 1.27-1.386 0-2.458-.907-2.59-2.409h6.946c.05-.313.066-.61.066-.923 0-2.673-1.831-4.472-4.422-4.472-2.69 0-4.537 1.832-4.537 4.686s1.93 4.703 4.537 4.703c2.228 0 3.663-1.271 4.175-2.855zM56.135 13h1.881V.79h-1.88V13zM7.574 21.516H1.237V33h6.337v-1.535H3.119v-3.514h3.96v-1.535h-3.96V23.05h4.454v-1.534zm2.3 7.293c0 2.92 2.046 4.306 4.455 4.306 2.392 0 4.504-1.386 4.504-4.306v-7.277h-1.88v7.31c0 1.782-1.007 2.623-2.608 2.623-1.584 0-2.59-.841-2.59-2.623v-7.31H9.874v7.277zm17.497-3.845c0 1.139-.66 1.948-2.129 1.948h-2.079v-3.845h2.08c1.468 0 2.128.742 2.128 1.898zm-6.089-3.431V33h1.881v-4.587H24.6L27.239 33h2.244l-2.838-4.752c1.93-.479 2.656-1.93 2.656-3.284 0-1.864-1.336-3.431-4.059-3.431h-3.96zm10.195 14.355h1.848l4.488-18.464h-1.865l-4.471 18.464zm8.69-7.079c0 2.92 2.046 4.306 4.455 4.306 2.392 0 4.504-1.386 4.504-4.306v-7.277h-1.88v7.31c0 1.782-1.007 2.623-2.608 2.623-1.584 0-2.59-.841-2.59-2.623v-7.31h-1.881v7.277zm19.147.94c0-4.19-6.072-2.573-6.072-5.164 0-1.105.841-1.634 1.93-1.6 1.188.032 1.865.742 1.93 1.518h2.08c-.165-1.964-1.716-3.119-3.91-3.119-2.344 0-3.944 1.254-3.944 3.267 0 4.224 6.088 2.425 6.088 5.198 0 .973-.742 1.683-2.062 1.683-1.304 0-1.964-.76-2.046-1.7h-2.013c0 2.03 1.765 3.283 4.059 3.283 2.557 0 3.96-1.65 3.96-3.366zm5.965-8.216h-3.746V33h3.746c3.68 0 6.088-2.162 6.088-5.692 0-3.548-2.409-5.776-6.088-5.776zm-1.865 9.932v-8.398h1.865c2.706 0 4.158 1.617 4.158 4.24 0 2.608-1.452 4.159-4.158 4.159h-1.865zM90.404 33h1.865v-5.363c0-2.54-1.617-3.877-3.746-3.877-1.32 0-2.607.693-3.168 1.798-.627-1.188-1.831-1.798-3.267-1.798-1.089 0-2.079.445-2.69 1.188v-1.04h-1.88V33h1.88v-5.082c0-1.666.908-2.524 2.294-2.524 1.37 0 2.277.858 2.277 2.524V33h1.865v-5.082c0-1.666.907-2.524 2.293-2.524 1.37 0 2.277.858 2.277 2.524V33zm4.258 0h1.881v-9.091h-1.88V33zm.957-10.296c.66 0 1.188-.528 1.188-1.204 0-.677-.528-1.205-1.188-1.205a1.19 1.19 0 00-1.204 1.204 1.19 1.19 0 001.204 1.205zm3.69 7.771c0 1.849 1.007 2.525 2.624 2.525h1.485v-1.567h-1.155c-.792 0-1.056-.281-1.056-.957v-5.033h2.211v-1.535h-2.211v-2.26H99.31v2.26h-1.073v1.535h1.073v5.032zM7.69 53h1.864v-5.362c0-2.541-1.6-3.878-3.729-3.878-1.088 0-2.095.446-2.705 1.188v-1.04H1.237V53h1.881v-5.082c0-1.666.908-2.524 2.294-2.524 1.37 0 2.277.858 2.277 2.524V53zm4.264 0h1.88v-9.092h-1.88V53zm.957-10.296c.66 0 1.188-.528 1.188-1.205 0-.676-.528-1.204-1.188-1.204a1.19 1.19 0 00-1.205 1.204 1.19 1.19 0 001.205 1.205zm7.221 2.64c1.403 0 2.508.891 2.541 2.294H17.64c.198-1.436 1.22-2.294 2.491-2.294zm4.257 4.95h-2.03c-.346.71-.99 1.27-2.144 1.27-1.386 0-2.459-.907-2.59-2.408h6.946c.05-.314.066-.611.066-.925 0-2.672-1.832-4.471-4.422-4.471-2.69 0-4.538 1.832-4.538 4.686 0 2.855 1.93 4.703 4.538 4.703 2.227 0 3.663-1.271 4.174-2.855zm1.472-1.881c0 2.805 1.898 4.736 4.29 4.736 1.485 0 2.574-.694 3.151-1.519V53H35.2V40.79h-1.898v4.389c-.693-.858-1.947-1.419-3.135-1.419-2.409 0-4.306 1.848-4.306 4.653zm7.441.033c0 1.964-1.336 3.069-2.755 3.069-1.402 0-2.755-1.139-2.755-3.102 0-1.963 1.352-3.02 2.755-3.02 1.419 0 2.755 1.106 2.755 3.053zm6.25-.231c0-1.93.858-2.508 2.244-2.508h.478V43.76c-1.287 0-2.194.561-2.722 1.468v-1.32H37.67V53h1.88v-4.785zM44.002 53h1.881v-9.092h-1.88V53zm.957-10.296c.66 0 1.188-.528 1.188-1.205 0-.676-.528-1.204-1.188-1.204a1.19 1.19 0 00-1.204 1.204 1.19 1.19 0 001.204 1.205zm2.767 5.709c0 2.805 1.897 4.736 4.29 4.736 1.485 0 2.574-.743 3.151-1.519v1.518c0 1.816-1.089 2.706-2.54 2.706-1.304 0-2.31-.643-2.591-1.584H48.17c.231 2.013 2.03 3.218 4.455 3.218 2.838 0 4.439-1.864 4.439-4.34v-9.24h-1.898v1.32c-.56-.775-1.666-1.468-3.151-1.468-2.393 0-4.29 1.848-4.29 4.653zm7.441.033c0 1.964-1.336 3.069-2.755 3.069-1.403 0-2.756-1.139-2.756-3.102 0-1.963 1.353-3.02 2.756-3.02 1.419 0 2.755 1.106 2.755 3.053zm8.196-3.102c1.403 0 2.508.891 2.541 2.294h-5.032c.198-1.436 1.22-2.294 2.491-2.294zm4.257 4.95h-2.03c-.346.71-.99 1.27-2.144 1.27-1.386 0-2.459-.907-2.59-2.408h6.946c.05-.314.066-.611.066-.925 0-2.672-1.832-4.471-4.422-4.471-2.69 0-4.538 1.832-4.538 4.686 0 2.855 1.93 4.703 4.538 4.703 2.227 0 3.663-1.271 4.174-2.855zM76.17 53h1.865v-5.362c0-2.541-1.6-3.878-3.73-3.878-1.088 0-2.095.446-2.705 1.188v-1.04h-1.881V53h1.88v-5.082c0-1.666.908-2.524 2.294-2.524 1.37 0 2.277.858 2.277 2.524V53zM8.976 69.75c0-4.192-6.072-2.575-6.072-5.165 0-1.105.841-1.633 1.93-1.6 1.189.032 1.865.742 1.931 1.517h2.079c-.165-1.963-1.716-3.118-3.91-3.118-2.344 0-3.944 1.254-3.944 3.267 0 4.224 6.088 2.425 6.088 5.198 0 .973-.742 1.682-2.062 1.682-1.304 0-1.963-.759-2.046-1.699H.957c0 2.03 1.766 3.284 4.059 3.284 2.558 0 3.96-1.65 3.96-3.367zm4.1-4.505v-1.337h-1.88v13.415h1.88V71.68a4.11 4.11 0 003.168 1.468c2.393 0 4.274-1.93 4.274-4.735 0-2.805-1.881-4.653-4.274-4.653-1.485 0-2.59.726-3.168 1.485zm5.528 3.168c0 1.963-1.353 3.102-2.772 3.102-1.402 0-2.756-1.106-2.756-3.069 0-1.947 1.354-3.052 2.756-3.052 1.419 0 2.772 1.055 2.772 3.019zm5.655-.198c0-1.93.858-2.508 2.244-2.508h.479V63.76c-1.287 0-2.195.561-2.723 1.468v-1.32h-1.88V73h1.88v-4.785zm8.28-2.871c1.402 0 2.508.891 2.54 2.294h-5.032c.198-1.436 1.221-2.294 2.492-2.294zm4.257 4.95h-2.03c-.346.71-.99 1.27-2.145 1.27-1.386 0-2.458-.907-2.59-2.408h6.946c.05-.314.066-.611.066-.925 0-2.672-1.831-4.471-4.422-4.471-2.69 0-4.537 1.831-4.537 4.686s1.93 4.703 4.537 4.703c2.228 0 3.663-1.271 4.175-2.855zm1.471-1.881c0 2.805 1.898 4.736 4.257 4.736 1.518 0 2.607-.727 3.185-1.502V73h1.897v-9.092H45.71v1.32c-.561-.742-1.617-1.468-3.152-1.468-2.392 0-4.29 1.848-4.29 4.653zm7.442.033c0 1.963-1.337 3.069-2.756 3.069-1.402 0-2.755-1.139-2.755-3.102 0-1.963 1.353-3.02 2.755-3.02 1.42 0 2.756 1.106 2.756 3.053zm3.74-.033c0 2.805 1.898 4.736 4.29 4.736 1.486 0 2.575-.694 3.152-1.519V73h1.898V60.79H56.89v4.389c-.693-.858-1.947-1.419-3.135-1.419-2.409 0-4.306 1.848-4.306 4.653zm7.442.033c0 1.963-1.336 3.069-2.755 3.069-1.403 0-2.756-1.139-2.756-3.102 0-1.963 1.353-3.02 2.756-3.02 1.419 0 2.755 1.106 2.755 3.053zm11.15 2.013c-.099-3.284-5.23-2.26-5.23-4.092 0-.61.528-1.023 1.534-1.023 1.023 0 1.633.544 1.7 1.337h1.88c-.099-1.816-1.451-2.921-3.514-2.921-2.145 0-3.498 1.172-3.498 2.623 0 3.334 5.28 2.31 5.28 4.093 0 .627-.578 1.088-1.666 1.088-1.04 0-1.75-.61-1.816-1.352h-1.947c.083 1.65 1.617 2.936 3.795 2.936 2.145 0 3.482-1.154 3.482-2.689zm14.552-6.55h-1.88v5.065c0 1.666-.908 2.525-2.294 2.525-1.37 0-2.277-.858-2.277-2.525v-5.066h-1.865v5.346c0 2.541 1.617 3.878 3.746 3.878 1.072 0 2.095-.446 2.69-1.221V73h1.88v-9.092zM91.526 73h1.865v-5.362c0-2.541-1.6-3.878-3.73-3.878-1.088 0-2.095.446-2.705 1.188v-1.04h-1.881V73h1.88v-5.082c0-1.667.908-2.525 2.294-2.525 1.37 0 2.277.858 2.277 2.525V73zm3.637-4.587c0 2.805 1.898 4.736 4.29 4.736 1.485 0 2.574-.694 3.152-1.519V73h1.897V60.79h-1.897v4.389c-.693-.858-1.947-1.419-3.135-1.419-2.41 0-4.307 1.848-4.307 4.653zm7.442.033c0 1.963-1.337 3.069-2.756 3.069-1.402 0-2.755-1.139-2.755-3.102 0-1.963 1.353-3.02 2.755-3.02 1.419 0 2.756 1.106 2.756 3.053zM.99 86.829c0 3.498.924 6.138 4.29 6.138s4.29-2.64 4.29-6.138c0-3.432-.924-6.072-4.29-6.072S.99 83.397.99 86.829zm6.732 0c0 2.36-.248 4.422-2.442 4.422-2.195 0-2.442-2.063-2.442-4.422 0-2.244.248-4.356 2.442-4.356s2.442 2.112 2.442 4.356zm3.541-2.953c0 1.65 1.073 2.59 2.508 2.59 1.436 0 2.508-.94 2.508-2.59 0-1.634-1.072-2.575-2.508-2.575-1.435 0-2.508.941-2.508 2.575zm2.508-1.436c.627 0 1.04.413 1.04 1.436 0 1.022-.413 1.451-1.04 1.451-.643 0-1.04-.428-1.04-1.451 0-1.023.397-1.436 1.04-1.436zM12.897 93h1.848l6.583-11.484H19.48L12.897 93zm5.082-2.376c0 1.65 1.072 2.59 2.508 2.59 1.419 0 2.491-.94 2.491-2.59s-1.072-2.574-2.491-2.574c-1.436 0-2.508.924-2.508 2.574zm2.491-1.435c.627 0 1.04.412 1.04 1.435 0 1.023-.413 1.436-1.04 1.436s-1.04-.413-1.04-1.436.413-1.435 1.04-1.435zM35.514 93h2.458l-5.066-5.725 4.983-5.743H35.53l-4.455 5.231v-5.23h-1.881V93h1.881v-5.132L35.514 93zm12.784-4.554c0-2.855-2.046-4.686-4.637-4.686-2.59 0-4.636 1.831-4.636 4.686s1.963 4.703 4.554 4.703c2.607 0 4.719-1.849 4.719-4.703zm-7.36 0c0-2.063 1.271-3.052 2.69-3.052 1.403 0 2.74.99 2.74 3.052 0 2.063-1.387 3.069-2.79 3.069-1.418 0-2.64-1.007-2.64-3.069zM63.045 93h1.864v-5.362c0-2.541-1.617-3.878-3.745-3.878-1.32 0-2.607.693-3.168 1.798-.627-1.188-1.832-1.798-3.267-1.798-1.09 0-2.08.445-2.69 1.188v-1.04h-1.88V93h1.88v-5.082c0-1.667.908-2.525 2.294-2.525 1.37 0 2.277.858 2.277 2.525V93h1.864v-5.082c0-1.667.908-2.525 2.294-2.525 1.37 0 2.277.858 2.277 2.525V93zm17.145 0h1.864v-5.362c0-2.541-1.617-3.878-3.745-3.878-1.32 0-2.608.693-3.169 1.798-.626-1.188-1.831-1.798-3.266-1.798-1.09 0-2.08.445-2.69 1.188v-1.04h-1.881V93h1.881v-5.082c0-1.667.907-2.525 2.293-2.525 1.37 0 2.278.858 2.278 2.525V93h1.864v-5.082c0-1.667.907-2.525 2.294-2.525 1.369 0 2.276.858 2.276 2.525V93zm4.258 0h1.88v-9.091h-1.88V93zm.956-10.296c.66 0 1.188-.528 1.188-1.204 0-.677-.527-1.205-1.188-1.205a1.19 1.19 0 00-1.204 1.204 1.19 1.19 0 001.204 1.205zm10.176 7.755c-.1-3.284-5.23-2.26-5.23-4.092 0-.61.527-1.023 1.534-1.023 1.023 0 1.633.544 1.7 1.337h1.88c-.099-1.816-1.452-2.921-3.514-2.921-2.145 0-3.498 1.171-3.498 2.623 0 3.334 5.28 2.31 5.28 4.093 0 .627-.578 1.088-1.667 1.088-1.04 0-1.749-.61-1.815-1.352h-1.947c.083 1.65 1.617 2.936 3.795 2.936 2.145 0 3.482-1.154 3.482-2.689zm8.814 0c-.099-3.284-5.231-2.26-5.231-4.092 0-.61.528-1.023 1.535-1.023 1.023 0 1.633.544 1.699 1.337h1.881c-.099-1.816-1.452-2.921-3.514-2.921-2.145 0-3.499 1.171-3.499 2.623 0 3.334 5.281 2.31 5.281 4.093 0 .627-.578 1.088-1.667 1.088-1.04 0-1.749-.61-1.815-1.352h-1.947c.082 1.65 1.617 2.936 3.795 2.936 2.145 0 3.482-1.154 3.482-2.689zM106.425 93h1.881v-9.091h-1.881V93zm.957-10.296c.66 0 1.188-.528 1.188-1.204 0-.677-.528-1.205-1.188-1.205a1.19 1.19 0 00-1.204 1.204 1.19 1.19 0 001.204 1.205zm12.056 5.742c0-2.855-2.046-4.686-4.636-4.686-2.591 0-4.637 1.831-4.637 4.686s1.964 4.703 4.554 4.703c2.607 0 4.719-1.849 4.719-4.703zm-7.359 0c0-2.063 1.271-3.052 2.69-3.052 1.402 0 2.739.99 2.739 3.052 0 2.063-1.386 3.069-2.789 3.069-1.419 0-2.64-1.007-2.64-3.069zM127.749 93h1.865v-5.362c0-2.541-1.601-3.878-3.729-3.878-1.089 0-2.096.445-2.706 1.188v-1.04h-1.881V93h1.881v-5.082c0-1.667.907-2.525 2.293-2.525 1.37 0 2.277.858 2.277 2.525V93z" fill="#fff"/></svg>