<svg width="91" height="25" viewBox="0 0 91 25" fill="none" xmlns="http://www.w3.org/2000/svg"><path d="M2.238 6.602c-.345 0-.642-.121-.891-.363a1.23 1.23 0 01-.374-.902c0-.36.125-.66.374-.902.25-.25.546-.374.89-.374.36 0 .66.125.903.374.25.242.374.543.374.902 0 .352-.125.653-.374.902a1.225 1.225 0 01-.902.363zm14.059-3.08c0 .66-.216 1.192-.649 1.595-.433.403-1.082.605-1.947.605H12.15V9h-.77V1.311h2.321c.858 0 1.503.202 1.936.605.44.403.66.939.66 1.606zm-2.596 1.54c1.203 0 1.804-.513 1.804-1.54 0-.513-.143-.902-.429-1.166-.286-.264-.744-.396-1.375-.396H12.15v3.102h1.551zm4.658-1.001a1.89 1.89 0 01.77-.869c.352-.205.781-.308 1.287-.308v.803h-.209c-.557 0-1.005.15-1.342.451-.337.3-.506.803-.506 1.507V9h-.77V2.994h.77v1.067zm8.65 1.628c0 .264-.008.466-.023.605h-4.983c.022.455.132.843.33 1.166.198.323.459.568.781.737.323.161.675.242 1.056.242.499 0 .917-.121 1.254-.363.345-.242.572-.568.682-.979h.814a2.559 2.559 0 01-.946 1.441c-.476.367-1.078.55-1.804.55-.564 0-1.07-.125-1.518-.374a2.765 2.765 0 01-1.056-1.078c-.249-.47-.374-1.016-.374-1.639s.125-1.17.374-1.639a2.6 2.6 0 011.045-1.078c.448-.25.957-.374 1.53-.374.571 0 1.07.125 1.495.374.433.25.763.587.99 1.012.235.418.352.884.352 1.397zm-.782-.022c.008-.447-.084-.829-.275-1.144a1.784 1.784 0 00-.759-.715 2.328 2.328 0 00-1.056-.242c-.572 0-1.06.183-1.463.55-.403.367-.627.884-.67 1.551h4.223zm2.575-3.806a.54.54 0 01-.396-.165.553.553 0 01-.165-.407c0-.161.055-.293.165-.396a.54.54 0 01.396-.165.54.54 0 01.396.165c.11.103.165.235.165.396a.553.553 0 01-.165.407.54.54 0 01-.396.165zm.385 1.133V9h-.77V2.994h.77zM33 9.088c-.69 0-1.254-.158-1.694-.473a1.766 1.766 0 01-.726-1.309h.792c.036.337.194.612.473.825.286.205.667.308 1.144.308.418 0 .744-.099.979-.297a.916.916 0 00.363-.737.685.685 0 00-.198-.506 1.34 1.34 0 00-.506-.308 6.537 6.537 0 00-.814-.253 8.327 8.327 0 01-1.09-.352 1.928 1.928 0 01-.714-.517c-.19-.235-.286-.546-.286-.935 0-.293.088-.565.264-.814.176-.25.425-.447.748-.594a2.63 2.63 0 011.1-.22c.645 0 1.166.165 1.562.495.396.323.608.77.638 1.342h-.77a1.144 1.144 0 00-.418-.847c-.25-.22-.594-.33-1.034-.33-.389 0-.704.092-.946.275-.242.183-.363.41-.363.682 0 .235.07.429.209.583.146.147.326.264.539.352.212.08.498.172.858.275.432.117.777.231 1.034.341.256.11.476.271.66.484.183.213.278.495.286.847a1.5 1.5 0 01-.264.869c-.176.25-.422.447-.737.594-.316.147-.679.22-1.09.22zm6.058-6.182c.565 0 1.056.132 1.474.396.418.264.719.598.902 1.001V2.994h.77v6.16c0 .55-.12 1.038-.363 1.463a2.403 2.403 0 01-.99.979c-.425.235-.91.352-1.452.352-.77 0-1.412-.183-1.925-.55a2.34 2.34 0 01-.946-1.496h.76c.131.418.38.752.747 1.001.374.25.829.374 1.364.374a2.14 2.14 0 001.045-.253c.308-.161.55-.403.726-.726.176-.323.264-.704.264-1.144V7.669c-.19.41-.495.752-.913 1.023-.41.264-.898.396-1.463.396-.55 0-1.045-.128-1.485-.385a2.716 2.716 0 01-1.023-1.089c-.242-.47-.363-1.012-.363-1.628 0-.616.121-1.155.363-1.617.25-.47.59-.829 1.023-1.078.44-.257.935-.385 1.485-.385zm2.376 3.091c0-.484-.099-.91-.297-1.276a2.107 2.107 0 00-.814-.847 2.175 2.175 0 00-1.122-.297c-.425 0-.806.095-1.144.286-.337.19-.605.47-.803.836-.19.36-.286.788-.286 1.287 0 .491.096.924.286 1.298.198.367.466.649.803.847.338.19.719.286 1.144.286.41 0 .785-.099 1.122-.297.345-.198.616-.48.814-.847.198-.367.297-.792.297-1.276zm7.962-.308c0 .264-.007.466-.022.605H44.39c.022.455.132.843.33 1.166.198.323.458.568.781.737.323.161.675.242 1.056.242.499 0 .917-.121 1.254-.363.345-.242.572-.568.682-.979h.814a2.56 2.56 0 01-.946 1.441c-.477.367-1.078.55-1.804.55-.565 0-1.07-.125-1.518-.374a2.764 2.764 0 01-1.056-1.078c-.25-.47-.374-1.016-.374-1.639s.125-1.17.374-1.639c.25-.47.598-.829 1.045-1.078.447-.25.957-.374 1.53-.374.571 0 1.07.125 1.495.374.433.25.763.587.99 1.012.235.418.352.884.352 1.397zm-.78-.022c.006-.447-.085-.829-.276-1.144a1.785 1.785 0 00-.759-.715 2.328 2.328 0 00-1.056-.242c-.572 0-1.06.183-1.463.55-.403.367-.627.884-.67 1.551h4.223zM54.048 9l-2.475-2.695V9h-.77V.86h.77v4.818l2.42-2.684h1.078l-2.85 2.992L55.095 9h-1.045zm2.81-4.939a1.89 1.89 0 01.77-.869c.352-.205.781-.308 1.287-.308v.803h-.209c-.557 0-1.005.15-1.342.451-.337.3-.506.803-.506 1.507V9h-.77V2.994h.77v1.067zm5.844 5.027a3.127 3.127 0 01-1.529-.374 2.843 2.843 0 01-1.067-1.078c-.256-.47-.385-1.016-.385-1.639s.132-1.166.396-1.628c.264-.47.624-.829 1.078-1.078a3.056 3.056 0 011.53-.385c.564 0 1.074.128 1.528.385.462.25.822.609 1.078 1.078.264.462.396 1.005.396 1.628 0 .616-.132 1.159-.396 1.628-.264.47-.627.832-1.089 1.089a3.19 3.19 0 01-1.54.374zm0-.671c.396 0 .763-.088 1.1-.264.338-.183.609-.455.814-.814.213-.367.32-.814.32-1.342 0-.528-.103-.972-.309-1.331a1.977 1.977 0 00-.814-.814 2.267 2.267 0 00-1.1-.275c-.396 0-.762.092-1.1.275a1.978 1.978 0 00-.814.814c-.198.36-.297.803-.297 1.331 0 .528.1.975.297 1.342.206.36.473.63.803.814.338.176.704.264 1.1.264zM61.9 2.092a.516.516 0 01-.363-.143.516.516 0 01-.143-.363c0-.14.048-.257.143-.352a.497.497 0 01.363-.154c.14 0 .257.051.352.154a.461.461 0 01.154.352c0 .14-.051.26-.154.363a.478.478 0 01-.352.143zm1.694 0a.516.516 0 01-.363-.143.516.516 0 01-.143-.363c0-.14.048-.257.143-.352a.497.497 0 01.363-.154c.14 0 .257.051.352.154a.478.478 0 01.143.352c0 .14-.047.26-.143.363a.478.478 0 01-.352.143zm6.354.792c.719 0 1.305.224 1.76.671.455.44.682 1.082.682 1.925V9h-.759V5.568c0-.653-.165-1.151-.495-1.496-.323-.345-.766-.517-1.331-.517-.58 0-1.041.183-1.386.55-.345.367-.517.906-.517 1.617V9h-.77V2.994h.77v1.023c.19-.367.466-.645.825-.836.36-.198.766-.297 1.221-.297zm5.146.759v3.729c0 .367.07.62.209.759.14.14.385.209.737.209h.704V9h-.825c-.543 0-.946-.125-1.21-.374-.264-.257-.396-.675-.396-1.254V3.643h-.836v-.649h.836V1.487h.78v1.507h1.65v.649h-1.65zm8.354 2.046c0 .264-.007.466-.022.605h-4.983c.022.455.132.843.33 1.166.198.323.458.568.78.737.323.161.675.242 1.057.242.499 0 .916-.121 1.254-.363.344-.242.572-.568.682-.979h.814a2.56 2.56 0 01-.946 1.441c-.477.367-1.078.55-1.804.55-.565 0-1.07-.125-1.518-.374a2.765 2.765 0 01-1.056-1.078c-.25-.47-.374-1.016-.374-1.639s.124-1.17.374-1.639A2.6 2.6 0 0179.08 3.28c.447-.25.957-.374 1.529-.374s1.07.125 1.496.374c.433.25.763.587.99 1.012.234.418.352.884.352 1.397zm-.781-.022c.007-.447-.085-.829-.275-1.144a1.784 1.784 0 00-.76-.715 2.328 2.328 0 00-1.055-.242c-.572 0-1.06.183-1.463.55-.404.367-.627.884-.671 1.551h4.224zm5.006-2.783c.718 0 1.305.224 1.76.671.454.44.682 1.082.682 1.925V9h-.76V5.568c0-.653-.164-1.151-.494-1.496-.323-.345-.767-.517-1.331-.517-.58 0-1.042.183-1.386.55-.345.367-.517.906-.517 1.617V9h-.77V2.994h.77v1.023c.19-.367.465-.645.825-.836.359-.198.766-.297 1.22-.297zM16.297 18.522c0 .66-.216 1.192-.649 1.595-.433.403-1.082.605-1.947.605H12.15V24h-.77v-7.689h2.321c.858 0 1.503.202 1.936.605.44.403.66.939.66 1.606zm-2.596 1.54c1.203 0 1.804-.513 1.804-1.54 0-.513-.143-.902-.429-1.166-.286-.264-.744-.396-1.375-.396H12.15v3.102h1.551zm4.658-4.202V24h-.77v-8.14h.77zm1.392 5.126c0-.616.12-1.155.363-1.617.249-.47.59-.829 1.023-1.078.44-.257.935-.385 1.485-.385.572 0 1.063.132 1.474.396.418.264.718.601.902 1.012v-1.32h.77V24h-.77v-1.331c-.191.41-.495.752-.913 1.023-.411.264-.902.396-1.474.396a2.87 2.87 0 01-1.474-.385 2.717 2.717 0 01-1.023-1.089c-.242-.47-.363-1.012-.363-1.628zm5.247.011c0-.484-.1-.91-.297-1.276a2.108 2.108 0 00-.814-.847 2.176 2.176 0 00-1.122-.297c-.426 0-.807.095-1.144.286-.338.19-.605.47-.803.836-.191.36-.286.788-.286 1.287 0 .491.095.924.286 1.298.198.367.465.649.803.847.337.19.718.286 1.144.286.41 0 .784-.099 1.122-.297.344-.198.616-.48.814-.847.198-.367.297-.792.297-1.276zm3.528-2.354v3.729c0 .367.07.62.21.759.139.14.384.209.736.209h.704V24h-.824c-.543 0-.947-.125-1.21-.374-.264-.257-.396-.675-.396-1.254v-3.729h-.836v-.649h.835v-1.507h.781v1.507h1.65v.649h-1.65zm3.921 0v3.729c0 .367.07.62.21.759.139.14.384.209.736.209h.704V24h-.825c-.542 0-.946-.125-1.21-.374-.264-.257-.396-.675-.396-1.254v-3.729h-.836v-.649h.836v-1.507h.781v1.507h1.65v.649h-1.65zm5.285 0h-1.397V24h-.77v-5.357h-.836v-.649h.836v-.418c0-.653.165-1.133.495-1.441.338-.308.88-.462 1.628-.462v.66c-.498 0-.85.095-1.056.286-.198.19-.297.51-.297.957v.418h1.397v.649zm3.842 5.445a3.127 3.127 0 01-1.53-.374 2.842 2.842 0 01-1.066-1.078c-.257-.47-.386-1.016-.386-1.639s.133-1.166.397-1.628c.264-.47.623-.829 1.078-1.078a3.055 3.055 0 011.529-.385c.564 0 1.074.128 1.529.385.462.25.82.609 1.078 1.078.264.462.395 1.005.395 1.628 0 .616-.131 1.159-.395 1.628-.265.47-.628.832-1.09 1.089a3.19 3.19 0 01-1.54.374zm0-.671c.395 0 .762-.088 1.1-.264.337-.183.608-.455.813-.814.213-.367.32-.814.32-1.342 0-.528-.103-.972-.309-1.331a1.978 1.978 0 00-.813-.814 2.267 2.267 0 00-1.1-.275c-.397 0-.763.092-1.1.275a1.977 1.977 0 00-.815.814c-.198.36-.297.803-.297 1.331 0 .528.1.975.297 1.342.206.36.474.63.803.814.338.176.705.264 1.1.264zm5.198-4.356a1.89 1.89 0 01.77-.869c.352-.205.781-.308 1.287-.308v.803h-.209c-.557 0-1.005.15-1.342.451-.337.3-.506.803-.506 1.507V24h-.77v-6.006h.77v1.067zm10.365-1.177c.704 0 1.276.224 1.716.671.448.44.671 1.082.671 1.925V24h-.759v-3.432c0-.653-.157-1.151-.473-1.496-.315-.345-.744-.517-1.287-.517-.564 0-1.015.187-1.353.561-.337.374-.506.917-.506 1.628V24h-.759v-3.432c0-.653-.157-1.151-.473-1.496-.315-.345-.748-.517-1.298-.517-.564 0-1.015.187-1.353.561-.337.374-.506.917-.506 1.628V24h-.77v-6.006h.77v1.034c.191-.374.462-.656.814-.847a2.36 2.36 0 011.177-.297c.521 0 .976.125 1.364.374.396.25.682.616.858 1.1.162-.477.437-.84.825-1.089a2.413 2.413 0 011.342-.385zm9.531 2.805c0 .264-.007.466-.022.605h-4.983c.023.455.133.843.33 1.166.198.323.459.568.782.737.322.161.674.242 1.056.242.498 0 .916-.121 1.254-.363.344-.242.572-.568.681-.979h.814a2.559 2.559 0 01-.945 1.441c-.477.367-1.079.55-1.805.55-.564 0-1.07-.125-1.517-.374a2.765 2.765 0 01-1.056-1.078c-.25-.47-.374-1.016-.374-1.639s.124-1.17.373-1.639a2.6 2.6 0 011.045-1.078c.448-.25.957-.374 1.53-.374.572 0 1.07.125 1.495.374.433.25.763.587.99 1.012.235.418.352.884.352 1.397zm-.78-.022c.007-.447-.085-.829-.276-1.144a1.784 1.784 0 00-.758-.715 2.329 2.329 0 00-1.056-.242c-.573 0-1.06.183-1.464.55-.403.367-.627.884-.67 1.551h4.224zm5.005-2.783c.719 0 1.306.224 1.76.671.455.44.682 1.082.682 1.925V24h-.759v-3.432c0-.653-.165-1.151-.495-1.496-.322-.345-.766-.517-1.33-.517-.58 0-1.042.183-1.387.55-.344.367-.517.906-.517 1.617V24h-.77v-6.006h.77v1.023c.19-.367.466-.645.825-.836.36-.198.767-.297 1.221-.297z" fill="#fff"/></svg>