<svg width="138" height="27" viewBox="0 0 138 27" fill="none" xmlns="http://www.w3.org/2000/svg"><path d="M6.589 1.311V9h-.77V5.403H1.65V9H.88V1.311h.77v3.454h4.169V1.311h.77zm1.405 4.675c0-.616.12-1.155.363-1.617.25-.47.59-.829 1.023-1.078.44-.257.935-.385 1.485-.385.572 0 1.063.132 1.474.396.418.264.718.601.902 1.012v-1.32h.77V9h-.77V7.669c-.19.41-.495.752-.913 1.023-.41.264-.902.396-1.474.396a2.871 2.871 0 01-1.474-.385 2.717 2.717 0 01-1.023-1.089c-.242-.47-.363-1.012-.363-1.628zm5.247.011c0-.484-.1-.91-.297-1.276a2.107 2.107 0 00-.814-.847 2.175 2.175 0 00-1.122-.297c-.425 0-.807.095-1.144.286-.338.19-.605.47-.803.836-.19.36-.286.788-.286 1.287 0 .491.095.924.286 1.298.198.367.465.649.803.847.337.19.718.286 1.144.286.41 0 .785-.099 1.122-.297.345-.198.616-.48.814-.847.198-.367.297-.792.297-1.276zm5.344-3.113c.718 0 1.305.224 1.76.671.454.44.682 1.082.682 1.925V9h-.76V5.568c0-.653-.164-1.151-.494-1.496-.323-.345-.767-.517-1.331-.517-.58 0-1.042.183-1.386.55-.345.367-.517.906-.517 1.617V9h-.77V2.994h.77v1.023c.19-.367.465-.645.825-.836.359-.198.766-.297 1.22-.297zm3.793 3.102c0-.616.124-1.155.374-1.617.249-.47.59-.829 1.023-1.078.44-.257.935-.385 1.485-.385.528 0 1.004.128 1.43.385.425.257.737.59.935 1.001V.86h.77V9h-.77V7.658a2.346 2.346 0 01-.902 1.034c-.418.264-.91.396-1.474.396-.55 0-1.045-.128-1.485-.385a2.716 2.716 0 01-1.023-1.089c-.242-.47-.363-1.012-.363-1.628zm5.247.011c0-.484-.1-.91-.297-1.276a2.107 2.107 0 00-.814-.847 2.175 2.175 0 00-1.122-.297c-.426 0-.807.095-1.144.286-.338.19-.605.47-.803.836-.191.36-.286.788-.286 1.287 0 .491.095.924.286 1.298.198.367.465.649.803.847.337.19.718.286 1.144.286.41 0 .784-.099 1.122-.297.344-.198.616-.48.814-.847.198-.367.297-.792.297-1.276zm7.962-.308c0 .264-.008.466-.023.605h-4.983c.023.455.133.843.33 1.166.198.323.459.568.781.737.323.161.675.242 1.056.242.5 0 .917-.121 1.255-.363.344-.242.572-.568.681-.979h.815a2.56 2.56 0 01-.947 1.441c-.476.367-1.078.55-1.803.55-.565 0-1.071-.125-1.519-.374a2.764 2.764 0 01-1.056-1.078c-.249-.47-.373-1.016-.373-1.639s.124-1.17.373-1.639c.25-.47.598-.829 1.046-1.078.447-.25.956-.374 1.529-.374.572 0 1.07.125 1.495.374.433.25.763.587.99 1.012.235.418.352.884.352 1.397zm-.782-.022c.008-.447-.084-.829-.274-1.144a1.785 1.785 0 00-.76-.715 2.328 2.328 0 00-1.056-.242c-.572 0-1.06.183-1.463.55-.403.367-.627.884-.67 1.551h4.224zM37.766.86V9h-.77V.86h.77zm5.148 1.001a.54.54 0 01-.396-.165.553.553 0 01-.166-.407c0-.161.056-.293.166-.396a.54.54 0 01.395-.165.54.54 0 01.397.165c.11.103.165.235.165.396a.553.553 0 01-.165.407.54.54 0 01-.396.165zm.385 1.133V9h-.77V2.994h.77zm4.56-.11c.718 0 1.305.224 1.76.671.454.44.681 1.082.681 1.925V9h-.759V5.568c0-.653-.165-1.151-.495-1.496-.323-.345-.766-.517-1.33-.517-.58 0-1.042.183-1.387.55-.345.367-.517.906-.517 1.617V9h-.77V2.994h.77v1.023c.19-.367.466-.645.825-.836.36-.198.767-.297 1.221-.297zm6.81 3.102c0-.616.125-1.155.375-1.617.249-.47.59-.829 1.023-1.078.44-.257.935-.385 1.485-.385.528 0 1.004.128 1.43.385.425.257.737.59.935 1.001V.86h.77V9h-.77V7.658a2.346 2.346 0 01-.902 1.034c-.418.264-.91.396-1.474.396-.55 0-1.045-.128-1.485-.385a2.718 2.718 0 01-1.023-1.089c-.242-.47-.363-1.012-.363-1.628zm5.248.011c0-.484-.1-.91-.297-1.276a2.107 2.107 0 00-.814-.847 2.175 2.175 0 00-1.122-.297c-.426 0-.807.095-1.144.286-.338.19-.605.47-.803.836-.191.36-.286.788-.286 1.287 0 .491.095.924.286 1.298.198.367.465.649.803.847.337.19.718.286 1.144.286.41 0 .784-.099 1.122-.297.344-.198.616-.48.814-.847.198-.367.297-.792.297-1.276zm7.962-.308c0 .264-.008.466-.022.605h-4.983c.022.455.132.843.33 1.166.197.323.458.568.78.737.323.161.675.242 1.057.242.498 0 .916-.121 1.253-.363.345-.242.572-.568.682-.979h.815a2.56 2.56 0 01-.947 1.441c-.476.367-1.078.55-1.803.55-.565 0-1.071-.125-1.519-.374a2.764 2.764 0 01-1.056-1.078c-.249-.47-.373-1.016-.373-1.639s.124-1.17.373-1.639c.25-.47.598-.829 1.045-1.078.448-.25.958-.374 1.53-.374.572 0 1.07.125 1.495.374.433.25.763.587.99 1.012.235.418.352.884.352 1.397zm-.781-.022c.007-.447-.085-.829-.275-1.144a1.785 1.785 0 00-.76-.715 2.328 2.328 0 00-1.055-.242c-.573 0-1.06.183-1.464.55-.403.367-.627.884-.67 1.551h4.224zm2.96-1.606a1.89 1.89 0 01.77-.869c.351-.205.78-.308 1.286-.308v.803h-.209c-.557 0-1.004.15-1.342.451-.337.3-.506.803-.506 1.507V9h-.77V2.994h.77v1.067zm11.942-2.75V9h-.77V5.403H77.06V9h-.77V1.311h.77v3.454h4.17V1.311H82zm7.191 4.378c0 .264-.007.466-.022.605h-4.983c.022.455.132.843.33 1.166.198.323.458.568.781.737.323.161.675.242 1.056.242.499 0 .917-.121 1.254-.363.345-.242.572-.568.682-.979h.814a2.56 2.56 0 01-.946 1.441c-.477.367-1.078.55-1.804.55-.565 0-1.07-.125-1.518-.374a2.764 2.764 0 01-1.056-1.078c-.25-.47-.374-1.016-.374-1.639s.125-1.17.374-1.639c.25-.47.598-.829 1.045-1.078.447-.25.957-.374 1.529-.374s1.07.125 1.496.374c.433.25.763.587.99 1.012.235.418.352.884.352 1.397zm-.781-.022c.007-.447-.084-.829-.275-1.144a1.785 1.785 0 00-.759-.715 2.328 2.328 0 00-1.056-.242c-.572 0-1.06.183-1.463.55-.403.367-.627.884-.671 1.551h4.224zm2.575-3.806a.54.54 0 01-.396-.165.553.553 0 01-.165-.407c0-.161.055-.293.165-.396a.54.54 0 01.396-.165.54.54 0 01.396.165c.11.103.165.235.165.396a.553.553 0 01-.165.407.54.54 0 01-.396.165zm.385 1.133V9h-.77V2.994h.77zm8.893-.11c.704 0 1.276.224 1.716.671.448.44.671 1.082.671 1.925V9h-.759V5.568c0-.653-.157-1.151-.473-1.496-.315-.345-.744-.517-1.287-.517-.564 0-1.015.187-1.353.561-.337.374-.506.917-.506 1.628V9h-.759V5.568c0-.653-.157-1.151-.473-1.496-.315-.345-.748-.517-1.298-.517-.564 0-1.015.187-1.353.561-.337.374-.506.917-.506 1.628V9h-.77V2.994h.77v1.034c.191-.374.462-.656.814-.847a2.36 2.36 0 011.177-.297c.521 0 .976.125 1.364.374.396.25.682.616.858 1.1.162-.477.437-.84.825-1.089a2.413 2.413 0 011.342-.385zm3.745 3.102c0-.616.121-1.155.363-1.617a2.65 2.65 0 011.023-1.078c.44-.257.935-.385 1.485-.385.572 0 1.064.132 1.474.396.418.264.719.601.902 1.012v-1.32h.77V9h-.77V7.669c-.19.41-.495.752-.913 1.023-.41.264-.902.396-1.474.396a2.873 2.873 0 01-1.474-.385 2.726 2.726 0 01-1.023-1.089c-.242-.47-.363-1.012-.363-1.628zm5.247.011c0-.484-.099-.91-.297-1.276a2.106 2.106 0 00-.814-.847 2.174 2.174 0 00-1.122-.297c-.425 0-.806.095-1.144.286-.337.19-.605.47-.803.836-.19.36-.286.788-.286 1.287 0 .491.096.924.286 1.298.198.367.466.649.803.847.338.19.719.286 1.144.286.411 0 .785-.099 1.122-.297.345-.198.616-.48.814-.847.198-.367.297-.792.297-1.276zm3.529-2.354v3.729c0 .367.07.62.209.759.14.14.385.209.737.209h.704V9h-.825c-.542 0-.946-.125-1.21-.374-.264-.257-.396-.675-.396-1.254V3.643h-.836v-.649h.836V1.487h.781v1.507h1.65v.649h-1.65zm8.073 4.609l2.024-5.258h.814L121.285 9h-.869l-2.409-6.006h.825l2.024 5.258zm6.51.836a3.13 3.13 0 01-1.529-.374 2.845 2.845 0 01-1.067-1.078c-.256-.47-.385-1.016-.385-1.639s.132-1.166.396-1.628c.264-.47.624-.829 1.078-1.078a3.058 3.058 0 011.529-.385c.565 0 1.075.128 1.529.385.462.25.822.609 1.078 1.078.264.462.396 1.005.396 1.628 0 .616-.132 1.159-.396 1.628-.264.47-.627.832-1.089 1.089-.462.25-.975.374-1.54.374zm0-.671c.396 0 .763-.088 1.1-.264.338-.183.609-.455.814-.814.213-.367.319-.814.319-1.342 0-.528-.102-.972-.308-1.331a1.972 1.972 0 00-.814-.814 2.266 2.266 0 00-1.1-.275c-.396 0-.762.092-1.1.275a1.983 1.983 0 00-.814.814c-.198.36-.297.803-.297 1.331 0 .528.099.975.297 1.342.206.36.473.63.803.814.338.176.704.264 1.1.264zm7.245-5.533c.719 0 1.305.224 1.76.671.455.44.682 1.082.682 1.925V9h-.759V5.568c0-.653-.165-1.151-.495-1.496-.323-.345-.766-.517-1.331-.517-.579 0-1.041.183-1.386.55-.345.367-.517.906-.517 1.617V9h-.77V2.994h.77v1.023c.191-.367.466-.645.825-.836a2.486 2.486 0 011.221-.297zM5.038 16.311v.638H1.65v2.871h2.86v.638H1.65V24H.88v-7.689h4.158zm3.896 7.777a3.127 3.127 0 01-1.53-.374 2.843 2.843 0 01-1.066-1.078c-.257-.47-.385-1.016-.385-1.639s.132-1.166.396-1.628c.264-.47.623-.829 1.078-1.078a3.055 3.055 0 011.529-.385c.564 0 1.074.128 1.529.385.462.25.821.609 1.078 1.078.264.462.396 1.005.396 1.628 0 .616-.132 1.159-.396 1.628-.264.47-.627.832-1.09 1.089a3.19 3.19 0 01-1.54.374zm0-.671c.396 0 .762-.088 1.1-.264.337-.183.608-.455.814-.814.212-.367.319-.814.319-1.342 0-.528-.103-.972-.308-1.331a1.977 1.977 0 00-.814-.814 2.267 2.267 0 00-1.1-.275c-.396 0-.763.092-1.1.275a1.977 1.977 0 00-.814.814c-.198.36-.297.803-.297 1.331 0 .528.099.975.297 1.342.205.36.473.63.803.814.337.176.704.264 1.1.264zm5.198-4.356a1.89 1.89 0 01.77-.869c.352-.205.781-.308 1.287-.308v.803h-.209c-.557 0-1.004.15-1.342.451-.337.3-.506.803-.506 1.507V24h-.77v-6.006h.77v1.067zm8.65 1.628c0 .264-.008.466-.022.605h-4.983c.022.455.132.843.33 1.166.198.323.458.568.78.737.323.161.675.242 1.057.242.498 0 .916-.121 1.254-.363.344-.242.572-.568.682-.979h.814a2.559 2.559 0 01-.946 1.441c-.477.367-1.078.55-1.804.55-.565 0-1.07-.125-1.518-.374a2.764 2.764 0 01-1.056-1.078c-.25-.47-.374-1.016-.374-1.639s.124-1.17.374-1.639c.25-.47.597-.829 1.045-1.078.447-.25.957-.374 1.529-.374s1.07.125 1.496.374c.432.25.762.587.99 1.012.234.418.352.884.352 1.397zM22 20.667c.007-.447-.085-.829-.275-1.144a1.785 1.785 0 00-.76-.715 2.329 2.329 0 00-1.055-.242c-.572 0-1.06.183-1.463.55-.404.367-.627.884-.671 1.551H22zM27.336 24l-1.55-2.42L24.288 24h-.814l1.936-3.003-1.914-3.003h.87l1.528 2.387 1.486-2.387h.802l-1.913 2.97L28.206 24h-.87zm10.136-6.006V24h-.77v-1.056c-.176.374-.448.66-.814.858a2.551 2.551 0 01-1.232.297c-.719 0-1.306-.22-1.76-.66-.455-.447-.682-1.093-.682-1.936v-3.509h.759v3.421c0 .653.161 1.151.484 1.496.33.345.777.517 1.342.517.579 0 1.041-.183 1.386-.55.344-.367.517-.906.517-1.617v-3.267h.77zm4.574-.11c.718 0 1.305.224 1.76.671.454.44.682 1.082.682 1.925V24h-.76v-3.432c0-.653-.164-1.151-.494-1.496-.323-.345-.767-.517-1.331-.517-.58 0-1.042.183-1.386.55-.345.367-.517.906-.517 1.617V24h-.77v-6.006H40v1.023c.19-.367.465-.645.825-.836.359-.198.766-.297 1.22-.297zm3.793 3.102c0-.616.124-1.155.373-1.617.25-.47.59-.829 1.023-1.078.44-.257.935-.385 1.486-.385.528 0 1.004.128 1.43.385.425.257.736.59.934 1.001V15.86h.77V24h-.77v-1.342a2.346 2.346 0 01-.901 1.034c-.418.264-.91.396-1.474.396-.55 0-1.046-.128-1.486-.385a2.718 2.718 0 01-1.022-1.089c-.242-.47-.363-1.012-.363-1.628zm5.247.011c0-.484-.1-.91-.297-1.276a2.107 2.107 0 00-.815-.847 2.175 2.175 0 00-1.121-.297c-.426 0-.807.095-1.145.286-.337.19-.605.47-.802.836-.191.36-.286.788-.286 1.287 0 .491.095.924.286 1.298.197.367.465.649.803.847.337.19.718.286 1.143.286.411 0 .785-.099 1.123-.297.344-.198.615-.48.813-.847.199-.367.298-.792.298-1.276zm6.305-1.683c.19-.403.491-.737.902-1.001.418-.271.913-.407 1.485-.407.543 0 1.03.128 1.463.385.44.25.781.609 1.023 1.078.25.462.374 1.001.374 1.617 0 .616-.125 1.159-.374 1.628-.242.47-.583.832-1.023 1.089-.433.257-.92.385-1.463.385-.565 0-1.056-.132-1.474-.396a2.453 2.453 0 01-.913-1.012v4.158h-.759v-8.844h.759v1.32zm4.466 1.672c0-.499-.099-.928-.297-1.287a1.985 1.985 0 00-.792-.836 2.284 2.284 0 00-1.144-.286c-.41 0-.788.099-1.133.297a2.13 2.13 0 00-.803.847c-.198.367-.297.792-.297 1.276s.099.91.297 1.276c.198.367.466.649.803.847.345.198.722.297 1.133.297.425 0 .807-.095 1.144-.286.337-.198.601-.48.792-.847.198-.374.297-.807.297-1.298zm2.968-1.925a1.89 1.89 0 01.77-.869c.352-.205.78-.308 1.287-.308v.803h-.21c-.556 0-1.004.15-1.341.451-.338.3-.506.803-.506 1.507V24h-.77v-6.006h.77v1.067zm5.844 5.027a3.127 3.127 0 01-1.529-.374 2.842 2.842 0 01-1.067-1.078c-.256-.47-.385-1.016-.385-1.639s.132-1.166.396-1.628c.264-.47.623-.829 1.078-1.078a3.055 3.055 0 011.53-.385c.564 0 1.074.128 1.528.385.462.25.822.609 1.078 1.078.264.462.396 1.005.396 1.628 0 .616-.132 1.159-.396 1.628-.264.47-.627.832-1.089 1.089a3.19 3.19 0 01-1.54.374zm0-.671c.396 0 .763-.088 1.1-.264.337-.183.609-.455.814-.814.213-.367.32-.814.32-1.342 0-.528-.104-.972-.309-1.331a1.978 1.978 0 00-.814-.814 2.267 2.267 0 00-1.1-.275c-.396 0-.763.092-1.1.275a1.977 1.977 0 00-.814.814c-.198.36-.297.803-.297 1.331 0 .528.1.975.297 1.342.206.36.473.63.803.814.337.176.704.264 1.1.264zm6.794-4.774h-1.397V24h-.77v-5.357h-.836v-.649h.836v-.418c0-.653.165-1.133.495-1.441.337-.308.88-.462 1.628-.462v.66c-.499 0-.85.095-1.056.286-.198.19-.297.51-.297.957v.418h1.397v.649zm1.597-1.782a.54.54 0 01-.396-.165.553.553 0 01-.165-.407c0-.161.055-.293.165-.396a.54.54 0 01.396-.165.54.54 0 01.396.165c.11.103.165.235.165.396a.553.553 0 01-.165.407.54.54 0 01-.396.165zm.385 1.133V24h-.77v-6.006h.77zm2.745.649v3.729c0 .367.07.62.209.759.139.14.385.209.737.209h.704V24h-.825c-.543 0-.946-.125-1.21-.374-.264-.257-.396-.675-.396-1.254v-3.729h-.836v-.649h.836v-1.507h.78v1.507h1.65v.649h-1.65zm3.305-1.782a.54.54 0 01-.397-.165.553.553 0 01-.165-.407c0-.161.055-.293.165-.396a.54.54 0 01.397-.165.54.54 0 01.395.165c.11.103.165.235.165.396a.553.553 0 01-.165.407.54.54 0 01-.395.165zm.384 1.133V24h-.77v-6.006h.77zm7.178 2.695c0 .264-.007.466-.022.605h-4.983c.022.455.132.843.33 1.166.198.323.459.568.781.737.323.161.675.242 1.056.242.499 0 .917-.121 1.254-.363.345-.242.572-.568.682-.979h.814a2.559 2.559 0 01-.946 1.441c-.477.367-1.078.55-1.804.55-.564 0-1.07-.125-1.518-.374a2.764 2.764 0 01-1.056-1.078c-.25-.47-.374-1.016-.374-1.639s.125-1.17.374-1.639c.25-.47.598-.829 1.045-1.078.448-.25.957-.374 1.53-.374.571 0 1.07.125 1.495.374.433.25.763.587.99 1.012.235.418.352.884.352 1.397zm-.78-.022c.007-.447-.085-.829-.276-1.144a1.785 1.785 0 00-.759-.715 2.329 2.329 0 00-1.056-.242c-.572 0-1.06.183-1.463.55-.403.367-.627.884-.67 1.551h4.223zm2.959-1.606a1.89 1.89 0 01.77-.869c.352-.205.78-.308 1.287-.308v.803h-.21c-.556 0-1.004.15-1.341.451-.337.3-.506.803-.506 1.507V24h-.77v-6.006h.77v1.067zm8.649 1.628c0 .264-.007.466-.022.605H98.88c.022.455.132.843.33 1.166.198.323.459.568.781.737.323.161.675.242 1.056.242.499 0 .917-.121 1.254-.363.345-.242.572-.568.682-.979h.814a2.555 2.555 0 01-.946 1.441c-.476.367-1.078.55-1.804.55-.564 0-1.07-.125-1.518-.374a2.765 2.765 0 01-1.056-1.078c-.249-.47-.374-1.016-.374-1.639s.125-1.17.374-1.639a2.6 2.6 0 011.045-1.078c.448-.25.957-.374 1.529-.374s1.071.125 1.496.374c.433.25.763.587.99 1.012a2.8 2.8 0 01.352 1.397zm-.781-.022c.008-.447-.084-.829-.275-1.144a1.78 1.78 0 00-.759-.715 2.324 2.324 0 00-1.056-.242c-.572 0-1.06.183-1.463.55-.403.367-.627.884-.67 1.551h4.223zm7.343 2.585l2.024-5.258h.814L110.876 24h-.869l-2.409-6.006h.825l2.024 5.258zm6.51.836a3.13 3.13 0 01-1.529-.374 2.845 2.845 0 01-1.067-1.078c-.256-.47-.385-1.016-.385-1.639s.132-1.166.396-1.628c.264-.47.624-.829 1.078-1.078a3.058 3.058 0 011.529-.385c.565 0 1.075.128 1.529.385.462.25.822.609 1.078 1.078.264.462.396 1.005.396 1.628 0 .616-.132 1.159-.396 1.628-.264.47-.627.832-1.089 1.089a3.19 3.19 0 01-1.54.374zm0-.671c.396 0 .763-.088 1.1-.264.338-.183.609-.455.814-.814.213-.367.319-.814.319-1.342 0-.528-.102-.972-.308-1.331a1.971 1.971 0 00-.814-.814 2.266 2.266 0 00-1.1-.275 2.27 2.27 0 00-1.1.275 1.983 1.983 0 00-.814.814c-.198.36-.297.803-.297 1.331 0 .528.099.975.297 1.342.206.36.473.63.803.814.338.176.704.264 1.1.264zm7.245-5.533c.719 0 1.305.224 1.76.671.455.44.682 1.082.682 1.925V24h-.759v-3.432c0-.653-.165-1.151-.495-1.496-.323-.345-.766-.517-1.331-.517-.579 0-1.041.183-1.386.55-.345.367-.517.906-.517 1.617V24h-.77v-6.006h.77v1.023c.191-.367.466-.645.825-.836a2.486 2.486 0 011.221-.297zm4.277 6.171a.552.552 0 01-.407-.165.573.573 0 01-.154-.407c0-.161.051-.293.154-.396a.552.552 0 01.407-.165c.154 0 .282.055.385.165.11.103.165.235.165.396a.553.553 0 01-.165.407.505.505 0 01-.385.165zm0-4.785a.552.552 0 01-.407-.165.573.573 0 01-.154-.407c0-.161.051-.293.154-.396a.552.552 0 01.407-.165c.154 0 .282.055.385.165.11.103.165.235.165.396a.553.553 0 01-.165.407.505.505 0 01-.385.165z" fill="#fff"/></svg>