<svg width="160" height="73" viewBox="0 0 160 73" fill="none" xmlns="http://www.w3.org/2000/svg"><path fill="#fff" d="M0 0h160v73H0z"/><path d="M10.166 7.602v.703L8.145 14H6.844l2.03-5.375H6.299V7.602h3.867zm3.533-.014V14h-1.23V9.1l-1.222.47V8.542l2.32-.954h.132zm1.965 5.784c0-.194.064-.355.193-.484.129-.132.303-.198.523-.198.22 0 .394.066.523.198.129.13.193.29.193.484a.656.656 0 01-.193.483c-.13.129-.303.193-.523.193-.22 0-.394-.064-.523-.193a.656.656 0 01-.193-.483zm5.277-5.84h.163v1.045h-.057c-.278 0-.522.048-.73.145a1.33 1.33 0 00-.514.413 1.856 1.856 0 00-.303.65 3.284 3.284 0 00-.101.849v1.076c0 .223.015.42.044.59.032.17.077.311.136.426a.731.731 0 00.211.25.468.468 0 00.54-.004.745.745 0 00.212-.242c.058-.106.102-.229.131-.37a2.06 2.06 0 00.049-.46c0-.17-.016-.326-.049-.466a1.333 1.333 0 00-.136-.365.671.671 0 00-.215-.242.466.466 0 00-.277-.088.566.566 0 00-.382.136.837.837 0 00-.242.343 1.283 1.283 0 00-.092.435l-.37-.263c.012-.223.053-.433.123-.629.074-.199.173-.378.3-.536a1.34 1.34 0 01.452-.369c.176-.09.373-.136.593-.136.255 0 .478.057.668.171.19.114.349.271.475.47.129.2.224.431.285.695.065.26.097.539.097.835 0 .31-.044.599-.132.865a2.19 2.19 0 01-.373.7 1.69 1.69 0 01-.59.465 1.743 1.743 0 01-.773.167c-.293 0-.558-.062-.795-.185a1.806 1.806 0 01-.606-.523 2.52 2.52 0 01-.383-.808 3.769 3.769 0 01-.131-1.028v-.497c0-.516.06-.987.18-1.415.12-.43.297-.803.531-1.116.238-.314.528-.556.87-.725.346-.173.743-.26 1.191-.26zm3.841 1.638v-.338c0-.243.044-.464.132-.664.09-.199.224-.358.4-.479.179-.12.4-.18.663-.18.267 0 .49.06.668.18.18.12.311.28.396.48.088.199.132.42.132.663v.338c0 .238-.044.456-.132.655a1.1 1.1 0 01-.4.48c-.176.12-.395.18-.66.18-.263 0-.484-.06-.663-.18a1.13 1.13 0 01-.404-.48 1.604 1.604 0 01-.132-.655zm.804-.338v.338c0 .1.015.195.044.286.03.088.074.16.132.215.059.053.132.08.22.08a.3.3 0 00.215-.08.503.503 0 00.123-.215.925.925 0 00.044-.286v-.338a.913.913 0 00-.044-.29.45.45 0 00-.127-.215.307.307 0 00-.22-.084.307.307 0 00-.22.084.503.503 0 00-.127.215c-.026.088-.04.185-.04.29zm1.723 3.942v-.343c0-.24.046-.46.136-.659.091-.2.224-.359.4-.479.179-.12.399-.18.66-.18.269 0 .492.06.667.18.176.12.308.28.396.479.09.2.136.419.136.66v.342c0 .24-.044.46-.132.66a1.105 1.105 0 01-.4.474c-.175.12-.395.18-.659.18s-.486-.06-.668-.18a1.13 1.13 0 01-.404-.48 1.604 1.604 0 01-.132-.654zm.804-.343v.339c0 .102.018.199.053.29.035.088.082.16.14.215a.31.31 0 00.207.079c.106 0 .186-.026.242-.08a.41.41 0 00.11-.214c.02-.091.03-.188.03-.29v-.335a.913.913 0 00-.043-.29.45.45 0 00-.128-.215.291.291 0 00-.215-.083.312.312 0 00-.224.083.48.48 0 00-.132.216.992.992 0 00-.04.285zm.717-3.911l-2.624 5.001-.589-.334 2.624-5.001.589.334zm6.104 4.43v-5.7h1.235V14l-1.117.004-.118-1.054zm-2.466-1.16v-.317c0-.387.032-.725.097-1.015.067-.29.167-.532.299-.725.132-.193.293-.337.483-.43.194-.097.415-.146.664-.146.225 0 .423.057.593.172.173.11.32.268.44.47.12.202.216.44.29.716.073.275.124.577.153.905v.457c-.035.311-.09.601-.162.87-.07.27-.167.505-.29.704-.12.199-.265.356-.435.47-.17.111-.368.167-.594.167-.249 0-.47-.05-.663-.15-.19-.1-.352-.246-.484-.439a2.25 2.25 0 01-.294-.72 4.544 4.544 0 01-.097-.99zm1.23-.317v.317c0 .222.011.414.032.575.023.158.06.289.11.391.052.1.12.175.206.224.085.047.19.07.316.07a.62.62 0 00.4-.122.752.752 0 00.229-.347c.053-.15.082-.321.088-.515v-.83a2.114 2.114 0 00-.057-.435 1.095 1.095 0 00-.137-.33.63.63 0 00-.22-.21.579.579 0 00-.298-.075.631.631 0 00-.317.074.513.513 0 00-.202.233c-.05.103-.088.236-.114.4a4.092 4.092 0 00-.035.58zm5.314 2.615c-.325 0-.614-.05-.866-.15-.249-.1-.46-.243-.633-.43a1.926 1.926 0 01-.395-.69 2.886 2.886 0 01-.137-.923v-.391c0-.387.044-.725.132-1.015.088-.293.213-.54.374-.739.16-.199.359-.347.593-.443.237-.1.505-.15.804-.15.3 0 .561.05.787.15.228.096.417.243.567.44.15.192.262.433.338.72.076.287.114.62.114 1.002v.562h-3.186v-.866h1.978v-.11c0-.193-.02-.354-.062-.483a.556.556 0 00-.193-.294.582.582 0 00-.351-.097.607.607 0 00-.313.075.513.513 0 00-.202.233 1.44 1.44 0 00-.11.413 4.4 4.4 0 00-.035.602v.391c0 .22.02.404.057.554a.98.98 0 00.167.36c.077.09.169.157.277.198.109.038.235.057.378.057a1.346 1.346 0 001.033-.435l.492.747a1.766 1.766 0 01-.351.334 1.92 1.92 0 01-.537.272 2.25 2.25 0 01-.72.106zm3.62-3.784V14h-1.23V9.245h1.16l.07 1.06zm1.121-1.094l-.017 1.226a2.651 2.651 0 00-.404-.035.847.847 0 00-.352.066.585.585 0 00-.242.189.877.877 0 00-.14.307 1.939 1.939 0 00-.057.418l-.233-.088c0-.31.023-.595.07-.853.05-.26.123-.486.22-.676.096-.194.212-.343.347-.449a.747.747 0 01.466-.158c.058 0 .12.006.184.018.068.009.12.02.158.035zm4.052-1.608V14h-1.287V7.602h1.287zm3.177 0l-2.074 3.177-1.27 1.582-.246-1.288.822-1.37 1.204-2.101h1.564zM49.497 14L48.1 11.06l.944-.835L51.014 14h-1.517zm3.234-6.75V14h-1.234V7.25h1.234zm2.892 6.838c-.325 0-.614-.05-.866-.15-.249-.1-.46-.243-.633-.43a1.927 1.927 0 01-.395-.69 2.886 2.886 0 01-.136-.923v-.391c0-.387.044-.725.132-1.015.087-.293.212-.54.373-.739.161-.199.359-.347.593-.443.238-.1.506-.15.805-.15.298 0 .56.05.786.15.229.096.418.243.567.44.15.192.262.433.339.72.076.287.114.62.114 1.002v.562h-3.186v-.866h1.977v-.11c0-.193-.02-.354-.061-.483a.555.555 0 00-.194-.294.582.582 0 00-.351-.097.608.608 0 00-.312.075.513.513 0 00-.202.233 1.44 1.44 0 00-.11.413 4.415 4.415 0 00-.035.602v.391c0 .22.019.404.057.554a.979.979 0 00.167.36c.076.09.168.157.277.198.108.038.234.057.377.057a1.347 1.347 0 001.033-.435l.492.747a1.766 1.766 0 01-.351.334c-.15.111-.328.202-.536.272a2.25 2.25 0 01-.721.106zm3.683-4.843V14H58.07V9.245h1.235zm-1.292-1.23c0-.19.06-.348.18-.47a.657.657 0 01.492-.19c.208 0 .372.063.492.19.12.122.18.28.18.47a.646.646 0 01-.184.47.645.645 0 01-.484.184.671.671 0 01-.496-.184.655.655 0 01-.18-.47zm3.476 2.245V14h-1.235V9.245h1.156l.079 1.015zm-.185 1.2l-.33.009a3.62 3.62 0 01.102-.963c.076-.284.183-.526.32-.725.141-.202.308-.356.501-.461.197-.109.415-.163.655-.163.185 0 .353.032.506.097a.99.99 0 01.4.308c.11.14.197.328.259.562.061.231.092.516.092.853V14h-1.235v-3.032c0-.205-.02-.364-.061-.475a.41.41 0 00-.185-.237.612.612 0 00-.307-.07.51.51 0 00-.313.1.767.767 0 00-.228.269 1.597 1.597 0 00-.136.404c-.03.155-.043.322-.04.501zm5.502 1.446v-2.197a.914.914 0 00-.053-.343.34.34 0 00-.149-.185.433.433 0 00-.237-.061.49.49 0 00-.264.066.404.404 0 00-.158.188.806.806 0 00-.049.295h-1.234c0-.205.04-.399.118-.58.08-.185.195-.346.347-.484.156-.14.34-.25.554-.33.214-.078.454-.118.72-.118.317 0 .599.054.845.163.246.105.44.274.584.505.144.232.215.532.215.901v2.118c0 .267.014.484.04.65.03.168.072.311.127.431V14h-1.239a2.064 2.064 0 01-.127-.492c-.027-.2-.04-.4-.04-.602zm.15-1.81l.004.738h-.453a.768.768 0 00-.307.057.59.59 0 00-.216.162.671.671 0 00-.132.237c-.026.091-.039.188-.039.29 0 .115.016.211.048.29a.373.373 0 00.374.242.709.709 0 00.351-.083.569.569 0 00.22-.202c.05-.08.066-.153.049-.22l.28.479a2.173 2.173 0 01-.144.338 1.431 1.431 0 01-.224.325c-.091.1-.204.182-.339.247a1.104 1.104 0 01-.47.092c-.255 0-.488-.059-.699-.176a1.303 1.303 0 01-.5-.492c-.12-.211-.18-.461-.18-.752 0-.24.037-.457.113-.65a1.28 1.28 0 01.352-.497c.155-.137.352-.243.589-.316a2.84 2.84 0 01.835-.11h.488zm3.208-.836V14H68.93V9.245h1.155l.08 1.015zm-.185 1.2l-.33.009a3.62 3.62 0 01.101-.963c.077-.284.184-.526.321-.725.14-.202.308-.356.501-.461.197-.109.415-.163.655-.163.185 0 .353.032.505.097a.99.99 0 01.4.308c.112.14.198.328.26.562.061.231.092.516.092.853V14H71.25v-3.032c0-.205-.02-.364-.061-.475a.41.41 0 00-.185-.237.612.612 0 00-.308-.07.51.51 0 00-.312.1.767.767 0 00-.228.269 1.597 1.597 0 00-.137.404c-.029.155-.042.322-.039.501zm4.698-4.21V14h-1.235V7.25h1.235zm2.891 6.838c-.325 0-.613-.05-.865-.15-.25-.1-.46-.243-.633-.43a1.926 1.926 0 01-.396-.69 2.886 2.886 0 01-.136-.923v-.391c0-.387.044-.725.132-1.015.088-.293.212-.54.373-.739.162-.199.36-.347.594-.443.237-.1.505-.15.804-.15.299 0 .56.05.787.15.228.096.417.243.566.44.15.192.263.433.339.72.076.287.114.62.114 1.002v.562h-3.186v-.866h1.978v-.11c0-.193-.021-.354-.062-.483a.555.555 0 00-.193-.294.582.582 0 00-.352-.097.608.608 0 00-.312.075.514.514 0 00-.202.233 1.44 1.44 0 00-.11.413 4.4 4.4 0 00-.035.602v.391c0 .22.019.404.057.554a.979.979 0 00.167.36c.076.09.168.157.277.198.108.038.234.057.378.057a1.346 1.346 0 001.033-.435l.492.747a1.766 1.766 0 01-.352.334 1.92 1.92 0 01-.536.272 2.25 2.25 0 01-.72.106zm4.891-4.843h1.117V14c0 .434-.084.788-.25 1.063a1.458 1.458 0 01-.69.611 2.485 2.485 0 01-1.534.136 2.388 2.388 0 01-.537-.188 1.421 1.421 0 01-.426-.3l.418-.852c.114.114.263.211.448.29.184.082.366.123.545.123a.98.98 0 00.43-.083.521.521 0 00.264-.273c.062-.129.092-.301.092-.518v-3.66l.123-1.104zm-2.654 2.545v-.317c0-.387.037-.725.11-1.015.073-.29.179-.532.316-.725.138-.193.307-.337.506-.43.202-.097.427-.146.677-.146.26 0 .479.057.654.172.176.11.318.268.427.47.11.202.196.44.255.716.061.275.108.577.14.905v.457c-.032.311-.085.601-.158.87-.07.27-.164.505-.281.704-.117.199-.261.356-.431.47-.17.111-.375.167-.615.167-.246 0-.469-.05-.668-.15a1.413 1.413 0 01-.506-.439 2.202 2.202 0 01-.316-.72 4.019 4.019 0 01-.11-.99zm1.235-.317v.317c0 .222.013.414.04.575.029.158.073.289.131.391.059.1.134.175.224.224a.73.73 0 00.33.07c.179 0 .32-.04.426-.122a.724.724 0 00.238-.347 1.7 1.7 0 00.088-.515v-.83a1.78 1.78 0 00-.058-.435 1.093 1.093 0 00-.136-.33.607.607 0 00-.228-.21.656.656 0 00-.321-.075.666.666 0 00-.325.074.602.602 0 00-.229.233 1.325 1.325 0 00-.136.4c-.03.161-.044.355-.044.58zm5.37 2.615c-.325 0-.614-.05-.866-.15-.249-.1-.46-.243-.632-.43a1.926 1.926 0 01-.396-.69 2.886 2.886 0 01-.136-.923v-.391c0-.387.044-.725.132-1.015.088-.293.212-.54.373-.739.161-.199.36-.347.594-.443.237-.1.505-.15.804-.15.298 0 .56.05.786.15.229.096.418.243.567.44.15.192.262.433.339.72.076.287.114.62.114 1.002v.562h-3.186v-.866h1.977v-.11c0-.193-.02-.354-.061-.483a.555.555 0 00-.194-.294.582.582 0 00-.351-.097.608.608 0 00-.312.075.513.513 0 00-.202.233 1.44 1.44 0 00-.11.413 4.4 4.4 0 00-.035.602v.391c0 .22.019.404.057.554a.979.979 0 00.167.36c.076.09.168.157.277.198.108.038.234.057.378.057a1.346 1.346 0 001.033-.435l.492.747a1.766 1.766 0 01-.352.334 1.92 1.92 0 01-.536.272 2.25 2.25 0 01-.72.106zm3.621-3.784V14h-1.23V9.245h1.16l.07 1.06zm1.12-1.094l-.017 1.226a2.649 2.649 0 00-.404-.035.847.847 0 00-.352.066.585.585 0 00-.241.189.877.877 0 00-.14.307 1.939 1.939 0 00-.058.418l-.233-.088c0-.31.024-.595.07-.853.05-.26.123-.486.22-.676.097-.194.213-.343.347-.449a.747.747 0 01.466-.158c.059 0 .12.006.185.018.067.009.12.02.158.035zm1.86-1.964V14h-1.23V7.246h1.23zm2.5 2l-1.674 2.363-1.006 1.13-.435-.936.773-1.13.874-1.428h1.468zM94.23 14l-1.037-2.184.848-.782L95.64 14h-1.411zm1.718-2.215v-.32c0-.373.044-.702.132-.99.09-.287.22-.527.387-.72.167-.196.368-.344.602-.444.237-.102.502-.154.795-.154.296 0 .561.052.796.154.237.1.44.248.606.444.17.193.3.433.391.72.091.288.136.617.136.99v.32c0 .37-.045.697-.136.985-.09.287-.22.528-.39.725a1.605 1.605 0 01-.603.444c-.234.1-.498.149-.79.149-.294 0-.559-.05-.796-.15a1.643 1.643 0 01-.607-.443c-.17-.197-.3-.438-.39-.725a3.364 3.364 0 01-.133-.985zm1.23-.32v.32c0 .22.015.41.045.571.032.162.077.295.136.4a.627.627 0 00.22.233c.085.05.183.075.294.075.111 0 .211-.025.299-.075a.556.556 0 00.215-.233c.059-.105.101-.238.128-.4.029-.16.044-.351.044-.57v-.322c0-.213-.017-.401-.049-.562a1.324 1.324 0 00-.136-.4.618.618 0 00-.22-.237.518.518 0 00-.29-.084.518.518 0 00-.29.084.684.684 0 00-.215.237 1.325 1.325 0 00-.136.4c-.03.161-.044.349-.044.562zm4.602-1.205V14h-1.235V9.245h1.156l.079 1.015zm-.185 1.2l-.329.009a3.587 3.587 0 01.101-.963c.076-.284.183-.526.321-.725.14-.202.307-.356.501-.461.196-.109.414-.163.654-.163.185 0 .353.032.506.097a.996.996 0 01.4.308c.111.14.197.328.259.562.061.231.092.516.092.853V14h-1.235v-3.032c0-.205-.02-.364-.061-.475a.411.411 0 00-.185-.237.61.61 0 00-.307-.07.506.506 0 00-.312.1.77.77 0 00-.229.269 1.57 1.57 0 00-.136.404c-.03.155-.043.322-.04.501zm5.48-2.215v.927h-2.426v-.927h2.426zm-1.867-1.173h1.226v4.478c0 .132.013.233.039.303.027.07.066.12.119.15.055.026.129.039.22.039a.86.86 0 00.29-.035v.962c-.097.038-.2.068-.308.088-.105.02-.231.03-.378.03-.246 0-.46-.046-.642-.14a.964.964 0 01-.417-.448c-.1-.208-.149-.48-.149-.817v-4.61zm4.469 6.016c-.325 0-.614-.05-.866-.15-.249-.1-.46-.243-.633-.43a1.926 1.926 0 01-.395-.69 2.88 2.88 0 01-.136-.923v-.391c0-.387.043-.725.131-1.015a2.14 2.14 0 01.374-.739c.161-.199.359-.347.593-.443.237-.1.506-.15.804-.15.299 0 .561.05.787.15.228.096.417.243.567.44.149.192.262.433.338.72.076.287.114.62.114 1.002v.562h-3.186v-.866h1.978v-.11c0-.193-.021-.354-.062-.483a.554.554 0 00-.193-.294.581.581 0 00-.351-.097.605.605 0 00-.312.075.516.516 0 00-.203.233 1.456 1.456 0 00-.109.413 4.308 4.308 0 00-.036.602v.391c0 .22.019.404.058.554a.981.981 0 00.166.36.67.67 0 00.277.198c.109.038.235.057.378.057a1.343 1.343 0 001.033-.435l.492.747a1.776 1.776 0 01-.351.334c-.15.111-.329.202-.537.272-.208.07-.448.106-.72.106zm3.599-3.828V14h-1.235V9.245h1.156l.079 1.015zm-.185 1.2l-.329.009a3.628 3.628 0 01.101-.963c.076-.284.183-.526.321-.725.14-.202.307-.356.501-.461.196-.109.414-.163.654-.163.185 0 .353.032.506.097a.996.996 0 01.4.308c.111.14.197.328.259.562.061.231.092.516.092.853V14h-1.235v-3.032c0-.205-.02-.364-.061-.475a.411.411 0 00-.185-.237.61.61 0 00-.307-.07.506.506 0 00-.312.1.77.77 0 00-.229.269 1.61 1.61 0 00-.136.404 2.497 2.497 0 00-.04.501zm6.882 1.59l.765-3.805h1.283L120.715 14h-.769l.026-.95zm-.452-3.805l.777 3.81.014.945h-.774l-1.305-4.755h1.288zm4.948 4.843c-.325 0-.614-.05-.866-.15-.249-.1-.46-.243-.633-.43a1.926 1.926 0 01-.395-.69 2.88 2.88 0 01-.136-.923v-.391c0-.387.043-.725.131-1.015a2.14 2.14 0 01.374-.739c.161-.199.359-.347.593-.443.237-.1.506-.15.804-.15.299 0 .561.05.787.15.228.096.417.243.567.44.149.192.262.433.338.72.076.287.114.62.114 1.002v.562h-3.186v-.866h1.978v-.11c0-.193-.021-.354-.062-.483a.554.554 0 00-.193-.294.581.581 0 00-.351-.097.603.603 0 00-.312.075.516.516 0 00-.203.233 1.456 1.456 0 00-.109.413 4.308 4.308 0 00-.036.602v.391c0 .22.019.404.057.554a.998.998 0 00.167.36.67.67 0 00.277.198c.109.038.235.057.378.057a1.343 1.343 0 001.033-.435l.492.747a1.776 1.776 0 01-.351.334c-.15.111-.329.202-.537.272-.208.07-.448.106-.72.106zm3.621-3.784V14h-1.231V9.245h1.161l.07 1.06zm1.12-1.094l-.017 1.226a2.655 2.655 0 00-.404-.035.849.849 0 00-.352.066.588.588 0 00-.242.189.882.882 0 00-.14.307 1.844 1.844 0 00-.057.418l-.233-.088c0-.31.023-.595.07-.853.05-.26.123-.486.22-.676.096-.194.212-.343.347-.449a.747.747 0 01.466-.158c.058 0 .12.006.184.018.068.009.12.02.158.035zm1.921-1.96V14h-1.235V7.25h1.235zm2.267 1.995V14h-1.234V9.245h1.234zm-1.292-1.23c0-.19.061-.348.181-.47a.656.656 0 01.492-.19c.208 0 .372.063.492.19.12.122.18.28.18.47a.646.646 0 01-.184.47.646.646 0 01-.484.184.67.67 0 01-.496-.184.656.656 0 01-.181-.47zm4.184 6.073c-.325 0-.614-.05-.866-.15-.249-.1-.46-.243-.632-.43a1.928 1.928 0 01-.396-.69 2.88 2.88 0 01-.136-.923v-.391c0-.387.044-.725.132-1.015.088-.293.212-.54.373-.739.161-.199.359-.347.593-.443.238-.1.506-.15.805-.15.298 0 .561.05.786.15.229.096.418.243.567.44.15.192.262.433.339.72.076.287.114.62.114 1.002v.562h-3.186v-.866h1.977v-.11c0-.193-.02-.354-.061-.483a.555.555 0 00-.194-.294.58.58 0 00-.351-.097.608.608 0 00-.312.075.508.508 0 00-.202.233 1.42 1.42 0 00-.11.413 4.324 4.324 0 00-.035.602v.391c0 .22.019.404.057.554a.982.982 0 00.167.36c.076.09.168.157.277.198.108.038.234.057.378.057a1.343 1.343 0 001.032-.435l.492.747a1.776 1.776 0 01-.351.334c-.15.111-.328.202-.536.272a2.25 2.25 0 01-.721.106zm3.621-3.784V14h-1.23V9.245h1.16l.07 1.06zm1.121-1.094l-.018 1.226a2.655 2.655 0 00-.404-.035.849.849 0 00-.352.066.585.585 0 00-.241.189.865.865 0 00-.141.307 1.965 1.965 0 00-.057.418l-.233-.088c0-.31.023-.595.07-.853.05-.26.123-.486.22-.676.097-.194.212-.343.347-.449a.747.747 0 01.466-.158c.059 0 .12.006.185.018.067.009.12.02.158.035zm2.456 4.878c-.325 0-.613-.05-.865-.15-.249-.1-.46-.243-.633-.43a1.928 1.928 0 01-.396-.69 2.88 2.88 0 01-.136-.923v-.391c0-.387.044-.725.132-1.015.088-.293.212-.54.373-.739.162-.199.359-.347.594-.443.237-.1.505-.15.804-.15.299 0 .561.05.786.15.229.096.418.243.567.44.15.192.263.433.339.72.076.287.114.62.114 1.002v.562h-3.186v-.866h1.978v-.11c0-.193-.021-.354-.062-.483a.554.554 0 00-.193-.294.582.582 0 00-.352-.097.608.608 0 00-.312.075.514.514 0 00-.202.233 1.42 1.42 0 00-.11.413 4.484 4.484 0 00-.035.602v.391c0 .22.019.404.057.554a.982.982 0 00.167.36c.076.09.168.157.277.198.108.038.234.057.378.057.217 0 .411-.038.584-.114.176-.08.325-.186.449-.321l.492.747a1.913 1.913 0 01-.888.606 2.25 2.25 0 01-.721.106zm3.599-3.828V14h-1.234V9.245h1.155l.079 1.015zm-.184 1.2l-.33.009a3.628 3.628 0 01.101-.963c.077-.284.183-.526.321-.725.141-.202.308-.356.501-.461.196-.109.415-.163.655-.163.184 0 .353.032.505.097a.983.983 0 01.4.308c.112.14.198.328.259.562.062.231.093.516.093.853V14h-1.235v-3.032a1.43 1.43 0 00-.062-.475.41.41 0 00-.184-.237.614.614 0 00-.308-.07.51.51 0 00-.312.1.758.758 0 00-.228.269 1.609 1.609 0 00-.137.404 2.5 2.5 0 00-.039.501zM10.865 20.638v2.637a2.587 2.587 0 01-1.081.672c-.279.094-.618.14-1.02.14a2.68 2.68 0 01-.967-.166 1.961 1.961 0 01-.742-.505 2.305 2.305 0 01-.47-.853 4.055 4.055 0 01-.163-1.217v-1.09c0-.463.051-.866.154-1.209.105-.345.258-.632.457-.861.199-.229.436-.398.712-.51.278-.111.591-.167.94-.167.48 0 .875.08 1.182.242.31.161.545.4.703.716.161.317.258.705.29 1.165H9.617c-.02-.27-.066-.48-.137-.633a.643.643 0 00-.285-.325.993.993 0 00-.48-.101c-.17 0-.317.03-.443.092a.747.747 0 00-.316.29 1.51 1.51 0 00-.19.519 4.132 4.132 0 00-.06.773v1.099c0 .302.023.56.07.773.046.214.115.388.206.523.094.135.21.233.352.294.143.06.312.088.505.088.155 0 .28-.016.373-.048.094-.032.169-.066.225-.101.058-.038.106-.067.145-.088V21.61h-.919v-.97h2.202zm2.781 3.45c-.325 0-.613-.05-.865-.15-.25-.1-.46-.243-.633-.43a1.929 1.929 0 01-.396-.69 2.886 2.886 0 01-.136-.923v-.391c0-.387.044-.725.132-1.015.088-.293.212-.54.374-.739.16-.199.358-.347.593-.443.237-.1.505-.15.804-.15.299 0 .561.05.787.15.228.096.417.243.567.44.149.192.262.433.338.72.076.287.114.62.114 1.002v.562H12.14v-.865h1.978v-.11c0-.194-.02-.355-.062-.484a.555.555 0 00-.193-.294.582.582 0 00-.352-.097.608.608 0 00-.312.075.514.514 0 00-.202.233c-.05.105-.086.243-.11.413a4.417 4.417 0 00-.035.602v.391c0 .22.02.404.057.554a.98.98 0 00.167.36c.076.09.169.157.277.198.108.038.234.057.378.057.217 0 .412-.038.585-.114.175-.08.325-.186.448-.321l.492.747a1.77 1.77 0 01-.352.334c-.15.111-.328.202-.536.272a2.25 2.25 0 01-.72.106zm3.683-6.838V24h-1.235v-6.75h1.235zm3.278 5.7v-5.7h1.235V24l-1.116.004-.119-1.054zm-2.465-1.16v-.317c0-.387.032-.725.097-1.015.067-.29.167-.532.299-.725.131-.193.293-.337.483-.43.193-.097.415-.146.664-.146.225 0 .423.057.593.172.173.11.32.268.44.47.12.202.216.44.29.716.073.276.124.577.153.905v.457c-.035.311-.09.601-.163.87-.07.27-.167.505-.29.704-.12.199-.265.356-.435.47-.17.111-.367.167-.593.167-.249 0-.47-.05-.663-.15-.19-.1-.352-.246-.484-.439a2.25 2.25 0 01-.294-.72 4.538 4.538 0 01-.097-.99zm1.23-.317v.317c0 .222.01.414.031.575.024.158.06.289.11.391.053.1.122.175.207.224a.65.65 0 00.316.07.62.62 0 00.4-.122.753.753 0 00.229-.347c.052-.15.082-.321.087-.515v-.83a2.114 2.114 0 00-.057-.435 1.093 1.093 0 00-.136-.33.63.63 0 00-.22-.21.58.58 0 00-.298-.075.631.631 0 00-.317.074.514.514 0 00-.202.233c-.05.103-.088.236-.114.4a4.108 4.108 0 00-.035.58zm5.476-4.223h1.226v5.647L25.986 24h-1.138v-6.75zm3.696 4.214v.312c0 .387-.03.724-.092 1.011-.059.287-.151.527-.277.72a1.185 1.185 0 01-.475.436 1.516 1.516 0 01-.685.145 1.09 1.09 0 01-.611-.167 1.425 1.425 0 01-.43-.47 3.074 3.074 0 01-.282-.708 5.941 5.941 0 01-.154-.892v-.461c.03-.317.08-.611.15-.884.073-.272.167-.508.28-.707a1.33 1.33 0 01.427-.47c.173-.115.377-.172.61-.172.27 0 .502.05.695.15.194.096.352.241.475.435.126.193.218.435.277.725a4.8 4.8 0 01.092.997zm-1.226.312v-.312c0-.22-.009-.408-.027-.566a1.346 1.346 0 00-.096-.396.507.507 0 00-.202-.237.636.636 0 00-.339-.08.616.616 0 00-.316.075.625.625 0 00-.22.211c-.058.091-.102.2-.132.325a2.16 2.16 0 00-.044.41v.83c.003.202.028.38.075.536a.725.725 0 00.224.36.653.653 0 00.422.128.69.69 0 00.334-.07.467.467 0 00.198-.225c.05-.102.082-.234.096-.395.018-.164.027-.362.027-.594zm3.898 2.312c-.325 0-.614-.05-.866-.15-.249-.1-.46-.243-.633-.43a1.926 1.926 0 01-.395-.69 2.886 2.886 0 01-.136-.923v-.391c0-.387.044-.725.131-1.015.088-.293.213-.54.374-.739.161-.199.359-.347.593-.443.238-.1.506-.15.804-.15.3 0 .561.05.787.15.228.096.417.243.567.44.15.192.262.433.338.72.076.287.114.62.114 1.002v.562H29.71v-.865h1.977v-.11c0-.194-.02-.355-.061-.484a.556.556 0 00-.194-.294.582.582 0 00-.351-.097.607.607 0 00-.312.075.513.513 0 00-.203.233 1.44 1.44 0 00-.11.413 4.4 4.4 0 00-.035.602v.391c0 .22.02.404.057.554a.98.98 0 00.168.36c.076.09.168.157.276.198.109.038.235.057.378.057a1.346 1.346 0 001.033-.435l.492.747a1.766 1.766 0 01-.351.334 1.92 1.92 0 01-.537.272 2.25 2.25 0 01-.72.106zm3.682-4.843V24h-1.234v-4.755h1.234zm-1.292-1.23c0-.19.06-.348.18-.47a.657.657 0 01.493-.19c.208 0 .372.064.492.19.12.122.18.28.18.47a.647.647 0 01-.184.47.645.645 0 01-.484.184.671.671 0 01-.496-.184.655.655 0 01-.18-.47zm3.507 2.215V24h-1.235v-4.755h1.16l.075.985zm-.175 1.23l-.339.009a3.834 3.834 0 01.088-.923 2.4 2.4 0 01.29-.734c.132-.208.297-.37.497-.483.199-.115.432-.172.698-.172.173 0 .333.032.48.097a.97.97 0 01.382.294c.108.132.192.305.25.519.059.21.088.464.088.76V24h-1.23v-3.023c0-.211-.02-.372-.062-.484a.424.424 0 00-.176-.237.527.527 0 00-.281-.07.507.507 0 00-.308.096.703.703 0 00-.215.273 1.729 1.729 0 00-.123.404 2.99 2.99 0 00-.04.501zm2.315-.123l-.443.057a3.615 3.615 0 01.083-.874c.062-.273.157-.51.286-.712.129-.206.29-.365.483-.48a1.33 1.33 0 01.681-.17c.194 0 .37.031.528.096a.97.97 0 01.404.312c.114.14.2.327.26.558.06.232.092.513.092.844V24h-1.235v-3.028c0-.214-.02-.378-.062-.492-.04-.114-.1-.192-.176-.233a.567.567 0 00-.272-.061.452.452 0 00-.277.087.697.697 0 00-.193.247 1.334 1.334 0 00-.119.364c-.026.138-.04.289-.04.453zm8.486.532h1.28c-.018.48-.115.886-.291 1.217a1.76 1.76 0 01-.751.747c-.323.17-.712.255-1.17.255-.354 0-.669-.059-.944-.176a1.888 1.888 0 01-.703-.527 2.347 2.347 0 01-.44-.857 4.365 4.365 0 01-.145-1.182V20.26c0-.445.051-.84.154-1.182a2.45 2.45 0 01.448-.861c.197-.235.432-.41.708-.527.278-.12.592-.18.94-.18.466 0 .856.087 1.17.263.313.176.554.432.724.769.173.334.277.743.312 1.226h-1.283c-.009-.305-.044-.543-.105-.716-.059-.176-.153-.3-.282-.37-.129-.073-.307-.11-.536-.11-.17 0-.316.032-.44.093a.708.708 0 00-.302.286c-.08.131-.138.304-.176.518a4.929 4.929 0 00-.053.782v1.095c0 .302.016.56.048.773.033.211.084.384.154.519.07.134.166.233.286.294.123.062.278.092.466.092.216 0 .39-.032.523-.096a.603.603 0 00.298-.347c.065-.167.102-.405.11-.712zm3.37-4.267V24h-1.287v-6.398h1.288zm2.005 2.72v1.063h-2.33v-1.063h2.33zm.246-2.72v1.067h-2.575v-1.067h2.575zM55.78 24h-1.13l.01-1.064h1.12c.31 0 .553-.055.725-.166.173-.112.295-.288.365-.528.073-.24.11-.555.11-.945V20.3c0-.296-.02-.547-.057-.752a1.228 1.228 0 00-.194-.5.804.804 0 00-.364-.286 1.52 1.52 0 00-.567-.093h-1.17v-1.067h1.17c.369 0 .704.06 1.006.18.302.12.561.296.778.527.217.229.384.511.501.848.117.337.176.72.176 1.152v.988c0 .434-.059.818-.176 1.152a2.37 2.37 0 01-.501.848 2.108 2.108 0 01-.778.523c-.304.12-.646.18-1.024.18zm-.382-6.398V24H54.11v-6.398H55.4zm5.954 3.142v1.024h-2.14v-1.024h2.14zm4.646-.55v1.064h-2.624v-1.064h2.624zm-2.26-2.592V24h-1.287v-6.398h1.288zm3.191 0V24h-1.274v-6.398h1.274zm3.085 5.304v-2.197a.914.914 0 00-.053-.343.34.34 0 00-.149-.185.433.433 0 00-.237-.061.49.49 0 00-.264.066.404.404 0 00-.158.189.806.806 0 00-.048.294H67.87c0-.205.04-.399.118-.58.08-.185.195-.346.347-.483.156-.141.34-.251.554-.33.214-.08.454-.119.72-.119.317 0 .599.054.845.163.246.105.44.274.584.505.144.232.215.532.215.901v2.118c0 .267.014.484.04.65.03.168.072.311.127.431V24h-1.239a2.064 2.064 0 01-.127-.492c-.027-.2-.04-.4-.04-.602zm.15-1.81l.004.738h-.453a.768.768 0 00-.307.057.591.591 0 00-.216.162.671.671 0 00-.132.238c-.026.09-.039.187-.039.29 0 .114.016.21.048.29a.373.373 0 00.374.241.709.709 0 00.351-.083.569.569 0 00.22-.202c.05-.08.066-.153.049-.22l.28.479a2.173 2.173 0 01-.144.338 1.431 1.431 0 01-.224.326c-.091.1-.204.181-.339.246a1.104 1.104 0 01-.47.092c-.255 0-.488-.059-.699-.176a1.303 1.303 0 01-.5-.492c-.12-.211-.18-.462-.18-.752 0-.24.037-.457.113-.65.08-.196.197-.362.352-.497.155-.137.352-.243.589-.316a2.84 2.84 0 01.835-.11h.488zm3.208-.836V24h-1.235v-4.755h1.155l.08 1.015zm-.185 1.2l-.33.009a3.62 3.62 0 01.102-.963c.076-.284.183-.526.32-.725.14-.202.308-.356.501-.461.197-.109.415-.163.655-.163.185 0 .353.032.505.097a.99.99 0 01.4.307c.112.141.198.329.26.563.061.232.092.516.092.853V24h-1.235v-3.032c0-.205-.02-.363-.061-.475a.41.41 0 00-.185-.237.612.612 0 00-.308-.07.51.51 0 00-.312.1.767.767 0 00-.228.269 1.597 1.597 0 00-.136.404c-.03.155-.043.322-.04.501zm5.709 1.49v-5.7h1.234V24l-1.116.004-.118-1.054zm-2.466-1.16v-.317c0-.387.032-.725.097-1.015.067-.29.167-.532.299-.725.132-.193.293-.337.483-.43.193-.097.415-.146.664-.146.225 0 .423.057.593.172.173.11.32.268.44.47.12.202.216.44.29.716.073.276.124.577.153.905v.457c-.035.311-.09.601-.162.87-.07.27-.167.505-.29.704-.12.199-.266.356-.436.47-.17.111-.367.167-.593.167-.249 0-.47-.05-.663-.15-.19-.1-.352-.246-.484-.439a2.25 2.25 0 01-.294-.72 4.544 4.544 0 01-.097-.99zm1.23-.317v.317c0 .222.01.414.031.575.024.158.06.289.11.391.053.1.122.175.207.224.085.047.19.07.316.07a.62.62 0 00.4-.122.752.752 0 00.229-.347 1.7 1.7 0 00.088-.515v-.83a2.12 2.12 0 00-.058-.435 1.095 1.095 0 00-.136-.33.628.628 0 00-.22-.21.58.58 0 00-.298-.075.63.63 0 00-.317.074.513.513 0 00-.202.233c-.05.103-.088.236-.114.4a4.092 4.092 0 00-.035.58zm5.314 2.615c-.326 0-.614-.05-.866-.15-.25-.1-.46-.243-.633-.43a1.926 1.926 0 01-.395-.69 2.883 2.883 0 01-.137-.923v-.391c0-.387.044-.725.132-1.015.088-.293.213-.54.374-.739.16-.199.359-.347.593-.443.237-.1.505-.15.804-.15.299 0 .561.05.787.15.228.096.417.243.567.44.15.192.262.433.338.72.076.287.114.62.114 1.002v.562h-3.186v-.865h1.978v-.11c0-.194-.02-.355-.062-.484a.555.555 0 00-.193-.294.581.581 0 00-.352-.097.607.607 0 00-.312.075.513.513 0 00-.202.233 1.44 1.44 0 00-.11.413 4.4 4.4 0 00-.035.602v.391c0 .22.02.404.057.554a.98.98 0 00.167.36c.076.09.169.157.277.198.109.038.235.057.378.057a1.346 1.346 0 001.033-.435l.492.747a1.767 1.767 0 01-.352.334c-.149.111-.328.202-.536.272a2.25 2.25 0 01-.72.106zm3.682-6.838V24h-1.235v-6.75h1.235zm4.29 2.98V24H89.71v-4.755h1.16l.075.985zm-.177 1.23l-.338.009a3.834 3.834 0 01.088-.923c.065-.281.161-.526.29-.734.132-.208.297-.37.497-.483.199-.115.432-.172.698-.172.173 0 .333.032.48.097a.97.97 0 01.382.294c.108.132.192.305.25.519.059.21.088.464.088.76V24h-1.23v-3.023c0-.211-.02-.372-.062-.484a.424.424 0 00-.176-.237.527.527 0 00-.28-.07.507.507 0 00-.309.096.703.703 0 00-.215.273 1.734 1.734 0 00-.123.404 2.99 2.99 0 00-.04.501zm2.316-.123l-.443.057a3.62 3.62 0 01.083-.874c.062-.273.157-.51.286-.712.129-.206.29-.365.483-.48a1.33 1.33 0 01.681-.17c.194 0 .37.031.528.096a.97.97 0 01.404.312c.114.14.2.327.26.558.06.232.092.513.092.844V24h-1.235v-3.028c0-.214-.02-.378-.062-.492-.04-.114-.1-.192-.176-.233a.567.567 0 00-.272-.061.452.452 0 00-.277.087.697.697 0 00-.193.247 1.334 1.334 0 00-.119.364c-.026.138-.04.289-.04.453zm4.593-2.092V24h-1.235v-4.755h1.235zm-1.292-1.23c0-.19.06-.348.18-.47a.657.657 0 01.492-.19c.208 0 .372.064.492.19.12.122.18.28.18.47a.647.647 0 01-.184.47.645.645 0 01-.483.184.671.671 0 01-.497-.184.655.655 0 01-.18-.47zm4.342 1.23v.927h-2.426v-.927h2.426zm-1.868-1.173h1.226v4.478c0 .132.013.233.039.303.027.07.066.12.119.15.056.026.129.039.22.039a.826.826 0 00.29-.035v.962a1.695 1.695 0 01-.308.088c-.105.02-.231.03-.378.03-.246 0-.46-.046-.641-.14a.96.96 0 01-.418-.448c-.1-.208-.15-.48-.15-.817v-4.61zm6.93 4.878v-5.7h1.235V24l-1.116.004-.119-1.054zm-2.465-1.16v-.317c0-.387.032-.725.096-1.015.068-.29.167-.532.299-.725.132-.193.293-.337.484-.43.193-.097.414-.146.663-.146.226 0 .424.057.593.172.173.11.32.268.44.47.12.202.217.44.29.716.073.276.124.577.154.905v.457c-.035.311-.09.601-.163.87-.07.27-.167.505-.29.704-.12.199-.265.356-.435.47-.17.111-.368.167-.593.167-.249 0-.47-.05-.664-.15a1.33 1.33 0 01-.483-.439 2.262 2.262 0 01-.295-.72 4.572 4.572 0 01-.096-.99zm1.23-.317v.317c0 .222.01.414.031.575.023.158.06.289.11.391a.55.55 0 00.206.224c.085.047.191.07.317.07a.622.622 0 00.4-.122.757.757 0 00.228-.347c.053-.15.082-.321.088-.515v-.83a2.142 2.142 0 00-.057-.435 1.103 1.103 0 00-.136-.33.632.632 0 00-.22-.21.58.58 0 00-.299-.075.63.63 0 00-.316.074.508.508 0 00-.202.233 1.47 1.47 0 00-.115.4 4.17 4.17 0 00-.035.58zm4.689-2.228V24h-1.235v-4.755h1.235zm-1.292-1.23c0-.19.06-.348.18-.47a.657.657 0 01.492-.19c.208 0 .373.064.493.19.12.122.18.28.18.47a.647.647 0 01-.185.47.644.644 0 01-.483.184.672.672 0 01-.497-.184.655.655 0 01-.18-.47zm4.184 6.073c-.325 0-.614-.05-.866-.15-.249-.1-.46-.243-.633-.43a1.912 1.912 0 01-.395-.69 2.88 2.88 0 01-.137-.923v-.391c0-.387.044-.725.132-1.015a2.14 2.14 0 01.374-.739c.161-.199.359-.347.593-.443.237-.1.505-.15.804-.15.299 0 .561.05.787.15.228.096.417.243.567.44.149.192.262.433.338.72.076.287.114.62.114 1.002v.562h-3.186v-.865h1.978v-.11c0-.194-.021-.355-.062-.484a.554.554 0 00-.193-.294.582.582 0 00-.352-.097.608.608 0 00-.312.075.52.52 0 00-.202.233 1.487 1.487 0 00-.11.413 4.484 4.484 0 00-.035.602v.391c0 .22.019.404.057.554a.998.998 0 00.167.36.67.67 0 00.277.198c.109.038.235.057.378.057.217 0 .412-.038.585-.114.175-.08.325-.186.448-.321l.492.747a1.776 1.776 0 01-.351.334c-.15.111-.329.202-.537.272-.208.07-.448.106-.72.106zm4.5-1.371a.326.326 0 00-.084-.22.975.975 0 00-.263-.198 4.479 4.479 0 00-.479-.233 5.058 5.058 0 01-.576-.272 2.019 2.019 0 01-.426-.312 1.152 1.152 0 01-.26-.391 1.352 1.352 0 01-.088-.501 1.4 1.4 0 01.11-.558c.076-.173.185-.324.325-.453.141-.132.312-.234.515-.308.205-.076.435-.114.69-.114.357 0 .663.063.918.19.258.122.456.295.593.518.138.222.207.482.207.778h-1.231a.77.77 0 00-.048-.282.393.393 0 00-.158-.197.51.51 0 00-.286-.07.459.459 0 00-.4.21.41.41 0 00-.057.22c0 .064.013.121.04.171.029.05.074.099.136.145.061.047.143.097.246.15.106.05.234.105.387.167.316.117.575.243.778.378.205.134.357.293.457.474.099.179.149.4.149.664 0 .21-.041.403-.123.576a1.255 1.255 0 01-.347.448 1.619 1.619 0 01-.55.29 2.31 2.31 0 01-.707.1c-.384 0-.708-.075-.971-.228a1.572 1.572 0 01-.598-.584 1.505 1.505 0 01-.202-.747h1.169a.805.805 0 00.088.373.44.44 0 00.224.185.884.884 0 00.312.053.764.764 0 00.281-.044.352.352 0 00.172-.145.466.466 0 00.057-.233zm3.893 1.37c-.325 0-.613-.049-.865-.148-.249-.1-.46-.244-.633-.431a1.928 1.928 0 01-.396-.69 2.88 2.88 0 01-.136-.923v-.391c0-.387.044-.725.132-1.015.088-.293.212-.54.373-.739.162-.199.359-.347.594-.443.237-.1.505-.15.804-.15.299 0 .561.05.786.15.229.096.418.243.567.44.15.192.263.433.339.72.076.287.114.62.114 1.002v.562h-3.186v-.865H121v-.11c0-.194-.02-.355-.061-.484a.56.56 0 00-.193-.294.582.582 0 00-.352-.097.608.608 0 00-.312.075.514.514 0 00-.202.233 1.42 1.42 0 00-.11.413 4.484 4.484 0 00-.035.602v.391c0 .22.019.404.057.554a.982.982 0 00.167.36c.076.09.168.157.277.198.108.038.234.057.378.057a1.343 1.343 0 001.032-.435l.493.747a1.913 1.913 0 01-.888.606 2.25 2.25 0 01-.721.106zm3.63-3.857V24h-1.235v-4.755h1.16l.075.985zm-.176 1.23l-.338.009a3.794 3.794 0 01.088-.923c.064-.281.161-.526.29-.734a1.42 1.42 0 01.497-.483c.199-.115.432-.172.698-.172.173 0 .333.032.479.097.147.061.274.16.383.294.108.132.191.305.25.519.059.21.088.464.088.76V24h-1.231v-3.023c0-.211-.02-.372-.061-.484a.425.425 0 00-.176-.237.526.526 0 00-.281-.07.508.508 0 00-.308.096.705.705 0 00-.215.273 1.706 1.706 0 00-.123.404c-.026.155-.04.322-.04.501zm2.316-.123l-.444.057a3.64 3.64 0 01.084-.874c.061-.273.157-.51.286-.712a1.42 1.42 0 01.483-.48c.196-.114.423-.17.681-.17.193 0 .369.031.527.096a.971.971 0 01.405.312c.114.14.2.327.259.558.062.232.092.513.092.844V24h-1.235v-3.028c0-.214-.02-.378-.061-.492-.041-.114-.1-.192-.176-.233a.566.566 0 00-.272-.061.452.452 0 00-.277.087.703.703 0 00-.194.247 1.348 1.348 0 00-.118.364c-.027.138-.04.289-.04.453zM8.834 28.744L7.46 34H6.101l2-6.398h.848l-.115 1.142zM9.92 34l-1.384-5.256-.128-1.142h.862L11.287 34H9.92zm.048-2.386v1.068H7.081v-1.068h2.887zm2.866-1.354V34h-1.235v-4.755h1.155l.08 1.015zm-.185 1.2l-.33.009a3.628 3.628 0 01.101-.963c.077-.284.184-.526.321-.725.14-.202.308-.356.501-.461.196-.109.415-.163.655-.163.184 0 .353.032.505.097a.99.99 0 01.4.307c.112.141.198.329.26.563.061.232.092.516.092.853V34h-1.235v-3.032c0-.205-.02-.363-.062-.475a.41.41 0 00-.184-.237.613.613 0 00-.308-.07.51.51 0 00-.312.1.767.767 0 00-.228.269 1.593 1.593 0 00-.136.404c-.03.155-.043.322-.04.501zm3.41-4.21h1.226v5.647L17.197 34H16.06v-6.75zm3.696 4.214v.312c0 .387-.03.724-.092 1.011-.059.287-.151.528-.277.72a1.185 1.185 0 01-.475.436 1.515 1.515 0 01-.685.145 1.09 1.09 0 01-.611-.167 1.425 1.425 0 01-.43-.47 3.074 3.074 0 01-.282-.708 5.941 5.941 0 01-.154-.892v-.461c.03-.317.08-.611.15-.884a2.97 2.97 0 01.28-.707 1.33 1.33 0 01.427-.47c.173-.115.376-.172.61-.172.27 0 .502.05.695.15.194.096.352.241.475.435.126.193.218.435.277.725a4.8 4.8 0 01.092.997zm-1.226.312v-.312c0-.22-.009-.408-.027-.566a1.347 1.347 0 00-.096-.396.508.508 0 00-.202-.237.636.636 0 00-.339-.08.616.616 0 00-.316.075.625.625 0 00-.22.211c-.059.091-.102.2-.132.325-.026.123-.04.26-.044.41v.83c.003.202.028.38.075.536a.725.725 0 00.224.36.653.653 0 00.422.128.69.69 0 00.334-.07.467.467 0 00.198-.225c.05-.102.082-.234.096-.395.018-.164.027-.362.027-.594zm3.274-2.53V34h-1.235v-4.755h1.235zm-1.292-1.231c0-.19.06-.348.18-.47a.657.657 0 01.492-.19c.208 0 .372.064.492.19.12.122.18.28.18.47a.647.647 0 01-.184.47.645.645 0 01-.483.184.671.671 0 01-.497-.184.655.655 0 01-.18-.47zm4.183 6.073c-.325 0-.613-.05-.865-.15-.25-.1-.46-.243-.633-.43a1.926 1.926 0 01-.396-.69 2.886 2.886 0 01-.136-.923v-.391c0-.387.044-.725.132-1.015.088-.293.212-.54.373-.739.162-.199.36-.347.594-.443.237-.1.505-.15.804-.15.299 0 .56.05.787.15.228.096.417.243.566.44.15.192.263.433.339.72.076.287.114.62.114 1.002v.562h-3.186v-.865h1.978v-.11c0-.194-.021-.355-.062-.484a.555.555 0 00-.193-.294.582.582 0 00-.352-.097.608.608 0 00-.312.075.514.514 0 00-.202.233 1.44 1.44 0 00-.11.413 4.4 4.4 0 00-.035.602v.391c0 .22.019.404.057.554a.979.979 0 00.167.36c.076.09.168.157.277.198.108.038.234.057.378.057a1.346 1.346 0 001.033-.435l.492.747a1.766 1.766 0 01-.352.334 1.92 1.92 0 01-.536.272 2.25 2.25 0 01-.72.106zm4.465-4.843v.927h-2.426v-.927h2.426zm-1.867-1.173h1.226v4.478c0 .132.013.233.04.303a.27.27 0 00.118.15c.055.026.129.039.22.039a.837.837 0 00.29-.035v.962c-.097.038-.2.068-.308.088-.105.02-.232.03-.378.03-.246 0-.46-.046-.642-.14a.96.96 0 01-.417-.448c-.1-.208-.15-.48-.15-.817v-4.61zm4.469 6.016c-.325 0-.614-.05-.866-.15-.249-.1-.46-.243-.633-.43a1.927 1.927 0 01-.395-.69 2.886 2.886 0 01-.137-.923v-.391c0-.387.044-.725.132-1.015.088-.293.213-.54.374-.739.161-.199.359-.347.593-.443.237-.1.505-.15.804-.15.3 0 .561.05.787.15.228.096.417.243.567.44.15.192.262.433.338.72.076.287.114.62.114 1.002v.562h-3.186v-.865h1.978v-.11c0-.194-.02-.355-.062-.484a.555.555 0 00-.193-.294.582.582 0 00-.351-.097.608.608 0 00-.313.075.513.513 0 00-.202.233c-.05.105-.086.243-.11.413a4.415 4.415 0 00-.035.602v.391c0 .22.02.404.058.554a.977.977 0 00.166.36c.077.09.169.157.277.198.109.038.235.057.378.057a1.347 1.347 0 001.033-.435l.492.747a1.766 1.766 0 01-.351.334c-.15.111-.328.202-.537.272a2.25 2.25 0 01-.72.106zm3.62-3.784V34h-1.23v-4.755h1.16l.07 1.06zm1.121-1.094l-.017 1.226a2.649 2.649 0 00-.404-.035.847.847 0 00-.352.066.586.586 0 00-.242.189.877.877 0 00-.14.307 1.94 1.94 0 00-.057.418l-.233-.088c0-.31.023-.595.07-.853.05-.26.123-.486.22-.676.096-.194.212-.343.347-.449a.747.747 0 01.466-.158c.058 0 .12.006.184.018.068.009.12.02.158.035zm-.026 4.162c0-.194.065-.355.193-.484.13-.132.304-.198.523-.198.22 0 .394.066.523.198.13.13.194.29.194.484a.656.656 0 01-.194.483c-.129.129-.303.193-.523.193-.22 0-.394-.064-.523-.193a.656.656 0 01-.193-.483zm7.611-.99c0-.319-.086-.563-.259-.733-.173-.17-.485-.335-.936-.497-.451-.16-.797-.33-1.037-.505a1.858 1.858 0 01-.536-.606 1.69 1.69 0 01-.176-.783c0-.506.169-.924.505-1.252.34-.328.784-.492 1.332-.492.375 0 .709.085 1.002.255.293.167.519.4.677.698.158.3.237.627.237.985h-.809c0-.396-.095-.702-.285-.919-.19-.217-.465-.325-.822-.325-.325 0-.577.09-.756.273-.179.181-.268.436-.268.764 0 .27.097.495.29.677.194.181.492.344.897.488.63.208 1.08.464 1.349.769.272.304.408.703.408 1.195 0 .519-.168.935-.505 1.248-.337.31-.795.466-1.376.466-.371 0-.716-.08-1.032-.242a1.884 1.884 0 01-.743-.685 1.924 1.924 0 01-.268-1.016h.809c0 .396.11.704.33.923.222.22.524.33.904.33.355 0 .622-.09.8-.273.179-.181.268-.429.268-.742zM46.69 34h-.778v-4.755h.778V34zm.062-6.016a.497.497 0 01-.11.33c-.074.087-.185.131-.334.131-.147 0-.257-.044-.33-.131a.497.497 0 01-.11-.33c0-.132.037-.243.11-.334.073-.09.183-.136.33-.136.146 0 .256.047.33.14.075.091.114.201.114.33zm2.865 6.104c-.592 0-1.046-.176-1.363-.528-.316-.354-.477-.873-.483-1.555v-.576c0-.709.154-1.264.461-1.665.311-.405.743-.607 1.297-.607.556 0 .973.177 1.248.532.275.355.416.907.422 1.657v.51h-2.654v.11c0 .51.095.88.285 1.111.194.232.47.347.83.347.23 0 .43-.042.603-.127.175-.088.34-.226.492-.413l.404.492c-.337.475-.85.712-1.542.712zm-.088-4.263c-.322 0-.561.111-.716.334-.156.22-.244.563-.264 1.029h1.872v-.106c-.02-.451-.103-.773-.246-.967-.14-.193-.356-.29-.646-.29zm6.983 2.958a.574.574 0 00-.19-.43c-.125-.121-.368-.262-.729-.423-.419-.173-.715-.32-.887-.444a1.278 1.278 0 01-.383-.417 1.172 1.172 0 01-.127-.563c0-.386.14-.707.422-.962.284-.258.646-.387 1.085-.387.463 0 .835.135 1.116.404.282.27.422.616.422 1.038h-.773a.758.758 0 00-.215-.545.722.722 0 00-.55-.229c-.228 0-.408.06-.54.18a.61.61 0 00-.194.475c0 .158.047.286.14.382.098.097.328.224.69.383.578.225.97.446 1.179.663.208.214.312.486.312.818 0 .413-.142.744-.427.993-.284.246-.665.369-1.142.369-.495 0-.897-.142-1.204-.426a1.408 1.408 0 01-.462-1.081h.782c.01.263.09.47.242.62.152.149.366.223.642.223.258 0 .454-.057.589-.171a.592.592 0 00.202-.47zm1.63-1.38c0-.692.167-1.238.501-1.64.337-.404.78-.606 1.332-.606.55 0 .993.197 1.327.59.337.392.51.926.518 1.603v.501c0 .689-.167 1.233-.5 1.635-.335.401-.78.602-1.337.602-.55 0-.993-.195-1.327-.585-.33-.39-.502-.917-.514-1.582v-.518zm.778.448c0 .49.095.875.286 1.156a.902.902 0 00.777.417c.686 0 1.039-.495 1.06-1.485v-.536c0-.486-.097-.87-.29-1.151-.194-.285-.453-.427-.778-.427-.32 0-.576.142-.77.427-.19.28-.285.663-.285 1.146v.453zM63.66 34h-.778v-6.75h.778V34zm2.065 0h-.778v-6.75h.778V34zm2.246-5.906v1.151h.716v.628h-.716v2.95c0 .187.03.329.092.425.062.097.167.146.316.146a.982.982 0 00.312-.053l-.008.659a1.698 1.698 0 01-.54.088c-.309 0-.543-.11-.704-.33-.161-.22-.242-.53-.242-.931v-2.953h-.725v-.629h.725v-1.151h.774zm3.344 5.994c-.592 0-1.046-.176-1.362-.528-.317-.354-.478-.873-.484-1.555v-.576c0-.709.154-1.264.462-1.665.31-.405.742-.607 1.296-.607.557 0 .973.177 1.248.532.275.355.416.907.422 1.657v.51h-2.654v.11c0 .51.095.88.285 1.111.194.232.47.347.83.347.23 0 .43-.042.603-.127.176-.088.34-.226.492-.413l.404.492c-.337.475-.85.712-1.542.712zm-.088-4.263c-.322 0-.561.111-.716.334-.156.22-.243.563-.264 1.029h1.872v-.106c-.02-.451-.102-.773-.246-.967-.14-.193-.356-.29-.646-.29zm3.34-.58l.022.514c.302-.401.687-.602 1.156-.602.84 0 1.267.561 1.278 1.683V34h-.773v-3.125c0-.372-.063-.635-.189-.79-.123-.159-.31-.238-.558-.238a.797.797 0 00-.523.194 1.405 1.405 0 00-.37.505V34h-.777v-4.755h.734zm8.117 4.338c-.258.336-.635.505-1.13.505-.43 0-.756-.148-.975-.444-.22-.299-.331-.732-.334-1.3v-3.099h.773v3.041c0 .741.223 1.112.668 1.112.472 0 .797-.211.976-.633v-3.52h.777V34h-.738l-.017-.417zm-2.25-5.608c0-.132.04-.242.118-.33.082-.09.202-.136.36-.136.159 0 .279.046.36.136a.464.464 0 01.124.33.464.464 0 01-.123.33c-.082.088-.202.131-.36.131-.159 0-.279-.043-.36-.131a.474.474 0 01-.12-.33zm1.89.009a.49.49 0 01.118-.334c.082-.09.202-.136.36-.136.158 0 .279.045.36.136a.48.48 0 01.124.334.465.465 0 01-.123.33c-.082.087-.203.131-.36.131-.159 0-.28-.044-.361-.131a.474.474 0 01-.119-.33zm5.73 3.867c0 .741-.134 1.3-.4 1.674-.267.375-.654.563-1.16.563-.504 0-.882-.217-1.134-.65l-.04.562h-.707v-6.75h.773v2.518c.255-.407.621-.61 1.099-.61.521 0 .912.184 1.173.553.26.37.393.926.396 1.67v.47zm-.774-.444c0-.562-.079-.962-.237-1.2-.155-.24-.409-.36-.76-.36-.402 0-.7.217-.897.65v2.264c.194.427.495.641.906.641.351 0 .603-.123.755-.369.153-.246.23-.628.233-1.147v-.479zm3.468 2.68c-.592 0-1.046-.175-1.363-.527-.316-.354-.477-.873-.483-1.555v-.576c0-.709.154-1.264.461-1.665.31-.405.743-.607 1.297-.607.556 0 .972.177 1.248.532.275.355.416.907.422 1.657v.51h-2.655v.11c0 .51.096.88.286 1.111.193.232.47.347.83.347.229 0 .43-.042.602-.127.176-.088.34-.226.493-.413l.404.492c-.337.475-.851.712-1.542.712zm-.088-4.262c-.323 0-.561.111-.717.334-.155.22-.243.563-.263 1.029h1.872v-.106c-.02-.451-.103-.773-.246-.967-.141-.193-.356-.29-.646-.29zm4.57.15a1.893 1.893 0 00-.352-.031c-.398 0-.676.218-.835.655V34h-.777v-4.755h.755l.014.483c.208-.38.502-.57.883-.57.123 0 .225.02.308.06l.004.757zM96.848 34h-.778v-6.75h.778V34zm2.927.088c-.592 0-1.046-.176-1.362-.528-.317-.354-.478-.873-.484-1.555v-.576c0-.709.154-1.264.462-1.665.31-.405.742-.607 1.296-.607.557 0 .973.177 1.248.532.275.355.416.907.422 1.657v.51h-2.654v.11c0 .51.095.88.285 1.111.194.232.47.347.83.347.229 0 .43-.042.603-.127.176-.088.34-.226.492-.413l.404.492c-.337.475-.851.712-1.542.712zm-.088-4.263c-.322 0-.561.111-.716.334-.156.22-.243.563-.264 1.029h1.872v-.106c-.02-.451-.102-.773-.246-.967-.141-.193-.356-.29-.646-.29zm2.452 1.582c0-.741.135-1.3.404-1.678.27-.381.664-.572 1.183-.572.483 0 .851.207 1.103.62l.039-.532h.703v4.799c0 .589-.151 1.04-.452 1.354-.302.316-.723.474-1.262.474a2.16 2.16 0 01-.791-.176c-.29-.114-.508-.256-.654-.426l.316-.536c.322.316.678.474 1.068.474.647 0 .98-.352.997-1.059v-.62c-.251.373-.609.559-1.072.559-.492 0-.876-.185-1.151-.554-.276-.372-.419-.905-.431-1.6v-.527zm.778.444c0 .533.078.926.233 1.178.158.249.416.373.773.373.387 0 .677-.197.87-.593v-2.377c-.202-.39-.489-.585-.861-.585-.357 0-.615.126-.773.378-.159.25-.239.633-.242 1.151v.475zm5.515 2.237c-.592 0-1.046-.176-1.362-.528-.317-.354-.478-.873-.484-1.555v-.576c0-.709.154-1.264.462-1.665.31-.405.743-.607 1.296-.607.557 0 .973.177 1.248.532.276.355.416.907.422 1.657v.51h-2.654v.11c0 .51.095.88.286 1.111.193.232.47.347.83.347.229 0 .429-.042.602-.127.176-.088.34-.226.492-.413l.405.492c-.337.475-.851.712-1.543.712zm-.088-4.263c-.322 0-.561.111-.716.334-.155.22-.243.563-.264 1.029h1.872v-.106c-.02-.451-.102-.773-.246-.967-.14-.193-.356-.29-.646-.29zm3.34-.58l.022.514c.302-.401.687-.602 1.156-.602.841 0 1.267.561 1.279 1.683V34h-.774v-3.125c0-.372-.063-.635-.189-.79-.123-.159-.309-.238-.558-.238a.798.798 0 00-.523.194 1.412 1.412 0 00-.369.505V34h-.778v-4.755h.734zm3.634 6.03l-.461-.317c.275-.384.419-.78.431-1.186v-.734h.795v.637c0 .296-.073.592-.22.888a2.046 2.046 0 01-.545.711zm3.661-3.872c0-.692.167-1.238.501-1.64.337-.404.781-.606 1.332-.606.55 0 .993.197 1.327.59.337.392.509.926.518 1.603v.501c0 .689-.167 1.233-.501 1.635-.334.401-.779.602-1.336.602-.55 0-.993-.195-1.327-.585-.331-.39-.502-.917-.514-1.582v-.518zm.778.448c0 .49.095.875.285 1.156.194.278.453.417.778.417.686 0 1.039-.495 1.059-1.485v-.536c0-.486-.096-.87-.29-1.151-.193-.285-.452-.427-.777-.427-.32 0-.576.142-.77.427-.19.28-.285.663-.285 1.146v.453zm7.347 0c0 .741-.133 1.3-.399 1.674-.267.375-.654.563-1.161.563-.503 0-.881-.217-1.133-.65l-.04.562h-.707v-6.75h.773v2.518c.255-.407.621-.61 1.099-.61.521 0 .912.184 1.173.553.261.37.393.926.395 1.67v.47zm-.773-.444c0-.562-.079-.962-.237-1.2-.156-.24-.409-.36-.761-.36-.401 0-.7.217-.896.65v2.264c.193.427.495.641.905.641.352 0 .604-.123.756-.369.152-.246.23-.628.233-1.147v-.479zm6.737.976c0-.32-.087-.564-.259-.734-.173-.17-.485-.335-.936-.497-.452-.16-.797-.33-1.038-.505a1.859 1.859 0 01-.536-.606 1.692 1.692 0 01-.175-.783c0-.506.168-.924.505-1.252.34-.328.784-.492 1.331-.492.375 0 .709.085 1.002.255.293.167.519.4.677.698.158.3.237.627.237.985h-.808c0-.396-.095-.702-.286-.919-.19-.217-.464-.325-.822-.325-.325 0-.577.09-.755.273-.179.181-.268.436-.268.764 0 .27.096.495.29.677.193.181.492.344.896.488.63.208 1.08.464 1.349.769.273.304.409.703.409 1.195 0 .519-.169.935-.506 1.248-.336.31-.795.466-1.375.466-.372 0-.716-.08-1.033-.242a1.88 1.88 0 01-.742-.685 1.922 1.922 0 01-.268-1.016h.808c0 .396.11.704.33.923.222.22.524.33.905.33.354 0 .621-.09.8-.273.179-.181.268-.429.268-.742zM135.669 34h-.777v-4.755h.777V34zm.062-6.016a.499.499 0 01-.11.33c-.073.087-.184.131-.334.131-.146 0-.256-.044-.329-.131a.494.494 0 01-.11-.33c0-.132.036-.243.11-.334.073-.09.183-.136.329-.136.147 0 .256.047.33.14.076.091.114.201.114.33zm2.865 6.104c-.592 0-1.046-.176-1.362-.528-.317-.354-.478-.873-.484-1.555v-.576c0-.709.154-1.264.462-1.665.31-.405.743-.607 1.296-.607.557 0 .973.177 1.248.532.276.355.416.907.422 1.657v.51h-2.654v.11c0 .51.095.88.286 1.111.193.232.47.347.83.347.229 0 .429-.042.602-.127.176-.088.34-.226.492-.413l.405.492c-.337.475-.851.712-1.543.712zm-.088-4.263c-.322 0-.561.111-.716.334-.155.22-.243.563-.264 1.029h1.872v-.106c-.02-.451-.102-.773-.246-.967-.14-.193-.356-.29-.646-.29zM7.929 42.818l.901-3.573h.791L8.211 44h-.58l-1.429-4.755h.791l.936 3.573zm4.201 1.27c-.591 0-1.046-.176-1.362-.528-.316-.354-.478-.873-.483-1.555v-.576c0-.709.153-1.264.461-1.665.31-.405.743-.607 1.296-.607.557 0 .973.178 1.248.532.276.355.417.907.422 1.657v.51h-2.654v.11c0 .51.095.88.286 1.111.193.232.47.347.83.347.229 0 .43-.042.602-.127a1.52 1.52 0 00.493-.413l.404.492c-.337.475-.851.712-1.543.712zm-.088-4.263c-.322 0-.56.111-.716.334-.155.22-.243.563-.264 1.029h1.873v-.106c-.02-.451-.103-.773-.247-.967-.14-.193-.356-.29-.646-.29zm4.57.15a1.893 1.893 0 00-.35-.031c-.4 0-.678.218-.836.655V44h-.778v-4.755h.756l.014.483c.208-.38.502-.57.883-.57.123 0 .225.02.307.06l.005.757zm3.09 2.808a.574.574 0 00-.189-.43c-.126-.121-.369-.262-.73-.423-.418-.173-.714-.32-.887-.444a1.278 1.278 0 01-.382-.417 1.172 1.172 0 01-.128-.563c0-.386.14-.707.422-.962.284-.258.646-.387 1.086-.387.462 0 .835.135 1.116.405.281.27.422.615.422 1.037h-.774a.758.758 0 00-.215-.545.722.722 0 00-.55-.229c-.228 0-.408.06-.54.18a.61.61 0 00-.193.475c0 .158.046.286.14.382.097.097.327.224.69.383.577.225.97.446 1.178.663.208.214.312.486.312.818 0 .413-.142.744-.426.993-.284.246-.665.369-1.143.369-.495 0-.896-.142-1.204-.426a1.408 1.408 0 01-.461-1.081h.782c.009.263.09.47.242.62.152.149.366.223.641.223.258 0 .454-.057.589-.171a.592.592 0 00.202-.47zm2.813-4.69v1.152h.716v.629h-.716v2.948c0 .188.03.33.092.426.062.097.167.146.316.146a.982.982 0 00.312-.053l-.008.659a1.699 1.699 0 01-.541.088c-.308 0-.542-.11-.703-.33-.161-.22-.242-.53-.242-.931v-2.953h-.725v-.629h.725v-1.151h.774zm3.344 5.995c-.592 0-1.046-.176-1.362-.528-.317-.354-.478-.873-.484-1.555v-.576c0-.709.154-1.264.462-1.665.31-.405.742-.607 1.296-.607.557 0 .973.178 1.248.532.275.355.416.907.422 1.657v.51h-2.654v.11c0 .51.095.88.285 1.111.194.232.47.347.83.347.23 0 .43-.042.603-.127a1.52 1.52 0 00.492-.413l.404.492c-.337.475-.85.712-1.542.712zm-.088-4.263c-.322 0-.561.111-.716.334-.156.22-.244.563-.264 1.029h1.872v-.106c-.02-.451-.102-.773-.246-.967-.14-.193-.356-.29-.646-.29zm3.384-.092c.296-.384.674-.576 1.134-.576.84 0 1.267.561 1.278 1.683V44h-.773v-3.124c0-.373-.063-.636-.189-.791-.123-.159-.31-.238-.558-.238a.798.798 0 00-.523.194 1.405 1.405 0 00-.37.505V44h-.777v-6.75h.778v2.483zm5.273 4.355c-.592 0-1.046-.176-1.362-.528-.317-.354-.478-.873-.483-1.555v-.576c0-.709.153-1.264.46-1.665.312-.405.744-.607 1.297-.607.557 0 .973.178 1.248.532.276.355.416.907.422 1.657v.51h-2.654v.11c0 .51.095.88.286 1.111.193.232.47.347.83.347.229 0 .43-.042.602-.127.176-.088.34-.226.492-.413l.405.492c-.337.475-.851.712-1.543.712zm-.088-4.263c-.322 0-.56.111-.716.334-.155.22-.243.563-.264 1.029h1.872v-.106c-.02-.451-.102-.773-.246-.967-.14-.193-.356-.29-.646-.29zm3.34-.58l.022.514c.302-.401.687-.602 1.156-.602.84 0 1.267.561 1.279 1.683V44h-.774v-3.124c0-.373-.063-.636-.189-.791-.123-.159-.309-.238-.558-.238a.797.797 0 00-.523.194 1.405 1.405 0 00-.369.505V44h-.778v-4.755h.734zm3.635 6.03l-.462-.317c.275-.384.419-.78.43-1.186v-.734h.796v.637c0 .296-.073.592-.22.888a2.056 2.056 0 01-.544.711zm7.37-2.642l.72-3.388h.769L49.009 44h-.62l-.927-3.401L46.557 44h-.624l-1.156-4.755h.765l.738 3.305.884-3.305h.615l.905 3.388zM51.83 44h-.778v-4.755h.778V44zm.061-6.016a.497.497 0 01-.11.33c-.073.087-.184.131-.334.131-.146 0-.256-.044-.33-.132a.497.497 0 01-.11-.33c0-.13.037-.242.11-.333.074-.09.184-.136.33-.136.147 0 .257.046.33.14.076.091.114.201.114.33zm2.865 6.104c-.591 0-1.046-.176-1.362-.528-.316-.354-.478-.873-.483-1.555v-.576c0-.709.153-1.264.461-1.665.31-.405.743-.607 1.296-.607.557 0 .973.178 1.248.532.276.355.416.907.422 1.657v.51h-2.654v.11c0 .51.095.88.286 1.111.193.232.47.347.83.347.229 0 .43-.042.602-.127.176-.088.34-.226.492-.413l.405.492c-.337.475-.851.712-1.543.712zm-.088-4.263c-.322 0-.56.111-.716.334-.155.22-.243.563-.264 1.029h1.873v-.106c-.021-.451-.103-.773-.247-.967-.14-.193-.355-.29-.646-.29zm8.794 2.145c-.035.685-.229 1.21-.58 1.573-.349.363-.843.545-1.481.545-.642 0-1.151-.243-1.53-.73-.377-.489-.566-1.151-.566-1.986v-1.16c0-.832.193-1.49.58-1.973.39-.484.92-.725 1.59-.725.619 0 1.096.186 1.433.558.34.369.525.898.554 1.586h-.813c-.035-.521-.145-.893-.33-1.116-.184-.223-.465-.334-.843-.334-.437 0-.772.171-1.007.514-.234.34-.351.84-.351 1.499v1.173c0 .648.108 1.144.325 1.49.22.346.539.518.958.518.419 0 .72-.104.905-.312.185-.208.299-.581.343-1.12h.813zm4.06-.796h-2.162V44h-.804v-6.398h3.331v.694h-2.527v2.188h2.162v.69zM68.881 44v-6.398h1.525c.747 0 1.327.234 1.74.703.414.465.62 1.122.62 1.968v1.073c0 .846-.21 1.501-.628 1.964-.42.46-1.027.69-1.824.69h-1.433zm.805-5.704v5.014h.645c.566 0 .98-.161 1.24-.483.26-.325.394-.806.4-1.442v-1.133c0-.674-.13-1.168-.391-1.482-.258-.316-.65-.474-1.174-.474h-.72zm6.539 4.487a.574.574 0 00-.19-.43c-.125-.121-.368-.262-.729-.423-.419-.173-.715-.32-.888-.444a1.278 1.278 0 01-.382-.417 1.173 1.173 0 01-.127-.563c0-.386.14-.707.422-.962.284-.258.646-.387 1.085-.387.463 0 .835.135 1.116.405.282.27.422.615.422 1.037h-.773a.757.757 0 00-.216-.545.722.722 0 00-.549-.229c-.228 0-.409.06-.54.18a.61.61 0 00-.194.475c0 .158.047.286.14.382.097.097.327.224.69.383.578.225.97.446 1.178.663.208.214.312.486.312.818 0 .413-.142.744-.426.993-.284.246-.665.369-1.142.369-.495 0-.897-.142-1.204-.426a1.408 1.408 0 01-.462-1.081h.782c.01.263.09.47.242.62.152.149.366.223.642.223.257 0 .454-.057.588-.171a.592.592 0 00.203-.47zm4.2 1.217v-4.127h-.619v-.628h.62v-.55c.009-.483.13-.86.364-1.129.238-.272.572-.408 1.002-.408.156 0 .313.025.47.074l-.039.66a1.538 1.538 0 00-.356-.04c-.442 0-.663.315-.663.945v.448h.813v.629h-.813V44h-.778zm4.931-.417c-.257.336-.634.505-1.129.505-.43 0-.756-.148-.976-.444-.22-.299-.33-.732-.334-1.3v-3.099h.774v3.041c0 .741.223 1.112.668 1.112.472 0 .797-.211.976-.633v-3.52h.777V44h-.738l-.018-.417zm2.66-4.338l.021.514c.302-.401.687-.602 1.156-.602.84 0 1.267.561 1.279 1.683V44h-.774v-3.124c0-.373-.063-.636-.189-.791-.123-.159-.309-.238-.558-.238a.798.798 0 00-.523.194 1.405 1.405 0 00-.369.505V44h-.778v-4.755h.734zm4.82 2.58l-.413.474V44h-.778v-6.75h.778v4.039l1.48-2.044h.932l-1.511 1.986L95.034 44h-.906l-1.292-2.175zm3.885-3.731v1.151h.716v.629h-.716v2.948c0 .188.03.33.092.426.061.097.167.146.316.146a.982.982 0 00.312-.053l-.008.659a1.698 1.698 0 01-.54.088c-.308 0-.543-.11-.704-.33-.161-.22-.242-.53-.242-.931v-2.953h-.725v-.629h.725v-1.151h.774zM99.204 44h-.778v-4.755h.778V44zm.061-6.016a.498.498 0 01-.11.33c-.073.087-.184.131-.334.131-.146 0-.256-.044-.33-.132a.498.498 0 01-.11-.33c0-.13.037-.242.11-.333.074-.09.184-.136.33-.136.147 0 .257.046.33.14.076.091.114.201.114.33zm1.002 3.419c0-.692.167-1.238.501-1.64.337-.404.781-.606 1.332-.606.55 0 .993.197 1.327.59.337.392.51.926.518 1.603v.501c0 .689-.167 1.233-.501 1.635-.334.401-.779.602-1.336.602-.55 0-.993-.195-1.327-.585-.331-.39-.502-.917-.514-1.582v-.518zm.778.448c0 .49.095.875.286 1.156a.9.9 0 00.777.417c.686 0 1.039-.495 1.059-1.485v-.536c0-.486-.096-.87-.29-1.151-.193-.285-.452-.427-.777-.427-.32 0-.576.142-.769.426-.191.282-.286.664-.286 1.147v.453zm4.636-2.606l.022.514c.302-.401.687-.602 1.156-.602.841 0 1.267.561 1.279 1.683V44h-.774v-3.124c0-.373-.063-.636-.189-.791-.123-.159-.309-.238-.558-.238a.8.8 0 00-.523.194 1.412 1.412 0 00-.369.505V44h-.778v-4.755h.734zM110.146 44h-.778v-4.755h.778V44zm.062-6.016a.499.499 0 01-.11.33c-.074.087-.185.131-.334.131-.147 0-.257-.044-.33-.132a.499.499 0 01-.11-.33c0-.13.037-.242.11-.333.073-.09.183-.136.33-.136.146 0 .256.046.329.14.076.091.115.201.115.33zm2.865 6.104c-.592 0-1.046-.176-1.363-.528-.316-.354-.477-.873-.483-1.555v-.576c0-.709.154-1.264.461-1.665.311-.405.743-.607 1.297-.607.557 0 .973.178 1.248.532.275.355.416.907.422 1.657v.51H112v.11c0 .51.096.88.286 1.111.193.232.47.347.831.347.228 0 .429-.042.602-.127.176-.088.34-.226.492-.413l.404.492c-.337.475-.851.712-1.542.712zm-.088-4.263c-.322 0-.561.111-.716.334-.156.22-.244.563-.264 1.029h1.872v-.106c-.021-.451-.103-.773-.246-.967-.141-.193-.356-.29-.646-.29zm4.57.15a1.883 1.883 0 00-.351-.031c-.399 0-.677.218-.835.655V44h-.778v-4.755h.756l.013.483c.208-.38.502-.57.883-.57.123 0 .226.02.308.06l.004.757zm2.479 4.113c-.592 0-1.046-.176-1.363-.528-.316-.354-.477-.873-.483-1.555v-.576c0-.709.154-1.264.461-1.665.311-.405.743-.607 1.297-.607.556 0 .972.178 1.248.532.275.355.416.907.422 1.657v.51h-2.655v.11c0 .51.096.88.286 1.111.193.232.47.347.831.347.228 0 .429-.042.602-.127.175-.088.34-.226.492-.413l.404.492c-.337.475-.851.712-1.542.712zm-.088-4.263c-.322 0-.561.111-.717.334-.155.22-.243.563-.263 1.029h1.872v-.106c-.021-.451-.103-.773-.246-.967-.141-.193-.356-.29-.646-.29zm3.34-.58l.022.514c.301-.401.687-.602 1.155-.602.841 0 1.267.561 1.279 1.683V44h-.773v-3.124c0-.373-.063-.636-.189-.791-.123-.159-.309-.238-.558-.238a.796.796 0 00-.523.194 1.389 1.389 0 00-.369.505V44h-.778v-4.755h.734zm3.634 6.03l-.462-.317c.276-.384.419-.78.431-1.186v-.734h.796v.637c0 .296-.074.592-.22.888a2.058 2.058 0 01-.545.711zm6.249-1.692c-.258.336-.634.505-1.129.505-.431 0-.756-.148-.976-.444-.22-.299-.331-.732-.334-1.3v-3.099h.773v3.041c0 .741.223 1.112.668 1.112.472 0 .797-.211.976-.633v-3.52h.778V44h-.738l-.018-.417zm2.659-4.338l.022.514c.301-.401.687-.602 1.155-.602.841 0 1.267.561 1.279 1.683V44h-.773v-3.124c0-.373-.063-.636-.189-.791-.123-.159-.309-.238-.558-.238a.796.796 0 00-.523.194 1.389 1.389 0 00-.369.505V44h-.778v-4.755h.734zm3.463 2.162c0-.732.136-1.29.408-1.674.276-.384.67-.576 1.182-.576.454 0 .809.185 1.064.554V37.25h.778V44h-.712l-.04-.51a1.223 1.223 0 01-1.094.598c-.492 0-.879-.19-1.16-.571-.279-.384-.421-.925-.426-1.622v-.488zm.777.444c0 .533.079.926.238 1.178.158.249.416.373.773.373.387 0 .675-.194.866-.584v-2.4c-.199-.38-.487-.57-.862-.57-.357 0-.615.125-.773.377-.158.25-.239.633-.242 1.151v.475zm5.753-.448c0-.692.167-1.238.501-1.64.337-.404.781-.606 1.331-.606.551 0 .993.197 1.327.59.337.392.51.926.519 1.603v.501c0 .689-.167 1.233-.501 1.635-.334.401-.779.602-1.336.602-.551 0-.993-.195-1.327-.585-.331-.39-.502-.917-.514-1.582v-.518zm.778.448c0 .49.095.875.285 1.156.194.278.453.417.778.417.686 0 1.039-.495 1.059-1.485v-.536c0-.486-.096-.87-.29-1.151-.193-.285-.452-.427-.778-.427-.319 0-.575.142-.769.426-.19.282-.285.664-.285 1.147v.453zm7.347 0c0 .741-.133 1.3-.4 1.674-.266.375-.653.563-1.16.563-.504 0-.882-.217-1.134-.65l-.039.562h-.708v-6.75h.774v2.518c.255-.407.621-.61 1.098-.61.522 0 .913.184 1.174.553.261.37.392.926.395 1.67v.47zm-.773-.444c0-.562-.079-.962-.237-1.2-.156-.24-.409-.36-.761-.36-.401 0-.7.217-.896.65v2.264c.193.427.495.641.905.641.352 0 .604-.123.756-.369.152-.246.23-.628.233-1.147v-.479zM9.485 52.383c0-.32-.087-.564-.26-.734-.172-.17-.484-.336-.935-.497-.452-.16-.797-.33-1.038-.505a1.857 1.857 0 01-.536-.606 1.69 1.69 0 01-.175-.783c0-.507.168-.924.505-1.252.34-.328.784-.492 1.331-.492.375 0 .71.085 1.002.255.293.166.519.4.677.698.158.3.238.627.238.985h-.81c0-.396-.094-.702-.285-.919-.19-.217-.464-.325-.822-.325-.325 0-.577.09-.755.273-.18.181-.268.436-.268.764 0 .27.096.495.29.677.193.181.492.344.896.488.63.208 1.08.464 1.35.769.272.304.408.703.408 1.195 0 .519-.169.935-.506 1.248-.336.31-.795.466-1.375.466-.372 0-.716-.08-1.033-.242a1.884 1.884 0 01-.742-.685 1.924 1.924 0 01-.268-1.016h.808c0 .396.11.704.33.923.222.22.524.33.905.33.354 0 .621-.09.8-.273.179-.181.268-.429.268-.742zM12.086 54h-.777v-4.755h.777V54zm.062-6.016a.498.498 0 01-.11.33c-.073.087-.184.131-.334.131-.146 0-.256-.044-.33-.132a.498.498 0 01-.11-.33c0-.13.037-.242.11-.333.074-.09.184-.136.33-.136.147 0 .256.046.33.14.076.091.114.201.114.33zm2.865 6.104c-.592 0-1.046-.176-1.362-.528-.316-.354-.478-.873-.483-1.555v-.576c0-.709.153-1.264.46-1.665.312-.405.744-.607 1.297-.607.557 0 .973.178 1.248.532.276.355.416.907.422 1.657v.51h-2.654v.11c0 .51.095.88.286 1.111.193.232.47.347.83.347.229 0 .43-.042.602-.127a1.52 1.52 0 00.492-.413l.405.492c-.337.475-.851.712-1.543.712zm-.088-4.263c-.322 0-.56.111-.716.334-.155.22-.243.563-.264 1.029h1.872v-.106c-.02-.451-.102-.773-.246-.967-.14-.193-.356-.29-.646-.29zm6.372 4.263c-.591 0-1.046-.176-1.362-.528-.316-.354-.477-.873-.483-1.555v-.576c0-.709.153-1.264.461-1.665.31-.405.743-.607 1.296-.607.557 0 .973.178 1.248.532.276.355.416.907.422 1.657v.51h-2.654v.11c0 .51.095.88.286 1.111.193.232.47.347.83.347.229 0 .43-.042.602-.127a1.52 1.52 0 00.492-.413l.405.492c-.337.475-.851.712-1.543.712zm-.088-4.263c-.322 0-.56.111-.716.334-.155.22-.243.563-.263 1.029h1.872v-.106c-.02-.451-.103-.773-.247-.967-.14-.193-.355-.29-.646-.29zm4.918 2.958a.574.574 0 00-.189-.43c-.126-.121-.37-.262-.73-.423-.418-.173-.714-.32-.887-.444a1.278 1.278 0 01-.383-.417 1.172 1.172 0 01-.127-.563c0-.386.14-.707.422-.962.284-.258.646-.387 1.085-.387.463 0 .835.135 1.117.405.28.27.421.615.421 1.037h-.773a.758.758 0 00-.215-.545.722.722 0 00-.55-.229c-.228 0-.408.06-.54.18a.61.61 0 00-.194.475c0 .158.047.286.141.382.097.097.327.224.69.383.577.225.97.446 1.178.663.208.214.312.486.312.818 0 .413-.142.744-.427.993-.284.246-.665.369-1.142.369-.495 0-.896-.142-1.204-.426a1.408 1.408 0 01-.462-1.081h.783c.008.263.089.47.241.62.153.149.367.223.642.223.258 0 .454-.057.589-.171a.592.592 0 00.202-.47zm6.17 0a.574.574 0 00-.19-.43c-.125-.121-.368-.262-.729-.423-.419-.173-.714-.32-.887-.444a1.279 1.279 0 01-.383-.417 1.172 1.172 0 01-.127-.563c0-.386.14-.707.422-.962.284-.258.646-.387 1.085-.387.463 0 .835.135 1.117.405.28.27.421.615.421 1.037h-.773a.757.757 0 00-.215-.545.722.722 0 00-.55-.229c-.228 0-.408.06-.54.18a.61.61 0 00-.194.475c0 .158.047.286.141.382.097.097.327.224.69.383.577.225.97.446 1.178.663.208.214.312.486.312.818 0 .413-.142.744-.427.993-.284.246-.665.369-1.142.369-.495 0-.897-.142-1.204-.426a1.408 1.408 0 01-.462-1.081h.783c.008.263.089.47.241.62.153.149.366.223.642.223.258 0 .454-.057.589-.171a.592.592 0 00.202-.47zM34.929 54h-.778v-4.755h.778V54zm.062-6.016a.498.498 0 01-.11.33c-.073.087-.185.131-.334.131-.147 0-.256-.044-.33-.132a.497.497 0 01-.11-.33c0-.13.037-.242.11-.333.074-.09.183-.136.33-.136.146 0 .256.046.33.14.076.091.114.201.114.33zm2.817 5.44c.257 0 .464-.079.62-.237.155-.161.24-.39.254-.685h.734a1.62 1.62 0 01-.488 1.138 1.539 1.539 0 01-1.12.448c-.59 0-1.039-.185-1.35-.554-.307-.372-.46-.924-.46-1.657v-.523c0-.717.153-1.262.46-1.634.308-.375.756-.563 1.345-.563.487 0 .872.154 1.156.462.287.307.44.728.457 1.26h-.734c-.017-.35-.102-.614-.255-.79-.15-.176-.357-.264-.624-.264-.345 0-.602.114-.769.343-.167.226-.253.598-.26 1.116v.607c0 .56.083.955.247 1.186.167.232.43.347.787.347zm3.282-3.691c.296-.384.674-.576 1.134-.576.84 0 1.267.561 1.279 1.683V54h-.773v-3.124c0-.373-.063-.636-.19-.791-.123-.159-.309-.238-.558-.238a.797.797 0 00-.523.194 1.405 1.405 0 00-.369.505V54h-.778v-6.75h.778v2.483zM47.568 54h-.778v-6.75h.778V54zm2.927.088c-.592 0-1.046-.176-1.363-.528-.316-.354-.477-.873-.483-1.555v-.576c0-.709.154-1.264.461-1.665.31-.405.743-.607 1.297-.607.556 0 .972.178 1.248.532.275.355.416.907.422 1.657v.51h-2.655v.11c0 .51.096.88.286 1.111.193.232.47.347.83.347.23 0 .43-.042.603-.127.175-.088.34-.226.492-.413l.404.492c-.337.475-.851.712-1.542.712zm-.088-4.263c-.322 0-.561.111-.717.334-.155.22-.243.563-.263 1.029h1.872v-.106c-.02-.451-.103-.773-.246-.967-.14-.193-.356-.29-.646-.29zM53.852 54h-.778v-4.755h.778V54zm.062-6.016a.497.497 0 01-.11.33c-.074.087-.185.131-.334.131-.147 0-.257-.044-.33-.132a.498.498 0 01-.11-.33c0-.13.037-.242.11-.333.073-.09.183-.136.33-.136.146 0 .256.046.33.14.076.091.114.201.114.33zm3.476 4.799a.574.574 0 00-.19-.43c-.125-.121-.369-.262-.729-.423-.419-.173-.715-.32-.887-.444a1.278 1.278 0 01-.383-.417 1.172 1.172 0 01-.127-.563c0-.386.14-.707.422-.962.284-.258.646-.387 1.085-.387.463 0 .835.135 1.116.405.281.27.422.615.422 1.037h-.773a.758.758 0 00-.216-.545.722.722 0 00-.549-.229c-.229 0-.409.06-.54.18a.61.61 0 00-.194.475c0 .158.047.286.14.382.097.097.328.224.69.383.578.225.97.446 1.178.663.209.214.313.486.313.818 0 .413-.143.744-.427.993-.284.246-.665.369-1.142.369-.495 0-.897-.142-1.204-.426a1.408 1.408 0 01-.462-1.081h.782c.01.263.09.47.242.62.152.149.366.223.642.223.257 0 .454-.057.589-.171a.592.592 0 00.202-.47zm2.812-4.69v1.152h.717v.629h-.717v2.948c0 .188.03.33.092.426.062.097.167.146.317.146a.982.982 0 00.312-.053l-.009.659a1.699 1.699 0 01-.54.088c-.308 0-.543-.11-.704-.33-.16-.22-.241-.53-.241-.931v-2.953h-.725v-.629h.725v-1.151h.773zm3.344 5.995c-.591 0-1.045-.176-1.362-.528-.316-.354-.477-.873-.483-1.555v-.576c0-.709.154-1.264.461-1.665.31-.405.743-.607 1.297-.607.556 0 .972.178 1.248.532.275.355.416.907.421 1.657v.51h-2.654v.11c0 .51.095.88.286 1.111.193.232.47.347.83.347.229 0 .43-.042.602-.127a1.52 1.52 0 00.493-.413l.404.492c-.337.475-.851.712-1.543.712zm-.087-4.263c-.323 0-.562.111-.717.334-.155.22-.243.563-.264 1.029h1.873v-.106c-.02-.451-.103-.773-.246-.967-.141-.193-.357-.29-.647-.29zm3.34-.58l.021.514c.302-.401.687-.602 1.156-.602.84 0 1.267.561 1.279 1.683V54h-.774v-3.124c0-.373-.063-.636-.188-.791-.124-.159-.31-.238-.559-.238a.798.798 0 00-.523.194 1.405 1.405 0 00-.369.505V54h-.778v-4.755h.734zm6.886 2.58l-.413.474V54h-.778v-6.75h.778v4.039l1.48-2.044h.932l-1.512 1.986L75.882 54h-.905l-1.292-2.175zm2.702-.422c0-.692.167-1.238.501-1.64.337-.404.78-.606 1.332-.606.55 0 .993.197 1.327.59.337.392.51.926.518 1.603v.501c0 .689-.167 1.233-.5 1.635-.334.401-.78.602-1.337.602-.55 0-.993-.195-1.327-.585-.33-.39-.502-.917-.514-1.582v-.518zm.778.448c0 .49.095.875.286 1.156a.902.902 0 00.778.417c.685 0 1.038-.495 1.059-1.485v-.536c0-.486-.097-.87-.29-1.151-.194-.285-.453-.427-.778-.427-.32 0-.576.142-.77.426-.19.282-.285.664-.285 1.147v.453zm-.396-3.876c0-.132.04-.242.12-.33.081-.09.201-.136.36-.136.158 0 .278.046.36.136a.465.465 0 01.123.33.465.465 0 01-.123.33c-.082.088-.202.132-.36.132-.159 0-.279-.044-.36-.132a.474.474 0 01-.12-.33zm1.89.009a.49.49 0 01.119-.334c.082-.09.202-.136.36-.136.158 0 .278.045.36.136a.48.48 0 01.124.334.464.464 0 01-.123.33c-.082.087-.203.131-.36.131-.159 0-.28-.044-.361-.132a.474.474 0 01-.119-.33zm3.142 1.261l.022.514c.302-.401.687-.602 1.156-.602.84 0 1.267.561 1.279 1.683V54h-.774v-3.124c0-.373-.063-.636-.189-.791-.123-.159-.309-.238-.558-.238a.797.797 0 00-.523.194 1.405 1.405 0 00-.369.505V54h-.778v-4.755h.734zm4.36 0l.022.514c.301-.401.687-.602 1.155-.602.841 0 1.268.561 1.28 1.683V54h-.774v-3.124c0-.373-.063-.636-.19-.791-.122-.159-.308-.238-.557-.238a.798.798 0 00-.523.194 1.405 1.405 0 00-.37.505V54h-.777v-4.755h.734zm5.326 4.843c-.592 0-1.046-.176-1.362-.528-.317-.354-.478-.873-.484-1.555v-.576c0-.709.154-1.264.462-1.665.31-.405.742-.607 1.296-.607.557 0 .973.178 1.248.532.275.355.416.907.422 1.657v.51h-2.654v.11c0 .51.095.88.285 1.111.194.232.47.347.83.347.23 0 .43-.042.603-.127.176-.088.34-.226.492-.413l.404.492c-.337.475-.85.712-1.542.712zm-.088-4.263c-.322 0-.561.111-.716.334-.156.22-.244.563-.264 1.029h1.872v-.106c-.02-.451-.102-.773-.246-.967-.14-.193-.356-.29-.646-.29zm3.34-.58l.022.514c.302-.401.687-.602 1.156-.602.84 0 1.267.561 1.278 1.683V54h-.773v-3.124c0-.373-.063-.636-.19-.791-.122-.159-.308-.238-.557-.238a.797.797 0 00-.523.194 1.405 1.405 0 00-.37.505V54h-.777v-4.755h.734zm3.634 6.03l-.461-.317c.275-.384.419-.78.43-1.186v-.734h.796v.637c0 .296-.074.592-.22.888a2.055 2.055 0 01-.545.711zm3.661-3.868c0-.732.136-1.29.408-1.674.276-.384.67-.576 1.183-.576.454 0 .808.185 1.063.554V47.25h.778V54h-.712l-.04-.51a1.223 1.223 0 01-1.094.598c-.492 0-.879-.19-1.16-.571-.278-.384-.42-.925-.426-1.622v-.488zm.778.444c0 .533.079.926.237 1.178.158.249.416.373.773.373.387 0 .676-.194.866-.584v-2.4c-.199-.38-.486-.57-.861-.57-.358 0-.616.125-.774.377-.158.25-.239.633-.241 1.151v.475zM109.109 54c-.047-.102-.081-.275-.101-.519-.276.405-.627.607-1.055.607-.431 0-.767-.12-1.011-.36-.24-.244-.36-.585-.36-1.024 0-.484.164-.868.492-1.152.328-.284.778-.429 1.349-.435h.572v-.505c0-.284-.063-.486-.189-.607-.126-.12-.318-.18-.576-.18a.79.79 0 00-.571.211.69.69 0 00-.22.527h-.778c0-.243.072-.474.215-.694.144-.222.337-.397.581-.523a1.74 1.74 0 01.813-.189c.486 0 .855.122 1.107.365.255.24.385.592.391 1.055v2.4c.003.365.053.683.149.953V54h-.808zm-1.037-.62c.19 0 .372-.052.545-.158a.974.974 0 00.378-.395v-1.134h-.44c-.369.006-.66.09-.874.25-.214.159-.321.381-.321.668 0 .27.054.466.162.59.109.12.292.18.55.18zm5.216-.597a.574.574 0 00-.189-.43c-.126-.121-.369-.262-.729-.423-.419-.173-.715-.32-.888-.444a1.276 1.276 0 01-.382-.417 1.172 1.172 0 01-.128-.563c0-.386.141-.707.422-.962.284-.258.646-.387 1.085-.387.463 0 .835.135 1.117.405.281.27.422.615.422 1.037h-.774a.76.76 0 00-.215-.545.723.723 0 00-.55-.229c-.228 0-.408.06-.54.18a.61.61 0 00-.193.475c0 .158.046.286.14.382.097.097.327.224.69.383.577.225.97.446 1.178.663.208.214.312.486.312.818 0 .413-.142.744-.426.993-.285.246-.665.369-1.143.369-.495 0-.896-.142-1.204-.426a1.406 1.406 0 01-.461-1.081h.782c.009.263.089.47.241.62.153.149.367.223.642.223.258 0 .454-.057.589-.171a.591.591 0 00.202-.47zm4.636-3.05c.296-.384.674-.576 1.134-.576.841 0 1.267.561 1.279 1.683V54h-.774v-3.124c0-.373-.063-.636-.188-.791-.124-.159-.31-.238-.559-.238a.8.8 0 00-.523.194 1.412 1.412 0 00-.369.505V54h-.778v-6.75h.778v2.483zm3.41 1.67c0-.692.167-1.238.501-1.64.337-.404.781-.606 1.332-.606s.993.197 1.327.59c.337.392.51.926.519 1.603v.501c0 .689-.167 1.233-.501 1.635-.334.401-.78.602-1.336.602-.551 0-.993-.195-1.327-.585-.331-.39-.503-.917-.515-1.582v-.518zm.778.448c0 .49.096.875.286 1.156a.902.902 0 00.778.417c.685 0 1.038-.495 1.059-1.485v-.536c0-.486-.097-.87-.29-1.151-.194-.285-.453-.427-.778-.427-.319 0-.576.142-.769.426-.19.282-.286.664-.286 1.147v.453zm4.68-2.118c.296-.384.674-.576 1.134-.576.841 0 1.267.561 1.279 1.683V54h-.773v-3.124c0-.373-.063-.636-.189-.791-.123-.159-.309-.238-.558-.238a.796.796 0 00-.523.194 1.402 1.402 0 00-.37.505V54h-.777v-6.75h.777v2.483zm5.274 4.355c-.592 0-1.046-.176-1.362-.528-.317-.354-.478-.873-.484-1.555v-.576c0-.709.154-1.264.462-1.665.31-.405.742-.607 1.296-.607.557 0 .973.178 1.248.532.275.355.416.907.422 1.657v.51h-2.654v.11c0 .51.095.88.285 1.111.194.232.471.347.831.347.228 0 .429-.042.602-.127.176-.088.34-.226.492-.413l.404.492c-.337.475-.851.712-1.542.712zm-.088-4.263c-.322 0-.561.111-.716.334-.156.22-.243.563-.264 1.029h1.872v-.106c-.02-.451-.102-.773-.246-.967-.141-.193-.356-.29-.646-.29zM8.624 61.412H7.499V64h-.81v-6.398h1.794c.627 0 1.101.164 1.424.492.322.325.483.803.483 1.432 0 .396-.088.742-.264 1.037a1.644 1.644 0 01-.738.664l1.24 2.72V64h-.866l-1.138-2.588zm-1.125-.69h.975c.337 0 .605-.109.804-.325.202-.217.304-.507.304-.87 0-.82-.373-1.231-1.117-1.231H7.5v2.426zM12.2 64h-.778v-4.755h.778V64zm.061-6.016a.497.497 0 01-.11.33c-.073.087-.184.131-.334.131-.146 0-.256-.044-.33-.132a.497.497 0 01-.11-.33c0-.13.037-.242.11-.333.074-.09.184-.136.33-.136.147 0 .257.046.33.14.076.091.114.201.114.33zm3.476 4.799a.574.574 0 00-.189-.43c-.126-.121-.369-.262-.73-.423-.418-.173-.714-.32-.887-.444a1.279 1.279 0 01-.382-.417 1.172 1.172 0 01-.128-.563c0-.386.141-.707.422-.962.284-.258.646-.387 1.086-.387.463 0 .835.135 1.116.405.281.27.422.615.422 1.037h-.774a.757.757 0 00-.215-.545.722.722 0 00-.55-.229c-.228 0-.408.06-.54.18a.61.61 0 00-.193.475c0 .158.047.286.14.382.097.097.327.224.69.383.578.225.97.446 1.178.663.208.214.312.486.312.818 0 .413-.142.744-.426.993-.284.246-.665.369-1.143.369-.495 0-.896-.142-1.204-.426a1.408 1.408 0 01-.461-1.081h.782c.009.263.09.47.242.62.152.149.366.223.641.223.258 0 .454-.057.59-.171a.592.592 0 00.201-.47zM18.371 64h-.778v-4.755h.778V64zm.061-6.016a.498.498 0 01-.11.33c-.073.087-.184.131-.334.131-.146 0-.256-.044-.33-.132a.497.497 0 01-.11-.33c0-.13.037-.242.11-.333.074-.09.184-.136.33-.136.147 0 .257.046.33.14.076.091.114.201.114.33zm2.36 3.84l-.413.475V64H19.6v-6.75h.778v4.039l1.48-2.044h.932l-1.511 1.986L22.99 64h-.906l-1.292-2.175zm2.703-.421c0-.692.167-1.238.5-1.64.337-.404.781-.606 1.332-.606.55 0 .993.197 1.327.59.337.392.51.926.519 1.603v.501c0 .689-.167 1.233-.501 1.635-.334.401-.78.602-1.336.602-.55 0-.993-.195-1.327-.585-.331-.39-.503-.917-.514-1.582v-.518zm.777.448c0 .49.096.875.286 1.156a.902.902 0 00.778.417c.686 0 1.039-.495 1.059-1.485v-.536c0-.486-.097-.87-.29-1.151-.193-.285-.453-.427-.778-.427-.32 0-.576.142-.769.426-.19.282-.285.664-.285 1.147v.453zm7.669 2.237c-.592 0-1.046-.176-1.362-.527-.317-.355-.478-.873-.484-1.556v-.576c0-.709.154-1.264.462-1.665.31-.405.742-.607 1.296-.607.557 0 .973.178 1.248.532.276.355.416.907.422 1.657v.51h-2.654v.11c0 .51.095.88.285 1.111.194.232.47.347.83.347.23 0 .43-.042.603-.127.176-.088.34-.226.492-.413l.404.492c-.336.475-.85.712-1.542.712zm-.088-4.263c-.322 0-.561.111-.716.334-.156.22-.243.563-.264 1.029h1.872v-.106c-.02-.451-.102-.773-.246-.967-.14-.193-.356-.29-.646-.29zM35.298 64h-.778v-4.755h.778V64zm.062-6.016a.498.498 0 01-.11.33c-.073.087-.185.131-.334.131-.146 0-.256-.044-.33-.132a.498.498 0 01-.11-.33c0-.13.037-.242.11-.333.074-.09.184-.136.33-.136.147 0 .256.046.33.14.076.091.114.201.114.33zm1.898 1.261l.022.514c.302-.401.687-.602 1.156-.602.84 0 1.267.561 1.279 1.683V64h-.774v-3.124c0-.373-.063-.636-.189-.791-.123-.159-.309-.238-.558-.238a.798.798 0 00-.523.194 1.405 1.405 0 00-.369.505V64h-.778v-4.755h.734zm4.346 4.091h2.294V64h-3.181v-.598l2.18-3.485h-2.163v-.672h3.076v.576l-2.206 3.515zm5.66.247c-.257.336-.634.505-1.129.505-.43 0-.756-.148-.975-.444-.22-.299-.331-.732-.334-1.3v-3.099h.773v3.041c0 .741.223 1.112.668 1.112.472 0 .797-.211.976-.633v-3.52h.777V64h-.738l-.017-.417zm1.772-2.176c0-.741.134-1.3.404-1.678.27-.381.663-.572 1.182-.572.483 0 .851.207 1.103.62l.04-.532h.703v4.799c0 .589-.151 1.04-.453 1.353-.302.317-.722.475-1.261.475-.234 0-.498-.058-.791-.176-.29-.114-.508-.256-.655-.426l.316-.536c.323.316.679.475 1.068.475.648 0 .98-.353.998-1.06v-.62c-.252.373-.61.559-1.072.559-.492 0-.876-.185-1.152-.554-.275-.372-.419-.905-.43-1.6v-.527zm.777.444c0 .533.078.926.233 1.178.159.249.416.373.774.373.386 0 .677-.197.87-.593v-2.377c-.202-.39-.49-.585-.861-.585-.358 0-.616.126-.774.378-.158.25-.239.633-.242 1.151v.475zm5.516 2.237c-.592 0-1.046-.176-1.363-.527-.316-.355-.477-.873-.483-1.556v-.576c0-.709.154-1.264.461-1.665.31-.405.743-.607 1.297-.607.556 0 .972.178 1.248.532.275.355.416.907.422 1.657v.51h-2.655v.11c0 .51.096.88.286 1.111.193.232.47.347.83.347.23 0 .43-.042.603-.127.175-.088.34-.226.492-.413l.404.492c-.337.475-.851.712-1.542.712zm-.088-4.263c-.322 0-.561.111-.717.334-.155.22-.243.563-.263 1.029h1.872v-.106c-.02-.451-.103-.773-.246-.967-.14-.193-.356-.29-.646-.29zm3.383-.092c.296-.384.674-.576 1.134-.576.841 0 1.267.561 1.28 1.683V64h-.774v-3.124c0-.373-.063-.636-.19-.791-.122-.159-.308-.238-.557-.238a.797.797 0 00-.523.194 1.405 1.405 0 00-.37.505V64h-.777v-6.75h.777v2.483zm5.274 4.355c-.592 0-1.046-.176-1.362-.527-.317-.355-.478-.873-.484-1.556v-.576c0-.709.154-1.264.462-1.665.31-.405.742-.607 1.296-.607.557 0 .973.178 1.248.532.275.355.416.907.422 1.657v.51h-2.654v.11c0 .51.095.88.285 1.111.194.232.47.347.83.347.23 0 .43-.042.603-.127.176-.088.34-.226.492-.413l.404.492c-.337.475-.85.712-1.542.712zm-.088-4.263c-.322 0-.561.111-.716.334-.156.22-.243.563-.264 1.029h1.872v-.106c-.02-.451-.102-.773-.246-.967-.14-.193-.356-.29-.646-.29zm3.34-.58l.022.514c.302-.401.687-.602 1.156-.602.84 0 1.267.561 1.278 1.683V64h-.773v-3.124c0-.373-.063-.636-.189-.791-.123-.159-.309-.238-.558-.238a.798.798 0 00-.523.194 1.405 1.405 0 00-.37.505V64h-.777v-4.755h.734zm3.634 6.03l-.461-.317c.275-.384.419-.78.43-1.186v-.734h.796v.637c0 .296-.073.592-.22.888a2.056 2.056 0 01-.545.711zM75.557 64h-.805v-6.398h.805V64zm2.078-4.267c.296-.384.674-.576 1.134-.576.84 0 1.267.561 1.279 1.683V64h-.774v-3.124c0-.373-.063-.636-.189-.791-.123-.159-.309-.238-.558-.238a.798.798 0 00-.523.194 1.405 1.405 0 00-.369.505V64h-.778v-6.75h.778v2.483zm5.537.242a1.893 1.893 0 00-.351-.031c-.399 0-.677.218-.835.655V64h-.778v-4.755h.756l.013.483c.208-.38.502-.57.883-.57.123 0 .226.02.308.06l.004.757zm6.957 3.23l-.14.175c-.405.472-.997.708-1.776.708-.691 0-1.235-.229-1.63-.686-.393-.46-.594-1.108-.602-1.946v-1.257c0-.897.178-1.568.536-2.013.36-.448.898-.672 1.612-.672.61 0 1.086.17 1.429.51.345.34.536.824.57 1.454h-.803c-.032-.398-.144-.709-.334-.932-.188-.225-.473-.338-.857-.338-.46 0-.797.15-1.011.453-.214.298-.325.777-.334 1.437v1.305c0 .644.123 1.14.37 1.485.245.343.598.514 1.058.514.434 0 .764-.105.99-.316l.118-.11V61.5h-1.17v-.685h1.974v2.39zm2.905.883c-.592 0-1.046-.176-1.363-.527-.316-.355-.477-.873-.483-1.556v-.576c0-.709.154-1.264.461-1.665.311-.405.743-.607 1.297-.607.556 0 .972.178 1.248.532.275.355.416.907.422 1.657v.51H91.96v.11c0 .51.096.88.286 1.111.193.232.47.347.83.347.23 0 .43-.042.603-.127a1.52 1.52 0 00.492-.413l.404.492c-.337.475-.85.712-1.542.712zm-.088-4.263c-.322 0-.561.111-.716.334-.156.22-.244.563-.264 1.029h1.872v-.106c-.02-.451-.103-.773-.246-.967-.14-.193-.356-.29-.646-.29zM96.39 64h-.778v-6.75h.778V64zm1.064-2.593c0-.732.136-1.29.408-1.674.276-.384.67-.576 1.182-.576.454 0 .809.185 1.064.554V57.25h.778V64h-.712l-.04-.51c-.255.399-.62.598-1.094.598-.492 0-.879-.19-1.16-.571-.278-.384-.42-.925-.426-1.622v-.488zm.777.444c0 .533.08.926.238 1.178.158.249.416.373.773.373.387 0 .675-.194.866-.584v-2.4c-.2-.38-.486-.57-.861-.57-.358 0-.616.125-.774.377-.158.25-.239.633-.242 1.151v.475zm6.636 1.485h2.294V64h-3.182v-.598l2.18-3.485h-2.162v-.672h3.076v.576l-2.206 3.515zm5.66.247c-.257.336-.634.505-1.129.505-.431 0-.756-.148-.976-.444-.219-.299-.331-.732-.334-1.3v-3.099h.774v3.041c0 .741.222 1.112.668 1.112.471 0 .797-.211.975-.633v-3.52h.778V64h-.738l-.018-.417zm5.34-.765l.901-3.573h.791L116.149 64h-.58l-1.428-4.755h.791l.936 3.573zm4.201 1.27c-.592 0-1.046-.176-1.362-.527-.317-.355-.478-.873-.484-1.556v-.576c0-.709.154-1.264.462-1.665.31-.405.742-.607 1.296-.607.557 0 .973.178 1.248.532.275.355.416.907.422 1.657v.51h-2.654v.11c0 .51.095.88.285 1.111.194.232.47.347.831.347.228 0 .429-.042.602-.127.176-.088.34-.226.492-.413l.404.492c-.337.475-.851.712-1.542.712zm-.088-4.263c-.322 0-.561.111-.716.334-.156.22-.244.563-.264 1.029h1.872v-.106c-.02-.451-.102-.773-.246-.967-.141-.193-.356-.29-.646-.29zm4.57.15a1.883 1.883 0 00-.351-.031c-.399 0-.677.218-.835.655V64h-.778v-4.755h.756l.013.483c.208-.38.502-.57.883-.57.123 0 .226.02.308.06l.004.757zM126.168 64h-.777v-6.75h.777V64zm2.066 0h-.778v-4.755h.778V64zm.061-6.016a.498.498 0 01-.109.33c-.074.087-.185.131-.334.131-.147 0-.257-.044-.33-.132a.499.499 0 01-.11-.33c0-.13.037-.242.11-.333.073-.09.183-.136.33-.136.146 0 .256.046.329.14.076.091.114.201.114.33zm2.866 6.104c-.592 0-1.046-.176-1.363-.527-.316-.355-.477-.873-.483-1.556v-.576c0-.709.154-1.264.461-1.665.311-.405.743-.607 1.297-.607.556 0 .972.178 1.248.532.275.355.416.907.422 1.657v.51h-2.655v.11c0 .51.096.88.286 1.111.193.232.47.347.831.347.228 0 .429-.042.602-.127.175-.088.339-.226.492-.413l.404.492c-.337.475-.851.712-1.542.712zm-.088-4.263c-.323 0-.561.111-.717.334-.155.22-.243.563-.263 1.029h1.872v-.106c-.021-.451-.103-.773-.246-.967-.141-.193-.356-.29-.646-.29zm4.57.15a1.891 1.891 0 00-.351-.031c-.399 0-.677.218-.835.655V64h-.778v-4.755h.756l.013.483c.208-.38.502-.57.883-.57.123 0 .226.02.308.06l.004.757zm2.479 4.113c-.592 0-1.046-.176-1.363-.527-.316-.355-.477-.873-.483-1.556v-.576c0-.709.154-1.264.461-1.665.311-.405.743-.607 1.297-.607.556 0 .972.178 1.248.532.275.355.416.907.422 1.657v.51h-2.655v.11c0 .51.096.88.286 1.111.193.232.47.347.831.347.228 0 .429-.042.602-.127.175-.088.339-.226.492-.413l.404.492c-.337.475-.851.712-1.542.712zm-.088-4.263c-.323 0-.561.111-.717.334-.155.22-.243.563-.263 1.029h1.872v-.106c-.021-.451-.103-.773-.246-.967-.141-.193-.356-.29-.646-.29zm3.34-.58l.022.514c.301-.401.687-.602 1.155-.602.841 0 1.267.561 1.279 1.683V64h-.773v-3.124c0-.373-.063-.636-.189-.791-.123-.159-.309-.238-.558-.238a.796.796 0 00-.523.194 1.402 1.402 0 00-.37.505V64h-.777v-4.755h.734zm3.678 4.329c0-.14.041-.258.123-.352.085-.094.211-.14.378-.14s.293.046.378.14c.088.094.131.211.131.352a.466.466 0 01-.131.338c-.085.09-.211.136-.378.136s-.293-.045-.378-.136a.486.486 0 01-.123-.338z" fill="#000"/></svg>