<svg width="135" height="10" viewBox="0 0 135 10" fill="none" xmlns="http://www.w3.org/2000/svg"><path d="M2.238 6.602c-.345 0-.642-.121-.891-.363a1.23 1.23 0 01-.374-.902c0-.36.125-.66.374-.902.25-.25.546-.374.89-.374.36 0 .66.125.903.374.25.242.374.543.374.902 0 .352-.125.653-.374.902a1.225 1.225 0 01-.902.363zm9.912-4.664v2.871h2.915v.638H12.15v2.915h3.245V9H11.38V1.3h4.015v.638H12.15zM20.058 9l-1.55-2.42L17.01 9h-.814l1.936-3.003-1.914-3.003h.87l1.528 2.387 1.485-2.387h.803l-1.914 2.97L20.927 9h-.869zm5.159 0l-2.475-2.695V9h-.77V.86h.77v4.818l2.42-2.684h1.078l-2.85 2.992L26.263 9h-1.045zm2.81-8.14V9h-.77V.86h.77zm6.947 2.134V9h-.77V7.944c-.176.374-.448.66-.814.858a2.55 2.55 0 01-1.232.297c-.719 0-1.306-.22-1.76-.66-.455-.447-.682-1.093-.682-1.936V2.994h.759v3.421c0 .653.161 1.151.484 1.496.33.345.777.517 1.342.517.579 0 1.041-.183 1.386-.55.344-.367.517-.906.517-1.617V2.994h.77zM38.8 9.088c-.69 0-1.254-.158-1.694-.473a1.766 1.766 0 01-.726-1.309h.792c.036.337.194.612.473.825.286.205.667.308 1.144.308.418 0 .744-.099.979-.297a.916.916 0 00.363-.737.685.685 0 00-.198-.506 1.34 1.34 0 00-.506-.308 6.537 6.537 0 00-.814-.253 8.327 8.327 0 01-1.09-.352 1.928 1.928 0 01-.714-.517c-.191-.235-.286-.546-.286-.935 0-.293.088-.565.264-.814.176-.25.425-.447.748-.594a2.63 2.63 0 011.1-.22c.645 0 1.166.165 1.562.495.396.323.608.77.638 1.342h-.77a1.144 1.144 0 00-.418-.847c-.25-.22-.594-.33-1.034-.33-.39 0-.704.092-.946.275-.242.183-.363.41-.363.682 0 .235.07.429.209.583.146.147.326.264.539.352.212.08.498.172.858.275.432.117.777.231 1.034.341.256.11.476.271.66.484.183.213.278.495.286.847a1.5 1.5 0 01-.264.869c-.176.25-.422.447-.737.594-.316.147-.679.22-1.09.22zm3.924-7.227a.54.54 0 01-.396-.165.553.553 0 01-.165-.407c0-.161.055-.293.165-.396a.54.54 0 01.396-.165.54.54 0 01.396.165c.11.103.165.235.165.396a.553.553 0 01-.165.407.54.54 0 01-.396.165zm.385 1.133V9h-.77V2.994h.77zm3.878 5.258l2.024-5.258h.814L47.415 9h-.868l-2.41-6.006h.826l2.024 5.258zm9.315-2.563c0 .264-.007.466-.022.605h-4.983c.022.455.132.843.33 1.166.198.323.459.568.781.737.323.161.675.242 1.056.242.499 0 .917-.121 1.254-.363.345-.242.572-.568.682-.979h.814a2.56 2.56 0 01-.946 1.441c-.476.367-1.078.55-1.804.55-.564 0-1.07-.125-1.518-.374a2.764 2.764 0 01-1.056-1.078c-.25-.47-.374-1.016-.374-1.639s.125-1.17.374-1.639c.25-.47.598-.829 1.045-1.078.448-.25.957-.374 1.53-.374.571 0 1.07.125 1.495.374.433.25.763.587.99 1.012.235.418.352.884.352 1.397zm-.78-.022c.007-.447-.085-.829-.276-1.144a1.785 1.785 0 00-.759-.715 2.328 2.328 0 00-1.056-.242c-.572 0-1.06.183-1.463.55-.403.367-.627.884-.67 1.551h4.223zm10.917-4.356V9h-.77V5.403h-4.17V9h-.77V1.311h.77v3.454h4.17V1.311h.77zm1.404 4.675c0-.616.121-1.155.363-1.617.25-.47.59-.829 1.023-1.078.44-.257.935-.385 1.485-.385.572 0 1.064.132 1.474.396.418.264.72.601.902 1.012v-1.32h.77V9h-.77V7.669c-.19.41-.495.752-.913 1.023-.41.264-.902.396-1.474.396a2.871 2.871 0 01-1.474-.385 2.718 2.718 0 01-1.023-1.089c-.242-.47-.363-1.012-.363-1.628zm5.247.011c0-.484-.099-.91-.297-1.276a2.107 2.107 0 00-.814-.847 2.175 2.175 0 00-1.122-.297c-.425 0-.806.095-1.144.286-.337.19-.605.47-.803.836-.19.36-.286.788-.286 1.287 0 .491.096.924.286 1.298.198.367.466.649.803.847.338.19.72.286 1.144.286.411 0 .785-.099 1.122-.297.345-.198.616-.48.814-.847.198-.367.297-.792.297-1.276zm5.344-3.113c.719 0 1.306.224 1.76.671.455.44.682 1.082.682 1.925V9h-.759V5.568c0-.653-.165-1.151-.495-1.496-.322-.345-.766-.517-1.33-.517-.58 0-1.042.183-1.387.55-.344.367-.517.906-.517 1.617V9h-.77V2.994h.77v1.023c.19-.367.466-.645.825-.836.36-.198.767-.297 1.221-.297zm3.793 3.102c0-.616.125-1.155.374-1.617.25-.47.59-.829 1.023-1.078.44-.257.935-.385 1.485-.385.528 0 1.005.128 1.43.385.426.257.737.59.935 1.001V.86h.77V9h-.77V7.658a2.346 2.346 0 01-.902 1.034c-.418.264-.91.396-1.474.396-.55 0-1.045-.128-1.485-.385a2.718 2.718 0 01-1.023-1.089c-.242-.47-.363-1.012-.363-1.628zm5.247.011c0-.484-.099-.91-.297-1.276a2.107 2.107 0 00-.814-.847 2.175 2.175 0 00-1.122-.297c-.425 0-.806.095-1.144.286-.337.19-.605.47-.803.836-.19.36-.286.788-.286 1.287 0 .491.096.924.286 1.298.198.367.466.649.803.847.338.19.719.286 1.144.286.41 0 .785-.099 1.122-.297.345-.198.616-.48.814-.847.198-.367.297-.792.297-1.276zm7.962-.308c0 .264-.007.466-.022.605h-4.983c.022.455.132.843.33 1.166.198.323.458.568.781.737.323.161.675.242 1.056.242.499 0 .917-.121 1.254-.363.345-.242.572-.568.682-.979h.814a2.56 2.56 0 01-.946 1.441c-.477.367-1.078.55-1.804.55-.565 0-1.07-.125-1.518-.374a2.764 2.764 0 01-1.056-1.078c-.25-.47-.374-1.016-.374-1.639s.125-1.17.374-1.639c.25-.47.598-.829 1.045-1.078.447-.25.957-.374 1.53-.374.571 0 1.07.125 1.495.374.433.25.763.587.99 1.012.235.418.352.884.352 1.397zm-.78-.022c.006-.447-.085-.829-.276-1.144a1.785 1.785 0 00-.759-.715 2.328 2.328 0 00-1.056-.242c-.572 0-1.06.183-1.463.55-.403.367-.627.884-.67 1.551h4.223zM97.614.86V9h-.77V.86h.77zm3.812 8.228c-.69 0-1.254-.158-1.695-.473a1.766 1.766 0 01-.725-1.309h.791c.037.337.195.612.474.825.286.205.667.308 1.144.308.418 0 .744-.099.979-.297a.916.916 0 00.363-.737.685.685 0 00-.198-.506 1.342 1.342 0 00-.506-.308 6.57 6.57 0 00-.814-.253 8.267 8.267 0 01-1.089-.352 1.925 1.925 0 01-.715-.517c-.191-.235-.287-.546-.287-.935 0-.293.088-.565.264-.814a1.8 1.8 0 01.749-.594c.322-.147.689-.22 1.1-.22.645 0 1.166.165 1.562.495.396.323.608.77.638 1.342h-.77a1.146 1.146 0 00-.418-.847c-.25-.22-.594-.33-1.034-.33-.389 0-.704.092-.946.275-.242.183-.364.41-.364.682 0 .235.07.429.21.583.146.147.326.264.539.352.212.08.498.172.858.275.432.117.777.231 1.034.341.256.11.476.271.66.484.183.213.278.495.286.847a1.5 1.5 0 01-.264.869c-.176.25-.422.447-.737.594a2.56 2.56 0 01-1.089.22zm11.056-7.777v.638h-2.134V9h-.77V1.949h-2.145v-.638h5.049zm3.845 7.777a3.13 3.13 0 01-1.529-.374 2.845 2.845 0 01-1.067-1.078c-.256-.47-.385-1.016-.385-1.639s.132-1.166.396-1.628c.264-.47.624-.829 1.078-1.078a3.058 3.058 0 011.529-.385c.565 0 1.075.128 1.529.385.462.25.822.609 1.078 1.078.264.462.396 1.005.396 1.628 0 .616-.132 1.159-.396 1.628-.264.47-.627.832-1.089 1.089-.462.25-.975.374-1.54.374zm0-.671c.396 0 .763-.088 1.1-.264.338-.183.609-.455.814-.814.213-.367.319-.814.319-1.342 0-.528-.102-.972-.308-1.331a1.972 1.972 0 00-.814-.814 2.266 2.266 0 00-1.1-.275c-.396 0-.762.092-1.1.275a1.983 1.983 0 00-.814.814c-.198.36-.297.803-.297 1.331 0 .528.099.975.297 1.342.206.36.473.63.803.814.338.176.704.264 1.1.264zm7.058.671a3.127 3.127 0 01-1.529-.374 2.845 2.845 0 01-1.067-1.078c-.257-.47-.385-1.016-.385-1.639s.132-1.166.396-1.628a2.72 2.72 0 011.078-1.078 3.056 3.056 0 011.529-.385c.565 0 1.074.128 1.529.385.462.25.821.609 1.078 1.078.264.462.396 1.005.396 1.628 0 .616-.132 1.159-.396 1.628-.264.47-.627.832-1.089 1.089-.462.25-.975.374-1.54.374zm0-.671c.396 0 .763-.088 1.1-.264.337-.183.609-.455.814-.814.213-.367.319-.814.319-1.342 0-.528-.103-.972-.308-1.331a1.977 1.977 0 00-.814-.814 2.266 2.266 0 00-1.1-.275c-.396 0-.763.092-1.1.275a1.977 1.977 0 00-.814.814c-.198.36-.297.803-.297 1.331 0 .528.099.975.297 1.342.205.36.473.63.803.814.337.176.704.264 1.1.264zM128.585.86V9h-.77V.86h.77zm3.811 8.228c-.689 0-1.254-.158-1.694-.473a1.77 1.77 0 01-.726-1.309h.792c.037.337.195.612.473.825.286.205.668.308 1.144.308.418 0 .745-.099.979-.297a.916.916 0 00.363-.737.685.685 0 00-.198-.506 1.335 1.335 0 00-.506-.308 6.515 6.515 0 00-.814-.253 8.367 8.367 0 01-1.089-.352 1.933 1.933 0 01-.715-.517c-.19-.235-.286-.546-.286-.935 0-.293.088-.565.264-.814.176-.25.426-.447.748-.594.323-.147.69-.22 1.1-.22.646 0 1.166.165 1.562.495.396.323.609.77.638 1.342h-.77a1.143 1.143 0 00-.418-.847c-.249-.22-.594-.33-1.034-.33-.388 0-.704.092-.946.275-.242.183-.363.41-.363.682 0 .235.07.429.209.583.147.147.327.264.539.352.213.08.499.172.858.275.433.117.778.231 1.034.341.257.11.477.271.66.484.184.213.279.495.286.847a1.5 1.5 0 01-.264.869 1.81 1.81 0 01-.737.594c-.315.147-.678.22-1.089.22z" fill="#fff"/></svg>