<svg width="288" height="44" viewBox="0 0 288 44" fill="none" xmlns="http://www.w3.org/2000/svg"><path d="M.4 2h4.8v13h1.08V2h4.8V1H.4v1zm15.33 2.86c-1.88 0-2.68.9-3.1 2.02l-.16-2.02h-.88V15h1.02V9.86c0-2.06.54-4.02 2.92-4.02h.74v-.98h-.54zm10.542 9.2c-.6 0-.9-.2-.9-.98V8.36c0-2.32-1.42-3.62-3.96-3.62-2.32 0-3.86 1.12-4.12 2.96h1.02c.26-1.24 1.34-2.06 3.06-2.06 1.9 0 2.98 1 2.98 2.68v.88h-3.44c-2.6 0-4 1.12-4 3.02 0 1.8 1.42 2.9 3.58 2.9 2.06 0 3.28-.94 3.9-2.2v.36c-.04 1.2.46 1.72 1.66 1.72h.6v-.94h-.38zm-1.92-3.16c0 1.94-1.38 3.34-3.78 3.34-1.62 0-2.62-.82-2.62-2.08 0-1.34 1-2.08 2.88-2.08h3.52v.82zM36.14 7.14c-.62-1.44-1.98-2.4-3.88-2.4-2.78 0-4.78 2.12-4.78 5.18 0 3.2 2 5.2 4.78 5.2 1.9 0 3.22-1.02 3.86-2.44l.16 2.32h.88V1h-1.02v6.14zm-3.8 7.06c-2.26 0-3.82-1.76-3.82-4.28 0-2.5 1.56-4.28 3.82-4.28s3.82 1.78 3.82 4.3c0 2.5-1.56 4.26-3.82 4.26zm11.7.92c2.22 0 3.92-1.44 4.36-3.48h-1.04c-.4 1.58-1.74 2.56-3.4 2.56-2.26 0-3.68-1.72-3.72-4.08v-.18h8.28c0-.14.02-.3.02-.42-.1-3.02-1.96-4.78-4.68-4.78-2.78 0-4.68 2.12-4.68 5.12 0 3.18 1.98 5.26 4.86 5.26zm-3.72-6.04c.16-2.06 1.7-3.44 3.56-3.44 1.98 0 3.4 1.22 3.56 3.44h-7.12zm21.786 6.04c3 0 5.12-1.62 5.72-4.44h-1.14c-.6 2.24-2.22 3.44-4.6 3.44-3.24 0-5.28-2.54-5.28-6.12s2.08-6.12 5.32-6.12c2.34 0 3.98 1.22 4.6 3.42h1.14c-.62-2.8-2.74-4.42-5.68-4.42-3.94 0-6.5 2.92-6.5 7.12 0 4.24 2.5 7.12 6.42 7.12zm8.045-.12h1.08V8.54h6.04v-1h-6.04V2h7.24V1h-8.32v14zm14.295 0c4.44 0 7.04-2.76 7.04-7 0-4.26-2.6-7-7.04-7h-4.08v14h4.08zm-3-13h3c3.82 0 5.94 2.32 5.94 6 0 3.66-2.12 6-5.94 6h-3V2zm11.735 9.88c.08 2.1 1.78 3.24 4.32 3.24 2.18 0 3.94-1.1 3.94-2.9 0-2.14-1.88-2.56-4.06-2.86-1.58-.22-2.98-.4-2.98-1.82 0-1.16 1.14-1.92 2.86-1.92 1.62 0 2.78.78 2.96 2.1h1.04c-.18-1.98-1.8-2.98-4-2.98-2.26-.02-3.88 1.14-3.88 2.88 0 2.04 1.88 2.42 3.96 2.7 1.7.24 3.08.46 3.08 1.96 0 1.2-1.26 1.96-2.92 1.96-1.94 0-3.2-.9-3.28-2.36h-1.04zM111.238 15h1.1l3-8.52 2.86 8.52h1.1l3.6-10.14h-1.04l-3.12 8.92-2.9-8.92h-.94l-3.06 8.92-2.96-8.92h-1.08l3.44 10.14zm13.607-12.28c.4 0 .72-.3.72-.72s-.32-.72-.72-.72c-.4 0-.72.3-.72.72s.32.72.72.72zm-.52 12.28h1.02V4.86h-1.02V15zm4.178-2.36c0 1.62.66 2.36 2.38 2.36h1.48v-.94h-1.4c-1.06 0-1.44-.4-1.44-1.44V5.8h2.74v-.94h-2.74V2.02h-1.02v2.84h-1.92v.94h1.92v6.84zm10.092-7.9c-1.9 0-3.08 1.06-3.66 2.52V1h-1.02v14h1.02v-5c0-2.64 1.34-4.32 3.5-4.32 1.94 0 3.14 1.28 3.14 3.68V15h1.02V9.32c0-3.2-1.7-4.58-4-4.58zm16.347 0c-1.899 0-3.079 1.06-3.659 2.52V1h-1.02v14h1.02v-5c0-2.64 1.34-4.32 3.5-4.32 1.94 0 3.14 1.28 3.14 3.68V15h1.02V9.32c0-3.2-1.7-4.58-4.001-4.58zm6.798-2.02c.4 0 .72-.3.72-.72s-.32-.72-.72-.72c-.4 0-.72.3-.72.72s.32.72.72.72zM161.22 15h1.02V4.86h-1.02V15zm11.678-7.78c-.62-1.5-1.98-2.48-3.86-2.48-2.78 0-4.78 2.1-4.78 5.18 0 3.2 2 5.2 4.78 5.2 1.9 0 3.24-1 3.88-2.58v1.8c0 2.7-1.28 3.86-3.72 3.86-1.9 0-3.22-.86-3.54-2.4h-1.06c.32 2.16 2.06 3.32 4.52 3.32 3.28 0 4.82-1.56 4.82-4.74V4.86h-.88l-.16 2.36zm-3.78 6.98c-2.26 0-3.82-1.76-3.82-4.28 0-2.52 1.56-4.28 3.82-4.28s3.82 1.76 3.82 4.3c0 2.5-1.56 4.26-3.82 4.26zm11.899-9.46c-1.9 0-3.08 1.06-3.66 2.52V1h-1.02v14h1.02v-5c0-2.64 1.34-4.32 3.5-4.32 1.94 0 3.14 1.28 3.14 3.68V15h1.02V9.32c0-3.2-1.7-4.58-4-4.58zm10.601 10.38c2.22 0 3.92-1.44 4.36-3.48h-1.04c-.4 1.58-1.74 2.56-3.4 2.56-2.26 0-3.68-1.72-3.72-4.08v-.18h8.28c0-.14.02-.3.02-.42-.1-3.02-1.96-4.78-4.68-4.78-2.78 0-4.68 2.12-4.68 5.12 0 3.18 1.98 5.26 4.86 5.26zm-3.72-6.04c.16-2.06 1.7-3.44 3.56-3.44 1.98 0 3.4 1.22 3.56 3.44h-7.12zm14.376-4.22c-1.88 0-2.68.9-3.1 2.02l-.16-2.02h-.88V15h1.02V9.86c0-2.06.54-4.02 2.92-4.02h.74v-.98h-.54zM209.716 15h1.02V1h-1.02v14zm7.898.12c2.22 0 3.92-1.44 4.36-3.48h-1.04c-.4 1.58-1.74 2.56-3.4 2.56-2.26 0-3.68-1.72-3.72-4.08v-.18h8.28c0-.14.02-.3.02-.42-.1-3.02-1.96-4.78-4.68-4.78-2.78 0-4.68 2.12-4.68 5.12 0 3.18 1.98 5.26 4.86 5.26zm-3.72-6.04c.16-2.06 1.7-3.44 3.56-3.44 1.98 0 3.4 1.22 3.56 3.44h-7.12zM226.64 15h1.22l3.96-10.14h-1.06l-3.48 8.96-3.5-8.96h-1.1L226.64 15zm10.622.12c2.22 0 3.92-1.44 4.36-3.48h-1.04c-.4 1.58-1.74 2.56-3.4 2.56-2.26 0-3.68-1.72-3.72-4.08v-.18h8.28c0-.14.02-.3.02-.42-.1-3.02-1.96-4.78-4.68-4.78-2.78 0-4.68 2.12-4.68 5.12 0 3.18 1.98 5.26 4.86 5.26zm-3.72-6.04c.16-2.06 1.7-3.44 3.56-3.44 1.98 0 3.4 1.22 3.56 3.44h-7.12zm14.376-4.22c-1.88 0-2.68.9-3.1 2.02l-.16-2.02h-.88V15h1.02V9.86c0-2.06.54-4.02 2.92-4.02h.74v-.98h-.54zm10.542 9.2c-.6 0-.9-.2-.9-.98V8.36c0-2.32-1.42-3.62-3.96-3.62-2.32 0-3.86 1.12-4.12 2.96h1.02c.26-1.24 1.34-2.06 3.06-2.06 1.9 0 2.98 1 2.98 2.68v.88h-3.44c-2.6 0-4 1.12-4 3.02 0 1.8 1.42 2.9 3.58 2.9 2.06 0 3.28-.94 3.9-2.2v.36c-.04 1.2.46 1.72 1.66 1.72h.6v-.94h-.38zm-1.92-3.16c0 1.94-1.38 3.34-3.78 3.34-1.62 0-2.62-.82-2.62-2.08 0-1.34 1-2.08 2.88-2.08h3.52v.82zm11.924-3.68c-.62-1.5-1.98-2.48-3.86-2.48-2.78 0-4.78 2.1-4.78 5.18 0 3.2 2 5.2 4.78 5.2 1.9 0 3.24-1 3.88-2.58v1.8c0 2.7-1.28 3.86-3.72 3.86-1.9 0-3.22-.86-3.54-2.4h-1.06c.32 2.16 2.06 3.32 4.52 3.32 3.28 0 4.82-1.56 4.82-4.74V4.86h-.88l-.16 2.36zm-3.78 6.98c-2.26 0-3.82-1.76-3.82-4.28 0-2.52 1.56-4.28 3.82-4.28s3.82 1.76 3.82 4.3c0 2.5-1.56 4.26-3.82 4.26zm11.699.92c2.22 0 3.92-1.44 4.36-3.48h-1.04c-.4 1.58-1.74 2.56-3.4 2.56-2.26 0-3.68-1.72-3.72-4.08v-.18h8.28c0-.14.02-.3.02-.42-.1-3.02-1.96-4.78-4.68-4.78-2.78 0-4.68 2.12-4.68 5.12 0 3.18 1.98 5.26 4.86 5.26zm-3.72-6.04c.16-2.06 1.7-3.44 3.56-3.44 1.98 0 3.4 1.22 3.56 3.44h-7.12zm14.86-6.44l-2.5 1.08.04-2.74h-.74l.04 2.74-2.48-1.08-.3.7 2.56.98-1.76 2.1.54.5 1.76-2.18 1.76 2.18.56-.5-1.74-2.08 2.54-.98-.28-.72zM10.12 42.06c-.6 0-.9-.2-.9-.98v-4.72c0-2.32-1.42-3.62-3.96-3.62-2.32 0-3.86 1.12-4.12 2.96h1.02c.26-1.24 1.34-2.06 3.06-2.06 1.9 0 2.98 1 2.98 2.68v.88H4.76c-2.6 0-4 1.12-4 3.02 0 1.8 1.42 2.9 3.58 2.9 2.06 0 3.28-.94 3.9-2.2v.36C8.2 42.48 8.7 43 9.9 43h.6v-.94h-.38zM8.2 38.9c0 1.94-1.38 3.34-3.78 3.34-1.62 0-2.62-.82-2.62-2.08 0-1.34 1-2.08 2.88-2.08H8.2v.82zm8.344-6.16c-1.86 0-3.06.96-3.64 2.28l-.16-2.16h-.88V43h1.02v-5c0-2.64 1.34-4.32 3.5-4.32 1.96 0 3.14 1.28 3.14 3.68V43h1.02v-5.68c0-3.2-1.7-4.58-4-4.58zm14.381 2.4c-.62-1.44-1.98-2.4-3.88-2.4-2.78 0-4.78 2.12-4.78 5.18 0 3.2 2 5.2 4.78 5.2 1.9 0 3.22-1.02 3.86-2.44l.16 2.32h.88V29h-1.02v6.14zm-3.8 7.06c-2.26 0-3.82-1.76-3.82-4.28 0-2.5 1.56-4.28 3.82-4.28s3.82 1.78 3.82 4.3c0 2.5-1.56 4.26-3.82 4.26zm14.39-9.34v-1.52c0-1 .38-1.4 1.4-1.4h1.46V29h-1.5c-1.7 0-2.38.74-2.38 2.36v1.5h-1.92v.94h1.92V43h1.02v-9.2h4.34V43h1.02V32.86h-5.36zm4.86-3.58c-.4 0-.72.3-.72.72s.32.72.72.72c.42 0 .72-.3.72-.72s-.3-.72-.72-.72zM48.186 43h1.18l3.36-4.46 3.36 4.46h1.24l-3.94-5.18 3.74-4.96h-1.16l-3.2 4.2-3.16-4.2h-1.22l3.74 4.96-3.94 5.18zm14.584.12c2.22 0 3.92-1.44 4.36-3.48h-1.04c-.4 1.58-1.74 2.56-3.4 2.56-2.26 0-3.68-1.72-3.72-4.08v-.18h8.28c0-.14.02-.3.02-.42-.1-3.02-1.96-4.78-4.68-4.78-2.78 0-4.68 2.12-4.68 5.12 0 3.18 1.98 5.26 4.86 5.26zm-3.72-6.04c.16-2.06 1.7-3.44 3.56-3.44 1.98 0 3.4 1.22 3.56 3.44h-7.12zm18.516-1.94c-.62-1.44-1.98-2.4-3.88-2.4-2.78 0-4.78 2.12-4.78 5.18 0 3.2 2 5.2 4.78 5.2 1.9 0 3.22-1.02 3.86-2.44l.16 2.32h.88V29h-1.02v6.14zm-3.8 7.06c-2.26 0-3.82-1.76-3.82-4.28 0-2.5 1.56-4.28 3.82-4.28s3.82 1.78 3.82 4.3c0 2.5-1.56 4.26-3.82 4.26zm16.75-9.34c-1.88 0-2.68.9-3.1 2.02l-.16-2.02h-.88V43h1.02v-5.14c0-2.06.54-4.02 2.92-4.02h.74v-.98h-.54zm2.571-2.14c.4 0 .72-.3.72-.72s-.32-.72-.72-.72c-.4 0-.72.3-.72.72s.32.72.72.72zM92.567 43h1.02V32.86h-1.02V43zm2.958-3.12c.08 2.1 1.78 3.24 4.32 3.24 2.18 0 3.94-1.1 3.94-2.9 0-2.14-1.88-2.56-4.06-2.86-1.58-.22-2.98-.4-2.98-1.82 0-1.16 1.14-1.92 2.86-1.92 1.62 0 2.78.78 2.96 2.1h1.04c-.18-1.98-1.8-2.98-4-2.98-2.26-.02-3.88 1.14-3.88 2.88 0 2.04 1.88 2.42 3.96 2.7 1.7.24 3.08.46 3.08 1.96 0 1.2-1.26 1.96-2.92 1.96-1.94 0-3.2-.9-3.28-2.36h-1.04zM105.731 43h1.02v-2.74l2.38-2.44 3.88 5.18h1.24l-4.42-5.92 4.08-4.22h-1.26l-5.9 6.08V29h-1.02v14z" fill="#000"/></svg>