<svg width="139" height="68" viewBox="0 0 139 68" fill="none" xmlns="http://www.w3.org/2000/svg"><path d="M1.344 17h9.849v-2.142H3.759v-4.263h5.922V8.516H3.759V4.442h7.182V2.3H1.344V17zm21.122-1.974c-.462 0-.693-.147-.693-.693v-4.305c0-2.541-1.638-3.906-4.494-3.906-2.709 0-4.515 1.302-4.746 3.402h2.226c.168-.945 1.071-1.575 2.415-1.575 1.491 0 2.352.735 2.352 1.932v.651h-2.709c-3.003 0-4.599 1.239-4.599 3.444 0 1.995 1.638 3.15 3.99 3.15 1.743 0 2.835-.756 3.55-1.848 0 1.071.503 1.722 1.973 1.722h1.197v-1.974h-.462zm-2.94-2.436c-.02 1.659-1.113 2.772-3.003 2.772-1.239 0-1.995-.63-1.995-1.533 0-1.092.777-1.617 2.184-1.617h2.814v.378zm10.077-6.342c-1.764 0-2.625.714-3.171 1.617l-.252-1.617h-2.016V17h2.268v-5.397c0-1.659.65-3.234 2.667-3.234h1.008V6.248h-.504zm7.573-.126c-1.743 0-2.772.693-3.444 1.533l-.252-1.407h-1.974V17h2.268v-5.418c0-2.184 1.07-3.507 2.877-3.507 1.7 0 2.562 1.092 2.562 3.129V17h2.289v-5.985c0-3.591-1.953-4.893-4.326-4.893zm17.998 2.415c-2.31-.399-3.822-.714-3.822-2.226 0-1.386 1.155-2.1 2.814-2.1 1.785 0 2.961 1.008 3.15 2.499h2.415c-.084-2.373-1.7-4.053-4.347-4.452V.032h-2.037v2.184c-2.667.273-4.41 1.932-4.41 4.263 0 2.919 2.31 3.696 4.746 4.116 2.331.42 3.864.756 3.864 2.31 0 1.407-1.26 2.184-3.003 2.184-2.058 0-3.402-1.155-3.528-2.877l-2.436-.042c.084 2.604 1.827 4.494 4.767 4.872v2.205h2.037v-2.163c2.751-.294 4.578-2.037 4.578-4.431.021-2.898-2.352-3.675-4.788-4.116zM61.206 17h10.416v-2.037h-7.119l3.906-3.255c1.785-1.491 3.108-2.856 3.108-5.04 0-2.688-1.848-4.494-5.145-4.494-3.129 0-5.145 2.037-5.145 4.83v.378h2.331V7.13c0-1.827 1.134-2.961 2.814-2.961 1.68 0 2.793.924 2.793 2.604 0 1.407-.987 2.436-2.31 3.549l-5.649 4.809V17zm11.841-7.014c0 4.431 2.374 7.14 5.797 7.14 3.422 0 5.796-2.709 5.796-7.14v-.672c0-4.263-2.374-7.14-5.796-7.14-3.423 0-5.796 2.877-5.796 7.14v.672zm9.24-.084c0 3.297-1.386 5.187-3.444 5.187S75.4 13.199 75.4 9.902v-.504c0-3.276 1.386-5.187 3.445-5.187 2.058 0 3.444 1.911 3.444 5.187v.504zm3.988.084c0 4.431 2.373 7.14 5.796 7.14s5.796-2.709 5.796-7.14v-.672c0-4.263-2.373-7.14-5.796-7.14s-5.796 2.877-5.796 7.14v.672zm9.24-.084c0 3.297-1.386 5.187-3.444 5.187s-3.444-1.89-3.444-5.187v-.504c0-3.276 1.386-5.187 3.444-5.187s3.444 1.911 3.444 5.187v.504zM3.591 42h2.457L8.4 34.692 10.668 42h2.436l3.57-10.752h-2.31l-2.541 8.232-2.352-8.232H7.392L4.935 39.48l-2.457-8.232H.084L3.591 42zm15.432-12.264c.777 0 1.386-.567 1.386-1.365s-.61-1.365-1.386-1.365c-.777 0-1.386.567-1.386 1.365s.609 1.365 1.386 1.365zM17.868 42h2.268V31.248h-2.268V42zm5.268-2.919c0 1.953.882 2.919 2.94 2.919h2.1v-1.995H26.58c-.86 0-1.155-.315-1.155-1.155v-5.607h2.625v-1.995h-2.625v-3.003h-2.289v3.003h-1.869v1.995h1.87v5.838zm12.132-7.959c-1.68 0-2.71.756-3.381 1.68V27.3h-2.268V42h2.268v-5.439c0-2.163 1.092-3.486 2.877-3.486 1.68 0 2.583 1.092 2.583 3.129V42h2.268v-5.985c0-3.591-1.953-4.893-4.347-4.893zm21.61 8.904c-.462 0-.693-.147-.693-.693v-4.305c0-2.541-1.638-3.906-4.494-3.906-2.709 0-4.515 1.302-4.745 3.402h2.226c.168-.945 1.07-1.575 2.415-1.575 1.49 0 2.351.735 2.351 1.932v.651H51.23c-3.002 0-4.599 1.239-4.599 3.444 0 1.995 1.639 3.15 3.99 3.15 1.744 0 2.836-.756 3.55-1.848 0 1.071.503 1.722 1.974 1.722h1.197v-1.974h-.462zm-2.94-2.436c-.02 1.659-1.113 2.772-3.003 2.772-1.239 0-1.995-.63-1.995-1.533 0-1.092.778-1.617 2.184-1.617h2.814v.378zM1.113 67h2.268v-2.73l1.932-2.016L8.484 67h2.688l-4.305-6.405 4.053-4.347H8.253l-4.872 5.208V52.3H1.113V67zm16.826-10.878c-1.743 0-2.772.693-3.444 1.533l-.252-1.407H12.27V67h2.268v-5.418c0-2.184 1.071-3.507 2.877-3.507 1.701 0 2.562 1.092 2.562 3.129V67h2.29v-5.985c0-3.591-1.954-4.893-4.327-4.893zm11.389 11.004c3.276 0 5.48-2.205 5.48-5.502 0-3.276-2.204-5.502-5.48-5.502-3.276 0-5.481 2.226-5.481 5.502 0 3.297 2.205 5.502 5.48 5.502zm0-1.932c-1.911 0-3.15-1.491-3.15-3.57 0-2.079 1.239-3.57 3.15-3.57 1.91 0 3.17 1.491 3.17 3.57 0 2.079-1.26 3.57-3.17 3.57zm12.24 1.932c2.75 0 4.578-1.533 4.998-3.969H44.17c-.273 1.239-1.197 2.037-2.582 2.037-1.828 0-3.024-1.449-3.024-3.549 0-2.121 1.197-3.591 3.024-3.591 1.407 0 2.31.777 2.604 2.037h2.373c-.442-2.436-2.163-3.969-4.936-3.969-3.255 0-5.397 2.205-5.397 5.523 0 3.36 2.08 5.481 5.335 5.481zM48.3 67h2.268v-2.73l1.932-2.016L55.673 67h2.688l-4.305-6.405 4.053-4.347H55.44l-4.872 5.208V52.3h-2.268V67zm15.562.126c3.276 0 5.481-2.205 5.481-5.502 0-3.276-2.205-5.502-5.481-5.502s-5.481 2.226-5.481 5.502c0 3.297 2.205 5.502 5.481 5.502zm0-1.932c-1.911 0-3.15-1.491-3.15-3.57 0-2.079 1.239-3.57 3.15-3.57 1.911 0 3.171 1.491 3.171 3.57 0 2.079-1.26 3.57-3.171 3.57zm14.676-3.57c0 2.226-1.05 3.528-2.772 3.528-1.66 0-2.5-1.071-2.5-3.171v-5.733H71v5.985c0 3.675 1.953 4.893 4.242 4.893 1.659 0 2.646-.672 3.318-1.491L78.812 67h1.995V56.248h-2.268v5.376zm5.341 2.457c0 1.953.882 2.919 2.94 2.919h2.1v-1.995h-1.596c-.86 0-1.155-.315-1.155-1.155v-5.607h2.625v-1.995H86.17v-3.003H83.88v3.003h-1.869v1.995h1.87v5.838zm16.938 3.045c3.276 0 5.481-2.205 5.481-5.502 0-3.276-2.205-5.502-5.481-5.502s-5.481 2.226-5.481 5.502c0 3.297 2.205 5.502 5.481 5.502zm0-1.932c-1.911 0-3.15-1.491-3.15-3.57 0-2.079 1.239-3.57 3.15-3.57 1.911 0 3.171 1.491 3.171 3.57 0 2.079-1.26 3.57-3.171 3.57zm19.403-10.899V52.3h-2.163c-2.079 0-3.003.987-3.003 2.877v1.071h-3.948v-.903c0-.735.294-1.05 1.029-1.05h1.596V52.3h-1.911c-2.079 0-3.003.987-3.003 2.877v1.071h-1.869v1.995h1.869V67h2.289v-8.757h3.948V67h2.268v-8.757h2.898v-1.995h-2.898v-.903c0-.735.315-1.05 1.05-1.05h1.848zm5.843 12.831c2.667 0 4.473-1.617 4.851-3.738h-2.268c-.315 1.197-1.323 1.89-2.709 1.89-1.785 0-2.94-1.197-3.003-3.024v-.147h8.106a6.16 6.16 0 00.063-.861c-.063-3.15-2.142-5.124-5.25-5.124-3.171 0-5.292 2.205-5.292 5.523 0 3.297 2.121 5.481 5.502 5.481zm-3.045-6.678c.168-1.533 1.407-2.499 2.856-2.499 1.575 0 2.688.903 2.877 2.499h-5.733zm15.357-4.2c-1.764 0-2.625.714-3.171 1.617l-.252-1.617h-2.016V67h2.268v-5.397c0-1.659.651-3.234 2.667-3.234h1.008v-2.121h-.504z" fill="#000"/></svg>