<svg width="260" height="25" viewBox="0 0 260 25" fill="none" xmlns="http://www.w3.org/2000/svg"><path d="M12.328.44C5.596.44.15 5.751.15 12.32c0 6.533 5.445 11.846 12.177 11.846 4.125 0 7.755-1.98 9.933-5.049l-5.38-3.036a5.517 5.517 0 01-4.52 2.277c-3.366 0-5.71-2.706-5.71-6.039 0-3.366 2.344-6.072 5.71-6.072 1.914 0 3.498.891 4.52 2.277l5.38-3.036C20.083 2.42 16.453.44 12.328.44zm24.819 0c-6.831 0-12.375 5.312-12.375 11.88 0 6.533 5.544 11.846 12.375 11.846 6.83 0 12.375-5.313 12.375-11.847 0-6.567-5.544-11.88-12.375-11.88zm0 5.807c3.465 0 5.907 2.706 5.907 6.072 0 3.333-2.442 6.04-5.907 6.04s-5.874-2.707-5.874-6.04c0-3.366 2.409-6.072 5.874-6.072zm44.598 17.59V.736h-8.15l-6.007 9.932L61.615.736h-8.15v23.1h6.104V9.052L66.532 20.8h2.112l6.963-11.748v14.784h6.138zm32.807 0V.736h-8.151l-6.006 9.932L94.422.736H86.27v23.1h6.105V9.052L99.339 20.8h2.112l6.963-11.748v14.784h6.138zM130.99.438c-6.831 0-12.375 5.313-12.375 11.88 0 6.534 5.544 11.847 12.375 11.847s12.375-5.313 12.375-11.847c0-6.567-5.544-11.88-12.375-11.88zm0 5.808c3.465 0 5.907 2.706 5.907 6.072 0 3.333-2.442 6.04-5.907 6.04s-5.874-2.707-5.874-6.04c0-3.366 2.409-6.072 5.874-6.072zM147.473.77v23.067h9.9c6.831 0 12.375-4.983 12.375-11.517 0-6.567-5.544-11.583-12.375-11.583l-9.9.033zm6.204 5.544h3.465c3.432 0 6.237 2.574 6.237 5.973 0 3.432-2.805 6.006-6.237 6.006h-3.465V6.313zm26.361 17.523V.77h-6.204v23.067h6.204zM202.843 6.05V.736h-19.635V6.05h6.699v17.787h6.237V6.05h6.699zm9.325 17.787V.77h-6.204v23.067h6.204zm23.63-17.523V.736h-18.909v23.1h19.107V18.26h-12.903v-3.465h11.814v-5.28h-11.814v-3.2h12.705zM248.917.406c-5.379.033-9.603 2.376-9.603 7.557 0 4.521 3.762 5.742 9.009 6.996 3.795.957 4.455 1.09 4.455 2.41 0 1.055-1.122 1.517-2.409 1.517-2.937 0-6.27-.858-9.273-2.54l-2.772 4.62c3.168 2.111 7.062 3.233 11.352 3.233 5.94 0 9.669-2.706 9.669-7.623 0-4.719-3.861-6.039-9.273-7.49-3.597-.892-4.026-1.189-4.026-1.915 0-1.056 1.023-1.518 2.211-1.518 2.277 0 5.379.792 8.019 2.145l2.607-4.785c-2.706-1.65-6.27-2.607-9.966-2.607z" fill="#09B45B"/></svg>