<svg width="48" height="18" viewBox="0 0 48 18" fill="none" xmlns="http://www.w3.org/2000/svg"><path d="M32.163 6.52h-2.496C28.983 2.482 26.117.03 21.787.03c-4.87 0-8.017 3.36-8.017 8.55 0 5.192 3.05 8.476 8.016 8.45 4.05 0 6.921-2.306 7.776-6.083h1.69l.517-1.477h-1.983a12.456 12.456 0 00.03-1.477h1.855l.492-1.476v.005zm-6.98 2.954h-2.659l-.516 1.476h3.033c-.34 2.212-1.258 3.742-3.157 3.742-2.508 0-3.49-2.75-3.49-6.158 0-3.408.786-6.134 3.32-6.158 1.992 0 3.022 1.718 3.363 4.147h-2.158L22.426 8h2.77c.004.176.009.352.009.534 0 .321-.007.635-.021.942v-.002zM0 16.623h4.353v-5.776h7.402V7.105H4.353v-2.75h8.189V.411H0v16.212zM44.264 10.972c1.943-.865 3.22-2.52 3.22-4.988v-.05c0-1.579-.467-2.85-1.378-3.769-1.055-1.094-2.73-1.754-5.114-1.754h-7.425v16.212h4.352v-4.914h1.918l3.147 4.914H48l-3.739-5.65h.003zm-1.133-4.71c0 1.196-.859 1.933-2.335 1.933h-2.879V4.278h2.854c1.475 0 2.36.662 2.36 1.933v.05z" fill="#fff"/></svg>