<svg width="246" height="146" viewBox="0 0 246 146" fill="none" xmlns="http://www.w3.org/2000/svg"><path d="M.3 82.25h3.6V92h.81v-9.75h3.6v-.75H.3v.75zm11.498 2.145c-1.41 0-2.01.675-2.325 1.515l-.12-1.515h-.66V92h.765v-3.855c0-1.545.405-3.015 2.19-3.015h.555v-.735h-.405zm7.906 6.9c-.45 0-.675-.15-.675-.735v-3.54c0-1.74-1.065-2.715-2.97-2.715-1.74 0-2.895.84-3.09 2.22h.765c.195-.93 1.005-1.545 2.295-1.545 1.425 0 2.235.75 2.235 2.01v.66h-2.58c-1.95 0-3 .84-3 2.265 0 1.35 1.065 2.175 2.685 2.175 1.545 0 2.46-.705 2.925-1.65v.27c-.03.9.345 1.29 1.245 1.29h.45v-.705h-.285zm-1.44-2.37c0 1.455-1.035 2.505-2.835 2.505-1.215 0-1.965-.615-1.965-1.56 0-1.005.75-1.56 2.16-1.56h2.64v.615zm8.841-2.82c-.465-1.08-1.485-1.8-2.91-1.8-2.085 0-3.585 1.59-3.585 3.885 0 2.4 1.5 3.9 3.585 3.9 1.425 0 2.415-.765 2.895-1.83l.12 1.74h.66V81.5h-.765v4.605zm-2.85 5.295c-1.695 0-2.865-1.32-2.865-3.21 0-1.875 1.17-3.21 2.865-3.21 1.695 0 2.865 1.335 2.865 3.225 0 1.875-1.17 3.195-2.865 3.195zm8.774.69c1.665 0 2.94-1.08 3.27-2.61h-.78c-.3 1.185-1.304 1.92-2.55 1.92-1.695 0-2.76-1.29-2.79-3.06v-.135h6.21c0-.105.015-.225.015-.315-.075-2.265-1.47-3.585-3.51-3.585-2.084 0-3.51 1.59-3.51 3.84 0 2.385 1.485 3.945 3.645 3.945zm-2.79-4.53c.12-1.545 1.276-2.58 2.67-2.58 1.486 0 2.55.915 2.67 2.58h-5.34zm12.29 2.67c0 1.215.496 1.77 1.786 1.77h1.11v-.705h-1.05c-.795 0-1.08-.3-1.08-1.08V85.1h2.055v-.705h-2.055v-2.13h-.765v2.13h-1.44v.705h1.44v5.13zm7.185 1.86c1.665 0 2.94-1.08 3.27-2.61h-.78c-.3 1.185-1.305 1.92-2.55 1.92-1.695 0-2.76-1.29-2.79-3.06v-.135h6.21c0-.105.015-.225.015-.315-.075-2.265-1.47-3.585-3.51-3.585-2.085 0-3.51 1.59-3.51 3.84 0 2.385 1.485 3.945 3.645 3.945zm-2.79-4.53c.12-1.545 1.275-2.58 2.67-2.58 1.485 0 2.55.915 2.67 2.58h-5.34zm10.992 4.53c1.725 0 2.94-.99 3.24-2.535h-.81c-.255 1.125-1.17 1.845-2.43 1.845-1.665 0-2.82-1.305-2.82-3.195s1.14-3.225 2.82-3.225c1.275 0 2.175.72 2.445 1.86h.795c-.315-1.575-1.5-2.535-3.225-2.535-2.145 0-3.615 1.59-3.615 3.9 0 2.34 1.455 3.885 3.6 3.885zm8.237-7.785c-1.425 0-2.31.795-2.745 1.89V81.5h-.765V92h.765v-3.75c0-1.98 1.005-3.24 2.625-3.24 1.455 0 2.355.96 2.355 2.76V92h.765v-4.26c0-2.4-1.275-3.435-3-3.435zm12.11 7.785c1.666 0 2.94-1.08 3.27-2.61h-.78c-.3 1.185-1.304 1.92-2.55 1.92-1.694 0-2.76-1.29-2.79-3.06v-.135h6.21c0-.105.016-.225.016-.315-.075-2.265-1.47-3.585-3.51-3.585-2.085 0-3.51 1.59-3.51 3.84 0 2.385 1.485 3.945 3.645 3.945zm-2.79-4.53c.12-1.545 1.276-2.58 2.67-2.58 1.486 0 2.55.915 2.67 2.58h-5.34zm14.368 3.735c-.45 0-.675-.15-.675-.735v-3.54c0-1.74-1.065-2.715-2.97-2.715-1.74 0-2.895.84-3.09 2.22h.765c.195-.93 1.005-1.545 2.295-1.545 1.425 0 2.235.75 2.235 2.01v.66h-2.58c-1.95 0-3 .84-3 2.265 0 1.35 1.065 2.175 2.685 2.175 1.545 0 2.46-.705 2.925-1.65v.27c-.03.9.345 1.29 1.245 1.29h.45v-.705h-.285zm-1.44-2.37c0 1.455-1.035 2.505-2.835 2.505-1.215 0-1.965-.615-1.965-1.56 0-1.005.75-1.56 2.16-1.56h2.64v.615zm5.853-4.53c-1.41 0-2.01.675-2.325 1.515l-.12-1.515h-.66V92h.765v-3.855c0-1.545.405-3.015 2.19-3.015h.555v-.735h-.405zm5.049-.09c-1.395 0-2.295.72-2.73 1.71l-.12-1.62h-.66V92h.765v-3.75c0-1.98 1.005-3.24 2.625-3.24 1.47 0 2.355.96 2.355 2.76V92h.765v-4.26c0-2.4-1.275-3.435-3-3.435zm5.083-1.515c.3 0 .54-.225.54-.54 0-.315-.24-.54-.54-.54-.3 0-.54.225-.54.54 0 .315.24.54.54.54zm-.39 9.21h.765v-7.605h-.765V92zm6.073-7.695c-1.395 0-2.295.72-2.73 1.71l-.12-1.62h-.66V92h.765v-3.75c0-1.98 1.005-3.24 2.625-3.24 1.47 0 2.355.96 2.355 2.76V92h.765v-4.26c0-2.4-1.275-3.435-3-3.435zm10.888 1.86c-.465-1.125-1.485-1.86-2.895-1.86-2.085 0-3.585 1.575-3.585 3.885 0 2.4 1.5 3.9 3.585 3.9 1.425 0 2.43-.75 2.91-1.935v1.35c0 2.025-.96 2.895-2.79 2.895-1.425 0-2.415-.645-2.655-1.8h-.795c.24 1.62 1.545 2.49 3.39 2.49 2.46 0 3.615-1.17 3.615-3.555v-7.14h-.66l-.12 1.77zm-2.835 5.235c-1.695 0-2.865-1.32-2.865-3.21s1.17-3.21 2.865-3.21c1.695 0 2.865 1.32 2.865 3.225 0 1.875-1.17 3.195-2.865 3.195zm5.07-1.74c.06 1.575 1.335 2.43 3.24 2.43 1.635 0 2.955-.825 2.955-2.175 0-1.605-1.41-1.92-3.045-2.145-1.185-.165-2.235-.3-2.235-1.365 0-.87.855-1.44 2.145-1.44 1.215 0 2.085.585 2.22 1.575h.78c-.135-1.485-1.35-2.235-3-2.235-1.695-.015-2.91.855-2.91 2.16 0 1.53 1.41 1.815 2.97 2.025 1.275.18 2.31.345 2.31 1.47 0 .9-.945 1.47-2.19 1.47-1.455 0-2.4-.675-2.46-1.77h-.78zm18.387 1.635c-.45 0-.675-.15-.675-.735v-3.54c0-1.74-1.065-2.715-2.97-2.715-1.74 0-2.895.84-3.09 2.22h.765c.195-.93 1.005-1.545 2.295-1.545 1.425 0 2.235.75 2.235 2.01v.66h-2.58c-1.95 0-3 .84-3 2.265 0 1.35 1.065 2.175 2.685 2.175 1.545 0 2.46-.705 2.925-1.65v.27c-.03.9.345 1.29 1.245 1.29h.45v-.705h-.285zm-1.44-2.37c0 1.455-1.035 2.505-2.835 2.505-1.215 0-1.965-.615-1.965-1.56 0-1.005.75-1.56 2.16-1.56h2.64v.615zm2.403.735c.06 1.575 1.335 2.43 3.24 2.43 1.635 0 2.955-.825 2.955-2.175 0-1.605-1.41-1.92-3.045-2.145-1.185-.165-2.235-.3-2.235-1.365 0-.87.855-1.44 2.145-1.44 1.215 0 2.085.585 2.22 1.575h.78c-.135-1.485-1.35-2.235-3-2.235-1.695-.015-2.91.855-2.91 2.16 0 1.53 1.41 1.815 2.97 2.025 1.275.18 2.31.345 2.31 1.47 0 .9-.945 1.47-2.19 1.47-1.455 0-2.4-.675-2.46-1.77h-.78zm12.268.57c0 1.215.495 1.77 1.785 1.77h1.11v-.705h-1.05c-.795 0-1.08-.3-1.08-1.08V85.1h2.055v-.705h-2.055v-2.13h-.765v2.13h-1.44v.705h1.44v5.13zm7.569-5.925c-1.425 0-2.31.795-2.745 1.89V81.5h-.765V92h.765v-3.75c0-1.98 1.005-3.24 2.625-3.24 1.455 0 2.355.96 2.355 2.76V92h.765v-4.26c0-2.4-1.275-3.435-3-3.435zm7.95 7.785c1.665 0 2.94-1.08 3.27-2.61h-.78c-.3 1.185-1.305 1.92-2.55 1.92-1.695 0-2.76-1.29-2.79-3.06v-.135h6.21c0-.105.015-.225.015-.315-.075-2.265-1.47-3.585-3.51-3.585-2.085 0-3.51 1.59-3.51 3.84 0 2.385 1.485 3.945 3.645 3.945zm-2.79-4.53c.12-1.545 1.275-2.58 2.67-2.58 1.485 0 2.55.915 2.67 2.58h-5.34zm9.635 4.44l-.495 1.23c-.345.84-.48 1.065-1.26 1.065h-.96V95h1.17c1.02 0 1.26-.39 1.74-1.59l3.645-9.015h-.825l-2.595 6.615-2.64-6.615h-.825L177.174 92zm12.422-7.695c-1.425 0-2.31.795-2.745 1.89V81.5h-.765V92h.765v-3.75c0-1.98 1.005-3.24 2.625-3.24 1.455 0 2.355.96 2.355 2.76V92h.765v-4.26c0-2.4-1.275-3.435-3-3.435zm11.397 6.99c-.45 0-.675-.15-.675-.735v-3.54c0-1.74-1.065-2.715-2.97-2.715-1.74 0-2.895.84-3.09 2.22h.765c.195-.93 1.005-1.545 2.295-1.545 1.425 0 2.235.75 2.235 2.01v.66h-2.58c-1.95 0-3 .84-3 2.265 0 1.35 1.065 2.175 2.685 2.175 1.545 0 2.46-.705 2.925-1.65v.27c-.03.9.345 1.29 1.245 1.29h.45v-.705h-.285zm-1.44-2.37c0 1.455-1.035 2.505-2.835 2.505-1.215 0-1.965-.615-1.965-1.56 0-1.005.75-1.56 2.16-1.56h2.64v.615zm6.423-4.62c-1.425 0-2.415.765-2.895 1.83l-.12-1.74h-.66V95h.765v-4.755c.435 1.11 1.47 1.845 2.91 1.845 2.085 0 3.585-1.59 3.585-3.9 0-2.385-1.5-3.885-3.585-3.885zm-.06 7.095c-1.695 0-2.865-1.32-2.865-3.225 0-1.86 1.17-3.195 2.865-3.195 1.695 0 2.865 1.335 2.865 3.21 0 1.89-1.17 3.21-2.865 3.21zm8.835-7.095c-1.425 0-2.415.765-2.895 1.83l-.12-1.74h-.66V95h.765v-4.755c.435 1.11 1.47 1.845 2.91 1.845 2.085 0 3.585-1.59 3.585-3.9 0-2.385-1.5-3.885-3.585-3.885zm-.06 7.095c-1.695 0-2.865-1.32-2.865-3.225 0-1.86 1.17-3.195 2.865-3.195 1.695 0 2.865 1.335 2.865 3.21 0 1.89-1.17 3.21-2.865 3.21zm8.519.69c1.665 0 2.94-1.08 3.27-2.61h-.78c-.3 1.185-1.305 1.92-2.55 1.92-1.695 0-2.76-1.29-2.79-3.06v-.135h6.21c0-.105.015-.225.015-.315-.075-2.265-1.47-3.585-3.51-3.585-2.085 0-3.51 1.59-3.51 3.84 0 2.385 1.485 3.945 3.645 3.945zm-2.79-4.53c.12-1.545 1.275-2.58 2.67-2.58 1.485 0 2.55.915 2.67 2.58h-5.34zm11.187-3.255c-1.395 0-2.295.72-2.73 1.71l-.12-1.62h-.66V92h.765v-3.75c0-1.98 1.005-3.24 2.625-3.24 1.47 0 2.355.96 2.355 2.76V92h.765v-4.26c0-2.4-1.275-3.435-3-3.435zM2.745 109h.825l2.25-6.39L7.965 109h.825l2.7-7.605h-.78l-2.34 6.69-2.175-6.69H5.49l-2.295 6.69-2.22-6.69h-.81L2.745 109zm10.205-9.21c.3 0 .54-.225.54-.54 0-.315-.24-.54-.54-.54-.3 0-.54.225-.54.54 0 .315.24.54.54.54zm-.39 9.21h.765v-7.605h-.765V109zm3.134-1.77c0 1.215.495 1.77 1.785 1.77h1.11v-.705h-1.05c-.795 0-1.08-.3-1.08-1.08V102.1h2.055v-.705h-2.055v-2.13h-.765v2.13h-1.44v.705h1.44v5.13zm7.568-5.925c-1.425 0-2.31.795-2.745 1.89V98.5h-.764V109h.764v-3.75c0-1.98 1.006-3.24 2.625-3.24 1.456 0 2.355.96 2.355 2.76V109h.765v-4.26c0-2.4-1.274-3.435-3-3.435zm12.291 7.785c1.905 0 3.195-1.155 3.465-2.67h-1.62c-.225.855-.945 1.35-1.935 1.35-1.275 0-2.1-.855-2.145-2.16v-.105h5.79a4.4 4.4 0 00.045-.615c-.045-2.25-1.53-3.66-3.75-3.66-2.265 0-3.78 1.575-3.78 3.945 0 2.355 1.515 3.915 3.93 3.915zm-2.175-4.77c.12-1.095 1.005-1.785 2.04-1.785 1.125 0 1.92.645 2.055 1.785h-4.095zm5.938 4.68h1.785l2.025-2.79 2.01 2.79h1.89l-2.895-3.93 2.73-3.75h-1.785l-1.875 2.595-1.83-2.595h-1.89l2.715 3.75-2.88 3.93zm9.158-2.085c0 1.395.63 2.085 2.1 2.085h1.5v-1.425h-1.14c-.615 0-.825-.225-.825-.825v-4.005h1.875v-1.425h-1.875v-2.145h-1.635v2.145h-1.335v1.425h1.335v4.17zm8.114 2.175c1.905 0 3.195-1.155 3.465-2.67h-1.62c-.225.855-.945 1.35-1.935 1.35-1.275 0-2.1-.855-2.145-2.16v-.105h5.79a4.4 4.4 0 00.045-.615c-.045-2.25-1.53-3.66-3.75-3.66-2.265 0-3.78 1.575-3.78 3.945 0 2.355 1.515 3.915 3.93 3.915zm-2.175-4.77c.12-1.095 1.005-1.785 2.04-1.785 1.125 0 1.92.645 2.055 1.785h-4.095zm11.135-3.09c-1.245 0-1.98.495-2.46 1.095l-.18-1.005h-1.41V109h1.62v-3.87c0-1.56.765-2.505 2.055-2.505 1.215 0 1.83.78 1.83 2.235V109h1.635v-4.275c0-2.565-1.395-3.495-3.09-3.495zm10.34 1.155c-.495-.675-1.32-1.155-2.49-1.155-2.085 0-3.63 1.56-3.63 3.93 0 2.46 1.545 3.93 3.63 3.93 1.215 0 2.01-.57 2.505-1.245l.195 1.155h1.41V98.5h-1.62v3.885zm-2.22 5.34c-1.35 0-2.235-1.05-2.235-2.565 0-1.5.885-2.55 2.235-2.55 1.35 0 2.235 1.05 2.235 2.58 0 1.485-.885 2.535-2.235 2.535zm9.068 1.365c1.905 0 3.195-1.155 3.465-2.67h-1.62c-.225.855-.945 1.35-1.935 1.35-1.275 0-2.1-.855-2.145-2.16v-.105h5.79a4.4 4.4 0 00.045-.615c-.045-2.25-1.53-3.66-3.75-3.66-2.265 0-3.78 1.575-3.78 3.945 0 2.355 1.515 3.915 3.93 3.915zm-2.175-4.77c.12-1.095 1.005-1.785 2.04-1.785 1.125 0 1.92.645 2.055 1.785H80.56zm12.92-1.935c-.495-.675-1.32-1.155-2.49-1.155-2.085 0-3.63 1.56-3.63 3.93 0 2.46 1.545 3.93 3.63 3.93 1.215 0 2.01-.57 2.505-1.245L93.69 109h1.41V98.5h-1.62v3.885zm-2.22 5.34c-1.35 0-2.235-1.05-2.235-2.565 0-1.5.885-2.55 2.235-2.55 1.35 0 2.235 1.05 2.235 2.58 0 1.485-.885 2.535-2.235 2.535zm9.816-.81c0 1.395.63 2.085 2.1 2.085h1.5v-1.425h-1.14c-.615 0-.825-.225-.825-.825v-4.005h1.875v-1.425h-1.875v-2.145h-1.635v2.145h-1.335v1.425h1.335v4.17zm8.515-5.595c-1.26 0-1.875.51-2.265 1.155l-.18-1.155h-1.44V109h1.62v-3.855c0-1.185.465-2.31 1.905-2.31h.72v-1.515h-.36zm8.145 6.27c-.33 0-.495-.105-.495-.495v-3.075c0-1.815-1.17-2.79-3.21-2.79-1.935 0-3.225.93-3.39 2.43h1.59c.12-.675.765-1.125 1.725-1.125 1.065 0 1.68.525 1.68 1.38v.465h-1.935c-2.145 0-3.285.885-3.285 2.46 0 1.425 1.17 2.25 2.85 2.25 1.245 0 2.025-.54 2.535-1.32 0 .765.36 1.23 1.41 1.23h.855v-1.41h-.33zm-2.1-1.74c-.015 1.185-.795 1.98-2.145 1.98-.885 0-1.425-.45-1.425-1.095 0-.78.555-1.155 1.56-1.155h2.01v.27zm9.089-3.465c-.495-.675-1.32-1.155-2.49-1.155-2.085 0-3.63 1.56-3.63 3.93 0 2.46 1.545 3.93 3.63 3.93 1.215 0 2.01-.57 2.505-1.245l.195 1.155h1.41V98.5h-1.62v3.885zm-2.22 5.34c-1.35 0-2.235-1.05-2.235-2.565 0-1.5.885-2.55 2.235-2.55 1.35 0 2.235 1.05 2.235 2.58 0 1.485-.885 2.535-2.235 2.535zm6.248-7.485c.555 0 .99-.405.99-.975s-.435-.975-.99-.975c-.555 0-.99.405-.99.975s.435.975.99.975zm-.825 8.76h1.62v-7.68h-1.62V109zm7.258-7.77c-1.245 0-1.98.495-2.46 1.095l-.18-1.005h-1.41V109h1.62v-3.87c0-1.56.765-2.505 2.055-2.505 1.215 0 1.83.78 1.83 2.235V109h1.635v-4.275c0-2.565-1.395-3.495-3.09-3.495zm10.428 1.29c-.495-.765-1.32-1.29-2.52-1.29-2.085 0-3.63 1.545-3.63 3.9 0 2.445 1.545 3.9 3.63 3.9 1.2 0 1.995-.495 2.505-1.26v.855c0 1.47-.795 2.145-2.205 2.145-1.14 0-1.89-.495-2.085-1.35h-1.65c.15 1.725 1.575 2.67 3.615 2.67 2.76 0 3.93-1.32 3.93-3.405v-7.365h-1.41l-.18 1.2zm-2.25 5.145c-1.35 0-2.235-1.035-2.235-2.535 0-1.485.885-2.535 2.235-2.535 1.35 0 2.235 1.05 2.235 2.565 0 1.47-.885 2.505-2.235 2.505zm13.296-6.435c-1.2 0-1.935.54-2.415 1.2V98.5h-1.62V109h1.62v-3.885c0-1.545.78-2.49 2.055-2.49 1.2 0 1.845.78 1.845 2.235V109h1.62v-4.275c0-2.565-1.395-3.495-3.105-3.495zm8.15 7.86c2.34 0 3.915-1.575 3.915-3.93 0-2.34-1.575-3.93-3.915-3.93s-3.915 1.59-3.915 3.93c0 2.355 1.575 3.93 3.915 3.93zm0-1.38c-1.365 0-2.25-1.065-2.25-2.55 0-1.485.885-2.55 2.25-2.55s2.265 1.065 2.265 2.55c0 1.485-.9 2.55-2.265 2.55zm10.482-2.55c0 1.59-.75 2.52-1.98 2.52-1.185 0-1.785-.765-1.785-2.265v-4.095h-1.62v4.275c0 2.625 1.395 3.495 3.03 3.495 1.185 0 1.89-.48 2.37-1.065l.18.975h1.425v-7.68h-1.62v3.84zm7.102-3.84c-1.26 0-1.875.51-2.265 1.155l-.18-1.155h-1.44V109h1.62v-3.855c0-1.185.465-2.31 1.905-2.31h.72v-1.515h-.36zm.897 5.145c.045 1.665 1.455 2.625 3.51 2.625 1.86 0 3.255-.93 3.255-2.4 0-1.71-1.425-2.07-3.18-2.28-1.11-.12-1.845-.21-1.845-.93 0-.615.63-1.005 1.59-1.005.96 0 1.62.495 1.71 1.2h1.59c-.105-1.575-1.44-2.445-3.33-2.445-1.845-.015-3.15.93-3.15 2.385 0 1.59 1.38 1.965 3.135 2.175 1.185.15 1.89.21 1.89 1.035 0 .615-.66 1.005-1.665 1.005-1.17 0-1.86-.57-1.92-1.365h-1.59zM4.575 118.305c-1.425 0-2.43.78-2.91 1.86V115.5H.9V126h.66l.12-1.725c.45 1.095 1.47 1.815 2.895 1.815 2.085 0 3.585-1.59 3.585-3.9 0-2.385-1.5-3.885-3.585-3.885zm-.06 7.095c-1.695 0-2.865-1.32-2.865-3.225 0-1.86 1.17-3.195 2.865-3.195 1.695 0 2.865 1.335 2.865 3.21 0 1.89-1.17 3.21-2.865 3.21zm7.117.6l-.495 1.23c-.345.84-.48 1.065-1.26 1.065h-.96V129h1.17c1.02 0 1.26-.39 1.74-1.59l3.645-9.015h-.825l-2.595 6.615-2.64-6.615h-.825L11.632 126zm13.532.09c2.25 0 3.84-1.215 4.29-3.33h-.855c-.45 1.68-1.665 2.58-3.45 2.58-2.43 0-3.96-1.905-3.96-4.59 0-2.685 1.56-4.59 3.99-4.59 1.755 0 2.985.915 3.45 2.565h.855c-.465-2.1-2.055-3.315-4.26-3.315-2.955 0-4.875 2.19-4.875 5.34 0 3.18 1.875 5.34 4.815 5.34zm6.243-9.3c.3 0 .54-.225.54-.54 0-.315-.24-.54-.54-.54-.3 0-.54.225-.54.54 0 .315.24.54.54.54zm-.39 9.21h.765v-7.605h-.765V126zm3.134-1.77c0 1.215.495 1.77 1.785 1.77h1.11v-.705h-1.05c-.795 0-1.08-.3-1.08-1.08V119.1h2.055v-.705h-2.055v-2.13h-.765v2.13h-1.44v.705h1.44v5.13zM40.49 126l-.495 1.23c-.345.84-.48 1.065-1.26 1.065h-.96V129h1.17c1.02 0 1.26-.39 1.74-1.59l3.645-9.015h-.825l-2.595 6.615-2.64-6.615h-.825L40.49 126zm9.091 0h.81v-10.5h-.81V126zm6.304-7.695c-1.395 0-2.295.72-2.73 1.71l-.12-1.62h-.66V126h.765v-3.75c0-1.98 1.005-3.24 2.625-3.24 1.47 0 2.355.96 2.355 2.76V126h.765v-4.26c0-2.4-1.275-3.435-3-3.435zm10.786 1.8c-.466-1.08-1.486-1.8-2.91-1.8-2.086 0-3.586 1.59-3.586 3.885 0 2.4 1.5 3.9 3.586 3.9 1.425 0 2.414-.765 2.895-1.83l.12 1.74h.66v-10.5h-.766v4.605zm-2.85 5.295c-1.695 0-2.865-1.32-2.865-3.21 0-1.875 1.17-3.21 2.864-3.21 1.696 0 2.866 1.335 2.866 3.225 0 1.875-1.17 3.195-2.866 3.195zm8.774.69c1.665 0 2.94-1.08 3.27-2.61h-.78c-.3 1.185-1.305 1.92-2.55 1.92-1.695 0-2.76-1.29-2.79-3.06v-.135h6.21c0-.105.015-.225.015-.315-.075-2.265-1.47-3.585-3.51-3.585-2.085 0-3.51 1.59-3.51 3.84 0 2.385 1.485 3.945 3.645 3.945zm-2.79-4.53c.12-1.545 1.275-2.58 2.67-2.58 1.485 0 2.55.915 2.67 2.58h-5.34zm6.603 4.44h.885l2.52-3.345 2.52 3.345h.93l-2.955-3.885 2.805-3.72h-.87l-2.4 3.15-2.37-3.15h-.915l2.805 3.72L76.408 126zm7.722-.495c0 .345.24.57.57.57.33 0 .57-.225.57-.57s-.24-.555-.57-.555c-.33 0-.57.21-.57.555zM3.933 63.951h2.691L9.2 55.947l2.484 8.004h2.668l3.91-11.776h-2.53l-2.783 9.016-2.576-9.016H8.096l-2.691 9.016-2.691-9.016H.092l3.841 11.776zm21.824-11.914c-1.84 0-2.967.828-3.703 1.84v-6.026H19.57v16.1h2.484v-5.957c0-2.369 1.196-3.818 3.15-3.818 1.84 0 2.83 1.196 2.83 3.427v6.348h2.484v-6.555c0-3.933-2.14-5.359-4.761-5.359zM38.276 64.09c2.92 0 4.899-1.77 5.313-4.094h-2.484c-.345 1.311-1.45 2.07-2.967 2.07-1.955 0-3.22-1.31-3.29-3.312v-.16h8.879c.046-.323.069-.645.069-.944-.07-3.45-2.346-5.612-5.75-5.612-3.473 0-5.796 2.415-5.796 6.05 0 3.61 2.323 6.002 6.026 6.002zm-3.335-7.314c.184-1.679 1.54-2.737 3.128-2.737 1.725 0 2.944.99 3.15 2.737h-6.278zm17.073-4.738c-1.909 0-3.036.76-3.772 1.68l-.276-1.542h-2.162v11.776h2.484v-5.934c0-2.392 1.173-3.84 3.151-3.84 1.863 0 2.806 1.195 2.806 3.426v6.348h2.507v-6.555c0-3.933-2.139-5.359-4.738-5.359zM70.462 64.09c3.588 0 6.003-2.415 6.003-6.026 0-3.588-2.415-6.026-6.003-6.026s-6.003 2.438-6.003 6.026c0 3.611 2.415 6.026 6.003 6.026zm0-2.116c-2.093 0-3.45-1.633-3.45-3.91s1.357-3.91 3.45-3.91 3.473 1.633 3.473 3.91-1.38 3.91-3.473 3.91zm8.761-1.219c0 2.14.966 3.197 3.22 3.197h2.3v-2.185h-1.748c-.943 0-1.265-.345-1.265-1.265v-6.14h2.875v-2.186H81.73v-3.289h-2.507v3.29h-2.047v2.184h2.047v6.394zm13.287-8.717c-1.84 0-2.967.828-3.703 1.84v-6.026h-2.484v16.1h2.485v-5.957c0-2.369 1.195-3.818 3.15-3.818 1.84 0 2.83 1.196 2.83 3.427v6.348h2.484v-6.555c0-3.933-2.14-5.359-4.762-5.359zm12.52 12.052c2.921 0 4.899-1.77 5.313-4.094h-2.484c-.345 1.311-1.449 2.07-2.967 2.07-1.955 0-3.22-1.31-3.289-3.312v-.16h8.878c.046-.323.069-.645.069-.944-.069-3.45-2.346-5.612-5.75-5.612-3.473 0-5.796 2.415-5.796 6.05 0 3.61 2.323 6.002 6.026 6.002zm-3.335-7.314c.184-1.679 1.541-2.737 3.128-2.737 1.725 0 2.944.99 3.151 2.737h-6.279zm16.82-4.6c-1.932 0-2.875.782-3.473 1.771l-.276-1.77h-2.208V63.95h2.484v-5.91c0-1.818.713-3.543 2.921-3.543h1.104v-2.323h-.552zm1.376 7.89c.069 2.552 2.231 4.024 5.382 4.024 2.852 0 4.991-1.426 4.991-3.68 0-2.622-2.185-3.174-4.876-3.496-1.702-.184-2.829-.322-2.829-1.426 0-.943.966-1.54 2.438-1.54 1.472 0 2.484.758 2.622 1.84h2.438c-.161-2.416-2.208-3.75-5.106-3.75-2.829-.023-4.83 1.426-4.83 3.657 0 2.438 2.116 3.013 4.807 3.335 1.817.23 2.898.322 2.898 1.587 0 .943-1.012 1.541-2.553 1.541-1.794 0-2.852-.874-2.944-2.093h-2.438zm23.587 4.024c3.013 0 5.014-1.679 5.474-4.347h-2.622c-.299 1.357-1.311 2.231-2.829 2.231-2.001 0-3.312-1.587-3.312-3.887 0-2.323 1.311-3.933 3.312-3.933 1.541 0 2.53.851 2.852 2.231h2.599c-.483-2.668-2.369-4.347-5.405-4.347-3.565 0-5.911 2.415-5.911 6.05 0 3.68 2.277 6.002 5.842 6.002zm18.14-2.3c-.506 0-.759-.16-.759-.759v-4.715c0-2.783-1.794-4.278-4.922-4.278-2.967 0-4.945 1.426-5.198 3.726h2.438c.184-1.035 1.173-1.725 2.645-1.725 1.633 0 2.576.805 2.576 2.116v.713h-2.967c-3.289 0-5.037 1.357-5.037 3.772 0 2.185 1.794 3.45 4.37 3.45 1.909 0 3.105-.828 3.887-2.024 0 1.173.552 1.886 2.162 1.886h1.311V61.79h-.506zm-3.22-2.668c-.023 1.817-1.219 3.036-3.289 3.036-1.357 0-2.185-.69-2.185-1.679 0-1.196.851-1.77 2.392-1.77h3.082v.413zm11.289-7.084c-1.909 0-3.036.76-3.772 1.68l-.276-1.542h-2.162v11.776h2.484v-5.934c0-2.392 1.173-3.84 3.151-3.84 1.863 0 2.806 1.195 2.806 3.426v6.348h2.507v-6.555c0-3.933-2.139-5.359-4.738-5.359zm7.585-4.324c-1.058 0-1.748.69-1.748 1.564 0 .966.598 1.472 1.357 1.472.276 0 .552-.092.759-.253.023.115.023.207.023.322 0 .805-.575 1.702-2.024 1.702v1.357c2.277-.023 3.703-1.288 3.703-3.519 0-1.495-.805-2.645-2.07-2.645zm5.294 13.041c0 2.14.966 3.197 3.22 3.197h2.3v-2.185h-1.748c-.943 0-1.265-.345-1.265-1.265v-6.14h2.875v-2.186h-2.875v-3.289h-2.507v3.29h-2.047v2.184h2.047v6.394zm7.005 1.771c0 .92.667 1.564 1.587 1.564.92 0 1.61-.644 1.61-1.564s-.69-1.564-1.61-1.564c-.92 0-1.587.644-1.587 1.564z" fill="#000"/><path d="M.72 9.472h7.776V31h4.14V9.472h7.776V5.8H.72v3.672zm36.423 18.144c-.792 0-1.188-.252-1.188-1.188v-7.38c0-4.356-2.808-6.696-7.704-6.696-4.644 0-7.74 2.232-8.136 5.832h3.816c.288-1.62 1.836-2.7 4.14-2.7 2.556 0 4.032 1.26 4.032 3.312v1.116h-4.644c-5.148 0-7.884 2.124-7.884 5.904 0 3.42 2.808 5.4 6.84 5.4 2.988 0 4.86-1.296 6.084-3.168 0 1.836.864 2.952 3.384 2.952h2.052v-3.384h-.792zm-5.04-4.176c-.036 2.844-1.908 4.752-5.148 4.752-2.124 0-3.42-1.08-3.42-2.628 0-1.872 1.332-2.772 3.744-2.772h4.824v.648zm7.95 7.56h3.888v-4.68l3.311-3.456L52.688 31h4.608l-7.38-10.98 6.949-7.452h-4.573l-8.352 8.928V5.8h-3.887V31zm26.712.216c4.572 0 7.668-2.772 8.316-6.408h-3.888c-.54 2.052-2.268 3.24-4.644 3.24-3.06 0-5.04-2.052-5.148-5.184v-.252h13.896c.072-.504.108-1.008.108-1.476-.108-5.4-3.672-8.784-9-8.784-5.436 0-9.072 3.78-9.072 9.468 0 5.652 3.636 9.396 9.432 9.396zm-5.22-11.448c.288-2.628 2.412-4.284 4.896-4.284 2.7 0 4.608 1.548 4.932 4.284h-9.828zm43.063 7.848c-.792 0-1.188-.252-1.188-1.188v-7.38c0-4.356-2.808-6.696-7.704-6.696-4.644 0-7.74 2.232-8.136 5.832h3.816c.288-1.62 1.836-2.7 4.14-2.7 2.556 0 4.032 1.26 4.032 3.312v1.116h-4.644c-5.148 0-7.884 2.124-7.884 5.904 0 3.42 2.808 5.4 6.84 5.4 2.988 0 4.86-1.296 6.084-3.168 0 1.836.864 2.952 3.384 2.952h2.052v-3.384h-.792zm-5.04-4.176c-.036 2.844-1.908 4.752-5.148 4.752-2.124 0-3.42-1.08-3.42-2.628 0-1.872 1.332-2.772 3.744-2.772h4.824v.648zm27.024-11.088c-2.88 0-4.788 1.332-6.012 2.952l-.468-2.736h-3.384V38.2h3.888v-9.792c1.152 1.656 3.132 2.808 5.976 2.808 5.04 0 8.712-3.744 8.712-9.432 0-5.904-3.672-9.432-8.712-9.432zm-.648 15.588c-3.24 0-5.364-2.556-5.364-6.228 0-3.564 2.124-6.048 5.364-6.048 3.24 0 5.4 2.484 5.4 6.12 0 3.6-2.16 6.156-5.4 6.156zm21.188 3.276c5.616 0 9.396-3.78 9.396-9.432 0-5.616-3.78-9.432-9.396-9.432-5.616 0-9.396 3.816-9.396 9.432 0 5.652 3.78 9.432 9.396 9.432zm0-3.312c-3.276 0-5.4-2.556-5.4-6.12s2.124-6.12 5.4-6.12c3.276 0 5.436 2.556 5.436 6.12s-2.16 6.12-5.436 6.12zm11.625-2.988c.108 3.996 3.492 6.3 8.424 6.3 4.464 0 7.812-2.232 7.812-5.76 0-4.104-3.42-4.968-7.632-5.472-2.664-.288-4.428-.504-4.428-2.232 0-1.476 1.512-2.412 3.816-2.412s3.888 1.188 4.104 2.88h3.816c-.252-3.78-3.456-5.868-7.992-5.868-4.428-.036-7.56 2.232-7.56 5.724 0 3.816 3.312 4.716 7.524 5.22 2.844.36 4.536.504 4.536 2.484 0 1.476-1.584 2.412-3.996 2.412-2.808 0-4.464-1.368-4.608-3.276h-3.816zm21.229-14.94c1.332 0 2.376-.972 2.376-2.34 0-1.368-1.044-2.34-2.376-2.34-1.332 0-2.376.972-2.376 2.34 0 1.368 1.044 2.34 2.376 2.34zM178.006 31h3.888V12.568h-3.888V31zm9.031-5.004c0 3.348 1.512 5.004 5.04 5.004h3.6v-3.42h-2.736c-1.476 0-1.98-.54-1.98-1.98v-9.612h4.5v-3.42h-4.5V7.42h-3.924v5.148h-3.204v3.42h3.204v10.008zm13.093-16.02c1.332 0 2.376-.972 2.376-2.34 0-1.368-1.044-2.34-2.376-2.34-1.332 0-2.376.972-2.376 2.34 0 1.368 1.044 2.34 2.376 2.34zM198.15 31h3.888V12.568h-3.888V31zm16.411.216c5.616 0 9.396-3.78 9.396-9.432 0-5.616-3.78-9.432-9.396-9.432-5.616 0-9.396 3.816-9.396 9.432 0 5.652 3.78 9.432 9.396 9.432zm0-3.312c-3.276 0-5.4-2.556-5.4-6.12s2.124-6.12 5.4-6.12c3.276 0 5.436 2.556 5.436 6.12s-2.16 6.12-5.436 6.12zm22.243-15.552c-2.988 0-4.752 1.188-5.904 2.628l-.432-2.412h-3.384V31h3.888v-9.288c0-3.744 1.836-6.012 4.932-6.012 2.916 0 4.392 1.872 4.392 5.364V31h3.924V20.74c0-6.156-3.348-8.388-7.416-8.388z" fill="url(#paint0_linear_42_775)"/><defs><linearGradient id="paint0_linear_42_775" x1="246" y1="18" x2="0" y2="18" gradientUnits="userSpaceOnUse"><stop stop-color="#FF4343"/><stop offset=".5" stop-color="#9C0B93"/><stop offset="1" stop-color="#4C1BB7"/></linearGradient></defs></svg>