<svg width="159" height="79" viewBox="0 0 159 79" fill="none" xmlns="http://www.w3.org/2000/svg"><path d="M1.536 20h11.256v-2.448H4.296V12.68h6.768v-2.376H4.296V5.648h8.208V3.2H1.536V20zm24.14-2.256c-.528 0-.792-.168-.792-.792v-4.92c0-2.904-1.872-4.464-5.136-4.464-3.096 0-5.16 1.488-5.424 3.888h2.544c.192-1.08 1.224-1.8 2.76-1.8 1.704 0 2.688.84 2.688 2.208v.744H19.22c-3.432 0-5.256 1.416-5.256 3.936 0 2.28 1.872 3.6 4.56 3.6 1.992 0 3.24-.864 4.056-2.112 0 1.224.576 1.968 2.256 1.968h1.368v-2.256h-.528zm-3.36-2.784c-.024 1.896-1.272 3.168-3.432 3.168-1.416 0-2.28-.72-2.28-1.752 0-1.248.888-1.848 2.496-1.848h3.216v.432zm11.516-7.248c-2.016 0-3 .816-3.624 1.848l-.288-1.848h-2.304V20h2.592v-6.168c0-1.896.744-3.696 3.048-3.696h1.152V7.712h-.576zm8.654-.144c-1.992 0-3.168.792-3.936 1.752l-.288-1.608h-2.256V20h2.592v-6.192c0-2.496 1.224-4.008 3.288-4.008 1.944 0 2.928 1.248 2.928 3.576V20h2.616v-6.84c0-4.104-2.232-5.592-4.944-5.592zm20.57 2.76c-2.64-.456-4.368-.816-4.368-2.544 0-1.584 1.32-2.4 3.216-2.4 2.04 0 3.384 1.152 3.6 2.856h2.76c-.096-2.712-1.944-4.632-4.968-5.088V.608h-2.328v2.496c-3.048.312-5.04 2.208-5.04 4.872 0 3.336 2.64 4.224 5.424 4.704 2.664.48 4.416.864 4.416 2.64 0 1.608-1.44 2.496-3.432 2.496-2.352 0-3.888-1.32-4.032-3.288l-2.784-.048c.096 2.976 2.088 5.136 5.448 5.568v2.52h2.328v-2.472c3.144-.336 5.232-2.328 5.232-5.064.024-3.312-2.688-4.2-5.472-4.704zM69.95 20h11.904v-2.328h-8.136l4.464-3.72c2.04-1.704 3.552-3.264 3.552-5.76 0-3.072-2.112-5.136-5.88-5.136-3.576 0-5.88 2.328-5.88 5.52v.432h2.664V8.72c0-2.088 1.296-3.384 3.216-3.384 1.92 0 3.192 1.056 3.192 2.976 0 1.608-1.128 2.784-2.64 4.056l-6.456 5.496V20zm13.533-8.016c0 5.064 2.712 8.16 6.624 8.16 3.912 0 6.624-3.096 6.624-8.16v-.768c0-4.872-2.712-8.16-6.624-8.16-3.912 0-6.624 3.288-6.624 8.16v.768zm10.56-.096c0 3.768-1.584 5.928-3.936 5.928s-3.936-2.16-3.936-5.928v-.576c0-3.744 1.584-5.928 3.936-5.928s3.936 2.184 3.936 5.928v.576zm4.557.096c0 5.064 2.712 8.16 6.624 8.16 3.912 0 6.624-3.096 6.624-8.16v-.768c0-4.872-2.712-8.16-6.624-8.16-3.912 0-6.624 3.288-6.624 8.16v.768zm10.56-.096c0 3.768-1.584 5.928-3.936 5.928s-3.936-2.16-3.936-5.928v-.576c0-3.744 1.584-5.928 3.936-5.928s3.936 2.184 3.936 5.928v.576zM4.104 49h2.808L9.6 40.648 12.192 49h2.784l4.08-12.288h-2.64l-2.904 9.408-2.688-9.408H8.448L5.64 46.12l-2.808-9.408H.096L4.104 49zM21.74 34.984c.888 0 1.584-.648 1.584-1.56s-.696-1.56-1.584-1.56c-.888 0-1.584.648-1.584 1.56s.696 1.56 1.584 1.56zM20.42 49h2.592V36.712H20.42V49zm6.021-3.336c0 2.232 1.008 3.336 3.36 3.336h2.4v-2.28h-1.824c-.984 0-1.32-.36-1.32-1.32v-6.408h3v-2.28h-3V33.28h-2.616v3.432h-2.136v2.28h2.136v6.672zm13.865-9.096c-1.92 0-3.096.864-3.864 1.92V32.2H33.85V49h2.592v-6.216c0-2.472 1.248-3.984 3.288-3.984 1.92 0 2.952 1.248 2.952 3.576V49h2.592v-6.84c0-4.104-2.232-5.592-4.968-5.592zm24.698 10.176c-.528 0-.792-.168-.792-.792v-4.92c0-2.904-1.872-4.464-5.136-4.464-3.096 0-5.16 1.488-5.424 3.888h2.544c.192-1.08 1.224-1.8 2.76-1.8 1.704 0 2.688.84 2.688 2.208v.744h-3.096c-3.432 0-5.256 1.416-5.256 3.936 0 2.28 1.872 3.6 4.56 3.6 1.992 0 3.24-.864 4.056-2.112 0 1.224.576 1.968 2.256 1.968h1.368v-2.256h-.528zm-3.36-2.784c-.024 1.896-1.272 3.168-3.432 3.168-1.416 0-2.28-.72-2.28-1.752 0-1.248.888-1.848 2.496-1.848h3.216v.432zM1.272 78h2.592v-3.12l2.208-2.304L9.696 78h3.072l-4.92-7.32 4.632-4.968H9.432l-5.568 5.952V61.2H1.272V78zm19.23-12.432c-1.992 0-3.168.792-3.936 1.752l-.288-1.608h-2.256V78h2.592v-6.192c0-2.496 1.224-4.008 3.288-4.008 1.944 0 2.928 1.248 2.928 3.576V78h2.616v-6.84c0-4.104-2.232-5.592-4.944-5.592zm13.015 12.576c3.744 0 6.264-2.52 6.264-6.288 0-3.744-2.52-6.288-6.264-6.288s-6.264 2.544-6.264 6.288c0 3.768 2.52 6.288 6.264 6.288zm0-2.208c-2.184 0-3.6-1.704-3.6-4.08 0-2.376 1.416-4.08 3.6-4.08s3.624 1.704 3.624 4.08c0 2.376-1.44 4.08-3.623 4.08zm13.989 2.208c3.144 0 5.232-1.752 5.712-4.536h-2.736c-.312 1.416-1.368 2.328-2.952 2.328-2.088 0-3.456-1.656-3.456-4.056 0-2.424 1.368-4.104 3.456-4.104 1.608 0 2.64.888 2.976 2.328h2.712c-.504-2.784-2.472-4.536-5.64-4.536-3.72 0-6.168 2.52-6.168 6.312 0 3.84 2.376 6.264 6.096 6.264zM55.202 78h2.592v-3.12l2.208-2.304L63.626 78h3.072l-4.92-7.32 4.632-4.968h-3.048l-5.568 5.952V61.2h-2.592V78zm17.784.144c3.744 0 6.264-2.52 6.264-6.288 0-3.744-2.52-6.288-6.264-6.288s-6.264 2.544-6.264 6.288c0 3.768 2.52 6.288 6.264 6.288zm0-2.208c-2.184 0-3.6-1.704-3.6-4.08 0-2.376 1.416-4.08 3.6-4.08s3.624 1.704 3.624 4.08c0 2.376-1.44 4.08-3.624 4.08zm16.772-4.08c0 2.544-1.2 4.032-3.167 4.032-1.896 0-2.856-1.224-2.856-3.624v-6.552h-2.593v6.84c0 4.2 2.233 5.592 4.849 5.592 1.895 0 3.023-.768 3.791-1.704L90.07 78h2.28V65.712H89.76v6.144zm6.105 2.808c0 2.232 1.008 3.336 3.36 3.336h2.4v-2.28h-1.824c-.984 0-1.32-.36-1.32-1.32v-6.408h3v-2.28h-3V62.28h-2.616v3.432h-2.136v2.28h2.136v6.672zm19.358 3.48c3.744 0 6.264-2.52 6.264-6.288 0-3.744-2.52-6.288-6.264-6.288s-6.264 2.544-6.264 6.288c0 3.768 2.52 6.288 6.264 6.288zm0-2.208c-2.184 0-3.6-1.704-3.6-4.08 0-2.376 1.416-4.08 3.6-4.08s3.624 1.704 3.624 4.08c0 2.376-1.44 4.08-3.624 4.08zm22.174-12.456V61.2h-2.472c-2.376 0-3.432 1.128-3.432 3.288v1.224h-4.512V64.68c0-.84.336-1.2 1.176-1.2h1.824V61.2h-2.184c-2.376 0-3.432 1.128-3.432 3.288v1.224h-2.136v2.28h2.136V78h2.616V67.992h4.512V78h2.592V67.992h3.312v-2.28h-3.312V64.68c0-.84.36-1.2 1.2-1.2h2.112zm6.678 14.664c3.048 0 5.112-1.848 5.544-4.272h-2.592c-.36 1.368-1.512 2.16-3.096 2.16-2.04 0-3.36-1.368-3.432-3.456v-.168h9.264c.048-.336.072-.672.072-.984-.072-3.6-2.448-5.856-6-5.856-3.624 0-6.048 2.52-6.048 6.312 0 3.768 2.424 6.264 6.288 6.264zm-3.48-7.632c.192-1.752 1.608-2.856 3.264-2.856 1.8 0 3.072 1.032 3.288 2.856h-6.552zm17.551-4.8c-2.016 0-3 .816-3.624 1.848l-.288-1.848h-2.304V78h2.592v-6.168c0-1.896.744-3.696 3.048-3.696h1.152v-2.424h-.576z" fill="#000"/></svg>