<svg width="156" height="29" viewBox="0 0 156 29" fill="none" xmlns="http://www.w3.org/2000/svg"><path d="M3.588 10c2.886 0 4.576-1.794 4.576-4.55C8.164 2.681 6.474.9 3.588.9H.936V10h2.652zm-1.95-8.45h1.95c2.483 0 3.861 1.508 3.861 3.9 0 2.379-1.378 3.9-3.861 3.9h-1.95v-7.8zm8.265.468c.26 0 .468-.195.468-.468a.458.458 0 00-.468-.468.458.458 0 00-.468.468c0 .273.208.468.468.468zM9.565 10h.663V3.409h-.663V10zm1.923-2.028c.052 1.365 1.157 2.106 2.808 2.106 1.417 0 2.56-.715 2.56-1.885 0-1.391-1.221-1.664-2.638-1.859-1.027-.143-1.937-.26-1.937-1.183 0-.754.74-1.248 1.859-1.248 1.053 0 1.807.507 1.924 1.365h.676c-.117-1.287-1.17-1.937-2.6-1.937-1.47-.013-2.522.741-2.522 1.872 0 1.326 1.222 1.573 2.574 1.755 1.105.156 2.002.299 2.002 1.274 0 .78-.82 1.274-1.898 1.274-1.261 0-2.08-.585-2.132-1.534h-.676zm9.507 2.106c1.495 0 2.548-.858 2.808-2.197H23.1c-.221.975-1.014 1.599-2.106 1.599-1.443 0-2.444-1.131-2.444-2.769 0-1.638.988-2.795 2.444-2.795 1.105 0 1.885.624 2.119 1.612h.689c-.273-1.365-1.3-2.197-2.795-2.197-1.86 0-3.133 1.378-3.133 3.38 0 2.028 1.26 3.367 3.12 3.367zm7.008 0c1.86 0 3.172-1.378 3.172-3.38 0-1.989-1.313-3.367-3.172-3.367-1.858 0-3.159 1.378-3.159 3.367 0 2.002 1.3 3.38 3.16 3.38zm0-.598c-1.468 0-2.483-1.144-2.483-2.782 0-1.625 1.015-2.782 2.483-2.782 1.47 0 2.483 1.157 2.483 2.782 0 1.638-1.014 2.782-2.483 2.782zm6.122.52h.793l2.574-6.591h-.69l-2.261 5.824-2.275-5.824h-.715L34.125 10zm6.904.078c1.443 0 2.548-.936 2.834-2.262h-.676c-.26 1.027-1.131 1.664-2.21 1.664-1.47 0-2.392-1.118-2.418-2.652v-.117h5.382c0-.091.013-.195.013-.273-.065-1.963-1.274-3.107-3.042-3.107-1.807 0-3.042 1.378-3.042 3.328 0 2.067 1.287 3.419 3.159 3.419zM38.61 6.152c.104-1.339 1.105-2.236 2.314-2.236 1.287 0 2.21.793 2.314 2.236H38.61zm9.344-2.743c-1.222 0-1.742.585-2.015 1.313l-.104-1.313h-.572V10h.663V6.659c0-1.339.351-2.613 1.898-2.613h.481v-.637h-.35zm5.332 5.057c0 1.053.429 1.534 1.547 1.534h.962v-.611h-.91c-.69 0-.936-.26-.936-.936V4.02h1.78v-.611h-1.78V1.563h-.663v1.846h-1.248v.611h1.248v4.446zm6.56-5.135c-1.236 0-2.003.689-2.38 1.638V.9h-.663V10h.663V6.75c0-1.716.871-2.808 2.275-2.808 1.261 0 2.041.832 2.041 2.392V10h.663V6.308c0-2.08-1.105-2.977-2.6-2.977zm6.89 6.747c1.443 0 2.548-.936 2.834-2.262h-.676c-.26 1.027-1.131 1.664-2.21 1.664-1.47 0-2.392-1.118-2.418-2.652v-.117h5.382c0-.091.013-.195.013-.273-.065-1.963-1.274-3.107-3.042-3.107-1.807 0-3.042 1.378-3.042 3.328 0 2.067 1.287 3.419 3.159 3.419zm-2.418-3.926c.104-1.339 1.105-2.236 2.314-2.236 1.287 0 2.21.793 2.314 2.236h-4.628zm10.495-4.134c.26 0 .468-.195.468-.468a.458.458 0 00-.468-.468.458.458 0 00-.468.468c0 .273.208.468.468.468zM74.476 10h.663V3.409h-.663V10zm5.264-6.669c-1.209 0-1.989.624-2.366 1.482l-.104-1.404h-.572V10h.663V6.75c0-1.716.871-2.808 2.275-2.808 1.274 0 2.041.832 2.041 2.392V10h.663V6.308c0-2.08-1.105-2.977-2.6-2.977zm7.11 0c-1.21 0-1.99.624-2.367 1.482l-.104-1.404h-.572V10h.663V6.75c0-1.716.871-2.808 2.275-2.808 1.274 0 2.041.832 2.041 2.392V10h.663V6.308c0-2.08-1.105-2.977-2.6-2.977zm6.877 6.747c1.86 0 3.172-1.378 3.172-3.38 0-1.989-1.313-3.367-3.172-3.367-1.859 0-3.159 1.378-3.159 3.367 0 2.002 1.3 3.38 3.16 3.38zm0-.598c-1.469 0-2.483-1.144-2.483-2.782 0-1.625 1.014-2.782 2.483-2.782 1.47 0 2.483 1.157 2.483 2.782 0 1.638-1.014 2.782-2.483 2.782zm6.121.52h.793l2.574-6.591h-.689l-2.262 5.824-2.275-5.824h-.715L99.848 10zm9.816-.611c-.39 0-.585-.13-.585-.637V5.684c0-1.508-.923-2.353-2.574-2.353-1.508 0-2.509.728-2.678 1.924h.663c.169-.806.871-1.339 1.989-1.339 1.235 0 1.937.65 1.937 1.742v.572h-2.236c-1.69 0-2.6.728-2.6 1.963 0 1.17.923 1.885 2.327 1.885 1.339 0 2.132-.611 2.535-1.43v.234c-.026.78.299 1.118 1.079 1.118h.39v-.611h-.247zm-1.248-2.054c0 1.261-.897 2.171-2.457 2.171-1.053 0-1.703-.533-1.703-1.352 0-.871.65-1.352 1.872-1.352h2.288v.533zm2.876 1.131c0 1.053.429 1.534 1.547 1.534h.962v-.611h-.91c-.689 0-.936-.26-.936-.936V4.02h1.781v-.611h-1.781V1.563h-.663v1.846h-1.248v.611h1.248v4.446zm3.855-6.448c.26 0 .468-.195.468-.468a.458.458 0 00-.468-.468.458.458 0 00-.468.468c0 .273.208.468.468.468zM114.809 10h.663V3.409h-.663V10zm4.133 0h.793l2.574-6.591h-.689l-2.262 5.824-2.275-5.824h-.715L118.942 10zm6.904.078c1.443 0 2.548-.936 2.834-2.262h-.676c-.26 1.027-1.131 1.664-2.21 1.664-1.469 0-2.392-1.118-2.418-2.652v-.117h5.382c0-.091.013-.195.013-.273-.065-1.963-1.274-3.107-3.042-3.107-1.807 0-3.042 1.378-3.042 3.328 0 2.067 1.287 3.419 3.159 3.419zm-2.418-3.926c.104-1.339 1.105-2.236 2.314-2.236 1.287 0 2.21.793 2.314 2.236h-4.628zM135.185 10h.715l1.95-5.538L139.709 10h.715l2.34-6.591h-.676l-2.028 5.798-1.885-5.798h-.611l-1.989 5.798-1.924-5.798h-.702L135.185 10zm14.088-.611c-.39 0-.585-.13-.585-.637V5.684c0-1.508-.923-2.353-2.574-2.353-1.508 0-2.509.728-2.678 1.924h.663c.169-.806.871-1.339 1.989-1.339 1.235 0 1.937.65 1.937 1.742v.572h-2.236c-1.69 0-2.6.728-2.6 1.963 0 1.17.923 1.885 2.327 1.885 1.339 0 2.132-.611 2.535-1.43v.234c-.026.78.299 1.118 1.079 1.118h.39v-.611h-.247zm-1.248-2.054c0 1.261-.897 2.171-2.457 2.171-1.053 0-1.703-.533-1.703-1.352 0-.871.65-1.352 1.872-1.352h2.288v.533zM152.167 10l-.429 1.066c-.299.728-.416.923-1.092.923h-.832v.611h1.014c.884 0 1.092-.338 1.508-1.378l3.159-7.813h-.715l-2.249 5.733-2.288-5.733h-.715L152.167 10zM1.274 26.466c0 1.053.429 1.534 1.547 1.534h.962v-.611h-.91c-.689 0-.936-.26-.936-.936V22.02h1.781v-.611H1.937v-1.846h-.663v1.846H.026v.611h1.248v4.446zm6.227 1.612c1.859 0 3.172-1.378 3.172-3.38 0-1.989-1.313-3.367-3.172-3.367-1.86 0-3.16 1.378-3.16 3.367 0 2.002 1.3 3.38 3.16 3.38zm0-.598c-1.47 0-2.483-1.144-2.483-2.782 0-1.625 1.014-2.782 2.483-2.782s2.483 1.157 2.483 2.782c0 1.638-1.014 2.782-2.483 2.782zm8.487-1.014c0 1.053.429 1.534 1.547 1.534h.962v-.611h-.91c-.69 0-.936-.26-.936-.936V22.02h1.78v-.611h-1.78v-1.846h-.663v1.846H14.74v.611h1.248v4.446zm6.209-5.057c-1.222 0-1.742.585-2.015 1.313l-.104-1.313h-.572V28h.663v-3.341c0-1.339.35-2.613 1.898-2.613h.48v-.637h-.35zm6.852 5.98c-.39 0-.585-.13-.585-.637v-3.068c0-1.508-.923-2.353-2.574-2.353-1.508 0-2.51.728-2.678 1.924h.663c.169-.806.87-1.339 1.989-1.339 1.235 0 1.937.65 1.937 1.742v.572h-2.236c-1.69 0-2.6.728-2.6 1.963 0 1.17.923 1.885 2.327 1.885 1.339 0 2.132-.611 2.535-1.43v.234c-.026.78.299 1.118 1.079 1.118h.39v-.611h-.247zM27.8 25.335c0 1.261-.897 2.171-2.457 2.171-1.053 0-1.703-.533-1.703-1.352 0-.871.65-1.352 1.872-1.352H27.8v.533zm7.662-2.444c-.403-.936-1.287-1.56-2.522-1.56-1.807 0-3.107 1.378-3.107 3.367 0 2.08 1.3 3.38 3.107 3.38 1.235 0 2.093-.663 2.509-1.586L35.554 28h.572v-9.1h-.663v3.991zm-2.47 4.589c-1.47 0-2.483-1.144-2.483-2.782 0-1.625 1.014-2.782 2.483-2.782s2.483 1.157 2.483 2.795c0 1.625-1.014 2.769-2.483 2.769zm7.604.598c1.443 0 2.548-.936 2.834-2.262h-.676c-.26 1.027-1.13 1.664-2.21 1.664-1.469 0-2.392-1.118-2.418-2.652v-.117h5.382c0-.091.013-.195.013-.273-.065-1.963-1.274-3.107-3.042-3.107-1.807 0-3.042 1.378-3.042 3.328 0 2.067 1.287 3.419 3.16 3.419zm-2.418-3.926c.104-1.339 1.105-2.236 2.314-2.236 1.287 0 2.21.793 2.314 2.236H38.18zM48.493 28h.702v-4.199h3.926v-.65h-3.926V19.55H53.9v-.65h-5.408V28zm5.95 0h.82l2.781-4.121L60.852 28h.832l-3.172-4.706L61.49 18.9h-.819l-2.6 3.874-2.6-3.874h-.832l2.99 4.446L54.443 28zm17.567-.611c-.39 0-.585-.13-.585-.637v-3.068c0-1.508-.923-2.353-2.574-2.353-1.508 0-2.51.728-2.678 1.924h.663c.169-.806.87-1.339 1.989-1.339 1.235 0 1.937.65 1.937 1.742v.572h-2.236c-1.69 0-2.6.728-2.6 1.963 0 1.17.923 1.885 2.327 1.885 1.339 0 2.132-.611 2.535-1.43v.234c-.026.78.299 1.118 1.079 1.118h.39v-.611h-.247zm-1.248-2.054c0 1.261-.897 2.171-2.457 2.171-1.053 0-1.703-.533-1.703-1.352 0-.871.65-1.352 1.872-1.352h2.288v.533zm5.423-4.004c-1.209 0-1.989.624-2.366 1.482l-.104-1.404h-.572V28h.663v-3.25c0-1.716.871-2.808 2.275-2.808 1.274 0 2.041.832 2.041 2.392V28h.663v-3.692c0-2.08-1.105-2.977-2.6-2.977zm9.348 1.56c-.403-.936-1.287-1.56-2.522-1.56-1.807 0-3.107 1.378-3.107 3.367 0 2.08 1.3 3.38 3.107 3.38 1.235 0 2.093-.663 2.51-1.586L85.623 28h.572v-9.1h-.663v3.991zm-2.47 4.589c-1.469 0-2.483-1.144-2.483-2.782 0-1.625 1.014-2.782 2.483-2.782 1.47 0 2.483 1.157 2.483 2.795 0 1.625-1.014 2.769-2.483 2.769zm8.534-7.462c.26 0 .469-.195.469-.468a.458.458 0 00-.469-.468.458.458 0 00-.468.468c0 .273.209.468.468.468zM91.26 28h.662v-6.591h-.662V28zm5.263-6.669c-1.209 0-1.989.624-2.366 1.482l-.104-1.404h-.572V28h.663v-3.25c0-1.716.871-2.808 2.275-2.808 1.274 0 2.041.832 2.041 2.392V28h.663v-3.692c0-2.08-1.105-2.977-2.6-2.977zm9.348 1.56c-.403-.936-1.287-1.56-2.522-1.56-1.807 0-3.107 1.378-3.107 3.367 0 2.08 1.3 3.38 3.107 3.38 1.235 0 2.093-.663 2.509-1.586l.104 1.508h.572v-9.1h-.663v3.991zm-2.47 4.589c-1.469 0-2.483-1.144-2.483-2.782 0-1.625 1.014-2.782 2.483-2.782s2.483 1.157 2.483 2.795c0 1.625-1.014 2.769-2.483 2.769zm7.604.598c1.443 0 2.548-.936 2.834-2.262h-.676c-.26 1.027-1.131 1.664-2.21 1.664-1.469 0-2.392-1.118-2.418-2.652v-.117h5.382c0-.091.013-.195.013-.273-.065-1.963-1.274-3.107-3.042-3.107-1.807 0-3.042 1.378-3.042 3.328 0 2.067 1.287 3.419 3.159 3.419zm-2.418-3.926c.104-1.339 1.105-2.236 2.314-2.236 1.287 0 2.21.793 2.314 2.236h-4.628zM114.31 28h.767l2.184-2.899L119.445 28h.806l-2.561-3.367 2.431-3.224h-.754l-2.08 2.73-2.054-2.73h-.793l2.431 3.224L114.31 28zm14.304.078c1.95 0 3.328-1.053 3.718-2.886h-.741c-.39 1.456-1.443 2.236-2.99 2.236-2.106 0-3.432-1.651-3.432-3.978s1.352-3.978 3.458-3.978c1.521 0 2.587.793 2.99 2.223h.741c-.403-1.82-1.781-2.873-3.692-2.873-2.561 0-4.225 1.898-4.225 4.628 0 2.756 1.625 4.628 4.173 4.628zm5.229-.078h.702v-4.199h3.926v-.65h-3.926V19.55h4.706v-.65h-5.408V28zm9.292 0c2.886 0 4.576-1.794 4.576-4.55 0-2.769-1.69-4.55-4.576-4.55h-2.652V28h2.652zm-1.95-8.45h1.95c2.483 0 3.861 1.508 3.861 3.9 0 2.379-1.378 3.9-3.861 3.9h-1.95v-7.8zm7.628 6.422c.052 1.365 1.157 2.106 2.808 2.106 1.417 0 2.561-.715 2.561-1.885 0-1.391-1.222-1.664-2.639-1.859-1.027-.143-1.937-.26-1.937-1.183 0-.754.741-1.248 1.859-1.248 1.053 0 1.807.507 1.924 1.365h.676c-.117-1.287-1.17-1.937-2.6-1.937-1.469-.013-2.522.741-2.522 1.872 0 1.326 1.222 1.573 2.574 1.755 1.105.156 2.002.299 2.002 1.274 0 .78-.819 1.274-1.898 1.274-1.261 0-2.08-.585-2.132-1.534h-.676z" fill="#000"/></svg>