<svg width="135" height="23" viewBox="0 0 135 23" fill="none" xmlns="http://www.w3.org/2000/svg"><rect width="135" height="23" rx="11.5" fill="#000"/><path d="M26.059 15.066c1.738 0 3.014-.99 3.3-2.585h-1.012c-.286 1.078-1.111 1.705-2.299 1.705-1.617 0-2.607-1.265-2.607-3.036 0-1.782 1.034-3.036 2.651-3.036 1.155 0 1.969.638 2.266 1.705h1.012c-.286-1.595-1.529-2.585-3.234-2.585-2.233 0-3.674 1.584-3.674 3.916 0 2.354 1.386 3.916 3.597 3.916zM30.383 15h.902V7.3h-.902V15zm7.098-.825c-.253 0-.363-.077-.363-.374v-2.453c0-1.309-.825-2.024-2.255-2.024-1.353 0-2.244.649-2.376 1.749h.902c.11-.572.638-.946 1.43-.946.88 0 1.397.44 1.397 1.166v.385h-1.65c-1.474 0-2.255.627-2.255 1.749 0 1.023.836 1.639 2.068 1.639.968 0 1.53-.429 1.881-.935.011.55.264.869 1.012.869h.495v-.825h-.286zm-1.265-1.463c0 .935-.649 1.584-1.77 1.584-.749 0-1.222-.374-1.222-.924 0-.638.451-.935 1.254-.935h1.738v.275zm2.707-4.268c.33 0 .583-.242.583-.583a.567.567 0 00-.583-.583.567.567 0 00-.583.583c0 .341.253.583.583.583zM38.46 15h.902V9.39h-.902V15zm8.396-5.676c-1 0-1.606.462-1.947 1.067-.319-.715-.99-1.067-1.77-1.067-.87 0-1.343.429-1.64.836l-.12-.77h-.782V15h.902v-2.959c0-1.122.561-1.892 1.485-1.892.858 0 1.353.572 1.353 1.672V15h.902v-3.003c0-1.144.572-1.848 1.507-1.848.847 0 1.331.572 1.331 1.672V15h.902v-3.234c0-1.771-.957-2.442-2.123-2.442zM58.615 12.8c0-1.496-1.287-1.914-2.54-2.123-1.156-.198-2.09-.385-2.09-1.309 0-.825.67-1.265 1.671-1.265 1.045 0 1.76.583 1.87 1.474h.99c-.077-1.232-.913-2.123-2.299-2.31V6.112h-.836v1.133c-1.408.099-2.354.946-2.354 2.178 0 1.496 1.276 1.903 2.52 2.112 1.165.198 2.111.396 2.111 1.353 0 .836-.737 1.309-1.77 1.309-1.178 0-1.98-.682-2.058-1.716h-.99c.055 1.375.968 2.387 2.541 2.563v1.133h.836v-1.122c1.43-.121 2.398-1.023 2.398-2.255zm.709 2.2h5.302v-.847H60.6l2.31-1.958c.913-.781 1.661-1.507 1.661-2.662 0-1.386-.968-2.299-2.629-2.299-1.551 0-2.574 1.034-2.574 2.486v.198h.924v-.143c0-1.056.66-1.716 1.65-1.716 1.023 0 1.683.55 1.683 1.518 0 .836-.594 1.43-1.309 2.046l-2.992 2.596V15zm6.118-3.674c0 2.299 1.188 3.74 2.926 3.74 1.727 0 2.915-1.441 2.915-3.74v-.352c0-2.189-1.188-3.74-2.915-3.74-1.738 0-2.926 1.551-2.926 3.74v.352zm4.906-.033c0 1.826-.792 2.926-1.98 2.926-1.2 0-1.991-1.1-1.991-2.926v-.286c0-1.826.792-2.926 1.99-2.926 1.189 0 1.98 1.1 1.98 2.926v.286zm1.883.033c0 2.299 1.188 3.74 2.926 3.74 1.727 0 2.915-1.441 2.915-3.74v-.352c0-2.189-1.188-3.74-2.915-3.74-1.738 0-2.926 1.551-2.926 3.74v.352zm4.906-.033c0 1.826-.792 2.926-1.98 2.926-1.2 0-1.991-1.1-1.991-2.926v-.286c0-1.826.792-2.926 1.99-2.926 1.189 0 1.98 1.1 1.98 2.926v.286zm7.732-1.969c-.946 0-1.551.451-1.925.968V7.3h-.902V15h.78l.122-.858c.34.539.979.924 1.925.924 1.55 0 2.695-1.155 2.695-2.871 0-1.826-1.144-2.871-2.695-2.871zm-.088 4.939c-1.1 0-1.848-.858-1.848-2.09 0-1.199.748-2.046 1.848-2.046 1.11 0 1.859.847 1.859 2.068s-.748 2.068-1.86 2.068zm6.398.803c1.64 0 2.784-1.166 2.784-2.871s-1.144-2.871-2.783-2.871c-1.64 0-2.784 1.166-2.784 2.871s1.144 2.871 2.784 2.871zm0-.803c-1.11 0-1.859-.869-1.859-2.068s.749-2.068 1.86-2.068c1.11 0 1.858.869 1.858 2.068s-.748 2.068-1.858 2.068zm6.568-4.939c-.946 0-1.518.396-1.848.825l-.121-.759h-.781V15h.902v-2.805c0-1.265.638-2.046 1.694-2.046.979 0 1.518.616 1.518 1.782V15h.902v-3.124c0-1.859-1.001-2.552-2.266-2.552zm7.343 2.871c0 1.265-.616 2.046-1.639 2.046-.935 0-1.463-.616-1.463-1.782V9.39h-.902v3.124c0 1.859.979 2.552 2.211 2.552.924 0 1.463-.396 1.793-.814l.121.748h.781V9.39h-.902v2.805zm1.9.957c.022 1.232 1.023 1.914 2.475 1.914 1.243 0 2.244-.649 2.244-1.694 0-1.243-1.023-1.485-2.299-1.639-.814-.099-1.408-.176-1.408-.792 0-.517.528-.847 1.309-.847.77 0 1.298.429 1.364 1.001h.924c-.088-1.166-1.012-1.76-2.288-1.771-1.265-.011-2.2.66-2.2 1.683 0 1.166 1.001 1.419 2.255 1.573.836.099 1.452.154 1.452.858 0 .517-.561.858-1.353.858-.935 0-1.518-.484-1.551-1.144h-.924z" fill="#fff"/></svg>