<svg width="195" height="29" viewBox="0 0 195 29" fill="none" xmlns="http://www.w3.org/2000/svg"><path d="M24.79.808h-7.182V15.21c0 4.256-1.938 6.042-5.054 6.042-3.078 0-5.016-1.786-5.054-6.042V.846H.356V15.21c0 8.702 4.712 12.578 12.198 12.578 7.486 0 12.236-3.876 12.236-12.578V.808zm16.047-.38C34.643.466 29.779 3.164 29.779 9.13c0 5.206 4.332 6.612 10.374 8.056 4.37 1.102 5.13 1.254 5.13 2.774 0 1.216-1.292 1.748-2.774 1.748-3.382 0-7.22-.988-10.678-2.926l-3.192 5.32c3.648 2.432 8.132 3.724 13.072 3.724 6.84 0 11.134-3.116 11.134-8.778 0-5.434-4.446-6.954-10.678-8.626-4.142-1.026-4.636-1.368-4.636-2.204 0-1.216 1.178-1.748 2.546-1.748 2.622 0 6.194.912 9.234 2.47l3.002-5.51C49.197 1.53 45.093.428 40.837.428zm16.111.418v26.562h11.4c7.866 0 14.25-5.738 14.25-13.262 0-7.562-6.384-13.338-14.25-13.338l-11.4.038zm7.144 6.384h3.99c3.952 0 7.182 2.964 7.182 6.878 0 3.952-3.23 6.916-7.182 6.916h-3.99V7.23zM91.37 28.054L104.668.162 98.742.2l-13.3 27.854h5.928zM121.496.466c-7.752 0-14.022 6.118-14.022 13.68 0 7.524 6.27 13.642 14.022 13.642 4.75 0 8.93-2.28 11.438-5.814l-6.194-3.496c-1.178 1.596-3.002 2.622-5.206 2.622-3.876 0-6.574-3.116-6.574-6.954 0-3.876 2.698-6.992 6.574-6.992 2.204 0 4.028 1.026 5.206 2.622l6.194-3.496c-2.508-3.534-6.688-5.814-11.438-5.814zm43.593 26.942L154.487.808h-9.386l-10.488 26.6h8.55l1.71-4.636h9.956l1.71 4.636h8.55zm-18.354-10.336l3.078-8.284 3.078 8.284h-6.156zM168.684.846v26.562h11.4c7.866 0 14.25-5.738 14.25-13.262 0-7.562-6.384-13.338-14.25-13.338l-11.4.038zm7.144 6.384h3.99c3.952 0 7.182 2.964 7.182 6.878 0 3.952-3.23 6.916-7.182 6.916h-3.99V7.23z" fill="#09B45B"/></svg>