<svg width="188" height="32" viewBox="0 0 188 32" fill="none" xmlns="http://www.w3.org/2000/svg"><path d="M10.813 3.867v-2.85H.28v2.85h3.593v9.54H7.22v-9.54h3.593zm1.674-2.832v12.373h3.327v-3.77h1.983l2.407 3.77h3.84l-2.778-4.213c1.717-.584 2.443-1.84 2.443-3.859 0-3.026-1.611-4.3-5.647-4.3h-5.575zm3.327 2.992h2.407c1.47 0 2.018.46 2.018 1.522 0 1.08-.548 1.522-2.018 1.522h-2.407V4.027zm13.24 9.38V1.036h-3.327v12.373h3.328zM41.73 4.01V1.018H31.587v12.39h10.248v-2.992h-6.92V8.558h6.336V5.726h-6.337V4.009h6.815zm1.992-2.974v12.373h5.31c3.664 0 6.638-2.673 6.638-6.178 0-3.522-2.974-6.212-6.638-6.212l-5.31.017zm3.328 2.974h1.858c1.84 0 3.345 1.38 3.345 3.204 0 1.84-1.504 3.221-3.345 3.221H47.05V4.009zm16.263 6.106V7.531H57.17v2.584h6.142zm15.223 3.293l-4.938-12.39h-4.372l-4.885 12.39h3.983l.796-2.16h4.637l.797 2.16h3.982zm-8.549-4.815l1.434-3.858 1.434 3.858h-2.868zm21.835 4.815V1.018h-3.274v6.92l-4.992-6.92h-3.451v12.39h3.274V6.505l4.992 6.903h3.451zm2.425-12.373v12.373h5.31c3.663 0 6.637-2.673 6.637-6.178 0-3.522-2.974-6.212-6.638-6.212l-5.31.017zm3.327 2.974h1.859c1.84 0 3.345 1.38 3.345 3.204 0 1.84-1.505 3.221-3.345 3.221h-1.859V4.009zm16.263 6.106V7.531h-6.142v2.584h6.142zm11.56-6.248v-2.85h-10.532v2.85h3.594v9.54h3.345v-9.54h3.593zm11.816.142V1.018H127.07v12.39h10.248v-2.992h-6.92V8.558h6.336V5.726h-6.336V4.009h6.814zM144.249.84c-2.885.017-5.151 1.274-5.151 4.053 0 2.425 2.018 3.08 4.832 3.752 2.036.514 2.39.584 2.39 1.292 0 .567-.602.815-1.292.815-1.576 0-3.363-.46-4.974-1.363l-1.487 2.478c1.699 1.133 3.788 1.734 6.089 1.734 3.186 0 5.186-1.451 5.186-4.088 0-2.532-2.071-3.24-4.974-4.018-1.929-.478-2.159-.638-2.159-1.027 0-.566.549-.814 1.186-.814 1.221 0 2.885.425 4.301 1.15l1.398-2.566c-1.451-.885-3.363-1.398-5.345-1.398zm17.204 3.026v-2.85h-10.532v2.85h3.593v9.54h3.346v-9.54h3.593zm11.816.142V1.018h-10.142v12.39h10.248v-2.992h-6.921V8.558h6.337V5.726h-6.337V4.009h6.815zm1.992-2.974v12.373h5.31c3.664 0 6.638-2.673 6.638-6.178 0-3.522-2.974-6.212-6.638-6.212l-5.31.017zm3.328 2.974h1.858c1.841 0 3.345 1.38 3.345 3.204 0 1.84-1.504 3.221-3.345 3.221h-1.858V4.009zM61 21.867v-2.85H50.47v2.85h3.593v9.54h3.345v-9.54H61zm1.674-2.832v12.373h3.328v-3.77h1.982l2.407 3.77h3.841l-2.779-4.213c1.717-.584 2.443-1.84 2.443-3.859 0-3.026-1.61-4.3-5.646-4.3h-5.576zm3.328 2.992h2.407c1.47 0 2.018.46 2.018 1.522 0 1.08-.549 1.522-2.018 1.522h-2.407v-3.044zm23.276 9.38l-4.938-12.39h-4.372l-4.885 12.39h3.982l.797-2.159h4.637l.797 2.16h3.982zm-8.549-4.814l1.434-3.858 1.433 3.858H80.73zm10.224-7.558v12.373h5.31c3.664 0 6.637-2.673 6.637-6.178 0-3.522-2.973-6.212-6.637-6.212l-5.31.017zm3.327 2.974h1.859c1.84 0 3.345 1.38 3.345 3.204 0 1.84-1.504 3.221-3.345 3.221H94.28v-6.425zm14.14 9.399V19.035h-3.328v12.373h3.328zm14.143 0v-12.39h-3.275v6.92l-4.991-6.92h-3.452v12.39h3.275v-6.903l4.991 6.903h3.452zm8.938-12.567c-3.523-.018-6.85 2.3-6.85 6.39 0 3.504 2.973 6.354 6.637 6.354 2.089 0 4.018-.69 5.505-1.877v-5.416h-5.292v2.372h2.124v1.186a4.6 4.6 0 01-2.337.62c-1.858 0-3.15-1.452-3.15-3.24 0-2.07 1.575-3.31 3.363-3.31a4.15 4.15 0 012.708 1.01l2.177-2.284c-1.381-1.186-3.133-1.788-4.885-1.805z" fill="#09B45B"/></svg>