<svg width="284" height="74" viewBox="0 0 284 74" fill="none" xmlns="http://www.w3.org/2000/svg"><path d="M.702 6.164H4.05V17h2.052V6.164h3.33V4.49H.702v1.674zm12.86 5.616c0-2.106.936-2.736 2.448-2.736h.522V6.92c-1.404 0-2.394.612-2.97 1.602v-1.44H11.51V17h2.052v-5.22zm4.172.216c0 3.06 2.07 5.166 4.644 5.166 1.656 0 2.844-.792 3.474-1.638V17h2.07V7.082h-2.07v1.44c-.612-.81-1.764-1.602-3.438-1.602-2.61 0-4.68 2.016-4.68 5.076zm8.118.036c0 2.142-1.458 3.348-3.006 3.348-1.53 0-3.006-1.242-3.006-3.384s1.476-3.294 3.006-3.294c1.548 0 3.006 1.206 3.006 3.33zm4.082-.036c0 3.06 2.07 5.166 4.68 5.166 1.62 0 2.808-.756 3.438-1.656V17h2.07V3.68h-2.07v4.788c-.756-.936-2.124-1.548-3.42-1.548-2.628 0-4.698 2.016-4.698 5.076zm8.118.036c0 2.142-1.458 3.348-3.006 3.348-1.53 0-3.006-1.242-3.006-3.384s1.476-3.294 3.006-3.294c1.548 0 3.006 1.206 3.006 3.33zm8.94-3.384c1.53 0 2.737.972 2.773 2.502h-5.49c.216-1.566 1.332-2.502 2.718-2.502zm4.645 5.4h-2.214c-.378.774-1.08 1.386-2.34 1.386-1.512 0-2.682-.99-2.826-2.628h7.578a6.33 6.33 0 00.072-1.008c0-2.916-1.998-4.878-4.824-4.878-2.934 0-4.95 1.998-4.95 5.112s2.106 5.13 4.95 5.13c2.43 0 3.996-1.386 4.554-3.114zm13.877-9.576h-6.912V17h6.912v-1.674h-4.86v-3.834h4.32V9.818h-4.32V6.146h4.86V4.472zm2.51 7.956c0 3.186 2.231 4.698 4.86 4.698 2.61 0 4.913-1.512 4.913-4.698V4.49h-2.052v7.974c0 1.944-1.098 2.862-2.844 2.862-1.728 0-2.826-.918-2.826-2.862V4.49h-2.052v7.938zM87.11 8.234c0 1.242-.72 2.124-2.322 2.124h-2.268V6.164h2.268c1.602 0 2.322.81 2.322 2.07zM80.47 4.49V17h2.052v-5.004h1.566L86.967 17h2.448l-3.096-5.184c2.106-.522 2.898-2.106 2.898-3.582 0-2.034-1.458-3.744-4.428-3.744h-4.32zM91.59 20.15h2.016L98.502.008h-2.034L91.59 20.15zm9.48-7.722c0 3.186 2.232 4.698 4.86 4.698 2.61 0 4.914-1.512 4.914-4.698V4.49h-2.052v7.974c0 1.944-1.098 2.862-2.844 2.862-1.728 0-2.826-.918-2.826-2.862V4.49h-2.052v7.938zm20.888 1.026c0-4.572-6.624-2.808-6.624-5.634 0-1.206.918-1.782 2.106-1.746 1.296.036 2.034.81 2.106 1.656h2.268c-.18-2.142-1.872-3.402-4.266-3.402-2.556 0-4.302 1.368-4.302 3.564 0 4.608 6.642 2.646 6.642 5.67 0 1.062-.81 1.836-2.25 1.836-1.422 0-2.142-.828-2.232-1.854h-2.196c0 2.214 1.926 3.582 4.428 3.582 2.79 0 4.32-1.8 4.32-3.672zm6.507-8.964h-4.086V17h4.086c4.014 0 6.642-2.358 6.642-6.21 0-3.87-2.628-6.3-6.642-6.3zm-2.034 10.836V6.164h2.034c2.952 0 4.536 1.764 4.536 4.626 0 2.844-1.584 4.536-4.536 4.536h-2.034zM143.743 17h2.16l1.998-7.326L149.899 17h2.16l3.078-9.918h-2.016l-2.052 7.938-2.016-7.938h-2.142l-2.106 7.974-2.07-7.974h-2.088L143.743 17zm12.927 0h2.052V7.082h-2.052V17zm1.044-11.232c.72 0 1.296-.576 1.296-1.314 0-.738-.576-1.314-1.296-1.314-.738 0-1.314.576-1.314 1.314 0 .738.576 1.314 1.314 1.314zm4.026 8.478c0 2.016 1.098 2.754 2.862 2.754h1.62v-1.71h-1.26c-.864 0-1.152-.306-1.152-1.044v-5.49h2.412V7.082h-2.412V4.616h-2.07v2.466h-1.17v1.674h1.17v5.49zM168.114 17h2.052v-5.544c0-1.818.99-2.754 2.502-2.754 1.494 0 2.484.936 2.484 2.754V17h2.034v-5.85c0-2.772-1.728-4.23-3.942-4.23-1.278 0-2.394.486-3.078 1.314V3.68h-2.052V17zm16.365 0h2.052V3.68h-2.052V17zm14.196-4.968c0-3.114-2.232-5.112-5.058-5.112-2.826 0-5.058 1.998-5.058 5.112s2.142 5.13 4.968 5.13c2.844 0 5.148-2.016 5.148-5.13zm-8.028 0c0-2.25 1.386-3.33 2.934-3.33 1.53 0 2.988 1.08 2.988 3.33s-1.512 3.348-3.042 3.348c-1.548 0-2.88-1.098-2.88-3.348zM202.63 17h2.16l1.998-7.326L208.786 17h2.16l3.078-9.918h-2.016l-2.052 7.938-2.016-7.938h-2.142l-2.106 7.974-2.07-7.974h-2.088L202.63 17zM8.748 36.228c-.108-3.582-5.706-2.466-5.706-4.464 0-.666.576-1.116 1.674-1.116 1.116 0 1.782.594 1.854 1.458h2.052c-.108-1.98-1.584-3.186-3.834-3.186-2.34 0-3.816 1.278-3.816 2.862 0 3.636 5.76 2.52 5.76 4.464 0 .684-.63 1.188-1.818 1.188-1.134 0-1.908-.666-1.98-1.476H.81c.09 1.8 1.764 3.204 4.14 3.204 2.34 0 3.798-1.26 3.798-2.934zm4.27-5.688v-1.458h-2.053v14.634h2.052V37.56a4.484 4.484 0 003.456 1.602c2.61 0 4.662-2.106 4.662-5.166 0-3.06-2.052-5.076-4.662-5.076-1.62 0-2.826.792-3.456 1.62zm6.03 3.456c0 2.142-1.477 3.384-3.025 3.384-1.53 0-3.006-1.206-3.006-3.348 0-2.124 1.476-3.33 3.006-3.33 1.548 0 3.024 1.152 3.024 3.294zm6.169-.216c0-2.106.936-2.736 2.448-2.736h.521V28.92c-1.404 0-2.393.612-2.97 1.602v-1.44h-2.052V39h2.052v-5.22zm9.032-3.132c1.53 0 2.736.972 2.772 2.502h-5.49c.216-1.566 1.332-2.502 2.718-2.502zm4.644 5.4h-2.214c-.378.774-1.08 1.386-2.34 1.386-1.512 0-2.682-.99-2.826-2.628h7.578a6.33 6.33 0 00.072-1.008c0-2.916-1.998-4.878-4.824-4.878-2.934 0-4.95 1.998-4.95 5.112s2.106 5.13 4.95 5.13c2.43 0 3.996-1.386 4.554-3.114zm1.605-2.052c0 3.06 2.07 5.166 4.644 5.166 1.656 0 2.844-.792 3.474-1.638V39h2.07v-9.918h-2.07v1.44c-.612-.81-1.764-1.602-3.438-1.602-2.61 0-4.68 2.016-4.68 5.076zm8.118.036c0 2.142-1.458 3.348-3.006 3.348-1.53 0-3.006-1.242-3.006-3.384s1.476-3.294 3.006-3.294c1.548 0 3.006 1.206 3.006 3.33zm4.081-.036c0 3.06 2.07 5.166 4.68 5.166 1.62 0 2.808-.756 3.438-1.656V39h2.07V25.68h-2.07v4.788c-.756-.936-2.124-1.548-3.42-1.548-2.628 0-4.698 2.016-4.698 5.076zm8.118.036c0 2.142-1.458 3.348-3.006 3.348-1.53 0-3.006-1.242-3.006-3.384s1.476-3.294 3.006-3.294c1.548 0 3.006 1.206 3.006 3.33zm12.163 2.196c-.107-3.582-5.706-2.466-5.706-4.464 0-.666.576-1.116 1.674-1.116 1.117 0 1.782.594 1.855 1.458h2.052c-.108-1.98-1.584-3.186-3.834-3.186-2.34 0-3.817 1.278-3.817 2.862 0 3.636 5.76 2.52 5.76 4.464 0 .684-.63 1.188-1.818 1.188-1.134 0-1.907-.666-1.98-1.476H65.04c.09 1.8 1.764 3.204 4.14 3.204 2.34 0 3.798-1.26 3.798-2.934zm6.21-2.232c0 3.06 2.07 5.166 4.644 5.166 1.656 0 2.844-.792 3.474-1.638V39h2.07v-9.918h-2.07v1.44c-.612-.81-1.764-1.602-3.438-1.602-2.61 0-4.68 2.016-4.68 5.076zm8.117.036c0 2.142-1.458 3.348-3.006 3.348-1.53 0-3.006-1.242-3.006-3.384s1.476-3.294 3.006-3.294c1.548 0 3.006 1.206 3.006 3.33zM99.11 39h2.034v-5.85c0-2.772-1.746-4.23-4.068-4.23-1.188 0-2.286.486-2.952 1.296v-1.134H92.07V39h2.052v-5.544c0-1.818.99-2.754 2.502-2.754 1.494 0 2.484.936 2.484 2.754V39zm3.967-5.004c0 3.06 2.07 5.166 4.68 5.166 1.62 0 2.808-.756 3.438-1.656V39h2.07V25.68h-2.07v4.788c-.756-.936-2.124-1.548-3.42-1.548-2.628 0-4.698 2.016-4.698 5.076zm8.118.036c0 2.142-1.458 3.348-3.006 3.348-1.53 0-3.006-1.242-3.006-3.384s1.476-3.294 3.006-3.294c1.548 0 3.006 1.206 3.006 3.33zm9.171-1.764c0 3.816 1.008 6.696 4.68 6.696 3.672 0 4.68-2.88 4.68-6.696 0-3.744-1.008-6.624-4.68-6.624-3.672 0-4.68 2.88-4.68 6.624zm7.344 0c0 2.574-.27 4.824-2.664 4.824s-2.664-2.25-2.664-4.824c0-2.448.27-4.752 2.664-4.752s2.664 2.304 2.664 4.752zm3.863-3.222c0 1.8 1.17 2.826 2.736 2.826 1.566 0 2.736-1.026 2.736-2.826 0-1.782-1.17-2.808-2.736-2.808-1.566 0-2.736 1.026-2.736 2.808zm2.736-1.566c.684 0 1.134.45 1.134 1.566s-.45 1.584-1.134 1.584c-.702 0-1.134-.468-1.134-1.584s.432-1.566 1.134-1.566zM133.354 39h2.016l7.182-12.528h-2.016L133.354 39zm5.544-2.592c0 1.8 1.17 2.826 2.736 2.826 1.548 0 2.718-1.026 2.718-2.826s-1.17-2.808-2.718-2.808c-1.566 0-2.736 1.008-2.736 2.808zm2.718-1.566c.684 0 1.134.45 1.134 1.566s-.45 1.566-1.134 1.566c-.684 0-1.134-.45-1.134-1.566s.45-1.566 1.134-1.566zm8.833-.81c0 3.114 2.016 5.13 4.86 5.13 2.43 0 4.014-1.35 4.572-3.294h-2.214c-.378 1.026-1.134 1.566-2.358 1.566-1.656 0-2.754-1.224-2.754-3.402 0-2.16 1.098-3.384 2.754-3.384 1.224 0 2.016.612 2.358 1.566h2.214c-.558-2.088-2.142-3.294-4.572-3.294-2.844 0-4.86 2.016-4.86 5.112zm20.927 0c0-3.114-2.232-5.112-5.058-5.112-2.826 0-5.058 1.998-5.058 5.112s2.142 5.13 4.968 5.13c2.844 0 5.148-2.016 5.148-5.13zm-8.028 0c0-2.25 1.386-3.33 2.934-3.33 1.53 0 2.988 1.08 2.988 3.33s-1.512 3.348-3.042 3.348c-1.548 0-2.88-1.098-2.88-3.348zM187.463 39h2.034v-5.85c0-2.772-1.764-4.23-4.086-4.23-1.44 0-2.844.756-3.456 1.962-.684-1.296-1.998-1.962-3.564-1.962-1.188 0-2.268.486-2.934 1.296v-1.134h-2.052V39h2.052v-5.544c0-1.818.99-2.754 2.502-2.754 1.494 0 2.484.936 2.484 2.754V39h2.034v-5.544c0-1.818.99-2.754 2.502-2.754 1.494 0 2.484.936 2.484 2.754V39zm18.703 0h2.034v-5.85c0-2.772-1.764-4.23-4.086-4.23-1.44 0-2.844.756-3.456 1.962-.684-1.296-1.998-1.962-3.564-1.962-1.188 0-2.268.486-2.934 1.296v-1.134h-2.052V39h2.052v-5.544c0-1.818.99-2.754 2.502-2.754 1.494 0 2.484.936 2.484 2.754V39h2.034v-5.544c0-1.818.99-2.754 2.502-2.754 1.494 0 2.484.936 2.484 2.754V39zm4.645 0h2.052v-9.918h-2.052V39zm1.044-11.232c.72 0 1.296-.576 1.296-1.314 0-.738-.576-1.314-1.296-1.314-.738 0-1.314.576-1.314 1.314 0 .738.576 1.314 1.314 1.314zm11.1 8.46c-.108-3.582-5.706-2.466-5.706-4.464 0-.666.576-1.116 1.674-1.116 1.116 0 1.782.594 1.854 1.458h2.052c-.108-1.98-1.584-3.186-3.834-3.186-2.34 0-3.816 1.278-3.816 2.862 0 3.636 5.76 2.52 5.76 4.464 0 .684-.63 1.188-1.818 1.188-1.134 0-1.908-.666-1.98-1.476h-2.124c.09 1.8 1.764 3.204 4.14 3.204 2.34 0 3.798-1.26 3.798-2.934zm9.615 0c-.108-3.582-5.706-2.466-5.706-4.464 0-.666.576-1.116 1.674-1.116 1.116 0 1.782.594 1.854 1.458h2.052c-.108-1.98-1.584-3.186-3.834-3.186-2.34 0-3.816 1.278-3.816 2.862 0 3.636 5.76 2.52 5.76 4.464 0 .684-.63 1.188-1.818 1.188-1.134 0-1.908-.666-1.98-1.476h-2.124c.09 1.8 1.764 3.204 4.14 3.204 2.34 0 3.798-1.26 3.798-2.934zM234.788 39h2.052v-9.918h-2.052V39zm1.044-11.232c.72 0 1.296-.576 1.296-1.314 0-.738-.576-1.314-1.296-1.314-.738 0-1.314.576-1.314 1.314 0 .738.576 1.314 1.314 1.314zm13.152 6.264c0-3.114-2.232-5.112-5.058-5.112-2.826 0-5.058 1.998-5.058 5.112s2.142 5.13 4.968 5.13c2.844 0 5.148-2.016 5.148-5.13zm-8.028 0c0-2.25 1.386-3.33 2.934-3.33 1.53 0 2.988 1.08 2.988 3.33s-1.512 3.348-3.042 3.348c-1.548 0-2.88-1.098-2.88-3.348zM258.05 39h2.034v-5.85c0-2.772-1.746-4.23-4.068-4.23-1.188 0-2.286.486-2.952 1.296v-1.134h-2.052V39h2.052v-5.544c0-1.818.99-2.754 2.502-2.754 1.494 0 2.484.936 2.484 2.754V39zM4.89 50.01v.58H2.95V57h-.7v-6.41H.3v-.58h4.59zm1.805 2.5c.154-.34.387-.603.7-.79.32-.187.71-.28 1.17-.28v.73h-.19c-.506 0-.913.137-1.22.41-.306.273-.46.73-.46 1.37V57h-.7v-5.46h.7v.97zm2.603 1.75c0-.56.11-1.05.33-1.47a2.4 2.4 0 01.93-.98c.4-.233.85-.35 1.35-.35.52 0 .967.12 1.34.36.38.24.654.547.82.92v-1.2h.7V57h-.7v-1.21c-.173.373-.45.683-.83.93-.373.24-.82.36-1.34.36a2.61 2.61 0 01-1.34-.35 2.47 2.47 0 01-.93-.99c-.22-.427-.33-.92-.33-1.48zm4.77.01c0-.44-.09-.827-.27-1.16a1.917 1.917 0 00-.74-.77 1.978 1.978 0 00-1.02-.27c-.386 0-.733.087-1.04.26-.306.173-.55.427-.73.76-.173.327-.26.717-.26 1.17 0 .447.087.84.26 1.18.18.333.424.59.73.77.307.173.654.26 1.04.26.374 0 .714-.09 1.02-.27.314-.18.56-.437.74-.77.18-.333.27-.72.27-1.16zm1.978-.01c0-.56.114-1.05.34-1.47.227-.427.537-.753.93-.98.4-.233.85-.35 1.35-.35.48 0 .914.117 1.3.35.387.233.67.537.85.91V49.6h.7V57h-.7v-1.22c-.166.38-.44.693-.82.94-.38.24-.826.36-1.34.36-.5 0-.95-.117-1.35-.35a2.47 2.47 0 01-.93-.99c-.22-.427-.33-.92-.33-1.48zm4.77.01c0-.44-.09-.827-.27-1.16a1.917 1.917 0 00-.74-.77 1.978 1.978 0 00-1.02-.27c-.386 0-.733.087-1.04.26-.306.173-.55.427-.73.76-.173.327-.26.717-.26 1.17 0 .447.087.84.26 1.18.18.333.424.59.73.77.307.173.654.26 1.04.26.374 0 .714-.09 1.02-.27.314-.18.56-.437.74-.77.18-.333.27-.72.27-1.16zm7.239-.28c0 .24-.007.423-.02.55h-4.53c.02.413.12.767.3 1.06.18.293.416.517.71.67.293.147.613.22.96.22.453 0 .833-.11 1.14-.33.313-.22.52-.517.62-.89h.74c-.134.533-.42.97-.86 1.31-.434.333-.98.5-1.64.5-.514 0-.974-.113-1.38-.34a2.512 2.512 0 01-.96-.98c-.227-.427-.34-.923-.34-1.49s.113-1.063.34-1.49c.226-.427.543-.753.95-.98.406-.227.87-.34 1.39-.34.52 0 .973.113 1.36.34.393.227.693.533.9.92.213.38.32.803.32 1.27zm-.71-.02c.006-.407-.077-.753-.25-1.04a1.623 1.623 0 00-.69-.65 2.116 2.116 0 00-.96-.22c-.52 0-.964.167-1.33.5-.367.333-.57.803-.61 1.41h3.84zm11.934-2.43L37.57 57h-.7l-1.51-4.58L33.85 57h-.71l-1.71-5.46h.71l1.36 4.75 1.53-4.75h.7l1.51 4.76 1.35-4.76h.69zm1.305-1.03c-.14 0-.26-.05-.36-.15a.503.503 0 01-.15-.37.47.47 0 01.15-.36c.1-.1.22-.15.36-.15.14 0 .26.05.36.15.1.093.15.213.15.36s-.05.27-.15.37c-.1.1-.22.15-.36.15zm.35 1.03V57h-.7v-5.46h.7zm2.495.59v3.39c0 .333.063.563.19.69.126.127.35.19.67.19h.64v.6h-.75c-.494 0-.86-.113-1.1-.34-.24-.233-.36-.613-.36-1.14v-3.39h-.76v-.59h.76v-1.37h.71v1.37h1.5v.59h-1.5zm5.254-.69c.413 0 .784.087 1.11.26.334.173.593.44.78.8.194.353.29.787.29 1.3V57h-.69v-3.12c0-.593-.15-1.047-.45-1.36-.293-.313-.697-.47-1.21-.47-.526 0-.947.167-1.26.5-.313.333-.47.823-.47 1.47V57h-.7v-7.4h.7v2.87c.173-.327.427-.58.76-.76.34-.18.72-.27 1.14-.27zm7.383.69v3.39c0 .333.063.563.19.69.126.127.35.19.67.19h.64v.6h-.75c-.494 0-.86-.113-1.1-.34-.24-.233-.36-.613-.36-1.14v-3.39h-.76v-.59h.76v-1.37h.71v1.37h1.5v.59h-1.5zm5.254-.69c.413 0 .783.087 1.11.26.333.173.593.44.78.8.193.353.29.787.29 1.3V57h-.69v-3.12c0-.593-.15-1.047-.45-1.36-.293-.313-.697-.47-1.21-.47-.527 0-.947.167-1.26.5-.313.333-.47.823-.47 1.47V57h-.7v-7.4h.7v2.87c.173-.327.427-.58.76-.76.34-.18.72-.27 1.14-.27zm8.668 2.55c0 .24-.007.423-.02.55h-4.53c.02.413.12.767.3 1.06.18.293.417.517.71.67.293.147.613.22.96.22.453 0 .833-.11 1.14-.33.313-.22.52-.517.62-.89h.74c-.133.533-.42.97-.86 1.31-.433.333-.98.5-1.64.5-.513 0-.973-.113-1.38-.34a2.514 2.514 0 01-.96-.98c-.227-.427-.34-.923-.34-1.49s.113-1.063.34-1.49c.227-.427.543-.753.95-.98.407-.227.87-.34 1.39-.34.52 0 .973.113 1.36.34.393.227.693.533.9.92.213.38.32.803.32 1.27zm-.71-.02c.007-.407-.077-.753-.25-1.04a1.621 1.621 0 00-.69-.65 2.116 2.116 0 00-.96-.22c-.52 0-.963.167-1.33.5-.367.333-.57.803-.61 1.41h3.84zm7.335-2.53c.413 0 .783.087 1.11.26.333.173.593.44.78.8.193.353.29.787.29 1.3V57h-.69v-3.12c0-.593-.15-1.047-.45-1.36-.293-.313-.697-.47-1.21-.47-.527 0-.947.167-1.26.5-.313.333-.47.823-.47 1.47V57h-.7v-7.4h.7v2.87c.173-.327.427-.58.76-.76.34-.18.72-.27 1.14-.27zm6.118 5.64c-.513 0-.977-.113-1.39-.34a2.584 2.584 0 01-.97-.98c-.233-.427-.35-.923-.35-1.49s.12-1.06.36-1.48c.24-.427.567-.753.98-.98.413-.233.877-.35 1.39-.35.513 0 .977.117 1.39.35.42.227.747.553.98.98.24.42.36.913.36 1.48 0 .56-.12 1.053-.36 1.48-.24.427-.57.757-.99.99a2.9 2.9 0 01-1.4.34zm0-.61c.36 0 .693-.08 1-.24a1.88 1.88 0 00.74-.74c.193-.333.29-.74.29-1.22s-.093-.883-.28-1.21a1.798 1.798 0 00-.74-.74 2.06 2.06 0 00-1-.25c-.36 0-.693.083-1 .25-.307.16-.553.407-.74.74-.18.327-.27.73-.27 1.21s.09.887.27 1.22c.187.327.43.573.73.74.307.16.64.24 1 .24zm10.526-5.03c.64 0 1.16.203 1.56.61.407.4.61.983.61 1.75V57h-.69v-3.12c0-.593-.143-1.047-.43-1.36-.287-.313-.677-.47-1.17-.47-.513 0-.923.17-1.23.51-.307.34-.46.833-.46 1.48V57h-.69v-3.12c0-.593-.143-1.047-.43-1.36-.287-.313-.68-.47-1.18-.47-.513 0-.923.17-1.23.51-.307.34-.46.833-.46 1.48V57h-.7v-5.46h.7v.94c.173-.34.42-.597.74-.77.32-.18.677-.27 1.07-.27.473 0 .887.113 1.24.34.36.227.62.56.78 1 .147-.433.397-.763.75-.99.36-.233.767-.35 1.22-.35zm8.665 2.55c0 .24-.007.423-.02.55h-4.53c.02.413.12.767.3 1.06.18.293.416.517.71.67.293.147.613.22.96.22.453 0 .833-.11 1.14-.33.313-.22.52-.517.62-.89h.74a2.33 2.33 0 01-.86 1.31c-.434.333-.98.5-1.64.5-.514 0-.974-.113-1.38-.34a2.514 2.514 0 01-.96-.98c-.227-.427-.34-.923-.34-1.49s.113-1.063.34-1.49c.226-.427.543-.753.95-.98.406-.227.87-.34 1.39-.34.52 0 .973.113 1.36.34a2.3 2.3 0 01.9.92c.213.38.32.803.32 1.27zm-.71-.02c.006-.407-.077-.753-.25-1.04a1.626 1.626 0 00-.69-.65 2.119 2.119 0 00-.96-.22c-.52 0-.964.167-1.33.5-.367.333-.57.803-.61 1.41h3.84zm7.124 3.11c-.513 0-.976-.113-1.39-.34a2.589 2.589 0 01-.97-.98c-.233-.427-.35-.923-.35-1.49s.12-1.06.36-1.48c.24-.427.567-.753.98-.98a2.78 2.78 0 011.39-.35c.514 0 .977.117 1.39.35.42.227.747.553.98.98.24.42.36.913.36 1.48 0 .56-.12 1.053-.36 1.48-.24.427-.57.757-.99.99-.42.227-.886.34-1.4.34zm0-.61c.36 0 .694-.08 1-.24.307-.167.554-.413.74-.74.194-.333.29-.74.29-1.22s-.093-.883-.28-1.21a1.792 1.792 0 00-.74-.74 2.059 2.059 0 00-1-.25c-.36 0-.693.083-1 .25-.306.16-.553.407-.74.74-.18.327-.27.73-.27 1.21s.09.887.27 1.22c.187.327.43.573.73.74.307.16.64.24 1 .24zm6.177-4.34h-1.27V57h-.7v-4.87h-.76v-.59h.76v-.38c0-.593.15-1.03.45-1.31.306-.28.8-.42 1.48-.42v.6c-.454 0-.774.087-.96.26-.18.173-.27.463-.27.87v.38h1.27v.59zm5.996 0h-1.27V57h-.7v-4.87h-.76v-.59h.76v-.38c0-.593.15-1.03.45-1.31.306-.28.8-.42 1.48-.42v.6c-.454 0-.774.087-.96.26-.18.173-.27.463-.27.87v.38h1.27v.59zm3.492 4.95a2.84 2.84 0 01-1.39-.34 2.581 2.581 0 01-.97-.98c-.234-.427-.35-.923-.35-1.49s.12-1.06.36-1.48a2.47 2.47 0 01.98-.98c.413-.233.876-.35 1.39-.35.513 0 .976.117 1.39.35.42.227.746.553.98.98.24.42.36.913.36 1.48 0 .56-.12 1.053-.36 1.48-.24.427-.57.757-.99.99a2.9 2.9 0 01-1.4.34zm0-.61c.36 0 .693-.08 1-.24.306-.167.553-.413.74-.74.193-.333.29-.74.29-1.22s-.094-.883-.28-1.21a1.804 1.804 0 00-.74-.74 2.061 2.061 0 00-1-.25c-.36 0-.694.083-1 .25-.307.16-.554.407-.74.74-.18.327-.27.73-.27 1.21s.09.887.27 1.22c.186.327.43.573.73.74.306.16.64.24 1 .24zm4.726-3.96c.153-.34.386-.603.7-.79.32-.187.71-.28 1.17-.28v.73h-.19c-.507 0-.914.137-1.22.41-.307.273-.46.73-.46 1.37V57h-.7v-5.46h.7v.97zm7.863 1.48c0 .24-.007.423-.02.55h-4.53c.02.413.12.767.3 1.06.18.293.416.517.71.67.293.147.613.22.96.22.453 0 .833-.11 1.14-.33.313-.22.52-.517.62-.89h.74a2.33 2.33 0 01-.86 1.31c-.434.333-.98.5-1.64.5-.514 0-.974-.113-1.38-.34a2.508 2.508 0 01-.96-.98c-.227-.427-.34-.923-.34-1.49s.113-1.063.34-1.49c.226-.427.543-.753.95-.98.406-.227.87-.34 1.39-.34.52 0 .973.113 1.36.34a2.3 2.3 0 01.9.92c.213.38.32.803.32 1.27zm-.71-.02c.006-.407-.077-.753-.25-1.04a1.626 1.626 0 00-.69-.65 2.12 2.12 0 00-.96-.22c-.52 0-.964.167-1.33.5-.367.333-.57.803-.61 1.41h3.84zm4.85 3.03l-1.41-2.2-1.36 2.2h-.74l1.76-2.73-1.74-2.73h.79l1.39 2.17 1.35-2.17h.73l-1.74 2.7 1.76 2.76h-.79zM3.19 71.08c-.513 0-.977-.113-1.39-.34a2.584 2.584 0 01-.97-.98c-.233-.427-.35-.923-.35-1.49s.12-1.06.36-1.48c.24-.427.567-.753.98-.98.413-.233.877-.35 1.39-.35.513 0 .977.117 1.39.35.42.227.747.553.98.98.24.42.36.913.36 1.48 0 .56-.12 1.053-.36 1.48-.24.427-.57.757-.99.99a2.9 2.9 0 01-1.4.34zm0-.61c.36 0 .693-.08 1-.24a1.88 1.88 0 00.74-.74c.193-.333.29-.74.29-1.22s-.093-.883-.28-1.21a1.798 1.798 0 00-.74-.74 2.06 2.06 0 00-1-.25c-.36 0-.693.083-1 .25-.307.16-.553.407-.74.74-.18.327-.27.73-.27 1.21s.09.887.27 1.22a1.9 1.9 0 00.73.74c.307.16.64.24 1 .24zm6.586-5.03c.653 0 1.187.203 1.6.61.413.4.62.983.62 1.75V71h-.69v-3.12c0-.593-.15-1.047-.45-1.36-.293-.313-.697-.47-1.21-.47-.527 0-.947.167-1.26.5-.313.333-.47.823-.47 1.47V71h-.7v-5.46h.7v.93c.173-.333.423-.587.75-.76.327-.18.697-.27 1.11-.27zm6.192 2.82c0-.56.11-1.05.33-1.47a2.4 2.4 0 01.93-.98c.4-.233.85-.35 1.35-.35.52 0 .967.12 1.34.36.38.24.654.547.82.92v-1.2h.7V71h-.7v-1.21c-.173.373-.45.683-.83.93-.373.24-.82.36-1.34.36a2.61 2.61 0 01-1.34-.35 2.468 2.468 0 01-.93-.99c-.22-.427-.33-.92-.33-1.48zm4.77.01c0-.44-.09-.827-.27-1.16a1.917 1.917 0 00-.74-.77 1.978 1.978 0 00-1.02-.27c-.386 0-.733.087-1.04.26-.306.173-.55.427-.73.76-.173.327-.26.717-.26 1.17 0 .447.087.84.26 1.18.18.333.424.59.73.77.307.173.654.26 1.04.26.374 0 .714-.09 1.02-.27.314-.18.56-.437.74-.77.18-.333.27-.72.27-1.16zm4.858-2.83c.654 0 1.187.203 1.6.61.414.4.62.983.62 1.75V71h-.69v-3.12c0-.593-.15-1.047-.45-1.36-.293-.313-.696-.47-1.21-.47-.526 0-.946.167-1.26.5-.313.333-.47.823-.47 1.47V71h-.7v-5.46h.7v.93c.174-.333.424-.587.75-.76.327-.18.697-.27 1.11-.27zm6.193 2.82c0-.56.11-1.05.33-1.47.226-.427.536-.753.93-.98.4-.233.85-.35 1.35-.35.52 0 .966.12 1.34.36.38.24.653.547.82.92v-1.2h.7V71h-.7v-1.21c-.174.373-.45.683-.83.93-.374.24-.82.36-1.34.36a2.61 2.61 0 01-1.34-.35 2.47 2.47 0 01-.93-.99c-.22-.427-.33-.92-.33-1.48zm4.77.01c0-.44-.09-.827-.27-1.16a1.917 1.917 0 00-.74-.77 1.978 1.978 0 00-1.02-.27c-.387 0-.734.087-1.04.26-.307.173-.55.427-.73.76-.174.327-.26.717-.26 1.17 0 .447.086.84.26 1.18.18.333.423.59.73.77.306.173.653.26 1.04.26.373 0 .713-.09 1.02-.27.313-.18.56-.437.74-.77.18-.333.27-.72.27-1.16zm9.498-2.73L44.347 71h-.7l-1.51-4.58-1.51 4.58h-.71l-1.71-5.46h.71l1.36 4.75 1.53-4.75h.7l1.51 4.76 1.35-4.76h.69zm.634 2.72c0-.56.11-1.05.33-1.47.227-.427.537-.753.93-.98.4-.233.85-.35 1.35-.35.52 0 .967.12 1.34.36.38.24.653.547.82.92v-1.2h.7V71h-.7v-1.21c-.173.373-.45.683-.83.93-.373.24-.82.36-1.34.36a2.61 2.61 0 01-1.34-.35 2.47 2.47 0 01-.93-.99c-.22-.427-.33-.92-.33-1.48zm4.77.01c0-.44-.09-.827-.27-1.16a1.916 1.916 0 00-.74-.77 1.977 1.977 0 00-1.02-.27c-.387 0-.733.087-1.04.26-.307.173-.55.427-.73.76-.173.327-.26.717-.26 1.17 0 .447.087.84.26 1.18.18.333.423.59.73.77.307.173.653.26 1.04.26.373 0 .713-.09 1.02-.27.313-.18.56-.437.74-.77.18-.333.27-.72.27-1.16zm2.998-1.76c.153-.34.387-.603.7-.79.32-.187.71-.28 1.17-.28v.73h-.19c-.507 0-.913.137-1.22.41-.307.273-.46.73-.46 1.37V71h-.7v-5.46h.7v.97zm2.603 1.75c0-.56.113-1.05.34-1.47.227-.427.537-.753.93-.98.4-.233.85-.35 1.35-.35.48 0 .913.117 1.3.35.387.233.67.537.85.91V63.6h.7V71h-.7v-1.22c-.167.38-.44.693-.82.94-.38.24-.827.36-1.34.36-.5 0-.95-.117-1.35-.35a2.47 2.47 0 01-.93-.99c-.22-.427-.33-.92-.33-1.48zm4.77.01c0-.44-.09-.827-.27-1.16a1.916 1.916 0 00-.74-.77 1.977 1.977 0 00-1.02-.27c-.387 0-.733.087-1.04.26-.307.173-.55.427-.73.76-.173.327-.26.717-.26 1.17 0 .447.087.84.26 1.18.18.333.423.59.73.77.307.173.653.26 1.04.26.373 0 .713-.09 1.02-.27.313-.18.56-.437.74-.77.18-.333.27-.72.27-1.16zM67.52 67v.59h-3.89V67h3.89zm8.996-1.46L74.806 71h-.7l-1.51-4.58-1.51 4.58h-.71l-1.71-5.46h.71l1.36 4.75 1.53-4.75h.7l1.51 4.76 1.35-4.76h.69zm1.304-1.03c-.14 0-.26-.05-.36-.15a.503.503 0 01-.15-.37.47.47 0 01.15-.36c.1-.1.22-.15.36-.15.14 0 .26.05.36.15.1.093.15.213.15.36s-.05.27-.15.37c-.1.1-.22.15-.36.15zm.35 1.03V71h-.7v-5.46h.7zm4.145-.1c.653 0 1.187.203 1.6.61.413.4.62.983.62 1.75V71h-.69v-3.12c0-.593-.15-1.047-.45-1.36-.293-.313-.697-.47-1.21-.47-.527 0-.947.167-1.26.5-.313.333-.47.823-.47 1.47V71h-.7v-5.46h.7v.93c.173-.333.423-.587.75-.76.327-.18.697-.27 1.11-.27zm6.328 0c.653 0 1.187.203 1.6.61.413.4.62.983.62 1.75V71h-.69v-3.12c0-.593-.15-1.047-.45-1.36-.293-.313-.697-.47-1.21-.47-.526 0-.947.167-1.26.5-.313.333-.47.823-.47 1.47V71h-.7v-5.46h.7v.93c.174-.333.424-.587.75-.76.327-.18.697-.27 1.11-.27zm4.118-.93c-.14 0-.26-.05-.36-.15a.503.503 0 01-.15-.37.47.47 0 01.15-.36c.1-.1.22-.15.36-.15.14 0 .26.05.36.15.1.093.15.213.15.36s-.05.27-.15.37c-.1.1-.22.15-.36.15zm.35 1.03V71h-.7v-5.46h.7zm4.145-.1c.654 0 1.187.203 1.6.61.414.4.62.983.62 1.75V71h-.69v-3.12c0-.593-.15-1.047-.45-1.36-.293-.313-.696-.47-1.21-.47-.526 0-.946.167-1.26.5-.313.333-.47.823-.47 1.47V71h-.7v-5.46h.7v.93c.174-.333.424-.587.75-.76.327-.18.697-.27 1.11-.27zm6.059.02c.513 0 .96.12 1.34.36.38.24.653.543.82.91v-1.19h.7v5.6c0 .5-.11.943-.33 1.33a2.192 2.192 0 01-.9.89c-.387.213-.827.32-1.32.32-.7 0-1.284-.167-1.75-.5a2.126 2.126 0 01-.86-1.36h.69c.12.38.346.683.68.91.34.227.753.34 1.24.34.353 0 .67-.077.95-.23.28-.147.5-.367.66-.66.16-.293.24-.64.24-1.04v-1.35a2.22 2.22 0 01-.83.93c-.374.24-.817.36-1.33.36-.5 0-.95-.117-1.35-.35a2.46 2.46 0 01-.93-.99c-.22-.427-.33-.92-.33-1.48 0-.56.11-1.05.33-1.47.226-.427.536-.753.93-.98.4-.233.85-.35 1.35-.35zm2.16 2.81c0-.44-.09-.827-.27-1.16a1.918 1.918 0 00-.74-.77 1.98 1.98 0 00-1.02-.27c-.387 0-.734.087-1.04.26-.307.173-.55.427-.73.76-.174.327-.26.717-.26 1.17 0 .447.086.84.26 1.18.18.333.423.59.73.77.306.173.653.26 1.04.26.373 0 .713-.09 1.02-.27.313-.18.56-.437.74-.77.18-.333.27-.72.27-1.16zm5.732-1.53c.173-.367.446-.67.82-.91.38-.247.83-.37 1.35-.37.493 0 .936.117 1.33.35.4.227.71.553.93.98.226.42.34.91.34 1.47 0 .56-.114 1.053-.34 1.48-.22.427-.53.757-.93.99a2.56 2.56 0 01-1.33.35c-.514 0-.96-.12-1.34-.36a2.228 2.228 0 01-.83-.92v3.78h-.69v-8.04h.69v1.2zm4.06 1.52c0-.453-.09-.843-.27-1.17a1.813 1.813 0 00-.72-.76 2.08 2.08 0 00-1.04-.26c-.374 0-.717.09-1.03.27-.307.18-.55.437-.73.77-.18.333-.27.72-.27 1.16 0 .44.09.827.27 1.16.18.333.423.59.73.77.313.18.656.27 1.03.27a2.08 2.08 0 001.04-.26 1.88 1.88 0 00.72-.77c.18-.34.27-.733.27-1.18zm2.698-4.66V71h-.7v-7.4h.7zm1.265 4.66c0-.56.11-1.05.33-1.47.227-.427.537-.753.93-.98.4-.233.85-.35 1.35-.35.52 0 .967.12 1.34.36.38.24.653.547.82.92v-1.2h.7V71h-.7v-1.21c-.173.373-.45.683-.83.93-.373.24-.82.36-1.34.36-.493 0-.94-.117-1.34-.35a2.474 2.474 0 01-.93-.99c-.22-.427-.33-.92-.33-1.48zm4.77.01c0-.44-.09-.827-.27-1.16a1.918 1.918 0 00-.74-.77 1.98 1.98 0 00-1.02-.27c-.387 0-.733.087-1.04.26-.307.173-.55.427-.73.76-.173.327-.26.717-.26 1.17 0 .447.087.84.26 1.18.18.333.423.59.73.77.307.173.653.26 1.04.26.373 0 .713-.09 1.02-.27.313-.18.56-.437.74-.77.18-.333.27-.72.27-1.16zm3.208-2.14v3.39c0 .333.063.563.19.69s.35.19.67.19h.64v.6h-.75c-.493 0-.86-.113-1.1-.34-.24-.233-.36-.613-.36-1.14v-3.39h-.76v-.59h.76v-1.37h.71v1.37h1.5v.59h-1.5zm4.805 0h-1.27V71h-.7v-4.87h-.76v-.59h.76v-.38c0-.593.15-1.03.45-1.31.306-.28.8-.42 1.48-.42v.6c-.454 0-.774.087-.96.26-.18.173-.27.463-.27.87v.38h1.27v.59zm3.491 4.95c-.513 0-.976-.113-1.39-.34a2.589 2.589 0 01-.97-.98c-.233-.427-.35-.923-.35-1.49s.12-1.06.36-1.48c.24-.427.567-.753.98-.98a2.78 2.78 0 011.39-.35c.514 0 .977.117 1.39.35.42.227.747.553.98.98.24.42.36.913.36 1.48 0 .56-.12 1.053-.36 1.48-.24.427-.57.757-.99.99-.42.227-.886.34-1.4.34zm0-.61c.36 0 .694-.08 1-.24.307-.167.554-.413.74-.74.194-.333.29-.74.29-1.22s-.093-.883-.28-1.21a1.792 1.792 0 00-.74-.74 2.059 2.059 0 00-1-.25c-.36 0-.693.083-1 .25-.306.16-.553.407-.74.74-.18.327-.27.73-.27 1.21s.09.887.27 1.22c.187.327.43.573.73.74.307.16.64.24 1 .24zm4.726-3.96c.154-.34.387-.603.7-.79.32-.187.71-.28 1.17-.28v.73h-.19c-.506 0-.913.137-1.22.41-.306.273-.46.73-.46 1.37V71h-.7v-5.46h.7v.97zm9.424-1.07c.64 0 1.16.203 1.56.61.406.4.61.983.61 1.75V71h-.69v-3.12c0-.593-.144-1.047-.43-1.36-.287-.313-.677-.47-1.17-.47-.514 0-.924.17-1.23.51-.307.34-.46.833-.46 1.48V71h-.69v-3.12c0-.593-.144-1.047-.43-1.36-.287-.313-.68-.47-1.18-.47-.514 0-.924.17-1.23.51-.307.34-.46.833-.46 1.48V71h-.7v-5.46h.7v.94c.173-.34.42-.597.74-.77.32-.18.676-.27 1.07-.27.473 0 .886.113 1.24.34.36.227.62.56.78 1 .146-.433.396-.763.75-.99.36-.233.766-.35 1.22-.35z" fill="#fff"/></svg>