<svg width="129" height="20" viewBox="0 0 129 20" fill="none" xmlns="http://www.w3.org/2000/svg"><path d="M15.154 5.569V1.175H.256v18.2H15.31V14.98H5.144v-2.73h9.308V8.09H5.144V5.569h10.01zm19.644-4.394h-4.914v9.854c0 2.912-1.326 4.134-3.458 4.134-2.106 0-3.432-1.222-3.458-4.134V1.2H18.08v9.828c0 5.954 3.224 8.606 8.346 8.606s8.372-2.652 8.372-8.606V1.175zm3.57.026v18.174h4.887v-5.538h2.912l3.536 5.538h5.642l-4.082-6.188c2.522-.858 3.588-2.704 3.588-5.668 0-4.446-2.366-6.318-8.294-6.318h-8.19zm4.887 4.394h3.536c2.158 0 2.964.676 2.964 2.236 0 1.586-.806 2.236-2.964 2.236h-3.536V5.595zM60.6 19.817l9.1-19.084-4.056.026-9.1 19.058h4.056zm28.23-18.642h-4.913v9.854c0 2.912-1.326 4.134-3.458 4.134-2.106 0-3.432-1.222-3.458-4.134V1.2h-4.888v9.828c0 5.954 3.224 8.606 8.346 8.606s8.372-2.652 8.372-8.606V1.175zm10.98-.26c-4.238.026-7.566 1.872-7.566 5.954 0 3.562 2.964 4.524 7.098 5.512 2.99.754 3.51.858 3.51 1.898 0 .832-.884 1.196-1.898 1.196-2.314 0-4.94-.676-7.306-2.002l-2.184 3.64c2.496 1.664 5.564 2.548 8.944 2.548 4.68 0 7.618-2.132 7.618-6.006 0-3.718-3.042-4.758-7.306-5.902-2.834-.702-3.172-.936-3.172-1.508 0-.832.806-1.196 1.742-1.196 1.794 0 4.238.624 6.318 1.69l2.054-3.77c-2.132-1.3-4.94-2.054-7.852-2.054zm11.023.286v18.174h7.8c5.382 0 9.75-3.926 9.75-9.074 0-5.174-4.368-9.126-9.75-9.126l-7.8.026zm4.888 4.368h2.73c2.704 0 4.914 2.028 4.914 4.706 0 2.704-2.21 4.732-4.914 4.732h-2.73V5.569z" fill="#09B45B"/></svg>