<svg width="130" height="41" viewBox="0 0 130 41" fill="none" xmlns="http://www.w3.org/2000/svg"><path d="M.776 7.234c.09 1.698 1.326 2.844 3.346 2.844 1.892 0 3.14-1.03 3.14-2.548 0-1.712-1.518-2.15-3.011-2.407-1.377-.232-2.574-.463-2.574-1.75 0-1.172.914-1.828 2.33-1.828 1.35 0 2.277.76 2.432 1.93h.708c-.129-1.544-1.3-2.56-3.14-2.56C2.179.914.982 1.88.982 3.41c0 1.712 1.467 2.098 2.909 2.342 1.415.245 2.677.528 2.677 1.84 0 1.16-.979 1.854-2.433 1.854-1.518 0-2.548-.875-2.638-2.213h-.72zm10.742 2.844c1.429 0 2.523-.927 2.806-2.24h-.67c-.257 1.017-1.119 1.648-2.187 1.648-1.455 0-2.368-1.107-2.394-2.626v-.116h5.328c0-.09.013-.193.013-.27-.064-1.943-1.261-3.076-3.011-3.076-1.79 0-3.012 1.365-3.012 3.295 0 2.046 1.274 3.385 3.127 3.385zM9.125 6.19c.102-1.326 1.093-2.214 2.29-2.214 1.274 0 2.188.786 2.291 2.214H9.125zm6.92-4.092a.453.453 0 00.464-.464.453.453 0 00-.463-.463.453.453 0 00-.463.463c0 .27.206.464.463.464zM15.712 10h.657V3.476h-.657V10zm1.89-5.92h4.196l-4.375 5.405V10h5.43v-.604h-4.568l4.389-5.419v-.501h-5.071v.604zm8.798 5.997c1.428 0 2.522-.927 2.805-2.24h-.669c-.257 1.017-1.12 1.648-2.188 1.648-1.454 0-2.368-1.107-2.393-2.626v-.116h5.328c0-.09.013-.193.013-.27-.065-1.943-1.262-3.076-3.012-3.076-1.789 0-3.012 1.365-3.012 3.295 0 2.046 1.275 3.385 3.128 3.385zM24.005 6.19c.103-1.326 1.094-2.214 2.29-2.214 1.275 0 2.189.786 2.292 2.214h-4.582zm12.939 3.887c1.84 0 3.14-1.364 3.14-3.346 0-1.97-1.3-3.334-3.14-3.334s-3.128 1.365-3.128 3.334c0 1.982 1.287 3.346 3.127 3.346zm0-.592c-1.455 0-2.459-1.133-2.459-2.754 0-1.61 1.004-2.755 2.459-2.755 1.454 0 2.458 1.146 2.458 2.755 0 1.621-1.004 2.754-2.459 2.754zm7.455-6.088c-1.197 0-1.969.618-2.342 1.467l-.103-1.39h-.566v6.526h.656V6.783c0-1.699.863-2.78 2.252-2.78 1.262 0 2.021.824 2.021 2.368v3.63h.656V6.346c0-2.06-1.094-2.948-2.574-2.948zm10.379 6.68c1.428 0 2.522-.927 2.805-2.24h-.67c-.256 1.017-1.119 1.648-2.187 1.648-1.454 0-2.368-1.107-2.394-2.626v-.116h5.328c0-.09.013-.193.013-.27-.064-1.943-1.261-3.076-3.011-3.076-1.79 0-3.012 1.365-3.012 3.295 0 2.046 1.274 3.385 3.128 3.385zM52.384 6.19c.103-1.326 1.094-2.214 2.29-2.214 1.275 0 2.188.786 2.291 2.214h-4.581zM64.71 9.396c-.386 0-.579-.13-.579-.631V5.728c0-1.493-.913-2.33-2.548-2.33-1.493 0-2.484.721-2.651 1.905h.656c.168-.798.863-1.326 1.97-1.326 1.222 0 1.917.644 1.917 1.725v.566h-2.214c-1.673 0-2.574.721-2.574 1.944 0 1.158.914 1.866 2.304 1.866 1.326 0 2.11-.605 2.51-1.416v.232c-.026.772.296 1.107 1.068 1.107h.386v-.605h-.245zm-1.235-2.034c0 1.249-.888 2.15-2.432 2.15-1.043 0-1.686-.528-1.686-1.339 0-.862.643-1.338 1.853-1.338h2.265v.527zm5.022-3.886c-1.21 0-1.725.579-1.995 1.3l-.103-1.3h-.566V10h.656V6.693c0-1.326.348-2.587 1.88-2.587h.475v-.63h-.347zm4.331-.078c-1.197 0-1.969.618-2.342 1.467l-.103-1.39h-.566v6.526h.656V6.783c0-1.699.862-2.78 2.252-2.78 1.262 0 2.02.824 2.02 2.368v3.63h.657V6.346c0-2.06-1.094-2.948-2.574-2.948zm4.362-1.3a.454.454 0 00.463-.463.454.454 0 00-.463-.463.454.454 0 00-.464.463c0 .27.206.464.464.464zm-.335 7.903h.656V3.476h-.656V10zm5.21-6.603c-1.196 0-1.968.618-2.341 1.467l-.103-1.39h-.567v6.526h.657V6.783c0-1.699.862-2.78 2.252-2.78 1.261 0 2.02.824 2.02 2.368v3.63h.657V6.346c0-2.06-1.094-2.948-2.574-2.948zm9.343 1.596c-.4-.965-1.274-1.596-2.484-1.596-1.79 0-3.076 1.352-3.076 3.334 0 2.059 1.287 3.346 3.076 3.346 1.222 0 2.085-.644 2.496-1.66v1.158c0 1.737-.823 2.484-2.393 2.484-1.223 0-2.072-.554-2.278-1.545h-.682c.206 1.39 1.325 2.137 2.908 2.137 2.11 0 3.102-1.004 3.102-3.05V3.476h-.566l-.103 1.518zm-2.433 4.492c-1.454 0-2.458-1.133-2.458-2.754 0-1.622 1.004-2.755 2.458-2.755 1.455 0 2.458 1.133 2.458 2.767 0 1.61-1.003 2.742-2.458 2.742zm4.35-1.493c.051 1.351 1.145 2.085 2.78 2.085 1.402 0 2.535-.708 2.535-1.866 0-1.377-1.21-1.648-2.613-1.84-1.016-.142-1.917-.258-1.917-1.172 0-.746.733-1.235 1.84-1.235 1.043 0 1.789.502 1.905 1.35h.67c-.117-1.273-1.16-1.917-2.575-1.917-1.454-.013-2.497.734-2.497 1.854 0 1.312 1.21 1.557 2.549 1.737 1.094.154 1.982.296 1.982 1.261 0 .772-.811 1.261-1.88 1.261-1.248 0-2.059-.579-2.11-1.518h-.67zm10.371-5.894a.453.453 0 00.463-.464.453.453 0 00-.463-.463.454.454 0 00-.464.463c0 .27.206.464.464.464zM103.361 10h.656V3.476h-.656V10zm5.211-6.603c-1.197 0-1.969.618-2.342 1.467l-.103-1.39h-.567v6.526h.657V6.783c0-1.699.862-2.78 2.252-2.78 1.261 0 2.021.824 2.021 2.368v3.63h.656V6.346c0-2.06-1.094-2.948-2.574-2.948zM3.62 18.476c-1.21 0-1.724.579-1.994 1.3l-.103-1.3H.956V25h.657v-3.307c0-1.326.347-2.587 1.879-2.587h.476v-.63H3.62zm3.738 6.602c1.429 0 2.523-.927 2.806-2.24h-.67c-.257 1.017-1.119 1.648-2.187 1.648-1.455 0-2.368-1.107-2.394-2.626v-.116h5.328c0-.09.013-.193.013-.27-.064-1.943-1.261-3.076-3.012-3.076-1.788 0-3.011 1.364-3.011 3.295 0 2.046 1.274 3.385 3.127 3.385zM4.964 21.19c.103-1.325 1.094-2.213 2.291-2.213 1.274 0 2.188.784 2.291 2.213H4.964zm12.327 3.205c-.386 0-.579-.13-.579-.631v-3.037c0-1.493-.914-2.33-2.548-2.33-1.493 0-2.484.721-2.651 1.905h.656c.167-.798.862-1.326 1.97-1.326 1.222 0 1.917.644 1.917 1.725v.566h-2.214c-1.673 0-2.574.721-2.574 1.944 0 1.158.914 1.866 2.304 1.866 1.325 0 2.11-.605 2.51-1.416v.232c-.026.772.295 1.107 1.068 1.107h.386v-.605h-.245zm-1.235-2.034c0 1.249-.888 2.15-2.433 2.15-1.042 0-1.686-.528-1.686-1.339 0-.862.644-1.338 1.854-1.338h2.265v.527zm2.357 2.639h.657v-9.01h-.657v9.01zm6.158-1.52c0 1.043.424 1.52 1.531 1.52h.953v-.605h-.901c-.682 0-.927-.258-.927-.927V19.08h1.763v-.604h-1.763v-1.828h-.656v1.828h-1.236v.604h1.236v4.402zm3.817-6.383a.453.453 0 00.463-.463.453.453 0 00-.463-.463.454.454 0 00-.464.463c0 .27.206.463.464.463zM28.053 25h.656v-6.524h-.656V25zm9.484-6.602c-1.197 0-1.97.67-2.343 1.635-.308-1.081-1.12-1.635-2.149-1.635-1.12 0-1.789.657-2.123 1.468l-.103-1.39h-.566V25h.656v-3.32c0-1.596.772-2.677 2.02-2.677 1.133 0 1.84.798 1.84 2.304V25h.657v-3.553c.039-1.492.811-2.445 2.034-2.445 1.132 0 1.814.76 1.814 2.24V25h.67v-3.784c0-1.97-1.043-2.819-2.407-2.819zm6.646 6.68c1.428 0 2.522-.927 2.805-2.24h-.669c-.257 1.017-1.12 1.648-2.188 1.648-1.454 0-2.368-1.107-2.394-2.626v-.116h5.328c0-.09.013-.193.013-.27-.064-1.943-1.26-3.076-3.011-3.076-1.789 0-3.012 1.364-3.012 3.295 0 2.046 1.275 3.385 3.128 3.385zm-2.394-3.887c.103-1.325 1.094-2.213 2.29-2.213 1.275 0 2.189.784 2.291 2.213H41.79zm11.639 3.81h.707l1.93-5.483L57.907 25h.708l2.317-6.524h-.67l-2.007 5.74-1.866-5.74h-.605l-1.97 5.74-1.904-5.74h-.695L53.428 25zm8.755-7.902a.453.453 0 00.464-.464.453.453 0 00-.464-.463.453.453 0 00-.463.463c0 .27.206.463.463.463zM61.85 25h.656v-6.524h-.656V25zm2.688-1.518c0 1.042.425 1.518 1.532 1.518h.952v-.604h-.9c-.683 0-.927-.258-.927-.927V19.08h1.763v-.604h-1.763v-1.828h-.657v1.828h-1.235v.604h1.235v4.402zm6.494-5.084c-1.223 0-1.982.682-2.355 1.622v-4.028h-.656V25h.656v-3.217c0-1.699.862-2.78 2.252-2.78 1.249 0 2.02.824 2.02 2.368v3.63h.657v-3.655c0-2.06-1.094-2.948-2.574-2.948zm10.39 6.68c1.43 0 2.523-.927 2.806-2.24h-.669c-.257 1.017-1.12 1.648-2.188 1.648-1.454 0-2.368-1.107-2.393-2.626v-.116h5.328c0-.09.013-.193.013-.27-.065-1.943-1.262-3.076-3.012-3.076-1.789 0-3.011 1.364-3.011 3.295 0 2.046 1.274 3.385 3.127 3.385zm-2.393-3.887c.103-1.325 1.094-2.213 2.29-2.213 1.275 0 2.189.784 2.292 2.213h-4.582zm5.666 3.81h.759l2.162-2.87L89.777 25h.798l-2.535-3.334 2.406-3.191H89.7l-2.06 2.702-2.033-2.702h-.785l2.407 3.191L84.694 25zm7.304-1.52c0 1.043.425 1.52 1.532 1.52h.952v-.605h-.9c-.683 0-.927-.258-.927-.927V19.08h1.763v-.604h-1.763v-1.828h-.657v1.828h-1.235v.604h1.235v4.402zm6.164 1.597c1.43 0 2.523-.927 2.806-2.24h-.669c-.257 1.017-1.12 1.648-2.188 1.648-1.454 0-2.368-1.107-2.394-2.626v-.116h5.328c0-.09.013-.193.013-.27-.064-1.943-1.261-3.076-3.011-3.076-1.79 0-3.012 1.364-3.012 3.295 0 2.046 1.274 3.385 3.127 3.385zM95.77 21.19c.103-1.325 1.094-2.213 2.29-2.213 1.275 0 2.188.784 2.291 2.213h-4.581zm9.598-2.793c-1.197 0-1.969.618-2.342 1.468l-.103-1.39h-.566V25h.656v-3.217c0-1.699.862-2.78 2.252-2.78 1.261 0 2.021.824 2.021 2.368v3.63h.656v-3.655c0-2.06-1.094-2.948-2.574-2.948zm9.254 1.545c-.399-.927-1.274-1.545-2.497-1.545-1.788 0-3.075 1.364-3.075 3.334 0 2.059 1.287 3.346 3.075 3.346 1.223 0 2.072-.657 2.484-1.57l.103 1.492h.567v-9.008h-.657v3.95zm-2.445 4.543c-1.454 0-2.458-1.133-2.458-2.754 0-1.61 1.004-2.755 2.458-2.755 1.454 0 2.458 1.146 2.458 2.767 0 1.61-1.004 2.742-2.458 2.742zm7.528.592c1.429 0 2.523-.927 2.806-2.24h-.669c-.258 1.017-1.12 1.648-2.188 1.648-1.455 0-2.368-1.107-2.394-2.626v-.116h5.328c0-.09.013-.193.013-.27-.064-1.943-1.261-3.076-3.012-3.076-1.789 0-3.011 1.364-3.011 3.295 0 2.046 1.274 3.385 3.127 3.385zm-2.394-3.887c.103-1.325 1.094-2.213 2.291-2.213 1.274 0 2.188.784 2.291 2.213h-4.582zm11.915-1.248c-.399-.927-1.274-1.545-2.496-1.545-1.789 0-3.076 1.364-3.076 3.334 0 2.059 1.287 3.346 3.076 3.346 1.222 0 2.072-.657 2.483-1.57l.103 1.492h.567v-9.008h-.657v3.95zm-2.445 4.543c-1.454 0-2.458-1.133-2.458-2.754 0-1.61 1.004-2.755 2.458-2.755 1.454 0 2.458 1.146 2.458 2.767 0 1.61-1.004 2.742-2.458 2.742zM3.968 33.398c-1.223 0-1.982.682-2.355 1.622v-4.028H.956V40h.657v-3.218c0-1.699.862-2.78 2.252-2.78 1.248 0 2.02.824 2.02 2.368v3.63h.657v-3.655c0-2.06-1.094-2.948-2.574-2.948zm6.821 6.68c1.84 0 3.14-1.364 3.14-3.346 0-1.97-1.3-3.334-3.14-3.334s-3.127 1.364-3.127 3.334c0 1.982 1.287 3.346 3.127 3.346zm0-.592c-1.454 0-2.458-1.133-2.458-2.754 0-1.61 1.004-2.755 2.458-2.755 1.455 0 2.459 1.146 2.459 2.755 0 1.621-1.004 2.754-2.459 2.754zm9.18-2.806c0 1.712-.849 2.793-2.2 2.793-1.21 0-1.956-.824-1.956-2.381v-3.616h-.657v3.655c0 2.046 1.069 2.947 2.51 2.947 1.158 0 1.918-.618 2.29-1.455l.091 1.378h.58v-6.525h-.657v3.204zm4.866-3.204c-1.21 0-1.724.579-1.995 1.3l-.102-1.3h-.567V40h.657v-3.308c0-1.326.347-2.587 1.879-2.587h.476v-.63h-.348zm.861 4.517c.051 1.351 1.145 2.085 2.78 2.085 1.403 0 2.535-.708 2.535-1.866 0-1.377-1.21-1.648-2.612-1.84-1.017-.142-1.918-.258-1.918-1.172 0-.746.734-1.235 1.84-1.235 1.043 0 1.79.502 1.905 1.35h.67c-.117-1.273-1.159-1.917-2.575-1.917-1.454-.013-2.496.734-2.496 1.854 0 1.312 1.21 1.557 2.548 1.737 1.094.154 1.982.296 1.982 1.261 0 .772-.811 1.261-1.88 1.261-1.248 0-2.058-.579-2.11-1.518h-.669zm6.377 1.583c0 .296.206.489.49.489a.466.466 0 00.488-.49c0-.295-.206-.475-.489-.475-.283 0-.489.18-.489.476z" fill="#000"/></svg>