<svg width="251" height="39" viewBox="0 0 251 39" fill="none" xmlns="http://www.w3.org/2000/svg"><path d="M33.794 1.622h-9.778v19.607c0 5.794-2.638 8.226-6.88 8.226-4.19 0-6.83-2.431-6.881-8.226V1.673H.529V21.23c0 11.848 6.415 17.124 16.607 17.124 10.191 0 16.658-5.276 16.658-17.124V1.622zm21.846-.518c-8.432.052-15.054 3.725-15.054 11.848 0 7.087 5.897 9.001 14.123 10.967 5.95 1.5 6.984 1.708 6.984 3.777 0 1.656-1.759 2.38-3.776 2.38-4.605 0-9.83-1.345-14.538-3.984l-4.346 7.243c4.967 3.311 11.072 5.07 17.797 5.07 9.313 0 15.159-4.242 15.159-11.95 0-7.399-6.053-9.468-14.538-11.744-5.639-1.397-6.312-1.863-6.312-3.001 0-1.655 1.604-2.38 3.467-2.38 3.57 0 8.432 1.242 12.571 3.363l4.087-7.502c-4.242-2.586-9.83-4.087-15.624-4.087zm21.935.57v36.162h15.52c10.71 0 19.401-7.812 19.401-18.055 0-10.296-8.691-18.16-19.4-18.16l-15.52.052zm9.726 8.69h5.432c5.38 0 9.778 4.036 9.778 9.365 0 5.38-4.397 9.416-9.778 9.416h-5.432v-18.78zm37.137 28.352L142.545.742l-8.07.052-18.108 37.922h8.071zM171.92 1.622h-9.726v21.677c0 4.397-2.017 6.156-5.122 6.156-1.914 0-3.414-.672-4.449-2.173l-7.812 5.07c2.432 4.501 6.881 6.002 12.779 6.002 8.795 0 14.33-3.415 14.33-15.055V1.622zm7.407.051v36.163h9.726V27.541h6.208c10.761 0 15.883-3.984 15.883-12.83 0-8.847-4.863-13.038-15.986-13.038h-15.831zm9.726 8.382h5.743c4.345 0 6.208 1.603 6.208 5.018 0 3.466-1.914 4.966-6.208 4.966h-5.743v-9.985zM236.47 25.42l14.434-23.798h-11.536l-7.709 13.502-7.657-13.502h-11.64l14.382 23.901v12.313h9.726V25.42z" fill="#09B45B"/></svg>