<svg width="134" height="23" viewBox="0 0 134 23" fill="none" xmlns="http://www.w3.org/2000/svg"><path d="M6.3 22.461V.792H.472v21.67H6.3zm24.77 0V.761h-5.734v12.121L16.594.762h-6.045v21.7h5.735v-12.09l8.742 12.09h6.045zM35.318.792v21.67h9.3c6.417 0 11.625-4.682 11.625-10.82 0-6.169-5.208-10.88-11.625-10.88l-9.3.03zM41.145 6H44.4c3.224 0 5.859 2.418 5.859 5.611 0 3.224-2.635 5.642-5.86 5.642h-3.254V6zm24.763 16.461V.792H60.08v21.67h5.828zM81.193.482c-6.324 0-11.439 4.991-11.439 11.16 0 6.138 5.115 11.13 11.439 11.13 3.875 0 7.285-1.86 9.331-4.744l-5.053-2.852a5.182 5.182 0 01-4.247 2.14c-3.162 0-5.363-2.543-5.363-5.674 0-3.162 2.201-5.704 5.363-5.704 1.798 0 3.286.837 4.247 2.14l5.053-2.853C88.478 2.342 85.068.482 81.193.482zM111.628 6V.761H93.865v21.7h17.949v-5.239h-12.12v-3.255h11.097v-4.96H99.694V6h11.934zM123.952.451c-5.053.031-9.021 2.232-9.021 7.1 0 4.246 3.534 5.393 8.463 6.571 3.565.9 4.185 1.023 4.185 2.263 0 .992-1.054 1.426-2.263 1.426-2.759 0-5.89-.806-8.711-2.387l-2.604 4.34c2.976 1.984 6.634 3.038 10.664 3.038 5.58 0 9.083-2.542 9.083-7.16 0-4.434-3.627-5.674-8.711-7.038-3.379-.837-3.782-1.116-3.782-1.798 0-.992.961-1.426 2.077-1.426 2.139 0 5.053.744 7.533 2.015l2.449-4.495c-2.542-1.55-5.89-2.449-9.362-2.449z" fill="#09B45B"/></svg>