<svg width="163" height="43" viewBox="0 0 163 43" fill="none" xmlns="http://www.w3.org/2000/svg"><path d="M.741 3.562h3.534V15h2.166V3.562h3.515V1.795H.741v1.767zm10.687 6.156c0 3.23 2.185 5.453 4.902 5.453 1.748 0 3.002-.836 3.667-1.729V15h2.185V4.531h-2.185v1.52c-.646-.855-1.862-1.691-3.63-1.691-2.754 0-4.94 2.128-4.94 5.358zm8.569.038c0 2.261-1.54 3.534-3.173 3.534-1.615 0-3.173-1.311-3.173-3.572s1.558-3.477 3.173-3.477c1.634 0 3.173 1.273 3.173 3.515zm7.196-3.686V4.531h-2.166v15.447h2.166V13.48a4.733 4.733 0 003.648 1.691c2.755 0 4.92-2.223 4.92-5.453 0-3.23-2.165-5.358-4.92-5.358-1.71 0-2.983.836-3.648 1.71zm6.365 3.648c0 2.261-1.558 3.572-3.192 3.572-1.615 0-3.173-1.273-3.173-3.534 0-2.242 1.558-3.515 3.173-3.515 1.634 0 3.192 1.216 3.192 3.477zM42.839 15h2.166V4.531H42.84V15zm1.102-11.856c.76 0 1.368-.608 1.368-1.387S44.701.37 43.941.37a1.37 1.37 0 00-1.387 1.387 1.37 1.37 0 001.387 1.387zM55.278 15h2.147V8.825c0-2.926-1.843-4.465-4.294-4.465-1.254 0-2.413.513-3.116 1.368V4.531h-2.166V15h2.166V9.148c0-1.919 1.045-2.907 2.64-2.907 1.578 0 2.623.988 2.623 2.907V15zm5.252-2.907c0 2.128 1.159 2.907 3.02 2.907h1.71v-1.805h-1.33c-.911 0-1.215-.323-1.215-1.102V6.298h2.546V4.531h-2.546V1.928H60.53v2.603h-1.235v1.767h1.235v5.795zm16.702-2.337c0-3.287-2.356-5.396-5.339-5.396-2.983 0-5.339 2.109-5.339 5.396s2.261 5.415 5.244 5.415c3.002 0 5.434-2.128 5.434-5.415zm-8.474 0c0-2.375 1.463-3.515 3.097-3.515 1.615 0 3.154 1.14 3.154 3.515s-1.596 3.534-3.211 3.534c-1.634 0-3.04-1.159-3.04-3.534zm15.893 2.337c0 2.128 1.159 2.907 3.02 2.907h1.71v-1.805h-1.33c-.911 0-1.215-.323-1.215-1.102V6.298h2.546V4.531h-2.546V1.928H84.65v2.603h-1.235v1.767h1.235v5.795zm11.135-5.909c1.615 0 2.888 1.026 2.926 2.641h-5.795c.228-1.653 1.406-2.641 2.87-2.641zm4.902 5.7h-2.337c-.399.817-1.14 1.463-2.47 1.463-1.596 0-2.83-1.045-2.983-2.774h7.999c.057-.361.076-.703.076-1.064 0-3.078-2.109-5.149-5.092-5.149-3.097 0-5.225 2.109-5.225 5.396s2.223 5.415 5.225 5.415c2.565 0 4.218-1.463 4.807-3.287zm1.695-2.128c0 3.287 2.128 5.415 5.13 5.415 2.565 0 4.237-1.425 4.826-3.477h-2.337c-.399 1.083-1.197 1.653-2.489 1.653-1.748 0-2.907-1.292-2.907-3.591 0-2.28 1.159-3.572 2.907-3.572 1.292 0 2.128.646 2.489 1.653h2.337c-.589-2.204-2.261-3.477-4.826-3.477-3.002 0-5.13 2.128-5.13 5.396zM114.497 15h2.166V9.148c0-1.919 1.045-2.907 2.641-2.907 1.577 0 2.622.988 2.622 2.907V15h2.147V8.825c0-2.926-1.824-4.465-4.161-4.465-1.349 0-2.527.513-3.249 1.387V.94h-2.166V15zM9.234 35.074c-.114-3.781-6.023-2.603-6.023-4.712 0-.703.608-1.178 1.767-1.178 1.178 0 1.881.627 1.957 1.539h2.166c-.114-2.09-1.672-3.363-4.047-3.363-2.47 0-4.028 1.349-4.028 3.021 0 3.838 6.08 2.66 6.08 4.712 0 .722-.665 1.254-1.919 1.254-1.197 0-2.014-.703-2.09-1.558H.855c.095 1.9 1.862 3.382 4.37 3.382 2.47 0 4.009-1.33 4.009-3.097zm2.682.019c0 2.128 1.16 2.907 3.021 2.907h1.71v-1.805h-1.33c-.912 0-1.216-.323-1.216-1.102v-5.795h2.546v-1.767h-2.546v-2.603h-2.185v2.603h-1.235v1.767h1.235v5.795zm16.703-2.337c0-3.287-2.356-5.396-5.34-5.396-2.982 0-5.338 2.109-5.338 5.396s2.26 5.415 5.244 5.415c3.002 0 5.434-2.128 5.434-5.415zm-8.474 0c0-2.375 1.463-3.515 3.097-3.515 1.615 0 3.154 1.14 3.154 3.515S24.8 36.29 23.185 36.29c-1.634 0-3.04-1.159-3.04-3.534zm9.893 0c0 3.287 2.128 5.415 5.13 5.415 2.565 0 4.237-1.425 4.826-3.477h-2.337c-.399 1.083-1.197 1.653-2.489 1.653-1.748 0-2.907-1.292-2.907-3.591 0-2.28 1.159-3.572 2.907-3.572 1.292 0 2.128.646 2.489 1.653h2.337c-.589-2.204-2.261-3.477-4.826-3.477-3.002 0-5.13 2.128-5.13 5.396zM42.153 38h2.166v-4.503L48.194 38h2.926l-4.825-5.225 4.825-5.244h-3.002l-3.8 4.579v-8.17h-2.165V38zm18.329-2.926c-.114-3.781-6.023-2.603-6.023-4.712 0-.703.608-1.178 1.767-1.178 1.178 0 1.881.627 1.957 1.539h2.166c-.114-2.09-1.672-3.363-4.047-3.363-2.47 0-4.028 1.349-4.028 3.021 0 3.838 6.08 2.66 6.08 4.712 0 .722-.665 1.254-1.919 1.254-1.197 0-2.014-.703-2.09-1.558h-2.242c.095 1.9 1.862 3.382 4.37 3.382 2.47 0 4.009-1.33 4.009-3.097zM68.024 38h2.185v-8.702h1.938v-1.767h-1.938v-.741c0-1.197.456-1.653 1.786-1.653v-1.805c-2.736 0-3.971 1.045-3.971 3.458v.741h-1.235v1.767h1.235V38zm8.209-5.51c0-2.223.988-2.888 2.584-2.888h.55V27.36c-1.481 0-2.526.646-3.134 1.691v-1.52h-2.166V38h2.166v-5.51zm15.1.266c0-3.287-2.355-5.396-5.338-5.396s-5.34 2.109-5.34 5.396 2.262 5.415 5.245 5.415c3.002 0 5.434-2.128 5.434-5.415zm-8.473 0c0-2.375 1.463-3.515 3.097-3.515 1.615 0 3.154 1.14 3.154 3.515S87.515 36.29 85.9 36.29c-1.634 0-3.04-1.159-3.04-3.534zM108.314 38h2.147v-6.175c0-2.926-1.862-4.465-4.313-4.465-1.52 0-3.002.798-3.648 2.071-.722-1.368-2.109-2.071-3.762-2.071-1.254 0-2.394.513-3.097 1.368v-1.197h-2.166V38h2.166v-5.852c0-1.919 1.045-2.907 2.64-2.907 1.578 0 2.623.988 2.623 2.907V38h2.147v-5.852c0-1.919 1.045-2.907 2.641-2.907 1.577 0 2.622.988 2.622 2.907V38zm9.516-10.431h2.109c.133-.969.836-1.881 2.356-1.881 1.482 0 2.261.798 2.261 1.995 0 1.482-1.197 2.052-3.154 2.071h-.513v1.786h.494c2.261 0 3.439.627 3.439 2.451 0 1.292-.798 2.28-2.413 2.28-1.634 0-2.584-.988-2.679-2.28h-2.09c.133 2.717 2.166 4.085 4.788 4.085 2.888 0 4.446-1.672 4.446-3.876 0-1.919-.931-3.116-2.375-3.553v-.076c1.083-.361 2.128-1.482 2.128-3.135 0-2.014-1.501-3.61-4.256-3.61-2.527 0-4.389 1.349-4.541 3.743zm18.705 1.501v-1.539h-2.166v15.447h2.166V36.48a4.733 4.733 0 003.648 1.691c2.755 0 4.921-2.223 4.921-5.453 0-3.23-2.166-5.358-4.921-5.358-1.71 0-2.983.836-3.648 1.71zm6.365 3.648c0 2.261-1.558 3.572-3.192 3.572-1.615 0-3.173-1.273-3.173-3.534 0-2.242 1.558-3.515 3.173-3.515 1.634 0 3.192 1.216 3.192 3.477zm4.688 2.375c0 2.128 1.159 2.907 3.021 2.907h1.71v-1.805h-1.33c-.912 0-1.216-.323-1.216-1.102v-5.795h2.546v-1.767h-2.546v-2.603h-2.185v2.603h-1.235v1.767h1.235v5.795zm14.537-.019c-.114-3.781-6.023-2.603-6.023-4.712 0-.703.608-1.178 1.767-1.178 1.178 0 1.881.627 1.957 1.539h2.166c-.114-2.09-1.672-3.363-4.047-3.363-2.47 0-4.028 1.349-4.028 3.021 0 3.838 6.08 2.66 6.08 4.712 0 .722-.665 1.254-1.919 1.254-1.197 0-2.014-.703-2.09-1.558h-2.242c.095 1.9 1.862 3.382 4.37 3.382 2.47 0 4.009-1.33 4.009-3.097z" fill="#fff"/></svg>