<svg width="164" height="30" viewBox="0 0 164 30" fill="none" xmlns="http://www.w3.org/2000/svg"><path d="M5.868.612v.696H3.54V9H2.7V1.308H.36V.612h5.508zm2.166 3c.184-.408.464-.724.84-.948.384-.224.852-.336 1.404-.336v.876h-.228c-.608 0-1.096.164-1.464.492-.368.328-.552.876-.552 1.644V9h-.84V2.448h.84v1.164zm3.124 2.1c0-.672.132-1.26.396-1.764a2.881 2.881 0 011.116-1.176c.48-.28 1.02-.42 1.62-.42.624 0 1.16.144 1.608.432.456.288.784.656.984 1.104v-1.44h.84V9h-.84V7.548c-.208.448-.54.82-.996 1.116-.448.288-.984.432-1.608.432-.592 0-1.128-.14-1.608-.42a2.964 2.964 0 01-1.116-1.188c-.264-.512-.396-1.104-.396-1.776zm5.724.012c0-.528-.108-.992-.324-1.392a2.3 2.3 0 00-.888-.924 2.373 2.373 0 00-1.224-.324c-.464 0-.88.104-1.248.312-.368.208-.66.512-.876.912-.208.392-.312.86-.312 1.404 0 .536.104 1.008.312 1.416.216.4.508.708.876.924.368.208.784.312 1.248.312.448 0 .856-.108 1.224-.324a2.3 2.3 0 00.888-.924c.216-.4.324-.864.324-1.392zm2.374-.012c0-.672.136-1.26.408-1.764a2.881 2.881 0 011.116-1.176c.48-.28 1.02-.42 1.62-.42.576 0 1.096.14 1.56.42.464.28.804.644 1.02 1.092V.12h.84V9h-.84V7.536a2.56 2.56 0 01-.984 1.128c-.456.288-.992.432-1.608.432-.6 0-1.14-.14-1.62-.42a2.964 2.964 0 01-1.116-1.188c-.264-.512-.396-1.104-.396-1.776zm5.724.012c0-.528-.108-.992-.324-1.392a2.3 2.3 0 00-.888-.924 2.373 2.373 0 00-1.224-.324c-.464 0-.88.104-1.248.312-.368.208-.66.512-.876.912-.208.392-.312.86-.312 1.404 0 .536.104 1.008.312 1.416.216.4.508.708.876.924.368.208.784.312 1.248.312.448 0 .856-.108 1.224-.324a2.3 2.3 0 00.888-.924c.216-.4.324-.864.324-1.392zm8.685-.336c0 .288-.008.508-.024.66h-5.436c.024.496.144.92.36 1.272s.5.62.852.804a2.54 2.54 0 001.152.264c.544 0 1-.132 1.368-.396a1.85 1.85 0 00.744-1.068h.888a2.792 2.792 0 01-1.032 1.572c-.52.4-1.176.6-1.968.6a3.343 3.343 0 01-1.656-.408 3.016 3.016 0 01-1.152-1.176c-.272-.512-.408-1.108-.408-1.788 0-.68.136-1.276.408-1.788a2.836 2.836 0 011.14-1.176c.488-.272 1.044-.408 1.668-.408.624 0 1.168.136 1.632.408.472.272.832.64 1.08 1.104.256.456.384.964.384 1.524zm-.852-.024c.008-.488-.092-.904-.3-1.248a1.947 1.947 0 00-.828-.78 2.54 2.54 0 00-1.152-.264c-.624 0-1.156.2-1.596.6-.44.4-.684.964-.732 1.692h4.608zm6.774-2.208v4.068c0 .4.076.676.228.828.152.152.42.228.804.228h.768V9h-.9c-.592 0-1.032-.136-1.32-.408-.288-.28-.432-.736-.432-1.368V3.156h-.912v-.708h.912V.804h.852v1.644h1.8v.708h-1.8zm6.305-.828c.496 0 .94.104 1.332.312.4.208.713.528.937.96.231.424.347.944.347 1.56V9h-.828V5.256c0-.712-.18-1.256-.54-1.632-.352-.376-.836-.564-1.452-.564-.632 0-1.136.2-1.512.6-.376.4-.564.988-.564 1.764V9h-.84V.12h.84v3.444a2.18 2.18 0 01.913-.912 2.878 2.878 0 011.367-.324zm10.402 3.06c0 .288-.008.508-.024.66h-5.436c.024.496.144.92.36 1.272s.5.62.852.804a2.54 2.54 0 001.152.264c.544 0 1-.132 1.368-.396a1.85 1.85 0 00.744-1.068h.888a2.792 2.792 0 01-1.032 1.572c-.52.4-1.176.6-1.968.6a3.343 3.343 0 01-1.656-.408 3.016 3.016 0 01-1.152-1.176c-.272-.512-.408-1.108-.408-1.788 0-.68.136-1.276.408-1.788a2.836 2.836 0 011.14-1.176c.488-.272 1.044-.408 1.668-.408.624 0 1.168.136 1.632.408.472.272.832.64 1.08 1.104.256.456.384.964.384 1.524zm-.852-.024c.008-.488-.092-.904-.3-1.248a1.947 1.947 0 00-.828-.78 2.54 2.54 0 00-1.152-.264c-.624 0-1.156.2-1.596.6-.44.4-.684.964-.732 1.692h4.608zM61.928.612v5.28c0 .832.196 1.448.588 1.848.4.4.944.6 1.632.6s1.224-.196 1.608-.588c.392-.4.588-1.02.588-1.86V.612h.84V5.88c0 1.064-.284 1.864-.852 2.4-.56.536-1.292.804-2.196.804-.904 0-1.64-.268-2.208-.804-.56-.536-.84-1.336-.84-2.4V.612h.84zm9.674 8.472c-.552 0-1.04-.096-1.464-.288a2.391 2.391 0 01-.984-.804 2.111 2.111 0 01-.384-1.152h.888c.04.408.22.768.54 1.08.32.304.788.456 1.404.456.568 0 1.016-.144 1.344-.432.336-.296.504-.668.504-1.116 0-.36-.092-.648-.276-.864a1.618 1.618 0 00-.684-.492 9.585 9.585 0 00-1.128-.36 9.862 9.862 0 01-1.332-.444 2.12 2.12 0 01-.84-.672c-.232-.304-.348-.716-.348-1.236 0-.432.112-.816.336-1.152.224-.344.54-.612.948-.804.408-.192.876-.288 1.404-.288.776 0 1.4.192 1.872.576.48.376.756.864.828 1.464h-.912c-.056-.344-.244-.648-.564-.912-.32-.272-.752-.408-1.296-.408-.504 0-.924.136-1.26.408-.336.264-.504.628-.504 1.092 0 .352.092.636.276.852.184.216.412.38.684.492.28.112.656.232 1.128.36.544.152.984.304 1.32.456a2.1 2.1 0 01.852.672c.232.304.348.712.348 1.224 0 .392-.104.764-.312 1.116a2.277 2.277 0 01-.924.852c-.408.216-.896.324-1.464.324zM84.126.612v.696h-2.328V9h-.84V1.308h-2.34V.612h5.508zm7.254 4.776c0 .288-.008.508-.024.66H85.92c.024.496.144.92.36 1.272s.5.62.852.804a2.54 2.54 0 001.152.264c.544 0 1-.132 1.368-.396a1.85 1.85 0 00.744-1.068h.888a2.792 2.792 0 01-1.032 1.572c-.52.4-1.176.6-1.968.6a3.343 3.343 0 01-1.656-.408 3.016 3.016 0 01-1.152-1.176c-.272-.512-.408-1.108-.408-1.788 0-.68.136-1.276.408-1.788a2.836 2.836 0 011.14-1.176c.488-.272 1.044-.408 1.668-.408.624 0 1.168.136 1.632.408.472.272.832.64 1.08 1.104.256.456.384.964.384 1.524zm-.852-.024c.008-.488-.092-.904-.3-1.248a1.947 1.947 0 00-.828-.78 2.54 2.54 0 00-1.152-.264c-.624 0-1.156.2-1.596.6-.44.4-.684.964-.732 1.692h4.608zm2.005.36c0-.68.136-1.272.408-1.776a2.858 2.858 0 011.128-1.176c.48-.28 1.028-.42 1.644-.42.808 0 1.472.2 1.992.6.528.4.868.944 1.02 1.632h-.9a1.808 1.808 0 00-.732-1.104c-.368-.272-.828-.408-1.38-.408-.44 0-.836.1-1.188.3-.352.2-.632.5-.84.9-.2.392-.3.876-.3 1.452s.1 1.064.3 1.464c.208.4.488.7.84.9.352.2.748.3 1.188.3.552 0 1.012-.132 1.38-.396.376-.272.62-.648.732-1.128h.9a2.748 2.748 0 01-1.02 1.62c-.528.408-1.192.612-1.992.612-.616 0-1.164-.136-1.644-.408a2.957 2.957 0 01-1.128-1.176c-.272-.512-.408-1.108-.408-1.788zm10.863-3.396c.496 0 .94.104 1.332.312.4.208.712.528.936.96.232.424.348.944.348 1.56V9h-.828V5.256c0-.712-.18-1.256-.54-1.632-.352-.376-.836-.564-1.452-.564-.632 0-1.136.2-1.512.6-.376.4-.564.988-.564 1.764V9h-.84V.12h.84v3.444a2.18 2.18 0 01.912-.912 2.878 2.878 0 011.368-.324zm7.179-1.176V.396h2.04V9h-.852V1.152h-1.188zm3.912 3.468c0-1.376.212-2.444.636-3.204.424-.76 1.184-1.14 2.28-1.14 1.096 0 1.856.38 2.28 1.14.424.76.636 1.828.636 3.204 0 1.4-.212 2.484-.636 3.252-.424.768-1.184 1.152-2.28 1.152-1.104 0-1.868-.384-2.292-1.152-.416-.768-.624-1.852-.624-3.252zm5.004 0c0-.744-.052-1.372-.156-1.884-.104-.512-.308-.924-.612-1.236-.304-.312-.744-.468-1.32-.468-.576 0-1.016.156-1.32.468-.304.312-.508.724-.612 1.236-.104.512-.156 1.14-.156 1.884 0 .768.052 1.412.156 1.932.104.512.308.924.612 1.236.304.312.744.468 1.32.468.576 0 1.016-.156 1.32-.468.304-.312.508-.724.612-1.236.104-.52.156-1.164.156-1.932zm2.391 0c0-1.376.212-2.444.636-3.204.424-.76 1.184-1.14 2.28-1.14 1.096 0 1.856.38 2.28 1.14.424.76.636 1.828.636 3.204 0 1.4-.212 2.484-.636 3.252-.424.768-1.184 1.152-2.28 1.152-1.104 0-1.868-.384-2.292-1.152-.416-.768-.624-1.852-.624-3.252zm5.004 0c0-.744-.052-1.372-.156-1.884-.104-.512-.308-.924-.612-1.236-.304-.312-.744-.468-1.32-.468-.576 0-1.016.156-1.32.468-.304.312-.508.724-.612 1.236-.104.512-.156 1.14-.156 1.884 0 .768.052 1.412.156 1.932.104.512.308.924.612 1.236.304.312.744.468 1.32.468.576 0 1.016-.156 1.32-.468.304-.312.508-.724.612-1.236.104-.52.156-1.164.156-1.932zm8.731 4.476a3.411 3.411 0 01-1.668-.408 3.1 3.1 0 01-1.164-1.176c-.28-.512-.42-1.108-.42-1.788 0-.68.144-1.272.432-1.776a2.97 2.97 0 011.176-1.176 3.333 3.333 0 011.668-.42c.616 0 1.172.14 1.668.42.504.272.896.664 1.176 1.176.288.504.432 1.096.432 1.776 0 .672-.144 1.264-.432 1.776a3.03 3.03 0 01-1.188 1.188 3.48 3.48 0 01-1.68.408zm0-.732c.432 0 .832-.096 1.2-.288.368-.2.664-.496.888-.888.232-.4.348-.888.348-1.464s-.112-1.06-.336-1.452c-.224-.4-.52-.696-.888-.888-.368-.2-.768-.3-1.2-.3-.432 0-.832.1-1.2.3a2.157 2.157 0 00-.888.888c-.216.392-.324.876-.324 1.452s.108 1.064.324 1.464c.224.392.516.688.876.888.368.192.768.288 1.2.288zm7.903-6.036c.784 0 1.424.244 1.92.732.496.48.744 1.18.744 2.1V9h-.828V5.256c0-.712-.18-1.256-.54-1.632-.352-.376-.836-.564-1.452-.564-.632 0-1.136.2-1.512.6-.376.4-.564.988-.564 1.764V9h-.84V2.448h.84v1.116c.208-.4.508-.704.9-.912a2.714 2.714 0 011.332-.324zM.576 22.712c0-.672.132-1.26.396-1.764a2.881 2.881 0 011.116-1.176c.48-.28 1.02-.42 1.62-.42.624 0 1.16.144 1.608.432.456.288.784.656.984 1.104v-1.44h.84V26H6.3v-1.452c-.208.448-.54.82-.996 1.116-.448.288-.984.432-1.608.432-.592 0-1.128-.14-1.608-.42a2.964 2.964 0 01-1.116-1.188c-.264-.512-.396-1.104-.396-1.776zm5.724.012c0-.528-.108-.992-.324-1.392a2.3 2.3 0 00-.888-.924 2.373 2.373 0 00-1.224-.324c-.464 0-.88.104-1.248.312-.368.208-.66.512-.876.912-.208.392-.312.86-.312 1.404 0 .536.104 1.008.312 1.416.216.4.508.708.876.924.368.208.784.312 1.248.312.448 0 .856-.108 1.224-.324a2.3 2.3 0 00.888-.924c.216-.4.324-.864.324-1.392zm5.83-3.396c.784 0 1.424.244 1.92.732.496.48.744 1.18.744 2.1V26h-.828v-3.744c0-.712-.18-1.256-.54-1.632-.352-.376-.836-.564-1.452-.564-.632 0-1.136.2-1.512.6-.376.4-.564.988-.564 1.764V26h-.84v-6.552h.84v1.116c.208-.4.508-.704.9-.912a2.714 2.714 0 011.332-.324zm7.43 3.384c0-.672.132-1.26.396-1.764a2.881 2.881 0 011.116-1.176c.48-.28 1.02-.42 1.62-.42.624 0 1.16.144 1.608.432.456.288.784.656.984 1.104v-1.44h.84V26h-.84v-1.452c-.208.448-.54.82-.996 1.116-.448.288-.984.432-1.608.432-.592 0-1.128-.14-1.608-.42a2.964 2.964 0 01-1.116-1.188c-.264-.512-.396-1.104-.396-1.776zm5.724.012c0-.528-.108-.992-.324-1.392a2.3 2.3 0 00-.888-.924 2.373 2.373 0 00-1.224-.324c-.464 0-.88.104-1.248.312-.368.208-.66.512-.876.912-.208.392-.312.86-.312 1.404 0 .536.104 1.008.312 1.416.216.4.508.708.876.924.368.208.784.312 1.248.312.448 0 .856-.108 1.224-.324a2.3 2.3 0 00.888-.924c.216-.4.324-.864.324-1.392zm11.398-3.276L34.63 26h-.84l-1.812-5.496L30.166 26h-.852l-2.052-6.552h.852l1.632 5.7 1.836-5.7h.84l1.812 5.712 1.62-5.712h.828zm.761 3.264c0-.672.132-1.26.396-1.764a2.881 2.881 0 011.116-1.176c.48-.28 1.02-.42 1.62-.42.624 0 1.16.144 1.608.432.456.288.784.656.984 1.104v-1.44h.84V26h-.84v-1.452c-.208.448-.54.82-.996 1.116-.448.288-.984.432-1.608.432-.592 0-1.128-.14-1.608-.42a2.964 2.964 0 01-1.116-1.188c-.264-.512-.396-1.104-.396-1.776zm5.724.012c0-.528-.108-.992-.324-1.392a2.3 2.3 0 00-.888-.924 2.373 2.373 0 00-1.224-.324c-.464 0-.88.104-1.248.312-.368.208-.66.512-.876.912-.208.392-.312.86-.312 1.404 0 .536.104 1.008.312 1.416.216.4.508.708.876.924.368.208.784.312 1.248.312.448 0 .856-.108 1.224-.324a2.3 2.3 0 00.888-.924c.216-.4.324-.864.324-1.392zm3.598-2.112c.184-.408.464-.724.84-.948.384-.224.852-.336 1.404-.336v.876h-.228c-.608 0-1.096.164-1.464.492-.368.328-.552.876-.552 1.644V26h-.84v-6.552h.84v1.164zm3.123 2.1c0-.672.137-1.26.409-1.764a2.881 2.881 0 011.116-1.176c.48-.28 1.02-.42 1.62-.42.575 0 1.096.14 1.56.42.463.28.803.644 1.02 1.092V17.12h.84V26h-.84v-1.464a2.56 2.56 0 01-.984 1.128c-.456.288-.992.432-1.608.432-.6 0-1.14-.14-1.62-.42a2.964 2.964 0 01-1.117-1.188c-.264-.512-.395-1.104-.395-1.776zm5.724.012c0-.528-.108-.992-.324-1.392a2.3 2.3 0 00-.887-.924 2.373 2.373 0 00-1.225-.324c-.464 0-.88.104-1.248.312-.367.208-.66.512-.875.912-.209.392-.313.86-.313 1.404 0 .536.104 1.008.313 1.416.216.4.508.708.876.924.367.208.783.312 1.247.312.448 0 .856-.108 1.224-.324a2.3 2.3 0 00.889-.924c.215-.4.323-.864.323-1.392zm6.826-1.524v.708H57.77V21.2h4.668zm10.795-1.752L71.18 26h-.84l-1.812-5.496L66.717 26h-.852l-2.052-6.552h.852l1.632 5.7 1.836-5.7h.84l1.812 5.712 1.62-5.712h.828zm1.565-1.236a.59.59 0 01-.432-.18.603.603 0 01-.18-.444c0-.176.06-.32.18-.432a.59.59 0 01.432-.18.59.59 0 01.432.18c.12.112.18.256.18.432s-.06.324-.18.444a.59.59 0 01-.432.18zm.42 1.236V26h-.84v-6.552h.84zm4.974-.12c.784 0 1.424.244 1.92.732.496.48.744 1.18.744 2.1V26h-.828v-3.744c0-.712-.18-1.256-.54-1.632-.352-.376-.836-.564-1.452-.564-.632 0-1.136.2-1.512.6-.376.4-.564.988-.564 1.764V26h-.84v-6.552h.84v1.116c.208-.4.508-.704.9-.912a2.714 2.714 0 011.332-.324zm7.594 0c.784 0 1.424.244 1.92.732.496.48.744 1.18.744 2.1V26h-.828v-3.744c0-.712-.18-1.256-.54-1.632-.352-.376-.836-.564-1.452-.564-.632 0-1.136.2-1.512.6-.376.4-.564.988-.564 1.764V26h-.84v-6.552h.84v1.116c.208-.4.508-.704.9-.912a2.714 2.714 0 011.332-.324zm4.942-1.116a.59.59 0 01-.432-.18.603.603 0 01-.18-.444c0-.176.06-.32.18-.432a.59.59 0 01.432-.18.59.59 0 01.432.18c.12.112.18.256.18.432s-.06.324-.18.444a.59.59 0 01-.432.18zm.42 1.236V26h-.84v-6.552h.84zm4.974-.12c.784 0 1.424.244 1.92.732.496.48.744 1.18.744 2.1V26h-.828v-3.744c0-.712-.18-1.256-.54-1.632-.352-.376-.836-.564-1.452-.564-.632 0-1.136.2-1.512.6-.376.4-.564.988-.564 1.764V26h-.84v-6.552h.84v1.116c.208-.4.508-.704.9-.912a2.714 2.714 0 011.332-.324zm7.27.024c.616 0 1.152.144 1.608.432.456.288.784.652.984 1.092v-1.428h.84v6.72c0 .6-.132 1.132-.396 1.596a2.62 2.62 0 01-1.08 1.068c-.464.256-.992.384-1.584.384-.84 0-1.54-.2-2.1-.6a2.553 2.553 0 01-1.032-1.632h.828c.144.456.416.82.816 1.092.408.272.904.408 1.488.408.424 0 .804-.092 1.14-.276.336-.176.6-.44.792-.792.192-.352.288-.768.288-1.248v-1.62c-.208.448-.54.82-.996 1.116-.448.288-.98.432-1.596.432-.6 0-1.14-.14-1.62-.42a2.964 2.964 0 01-1.116-1.188c-.264-.512-.396-1.104-.396-1.776 0-.672.132-1.26.396-1.764a2.881 2.881 0 011.116-1.176c.48-.28 1.02-.42 1.62-.42zm2.592 3.372c0-.528-.108-.992-.324-1.392a2.3 2.3 0 00-.888-.924 2.373 2.373 0 00-1.224-.324c-.464 0-.88.104-1.248.312-.368.208-.66.512-.876.912-.208.392-.312.86-.312 1.404 0 .536.104 1.008.312 1.416.216.4.508.708.876.924.368.208.784.312 1.248.312.448 0 .856-.108 1.224-.324a2.3 2.3 0 00.888-.924c.216-.4.324-.864.324-1.392zm6.878-1.836c.208-.44.536-.804.984-1.092.456-.296.996-.444 1.62-.444.592 0 1.124.14 1.596.42.48.272.852.664 1.116 1.176.272.504.408 1.092.408 1.764 0 .672-.136 1.264-.408 1.776a2.86 2.86 0 01-1.116 1.188c-.472.28-1.004.42-1.596.42-.616 0-1.152-.144-1.608-.432-.456-.296-.788-.664-.996-1.104v4.536h-.828v-9.648h.828v1.44zm4.872 1.824c0-.544-.108-1.012-.324-1.404a2.166 2.166 0 00-.864-.912 2.492 2.492 0 00-1.248-.312c-.448 0-.86.108-1.236.324-.368.216-.66.524-.876.924-.216.4-.324.864-.324 1.392 0 .528.108.992.324 1.392.216.4.508.708.876.924.376.216.788.324 1.236.324.464 0 .88-.104 1.248-.312.368-.216.656-.524.864-.924.216-.408.324-.88.324-1.416zm3.238-5.592V26h-.84v-8.88h.84zm1.518 5.592c0-.672.132-1.26.396-1.764a2.881 2.881 0 011.116-1.176c.48-.28 1.02-.42 1.62-.42.624 0 1.16.144 1.608.432.456.288.784.656.984 1.104v-1.44h.84V26h-.84v-1.452c-.208.448-.54.82-.996 1.116-.448.288-.984.432-1.608.432-.592 0-1.128-.14-1.608-.42a2.964 2.964 0 01-1.116-1.188c-.264-.512-.396-1.104-.396-1.776zm5.724.012c0-.528-.108-.992-.324-1.392a2.3 2.3 0 00-.888-.924 2.373 2.373 0 00-1.224-.324c-.464 0-.88.104-1.248.312-.368.208-.66.512-.876.912-.208.392-.312.86-.312 1.404 0 .536.104 1.008.312 1.416.216.4.508.708.876.924.368.208.784.312 1.248.312.448 0 .856-.108 1.224-.324a2.3 2.3 0 00.888-.924c.216-.4.324-.864.324-1.392zm3.85-2.568v4.068c0 .4.076.676.228.828.152.152.42.228.804.228h.768V26h-.9c-.592 0-1.032-.136-1.32-.408-.288-.28-.432-.736-.432-1.368v-4.068h-.912v-.708h.912v-1.644h.852v1.644h1.8v.708h-1.8zm5.765 0h-1.524V26h-.84v-5.844h-.912v-.708h.912v-.456c0-.712.18-1.236.54-1.572.368-.336.96-.504 1.776-.504v.72c-.544 0-.928.104-1.152.312-.216.208-.324.556-.324 1.044v.456h1.524v.708zm4.19 5.94a3.411 3.411 0 01-1.668-.408 3.1 3.1 0 01-1.164-1.176c-.28-.512-.42-1.108-.42-1.788 0-.68.144-1.272.432-1.776a2.97 2.97 0 011.176-1.176 3.333 3.333 0 011.668-.42c.616 0 1.172.14 1.668.42.504.272.896.664 1.176 1.176.288.504.432 1.096.432 1.776 0 .672-.144 1.264-.432 1.776a3.03 3.03 0 01-1.188 1.188 3.48 3.48 0 01-1.68.408zm0-.732c.432 0 .832-.096 1.2-.288.368-.2.664-.496.888-.888.232-.4.348-.888.348-1.464s-.112-1.06-.336-1.452c-.224-.4-.52-.696-.888-.888-.368-.2-.768-.3-1.2-.3-.432 0-.832.1-1.2.3a2.157 2.157 0 00-.888.888c-.216.392-.324.876-.324 1.452s.108 1.064.324 1.464c.224.392.516.688.876.888.368.192.768.288 1.2.288zm5.672-4.752c.184-.408.464-.724.84-.948.384-.224.852-.336 1.404-.336v.876h-.228c-.608 0-1.096.164-1.464.492-.368.328-.552.876-.552 1.644V26h-.84v-6.552h.84v1.164zm11.307-1.284c.768 0 1.392.244 1.872.732.488.48.732 1.18.732 2.1V26h-.828v-3.744c0-.712-.172-1.256-.516-1.632-.344-.376-.812-.564-1.404-.564-.616 0-1.108.204-1.476.612-.368.408-.552 1-.552 1.776V26h-.828v-3.744c0-.712-.172-1.256-.516-1.632-.344-.376-.816-.564-1.416-.564-.616 0-1.108.204-1.476.612-.368.408-.552 1-.552 1.776V26h-.84v-6.552h.84v1.128c.208-.408.504-.716.888-.924a2.573 2.573 0 011.284-.324c.568 0 1.064.136 1.488.408.432.272.744.672.936 1.2.176-.52.476-.916.9-1.188.432-.28.92-.42 1.464-.42z" fill="#fff"/></svg>