<svg width="222" height="11" viewBox="0 0 222 11" fill="none" xmlns="http://www.w3.org/2000/svg"><path d="M8.698 2.483V.229H.368v2.254H3.21v7.546h2.646V2.483h2.842zm1.325-2.24v9.786h2.632V7.047H14.223l1.903 2.982h3.038l-2.198-3.332c1.358-.462 1.932-1.456 1.932-3.052 0-2.394-1.273-3.402-4.466-3.402h-4.41zm2.632 2.366h1.904c1.162 0 1.595.364 1.595 1.204 0 .854-.434 1.204-1.595 1.204h-1.904V2.609zm10.472 7.42V.243h-2.632v9.786h2.632zm10.025-7.434V.229H25.13v9.8h8.106V7.663h-5.474v-1.47h5.012v-2.24h-5.012V2.595h5.39zM34.728.243v9.786h4.2c2.898 0 5.25-2.114 5.25-4.886 0-2.786-2.352-4.914-5.25-4.914l-4.2.014zm2.632 2.352h1.47c1.456 0 2.646 1.092 2.646 2.534 0 1.456-1.19 2.548-2.646 2.548h-1.47V2.595zm12.863 4.83V5.381h-4.858v2.044h4.858zm12.041 2.604l-3.906-9.8H54.9l-3.864 9.8h3.15l.63-1.708h3.668l.63 1.708h3.15zm-6.762-3.808l1.134-3.052 1.134 3.052h-2.268zm17.27 3.808v-9.8h-2.59v5.474L66.236.229h-2.73v9.8h2.59v-5.46l3.948 5.46h2.73zM74.69.243v9.786h4.2c2.898 0 5.25-2.114 5.25-4.886 0-2.786-2.352-4.914-5.25-4.914l-4.2.014zm2.633 2.352h1.47c1.456 0 2.645 1.092 2.645 2.534 0 1.456-1.19 2.548-2.645 2.548h-1.47V2.595zm12.863 4.83V5.381h-4.858v2.044h4.858zm9.143-4.942V.229H91v2.254h2.842v7.546h2.646V2.483h2.842zm9.346.112V.229h-8.022v9.8h8.106V7.663h-5.474v-1.47h5.012v-2.24h-5.012V2.595h5.39zm5.566-2.506c-2.282.014-4.074 1.008-4.074 3.206 0 1.918 1.596 2.436 3.822 2.968 1.61.406 1.89.462 1.89 1.022 0 .448-.476.644-1.022.644-1.246 0-2.66-.364-3.934-1.078l-1.176 1.96c1.344.896 2.996 1.372 4.816 1.372 2.52 0 4.102-1.148 4.102-3.234 0-2.002-1.638-2.562-3.934-3.178-1.526-.378-1.708-.504-1.708-.812 0-.448.434-.644.938-.644.966 0 2.282.336 3.402.91l1.106-2.03c-1.148-.7-2.66-1.106-4.228-1.106zm13.608 2.394V.229h-8.33v2.254h2.842v7.546h2.646V2.483h2.842zm9.346.112V.229h-8.022v9.8h8.106V7.663h-5.474v-1.47h5.012v-2.24h-5.012V2.595h5.39zm1.576-2.352v9.786h4.2c2.898 0 5.25-2.114 5.25-4.886 0-2.786-2.352-4.914-5.25-4.914l-4.2.014zm2.632 2.352h1.47c1.456 0 2.646 1.092 2.646 2.534 0 1.456-1.19 2.548-2.646 2.548h-1.47V2.595zm19.723-.112V.229h-8.33v2.254h2.842v7.546h2.646V2.483h2.842zm1.324-2.24v9.786h2.632V7.047H166.65l1.904 2.982h3.038l-2.198-3.332c1.358-.462 1.932-1.456 1.932-3.052 0-2.394-1.274-3.402-4.466-3.402h-4.41zm2.632 2.366h1.904c1.162 0 1.596.364 1.596 1.204 0 .854-.434 1.204-1.596 1.204h-1.904V2.609zm18.411 7.42l-3.906-9.8h-3.458l-3.864 9.8h3.15l.63-1.708h3.668l.63 1.708h3.15zm-6.762-3.808l1.134-3.052 1.134 3.052h-2.268zm8.086-5.978v9.786h4.2c2.898 0 5.25-2.114 5.25-4.886 0-2.786-2.352-4.914-5.25-4.914l-4.2.014zm2.632 2.352h1.47c1.456 0 2.646 1.092 2.646 2.534 0 1.456-1.19 2.548-2.646 2.548h-1.47V2.595zm11.184 7.434V.243h-2.632v9.786h2.632zm11.187 0v-9.8h-2.59v5.474L203.282.229h-2.73v9.8h2.59v-5.46l3.948 5.46h2.73zm7.069-9.94c-2.786-.014-5.418 1.82-5.418 5.054 0 2.772 2.352 5.026 5.25 5.026 1.652 0 3.178-.546 4.354-1.484V4.401h-4.186v1.876h1.68v.938a3.636 3.636 0 01-1.848.49c-1.47 0-2.492-1.148-2.492-2.562 0-1.638 1.246-2.618 2.66-2.618.756 0 1.526.266 2.142.798l1.722-1.806c-1.092-.938-2.478-1.414-3.864-1.428z" fill="#09B45B"/></svg>