<svg width="535" height="30" viewBox="0 0 535 30" fill="none" xmlns="http://www.w3.org/2000/svg"><path d="M.64 3.864h6.912V23h3.68V3.864h6.912V.6H.64v3.264zm28.445 2.56c-2.56 0-4.128 1.152-5.152 2.56V.6h-3.456V23h3.456v-8.288c0-3.296 1.664-5.312 4.384-5.312 2.56 0 3.936 1.664 3.936 4.768V23h3.456v-9.12c0-5.472-2.976-7.456-6.624-7.456zm17.418 16.768c4.064 0 6.816-2.464 7.392-5.696H50.44c-.48 1.824-2.016 2.88-4.128 2.88-2.72 0-4.48-1.824-4.576-4.608v-.224h12.352c.064-.448.096-.896.096-1.312-.096-4.8-3.264-7.808-8-7.808-4.832 0-8.064 3.36-8.064 8.416 0 5.024 3.232 8.352 8.384 8.352zm-4.64-10.176c.256-2.336 2.144-3.808 4.352-3.808 2.4 0 4.096 1.376 4.384 3.808h-8.736zm32.07-6.592c-2.528 0-4.224 1.152-5.312 2.624V.6h-3.456V23h3.008l.416-2.368c1.024 1.472 2.784 2.56 5.344 2.56 4.48 0 7.744-3.36 7.744-8.384 0-5.28-3.264-8.384-7.744-8.384zm-.576 13.856c-2.88 0-4.768-2.272-4.768-5.504 0-3.168 1.888-5.408 4.768-5.408s4.8 2.24 4.8 5.44c0 3.232-1.92 5.472-4.8 5.472zM86.206 4.312c1.184 0 2.112-.864 2.112-2.08 0-1.216-.928-2.08-2.112-2.08-1.184 0-2.112.864-2.112 2.08 0 1.216.928 2.08 2.112 2.08zM84.446 23h3.456V6.616h-3.456V23zm19.356-13.824c-1.056-1.632-2.816-2.752-5.376-2.752-4.448 0-7.744 3.296-7.744 8.32 0 5.216 3.296 8.32 7.744 8.32 2.56 0 4.256-1.056 5.344-2.688V22.2c0 3.136-1.696 4.576-4.704 4.576-2.432 0-4.032-1.056-4.448-2.88h-3.52c.32 3.68 3.36 5.696 7.712 5.696 5.888 0 8.384-2.816 8.384-7.264V6.616h-3.008l-.384 2.56zm-4.8 10.976c-2.88 0-4.768-2.208-4.768-5.408 0-3.168 1.888-5.408 4.768-5.408s4.768 2.24 4.768 5.472c0 3.136-1.888 5.344-4.768 5.344zm24.081-10.976c-1.056-1.632-2.816-2.752-5.376-2.752-4.448 0-7.744 3.296-7.744 8.32 0 5.216 3.296 8.32 7.744 8.32 2.56 0 4.256-1.056 5.344-2.688V22.2c0 3.136-1.696 4.576-4.704 4.576-2.432 0-4.032-1.056-4.448-2.88h-3.52c.32 3.68 3.36 5.696 7.712 5.696 5.888 0 8.384-2.816 8.384-7.264V6.616h-3.008l-.384 2.56zm-4.8 10.976c-2.88 0-4.768-2.208-4.768-5.408 0-3.168 1.888-5.408 4.768-5.408s4.768 2.24 4.768 5.472c0 3.136-1.888 5.344-4.768 5.344zm19.345 3.04c4.064 0 6.816-2.464 7.392-5.696h-3.456c-.48 1.824-2.016 2.88-4.128 2.88-2.72 0-4.48-1.824-4.576-4.608v-.224h12.352c.064-.448.096-.896.096-1.312-.096-4.8-3.264-7.808-8-7.808-4.832 0-8.064 3.36-8.064 8.416 0 5.024 3.232 8.352 8.384 8.352zm-4.64-10.176c.256-2.336 2.144-3.808 4.352-3.808 2.4 0 4.096 1.376 4.384 3.808h-8.736zm14.317 4.576c.096 3.552 3.104 5.6 7.488 5.6 3.968 0 6.944-1.984 6.944-5.12 0-3.648-3.04-4.416-6.784-4.864-2.368-.256-3.937-.448-3.937-1.984 0-1.312 1.345-2.144 3.393-2.144s3.456 1.056 3.648 2.56h3.392c-.224-3.36-3.072-5.216-7.104-5.216-3.936-.032-6.72 1.984-6.72 5.088 0 3.392 2.944 4.192 6.687 4.64 2.529.32 4.033.448 4.033 2.208 0 1.312-1.408 2.144-3.552 2.144-2.496 0-3.968-1.216-4.096-2.912h-3.392zm18.294.96c0 2.976 1.344 4.448 4.48 4.448h3.2v-3.04h-2.432c-1.312 0-1.76-.48-1.76-1.76V9.656h4v-3.04h-4V2.04h-3.488v4.576h-2.848v3.04h2.848v8.896zm30.578-9.376c-1.056-1.632-2.816-2.752-5.376-2.752-4.448 0-7.744 3.296-7.744 8.32 0 5.216 3.296 8.32 7.744 8.32 2.56 0 4.256-1.056 5.344-2.688V22.2c0 3.136-1.696 4.576-4.704 4.576-2.432 0-4.032-1.056-4.448-2.88h-3.52c.32 3.68 3.36 5.696 7.712 5.696 5.888 0 8.384-2.816 8.384-7.264V6.616h-3.008l-.384 2.56zm-4.8 10.976c-2.88 0-4.768-2.208-4.768-5.408 0-3.168 1.888-5.408 4.768-5.408s4.768 2.24 4.768 5.472c0 3.136-1.888 5.344-4.768 5.344zm26.545-.16c-.704 0-1.056-.224-1.056-1.056v-6.56c0-3.872-2.496-5.952-6.848-5.952-4.128 0-6.88 1.984-7.232 5.184h3.392c.256-1.44 1.632-2.4 3.68-2.4 2.272 0 3.584 1.12 3.584 2.944v.992h-4.128c-4.576 0-7.008 1.888-7.008 5.248 0 3.04 2.496 4.8 6.08 4.8 2.656 0 4.32-1.152 5.408-2.816 0 1.632.768 2.624 3.008 2.624h1.824v-3.008h-.704zm-4.48-3.712c-.032 2.528-1.696 4.224-4.576 4.224-1.888 0-3.04-.96-3.04-2.336 0-1.664 1.184-2.464 3.328-2.464h4.288v.576zm25.915-9.856c-2.688 0-4.545 1.184-5.6 2.976-.992-2.112-2.912-2.976-5.056-2.976-2.464.032-3.872 1.12-4.8 2.336l-.385-2.144h-3.007V23h3.456v-8.768c0-2.912 1.472-4.832 3.84-4.832 2.272 0 3.456 1.504 3.456 4.384V23h3.488v-8.864c0-2.944 1.504-4.736 3.872-4.736 2.24 0 3.424 1.504 3.424 4.384V23h3.456v-9.44c0-5.184-2.752-7.136-6.144-7.136zm16.928 16.768c4.064 0 6.816-2.464 7.392-5.696h-3.456c-.48 1.824-2.016 2.88-4.128 2.88-2.72 0-4.48-1.824-4.577-4.608v-.224h12.353c.064-.448.096-.896.096-1.312-.096-4.8-3.264-7.808-8-7.808-4.832 0-8.064 3.36-8.064 8.416 0 5.024 3.232 8.352 8.384 8.352zm-4.64-10.176c.256-2.336 2.144-3.808 4.352-3.808 2.4 0 4.096 1.376 4.384 3.808h-8.736zm15.714 5.856c-1.472 0-2.432.96-2.432 2.176 0 1.376.832 2.048 1.888 2.048.384 0 .768-.096 1.056-.32.032.128.032.288.032.416 0 1.12-.8 2.368-2.816 2.4v1.856c3.168-.032 5.152-1.792 5.152-4.896 0-2.048-1.12-3.68-2.88-3.68zm15.503-14.56c1.184 0 2.112-.864 2.112-2.08 0-1.216-.928-2.08-2.112-2.08-1.184 0-2.112.864-2.112 2.08 0 1.216.928 2.08 2.112 2.08zM281.102 23h3.456V6.616h-3.456V23zm15.484-16.576c-2.656 0-4.224 1.056-5.248 2.336l-.384-2.144h-3.008V23h3.456v-8.256c0-3.328 1.632-5.344 4.384-5.344 2.592 0 3.904 1.664 3.904 4.768V23h3.488v-9.12c0-5.472-2.976-7.456-6.592-7.456zm9.031 11.168c.096 3.552 3.104 5.6 7.488 5.6 3.968 0 6.944-1.984 6.944-5.12 0-3.648-3.04-4.416-6.784-4.864-2.368-.256-3.936-.448-3.936-1.984 0-1.312 1.344-2.144 3.392-2.144s3.456 1.056 3.648 2.56h3.392c-.224-3.36-3.072-5.216-7.104-5.216-3.936-.032-6.72 1.984-6.72 5.088 0 3.392 2.944 4.192 6.688 4.64 2.528.32 4.032.448 4.032 2.208 0 1.312-1.408 2.144-3.552 2.144-2.496 0-3.968-1.216-4.096-2.912h-3.392zm18.87-13.28c1.184 0 2.112-.864 2.112-2.08 0-1.216-.928-2.08-2.112-2.08-1.184 0-2.112.864-2.112 2.08 0 1.216.928 2.08 2.112 2.08zM322.727 23h3.456V6.616h-3.456V23zm19.292-14.112c-1.056-1.44-2.816-2.464-5.312-2.464-4.448 0-7.744 3.328-7.744 8.384 0 5.248 3.296 8.384 7.744 8.384 2.592 0 4.288-1.216 5.344-2.656l.416 2.464h3.008V.6h-3.456v8.288zm-4.736 11.392c-2.88 0-4.768-2.24-4.768-5.472 0-3.2 1.888-5.44 4.768-5.44s4.768 2.24 4.768 5.504c0 3.168-1.888 5.408-4.768 5.408zm19.345 2.912c4.064 0 6.816-2.464 7.392-5.696h-3.456c-.48 1.824-2.016 2.88-4.128 2.88-2.72 0-4.48-1.824-4.576-4.608v-.224h12.352c.064-.448.096-.896.096-1.312-.096-4.8-3.264-7.808-8-7.808-4.832 0-8.064 3.36-8.064 8.416 0 5.024 3.232 8.352 8.384 8.352zm-4.64-10.176c.256-2.336 2.144-3.808 4.352-3.808 2.4 0 4.096 1.376 4.384 3.808h-8.736zm28.038 10.08l-.64 1.6c-.512 1.344-.832 1.664-2.176 1.664h-2.432v3.04h3.712c2.4 0 3.104-1.184 4.128-3.84l7.424-18.944h-3.68l-4.448 12.448-4.576-12.448h-3.68l6.368 16.48zm18.758.096c4.992 0 8.352-3.36 8.352-8.384 0-4.992-3.36-8.384-8.352-8.384-4.992 0-8.352 3.392-8.352 8.384 0 5.024 3.36 8.384 8.352 8.384zm0-2.944c-2.912 0-4.8-2.272-4.8-5.44 0-3.168 1.888-5.44 4.8-5.44s4.832 2.272 4.832 5.44c0 3.168-1.92 5.44-4.832 5.44zm22.363-5.44c0 3.392-1.6 5.376-4.224 5.376-2.528 0-3.808-1.632-3.808-4.832V6.616h-3.456v9.12c0 5.6 2.976 7.456 6.464 7.456 2.528 0 4.032-1.024 5.056-2.272l.384 2.08h3.04V6.616h-3.456v8.192zm15.15-8.192c-2.688 0-4 1.088-4.832 2.464l-.384-2.464h-3.072V23h3.456v-8.224c0-2.528.992-4.928 4.064-4.928h1.536V6.616h-.768zm19.695-.192c-2.56 0-4.128 1.152-5.152 2.56V.6h-3.456V23h3.456v-8.288c0-3.296 1.664-5.312 4.384-5.312 2.56 0 3.936 1.664 3.936 4.768V23h3.456v-9.12c0-5.472-2.976-7.456-6.624-7.456zm17.418 16.768c4.064 0 6.816-2.464 7.392-5.696h-3.456c-.48 1.824-2.016 2.88-4.128 2.88-2.72 0-4.48-1.824-4.577-4.608v-.224h12.353c.064-.448.096-.896.096-1.312-.096-4.8-3.264-7.808-8-7.808-4.832 0-8.064 3.36-8.064 8.416 0 5.024 3.232 8.352 8.384 8.352zm-4.64-10.176c.256-2.336 2.144-3.808 4.352-3.808 2.4 0 4.096 1.376 4.384 3.808h-8.736zm30.09 6.976c-.704 0-1.056-.224-1.056-1.056v-6.56c0-3.872-2.496-5.952-6.848-5.952-4.128 0-6.88 1.984-7.232 5.184h3.392c.256-1.44 1.632-2.4 3.68-2.4 2.272 0 3.584 1.12 3.584 2.944v.992h-4.128c-4.576 0-7.009 1.888-7.009 5.248 0 3.04 2.497 4.8 6.081 4.8 2.656 0 4.32-1.152 5.408-2.816 0 1.632.768 2.624 3.008 2.624h1.824v-3.008h-.704zm-4.48-3.712c-.032 2.528-1.696 4.224-4.576 4.224-1.888 0-3.04-.96-3.04-2.336 0-1.664 1.184-2.464 3.328-2.464h4.288v.576zm19.389-7.392c-1.056-1.44-2.816-2.464-5.312-2.464-4.448 0-7.744 3.328-7.744 8.384 0 5.248 3.296 8.384 7.744 8.384 2.592 0 4.288-1.216 5.344-2.656l.416 2.464h3.008V.6h-3.456v8.288zm-4.736 11.392c-2.88 0-4.768-2.24-4.768-5.472 0-3.2 1.888-5.44 4.768-5.44s4.768 2.24 4.768 5.504c0 3.168-1.888 5.408-4.768 5.408zm14.321-12.352c0-2.656 1.6-4.448 4.064-4.448 2.144 0 3.584 1.28 3.584 3.104 0 1.536-.832 2.56-2.272 3.52-1.92 1.248-3.424 2.304-3.424 4.896v1.024h3.264v-.64c0-1.6 1.088-2.432 2.816-3.616 1.664-1.184 3.2-2.592 3.2-5.536 0-3.36-2.752-5.824-7.2-5.824-4.768 0-7.552 3.36-7.552 7.52h3.52zm1.472 13.12c0 1.28.96 2.144 2.208 2.144 1.248 0 2.176-.864 2.176-2.144 0-1.28-.928-2.144-2.176-2.144-1.248 0-2.208.864-2.208 2.144z" fill="#000"/></svg>