<svg width="90" height="20" viewBox="0 0 90 20" fill="none" xmlns="http://www.w3.org/2000/svg"><rect width="90" height="20" rx="10" fill="#14964F"/><path d="M8.84 6.745V13h3.141v-.828H9.866V6.745H8.84zm8.724 3.771c0-1.557-1.116-2.556-2.529-2.556-1.413 0-2.529.999-2.529 2.556s1.071 2.565 2.484 2.565c1.422 0 2.574-1.008 2.574-2.565zm-4.014 0c0-1.125.693-1.665 1.467-1.665.765 0 1.494.54 1.494 1.665s-.756 1.674-1.52 1.674c-.775 0-1.44-.549-1.44-1.674zm4.686-.018c0 1.53 1.035 2.583 2.34 2.583.81 0 1.404-.405 1.72-.828v.828c0 .99-.595 1.476-1.387 1.476-.71 0-1.26-.351-1.413-.864H18.48c.126 1.098 1.107 1.755 2.43 1.755 1.548 0 2.421-1.017 2.421-2.367v-5.04h-1.035v.72c-.306-.423-.909-.801-1.719-.801-1.305 0-2.34 1.008-2.34 2.538zm4.06.018c0 1.071-.73 1.674-1.504 1.674-.765 0-1.503-.621-1.503-1.692s.738-1.647 1.503-1.647c.774 0 1.503.603 1.503 1.665zM27.015 13h1.026V8.041h-1.026V13zm.522-5.616c.36 0 .648-.288.648-.657a.647.647 0 00-.648-.657.65.65 0 00-.657.657.65.65 0 00.657.657zM32.908 13h1.017v-2.925c0-1.386-.873-2.115-2.034-2.115-.594 0-1.143.243-1.476.648v-.567h-1.026V13h1.026v-2.772c0-.909.495-1.377 1.25-1.377.748 0 1.243.468 1.243 1.377V13zm4.322-2.502c0 1.53 1.035 2.583 2.322 2.583.828 0 1.422-.396 1.736-.819V13h1.036V8.041h-1.035v.72c-.306-.405-.883-.801-1.72-.801-1.305 0-2.34 1.008-2.34 2.538zm4.059.018c0 1.071-.73 1.674-1.504 1.674-.764 0-1.502-.621-1.502-1.692s.737-1.647 1.502-1.647c.775 0 1.504.603 1.504 1.665zM47.19 13h1.017v-2.925c0-1.386-.873-2.115-2.034-2.115-.594 0-1.143.243-1.476.648v-.567h-1.026V13h1.026v-2.772c0-.909.495-1.377 1.251-1.377.747 0 1.242.468 1.242 1.377V13zm1.984-2.502c0 1.53 1.035 2.583 2.34 2.583.81 0 1.404-.378 1.719-.828V13h1.035V6.34h-1.035v2.394c-.378-.468-1.062-.774-1.71-.774-1.314 0-2.35 1.008-2.35 2.538zm4.059.018c0 1.071-.73 1.674-1.503 1.674-.765 0-1.503-.621-1.503-1.692s.738-1.647 1.503-1.647c.774 0 1.503.603 1.503 1.665zm4.882 1.107c0 1.008.55 1.377 1.431 1.377h.81v-.855h-.63c-.432 0-.576-.153-.576-.522V8.878h1.206v-.837H59.15V6.808h-1.035v1.233h-.585v.837h.585v2.745zm4.213-1.233c0-1.053.468-1.368 1.224-1.368h.261V7.96c-.702 0-1.197.306-1.485.801v-.72h-1.026V13h1.026v-2.61zm2.086.108c0 1.53 1.035 2.583 2.322 2.583.828 0 1.422-.396 1.737-.819V13h1.035V8.041h-1.035v.72c-.306-.405-.882-.801-1.719-.801-1.305 0-2.34 1.008-2.34 2.538zm4.06.018c0 1.071-.73 1.674-1.504 1.674-.765 0-1.503-.621-1.503-1.692s.738-1.647 1.503-1.647c.774 0 1.503.603 1.503 1.665zm2.04-.018c0 1.53 1.035 2.583 2.34 2.583.81 0 1.404-.378 1.719-.828V13h1.035V6.34h-1.035v2.394c-.378-.468-1.062-.774-1.71-.774-1.314 0-2.35 1.008-2.35 2.538zm4.059.018c0 1.071-.73 1.674-1.503 1.674-.765 0-1.503-.621-1.503-1.692s.738-1.647 1.503-1.647c.774 0 1.503.603 1.503 1.665zm4.47-1.692c.765 0 1.368.486 1.386 1.251h-2.745c.108-.783.666-1.251 1.36-1.251zm2.322 2.7h-1.107c-.189.387-.54.693-1.17.693-.756 0-1.34-.495-1.413-1.314h3.79c.026-.171.035-.333.035-.504 0-1.458-.999-2.439-2.412-2.439-1.467 0-2.475.999-2.475 2.556s1.053 2.565 2.475 2.565c1.215 0 1.998-.693 2.277-1.557z" fill="#fff"/></svg>