<svg width="175" height="53" viewBox="0 0 175 53" fill="none" xmlns="http://www.w3.org/2000/svg"><path d="M.468 4.776H2.7V12h1.368V4.776h2.22V3.66H.468v1.116zM9.041 8.52c0-1.404.624-1.824 1.632-1.824h.348V5.28c-.936 0-1.596.408-1.98 1.068v-.96H7.673V12h1.368V8.52zm2.782.144c0 2.04 1.38 3.444 3.096 3.444 1.104 0 1.896-.528 2.316-1.092V12h1.38V5.388h-1.38v.96c-.408-.54-1.176-1.068-2.292-1.068-1.74 0-3.12 1.344-3.12 3.384zm5.412.024c0 1.428-.972 2.232-2.004 2.232-1.02 0-2.004-.828-2.004-2.256s.984-2.196 2.004-2.196c1.032 0 2.004.804 2.004 2.22zm2.72-.024c0 2.04 1.38 3.444 3.12 3.444 1.08 0 1.873-.504 2.293-1.104V12h1.38V3.12h-1.38v3.192c-.504-.624-1.416-1.032-2.28-1.032-1.752 0-3.132 1.344-3.132 3.384zm5.413.024c0 1.428-.972 2.232-2.004 2.232-1.02 0-2.004-.828-2.004-2.256s.984-2.196 2.004-2.196c1.032 0 2.004.804 2.004 2.22zm5.96-2.256c1.02 0 1.825.648 1.848 1.668h-3.66c.145-1.044.889-1.668 1.813-1.668zm3.097 3.6h-1.476c-.252.516-.72.924-1.56.924-1.008 0-1.788-.66-1.884-1.752h5.052a4.22 4.22 0 00.047-.672c0-1.944-1.331-3.252-3.215-3.252-1.956 0-3.3 1.332-3.3 3.408 0 2.076 1.404 3.42 3.3 3.42 1.62 0 2.664-.924 3.036-2.076zm9.251-6.384h-4.608V12h4.608v-1.116h-3.24V8.328h2.88V7.212h-2.88V4.764h3.24V3.648zm1.673 5.304c0 2.124 1.488 3.132 3.24 3.132 1.74 0 3.276-1.008 3.276-3.132V3.66h-1.368v5.316c0 1.296-.732 1.908-1.896 1.908-1.152 0-1.884-.612-1.884-1.908V3.66h-1.368v5.292zm12.725-2.796c0 .828-.48 1.416-1.548 1.416h-1.512V4.776h1.512c1.068 0 1.548.54 1.548 1.38zM53.646 3.66V12h1.368V8.664h1.044L57.978 12h1.632l-2.064-3.456c1.404-.348 1.932-1.404 1.932-2.388 0-1.356-.972-2.496-2.952-2.496h-2.88zM61.06 14.1h1.344L65.668.672h-1.356L61.06 14.1zm6.32-5.148c0 2.124 1.488 3.132 3.24 3.132 1.74 0 3.276-1.008 3.276-3.132V3.66h-1.368v5.316c0 1.296-.732 1.908-1.896 1.908-1.152 0-1.884-.612-1.884-1.908V3.66H67.38v5.292zm13.925.684c0-3.048-4.416-1.872-4.416-3.756 0-.804.612-1.188 1.404-1.164.864.024 1.356.54 1.404 1.104h1.512c-.12-1.428-1.248-2.268-2.844-2.268-1.704 0-2.868.912-2.868 2.376 0 3.072 4.428 1.764 4.428 3.78 0 .708-.54 1.224-1.5 1.224-.948 0-1.428-.552-1.488-1.236h-1.464c0 1.476 1.284 2.388 2.952 2.388 1.86 0 2.88-1.2 2.88-2.448zm4.338-5.976H82.92V12h2.725c2.675 0 4.427-1.572 4.427-4.14 0-2.58-1.751-4.2-4.427-4.2zm-1.356 7.224V4.776h1.356c1.969 0 3.025 1.176 3.025 3.084 0 1.896-1.056 3.024-3.025 3.024h-1.356zM95.828 12h1.44L98.6 7.116 99.933 12h1.44l2.052-6.612h-1.344l-1.368 5.292-1.344-5.292H97.94l-1.404 5.316-1.38-5.316h-1.392L95.828 12zm8.619 0h1.368V5.388h-1.368V12zm.696-7.488c.48 0 .864-.384.864-.876a.863.863 0 00-.864-.876.866.866 0 00-.876.876c0 .492.384.876.876.876zm2.684 5.652c0 1.344.732 1.836 1.908 1.836h1.08v-1.14h-.84c-.576 0-.768-.204-.768-.696v-3.66h1.608V5.388h-1.608V3.744h-1.38v1.644h-.78v1.116h.78v3.66zM112.076 12h1.368V8.304c0-1.212.66-1.836 1.668-1.836.996 0 1.656.624 1.656 1.836V12h1.356V8.1c0-1.848-1.152-2.82-2.628-2.82-.852 0-1.596.324-2.052.876V3.12h-1.368V12zm10.91 0h1.368V3.12h-1.368V12zm9.464-3.312c0-2.076-1.488-3.408-3.372-3.408s-3.372 1.332-3.372 3.408c0 2.076 1.428 3.42 3.312 3.42 1.896 0 3.432-1.344 3.432-3.42zm-5.352 0c0-1.5.924-2.22 1.956-2.22 1.02 0 1.992.72 1.992 2.22 0 1.5-1.008 2.232-2.028 2.232-1.032 0-1.92-.732-1.92-2.232zM135.086 12h1.44l1.332-4.884L139.19 12h1.44l2.052-6.612h-1.344l-1.368 5.292-1.344-5.292h-1.428l-1.404 5.316-1.38-5.316h-1.392L135.086 12zM5.832 24.152c-.072-2.388-3.804-1.644-3.804-2.976 0-.444.384-.744 1.116-.744.744 0 1.188.396 1.236.972h1.368c-.072-1.32-1.056-2.124-2.556-2.124-1.56 0-2.544.852-2.544 1.908 0 2.424 3.84 1.68 3.84 2.976 0 .456-.42.792-1.212.792-.756 0-1.272-.444-1.32-.984H.54c.06 1.2 1.176 2.136 2.76 2.136 1.56 0 2.532-.84 2.532-1.956zm2.846-3.792v-.972H7.31v9.756h1.368V25.04a2.99 2.99 0 002.304 1.068c1.74 0 3.108-1.404 3.108-3.444s-1.368-3.384-3.108-3.384c-1.08 0-1.884.528-2.304 1.08zm4.02 2.304c0 1.428-.984 2.256-2.016 2.256-1.02 0-2.004-.804-2.004-2.232 0-1.416.984-2.22 2.004-2.22 1.032 0 2.016.768 2.016 2.196zm4.113-.144c0-1.404.624-1.824 1.632-1.824h.348V19.28c-.936 0-1.596.408-1.98 1.068v-.96h-1.368V26h1.368v-3.48zm6.021-2.088c1.02 0 1.824.648 1.848 1.668h-3.66c.144-1.044.888-1.668 1.812-1.668zm3.096 3.6h-1.476c-.252.516-.72.924-1.56.924-1.008 0-1.788-.66-1.884-1.752h5.052a4.22 4.22 0 00.048-.672c0-1.944-1.332-3.252-3.216-3.252-1.956 0-3.3 1.332-3.3 3.408 0 2.076 1.404 3.42 3.3 3.42 1.62 0 2.664-.924 3.036-2.076zm1.07-1.368c0 2.04 1.38 3.444 3.097 3.444 1.104 0 1.896-.528 2.316-1.092V26h1.38v-6.612h-1.38v.96c-.408-.54-1.176-1.068-2.292-1.068-1.74 0-3.12 1.344-3.12 3.384zm5.413.024c0 1.428-.972 2.232-2.004 2.232-1.02 0-2.004-.828-2.004-2.256s.984-2.196 2.004-2.196c1.032 0 2.004.804 2.004 2.22zm2.72-.024c0 2.04 1.38 3.444 3.12 3.444 1.08 0 1.873-.504 2.293-1.104V26h1.38v-8.88h-1.38v3.192c-.505-.624-1.416-1.032-2.28-1.032-1.753 0-3.133 1.344-3.133 3.384zm5.413.024c0 1.428-.972 2.232-2.005 2.232-1.02 0-2.004-.828-2.004-2.256s.985-2.196 2.005-2.196c1.032 0 2.004.804 2.004 2.22zm8.108 1.464c-.072-2.388-3.804-1.644-3.804-2.976 0-.444.384-.744 1.116-.744.744 0 1.188.396 1.236.972h1.368c-.072-1.32-1.056-2.124-2.556-2.124-1.56 0-2.544.852-2.544 1.908 0 2.424 3.84 1.68 3.84 2.976 0 .456-.42.792-1.212.792-.756 0-1.272-.444-1.32-.984H43.36c.06 1.2 1.176 2.136 2.76 2.136 1.56 0 2.532-.84 2.532-1.956zm4.14-1.488c0 2.04 1.38 3.444 3.096 3.444 1.104 0 1.896-.528 2.316-1.092V26h1.38v-6.612h-1.38v.96c-.408-.54-1.176-1.068-2.292-1.068-1.74 0-3.12 1.344-3.12 3.384zm5.412.024c0 1.428-.972 2.232-2.004 2.232-1.02 0-2.004-.828-2.004-2.256s.984-2.196 2.004-2.196c1.032 0 2.004.804 2.004 2.22zM66.073 26h1.356v-3.9c0-1.848-1.165-2.82-2.713-2.82-.791 0-1.523.324-1.967.864v-.756H61.38V26h1.368v-3.696c0-1.212.66-1.836 1.669-1.836.995 0 1.656.624 1.656 1.836V26zm2.644-3.336c0 2.04 1.38 3.444 3.12 3.444 1.08 0 1.872-.504 2.292-1.104V26h1.38v-8.88h-1.38v3.192c-.504-.624-1.416-1.032-2.28-1.032-1.752 0-3.132 1.344-3.132 3.384zm5.412.024c0 1.428-.972 2.232-2.004 2.232-1.02 0-2.004-.828-2.004-2.256s.984-2.196 2.004-2.196c1.032 0 2.004.804 2.004 2.22zm6.114-1.176c0 2.544.672 4.464 3.12 4.464s3.12-1.92 3.12-4.464c0-2.496-.672-4.416-3.12-4.416s-3.12 1.92-3.12 4.416zm4.896 0c0 1.716-.18 3.216-1.776 3.216s-1.776-1.5-1.776-3.216c0-1.632.18-3.168 1.776-3.168s1.776 1.536 1.776 3.168zm2.576-2.148c0 1.2.78 1.884 1.824 1.884s1.824-.684 1.824-1.884c0-1.188-.78-1.872-1.824-1.872s-1.824.684-1.824 1.872zm1.824-1.044c.456 0 .756.3.756 1.044s-.3 1.056-.756 1.056c-.468 0-.756-.312-.756-1.056s.288-1.044.756-1.044zM88.903 26h1.344l4.788-8.352H93.69L88.903 26zm3.696-1.728c0 1.2.78 1.884 1.824 1.884 1.032 0 1.812-.684 1.812-1.884 0-1.2-.78-1.872-1.812-1.872-1.044 0-1.824.672-1.824 1.872zm1.812-1.044c.456 0 .756.3.756 1.044s-.3 1.044-.756 1.044-.756-.3-.756-1.044.3-1.044.756-1.044zm5.888-.54c0 2.076 1.344 3.42 3.24 3.42 1.62 0 2.676-.9 3.048-2.196h-1.476c-.252.684-.756 1.044-1.572 1.044-1.104 0-1.836-.816-1.836-2.268 0-1.44.732-2.256 1.836-2.256.816 0 1.344.408 1.572 1.044h1.476c-.372-1.392-1.428-2.196-3.048-2.196-1.896 0-3.24 1.344-3.24 3.408zm13.952 0c0-2.076-1.488-3.408-3.372-3.408s-3.372 1.332-3.372 3.408c0 2.076 1.428 3.42 3.312 3.42 1.896 0 3.432-1.344 3.432-3.42zm-5.352 0c0-1.5.924-2.22 1.956-2.22 1.02 0 1.992.72 1.992 2.22 0 1.5-1.008 2.232-2.028 2.232-1.032 0-1.92-.732-1.92-2.232zM124.975 26h1.356v-3.9c0-1.848-1.176-2.82-2.724-2.82-.96 0-1.896.504-2.304 1.308-.456-.864-1.332-1.308-2.376-1.308-.792 0-1.512.324-1.956.864v-.756h-1.368V26h1.368v-3.696c0-1.212.66-1.836 1.668-1.836.996 0 1.656.624 1.656 1.836V26h1.356v-3.696c0-1.212.66-1.836 1.668-1.836.996 0 1.656.624 1.656 1.836V26zm12.469 0h1.356v-3.9c0-1.848-1.176-2.82-2.724-2.82-.96 0-1.896.504-2.304 1.308-.456-.864-1.332-1.308-2.376-1.308-.792 0-1.512.324-1.956.864v-.756h-1.368V26h1.368v-3.696c0-1.212.66-1.836 1.668-1.836.996 0 1.656.624 1.656 1.836V26h1.356v-3.696c0-1.212.66-1.836 1.668-1.836.996 0 1.656.624 1.656 1.836V26zm3.097 0h1.368v-6.612h-1.368V26zm.696-7.488c.48 0 .864-.384.864-.876a.863.863 0 00-.864-.876.866.866 0 00-.876.876c0 .492.384.876.876.876zm7.4 5.64c-.072-2.388-3.804-1.644-3.804-2.976 0-.444.384-.744 1.116-.744.744 0 1.188.396 1.236.972h1.368c-.072-1.32-1.056-2.124-2.556-2.124-1.56 0-2.544.852-2.544 1.908 0 2.424 3.84 1.68 3.84 2.976 0 .456-.42.792-1.212.792-.756 0-1.272-.444-1.32-.984h-1.416c.06 1.2 1.176 2.136 2.76 2.136 1.56 0 2.532-.84 2.532-1.956zm6.41 0c-.072-2.388-3.804-1.644-3.804-2.976 0-.444.384-.744 1.116-.744.744 0 1.188.396 1.236.972h1.368c-.072-1.32-1.056-2.124-2.556-2.124-1.56 0-2.544.852-2.544 1.908 0 2.424 3.84 1.68 3.84 2.976 0 .456-.42.792-1.212.792-.756 0-1.272-.444-1.32-.984h-1.416c.06 1.2 1.176 2.136 2.76 2.136 1.56 0 2.532-.84 2.532-1.956zM156.525 26h1.368v-6.612h-1.368V26zm.696-7.488c.48 0 .864-.384.864-.876a.863.863 0 00-.864-.876.866.866 0 00-.876.876c0 .492.384.876.876.876zm8.768 4.176c0-2.076-1.488-3.408-3.372-3.408s-3.372 1.332-3.372 3.408c0 2.076 1.428 3.42 3.312 3.42 1.896 0 3.432-1.344 3.432-3.42zm-5.352 0c0-1.5.924-2.22 1.956-2.22 1.02 0 1.992.72 1.992 2.22 0 1.5-1.008 2.232-2.028 2.232-1.032 0-1.92-.732-1.92-2.232zM172.033 26h1.356v-3.9c0-1.848-1.164-2.82-2.712-2.82-.792 0-1.524.324-1.968.864v-.756h-1.368V26h1.368v-3.696c0-1.212.66-1.836 1.668-1.836.996 0 1.656.624 1.656 1.836V26zM3.912 33.408v.464H2.36V39H1.8v-5.128H.24v-.464h3.672zm1.444 2c.123-.272.31-.483.56-.632.256-.15.568-.224.936-.224v.584H6.7c-.405 0-.73.11-.976.328-.245.219-.368.584-.368 1.096V39h-.56v-4.368h.56v.776zm2.083 1.4c0-.448.088-.84.264-1.176a1.92 1.92 0 01.744-.784c.32-.187.68-.28 1.08-.28.416 0 .773.096 1.072.288.304.192.522.437.656.736v-.96h.56V39h-.56v-.968c-.139.299-.36.547-.664.744-.299.192-.656.288-1.072.288-.395 0-.752-.093-1.072-.28a1.976 1.976 0 01-.744-.792 2.548 2.548 0 01-.264-1.184zm3.816.008c0-.352-.072-.661-.216-.928a1.532 1.532 0 00-.592-.616 1.582 1.582 0 00-.816-.216c-.31 0-.587.07-.832.208-.246.139-.44.341-.584.608-.139.261-.208.573-.208.936 0 .357.069.672.208.944.144.267.338.472.584.616.245.139.522.208.832.208.298 0 .57-.072.816-.216.25-.144.448-.35.592-.616.144-.267.216-.576.216-.928zm1.582-.008c0-.448.09-.84.272-1.176.181-.341.43-.603.744-.784.32-.187.68-.28 1.08-.28.384 0 .73.093 1.04.28.31.187.536.43.68.728V33.08h.56V39h-.56v-.976a1.706 1.706 0 01-.656.752 1.965 1.965 0 01-1.072.288c-.4 0-.76-.093-1.08-.28a1.977 1.977 0 01-.744-.792 2.548 2.548 0 01-.264-1.184zm3.816.008c0-.352-.072-.661-.216-.928a1.582 1.582 0 00-1.408-.832c-.31 0-.586.07-.832.208-.245.139-.44.341-.584.608-.138.261-.208.573-.208.936 0 .357.07.672.208.944.144.267.339.472.584.616.246.139.523.208.832.208a1.582 1.582 0 001.408-.832c.144-.267.216-.576.216-.928zm5.79-.224c0 .192-.005.339-.015.44h-3.624c.016.33.096.613.24.848s.333.413.568.536c.234.117.49.176.768.176.362 0 .666-.088.912-.264.25-.176.416-.413.496-.712h.592a1.861 1.861 0 01-.688 1.048c-.347.267-.784.4-1.312.4-.411 0-.78-.09-1.104-.272a2.01 2.01 0 01-.768-.784c-.182-.341-.272-.739-.272-1.192 0-.453.09-.85.272-1.192a1.89 1.89 0 01.76-.784 2.245 2.245 0 011.112-.272c.416 0 .778.09 1.088.272.314.181.554.427.72.736.17.304.256.643.256 1.016zm-.567-.016c.005-.325-.062-.603-.2-.832a1.299 1.299 0 00-.552-.52 1.694 1.694 0 00-.768-.176c-.416 0-.771.133-1.064.4-.294.267-.456.643-.488 1.128h3.072zm9.547-1.944L30.055 39h-.56l-1.208-3.664L27.08 39h-.568l-1.368-4.368h.568l1.088 3.8 1.224-3.8h.56l1.208 3.808 1.08-3.808h.552zm1.044-.824a.393.393 0 01-.288-.12.402.402 0 01-.12-.296c0-.117.04-.213.12-.288.08-.08.176-.12.288-.12.112 0 .208.04.288.12.08.075.12.17.12.288 0 .117-.04.216-.12.296a.393.393 0 01-.288.12zm.28.824V39h-.56v-4.368h.56zm1.996.472v2.712c0 .267.05.45.152.552.101.101.28.152.536.152h.512V39h-.6c-.395 0-.688-.09-.88-.272-.192-.187-.288-.49-.288-.912v-2.712h-.608v-.472h.608v-1.096h.568v1.096h1.2v.472h-1.2zm4.204-.552c.33 0 .626.07.888.208.266.139.474.352.624.64.154.283.232.63.232 1.04V39h-.552v-2.496c0-.475-.12-.837-.36-1.088-.235-.25-.558-.376-.968-.376-.422 0-.758.133-1.008.4-.251.267-.376.659-.376 1.176V39h-.56v-5.92h.56v2.296c.138-.261.34-.464.608-.608.272-.144.576-.216.912-.216zm5.905.552v2.712c0 .267.051.45.152.552.102.101.28.152.536.152h.512V39h-.6c-.394 0-.688-.09-.88-.272-.192-.187-.288-.49-.288-.912v-2.712h-.608v-.472h.608v-1.096h.568v1.096h1.2v.472h-1.2zm4.204-.552c.33 0 .627.07.888.208.267.139.475.352.624.64.155.283.232.63.232 1.04V39h-.552v-2.496c0-.475-.12-.837-.36-1.088-.235-.25-.557-.376-.968-.376-.421 0-.757.133-1.008.4-.25.267-.376.659-.376 1.176V39h-.56v-5.92h.56v2.296c.139-.261.341-.464.608-.608.272-.144.576-.216.912-.216zm6.934 2.04c0 .192-.005.339-.016.44H52.35c.016.33.096.613.24.848s.334.413.568.536c.235.117.491.176.768.176.363 0 .667-.088.912-.264.251-.176.416-.413.496-.712h.592a1.86 1.86 0 01-.688 1.048c-.346.267-.784.4-1.312.4-.41 0-.778-.09-1.104-.272a2.011 2.011 0 01-.768-.784c-.18-.341-.272-.739-.272-1.192 0-.453.091-.85.272-1.192.182-.341.435-.603.76-.784a2.246 2.246 0 011.112-.272c.416 0 .78.09 1.088.272.315.181.555.427.72.736.171.304.256.643.256 1.016zm-.568-.016c.006-.325-.06-.603-.2-.832a1.297 1.297 0 00-.552-.52 1.693 1.693 0 00-.768-.176c-.416 0-.77.133-1.064.4-.293.267-.456.643-.488 1.128h3.072zm5.868-2.024c.331 0 .627.07.888.208.267.139.475.352.624.64.155.283.232.63.232 1.04V39h-.552v-2.496c0-.475-.12-.837-.36-1.088-.234-.25-.557-.376-.968-.376-.421 0-.757.133-1.008.4-.25.267-.376.659-.376 1.176V39h-.56v-5.92h.56v2.296c.139-.261.342-.464.608-.608.272-.144.576-.216.912-.216zm4.895 4.512c-.41 0-.782-.09-1.112-.272a2.068 2.068 0 01-.776-.784c-.187-.341-.28-.739-.28-1.192 0-.453.096-.848.288-1.184a1.98 1.98 0 01.784-.784c.33-.187.701-.28 1.112-.28.41 0 .781.093 1.112.28.336.181.597.443.784.784.192.336.288.73.288 1.184 0 .448-.096.843-.288 1.184a2.02 2.02 0 01-.792.792 2.32 2.32 0 01-1.12.272zm0-.488c.288 0 .555-.064.8-.192.245-.133.442-.33.592-.592.154-.267.232-.592.232-.976s-.075-.707-.224-.968a1.438 1.438 0 00-.592-.592 1.649 1.649 0 00-.8-.2c-.288 0-.555.067-.8.2a1.438 1.438 0 00-.592.592c-.144.261-.216.584-.216.968s.072.71.216.976c.15.261.344.459.584.592.245.128.512.192.8.192zm8.42-4.024c.513 0 .929.163 1.249.488.325.32.488.787.488 1.4V39h-.552v-2.496c0-.475-.115-.837-.344-1.088-.23-.25-.542-.376-.936-.376-.411 0-.739.136-.984.408-.246.272-.368.667-.368 1.184V39h-.552v-2.496c0-.475-.115-.837-.344-1.088-.23-.25-.544-.376-.944-.376-.411 0-.739.136-.984.408-.246.272-.368.667-.368 1.184V39h-.56v-4.368h.56v.752c.138-.272.336-.477.592-.616.256-.144.541-.216.856-.216.378 0 .709.09.992.272.288.181.496.448.624.8.117-.347.317-.61.6-.792.288-.187.613-.28.976-.28zm6.932 2.04c0 .192-.005.339-.016.44h-3.624c.016.33.096.613.24.848s.334.413.568.536c.235.117.491.176.768.176.363 0 .667-.088.912-.264.251-.176.416-.413.496-.712h.592a1.861 1.861 0 01-.688 1.048c-.346.267-.784.4-1.312.4-.41 0-.778-.09-1.104-.272a2.011 2.011 0 01-.768-.784c-.181-.341-.272-.739-.272-1.192 0-.453.091-.85.272-1.192a1.89 1.89 0 01.76-.784 2.245 2.245 0 011.112-.272c.416 0 .779.09 1.088.272.315.181.555.427.72.736.171.304.256.643.256 1.016zm-.568-.016c.006-.325-.061-.603-.2-.832a1.297 1.297 0 00-.552-.52 1.694 1.694 0 00-.768-.176c-.416 0-.77.133-1.064.4-.293.267-.456.643-.488 1.128h3.072zm5.7 2.488c-.41 0-.781-.09-1.112-.272a2.068 2.068 0 01-.776-.784c-.187-.341-.28-.739-.28-1.192 0-.453.096-.848.288-1.184a1.98 1.98 0 01.784-.784c.33-.187.702-.28 1.112-.28.41 0 .781.093 1.112.28.336.181.597.443.784.784.192.336.288.73.288 1.184 0 .448-.096.843-.288 1.184a2.02 2.02 0 01-.792.792 2.32 2.32 0 01-1.12.272zm0-.488c.288 0 .555-.064.8-.192.246-.133.443-.33.592-.592.155-.267.232-.592.232-.976s-.075-.707-.224-.968a1.438 1.438 0 00-.592-.592 1.649 1.649 0 00-.8-.2c-.288 0-.555.067-.8.2a1.438 1.438 0 00-.592.592c-.144.261-.216.584-.216.968s.072.71.216.976c.15.261.344.459.584.592.246.128.512.192.8.192zm4.941-3.472h-1.016V39h-.56v-3.896h-.608v-.472h.608v-.304c0-.475.12-.824.36-1.048.245-.224.64-.336 1.184-.336v.48c-.363 0-.619.07-.768.208-.144.139-.216.37-.216.696v.304h1.016v.472zm4.797 0H95.39V39h-.56v-3.896h-.608v-.472h.608v-.304c0-.475.12-.824.36-1.048.245-.224.64-.336 1.184-.336v.48c-.363 0-.619.07-.768.208-.144.139-.216.37-.216.696v.304h1.016v.472zm2.793 3.96c-.41 0-.78-.09-1.112-.272a2.068 2.068 0 01-.776-.784c-.186-.341-.28-.739-.28-1.192 0-.453.096-.848.288-1.184a1.98 1.98 0 01.784-.784c.331-.187.702-.28 1.112-.28.411 0 .782.093 1.112.28.336.181.598.443.784.784.192.336.288.73.288 1.184 0 .448-.096.843-.288 1.184a2.02 2.02 0 01-.792.792 2.318 2.318 0 01-1.12.272zm0-.488a1.7 1.7 0 00.8-.192c.246-.133.443-.33.592-.592.155-.267.232-.592.232-.976s-.074-.707-.224-.968a1.432 1.432 0 00-.592-.592 1.646 1.646 0 00-.8-.2 1.65 1.65 0 00-.8.2 1.439 1.439 0 00-.592.592c-.144.261-.216.584-.216.968s.072.71.216.976c.15.261.344.459.584.592.246.128.512.192.8.192zm3.781-3.168a1.38 1.38 0 01.56-.632c.256-.15.568-.224.936-.224v.584h-.152c-.405 0-.73.11-.976.328-.245.219-.368.584-.368 1.096V39h-.56v-4.368h.56v.776zm6.291 1.184c0 .192-.006.339-.016.44h-3.624c.016.33.096.613.24.848s.333.413.568.536c.234.117.49.176.768.176.362 0 .666-.088.912-.264.25-.176.416-.413.496-.712h.592a1.863 1.863 0 01-.688 1.048c-.347.267-.784.4-1.312.4-.411 0-.779-.09-1.104-.272a2.002 2.002 0 01-.768-.784c-.182-.341-.272-.739-.272-1.192 0-.453.09-.85.272-1.192.181-.341.434-.603.76-.784a2.244 2.244 0 011.112-.272c.416 0 .778.09 1.088.272.314.181.554.427.72.736.17.304.256.643.256 1.016zm-.568-.016c.005-.325-.062-.603-.2-.832a1.305 1.305 0 00-.552-.52 1.695 1.695 0 00-.768-.176c-.416 0-.771.133-1.064.4-.294.267-.456.643-.488 1.128h3.072zm3.88 2.424l-1.128-1.76-1.088 1.76h-.592l1.408-2.184-1.392-2.184h.632l1.112 1.736 1.08-1.736h.584l-1.392 2.16L113.216 39h-.632zM2.552 50.064c-.41 0-.781-.09-1.112-.272a2.068 2.068 0 01-.776-.784c-.187-.341-.28-.739-.28-1.192 0-.453.096-.848.288-1.184a1.98 1.98 0 01.784-.784c.33-.187.701-.28 1.112-.28.41 0 .781.093 1.112.28.336.181.597.443.784.784.192.336.288.73.288 1.184 0 .448-.096.843-.288 1.184a2.02 2.02 0 01-.792.792 2.32 2.32 0 01-1.12.272zm0-.488c.288 0 .555-.064.8-.192.245-.133.443-.33.592-.592.155-.267.232-.592.232-.976s-.075-.707-.224-.968a1.438 1.438 0 00-.592-.592 1.649 1.649 0 00-.8-.2c-.288 0-.555.067-.8.2a1.438 1.438 0 00-.592.592c-.144.261-.216.584-.216.968s.072.71.216.976c.15.261.344.459.584.592.245.128.512.192.8.192zm5.269-4.024c.522 0 .95.163 1.28.488.33.32.496.787.496 1.4V50h-.552v-2.496c0-.475-.12-.837-.36-1.088-.235-.25-.558-.376-.968-.376-.422 0-.758.133-1.008.4s-.376.659-.376 1.176V50h-.56v-4.368h.56v.744c.138-.267.338-.47.6-.608a1.81 1.81 0 01.888-.216zm4.954 2.256c0-.448.088-.84.264-1.176.181-.341.429-.603.744-.784.32-.187.68-.28 1.08-.28.416 0 .773.096 1.072.288.304.192.522.437.656.736v-.96h.56V50h-.56v-.968a1.77 1.77 0 01-.664.744c-.299.192-.656.288-1.072.288-.395 0-.752-.093-1.072-.28a1.977 1.977 0 01-.744-.792 2.548 2.548 0 01-.264-1.184zm3.816.008c0-.352-.072-.661-.216-.928a1.582 1.582 0 00-1.408-.832c-.31 0-.587.07-.832.208-.246.139-.44.341-.584.608-.139.261-.208.573-.208.936 0 .357.069.672.208.944.144.267.338.472.584.616.245.139.522.208.832.208a1.582 1.582 0 001.408-.832c.144-.267.216-.576.216-.928zm3.886-2.264c.523 0 .95.163 1.28.488.33.32.496.787.496 1.4V50h-.552v-2.496c0-.475-.12-.837-.36-1.088-.235-.25-.557-.376-.968-.376-.421 0-.757.133-1.008.4-.25.267-.376.659-.376 1.176V50h-.56v-4.368h.56v.744c.139-.267.339-.47.6-.608.261-.144.557-.216.888-.216zm4.954 2.256c0-.448.088-.84.264-1.176a1.92 1.92 0 01.744-.784c.32-.187.68-.28 1.08-.28.416 0 .773.096 1.072.288.304.192.522.437.656.736v-.96h.56V50h-.56v-.968c-.139.299-.36.547-.664.744-.299.192-.656.288-1.072.288-.395 0-.752-.093-1.072-.28a1.976 1.976 0 01-.744-.792 2.548 2.548 0 01-.264-1.184zm3.816.008c0-.352-.072-.661-.216-.928a1.533 1.533 0 00-.592-.616 1.583 1.583 0 00-.816-.216c-.31 0-.587.07-.832.208-.245.139-.44.341-.584.608-.139.261-.208.573-.208.936 0 .357.07.672.208.944.144.267.338.472.584.616.245.139.523.208.832.208.299 0 .57-.072.816-.216.25-.144.448-.35.592-.616.144-.267.216-.576.216-.928zm7.598-2.184L35.477 50h-.56l-1.208-3.664L32.501 50h-.568l-1.368-4.368h.568l1.088 3.8 1.224-3.8h.56l1.208 3.808 1.08-3.808h.552zm.508 2.176c0-.448.088-.84.264-1.176a1.92 1.92 0 01.744-.784c.32-.187.68-.28 1.08-.28.416 0 .773.096 1.072.288.304.192.522.437.656.736v-.96h.56V50h-.56v-.968c-.139.299-.36.547-.664.744-.299.192-.656.288-1.072.288-.395 0-.752-.093-1.072-.28a1.976 1.976 0 01-.744-.792 2.548 2.548 0 01-.264-1.184zm3.816.008c0-.352-.072-.661-.216-.928a1.533 1.533 0 00-.592-.616 1.583 1.583 0 00-.816-.216c-.31 0-.587.07-.832.208-.246.139-.44.341-.584.608-.139.261-.208.573-.208.936 0 .357.07.672.208.944.144.267.338.472.584.616.245.139.522.208.832.208.298 0 .57-.072.816-.216.25-.144.448-.35.592-.616.144-.267.216-.576.216-.928zm2.398-1.408c.123-.272.31-.483.56-.632.256-.15.568-.224.936-.224v.584h-.152c-.405 0-.73.11-.976.328-.245.219-.368.584-.368 1.096V50h-.56v-4.368h.56v.776zm2.083 1.4c0-.448.09-.84.272-1.176.181-.341.429-.603.744-.784.32-.187.68-.28 1.08-.28.384 0 .73.093 1.04.28.309.187.536.43.68.728V44.08h.56V50h-.56v-.976a1.706 1.706 0 01-.656.752 1.965 1.965 0 01-1.072.288c-.4 0-.76-.093-1.08-.28a1.977 1.977 0 01-.744-.792 2.548 2.548 0 01-.264-1.184zm3.816.008c0-.352-.072-.661-.216-.928a1.582 1.582 0 00-1.408-.832c-.31 0-.587.07-.832.208-.246.139-.44.341-.584.608-.139.261-.208.573-.208.936 0 .357.069.672.208.944.144.267.338.472.584.616.245.139.522.208.832.208a1.582 1.582 0 001.408-.832c.144-.267.216-.576.216-.928zm4.55-1.016v.472h-3.112V46.8h3.112zm7.197-1.168L59.843 50h-.56l-1.207-3.664L56.867 50H56.3l-1.367-4.368h.568l1.088 3.8 1.224-3.8h.56l1.208 3.808 1.08-3.808h.551zm1.043-.824a.393.393 0 01-.288-.12.402.402 0 01-.12-.296c0-.117.04-.213.12-.288.08-.08.176-.12.288-.12.112 0 .208.04.288.12.08.075.12.17.12.288 0 .117-.04.216-.12.296a.393.393 0 01-.288.12zm.28.824V50h-.56v-4.368h.56zm3.316-.08c.523 0 .95.163 1.28.488.33.32.496.787.496 1.4V50h-.552v-2.496c0-.475-.12-.837-.36-1.088-.235-.25-.557-.376-.968-.376-.421 0-.757.133-1.008.4-.25.267-.376.659-.376 1.176V50h-.56v-4.368h.56v.744c.139-.267.339-.47.6-.608.261-.144.557-.216.888-.216zm5.063 0c.522 0 .949.163 1.28.488.33.32.496.787.496 1.4V50h-.552v-2.496c0-.475-.12-.837-.36-1.088-.235-.25-.558-.376-.968-.376-.422 0-.758.133-1.008.4-.251.267-.376.659-.376 1.176V50h-.56v-4.368h.56v.744c.138-.267.338-.47.6-.608.26-.144.557-.216.888-.216zm3.294-.744a.393.393 0 01-.288-.12.402.402 0 01-.12-.296c0-.117.04-.213.12-.288.08-.08.176-.12.288-.12.112 0 .208.04.288.12.08.075.12.17.12.288 0 .117-.04.216-.12.296a.393.393 0 01-.288.12zm.28.824V50h-.56v-4.368h.56zm3.316-.08c.523 0 .95.163 1.28.488.33.32.496.787.496 1.4V50h-.552v-2.496c0-.475-.12-.837-.36-1.088-.234-.25-.557-.376-.968-.376-.421 0-.757.133-1.008.4-.25.267-.376.659-.376 1.176V50h-.56v-4.368h.56v.744c.139-.267.339-.47.6-.608.261-.144.558-.216.888-.216zm4.847.016c.41 0 .768.096 1.072.288.304.192.522.435.656.728v-.952h.56v4.48c0 .4-.088.755-.264 1.064-.171.31-.411.547-.72.712-.31.17-.662.256-1.056.256-.56 0-1.027-.133-1.4-.4a1.702 1.702 0 01-.688-1.088h.552c.096.304.277.547.544.728.272.181.602.272.992.272.282 0 .536-.061.76-.184.224-.117.4-.293.528-.528.128-.235.192-.512.192-.832v-1.08c-.139.299-.36.547-.664.744-.299.192-.654.288-1.064.288-.4 0-.76-.093-1.08-.28a1.976 1.976 0 01-.744-.792 2.548 2.548 0 01-.264-1.184c0-.448.088-.84.264-1.176a1.92 1.92 0 01.744-.784c.32-.187.68-.28 1.08-.28zm1.728 2.248c0-.352-.072-.661-.216-.928a1.582 1.582 0 00-1.408-.832c-.31 0-.587.07-.832.208-.246.139-.44.341-.584.608-.139.261-.208.573-.208.936 0 .357.069.672.208.944.144.267.338.472.584.616.245.139.522.208.832.208a1.582 1.582 0 001.408-.832c.144-.267.216-.576.216-.928zm4.585-1.224a1.75 1.75 0 01.656-.728c.304-.197.664-.296 1.08-.296.395 0 .75.093 1.064.28.32.181.568.443.744.784.182.336.272.728.272 1.176 0 .448-.09.843-.272 1.184a1.906 1.906 0 01-.744.792c-.314.187-.669.28-1.064.28-.41 0-.768-.096-1.072-.288a1.785 1.785 0 01-.664-.736v3.024h-.552v-6.432h.552v.96zm3.248 1.216c0-.363-.072-.675-.216-.936a1.443 1.443 0 00-.576-.608 1.66 1.66 0 00-.832-.208c-.298 0-.573.072-.824.216a1.55 1.55 0 00-.584.616 1.923 1.923 0 00-.216.928c0 .352.072.661.216.928.144.267.34.472.584.616.251.144.526.216.824.216.31 0 .587-.07.832-.208.246-.144.438-.35.576-.616.144-.272.216-.587.216-.944zm2.159-3.728V50h-.56v-5.92h.56zm1.012 3.728c0-.448.088-.84.264-1.176a1.92 1.92 0 01.744-.784c.32-.187.68-.28 1.08-.28.416 0 .773.096 1.072.288.304.192.523.437.656.736v-.96h.56V50h-.56v-.968c-.139.299-.36.547-.664.744-.299.192-.656.288-1.072.288-.395 0-.752-.093-1.072-.28a1.976 1.976 0 01-.744-.792 2.548 2.548 0 01-.264-1.184zm3.816.008c0-.352-.072-.661-.216-.928a1.582 1.582 0 00-1.408-.832c-.31 0-.587.07-.832.208-.245.139-.44.341-.584.608-.139.261-.208.573-.208.936 0 .357.07.672.208.944.144.267.339.472.584.616.245.139.523.208.832.208a1.582 1.582 0 001.408-.832c.144-.267.216-.576.216-.928zm2.566-1.712v2.712c0 .267.051.45.152.552.102.101.28.152.536.152h.512V50h-.6c-.394 0-.688-.09-.88-.272-.192-.187-.288-.49-.288-.912v-2.712h-.608v-.472h.608v-1.096h.568v1.096h1.2v.472h-1.2zm3.844 0h-1.016V50h-.56v-3.896h-.608v-.472h.608v-.304c0-.475.12-.824.36-1.048.245-.224.64-.336 1.184-.336v.48c-.363 0-.619.07-.768.208-.144.139-.216.37-.216.696v.304h1.016v.472zm2.794 3.96c-.411 0-.782-.09-1.112-.272a2.063 2.063 0 01-.776-.784c-.187-.341-.28-.739-.28-1.192 0-.453.096-.848.288-1.184.192-.341.453-.603.784-.784a2.22 2.22 0 011.112-.28c.41 0 .781.093 1.112.28.336.181.597.443.784.784.192.336.288.73.288 1.184 0 .448-.096.843-.288 1.184a2.02 2.02 0 01-.792.792c-.336.181-.71.272-1.12.272zm0-.488c.288 0 .554-.064.8-.192a1.51 1.51 0 00.592-.592c.154-.267.232-.592.232-.976s-.075-.707-.224-.968a1.444 1.444 0 00-.592-.592 1.65 1.65 0 00-.8-.2c-.288 0-.555.067-.8.2a1.432 1.432 0 00-.592.592c-.144.261-.216.584-.216.968s.072.71.216.976c.149.261.344.459.584.592.245.128.512.192.8.192zm3.78-3.168a1.38 1.38 0 01.56-.632c.256-.15.568-.224.936-.224v.584h-.152c-.405 0-.73.11-.976.328-.245.219-.368.584-.368 1.096V50h-.56v-4.368h.56v.776zm7.539-.856c.512 0 .928.163 1.248.488.325.32.488.787.488 1.4V50h-.552v-2.496c0-.475-.115-.837-.344-1.088-.23-.25-.542-.376-.936-.376-.411 0-.739.136-.984.408-.246.272-.368.667-.368 1.184V50h-.552v-2.496c0-.475-.115-.837-.344-1.088-.23-.25-.544-.376-.944-.376-.411 0-.739.136-.984.408-.246.272-.368.667-.368 1.184V50h-.56v-4.368h.56v.752c.138-.272.336-.477.592-.616.256-.144.541-.216.856-.216.378 0 .709.09.992.272.288.181.496.448.624.8a1.46 1.46 0 01.6-.792c.288-.187.613-.28.976-.28z" fill="#fff"/></svg>