<svg width="162" height="34" viewBox="0 0 162 34" fill="none" xmlns="http://www.w3.org/2000/svg"><path d="M26.943 8.677V.807H.257v32.6h26.966v-7.87H9.013v-4.89h16.673v-7.452H9.013V8.677h17.93zm30.764-.372V.806h-27.71v7.499h9.454v25.103h8.802V8.304h9.454zm35.237 25.103V.806H84.14v12.296H70.868V.806h-8.756v32.602h8.756V20.972h13.273v12.436h8.803zm33.332-24.73V.805H99.589v32.602h26.966v-7.871h-18.21v-4.89h16.673v-7.452h-16.673V8.677h17.931zm5.241-7.825v32.555h8.756v-9.92h5.216l6.334 9.92h10.107l-7.312-11.085c4.517-1.537 6.427-4.843 6.427-10.153 0-7.964-4.238-11.317-14.857-11.317h-14.671zm8.756 7.87h6.334c3.866 0 5.31 1.212 5.31 4.006 0 2.84-1.444 4.005-5.31 4.005h-6.334v-8.01z" fill="#09B45B"/></svg>