<svg width="188" height="32" viewBox="0 0 188 32" fill="none" xmlns="http://www.w3.org/2000/svg"><path d="M16.13.92C7.358.92.263 7.845.263 16.4c0 8.515 7.095 15.438 15.867 15.438 5.375 0 10.105-2.58 12.943-6.58l-7.01-3.955c-1.332 1.806-3.396 2.967-5.89 2.967-4.386 0-7.44-3.526-7.44-7.87 0-4.385 3.054-7.911 7.44-7.911 2.494 0 4.558 1.16 5.89 2.967l7.01-3.956C26.235 3.5 21.505.92 16.13.92zm17.578.43v30.058h8.084v-9.16h4.816l5.848 9.16h9.33l-6.75-10.234c4.17-1.42 5.934-4.472 5.934-9.374 0-7.353-3.913-10.45-13.717-10.45H33.708zm8.084 7.268h5.848c3.569 0 4.902 1.118 4.902 3.698 0 2.623-1.333 3.698-4.902 3.698h-5.848V8.618zm40.923 12.47l11.997-19.78h-9.589L78.716 12.53 72.352 1.308h-9.675l11.954 19.866v10.234h8.084v-10.32zM98.795 1.35v30.057h8.085V22.85h5.16c8.944 0 13.201-3.311 13.201-10.664S121.199 1.35 111.954 1.35H98.796zm8.085 6.966h4.773c3.612 0 5.16 1.333 5.16 4.17 0 2.882-1.591 4.129-5.16 4.129h-4.773v-8.3zm46.974-.086V1.308h-25.585V8.23h8.729v23.177h8.127V8.23h8.729zM171.549.92c-8.901 0-16.125 6.923-16.125 15.48 0 8.514 7.224 15.437 16.125 15.437s16.125-6.923 16.125-15.437c0-8.557-7.224-15.48-16.125-15.48zm0 7.568c4.515 0 7.697 3.526 7.697 7.912 0 4.343-3.182 7.869-7.697 7.869-4.515 0-7.654-3.526-7.654-7.87 0-4.385 3.139-7.911 7.654-7.911z" fill="#09B45B"/></svg>