<svg width="200" height="34" viewBox="0 0 200 34" fill="none" xmlns="http://www.w3.org/2000/svg"><path d="M.79.853v32.555h18.35c8.477 0 11.178-4.425 11.178-8.896 0-3.4-1.537-6.8-6.1-8.197 3.073-1.257 4.796-3.68 4.796-7.219 0-5.449-3.959-8.29-10.665-8.29L.79.853zm8.756 13.133V7.978h6.241c2.608 0 4.052 1.025 4.052 3.028 0 1.956-1.49 2.98-4.052 2.98h-6.24zm0 12.296v-6.474h7.406c3.213 0 4.238 1.63 4.238 3.26s-1.025 3.214-4.238 3.214H9.546zm34.567 7.126V.853h-8.756v32.555h8.756zM76.297 8.304V.807h-27.71v7.499h9.454v25.103h8.802V8.304h9.454zM95.184.388c-9.501 0-17.186 7.498-17.186 16.766 0 9.222 7.685 16.72 17.186 16.72 5.821 0 10.944-2.794 14.018-7.125l-7.591-4.285c-1.444 1.956-3.68 3.213-6.38 3.213-4.751 0-8.058-3.819-8.058-8.523 0-4.75 3.307-8.57 8.057-8.57 2.701 0 4.937 1.258 6.381 3.214l7.591-4.284C106.128 3.18 101.005.387 95.184.387zm35.027 0c-9.64 0-17.465 7.498-17.465 16.766 0 9.222 7.825 16.72 17.465 16.72 9.641 0 17.465-7.498 17.465-16.72 0-9.268-7.824-16.766-17.465-16.766zm0 8.197c4.89 0 8.337 3.819 8.337 8.57 0 4.703-3.447 8.522-8.337 8.522s-8.29-3.819-8.29-8.523c0-4.75 3.4-8.57 8.29-8.57zm32.018 24.824V.853h-8.756v32.555h8.756zm37.215 0V.806h-8.616v18.21L177.694.806h-9.082v32.602h8.616V15.244l13.134 18.164h9.082z" fill="#09B45B"/></svg>