<svg width="176" height="34" viewBox="0 0 176 34" fill="none" xmlns="http://www.w3.org/2000/svg"><path d="M.526.853v32.555H9.28v-9.92H14.498l6.334 9.92h10.106l-7.312-11.085c4.518-1.537 6.427-4.843 6.427-10.153 0-7.964-4.238-11.317-14.857-11.317H.526zm8.755 7.87h6.334c3.866 0 5.31 1.212 5.31 4.006 0 2.84-1.444 4.005-5.31 4.005H9.281v-8.01zm34.84 24.685V.853h-8.756v32.555h8.755zM50.782.853v32.555h8.756V24.14h5.589c9.687 0 14.298-3.587 14.298-11.55 0-7.965-4.378-11.737-14.392-11.737H50.783zm8.756 7.545h5.17c3.912 0 5.588 1.443 5.588 4.517 0 3.12-1.723 4.471-5.589 4.471h-5.17V8.398zM84.894.853v32.555h8.756V24.14h5.589c9.687 0 14.298-3.587 14.298-11.55 0-7.965-4.378-11.737-14.391-11.737H84.894zm8.756 7.545h5.17c3.912 0 5.589 1.443 5.589 4.517 0 3.12-1.724 4.471-5.59 4.471H93.65V8.398zm34.112 17.139V.807h-8.756v32.6h24.73v-7.87h-15.974zm47.084-16.86V.807H148.16v32.6h26.966v-7.87h-18.211v-4.89h16.674v-7.452h-16.674V8.677h17.931z" fill="#09B45B"/></svg>