<svg width="101" height="25" viewBox="0 0 101 25" fill="none" xmlns="http://www.w3.org/2000/svg"><path d="M1.524 9l.78-2.076h3.444L6.54 9h1.476L4.884.6H3.24L.096 9h1.428zM4.02 2.088l1.344 3.66H2.688l1.332-3.66zM11.948 9h1.38V6.78l1.452-1.632L17.42 9h1.668l-3.312-4.872L18.86.6h-1.68l-3.852 4.332V.6h-1.38V9zm11.006-6.216c-.996 0-1.584.396-1.968.876l-.144-.804h-1.128V9h1.296V5.904c0-1.248.612-2.004 1.644-2.004.972 0 1.464.624 1.464 1.788V9h1.308V5.58c0-2.052-1.116-2.796-2.472-2.796zm6.508 6.288c1.872 0 3.132-1.26 3.132-3.144 0-1.872-1.26-3.144-3.132-3.144S26.33 4.056 26.33 5.928c0 1.884 1.26 3.144 3.132 3.144zm0-1.104c-1.092 0-1.8-.852-1.8-2.04 0-1.188.708-2.04 1.8-2.04s1.812.852 1.812 2.04c0 1.188-.72 2.04-1.812 2.04zm6.994 1.104c1.572 0 2.616-.876 2.856-2.268h-1.368c-.156.708-.684 1.164-1.476 1.164-1.044 0-1.728-.828-1.728-2.028 0-1.212.684-2.052 1.728-2.052.804 0 1.32.444 1.488 1.164h1.356c-.252-1.392-1.236-2.268-2.82-2.268-1.86 0-3.084 1.26-3.084 3.156 0 1.92 1.188 3.132 3.048 3.132zM40.304 9H41.6V7.44l1.104-1.152L44.516 9h1.536l-2.46-3.66 2.316-2.484h-1.524L41.6 5.832V.6h-1.296V9zm8.892.072c1.872 0 3.132-1.26 3.132-3.144 0-1.872-1.26-3.144-3.132-3.144s-3.132 1.272-3.132 3.144c0 1.884 1.26 3.144 3.132 3.144zm0-1.104c-1.092 0-1.8-.852-1.8-2.04 0-1.188.708-2.04 1.8-2.04s1.812.852 1.812 2.04c0 1.188-.72 2.04-1.812 2.04zm8.386-2.04c0 1.272-.6 2.016-1.584 2.016-.948 0-1.428-.612-1.428-1.812V2.856h-1.296v3.42c0 2.1 1.116 2.796 2.424 2.796.948 0 1.512-.384 1.896-.852l.144.78h1.14V2.856h-1.296v3.072zm3.053 1.404c0 1.116.504 1.668 1.68 1.668h1.2V7.86h-.912c-.492 0-.66-.18-.66-.66V3.996h1.5v-1.14h-1.5V1.14h-1.308v1.716h-1.068v1.14h1.068v3.336zM75.377 4.8c0-2.46-1.668-4.272-4.08-4.272s-4.08 1.812-4.08 4.272 1.668 4.272 4.08 4.272 4.08-1.812 4.08-4.272zm-6.744 0c0-1.776 1.068-3.06 2.664-3.06s2.664 1.284 2.664 3.06-1.068 3.06-2.664 3.06-2.664-1.284-2.664-3.06zm14.783-3.06V.6H82.18c-1.188 0-1.716.564-1.716 1.644v.612h-2.256V2.34c0-.42.168-.6.588-.6h.912V.6h-1.092c-1.188 0-1.716.564-1.716 1.644v.612h-1.068v1.14H76.9V9h1.308V3.996h2.256V9h1.296V3.996h1.656v-1.14H81.76V2.34c0-.42.18-.6.6-.6h1.056zm3.34 7.332c1.523 0 2.555-.924 2.771-2.136h-1.296c-.18.684-.756 1.08-1.548 1.08-1.02 0-1.68-.684-1.716-1.728v-.084H89.6a3.52 3.52 0 00.036-.492c-.036-1.8-1.224-2.928-3-2.928-1.812 0-3.024 1.26-3.024 3.156 0 1.884 1.212 3.132 3.144 3.132zm-1.74-3.816c.095-.876.803-1.428 1.631-1.428.9 0 1.536.516 1.644 1.428h-3.276zm8.775-2.4c-1.008 0-1.5.408-1.812.924l-.144-.924h-1.152V9h1.296V5.916c0-.948.372-1.848 1.524-1.848h.576V2.856h-.288zm.967 1.044c0 .48.348.816.828.816s.84-.336.84-.816c0-.48-.36-.816-.84-.816s-.828.336-.828.816zm0 4.356c0 .48.348.816.828.816s.84-.336.84-.816c0-.48-.36-.816-.84-.816s-.828.336-.828.816zM4.2 18.164c-1.32-.228-2.184-.408-2.184-1.272 0-.792.66-1.2 1.608-1.2 1.02 0 1.692.576 1.8 1.428h1.38c-.048-1.356-.972-2.316-2.484-2.544v-1.272H3.156v1.248c-1.524.156-2.52 1.104-2.52 2.436 0 1.668 1.32 2.112 2.712 2.352 1.332.24 2.208.432 2.208 1.32 0 .804-.72 1.248-1.716 1.248-1.176 0-1.944-.66-2.016-1.644L.432 20.24c.048 1.488 1.044 2.568 2.724 2.784v1.26H4.32v-1.236c1.572-.168 2.616-1.164 2.616-2.532.012-1.656-1.344-2.1-2.736-2.352zM7.647 23h5.952v-1.164H9.53l2.232-1.86c1.02-.852 1.776-1.632 1.776-2.88 0-1.536-1.056-2.568-2.94-2.568-1.788 0-2.94 1.164-2.94 2.76v.216H8.99v-.144c0-1.044.648-1.692 1.608-1.692.96 0 1.596.528 1.596 1.488 0 .804-.564 1.392-1.32 2.028l-3.228 2.748V23zm6.766-4.008c0 2.532 1.356 4.08 3.312 4.08 1.956 0 3.312-1.548 3.312-4.08v-.384c0-2.436-1.356-4.08-3.312-4.08-1.956 0-3.312 1.644-3.312 4.08v.384zm5.28-.048c0 1.884-.792 2.964-1.968 2.964s-1.968-1.08-1.968-2.964v-.288c0-1.872.792-2.964 1.968-2.964s1.968 1.092 1.968 2.964v.288zm2.279.048c0 2.532 1.356 4.08 3.312 4.08 1.956 0 3.312-1.548 3.312-4.08v-.384c0-2.436-1.356-4.08-3.312-4.08-1.956 0-3.312 1.644-3.312 4.08v.384zm5.28-.048c0 1.884-.792 2.964-1.968 2.964s-1.968-1.08-1.968-2.964v-.288c0-1.872.792-2.964 1.968-2.964s1.968 1.092 1.968 2.964v.288zm5.12-3.12h2.593V23h1.38v-7.176h2.592V14.6h-6.564v1.224zm9.974 1.032c-1.008 0-1.5.408-1.812.924l-.144-.924h-1.152V23h1.296v-3.084c0-.948.372-1.848 1.524-1.848h.576v-1.212h-.288zm6.515 5.016c-.264 0-.396-.084-.396-.396v-2.46c0-1.452-.936-2.232-2.568-2.232-1.548 0-2.58.744-2.712 1.944h1.272c.096-.54.612-.9 1.38-.9.852 0 1.344.42 1.344 1.104v.372h-1.548c-1.716 0-2.628.708-2.628 1.968 0 1.14.936 1.8 2.28 1.8.996 0 1.62-.432 2.028-1.056 0 .612.288.984 1.128.984h.684v-1.128h-.264zm-1.68-1.392c-.012.948-.636 1.584-1.716 1.584-.708 0-1.14-.36-1.14-.876 0-.624.444-.924 1.248-.924h1.608v.216zm7.271-2.772c-.396-.54-1.056-.924-1.992-.924-1.668 0-2.904 1.248-2.904 3.144 0 1.968 1.236 3.144 2.904 3.144.972 0 1.608-.456 2.004-.996l.156.924h1.128v-8.4h-1.296v3.108zm-1.776 4.272c-1.08 0-1.788-.84-1.788-2.052 0-1.2.708-2.04 1.788-2.04s1.788.84 1.788 2.064c0 1.188-.708 2.028-1.788 2.028zm7.255 1.092c1.524 0 2.556-.924 2.772-2.136h-1.296c-.18.684-.756 1.08-1.548 1.08-1.02 0-1.68-.684-1.716-1.728v-.084h4.632a3.52 3.52 0 00.036-.492c-.036-1.8-1.224-2.928-3-2.928-1.812 0-3.024 1.26-3.024 3.156 0 1.884 1.212 3.132 3.144 3.132zm-1.74-3.816c.096-.876.804-1.428 1.632-1.428.9 0 1.536.516 1.644 1.428H58.19zM67.06 23h3.192c2.028 0 3.12-.912 3.12-2.4 0-1.2-.768-1.788-1.764-1.944.876-.24 1.44-.84 1.44-1.836 0-1.38-1.056-2.22-2.904-2.22h-3.084V23zm3.12-7.248c.96 0 1.488.456 1.488 1.2 0 .756-.54 1.212-1.488 1.212h-1.74v-2.412h1.74zm.084 3.552c1.068 0 1.692.456 1.692 1.284 0 .78-.588 1.248-1.692 1.248h-1.824v-2.532h1.824zm7.091 3.768c1.872 0 3.132-1.26 3.132-3.144 0-1.872-1.26-3.144-3.132-3.144s-3.132 1.272-3.132 3.144c0 1.884 1.26 3.144 3.132 3.144zm0-1.104c-1.092 0-1.8-.852-1.8-2.04 0-1.188.708-2.04 1.8-2.04s1.812.852 1.812 2.04c0 1.188-.72 2.04-1.812 2.04zm7.415-5.184c-.996 0-1.585.396-1.969.876l-.144-.804h-1.127V23h1.295v-3.096c0-1.248.613-2.004 1.645-2.004.971 0 1.463.624 1.463 1.788V23h1.309v-3.42c0-2.052-1.117-2.796-2.472-2.796zm7.862 3.144c0 1.272-.6 2.016-1.584 2.016-.948 0-1.428-.612-1.428-1.812v-3.276h-1.296v3.42c0 2.1 1.116 2.796 2.424 2.796.948 0 1.512-.384 1.896-.852l.144.78h1.14v-6.144h-1.296v3.072zm2.31 1.044c.035 1.332 1.163 2.1 2.807 2.1 1.488 0 2.604-.744 2.604-1.92 0-1.368-1.14-1.656-2.544-1.824-.888-.096-1.476-.168-1.476-.744 0-.492.504-.804 1.272-.804s1.296.396 1.368.96h1.272c-.084-1.26-1.152-1.956-2.664-1.956-1.476-.012-2.52.744-2.52 1.908 0 1.272 1.104 1.572 2.508 1.74.948.12 1.512.168 1.512.828 0 .492-.528.804-1.332.804-.936 0-1.488-.456-1.536-1.092h-1.272z" fill="#000"/></svg>