<svg width="191" height="15" viewBox="0 0 191 15" fill="none" xmlns="http://www.w3.org/2000/svg"><path d="M2.485 7.948c-.44 0-.817-.154-1.134-.462a1.565 1.565 0 01-.476-1.148c0-.457.158-.84.476-1.148a1.548 1.548 0 011.134-.476c.457 0 .84.159 1.148.476.317.308.476.69.476 1.148 0 .448-.16.83-.476 1.148-.308.308-.691.462-1.148.462zm17.893-3.92c0 .84-.275 1.517-.826 2.03-.55.513-1.377.77-2.478.77H15.1V11h-.98V1.214h2.954c1.092 0 1.913.257 2.464.77.56.513.84 1.195.84 2.044zm-3.304 1.96c1.53 0 2.296-.653 2.296-1.96 0-.653-.182-1.148-.546-1.484-.364-.336-.947-.504-1.75-.504H15.1v3.948h1.974zm5.928-1.274c.215-.476.542-.845.98-1.106.448-.261.994-.392 1.638-.392v1.022h-.266c-.709 0-1.278.191-1.708.574-.429.383-.644 1.022-.644 1.918V11h-.98V3.356h.98v1.358zm11.009 2.072c0 .336-.01.593-.028.77H27.64c.028.579.168 1.073.42 1.484.252.41.583.723.994.938.41.205.858.308 1.344.308.634 0 1.166-.154 1.596-.462.438-.308.728-.723.868-1.246h1.036a3.257 3.257 0 01-1.204 1.834c-.607.467-1.372.7-2.296.7-.72 0-1.363-.159-1.932-.476a3.519 3.519 0 01-1.344-1.372c-.318-.597-.476-1.293-.476-2.086 0-.793.158-1.489.476-2.086a3.309 3.309 0 011.33-1.372c.569-.317 1.218-.476 1.946-.476s1.362.159 1.904.476c.55.317.97.747 1.26 1.288.298.532.448 1.125.448 1.778zm-.994-.028c.009-.57-.108-1.055-.35-1.456a2.27 2.27 0 00-.966-.91 2.963 2.963 0 00-1.344-.308c-.728 0-1.35.233-1.862.7-.514.467-.798 1.125-.854 1.974h5.376zm3.277-4.844a.687.687 0 01-.504-.21.704.704 0 01-.21-.518c0-.205.07-.373.21-.504.14-.14.308-.21.504-.21s.364.07.504.21c.14.13.21.299.21.504 0 .205-.07.378-.21.518a.687.687 0 01-.504.21zm.49 1.442V11h-.98V3.356h.98zm4.85 7.756c-.877 0-1.595-.2-2.155-.602-.55-.41-.859-.966-.924-1.666h1.008c.046.43.247.78.602 1.05.364.261.85.392 1.456.392.532 0 .947-.126 1.246-.378.308-.252.462-.565.462-.938a.872.872 0 00-.252-.644 1.706 1.706 0 00-.644-.392 8.313 8.313 0 00-1.036-.322 10.61 10.61 0 01-1.386-.448 2.454 2.454 0 01-.91-.658c-.243-.299-.364-.695-.364-1.19 0-.373.112-.719.336-1.036.224-.317.541-.57.952-.756.41-.187.877-.28 1.4-.28.821 0 1.484.21 1.988.63.504.41.775.98.812 1.708h-.98c-.028-.448-.206-.807-.532-1.078-.318-.28-.756-.42-1.316-.42-.495 0-.896.117-1.204.35-.308.233-.462.523-.462.868 0 .299.088.546.266.742.187.187.415.336.686.448.27.103.635.22 1.092.35.55.15.99.294 1.316.434.326.14.606.345.84.616.233.27.355.63.364 1.078 0 .41-.112.78-.336 1.106a2.31 2.31 0 01-.938.756c-.401.187-.864.28-1.386.28zm7.712-7.868c.718 0 1.344.168 1.876.504.532.336.914.76 1.148 1.274V3.356h.98v7.84c0 .7-.154 1.32-.462 1.862a3.057 3.057 0 01-1.26 1.246c-.542.299-1.158.448-1.849.448-.98 0-1.796-.233-2.45-.7-.644-.467-1.045-1.101-1.203-1.904h.966c.168.532.485.957.952 1.274.476.317 1.054.476 1.736.476.494 0 .938-.107 1.33-.322.392-.205.7-.513.923-.924.224-.41.337-.896.337-1.456v-1.89c-.243.523-.63.957-1.162 1.302-.523.336-1.144.504-1.862.504-.7 0-1.33-.163-1.89-.49a3.459 3.459 0 01-1.303-1.386c-.307-.597-.462-1.288-.462-2.072s.154-1.47.462-2.058a3.362 3.362 0 011.303-1.372c.56-.327 1.19-.49 1.89-.49zm3.024 3.934c0-.616-.127-1.157-.378-1.624a2.682 2.682 0 00-1.036-1.078 2.769 2.769 0 00-1.428-.378c-.542 0-1.027.121-1.456.364-.43.243-.77.597-1.023 1.064-.242.457-.364 1.003-.364 1.638 0 .625.122 1.176.364 1.652.252.467.593.826 1.023 1.078.429.243.914.364 1.456.364.522 0 .998-.126 1.428-.378a2.682 2.682 0 001.035-1.078c.252-.467.379-1.008.379-1.624zm10.133-.392c0 .336-.01.593-.028.77h-6.342c.028.579.168 1.073.42 1.484.252.41.583.723.994.938.41.205.859.308 1.344.308.635 0 1.166-.154 1.596-.462.438-.308.728-.723.868-1.246h1.036a3.257 3.257 0 01-1.204 1.834c-.607.467-1.372.7-2.296.7-.719 0-1.363-.159-1.932-.476a3.519 3.519 0 01-1.344-1.372c-.318-.597-.476-1.293-.476-2.086 0-.793.158-1.489.476-2.086a3.309 3.309 0 011.33-1.372c.57-.317 1.218-.476 1.946-.476s1.363.159 1.904.476c.55.317.97.747 1.26 1.288.298.532.448 1.125.448 1.778zm-.994-.028c.01-.57-.108-1.055-.35-1.456a2.27 2.27 0 00-.966-.91 2.963 2.963 0 00-1.344-.308c-.728 0-1.349.233-1.862.7-.514.467-.798 1.125-.854 1.974h5.376zM68.426 11l-3.15-3.43V11h-.98V.64h.98v6.132l3.08-3.416h1.372l-3.626 3.808L69.756 11h-1.33zm3.576-6.286c.215-.476.542-.845.98-1.106.448-.261.994-.392 1.638-.392v1.022h-.266c-.709 0-1.278.191-1.708.574-.429.383-.644 1.022-.644 1.918V11h-.98V3.356h.98v1.358zm7.439 6.398c-.72 0-1.368-.159-1.946-.476a3.618 3.618 0 01-1.358-1.372c-.327-.597-.49-1.293-.49-2.086 0-.793.168-1.484.504-2.072a3.464 3.464 0 011.372-1.372 3.889 3.889 0 011.946-.49c.718 0 1.367.163 1.946.49a3.35 3.35 0 011.372 1.372c.336.588.504 1.279.504 2.072 0 .784-.168 1.475-.504 2.072a3.535 3.535 0 01-1.386 1.386 4.06 4.06 0 01-1.96.476zm0-.854c.504 0 .97-.112 1.4-.336.429-.233.774-.579 1.036-1.036.27-.467.406-1.036.406-1.708 0-.672-.131-1.237-.392-1.694-.262-.467-.607-.812-1.036-1.036a2.885 2.885 0 00-1.4-.35c-.504 0-.971.117-1.4.35-.43.224-.775.57-1.036 1.036-.252.457-.378 1.022-.378 1.694 0 .672.126 1.241.378 1.708a2.66 2.66 0 001.022 1.036c.429.224.896.336 1.4.336zm-1.022-8.05a.657.657 0 01-.462-.182.657.657 0 01-.182-.462c0-.177.06-.327.182-.448a.632.632 0 01.462-.196c.177 0 .326.065.448.196.13.121.196.27.196.448a.632.632 0 01-.196.462.609.609 0 01-.448.182zm2.156 0a.657.657 0 01-.462-.182.657.657 0 01-.182-.462c0-.177.06-.327.182-.448a.632.632 0 01.462-.196c.177 0 .326.065.448.196.12.121.182.27.182.448 0 .177-.061.331-.182.462a.609.609 0 01-.448.182zm8.086 1.008c.915 0 1.661.285 2.24.854.579.56.868 1.377.868 2.45V11h-.966V6.632c0-.83-.21-1.465-.63-1.904-.41-.439-.975-.658-1.694-.658-.737 0-1.325.233-1.764.7-.439.467-.658 1.153-.658 2.058V11h-.98V3.356h.98v1.302a2.46 2.46 0 011.05-1.064 3.166 3.166 0 011.554-.378zm6.55.966v4.746c0 .467.088.789.265.966.178.177.49.266.938.266h.896V11h-1.05c-.69 0-1.204-.159-1.54-.476-.336-.327-.504-.859-.504-1.596V4.182h-1.064v-.826h1.064V1.438h.994v1.918h2.1v.826h-2.1zm10.632 2.604c0 .336-.01.593-.028.77h-6.342c.028.579.168 1.073.42 1.484.252.41.583.723.994.938.41.205.858.308 1.344.308.634 0 1.166-.154 1.596-.462.438-.308.728-.723.868-1.246h1.036a3.258 3.258 0 01-1.204 1.834c-.607.467-1.372.7-2.296.7-.719 0-1.363-.159-1.932-.476a3.517 3.517 0 01-1.344-1.372c-.318-.597-.476-1.293-.476-2.086 0-.793.158-1.489.476-2.086a3.308 3.308 0 011.33-1.372c.569-.317 1.218-.476 1.946-.476s1.362.159 1.904.476c.55.317.97.747 1.26 1.288.298.532.448 1.125.448 1.778zm-.994-.028c.009-.57-.108-1.055-.35-1.456a2.279 2.279 0 00-.966-.91 2.965 2.965 0 00-1.344-.308c-.728 0-1.349.233-1.862.7-.514.467-.798 1.125-.854 1.974h5.376zm12.886-2.73c0 .84-.275 1.517-.826 2.03-.55.513-1.376.77-2.478.77h-1.974V11h-.98V1.214h2.954c1.092 0 1.914.257 2.464.77.56.513.84 1.195.84 2.044zm-3.304 1.96c1.531 0 2.296-.653 2.296-1.96 0-.653-.182-1.148-.546-1.484-.364-.336-.947-.504-1.75-.504h-1.974v3.948h1.974zM120.36.64V11h-.98V.64h.98zm1.771 6.524c0-.784.154-1.47.462-2.058a3.357 3.357 0 011.302-1.372c.56-.327 1.19-.49 1.89-.49.728 0 1.353.168 1.876.504.532.336.915.765 1.148 1.288v-1.68h.98V11h-.98V9.306c-.243.523-.63.957-1.162 1.302-.523.336-1.148.504-1.876.504a3.653 3.653 0 01-1.876-.49 3.453 3.453 0 01-1.302-1.386c-.308-.597-.462-1.288-.462-2.072zm6.678.014c0-.616-.126-1.157-.378-1.624a2.68 2.68 0 00-1.036-1.078 2.767 2.767 0 00-1.428-.378c-.541 0-1.027.121-1.456.364-.429.243-.77.597-1.022 1.064-.243.457-.364 1.003-.364 1.638 0 .625.121 1.176.364 1.652.252.467.593.826 1.022 1.078.429.243.915.364 1.456.364.523 0 .999-.126 1.428-.378a2.68 2.68 0 001.036-1.078c.252-.467.378-1.008.378-1.624zm4.491-2.996v4.746c0 .467.089.789.266.966.178.177.49.266.938.266h.896V11h-1.05c-.69 0-1.204-.159-1.54-.476-.336-.327-.504-.859-.504-1.596V4.182h-1.064v-.826h1.064V1.438h.994v1.918h2.1v.826h-2.1zm4.99 0v4.746c0 .467.089.789.266.966.178.177.49.266.938.266h.896V11h-1.05c-.69 0-1.204-.159-1.54-.476-.336-.327-.504-.859-.504-1.596V4.182h-1.064v-.826h1.064V1.438h.994v1.918h2.1v.826h-2.1zm6.727 0h-1.778V11h-.98V4.182h-1.064v-.826h1.064v-.532c0-.83.21-1.442.63-1.834.429-.392 1.12-.588 2.072-.588v.84c-.635 0-1.083.121-1.344.364-.252.243-.378.649-.378 1.218v.532h1.778v.826zm4.888 6.93c-.718 0-1.367-.159-1.946-.476a3.62 3.62 0 01-1.358-1.372c-.326-.597-.49-1.293-.49-2.086 0-.793.168-1.484.504-2.072a3.469 3.469 0 011.372-1.372 3.892 3.892 0 011.946-.49c.719 0 1.368.163 1.946.49a3.346 3.346 0 011.372 1.372c.336.588.504 1.279.504 2.072 0 .784-.168 1.475-.504 2.072a3.535 3.535 0 01-1.386 1.386 4.06 4.06 0 01-1.96.476zm0-.854a2.98 2.98 0 001.4-.336c.43-.233.775-.579 1.036-1.036.271-.467.406-1.036.406-1.708 0-.672-.13-1.237-.392-1.694-.261-.467-.606-.812-1.036-1.036a2.884 2.884 0 00-1.4-.35c-.504 0-.97.117-1.4.35-.429.224-.774.57-1.036 1.036-.252.457-.378 1.022-.378 1.694 0 .672.126 1.241.378 1.708.262.457.602.803 1.022 1.036.43.224.896.336 1.4.336zm6.617-5.544c.215-.476.541-.845.98-1.106.448-.261.994-.392 1.638-.392v1.022h-.266c-.709 0-1.279.191-1.708.574-.429.383-.644 1.022-.644 1.918V11h-.98V3.356h.98v1.358zm13.192-1.498c.896 0 1.624.285 2.184.854.569.56.854 1.377.854 2.45V11h-.966V6.632c0-.83-.201-1.465-.602-1.904-.401-.439-.947-.658-1.638-.658-.719 0-1.293.238-1.722.714-.429.476-.644 1.167-.644 2.072V11h-.966V6.632c0-.83-.201-1.465-.602-1.904-.401-.439-.952-.658-1.652-.658-.719 0-1.293.238-1.722.714-.429.476-.644 1.167-.644 2.072V11h-.98V3.356h.98v1.316a2.465 2.465 0 011.036-1.078 3.001 3.001 0 011.498-.378c.663 0 1.241.159 1.736.476.504.317.868.784 1.092 1.4.205-.607.555-1.069 1.05-1.386a3.07 3.07 0 011.708-.49zm12.131 3.57c0 .336-.01.593-.028.77h-6.342c.028.579.168 1.073.42 1.484.252.41.583.723.994.938.41.205.858.308 1.344.308.634 0 1.166-.154 1.596-.462.438-.308.728-.723.868-1.246h1.036a3.258 3.258 0 01-1.204 1.834c-.607.467-1.372.7-2.296.7-.719 0-1.363-.159-1.932-.476a3.51 3.51 0 01-1.344-1.372c-.318-.597-.476-1.293-.476-2.086 0-.793.158-1.489.476-2.086a3.303 3.303 0 011.33-1.372c.569-.317 1.218-.476 1.946-.476s1.362.159 1.904.476c.55.317.97.747 1.26 1.288.298.532.448 1.125.448 1.778zm-.994-.028c.009-.57-.108-1.055-.35-1.456a2.279 2.279 0 00-.966-.91 2.965 2.965 0 00-1.344-.308c-.728 0-1.349.233-1.862.7-.514.467-.798 1.125-.854 1.974h5.376zm6.371-3.542c.914 0 1.661.285 2.24.854.578.56.868 1.377.868 2.45V11h-.966V6.632c0-.83-.21-1.465-.63-1.904-.411-.439-.976-.658-1.694-.658-.738 0-1.326.233-1.764.7-.439.467-.658 1.153-.658 2.058V11h-.98V3.356h.98v1.302a2.453 2.453 0 011.05-1.064 3.164 3.164 0 011.554-.378z" fill="#fff"/></svg>