<svg width="225" height="12" viewBox="0 0 225 12" fill="none" xmlns="http://www.w3.org/2000/svg"><path d="M2.485 7.948c-.44 0-.817-.154-1.134-.462a1.565 1.565 0 01-.476-1.148c0-.457.158-.84.476-1.148a1.548 1.548 0 011.134-.476c.457 0 .84.159 1.148.476.317.308.476.69.476 1.148 0 .448-.16.83-.476 1.148-.308.308-.691.462-1.148.462zm18.901-6.734V11h-.98V6.422H15.1V11h-.98V1.214h.98V5.61h5.306V1.214h.98zm1.788 5.95c0-.784.154-1.47.462-2.058a3.36 3.36 0 011.302-1.372c.56-.327 1.19-.49 1.89-.49.728 0 1.353.168 1.876.504.532.336.915.765 1.148 1.288v-1.68h.98V11h-.98V9.306c-.243.523-.63.957-1.162 1.302-.523.336-1.148.504-1.876.504-.69 0-1.316-.163-1.876-.49a3.458 3.458 0 01-1.302-1.386c-.308-.597-.462-1.288-.462-2.072zm6.678.014c0-.616-.126-1.157-.378-1.624a2.683 2.683 0 00-1.036-1.078 2.77 2.77 0 00-1.428-.378c-.541 0-1.027.121-1.456.364-.43.243-.77.597-1.022 1.064-.243.457-.364 1.003-.364 1.638 0 .625.121 1.176.364 1.652.252.467.593.826 1.022 1.078.43.243.915.364 1.456.364a2.77 2.77 0 001.428-.378 2.683 2.683 0 001.036-1.078c.252-.467.378-1.008.378-1.624zm6.801-3.962c.915 0 1.662.285 2.24.854.579.56.868 1.377.868 2.45V11h-.966V6.632c0-.83-.21-1.465-.63-1.904-.41-.439-.975-.658-1.694-.658-.737 0-1.325.233-1.764.7-.438.467-.658 1.153-.658 2.058V11h-.98V3.356h.98v1.302a2.46 2.46 0 011.05-1.064 3.166 3.166 0 011.554-.378zm4.828 3.948c0-.784.158-1.47.476-2.058a3.36 3.36 0 011.302-1.372c.56-.327 1.19-.49 1.89-.49.672 0 1.278.163 1.82.49.54.327.938.751 1.19 1.274V.64h.98V11h-.98V9.292c-.234.532-.616.97-1.148 1.316-.532.336-1.158.504-1.876.504-.7 0-1.33-.163-1.89-.49a3.458 3.458 0 01-1.302-1.386c-.308-.597-.462-1.288-.462-2.072zm6.678.014c0-.616-.126-1.157-.378-1.624a2.682 2.682 0 00-1.036-1.078 2.769 2.769 0 00-1.428-.378c-.542 0-1.027.121-1.456.364-.43.243-.77.597-1.022 1.064-.243.457-.364 1.003-.364 1.638 0 .625.12 1.176.364 1.652.252.467.592.826 1.022 1.078.429.243.914.364 1.456.364.522 0 .998-.126 1.428-.378a2.682 2.682 0 001.036-1.078c.252-.467.378-1.008.378-1.624zm10.133-.392c0 .336-.01.593-.028.77h-6.342c.028.579.168 1.073.42 1.484.252.41.583.723.994.938.41.205.858.308 1.344.308.635 0 1.166-.154 1.596-.462a2.16 2.16 0 00.868-1.246h1.036a3.257 3.257 0 01-1.204 1.834c-.607.467-1.372.7-2.296.7-.719 0-1.363-.159-1.932-.476a3.518 3.518 0 01-1.344-1.372c-.318-.597-.476-1.293-.476-2.086 0-.793.159-1.489.476-2.086a3.308 3.308 0 011.33-1.372c.57-.317 1.218-.476 1.946-.476s1.362.159 1.904.476c.55.317.97.747 1.26 1.288a3.57 3.57 0 01.448 1.778zm-.994-.028c.01-.57-.108-1.055-.35-1.456a2.272 2.272 0 00-.966-.91 2.963 2.963 0 00-1.344-.308c-.728 0-1.349.233-1.862.7-.514.467-.798 1.125-.854 1.974h5.376zM61.065.64V11h-.98V.64h.98zm15.16 2.576c.897 0 1.625.285 2.185.854.57.56.854 1.377.854 2.45V11h-.966V6.632c0-.83-.2-1.465-.602-1.904-.401-.439-.947-.658-1.638-.658-.719 0-1.293.238-1.722.714-.43.476-.644 1.167-.644 2.072V11h-.966V6.632c0-.83-.2-1.465-.602-1.904-.401-.439-.952-.658-1.652-.658-.719 0-1.293.238-1.722.714-.43.476-.644 1.167-.644 2.072V11h-.98V3.356h.98v1.316a2.463 2.463 0 011.036-1.078 3.002 3.002 0 011.498-.378c.662 0 1.241.159 1.736.476.504.317.868.784 1.092 1.4.205-.607.555-1.069 1.05-1.386a3.072 3.072 0 011.708-.49zm5.705-1.302a.687.687 0 01-.504-.21.704.704 0 01-.21-.518c0-.205.07-.373.21-.504.14-.14.308-.21.504-.21s.364.07.504.21c.14.13.21.299.21.504 0 .205-.07.378-.21.518a.687.687 0 01-.504.21zm.49 1.442V11h-.98V3.356h.98zm3.493.826v4.746c0 .467.09.789.267.966.177.177.49.266.938.266h.895V11h-1.05c-.69 0-1.203-.159-1.54-.476-.335-.327-.504-.859-.504-1.596V4.182h-1.063v-.826h1.064V1.438h.993v1.918h2.1v.826h-2.1zm14.475 2.604c0 .336-.01.593-.028.77h-6.342c.028.579.168 1.073.42 1.484.252.41.583.723.994.938.41.205.858.308 1.344.308.634 0 1.166-.154 1.596-.462a2.16 2.16 0 00.868-1.246h1.036a3.26 3.26 0 01-1.204 1.834c-.607.467-1.372.7-2.296.7-.72 0-1.363-.159-1.932-.476A3.518 3.518 0 0193.5 9.264c-.318-.597-.476-1.293-.476-2.086 0-.793.158-1.489.476-2.086a3.308 3.308 0 011.33-1.372c.569-.317 1.218-.476 1.946-.476s1.362.159 1.904.476c.55.317.97.747 1.26 1.288.298.532.448 1.125.448 1.778zm-.994-.028c.009-.57-.108-1.055-.35-1.456a2.272 2.272 0 00-.966-.91 2.963 2.963 0 00-1.344-.308c-.728 0-1.35.233-1.862.7-.514.467-.798 1.125-.854 1.974h5.376zm3.277-4.844a.687.687 0 01-.504-.21.704.704 0 01-.21-.518c0-.205.07-.373.21-.504.14-.14.308-.21.504-.21s.364.07.504.21c.14.13.21.299.21.504 0 .205-.07.378-.21.518a.687.687 0 01-.504.21zm.49 1.442V11h-.98V3.356h.98zm5.803-.14c.914 0 1.661.285 2.24.854.578.56.868 1.377.868 2.45V11h-.966V6.632c0-.83-.21-1.465-.63-1.904-.411-.439-.976-.658-1.694-.658-.738 0-1.326.233-1.764.7-.439.467-.658 1.153-.658 2.058V11h-.98V3.356h.98v1.302a2.453 2.453 0 011.05-1.064 3.164 3.164 0 011.554-.378zm12.191 3.57c0 .336-.009.593-.028.77h-6.342c.028.579.168 1.073.42 1.484.252.41.583.723.994.938.411.205.859.308 1.344.308.635 0 1.167-.154 1.596-.462.439-.308.728-.723.868-1.246h1.036a3.258 3.258 0 01-1.204 1.834c-.607.467-1.372.7-2.296.7-.719 0-1.363-.159-1.932-.476a3.523 3.523 0 01-1.344-1.372c-.317-.597-.476-1.293-.476-2.086 0-.793.159-1.489.476-2.086a3.309 3.309 0 011.33-1.372c.569-.317 1.218-.476 1.946-.476s1.363.159 1.904.476a3.21 3.21 0 011.26 1.288c.299.532.448 1.125.448 1.778zm-.994-.028c.009-.57-.107-1.055-.35-1.456a2.267 2.267 0 00-.966-.91 2.965 2.965 0 00-1.344-.308c-.728 0-1.349.233-1.862.7-.513.467-.798 1.125-.854 1.974h5.376zm11.887-3.542c.896 0 1.624.285 2.184.854.569.56.854 1.377.854 2.45V11h-.966V6.632c0-.83-.201-1.465-.602-1.904-.401-.439-.947-.658-1.638-.658-.719 0-1.293.238-1.722.714-.429.476-.644 1.167-.644 2.072V11h-.966V6.632c0-.83-.201-1.465-.602-1.904-.401-.439-.952-.658-1.652-.658-.719 0-1.293.238-1.722.714-.429.476-.644 1.167-.644 2.072V11h-.98V3.356h.98v1.316a2.465 2.465 0 011.036-1.078 3.001 3.001 0 011.498-.378c.663 0 1.241.159 1.736.476.504.317.868.784 1.092 1.4.205-.607.555-1.069 1.05-1.386a3.07 3.07 0 011.708-.49zm14.782-2.002v.812h-2.716V11h-.98V2.026h-2.73v-.812h6.426zm1.1 5.95c0-.784.154-1.47.462-2.058a3.357 3.357 0 011.302-1.372c.56-.327 1.19-.49 1.89-.49.728 0 1.353.168 1.876.504.532.336.914.765 1.148 1.288v-1.68h.98V11h-.98V9.306c-.243.523-.63.957-1.162 1.302-.523.336-1.148.504-1.876.504a3.653 3.653 0 01-1.876-.49 3.453 3.453 0 01-1.302-1.386c-.308-.597-.462-1.288-.462-2.072zm6.678.014c0-.616-.126-1.157-.378-1.624a2.687 2.687 0 00-1.036-1.078 2.772 2.772 0 00-1.428-.378c-.542 0-1.027.121-1.456.364-.43.243-.77.597-1.022 1.064-.243.457-.364 1.003-.364 1.638 0 .625.121 1.176.364 1.652.252.467.592.826 1.022 1.078.429.243.914.364 1.456.364.522 0 .998-.126 1.428-.378a2.687 2.687 0 001.036-1.078c.252-.467.378-1.008.378-1.624zm5.849 3.934c-.877 0-1.596-.2-2.156-.602-.551-.41-.859-.966-.924-1.666h1.008c.047.43.247.78.602 1.05.364.261.849.392 1.456.392.532 0 .947-.126 1.246-.378.308-.252.462-.565.462-.938a.872.872 0 00-.252-.644 1.708 1.708 0 00-.644-.392 8.297 8.297 0 00-1.036-.322 10.64 10.64 0 01-1.386-.448 2.451 2.451 0 01-.91-.658c-.243-.299-.364-.695-.364-1.19 0-.373.112-.719.336-1.036.224-.317.541-.57.952-.756.411-.187.877-.28 1.4-.28.821 0 1.484.21 1.988.63.504.41.775.98.812 1.708h-.98c-.028-.448-.205-.807-.532-1.078-.317-.28-.756-.42-1.316-.42-.495 0-.896.117-1.204.35-.308.233-.462.523-.462.868 0 .299.089.546.266.742.187.187.415.336.686.448.271.103.635.22 1.092.35.551.15.989.294 1.316.434.327.14.607.345.84.616.233.27.355.63.364 1.078 0 .41-.112.78-.336 1.106-.224.317-.537.57-.938.756-.401.187-.863.28-1.386.28zm5.779-6.93v4.746c0 .467.088.789.266.966.177.177.49.266.938.266h.896V11h-1.05c-.691 0-1.204-.159-1.54-.476-.336-.327-.504-.859-.504-1.596V4.182h-1.064v-.826h1.064V1.438h.994v1.918h2.1v.826h-2.1zm10.632 2.604c0 .336-.009.593-.028.77h-6.342c.028.579.168 1.073.42 1.484.252.41.583.723.994.938.411.205.859.308 1.344.308.635 0 1.167-.154 1.596-.462.439-.308.728-.723.868-1.246h1.036a3.258 3.258 0 01-1.204 1.834c-.607.467-1.372.7-2.296.7-.719 0-1.363-.159-1.932-.476a3.523 3.523 0 01-1.344-1.372c-.317-.597-.476-1.293-.476-2.086 0-.793.159-1.489.476-2.086a3.309 3.309 0 011.33-1.372c.569-.317 1.218-.476 1.946-.476s1.363.159 1.904.476a3.21 3.21 0 011.26 1.288c.299.532.448 1.125.448 1.778zm-.994-.028c.009-.57-.107-1.055-.35-1.456a2.267 2.267 0 00-.966-.91 2.965 2.965 0 00-1.344-.308c-.728 0-1.349.233-1.862.7-.513.467-.798 1.125-.854 1.974h5.376zm6.371-3.542c.915 0 1.661.285 2.24.854.579.56.868 1.377.868 2.45V11h-.966V6.632c0-.83-.21-1.465-.63-1.904-.411-.439-.975-.658-1.694-.658-.737 0-1.325.233-1.764.7-.439.467-.658 1.153-.658 2.058V11h-.98V3.356h.98v1.302a2.463 2.463 0 011.05-1.064 3.164 3.164 0 011.554-.378zm4.827 3.948c0-.784.159-1.47.476-2.058a3.37 3.37 0 011.302-1.372c.56-.327 1.19-.49 1.89-.49.672 0 1.279.163 1.82.49.542.327.938.751 1.19 1.274V.64h.98V11h-.98V9.292c-.233.532-.616.97-1.148 1.316-.532.336-1.157.504-1.876.504-.7 0-1.33-.163-1.89-.49a3.467 3.467 0 01-1.302-1.386c-.308-.597-.462-1.288-.462-2.072zm6.678.014c0-.616-.126-1.157-.378-1.624a2.68 2.68 0 00-1.036-1.078 2.767 2.767 0 00-1.428-.378 2.91 2.91 0 00-1.456.364c-.429.243-.77.597-1.022 1.064-.242.457-.364 1.003-.364 1.638 0 .625.122 1.176.364 1.652.252.467.593.826 1.022 1.078.43.243.915.364 1.456.364.523 0 .999-.126 1.428-.378a2.68 2.68 0 001.036-1.078c.252-.467.378-1.008.378-1.624zm4.198-2.464a2.4 2.4 0 01.98-1.106c.448-.261.994-.392 1.638-.392v1.022h-.266c-.71 0-1.279.191-1.708.574-.43.383-.644 1.022-.644 1.918V11h-.98V3.356h.98v1.358zm10.714-1.358V11h-.98V9.656c-.224.476-.569.84-1.036 1.092a3.246 3.246 0 01-1.568.378c-.915 0-1.661-.28-2.24-.84-.579-.57-.868-1.39-.868-2.464V3.356h.966V7.71c0 .83.205 1.465.616 1.904.42.439.989.658 1.708.658.737 0 1.325-.233 1.764-.7.439-.467.658-1.153.658-2.058V3.356h.98zm1.789 3.822c0-.793.159-1.484.476-2.072a3.338 3.338 0 011.316-1.372c.56-.327 1.2-.49 1.918-.49.943 0 1.718.233 2.324.7.616.467 1.013 1.101 1.19 1.904h-1.05c-.13-.55-.415-.98-.854-1.288-.429-.317-.966-.476-1.61-.476-.513 0-.975.117-1.386.35-.41.233-.737.583-.98 1.05-.233.457-.35 1.022-.35 1.694 0 .672.117 1.241.35 1.708.243.467.57.817.98 1.05.411.233.873.35 1.386.35.644 0 1.181-.154 1.61-.462.439-.317.724-.756.854-1.316h1.05a3.205 3.205 0 01-1.19 1.89c-.616.476-1.39.714-2.324.714-.718 0-1.358-.159-1.918-.476a3.455 3.455 0 01-1.316-1.372c-.317-.597-.476-1.293-.476-2.086zM223.615 11l-3.15-3.43V11h-.98V.64h.98v6.132l3.08-3.416h1.372l-3.626 3.808L224.945 11h-1.33z" fill="#fff"/></svg>