<svg width="165" height="12" viewBox="0 0 165 12" fill="none" xmlns="http://www.w3.org/2000/svg"><path d="M7.386 1.214V11h-.98V6.422H1.1V11H.12V1.214h.98V5.61h5.306V1.214h.98zm1.788 5.95c0-.784.154-1.47.462-2.058a3.361 3.361 0 011.302-1.372c.56-.327 1.19-.49 1.89-.49.728 0 1.353.168 1.876.504.532.336.915.765 1.148 1.288v-1.68h.98V11h-.98V9.306c-.243.523-.63.957-1.162 1.302-.523.336-1.148.504-1.876.504-.69 0-1.316-.163-1.876-.49a3.458 3.458 0 01-1.302-1.386c-.308-.597-.462-1.288-.462-2.072zm6.678.014c0-.616-.126-1.157-.378-1.624a2.683 2.683 0 00-1.036-1.078 2.77 2.77 0 00-1.428-.378c-.541 0-1.027.121-1.456.364-.43.243-.77.597-1.022 1.064-.243.457-.364 1.003-.364 1.638 0 .625.121 1.176.364 1.652.252.467.593.826 1.022 1.078.43.243.915.364 1.456.364a2.77 2.77 0 001.428-.378 2.683 2.683 0 001.036-1.078c.252-.467.378-1.008.378-1.624zm6.801-3.962c.915 0 1.662.285 2.24.854.579.56.868 1.377.868 2.45V11h-.966V6.632c0-.83-.21-1.465-.63-1.904-.41-.439-.975-.658-1.694-.658-.737 0-1.325.233-1.764.7-.438.467-.658 1.153-.658 2.058V11h-.98V3.356h.98v1.302a2.46 2.46 0 011.05-1.064 3.166 3.166 0 011.554-.378zm4.828 3.948c0-.784.158-1.47.476-2.058a3.36 3.36 0 011.302-1.372c.56-.327 1.19-.49 1.89-.49.672 0 1.278.163 1.82.49.54.327.938.751 1.19 1.274V.64h.98V11h-.98V9.292c-.234.532-.616.97-1.148 1.316-.532.336-1.158.504-1.876.504-.7 0-1.33-.163-1.89-.49a3.458 3.458 0 01-1.302-1.386c-.308-.597-.462-1.288-.462-2.072zm6.678.014c0-.616-.126-1.157-.378-1.624a2.682 2.682 0 00-1.036-1.078 2.769 2.769 0 00-1.428-.378c-.542 0-1.027.121-1.456.364-.43.243-.77.597-1.022 1.064-.243.457-.364 1.003-.364 1.638 0 .625.12 1.176.364 1.652.252.467.592.826 1.022 1.078.429.243.914.364 1.456.364.522 0 .998-.126 1.428-.378a2.682 2.682 0 001.036-1.078c.252-.467.378-1.008.378-1.624zm10.133-.392c0 .336-.01.593-.028.77h-6.342c.028.579.168 1.073.42 1.484.252.41.583.723.994.938.41.205.858.308 1.344.308.635 0 1.166-.154 1.596-.462a2.16 2.16 0 00.868-1.246h1.036a3.257 3.257 0 01-1.204 1.834c-.607.467-1.372.7-2.296.7-.719 0-1.363-.159-1.932-.476a3.518 3.518 0 01-1.344-1.372c-.318-.597-.476-1.293-.476-2.086 0-.793.159-1.489.476-2.086a3.308 3.308 0 011.33-1.372c.57-.317 1.218-.476 1.946-.476s1.362.159 1.904.476c.55.317.97.747 1.26 1.288a3.57 3.57 0 01.448 1.778zm-.994-.028c.01-.57-.108-1.055-.35-1.456a2.272 2.272 0 00-.966-.91 2.963 2.963 0 00-1.344-.308c-.728 0-1.349.233-1.862.7-.514.467-.798 1.125-.854 1.974h5.376zM47.065.64V11h-.98V.64h.98zm5.613 6.524c0-.784.159-1.47.476-2.058a3.36 3.36 0 011.302-1.372c.56-.327 1.19-.49 1.89-.49.672 0 1.279.163 1.82.49.541.327.938.751 1.19 1.274V.64h.98V11h-.98V9.292c-.233.532-.616.97-1.148 1.316-.532.336-1.157.504-1.876.504-.7 0-1.33-.163-1.89-.49a3.458 3.458 0 01-1.302-1.386c-.308-.597-.462-1.288-.462-2.072zm6.678.014c0-.616-.126-1.157-.378-1.624a2.683 2.683 0 00-1.036-1.078 2.77 2.77 0 00-1.428-.378c-.542 0-1.027.121-1.456.364-.43.243-.77.597-1.022 1.064-.243.457-.364 1.003-.364 1.638 0 .625.121 1.176.364 1.652.252.467.593.826 1.022 1.078.43.243.914.364 1.456.364a2.77 2.77 0 001.428-.378 2.683 2.683 0 001.036-1.078c.252-.467.378-1.008.378-1.624zm10.133-.392c0 .336-.01.593-.028.77H63.12c.028.579.168 1.073.42 1.484.252.41.584.723.994.938.41.205.859.308 1.344.308.635 0 1.167-.154 1.596-.462.439-.308.728-.723.868-1.246h1.036a3.256 3.256 0 01-1.204 1.834c-.606.467-1.372.7-2.296.7-.718 0-1.362-.159-1.932-.476a3.519 3.519 0 01-1.344-1.372c-.317-.597-.476-1.293-.476-2.086 0-.793.159-1.489.476-2.086a3.31 3.31 0 011.33-1.372c.57-.317 1.218-.476 1.946-.476s1.363.159 1.904.476c.55.317.97.747 1.26 1.288.299.532.448 1.125.448 1.778zm-.994-.028c.01-.57-.107-1.055-.35-1.456a2.27 2.27 0 00-.966-.91 2.962 2.962 0 00-1.344-.308c-.728 0-1.348.233-1.862.7-.513.467-.798 1.125-.854 1.974h5.376zm6.371-3.542c.915 0 1.661.285 2.24.854.579.56.868 1.377.868 2.45V11h-.966V6.632c0-.83-.21-1.465-.63-1.904-.41-.439-.975-.658-1.694-.658-.737 0-1.325.233-1.764.7-.439.467-.658 1.153-.658 2.058V11h-.98V3.356h.98v1.302a2.46 2.46 0 011.05-1.064 3.166 3.166 0 011.554-.378zm10.055-2.002v6.16c0 .97.229 1.69.686 2.156.467.467 1.102.7 1.904.7.803 0 1.428-.229 1.876-.686.458-.467.686-1.19.686-2.17v-6.16h.98V7.36c0 1.241-.331 2.175-.994 2.8-.653.625-1.507.938-2.562.938-1.054 0-1.913-.313-2.576-.938-.653-.625-.98-1.559-.98-2.8V1.214h.98zm11.286 9.884c-.644 0-1.213-.112-1.708-.336a2.79 2.79 0 01-1.148-.938c-.28-.401-.43-.85-.448-1.344h1.036c.047.476.257.896.63 1.26.373.355.92.532 1.638.532.663 0 1.186-.168 1.568-.504.392-.345.588-.78.588-1.302 0-.42-.107-.756-.322-1.008a1.887 1.887 0 00-.798-.574c-.317-.13-.756-.27-1.316-.42-.653-.177-1.171-.35-1.554-.518a2.474 2.474 0 01-.98-.784c-.27-.355-.406-.835-.406-1.442 0-.504.13-.952.392-1.344.261-.401.63-.714 1.106-.938.476-.224 1.022-.336 1.638-.336.905 0 1.633.224 2.184.672.56.439.882 1.008.966 1.708H98.21c-.065-.401-.285-.756-.658-1.064-.373-.317-.877-.476-1.512-.476-.588 0-1.078.159-1.47.476-.392.308-.588.733-.588 1.274 0 .41.108.742.322.994.215.252.48.443.798.574.327.13.766.27 1.316.42.635.177 1.148.355 1.54.532.392.168.724.43.994.784.27.355.406.83.406 1.428 0 .457-.121.891-.364 1.302-.242.41-.602.742-1.078.994-.476.252-1.045.378-1.708.378zm14.612-9.884v.812h-2.716V11h-.98V2.026h-2.73v-.812h6.426zm8.463 5.572c0 .336-.009.593-.028.77h-6.342c.028.579.168 1.073.42 1.484.252.41.583.723.994.938.411.205.859.308 1.344.308.635 0 1.167-.154 1.596-.462.439-.308.728-.723.868-1.246h1.036a3.258 3.258 0 01-1.204 1.834c-.607.467-1.372.7-2.296.7-.719 0-1.363-.159-1.932-.476a3.523 3.523 0 01-1.344-1.372c-.317-.597-.476-1.293-.476-2.086 0-.793.159-1.489.476-2.086a3.309 3.309 0 011.33-1.372c.569-.317 1.218-.476 1.946-.476s1.363.159 1.904.476a3.21 3.21 0 011.26 1.288c.299.532.448 1.125.448 1.778zm-.994-.028c.009-.57-.107-1.055-.35-1.456a2.267 2.267 0 00-.966-.91 2.965 2.965 0 00-1.344-.308c-.728 0-1.349.233-1.862.7-.513.467-.798 1.125-.854 1.974h5.376zm2.339.42c0-.793.159-1.484.476-2.072a3.332 3.332 0 011.316-1.372c.56-.327 1.199-.49 1.918-.49.943 0 1.717.233 2.324.7.616.467 1.013 1.101 1.19 1.904h-1.05c-.131-.55-.415-.98-.854-1.288-.429-.317-.966-.476-1.61-.476-.513 0-.975.117-1.386.35-.411.233-.737.583-.98 1.05-.233.457-.35 1.022-.35 1.694 0 .672.117 1.241.35 1.708.243.467.569.817.98 1.05.411.233.873.35 1.386.35.644 0 1.181-.154 1.61-.462.439-.317.723-.756.854-1.316h1.05a3.205 3.205 0 01-1.19 1.89c-.616.476-1.391.714-2.324.714-.719 0-1.358-.159-1.918-.476a3.448 3.448 0 01-1.316-1.372c-.317-.597-.476-1.293-.476-2.086zm12.674-3.962c.579 0 1.097.121 1.554.364.467.243.831.616 1.092 1.12.271.495.406 1.101.406 1.82V11h-.966V6.632c0-.83-.21-1.465-.63-1.904-.411-.439-.975-.658-1.694-.658-.737 0-1.325.233-1.764.7-.439.467-.658 1.153-.658 2.058V11h-.98V.64h.98v4.018a2.543 2.543 0 011.064-1.064 3.358 3.358 0 011.596-.378zm8.375-1.372V.962h2.38V11h-.994V1.844h-1.386zm4.564 4.046c0-1.605.247-2.851.742-3.738s1.381-1.33 2.66-1.33c1.279 0 2.165.443 2.66 1.33.495.887.742 2.133.742 3.738 0 1.633-.247 2.898-.742 3.794-.495.896-1.381 1.344-2.66 1.344-1.288 0-2.179-.448-2.674-1.344-.485-.896-.728-2.16-.728-3.794zm5.838 0c0-.868-.061-1.6-.182-2.198-.121-.597-.359-1.078-.714-1.442-.355-.364-.868-.546-1.54-.546s-1.185.182-1.54.546c-.355.364-.593.845-.714 1.442s-.182 1.33-.182 2.198c0 .896.061 1.647.182 2.254.121.597.359 1.078.714 1.442.355.364.868.546 1.54.546s1.185-.182 1.54-.546c.355-.364.593-.845.714-1.442.121-.607.182-1.358.182-2.254zm2.789 0c0-1.605.247-2.851.742-3.738s1.381-1.33 2.66-1.33c1.279 0 2.165.443 2.66 1.33.495.887.742 2.133.742 3.738 0 1.633-.247 2.898-.742 3.794-.495.896-1.381 1.344-2.66 1.344-1.288 0-2.179-.448-2.674-1.344-.485-.896-.728-2.16-.728-3.794zm5.838 0c0-.868-.061-1.6-.182-2.198-.121-.597-.359-1.078-.714-1.442-.355-.364-.868-.546-1.54-.546s-1.185.182-1.54.546c-.355.364-.593.845-.714 1.442s-.182 1.33-.182 2.198c0 .896.061 1.647.182 2.254.121.597.359 1.078.714 1.442.355.364.868.546 1.54.546s1.185-.182 1.54-.546c.355-.364.593-.845.714-1.442.121-.607.182-1.358.182-2.254zm3.167 5.18a.704.704 0 01-.518-.21.73.73 0 01-.196-.518c0-.205.065-.373.196-.504.14-.14.313-.21.518-.21.196 0 .359.07.49.21.14.13.21.299.21.504 0 .205-.07.378-.21.518a.643.643 0 01-.49.21zm0-6.09a.704.704 0 01-.518-.21.73.73 0 01-.196-.518.68.68 0 01.196-.504c.14-.14.313-.21.518-.21.196 0 .359.07.49.21.14.13.21.299.21.504 0 .205-.07.378-.21.518a.643.643 0 01-.49.21z" fill="#fff"/></svg>