<svg width="251" height="35" viewBox="0 0 251 35" fill="none" xmlns="http://www.w3.org/2000/svg"><path d="M2.485 7.948c-.44 0-.817-.154-1.134-.462a1.565 1.565 0 01-.476-1.148c0-.457.158-.84.476-1.148a1.548 1.548 0 011.134-.476c.457 0 .84.159 1.148.476.317.308.476.69.476 1.148 0 .448-.16.83-.476 1.148-.308.308-.691.462-1.148.462zm11.229 2.282c1.717-1.288 3.043-2.44 3.976-3.458.943-1.027 1.414-2.03 1.414-3.01 0-.644-.163-1.157-.49-1.54-.317-.392-.84-.588-1.568-.588-.71 0-1.26.224-1.652.672-.383.439-.597 1.027-.644 1.764h-.952c.056-1.036.373-1.839.952-2.408.588-.579 1.353-.868 2.296-.868.905 0 1.638.257 2.198.77.56.504.84 1.223.84 2.156 0 1.13-.471 2.226-1.414 3.29-.933 1.055-2.086 2.086-3.458 3.094h5.18v.826h-6.678v-.7zm8.208-4.34c0-1.605.247-2.851.742-3.738.494-.887 1.381-1.33 2.66-1.33 1.278 0 2.165.443 2.66 1.33.494.887.742 2.133.742 3.738 0 1.633-.248 2.898-.742 3.794-.495.896-1.382 1.344-2.66 1.344-1.288 0-2.18-.448-2.674-1.344-.486-.896-.728-2.16-.728-3.794zm5.838 0c0-.868-.06-1.6-.182-2.198-.122-.597-.36-1.078-.714-1.442-.355-.364-.868-.546-1.54-.546s-1.186.182-1.54.546c-.355.364-.593.845-.714 1.442-.122.597-.182 1.33-.182 2.198 0 .896.06 1.647.182 2.254.121.597.36 1.078.714 1.442.354.364.868.546 1.54.546s1.185-.182 1.54-.546c.354-.364.592-.845.714-1.442.121-.607.182-1.358.182-2.254zm11.363-4.676V8.62c0 .747-.23 1.349-.686 1.806-.458.448-1.07.672-1.834.672-.794 0-1.428-.238-1.904-.714-.467-.485-.7-1.139-.7-1.96h.993c.01.532.14.966.393 1.302.26.336.667.504 1.218.504.522 0 .91-.154 1.161-.462.252-.308.378-.69.378-1.148V1.214h.98zm2.016 5.95c0-.784.154-1.47.462-2.058a3.36 3.36 0 011.302-1.372c.56-.327 1.19-.49 1.89-.49.728 0 1.353.168 1.876.504.532.336.915.765 1.148 1.288v-1.68h.98V11h-.98V9.306c-.243.523-.63.957-1.162 1.302-.523.336-1.148.504-1.876.504-.69 0-1.316-.163-1.876-.49A3.458 3.458 0 0141.6 9.236c-.308-.597-.462-1.288-.462-2.072zm6.678.014c0-.616-.126-1.157-.378-1.624a2.682 2.682 0 00-1.036-1.078 2.769 2.769 0 00-1.428-.378c-.541 0-1.027.121-1.456.364-.43.243-.77.597-1.022 1.064-.243.457-.364 1.003-.364 1.638 0 .625.121 1.176.364 1.652.252.467.593.826 1.022 1.078.43.243.915.364 1.456.364.523 0 .998-.126 1.428-.378a2.682 2.682 0 001.036-1.078c.252-.467.378-1.008.378-1.624zm6.857-3.962c.579 0 1.097.121 1.554.364.467.243.83.616 1.092 1.12.27.495.406 1.101.406 1.82V11h-.966V6.632c0-.83-.21-1.465-.63-1.904-.41-.439-.975-.658-1.694-.658-.737 0-1.325.233-1.764.7-.439.467-.658 1.153-.658 2.058V11h-.98V.64h.98v4.018a2.542 2.542 0 011.064-1.064 3.358 3.358 0 011.596-.378zm6.2 1.498c.214-.476.54-.845.98-1.106.447-.261.993-.392 1.637-.392v1.022h-.266c-.709 0-1.278.191-1.708.574-.429.383-.644 1.022-.644 1.918V11h-.98V3.356h.98v1.358zm11.008 2.072c0 .336-.01.593-.028.77h-6.342c.028.579.168 1.073.42 1.484.252.41.583.723.994.938.41.205.858.308 1.344.308.634 0 1.166-.154 1.596-.462.438-.308.728-.723.868-1.246h1.036a3.257 3.257 0 01-1.204 1.834c-.607.467-1.372.7-2.296.7-.719 0-1.363-.159-1.932-.476a3.519 3.519 0 01-1.344-1.372c-.318-.597-.476-1.293-.476-2.086 0-.793.158-1.489.476-2.086a3.309 3.309 0 011.33-1.372c.569-.317 1.218-.476 1.946-.476s1.362.159 1.904.476c.55.317.97.747 1.26 1.288.298.532.448 1.125.448 1.778zm-.994-.028c.009-.57-.108-1.055-.35-1.456a2.27 2.27 0 00-.966-.91 2.963 2.963 0 00-1.344-.308c-.728 0-1.349.233-1.862.7-.514.467-.798 1.125-.854 1.974h5.376zm7.608-4.746v3.654h3.71v.812h-3.71v3.71h4.13V11h-5.11V1.2h5.11v.812h-4.13zm7.041 2.702c.215-.476.542-.845.98-1.106.449-.261.995-.392 1.639-.392v1.022h-.267c-.709 0-1.278.191-1.707.574-.43.383-.645 1.022-.645 1.918V11h-.98V3.356h.98v1.358zm7.103-.532h-1.778V11h-.98V4.182h-1.064v-.826h1.064v-.532c0-.83.21-1.442.63-1.834.43-.392 1.12-.588 2.072-.588v.84c-.635 0-1.083.121-1.344.364-.252.243-.378.649-.378 1.218v.532h1.778v.826zm1.094 2.982c0-.784.154-1.47.463-2.058a3.36 3.36 0 011.302-1.372c.56-.327 1.19-.49 1.89-.49.728 0 1.353.168 1.876.504.531.336.914.765 1.148 1.288v-1.68h.98V11h-.98V9.306c-.243.523-.63.957-1.162 1.302-.523.336-1.148.504-1.877.504-.69 0-1.316-.163-1.875-.49a3.458 3.458 0 01-1.302-1.386c-.309-.597-.463-1.288-.463-2.072zm6.679.014c0-.616-.126-1.157-.378-1.624a2.687 2.687 0 00-1.036-1.078 2.769 2.769 0 00-1.428-.378c-.542 0-1.027.121-1.456.364-.43.243-.77.597-1.022 1.064-.243.457-.365 1.003-.365 1.638 0 .625.122 1.176.365 1.652.251.467.592.826 1.022 1.078.429.243.914.364 1.456.364.522 0 .998-.126 1.428-.378a2.687 2.687 0 001.036-1.078c.252-.467.378-1.008.378-1.624zm6.857-3.962c.578 0 1.096.121 1.554.364.466.243.83.616 1.092 1.12.27.495.406 1.101.406 1.82V11h-.966V6.632c0-.83-.21-1.465-.63-1.904-.411-.439-.976-.658-1.694-.658-.738 0-1.326.233-1.764.7-.439.467-.658 1.153-.658 2.058V11h-.98V.64h.98v4.018a2.537 2.537 0 011.064-1.064 3.358 3.358 0 011.596-.378zm6.199 1.498c.215-.476.541-.845.98-1.106.448-.261.994-.392 1.638-.392v1.022h-.266c-.709 0-1.279.191-1.708.574-.429.383-.644 1.022-.644 1.918V11h-.98V3.356h.98v1.358zm10.714-1.358V11h-.98V9.656c-.224.476-.569.84-1.036 1.092a3.244 3.244 0 01-1.568.378c-.914 0-1.661-.28-2.24-.84-.578-.57-.868-1.39-.868-2.464V3.356h.966V7.71c0 .83.206 1.465.616 1.904.42.439.99.658 1.708.658.738 0 1.326-.233 1.764-.7.439-.467.658-1.153.658-2.058V3.356h.98zm5.822-.14c.914 0 1.661.285 2.24.854.578.56.868 1.377.868 2.45V11h-.966V6.632c0-.83-.21-1.465-.63-1.904-.411-.439-.976-.658-1.694-.658-.738 0-1.326.233-1.764.7-.439.467-.658 1.153-.658 2.058V11h-.98V3.356h.98v1.302a2.453 2.453 0 011.05-1.064 3.164 3.164 0 011.554-.378zm8.481.028c.719 0 1.344.168 1.876.504.532.336.915.76 1.148 1.274V3.356h.98v7.84c0 .7-.154 1.32-.462 1.862a3.062 3.062 0 01-1.26 1.246c-.541.299-1.157.448-1.848.448-.98 0-1.797-.233-2.45-.7-.644-.467-1.045-1.101-1.204-1.904h.966c.168.532.485.957.952 1.274.476.317 1.055.476 1.736.476.495 0 .938-.107 1.33-.322.392-.205.7-.513.924-.924.224-.41.336-.896.336-1.456v-1.89c-.243.523-.63.957-1.162 1.302-.523.336-1.143.504-1.862.504-.7 0-1.33-.163-1.89-.49a3.453 3.453 0 01-1.302-1.386c-.308-.597-.462-1.288-.462-2.072s.154-1.47.462-2.058a3.357 3.357 0 011.302-1.372c.56-.327 1.19-.49 1.89-.49zm3.024 3.934c0-.616-.126-1.157-.378-1.624a2.68 2.68 0 00-1.036-1.078 2.767 2.767 0 00-1.428-.378c-.541 0-1.027.121-1.456.364-.429.243-.77.597-1.022 1.064-.243.457-.364 1.003-.364 1.638 0 .625.121 1.176.364 1.652.252.467.593.826 1.022 1.078.429.243.915.364 1.456.364.523 0 .999-.126 1.428-.378a2.68 2.68 0 001.036-1.078c.252-.467.378-1.008.378-1.624zm4.113 2.198l-1.456 3.668h-.672l1.036-3.668h1.092zm6.64-5.194v4.746c0 .467.089.789.266.966.177.177.49.266.938.266h.896V11h-1.05c-.691 0-1.204-.159-1.54-.476-.336-.327-.504-.859-.504-1.596V4.182h-1.064v-.826h1.064V1.438h.994v1.918h2.1v.826h-2.1zm10.632 2.604c0 .336-.009.593-.028.77h-6.342c.028.579.168 1.073.42 1.484.252.41.584.723.994.938.411.205.859.308 1.344.308.635 0 1.167-.154 1.596-.462.439-.308.728-.723.868-1.246h1.036a3.253 3.253 0 01-1.204 1.834c-.606.467-1.372.7-2.296.7-.718 0-1.362-.159-1.932-.476a3.523 3.523 0 01-1.344-1.372c-.317-.597-.476-1.293-.476-2.086 0-.793.159-1.489.476-2.086a3.315 3.315 0 011.33-1.372c.57-.317 1.218-.476 1.946-.476s1.363.159 1.904.476a3.21 3.21 0 011.26 1.288c.299.532.448 1.125.448 1.778zm-.994-.028c.01-.57-.107-1.055-.35-1.456a2.267 2.267 0 00-.966-.91 2.959 2.959 0 00-1.344-.308c-.728 0-1.348.233-1.862.7-.513.467-.798 1.125-.854 1.974h5.376zm3.277-4.844a.687.687 0 01-.504-.21.704.704 0 01-.21-.518c0-.205.07-.373.21-.504.14-.14.308-.21.504-.21s.364.07.504.21c.14.13.21.299.21.504 0 .205-.07.378-.21.518a.687.687 0 01-.504.21zm.49 1.442V11h-.98V3.356h.98zm3.2-2.716V11h-.98V.64h.98zm8.777 9.408l2.576-6.692h1.036L178.191 11h-1.106l-3.066-7.644h1.05l2.576 6.692zm8.286 1.064c-.719 0-1.367-.159-1.946-.476a3.62 3.62 0 01-1.358-1.372c-.327-.597-.49-1.293-.49-2.086 0-.793.168-1.484.504-2.072a3.462 3.462 0 011.372-1.372 3.889 3.889 0 011.946-.49c.719 0 1.367.163 1.946.49a3.352 3.352 0 011.372 1.372c.336.588.504 1.279.504 2.072 0 .784-.168 1.475-.504 2.072a3.535 3.535 0 01-1.386 1.386 4.06 4.06 0 01-1.96.476zm0-.854a2.98 2.98 0 001.4-.336 2.632 2.632 0 001.036-1.036c.271-.467.406-1.036.406-1.708 0-.672-.131-1.237-.392-1.694-.261-.467-.607-.812-1.036-1.036a2.884 2.884 0 00-1.4-.35c-.504 0-.971.117-1.4.35-.429.224-.775.57-1.036 1.036-.252.457-.378 1.022-.378 1.694 0 .672.126 1.241.378 1.708.261.457.602.803 1.022 1.036a2.98 2.98 0 001.4.336zm9.22-7.042c.915 0 1.662.285 2.24.854.579.56.868 1.377.868 2.45V11h-.966V6.632c0-.83-.21-1.465-.63-1.904-.41-.439-.975-.658-1.694-.658-.737 0-1.325.233-1.764.7-.438.467-.658 1.153-.658 2.058V11h-.98V3.356h.98v1.302a2.463 2.463 0 011.05-1.064 3.17 3.17 0 011.554-.378zm12.085 7.882c-.644 0-1.213-.112-1.708-.336a2.792 2.792 0 01-1.148-.938 2.466 2.466 0 01-.448-1.344h1.036c.047.476.257.896.63 1.26.374.355.92.532 1.638.532.663 0 1.186-.168 1.568-.504.392-.345.588-.78.588-1.302 0-.42-.107-.756-.322-1.008a1.88 1.88 0 00-.798-.574 11.16 11.16 0 00-1.316-.42c-.653-.177-1.171-.35-1.554-.518a2.48 2.48 0 01-.98-.784c-.27-.355-.406-.835-.406-1.442 0-.504.131-.952.392-1.344.262-.401.63-.714 1.106-.938.476-.224 1.022-.336 1.638-.336.906 0 1.634.224 2.184.672.56.439.882 1.008.966 1.708h-1.064c-.065-.401-.284-.756-.658-1.064-.373-.317-.877-.476-1.512-.476-.588 0-1.078.159-1.47.476-.392.308-.588.733-.588 1.274 0 .41.108.742.322.994.215.252.481.443.798.574.327.13.766.27 1.316.42.635.177 1.148.355 1.54.532.392.168.724.43.994.784.271.355.406.83.406 1.428 0 .457-.121.891-.364 1.302-.242.41-.602.742-1.078.994-.476.252-1.045.378-1.708.378zm6.318-6.916v4.746c0 .467.089.789.266.966.177.177.49.266.938.266h.896V11h-1.05c-.691 0-1.204-.159-1.54-.476-.336-.327-.504-.859-.504-1.596V4.182h-1.064v-.826h1.064V1.438h.994v1.918h2.1v.826h-2.1zm7.062 6.93c-.718 0-1.367-.159-1.946-.476a3.62 3.62 0 01-1.358-1.372c-.326-.597-.49-1.293-.49-2.086 0-.793.168-1.484.504-2.072a3.469 3.469 0 011.372-1.372 3.892 3.892 0 011.946-.49c.719 0 1.368.163 1.946.49a3.346 3.346 0 011.372 1.372c.336.588.504 1.279.504 2.072 0 .784-.168 1.475-.504 2.072a3.535 3.535 0 01-1.386 1.386 4.06 4.06 0 01-1.96.476zm0-.854a2.98 2.98 0 001.4-.336c.43-.233.775-.579 1.036-1.036.271-.467.406-1.036.406-1.708 0-.672-.13-1.237-.392-1.694-.261-.467-.606-.812-1.036-1.036a2.884 2.884 0 00-1.4-.35c-.504 0-.97.117-1.4.35-.429.224-.774.57-1.036 1.036-.252.457-.378 1.022-.378 1.694 0 .672.126 1.241.378 1.708.262.457.602.803 1.022 1.036.43.224.896.336 1.4.336zm9.221-7.042c.914 0 1.661.285 2.24.854.578.56.868 1.377.868 2.45V11h-.966V6.632c0-.83-.21-1.465-.63-1.904-.411-.439-.976-.658-1.694-.658-.738 0-1.326.233-1.764.7-.439.467-.658 1.153-.658 2.058V11h-.98V3.356h.98v1.302a2.453 2.453 0 011.05-1.064 3.164 3.164 0 011.554-.378zm12.191 3.57c0 .336-.009.593-.028.77h-6.342c.028.579.168 1.073.42 1.484.252.41.584.723.994.938.411.205.859.308 1.344.308.635 0 1.167-.154 1.596-.462.439-.308.728-.723.868-1.246h1.036a3.253 3.253 0 01-1.204 1.834c-.606.467-1.372.7-2.296.7-.718 0-1.362-.159-1.932-.476a3.523 3.523 0 01-1.344-1.372c-.317-.597-.476-1.293-.476-2.086 0-.793.159-1.489.476-2.086a3.315 3.315 0 011.33-1.372c.57-.317 1.218-.476 1.946-.476s1.363.159 1.904.476a3.21 3.21 0 011.26 1.288c.299.532.448 1.125.448 1.778zm-.994-.028c.01-.57-.107-1.055-.35-1.456a2.267 2.267 0 00-.966-.91 2.959 2.959 0 00-1.344-.308c-.728 0-1.348.233-1.862.7-.513.467-.798 1.125-.854 1.974h5.376zm6.315-.644L250.317 11h-1.092l-2.492-4.088L244.367 11h-1.092l2.954-4.928-2.954-4.858h1.092l2.478 4.074 2.394-4.074h1.092l-2.982 4.9zM21.82 24.07a3.292 3.292 0 00-1.288-1.512c-.57-.373-1.241-.56-2.016-.56-.728 0-1.381.168-1.96.504a3.589 3.589 0 00-1.372 1.442c-.336.616-.504 1.335-.504 2.156 0 .821.168 1.545.504 2.17a3.589 3.589 0 001.372 1.442c.579.336 1.232.504 1.96.504.681 0 1.293-.145 1.834-.434.55-.299.99-.719 1.316-1.26.336-.55.527-1.19.574-1.918h-4.116v-.798h5.152v.714a5 5 0 01-.7 2.338 4.6 4.6 0 01-1.694 1.638c-.7.401-1.489.602-2.366.602-.905 0-1.727-.21-2.464-.63a4.708 4.708 0 01-1.75-1.778c-.42-.765-.63-1.629-.63-2.59 0-.961.21-1.82.63-2.576a4.58 4.58 0 011.75-1.778c.737-.43 1.559-.644 2.464-.644 1.045 0 1.96.261 2.744.784.784.523 1.353 1.25 1.708 2.184H21.82zm4.231.644c.215-.476.542-.845.98-1.106.448-.261.994-.392 1.638-.392v1.022h-.266c-.71 0-1.278.191-1.708.574-.43.383-.644 1.022-.644 1.918V31h-.98v-7.644h.98v1.358zm7.438 6.398c-.718 0-1.367-.159-1.946-.476a3.618 3.618 0 01-1.358-1.372c-.326-.597-.49-1.293-.49-2.086 0-.793.168-1.484.504-2.072a3.465 3.465 0 011.372-1.372 3.889 3.889 0 011.946-.49c.72 0 1.368.163 1.946.49a3.35 3.35 0 011.372 1.372c.336.588.504 1.279.504 2.072 0 .784-.168 1.475-.504 2.072a3.535 3.535 0 01-1.386 1.386 4.06 4.06 0 01-1.96.476zm0-.854c.504 0 .971-.112 1.4-.336.43-.233.775-.579 1.036-1.036.271-.467.406-1.036.406-1.708 0-.672-.13-1.237-.392-1.694-.26-.467-.606-.812-1.036-1.036a2.885 2.885 0 00-1.4-.35c-.504 0-.97.117-1.4.35-.429.224-.774.57-1.036 1.036-.252.457-.378 1.022-.378 1.694 0 .672.126 1.241.378 1.708.262.457.602.803 1.022 1.036.43.224.896.336 1.4.336zm12.259-6.902V31h-.98v-1.344a2.35 2.35 0 01-1.036 1.092c-.467.252-.99.378-1.568.378-.915 0-1.662-.28-2.24-.84-.579-.57-.868-1.39-.868-2.464v-4.466h.966v4.354c0 .83.205 1.465.616 1.904.42.439.99.658 1.708.658.737 0 1.325-.233 1.764-.7.438-.467.658-1.153.658-2.058v-4.158h.98zm3.203 1.68c.243-.513.626-.938 1.148-1.274.532-.345 1.162-.518 1.89-.518.69 0 1.312.163 1.862.49.56.317.994.775 1.302 1.372.318.588.476 1.274.476 2.058 0 .784-.158 1.475-.476 2.072a3.336 3.336 0 01-1.302 1.386 3.58 3.58 0 01-1.862.49c-.718 0-1.344-.168-1.876-.504-.532-.345-.92-.775-1.162-1.288v5.292h-.966V23.356h.966v1.68zm5.684 2.128c0-.635-.126-1.18-.378-1.638a2.526 2.526 0 00-1.008-1.064 2.906 2.906 0 00-1.456-.364c-.522 0-1.003.126-1.442.378-.43.252-.77.611-1.022 1.078-.252.467-.378 1.008-.378 1.624 0 .616.126 1.157.378 1.624.252.467.593.826 1.022 1.078.439.252.92.378 1.442.378.542 0 1.027-.121 1.456-.364.43-.252.766-.611 1.008-1.078.252-.476.378-1.027.378-1.652z" fill="#fff"/></svg>