<svg width="300" height="65" viewBox="0 0 300 65" fill="none" xmlns="http://www.w3.org/2000/svg"><path fill="#fff" d="M0 0h300v65H0z"/><path d="M20.555 9.469v.937L17.859 18h-1.734l2.707-7.166h-3.434V9.469h5.157zm4.71-.018V18h-1.64v-6.533l-1.629.627v-1.371L25.09 9.45h.176zm2.62 7.711c0-.258.086-.473.258-.644.171-.176.404-.264.697-.264.293 0 .525.088.697.264a.874.874 0 01.258.644.874.874 0 01-.258.645c-.172.172-.404.258-.697.258-.293 0-.526-.087-.697-.258a.874.874 0 01-.258-.645zm7.037-7.787h.217v1.395h-.077c-.37 0-.695.064-.972.193a1.774 1.774 0 00-.686.55c-.18.239-.314.528-.404.868-.09.336-.135.713-.135 1.13v1.436c0 .297.02.559.059.785.043.227.103.416.181.569.083.148.176.26.282.334a.624.624 0 00.72-.006.992.992 0 00.282-.322 1.74 1.74 0 00.175-.492c.043-.188.065-.393.065-.616 0-.226-.022-.433-.064-.62a1.778 1.778 0 00-.182-.487.894.894 0 00-.287-.322.62.62 0 00-.37-.118c-.199 0-.369.06-.51.182-.14.117-.247.27-.322.457a1.712 1.712 0 00-.122.58l-.493-.351c.016-.297.07-.577.164-.838a2.55 2.55 0 01.399-.715c.168-.211.369-.375.603-.492.235-.121.498-.182.791-.182.34 0 .637.076.891.229.254.152.465.36.633.626.172.266.299.575.38.926.087.348.13.719.13 1.114 0 .414-.06.798-.176 1.154a2.918 2.918 0 01-.498.931 2.253 2.253 0 01-.785.622 2.323 2.323 0 01-1.032.222c-.39 0-.744-.082-1.06-.246a2.408 2.408 0 01-.809-.697 3.358 3.358 0 01-.51-1.078 5.025 5.025 0 01-.175-1.371v-.662c0-.688.08-1.317.24-1.887a4.46 4.46 0 01.709-1.489c.316-.417.703-.74 1.16-.966.46-.23.99-.346 1.588-.346zm5.121 2.185v-.45c0-.325.059-.62.176-.885a1.52 1.52 0 01.533-.64c.238-.16.533-.24.885-.24.355 0 .652.08.89.24.239.161.414.374.528.64.117.265.175.56.175.884v.451c0 .317-.058.608-.175.874a1.468 1.468 0 01-.533.638c-.235.16-.528.24-.88.24-.351 0-.646-.08-.884-.24a1.507 1.507 0 01-.54-.638 2.139 2.139 0 01-.175-.873zm1.072-.45v.45c0 .133.02.26.059.381.039.118.098.213.176.287.078.07.175.106.293.106a.4.4 0 00.287-.105.67.67 0 00.164-.288c.039-.12.058-.248.058-.38v-.452c0-.14-.02-.27-.058-.386a.601.601 0 00-.17-.288.409.409 0 00-.293-.11.409.409 0 00-.293.11.67.67 0 00-.17.288 1.34 1.34 0 00-.053.386zm2.297 5.255v-.457c0-.32.06-.613.182-.879.12-.265.299-.478.533-.638.238-.16.531-.24.879-.24.36 0 .656.08.89.24.235.16.41.373.528.638.12.266.181.559.181.88v.456c0 .32-.058.614-.175.88a1.474 1.474 0 01-.533.632c-.235.16-.528.24-.88.24-.351 0-.648-.08-.89-.24a1.508 1.508 0 01-.54-.639 2.139 2.139 0 01-.175-.873zm1.072-.457v.451c0 .137.024.266.07.387.048.117.11.213.188.287.082.07.174.106.276.106.14 0 .248-.035.322-.106a.545.545 0 00.146-.287c.028-.121.041-.25.041-.387v-.445c0-.14-.02-.27-.058-.387a.6.6 0 00-.17-.287.389.389 0 00-.287-.111.416.416 0 00-.3.111.641.641 0 00-.175.287 1.322 1.322 0 00-.053.381zm.956-5.215l-3.499 6.668-.785-.445 3.498-6.668.785.445zm8.138 5.907V9h1.647v9l-1.489.006-.158-1.406zm-3.287-1.547v-.422c0-.516.043-.967.129-1.354a2.85 2.85 0 01.398-.966c.176-.258.391-.45.645-.575.258-.129.553-.193.885-.193.3 0 .564.076.79.229.231.148.427.357.587.626.16.27.289.588.386.956.098.367.166.769.205 1.207v.609c-.047.414-.119.8-.216 1.16-.094.36-.223.672-.387.938-.16.265-.354.474-.58.627a1.41 1.41 0 01-.791.222c-.332 0-.627-.066-.885-.199a1.77 1.77 0 01-.645-.586 3 3 0 01-.392-.96 6.057 6.057 0 01-.129-1.32zm1.64-.422v.422c0 .297.014.552.042.767.03.211.08.385.146.522.07.133.162.232.276.299a.864.864 0 00.421.093.827.827 0 00.534-.164c.136-.113.238-.267.304-.463.07-.199.11-.427.117-.685v-1.107a2.817 2.817 0 00-.076-.58 1.46 1.46 0 00-.181-.44.84.84 0 00-.293-.281.774.774 0 00-.399-.1.843.843 0 00-.422.1.685.685 0 00-.27.31 1.944 1.944 0 00-.152.533 5.479 5.479 0 00-.046.774zm7.085 3.486c-.434 0-.819-.066-1.155-.199a2.282 2.282 0 01-.843-.574 2.57 2.57 0 01-.528-.92 3.846 3.846 0 01-.181-1.23v-.522c0-.516.058-.967.175-1.354.118-.39.284-.718.498-.984.215-.266.479-.463.791-.592.317-.133.674-.199 1.073-.199.398 0 .748.066 1.049.2.304.128.556.323.755.585.2.258.35.578.452.961.101.383.152.828.152 1.336v.75h-4.248v-1.154h2.637v-.147c0-.258-.028-.472-.083-.644a.74.74 0 00-.257-.393c-.117-.086-.274-.129-.469-.129a.81.81 0 00-.416.1.685.685 0 00-.27.31c-.066.141-.115.325-.146.551-.031.223-.047.49-.047.803v.521c0 .293.026.54.076.739.051.195.125.355.223.48a.883.883 0 00.369.264c.145.05.313.076.504.076.289 0 .549-.05.78-.152.234-.106.433-.248.597-.428l.656.996c-.113.148-.27.297-.469.445-.199.149-.437.27-.714.364-.278.093-.598.14-.961.14zm4.828-5.045V18h-1.64v-6.34h1.546l.094 1.412zm1.494-1.459l-.023 1.635a2.083 2.083 0 00-.27-.035 3.564 3.564 0 00-.27-.012c-.183 0-.34.03-.468.088a.781.781 0 00-.323.252c-.082.11-.144.246-.187.41-.043.164-.069.35-.076.557l-.31-.117c0-.414.03-.793.093-1.137a3.4 3.4 0 01.293-.902c.129-.258.283-.457.463-.598.183-.14.39-.211.62-.211.079 0 .161.008.247.023.09.012.16.028.21.047zM70.74 9.47V18h-1.717V9.469h1.717zm4.237 0l-2.766 4.236-1.693 2.11-.329-1.717 1.096-1.829 1.606-2.8h2.086zM72.997 18l-1.864-3.92 1.26-1.113L75.018 18h-2.022zm4.312-9v9h-1.647V9h1.647zm3.855 9.117c-.433 0-.818-.066-1.154-.199a2.282 2.282 0 01-.844-.574 2.57 2.57 0 01-.527-.92 3.845 3.845 0 01-.182-1.23v-.522c0-.516.059-.967.176-1.354.117-.39.283-.718.498-.984.215-.266.478-.463.79-.592.317-.133.675-.199 1.073-.199.399 0 .748.066 1.049.2.305.128.557.323.756.585.199.258.35.578.451.961.102.383.152.828.152 1.336v.75h-4.248v-1.154h2.637v-.147c0-.258-.027-.472-.082-.644a.74.74 0 00-.258-.393c-.117-.086-.273-.129-.469-.129a.81.81 0 00-.416.1.685.685 0 00-.27.31c-.066.141-.114.325-.146.551-.03.223-.047.49-.047.803v.521c0 .293.026.54.077.739.05.195.125.355.222.48a.884.884 0 00.37.264c.144.05.312.076.503.076.29 0 .55-.05.78-.152.234-.106.433-.248.597-.428l.657.996c-.114.148-.27.297-.47.445-.198.149-.437.27-.714.364a3 3 0 01-.96.14zm4.91-6.457V18h-1.646v-6.34h1.646zm-1.722-1.64a.86.86 0 01.24-.627c.164-.168.383-.252.656-.252.277 0 .496.084.656.252a.86.86 0 01.24.627c0 .25-.082.459-.246.627-.16.163-.375.246-.644.246-.277 0-.498-.083-.662-.247a.873.873 0 01-.24-.627zm4.634 2.994V18H87.34v-6.34h1.54l.106 1.354zm-.246 1.6l-.44.011a4.834 4.834 0 01.136-1.283c.101-.38.244-.701.427-.967.188-.27.41-.475.668-.615.262-.145.553-.217.873-.217.246 0 .471.043.674.129.207.086.385.223.533.41.149.188.264.438.346.75.082.309.123.688.123 1.137V18h-1.646v-4.043c0-.273-.028-.484-.082-.633a.548.548 0 00-.246-.316.817.817 0 00-.41-.094.68.68 0 00-.417.135 1.022 1.022 0 00-.304.357 2.127 2.127 0 00-.182.54c-.04.206-.057.429-.053.667zm7.336 1.927v-2.93c0-.191-.023-.343-.07-.457a.454.454 0 00-.2-.246.578.578 0 00-.316-.082c-.14 0-.258.03-.351.088a.538.538 0 00-.211.252c-.043.11-.065.24-.065.393h-1.646c0-.274.052-.532.158-.774.106-.246.26-.46.463-.644.207-.188.453-.334.738-.44.285-.105.606-.158.961-.158.422 0 .797.072 1.125.217.328.14.588.365.78.674.19.308.287.709.287 1.2v2.825c0 .355.017.645.052.867.04.223.096.414.17.574v.1H96.3a2.75 2.75 0 01-.17-.656 6.123 6.123 0 01-.053-.803zm.2-2.414l.005.984h-.603c-.156 0-.293.026-.41.076a.787.787 0 00-.287.217.893.893 0 00-.176.317 1.38 1.38 0 00-.053.386c0 .153.021.282.064.387a.497.497 0 00.498.322c.18 0 .336-.037.47-.11a.759.759 0 00.292-.27c.067-.106.088-.204.065-.293l.375.638a2.891 2.891 0 01-.194.451c-.078.157-.178.301-.299.434a1.445 1.445 0 01-.45.328 1.47 1.47 0 01-.628.123c-.34 0-.65-.078-.931-.234a1.738 1.738 0 01-.668-.656c-.16-.282-.24-.616-.24-1.002 0-.32.05-.61.152-.868.105-.261.261-.482.469-.662.207-.183.468-.324.785-.422a3.79 3.79 0 011.113-.146h.65zm4.277-1.113V18h-1.647v-6.34h1.541l.106 1.354zm-.246 1.6l-.44.011a4.83 4.83 0 01.135-1.283c.102-.38.244-.701.428-.967.187-.27.41-.475.668-.615a1.77 1.77 0 01.873-.217c.246 0 .47.043.674.129.207.086.384.223.533.41.148.188.263.438.345.75.082.309.123.688.123 1.137V18H102v-4.043c0-.273-.027-.484-.082-.633a.55.55 0 00-.246-.316.818.818 0 00-.41-.094.678.678 0 00-.416.135 1.024 1.024 0 00-.305.357 2.135 2.135 0 00-.182.54c-.039.206-.056.429-.052.667zM106.57 9v9h-1.646V9h1.646zm3.856 9.117c-.434 0-.819-.066-1.155-.199a2.276 2.276 0 01-.843-.574 2.563 2.563 0 01-.528-.92 3.849 3.849 0 01-.181-1.23v-.522c0-.516.058-.967.176-1.354a2.84 2.84 0 01.498-.984 1.96 1.96 0 01.791-.592c.316-.133.673-.199 1.072-.199.398 0 .748.066 1.049.2.304.128.556.323.756.585.199.258.349.578.451.961.101.383.152.828.152 1.336v.75h-4.248v-1.154h2.637v-.147c0-.258-.028-.472-.082-.644a.743.743 0 00-.258-.393c-.117-.086-.274-.129-.469-.129a.81.81 0 00-.416.1.683.683 0 00-.269.31c-.067.141-.116.325-.147.551-.031.223-.047.49-.047.803v.521c0 .293.026.54.076.739.051.195.125.355.223.48a.889.889 0 00.369.264c.145.05.313.076.504.076a1.791 1.791 0 001.377-.58l.656.996a2.348 2.348 0 01-.468.445c-.2.149-.438.27-.715.364-.278.093-.598.14-.961.14zm6.521-6.457h1.489V18c0 .578-.112 1.05-.334 1.418a1.948 1.948 0 01-.92.814c-.391.176-.848.264-1.371.264-.2 0-.424-.027-.674-.082a3.173 3.173 0 01-.715-.252 1.879 1.879 0 01-.568-.398l.556-1.137c.152.152.352.281.598.387.246.109.488.164.726.164.231 0 .422-.037.575-.112a.695.695 0 00.351-.363c.082-.172.123-.402.123-.691V13.13l.164-1.47zm-3.539 3.393v-.422c0-.516.049-.967.147-1.354a2.84 2.84 0 01.422-.966 1.72 1.72 0 01.673-.575 2.07 2.07 0 01.903-.193c.347 0 .638.076.873.229.234.148.424.357.568.626.149.27.262.588.34.956.082.367.145.769.187 1.207v.609c-.042.414-.113.8-.21 1.16-.094.36-.219.672-.375.938a1.904 1.904 0 01-.575.627c-.226.148-.5.222-.82.222-.328 0-.625-.066-.891-.199a1.884 1.884 0 01-.673-.586 2.912 2.912 0 01-.422-.96 5.338 5.338 0 01-.147-1.32zm1.647-.422v.422c0 .297.017.552.052.767.039.211.098.385.176.522a.784.784 0 00.299.299.972.972 0 00.439.093c.239 0 .428-.054.569-.164a.966.966 0 00.316-.463c.071-.199.11-.427.117-.685v-1.107a2.322 2.322 0 00-.076-.58 1.462 1.462 0 00-.181-.44.81.81 0 00-.305-.281.877.877 0 00-.428-.1.886.886 0 00-.433.1.805.805 0 00-.305.31 1.772 1.772 0 00-.182.533 4.406 4.406 0 00-.058.774zm7.16 3.486c-.434 0-.819-.066-1.154-.199a2.28 2.28 0 01-.844-.574 2.577 2.577 0 01-.528-.92 3.849 3.849 0 01-.181-1.23v-.522c0-.516.058-.967.176-1.354a2.84 2.84 0 01.498-.984 1.96 1.96 0 01.791-.592c.316-.133.673-.199 1.072-.199.398 0 .748.066 1.049.2.304.128.556.323.756.585.199.258.349.578.451.961.101.383.152.828.152 1.336v.75h-4.248v-1.154h2.637v-.147c0-.258-.028-.472-.082-.644a.743.743 0 00-.258-.393c-.117-.086-.273-.129-.469-.129a.81.81 0 00-.416.1.683.683 0 00-.269.31c-.067.141-.116.325-.147.551-.031.223-.047.49-.047.803v.521c0 .293.026.54.076.739.051.195.125.355.223.48a.889.889 0 00.369.264c.145.05.313.076.504.076a1.791 1.791 0 001.377-.58l.656.996a2.348 2.348 0 01-.468.445c-.2.149-.438.27-.715.364-.278.093-.598.14-.961.14zm4.828-5.045V18h-1.641v-6.34h1.547l.094 1.412zm1.494-1.459l-.023 1.635a2.094 2.094 0 00-.27-.035 3.544 3.544 0 00-.269-.012c-.184 0-.34.03-.469.088a.78.78 0 00-.322.252c-.082.11-.145.246-.188.41-.043.164-.068.35-.076.557l-.311-.117c0-.414.032-.793.094-1.137.067-.348.164-.649.293-.902.129-.258.283-.457.463-.598a.997.997 0 01.621-.211c.078 0 .16.008.246.023.09.012.16.028.211.047zm2.479-2.619V18h-1.641V8.994h1.641zm3.334 2.666l-2.233 3.152-1.342 1.506-.58-1.248 1.032-1.505 1.166-1.905h1.957zM132.639 18l-1.383-2.912 1.131-1.043L134.52 18h-1.881zm2.291-2.953v-.428c0-.496.058-.935.175-1.318.122-.383.293-.703.516-.961.223-.262.49-.46.803-.592.316-.137.67-.205 1.06-.205.395 0 .748.068 1.061.205.316.133.586.33.809.592.226.258.4.578.521.96.121.384.182.823.182 1.32v.427c0 .492-.061.93-.182 1.312a2.707 2.707 0 01-.521.967 2.148 2.148 0 01-.803.592c-.313.133-.664.2-1.055.2a2.71 2.71 0 01-1.06-.2 2.192 2.192 0 01-.809-.592 2.708 2.708 0 01-.522-.967 4.493 4.493 0 01-.175-1.312zm1.64-.428v.428c0 .293.02.547.059.762.043.214.103.392.182.533a.83.83 0 00.293.31.76.76 0 00.392.1.796.796 0 00.399-.1.748.748 0 00.287-.31 1.67 1.67 0 00.17-.533c.039-.215.058-.47.058-.762v-.428c0-.285-.021-.535-.064-.75a1.773 1.773 0 00-.182-.533.824.824 0 00-.293-.316.69.69 0 00-.387-.112.688.688 0 00-.386.112.905.905 0 00-.287.316 1.746 1.746 0 00-.182.533 4.24 4.24 0 00-.059.75zm6.135-1.605V18h-1.646v-6.34h1.541l.105 1.354zm-.246 1.6l-.439.011a4.852 4.852 0 01.134-1.283c.102-.38.244-.701.428-.967.188-.27.41-.475.668-.615.262-.145.553-.217.873-.217.246 0 .471.043.674.129.207.086.385.223.533.41.149.188.264.438.346.75.082.309.123.688.123 1.137V18h-1.647v-4.043c0-.273-.027-.484-.082-.633a.543.543 0 00-.246-.316.815.815 0 00-.41-.094.68.68 0 00-.416.135 1.024 1.024 0 00-.305.357 2.136 2.136 0 00-.181.54c-.039.206-.057.429-.053.667zm7.307-2.954v1.236h-3.235V11.66h3.235zm-2.491-1.564h1.635v5.97c0 .176.018.311.053.405a.36.36 0 00.158.199.689.689 0 00.293.053 1.123 1.123 0 00.387-.047v1.283c-.129.05-.266.09-.41.117a2.688 2.688 0 01-.504.041c-.328 0-.614-.062-.856-.187a1.275 1.275 0 01-.556-.598c-.133-.277-.2-.64-.2-1.09v-6.146zm5.959 8.021c-.433 0-.818-.066-1.154-.199a2.288 2.288 0 01-.844-.574 2.575 2.575 0 01-.527-.92 3.848 3.848 0 01-.182-1.23v-.522c0-.516.059-.967.176-1.354a2.84 2.84 0 01.498-.984c.215-.266.479-.463.791-.592a2.75 2.75 0 011.072-.199c.399 0 .748.066 1.049.2.305.128.557.323.756.585.199.258.35.578.451.961.102.383.153.828.153 1.336v.75h-4.248v-1.154h2.636v-.147c0-.258-.027-.472-.082-.644a.732.732 0 00-.258-.393c-.117-.086-.273-.129-.468-.129a.81.81 0 00-.416.1.685.685 0 00-.27.31 1.93 1.93 0 00-.146.551c-.032.223-.047.49-.047.803v.521c0 .293.025.54.076.739.051.195.125.355.223.48a.876.876 0 00.369.264c.144.05.312.076.504.076.289 0 .549-.05.779-.152.234-.106.434-.248.598-.428l.656.996c-.113.148-.27.297-.469.445a2.55 2.55 0 01-.715.364c-.277.093-.597.14-.961.14zm4.799-5.103V18h-1.646v-6.34h1.541l.105 1.354zm-.246 1.6l-.439.011a4.852 4.852 0 01.134-1.283c.102-.38.245-.701.428-.967.188-.27.41-.475.668-.615.262-.145.553-.217.873-.217.246 0 .471.043.674.129.207.086.385.223.533.41.149.188.264.438.346.75.082.309.123.688.123 1.137V18h-1.647v-4.043c0-.273-.027-.484-.082-.633a.543.543 0 00-.246-.316.815.815 0 00-.41-.094.68.68 0 00-.416.135 1.035 1.035 0 00-.305.357 2.136 2.136 0 00-.181.54c-.039.206-.057.429-.053.667zm9.176 2.12l1.019-5.074h1.711l-1.74 6.34h-1.025l.035-1.266zm-.604-5.074l1.037 5.08.018 1.26h-1.031l-1.74-6.34h1.716zm6.598 6.457a3.12 3.12 0 01-1.154-.199 2.28 2.28 0 01-.844-.574 2.575 2.575 0 01-.527-.92 3.848 3.848 0 01-.182-1.23v-.522c0-.516.059-.967.176-1.354a2.84 2.84 0 01.498-.984c.215-.266.478-.463.791-.592.316-.133.674-.199 1.072-.199.399 0 .748.066 1.049.2.305.128.557.323.756.585.199.258.349.578.451.961.102.383.152.828.152 1.336v.75h-4.248v-1.154h2.637v-.147c0-.258-.027-.472-.082-.644a.743.743 0 00-.258-.393c-.117-.086-.273-.129-.469-.129a.812.812 0 00-.416.1.683.683 0 00-.269.31c-.067.141-.115.325-.147.551-.031.223-.047.49-.047.803v.521c0 .293.026.54.077.739.05.195.125.355.222.48a.889.889 0 00.369.264c.145.05.313.076.504.076.289 0 .549-.05.78-.152.234-.106.433-.248.597-.428l.657.996c-.114.148-.27.297-.469.445-.199.149-.438.27-.715.364a3 3 0 01-.961.14zm4.828-5.045V18h-1.64v-6.34h1.546l.094 1.412zm1.494-1.459l-.023 1.635a2.07 2.07 0 00-.27-.035 3.544 3.544 0 00-.269-.012c-.184 0-.34.03-.469.088a.78.78 0 00-.322.252c-.082.11-.145.246-.188.41-.043.164-.068.35-.076.557l-.31-.117c0-.414.031-.793.093-1.137.067-.348.164-.649.293-.902.129-.258.283-.457.463-.598a.997.997 0 01.621-.211c.078 0 .16.008.246.023.09.012.161.028.211.047zM181.84 9v9h-1.647V9h1.647zm3.023 2.66V18h-1.646v-6.34h1.646zm-1.722-1.64a.86.86 0 01.24-.627c.164-.168.383-.252.656-.252.277 0 .496.084.656.252a.857.857 0 01.241.627c0 .25-.082.459-.246.627-.161.163-.376.246-.645.246-.277 0-.498-.083-.662-.247a.874.874 0 01-.24-.627zm5.578 8.097c-.434 0-.819-.066-1.155-.199a2.276 2.276 0 01-.843-.574 2.563 2.563 0 01-.528-.92 3.849 3.849 0 01-.181-1.23v-.522c0-.516.058-.967.176-1.354a2.84 2.84 0 01.498-.984 1.96 1.96 0 01.791-.592c.316-.133.673-.199 1.072-.199.398 0 .748.066 1.049.2.304.128.556.323.756.585.199.258.349.578.451.961.101.383.152.828.152 1.336v.75h-4.248v-1.154h2.637v-.147c0-.258-.028-.472-.082-.644a.743.743 0 00-.258-.393c-.117-.086-.274-.129-.469-.129a.81.81 0 00-.416.1.683.683 0 00-.269.31c-.067.141-.116.325-.147.551-.031.223-.047.49-.047.803v.521c0 .293.026.54.076.739.051.195.125.355.223.48a.889.889 0 00.369.264c.145.05.313.076.504.076a1.791 1.791 0 001.377-.58l.656.996a2.348 2.348 0 01-.468.445c-.2.149-.438.27-.715.364-.278.093-.598.14-.961.14zm4.828-5.045V18h-1.641v-6.34h1.547l.094 1.412zm1.494-1.459l-.023 1.635a2.094 2.094 0 00-.27-.035 3.565 3.565 0 00-.269-.012c-.184 0-.34.03-.469.088a.774.774 0 00-.322.252c-.083.11-.145.246-.188.41-.043.164-.068.35-.076.557l-.311-.117c0-.414.032-.793.094-1.137.066-.348.164-.649.293-.902.129-.258.283-.457.463-.598a.995.995 0 01.621-.211c.078 0 .16.008.246.023.09.012.16.028.211.047zm3.275 6.504c-.433 0-.818-.066-1.154-.199a2.288 2.288 0 01-.844-.574 2.575 2.575 0 01-.527-.92 3.848 3.848 0 01-.182-1.23v-.522c0-.516.059-.967.176-1.354a2.84 2.84 0 01.498-.984c.215-.266.479-.463.791-.592a2.75 2.75 0 011.072-.199c.399 0 .749.066 1.049.2.305.128.557.323.756.585.199.258.35.578.451.961.102.383.153.828.153 1.336v.75h-4.248v-1.154h2.636v-.147c0-.258-.027-.472-.082-.644a.736.736 0 00-.257-.393.779.779 0 00-.469-.129.81.81 0 00-.416.1.685.685 0 00-.27.31 1.93 1.93 0 00-.146.551c-.032.223-.047.49-.047.803v.521c0 .293.025.54.076.739.051.195.125.355.223.48a.876.876 0 00.369.264c.144.05.312.076.504.076.289 0 .549-.05.779-.152.234-.106.434-.248.598-.428l.656.996c-.113.148-.27.297-.469.445a2.55 2.55 0 01-.715.364c-.277.093-.597.14-.961.14zm4.799-5.103V18h-1.646v-6.34h1.541l.105 1.354zm-.246 1.6l-.439.011a4.852 4.852 0 01.134-1.283c.102-.38.245-.701.428-.967.188-.27.41-.475.668-.615.262-.145.553-.217.873-.217.246 0 .471.043.674.129.207.086.385.223.533.41.149.188.264.438.346.75.082.309.123.688.123 1.137V18h-1.647v-4.043c0-.273-.027-.484-.082-.633a.543.543 0 00-.246-.316.815.815 0 00-.41-.094.68.68 0 00-.416.135 1.022 1.022 0 00-.304.357 2.096 2.096 0 00-.182.54c-.039.206-.057.429-.053.667zm13.184-1.096v3.515c-.121.13-.299.28-.533.451a3.466 3.466 0 01-.909.446c-.371.125-.824.187-1.359.187a3.57 3.57 0 01-1.289-.223 2.61 2.61 0 01-.99-.673 3.058 3.058 0 01-.627-1.137c-.145-.457-.217-.998-.217-1.623v-1.453c0-.617.068-1.154.205-1.611.141-.462.344-.844.609-1.149.266-.305.582-.531.95-.68a3.35 3.35 0 011.253-.222c.641 0 1.166.107 1.577.322.414.215.726.533.937.955.215.422.344.94.387 1.553h-1.658c-.028-.36-.088-.64-.182-.844a.859.859 0 00-.381-.434c-.164-.09-.377-.134-.638-.134-.227 0-.424.04-.592.123a.995.995 0 00-.422.386c-.113.18-.197.41-.252.692a5.482 5.482 0 00-.082 1.031v1.465c0 .402.031.746.094 1.031.062.285.154.518.275.697.125.18.281.311.469.393.191.078.416.117.674.117.207 0 .373-.021.498-.064a1.44 1.44 0 00.298-.135c.079-.05.143-.09.194-.117v-1.57h-1.225v-1.295h2.936zm3.709 4.6c-.434 0-.819-.067-1.155-.2a2.276 2.276 0 01-.843-.574 2.563 2.563 0 01-.528-.92 3.849 3.849 0 01-.181-1.23v-.522c0-.516.058-.967.175-1.354.118-.39.284-.718.499-.984a1.96 1.96 0 01.791-.592c.316-.133.673-.199 1.072-.199.398 0 .748.066 1.049.2.304.128.556.323.755.585.2.258.35.578.452.961.101.383.152.828.152 1.336v.75h-4.248v-1.154h2.637v-.147c0-.258-.028-.472-.082-.644a.743.743 0 00-.258-.393c-.117-.086-.274-.129-.469-.129a.81.81 0 00-.416.1.683.683 0 00-.269.31c-.067.141-.116.325-.147.551-.031.223-.047.49-.047.803v.521c0 .293.026.54.076.739.051.195.125.355.223.48a.889.889 0 00.369.264c.145.05.313.076.504.076a1.791 1.791 0 001.377-.58l.656.996a2.348 2.348 0 01-.468.445c-.2.149-.438.27-.715.364-.278.093-.598.14-.961.14zM224.672 9v9h-1.647V9h1.647zm4.371 7.6V9h1.646v9l-1.488.006-.158-1.406zm-3.287-1.547v-.422c0-.516.043-.967.129-1.354.09-.386.222-.709.398-.966.176-.258.391-.45.645-.575a1.95 1.95 0 01.884-.193c.301 0 .565.076.792.229.23.148.425.357.585.626.161.27.29.588.387.956.098.367.166.769.205 1.207v.609a7.72 7.72 0 01-.217 1.16c-.093.36-.222.672-.386.938a1.96 1.96 0 01-.58.627 1.413 1.413 0 01-.791.222c-.332 0-.627-.066-.885-.199a1.772 1.772 0 01-.645-.586 3 3 0 01-.392-.96 6.05 6.05 0 01-.129-1.32zm1.64-.422v.422c0 .297.014.552.042.767.031.211.08.385.146.522.07.133.162.232.275.299a.866.866 0 00.422.093c.219 0 .397-.054.533-.164a1 1 0 00.305-.463c.07-.199.11-.427.117-.685v-1.107a2.764 2.764 0 00-.076-.58 1.462 1.462 0 00-.181-.44.848.848 0 00-.293-.281.778.778 0 00-.399-.1.843.843 0 00-.422.1.683.683 0 00-.269.31 1.95 1.95 0 00-.153.533 5.507 5.507 0 00-.047.774zM234.697 9h1.635v7.53l-.117 1.47h-1.518V9zm4.928 5.62v.415c0 .516-.041.965-.123 1.348a2.757 2.757 0 01-.369.96 1.58 1.58 0 01-.633.58 2.02 2.02 0 01-.914.194c-.316 0-.588-.074-.815-.223a1.912 1.912 0 01-.574-.626 4.128 4.128 0 01-.375-.944 8.02 8.02 0 01-.205-1.19v-.614c.039-.422.106-.815.199-1.178a3.99 3.99 0 01.375-.944c.153-.27.342-.478.569-.627a1.44 1.44 0 01.814-.228c.36 0 .668.066.926.2.258.128.469.322.633.58.168.257.291.58.369.966a6.4 6.4 0 01.123 1.33zm-1.635.415v-.416c0-.293-.011-.545-.035-.756a1.768 1.768 0 00-.129-.527.673.673 0 00-.269-.316.851.851 0 00-.452-.106.82.82 0 00-.421.1.829.829 0 00-.293.28 1.342 1.342 0 00-.176.434 2.895 2.895 0 00-.059.545v1.108c.004.27.037.508.1.715a.962.962 0 00.299.48c.14.113.328.17.562.17a.916.916 0 00.445-.094.617.617 0 00.264-.299c.067-.136.11-.312.129-.527a7.43 7.43 0 00.035-.79zm5.198 3.082c-.434 0-.819-.066-1.155-.199a2.288 2.288 0 01-.844-.574 2.575 2.575 0 01-.527-.92 3.848 3.848 0 01-.182-1.23v-.522c0-.516.059-.967.176-1.354a2.84 2.84 0 01.498-.984c.215-.266.479-.463.791-.592.317-.133.674-.199 1.073-.199.398 0 .748.066 1.048.2.305.128.557.323.756.585.199.258.35.578.451.961.102.383.153.828.153 1.336v.75h-4.248v-1.154h2.636v-.147c0-.258-.027-.472-.082-.644a.736.736 0 00-.257-.393.779.779 0 00-.469-.129.81.81 0 00-.416.1.69.69 0 00-.27.31 1.93 1.93 0 00-.146.551c-.031.223-.047.49-.047.803v.521c0 .293.025.54.076.739.051.195.125.355.223.48a.876.876 0 00.369.264c.144.05.312.076.504.076.289 0 .549-.05.779-.152.234-.106.434-.248.598-.428l.656.996c-.113.148-.27.297-.469.445a2.55 2.55 0 01-.715.364c-.277.093-.597.14-.96.14zm4.91-6.457V18h-1.647v-6.34h1.647zm-1.723-1.64a.86.86 0 01.24-.627c.164-.168.383-.252.656-.252.278 0 .497.084.657.252a.86.86 0 01.24.627c0 .25-.082.459-.246.627-.16.163-.375.246-.645.246-.277 0-.498-.083-.662-.247a.874.874 0 01-.24-.627zm4.676 2.953V18h-1.647v-6.34h1.547l.1 1.313zm-.235 1.64l-.451.012a5.093 5.093 0 01.117-1.23c.086-.375.215-.702.387-.979.176-.277.397-.492.662-.645a1.84 1.84 0 01.932-.228c.23 0 .443.043.639.129.195.082.365.213.509.393.145.175.256.406.334.69.078.282.117.62.117 1.014V18h-1.64v-4.031c0-.281-.027-.496-.082-.645-.055-.152-.133-.258-.235-.316a.7.7 0 00-.375-.094.676.676 0 00-.41.129.936.936 0 00-.287.363c-.07.153-.125.332-.164.54-.035.206-.053.429-.053.667zm3.088-.164l-.592.076c-.007-.418.03-.806.112-1.166.082-.363.209-.68.381-.949.172-.273.386-.486.644-.639.262-.152.565-.228.908-.228.258 0 .493.043.704.129.21.086.39.224.539.416.152.187.267.435.345.744.082.309.123.684.123 1.125V18h-1.646v-4.037c0-.285-.027-.504-.082-.656-.055-.153-.133-.256-.235-.31a.752.752 0 00-.363-.083.605.605 0 00-.369.117.932.932 0 00-.258.328c-.07.137-.123.3-.158.487a3.227 3.227 0 00-.053.603zm11.315.71h1.705c-.024.64-.153 1.18-.387 1.622-.234.438-.568.77-1.002.996-.43.227-.949.34-1.558.34a3.19 3.19 0 01-1.26-.234 2.521 2.521 0 01-.938-.703 3.13 3.13 0 01-.586-1.143 5.819 5.819 0 01-.193-1.576v-1.447c0-.594.068-1.12.205-1.576.141-.458.34-.84.598-1.149a2.48 2.48 0 01.943-.703c.371-.16.789-.24 1.254-.24.621 0 1.141.117 1.559.351.418.235.74.576.966 1.026.231.445.37.99.416 1.634h-1.711c-.011-.406-.058-.724-.14-.955-.078-.234-.203-.398-.375-.492-.172-.098-.41-.146-.715-.146-.227 0-.422.04-.586.123a.941.941 0 00-.404.38 2.037 2.037 0 00-.235.692 6.67 6.67 0 00-.07 1.043v1.459c0 .402.022.746.065 1.031.042.281.111.512.205.692.093.18.22.31.38.392.165.082.372.123.622.123.289 0 .521-.043.697-.129.18-.086.312-.24.398-.463.086-.222.135-.539.147-.949zm4.494-5.69V18h-1.717V9.469h1.717zm2.672 3.627v1.418h-3.106v-1.418h3.106zm.328-3.627v1.424h-3.434V9.469h3.434zM275.941 18h-1.505l.011-1.418h1.494c.414 0 .737-.074.967-.223.231-.148.393-.382.487-.703.097-.32.146-.74.146-1.26v-1.33c0-.394-.025-.728-.076-1.002a1.642 1.642 0 00-.258-.668 1.07 1.07 0 00-.486-.38 2.028 2.028 0 00-.756-.123h-1.559V9.469h1.559c.492 0 .939.08 1.342.24.402.16.748.395 1.037.703.289.305.511.682.668 1.131.156.45.234.96.234 1.535v1.319c0 .578-.078 1.09-.234 1.535a3.17 3.17 0 01-.668 1.13 2.812 2.812 0 01-1.037.698c-.407.16-.862.24-1.366.24zm-.509-8.531V18h-1.717V9.469h1.717zm7.939 4.19v1.364h-2.853v-1.365h2.853zM20.42 25.925v1.418h-3.498v-1.418h3.498zm-3.012-3.457V31h-1.717v-8.531h1.717zm4.254 0V31h-1.7v-8.531h1.7zm4.113 7.072v-2.93a1.22 1.22 0 00-.07-.457.455.455 0 00-.2-.246.578.578 0 00-.316-.082c-.14 0-.257.03-.351.088a.537.537 0 00-.211.252c-.043.11-.064.24-.064.393h-1.647c0-.274.053-.532.158-.774.106-.246.26-.46.463-.644.207-.188.453-.334.738-.44.286-.105.606-.158.961-.158.422 0 .797.072 1.125.217.328.14.588.365.78.674.191.308.287.709.287 1.2v2.825c0 .355.017.645.052.867.04.223.096.414.17.574v.1h-1.652a2.75 2.75 0 01-.17-.656 6.123 6.123 0 01-.053-.803zm.2-2.414l.005.984h-.603c-.156 0-.293.026-.41.076a.787.787 0 00-.287.217.895.895 0 00-.176.317c-.035.12-.053.25-.053.386 0 .153.022.282.065.387a.497.497 0 00.498.322c.18 0 .336-.037.468-.11a.759.759 0 00.293-.27c.067-.106.088-.204.065-.293l.375.638a2.891 2.891 0 01-.194.451c-.078.157-.177.301-.298.434a1.446 1.446 0 01-.451.328 1.47 1.47 0 01-.627.123c-.34 0-.65-.078-.932-.234a1.738 1.738 0 01-.668-.656c-.16-.282-.24-.616-.24-1.002 0-.32.05-.61.152-.868.105-.261.262-.482.469-.662.207-.183.469-.324.785-.422a3.79 3.79 0 011.113-.146h.65zm4.277-1.113V31h-1.646v-6.34h1.54l.106 1.354zm-.246 1.6l-.44.011a4.83 4.83 0 01.135-1.283c.102-.38.244-.701.428-.967.187-.27.41-.475.668-.615.262-.145.553-.217.873-.217.246 0 .47.043.674.129.207.086.384.223.533.41.148.188.264.438.346.75.082.309.123.688.123 1.137V31h-1.647v-4.043c0-.273-.027-.484-.082-.633a.548.548 0 00-.246-.316.817.817 0 00-.41-.094.68.68 0 00-.416.135 1.024 1.024 0 00-.305.357 2.131 2.131 0 00-.181.54c-.04.206-.057.429-.053.667zm7.611 1.986V22h1.647v9l-1.489.006-.158-1.406zm-3.287-1.547v-.422c0-.516.043-.967.129-1.354.09-.386.223-.709.398-.966.176-.258.391-.45.645-.575.258-.129.553-.193.885-.193.3 0 .564.076.79.229.231.148.426.357.587.626.16.27.289.588.386.956.098.367.166.769.206 1.207v.609c-.047.414-.12.8-.217 1.16-.094.36-.223.672-.387.938-.16.265-.354.474-.58.627a1.41 1.41 0 01-.791.222c-.332 0-.627-.066-.885-.199a1.77 1.77 0 01-.644-.586 2.998 2.998 0 01-.393-.96 6.051 6.051 0 01-.129-1.32zm1.64-.422v.422c0 .297.014.552.042.767.031.211.08.385.146.522.07.133.162.232.276.299a.864.864 0 00.422.093.827.827 0 00.533-.164c.136-.113.238-.267.304-.463.07-.199.11-.427.117-.685v-1.108a2.825 2.825 0 00-.076-.58 1.457 1.457 0 00-.181-.44.838.838 0 00-.293-.28.774.774 0 00-.399-.1.842.842 0 00-.421.1.685.685 0 00-.27.31 1.94 1.94 0 00-.152.533 5.464 5.464 0 00-.047.774zm7.085 3.486c-.434 0-.819-.066-1.155-.199a2.283 2.283 0 01-.843-.574 2.571 2.571 0 01-.528-.92 3.846 3.846 0 01-.181-1.23v-.522c0-.516.058-.967.175-1.354.118-.39.284-.718.498-.984.215-.266.479-.463.791-.592.317-.133.674-.199 1.073-.199.398 0 .748.066 1.049.2.304.128.556.323.756.585.199.258.35.578.45.961.102.383.153.828.153 1.336v.75h-4.248v-1.154h2.637v-.147c0-.258-.028-.472-.082-.644a.74.74 0 00-.258-.393c-.117-.086-.274-.129-.469-.129a.81.81 0 00-.416.1.685.685 0 00-.27.31c-.066.141-.115.325-.146.551-.031.223-.047.49-.047.803v.521c0 .293.026.54.076.739.051.195.125.355.223.48a.883.883 0 00.37.264c.144.05.312.076.503.076.29 0 .549-.05.78-.152.234-.106.433-.248.597-.428l.656.996c-.113.148-.27.297-.468.445-.2.149-.438.27-.715.364a3 3 0 01-.961.14zM47.965 22v9h-1.647v-9h1.647zm5.719 3.973V31h-1.647v-6.34h1.547l.1 1.313zm-.235 1.64l-.451.012a5.108 5.108 0 01.117-1.23c.086-.375.215-.702.387-.979.176-.277.396-.492.662-.645a1.84 1.84 0 01.932-.228c.23 0 .443.043.638.129.196.082.366.213.51.392.145.176.256.407.334.692.078.281.117.619.117 1.014V31h-1.64v-4.031c0-.282-.028-.496-.082-.645-.055-.152-.133-.258-.235-.316a.703.703 0 00-.375-.094.675.675 0 00-.41.129.937.937 0 00-.287.363 2.31 2.31 0 00-.164.54c-.035.206-.053.429-.053.667zm3.088-.164l-.592.076c-.008-.418.03-.806.112-1.166.082-.363.209-.68.38-.949a1.9 1.9 0 01.645-.639c.262-.152.565-.228.908-.228.258 0 .492.043.703.129.211.086.391.224.54.416.152.187.267.435.345.744.082.309.123.684.123 1.125V31h-1.646v-4.037c0-.285-.028-.504-.082-.656-.055-.153-.133-.256-.235-.31a.756.756 0 00-.363-.083.603.603 0 00-.37.117.93.93 0 00-.257.328 1.78 1.78 0 00-.158.487 3.22 3.22 0 00-.053.603zm6.123-2.789V31h-1.646v-6.34h1.646zm-1.722-1.64a.86.86 0 01.24-.627c.164-.168.383-.252.656-.252.277 0 .496.084.656.252a.86.86 0 01.24.627c0 .25-.082.459-.246.627-.16.164-.375.246-.644.246-.278 0-.498-.082-.662-.247a.873.873 0 01-.24-.627zm5.789 1.64v1.236h-3.235V24.66h3.235zm-2.49-1.564h1.634v5.97c0 .176.018.311.053.405a.36.36 0 00.158.199.689.689 0 00.293.053 1.12 1.12 0 00.387-.047v1.283c-.13.05-.266.09-.41.117-.141.027-.309.041-.504.041-.329 0-.614-.062-.856-.187a1.28 1.28 0 01-.556-.598c-.133-.277-.2-.64-.2-1.09v-6.146zm9.24 6.504V22h1.646v9l-1.488.006-.158-1.406zm-3.288-1.547v-.422c0-.516.043-.967.13-1.354.09-.386.222-.709.398-.966.176-.258.39-.45.644-.575.258-.129.553-.193.885-.193.3 0 .565.076.791.229.23.148.426.357.586.626.16.27.29.588.387.956.097.367.166.769.205 1.207v.609c-.047.414-.12.8-.217 1.16-.094.36-.223.672-.387.938-.16.265-.353.474-.58.627a1.41 1.41 0 01-.79.222c-.333 0-.628-.066-.885-.199a1.77 1.77 0 01-.645-.586 3 3 0 01-.393-.96 6.051 6.051 0 01-.129-1.32zm1.641-.422v.422c0 .297.014.552.041.767.031.211.08.385.147.522.07.133.162.232.275.299a.864.864 0 00.422.093.827.827 0 00.533-.164c.137-.113.238-.267.305-.463.07-.199.11-.427.117-.685v-1.108a2.825 2.825 0 00-.076-.58 1.46 1.46 0 00-.182-.44.838.838 0 00-.293-.28.773.773 0 00-.398-.1.843.843 0 00-.422.1.685.685 0 00-.27.31 1.94 1.94 0 00-.152.533 5.464 5.464 0 00-.047.774zm6.252-2.97V31h-1.646v-6.34h1.646zm-1.723-1.642a.86.86 0 01.24-.626c.165-.168.383-.252.657-.252.277 0 .496.084.656.252a.86.86 0 01.24.627c0 .25-.082.459-.246.627-.16.164-.375.246-.644.246-.278 0-.498-.082-.662-.247a.873.873 0 01-.24-.627zm5.579 8.098c-.434 0-.819-.066-1.155-.199a2.282 2.282 0 01-.844-.574 2.57 2.57 0 01-.527-.92 3.846 3.846 0 01-.181-1.23v-.522c0-.516.058-.967.175-1.354.117-.39.283-.718.498-.984.215-.266.479-.463.791-.592.317-.133.674-.199 1.073-.199.398 0 .748.066 1.048.2.305.128.557.323.756.585.2.258.35.578.451.961.102.383.153.828.153 1.336v.75h-4.248v-1.154h2.636v-.147c0-.258-.027-.472-.082-.644a.74.74 0 00-.257-.393c-.118-.086-.274-.129-.47-.129a.81.81 0 00-.415.1.685.685 0 00-.27.31c-.066.141-.115.325-.146.551-.031.223-.047.49-.047.803v.521c0 .293.025.54.076.739.05.195.125.355.223.48a.883.883 0 00.369.264c.144.05.312.076.504.076.289 0 .549-.05.78-.152.234-.106.433-.248.597-.428l.656.996c-.113.148-.27.297-.469.445-.199.149-.437.27-.715.364a3 3 0 01-.96.14zm6-1.828a.436.436 0 00-.112-.293 1.32 1.32 0 00-.351-.264 5.825 5.825 0 00-.64-.31 6.768 6.768 0 01-.767-.363 2.705 2.705 0 01-.568-.416 1.541 1.541 0 01-.346-.522 1.788 1.788 0 01-.117-.668c0-.27.049-.517.147-.744a1.79 1.79 0 01.433-.604c.188-.175.416-.312.686-.41.273-.101.58-.152.92-.152.476 0 .884.084 1.224.252.344.164.608.394.791.691.184.297.276.643.276 1.037h-1.641c0-.14-.021-.265-.064-.375a.525.525 0 00-.211-.263.679.679 0 00-.381-.094.606.606 0 00-.533.281.545.545 0 00-.077.293c0 .086.018.162.053.229.04.066.1.13.182.193.082.063.191.129.328.2.14.066.312.14.516.222.421.156.767.324 1.037.504.273.18.476.39.609.633.133.238.2.533.2.884 0 .282-.055.538-.165.768-.105.23-.26.43-.463.598a2.146 2.146 0 01-.732.386 3.09 3.09 0 01-.944.135c-.511 0-.943-.101-1.294-.305a2.094 2.094 0 01-.797-.779 2.01 2.01 0 01-.27-.996h1.559c.008.211.047.377.117.498.074.117.174.2.299.246.125.047.264.07.416.07.152 0 .277-.019.375-.058a.468.468 0 00.228-.193.62.62 0 00.076-.31zm5.19 1.828c-.433 0-.817-.066-1.153-.199a2.282 2.282 0 01-.844-.574 2.57 2.57 0 01-.528-.92 3.846 3.846 0 01-.181-1.23v-.522c0-.516.059-.967.176-1.354.117-.39.283-.718.498-.984.215-.266.478-.463.79-.592.317-.133.675-.199 1.073-.199.398 0 .748.066 1.049.2.305.128.556.323.756.585.199.258.35.578.45.961.102.383.153.828.153 1.336v.75H91.12v-1.154h2.637v-.147c0-.258-.028-.472-.082-.644a.74.74 0 00-.258-.393c-.117-.086-.273-.129-.469-.129a.81.81 0 00-.416.1.685.685 0 00-.27.31c-.066.141-.114.325-.146.551-.031.223-.047.49-.047.803v.521c0 .293.026.54.076.739.051.195.125.355.223.48a.883.883 0 00.37.264c.144.05.312.076.503.076.29 0 .55-.05.78-.152.234-.106.433-.248.597-.428l.656.996c-.113.148-.27.297-.468.445-.2.149-.438.27-.715.364a3 3 0 01-.961.14zm4.84-5.144V31h-1.646v-6.34h1.547l.1 1.313zm-.234 1.64l-.45.012a5.108 5.108 0 01.116-1.23c.086-.375.215-.702.387-.979.176-.277.397-.492.662-.645a1.84 1.84 0 01.932-.228c.23 0 .443.043.639.129.195.082.365.213.509.392.145.176.256.407.334.692.078.281.117.619.117 1.014V31h-1.64v-4.031c0-.282-.028-.496-.082-.645-.055-.152-.133-.258-.235-.316a.703.703 0 00-.375-.094.674.674 0 00-.41.129.937.937 0 00-.287.363c-.07.153-.125.332-.164.54a4 4 0 00-.053.667zm3.088-.164l-.592.076c-.007-.418.03-.806.112-1.166.082-.363.209-.68.381-.949.172-.273.386-.486.644-.639.262-.152.565-.228.908-.228.258 0 .493.043.704.129.21.086.39.224.539.416.152.187.267.435.345.744.082.309.123.684.123 1.125V31h-1.646v-4.037c0-.285-.028-.504-.082-.656-.055-.153-.133-.256-.235-.31a.752.752 0 00-.363-.083.603.603 0 00-.369.117.932.932 0 00-.258.328c-.07.137-.123.3-.158.487a3.227 3.227 0 00-.053.603zm10.336-3.457L109.324 31h-1.81l2.666-8.531h1.131l-.153 1.523zM112.605 31l-1.845-7.008-.17-1.523h1.148l2.69 8.531h-1.823zm.065-3.182v1.424h-3.85v-1.424h3.85zm3.82-1.804V31h-1.646v-6.34h1.541l.105 1.354zm-.246 1.6l-.439.011a4.852 4.852 0 01.134-1.283c.102-.38.245-.701.428-.967.188-.27.41-.475.668-.615.262-.145.553-.217.873-.217.246 0 .471.043.674.129.207.086.385.223.533.41.149.188.264.438.346.75.082.309.123.688.123 1.137V31h-1.646v-4.043c0-.273-.028-.484-.083-.633a.543.543 0 00-.246-.316.815.815 0 00-.41-.094.68.68 0 00-.416.135 1.022 1.022 0 00-.304.357 2.096 2.096 0 00-.182.54c-.039.206-.057.429-.053.667zM120.791 22h1.635v7.53l-.117 1.47h-1.518v-9zm4.928 5.62v.415c0 .516-.041.965-.123 1.348a2.757 2.757 0 01-.369.96 1.586 1.586 0 01-.633.58 2.024 2.024 0 01-.914.194c-.317 0-.588-.074-.815-.223a1.902 1.902 0 01-.574-.626 4.128 4.128 0 01-.375-.944 7.892 7.892 0 01-.205-1.19v-.614c.039-.422.105-.815.199-1.178a3.99 3.99 0 01.375-.944c.153-.27.342-.478.569-.627.23-.152.501-.228.814-.228.359 0 .668.066.926.2.258.128.468.322.633.58.168.257.291.58.369.966a6.4 6.4 0 01.123 1.33zm-1.635.415v-.416c0-.293-.012-.545-.035-.756a1.83 1.83 0 00-.129-.527.675.675 0 00-.27-.316.845.845 0 00-.451-.106.825.825 0 00-.422.1.837.837 0 00-.293.28 1.364 1.364 0 00-.175.434 2.815 2.815 0 00-.059.545v1.108c.004.27.037.508.1.715a.968.968 0 00.298.48c.141.113.329.17.563.17a.916.916 0 00.445-.094.622.622 0 00.264-.299c.066-.136.109-.312.129-.527.023-.219.035-.482.035-.79zm4.365-3.375V31h-1.646v-6.34h1.646zm-1.722-1.64a.86.86 0 01.24-.627c.164-.168.383-.252.656-.252.277 0 .496.084.656.252.16.164.241.373.241.627 0 .25-.082.459-.247.627-.16.164-.375.246-.644.246-.277 0-.498-.082-.662-.247a.874.874 0 01-.24-.627zm5.578 8.097c-.434 0-.819-.066-1.155-.199a2.276 2.276 0 01-.843-.574 2.563 2.563 0 01-.528-.92 3.849 3.849 0 01-.181-1.23v-.522c0-.516.058-.967.175-1.354.118-.39.284-.718.498-.984.215-.266.479-.463.791-.592.317-.133.674-.199 1.073-.199.398 0 .748.066 1.049.2.304.128.556.323.755.585.2.258.35.578.452.961.101.383.152.828.152 1.336v.75h-4.248v-1.154h2.637v-.147c0-.258-.028-.472-.082-.644a.743.743 0 00-.258-.393c-.117-.086-.274-.129-.469-.129a.81.81 0 00-.416.1.683.683 0 00-.269.31c-.067.141-.116.325-.147.551-.031.223-.047.49-.047.803v.521c0 .293.026.54.076.739.051.195.125.355.223.48a.889.889 0 00.369.264c.145.05.313.076.504.076a1.791 1.791 0 001.377-.58l.656.996a2.329 2.329 0 01-.469.445c-.199.149-.437.27-.714.364-.278.093-.598.14-.961.14zm5.953-6.457v1.236h-3.235V24.66h3.235zm-2.49-1.564h1.634v5.97c0 .176.018.311.053.405a.36.36 0 00.158.199.692.692 0 00.293.053 1.123 1.123 0 00.387-.047v1.283c-.129.05-.266.09-.41.117a2.688 2.688 0 01-.504.041c-.328 0-.613-.062-.856-.187a1.28 1.28 0 01-.556-.598c-.133-.277-.199-.64-.199-1.09v-6.146zm5.959 8.021c-.434 0-.819-.066-1.155-.199a2.276 2.276 0 01-.843-.574 2.563 2.563 0 01-.528-.92 3.849 3.849 0 01-.181-1.23v-.522c0-.516.058-.967.175-1.354.117-.39.284-.718.498-.984.215-.266.479-.463.791-.592.317-.133.674-.199 1.073-.199.398 0 .748.066 1.048.2.305.128.557.323.756.585.2.258.35.578.451.961.102.383.153.828.153 1.336v.75h-4.248v-1.154h2.637v-.147c0-.258-.028-.472-.083-.644a.736.736 0 00-.257-.393.779.779 0 00-.469-.129.81.81 0 00-.416.1.69.69 0 00-.27.31 1.93 1.93 0 00-.146.551c-.031.223-.047.49-.047.803v.521c0 .293.025.54.076.739.051.195.125.355.223.48a.876.876 0 00.369.264c.145.05.312.076.504.076a1.791 1.791 0 001.377-.58l.656.996a2.329 2.329 0 01-.469.445c-.199.149-.437.27-.714.364-.278.093-.598.14-.961.14zm4.828-5.045V31h-1.641v-6.34h1.547l.094 1.412zm1.494-1.459l-.024 1.635a2.077 2.077 0 00-.269-.035 3.59 3.59 0 00-.27-.012c-.183 0-.34.03-.468.088a.783.783 0 00-.323.252c-.082.11-.144.246-.187.41-.043.164-.069.35-.076.557l-.311-.117c0-.414.031-.793.094-1.137.066-.348.164-.649.293-.902.129-.258.283-.457.463-.598.183-.14.39-.211.621-.211.078 0 .16.008.246.023.09.012.16.028.211.047zm-.035 5.55c0-.259.086-.474.257-.645.172-.176.405-.264.698-.264.293 0 .525.088.697.264a.874.874 0 01.258.644.874.874 0 01-.258.645c-.172.172-.404.258-.697.258-.293 0-.526-.087-.698-.258a.877.877 0 01-.257-.645zm10.16-1.32c0-.425-.115-.751-.346-.978-.23-.226-.646-.447-1.248-.662-.601-.215-1.062-.44-1.383-.674a2.491 2.491 0 01-.715-.808 2.256 2.256 0 01-.234-1.043c0-.676.225-1.233.674-1.67.453-.438 1.045-.656 1.775-.656.5 0 .946.113 1.336.34.391.222.692.533.903.931.21.398.316.836.316 1.313h-1.078c0-.528-.127-.936-.381-1.225-.254-.29-.619-.434-1.096-.434-.433 0-.769.121-1.008.364-.238.242-.357.582-.357 1.02 0 .358.129.66.387.901.258.243.656.46 1.195.65.84.278 1.44.62 1.799 1.026.363.407.545.938.545 1.594 0 .691-.225 1.246-.674 1.664-.449.414-1.061.621-1.834.621a2.99 2.99 0 01-1.377-.322 2.51 2.51 0 01-.99-.914 2.57 2.57 0 01-.358-1.354h1.079c0 .528.146.938.439 1.23.297.294.699.44 1.207.44.473 0 .828-.12 1.066-.363.239-.242.358-.572.358-.99zM161.643 31h-1.038v-6.34h1.038V31zm.082-8.021a.662.662 0 01-.147.439c-.098.117-.246.176-.445.176-.195 0-.342-.059-.44-.176a.667.667 0 01-.146-.44.69.69 0 01.146-.445c.098-.12.245-.181.44-.181s.342.062.439.187a.66.66 0 01.153.44zm3.82 8.138c-.789 0-1.395-.234-1.816-.703-.422-.473-.637-1.164-.645-2.074v-.768c0-.945.205-1.685.615-2.22.414-.54.99-.809 1.729-.809.742 0 1.297.236 1.664.709s.554 1.209.562 2.209v.68h-3.539v.146c0 .68.127 1.174.381 1.483.258.308.627.462 1.108.462.304 0 .572-.056.802-.17.235-.117.453-.3.656-.55l.54.656c-.45.633-1.135.95-2.057.95zm-.117-5.683c-.43 0-.748.148-.955.445-.207.293-.325.75-.352 1.371h2.496v-.14c-.027-.602-.137-1.032-.328-1.29-.187-.258-.475-.386-.861-.386zm9.31 3.943a.766.766 0 00-.252-.574c-.168-.16-.492-.348-.972-.563-.559-.23-.953-.427-1.184-.592a1.72 1.72 0 01-.51-.556c-.113-.211-.17-.461-.17-.75 0-.516.188-.944.563-1.283.379-.344.861-.516 1.447-.516.617 0 1.113.18 1.488.539.375.36.563.82.563 1.383h-1.031c0-.285-.096-.527-.287-.727a.964.964 0 00-.733-.304c-.305 0-.545.08-.721.24-.171.156-.257.367-.257.633a.7.7 0 00.187.51c.129.128.436.298.92.51.77.3 1.293.595 1.57.884.278.285.416.648.416 1.09 0 .55-.189.992-.568 1.324-.379.328-.887.492-1.523.492-.661 0-1.196-.19-1.606-.568-.41-.38-.615-.86-.615-1.442h1.043c.012.352.119.627.322.827.203.199.488.298.856.298.343 0 .605-.076.785-.228a.79.79 0 00.269-.627zm2.174-1.84c0-.922.223-1.65.668-2.185.449-.54 1.041-.809 1.775-.809.735 0 1.325.262 1.77.785.449.524.68 1.236.691 2.139v.668c0 .918-.222 1.644-.668 2.18-.445.535-1.039.802-1.781.802-.734 0-1.324-.26-1.769-.78-.442-.519-.67-1.222-.686-2.108v-.692zm1.037.598c0 .652.127 1.166.381 1.54.258.372.604.557 1.037.557.914 0 1.385-.66 1.412-1.98v-.715c0-.648-.129-1.16-.386-1.535-.258-.379-.604-.568-1.038-.568-.425 0-.767.189-1.025.568-.254.375-.381.885-.381 1.53v.603zM184.271 31h-1.037v-9h1.037v9zm2.754 0h-1.037v-9h1.037v9zm2.995-7.875v1.535h.955v.838h-.955v3.932c0 .25.041.44.123.568.082.129.222.193.421.193.137 0 .276-.023.416-.07l-.011.879a2.27 2.27 0 01-.721.117c-.41 0-.723-.146-.937-.44-.215-.292-.323-.706-.323-1.241v-3.938h-.967v-.838h.967v-1.535h1.032zm4.459 7.992c-.79 0-1.395-.234-1.817-.703-.422-.473-.637-1.164-.644-2.074v-.768c0-.945.205-1.685.615-2.22.414-.54.99-.809 1.728-.809.743 0 1.297.236 1.664.709.368.473.555 1.209.563 2.209v.68h-3.539v.146c0 .68.127 1.174.381 1.483.258.308.627.462 1.107.462a1.8 1.8 0 00.803-.17c.234-.117.453-.3.656-.55l.539.656c-.449.633-1.135.95-2.056.95zm-.118-5.683c-.429 0-.748.148-.955.445-.207.293-.324.75-.351 1.371h2.496v-.14c-.028-.602-.137-1.032-.328-1.29-.188-.258-.475-.386-.862-.386zm4.453-.774l.03.686c.402-.535.916-.803 1.541-.803 1.121 0 1.689.748 1.705 2.244V31h-1.031v-4.166c0-.496-.084-.848-.252-1.055-.164-.21-.412-.316-.745-.316-.257 0-.49.086-.697.258a1.875 1.875 0 00-.492.674V31h-1.037v-6.34h.978zm10.823 5.783c-.344.45-.846.674-1.506.674-.574 0-1.008-.197-1.301-.592-.293-.398-.441-.976-.445-1.734v-4.13h1.031v4.054c0 .988.297 1.482.891 1.482.629 0 1.062-.281 1.3-.843V24.66h1.038V31h-.985l-.023-.557zm-3-7.476a.63.63 0 01.158-.44c.109-.12.269-.181.48-.181.211 0 .371.06.481.181a.62.62 0 01.164.44.62.62 0 01-.164.44c-.11.116-.27.175-.481.175-.211 0-.371-.059-.48-.176a.63.63 0 01-.158-.44zm2.519.012c0-.176.053-.325.158-.446.11-.12.27-.181.481-.181.211 0 .371.06.48.181.11.121.164.27.164.445a.617.617 0 01-.164.44c-.109.117-.269.176-.48.176-.211 0-.371-.059-.481-.176a.635.635 0 01-.158-.44zm7.641 5.156c0 .988-.178 1.732-.533 2.232-.356.5-.871.75-1.547.75-.672 0-1.176-.289-1.512-.867l-.053.75h-.943v-9h1.031v3.357c.34-.543.828-.814 1.465-.814.695 0 1.217.246 1.565.738.347.492.523 1.235.527 2.227v.627zm-1.031-.592c0-.75-.106-1.283-.317-1.6-.207-.32-.545-.48-1.013-.48-.536 0-.934.289-1.196.867v3.018c.258.57.66.855 1.207.855.469 0 .805-.164 1.008-.492.203-.328.307-.838.311-1.53v-.638zm4.623 3.574c-.789 0-1.395-.234-1.817-.703-.422-.473-.636-1.164-.644-2.074v-.768c0-.945.205-1.685.615-2.22.414-.54.99-.809 1.728-.809.743 0 1.297.236 1.665.709.367.473.554 1.209.562 2.209v.68h-3.539v.146c0 .68.127 1.174.381 1.483.258.308.627.462 1.107.462.305 0 .573-.056.803-.17.234-.117.453-.3.656-.55l.539.656c-.449.633-1.134.95-2.056.95zm-.118-5.683c-.429 0-.748.148-.955.445-.207.293-.324.75-.351 1.371h2.496v-.14c-.027-.602-.137-1.032-.328-1.29-.188-.258-.475-.386-.862-.386zm6.094.199a2.525 2.525 0 00-.469-.041c-.531 0-.902.29-1.113.873V31h-1.037v-6.34h1.008l.017.645c.278-.508.67-.762 1.178-.762.164 0 .301.027.41.082l.006 1.008zM228.521 31h-1.037v-9h1.037v9zm3.903.117c-.789 0-1.395-.234-1.817-.703-.421-.473-.636-1.164-.644-2.074v-.768c0-.945.205-1.685.615-2.22.414-.54.99-.809 1.729-.809.742 0 1.297.236 1.664.709s.554 1.209.562 2.209v.68h-3.539v.146c0 .68.127 1.174.381 1.483.258.308.627.462 1.107.462.305 0 .573-.056.803-.17.235-.117.453-.3.656-.55l.539.656c-.449.633-1.134.95-2.056.95zm-.117-5.683c-.43 0-.748.148-.955.445-.207.293-.325.75-.352 1.371h2.496v-.14c-.027-.602-.137-1.032-.328-1.29-.188-.258-.475-.386-.861-.386zm3.269 2.109c0-.988.18-1.734.539-2.238.36-.508.885-.762 1.576-.762.645 0 1.135.275 1.471.826l.053-.709h.937v6.399c0 .785-.201 1.386-.603 1.804-.403.422-.963.633-1.682.633-.312 0-.664-.078-1.055-.234-.386-.153-.677-.342-.873-.569l.422-.714c.43.421.905.632 1.424.632.863 0 1.307-.47 1.33-1.412v-.826c-.336.496-.812.744-1.429.744-.657 0-1.168-.246-1.536-.738-.367-.496-.558-1.207-.574-2.133v-.703zm1.037.592c0 .71.104 1.234.311 1.57.211.332.555.498 1.031.498.516 0 .902-.264 1.16-.79v-3.17c-.269-.52-.652-.78-1.148-.78-.477 0-.821.168-1.031.504-.211.332-.319.844-.323 1.535v.633zm7.354 2.982c-.789 0-1.395-.234-1.817-.703-.421-.473-.636-1.164-.644-2.074v-.768c0-.945.205-1.685.615-2.22.414-.54.99-.809 1.729-.809.742 0 1.296.236 1.664.709.367.473.554 1.209.562 2.209v.68h-3.539v.146c0 .68.127 1.174.381 1.483.258.308.627.462 1.107.462.305 0 .573-.056.803-.17.234-.117.453-.3.656-.55l.539.656c-.449.633-1.134.95-2.056.95zm-.117-5.683c-.43 0-.748.148-.955.445-.207.293-.325.75-.352 1.371h2.496v-.14c-.027-.602-.137-1.032-.328-1.29-.188-.258-.475-.386-.861-.386zm4.453-.774l.029.686c.402-.535.916-.803 1.541-.803 1.121 0 1.689.748 1.705 2.244V31h-1.031v-4.166c0-.496-.084-.848-.252-1.055-.164-.21-.412-.316-.744-.316-.258 0-.49.086-.697.258a1.866 1.866 0 00-.493.674V31h-1.037v-6.34h.979zm4.845 8.04l-.615-.423c.367-.511.559-1.039.574-1.582v-.978h1.061v.85c0 .394-.098.788-.293 1.183-.191.395-.434.71-.727.95zm4.881-5.163c0-.922.223-1.65.668-2.185.449-.54 1.041-.809 1.776-.809.734 0 1.324.262 1.769.785.449.524.68 1.236.692 2.139v.668c0 .918-.223 1.644-.668 2.18-.446.535-1.039.802-1.782.802-.734 0-1.324-.26-1.769-.78-.442-.519-.67-1.222-.686-2.108v-.692zm1.037.598c0 .652.127 1.166.381 1.54.258.372.604.557 1.037.557.914 0 1.385-.66 1.412-1.98v-.715c0-.648-.128-1.16-.386-1.535-.258-.379-.604-.568-1.037-.568-.426 0-.768.189-1.026.568-.254.375-.381.885-.381 1.53v.603zm9.797 0c0 .988-.177 1.732-.533 2.232-.355.5-.871.75-1.547.75-.672 0-1.176-.289-1.512-.867l-.052.75h-.944v-9h1.032v3.357c.339-.543.828-.814 1.464-.814.696 0 1.217.246 1.565.738.348.492.523 1.235.527 2.227v.627zm-1.031-.592c0-.75-.105-1.283-.316-1.6-.207-.32-.545-.48-1.014-.48-.535 0-.934.289-1.195.867v3.018c.257.57.66.855 1.207.855.468 0 .804-.164 1.007-.492.204-.328.307-.838.311-1.53v-.638zm-248.185 14.3c0-.425-.116-.751-.346-.978-.23-.226-.647-.447-1.248-.662-.602-.215-1.063-.44-1.383-.674a2.476 2.476 0 01-.715-.808 2.253 2.253 0 01-.234-1.043c0-.676.224-1.233.674-1.67.453-.438 1.044-.656 1.775-.656.5 0 .945.113 1.336.34.39.222.691.533.902.931.211.399.317.836.317 1.313h-1.079c0-.528-.127-.936-.38-1.225-.254-.29-.62-.434-1.096-.434-.434 0-.77.121-1.008.364-.238.242-.357.582-.357 1.02 0 .358.129.66.386.901.258.243.657.46 1.196.65.84.278 1.44.62 1.799 1.026.363.407.544.938.544 1.594 0 .691-.224 1.246-.673 1.664-.45.414-1.06.621-1.834.621a2.99 2.99 0 01-1.377-.322 2.511 2.511 0 01-.99-.914 2.566 2.566 0 01-.358-1.354h1.078c0 .528.147.938.44 1.23.297.294.699.44 1.207.44.472 0 .828-.12 1.066-.363.238-.242.357-.572.357-.99zM23.115 44h-1.037v-6.34h1.037V44zm.082-8.022a.664.664 0 01-.146.44c-.098.117-.246.176-.445.176-.196 0-.342-.059-.44-.176a.664.664 0 01-.146-.44c0-.175.048-.324.146-.445.098-.12.244-.181.44-.181.195 0 .341.062.439.187a.66.66 0 01.152.44zm3.82 8.14c-.788 0-1.394-.235-1.816-.704-.422-.473-.637-1.164-.644-2.074v-.768c0-.945.205-1.685.615-2.22.414-.54.99-.809 1.728-.809.743 0 1.297.236 1.665.709.367.473.554 1.209.562 2.209v.68h-3.54v.146c0 .68.128 1.174.382 1.483.258.308.627.462 1.107.462.305 0 .572-.056.803-.17.234-.117.453-.3.656-.55l.54.656c-.45.633-1.136.95-2.057.95zm-.117-5.684c-.43 0-.748.148-.955.445-.207.293-.324.75-.351 1.371h2.496v-.14c-.027-.602-.137-1.032-.328-1.29-.188-.258-.475-.386-.862-.386zm8.497 5.683c-.79 0-1.395-.234-1.817-.703-.422-.473-.637-1.164-.645-2.074v-.768c0-.945.206-1.685.616-2.22.414-.54.99-.809 1.728-.809.742 0 1.297.236 1.664.709s.555 1.209.563 2.209v.68h-3.54v.146c0 .68.128 1.174.382 1.483.258.308.627.462 1.107.462.305 0 .572-.056.803-.17.234-.117.453-.3.656-.55l.54.656c-.45.633-1.136.95-2.057.95zm-.118-5.683c-.43 0-.748.148-.955.445-.207.293-.324.75-.351 1.371h2.496v-.14c-.028-.602-.137-1.032-.328-1.29-.188-.258-.475-.386-.862-.386zm6.557 3.943a.766.766 0 00-.252-.574c-.168-.16-.492-.348-.973-.563-.558-.23-.953-.428-1.183-.592a1.704 1.704 0 01-.51-.556c-.113-.211-.17-.461-.17-.75 0-.516.188-.944.563-1.283.379-.344.86-.516 1.447-.516.617 0 1.113.18 1.488.539.375.36.563.82.563 1.383h-1.032a1.01 1.01 0 00-.287-.727.962.962 0 00-.732-.304c-.305 0-.545.08-.72.24-.173.156-.259.367-.259.633 0 .21.063.38.188.51.129.128.435.298.92.51.77.3 1.293.595 1.57.884.277.285.416.648.416 1.09 0 .55-.19.992-.568 1.324-.38.328-.887.492-1.524.492-.66 0-1.195-.19-1.605-.568-.41-.38-.616-.86-.616-1.442h1.043c.012.352.12.627.323.827.203.199.488.298.855.298.344 0 .606-.076.785-.228a.789.789 0 00.27-.627zm8.227 0a.766.766 0 00-.253-.574c-.167-.16-.492-.348-.972-.563-.559-.23-.953-.428-1.184-.592a1.704 1.704 0 01-.51-.556c-.113-.211-.17-.461-.17-.75 0-.516.188-.944.563-1.283.379-.344.861-.516 1.447-.516.618 0 1.114.18 1.489.539.375.36.562.82.562 1.383h-1.031a1.01 1.01 0 00-.287-.727.962.962 0 00-.733-.304c-.304 0-.544.08-.72.24-.172.156-.258.367-.258.633 0 .21.062.38.187.51.13.128.436.298.92.51.77.3 1.293.595 1.57.884.278.285.417.648.417 1.09 0 .55-.19.992-.569 1.324-.379.328-.886.492-1.523.492-.66 0-1.196-.19-1.606-.568-.41-.38-.615-.86-.615-1.442h1.043c.012.352.12.627.322.827.203.199.489.298.856.298.344 0 .605-.076.785-.228a.789.789 0 00.27-.627zM53.572 44h-1.038v-6.34h1.037V44zm.081-8.022a.663.663 0 01-.146.44c-.098.117-.246.176-.446.176-.195 0-.341-.059-.439-.176a.664.664 0 01-.146-.44c0-.175.048-.324.146-.445.098-.12.244-.181.44-.181.195 0 .341.062.439.187a.661.661 0 01.152.44zm3.756 7.254c.344 0 .62-.105.826-.316.207-.215.32-.52.34-.914h.979c-.024.61-.24 1.115-.65 1.517a2.052 2.052 0 01-1.495.598c-.785 0-1.385-.246-1.799-.738-.41-.496-.615-1.232-.615-2.21v-.696c0-.957.205-1.684.615-2.18.41-.5 1.008-.75 1.793-.75.649 0 1.162.205 1.541.615.383.41.586.97.61 1.682h-.979c-.023-.469-.136-.82-.34-1.055-.199-.234-.476-.351-.832-.351-.46 0-.802.152-1.025.457-.223.3-.338.797-.346 1.488v.809c0 .746.11 1.273.328 1.581.223.31.573.463 1.05.463zm4.377-4.922c.395-.511.898-.767 1.512-.767 1.12 0 1.69.748 1.705 2.244V44h-1.031v-4.166c0-.496-.084-.848-.252-1.055-.164-.21-.412-.316-.744-.316-.258 0-.49.086-.698.258a1.874 1.874 0 00-.492.674V44H60.75v-9h1.037v3.31zM70.424 44h-1.037v-9h1.037v9zm3.902.117c-.789 0-1.394-.234-1.816-.703-.422-.473-.637-1.164-.645-2.074v-.768c0-.945.205-1.685.616-2.22.413-.54.99-.809 1.728-.809.742 0 1.297.236 1.664.709s.555 1.209.563 2.209v.68h-3.54v.146c0 .68.127 1.174.381 1.483.258.308.627.462 1.108.462.304 0 .572-.056.802-.17.235-.117.454-.3.657-.55l.539.656c-.45.633-1.135.95-2.057.95zm-.117-5.683c-.43 0-.748.148-.955.445-.207.293-.324.75-.352 1.371h2.496v-.14c-.027-.602-.136-1.032-.328-1.29-.187-.258-.474-.386-.861-.386zM78.803 44h-1.037v-6.34h1.037V44zm.082-8.022a.664.664 0 01-.147.44c-.097.117-.246.176-.445.176-.195 0-.342-.059-.44-.176a.664.664 0 01-.146-.44c0-.175.049-.324.147-.445.097-.12.244-.181.439-.181s.342.062.44.187a.66.66 0 01.152.44zm4.634 6.399a.766.766 0 00-.251-.574c-.168-.16-.493-.348-.973-.563-.559-.23-.953-.428-1.184-.592a1.704 1.704 0 01-.51-.556c-.113-.211-.17-.461-.17-.75 0-.516.188-.944.563-1.283.379-.344.862-.516 1.447-.516.618 0 1.114.18 1.489.539.375.36.562.82.562 1.383h-1.031a1.01 1.01 0 00-.287-.727.962.962 0 00-.733-.304c-.304 0-.544.08-.72.24-.172.156-.258.367-.258.633 0 .21.062.38.187.51.13.128.436.298.92.51.77.3 1.293.595 1.57.884.278.285.417.648.417 1.09 0 .55-.19.992-.569 1.324-.379.328-.886.492-1.523.492-.66 0-1.196-.19-1.606-.568-.41-.38-.615-.86-.615-1.442h1.043c.012.352.12.627.322.827.204.199.489.298.856.298.344 0 .605-.076.785-.228a.789.789 0 00.27-.627zm3.75-6.252v1.535h.956v.838h-.956v3.932c0 .25.041.44.124.568.082.129.222.193.421.193.137 0 .276-.023.417-.07l-.012.879a2.266 2.266 0 01-.721.117c-.41 0-.723-.146-.938-.44-.214-.292-.322-.706-.322-1.242v-3.937h-.966v-.838h.966v-1.535h1.031zm4.46 7.992c-.79 0-1.395-.234-1.817-.703-.422-.473-.637-1.164-.644-2.074v-.768c0-.945.205-1.685.615-2.22.414-.54.99-.809 1.728-.809.742 0 1.297.236 1.664.709.368.473.555 1.209.563 2.209v.68h-3.54v.146c0 .68.128 1.174.382 1.483.257.308.627.462 1.107.462.305 0 .572-.056.803-.17.234-.117.453-.3.656-.55l.54.656c-.45.633-1.136.95-2.058.95zm-.118-5.683c-.43 0-.748.148-.955.445-.207.293-.324.75-.351 1.371H92.8v-.14c-.028-.602-.137-1.032-.328-1.29-.188-.258-.475-.386-.862-.386zm4.453-.774l.03.686c.402-.535.916-.803 1.54-.803 1.122 0 1.69.748 1.706 2.244V44h-1.031v-4.166c0-.496-.084-.848-.252-1.055-.164-.21-.413-.316-.745-.316-.257 0-.49.086-.697.258a1.874 1.874 0 00-.492.674V44h-1.037v-6.34h.978zm9.182 3.44l-.551.632V44h-1.037v-9h1.037v5.385l1.975-2.725h1.242l-2.016 2.649 2.28 3.691h-1.207l-1.723-2.9zm3.604-.563c0-.922.222-1.65.668-2.185.449-.54 1.041-.809 1.775-.809s1.324.262 1.769.785c.45.524.68 1.236.692 2.139v.668c0 .918-.223 1.644-.668 2.18-.445.535-1.039.802-1.781.802-.735 0-1.325-.26-1.77-.78-.441-.519-.67-1.222-.685-2.109v-.69zm1.037.598c0 .652.127 1.166.381 1.54.257.372.603.557 1.037.557.914 0 1.384-.66 1.412-1.98v-.715c0-.648-.129-1.16-.387-1.535-.258-.379-.603-.568-1.037-.568-.426 0-.768.189-1.025.568-.254.375-.381.885-.381 1.53v.603zm-.528-5.168a.63.63 0 01.159-.44c.109-.12.269-.181.48-.181.211 0 .371.06.481.181a.62.62 0 01.164.44.62.62 0 01-.164.44c-.11.116-.27.175-.481.175-.211 0-.371-.059-.48-.176a.63.63 0 01-.159-.44zm2.52.011c0-.175.053-.324.158-.445.109-.12.27-.181.481-.181.211 0 .371.06.48.181.109.121.164.27.164.445a.62.62 0 01-.164.44c-.109.117-.269.176-.48.176-.211 0-.372-.059-.481-.176a.635.635 0 01-.158-.44zm4.189 1.682l.03.686c.402-.535.916-.803 1.541-.803 1.121 0 1.689.748 1.705 2.244V44h-1.032v-4.166c0-.496-.083-.848-.251-1.055-.165-.21-.413-.316-.745-.316-.257 0-.49.086-.697.258a1.875 1.875 0 00-.492.674V44h-1.037v-6.34h.978zm5.813 0l.029.686c.402-.535.916-.803 1.541-.803 1.121 0 1.69.748 1.705 2.244V44h-1.031v-4.166c0-.496-.084-.848-.252-1.055-.164-.21-.412-.316-.744-.316-.258 0-.49.086-.697.258a1.877 1.877 0 00-.493.674V44h-1.037v-6.34h.979zm7.101 6.457c-.789 0-1.394-.234-1.816-.703-.422-.473-.637-1.164-.645-2.074v-.768c0-.945.206-1.685.616-2.22.414-.54.99-.809 1.728-.809.742 0 1.297.236 1.664.709s.555 1.209.563 2.209v.68h-3.539v.146c0 .68.127 1.174.381 1.483.257.308.627.462 1.107.462a1.8 1.8 0 00.803-.17c.234-.117.453-.3.656-.55l.539.656c-.449.633-1.135.95-2.057.95zm-.117-5.683c-.429 0-.748.148-.955.445-.207.293-.324.75-.351 1.371h2.496v-.14c-.028-.602-.137-1.032-.328-1.29-.188-.258-.475-.386-.862-.386zm4.453-.774l.03.686c.402-.535.916-.803 1.541-.803 1.121 0 1.689.748 1.705 2.244V44h-1.032v-4.166c0-.496-.083-.848-.251-1.055-.165-.21-.413-.316-.745-.316-.257 0-.49.086-.697.258a1.875 1.875 0 00-.492.674V44h-1.037v-6.34h.978zm4.846 8.04l-.615-.423c.367-.511.558-1.039.574-1.582v-.978h1.061v.85c0 .394-.098.788-.293 1.183a2.75 2.75 0 01-.727.95zm4.881-5.157c0-.977.182-1.72.545-2.233.367-.511.892-.767 1.576-.767.605 0 1.078.246 1.418.738V35h1.037v9h-.949l-.053-.68c-.34.532-.826.797-1.459.797-.656 0-1.172-.254-1.547-.761-.371-.512-.56-1.233-.568-2.163v-.65zm1.037.592c0 .71.106 1.234.316 1.57.211.332.555.498 1.032.498.515 0 .9-.26 1.154-.78v-3.198c-.266-.508-.648-.762-1.148-.762-.477 0-.821.168-1.032.504-.211.332-.318.843-.322 1.535v.633zM152.479 44c-.063-.137-.108-.367-.135-.691-.367.539-.836.808-1.406.808-.575 0-1.024-.16-1.348-.48-.32-.325-.481-.78-.481-1.365 0-.645.219-1.157.657-1.536.437-.379 1.037-.572 1.798-.58h.762v-.674c0-.379-.084-.648-.252-.808-.168-.16-.424-.24-.767-.24-.313 0-.567.093-.762.28a.924.924 0 00-.293.704h-1.037c0-.324.096-.633.287-.926a1.99 1.99 0 01.773-.697 2.325 2.325 0 011.084-.252c.649 0 1.141.162 1.477.486.34.32.514.79.521 1.406v3.2c.004.488.071.912.2 1.271V44h-1.078zm-1.383-.826c.254 0 .496-.07.726-.211.231-.14.399-.316.504-.528v-1.511h-.586c-.492.008-.881.119-1.166.334-.285.21-.428.508-.428.89 0 .36.073.621.217.786.145.16.389.24.733.24zm6.955-.797a.766.766 0 00-.252-.574c-.168-.16-.492-.348-.973-.563-.558-.23-.953-.428-1.183-.592a1.698 1.698 0 01-.51-.556c-.113-.211-.17-.461-.17-.75 0-.516.187-.944.562-1.283.379-.344.862-.516 1.448-.516.617 0 1.113.18 1.488.539.375.36.562.82.562 1.383h-1.031c0-.285-.096-.528-.287-.727a.96.96 0 00-.732-.304c-.305 0-.545.08-.721.24-.172.156-.258.367-.258.633 0 .21.063.38.188.51.129.128.435.298.92.51.769.3 1.293.595 1.57.884.277.285.416.648.416 1.09 0 .55-.19.992-.568 1.324-.379.328-.887.492-1.524.492-.66 0-1.195-.19-1.605-.568-.411-.38-.616-.86-.616-1.442h1.043c.012.352.12.627.323.827.203.199.488.298.855.298.344 0 .606-.076.785-.228a.788.788 0 00.27-.627zm6.181-4.067c.395-.511.899-.767 1.512-.767 1.121 0 1.69.748 1.705 2.244V44h-1.031v-4.166c0-.496-.084-.848-.252-1.055-.164-.21-.412-.316-.744-.316-.258 0-.49.086-.697.258a1.866 1.866 0 00-.493.674V44h-1.037v-9h1.037v3.31zm4.547 2.227c0-.922.223-1.65.668-2.185.449-.54 1.041-.809 1.776-.809.734 0 1.324.262 1.769.785.449.524.68 1.236.692 2.139v.668c0 .918-.223 1.644-.668 2.18-.446.535-1.039.802-1.782.802-.734 0-1.324-.26-1.769-.78-.442-.519-.67-1.222-.686-2.109v-.69zm1.037.598c0 .652.127 1.166.381 1.54.258.372.604.557 1.037.557.914 0 1.385-.66 1.412-1.98v-.715c0-.648-.128-1.16-.386-1.535-.258-.379-.604-.568-1.037-.568-.426 0-.768.189-1.026.568-.254.375-.381.885-.381 1.53v.603zm6.241-2.825c.394-.511.898-.767 1.511-.767 1.121 0 1.69.748 1.705 2.244V44h-1.031v-4.166c0-.496-.084-.848-.252-1.055-.164-.21-.412-.316-.744-.316-.258 0-.49.086-.697.258a1.875 1.875 0 00-.492.674V44h-1.037v-9h1.037v3.31zm7.031 5.807c-.789 0-1.395-.234-1.817-.703-.421-.473-.636-1.164-.644-2.074v-.768c0-.945.205-1.685.615-2.22.414-.54.99-.809 1.729-.809.742 0 1.297.236 1.664.709s.554 1.209.562 2.209v.68h-3.539v.146c0 .68.127 1.174.381 1.483.258.308.627.462 1.107.462.305 0 .573-.056.803-.17.235-.117.453-.3.656-.55l.54.656c-.45.633-1.135.95-2.057.95zm-.117-5.683c-.43 0-.748.148-.955.445-.207.293-.325.75-.352 1.371h2.496v-.14c-.027-.602-.137-1.032-.328-1.29-.187-.258-.475-.386-.861-.386zm8.953 2.115h-1.5V44h-1.078v-8.531h2.39c.836 0 1.469.218 1.899.656.429.434.644 1.07.644 1.91 0 .528-.117.988-.351 1.383-.231.39-.559.685-.985.885l1.653 3.627V44h-1.155l-1.517-3.451zm-1.5-.92h1.301c.449 0 .806-.145 1.072-.434.269-.289.404-.675.404-1.16 0-1.094-.496-1.64-1.488-1.64h-1.289v3.234zM196.693 44h-1.037v-6.34h1.037V44zm.082-8.022a.661.661 0 01-.146.44c-.098.117-.246.176-.445.176-.196 0-.342-.059-.44-.176a.661.661 0 01-.146-.44c0-.175.048-.324.146-.445.098-.12.244-.181.44-.181.195 0 .341.062.439.187a.659.659 0 01.152.44zm4.635 6.399a.766.766 0 00-.252-.574c-.168-.16-.492-.348-.972-.563-.559-.23-.954-.428-1.184-.592a1.698 1.698 0 01-.51-.556c-.113-.211-.17-.461-.17-.75 0-.516.188-.944.563-1.283.379-.344.861-.516 1.447-.516.617 0 1.113.18 1.488.539.375.36.563.82.563 1.383h-1.031c0-.285-.096-.528-.288-.727a.96.96 0 00-.732-.304c-.305 0-.545.08-.721.24-.172.156-.257.367-.257.633a.7.7 0 00.187.51c.129.128.436.298.92.51.769.3 1.293.595 1.57.884.278.285.416.648.416 1.09 0 .55-.189.992-.568 1.324-.379.328-.887.492-1.524.492-.66 0-1.195-.19-1.605-.568-.41-.38-.615-.86-.615-1.442h1.043c.011.352.119.627.322.827.203.199.488.298.855.298.344 0 .606-.076.786-.228a.79.79 0 00.269-.627zM204.92 44h-1.037v-6.34h1.037V44zm.082-8.022a.662.662 0 01-.147.44c-.097.117-.246.176-.445.176-.195 0-.342-.059-.439-.176a.662.662 0 01-.147-.44c0-.175.049-.324.147-.445.097-.12.244-.181.439-.181s.342.062.44.187a.664.664 0 01.152.44zm3.146 5.122l-.55.632V44h-1.037v-9h1.037v5.385l1.974-2.725h1.242l-2.015 2.649L211.078 44h-1.207l-1.723-2.9zm3.604-.563c0-.922.223-1.65.668-2.185.449-.54 1.041-.809 1.775-.809.735 0 1.325.262 1.77.785.449.524.68 1.236.691 2.139v.668c0 .918-.222 1.644-.668 2.18-.445.535-1.039.802-1.781.802-.734 0-1.324-.26-1.769-.78-.442-.519-.67-1.222-.686-2.109v-.69zm1.037.598c0 .652.127 1.166.381 1.54.258.372.603.557 1.037.557.914 0 1.385-.66 1.412-1.98v-.715c0-.648-.129-1.16-.387-1.535-.257-.379-.603-.568-1.037-.568-.425 0-.767.189-1.025.568-.254.375-.381.885-.381 1.53v.603zm10.225 2.982c-.789 0-1.395-.234-1.817-.703-.422-.473-.636-1.164-.644-2.074v-.768c0-.945.205-1.685.615-2.22.414-.54.99-.809 1.728-.809.743 0 1.297.236 1.665.709.367.473.554 1.209.562 2.209v.68h-3.539v.146c0 .68.127 1.174.381 1.483.258.308.627.462 1.107.462.305 0 .573-.056.803-.17.234-.117.453-.3.656-.55l.539.656c-.449.633-1.134.95-2.056.95zm-.118-5.683c-.429 0-.748.148-.955.445-.207.293-.324.75-.351 1.371h2.496v-.14c-.027-.602-.137-1.032-.328-1.29-.188-.258-.475-.386-.862-.386zM227.49 44h-1.037v-6.34h1.037V44zm.082-8.022a.667.667 0 01-.146.44c-.098.117-.246.176-.446.176-.195 0-.341-.059-.439-.176a.661.661 0 01-.146-.44c0-.175.048-.324.146-.445.098-.12.244-.181.439-.181.196 0 .342.062.44.187a.664.664 0 01.152.44zm2.532 1.682l.029.686c.402-.535.916-.803 1.541-.803 1.121 0 1.689.748 1.705 2.244V44h-1.031v-4.166c0-.496-.084-.848-.252-1.055-.164-.21-.412-.316-.744-.316-.258 0-.491.086-.698.258a1.875 1.875 0 00-.492.674V44h-1.037v-6.34h.979zm5.794 5.455h3.059V44h-4.242v-.797l2.906-4.646h-2.883v-.897h4.102v.768l-2.942 4.687zm7.547.328c-.343.45-.845.674-1.506.674-.574 0-1.007-.197-1.3-.592-.293-.398-.442-.976-.446-1.734v-4.13h1.032v4.054c0 .988.296 1.482.89 1.482.629 0 1.063-.281 1.301-.844V37.66h1.037V44h-.984l-.024-.557zm2.362-2.9c0-.988.179-1.734.539-2.238.359-.508.884-.762 1.576-.762.644 0 1.135.275 1.471.826l.052-.709h.938v6.399c0 .785-.201 1.386-.604 1.804-.402.422-.963.633-1.681.633-.313 0-.664-.078-1.055-.234-.387-.153-.678-.342-.873-.569l.422-.715c.429.422.904.633 1.424.633.863 0 1.306-.47 1.33-1.412v-.826c-.336.496-.813.744-1.43.744-.656 0-1.168-.246-1.535-.738-.367-.496-.559-1.207-.574-2.133v-.703zm1.037.592c0 .71.103 1.234.31 1.57.211.332.555.498 1.032.498.515 0 .902-.264 1.16-.79v-3.17c-.27-.52-.653-.78-1.149-.78-.476 0-.82.168-1.031.504-.211.332-.318.843-.322 1.535v.633zm7.353 2.982c-.789 0-1.394-.234-1.816-.703-.422-.473-.637-1.164-.645-2.074v-.768c0-.945.205-1.685.616-2.22.414-.54.99-.809 1.728-.809.742 0 1.297.236 1.664.709s.555 1.209.563 2.209v.68h-3.539v.146c0 .68.127 1.174.38 1.483.258.308.627.462 1.108.462a1.8 1.8 0 00.803-.17c.234-.117.453-.3.656-.55l.539.656c-.449.633-1.135.95-2.057.95zm-.117-5.683c-.43 0-.748.148-.955.445-.207.293-.324.75-.352 1.371h2.497v-.14c-.028-.602-.137-1.032-.329-1.29-.187-.258-.474-.386-.861-.386zm4.512-.123c.394-.512.898-.768 1.512-.768 1.121 0 1.689.748 1.705 2.244V44h-1.032v-4.166c0-.496-.084-.848-.252-1.055-.164-.21-.412-.316-.744-.316-.258 0-.49.086-.697.258a1.875 1.875 0 00-.492.674V44h-1.037v-9h1.037v3.31zm7.031 5.806c-.789 0-1.394-.234-1.816-.703-.422-.473-.637-1.164-.645-2.074v-.768c0-.945.205-1.685.615-2.22.414-.54.991-.809 1.729-.809.742 0 1.297.236 1.664.709s.555 1.209.562 2.209v.68h-3.539v.146c0 .68.127 1.174.381 1.483.258.308.627.462 1.108.462.304 0 .572-.056.802-.17.235-.117.454-.3.657-.55l.539.656c-.45.633-1.135.95-2.057.95zm-.117-5.683c-.43 0-.748.148-.955.445-.207.293-.324.75-.352 1.371h2.496v-.14c-.027-.602-.136-1.032-.328-1.29-.187-.258-.474-.386-.861-.386zm4.453-.774l.029.686c.403-.535.916-.803 1.541-.803 1.121 0 1.69.748 1.705 2.244V44h-1.031v-4.166c0-.496-.084-.848-.252-1.055-.164-.21-.412-.316-.744-.316-.258 0-.49.086-.697.258a1.875 1.875 0 00-.492.674V44h-1.038v-6.34h.979zm4.846 8.04l-.616-.423c.368-.511.559-1.039.575-1.582v-.978h1.06v.85c0 .394-.097.788-.293 1.183-.191.395-.433.71-.726.95zM17.039 57h-1.072v-8.531h1.072V57zm2.771-5.69c.395-.511.899-.767 1.512-.767 1.121 0 1.69.748 1.705 2.244V57h-1.03v-4.166c0-.496-.085-.848-.253-1.055-.164-.21-.412-.316-.744-.316-.258 0-.49.086-.697.258a1.874 1.874 0 00-.492.674V57h-1.038v-9h1.038v3.31zm7.383.323a2.528 2.528 0 00-.468-.041c-.532 0-.903.29-1.114.873V57h-1.037v-6.34h1.008l.018.645c.277-.508.67-.762 1.177-.762.164 0 .301.027.41.082l.006 1.008zm9.276 4.306l-.188.235c-.539.629-1.328.943-2.367.943-.922 0-1.646-.304-2.174-.914-.523-.613-.79-1.478-.802-2.596v-1.675c0-1.196.238-2.09.714-2.684.48-.598 1.198-.896 2.15-.896.813 0 1.448.226 1.905.68.461.452.715 1.099.762 1.939h-1.072c-.044-.531-.192-.946-.446-1.242-.25-.301-.63-.452-1.142-.452-.614 0-1.063.201-1.348.604-.285.398-.434 1.037-.445 1.916v1.74c0 .86.164 1.52.492 1.98.328.458.799.686 1.412.686.578 0 1.017-.14 1.318-.422l.159-.146v-1.969h-1.56v-.914h2.632v3.188zm3.873 1.178c-.79 0-1.395-.234-1.817-.703-.422-.473-.636-1.164-.644-2.074v-.768c0-.945.205-1.685.615-2.22.414-.54.99-.809 1.729-.809.742 0 1.297.236 1.664.709s.554 1.209.562 2.209v.68h-3.539v.146c0 .68.127 1.174.381 1.483.258.308.627.462 1.107.462.305 0 .573-.056.803-.17.234-.117.453-.3.656-.55l.54.656c-.45.633-1.135.95-2.057.95zm-.117-5.683c-.43 0-.748.148-.956.445-.206.293-.324.75-.351 1.371h2.496v-.14c-.027-.602-.137-1.032-.328-1.29-.188-.258-.475-.386-.861-.386zM44.818 57h-1.037v-9h1.037v9zm1.418-3.457c0-.977.182-1.72.545-2.233.367-.511.893-.767 1.576-.767.606 0 1.078.246 1.418.738V48h1.038v9h-.95l-.053-.68c-.34.532-.826.797-1.458.797-.657 0-1.172-.254-1.547-.761-.371-.512-.56-1.233-.569-2.163v-.65zm1.037.592c0 .71.106 1.234.317 1.57.21.332.554.498 1.031.498.516 0 .9-.26 1.154-.78v-3.198c-.265-.508-.648-.762-1.148-.762-.477 0-.82.168-1.031.504-.211.332-.319.843-.323 1.535v.633zm8.848 1.98h3.059V57h-4.242v-.797l2.906-4.646H54.96v-.897h4.102v.768l-2.942 4.687zm7.547.328c-.344.45-.846.674-1.506.674-.574 0-1.008-.197-1.3-.592-.294-.398-.442-.976-.446-1.734v-4.13h1.031v4.054c0 .988.297 1.482.89 1.482.63 0 1.063-.281 1.302-.844V50.66h1.037V57h-.985l-.023-.557zm7.12-1.02l1.2-4.763h1.055L71.163 57h-.774l-1.905-6.34h1.055l1.248 4.764zm5.6 1.694c-.788 0-1.394-.234-1.816-.703-.422-.473-.636-1.164-.644-2.074v-.768c0-.945.205-1.685.615-2.22.414-.54.99-.809 1.728-.809.743 0 1.297.236 1.665.709.367.473.554 1.209.562 2.209v.68h-3.539v.146c0 .68.127 1.174.38 1.483.259.308.628.462 1.108.462.305 0 .572-.056.803-.17.234-.117.453-.3.656-.55l.54.656c-.45.633-1.135.95-2.057.95zm-.117-5.683c-.43 0-.748.148-.955.445-.207.293-.324.75-.351 1.371h2.496v-.14c-.027-.602-.137-1.032-.328-1.29-.188-.258-.475-.386-.861-.386zm6.094.199a2.526 2.526 0 00-.468-.041c-.532 0-.903.29-1.114.873V57h-1.037v-6.34h1.008l.017.645c.278-.508.67-.762 1.178-.762.164 0 .301.027.41.082l.006 1.008zM84.522 57h-1.038v-9h1.038v9zm2.753 0h-1.037v-6.34h1.037V57zm.082-8.022a.663.663 0 01-.146.44c-.098.117-.246.176-.445.176-.196 0-.342-.059-.44-.176a.663.663 0 01-.146-.44c0-.175.048-.324.146-.445.098-.12.244-.181.44-.181.195 0 .341.062.44.187a.661.661 0 01.151.44zm3.82 8.14c-.788 0-1.394-.235-1.816-.704-.422-.473-.636-1.164-.644-2.074v-.768c0-.945.205-1.685.615-2.22.414-.54.99-.809 1.729-.809.742 0 1.296.236 1.664.709.367.473.554 1.209.562 2.209v.68h-3.539v.146c0 .68.127 1.174.38 1.483.259.308.628.462 1.108.462.305 0 .573-.056.803-.17.234-.117.453-.3.656-.55l.54.656c-.45.633-1.135.95-2.057.95zm-.117-5.684c-.43 0-.748.148-.954.445-.208.293-.325.75-.352 1.371h2.496v-.14c-.027-.602-.137-1.032-.328-1.29-.188-.258-.475-.386-.861-.386zm6.094.199a2.527 2.527 0 00-.468-.041c-.532 0-.903.29-1.114.873V57h-1.037v-6.34h1.008l.017.645c.278-.508.67-.762 1.178-.762.164 0 .301.027.41.082l.006 1.008zm3.305 5.484c-.79 0-1.395-.234-1.816-.703-.422-.473-.637-1.164-.645-2.074v-.768c0-.945.205-1.685.615-2.22.414-.54.99-.809 1.729-.809.742 0 1.297.236 1.664.709s.555 1.209.562 2.209v.68h-3.539v.146c0 .68.127 1.174.381 1.483.258.308.627.462 1.108.462.304 0 .572-.056.802-.17.235-.117.453-.3.657-.55l.539.656c-.45.633-1.135.95-2.057.95zm-.117-5.683c-.43 0-.748.148-.955.445-.207.293-.325.75-.352 1.371h2.496v-.14c-.027-.602-.136-1.032-.328-1.29-.187-.258-.474-.386-.861-.386zm4.453-.774l.029.686c.403-.535.916-.803 1.541-.803 1.121 0 1.69.748 1.705 2.244V57h-1.031v-4.166c0-.496-.084-.848-.252-1.055-.164-.21-.412-.316-.744-.316-.258 0-.49.086-.697.258a1.875 1.875 0 00-.492.674V57h-1.038v-6.34h.979zm4.904 5.772c0-.188.055-.344.164-.47.114-.124.282-.187.504-.187.223 0 .391.063.504.188a.66.66 0 01.176.469c0 .18-.059.33-.176.45-.113.122-.281.183-.504.183-.222 0-.39-.061-.504-.182a.65.65 0 01-.164-.451z" fill="#000"/></svg>