<svg width="250" height="91" viewBox="0 0 250 91" fill="none" xmlns="http://www.w3.org/2000/svg"><path d="M11.852 2.512H1.1V22h10.752v-2.604h-7.56v-5.964h6.72v-2.604h-6.72V5.116h7.56V2.512zM15.784 22h3.192V6.572h-3.192V22zm1.624-17.472c1.12 0 2.016-.896 2.016-2.044 0-1.148-.896-2.044-2.016-2.044a2.02 2.02 0 00-2.044 2.044 2.02 2.02 0 002.044 2.044zM34.114 22h3.164v-9.1c0-4.312-2.716-6.58-6.328-6.58-1.848 0-3.556.756-4.592 2.016V6.572h-3.192V22h3.192v-8.624c0-2.828 1.54-4.284 3.892-4.284 2.324 0 3.864 1.456 3.864 4.284V22zm18.744-4.312c-.168-5.572-8.876-3.836-8.876-6.944 0-1.036.896-1.736 2.604-1.736 1.736 0 2.772.924 2.884 2.268h3.192c-.168-3.08-2.464-4.956-5.964-4.956-3.64 0-5.936 1.988-5.936 4.452 0 5.656 8.96 3.92 8.96 6.944 0 1.064-.98 1.848-2.828 1.848-1.764 0-2.968-1.036-3.08-2.296H40.51c.14 2.8 2.744 4.984 6.44 4.984 3.64 0 5.908-1.96 5.908-4.564zm3.953.028c0 3.136 1.708 4.284 4.452 4.284h2.52v-2.66h-1.96c-1.344 0-1.792-.476-1.792-1.624v-8.54h3.752V6.572h-3.752V2.736h-3.22v3.836h-1.82v2.604h1.82v8.54zM66.725 22h3.192V6.572h-3.192V22zm1.624-17.472c1.12 0 2.016-.896 2.016-2.044 0-1.148-.896-2.044-2.016-2.044a2.02 2.02 0 00-2.044 2.044 2.02 2.02 0 002.044 2.044zm12.255 4.48c2.38 0 4.256 1.512 4.312 3.892h-8.54c.336-2.436 2.072-3.892 4.228-3.892zm7.224 8.4h-3.444c-.588 1.204-1.68 2.156-3.64 2.156-2.352 0-4.172-1.54-4.396-4.088h11.788a9.847 9.847 0 00.112-1.568c0-4.536-3.108-7.588-7.504-7.588-4.564 0-7.7 3.108-7.7 7.952 0 4.844 3.276 7.98 7.7 7.98 3.78 0 6.216-2.156 7.084-4.844zm2.497-3.192c0 4.76 3.22 8.036 7.28 8.036 2.52 0 4.368-1.26 5.348-2.576v2.576c0 3.08-1.848 4.592-4.312 4.592-2.212 0-3.92-1.092-4.396-2.688h-3.164c.392 3.416 3.444 5.46 7.56 5.46 4.816 0 7.532-3.164 7.532-7.364V6.572h-3.22v2.24c-.952-1.316-2.828-2.492-5.348-2.492-4.06 0-7.28 3.136-7.28 7.896zm12.628.056c0 3.332-2.268 5.208-4.676 5.208-2.38 0-4.676-1.932-4.676-5.264 0-3.332 2.296-5.124 4.676-5.124 2.408 0 4.676 1.876 4.676 5.18zM117.639 22h3.192V6.572h-3.192V22zm1.624-17.472c1.12 0 2.016-.896 2.016-2.044 0-1.148-.896-2.044-2.016-2.044a2.02 2.02 0 00-2.044 2.044 2.02 2.02 0 002.044 2.044zM135.97 22h3.164v-9.1c0-4.312-2.716-6.58-6.328-6.58-1.848 0-3.556.756-4.592 2.016V6.572h-3.192V22h3.192v-8.624c0-2.828 1.54-4.284 3.892-4.284 2.324 0 3.864 1.456 3.864 4.284V22zM.092 39.144H5.3V56h3.192V39.144h5.18V36.54H.092v2.604zm23.309 3.864c2.38 0 4.256 1.512 4.312 3.892h-8.54c.336-2.436 2.072-3.892 4.228-3.892zm7.224 8.4H27.18c-.588 1.204-1.68 2.156-3.64 2.156-2.352 0-4.172-1.54-4.396-4.088h11.788a9.847 9.847 0 00.112-1.568c0-4.536-3.108-7.588-7.504-7.588-4.564 0-7.7 3.108-7.7 7.952 0 4.844 3.276 7.98 7.7 7.98 3.78 0 6.216-2.156 7.084-4.844zm2.497-3.136c0 4.844 3.136 7.98 7.56 7.98 3.78 0 6.244-2.1 7.112-5.124H44.35c-.588 1.596-1.764 2.436-3.668 2.436-2.576 0-4.284-1.904-4.284-5.292 0-3.36 1.708-5.264 4.284-5.264 1.904 0 3.136.952 3.668 2.436h3.444c-.868-3.248-3.332-5.124-7.112-5.124-4.424 0-7.56 3.136-7.56 7.952zM50.975 56h3.192v-8.624c0-2.828 1.54-4.284 3.892-4.284 2.324 0 3.864 1.456 3.864 4.284V56h3.164v-9.1c0-4.312-2.688-6.58-6.132-6.58-1.988 0-3.724.756-4.788 2.044V35.28h-3.192V56zm29.132 0h3.164v-9.1c0-4.312-2.716-6.58-6.328-6.58-1.848 0-3.556.756-4.592 2.016v-1.764h-3.192V56h3.192v-8.624c0-2.828 1.54-4.284 3.892-4.284 2.324 0 3.864 1.456 3.864 4.284V56zm21.935-7.728c0-4.844-3.472-7.952-7.868-7.952-4.396 0-7.868 3.108-7.868 7.952 0 4.844 3.332 7.98 7.728 7.98 4.424 0 8.008-3.136 8.008-7.98zm-12.488 0c0-3.5 2.156-5.18 4.564-5.18 2.38 0 4.648 1.68 4.648 5.18s-2.352 5.208-4.732 5.208c-2.408 0-4.48-1.708-4.48-5.208zM105.198 56h3.192V35.28h-3.192V56zm22.082-7.728c0-4.844-3.472-7.952-7.868-7.952-4.396 0-7.868 3.108-7.868 7.952 0 4.844 3.332 7.98 7.728 7.98 4.424 0 8.008-3.136 8.008-7.98zm-12.488 0c0-3.5 2.156-5.18 4.564-5.18 2.38 0 4.648 1.68 4.648 5.18s-2.352 5.208-4.732 5.208c-2.408 0-4.48-1.708-4.48-5.208zm14.58-.056c0 4.76 3.22 8.036 7.28 8.036 2.52 0 4.368-1.26 5.348-2.576v2.576c0 3.08-1.848 4.592-4.312 4.592-2.212 0-3.92-1.092-4.396-2.688h-3.164c.392 3.416 3.444 5.46 7.56 5.46 4.816 0 7.532-3.164 7.532-7.364v-15.68H142v2.24c-.952-1.316-2.828-2.492-5.348-2.492-4.06 0-7.28 3.136-7.28 7.896zm12.628.056c0 3.332-2.268 5.208-4.676 5.208-2.38 0-4.676-1.932-4.676-5.264 0-3.332 2.296-5.124 4.676-5.124 2.408 0 4.676 1.876 4.676 5.18zM149.413 56h3.192V40.572h-3.192V56zm1.624-17.472c1.12 0 2.016-.896 2.016-2.044 0-1.148-.896-2.044-2.016-2.044a2.02 2.02 0 00-2.044 2.044 2.02 2.02 0 002.044 2.044zm12.254 4.48c2.38 0 4.256 1.512 4.312 3.892h-8.54c.336-2.436 2.072-3.892 4.228-3.892zm7.224 8.4h-3.444c-.588 1.204-1.68 2.156-3.64 2.156-2.352 0-4.172-1.54-4.396-4.088h11.788a9.847 9.847 0 00.112-1.568c0-4.536-3.108-7.588-7.504-7.588-4.564 0-7.7 3.108-7.7 7.952 0 4.844 3.276 7.98 7.7 7.98 3.78 0 6.216-2.156 7.084-4.844zM177.073 56h3.36l3.108-11.396L186.649 56h3.36l4.788-15.428h-3.136l-3.192 12.348-3.136-12.348h-3.332l-3.276 12.404-3.22-12.404h-3.248L177.073 56zm26.605-12.992c2.38 0 4.256 1.512 4.312 3.892h-8.54c.336-2.436 2.072-3.892 4.228-3.892zm7.224 8.4h-3.444c-.588 1.204-1.68 2.156-3.64 2.156-2.352 0-4.172-1.54-4.396-4.088h11.788a9.847 9.847 0 00.112-1.568c0-4.536-3.108-7.588-7.504-7.588-4.564 0-7.7 3.108-7.7 7.952 0 4.844 3.276 7.98 7.7 7.98 3.78 0 6.216-2.156 7.084-4.844zm6.753-3.528c0-3.276 1.456-4.256 3.808-4.256h.812V40.32c-2.184 0-3.724.952-4.62 2.492v-2.24h-3.192V56h3.192v-8.12zm8.058 3.836c0 3.136 1.708 4.284 4.452 4.284h2.52v-2.66h-1.96c-1.344 0-1.792-.476-1.792-1.624v-8.54h3.752v-2.604h-3.752v-3.836h-3.22v3.836h-1.82v2.604h1.82v8.54zm16.41-8.708c2.38 0 4.256 1.512 4.312 3.892h-8.54c.336-2.436 2.072-3.892 4.228-3.892zm7.224 8.4h-3.444c-.588 1.204-1.68 2.156-3.64 2.156-2.352 0-4.172-1.54-4.396-4.088h11.788a9.847 9.847 0 00.112-1.568c0-4.536-3.108-7.588-7.504-7.588-4.564 0-7.7 3.108-7.7 7.952 0 4.844 3.276 7.98 7.7 7.98 3.78 0 6.216-2.156 7.084-4.844zM.036 82.216c0 4.76 3.22 8.036 7.224 8.036 2.576 0 4.424-1.232 5.404-2.548V90h3.22V74.572h-3.22v2.24c-.952-1.26-2.744-2.492-5.348-2.492-4.06 0-7.28 3.136-7.28 7.896zm12.628.056c0 3.332-2.268 5.208-4.676 5.208-2.38 0-4.676-1.932-4.676-5.264 0-3.332 2.296-5.124 4.676-5.124 2.408 0 4.676 1.876 4.676 5.18zm10.605-5.404V69.28h-3.192V90h3.192v-2.24c1.008 1.344 2.828 2.492 5.376 2.492 4.06 0 7.252-3.276 7.252-8.036s-3.164-7.896-7.252-7.896c-2.436 0-4.368 1.148-5.376 2.548zm9.38 5.348c0 3.332-2.296 5.264-4.704 5.264-2.38 0-4.676-1.876-4.676-5.208 0-3.304 2.296-5.18 4.676-5.18 2.408 0 4.704 1.792 4.704 5.124zm13.202-7.588h3.108c.196-1.428 1.232-2.772 3.472-2.772 2.184 0 3.332 1.176 3.332 2.94 0 2.184-1.764 3.024-4.648 3.052h-.756v2.632h.728c3.332 0 5.068.924 5.068 3.612 0 1.904-1.176 3.36-3.556 3.36-2.408 0-3.808-1.456-3.948-3.36h-3.08c.196 4.004 3.192 6.02 7.056 6.02 4.256 0 6.552-2.464 6.552-5.712 0-2.828-1.372-4.592-3.5-5.236v-.112c1.596-.532 3.136-2.184 3.136-4.62 0-2.968-2.212-5.32-6.272-5.32-3.724 0-6.468 1.988-6.692 5.516zM73.417 79.5v-6.356h3.528c2.492 0 3.612 1.176 3.612 3.192 0 1.96-1.12 3.164-3.612 3.164h-3.528zm10.416-3.164c0-3.164-2.268-5.796-6.888-5.796h-6.72V90h3.192v-7.896h3.528c5.068 0 6.888-2.996 6.888-5.768zM86.877 90h3.192v-6.636L95.781 90h4.312l-7.112-7.7 7.112-7.728h-4.424l-5.6 6.748V69.28h-3.192V90zm16.008-4.284c0 3.136 1.708 4.284 4.452 4.284h2.52v-2.66h-1.96c-1.344 0-1.792-.476-1.792-1.624v-8.54h3.752v-2.604h-3.752v-3.836h-3.22v3.836h-1.82v2.604h1.82v8.54zm13.218 2.436c0-1.148-.896-2.044-2.016-2.044a2.02 2.02 0 00-2.044 2.044 2.02 2.02 0 002.044 2.044c1.12 0 2.016-.896 2.016-2.044z" fill="#fff"/></svg>