<svg width="83" height="14" viewBox="0 0 83 14" fill="none" xmlns="http://www.w3.org/2000/svg"><path d="M4.052 13.5V.219H.48V13.5h3.572zm15.182 0V.2H15.72v7.429L10.361.2H6.656v13.3h3.515V6.09l5.358 7.41h3.705zM21.837.219V13.5h5.7c3.933 0 7.125-2.869 7.125-6.631C34.662 3.088 31.47.2 27.537.2l-5.7.019zm3.572 3.192h1.995c1.976 0 3.59 1.482 3.59 3.439 0 1.976-1.614 3.458-3.59 3.458h-1.995V3.411zM40.587 13.5V.219h-3.573V13.5h3.572zM49.955.029c-3.876 0-7.011 3.059-7.011 6.84 0 3.762 3.135 6.821 7.01 6.821 2.376 0 4.466-1.14 5.72-2.907l-3.097-1.748a3.176 3.176 0 01-2.603 1.311c-1.938 0-3.287-1.558-3.287-3.477 0-1.938 1.349-3.496 3.287-3.496 1.102 0 2.014.513 2.603 1.311l3.097-1.748C54.42 1.169 52.33.029 49.954.029zm18.654 3.382V.2H57.722v13.3h11v-3.211h-7.428V8.294h6.802v-3.04h-6.802V3.411h7.315zM76.162.01c-3.097.019-5.53 1.368-5.53 4.351 0 2.603 2.167 3.306 5.188 4.028 2.185.551 2.565.627 2.565 1.387 0 .608-.646.874-1.387.874-1.691 0-3.61-.494-5.34-1.463l-1.595 2.66c1.824 1.216 4.066 1.862 6.536 1.862 3.42 0 5.567-1.558 5.567-4.389 0-2.717-2.223-3.477-5.34-4.313-2.07-.513-2.317-.684-2.317-1.102 0-.608.589-.874 1.273-.874 1.31 0 3.097.456 4.617 1.235L81.9 1.511C80.342.561 78.29.01 76.162.01z" fill="#09B45B"/></svg>