<svg width="39" height="14" viewBox="0 0 39 14" fill="none" xmlns="http://www.w3.org/2000/svg"><path d="M26.417 5.445h-2.05C23.805 2.37 21.45.5 17.894.5c-3.999 0-6.584 2.56-6.584 6.514 0 3.955 2.505 6.457 6.584 6.437 3.325 0 5.684-1.757 6.386-4.634h1.389l.424-1.125h-1.629a8.81 8.81 0 00.025-1.125h1.523l.405-1.125v.003zm-5.733 2.25H18.5l-.424 1.125h2.491c-.28 1.685-1.033 2.85-2.593 2.85-2.06 0-2.867-2.095-2.867-4.69 0-2.597.646-4.674 2.727-4.692 1.636 0 2.482 1.309 2.762 3.16h-1.772l-.405 1.124h2.275a14.274 14.274 0 01-.01 1.125v-.002zM0 13.451h3.575v-4.71h6.08v-2.85h-6.08V3.796H10.3V.79H0v12.66zM36.355 8.837c1.596-.66 2.645-1.92 2.645-3.8v-.039c0-1.202-.384-2.17-1.132-2.87-.866-.834-2.242-1.337-4.2-1.337H27.57v12.66h3.574V9.398h1.575l1.939 4.102h4.12l-2.425-4.663h.002zm-.93-3.589c0 .912-.706 1.473-1.918 1.473h-2.364V3.737h2.343c1.212 0 1.94.504 1.94 1.473v.038z" fill="#fff"/></svg>