<svg width="110" height="17" viewBox="0 0 110 17" fill="none" xmlns="http://www.w3.org/2000/svg"><path d="M8.554.98C4.19.96.065 3.833.065 8.9c0 4.343 3.685 7.875 8.226 7.875 2.589 0 4.98-.856 6.822-2.325V7.737H8.554v2.94h2.633v1.47a5.697 5.697 0 01-2.896.767c-2.303 0-3.904-1.799-3.904-4.014 0-2.567 1.952-4.102 4.167-4.102 1.185 0 2.391.416 3.357 1.25l2.698-2.83c-1.711-1.47-3.883-2.215-6.055-2.237zm9.558.242v15.333h8.643c3.993 0 5.265-2.083 5.265-4.19 0-1.6-.724-3.202-2.874-3.86 1.448-.593 2.26-1.733 2.26-3.4 0-2.567-1.865-3.905-5.024-3.905l-8.27.022zm4.124 6.186v-2.83h2.94c1.228 0 1.908.483 1.908 1.426 0 .921-.702 1.404-1.908 1.404h-2.94zm0 5.791V10.15h3.488c1.514 0 1.996.768 1.996 1.535 0 .768-.482 1.514-1.996 1.514h-3.488zM34.393 1.222v15.333h4.124V12.19h2.633c4.562 0 6.734-1.689 6.734-5.44 0-3.751-2.062-5.528-6.778-5.528h-6.713zm4.124 3.554h2.435c1.843 0 2.633.68 2.633 2.127 0 1.47-.812 2.106-2.633 2.106h-2.435V4.776zm14.29 12.152l7.678-16.1-3.422.021-7.678 16.08h3.422zM76.626 1.2H72.48v8.314c0 2.457-1.12 3.488-2.918 3.488-1.777 0-2.895-1.031-2.917-3.488V1.222H62.52v8.292c0 5.023 2.72 7.26 7.041 7.26 4.322 0 7.064-2.237 7.064-7.26V1.2zm9.263-.22c-3.576.023-6.384 1.58-6.384 5.024 0 3.005 2.501 3.817 5.989 4.65 2.523.637 2.961.724 2.961 1.602 0 .702-.745 1.009-1.601 1.009-1.952 0-4.168-.57-6.164-1.69l-1.843 3.072c2.106 1.404 4.695 2.15 7.546 2.15 3.949 0 6.428-1.8 6.428-5.068 0-3.136-2.567-4.014-6.164-4.98-2.391-.591-2.677-.789-2.677-1.271 0-.702.68-1.01 1.47-1.01 1.514 0 3.576.527 5.33 1.426l1.734-3.18C90.714 1.617 88.346.98 85.889.98zm9.3.242v15.333h6.581c4.541 0 8.226-3.312 8.226-7.655 0-4.366-3.685-7.7-8.226-7.7l-6.58.022zm4.125 3.685h2.303c2.281 0 4.146 1.711 4.146 3.97 0 2.282-1.865 3.993-4.146 3.993h-2.303V4.907z" fill="#09B45B"/></svg>