<svg width="251" height="65" viewBox="0 0 251 65" fill="none" xmlns="http://www.w3.org/2000/svg"><path d="M1.048 23h15.008v-3.264H4.728V13.24h9.024v-3.168H4.728V3.864h10.944V.6H1.048V23zm15.983 0h3.808l4.32-5.952L29.447 23h4.032l-6.176-8.384 5.824-8H29.32l-4 5.536-3.904-5.536h-4.032l5.792 8L17.031 23zM43.933 6.424c-2.56 0-4.256 1.184-5.344 2.624l-.416-2.432h-3.008V29.4h3.456v-8.704c1.024 1.472 2.784 2.496 5.312 2.496 4.48 0 7.744-3.328 7.744-8.384 0-5.248-3.264-8.384-7.744-8.384zm-.576 13.856c-2.88 0-4.768-2.272-4.768-5.536 0-3.168 1.888-5.376 4.768-5.376s4.8 2.208 4.8 5.44c0 3.2-1.92 5.472-4.8 5.472zm18.865 2.912c4.064 0 6.816-2.464 7.392-5.696h-3.456c-.48 1.824-2.016 2.88-4.128 2.88-2.72 0-4.48-1.824-4.576-4.608v-.224h12.352c.064-.448.096-.896.096-1.312-.096-4.8-3.264-7.808-8-7.808-4.832 0-8.064 3.36-8.064 8.416 0 5.024 3.232 8.352 8.384 8.352zm-4.64-10.176c.256-2.336 2.144-3.808 4.352-3.808 2.4 0 4.096 1.376 4.384 3.808h-8.736zm23.402-6.4c-2.688 0-4 1.088-4.832 2.464l-.384-2.464h-3.072V23h3.456v-8.224c0-2.528.992-4.928 4.064-4.928h1.536V6.616h-.768zm4.66-2.304c1.183 0 2.111-.864 2.111-2.08 0-1.216-.927-2.08-2.111-2.08-1.184 0-2.113.864-2.113 2.08 0 1.216.928 2.08 2.112 2.08zM83.883 23h3.456V6.616h-3.457V23zm14.62.192c4.063 0 6.815-2.464 7.391-5.696h-3.456c-.48 1.824-2.016 2.88-4.128 2.88-2.72 0-4.48-1.824-4.576-4.608v-.224h12.352c.064-.448.096-.896.096-1.312-.096-4.8-3.264-7.808-8-7.808-4.832 0-8.064 3.36-8.064 8.416 0 5.024 3.232 8.352 8.384 8.352zm-4.64-10.176c.255-2.336 2.143-3.808 4.351-3.808 2.4 0 4.096 1.376 4.384 3.808h-8.736zm23.753-6.592c-2.656 0-4.224 1.056-5.248 2.336l-.384-2.144h-3.008V23h3.456v-8.256c0-3.328 1.632-5.344 4.384-5.344 2.592 0 3.904 1.664 3.904 4.768V23h3.488v-9.12c0-5.472-2.976-7.456-6.592-7.456zm17.13 16.768c4.192 0 6.976-2.336 7.616-6.048h-3.648c-.416 1.888-1.824 3.104-3.936 3.104-2.784 0-4.608-2.208-4.608-5.408 0-3.232 1.824-5.472 4.608-5.472 2.144 0 3.52 1.184 3.968 3.104h3.616c-.672-3.712-3.296-6.048-7.52-6.048-4.96 0-8.224 3.36-8.224 8.416 0 5.12 3.168 8.352 8.128 8.352zm18.038 0c4.064 0 6.816-2.464 7.392-5.696h-3.456c-.48 1.824-2.016 2.88-4.128 2.88-2.72 0-4.48-1.824-4.577-4.608v-.224h12.353c.064-.448.096-.896.096-1.312-.096-4.8-3.264-7.808-8-7.808-4.832 0-8.064 3.36-8.064 8.416 0 5.024 3.232 8.352 8.384 8.352zm-4.64-10.176c.256-2.336 2.144-3.808 4.352-3.808 2.4 0 4.096 1.376 4.384 3.808h-8.736zm13.794 8c0 1.28.928 2.176 2.208 2.176 1.28 0 2.24-.896 2.24-2.176 0-1.28-.96-2.176-2.24-2.176-1.28 0-2.208.896-2.208 2.176zM.152 50.64c.128 4.48 3.488 7.552 9.056 7.552 4.928 0 8.288-2.784 8.288-6.816.032-4.416-3.584-5.6-7.296-6.272-3.52-.608-5.824-1.088-5.824-3.392 0-2.112 1.76-3.2 4.288-3.2 2.72 0 4.512 1.536 4.8 3.808h3.68c-.16-4.128-3.36-6.912-8.48-6.912-4.768 0-7.968 2.656-7.968 6.56 0 4.448 3.52 5.632 7.232 6.272 3.552.64 5.888 1.152 5.888 3.52 0 2.144-1.92 3.328-4.576 3.328-3.136 0-5.184-1.76-5.376-4.384L.152 50.64zm29-9.216c-2.56 0-4.257 1.184-5.345 2.624l-.415-2.432h-3.008V64.4h3.456v-8.704c1.023 1.472 2.784 2.496 5.311 2.496 4.48 0 7.744-3.328 7.744-8.384 0-5.248-3.264-8.384-7.744-8.384zm-.576 13.856c-2.88 0-4.768-2.272-4.768-5.536 0-3.168 1.887-5.376 4.768-5.376 2.88 0 4.8 2.208 4.8 5.44 0 3.2-1.92 5.472-4.8 5.472zm18.865 2.912c4.064 0 6.816-2.464 7.392-5.696h-3.456c-.48 1.824-2.016 2.88-4.128 2.88-2.72 0-4.48-1.824-4.576-4.608v-.224h12.352c.064-.448.096-.896.096-1.312-.096-4.8-3.264-7.808-8-7.808-4.832 0-8.064 3.36-8.064 8.416 0 5.024 3.232 8.352 8.384 8.352zM42.8 48.016c.256-2.336 2.144-3.808 4.352-3.808 2.4 0 4.096 1.376 4.384 3.808H42.8zm22.89 10.176c4.064 0 6.816-2.464 7.392-5.696h-3.456c-.48 1.824-2.016 2.88-4.128 2.88-2.72 0-4.48-1.824-4.576-4.608v-.224h12.352c.064-.448.096-.896.096-1.312-.096-4.8-3.264-7.808-8-7.808-4.832 0-8.064 3.36-8.064 8.416 0 5.024 3.232 8.352 8.384 8.352zm-4.64-10.176c.256-2.336 2.144-3.808 4.352-3.808 2.4 0 4.096 1.376 4.384 3.808H61.05zm27.562-4.128c-1.056-1.44-2.816-2.464-5.312-2.464-4.448 0-7.744 3.328-7.744 8.384 0 5.248 3.296 8.384 7.744 8.384 2.592 0 4.288-1.216 5.344-2.656L89.06 58h3.008V35.6h-3.456v8.288zM83.877 55.28c-2.88 0-4.768-2.24-4.768-5.472 0-3.2 1.888-5.44 4.768-5.44s4.768 2.24 4.768 5.504c0 3.168-1.888 5.408-4.768 5.408zm11.249.736c0 1.28.928 2.176 2.208 2.176 1.28 0 2.24-.896 2.24-2.176 0-1.28-.96-2.176-2.24-2.176-1.28 0-2.208.896-2.208 2.176zM111.142 58h15.008v-3.264h-11.328V48.24h9.024v-3.168h-9.024v-6.208h10.944V35.6h-14.624V58zm15.983 0h3.808l4.32-5.952L139.541 58h4.032l-6.176-8.384 5.824-8h-3.808l-4 5.536-3.904-5.536h-4.032l5.792 8L127.125 58zm25.16.192c4.064 0 6.816-2.464 7.392-5.696h-3.456c-.48 1.824-2.016 2.88-4.128 2.88-2.72 0-4.48-1.824-4.577-4.608v-.224h12.353c.064-.448.096-.896.096-1.312-.096-4.8-3.264-7.808-8-7.808-4.832 0-8.064 3.36-8.064 8.416 0 5.024 3.232 8.352 8.384 8.352zm-4.64-10.176c.256-2.336 2.144-3.808 4.352-3.808 2.4 0 4.096 1.376 4.384 3.808h-8.736zm22.634 10.176c4.192 0 6.976-2.336 7.616-6.048h-3.648c-.416 1.888-1.824 3.104-3.936 3.104-2.784 0-4.608-2.208-4.608-5.408 0-3.232 1.824-5.472 4.608-5.472 2.144 0 3.52 1.184 3.968 3.104h3.616c-.673-3.712-3.296-6.048-7.52-6.048-4.96 0-8.224 3.36-8.224 8.416 0 5.12 3.168 8.352 8.128 8.352zm21.493-8.384c0 3.392-1.6 5.376-4.224 5.376-2.528 0-3.808-1.632-3.808-4.832v-8.736h-3.456v9.12c0 5.6 2.976 7.456 6.464 7.456 2.528 0 4.032-1.024 5.056-2.272l.384 2.08h3.04V41.616h-3.456v8.192zm8.139 3.744c0 2.976 1.344 4.448 4.48 4.448h3.2v-3.04h-2.432c-1.312 0-1.76-.48-1.76-1.76v-8.544h4v-3.04h-4V37.04h-3.488v4.576h-2.848v3.04h2.848v8.896zm11.639-14.24c1.184 0 2.112-.864 2.112-2.08 0-1.216-.928-2.08-2.112-2.08-1.184 0-2.112.864-2.112 2.08 0 1.216.928 2.08 2.112 2.08zM209.79 58h3.456V41.616h-3.456V58zm14.588.192c4.992 0 8.352-3.36 8.352-8.384 0-4.992-3.36-8.384-8.352-8.384-4.992 0-8.352 3.392-8.352 8.384 0 5.024 3.36 8.384 8.352 8.384zm0-2.944c-2.912 0-4.8-2.272-4.8-5.44 0-3.168 1.888-5.44 4.8-5.44s4.832 2.272 4.832 5.44c0 3.168-1.92 5.44-4.832 5.44zm19.771-13.824c-2.656 0-4.224 1.056-5.248 2.336l-.385-2.144h-3.007V58h3.456v-8.256c0-3.328 1.632-5.344 4.384-5.344 2.592 0 3.904 1.664 3.904 4.768V58h3.488v-9.12c0-5.472-2.976-7.456-6.592-7.456z" fill="#000"/></svg>