<svg width="150" height="11" viewBox="0 0 150 11" fill="none" xmlns="http://www.w3.org/2000/svg"><path d="M.704 8h5.159V6.878H1.969V4.645h3.102V3.556H1.969V1.422h3.762V.3H.704V8zm5.494 0h1.31l1.484-2.046L10.466 8h1.386L9.73 5.118l2.002-2.75h-1.309L9.047 4.271 7.705 2.368H6.32l1.991 2.75L6.198 8zm9.248-5.698c-.88 0-1.463.407-1.837.902l-.143-.836h-1.034V10.2h1.188V7.208c.352.506.957.858 1.826.858 1.54 0 2.662-1.144 2.662-2.882 0-1.804-1.122-2.882-2.662-2.882zm-.198 4.763c-.99 0-1.64-.781-1.64-1.903 0-1.089.65-1.848 1.64-1.848.99 0 1.65.759 1.65 1.87 0 1.1-.66 1.881-1.65 1.881zm6.485 1.001c1.397 0 2.343-.847 2.54-1.958h-1.187c-.165.627-.693.99-1.42.99-.934 0-1.54-.627-1.572-1.584v-.077h4.246c.022-.154.033-.308.033-.451-.033-1.65-1.122-2.684-2.75-2.684-1.661 0-2.772 1.155-2.772 2.893 0 1.727 1.11 2.871 2.882 2.871zm-1.595-3.498c.088-.803.737-1.309 1.496-1.309.825 0 1.408.473 1.507 1.309h-3.003zm8.044-2.2c-.924 0-1.375.374-1.661.847l-.132-.847h-1.056V8h1.188V5.173c0-.869.341-1.694 1.397-1.694h.528V2.368h-.264zm1.602-.792c.407 0 .726-.297.726-.715s-.32-.715-.726-.715c-.407 0-.726.297-.726.715s.319.715.726.715zM29.179 8h1.188V2.368h-1.188V8zm5.025.066c1.397 0 2.343-.847 2.541-1.958h-1.188c-.165.627-.693.99-1.419.99-.935 0-1.54-.627-1.573-1.584v-.077h4.246c.022-.154.033-.308.033-.451-.033-1.65-1.122-2.684-2.75-2.684-1.66 0-2.772 1.155-2.772 2.893 0 1.727 1.111 2.871 2.882 2.871zM32.61 4.568c.088-.803.737-1.309 1.496-1.309.825 0 1.408.473 1.507 1.309H32.61zm8.166-2.266c-.913 0-1.452.363-1.804.803l-.132-.737h-1.034V8h1.188V5.162c0-1.144.56-1.837 1.507-1.837.89 0 1.342.572 1.342 1.639V8h1.199V4.865c0-1.881-1.023-2.563-2.266-2.563zm5.888 5.764c1.441 0 2.398-.803 2.618-2.079h-1.254c-.143.649-.627 1.067-1.353 1.067-.957 0-1.584-.759-1.584-1.859 0-1.111.627-1.881 1.584-1.881.737 0 1.21.407 1.364 1.067h1.243c-.23-1.276-1.133-2.079-2.585-2.079-1.705 0-2.827 1.155-2.827 2.893 0 1.76 1.09 2.871 2.794 2.871zm6.2 0c1.397 0 2.343-.847 2.541-1.958h-1.188c-.165.627-.693.99-1.419.99-.935 0-1.54-.627-1.573-1.584v-.077h4.246c.022-.154.033-.308.033-.451-.033-1.65-1.122-2.684-2.75-2.684-1.66 0-2.772 1.155-2.772 2.893 0 1.727 1.111 2.871 2.882 2.871zm-1.595-3.498c.088-.803.737-1.309 1.496-1.309.825 0 1.408.473 1.507 1.309h-3.003zm4.742 2.75c0 .44.32.748.76.748s.77-.308.77-.748-.33-.748-.77-.748-.76.308-.76.748zm5.198-1.848c.044 1.54 1.199 2.596 3.112 2.596 1.695 0 2.85-.957 2.85-2.343.01-1.518-1.233-1.925-2.508-2.156-1.21-.209-2.003-.374-2.003-1.166 0-.726.605-1.1 1.474-1.1.936 0 1.552.528 1.65 1.309h1.266C66.993 1.191 65.892.234 64.133.234c-1.638 0-2.738.913-2.738 2.255 0 1.529 1.21 1.936 2.485 2.156 1.221.22 2.024.396 2.024 1.21 0 .737-.66 1.144-1.572 1.144-1.078 0-1.782-.605-1.848-1.507l-1.276-.022zm9.968-3.168c-.88 0-1.463.407-1.837.902l-.143-.836h-1.034V10.2h1.188V7.208c.352.506.957.858 1.826.858 1.54 0 2.662-1.144 2.662-2.882 0-1.804-1.122-2.882-2.662-2.882zm-.198 4.763c-.99 0-1.639-.781-1.639-1.903 0-1.089.65-1.848 1.64-1.848.99 0 1.65.759 1.65 1.87 0 1.1-.66 1.881-1.65 1.881zm6.485 1.001c1.397 0 2.343-.847 2.541-1.958h-1.188c-.165.627-.693.99-1.419.99-.935 0-1.54-.627-1.573-1.584v-.077h4.246c.022-.154.033-.308.033-.451-.033-1.65-1.122-2.684-2.75-2.684-1.661 0-2.772 1.155-2.772 2.893 0 1.727 1.111 2.871 2.882 2.871zm-1.595-3.498c.088-.803.737-1.309 1.496-1.309.825 0 1.408.473 1.507 1.309h-3.003zm7.869 3.498c1.397 0 2.343-.847 2.54-1.958H85.09c-.165.627-.692.99-1.418.99-.936 0-1.54-.627-1.574-1.584v-.077h4.247c.022-.154.032-.308.032-.451-.032-1.65-1.122-2.684-2.75-2.684-1.66 0-2.772 1.155-2.772 2.893 0 1.727 1.112 2.871 2.883 2.871zM82.14 4.568c.088-.803.737-1.309 1.496-1.309.826 0 1.409.473 1.507 1.309h-3.003zm9.475-1.419c-.363-.495-.968-.847-1.826-.847-1.53 0-2.662 1.144-2.662 2.882 0 1.804 1.133 2.882 2.662 2.882.89 0 1.474-.418 1.837-.913L91.77 8h1.034V.3h-1.188v2.849zm-1.628 3.916c-.99 0-1.64-.77-1.64-1.881 0-1.1.65-1.87 1.64-1.87.99 0 1.639.77 1.639 1.892 0 1.089-.65 1.859-1.64 1.859zm3.867.253c0 .44.319.748.759.748s.77-.308.77-.748-.33-.748-.77-.748-.76.308-.76.748zM99.36 8h5.159V6.878h-3.894V4.645h3.102V3.556h-3.102V1.422h3.762V.3H99.36V8zm5.494 0h1.309l1.485-2.046L109.122 8h1.386l-2.123-2.882 2.002-2.75h-1.309l-1.375 1.903-1.342-1.903h-1.386l1.991 2.75L104.854 8zm8.649.066c1.397 0 2.343-.847 2.541-1.958h-1.188c-.165.627-.693.99-1.419.99-.935 0-1.54-.627-1.573-1.584v-.077h4.246c.022-.154.033-.308.033-.451-.033-1.65-1.122-2.684-2.75-2.684-1.661 0-2.772 1.155-2.772 2.893 0 1.727 1.111 2.871 2.882 2.871zm-1.595-3.498c.088-.803.737-1.309 1.496-1.309.825 0 1.408.473 1.507 1.309h-3.003zm7.781 3.498c1.441 0 2.398-.803 2.618-2.079h-1.254c-.143.649-.627 1.067-1.353 1.067-.957 0-1.584-.759-1.584-1.859 0-1.111.627-1.881 1.584-1.881.737 0 1.21.407 1.364 1.067h1.243c-.231-1.276-1.133-2.079-2.585-2.079-1.705 0-2.827 1.155-2.827 2.893 0 1.76 1.089 2.871 2.794 2.871zm7.388-2.882c0 1.166-.55 1.848-1.452 1.848-.869 0-1.309-.561-1.309-1.661V2.368h-1.188v3.135c0 1.925 1.023 2.563 2.222 2.563.869 0 1.386-.352 1.738-.781l.132.715h1.045V2.368h-1.188v2.816zm2.798 1.287c0 1.023.462 1.529 1.54 1.529h1.1V6.955h-.836c-.451 0-.605-.165-.605-.605V3.413h1.375V2.368h-1.375V.795h-1.199v1.573h-.979v1.045h.979v3.058zm4.001-4.895c.407 0 .726-.297.726-.715s-.319-.715-.726-.715-.726.297-.726.715.319.715.726.715zM133.271 8h1.188V2.368h-1.188V8zm5.014.066c1.716 0 2.871-1.155 2.871-2.882 0-1.716-1.155-2.882-2.871-2.882s-2.871 1.166-2.871 2.882c0 1.727 1.155 2.882 2.871 2.882zm0-1.012c-1.001 0-1.65-.781-1.65-1.87s.649-1.87 1.65-1.87 1.661.781 1.661 1.87-.66 1.87-1.661 1.87zm6.796-4.752c-.913 0-1.452.363-1.804.803l-.132-.737h-1.034V8h1.188V5.162c0-1.144.561-1.837 1.507-1.837.891 0 1.342.572 1.342 1.639V8h1.199V4.865c0-1.881-1.023-2.563-2.266-2.563zm3.237 5.016c0 .44.319.748.759.748s.77-.308.77-.748-.33-.748-.77-.748-.759.308-.759.748z" fill="#000"/></svg>