<svg width="191" height="68" viewBox="0 0 191 68" fill="none" xmlns="http://www.w3.org/2000/svg"><path d="M29.351.718c-6.357.039-11.349 2.808-11.349 8.93 0 5.344 4.446 6.787 10.647 8.269 4.485 1.13 5.265 1.287 5.265 2.847 0 1.248-1.326 1.794-2.847 1.794-3.47 0-7.41-1.014-10.959-3.003l-3.276 5.46c3.744 2.496 8.346 3.822 13.416 3.822 7.02 0 11.427-3.198 11.427-9.01 0-5.576-4.563-7.136-10.959-8.852-4.25-1.053-4.758-1.404-4.758-2.262 0-1.248 1.21-1.794 2.613-1.794 2.691 0 6.357.936 9.477 2.535l3.081-5.655C37.931 1.849 33.72.718 29.351.718zm30.42.039c-8.073 0-14.625 6.279-14.625 14.04 0 7.722 6.552 14 14.625 14s14.625-6.278 14.625-14c0-7.761-6.552-14.04-14.625-14.04zm0 6.864c4.095 0 6.98 3.198 6.98 7.176 0 3.939-2.885 7.137-6.98 7.137-4.095 0-6.942-3.198-6.942-7.137 0-3.978 2.847-7.176 6.942-7.176zM92.9.757c-7.956 0-14.391 6.279-14.391 14.04 0 7.722 6.435 14 14.391 14 4.875 0 9.165-2.34 11.739-5.966l-6.357-3.588c-1.209 1.638-3.081 2.69-5.343 2.69-3.978 0-6.747-3.197-6.747-7.136 0-3.978 2.769-7.176 6.747-7.176 2.262 0 4.134 1.053 5.343 2.69l6.357-3.587C102.065 3.097 97.775.757 92.9.757zm23.275 27.65V1.148h-7.332v27.26h7.332zm35.024 0l-10.881-27.3h-9.633l-10.764 27.3h8.775l1.755-4.757h10.218l1.755 4.758h8.775zM132.362 17.8l3.159-8.502 3.159 8.502h-6.318zm29.859 4.017V1.107h-7.332v27.3h20.709v-6.59h-13.377zM23.288 46.387v-6.28H.084v6.28H8v21.02h7.371v-21.02h7.917zm3.689-6.24v27.26h7.332v-8.306h4.368l5.304 8.307h8.463l-6.123-9.282c3.783-1.287 5.382-4.056 5.382-8.502 0-6.67-3.549-9.477-12.441-9.477H26.977zm7.332 6.59h5.304c3.237 0 4.446 1.015 4.446 3.355 0 2.379-1.209 3.354-4.446 3.354h-5.304v-6.708zm51.287 20.67l-10.881-27.3h-9.633l-10.764 27.3h8.775l1.755-4.757h10.218l1.755 4.758h8.775zM66.759 56.8l3.159-8.502 3.159 8.502h-6.318zm22.527-16.653v27.26h11.7c8.073 0 14.625-5.888 14.625-13.61 0-7.761-6.552-13.69-14.625-13.69l-11.7.04zm7.332 6.552h4.095c4.056 0 7.371 3.042 7.371 7.059 0 4.056-3.315 7.098-7.371 7.098h-4.095V46.699zm31.154 20.709V40.147h-7.332v27.26h7.332zm31.163 0v-27.3h-7.215v15.249l-10.998-15.25h-7.605v27.3h7.215v-15.21l10.998 15.21h7.605zm19.694-27.69c-7.761-.04-15.093 5.07-15.093 14.079 0 7.722 6.552 14 14.625 14 4.602 0 8.853-1.52 12.129-4.133V51.73h-11.661v5.226h4.68v2.613c-1.482.858-3.198 1.365-5.148 1.365-4.095 0-6.942-3.198-6.942-7.137 0-4.563 3.471-7.293 7.41-7.293 2.106 0 4.251.74 5.967 2.223l4.797-5.031c-3.042-2.613-6.903-3.94-10.764-3.978z" fill="#09B45B"/></svg>