<svg width="168" height="39" viewBox="0 0 168 39" fill="none" xmlns="http://www.w3.org/2000/svg"><path d="M2.54 14.5l1.3-3.46h5.74l1.32 3.46h2.46L8.14.5H5.4l-5.24 14h2.38zM6.7 2.98l2.24 6.1H4.48l2.22-6.1zM19.913 14.5h2.3v-3.7l2.42-2.72 4.4 6.42h2.78l-5.52-8.12L31.433.5h-2.8l-6.42 7.22V.5h-2.3v14zM38.257 4.14c-1.66 0-2.64.66-3.28 1.46l-.24-1.34h-1.88V14.5h2.16V9.34c0-2.08 1.02-3.34 2.74-3.34 1.62 0 2.44 1.04 2.44 2.98v5.52h2.18V8.8c0-3.42-1.86-4.66-4.12-4.66zm10.846 10.48c3.12 0 5.22-2.1 5.22-5.24 0-3.12-2.1-5.24-5.22-5.24-3.12 0-5.22 2.12-5.22 5.24 0 3.14 2.1 5.24 5.22 5.24zm0-1.84c-1.82 0-3-1.42-3-3.4s1.18-3.4 3-3.4 3.02 1.42 3.02 3.4-1.2 3.4-3.02 3.4zm11.657 1.84c2.62 0 4.36-1.46 4.76-3.78h-2.28c-.26 1.18-1.14 1.94-2.46 1.94-1.74 0-2.88-1.38-2.88-3.38 0-2.02 1.14-3.42 2.88-3.42 1.34 0 2.2.74 2.48 1.94h2.26c-.42-2.32-2.06-3.78-4.7-3.78-3.1 0-5.14 2.1-5.14 5.26 0 3.2 1.98 5.22 5.08 5.22zm6.413-.12h2.16v-2.6l1.84-1.92 3.02 4.52h2.56l-4.1-6.1 3.86-4.14h-2.54l-4.64 4.96V.5h-2.16v14zm14.82.12c3.12 0 5.22-2.1 5.22-5.24 0-3.12-2.1-5.24-5.22-5.24-3.12 0-5.22 2.12-5.22 5.24 0 3.14 2.1 5.24 5.22 5.24zm0-1.84c-1.82 0-3-1.42-3-3.4s1.18-3.4 3-3.4 3.02 1.42 3.02 3.4-1.2 3.4-3.02 3.4zm13.978-3.4c0 2.12-1 3.36-2.64 3.36-1.58 0-2.38-1.02-2.38-3.02V4.26h-2.16v5.7c0 3.5 1.86 4.66 4.04 4.66 1.58 0 2.52-.64 3.16-1.42l.24 1.3h1.9V4.26h-2.16v5.12zm5.087 2.34c0 1.86.84 2.78 2.8 2.78h2v-1.9h-1.52c-.82 0-1.1-.3-1.1-1.1V6.16h2.5v-1.9h-2.5V1.4h-2.18v2.86h-1.78v1.9h1.78v5.56zm24.571-4.22c0-4.1-2.78-7.12-6.8-7.12s-6.8 3.02-6.8 7.12 2.78 7.12 6.8 7.12 6.8-3.02 6.8-7.12zm-11.24 0c0-2.96 1.78-5.1 4.44-5.1s4.44 2.14 4.44 5.1c0 2.96-1.78 5.1-4.44 5.1s-4.44-2.14-4.44-5.1zm24.638-5.1V.5h-2.06c-1.98 0-2.86.94-2.86 2.74v1.02h-3.76V3.4c0-.7.28-1 .98-1h1.52V.5h-1.82c-1.98 0-2.86.94-2.86 2.74v1.02h-1.78v1.9h1.78v8.34h2.18V6.16h3.76v8.34h2.16V6.16h2.76v-1.9h-2.76V3.4c0-.7.3-1 1-1h1.76zm5.565 12.22c2.54 0 4.26-1.54 4.62-3.56h-2.16c-.3 1.14-1.26 1.8-2.58 1.8-1.7 0-2.8-1.14-2.86-2.88v-.14h7.72c.04-.28.06-.56.06-.82-.06-3-2.04-4.88-5-4.88-3.02 0-5.04 2.1-5.04 5.26 0 3.14 2.02 5.22 5.24 5.22zm-2.9-6.36c.16-1.46 1.34-2.38 2.72-2.38 1.5 0 2.56.86 2.74 2.38h-5.46zm14.626-4c-1.68 0-2.5.68-3.02 1.54l-.24-1.54h-1.92V14.5h2.16V9.36c0-1.58.62-3.08 2.54-3.08h.96V4.26h-.48zM157.93 6c0 .8.58 1.36 1.38 1.36.8 0 1.4-.56 1.4-1.36s-.6-1.36-1.4-1.36c-.8 0-1.38.56-1.38 1.36zm0 7.26c0 .8.58 1.36 1.38 1.36.8 0 1.4-.56 1.4-1.36s-.6-1.36-1.4-1.36c-.8 0-1.38.56-1.38 1.36zM7 28.44c-2.2-.38-3.64-.68-3.64-2.12 0-1.32 1.1-2 2.68-2 1.7 0 2.82.96 3 2.38h2.3c-.08-2.26-1.62-3.86-4.14-4.24v-2.12H5.26v2.08c-2.54.26-4.2 1.84-4.2 4.06 0 2.78 2.2 3.52 4.52 3.92 2.22.4 3.68.72 3.68 2.2 0 1.34-1.2 2.08-2.86 2.08-1.96 0-3.24-1.1-3.36-2.74L.72 31.9c.08 2.48 1.74 4.28 4.54 4.64v2.1H7.2v-2.06c2.62-.28 4.36-1.94 4.36-4.22.02-2.76-2.24-3.5-4.56-3.92zm5.745 8.06h9.92v-1.94h-6.78l3.72-3.1c1.7-1.42 2.96-2.72 2.96-4.8 0-2.56-1.76-4.28-4.9-4.28-2.98 0-4.9 1.94-4.9 4.6v.36h2.22v-.24c0-1.74 1.08-2.82 2.68-2.82s2.66.88 2.66 2.48c0 1.34-.94 2.32-2.2 3.38l-5.38 4.58v1.78zm11.277-6.68c0 4.22 2.26 6.8 5.52 6.8s5.52-2.58 5.52-6.8v-.64c0-4.06-2.26-6.8-5.52-6.8s-5.52 2.74-5.52 6.8v.64zm8.8-.08c0 3.14-1.32 4.94-3.28 4.94-1.96 0-3.28-1.8-3.28-4.94v-.48c0-3.12 1.32-4.94 3.28-4.94 1.96 0 3.28 1.82 3.28 4.94v.48zm3.798.08c0 4.22 2.26 6.8 5.52 6.8s5.52-2.58 5.52-6.8v-.64c0-4.06-2.26-6.8-5.52-6.8s-5.52 2.74-5.52 6.8v.64zm8.8-.08c0 3.14-1.32 4.94-3.28 4.94-1.96 0-3.28-1.8-3.28-4.94v-.48c0-3.12 1.32-4.94 3.28-4.94 1.96 0 3.28 1.82 3.28 4.94v.48zm8.535-5.2h4.32V36.5h2.3V24.54h4.32V22.5h-10.94v2.04zm16.62 1.72c-1.68 0-2.5.68-3.02 1.54l-.24-1.54h-1.92V36.5h2.16v-5.14c0-1.58.62-3.08 2.54-3.08h.96v-2.02h-.48zm10.86 8.36c-.44 0-.66-.14-.66-.66v-4.1c0-2.42-1.56-3.72-4.28-3.72-2.58 0-4.3 1.24-4.52 3.24h2.12c.16-.9 1.02-1.5 2.3-1.5 1.42 0 2.24.7 2.24 1.84v.62h-2.58c-2.86 0-4.38 1.18-4.38 3.28 0 1.9 1.56 3 3.8 3 1.66 0 2.7-.72 3.38-1.76 0 1.02.48 1.64 1.88 1.64h1.14v-1.88h-.44zm-2.8-2.32c-.02 1.58-1.06 2.64-2.86 2.64-1.18 0-1.9-.6-1.9-1.46 0-1.04.74-1.54 2.08-1.54h2.68v.36zm12.12-4.62c-.66-.9-1.76-1.54-3.32-1.54-2.78 0-4.84 2.08-4.84 5.24 0 3.28 2.06 5.24 4.84 5.24 1.62 0 2.68-.76 3.34-1.66l.26 1.54h1.88v-14h-2.16v5.18zm-2.96 7.12c-1.8 0-2.98-1.4-2.98-3.42 0-2 1.18-3.4 2.98-3.4s2.98 1.4 2.98 3.44c0 1.98-1.18 3.38-2.98 3.38zm12.09 1.82c2.54 0 4.26-1.54 4.62-3.56h-2.16c-.3 1.14-1.26 1.8-2.58 1.8-1.7 0-2.8-1.14-2.86-2.88v-.14h7.72c.04-.28.06-.56.06-.82-.06-3-2.04-4.88-5-4.88-3.02 0-5.04 2.1-5.04 5.26 0 3.14 2.02 5.22 5.24 5.22zm-2.9-6.36c.16-1.46 1.34-2.38 2.72-2.38 1.5 0 2.56.86 2.74 2.38h-5.46zm14.783 6.24h5.32c3.38 0 5.2-1.52 5.2-4 0-2-1.28-2.98-2.94-3.24 1.46-.4 2.4-1.4 2.4-3.06 0-2.3-1.76-3.7-4.84-3.7h-5.14v14zm5.2-12.08c1.6 0 2.48.76 2.48 2 0 1.26-.9 2.02-2.48 2.02h-2.9v-4.02h2.9zm.14 5.92c1.78 0 2.82.76 2.82 2.14 0 1.3-.98 2.08-2.82 2.08h-3.04v-4.22h3.04zm11.819 6.28c3.12 0 5.22-2.1 5.22-5.24 0-3.12-2.1-5.24-5.22-5.24-3.12 0-5.22 2.12-5.22 5.24 0 3.14 2.1 5.24 5.22 5.24zm0-1.84c-1.82 0-3-1.42-3-3.4s1.18-3.4 3-3.4 3.02 1.42 3.02 3.4-1.2 3.4-3.02 3.4zm12.357-8.64c-1.66 0-2.64.66-3.28 1.46l-.24-1.34h-1.88V36.5h2.16v-5.16c0-2.08 1.02-3.34 2.74-3.34 1.62 0 2.44 1.04 2.44 2.98v5.52h2.18v-5.7c0-3.42-1.86-4.66-4.12-4.66zm13.105 5.24c0 2.12-1 3.36-2.64 3.36-1.58 0-2.38-1.02-2.38-3.02v-5.46h-2.16v5.7c0 3.5 1.86 4.66 4.04 4.66 1.58 0 2.52-.64 3.16-1.42l.24 1.3h1.9V26.26h-2.16v5.12zm3.848 1.74c.06 2.22 1.94 3.5 4.68 3.5 2.48 0 4.34-1.24 4.34-3.2 0-2.28-1.9-2.76-4.24-3.04-1.48-.16-2.46-.28-2.46-1.24 0-.82.84-1.34 2.12-1.34 1.28 0 2.16.66 2.28 1.6h2.12c-.14-2.1-1.92-3.26-4.44-3.26-2.46-.02-4.2 1.24-4.2 3.18 0 2.12 1.84 2.62 4.18 2.9 1.58.2 2.52.28 2.52 1.38 0 .82-.88 1.34-2.22 1.34-1.56 0-2.48-.76-2.56-1.82h-2.12z" fill="#000"/></svg>