<svg width="205" height="10" viewBox="0 0 205 10" fill="none" xmlns="http://www.w3.org/2000/svg"><path d="M.2 1h2.4v6.5h.54V1h2.4V.5H.2V1zm7.665 1.43c-.94 0-1.34.45-1.55 1.01l-.08-1.01h-.44V7.5h.51V4.93c0-1.03.27-2.01 1.46-2.01h.37v-.49h-.27zm5.271 4.6c-.3 0-.45-.1-.45-.49V4.18c0-1.16-.71-1.81-1.98-1.81-1.16 0-1.93.56-2.06 1.48h.51c.13-.62.67-1.03 1.53-1.03.95 0 1.49.5 1.49 1.34v.44h-1.72c-1.3 0-2 .56-2 1.51 0 .9.71 1.45 1.79 1.45 1.03 0 1.64-.47 1.95-1.1v.18c-.02.6.23.86.83.86h.3v-.47h-.19zm-.96-1.58c0 .97-.69 1.67-1.89 1.67-.81 0-1.31-.41-1.31-1.04 0-.67.5-1.04 1.44-1.04h1.76v.41zm5.894-1.88c-.31-.72-.99-1.2-1.94-1.2-1.39 0-2.39 1.06-2.39 2.59 0 1.6 1 2.6 2.39 2.6.95 0 1.61-.51 1.93-1.22l.08 1.16h.44v-7h-.51v3.07zm-1.9 3.53c-1.13 0-1.91-.88-1.91-2.14 0-1.25.78-2.14 1.91-2.14s1.91.89 1.91 2.15c0 1.25-.78 2.13-1.91 2.13zm5.85.46c1.11 0 1.96-.72 2.18-1.74h-.52c-.2.79-.87 1.28-1.7 1.28-1.13 0-1.84-.86-1.86-2.04v-.09h4.14c0-.07.01-.15.01-.21-.05-1.51-.98-2.39-2.34-2.39-1.39 0-2.34 1.06-2.34 2.56 0 1.59.99 2.63 2.43 2.63zm-1.86-3.02c.08-1.03.85-1.72 1.78-1.72.99 0 1.7.61 1.78 1.72h-3.56zm10.893 3.02c1.5 0 2.56-.81 2.86-2.22h-.57c-.3 1.12-1.11 1.72-2.3 1.72-1.62 0-2.64-1.27-2.64-3.06s1.04-3.06 2.66-3.06c1.17 0 1.99.61 2.3 1.71h.57c-.31-1.4-1.37-2.21-2.84-2.21-1.97 0-3.25 1.46-3.25 3.56 0 2.12 1.25 3.56 3.21 3.56zm4.022-.06h.54V4.27h3.02v-.5h-3.02V1h3.62V.5h-4.16v7zm7.148 0c2.22 0 3.52-1.38 3.52-3.5 0-2.13-1.3-3.5-3.52-3.5h-2.04v7h2.04zm-1.5-6.5h1.5c1.91 0 2.97 1.16 2.97 3 0 1.83-1.06 3-2.97 3h-1.5V1zm5.868 4.94c.04 1.05.89 1.62 2.16 1.62 1.09 0 1.97-.55 1.97-1.45 0-1.07-.94-1.28-2.03-1.43-.79-.11-1.49-.2-1.49-.91 0-.58.57-.96 1.43-.96.81 0 1.39.39 1.48 1.05h.52c-.09-.99-.9-1.49-2-1.49-1.13-.01-1.94.57-1.94 1.44 0 1.02.94 1.21 1.98 1.35.85.12 1.54.23 1.54.98 0 .6-.63.98-1.46.98-.97 0-1.6-.45-1.64-1.18h-.52zm9.028 1.56h.55l1.5-4.26L59.1 7.5h.55l1.8-5.07h-.52l-1.56 4.46-1.45-4.46h-.47l-1.53 4.46-1.48-4.46h-.54l1.72 5.07zm6.803-6.14c.2 0 .36-.15.36-.36s-.16-.36-.36-.36c-.2 0-.36.15-.36.36s.16.36.36.36zm-.26 6.14h.51V2.43h-.51V7.5zm2.09-1.18c0 .81.33 1.18 1.19 1.18h.74v-.47h-.7c-.53 0-.72-.2-.72-.72V2.9h1.37v-.47h-1.37V1.01h-.51v1.42h-.96v.47h.96v3.42zm5.045-3.95c-.95 0-1.54.53-1.83 1.26V.5h-.51v7h.51V5c0-1.32.67-2.16 1.75-2.16.97 0 1.57.64 1.57 1.84V7.5h.51V4.66c0-1.6-.85-2.29-2-2.29zm8.174 0c-.95 0-1.54.53-1.83 1.26V.5h-.51v7h.51V5c0-1.32.67-2.16 1.75-2.16.97 0 1.57.64 1.57 1.84V7.5h.51V4.66c0-1.6-.85-2.29-2-2.29zm3.399-1.01c.2 0 .36-.15.36-.36s-.16-.36-.36-.36c-.2 0-.36.15-.36.36s.16.36.36.36zm-.26 6.14h.51V2.43h-.51V7.5zm5.839-3.89c-.31-.75-.99-1.24-1.93-1.24-1.39 0-2.39 1.05-2.39 2.59 0 1.6 1 2.6 2.39 2.6.95 0 1.62-.5 1.94-1.29v.9c0 1.35-.64 1.93-1.86 1.93-.95 0-1.61-.43-1.77-1.2h-.53c.16 1.08 1.03 1.66 2.26 1.66 1.64 0 2.41-.78 2.41-2.37V2.43h-.44l-.08 1.18zm-1.89 3.49c-1.13 0-1.91-.88-1.91-2.14 0-1.26.78-2.14 1.91-2.14s1.91.88 1.91 2.15c0 1.25-.78 2.13-1.91 2.13zm5.95-4.73c-.95 0-1.54.53-1.83 1.26V.5h-.51v7h.51V5c0-1.32.67-2.16 1.75-2.16.97 0 1.57.64 1.57 1.84V7.5h.51V4.66c0-1.6-.85-2.29-2-2.29zm5.3 5.19c1.11 0 1.96-.72 2.18-1.74h-.52c-.2.79-.87 1.28-1.7 1.28-1.13 0-1.84-.86-1.86-2.04v-.09h4.14c0-.07.01-.15.01-.21-.05-1.51-.98-2.39-2.34-2.39-1.39 0-2.34 1.06-2.34 2.56 0 1.59.99 2.63 2.43 2.63zm-1.86-3.02c.08-1.03.85-1.72 1.78-1.72.99 0 1.7.61 1.78 1.72h-3.56zm7.188-2.11c-.94 0-1.34.45-1.55 1.01l-.08-1.01h-.44V7.5h.51V4.93c0-1.03.27-2.01 1.46-2.01h.37v-.49h-.27zm3.721 5.07h.51v-7h-.51v7zm3.949.06c1.11 0 1.96-.72 2.18-1.74h-.52c-.2.79-.87 1.28-1.7 1.28-1.13 0-1.84-.86-1.86-2.04v-.09h4.14c0-.07.01-.15.01-.21-.05-1.51-.98-2.39-2.34-2.39-1.39 0-2.34 1.06-2.34 2.56 0 1.59.99 2.63 2.43 2.63zm-1.86-3.02c.08-1.03.85-1.72 1.78-1.72.99 0 1.7.61 1.78 1.72h-3.56zm6.373 2.96h.61l1.98-5.07h-.53l-1.74 4.48-1.75-4.48h-.55l1.98 5.07zm5.311.06c1.11 0 1.96-.72 2.18-1.74h-.52c-.2.79-.87 1.28-1.7 1.28-1.13 0-1.84-.86-1.86-2.04v-.09h4.14c0-.07.01-.15.01-.21-.05-1.51-.98-2.39-2.34-2.39-1.39 0-2.34 1.06-2.34 2.56 0 1.59.99 2.63 2.43 2.63zm-1.86-3.02c.08-1.03.85-1.72 1.78-1.72.99 0 1.7.61 1.78 1.72h-3.56zm7.188-2.11c-.94 0-1.34.45-1.55 1.01l-.08-1.01h-.44V7.5h.51V4.93c0-1.03.27-2.01 1.46-2.01h.37v-.49h-.27zm5.271 4.6c-.3 0-.45-.1-.45-.49V4.18c0-1.16-.71-1.81-1.98-1.81-1.16 0-1.93.56-2.06 1.48h.51c.13-.62.67-1.03 1.53-1.03.95 0 1.49.5 1.49 1.34v.44h-1.72c-1.3 0-2 .56-2 1.51 0 .9.71 1.45 1.79 1.45 1.03 0 1.64-.47 1.95-1.1v.18c-.02.6.23.86.83.86h.3v-.47h-.19zm-.96-1.58c0 .97-.69 1.67-1.89 1.67-.81 0-1.31-.41-1.31-1.04 0-.67.5-1.04 1.44-1.04h1.76v.41zm5.962-1.84c-.31-.75-.99-1.24-1.93-1.24-1.39 0-2.39 1.05-2.39 2.59 0 1.6 1 2.6 2.39 2.6.95 0 1.62-.5 1.94-1.29v.9c0 1.35-.64 1.93-1.86 1.93-.95 0-1.61-.43-1.77-1.2h-.53c.16 1.08 1.03 1.66 2.26 1.66 1.64 0 2.41-.78 2.41-2.37V2.43h-.44l-.08 1.18zm-1.89 3.49c-1.13 0-1.91-.88-1.91-2.14 0-1.26.78-2.14 1.91-2.14s1.91.88 1.91 2.15c0 1.25-.78 2.13-1.91 2.13zm5.85.46c1.11 0 1.96-.72 2.18-1.74h-.52c-.2.79-.87 1.28-1.7 1.28-1.13 0-1.84-.86-1.86-2.04v-.09h4.14c0-.07.01-.15.01-.21-.05-1.51-.98-2.39-2.34-2.39-1.39 0-2.34 1.06-2.34 2.56 0 1.59.99 2.63 2.43 2.63zm-1.86-3.02c.08-1.03.85-1.72 1.78-1.72.99 0 1.7.61 1.78 1.72h-3.56zm7.43-3.22l-1.25.54.02-1.37h-.37l.02 1.37-1.24-.54-.15.35 1.28.49-.88 1.05.27.25.88-1.09.88 1.09.28-.25-.87-1.04 1.27-.49-.14-.36zm8.349 5.71c-.3 0-.45-.1-.45-.49V4.18c0-1.16-.71-1.81-1.98-1.81-1.16 0-1.93.56-2.06 1.48h.51c.13-.62.67-1.03 1.53-1.03.95 0 1.49.5 1.49 1.34v.44h-1.72c-1.3 0-2 .56-2 1.51 0 .9.71 1.45 1.79 1.45 1.03 0 1.64-.47 1.95-1.1v.18c-.02.6.23.86.83.86h.3v-.47h-.19zm-.96-1.58c0 .97-.69 1.67-1.89 1.67-.81 0-1.31-.41-1.31-1.04 0-.67.5-1.04 1.44-1.04h1.76v.41zm4.172-3.08c-.93 0-1.53.48-1.82 1.14l-.08-1.08h-.44V7.5h.51V5c0-1.32.67-2.16 1.75-2.16.98 0 1.57.64 1.57 1.84V7.5h.51V4.66c0-1.6-.85-2.29-2-2.29zm7.19 1.2c-.31-.72-.99-1.2-1.94-1.2-1.39 0-2.39 1.06-2.39 2.59 0 1.6 1 2.6 2.39 2.6.95 0 1.61-.51 1.93-1.22l.08 1.16h.44v-7h-.51v3.07zm-1.9 3.53c-1.13 0-1.91-.88-1.91-2.14 0-1.25.78-2.14 1.91-2.14s1.91.89 1.91 2.15c0 1.25-.78 2.13-1.91 2.13zm7.195-4.67v-.76c0-.5.19-.7.7-.7h.73V.5h-.75c-.85 0-1.19.37-1.19 1.18v.75h-.96v.47h.96v4.6h.51V2.9h2.17v4.6h.51V2.43h-2.68zm2.43-1.79c-.2 0-.36.15-.36.36s.16.36.36.36c.21 0 .36-.15.36-.36s-.15-.36-.36-.36zm.906 6.86h.59l1.68-2.23 1.68 2.23h.62l-1.97-2.59 1.87-2.48h-.58l-1.6 2.1-1.58-2.1h-.61l1.87 2.48-1.97 2.59zm7.292.06c1.11 0 1.96-.72 2.18-1.74h-.52c-.2.79-.87 1.28-1.7 1.28-1.13 0-1.84-.86-1.86-2.04v-.09h4.14c0-.07.01-.15.01-.21-.05-1.51-.98-2.39-2.34-2.39-1.39 0-2.34 1.06-2.34 2.56 0 1.59.99 2.63 2.43 2.63zm-1.86-3.02c.08-1.03.85-1.72 1.78-1.72.99 0 1.7.61 1.78 1.72h-3.56zm9.258-.97c-.31-.72-.99-1.2-1.94-1.2-1.39 0-2.39 1.06-2.39 2.59 0 1.6 1 2.6 2.39 2.6.95 0 1.61-.51 1.93-1.22l.08 1.16h.44v-7h-.51v3.07zm-1.9 3.53c-1.13 0-1.91-.88-1.91-2.14 0-1.25.78-2.14 1.91-2.14s1.91.89 1.91 2.15c0 1.25-.78 2.13-1.91 2.13zm8.375-4.67c-.94 0-1.34.45-1.55 1.01l-.08-1.01h-.44V7.5h.51V4.93c0-1.03.27-2.01 1.46-2.01h.37v-.49h-.27zm1.285-1.07c.2 0 .36-.15.36-.36s-.16-.36-.36-.36c-.2 0-.36.15-.36.36s.16.36.36.36zm-.26 6.14h.51V2.43h-.51V7.5zm1.479-1.56c.04 1.05.89 1.62 2.16 1.62 1.09 0 1.97-.55 1.97-1.45 0-1.07-.94-1.28-2.03-1.43-.79-.11-1.49-.2-1.49-.91 0-.58.57-.96 1.43-.96.81 0 1.39.39 1.48 1.05h.52c-.09-.99-.9-1.49-2-1.49-1.13-.01-1.94.57-1.94 1.44 0 1.02.94 1.21 1.98 1.35.85.12 1.54.23 1.54.98 0 .6-.63.98-1.46.98-.97 0-1.6-.45-1.64-1.18h-.52zm5.103 1.56h.51V6.13l1.19-1.22 1.94 2.59h.62l-2.21-2.96 2.04-2.11h-.63l-2.95 3.04V.5h-.51v7z" fill="#000"/></svg>