<svg width="118" height="35" viewBox="0 0 118 35" fill="none" xmlns="http://www.w3.org/2000/svg"><path d="M2.485 7.948c-.44 0-.817-.154-1.134-.462a1.565 1.565 0 01-.476-1.148c0-.457.158-.84.476-1.148a1.548 1.548 0 011.134-.476c.457 0 .84.159 1.148.476.317.308.476.69.476 1.148 0 .448-.16.83-.476 1.148-.308.308-.691.462-1.148.462zm17.305.728h-4.452L14.484 11h-1.036l3.57-9.66h1.106L21.68 11h-1.036l-.854-2.324zm-.294-.812l-1.932-5.292-1.932 5.292h3.864zm13.837-4.508L30.939 11h-.98l-2.114-6.412L25.73 11h-.994l-2.394-7.644h.994l1.904 6.65 2.142-6.65h.98l2.114 6.664 1.89-6.664h.966zm.888 3.808c0-.784.154-1.47.462-2.058a3.362 3.362 0 011.302-1.372c.56-.327 1.19-.49 1.89-.49.728 0 1.353.168 1.876.504.532.336.915.765 1.148 1.288v-1.68h.98V11h-.98V9.306c-.243.523-.63.957-1.162 1.302-.523.336-1.148.504-1.876.504-.69 0-1.316-.163-1.876-.49a3.459 3.459 0 01-1.302-1.386c-.308-.597-.462-1.288-.462-2.072zm6.678.014c0-.616-.126-1.157-.378-1.624a2.682 2.682 0 00-1.036-1.078 2.769 2.769 0 00-1.428-.378c-.541 0-1.027.121-1.456.364-.43.243-.77.597-1.022 1.064-.243.457-.364 1.003-.364 1.638 0 .625.121 1.176.364 1.652.252.467.593.826 1.022 1.078.43.243.915.364 1.456.364.523 0 .998-.126 1.428-.378a2.682 2.682 0 001.036-1.078c.252-.467.378-1.008.378-1.624zm4.197-2.464c.215-.476.541-.845.98-1.106.448-.261.994-.392 1.638-.392v1.022h-.266c-.71 0-1.279.191-1.708.574-.43.383-.644 1.022-.644 1.918V11h-.98V3.356h.98v1.358zm3.644 2.45c0-.784.159-1.47.476-2.058a3.36 3.36 0 011.302-1.372c.56-.327 1.19-.49 1.89-.49.672 0 1.279.163 1.82.49.542.327.938.751 1.19 1.274V.64h.98V11h-.98V9.292c-.233.532-.616.97-1.148 1.316-.532.336-1.157.504-1.876.504-.7 0-1.33-.163-1.89-.49a3.458 3.458 0 01-1.302-1.386c-.308-.597-.462-1.288-.462-2.072zm6.678.014c0-.616-.126-1.157-.378-1.624a2.683 2.683 0 00-1.036-1.078 2.77 2.77 0 00-1.428-.378c-.541 0-1.026.121-1.456.364-.429.243-.77.597-1.022 1.064-.242.457-.364 1.003-.364 1.638 0 .625.122 1.176.364 1.652.252.467.593.826 1.022 1.078.43.243.915.364 1.456.364a2.77 2.77 0 001.428-.378 2.683 2.683 0 001.036-1.078c.252-.467.378-1.008.378-1.624zM63.382 5.4v.826h-5.446V5.4h5.446zm12.593-2.044L73.581 11h-.98l-2.114-6.412L68.373 11h-.994l-2.394-7.644h.994l1.904 6.65 2.142-6.65h.98l2.114 6.664 1.89-6.664h.966zm1.826-1.442a.687.687 0 01-.504-.21.704.704 0 01-.21-.518c0-.205.07-.373.21-.504.14-.14.308-.21.504-.21s.364.07.504.21c.14.13.21.299.21.504 0 .205-.07.378-.21.518a.687.687 0 01-.504.21zm.49 1.442V11h-.98V3.356h.98zm5.804-.14c.914 0 1.661.285 2.24.854.578.56.868 1.377.868 2.45V11h-.966V6.632c0-.83-.21-1.465-.63-1.904-.411-.439-.976-.658-1.694-.658-.738 0-1.326.233-1.764.7-.439.467-.658 1.153-.658 2.058V11h-.98V3.356h.98v1.302a2.46 2.46 0 011.05-1.064 3.166 3.166 0 011.554-.378zm8.859 0c.915 0 1.661.285 2.24.854.579.56.868 1.377.868 2.45V11h-.966V6.632c0-.83-.21-1.465-.63-1.904-.41-.439-.975-.658-1.694-.658-.737 0-1.325.233-1.764.7-.439.467-.658 1.153-.658 2.058V11h-.98V3.356h.98v1.302a2.46 2.46 0 011.05-1.064 3.166 3.166 0 011.554-.378zm5.765-1.302a.687.687 0 01-.504-.21.704.704 0 01-.21-.518c0-.205.07-.373.21-.504.14-.14.308-.21.504-.21s.364.07.504.21c.14.13.21.299.21.504 0 .205-.07.378-.21.518a.687.687 0 01-.504.21zm.49 1.442V11h-.98V3.356h.98zm5.804-.14c.914 0 1.661.285 2.24.854.578.56.868 1.377.868 2.45V11h-.966V6.632c0-.83-.21-1.465-.63-1.904-.411-.439-.976-.658-1.694-.658-.738 0-1.326.233-1.764.7-.439.467-.658 1.153-.658 2.058V11h-.98V3.356h.98v1.302a2.453 2.453 0 011.05-1.064 3.164 3.164 0 011.554-.378zm8.481.028c.719 0 1.344.168 1.876.504.532.336.915.76 1.148 1.274V3.356h.98v7.84c0 .7-.154 1.32-.462 1.862a3.062 3.062 0 01-1.26 1.246c-.541.299-1.157.448-1.848.448-.98 0-1.797-.233-2.45-.7-.644-.467-1.045-1.101-1.204-1.904h.966c.168.532.485.957.952 1.274.476.317 1.055.476 1.736.476.495 0 .938-.107 1.33-.322.392-.205.7-.513.924-.924.224-.41.336-.896.336-1.456v-1.89c-.243.523-.63.957-1.162 1.302-.523.336-1.143.504-1.862.504-.7 0-1.33-.163-1.89-.49a3.453 3.453 0 01-1.302-1.386c-.308-.597-.462-1.288-.462-2.072s.154-1.47.462-2.058a3.357 3.357 0 011.302-1.372c.56-.327 1.19-.49 1.89-.49zm3.024 3.934c0-.616-.126-1.157-.378-1.624a2.68 2.68 0 00-1.036-1.078 2.767 2.767 0 00-1.428-.378c-.541 0-1.027.121-1.456.364-.429.243-.77.597-1.022 1.064-.243.457-.364 1.003-.364 1.638 0 .625.121 1.176.364 1.652.252.467.593.826 1.022 1.078.429.243.915.364 1.456.364.523 0 .999-.126 1.428-.378a2.68 2.68 0 001.036-1.078c.252-.467.378-1.008.378-1.624zM15.086 25.036c.243-.513.625-.938 1.148-1.274.532-.345 1.162-.518 1.89-.518.69 0 1.311.163 1.862.49.56.317.994.775 1.302 1.372.317.588.476 1.274.476 2.058 0 .784-.159 1.475-.476 2.072a3.336 3.336 0 01-1.302 1.386 3.58 3.58 0 01-1.862.49c-.719 0-1.344-.168-1.876-.504-.532-.345-.92-.775-1.162-1.288v5.292h-.966V23.356h.966v1.68zm5.684 2.128c0-.635-.126-1.18-.378-1.638a2.527 2.527 0 00-1.008-1.064 2.906 2.906 0 00-1.456-.364c-.523 0-1.003.126-1.442.378-.43.252-.77.611-1.022 1.078-.252.467-.378 1.008-.378 1.624 0 .616.126 1.157.378 1.624.252.467.593.826 1.022 1.078.439.252.92.378 1.442.378.541 0 1.027-.121 1.456-.364.43-.252.765-.611 1.008-1.078.252-.476.378-1.027.378-1.652zm3.777-6.524V31h-.98V20.64h.98zm1.771 6.524c0-.784.154-1.47.462-2.058a3.36 3.36 0 011.302-1.372 3.68 3.68 0 011.89-.49c.729 0 1.354.168 1.877.504.531.336.914.765 1.147 1.288v-1.68h.98V31h-.98v-1.694c-.242.523-.63.957-1.162 1.302-.522.336-1.148.504-1.875.504-.691 0-1.317-.163-1.877-.49a3.458 3.458 0 01-1.302-1.386c-.308-.597-.462-1.288-.462-2.072zm6.678.014c0-.616-.126-1.157-.378-1.624a2.682 2.682 0 00-1.036-1.078 2.769 2.769 0 00-1.428-.378c-.54 0-1.026.121-1.456.364-.429.243-.77.597-1.021 1.064-.243.457-.364 1.003-.364 1.638 0 .625.12 1.176.364 1.652.252.467.592.826 1.021 1.078.43.243.915.364 1.456.364.523 0 1-.126 1.428-.378a2.682 2.682 0 001.036-1.078c.252-.467.378-1.008.378-1.624zm4.492-2.996v4.746c0 .467.088.789.266.966.177.177.49.266.938.266h.896V31h-1.05c-.69 0-1.204-.159-1.54-.476-.336-.327-.504-.859-.504-1.596v-4.746H35.43v-.826h1.064v-1.918h.994v1.918h2.1v.826h-2.1zm6.726 0h-1.778V31h-.98v-6.818h-1.064v-.826h1.064v-.532c0-.83.21-1.442.63-1.834.43-.392 1.12-.588 2.072-.588v.84c-.635 0-1.083.121-1.344.364-.252.243-.378.649-.378 1.218v.532h1.778v.826zm4.889 6.93c-.719 0-1.368-.159-1.946-.476a3.618 3.618 0 01-1.358-1.372c-.327-.597-.49-1.293-.49-2.086 0-.793.168-1.484.504-2.072a3.465 3.465 0 011.372-1.372 3.889 3.889 0 011.946-.49c.718 0 1.367.163 1.946.49a3.35 3.35 0 011.372 1.372c.336.588.504 1.279.504 2.072 0 .784-.168 1.475-.504 2.072a3.535 3.535 0 01-1.386 1.386 4.06 4.06 0 01-1.96.476zm0-.854c.504 0 .97-.112 1.4-.336.43-.233.774-.579 1.036-1.036.27-.467.406-1.036.406-1.708 0-.672-.13-1.237-.392-1.694-.262-.467-.607-.812-1.036-1.036a2.885 2.885 0 00-1.4-.35c-.504 0-.97.117-1.4.35-.43.224-.775.57-1.036 1.036-.252.457-.378 1.022-.378 1.694 0 .672.126 1.241.378 1.708.261.457.602.803 1.022 1.036.43.224.896.336 1.4.336zm6.616-5.544c.215-.476.541-.845.98-1.106.448-.261.994-.392 1.638-.392v1.022h-.266c-.71 0-1.279.191-1.708.574-.43.383-.644 1.022-.644 1.918V31h-.98v-7.644h.98v1.358zm13.192-1.498c.896 0 1.624.285 2.184.854.57.56.854 1.377.854 2.45V31h-.966v-4.368c0-.83-.2-1.465-.602-1.904-.4-.439-.947-.658-1.638-.658-.718 0-1.292.238-1.722.714-.429.476-.644 1.167-.644 2.072V31h-.966v-4.368c0-.83-.2-1.465-.602-1.904-.4-.439-.952-.658-1.652-.658-.718 0-1.292.238-1.722.714-.429.476-.644 1.167-.644 2.072V31h-.98v-7.644h.98v1.316a2.464 2.464 0 011.036-1.078 3.002 3.002 0 011.498-.378c.663 0 1.242.159 1.736.476.504.317.868.784 1.092 1.4.206-.607.556-1.069 1.05-1.386a3.071 3.071 0 011.708-.49zm7.847 7.896c-.877 0-1.596-.2-2.156-.602-.55-.41-.859-.966-.924-1.666h1.008c.046.43.247.78.602 1.05.364.261.85.392 1.456.392.532 0 .947-.126 1.246-.378.308-.252.462-.565.462-.938a.872.872 0 00-.252-.644 1.705 1.705 0 00-.644-.392 8.314 8.314 0 00-1.036-.322 10.6 10.6 0 01-1.386-.448 2.454 2.454 0 01-.91-.658c-.243-.299-.364-.695-.364-1.19 0-.373.112-.719.336-1.036.224-.317.541-.57.952-.756.41-.187.877-.28 1.4-.28.821 0 1.484.21 1.988.63.504.41.775.98.812 1.708h-.98c-.028-.448-.206-.807-.532-1.078-.317-.28-.756-.42-1.316-.42-.495 0-.896.117-1.204.35-.308.233-.462.523-.462.868 0 .299.088.546.266.742.186.187.415.336.686.448.27.103.635.22 1.092.35.55.15.99.294 1.316.434.326.14.606.345.84.616.233.27.355.63.364 1.078 0 .41-.112.78-.336 1.106a2.31 2.31 0 01-.938.756c-.401.187-.864.28-1.386.28z" fill="#fff"/></svg>