<svg width="100" height="35" viewBox="0 0 100 35" fill="none" xmlns="http://www.w3.org/2000/svg"><path d="M2.485 7.948c-.44 0-.817-.154-1.134-.462a1.565 1.565 0 01-.476-1.148c0-.457.158-.84.476-1.148a1.548 1.548 0 011.134-.476c.457 0 .84.159 1.148.476.317.308.476.69.476 1.148 0 .448-.16.83-.476 1.148-.308.308-.691.462-1.148.462zM15.1 2.012v3.654h3.71v.812H15.1v3.71h4.13V11h-5.11V1.2h5.11v.812H15.1zM25.165 11l-1.974-3.08L21.287 11h-1.036l2.464-3.822-2.436-3.822h1.106l1.946 3.038 1.89-3.038h1.022l-2.436 3.78L26.271 11h-1.106zm1.988-3.822c0-.793.158-1.484.476-2.072a3.334 3.334 0 011.316-1.372c.56-.327 1.199-.49 1.918-.49.942 0 1.717.233 2.324.7.616.467 1.012 1.101 1.19 1.904h-1.05c-.131-.55-.416-.98-.855-1.288-.429-.317-.966-.476-1.61-.476-.513 0-.975.117-1.385.35-.411.233-.738.583-.98 1.05-.234.457-.35 1.022-.35 1.694 0 .672.116 1.241.35 1.708.242.467.569.817.98 1.05.41.233.872.35 1.386.35.643 0 1.18-.154 1.61-.462.438-.317.723-.756.854-1.316h1.05c-.178.784-.575 1.414-1.19 1.89-.616.476-1.391.714-2.324.714-.72 0-1.358-.159-1.918-.476a3.45 3.45 0 01-1.317-1.372c-.317-.597-.476-1.293-.476-2.086zM37.166.64V11h-.98V.64h.98zm8.842 2.716V11h-.98V9.656c-.224.476-.57.84-1.036 1.092-.467.252-.99.378-1.568.378-.915 0-1.662-.28-2.24-.84-.579-.57-.868-1.39-.868-2.464V3.356h.966V7.71c0 .83.205 1.465.616 1.904.42.439.989.658 1.708.658.737 0 1.325-.233 1.764-.7.438-.467.658-1.153.658-2.058V3.356h.98zm4.869 7.756c-.877 0-1.596-.2-2.156-.602-.55-.41-.859-.966-.924-1.666h1.008c.047.43.247.78.602 1.05.364.261.85.392 1.456.392.532 0 .947-.126 1.246-.378.308-.252.462-.565.462-.938a.872.872 0 00-.252-.644 1.706 1.706 0 00-.644-.392 8.313 8.313 0 00-1.036-.322 10.61 10.61 0 01-1.386-.448 2.454 2.454 0 01-.91-.658c-.243-.299-.364-.695-.364-1.19 0-.373.112-.719.336-1.036.224-.317.541-.57.952-.756.41-.187.877-.28 1.4-.28.821 0 1.484.21 1.988.63.504.41.775.98.812 1.708h-.98c-.028-.448-.205-.807-.532-1.078-.317-.28-.756-.42-1.316-.42-.495 0-.896.117-1.204.35-.308.233-.462.523-.462.868 0 .299.089.546.266.742.187.187.415.336.686.448.27.103.635.22 1.092.35.55.15.99.294 1.316.434.327.14.607.345.84.616.233.27.355.63.364 1.078 0 .41-.112.78-.336 1.106a2.31 2.31 0 01-.938.756c-.401.187-.863.28-1.386.28zm4.995-9.198a.687.687 0 01-.504-.21.704.704 0 01-.21-.518c0-.205.07-.373.21-.504.14-.14.308-.21.504-.21s.364.07.504.21c.14.13.21.299.21.504 0 .205-.07.378-.21.518a.687.687 0 01-.504.21zm.49 1.442V11h-.98V3.356h.98zm4.935 6.692l2.576-6.692h1.036L61.843 11h-1.106L57.67 3.356h1.05l2.576 6.692zm11.856-3.262c0 .336-.01.593-.028.77h-6.342c.028.579.168 1.073.42 1.484.252.41.584.723.994.938.41.205.859.308 1.344.308.635 0 1.167-.154 1.596-.462.439-.308.728-.723.868-1.246h1.036a3.257 3.257 0 01-1.204 1.834c-.606.467-1.372.7-2.296.7-.718 0-1.362-.159-1.932-.476a3.519 3.519 0 01-1.344-1.372c-.317-.597-.476-1.293-.476-2.086 0-.793.159-1.489.476-2.086a3.309 3.309 0 011.33-1.372c.57-.317 1.218-.476 1.946-.476s1.363.159 1.904.476c.55.317.97.747 1.26 1.288.299.532.448 1.125.448 1.778zm-.994-.028c.01-.57-.107-1.055-.35-1.456a2.27 2.27 0 00-.966-.91 2.963 2.963 0 00-1.344-.308c-.728 0-1.349.233-1.862.7-.513.467-.798 1.125-.854 1.974h5.376zM15.394 24.182v4.746c0 .467.089.789.266.966.177.177.49.266.938.266h.896V31h-1.05c-.69 0-1.204-.159-1.54-.476-.336-.327-.504-.859-.504-1.596v-4.746h-1.064v-.826H14.4v-1.918h.994v1.918h2.1v.826h-2.1zm4.696.532c.215-.476.542-.845.98-1.106.448-.261.994-.392 1.638-.392v1.022h-.266c-.71 0-1.278.191-1.708.574-.43.383-.644 1.022-.644 1.918V31h-.98v-7.644h.98v1.358zm3.645 2.45c0-.784.154-1.47.462-2.058a3.36 3.36 0 011.302-1.372 3.68 3.68 0 011.89-.49c.727 0 1.353.168 1.876.504.532.336.914.765 1.148 1.288v-1.68h.98V31h-.98v-1.694c-.243.523-.63.957-1.163 1.302-.522.336-1.148.504-1.875.504-.691 0-1.317-.163-1.877-.49a3.458 3.458 0 01-1.302-1.386c-.308-.597-.462-1.288-.462-2.072zm6.678.014c0-.616-.127-1.157-.378-1.624a2.682 2.682 0 00-1.037-1.078 2.769 2.769 0 00-1.428-.378c-.54 0-1.026.121-1.456.364-.429.243-.77.597-1.021 1.064-.243.457-.364 1.003-.364 1.638 0 .625.12 1.176.364 1.652.252.467.592.826 1.021 1.078.43.243.915.364 1.456.364.523 0 1-.126 1.428-.378a2.682 2.682 0 001.037-1.078c.252-.467.378-1.008.378-1.624zm2.769-.014c0-.784.158-1.47.476-2.058a3.36 3.36 0 011.302-1.372 3.68 3.68 0 011.89-.49c.672 0 1.278.163 1.82.49.541.327.938.751 1.19 1.274V20.64h.98V31h-.98v-1.708c-.234.532-.616.97-1.148 1.316-.532.336-1.158.504-1.876.504-.7 0-1.33-.163-1.89-.49a3.458 3.458 0 01-1.302-1.386c-.308-.597-.462-1.288-.462-2.072zm6.678.014c0-.616-.126-1.157-.378-1.624a2.683 2.683 0 00-1.036-1.078 2.77 2.77 0 00-1.428-.378c-.542 0-1.027.121-1.456.364-.43.243-.77.597-1.022 1.064-.243.457-.364 1.003-.364 1.638 0 .625.121 1.176.364 1.652.252.467.592.826 1.022 1.078.43.243.914.364 1.456.364a2.77 2.77 0 001.428-.378 2.683 2.683 0 001.036-1.078c.252-.467.378-1.008.378-1.624zm3.707-5.264a.687.687 0 01-.504-.21.704.704 0 01-.21-.518c0-.205.07-.373.21-.504.14-.14.308-.21.504-.21s.364.07.504.21c.14.13.21.299.21.504 0 .205-.07.378-.21.518a.687.687 0 01-.504.21zm.49 1.442V31h-.98v-7.644h.98zm5.803-.14c.915 0 1.662.285 2.24.854.579.56.868 1.377.868 2.45V31h-.966v-4.368c0-.83-.21-1.465-.63-1.904-.41-.439-.975-.658-1.694-.658-.737 0-1.325.233-1.764.7-.438.467-.658 1.153-.658 2.058V31h-.98v-7.644h.98v1.302a2.46 2.46 0 011.05-1.064 3.166 3.166 0 011.554-.378zm8.482.028c.718 0 1.344.168 1.876.504.532.336.914.76 1.148 1.274v-1.666h.98v7.84c0 .7-.154 1.32-.462 1.862a3.057 3.057 0 01-1.26 1.246c-.542.299-1.158.448-1.848.448-.98 0-1.797-.233-2.45-.7-.644-.467-1.046-1.101-1.204-1.904h.966c.168.532.485.957.952 1.274.476.317 1.054.476 1.736.476.494 0 .938-.107 1.33-.322.392-.205.7-.513.924-.924.224-.41.336-.896.336-1.456v-1.89c-.243.523-.63.957-1.162 1.302-.523.336-1.144.504-1.862.504-.7 0-1.33-.163-1.89-.49a3.46 3.46 0 01-1.302-1.386c-.308-.597-.462-1.288-.462-2.072s.154-1.47.462-2.058a3.362 3.362 0 011.302-1.372 3.68 3.68 0 011.89-.49zm3.024 3.934c0-.616-.126-1.157-.378-1.624a2.682 2.682 0 00-1.036-1.078 2.769 2.769 0 00-1.428-.378c-.542 0-1.027.121-1.456.364-.43.243-.77.597-1.022 1.064-.243.457-.364 1.003-.364 1.638 0 .625.121 1.176.364 1.652.252.467.592.826 1.022 1.078.429.243.914.364 1.456.364.522 0 .998-.126 1.428-.378a2.682 2.682 0 001.036-1.078c.252-.467.378-1.008.378-1.624zm8.333-2.996v4.746c0 .467.088.789.266.966.177.177.49.266.938.266h.896V31h-1.05c-.691 0-1.204-.159-1.54-.476-.336-.327-.504-.859-.504-1.596v-4.746H67.64v-.826h1.064v-1.918h.994v1.918h2.1v.826h-2.1zm7.062 6.93c-.719 0-1.367-.159-1.946-.476a3.618 3.618 0 01-1.358-1.372c-.327-.597-.49-1.293-.49-2.086 0-.793.168-1.484.504-2.072a3.465 3.465 0 011.372-1.372 3.889 3.889 0 011.946-.49c.719 0 1.367.163 1.946.49a3.35 3.35 0 011.372 1.372c.336.588.504 1.279.504 2.072 0 .784-.168 1.475-.504 2.072a3.535 3.535 0 01-1.386 1.386 4.06 4.06 0 01-1.96.476zm0-.854c.504 0 .97-.112 1.4-.336.43-.233.775-.579 1.036-1.036.27-.467.406-1.036.406-1.708 0-.672-.13-1.237-.392-1.694-.261-.467-.607-.812-1.036-1.036a2.885 2.885 0 00-1.4-.35c-.504 0-.97.117-1.4.35-.43.224-.775.57-1.036 1.036-.252.457-.378 1.022-.378 1.694 0 .672.126 1.241.378 1.708.261.457.602.803 1.022 1.036.43.224.896.336 1.4.336zm8.982.854c-.718 0-1.367-.159-1.946-.476a3.618 3.618 0 01-1.358-1.372c-.326-.597-.49-1.293-.49-2.086 0-.793.168-1.484.504-2.072a3.465 3.465 0 011.372-1.372 3.889 3.889 0 011.946-.49c.719 0 1.368.163 1.946.49a3.35 3.35 0 011.372 1.372c.336.588.504 1.279.504 2.072 0 .784-.168 1.475-.504 2.072a3.535 3.535 0 01-1.386 1.386 4.06 4.06 0 01-1.96.476zm0-.854c.504 0 .971-.112 1.4-.336.43-.233.775-.579 1.036-1.036.271-.467.406-1.036.406-1.708 0-.672-.13-1.237-.392-1.694-.261-.467-.606-.812-1.036-1.036a2.885 2.885 0 00-1.4-.35c-.504 0-.97.117-1.4.35-.429.224-.774.57-1.036 1.036-.252.457-.378 1.022-.378 1.694 0 .672.126 1.241.378 1.708.262.457.602.803 1.022 1.036.43.224.896.336 1.4.336zm6.617-9.618V31h-.98V20.64h.98zm4.851 10.472c-.877 0-1.596-.2-2.156-.602-.55-.41-.859-.966-.924-1.666h1.008c.047.43.247.78.602 1.05.364.261.85.392 1.456.392.532 0 .947-.126 1.246-.378.308-.252.462-.565.462-.938a.872.872 0 00-.252-.644 1.705 1.705 0 00-.644-.392 8.308 8.308 0 00-1.036-.322 10.61 10.61 0 01-1.386-.448 2.454 2.454 0 01-.91-.658c-.243-.299-.364-.695-.364-1.19 0-.373.112-.719.336-1.036.224-.317.541-.57.952-.756.41-.187.877-.28 1.4-.28.821 0 1.484.21 1.988.63.504.41.775.98.812 1.708h-.98c-.028-.448-.205-.807-.532-1.078-.317-.28-.756-.42-1.316-.42-.495 0-.896.117-1.204.35-.308.233-.462.523-.462.868 0 .299.089.546.266.742.187.187.415.336.686.448.27.103.635.22 1.092.35.55.15.99.294 1.316.434.327.14.607.345.84.616.233.27.355.63.364 1.078 0 .41-.112.78-.336 1.106a2.31 2.31 0 01-.938.756c-.401.187-.863.28-1.386.28z" fill="#fff"/></svg>