<svg width="129" height="142" viewBox="0 0 129 142" fill="none" xmlns="http://www.w3.org/2000/svg"><path d="M.819 3.358h3.906V16h2.394V3.358h3.885V1.405H.819v1.953zM15.822 9.91c0-2.457 1.093-3.192 2.857-3.192h.609V4.24c-1.639 0-2.794.714-3.466 1.869v-1.68H13.43V16h2.393V9.91zm4.868.252c0 3.57 2.415 6.027 5.418 6.027 1.932 0 3.318-.924 4.053-1.911V16h2.415V4.429h-2.415v1.68c-.714-.945-2.058-1.869-4.01-1.869-3.046 0-5.46 2.352-5.46 5.922zm9.471.042c0 2.499-1.7 3.906-3.507 3.906-1.785 0-3.507-1.449-3.507-3.948 0-2.499 1.722-3.843 3.507-3.843 1.806 0 3.507 1.407 3.507 3.885zm4.761-.042c0 3.57 2.416 6.027 5.46 6.027 1.89 0 3.276-.882 4.012-1.932V16h2.415V.46h-2.415v5.586c-.883-1.092-2.478-1.806-3.99-1.806-3.067 0-5.482 2.352-5.482 5.922zm9.472.042c0 2.499-1.701 3.906-3.508 3.906-1.785 0-3.507-1.449-3.507-3.948 0-2.499 1.723-3.843 3.508-3.843 1.806 0 3.507 1.407 3.507 3.885zm10.43-3.948c1.786 0 3.193 1.134 3.235 2.919h-6.405c.252-1.827 1.554-2.919 3.17-2.919zm5.419 6.3H57.66c-.441.903-1.26 1.617-2.73 1.617-1.764 0-3.13-1.155-3.297-3.066h8.84c.064-.399.085-.777.085-1.176 0-3.402-2.331-5.691-5.628-5.691-3.423 0-5.775 2.331-5.775 5.964 0 3.633 2.457 5.985 5.775 5.985 2.835 0 4.662-1.617 5.313-3.633zM9.639 26.384H1.575V41h8.064v-1.953h-5.67v-4.473h5.04v-1.953h-5.04v-4.284h5.67v-1.953zm2.928 9.282c0 3.717 2.604 5.481 5.67 5.481 3.045 0 5.733-1.764 5.733-5.481v-9.261h-2.394v9.303c0 2.268-1.281 3.339-3.318 3.339-2.016 0-3.297-1.071-3.297-3.339v-9.303h-2.394v9.261zm22.269-4.893c0 1.449-.84 2.478-2.71 2.478h-2.645v-4.893h2.646c1.869 0 2.709.945 2.709 2.415zm-7.75-4.368V41h2.395v-5.838h1.827L34.668 41h2.856l-3.612-6.048c2.457-.609 3.38-2.457 3.38-4.179 0-2.373-1.7-4.368-5.165-4.368h-5.04zm12.975 18.27h2.352l5.712-23.499h-2.373l-5.69 23.499zm11.06-9.009c0 3.717 2.604 5.481 5.67 5.481 3.045 0 5.733-1.764 5.733-5.481v-9.261H60.13v9.303c0 2.268-1.28 3.339-3.318 3.339-2.016 0-3.297-1.071-3.297-3.339v-9.303h-2.394v9.261zm24.37 1.197c0-5.334-7.729-3.276-7.729-6.573 0-1.407 1.071-2.079 2.457-2.037 1.512.042 2.373.945 2.457 1.932h2.646c-.21-2.499-2.184-3.969-4.977-3.969-2.982 0-5.019 1.596-5.019 4.158 0 5.376 7.75 3.087 7.75 6.615 0 1.239-.946 2.142-2.626 2.142-1.659 0-2.499-.966-2.604-2.163h-2.562c0 2.583 2.247 4.179 5.166 4.179 3.255 0 5.04-2.1 5.04-4.284zm7.591-10.458h-4.767V41h4.767c4.683 0 7.75-2.751 7.75-7.245 0-4.515-3.067-7.35-7.75-7.35zM80.71 39.047V28.358h2.373c3.444 0 5.292 2.058 5.292 5.397 0 3.318-1.848 5.292-5.292 5.292H80.71zM3.822 66h2.52l2.331-8.547L11.004 66h2.52l3.591-11.571h-2.352l-2.394 9.261-2.352-9.261H7.518l-2.457 9.303-2.415-9.303H.21L3.822 66zm15.082 0h2.394V54.429h-2.394V66zm1.218-13.104a1.51 1.51 0 001.512-1.533 1.51 1.51 0 00-1.512-1.533c-.86 0-1.533.672-1.533 1.533 0 .861.672 1.533 1.533 1.533zm4.697 9.891C24.82 65.139 26.1 66 28.16 66h1.89v-1.995h-1.47c-1.009 0-1.345-.357-1.345-1.218v-6.405h2.814v-1.953h-2.814v-2.877H24.82v2.877h-1.365v1.953h1.365v6.405zM32.255 66h2.394v-6.468c0-2.121 1.155-3.213 2.919-3.213 1.743 0 2.898 1.092 2.898 3.213V66h2.373v-6.825c0-3.234-2.016-4.935-4.6-4.935-1.49 0-2.792.567-3.59 1.533V50.46h-2.394V66zm19.092 0h2.395V50.46h-2.395V66zm16.563-5.796c0-3.633-2.604-5.964-5.901-5.964-3.297 0-5.901 2.331-5.901 5.964 0 3.633 2.499 5.985 5.796 5.985 3.318 0 6.006-2.352 6.006-5.985zm-9.366 0c0-2.625 1.617-3.885 3.423-3.885 1.785 0 3.486 1.26 3.486 3.885s-1.764 3.906-3.55 3.906c-1.805 0-3.36-1.281-3.36-3.906zM72.524 66h2.52l2.33-8.547L79.705 66h2.52l3.591-11.571h-2.352L81.07 63.69l-2.352-9.261H76.22l-2.457 9.303-2.415-9.303h-2.436L72.523 66zM10.205 87.766c-.126-4.179-6.657-2.877-6.657-5.208 0-.777.672-1.302 1.953-1.302 1.302 0 2.079.693 2.163 1.701h2.394c-.126-2.31-1.848-3.717-4.473-3.717-2.73 0-4.452 1.491-4.452 3.339 0 4.242 6.72 2.94 6.72 5.208 0 .798-.735 1.386-2.121 1.386-1.323 0-2.226-.777-2.31-1.722H.945c.105 2.1 2.058 3.738 4.83 3.738 2.73 0 4.431-1.47 4.431-3.423zm4.98-6.636v-1.701h-2.393v17.073h2.394V89.32a5.231 5.231 0 004.032 1.869c3.045 0 5.439-2.457 5.439-6.027 0-3.57-2.394-5.922-5.44-5.922-1.89 0-3.296.924-4.031 1.89zm7.036 4.032c0 2.499-1.722 3.948-3.528 3.948-1.785 0-3.507-1.407-3.507-3.906 0-2.478 1.722-3.885 3.507-3.885 1.806 0 3.528 1.344 3.528 3.843zm7.197-.252c0-2.457 1.092-3.192 2.856-3.192h.61V79.24c-1.639 0-2.794.714-3.466 1.869v-1.68h-2.394V91h2.394v-6.09zm10.538-3.654c1.785 0 3.192 1.134 3.234 2.919h-6.405c.252-1.827 1.554-2.919 3.17-2.919zm5.418 6.3h-2.583c-.441.903-1.26 1.617-2.73 1.617-1.764 0-3.13-1.155-3.297-3.066h8.84c.064-.399.085-.777.085-1.176 0-3.402-2.331-5.691-5.628-5.691-3.423 0-5.775 2.331-5.775 5.964 0 3.633 2.457 5.985 5.775 5.985 2.835 0 4.662-1.617 5.313-3.633zm1.873-2.394c0 3.57 2.415 6.027 5.418 6.027 1.932 0 3.318-.924 4.053-1.911V91h2.415V79.429h-2.415v1.68c-.714-.945-2.058-1.869-4.011-1.869-3.045 0-5.46 2.352-5.46 5.922zm9.47.042c0 2.499-1.7 3.906-3.506 3.906-1.785 0-3.507-1.449-3.507-3.948 0-2.499 1.722-3.843 3.507-3.843 1.806 0 3.507 1.407 3.507 3.885zm4.762-.042c0 3.57 2.415 6.027 5.46 6.027 1.89 0 3.276-.882 4.011-1.932V91h2.415V75.46h-2.415v5.586c-.882-1.092-2.478-1.806-3.99-1.806-3.066 0-5.48 2.352-5.48 5.922zm9.471.042c0 2.499-1.7 3.906-3.507 3.906-1.785 0-3.507-1.449-3.507-3.948 0-2.499 1.722-3.843 3.507-3.843 1.806 0 3.507 1.407 3.507 3.885zm14.19 2.562c-.126-4.179-6.657-2.877-6.657-5.208 0-.777.672-1.302 1.954-1.302 1.302 0 2.078.693 2.162 1.701h2.395c-.127-2.31-1.849-3.717-4.474-3.717-2.73 0-4.451 1.491-4.451 3.339 0 4.242 6.72 2.94 6.72 5.208 0 .798-.736 1.386-2.122 1.386-1.323 0-2.226-.777-2.31-1.722H75.88c.106 2.1 2.059 3.738 4.83 3.738 2.73 0 4.431-1.47 4.431-3.423zM.777 110.162c0 3.57 2.415 6.027 5.418 6.027 1.932 0 3.318-.924 4.053-1.911V116h2.415v-11.571h-2.415v1.68c-.714-.945-2.058-1.869-4.011-1.869-3.045 0-5.46 2.352-5.46 5.922zm9.471.042c0 2.499-1.701 3.906-3.507 3.906-1.785 0-3.507-1.449-3.507-3.948 0-2.499 1.722-3.843 3.507-3.843 1.806 0 3.507 1.407 3.507 3.885zM24.018 116h2.373v-6.825c0-3.234-2.037-4.935-4.746-4.935-1.386 0-2.667.567-3.444 1.512v-1.323h-2.394V116h2.394v-6.468c0-2.121 1.155-3.213 2.92-3.213 1.742 0 2.897 1.092 2.897 3.213V116zm4.63-5.838c0 3.57 2.414 6.027 5.46 6.027 1.89 0 3.275-.882 4.01-1.932V116h2.415v-15.54h-2.415v5.586c-.882-1.092-2.478-1.806-3.99-1.806-3.066 0-5.48 2.352-5.48 5.922zm9.47.042c0 2.499-1.7 3.906-3.507 3.906-1.785 0-3.507-1.449-3.507-3.948 0-2.499 1.722-3.843 3.507-3.843 1.806 0 3.507 1.407 3.507 3.885zm10.7-2.058c0 4.452 1.176 7.812 5.46 7.812s5.46-3.36 5.46-7.812c0-4.368-1.176-7.728-5.46-7.728s-5.46 3.36-5.46 7.728zm8.568 0c0 3.003-.315 5.628-3.108 5.628s-3.108-2.625-3.108-5.628c0-2.856.315-5.544 3.108-5.544s3.108 2.688 3.108 5.544zm4.507-3.759c0 2.1 1.365 3.297 3.192 3.297 1.827 0 3.192-1.197 3.192-3.297 0-2.079-1.365-3.276-3.192-3.276-1.827 0-3.192 1.197-3.192 3.276zm3.192-1.827c.798 0 1.323.525 1.323 1.827s-.525 1.848-1.323 1.848c-.82 0-1.323-.546-1.323-1.848s.504-1.827 1.323-1.827zM63.972 116h2.352l8.379-14.616H72.35L63.97 116zm6.468-3.024c0 2.1 1.365 3.297 3.192 3.297 1.806 0 3.17-1.197 3.17-3.297s-1.364-3.276-3.17-3.276c-1.827 0-3.192 1.176-3.192 3.276zm3.17-1.827c.799 0 1.324.525 1.324 1.827s-.525 1.827-1.323 1.827c-.798 0-1.323-.525-1.323-1.827s.525-1.827 1.323-1.827zM.778 135.204c0 3.633 2.352 5.985 5.67 5.985 2.835 0 4.683-1.575 5.334-3.843H9.198c-.441 1.197-1.323 1.827-2.751 1.827-1.932 0-3.213-1.428-3.213-3.969 0-2.52 1.281-3.948 3.213-3.948 1.428 0 2.352.714 2.751 1.827h2.583c-.651-2.436-2.499-3.843-5.334-3.843-3.318 0-5.67 2.352-5.67 5.964zm24.415 0c0-3.633-2.604-5.964-5.901-5.964-3.297 0-5.901 2.331-5.901 5.964 0 3.633 2.499 5.985 5.796 5.985 3.318 0 6.006-2.352 6.006-5.985zm-9.366 0c0-2.625 1.617-3.885 3.423-3.885 1.785 0 3.486 1.26 3.486 3.885s-1.764 3.906-3.55 3.906c-1.805 0-3.36-1.281-3.36-3.906zM43.959 141h2.373v-6.825c0-3.234-2.058-4.935-4.767-4.935-1.68 0-3.318.882-4.032 2.289-.798-1.512-2.33-2.289-4.158-2.289-1.386 0-2.646.567-3.423 1.512v-1.323h-2.394V141h2.394v-6.468c0-2.121 1.155-3.213 2.92-3.213 1.742 0 2.897 1.092 2.897 3.213V141h2.373v-6.468c0-2.121 1.155-3.213 2.92-3.213 1.742 0 2.897 1.092 2.897 3.213V141zm21.82 0h2.374v-6.825c0-3.234-2.058-4.935-4.767-4.935-1.68 0-3.318.882-4.032 2.289-.798-1.512-2.331-2.289-4.158-2.289-1.386 0-2.646.567-3.423 1.512v-1.323h-2.394V141h2.394v-6.468c0-2.121 1.155-3.213 2.919-3.213 1.743 0 2.898 1.092 2.898 3.213V141h2.373v-6.468c0-2.121 1.155-3.213 2.919-3.213 1.743 0 2.898 1.092 2.898 3.213V141zm5.42 0h2.394v-11.571h-2.394V141zm1.218-13.104a1.51 1.51 0 001.512-1.533 1.51 1.51 0 00-1.512-1.533c-.861 0-1.533.672-1.533 1.533 0 .861.672 1.533 1.533 1.533zm12.95 9.87c-.126-4.179-6.657-2.877-6.657-5.208 0-.777.672-1.302 1.953-1.302 1.302 0 2.08.693 2.163 1.701h2.394c-.126-2.31-1.848-3.717-4.473-3.717-2.73 0-4.452 1.491-4.452 3.339 0 4.242 6.72 2.94 6.72 5.208 0 .798-.735 1.386-2.12 1.386-1.324 0-2.227-.777-2.31-1.722h-2.479c.105 2.1 2.058 3.738 4.83 3.738 2.73 0 4.431-1.47 4.431-3.423zm11.218 0c-.126-4.179-6.657-2.877-6.657-5.208 0-.777.672-1.302 1.953-1.302 1.302 0 2.079.693 2.163 1.701h2.394c-.126-2.31-1.848-3.717-4.473-3.717-2.73 0-4.452 1.491-4.452 3.339 0 4.242 6.72 2.94 6.72 5.208 0 .798-.735 1.386-2.121 1.386-1.323 0-2.226-.777-2.31-1.722h-2.478c.105 2.1 2.058 3.738 4.83 3.738 2.73 0 4.43-1.47 4.43-3.423zM99.172 141h2.394v-11.571h-2.394V141zm1.218-13.104a1.51 1.51 0 001.512-1.533 1.51 1.51 0 00-1.512-1.533c-.861 0-1.533.672-1.533 1.533 0 .861.672 1.533 1.533 1.533zm15.344 7.308c0-3.633-2.604-5.964-5.901-5.964-3.297 0-5.901 2.331-5.901 5.964 0 3.633 2.499 5.985 5.796 5.985 3.318 0 6.006-2.352 6.006-5.985zm-9.366 0c0-2.625 1.617-3.885 3.423-3.885 1.785 0 3.486 1.26 3.486 3.885s-1.764 3.906-3.549 3.906c-1.806 0-3.36-1.281-3.36-3.906zM126.311 141h2.373v-6.825c0-3.234-2.037-4.935-4.746-4.935-1.386 0-2.667.567-3.444 1.512v-1.323H118.1V141h2.394v-6.468c0-2.121 1.155-3.213 2.919-3.213 1.743 0 2.898 1.092 2.898 3.213V141z" fill="#fff"/></svg>