<svg width="126" height="25" viewBox="0 0 126 25" fill="none" xmlns="http://www.w3.org/2000/svg"><path d="M5.379 1.311v.638H3.245V9h-.77V1.949H.33v-.638h5.049zm1.986 2.75a1.89 1.89 0 01.77-.869c.352-.205.78-.308 1.287-.308v.803h-.21c-.556 0-1.004.15-1.341.451-.337.3-.506.803-.506 1.507V9h-.77V2.994h.77v1.067zm2.863 1.925c0-.616.121-1.155.363-1.617.25-.47.59-.829 1.023-1.078.44-.257.935-.385 1.485-.385.572 0 1.063.132 1.474.396.418.264.719.601.902 1.012v-1.32h.77V9h-.77V7.669c-.19.41-.495.752-.913 1.023-.41.264-.902.396-1.474.396a2.871 2.871 0 01-1.474-.385 2.716 2.716 0 01-1.023-1.089c-.242-.47-.363-1.012-.363-1.628zm5.247.011c0-.484-.099-.91-.297-1.276a2.107 2.107 0 00-.814-.847 2.175 2.175 0 00-1.122-.297c-.425 0-.807.095-1.144.286-.337.19-.605.47-.803.836-.19.36-.286.788-.286 1.287 0 .491.095.924.286 1.298.198.367.466.649.803.847.337.19.719.286 1.144.286.41 0 .785-.099 1.122-.297.345-.198.616-.48.814-.847.198-.367.297-.792.297-1.276zm2.176-.011c0-.616.125-1.155.374-1.617.25-.47.59-.829 1.023-1.078.44-.257.935-.385 1.485-.385.528 0 1.005.128 1.43.385.425.257.737.59.935 1.001V.86h.77V9h-.77V7.658a2.346 2.346 0 01-.902 1.034c-.418.264-.91.396-1.474.396-.55 0-1.045-.128-1.485-.385a2.718 2.718 0 01-1.023-1.089c-.242-.47-.363-1.012-.363-1.628zm5.247.011c0-.484-.099-.91-.297-1.276a2.107 2.107 0 00-.814-.847 2.175 2.175 0 00-1.122-.297c-.425 0-.807.095-1.144.286-.337.19-.605.47-.803.836-.19.36-.286.788-.286 1.287 0 .491.095.924.286 1.298.198.367.466.649.803.847.337.19.719.286 1.144.286.41 0 .785-.099 1.122-.297.345-.198.616-.48.814-.847.198-.367.297-.792.297-1.276zm7.962-.308c0 .264-.007.466-.022.605h-4.983c.022.455.132.843.33 1.166.198.323.458.568.78.737.324.161.676.242 1.057.242.499 0 .917-.121 1.254-.363.345-.242.572-.568.682-.979h.814a2.56 2.56 0 01-.946 1.441c-.477.367-1.078.55-1.804.55-.565 0-1.07-.125-1.518-.374a2.765 2.765 0 01-1.056-1.078c-.25-.47-.374-1.016-.374-1.639s.125-1.17.374-1.639a2.6 2.6 0 011.045-1.078c.447-.25.957-.374 1.529-.374s1.07.125 1.496.374c.433.25.763.587.99 1.012.235.418.352.884.352 1.397zm-.781-.022c.007-.447-.084-.829-.275-1.144a1.784 1.784 0 00-.76-.715 2.328 2.328 0 00-1.055-.242c-.572 0-1.06.183-1.463.55-.403.367-.627.884-.671 1.551h4.224zm13.128-2.673L41.327 9h-.77l-1.662-5.038L37.235 9h-.782l-1.88-6.006h.78l1.496 5.225 1.683-5.225h.77l1.661 5.236 1.485-5.236h.76zm1.435-1.133a.54.54 0 01-.396-.165.553.553 0 01-.165-.407c0-.161.055-.293.165-.396a.54.54 0 01.396-.165.54.54 0 01.396.165c.11.103.165.235.165.396a.553.553 0 01-.165.407.54.54 0 01-.396.165zm.385 1.133V9h-.77V2.994h.77zm2.745.649v3.729c0 .367.07.62.209.759.139.14.385.209.737.209h.704V9h-.825c-.543 0-.946-.125-1.21-.374-.264-.257-.396-.675-.396-1.254V3.643h-.836v-.649h.836V1.487h.78v1.507h1.65v.649h-1.65zm5.78-.759c.454 0 .861.095 1.22.286.367.19.653.484.858.88.213.389.32.865.32 1.43V9h-.76V5.568c0-.653-.164-1.151-.494-1.496-.323-.345-.767-.517-1.331-.517-.58 0-1.042.183-1.387.55-.344.367-.517.906-.517 1.617V9h-.77V.86h.77v3.157c.191-.36.47-.638.837-.836a2.638 2.638 0 011.253-.297zm8.12.759v3.729c0 .367.07.62.209.759.14.14.385.209.737.209h.704V9h-.825c-.543 0-.946-.125-1.21-.374-.264-.257-.396-.675-.396-1.254V3.643h-.836v-.649h.836V1.487h.781v1.507h1.65v.649h-1.65zm5.78-.759c.455 0 .862.095 1.22.286.368.19.654.484.859.88.213.389.319.865.319 1.43V9h-.76V5.568c0-.653-.164-1.151-.494-1.496-.323-.345-.766-.517-1.331-.517-.58 0-1.041.183-1.386.55-.345.367-.517.906-.517 1.617V9h-.77V.86h.77v3.157c.19-.36.47-.638.836-.836a2.638 2.638 0 011.254-.297zm9.535 2.805c0 .264-.007.466-.022.605h-4.983c.022.455.132.843.33 1.166.198.323.458.568.78.737.323.161.675.242 1.057.242.498 0 .916-.121 1.254-.363.344-.242.572-.568.682-.979h.814a2.56 2.56 0 01-.946 1.441c-.477.367-1.078.55-1.804.55-.565 0-1.07-.125-1.518-.374a2.764 2.764 0 01-1.056-1.078c-.25-.47-.374-1.016-.374-1.639s.125-1.17.374-1.639c.25-.47.597-.829 1.045-1.078.447-.25.957-.374 1.529-.374s1.07.125 1.496.374c.433.25.763.587.99 1.012.234.418.352.884.352 1.397zm-.781-.022c.007-.447-.085-.829-.275-1.144a1.785 1.785 0 00-.76-.715 2.328 2.328 0 00-1.055-.242c-.572 0-1.06.183-1.463.55-.404.367-.627.884-.671 1.551h4.224zm8.068-2.783c.455 0 .862.095 1.221.286.367.19.653.484.858.88.213.389.32.865.32 1.43V9h-.76V5.568c0-.653-.165-1.151-.495-1.496-.323-.345-.766-.517-1.33-.517-.58 0-1.042.183-1.387.55-.344.367-.517.906-.517 1.617V9h-.77V.86h.77v3.157c.19-.36.47-.638.836-.836a2.638 2.638 0 011.254-.297zm6.73 6.204a3.127 3.127 0 01-1.529-.374 2.843 2.843 0 01-1.067-1.078c-.257-.47-.385-1.016-.385-1.639s.132-1.166.396-1.628c.264-.47.624-.829 1.078-1.078a3.056 3.056 0 011.53-.385c.564 0 1.073.128 1.528.385.462.25.821.609 1.078 1.078.264.462.396 1.005.396 1.628 0 .616-.132 1.159-.396 1.628-.264.47-.627.832-1.089 1.089a3.19 3.19 0 01-1.54.374zm0-.671c.396 0 .763-.088 1.1-.264.338-.183.609-.455.814-.814.213-.367.32-.814.32-1.342 0-.528-.103-.972-.309-1.331a1.977 1.977 0 00-.814-.814 2.267 2.267 0 00-1.1-.275c-.396 0-.763.092-1.1.275a1.978 1.978 0 00-.814.814c-.198.36-.297.803-.297 1.331 0 .528.1.975.297 1.342.206.36.473.63.803.814.338.176.704.264 1.1.264zm11.579-5.533c.704 0 1.276.224 1.716.671.447.44.671 1.082.671 1.925V9h-.759V5.568c0-.653-.158-1.151-.473-1.496-.316-.345-.745-.517-1.287-.517-.565 0-1.016.187-1.353.561-.338.374-.506.917-.506 1.628V9h-.76V5.568c0-.653-.157-1.151-.472-1.496-.316-.345-.748-.517-1.298-.517-.565 0-1.016.187-1.353.561-.338.374-.506.917-.506 1.628V9h-.77V2.994h.77v1.034c.19-.374.462-.656.814-.847a2.36 2.36 0 011.177-.297c.52 0 .975.125 1.364.374.396.25.682.616.858 1.1.161-.477.436-.84.825-1.089a2.413 2.413 0 011.342-.385zm9.531 2.805c0 .264-.008.466-.022.605h-4.983c.022.455.132.843.33 1.166.198.323.458.568.781.737.322.161.674.242 1.056.242.498 0 .916-.121 1.254-.363a1.7 1.7 0 00.682-.979h.814a2.56 2.56 0 01-.946 1.441c-.477.367-1.078.55-1.804.55a3.063 3.063 0 01-1.518-.374 2.755 2.755 0 01-1.056-1.078c-.25-.47-.374-1.016-.374-1.639s.124-1.17.374-1.639c.249-.47.597-.829 1.045-1.078.447-.25.957-.374 1.529-.374s1.07.125 1.496.374c.432.25.762.587.99 1.012.234.418.352.884.352 1.397zm-.781-.022c.007-.447-.085-.829-.275-1.144a1.792 1.792 0 00-.759-.715 2.33 2.33 0 00-1.056-.242c-.572 0-1.06.183-1.463.55-.404.367-.627.884-.671 1.551h4.224zm7.837 3.421a3.127 3.127 0 01-1.529-.374 2.845 2.845 0 01-1.067-1.078c-.257-.47-.385-1.016-.385-1.639s.132-1.166.396-1.628a2.72 2.72 0 011.078-1.078 3.056 3.056 0 011.529-.385c.565 0 1.074.128 1.529.385.462.25.821.609 1.078 1.078.264.462.396 1.005.396 1.628 0 .616-.132 1.159-.396 1.628-.264.47-.627.832-1.089 1.089-.462.25-.975.374-1.54.374zm0-.671c.396 0 .763-.088 1.1-.264.337-.183.609-.455.814-.814.213-.367.319-.814.319-1.342 0-.528-.103-.972-.308-1.331a1.977 1.977 0 00-.814-.814 2.266 2.266 0 00-1.1-.275c-.396 0-.763.092-1.1.275a1.977 1.977 0 00-.814.814c-.198.36-.297.803-.297 1.331 0 .528.099.975.297 1.342.205.36.473.63.803.814.337.176.704.264 1.1.264zm6.794-4.774h-1.397V9h-.77V3.643h-.836v-.649h.836v-.418c0-.653.165-1.133.495-1.441.337-.308.88-.462 1.628-.462v.66c-.499 0-.851.095-1.056.286-.198.19-.297.51-.297.957v.418h1.397v.649zm-122.719 15H1.848V24h-.77v-5.357H.242v-.649h.836v-.418c0-.653.165-1.133.495-1.441.337-.308.88-.462 1.628-.462v.66c-.499 0-.85.095-1.056.286-.198.19-.297.51-.297.957v.418h1.397v.649zm3.841 5.445a3.127 3.127 0 01-1.529-.374 2.843 2.843 0 01-1.067-1.078c-.257-.47-.385-1.016-.385-1.639s.132-1.166.396-1.628c.264-.47.623-.829 1.078-1.078a3.055 3.055 0 011.53-.385c.564 0 1.073.128 1.528.385.462.25.821.609 1.078 1.078.264.462.396 1.005.396 1.628 0 .616-.132 1.159-.396 1.628-.264.47-.627.832-1.089 1.089a3.19 3.19 0 01-1.54.374zm0-.671c.396 0 .763-.088 1.1-.264.337-.183.609-.455.814-.814.213-.367.32-.814.32-1.342 0-.528-.104-.972-.309-1.331a1.977 1.977 0 00-.814-.814 2.267 2.267 0 00-1.1-.275c-.396 0-.763.092-1.1.275a1.977 1.977 0 00-.814.814c-.198.36-.297.803-.297 1.331 0 .528.1.975.297 1.342.205.36.473.63.803.814.337.176.704.264 1.1.264zm5.199-4.356a1.89 1.89 0 01.77-.869c.352-.205.78-.308 1.287-.308v.803h-.21c-.557 0-1.004.15-1.341.451-.338.3-.506.803-.506 1.507V24h-.77v-6.006h.77v1.067zm8.65 1.628c0 .264-.008.466-.023.605H15.93c.022.455.132.843.33 1.166.198.323.459.568.781.737.323.161.675.242 1.056.242.499 0 .917-.121 1.254-.363.345-.242.572-.568.682-.979h.814a2.558 2.558 0 01-.946 1.441c-.476.367-1.078.55-1.804.55-.564 0-1.07-.125-1.518-.374a2.765 2.765 0 01-1.056-1.078c-.25-.47-.374-1.016-.374-1.639s.125-1.17.374-1.639a2.6 2.6 0 011.045-1.078c.448-.25.957-.374 1.53-.374.571 0 1.07.125 1.495.374.433.25.763.587.99 1.012.235.418.352.884.352 1.397zm-.782-.022c.008-.447-.084-.829-.275-1.144a1.784 1.784 0 00-.759-.715 2.328 2.328 0 00-1.056-.242c-.572 0-1.06.183-1.463.55-.403.367-.627.884-.67 1.551h4.223zM25.49 24l-1.551-2.42L22.442 24h-.814l1.936-3.003-1.914-3.003h.869l1.529 2.387 1.485-2.387h.803l-1.914 2.97L26.358 24h-.87zm4.58-3.014c0-.616.121-1.155.363-1.617.25-.47.59-.829 1.023-1.078.44-.257.935-.385 1.485-.385.572 0 1.063.132 1.474.396.418.264.719.601.902 1.012v-1.32h.77V24h-.77v-1.331c-.19.41-.495.752-.913 1.023-.41.264-.902.396-1.474.396a2.87 2.87 0 01-1.474-.385 2.717 2.717 0 01-1.023-1.089c-.242-.47-.363-1.012-.363-1.628zm5.247.011c0-.484-.099-.91-.297-1.276a2.107 2.107 0 00-.814-.847 2.175 2.175 0 00-1.122-.297c-.425 0-.807.095-1.144.286-.337.19-.605.47-.803.836-.19.36-.286.788-.286 1.287 0 .491.095.924.286 1.298.198.367.466.649.803.847.337.19.719.286 1.144.286.41 0 .785-.099 1.122-.297.345-.198.616-.48.814-.847.198-.367.297-.792.297-1.276zm5.344-3.113c.719 0 1.305.224 1.76.671.454.44.682 1.082.682 1.925V24h-.76v-3.432c0-.653-.164-1.151-.494-1.496-.323-.345-.767-.517-1.331-.517-.58 0-1.042.183-1.386.55-.345.367-.517.906-.517 1.617V24h-.77v-6.006h.77v1.023c.19-.367.466-.645.825-.836.36-.198.766-.297 1.22-.297zm3.793 3.102c0-.616.124-1.155.374-1.617.25-.47.59-.829 1.023-1.078.44-.257.935-.385 1.485-.385.528 0 1.005.128 1.43.385.425.257.737.59.935 1.001V15.86h.77V24h-.77v-1.342a2.346 2.346 0 01-.902 1.034c-.418.264-.91.396-1.474.396-.55 0-1.045-.128-1.485-.385a2.717 2.717 0 01-1.023-1.089c-.242-.47-.363-1.012-.363-1.628zm5.247.011c0-.484-.1-.91-.297-1.276a2.107 2.107 0 00-.814-.847 2.175 2.175 0 00-1.122-.297c-.425 0-.807.095-1.144.286-.337.19-.605.47-.803.836-.19.36-.286.788-.286 1.287 0 .491.095.924.286 1.298.198.367.465.649.803.847.337.19.718.286 1.144.286.41 0 .785-.099 1.122-.297.345-.198.616-.48.814-.847.198-.367.297-.792.297-1.276zm6.305-1.672c.198-.418.502-.759.913-1.023.418-.264.91-.396 1.474-.396.55 0 1.041.128 1.474.385.433.25.77.609 1.012 1.078.25.462.374 1.001.374 1.617 0 .616-.125 1.159-.374 1.628-.242.47-.583.832-1.023 1.089-.432.257-.92.385-1.463.385-.572 0-1.067-.128-1.485-.385a2.373 2.373 0 01-.902-1.023V24h-.759v-8.14h.76v3.465zm4.466 1.661c0-.499-.099-.928-.297-1.287a1.985 1.985 0 00-.792-.836 2.284 2.284 0 00-1.144-.286c-.41 0-.788.099-1.133.297-.337.198-.605.48-.803.847-.198.367-.297.792-.297 1.276s.1.91.297 1.276c.198.367.466.649.803.847.345.198.723.297 1.133.297.425 0 .807-.095 1.144-.286.337-.198.602-.48.792-.847.198-.374.297-.807.297-1.298zm7.632-.297c0 .264-.007.466-.022.605h-4.983c.022.455.132.843.33 1.166.198.323.458.568.781.737.323.161.675.242 1.056.242.499 0 .917-.121 1.254-.363.345-.242.572-.568.682-.979h.814a2.559 2.559 0 01-.946 1.441c-.477.367-1.078.55-1.804.55-.565 0-1.07-.125-1.518-.374a2.764 2.764 0 01-1.056-1.078c-.25-.47-.374-1.016-.374-1.639s.125-1.17.374-1.639c.25-.47.598-.829 1.045-1.078.447-.25.957-.374 1.53-.374.571 0 1.07.125 1.495.374.433.25.763.587.99 1.012.235.418.352.884.352 1.397zm-.78-.022c.006-.447-.085-.829-.276-1.144a1.785 1.785 0 00-.759-.715 2.329 2.329 0 00-1.056-.242c-.572 0-1.06.183-1.463.55-.403.367-.627.884-.67 1.551h4.223zm5.005-2.783c.718 0 1.305.224 1.76.671.455.44.682 1.082.682 1.925V24h-.76v-3.432c0-.653-.164-1.151-.494-1.496-.323-.345-.767-.517-1.331-.517-.58 0-1.041.183-1.386.55-.345.367-.517.906-.517 1.617V24h-.77v-6.006h.77v1.023c.19-.367.466-.645.825-.836.36-.198.766-.297 1.22-.297zm9.579 2.805c0 .264-.008.466-.022.605h-4.983c.022.455.132.843.33 1.166.198.323.458.568.78.737.323.161.675.242 1.057.242.498 0 .916-.121 1.254-.363.344-.242.572-.568.682-.979h.814a2.559 2.559 0 01-.946 1.441c-.477.367-1.078.55-1.804.55-.565 0-1.07-.125-1.518-.374a2.764 2.764 0 01-1.056-1.078c-.25-.47-.374-1.016-.374-1.639s.124-1.17.374-1.639c.25-.47.597-.829 1.045-1.078.447-.25.957-.374 1.529-.374s1.07.125 1.496.374c.432.25.762.587.99 1.012.234.418.352.884.352 1.397zm-.781-.022c.007-.447-.085-.829-.275-1.144a1.785 1.785 0 00-.76-.715 2.329 2.329 0 00-1.055-.242c-.572 0-1.06.183-1.463.55-.404.367-.627.884-.671 1.551h4.224zm4.554-2.024h-1.397V24h-.77v-5.357h-.836v-.649h.836v-.418c0-.653.165-1.133.495-1.441.338-.308.88-.462 1.629-.462v.66c-.5 0-.851.095-1.056.286-.199.19-.297.51-.297.957v.418h1.396v.649zm1.598-1.782a.54.54 0 01-.396-.165.553.553 0 01-.165-.407c0-.161.055-.293.165-.396a.54.54 0 01.396-.165.54.54 0 01.396.165c.11.103.165.235.165.396a.553.553 0 01-.165.407.54.54 0 01-.396.165zm.385 1.133V24h-.77v-6.006h.77zm2.744.649v3.729c0 .367.07.62.21.759.139.14.384.209.736.209h.704V24h-.825c-.542 0-.946-.125-1.21-.374-.264-.257-.396-.675-.396-1.254v-3.729h-.836v-.649h.836v-1.507h.781v1.507h1.65v.649h-1.65zm8.304 0h-1.397V24h-.77v-5.357h-.836v-.649h.836v-.418c0-.653.165-1.133.495-1.441.337-.308.88-.462 1.628-.462v.66c-.499 0-.85.095-1.056.286-.198.19-.297.51-.297.957v.418h1.397v.649zm1.982.418a1.89 1.89 0 01.77-.869c.352-.205.781-.308 1.287-.308v.803h-.209c-.557 0-1.005.15-1.342.451-.337.3-.506.803-.506 1.507V24h-.77v-6.006h.77v1.067zm5.844 5.027a3.13 3.13 0 01-1.529-.374 2.845 2.845 0 01-1.067-1.078c-.256-.47-.385-1.016-.385-1.639s.132-1.166.396-1.628c.264-.47.624-.829 1.078-1.078a3.058 3.058 0 011.529-.385c.565 0 1.075.128 1.529.385.462.25.822.609 1.078 1.078.264.462.396 1.005.396 1.628 0 .616-.132 1.159-.396 1.628-.264.47-.627.832-1.089 1.089a3.19 3.19 0 01-1.54.374zm0-.671c.396 0 .763-.088 1.1-.264.338-.183.609-.455.814-.814.213-.367.319-.814.319-1.342 0-.528-.102-.972-.308-1.331a1.971 1.971 0 00-.814-.814 2.266 2.266 0 00-1.1-.275 2.27 2.27 0 00-1.1.275 1.983 1.983 0 00-.814.814c-.198.36-.297.803-.297 1.331 0 .528.099.975.297 1.342.206.36.473.63.803.814.338.176.704.264 1.1.264zm11.579-5.533c.704 0 1.276.224 1.716.671.447.44.671 1.082.671 1.925V24h-.759v-3.432c0-.653-.158-1.151-.473-1.496-.315-.345-.744-.517-1.287-.517-.565 0-1.016.187-1.353.561-.337.374-.506.917-.506 1.628V24h-.759v-3.432c0-.653-.158-1.151-.473-1.496-.315-.345-.748-.517-1.298-.517-.565 0-1.016.187-1.353.561-.337.374-.506.917-.506 1.628V24h-.77v-6.006h.77v1.034c.191-.374.462-.656.814-.847a2.358 2.358 0 011.177-.297c.521 0 .975.125 1.364.374.396.25.682.616.858 1.1.161-.477.436-.84.825-1.089a2.412 2.412 0 011.342-.385zm4.229 6.171a.554.554 0 01-.407-.165.573.573 0 01-.154-.407c0-.161.051-.293.154-.396a.554.554 0 01.407-.165c.154 0 .282.055.385.165.11.103.165.235.165.396a.553.553 0 01-.165.407.505.505 0 01-.385.165zm0-4.785a.554.554 0 01-.407-.165.573.573 0 01-.154-.407c0-.161.051-.293.154-.396a.554.554 0 01.407-.165c.154 0 .282.055.385.165.11.103.165.235.165.396a.553.553 0 01-.165.407.505.505 0 01-.385.165z" fill="#fff"/></svg>