<svg width="165" height="28" viewBox="0 0 165 28" fill="none" xmlns="http://www.w3.org/2000/svg"><path d="M8.105 27V.438H.96V27h7.144zm30.364 0V.4h-7.03v14.858L20.723.4h-7.41V27h7.03V12.18L31.059 27h7.41zM43.674.438V27h11.4c7.866 0 14.25-5.738 14.25-13.262C69.324 6.176 62.94.4 55.074.4l-11.4.038zm7.144 6.384h3.99c3.952 0 7.182 2.964 7.182 6.878 0 3.952-3.23 6.916-7.182 6.916h-3.99V6.822zM81.173 27V.438H74.03V27h7.144zM99.91.058c-7.752 0-14.022 6.118-14.022 13.68 0 7.524 6.27 13.642 14.022 13.642 4.75 0 8.93-2.28 11.438-5.814l-6.194-3.496c-1.178 1.596-3.002 2.622-5.206 2.622-3.876 0-6.574-3.116-6.574-6.954 0-3.876 2.698-6.992 6.574-6.992 2.204 0 4.028 1.026 5.206 2.622l6.194-3.496C108.839 2.338 104.659.058 99.909.058zm37.308 6.764V.4h-21.774V27h22.002v-6.422h-14.858v-3.99h13.604v-6.08h-13.604V6.822h14.63zM152.324.02c-6.194.038-11.058 2.736-11.058 8.702 0 5.206 4.332 6.612 10.374 8.056 4.37 1.102 5.13 1.254 5.13 2.774 0 1.216-1.292 1.748-2.774 1.748-3.382 0-7.22-.988-10.678-2.926l-3.192 5.32c3.648 2.432 8.132 3.724 13.072 3.724 6.84 0 11.134-3.116 11.134-8.778 0-5.434-4.446-6.954-10.678-8.626-4.142-1.026-4.636-1.368-4.636-2.204 0-1.216 1.178-1.748 2.546-1.748 2.622 0 6.194.912 9.234 2.47l3.002-5.51c-3.116-1.9-7.22-3.002-11.476-3.002z" fill="#09B45B"/></svg>