<svg width="79" height="28" viewBox="0 0 79 28" fill="none" xmlns="http://www.w3.org/2000/svg"><path d="M52.936 10.81h-4.109C47.701 4.396 42.986.5 35.857.5c-8.013 0-13.194 5.335-13.194 13.58 0 8.246 5.02 13.462 13.194 13.42 6.664 0 11.39-3.662 12.797-9.662h2.783l.85-2.345h-3.264a19.136 19.136 0 00.05-2.345h3.052l.81-2.346v.008zM41.449 15.5H37.07l-.85 2.346h4.993c-.561 3.512-2.071 5.942-5.196 5.942-4.128 0-5.745-4.368-5.745-9.78 0-5.413 1.295-9.742 5.464-9.78 3.279 0 4.974 2.728 5.535 6.586H37.72l-.811 2.345h4.558c.007.28.015.56.015.849 0 .51-.011 1.01-.034 1.497V15.5zM0 26.855h7.164V17.68h12.182v-5.942H7.164V7.371h13.478V1.106H0v25.749zM72.85 17.88c3.199-1.374 5.3-4.003 5.3-7.922v-.08c0-2.507-.768-4.526-2.267-5.985-1.737-1.739-4.492-2.787-8.416-2.787H55.245v25.749h7.164V19.05h3.155l5.18 7.804H79l-6.153-8.974h.004zm-1.863-7.48c0 1.9-1.414 3.07-3.843 3.07h-4.739V7.248h4.697c2.428 0 3.885 1.052 3.885 3.07v.081z" fill="#fff"/></svg>