<svg width="181" height="17" viewBox="0 0 181 17" fill="none" xmlns="http://www.w3.org/2000/svg"><path d="M.28 5.128h3.024V13.5h1.61V5.128h3.024V3.7H.28v1.428zm14.164 7.056c-.308 0-.462-.098-.462-.462v-2.87c0-1.694-1.092-2.604-2.996-2.604-1.806 0-3.01.868-3.164 2.268h1.484c.112-.63.714-1.05 1.61-1.05.994 0 1.568.49 1.568 1.288v.434h-1.806c-2.002 0-3.066.826-3.066 2.296 0 1.33 1.092 2.1 2.66 2.1 1.162 0 1.89-.504 2.366-1.232 0 .714.336 1.148 1.316 1.148h.798v-1.316h-.308zm-1.96-1.624c-.014 1.106-.742 1.848-2.002 1.848-.826 0-1.33-.42-1.33-1.022 0-.728.518-1.078 1.456-1.078h1.876v.252zm3.092 2.94h1.512v-1.82l1.288-1.344L20.49 13.5h1.792l-2.87-4.27 2.702-2.898h-1.778l-3.248 3.472V3.7h-1.512v9.8zm10.388.084c1.778 0 2.982-1.078 3.234-2.492h-1.512c-.21.798-.882 1.26-1.806 1.26-1.19 0-1.96-.798-2.002-2.016v-.098h5.404c.028-.196.042-.392.042-.574-.042-2.1-1.428-3.416-3.5-3.416-2.114 0-3.528 1.47-3.528 3.682 0 2.198 1.414 3.654 3.668 3.654zm-2.03-4.452c.112-1.022.938-1.666 1.904-1.666 1.05 0 1.792.602 1.918 1.666h-3.822zm16.747 3.052c-.308 0-.462-.098-.462-.462v-2.87c0-1.694-1.092-2.604-2.996-2.604-1.806 0-3.01.868-3.164 2.268h1.484c.112-.63.714-1.05 1.61-1.05.994 0 1.568.49 1.568 1.288v.434h-1.806c-2.002 0-3.066.826-3.066 2.296 0 1.33 1.092 2.1 2.66 2.1 1.162 0 1.89-.504 2.366-1.232 0 .714.336 1.148 1.316 1.148h.798v-1.316h-.308zm-1.96-1.624c-.014 1.106-.742 1.848-2.002 1.848-.826 0-1.33-.42-1.33-1.022 0-.728.518-1.078 1.456-1.078h1.876v.252zm10.51-4.312c-1.12 0-1.863.518-2.339 1.148l-.182-1.064h-1.316V16.3h1.512v-3.808c.448.644 1.218 1.092 2.324 1.092 1.96 0 3.388-1.456 3.388-3.668 0-2.296-1.428-3.668-3.388-3.668zm-.253 6.062c-1.26 0-2.086-.994-2.086-2.422 0-1.386.826-2.352 2.086-2.352 1.26 0 2.1.966 2.1 2.38 0 1.4-.84 2.394-2.1 2.394zm8.24 1.274c2.184 0 3.654-1.47 3.654-3.668 0-2.184-1.47-3.668-3.654-3.668s-3.654 1.484-3.654 3.668c0 2.198 1.47 3.668 3.654 3.668zm0-1.288c-1.274 0-2.1-.994-2.1-2.38s.826-2.38 2.1-2.38 2.114.994 2.114 2.38-.84 2.38-2.114 2.38zm4.52-1.162c.043 1.554 1.359 2.45 3.277 2.45 1.736 0 3.038-.868 3.038-2.24 0-1.596-1.33-1.932-2.968-2.128-1.036-.112-1.722-.196-1.722-.868 0-.574.588-.938 1.484-.938s1.512.462 1.596 1.12h1.484c-.098-1.47-1.344-2.282-3.108-2.282-1.722-.014-2.94.868-2.94 2.226 0 1.484 1.288 1.834 2.926 2.03 1.106.14 1.764.196 1.764.966 0 .574-.616.938-1.554.938-1.092 0-1.736-.532-1.792-1.274h-1.484zm8.256-5.81c.518 0 .924-.378.924-.91s-.406-.91-.924-.91-.924.378-.924.91.406.91.924.91zm-.77 8.176h1.512V6.332h-1.512V13.5zm3.513-1.946c0 1.302.588 1.946 1.96 1.946h1.4v-1.33h-1.064c-.574 0-.77-.21-.77-.77V7.662h1.75v-1.33h-1.75V4.33h-1.526v2.002H71.49v1.33h1.246v3.892zm5.091-6.23c.518 0 .924-.378.924-.91s-.406-.91-.924-.91-.924.378-.924.91.406.91.924.91zm-.77 8.176h1.512V6.332h-1.512V13.5zm6.382.084c2.184 0 3.654-1.47 3.654-3.668 0-2.184-1.47-3.668-3.653-3.668-2.184 0-3.654 1.484-3.654 3.668 0 2.198 1.47 3.668 3.653 3.668zm0-1.288c-1.273 0-2.1-.994-2.1-2.38s.826-2.38 2.1-2.38c1.275 0 2.115.994 2.115 2.38s-.84 2.38-2.115 2.38zm8.65-6.048c-1.162 0-1.848.462-2.296 1.022l-.168-.938H88.31V13.5h1.512V9.888c0-1.456.714-2.338 1.918-2.338 1.134 0 1.708.728 1.708 2.086V13.5h1.526V9.51c0-2.394-1.302-3.262-2.884-3.262z" fill="url(#paint0_linear_42_837)"/><path d="M101.632 13.5h1.116l1.069-3.32 1.03 3.32h1.107l1.622-4.885h-1.05l-1.154 3.74-1.069-3.74h-.944l-1.117 3.74-1.116-3.74h-1.088l1.594 4.885zm9.053-4.942c-.764 0-1.231.343-1.536.763v-2.5h-1.031V13.5h1.031v-2.471c0-.983.496-1.584 1.307-1.584.763 0 1.173.496 1.173 1.422V13.5h1.031v-2.72c0-1.63-.888-2.222-1.975-2.222zm5.193 5c1.212 0 2.033-.735 2.204-1.7h-1.03c-.143.545-.601.86-1.231.86-.811 0-1.336-.544-1.364-1.374v-.067h3.682c.02-.134.029-.267.029-.391-.029-1.431-.973-2.328-2.385-2.328-1.441 0-2.405 1.001-2.405 2.509 0 1.498.964 2.49 2.5 2.49zm-1.383-3.035c.076-.696.639-1.135 1.297-1.135.716 0 1.222.41 1.308 1.135h-2.605zm7.082-1.965c-.792 0-1.259.314-1.564.696l-.115-.64h-.897V13.5h1.031v-2.462c0-.992.486-1.593 1.307-1.593.773 0 1.164.496 1.164 1.422V13.5h1.04v-2.72c0-1.63-.888-2.222-1.966-2.222zm7.653 5c1.489 0 2.49-1.003 2.49-2.5 0-1.489-1.001-2.5-2.49-2.5-1.488 0-2.49 1.011-2.49 2.5 0 1.497 1.002 2.5 2.49 2.5zm0-.878c-.868 0-1.431-.678-1.431-1.623 0-.944.563-1.622 1.431-1.622.868 0 1.441.678 1.441 1.622 0 .945-.573 1.623-1.441 1.623zm3.635-.506c0 .887.401 1.326 1.336 1.326h.954v-.906h-.725c-.392 0-.525-.143-.525-.525V9.52h1.192v-.906h-1.192V7.25h-1.04v1.365h-.849v.906h.849v2.653zm5.512-3.616c-.763 0-1.231.343-1.536.763v-2.5h-1.031V13.5h1.031v-2.471c0-.983.496-1.584 1.307-1.584.763 0 1.173.496 1.173 1.422V13.5h1.031v-2.72c0-1.63-.887-2.222-1.975-2.222zm5.193 5c1.212 0 2.033-.735 2.204-1.7h-1.03c-.143.545-.601.86-1.231.86-.811 0-1.336-.544-1.364-1.374v-.067h3.683a2.81 2.81 0 00.028-.391c-.028-1.431-.973-2.328-2.385-2.328-1.441 0-2.405 1.001-2.405 2.509 0 1.498.964 2.49 2.5 2.49zm-1.383-3.035c.076-.696.639-1.135 1.297-1.135.716 0 1.222.41 1.308 1.135h-2.605zm6.977-1.908c-.801 0-1.192.324-1.44.735l-.115-.735h-.916V13.5h1.031v-2.452c0-.754.295-1.47 1.211-1.47h.458v-.963h-.229zm.571 3.272c.029 1.06.926 1.67 2.233 1.67 1.183 0 2.07-.591 2.07-1.526 0-1.088-.906-1.317-2.022-1.45-.707-.077-1.174-.134-1.174-.592 0-.391.401-.64 1.011-.64.611 0 1.031.315 1.088.764h1.011c-.066-1.002-.916-1.555-2.118-1.555-1.173-.01-2.003.591-2.003 1.517 0 1.011.877 1.25 1.994 1.383.753.096 1.202.134 1.202.659 0 .39-.42.639-1.059.639-.744 0-1.183-.363-1.221-.869h-1.012zm9.785 1.67c1.25 0 2.08-.696 2.271-1.803h-1.088c-.124.563-.544.926-1.173.926-.83 0-1.374-.659-1.374-1.613 0-.964.544-1.632 1.374-1.632.639 0 1.049.353 1.183.926h1.078c-.2-1.107-.983-1.803-2.242-1.803-1.479 0-2.452 1.001-2.452 2.509 0 1.527.944 2.49 2.423 2.49zm7.525-.954c-.21 0-.315-.067-.315-.315v-1.956c0-1.154-.744-1.774-2.042-1.774-1.23 0-2.051.591-2.156 1.545h1.011c.077-.429.487-.715 1.098-.715.677 0 1.068.334 1.068.877v.296h-1.231c-1.364 0-2.089.563-2.089 1.565 0 .907.744 1.431 1.813 1.431.792 0 1.288-.343 1.612-.84 0 .487.229.783.897.783h.544v-.897h-.21zm-1.336-1.107c-.009.754-.505 1.26-1.364 1.26-.563 0-.907-.287-.907-.697 0-.496.354-.734.993-.734h1.278v.171zm4.683-2.938c-.792 0-1.259.314-1.564.696l-.115-.64h-.897V13.5h1.031v-2.462c0-.992.486-1.593 1.307-1.593.773 0 1.164.496 1.164 1.422V13.5h1.04v-2.72c0-1.63-.887-2.222-1.966-2.222zm3.147-1.794c-.439 0-.725.286-.725.649 0 .4.248.61.563.61a.522.522 0 00.315-.105c.009.048.009.086.009.134 0 .334-.238.706-.839.706v.563c.944-.01 1.536-.534 1.536-1.46 0-.62-.334-1.097-.859-1.097zm2.196 5.41c0 .887.401 1.326 1.336 1.326h.954v-.906h-.725c-.391 0-.525-.143-.525-.525V9.52h1.193v-.906h-1.193V7.25h-1.04v1.365h-.849v.906h.849v2.653zm2.906.734c0 .382.277.65.658.65.382 0 .668-.268.668-.65 0-.381-.286-.648-.668-.648-.381 0-.658.267-.658.648z" fill="#000"/><defs><linearGradient id="paint0_linear_42_837" x1="96" y1="8.5" x2="0" y2="8.5" gradientUnits="userSpaceOnUse"><stop stop-color="#FF4343"/><stop offset=".5" stop-color="#9C0B93"/><stop offset="1" stop-color="#4C1BB7"/></linearGradient></defs></svg>