<svg width="255" height="87" viewBox="0 0 255 87" fill="none" xmlns="http://www.w3.org/2000/svg"><path d="M170.868 33.221h-13.261C153.973 12.554 138.751 0 115.74 0 89.875 0 73.153 17.192 73.153 43.76c0 26.567 16.201 43.375 42.587 43.24 21.51 0 36.769-11.8 41.309-31.132h8.981l2.742-7.557H158.24a61.654 61.654 0 00.161-7.557h9.85l2.617-7.557v.024zm-37.079 15.115H119.66l-2.742 7.557h16.115c-1.811 11.317-6.687 19.146-16.772 19.146-13.323 0-18.546-14.075-18.546-31.515s4.181-31.39 17.64-31.514c10.582 0 16.053 8.794 17.864 21.224h-11.463l-2.617 7.557h14.712c.025.903.05 1.806.05 2.733 0 1.645-.037 3.253-.112 4.824v-.012zM0 84.921h23.123v-29.56h39.324V36.215H23.123V22.139h43.505V1.954H0v82.967zM235.152 56.004c10.321-4.428 17.106-12.9 17.106-25.528v-.26c0-8.077-2.481-14.582-7.319-19.282-5.607-5.603-14.501-8.98-27.167-8.98h-39.448v82.967h23.123V59.776h10.185l16.722 25.145H255l-19.861-28.917h.013zm-6.017-24.106c0 6.122-4.565 9.895-12.405 9.895h-15.295v-20.05h15.159c7.84 0 12.541 3.39 12.541 9.895v.26z" fill="#fff"/></svg>