<svg width="255" height="44" viewBox="0 0 255 44" fill="none" xmlns="http://www.w3.org/2000/svg"><path d="M11.623 42.836V.896H.343v41.94h11.28zm47.343 0v-42h-11.1v23.46L30.947.836h-11.7v42h11.1v-23.4l16.92 23.4h11.7zM66.585.896v41.94h18c12.42 0 22.5-9.06 22.5-20.94 0-11.94-10.08-21.06-22.5-21.06l-18 .06zm11.28 10.08h6.3c6.24 0 11.34 4.68 11.34 10.86 0 6.24-5.1 10.92-11.34 10.92h-6.3v-21.78zm47.329 31.86V.896h-11.28v41.94h11.28zM154.178.296c-12.24 0-22.14 9.66-22.14 21.6 0 11.88 9.9 21.54 22.14 21.54 7.5 0 14.1-3.6 18.06-9.18l-9.78-5.52c-1.86 2.52-4.74 4.14-8.22 4.14-6.12 0-10.38-4.92-10.38-10.98 0-6.12 4.26-11.04 10.38-11.04 3.48 0 6.36 1.62 8.22 4.14l9.78-5.52c-3.96-5.58-10.56-9.18-18.06-9.18zm58.307 10.68V.836h-34.38v42h34.74v-10.14h-23.46v-6.3h21.48v-9.6h-21.48v-5.82h23.1zM235.738.236c-9.78.06-17.46 4.32-17.46 13.74 0 8.22 6.84 10.44 16.38 12.72 6.9 1.74 8.1 1.98 8.1 4.38 0 1.92-2.04 2.76-4.38 2.76-5.34 0-11.4-1.56-16.86-4.62l-5.04 8.4c5.76 3.84 12.84 5.88 20.64 5.88 10.8 0 17.58-4.92 17.58-13.86 0-8.58-7.02-10.98-16.86-13.62-6.54-1.62-7.32-2.16-7.32-3.48 0-1.92 1.86-2.76 4.02-2.76 4.14 0 9.78 1.44 14.58 3.9l4.74-8.7c-4.92-3-11.4-4.74-18.12-4.74z" fill="#09B45B"/></svg>