<svg width="109" height="17" viewBox="0 0 109 17" fill="none" xmlns="http://www.w3.org/2000/svg"><path d="M12.758 4.907V1.2H.188v15.355H12.89v-3.707H4.313v-2.303h7.853v-3.51H4.313V4.907h8.445zM29.332 1.2h-4.146v8.314c0 2.457-1.119 3.488-2.917 3.488-1.777 0-2.896-1.031-2.918-3.488V1.222h-4.124v8.292c0 5.023 2.72 7.26 7.042 7.26 4.321 0 7.063-2.237 7.063-7.26V1.2zm3.011.022v15.333h4.125v-4.672h2.456l2.984 4.672h4.76l-3.444-5.22c2.128-.724 3.027-2.282 3.027-4.783 0-3.75-1.996-5.33-6.997-5.33h-6.91zm4.125 3.707h2.983c1.82 0 2.5.57 2.5 1.887 0 1.338-.68 1.886-2.5 1.886h-2.983V4.93zm14.632 12L58.778.826 55.356.85l-7.678 16.08H51.1zM74.92 1.2h-4.146v8.314c0 2.457-1.119 3.488-2.918 3.488-1.777 0-2.895-1.031-2.917-3.488V1.222h-4.124v8.292c0 5.023 2.72 7.26 7.041 7.26 4.322 0 7.064-2.237 7.064-7.26V1.2zm9.263-.22c-3.576.023-6.384 1.58-6.384 5.024 0 3.005 2.501 3.817 5.989 4.65 2.523.637 2.961.724 2.961 1.602 0 .702-.745 1.009-1.6 1.009-1.953 0-4.169-.57-6.165-1.69l-1.843 3.072c2.106 1.404 4.695 2.15 7.546 2.15 3.949 0 6.428-1.8 6.428-5.068 0-3.136-2.567-4.014-6.164-4.98-2.391-.591-2.677-.789-2.677-1.271 0-.702.68-1.01 1.47-1.01 1.514 0 3.576.527 5.33 1.426l1.734-3.18C89.007 1.617 86.639.98 84.182.98zm9.3.242v15.333h6.581c4.541 0 8.227-3.312 8.227-7.655 0-4.366-3.686-7.7-8.227-7.7l-6.58.022zm4.125 3.685h2.303c2.281 0 4.146 1.711 4.146 3.97 0 2.282-1.865 3.993-4.146 3.993h-2.303V4.907z" fill="#09B45B"/></svg>