<svg width="49" height="18" viewBox="0 0 49 18" fill="none" xmlns="http://www.w3.org/2000/svg"><path d="M32.676 7.047h-2.497C29.495 3.008 26.63.555 22.3.555c-4.87 0-8.017 3.36-8.017 8.551 0 5.191 3.05 8.476 8.017 8.45 4.049 0 6.92-2.306 7.775-6.084h1.69l.517-1.477h-1.982a12.456 12.456 0 00.03-1.476h1.854l.493-1.477v.005zM25.696 10h-2.66l-.516 1.477h3.034c-.341 2.211-1.259 3.741-3.157 3.741-2.508 0-3.491-2.75-3.491-6.158 0-3.408.787-6.134 3.32-6.158 1.992 0 3.022 1.718 3.363 4.147H23.43l-.493 1.477h2.77c.004.176.01.353.01.534 0 .322-.008.636-.022.943V10zM.512 17.15h4.353v-5.777h7.402V7.632H4.865v-2.75h8.189V.937H.512V17.15zM44.776 11.499c1.943-.866 3.22-2.521 3.22-4.989v-.05c0-1.578-.467-2.85-1.378-3.768-1.055-1.095-2.73-1.755-5.113-1.755h-7.426V17.15h4.353v-4.913h1.917l3.147 4.913h5.016l-3.738-5.65h.002zm-1.133-4.71c0 1.196-.859 1.933-2.335 1.933H38.43V4.804h2.854c1.475 0 2.36.662 2.36 1.934v.05z" fill="#fff"/></svg>