<svg width="202" height="11" viewBox="0 0 202 11" fill="none" xmlns="http://www.w3.org/2000/svg"><path d="M1.489 5.82c-.313 0-.583-.11-.81-.33-.227-.227-.34-.5-.34-.82 0-.327.113-.6.34-.82.227-.227.497-.34.81-.34.327 0 .6.113.82.34.227.22.34.493.34.82 0 .32-.113.593-.34.82-.22.22-.493.33-.82.33zM10.5 1.01V8h-.7V1.01h.7zm4.145 1.43c.654 0 1.187.203 1.6.61.413.4.62.983.62 1.75V8h-.69V4.88c0-.593-.15-1.047-.45-1.36-.293-.313-.697-.47-1.21-.47-.527 0-.947.167-1.26.5-.313.333-.47.823-.47 1.47V8h-.7V2.54h.7v.93c.174-.333.424-.587.75-.76.327-.18.697-.27 1.11-.27zm5.648 5.64c-.626 0-1.14-.143-1.54-.43a1.605 1.605 0 01-.66-1.19h.72c.034.307.177.557.43.75.26.187.607.28 1.04.28.38 0 .677-.09.89-.27.22-.18.33-.403.33-.67 0-.187-.06-.34-.18-.46a1.219 1.219 0 00-.46-.28 5.942 5.942 0 00-.74-.23 7.572 7.572 0 01-.99-.32 1.752 1.752 0 01-.65-.47c-.173-.213-.26-.497-.26-.85 0-.267.08-.513.24-.74.16-.227.387-.407.68-.54.294-.133.627-.2 1-.2.587 0 1.06.15 1.42.45.36.293.554.7.58 1.22h-.7a1.04 1.04 0 00-.38-.77c-.226-.2-.54-.3-.94-.3-.353 0-.64.083-.86.25-.22.167-.33.373-.33.62 0 .213.064.39.19.53.134.133.297.24.49.32.194.073.454.157.78.25.394.107.707.21.94.31.234.1.434.247.6.44.167.193.254.45.26.77 0 .293-.08.557-.24.79a1.65 1.65 0 01-.67.54c-.286.133-.616.2-.99.2zm4.128-4.95v3.39c0 .333.063.563.19.69s.35.19.67.19h.64V8h-.75c-.493 0-.86-.113-1.1-.34-.24-.233-.36-.613-.36-1.14V3.13h-.76v-.59h.76V1.17h.71v1.37h1.5v.59h-1.5zm3.004-1.62c-.14 0-.26-.05-.36-.15a.503.503 0 01-.15-.37.47.47 0 01.15-.36c.1-.1.22-.15.36-.15.14 0 .26.05.36.15.1.093.15.213.15.36s-.05.27-.15.37c-.1.1-.22.15-.36.15zm.35 1.03V8h-.7V2.54h.7zm2.495.59v3.39c0 .333.064.563.19.69.127.127.35.19.67.19h.64V8h-.75c-.493 0-.86-.113-1.1-.34-.24-.233-.36-.613-.36-1.14V3.13h-.76v-.59h.76V1.17h.71v1.37h1.5v.59h-1.5zm7.385-.59V8h-.7v-.96c-.16.34-.407.6-.74.78-.333.18-.707.27-1.12.27-.653 0-1.187-.2-1.6-.6-.413-.407-.62-.993-.62-1.76V2.54h.69v3.11c0 .593.147 1.047.44 1.36.3.313.707.47 1.22.47.527 0 .947-.167 1.26-.5.313-.333.47-.823.47-1.47V2.54h.7zm2.508.59v3.39c0 .333.064.563.19.69.127.127.35.19.67.19h.64V8h-.75c-.493 0-.86-.113-1.1-.34-.24-.233-.36-.613-.36-1.14V3.13h-.76v-.59h.76V1.17h.71v1.37h1.5v.59h-1.5zm3.005-1.62c-.14 0-.26-.05-.36-.15a.503.503 0 01-.15-.37.47.47 0 01.15-.36c.1-.1.22-.15.36-.15.14 0 .26.05.36.15.1.093.15.213.15.36s-.05.27-.15.37c-.1.1-.22.15-.36.15zm.35 1.03V8h-.7V2.54h.7zm3.975 5.54c-.514 0-.977-.113-1.39-.34a2.585 2.585 0 01-.97-.98c-.234-.427-.35-.923-.35-1.49s.12-1.06.36-1.48c.24-.427.566-.753.98-.98.413-.233.876-.35 1.39-.35.513 0 .976.117 1.39.35.42.227.746.553.98.98.24.42.36.913.36 1.48 0 .56-.12 1.053-.36 1.48-.24.427-.57.757-.99.99a2.9 2.9 0 01-1.4.34zm0-.61c.36 0 .693-.08 1-.24a1.88 1.88 0 00.74-.74c.193-.333.29-.74.29-1.22s-.094-.883-.28-1.21a1.797 1.797 0 00-.74-.74 2.06 2.06 0 00-1-.25c-.36 0-.694.083-1 .25-.307.16-.554.407-.74.74-.18.327-.27.73-.27 1.21s.09.887.27 1.22c.186.327.43.573.73.74.306.16.64.24 1 .24zm6.586-5.03c.653 0 1.186.203 1.6.61.413.4.62.983.62 1.75V8h-.69V4.88c0-.593-.15-1.047-.45-1.36-.294-.313-.697-.47-1.21-.47-.527 0-.947.167-1.26.5-.314.333-.47.823-.47 1.47V8h-.7V2.54h.7v.93c.173-.333.423-.587.75-.76.326-.18.696-.27 1.11-.27zm3.448 2.82c0-.56.11-1.05.33-1.47a2.4 2.4 0 01.93-.98c.4-.233.85-.35 1.35-.35.52 0 .966.12 1.34.36.38.24.653.547.82.92v-1.2h.7V8h-.7V6.79c-.173.373-.45.683-.83.93-.373.24-.82.36-1.34.36a2.61 2.61 0 01-1.34-.35 2.469 2.469 0 01-.93-.99c-.22-.427-.33-.92-.33-1.48zm4.77.01c0-.44-.09-.827-.27-1.16a1.916 1.916 0 00-.74-.77 1.978 1.978 0 00-1.02-.27c-.387 0-.734.087-1.04.26-.307.173-.55.427-.73.76-.173.327-.26.717-.26 1.17 0 .447.087.84.26 1.18.18.333.423.59.73.77.306.173.653.26 1.04.26.373 0 .713-.09 1.02-.27.313-.18.56-.437.74-.77.18-.333.27-.72.27-1.16zM65.295.6V8h-.7V.6h.7zM70.27 4v.59h-3.89V4h3.89zm4.086-1.54c.513 0 .96.12 1.34.36.38.24.653.543.82.91V2.54h.7v5.6c0 .5-.11.943-.33 1.33a2.184 2.184 0 01-.9.89c-.387.213-.827.32-1.32.32-.7 0-1.284-.167-1.75-.5a2.128 2.128 0 01-.86-1.36h.69c.12.38.346.683.68.91.34.227.753.34 1.24.34.353 0 .67-.077.95-.23.28-.147.5-.367.66-.66.16-.293.24-.64.24-1.04V6.79c-.174.373-.45.683-.83.93-.374.24-.817.36-1.33.36-.5 0-.95-.117-1.35-.35a2.47 2.47 0 01-.93-.99c-.22-.427-.33-.92-.33-1.48 0-.56.11-1.05.33-1.47.226-.427.536-.753.93-.98.4-.233.85-.35 1.35-.35zm2.16 2.81c0-.44-.09-.827-.27-1.16a1.916 1.916 0 00-.74-.77 1.977 1.977 0 00-1.02-.27c-.387 0-.734.087-1.04.26-.307.173-.55.427-.73.76-.174.327-.26.717-.26 1.17 0 .447.086.84.26 1.18.18.333.423.59.73.77.306.173.653.26 1.04.26.373 0 .713-.09 1.02-.27.313-.18.56-.437.74-.77.18-.333.27-.72.27-1.16zm2.998-1.76c.153-.34.386-.603.7-.79.32-.187.71-.28 1.17-.28v.73h-.19c-.507 0-.914.137-1.22.41-.307.273-.46.73-.46 1.37V8h-.7V2.54h.7v.97zm2.603 1.75c0-.56.11-1.05.33-1.47.226-.427.536-.753.93-.98.4-.233.85-.35 1.35-.35.52 0 .966.12 1.34.36.38.24.653.547.82.92v-1.2h.7V8h-.7V6.79c-.174.373-.45.683-.83.93-.374.24-.82.36-1.34.36a2.61 2.61 0 01-1.34-.35 2.47 2.47 0 01-.93-.99c-.22-.427-.33-.92-.33-1.48zm4.77.01c0-.44-.09-.827-.27-1.16a1.916 1.916 0 00-.74-.77 1.977 1.977 0 00-1.02-.27c-.387 0-.734.087-1.04.26-.307.173-.55.427-.73.76-.174.327-.26.717-.26 1.17 0 .447.086.84.26 1.18.18.333.423.59.73.77.306.173.653.26 1.04.26.373 0 .713-.09 1.02-.27.313-.18.56-.437.74-.77.18-.333.27-.72.27-1.16zm1.978-.01c0-.56.113-1.05.34-1.47a2.4 2.4 0 01.93-.98c.4-.233.85-.35 1.35-.35.48 0 .913.117 1.3.35.386.233.67.537.85.91V.6h.7V8h-.7V6.78c-.167.38-.44.693-.82.94-.38.24-.827.36-1.34.36-.5 0-.95-.117-1.35-.35a2.469 2.469 0 01-.93-.99c-.22-.427-.33-.92-.33-1.48zm4.77.01c0-.44-.09-.827-.27-1.16a1.916 1.916 0 00-.74-.77 1.978 1.978 0 00-1.02-.27c-.387 0-.734.087-1.04.26-.307.173-.55.427-.73.76-.174.327-.26.717-.26 1.17 0 .447.086.84.26 1.18.18.333.423.59.73.77.306.173.653.26 1.04.26.373 0 .713-.09 1.02-.27.313-.18.56-.437.74-.77.18-.333.27-.72.27-1.16zm7.238-.28c0 .24-.007.423-.02.55h-4.53c.02.413.12.767.3 1.06.18.293.416.517.71.67.293.147.613.22.96.22.453 0 .833-.11 1.14-.33.313-.22.52-.517.62-.89h.74c-.134.533-.42.97-.86 1.31-.434.333-.98.5-1.64.5-.514 0-.974-.113-1.38-.34a2.513 2.513 0 01-.96-.98c-.227-.427-.34-.923-.34-1.49s.113-1.063.34-1.49c.227-.427.543-.753.95-.98.406-.227.87-.34 1.39-.34.52 0 .973.113 1.36.34a2.3 2.3 0 01.9.92c.213.38.32.803.32 1.27zm-.71-.02c.006-.407-.077-.753-.25-1.04a1.623 1.623 0 00-.69-.65 2.116 2.116 0 00-.96-.22c-.52 0-.964.167-1.33.5-.367.333-.57.803-.61 1.41h3.84zm5.425-1.23c.173-.367.446-.67.82-.91.38-.247.83-.37 1.35-.37.493 0 .936.117 1.33.35.4.227.71.553.93.98.226.42.34.91.34 1.47 0 .56-.114 1.053-.34 1.48-.22.427-.53.757-.93.99a2.56 2.56 0 01-1.33.35c-.514 0-.96-.12-1.34-.36a2.228 2.228 0 01-.83-.92v3.78h-.69V2.54h.69v1.2zm4.06 1.52c0-.453-.09-.843-.27-1.17a1.813 1.813 0 00-.72-.76 2.079 2.079 0 00-1.04-.26c-.374 0-.717.09-1.03.27-.307.18-.55.437-.73.77-.18.333-.27.72-.27 1.16 0 .44.09.827.27 1.16.18.333.423.59.73.77.313.18.656.27 1.03.27.386 0 .733-.087 1.04-.26.306-.18.546-.437.72-.77.18-.34.27-.733.27-1.18zm2.698-1.75c.153-.34.386-.603.7-.79.32-.187.71-.28 1.17-.28v.73h-.19c-.507 0-.914.137-1.22.41-.307.273-.46.73-.46 1.37V8h-.7V2.54h.7v.97zm3.273-2c-.14 0-.26-.05-.36-.15a.503.503 0 01-.15-.37.47.47 0 01.15-.36c.1-.1.22-.15.36-.15.14 0 .26.05.36.15.1.093.15.213.15.36s-.05.27-.15.37c-.1.1-.22.15-.36.15zm.35 1.03V8h-.7V2.54h.7zm1.265 2.73c0-.567.113-1.06.34-1.48.227-.427.54-.753.94-.98.4-.233.857-.35 1.37-.35.673 0 1.227.167 1.66.5.44.333.723.787.85 1.36h-.75a1.507 1.507 0 00-.61-.92c-.307-.227-.69-.34-1.15-.34-.367 0-.697.083-.99.25a1.778 1.778 0 00-.7.75c-.167.327-.25.73-.25 1.21s.083.887.25 1.22c.173.333.407.583.7.75.293.167.623.25.99.25.46 0 .843-.11 1.15-.33.313-.227.517-.54.61-.94h.75c-.127.56-.41 1.01-.85 1.35-.44.34-.993.51-1.66.51a2.73 2.73 0 01-1.37-.34c-.4-.233-.713-.56-.94-.98-.227-.427-.34-.923-.34-1.49zm6.803-3.76c-.14 0-.26-.05-.36-.15a.503.503 0 01-.15-.37.47.47 0 01.15-.36c.1-.1.22-.15.36-.15.14 0 .26.05.36.15.1.093.15.213.15.36s-.05.27-.15.37c-.1.1-.22.15-.36.15zm.35 1.03V8h-.7V2.54h.7zm4.145-.1c.653 0 1.187.203 1.6.61.413.4.62.983.62 1.75V8h-.69V4.88c0-.593-.15-1.047-.45-1.36-.293-.313-.697-.47-1.21-.47-.527 0-.947.167-1.26.5-.313.333-.47.823-.47 1.47V8h-.7V2.54h.7v.93c.173-.333.423-.587.75-.76.327-.18.697-.27 1.11-.27zm6.058.02c.513 0 .96.12 1.34.36.38.24.653.543.82.91V2.54h.7v5.6c0 .5-.11.943-.33 1.33a2.18 2.18 0 01-.9.89c-.387.213-.827.32-1.32.32-.7 0-1.283-.167-1.75-.5a2.126 2.126 0 01-.86-1.36h.69c.12.38.347.683.68.91.34.227.753.34 1.24.34.353 0 .67-.077.95-.23.28-.147.5-.367.66-.66.16-.293.24-.64.24-1.04V6.79c-.173.373-.45.683-.83.93-.373.24-.817.36-1.33.36-.5 0-.95-.117-1.35-.35a2.474 2.474 0 01-.93-.99c-.22-.427-.33-.92-.33-1.48 0-.56.11-1.05.33-1.47.227-.427.537-.753.93-.98.4-.233.85-.35 1.35-.35zm2.16 2.81c0-.44-.09-.827-.27-1.16a1.918 1.918 0 00-.74-.77 1.98 1.98 0 00-1.02-.27c-.387 0-.733.087-1.04.26-.307.173-.55.427-.73.76-.173.327-.26.717-.26 1.17 0 .447.087.84.26 1.18.18.333.423.59.73.77.307.173.653.26 1.04.26.373 0 .713-.09 1.02-.27.313-.18.56-.437.74-.77.18-.333.27-.72.27-1.16zm4.722-.01c0-.56.11-1.05.33-1.47.227-.427.537-.753.93-.98.4-.233.85-.35 1.35-.35.52 0 .967.12 1.34.36.38.24.654.547.82.92v-1.2h.7V8h-.7V6.79c-.173.373-.45.683-.83.93-.373.24-.82.36-1.34.36-.493 0-.94-.117-1.34-.35a2.474 2.474 0 01-.93-.99c-.22-.427-.33-.92-.33-1.48zm4.77.01c0-.44-.09-.827-.27-1.16a1.974 1.974 0 00-1.76-1.04c-.386 0-.733.087-1.04.26-.306.173-.55.427-.73.76-.173.327-.26.717-.26 1.17 0 .447.087.84.26 1.18.18.333.424.59.73.77.307.173.654.26 1.04.26a1.974 1.974 0 001.76-1.04c.18-.333.27-.72.27-1.16zm4.858-2.83c.654 0 1.187.203 1.6.61.414.4.62.983.62 1.75V8h-.69V4.88c0-.593-.15-1.047-.45-1.36-.293-.313-.696-.47-1.21-.47-.526 0-.946.167-1.26.5-.313.333-.47.823-.47 1.47V8h-.7V2.54h.7v.93c.174-.333.424-.587.75-.76.327-.18.697-.27 1.11-.27zm3.448 2.82c0-.56.114-1.05.34-1.47.227-.427.537-.753.93-.98.4-.233.85-.35 1.35-.35.48 0 .914.117 1.3.35.387.233.67.537.85.91V.6h.7V8h-.7V6.78a2.13 2.13 0 01-.82.94c-.38.24-.826.36-1.34.36-.5 0-.95-.117-1.35-.35a2.474 2.474 0 01-.93-.99c-.22-.427-.33-.92-.33-1.48zm4.77.01c0-.44-.09-.827-.27-1.16a1.974 1.974 0 00-1.76-1.04c-.386 0-.733.087-1.04.26-.306.173-.55.427-.73.76-.173.327-.26.717-.26 1.17 0 .447.087.84.26 1.18.18.333.424.59.73.77.307.173.654.26 1.04.26a1.974 1.974 0 001.76-1.04c.18-.333.27-.72.27-1.16zM165.061.6V8h-.7V.6h.7zm1.935.91c-.14 0-.26-.05-.36-.15a.503.503 0 01-.15-.37.47.47 0 01.15-.36c.1-.1.22-.15.36-.15.14 0 .26.05.36.15.1.093.15.213.15.36s-.05.27-.15.37c-.1.1-.22.15-.36.15zm.35 1.03V8h-.7V2.54h.7zm1.265 2.72c0-.56.113-1.05.34-1.47.227-.427.537-.753.93-.98.4-.233.85-.35 1.35-.35.513 0 .96.123 1.34.37.38.24.65.543.81.91v-1.2h.7v8.04h-.7V6.8c-.16.367-.433.673-.82.92-.38.24-.83.36-1.35.36-.493 0-.94-.117-1.34-.35a2.474 2.474 0 01-.93-.99c-.22-.427-.33-.92-.33-1.48zm4.77.01c0-.44-.09-.827-.27-1.16a1.918 1.918 0 00-.74-.77 1.98 1.98 0 00-1.02-.27c-.387 0-.733.087-1.04.26-.307.173-.55.427-.73.76-.173.327-.26.717-.26 1.17 0 .447.087.84.26 1.18.18.333.423.59.73.77.307.173.653.26 1.04.26.373 0 .713-.09 1.02-.27.313-.18.56-.437.74-.77.18-.333.27-.72.27-1.16zm7.028-2.73V8h-.7v-.96c-.16.34-.407.6-.74.78-.333.18-.707.27-1.12.27-.653 0-1.187-.2-1.6-.6-.413-.407-.62-.993-.62-1.76V2.54h.69v3.11c0 .593.147 1.047.44 1.36.3.313.707.47 1.22.47.527 0 .947-.167 1.26-.5.313-.333.47-.823.47-1.47V2.54h.7zm1.948-1.03c-.14 0-.26-.05-.36-.15a.503.503 0 01-.15-.37.47.47 0 01.15-.36c.1-.1.22-.15.36-.15.14 0 .26.05.36.15.1.093.15.213.15.36s-.05.27-.15.37c-.1.1-.22.15-.36.15zm.35 1.03V8h-.7V2.54h.7zm1.265 2.72c0-.56.114-1.05.34-1.47.227-.427.537-.753.93-.98.4-.233.85-.35 1.35-.35.48 0 .914.117 1.3.35.387.233.67.537.85.91V.6h.7V8h-.7V6.78a2.13 2.13 0 01-.82.94c-.38.24-.826.36-1.34.36-.5 0-.95-.117-1.35-.35a2.474 2.474 0 01-.93-.99c-.22-.427-.33-.92-.33-1.48zm4.77.01c0-.44-.09-.827-.27-1.16a1.974 1.974 0 00-1.76-1.04c-.386 0-.733.087-1.04.26-.306.173-.55.427-.73.76-.173.327-.26.717-.26 1.17 0 .447.087.84.26 1.18.18.333.424.59.73.77.307.173.654.26 1.04.26a1.974 1.974 0 001.76-1.04c.18-.333.27-.72.27-1.16zm2.648-3.76c-.14 0-.26-.05-.36-.15a.503.503 0 01-.15-.37.47.47 0 01.15-.36c.1-.1.22-.15.36-.15.14 0 .26.05.36.15.1.093.15.213.15.36s-.05.27-.15.37c-.1.1-.22.15-.36.15zm.35 1.03V8h-.7V2.54h.7zm2.495.59v3.39c0 .333.064.563.19.69.127.127.35.19.67.19h.64V8h-.75c-.493 0-.86-.113-1.1-.34-.24-.233-.36-.613-.36-1.14V3.13h-.76v-.59h.76V1.17h.71v1.37h1.5v.59h-1.5zm7.155-.59l-3.24 8.03h-.73l1.06-2.6-2.24-5.43h.77l1.86 4.66 1.8-4.66h.72z" fill="#fff"/></svg>