<svg width="118" height="11" viewBox="0 0 118 11" fill="none" xmlns="http://www.w3.org/2000/svg"><path d="M1.489 5.82c-.313 0-.583-.11-.81-.33-.227-.227-.34-.5-.34-.82 0-.327.113-.6.34-.82.227-.227.497-.34.81-.34.327 0 .6.113.82.34.227.22.34.493.34.82 0 .32-.113.593-.34.82-.22.22-.493.33-.82.33zM10.5 1.58v2.61h2.65v.58H10.5v2.65h2.95V8H9.8V1h3.65v.58H10.5zM17.69 8l-1.41-2.2L14.92 8h-.74l1.76-2.73-1.74-2.73h.79l1.39 2.17 1.35-2.17h.73l-1.74 2.7L18.48 8h-.79zm1.419-2.73c0-.567.113-1.06.34-1.48.227-.427.54-.753.94-.98.4-.233.857-.35 1.37-.35.673 0 1.227.167 1.66.5.44.333.723.787.85 1.36h-.75a1.507 1.507 0 00-.61-.92c-.307-.227-.69-.34-1.15-.34-.367 0-.697.083-.99.25a1.778 1.778 0 00-.7.75c-.167.327-.25.73-.25 1.21s.083.887.25 1.22c.173.333.407.583.7.75.293.167.623.25.99.25.46 0 .843-.11 1.15-.33.313-.227.517-.54.61-.94h.75a2.29 2.29 0 01-.85 1.35c-.44.34-.993.51-1.66.51a2.73 2.73 0 01-1.37-.34c-.4-.233-.713-.56-.94-.98-.227-.427-.34-.923-.34-1.49zM26.262.6V8h-.7V.6h.7zm6.315 1.94V8h-.7v-.96c-.16.34-.407.6-.74.78a2.32 2.32 0 01-1.12.27c-.654 0-1.187-.2-1.6-.6-.414-.407-.62-.993-.62-1.76V2.54h.69v3.11c0 .593.147 1.047.44 1.36.3.313.707.47 1.22.47.527 0 .947-.167 1.26-.5.313-.333.47-.823.47-1.47V2.54h.7zm3.478 5.54c-.627 0-1.14-.143-1.54-.43a1.606 1.606 0 01-.66-1.19h.72c.033.307.177.557.43.75.26.187.607.28 1.04.28.38 0 .677-.09.89-.27.22-.18.33-.403.33-.67 0-.187-.06-.34-.18-.46a1.218 1.218 0 00-.46-.28 5.942 5.942 0 00-.74-.23 7.572 7.572 0 01-.99-.32 1.753 1.753 0 01-.65-.47c-.173-.213-.26-.497-.26-.85 0-.267.08-.513.24-.74.16-.227.387-.407.68-.54.293-.133.627-.2 1-.2.587 0 1.06.15 1.42.45.36.293.553.7.58 1.22h-.7a1.04 1.04 0 00-.38-.77c-.227-.2-.54-.3-.94-.3-.353 0-.64.083-.86.25-.22.167-.33.373-.33.62 0 .213.063.39.19.53.133.133.297.24.49.32.193.073.453.157.78.25.393.107.707.21.94.31.233.1.433.247.6.44.167.193.253.45.26.77 0 .293-.08.557-.24.79-.16.227-.383.407-.67.54-.287.133-.617.2-.99.2zm3.568-6.57c-.14 0-.26-.05-.36-.15a.503.503 0 01-.15-.37.47.47 0 01.15-.36c.1-.1.22-.15.36-.15.14 0 .26.05.36.15.1.093.15.213.15.36s-.05.27-.15.37c-.1.1-.22.15-.36.15zm.35 1.03V8h-.7V2.54h.7zm3.525 4.78l1.84-4.78h.74L43.888 8h-.79l-2.19-5.46h.75l1.84 4.78zm8.469-2.33c0 .24-.007.423-.02.55h-4.53c.02.413.12.767.3 1.06.18.293.416.517.71.67.293.147.613.22.96.22.453 0 .833-.11 1.14-.33.313-.22.52-.517.62-.89h.74c-.134.533-.42.97-.86 1.31-.434.333-.98.5-1.64.5-.514 0-.974-.113-1.38-.34a2.513 2.513 0 01-.96-.98c-.227-.427-.34-.923-.34-1.49s.113-1.063.34-1.49c.226-.427.543-.753.95-.98.406-.227.87-.34 1.39-.34.52 0 .973.113 1.36.34.393.227.693.533.9.92.213.38.32.803.32 1.27zm-.71-.02c.006-.407-.077-.753-.25-1.04a1.623 1.623 0 00-.69-.65 2.117 2.117 0 00-.96-.22c-.52 0-.964.167-1.33.5-.367.333-.57.803-.61 1.41h3.84zM56.9 3.13v3.39c0 .333.064.563.19.69.127.127.35.19.67.19h.64V8h-.75c-.493 0-.86-.113-1.1-.34-.24-.233-.36-.613-.36-1.14V3.13h-.76v-.59h.76V1.17h.71v1.37h1.5v.59h-1.5zm3.355.38c.153-.34.386-.603.7-.79.32-.187.71-.28 1.17-.28v.73h-.19c-.507 0-.913.137-1.22.41-.307.273-.46.73-.46 1.37V8h-.7V2.54h.7v.97zm2.603 1.75c0-.56.11-1.05.33-1.47.227-.427.537-.753.93-.98.4-.233.85-.35 1.35-.35.52 0 .967.12 1.34.36.38.24.653.547.82.92v-1.2h.7V8h-.7V6.79c-.173.373-.45.683-.83.93-.373.24-.82.36-1.34.36a2.61 2.61 0 01-1.34-.35 2.47 2.47 0 01-.93-.99c-.22-.427-.33-.92-.33-1.48zm4.77.01c0-.44-.09-.827-.27-1.16a1.916 1.916 0 00-.74-.77 1.978 1.978 0 00-1.02-.27c-.387 0-.733.087-1.04.26-.307.173-.55.427-.73.76-.173.327-.26.717-.26 1.17 0 .447.087.84.26 1.18.18.333.423.59.73.77.307.173.653.26 1.04.26.373 0 .713-.09 1.02-.27.313-.18.56-.437.74-.77.18-.333.27-.72.27-1.16zm1.978-.01c0-.56.113-1.05.34-1.47a2.4 2.4 0 01.93-.98c.4-.233.85-.35 1.35-.35.48 0 .913.117 1.3.35.387.233.67.537.85.91V.6h.7V8h-.7V6.78c-.167.38-.44.693-.82.94-.38.24-.827.36-1.34.36-.5 0-.95-.117-1.35-.35a2.469 2.469 0 01-.93-.99c-.22-.427-.33-.92-.33-1.48zm4.77.01c0-.44-.09-.827-.27-1.16a1.916 1.916 0 00-.74-.77 1.978 1.978 0 00-1.02-.27c-.387 0-.733.087-1.04.26-.307.173-.55.427-.73.76-.173.327-.26.717-.26 1.17 0 .447.087.84.26 1.18.18.333.423.59.73.77.307.173.653.26 1.04.26.373 0 .713-.09 1.02-.27.313-.18.56-.437.74-.77.18-.333.27-.72.27-1.16zm2.648-3.76c-.14 0-.26-.05-.36-.15a.503.503 0 01-.15-.37.47.47 0 01.15-.36c.1-.1.22-.15.36-.15.14 0 .26.05.36.15.1.093.15.213.15.36s-.05.27-.15.37c-.1.1-.22.15-.36.15zm.35 1.03V8h-.7V2.54h.7zm4.145-.1c.654 0 1.187.203 1.6.61.413.4.62.983.62 1.75V8h-.69V4.88c0-.593-.15-1.047-.45-1.36-.293-.313-.697-.47-1.21-.47-.526 0-.947.167-1.26.5-.313.333-.47.823-.47 1.47V8h-.7V2.54h.7v.93c.174-.333.424-.587.75-.76.327-.18.697-.27 1.11-.27zm6.058.02c.514 0 .96.12 1.34.36.38.24.654.543.82.91V2.54h.7v5.6c0 .5-.11.943-.33 1.33a2.185 2.185 0 01-.9.89c-.386.213-.826.32-1.32.32-.7 0-1.283-.167-1.75-.5a2.127 2.127 0 01-.86-1.36h.69c.12.38.347.683.68.91.34.227.754.34 1.24.34.354 0 .67-.077.95-.23.28-.147.5-.367.66-.66.16-.293.24-.64.24-1.04V6.79c-.173.373-.45.683-.83.93-.373.24-.816.36-1.33.36-.5 0-.95-.117-1.35-.35a2.469 2.469 0 01-.93-.99c-.22-.427-.33-.92-.33-1.48 0-.56.11-1.05.33-1.47a2.4 2.4 0 01.93-.98c.4-.233.85-.35 1.35-.35zm2.16 2.81c0-.44-.09-.827-.27-1.16a1.916 1.916 0 00-.74-.77 1.978 1.978 0 00-1.02-.27c-.386 0-.733.087-1.04.26-.306.173-.55.427-.73.76-.173.327-.26.717-.26 1.17 0 .447.087.84.26 1.18.18.333.424.59.73.77.307.173.654.26 1.04.26.374 0 .714-.09 1.02-.27.314-.18.56-.437.74-.77.18-.333.27-.72.27-1.16zm5.953-2.14v3.39c0 .333.063.563.19.69.126.127.35.19.67.19h.64V8h-.75c-.494 0-.86-.113-1.1-.34-.24-.233-.36-.613-.36-1.14V3.13h-.76v-.59h.76V1.17h.71v1.37h1.5v.59h-1.5zm5.044 4.95c-.513 0-.977-.113-1.39-.34a2.585 2.585 0 01-.97-.98c-.233-.427-.35-.923-.35-1.49s.12-1.06.36-1.48c.24-.427.567-.753.98-.98a2.78 2.78 0 011.39-.35c.513 0 .977.117 1.39.35.42.227.747.553.98.98.24.42.36.913.36 1.48 0 .56-.12 1.053-.36 1.48-.24.427-.57.757-.99.99a2.9 2.9 0 01-1.4.34zm0-.61c.36 0 .693-.08 1-.24a1.88 1.88 0 00.74-.74c.193-.333.29-.74.29-1.22s-.093-.883-.28-1.21a1.798 1.798 0 00-.74-.74 2.062 2.062 0 00-1-.25c-.36 0-.693.083-1 .25-.307.16-.553.407-.74.74-.18.327-.27.73-.27 1.21s.09.887.27 1.22c.187.327.43.573.73.74.307.16.64.24 1 .24zm6.416.61c-.513 0-.977-.113-1.39-.34a2.582 2.582 0 01-.97-.98c-.233-.427-.35-.923-.35-1.49s.12-1.06.36-1.48c.24-.427.567-.753.98-.98.413-.233.877-.35 1.39-.35.513 0 .977.117 1.39.35.42.227.747.553.98.98.24.42.36.913.36 1.48 0 .56-.12 1.053-.36 1.48-.24.427-.57.757-.99.99a2.9 2.9 0 01-1.4.34zm0-.61c.36 0 .693-.08 1-.24a1.88 1.88 0 00.74-.74c.193-.333.29-.74.29-1.22s-.093-.883-.28-1.21a1.798 1.798 0 00-.74-.74 2.062 2.062 0 00-1-.25c-.36 0-.693.083-1 .25-.307.16-.553.407-.74.74-.18.327-.27.73-.27 1.21s.09.887.27 1.22c.187.327.43.573.73.74.307.16.64.24 1 .24zM111.877.6V8h-.7V.6h.7zm3.465 7.48c-.627 0-1.14-.143-1.54-.43a1.608 1.608 0 01-.66-1.19h.72c.033.307.177.557.43.75.26.187.607.28 1.04.28.38 0 .677-.09.89-.27.22-.18.33-.403.33-.67 0-.187-.06-.34-.18-.46a1.216 1.216 0 00-.46-.28 5.958 5.958 0 00-.74-.23 7.542 7.542 0 01-.99-.32 1.755 1.755 0 01-.65-.47c-.173-.213-.26-.497-.26-.85 0-.267.08-.513.24-.74a1.64 1.64 0 01.68-.54c.293-.133.627-.2 1-.2.587 0 1.06.15 1.42.45.36.293.553.7.58 1.22h-.7a1.04 1.04 0 00-.38-.77c-.227-.2-.54-.3-.94-.3-.353 0-.64.083-.86.25-.22.167-.33.373-.33.62 0 .213.063.39.19.53.133.133.297.24.49.32.193.073.453.157.78.25.393.107.707.21.94.31.233.1.433.247.6.44.167.193.253.45.26.77 0 .293-.08.557-.24.79-.16.227-.383.407-.67.54-.287.133-.617.2-.99.2z" fill="#fff"/></svg>