<svg width="111" height="25" viewBox="0 0 111 25" fill="none" xmlns="http://www.w3.org/2000/svg"><rect width="111" height="25" rx="12.5" fill="#14964F"/><path d="M11.305 8.355V16h3.838v-1.012h-2.585V8.355h-1.253zm10.662 4.609c0-1.903-1.364-3.124-3.09-3.124-1.728 0-3.092 1.221-3.092 3.124s1.31 3.135 3.036 3.135c1.738 0 3.146-1.232 3.146-3.135zm-4.906 0c0-1.375.847-2.035 1.793-2.035.935 0 1.826.66 1.826 2.035s-.924 2.046-1.859 2.046c-.946 0-1.76-.671-1.76-2.046zm5.728-.022c0 1.87 1.265 3.157 2.86 3.157.99 0 1.716-.495 2.1-1.012v1.012c0 1.21-.725 1.804-1.693 1.804-.87 0-1.54-.429-1.727-1.056h-1.243c.154 1.342 1.353 2.145 2.97 2.145 1.892 0 2.959-1.243 2.959-2.893v-6.16H27.75v.88c-.374-.517-1.111-.979-2.101-.979-1.595 0-2.86 1.232-2.86 3.102zm4.96.022c0 1.309-.89 2.046-1.836 2.046-.935 0-1.837-.759-1.837-2.068 0-1.309.902-2.013 1.837-2.013.946 0 1.837.737 1.837 2.035zM33.52 16h1.254V9.939H33.52V16zm.638-6.864c.44 0 .792-.352.792-.803a.791.791 0 00-.792-.803.794.794 0 00-.803.803c0 .451.352.803.803.803zM40.721 16h1.243v-3.575c0-1.694-1.067-2.585-2.486-2.585-.726 0-1.397.297-1.804.792v-.693H36.42V16h1.254v-3.388c0-1.111.605-1.683 1.529-1.683.913 0 1.518.572 1.518 1.683V16zm5.282-3.058c0 1.87 1.265 3.157 2.838 3.157 1.012 0 1.738-.484 2.123-1.001V16h1.265V9.939h-1.265v.88c-.374-.495-1.078-.979-2.101-.979-1.595 0-2.86 1.232-2.86 3.102zm4.96.022c0 1.309-.89 2.046-1.836 2.046-.935 0-1.837-.759-1.837-2.068 0-1.309.902-2.013 1.837-2.013.946 0 1.837.737 1.837 2.035zM58.178 16h1.243v-3.575c0-1.694-1.067-2.585-2.486-2.585-.726 0-1.397.297-1.804.792v-.693h-1.254V16h1.254v-3.388c0-1.111.605-1.683 1.529-1.683.913 0 1.518.572 1.518 1.683V16zm2.424-3.058c0 1.87 1.265 3.157 2.86 3.157.99 0 1.716-.462 2.101-1.012V16h1.265V7.86h-1.265v2.926c-.462-.572-1.298-.946-2.09-.946-1.606 0-2.87 1.232-2.87 3.102zm4.961.022c0 1.309-.89 2.046-1.837 2.046-.935 0-1.837-.759-1.837-2.068 0-1.309.902-2.013 1.837-2.013.946 0 1.837.737 1.837 2.035zm5.968 1.353c0 1.232.67 1.683 1.749 1.683h.99v-1.045h-.77c-.528 0-.704-.187-.704-.638v-3.355h1.474V9.939h-1.474V8.432H71.53v1.507h-.715v1.023h.715v3.355zm5.149-1.507c0-1.287.572-1.672 1.496-1.672h.319V9.84c-.858 0-1.463.374-1.815.979v-.88h-1.254V16h1.254v-3.19zm2.55.132c0 1.87 1.264 3.157 2.837 3.157 1.012 0 1.738-.484 2.123-1.001V16h1.265V9.939H84.19v.88c-.374-.495-1.078-.979-2.1-.979-1.596 0-2.86 1.232-2.86 3.102zm4.96.022c0 1.309-.89 2.046-1.837 2.046-.935 0-1.837-.759-1.837-2.068 0-1.309.902-2.013 1.837-2.013.946 0 1.837.737 1.837 2.035zm2.494-.022c0 1.87 1.265 3.157 2.86 3.157.99 0 1.716-.462 2.101-1.012V16h1.265V7.86h-1.265v2.926c-.462-.572-1.298-.946-2.09-.946-1.606 0-2.87 1.232-2.87 3.102zm4.961.022c0 1.309-.89 2.046-1.837 2.046-.935 0-1.837-.759-1.837-2.068 0-1.309.902-2.013 1.837-2.013.946 0 1.837.737 1.837 2.035zm5.464-2.068c.935 0 1.672.594 1.694 1.529h-3.355c.132-.957.814-1.529 1.661-1.529zm2.838 3.3h-1.353c-.23.473-.66.847-1.43.847-.924 0-1.639-.605-1.727-1.606h4.631c.033-.209.044-.407.044-.616 0-1.782-1.22-2.981-2.948-2.981-1.793 0-3.025 1.221-3.025 3.124s1.287 3.135 3.025 3.135c1.485 0 2.442-.847 2.783-1.903z" fill="#fff"/></svg>