<svg width="68" height="17" viewBox="0 0 68 17" fill="none" xmlns="http://www.w3.org/2000/svg"><rect width="68" height="17" rx="8.5" fill="#14964F"/><path d="M5.876 6.135V11h2.443v-.644H6.674V6.135h-.798zm6.785 2.933c0-1.211-.868-1.988-1.967-1.988-1.1 0-1.967.777-1.967 1.988 0 1.211.833 1.995 1.932 1.995 1.106 0 2.002-.784 2.002-1.995zm-3.122 0c0-.875.539-1.295 1.14-1.295.596 0 1.163.42 1.163 1.295s-.588 1.302-1.183 1.302c-.602 0-1.12-.427-1.12-1.302zm3.645-.014c0 1.19.805 2.009 1.82 2.009.63 0 1.092-.315 1.337-.644v.644c0 .77-.462 1.148-1.078 1.148-.553 0-.98-.273-1.1-.672h-.79c.098.854.86 1.365 1.89 1.365 1.204 0 1.883-.791 1.883-1.841v-3.92h-.805v.56c-.238-.329-.707-.623-1.337-.623-1.015 0-1.82.784-1.82 1.974zm3.157.014c0 .833-.567 1.302-1.17 1.302-.594 0-1.168-.483-1.168-1.316 0-.833.574-1.281 1.169-1.281.602 0 1.169.469 1.169 1.295zM20.012 11h.798V7.143h-.798V11zm.406-4.368c.28 0 .504-.224.504-.511a.503.503 0 00-.504-.511.505.505 0 00-.51.511c0 .287.223.511.51.511zM24.595 11h.791V8.725c0-1.078-.679-1.645-1.582-1.645-.462 0-.889.189-1.148.504v-.441h-.798V11h.798V8.844c0-.707.385-1.071.973-1.071.581 0 .966.364.966 1.071V11zm3.361-1.946c0 1.19.805 2.009 1.806 2.009.644 0 1.106-.308 1.351-.637V11h.805V7.143h-.805v.56c-.238-.315-.686-.623-1.337-.623-1.015 0-1.82.784-1.82 1.974zm3.157.014c0 .833-.567 1.302-1.169 1.302-.595 0-1.169-.483-1.169-1.316 0-.833.574-1.281 1.17-1.281.601 0 1.168.469 1.168 1.295zM35.703 11h.791V8.725c0-1.078-.679-1.645-1.582-1.645-.462 0-.889.189-1.148.504v-.441h-.798V11h.798V8.844c0-.707.385-1.071.973-1.071.581 0 .966.364.966 1.071V11zm1.543-1.946c0 1.19.805 2.009 1.82 2.009.63 0 1.092-.294 1.337-.644V11h.805V5.82h-.805v1.862c-.294-.364-.826-.602-1.33-.602-1.022 0-1.827.784-1.827 1.974zm3.157.014c0 .833-.567 1.302-1.169 1.302-.595 0-1.169-.483-1.169-1.316 0-.833.574-1.281 1.17-1.281.601 0 1.168.469 1.168 1.295zm3.798.861c0 .784.427 1.071 1.113 1.071h.63v-.665h-.49c-.336 0-.448-.119-.448-.406V7.794h.938v-.651h-.938v-.959H44.2v.959h-.455v.651h.455v2.135zm3.276-.959c0-.819.364-1.064.952-1.064h.203V7.08c-.546 0-.93.238-1.155.623v-.56h-.798V11h.798V8.97zm1.623.084c0 1.19.805 2.009 1.806 2.009.644 0 1.106-.308 1.35-.637V11h.806V7.143h-.805v.56c-.238-.315-.686-.623-1.337-.623-1.015 0-1.82.784-1.82 1.974zm3.157.014c0 .833-.567 1.302-1.17 1.302-.594 0-1.168-.483-1.168-1.316 0-.833.574-1.281 1.169-1.281.602 0 1.169.469 1.169 1.295zm1.587-.014c0 1.19.805 2.009 1.82 2.009.63 0 1.092-.294 1.337-.644V11h.805V5.82h-.805v1.862c-.294-.364-.826-.602-1.33-.602-1.022 0-1.827.784-1.827 1.974zm3.157.014c0 .833-.567 1.302-1.169 1.302-.595 0-1.169-.483-1.169-1.316 0-.833.574-1.281 1.169-1.281.602 0 1.169.469 1.169 1.295zm3.477-1.316c.595 0 1.064.378 1.078.973h-2.135c.084-.609.518-.973 1.057-.973zm1.806 2.1h-.86c-.148.301-.42.539-.91.539-.589 0-1.044-.385-1.1-1.022h2.947c.021-.133.028-.259.028-.392 0-1.134-.777-1.897-1.876-1.897-1.14 0-1.925.777-1.925 1.988 0 1.211.82 1.995 1.925 1.995.945 0 1.554-.539 1.771-1.211z" fill="#fff"/></svg>