<svg width="145" height="25" viewBox="0 0 145 25" fill="none" xmlns="http://www.w3.org/2000/svg"><path d="M.39 3.98h1.86V10h1.14V3.98h1.85v-.93H.39v.93zM7.535 7.1c0-1.17.52-1.52 1.36-1.52h.29V4.4c-.78 0-1.33.34-1.65.89v-.8h-1.14V10h1.14V7.1zm2.317.12c0 1.7 1.15 2.87 2.58 2.87.92 0 1.58-.44 1.93-.91V10h1.15V4.49h-1.15v.8c-.34-.45-.98-.89-1.91-.89-1.45 0-2.6 1.12-2.6 2.82zm4.51.02c0 1.19-.81 1.86-1.67 1.86-.85 0-1.67-.69-1.67-1.88s.82-1.83 1.67-1.83c.86 0 1.67.67 1.67 1.85zm2.268-.02c0 1.7 1.15 2.87 2.6 2.87.9 0 1.56-.42 1.91-.92V10h1.15V2.6h-1.15v2.66c-.42-.52-1.18-.86-1.9-.86-1.46 0-2.61 1.12-2.61 2.82zm4.51.02c0 1.19-.81 1.86-1.67 1.86-.85 0-1.67-.69-1.67-1.88s.82-1.83 1.67-1.83c.86 0 1.67.67 1.67 1.85zm4.967-1.88c.85 0 1.52.54 1.54 1.39h-3.05c.12-.87.74-1.39 1.51-1.39zm2.58 3h-1.23c-.21.43-.6.77-1.3.77-.84 0-1.49-.55-1.57-1.46h4.21c.03-.19.04-.37.04-.56 0-1.62-1.11-2.71-2.68-2.71-1.63 0-2.75 1.11-2.75 2.84 0 1.73 1.17 2.85 2.75 2.85 1.35 0 2.22-.77 2.53-1.73zm7.71-5.32h-3.84V10h3.84v-.93h-2.7V6.94h2.4v-.93h-2.4V3.97h2.7v-.93zm1.394 4.42c0 1.77 1.24 2.61 2.7 2.61 1.45 0 2.73-.84 2.73-2.61V3.05h-1.14v4.43c0 1.08-.61 1.59-1.58 1.59-.96 0-1.57-.51-1.57-1.59V3.05h-1.14v4.41zm10.604-2.33c0 .69-.4 1.18-1.29 1.18h-1.26V3.98h1.26c.89 0 1.29.45 1.29 1.15zm-3.69-2.08V10h1.14V7.22h.87l1.6 2.78h1.36l-1.72-2.88c1.17-.29 1.61-1.17 1.61-1.99 0-1.13-.81-2.08-2.46-2.08h-2.4zm6.178 8.7h1.12L54.723.56h-1.13l-2.71 11.19zm5.267-4.29c0 1.77 1.24 2.61 2.7 2.61 1.45 0 2.73-.84 2.73-2.61V3.05h-1.14v4.43c0 1.08-.61 1.59-1.58 1.59-.96 0-1.57-.51-1.57-1.59V3.05h-1.14v4.41zm11.604.57c0-2.54-3.68-1.56-3.68-3.13 0-.67.51-.99 1.17-.97.72.02 1.13.45 1.17.92h1.26c-.1-1.19-1.04-1.89-2.37-1.89-1.42 0-2.39.76-2.39 1.98 0 2.56 3.69 1.47 3.69 3.15 0 .59-.45 1.02-1.25 1.02-.79 0-1.19-.46-1.24-1.03h-1.22c0 1.23 1.07 1.99 2.46 1.99 1.55 0 2.4-1 2.4-2.04zm3.616-4.98H69.1V10h2.27c2.23 0 3.69-1.31 3.69-3.45 0-2.15-1.46-3.5-3.69-3.5zm-1.13 6.02V3.98h1.13c1.64 0 2.52.98 2.52 2.57 0 1.58-.88 2.52-2.52 2.52h-1.13zm9.617.93h1.2l1.11-4.07 1.11 4.07h1.2l1.71-5.51h-1.12l-1.14 4.41-1.12-4.41h-1.19l-1.17 4.43-1.15-4.43h-1.16l1.72 5.51zm7.182 0h1.14V4.49h-1.14V10zm.58-6.24c.4 0 .72-.32.72-.73a.72.72 0 00-.72-.73c-.41 0-.73.32-.73.73s.32.73.73.73zm2.237 4.71c0 1.12.61 1.53 1.59 1.53h.9v-.95h-.7c-.48 0-.64-.17-.64-.58V5.42h1.34v-.93h-1.34V3.12h-1.15v1.37h-.65v.93h.65v3.05zm3.54 1.53h1.14V6.92c0-1.01.55-1.53 1.39-1.53.83 0 1.38.52 1.38 1.53V10h1.13V6.75c0-1.54-.96-2.35-2.19-2.35-.71 0-1.33.27-1.71.73V2.6h-1.14V10zm9.092 0h1.14V2.6h-1.14V10zm7.887-2.76c0-1.73-1.24-2.84-2.81-2.84s-2.81 1.11-2.81 2.84c0 1.73 1.19 2.85 2.76 2.85 1.58 0 2.86-1.12 2.86-2.85zm-4.46 0c0-1.25.77-1.85 1.63-1.85.85 0 1.66.6 1.66 1.85s-.84 1.86-1.69 1.86c-.86 0-1.6-.61-1.6-1.86zm6.657 2.76h1.2l1.11-4.07 1.11 4.07h1.2l1.71-5.51h-1.12l-1.14 4.41-1.12-4.41h-1.19l-1.17 4.43-1.15-4.43h-1.16l1.72 5.51zM4.86 20.46c-.06-1.99-3.17-1.37-3.17-2.48 0-.37.32-.62.93-.62.62 0 .99.33 1.03.81h1.14c-.06-1.1-.88-1.77-2.13-1.77-1.3 0-2.12.71-2.12 1.59 0 2.02 3.2 1.4 3.2 2.48 0 .38-.35.66-1.01.66-.63 0-1.06-.37-1.1-.82H.45c.05 1 .98 1.78 2.3 1.78 1.3 0 2.11-.7 2.11-1.63zm2.372-3.16v-.81h-1.14v8.13h1.14V21.2c.36.43 1.01.89 1.92.89 1.45 0 2.59-1.17 2.59-2.87 0-1.7-1.14-2.82-2.59-2.82-.9 0-1.57.44-1.92.9zm3.35 1.92c0 1.19-.82 1.88-1.68 1.88-.85 0-1.67-.67-1.67-1.86 0-1.18.82-1.85 1.67-1.85.86 0 1.68.64 1.68 1.83zm3.427-.12c0-1.17.52-1.52 1.36-1.52h.29V16.4c-.78 0-1.33.34-1.65.89v-.8h-1.14V22h1.14v-2.9zm5.018-1.74c.85 0 1.52.54 1.54 1.39h-3.05c.12-.87.74-1.39 1.51-1.39zm2.58 3h-1.23c-.21.43-.6.77-1.3.77-.84 0-1.49-.55-1.57-1.46h4.21c.03-.19.04-.37.04-.56 0-1.62-1.11-2.71-2.68-2.71-1.63 0-2.75 1.11-2.75 2.84 0 1.73 1.17 2.85 2.75 2.85 1.35 0 2.22-.77 2.53-1.73zm.892-1.14c0 1.7 1.15 2.87 2.58 2.87.92 0 1.58-.44 1.93-.91V22h1.15v-5.51h-1.15v.8c-.34-.45-.98-.89-1.91-.89-1.45 0-2.6 1.12-2.6 2.82zm4.51.02c0 1.19-.81 1.86-1.67 1.86-.85 0-1.67-.69-1.67-1.88s.82-1.83 1.67-1.83c.86 0 1.67.67 1.67 1.85zm2.267-.02c0 1.7 1.15 2.87 2.6 2.87.9 0 1.56-.42 1.91-.92V22h1.15v-7.4h-1.15v2.66c-.42-.52-1.18-.86-1.9-.86-1.46 0-2.61 1.12-2.61 2.82zm4.51.02c0 1.19-.81 1.86-1.67 1.86-.85 0-1.67-.69-1.67-1.88s.82-1.83 1.67-1.83c.86 0 1.67.67 1.67 1.85zm6.758 1.22c-.06-1.99-3.17-1.37-3.17-2.48 0-.37.32-.62.93-.62.62 0 .99.33 1.03.81h1.14c-.06-1.1-.88-1.77-2.13-1.77-1.3 0-2.12.71-2.12 1.59 0 2.02 3.2 1.4 3.2 2.48 0 .38-.35.66-1.01.66-.63 0-1.06-.37-1.1-.82h-1.18c.05 1 .98 1.78 2.3 1.78 1.3 0 2.11-.7 2.11-1.63zm3.449-1.24c0 1.7 1.15 2.87 2.58 2.87.92 0 1.58-.44 1.93-.91V22h1.15v-5.51h-1.15v.8c-.34-.45-.98-.89-1.91-.89-1.45 0-2.6 1.12-2.6 2.82zm4.51.02c0 1.19-.81 1.86-1.67 1.86-.85 0-1.67-.69-1.67-1.88s.82-1.83 1.67-1.83c.86 0 1.67.67 1.67 1.85zM55.06 22h1.13v-3.25c0-1.54-.97-2.35-2.26-2.35-.66 0-1.27.27-1.64.72v-.63h-1.14V22h1.14v-3.08c0-1.01.55-1.53 1.39-1.53.83 0 1.38.52 1.38 1.53V22zm2.204-2.78c0 1.7 1.15 2.87 2.6 2.87.9 0 1.56-.42 1.91-.92V22h1.15v-7.4h-1.15v2.66c-.42-.52-1.18-.86-1.9-.86-1.46 0-2.61 1.12-2.61 2.82zm4.51.02c0 1.19-.81 1.86-1.67 1.86-.85 0-1.67-.69-1.67-1.88s.82-1.83 1.67-1.83c.86 0 1.67.67 1.67 1.85zm5.096-.98c0 2.12.56 3.72 2.6 3.72s2.6-1.6 2.6-3.72c0-2.08-.56-3.68-2.6-3.68s-2.6 1.6-2.6 3.68zm4.08 0c0 1.43-.15 2.68-1.48 2.68s-1.48-1.25-1.48-2.68c0-1.36.15-2.64 1.48-2.64s1.48 1.28 1.48 2.64zm2.146-1.79c0 1 .65 1.57 1.52 1.57s1.52-.57 1.52-1.57c0-.99-.65-1.56-1.52-1.56s-1.52.57-1.52 1.56zm1.52-.87c.38 0 .63.25.63.87s-.25.88-.63.88c-.39 0-.63-.26-.63-.88s.24-.87.63-.87zm-.53 6.4h1.12l3.99-6.96h-1.12L74.086 22zm3.08-1.44c0 1 .65 1.57 1.52 1.57.86 0 1.51-.57 1.51-1.57s-.65-1.56-1.51-1.56c-.87 0-1.52.56-1.52 1.56zm1.51-.87c.38 0 .63.25.63.87s-.25.87-.63.87-.63-.25-.63-.87.25-.87.63-.87zm4.907-.45c0 1.73 1.12 2.85 2.7 2.85 1.35 0 2.23-.75 2.54-1.83h-1.23c-.21.57-.63.87-1.31.87-.92 0-1.53-.68-1.53-1.89 0-1.2.61-1.88 1.53-1.88.68 0 1.12.34 1.31.87h1.23c-.31-1.16-1.19-1.83-2.54-1.83-1.58 0-2.7 1.12-2.7 2.84zm11.626 0c0-1.73-1.24-2.84-2.81-2.84s-2.81 1.11-2.81 2.84c0 1.73 1.19 2.85 2.76 2.85 1.58 0 2.86-1.12 2.86-2.85zm-4.46 0c0-1.25.77-1.85 1.63-1.85.85 0 1.66.6 1.66 1.85s-.84 1.86-1.69 1.86c-.86 0-1.6-.61-1.6-1.86zM104.146 22h1.13v-3.25c0-1.54-.98-2.35-2.27-2.35-.8 0-1.58.42-1.92 1.09-.38-.72-1.11-1.09-1.98-1.09-.66 0-1.26.27-1.63.72v-.63h-1.14V22h1.14v-3.08c0-1.01.55-1.53 1.39-1.53.83 0 1.38.52 1.38 1.53V22h1.13v-3.08c0-1.01.55-1.53 1.39-1.53.83 0 1.38.52 1.38 1.53V22zm10.391 0h1.13v-3.25c0-1.54-.98-2.35-2.27-2.35-.8 0-1.58.42-1.92 1.09-.38-.72-1.11-1.09-1.98-1.09-.66 0-1.26.27-1.63.72v-.63h-1.14V22h1.14v-3.08c0-1.01.55-1.53 1.39-1.53.83 0 1.38.52 1.38 1.53V22h1.13v-3.08c0-1.01.55-1.53 1.39-1.53.83 0 1.38.52 1.38 1.53V22zm2.58 0h1.14v-5.51h-1.14V22zm.58-6.24c.4 0 .72-.32.72-.73a.72.72 0 00-.72-.73c-.41 0-.73.32-.73.73s.32.73.73.73zm6.167 4.7c-.06-1.99-3.17-1.37-3.17-2.48 0-.37.32-.62.93-.62.62 0 .99.33 1.03.81h1.14c-.06-1.1-.88-1.77-2.13-1.77-1.3 0-2.12.71-2.12 1.59 0 2.02 3.2 1.4 3.2 2.48 0 .38-.35.66-1.01.66-.63 0-1.06-.37-1.1-.82h-1.18c.05 1 .98 1.78 2.3 1.78 1.3 0 2.11-.7 2.11-1.63zm5.342 0c-.06-1.99-3.17-1.37-3.17-2.48 0-.37.32-.62.93-.62.62 0 .99.33 1.03.81h1.14c-.06-1.1-.88-1.77-2.13-1.77-1.3 0-2.12.71-2.12 1.59 0 2.02 3.2 1.4 3.2 2.48 0 .38-.35.66-1.01.66-.63 0-1.06-.37-1.1-.82h-1.18c.05 1 .98 1.78 2.3 1.78 1.3 0 2.11-.7 2.11-1.63zm1.232 1.54h1.14v-5.51h-1.14V22zm.58-6.24c.4 0 .72-.32.72-.73a.72.72 0 00-.72-.73c-.41 0-.73.32-.73.73s.32.73.73.73zm7.306 3.48c0-1.73-1.24-2.84-2.81-2.84s-2.81 1.11-2.81 2.84c0 1.73 1.19 2.85 2.76 2.85 1.58 0 2.86-1.12 2.86-2.85zm-4.46 0c0-1.25.77-1.85 1.63-1.85.85 0 1.66.6 1.66 1.85s-.84 1.86-1.69 1.86c-.86 0-1.6-.61-1.6-1.86zm9.497 2.76h1.13v-3.25c0-1.54-.97-2.35-2.26-2.35-.66 0-1.27.27-1.64.72v-.63h-1.14V22h1.14v-3.08c0-1.01.55-1.53 1.39-1.53.83 0 1.38.52 1.38 1.53V22z" fill="#fff"/></svg>