<svg width="88" height="24" viewBox="0 0 88 24" fill="none" xmlns="http://www.w3.org/2000/svg"><rect width="88" height="24" rx="12" fill="#14964F"/><path d="M12.71 8.776h2.232V16h1.368V8.776h2.22V7.66h-5.82v1.116zm8.574 3.744c0-1.404.624-1.824 1.632-1.824h.348V9.28c-.936 0-1.596.408-1.98 1.068v-.96h-1.368V16h1.368v-3.48zm2.781.144c0 2.04 1.38 3.444 3.096 3.444 1.104 0 1.896-.528 2.316-1.092V16h1.38V9.388h-1.38v.96c-.408-.54-1.176-1.068-2.292-1.068-1.74 0-3.12 1.344-3.12 3.384zm5.412.024c0 1.428-.972 2.232-2.004 2.232-1.02 0-2.004-.828-2.004-2.256s.984-2.196 2.004-2.196c1.032 0 2.004.804 2.004 2.22zm2.72-.024c0 2.04 1.38 3.444 3.12 3.444 1.08 0 1.873-.504 2.293-1.104V16h1.38V7.12h-1.38v3.192c-.504-.624-1.416-1.032-2.28-1.032-1.752 0-3.132 1.344-3.132 3.384zm5.413.024c0 1.428-.972 2.232-2.004 2.232-1.02 0-2.004-.828-2.004-2.256s.984-2.196 2.004-2.196c1.032 0 2.004.804 2.004 2.22zm5.96-2.256c1.02 0 1.825.648 1.849 1.668h-3.66c.144-1.044.888-1.668 1.812-1.668zm3.097 3.6H45.19c-.252.516-.72.924-1.56.924-1.008 0-1.788-.66-1.884-1.752h5.052a4.22 4.22 0 00.048-.672c0-1.944-1.332-3.252-3.216-3.252-1.956 0-3.3 1.332-3.3 3.408 0 2.076 1.404 3.42 3.3 3.42 1.62 0 2.664-.924 3.036-2.076zM56.002 16h1.356v-3.9c0-1.848-1.164-2.82-2.712-2.82-.792 0-1.524.324-1.968.864v-.756H51.31V16h1.368v-3.696c0-1.212.66-1.836 1.668-1.836.996 0 1.656.624 1.656 1.836V16zm9.401-3.312c0-2.076-1.488-3.408-3.372-3.408s-3.372 1.332-3.372 3.408c0 2.076 1.428 3.42 3.312 3.42 1.896 0 3.432-1.344 3.432-3.42zm-5.352 0c0-1.5.924-2.22 1.956-2.22 1.02 0 1.992.72 1.992 2.22 0 1.5-1.008 2.232-2.028 2.232-1.032 0-1.92-.732-1.92-2.232zM68.04 16h1.44l1.331-4.884L72.143 16h1.44l2.052-6.612h-1.344l-1.367 5.292-1.345-5.292h-1.427l-1.404 5.316-1.38-5.316h-1.392L68.04 16z" fill="#fff"/></svg>