<svg width="91" height="90" viewBox="0 0 91 90" fill="none" xmlns="http://www.w3.org/2000/svg"><path fill="#fff" d="M0 0h91v90H0z"/><path d="M10.24 11.023v.547L8.668 16H7.656l1.58-4.18H7.231v-.797h3.008zm2.748-.01V16h-.957v-3.811l-.95.366v-.8l1.805-.742h.102zm1.528 4.498c0-.15.05-.275.15-.376a.543.543 0 01.407-.154c.171 0 .307.052.407.154.1.1.15.226.15.376a.51.51 0 01-.15.376.55.55 0 01-.407.15.55.55 0 01-.407-.15.51.51 0 01-.15-.376zm4.105-4.542h.127v.813h-.045c-.216 0-.405.038-.567.113-.16.073-.293.18-.4.321a1.443 1.443 0 00-.236.506 2.554 2.554 0 00-.079.66v.837c0 .173.012.326.035.458.025.132.06.243.105.332a.569.569 0 00.165.195.364.364 0 00.42-.004.58.58 0 00.164-.188c.046-.082.08-.178.103-.287.025-.11.037-.229.037-.359 0-.132-.012-.253-.037-.362a1.037 1.037 0 00-.106-.284.521.521 0 00-.168-.188.362.362 0 00-.215-.068.44.44 0 00-.297.106.652.652 0 00-.188.266 1 1 0 00-.072.339l-.287-.205c.009-.174.04-.336.095-.489.057-.155.135-.294.233-.417a1.04 1.04 0 01.352-.287.99.99 0 01.461-.106.99.99 0 01.52.133c.148.09.27.211.369.366.1.155.174.335.222.54.05.203.075.42.075.65 0 .24-.034.465-.102.673a1.704 1.704 0 01-.29.543 1.316 1.316 0 01-1.06.492c-.228 0-.434-.048-.62-.143a1.405 1.405 0 01-.47-.407 1.961 1.961 0 01-.298-.629 2.93 2.93 0 01-.103-.8v-.386c0-.4.047-.768.14-1.1a2.6 2.6 0 01.414-.869c.185-.243.41-.431.677-.564.269-.134.578-.201.926-.201zm1.374 1.275v-.264c0-.189.034-.36.103-.516a.887.887 0 01.31-.372.905.905 0 01.517-.14c.207 0 .38.046.52.14a.833.833 0 01.307.372c.068.155.103.327.103.516v.264c0 .184-.035.354-.103.509a.856.856 0 01-.311.373.888.888 0 01-.513.14.905.905 0 01-.516-.14.878.878 0 01-.314-.373 1.247 1.247 0 01-.103-.51zm.626-.264v.264c0 .077.011.151.034.222a.402.402 0 00.102.167.246.246 0 00.171.062c.069 0 .124-.02.168-.062a.39.39 0 00.095-.167.719.719 0 00.035-.222v-.264a.709.709 0 00-.035-.225.35.35 0 00-.099-.168.238.238 0 00-.17-.064.238.238 0 00-.172.064.39.39 0 00-.099.168.782.782 0 00-.03.225zm1.34 3.066v-.266c0-.187.035-.358.105-.513a.888.888 0 01.311-.372.898.898 0 01.513-.14c.21 0 .383.046.52.14.136.093.239.217.307.372.07.155.106.326.106.513v.266c0 .187-.034.358-.102.513a.86.86 0 01-.311.37.889.889 0 01-.513.14.922.922 0 01-.52-.14.879.879 0 01-.314-.373 1.247 1.247 0 01-.103-.51zm.625-.266v.263c0 .08.014.155.041.226a.466.466 0 00.11.167.24.24 0 00.16.062c.082 0 .145-.02.188-.062a.319.319 0 00.085-.167 1.02 1.02 0 00.024-.226v-.26a.713.713 0 00-.034-.225.352.352 0 00-.099-.168.227.227 0 00-.167-.065.243.243 0 00-.175.065.375.375 0 00-.102.168.77.77 0 00-.031.222zm.557-3.042l-2.04 3.89-.459-.26 2.041-3.89.458.26zm2.847 2.54v-.25c0-.29.034-.546.103-.77.07-.222.17-.41.3-.56.13-.152.287-.268.469-.345.184-.08.39-.12.619-.12.23 0 .436.04.618.12.185.078.342.193.472.345.132.15.233.338.304.56.07.224.106.48.106.77v.25c0 .287-.035.542-.106.765-.07.223-.172.411-.304.564-.13.153-.286.268-.469.345a1.558 1.558 0 01-.615.116c-.228 0-.434-.038-.618-.116a1.277 1.277 0 01-.472-.345 1.573 1.573 0 01-.304-.564 2.615 2.615 0 01-.103-.766zm.957-.25v.25c0 .17.012.318.034.444.025.125.06.229.106.31a.489.489 0 00.171.182.445.445 0 00.23.058c.086 0 .163-.02.232-.058a.433.433 0 00.167-.181.96.96 0 00.1-.311c.022-.126.034-.274.034-.445v-.25a2.25 2.25 0 00-.038-.437 1.034 1.034 0 00-.106-.31.481.481 0 00-.17-.185.402.402 0 00-.227-.065.402.402 0 00-.225.065.532.532 0 00-.168.184c-.045.08-.08.184-.106.311a2.48 2.48 0 00-.034.438zM30.772 16h-.96v-4.02c0-.284.048-.523.146-.714.099-.191.236-.337.414-.437.18-.1.393-.15.64-.15a1.592 1.592 0 01.438.068l-.011.762a.58.58 0 00-.107-.02 1.166 1.166 0 00-.13-.008c-.09 0-.17.02-.235.059a.377.377 0 00-.147.167.684.684 0 00-.048.273V16zm.578-3.698v.72h-1.99v-.72h1.99zm3.103.824V16h-.957v-3.698h.902l.055.824zm.872-.852l-.014.954a2.103 2.103 0 00-.314-.027.658.658 0 00-.274.051.455.455 0 00-.188.147.681.681 0 00-.11.24 1.51 1.51 0 00-.044.324l-.18-.068c0-.242.017-.463.054-.664.039-.202.096-.378.17-.526.076-.15.166-.267.27-.349a.58.58 0 01.363-.123c.046 0 .093.005.144.014a.554.554 0 01.123.027zm1.91 3.794a1.82 1.82 0 01-.673-.116 1.331 1.331 0 01-.492-.335 1.499 1.499 0 01-.308-.536 2.245 2.245 0 01-.106-.718v-.304c0-.301.034-.564.103-.79a1.66 1.66 0 01.29-.574c.126-.155.28-.27.462-.345.184-.078.393-.117.625-.117.233 0 .437.04.612.117.178.075.325.189.441.341.116.15.204.338.263.561.06.223.089.483.089.78v.437h-2.478v-.674h1.538v-.085c0-.15-.016-.276-.048-.376a.431.431 0 00-.15-.229.452.452 0 00-.274-.075.473.473 0 00-.242.058.399.399 0 00-.157.181c-.04.082-.068.19-.086.321-.018.13-.027.286-.027.469v.304c0 .17.015.314.044.43.03.114.073.208.13.28.06.071.131.123.215.154a1.115 1.115 0 00.749-.044c.137-.061.253-.145.349-.25l.382.582a1.492 1.492 0 01-.69.472 1.749 1.749 0 01-.56.081zm3.473-3.766v.72h-1.887v-.72h1.887zm-1.453-.913h.954v3.483c0 .103.01.181.03.236a.21.21 0 00.093.116c.043.02.1.03.17.03a.64.64 0 00.226-.027v.75c-.075.029-.154.052-.239.067a1.56 1.56 0 01-.294.024c-.191 0-.357-.036-.499-.109a.746.746 0 01-.324-.349c-.078-.161-.117-.373-.117-.635v-3.586zm3.617 3.76v-1.71c0-.11-.014-.2-.041-.266a.265.265 0 00-.117-.143.337.337 0 00-.184-.048.38.38 0 00-.205.051.313.313 0 00-.123.147.625.625 0 00-.038.23h-.96a1.118 1.118 0 01.362-.828c.12-.11.264-.195.43-.256.167-.062.354-.093.561-.093.246 0 .465.043.656.127a.977.977 0 01.455.393c.112.18.167.413.167.7v1.648c0 .207.01.376.031.506.023.13.056.242.1.335V16H43a1.602 1.602 0 01-.099-.383 3.567 3.567 0 01-.03-.468zm.116-1.408l.003.574h-.352a.598.598 0 00-.24.044.522.522 0 00-.27.311.805.805 0 00-.03.226.6.6 0 00.038.226.29.29 0 00.29.188.552.552 0 00.274-.065.443.443 0 00.17-.158c.04-.061.052-.118.038-.17l.219.372a1.681 1.681 0 01-.113.263 1.108 1.108 0 01-.174.253.843.843 0 01-.263.192.859.859 0 01-.366.071 1.1 1.1 0 01-.544-.136 1.013 1.013 0 01-.39-.383 1.162 1.162 0 01-.14-.585c0-.187.03-.355.09-.505a.997.997 0 01.273-.387c.12-.107.273-.189.458-.246.185-.057.401-.085.65-.085h.379zm2.56-1.44V16h-.96v-3.698h.96zm-1.005-.956c0-.148.047-.27.14-.366a.51.51 0 01.383-.147c.162 0 .29.049.383.147.093.096.14.218.14.366a.502.502 0 01-.144.365.5.5 0 01-.376.144.522.522 0 01-.386-.144.51.51 0 01-.14-.365zm2.769-.595V16h-.96v-5.25h.96zm3.377 1.552V16h-.961v-3.698h.96zm-1.005-.957c0-.148.046-.27.14-.366a.51.51 0 01.383-.147c.161 0 .289.049.382.147.094.096.14.218.14.366a.502.502 0 01-.143.365.5.5 0 01-.376.144.522.522 0 01-.386-.144.51.51 0 01-.14-.365zm2.703 1.746V16h-.96v-3.698h.899l.061.79zm-.143.933l-.257.007a2.82 2.82 0 01.079-.748c.06-.221.142-.41.25-.564.109-.157.239-.277.39-.36.152-.083.322-.126.508-.126a1 1 0 01.393.076c.121.05.225.13.312.239.086.11.153.255.201.437.048.18.072.401.072.663V16h-.96v-2.358c0-.16-.017-.283-.048-.37a.32.32 0 00-.144-.184.476.476 0 00-.24-.055.397.397 0 00-.242.079c-.07.05-.13.12-.178.208-.045.09-.08.194-.106.315-.022.12-.033.25-.03.39zm3.739 1.238l.595-2.96h.998L56.56 16h-.598l.02-.738zm-.352-2.96l.605 2.963.01.735h-.602l-1.015-3.698h1.002zm3.849 3.766a1.82 1.82 0 01-.674-.116 1.33 1.33 0 01-.492-.335 1.5 1.5 0 01-.308-.536 2.245 2.245 0 01-.106-.718v-.304c0-.301.035-.564.103-.79.068-.228.165-.42.29-.574.126-.155.28-.27.462-.345.184-.078.393-.117.625-.117.233 0 .437.04.612.117.178.075.325.189.441.341.116.15.204.338.263.561.06.223.09.483.09.78v.437h-2.479v-.674h1.538v-.085c0-.15-.016-.276-.048-.376a.432.432 0 00-.15-.229.453.453 0 00-.273-.075.472.472 0 00-.243.058.4.4 0 00-.157.181c-.04.082-.068.19-.086.321-.018.13-.027.286-.027.469v.304c0 .17.015.314.044.43a.76.76 0 00.13.28c.06.071.131.123.216.154a1.115 1.115 0 00.748-.044c.137-.061.253-.145.349-.25l.383.582a1.492 1.492 0 01-.69.472 1.748 1.748 0 01-.562.081zm3.5-1.066a.255.255 0 00-.065-.17.77.77 0 00-.206-.155 3.42 3.42 0 00-.372-.18 3.951 3.951 0 01-.448-.213 1.578 1.578 0 01-.331-.243.899.899 0 01-.202-.304 1.042 1.042 0 01-.068-.39c0-.157.028-.301.085-.433.06-.135.144-.252.253-.352.11-.103.243-.183.4-.24.16-.059.338-.089.536-.089.279 0 .517.05.715.147.2.096.354.23.461.404.107.173.16.374.16.605h-.956a.594.594 0 00-.038-.22.306.306 0 00-.123-.153.396.396 0 00-.222-.055.354.354 0 00-.311.164.318.318 0 00-.044.171c0 .05.01.095.03.134a.406.406 0 00.106.113c.048.036.112.075.192.116.082.038.182.082.3.13.247.09.448.189.605.293.16.105.279.228.356.37.077.139.116.31.116.516 0 .164-.032.313-.096.447a.975.975 0 01-.27.35c-.118.097-.26.172-.427.225a1.8 1.8 0 01-.55.078c-.299 0-.55-.059-.756-.177a1.222 1.222 0 01-.464-.455 1.172 1.172 0 01-.157-.581h.909c.004.123.027.22.068.29a.346.346 0 00.174.144.687.687 0 00.243.041.595.595 0 00.219-.034.273.273 0 00.133-.113.362.362 0 00.044-.181zm3.15-2.7v.72h-1.886v-.72h1.887zm-1.452-.913h.954v3.483c0 .103.01.181.03.236a.21.21 0 00.093.116c.043.02.1.03.17.03a.64.64 0 00.226-.027v.75a1.32 1.32 0 01-.239.067c-.082.016-.18.024-.294.024-.191 0-.358-.036-.499-.109a.746.746 0 01-.325-.349c-.077-.161-.116-.373-.116-.635v-3.586zm1.774 2.888v-.25c0-.289.034-.545.103-.768.07-.223.17-.41.3-.56a1.25 1.25 0 01.469-.346c.184-.08.39-.12.618-.12.23 0 .437.04.619.12.185.078.342.193.472.345.132.15.233.338.304.56.07.224.106.48.106.77v.25c0 .287-.035.542-.106.765-.07.223-.172.411-.304.564-.13.153-.286.268-.469.345a1.558 1.558 0 01-.615.116c-.228 0-.434-.038-.618-.116a1.277 1.277 0 01-.472-.345 1.573 1.573 0 01-.304-.564 2.615 2.615 0 01-.103-.766zm.957-.25v.25c0 .171.012.32.034.445.025.125.06.229.106.31a.489.489 0 00.171.182.445.445 0 00.23.058c.086 0 .163-.02.232-.058a.433.433 0 00.167-.181.96.96 0 00.1-.311c.022-.126.033-.274.033-.445v-.25a2.25 2.25 0 00-.037-.437 1.031 1.031 0 00-.106-.31.481.481 0 00-.171-.185.402.402 0 00-.226-.065.402.402 0 00-.225.065.532.532 0 00-.168.184c-.045.08-.08.184-.106.311a2.47 2.47 0 00-.034.438zm3.596-.901V16h-.957v-3.698h.902l.055.824zm.871-.852l-.013.954a2.108 2.108 0 00-.314-.027.658.658 0 00-.274.051.455.455 0 00-.188.147.685.685 0 00-.11.24c-.025.095-.04.203-.044.324l-.181-.068c0-.242.018-.463.055-.664.038-.202.095-.378.17-.526.076-.15.166-.267.27-.349a.58.58 0 01.363-.123c.045 0 .093.005.143.014a.556.556 0 01.123.027zM8.986 23.15v-1.71c0-.11-.014-.2-.041-.266a.265.265 0 00-.116-.143.337.337 0 00-.185-.048.38.38 0 00-.205.051.314.314 0 00-.123.147.626.626 0 00-.038.23h-.96a1.118 1.118 0 01.362-.828c.12-.11.264-.195.43-.256.167-.062.354-.093.561-.093.246 0 .465.043.657.127a.977.977 0 01.454.393c.112.18.168.413.168.7v1.648c0 .207.01.376.03.506.023.13.056.242.1.335V24h-.964a1.602 1.602 0 01-.1-.383 3.565 3.565 0 01-.03-.468zm.116-1.408l.003.574h-.352a.598.598 0 00-.239.044.522.522 0 00-.27.311.805.805 0 00-.03.226c0 .089.012.164.037.226a.29.29 0 00.113.14c.05.032.11.048.177.048a.552.552 0 00.274-.065.443.443 0 00.17-.158c.04-.061.052-.118.038-.17l.22.372a1.69 1.69 0 01-.114.263 1.112 1.112 0 01-.174.253.844.844 0 01-.263.192.859.859 0 01-.366.071 1.1 1.1 0 01-.543-.136 1.013 1.013 0 01-.39-.383 1.162 1.162 0 01-.14-.585c0-.186.03-.355.089-.505a.996.996 0 01.273-.387c.121-.107.274-.189.458-.246.185-.057.401-.085.65-.085h.379zm2.892 1.531a.455.455 0 00.229-.055.345.345 0 00.15-.177.874.874 0 00.055-.318h.899c0 .278-.06.518-.178.72-.116.201-.273.356-.472.466-.196.107-.418.16-.666.16-.249 0-.465-.04-.65-.12a1.16 1.16 0 01-.458-.348 1.608 1.608 0 01-.27-.557 2.942 2.942 0 01-.089-.759v-.27c0-.28.03-.53.09-.752.06-.22.15-.408.27-.56.12-.153.272-.27.454-.349.184-.08.401-.12.65-.12.266 0 .497.056.693.168.196.11.349.271.458.485.112.214.168.479.168.793h-.9a1.16 1.16 0 00-.05-.352.43.43 0 00-.14-.219.367.367 0 00-.247-.078.449.449 0 00-.26.068.409.409 0 00-.146.192 1.147 1.147 0 00-.065.307 4.559 4.559 0 00-.018.417v.27c0 .167.005.311.014.434.011.121.033.224.065.308a.389.389 0 00.147.184.5.5 0 00.267.062zm3.22 0a.455.455 0 00.228-.055.346.346 0 00.15-.177.876.876 0 00.056-.318h.898c0 .278-.059.518-.177.72-.117.201-.274.356-.472.466-.196.107-.418.16-.667.16-.248 0-.464-.04-.649-.12a1.16 1.16 0 01-.458-.348 1.611 1.611 0 01-.27-.557 2.942 2.942 0 01-.089-.759v-.27c0-.28.03-.53.089-.752.062-.22.152-.408.27-.56.12-.153.272-.27.455-.349.184-.08.4-.12.65-.12.266 0 .497.056.693.168.196.11.349.271.458.485.112.214.167.479.167.793h-.898a1.164 1.164 0 00-.052-.352.43.43 0 00-.14-.219.367.367 0 00-.246-.078.45.45 0 00-.26.068.409.409 0 00-.147.192 1.151 1.151 0 00-.065.307 4.559 4.559 0 00-.017.417v.27c0 .167.005.311.014.434.011.121.033.224.065.308a.39.39 0 00.147.184.501.501 0 00.266.062zm1.773-.995v-.25c0-.289.035-.545.103-.768.07-.224.17-.41.3-.56a1.25 1.25 0 01.469-.346c.184-.08.39-.12.618-.12.23 0 .437.04.62.12.184.077.341.193.47.345.133.15.234.337.305.56.07.224.106.48.106.77v.25c0 .287-.035.542-.106.765-.07.223-.172.411-.304.564-.13.153-.286.268-.468.345a1.558 1.558 0 01-.616.116c-.228 0-.434-.038-.618-.116a1.277 1.277 0 01-.472-.345 1.576 1.576 0 01-.304-.564 2.619 2.619 0 01-.103-.766zm.957-.25v.25c0 .171.012.32.035.445.025.125.06.229.105.31a.488.488 0 00.171.182.445.445 0 00.23.058c.086 0 .163-.02.232-.058a.433.433 0 00.167-.181.96.96 0 00.1-.311c.022-.126.034-.274.034-.445v-.25c0-.166-.013-.311-.038-.437a1.031 1.031 0 00-.106-.31.48.48 0 00-.17-.185.402.402 0 00-.227-.065.402.402 0 00-.225.065.531.531 0 00-.168.184c-.045.08-.08.184-.105.311a2.47 2.47 0 00-.035.438zm4.427 1.084v-2.81h.96V24h-.902l-.058-.889zm.109-.762l.267-.007c0 .249-.024.479-.072.69-.048.21-.12.393-.216.548a1.072 1.072 0 01-.358.362.988.988 0 01-.51.126c-.15 0-.29-.025-.417-.075a.841.841 0 01-.324-.242 1.234 1.234 0 01-.216-.428 2.32 2.32 0 01-.075-.632V20.3h.96v2.4c0 .1.01.187.028.26.018.07.043.129.075.174a.29.29 0 00.113.1.376.376 0 00.147.027c.15 0 .269-.039.355-.117a.647.647 0 00.188-.324 1.86 1.86 0 00.055-.472zm2.488-1.258V24h-.96v-3.698h.899l.061.79zm-.143.933l-.257.007a2.815 2.815 0 01.079-.748c.06-.221.142-.41.25-.564.109-.158.239-.277.39-.36.152-.083.322-.126.508-.126a1 1 0 01.393.076c.121.05.225.13.312.239.086.11.153.255.201.437.048.18.072.401.072.663V24h-.96v-2.358c0-.16-.016-.283-.048-.37a.32.32 0 00-.144-.184.476.476 0 00-.24-.055.396.396 0 00-.242.079c-.07.05-.13.12-.178.208-.045.09-.08.194-.105.315-.023.12-.034.25-.031.39zm4.262-1.722v.72H27.2v-.72h1.887zm-1.453-.913h.954v3.483a.7.7 0 00.03.236.21.21 0 00.093.116c.043.02.1.03.17.03a.637.637 0 00.226-.027v.75c-.075.029-.154.052-.239.067-.082.016-.18.024-.294.024-.191 0-.358-.036-.499-.109a.746.746 0 01-.325-.349c-.077-.161-.116-.373-.116-.635v-3.586zm3.627 3.613a.254.254 0 00-.065-.17.77.77 0 00-.205-.155 3.418 3.418 0 00-.373-.18 3.953 3.953 0 01-.448-.213 1.575 1.575 0 01-.331-.242.9.9 0 01-.202-.305 1.042 1.042 0 01-.068-.39c0-.157.028-.301.085-.433.06-.135.144-.252.253-.353.11-.102.243-.182.4-.239.16-.059.338-.089.537-.089.278 0 .516.05.714.147.2.096.354.23.462.404.107.173.16.375.16.605h-.957a.594.594 0 00-.037-.22.305.305 0 00-.123-.153.396.396 0 00-.223-.055.354.354 0 00-.311.164.318.318 0 00-.044.171c0 .05.01.095.03.134a.405.405 0 00.107.113c.047.036.111.075.191.116.082.038.182.082.3.13.247.09.448.189.606.293.16.105.278.228.355.37.078.139.116.31.116.516 0 .164-.032.313-.095.448a.974.974 0 01-.27.348c-.119.098-.261.173-.427.226a1.8 1.8 0 01-.55.078c-.3 0-.551-.059-.756-.177a1.221 1.221 0 01-.465-.455 1.171 1.171 0 01-.157-.581h.909c.005.123.027.22.068.29a.346.346 0 00.175.144.687.687 0 00.242.041.595.595 0 00.219-.034.273.273 0 00.133-.113.362.362 0 00.045-.181zm4.156-4.252V24h-.96v-5.25h.96zm.65 3.527v-.25c0-.289.034-.545.102-.768.07-.224.17-.41.3-.56a1.25 1.25 0 01.469-.346c.185-.08.39-.12.619-.12.23 0 .436.04.618.12.185.077.342.193.472.345.132.15.233.337.304.56.07.224.106.48.106.77v.25c0 .287-.035.542-.106.765-.07.223-.172.411-.304.564-.13.153-.286.268-.468.345a1.558 1.558 0 01-.616.116c-.227 0-.434-.038-.618-.116a1.277 1.277 0 01-.472-.345 1.576 1.576 0 01-.304-.564 2.619 2.619 0 01-.103-.766zm.956-.25v.25c0 .171.012.32.035.445.025.125.06.229.106.31a.488.488 0 00.17.182.445.445 0 00.23.058c.086 0 .163-.02.232-.058a.433.433 0 00.167-.181.96.96 0 00.1-.311c.022-.126.034-.274.034-.445v-.25c0-.166-.013-.311-.038-.437a1.031 1.031 0 00-.106-.31.48.48 0 00-.17-.185.402.402 0 00-.226-.065.402.402 0 00-.226.065.531.531 0 00-.167.184c-.046.08-.081.184-.106.311a2.47 2.47 0 00-.035.438zm4.28.975a.254.254 0 00-.065-.17.77.77 0 00-.205-.155 3.418 3.418 0 00-.373-.18 3.953 3.953 0 01-.448-.213 1.575 1.575 0 01-.331-.242.9.9 0 01-.202-.305 1.042 1.042 0 01-.068-.39c0-.157.028-.301.085-.433.06-.135.144-.252.253-.353.11-.102.243-.182.4-.239.16-.059.339-.089.537-.089.278 0 .516.05.714.147.2.096.354.23.462.404.107.173.16.375.16.605h-.957a.594.594 0 00-.038-.22.305.305 0 00-.122-.153.396.396 0 00-.223-.055.353.353 0 00-.311.164.318.318 0 00-.044.171c0 .05.01.095.03.134a.405.405 0 00.107.113c.047.036.111.075.191.116.082.038.182.082.3.13.247.09.448.189.606.293.16.105.278.228.355.37.078.139.116.31.116.516 0 .164-.032.313-.095.448a.974.974 0 01-.27.348c-.119.098-.261.173-.427.226a1.8 1.8 0 01-.55.078c-.3 0-.551-.059-.756-.177a1.222 1.222 0 01-.465-.455 1.172 1.172 0 01-.157-.581h.909c.005.123.027.22.068.29a.346.346 0 00.175.144.687.687 0 00.242.041.595.595 0 00.219-.034.273.273 0 00.133-.113.362.362 0 00.045-.181zm3.028 1.066a1.82 1.82 0 01-.673-.116 1.331 1.331 0 01-.492-.335 1.499 1.499 0 01-.308-.536 2.245 2.245 0 01-.106-.718v-.304c0-.301.034-.564.102-.79.069-.228.166-.42.291-.574.125-.155.28-.27.461-.345.185-.078.393-.117.626-.117.232 0 .436.04.612.117.178.075.325.189.44.341.117.15.205.338.264.561.06.223.089.483.089.78v.437h-2.478v-.674h1.538v-.085c0-.15-.016-.276-.048-.376a.431.431 0 00-.15-.229.452.452 0 00-.274-.075.473.473 0 00-.243.058.399.399 0 00-.157.181c-.039.082-.067.19-.085.321-.019.13-.028.286-.028.469v.304c0 .17.015.314.045.43.03.114.073.208.13.28.059.071.13.123.215.154a1.115 1.115 0 00.748-.044c.137-.061.253-.145.35-.25l.382.582a1.492 1.492 0 01-.69.472 1.749 1.749 0 01-.56.081zm4.437-3V24h-.96v-3.698h.901l.059.765zm-.137.956l-.263.007c-.005-.26.018-.499.068-.717.05-.22.125-.41.226-.571.102-.162.23-.287.386-.376.155-.09.336-.134.543-.134.135 0 .259.026.373.076a.754.754 0 01.297.229c.084.102.15.237.195.403.046.164.068.361.068.591V24h-.957v-2.352c0-.164-.016-.289-.047-.375a.33.33 0 00-.137-.185.41.41 0 00-.219-.055.394.394 0 00-.24.075.546.546 0 00-.167.212 1.35 1.35 0 00-.095.315c-.02.12-.031.25-.031.39zm1.801-.095l-.345.044c-.005-.244.017-.47.065-.68a1.73 1.73 0 01.222-.554c.1-.16.226-.283.376-.372.153-.09.33-.134.53-.134.15 0 .287.026.41.076s.228.13.314.242c.09.11.157.254.202.434.048.18.072.4.072.657V24h-.96v-2.355c0-.166-.017-.294-.048-.383-.032-.089-.078-.149-.137-.18a.44.44 0 00-.212-.049.352.352 0 00-.215.069.54.54 0 00-.15.191c-.042.08-.073.174-.093.284-.02.107-.03.224-.03.352zm2.458.348v-.25c0-.289.034-.545.102-.768.07-.224.171-.41.301-.56a1.25 1.25 0 01.468-.346c.185-.08.391-.12.619-.12.23 0 .436.04.618.12.185.077.342.193.472.345.132.15.234.337.304.56.071.224.106.48.106.77v.25c0 .287-.035.542-.106.765-.07.223-.172.411-.304.564-.13.153-.286.268-.468.345a1.558 1.558 0 01-.615.116c-.228 0-.434-.038-.619-.116a1.277 1.277 0 01-.472-.345 1.573 1.573 0 01-.304-.564 2.615 2.615 0 01-.102-.766zm.957-.25v.25c0 .171.011.32.034.445.025.125.06.229.106.31a.489.489 0 00.17.182.445.445 0 00.23.058c.086 0 .164-.02.232-.058a.433.433 0 00.168-.181.96.96 0 00.099-.311c.022-.126.034-.274.034-.445v-.25a2.25 2.25 0 00-.038-.437 1.031 1.031 0 00-.106-.31.481.481 0 00-.17-.185.402.402 0 00-.226-.065.402.402 0 00-.226.065.532.532 0 00-.167.184c-.046.08-.081.184-.106.311a2.47 2.47 0 00-.034.438zm3.578-.936V24h-.96v-3.698h.899l.061.79zm-.143.933l-.257.007a2.815 2.815 0 01.079-.748c.06-.221.142-.41.25-.564.109-.158.239-.277.39-.36.152-.083.322-.126.508-.126a1 1 0 01.393.076c.121.05.225.13.311.239.087.11.154.255.202.437.048.18.072.401.072.663V24h-.96v-2.358c0-.16-.016-.283-.048-.37a.32.32 0 00-.144-.184.476.476 0 00-.24-.055.397.397 0 00-.242.079c-.07.05-.13.12-.177.208-.046.09-.081.194-.106.315-.023.12-.034.25-.031.39zm4.139 2.044a1.82 1.82 0 01-.673-.116 1.33 1.33 0 01-.493-.335 1.498 1.498 0 01-.307-.536 2.242 2.242 0 01-.106-.718v-.304c0-.301.034-.564.102-.79.069-.228.165-.42.29-.574.126-.155.28-.27.462-.345.185-.078.393-.117.626-.117.232 0 .436.04.612.117.177.075.324.189.44.341.117.15.204.338.264.561.059.223.089.483.089.78v.437h-2.478v-.674h1.538v-.085c0-.15-.016-.276-.048-.376a.432.432 0 00-.15-.229.453.453 0 00-.274-.075.472.472 0 00-.243.058.4.4 0 00-.157.181c-.039.082-.067.19-.085.321-.019.13-.028.286-.028.469v.304c0 .17.015.314.045.43a.76.76 0 00.13.28c.059.071.13.123.215.154a1.115 1.115 0 00.748-.044c.137-.061.253-.145.35-.25l.382.582a1.492 1.492 0 01-.69.472 1.748 1.748 0 01-.561.081zm2.741-.492l.773-3.274h.998l-1.217 4.252a2.374 2.374 0 01-.113.3c-.048.11-.112.212-.191.308a.895.895 0 01-.294.24.917.917 0 01-.428.092.997.997 0 01-.205-.017 1.953 1.953 0 01-.191-.048v-.745h.058a.617.617 0 00.314-.041.341.341 0 00.154-.13.806.806 0 00.103-.223l.24-.714zm-.198-3.274l.574 2.652.13 1.08-.646.062-1.084-3.794h1.026zm4.867 2.724l.646-2.724h.602l-.147 1.107L69.296 24h-.503l.038-.974zm-.184-2.724l.44 2.717-.003.981h-.588l-.769-3.698h.92zm1.917 2.673l.427-2.673h.927L71.145 24h-.588l.007-1.025zm-.403-2.673l.646 2.703.044.995h-.502l-.636-2.584-.144-1.114h.592zm3.171-1.552V24h-.956v-5.25h.956zm-.136 3.274l-.26.007c0-.26.026-.499.079-.717.054-.22.133-.41.236-.571.102-.162.226-.287.372-.376a.932.932 0 01.489-.134c.153 0 .291.027.417.079a.828.828 0 01.325.246c.093.112.165.259.215.441.05.182.075.405.075.667V24h-.96v-2.341c0-.16-.016-.285-.048-.376a.336.336 0 00-.144-.192.454.454 0 00-.24-.058.44.44 0 00-.262.079.538.538 0 00-.171.208 1.168 1.168 0 00-.096.315c-.018.12-.027.25-.027.39zm4.139 2.044a1.82 1.82 0 01-.673-.116 1.331 1.331 0 01-.493-.335 1.5 1.5 0 01-.307-.536 2.245 2.245 0 01-.106-.718v-.304c0-.301.034-.564.102-.79.069-.228.166-.42.29-.574.126-.155.28-.27.462-.345.185-.078.393-.117.626-.117.232 0 .436.04.612.117.177.075.324.189.44.341.117.15.205.338.264.561.059.223.089.483.089.78v.437h-2.478v-.674H77.7v-.085c0-.15-.016-.276-.048-.376a.431.431 0 00-.15-.229.452.452 0 00-.274-.075.473.473 0 00-.243.058.399.399 0 00-.157.181c-.039.082-.067.19-.085.321a3.42 3.42 0 00-.028.469v.304c0 .17.015.314.045.43.03.114.073.208.13.28.059.071.13.123.215.154a1.115 1.115 0 00.749-.044c.136-.061.252-.145.348-.25l.383.582a1.492 1.492 0 01-.69.472 1.749 1.749 0 01-.561.081zm2.8-2.977V24h-.961v-3.698h.899l.061.79zm-.144.933l-.257.007a2.815 2.815 0 01.079-.748c.06-.221.142-.41.25-.564.109-.158.239-.277.39-.36.152-.083.322-.126.508-.126a1 1 0 01.394.076c.12.05.224.13.31.239.087.11.154.255.202.437.048.18.072.401.072.663V24h-.96v-2.358c0-.16-.016-.283-.048-.37a.32.32 0 00-.144-.184.476.476 0 00-.24-.055.397.397 0 00-.242.079c-.07.05-.13.12-.178.208-.045.09-.08.194-.105.315-.023.12-.034.25-.031.39zM8.969 28.302v.72H7.082v-.72h1.887zm-1.453-.913h.954v3.483c0 .103.01.181.03.236a.21.21 0 00.093.116c.043.02.1.03.17.03a.64.64 0 00.226-.027v.75a1.32 1.32 0 01-.239.067c-.082.016-.18.024-.294.024-.191 0-.358-.036-.499-.109a.746.746 0 01-.325-.349c-.077-.161-.116-.373-.116-.635v-3.586zm2.943 1.736V32h-.957v-3.698h.902l.055.823zm.872-.85l-.014.953a2.108 2.108 0 00-.315-.027.658.658 0 00-.273.051.455.455 0 00-.188.147.685.685 0 00-.11.24c-.024.095-.04.203-.044.324l-.18-.069c0-.241.017-.462.054-.663.039-.202.095-.378.17-.526.076-.15.166-.266.27-.349a.58.58 0 01.363-.123c.046 0 .093.005.143.014a.556.556 0 01.124.027zm2.016 2.874v-1.71c0-.11-.013-.2-.04-.266a.265.265 0 00-.117-.143.337.337 0 00-.185-.048.38.38 0 00-.205.051.314.314 0 00-.123.147.627.627 0 00-.037.23h-.96a1.118 1.118 0 01.361-.828c.121-.11.265-.195.431-.256.167-.062.353-.093.56-.093.247 0 .466.043.657.127a.977.977 0 01.455.393c.111.18.167.413.167.7v1.648c0 .207.01.376.03.506.024.13.057.242.1.335V32h-.964a1.602 1.602 0 01-.1-.383 3.567 3.567 0 01-.03-.468zm.116-1.408l.004.574h-.352a.598.598 0 00-.24.044.522.522 0 00-.27.311.805.805 0 00-.03.226c0 .089.012.164.037.226a.29.29 0 00.29.188.552.552 0 00.274-.065.444.444 0 00.171-.158c.039-.061.051-.118.038-.17l.219.372a1.681 1.681 0 01-.113.263 1.115 1.115 0 01-.175.253.844.844 0 01-.263.192.859.859 0 01-.366.071 1.1 1.1 0 01-.543-.136 1.014 1.014 0 01-.39-.383 1.162 1.162 0 01-.14-.585c0-.186.03-.355.09-.505a.995.995 0 01.273-.387c.12-.107.273-.189.458-.246.184-.057.4-.085.649-.085h.38zm3.347 1.442V26.75h.96V32l-.868.003-.092-.82zm-1.918-.902v-.246c0-.301.025-.564.075-.79a1.66 1.66 0 01.233-.564.974.974 0 01.376-.335c.15-.075.322-.113.516-.113.175 0 .33.045.461.134.135.086.249.208.342.365.093.158.169.343.226.558.057.214.096.448.12.704v.355c-.028.242-.07.467-.127.677-.055.21-.13.392-.226.547a1.141 1.141 0 01-.338.366.823.823 0 01-.462.13 1.11 1.11 0 01-.516-.117 1.032 1.032 0 01-.376-.342 1.75 1.75 0 01-.229-.56 3.534 3.534 0 01-.075-.77zm.957-.246v.246c0 .173.008.322.024.448.018.123.047.224.086.304a.427.427 0 00.16.174.504.504 0 00.246.055.483.483 0 00.311-.096.586.586 0 00.178-.27c.041-.116.064-.25.068-.4v-.646a1.647 1.647 0 00-.044-.338.85.85 0 00-.106-.257.49.49 0 00-.17-.164.452.452 0 00-.233-.058.492.492 0 00-.246.058.4.4 0 00-.158.181c-.038.08-.068.184-.088.312a3.18 3.18 0 00-.028.45zm3.647-1.733V32h-.96v-3.698h.96zm-1.005-.957c0-.148.047-.27.14-.366a.511.511 0 01.383-.147c.162 0 .29.049.383.147.093.096.14.218.14.366a.502.502 0 01-.143.365.501.501 0 01-.376.144.522.522 0 01-.387-.144.51.51 0 01-.14-.365zm2.704 1.746V32h-.96v-3.698h.898l.062.79zm-.144.933l-.256.007a2.823 2.823 0 01.078-.748 1.81 1.81 0 01.25-.564c.11-.158.24-.277.39-.36.152-.083.322-.126.509-.126a1 1 0 01.393.076c.12.05.225.13.311.239.087.11.154.255.202.437.048.18.072.401.072.663V32h-.96v-2.358c0-.16-.017-.283-.049-.37a.32.32 0 00-.143-.184.476.476 0 00-.24-.055.397.397 0 00-.242.079c-.07.05-.13.12-.178.208-.046.09-.08.194-.106.315-.023.12-.033.25-.03.39zm4.594-1.722h.868V32c0 .337-.065.613-.195.827a1.133 1.133 0 01-.536.475 1.932 1.932 0 01-1.193.106 1.852 1.852 0 01-.417-.147 1.102 1.102 0 01-.332-.232l.325-.663c.089.089.205.164.349.225.143.064.285.096.424.096a.763.763 0 00.335-.065.405.405 0 00.204-.212.947.947 0 00.072-.403V29.16l.096-.858zm-2.064 1.979v-.246c0-.301.028-.564.085-.79.057-.226.139-.414.246-.564.107-.15.238-.262.393-.335.157-.075.333-.113.526-.113.203 0 .373.045.51.134a.957.957 0 01.331.365c.087.158.153.343.199.558.048.214.084.448.109.704v.355a4.256 4.256 0 01-.123.677c-.055.21-.128.392-.219.547a1.109 1.109 0 01-.335.366.853.853 0 01-.478.13c-.192 0-.365-.04-.52-.117a1.1 1.1 0 01-.393-.342 1.713 1.713 0 01-.246-.56 3.123 3.123 0 01-.085-.77zm.96-.246v.246c0 .173.01.322.03.448a.97.97 0 00.103.304.457.457 0 00.175.174.566.566 0 00.256.055c.139 0 .25-.032.331-.096a.563.563 0 00.185-.27c.041-.116.064-.25.069-.4v-.646a1.382 1.382 0 00-.045-.338.85.85 0 00-.106-.257.472.472 0 00-.178-.164.511.511 0 00-.25-.058.519.519 0 00-.252.058c-.07.039-.13.1-.178.181-.045.08-.08.184-.106.312a2.561 2.561 0 00-.034.45zm6.72.307h.994c-.013.374-.089.69-.225.947a1.37 1.37 0 01-.585.581c-.25.132-.553.198-.909.198a1.86 1.86 0 01-.735-.136 1.468 1.468 0 01-.547-.41 1.826 1.826 0 01-.341-.667 3.396 3.396 0 01-.113-.92v-.844c0-.346.04-.652.12-.92.081-.266.198-.489.348-.669.153-.182.336-.32.55-.41.217-.094.46-.14.732-.14.362 0 .665.068.909.205.244.137.432.336.564.598.134.26.215.578.243.954h-.998a1.884 1.884 0 00-.082-.558.48.48 0 00-.22-.287.849.849 0 00-.416-.085.756.756 0 00-.342.072.55.55 0 00-.236.222 1.192 1.192 0 00-.137.403c-.027.166-.04.37-.04.608v.852c0 .234.012.435.037.601.025.164.065.299.12.403a.514.514 0 00.222.23.807.807 0 00.362.071.933.933 0 00.407-.075.469.469 0 00.232-.27c.05-.13.079-.315.086-.554zm2.621-3.319V32h-1.001v-4.977h1.001zm1.559 2.116v.827h-1.812v-.827h1.812zm.191-2.116v.831H33.63v-.83h2.003zM37.516 32h-.879l.007-.827h.872c.241 0 .43-.043.564-.13a.697.697 0 00.283-.41 2.59 2.59 0 00.086-.735v-.776c0-.23-.015-.425-.045-.584a.956.956 0 00-.15-.39.624.624 0 00-.284-.222 1.181 1.181 0 00-.44-.072h-.91v-.83h.91c.286 0 .547.046.782.14.235.093.436.23.605.41.169.177.298.397.39.66.09.261.136.56.136.895v.769c0 .337-.045.636-.136.896-.092.26-.221.48-.39.66a1.64 1.64 0 01-.605.406c-.237.093-.502.14-.796.14zm-.298-4.977V32h-1.001v-4.977h1.001zm4.55 3.979a.254.254 0 00-.065-.17.77.77 0 00-.205-.155 3.43 3.43 0 00-.373-.18 3.961 3.961 0 01-.448-.213 1.577 1.577 0 01-.331-.242.9.9 0 01-.202-.305 1.044 1.044 0 01-.068-.39c0-.157.028-.301.085-.433.06-.135.144-.252.253-.353.11-.102.243-.182.4-.239.16-.059.338-.089.537-.089.278 0 .516.05.714.147.2.096.354.23.461.404.107.173.161.375.161.605h-.957a.596.596 0 00-.038-.22.306.306 0 00-.123-.153.396.396 0 00-.222-.055.354.354 0 00-.311.164.318.318 0 00-.044.171c0 .05.01.095.03.134a.404.404 0 00.106.113c.048.036.112.075.192.116.082.038.182.082.3.13.247.09.448.189.606.293.16.105.278.228.355.37.077.139.116.31.116.516 0 .164-.032.313-.095.448a.976.976 0 01-.27.348c-.119.098-.261.173-.428.226a1.8 1.8 0 01-.55.078c-.298 0-.55-.059-.755-.177a1.222 1.222 0 01-.465-.455 1.172 1.172 0 01-.157-.581h.909c.004.123.027.22.068.29a.346.346 0 00.174.144.687.687 0 00.243.041.594.594 0 00.219-.034.273.273 0 00.133-.113.36.36 0 00.045-.181zm4.02.024l.645-2.724h.602l-.147 1.107L46.252 32h-.503l.038-.974zm-.185-2.724l.44 2.717-.003.981h-.588l-.769-3.698h.92zm1.917 2.673l.427-2.673h.926L48.102 32h-.588l.007-1.025zm-.403-2.673l.646 2.703.044.995h-.502l-.636-2.584-.144-1.114h.592zm3.243 0V32h-.96v-3.698h.96zm-1.005-.957c0-.148.047-.27.14-.366a.51.51 0 01.383-.147c.162 0 .29.049.383.147.094.096.14.218.14.366a.502.502 0 01-.143.365.5.5 0 01-.376.144.522.522 0 01-.386-.144.51.51 0 01-.14-.365zm3.377.957v.72h-1.886v-.72h1.886zm-1.452-.913h.953v3.483c0 .103.01.181.031.236a.21.21 0 00.092.116c.044.02.1.03.171.03a.637.637 0 00.226-.027v.75c-.075.029-.155.052-.24.067-.081.016-.18.024-.293.024-.192 0-.358-.036-.5-.109a.746.746 0 01-.324-.349c-.078-.161-.116-.373-.116-.635v-3.586zm2.919-.639V32h-.957v-5.25h.957zm-.137 3.274l-.26.007c0-.26.026-.499.079-.717.054-.22.133-.41.236-.571.102-.162.226-.287.372-.376a.932.932 0 01.489-.134c.153 0 .292.027.417.079a.828.828 0 01.325.246c.093.112.165.259.215.441.05.182.075.405.075.667V32h-.96v-2.341c0-.16-.016-.285-.048-.376a.337.337 0 00-.144-.192.454.454 0 00-.239-.058.439.439 0 00-.263.079.537.537 0 00-.17.208 1.16 1.16 0 00-.097.315c-.018.12-.027.25-.027.39zm5.876-1.722v.72H58.05v-.72h1.886zm-1.453-.913h.953v3.483c0 .103.01.181.031.236a.21.21 0 00.093.116c.043.02.1.03.17.03a.64.64 0 00.226-.027v.75c-.075.029-.155.052-.24.067a1.56 1.56 0 01-.293.024c-.192 0-.358-.036-.5-.109a.745.745 0 01-.324-.349c-.077-.161-.116-.373-.116-.635v-3.586zm2.919-.639V32h-.957v-5.25h.957zm-.137 3.274l-.26.007c0-.26.026-.499.079-.717.055-.22.133-.41.236-.571.102-.162.226-.287.372-.376a.932.932 0 01.49-.134c.152 0 .29.027.416.079a.828.828 0 01.325.246c.093.112.165.259.215.441.05.182.075.405.075.667V32h-.96v-2.341c0-.16-.016-.285-.048-.376a.336.336 0 00-.144-.192.454.454 0 00-.239-.058.44.44 0 00-.263.079.538.538 0 00-.17.208 1.16 1.16 0 00-.097.315c-.018.12-.027.25-.027.39zm3.654-1.722V32h-.96v-3.698h.96zm-1.005-.957c0-.148.047-.27.14-.366a.51.51 0 01.383-.147c.162 0 .29.049.383.147.093.096.14.218.14.366a.502.502 0 01-.144.365.501.501 0 01-.376.144.521.521 0 01-.386-.144.509.509 0 01-.14-.365zm3.404 3.657a.254.254 0 00-.065-.17.77.77 0 00-.205-.155 3.411 3.411 0 00-.372-.18 3.96 3.96 0 01-.448-.213 1.578 1.578 0 01-.332-.242.9.9 0 01-.201-.305 1.042 1.042 0 01-.069-.39 1.043 1.043 0 01.338-.786c.11-.102.244-.182.4-.239.16-.059.34-.089.537-.089.278 0 .516.05.715.147.2.096.354.23.461.404.107.173.16.375.16.605h-.956a.594.594 0 00-.038-.22.306.306 0 00-.123-.153.396.396 0 00-.222-.055.354.354 0 00-.311.164.317.317 0 00-.045.171c0 .05.01.095.031.134a.405.405 0 00.106.113c.048.036.112.075.192.116.082.038.182.082.3.13.246.09.448.189.605.293.16.105.278.228.356.37.077.139.116.31.116.516 0 .164-.032.313-.096.448a.974.974 0 01-.27.348c-.118.098-.26.173-.427.226a1.8 1.8 0 01-.55.078c-.299 0-.55-.059-.756-.177a1.222 1.222 0 01-.465-.455 1.172 1.172 0 01-.157-.581h.91c.004.123.027.22.068.29a.346.346 0 00.174.144.687.687 0 00.243.041.595.595 0 00.219-.034.273.273 0 00.133-.113.362.362 0 00.044-.181zm-59.007 6.01v4.41h-.954v-5.12h.882l.072.71zm1.92 1.012v.246c0 .29-.025.546-.075.77-.05.22-.125.409-.225.563a.998.998 0 01-.37.35 1.105 1.105 0 01-.519.115.864.864 0 01-.479-.13 1.109 1.109 0 01-.335-.365 2.149 2.149 0 01-.218-.544 5.092 5.092 0 01-.127-.666v-.383c.028-.253.067-.485.12-.697.052-.215.124-.4.215-.557.094-.158.206-.278.339-.363a.864.864 0 01.478-.13c.2 0 .375.037.523.11.15.073.275.183.373.331.1.146.175.332.225.557.05.226.075.49.075.793zm-.957.246v-.246c0-.177-.01-.329-.03-.454a.99.99 0 00-.09-.308.4.4 0 00-.16-.174.496.496 0 00-.243-.055.529.529 0 00-.246.055.435.435 0 00-.167.16.804.804 0 00-.1.254c-.022.097-.035.21-.037.334v.67c.005.148.024.28.058.393a.586.586 0 00.175.274c.08.066.188.099.324.099a.44.44 0 00.243-.062.443.443 0 00.16-.184.974.974 0 00.086-.311c.018-.126.027-.274.027-.445zm2.502-1.145V40h-.957v-3.698h.903l.054.824zm.872-.85l-.014.953a2.103 2.103 0 00-.314-.027.658.658 0 00-.274.051.455.455 0 00-.188.147.681.681 0 00-.109.24 1.51 1.51 0 00-.044.324l-.182-.069c0-.241.019-.462.055-.663.039-.202.096-.378.171-.526.075-.15.165-.267.27-.349a.58.58 0 01.362-.123c.046 0 .094.005.144.014a.554.554 0 01.123.027zm.256 2.002v-.25c0-.289.034-.545.103-.768.07-.224.17-.41.3-.56a1.25 1.25 0 01.469-.346c.184-.08.39-.12.618-.12.23 0 .437.04.62.12.184.078.34.193.47.345.133.15.234.337.305.56.07.224.106.48.106.77v.25c0 .287-.035.542-.106.765-.07.223-.172.411-.304.564-.13.153-.286.268-.468.345a1.558 1.558 0 01-.616.116c-.228 0-.434-.038-.618-.116a1.277 1.277 0 01-.472-.345 1.573 1.573 0 01-.304-.564 2.615 2.615 0 01-.103-.766zm.957-.25v.25c0 .171.012.32.035.445.024.125.06.229.105.31a.489.489 0 00.171.182.445.445 0 00.23.058c.086 0 .163-.02.232-.058a.433.433 0 00.167-.181.96.96 0 00.1-.311c.022-.126.034-.274.034-.445v-.25a2.25 2.25 0 00-.038-.437 1.031 1.031 0 00-.106-.31.481.481 0 00-.17-.185.402.402 0 00-.226-.065.402.402 0 00-.226.065.532.532 0 00-.168.184c-.045.08-.08.184-.105.311a2.47 2.47 0 00-.035.438zm3.675 1.235l.594-2.96h.998L18.115 40h-.598l.02-.738zm-.352-2.96l.605 2.963.01.735h-.602l-1.015-3.698h1.002zm3.41 0V40h-.96v-3.698h.96zm-1.004-.957c0-.148.047-.27.14-.366a.51.51 0 01.383-.147c.162 0 .29.049.383.147.093.096.14.218.14.366a.502.502 0 01-.144.365.5.5 0 01-.376.144.522.522 0 01-.386-.144.51.51 0 01-.14-.365zm3.555 3.838V34.75h.96V40l-.868.003-.093-.82zm-1.918-.902v-.246c0-.301.025-.564.075-.79a1.66 1.66 0 01.233-.564.975.975 0 01.376-.335c.15-.075.322-.113.516-.113.175 0 .329.045.461.134.135.086.248.208.342.365.093.158.169.343.226.558.057.214.096.448.12.704v.355c-.028.242-.07.467-.127.677-.055.21-.13.392-.226.547a1.141 1.141 0 01-.338.365.823.823 0 01-.462.13 1.11 1.11 0 01-.516-.116 1.032 1.032 0 01-.376-.342 1.75 1.75 0 01-.229-.56 3.534 3.534 0 01-.075-.77zm.957-.246v.246c0 .173.008.322.024.447.018.124.047.225.085.305a.426.426 0 00.161.174.503.503 0 00.246.055.483.483 0 00.311-.096.586.586 0 00.178-.27c.04-.116.064-.25.068-.4v-.646a1.647 1.647 0 00-.044-.338.848.848 0 00-.106-.257.49.49 0 00-.171-.164.452.452 0 00-.232-.058.492.492 0 00-.247.058.4.4 0 00-.157.181c-.038.08-.068.184-.089.312a3.18 3.18 0 00-.027.45zm4.132 2.033a1.82 1.82 0 01-.673-.116 1.331 1.331 0 01-.492-.335 1.5 1.5 0 01-.308-.536 2.245 2.245 0 01-.106-.718v-.304c0-.301.034-.564.103-.79.068-.228.165-.42.29-.574.126-.155.28-.27.462-.345.184-.078.393-.117.625-.117.233 0 .437.04.612.117.178.075.325.189.441.341.116.15.204.338.263.561.06.223.089.483.089.78v.437h-2.478v-.674h1.538v-.085c0-.15-.016-.276-.048-.376a.431.431 0 00-.15-.229.452.452 0 00-.274-.075.473.473 0 00-.242.058.399.399 0 00-.157.181c-.04.082-.068.19-.086.321a3.42 3.42 0 00-.027.469v.304c0 .17.015.314.044.43.03.114.073.208.13.28.06.071.131.123.215.154a1.115 1.115 0 00.748-.044c.138-.061.254-.145.35-.25l.382.582a1.492 1.492 0 01-.69.472 1.749 1.749 0 01-.56.081zm2.817-2.942V40h-.957v-3.698h.902l.055.824zm.871-.852l-.013.954a2.103 2.103 0 00-.314-.027.658.658 0 00-.274.051.455.455 0 00-.188.147.683.683 0 00-.11.24 1.51 1.51 0 00-.044.324l-.181-.069c0-.241.018-.462.054-.663.04-.202.096-.378.171-.526.076-.15.166-.267.27-.349a.58.58 0 01.363-.123c.045 0 .093.005.143.014a.554.554 0 01.123.027zm-.02 3.237c0-.15.05-.276.15-.376a.543.543 0 01.407-.154c.17 0 .306.052.407.154.1.1.15.226.15.376a.51.51 0 01-.15.376.55.55 0 01-.407.15.55.55 0 01-.407-.15.51.51 0 01-.15-.376zm5.041-1.989l1.019-2.499h.707l-1.415 3.121V40h-.625v-1.856l-1.415-3.12h.71l1.02 2.498zm1.938.458c0-.538.13-.963.39-1.275.262-.314.607-.472 1.036-.472.428 0 .772.153 1.032.458.262.306.396.722.403 1.248v.39c0 .535-.13.959-.39 1.271-.26.312-.606.468-1.038.468-.429 0-.773-.151-1.033-.454-.257-.303-.39-.713-.4-1.23v-.404zm.605.349c0 .38.074.68.222.898.15.217.352.325.605.325.534 0 .808-.385.824-1.155v-.417c0-.378-.075-.677-.225-.895a.698.698 0 00-.605-.332c-.249 0-.448.11-.599.331-.148.22-.222.517-.222.893v.352zm4.922 1.346c-.2.262-.493.393-.878.393-.335 0-.588-.115-.759-.345-.17-.232-.258-.57-.26-1.012v-2.41h.602v2.366c0 .576.173.865.52.865.366 0 .62-.164.758-.492v-2.738h.605V40h-.574l-.014-.325zm4.902-.622a.447.447 0 00-.147-.335c-.098-.093-.288-.203-.568-.328-.326-.134-.556-.25-.69-.345a.994.994 0 01-.298-.325.912.912 0 01-.099-.437c0-.301.11-.55.328-.749.221-.2.503-.3.845-.3.36 0 .65.104.868.314.219.21.328.478.328.806h-.602a.59.59 0 00-.167-.423.561.561 0 00-.427-.178.6.6 0 00-.42.14.474.474 0 00-.151.37.41.41 0 00.11.297c.074.075.253.174.536.297.449.175.754.347.916.516a.875.875 0 01.242.636c0 .321-.11.579-.331.772-.221.192-.517.287-.889.287-.385 0-.697-.11-.936-.331a1.095 1.095 0 01-.36-.841h.61c.006.205.069.366.187.482.119.116.285.174.5.174.2 0 .352-.044.457-.133a.46.46 0 00.158-.366zm2-2.372c.23-.298.523-.448.88-.448.655 0 .986.437.995 1.31V40h-.601v-2.43c0-.29-.049-.495-.147-.615-.096-.123-.24-.185-.434-.185a.62.62 0 00-.407.15c-.118.1-.214.232-.287.393V40h-.605v-5.25h.605v1.931zm2.651 1.299c0-.538.13-.963.39-1.275.262-.314.607-.472 1.036-.472.428 0 .772.153 1.032.458.262.306.396.722.403 1.248v.39c0 .535-.13.959-.39 1.271-.26.312-.605.468-1.038.468-.429 0-.773-.151-1.033-.454-.257-.303-.39-.713-.4-1.23v-.404zm.605.349c0 .38.074.68.223.898.15.217.352.325.605.325.533 0 .807-.385.823-1.155v-.417c0-.378-.075-.677-.225-.895a.698.698 0 00-.605-.332c-.249 0-.448.11-.598.331-.149.22-.223.517-.223.893v.352zm4.922 1.346c-.2.262-.493.393-.878.393-.335 0-.588-.115-.759-.345-.17-.232-.257-.57-.26-1.012v-2.41h.602v2.366c0 .576.173.865.52.865.366 0 .62-.164.758-.492v-2.738h.605V40h-.574l-.014-.325zm2.15.325h-.605v-5.25h.605V40zm.827-2.017c0-.57.106-1.003.318-1.302.214-.298.52-.448.92-.448a.95.95 0 01.827.431V34.75h.605V40h-.554l-.03-.397a.952.952 0 01-.852.465c-.383 0-.683-.148-.902-.444-.217-.299-.327-.719-.332-1.261v-.38zm.605.346c0 .414.062.72.185.916.123.193.323.29.601.29.301 0 .526-.151.674-.454v-1.867c-.155-.296-.378-.444-.67-.444-.278 0-.479.098-.602.294-.123.194-.185.492-.188.895v.37zM8.736 47.552c.2 0 .361-.061.482-.184.121-.126.187-.303.198-.534h.571a1.26 1.26 0 01-.38.886 1.197 1.197 0 01-.87.348c-.459 0-.808-.143-1.05-.43-.24-.29-.359-.72-.359-1.289v-.407c0-.558.12-.982.359-1.271.24-.292.588-.438 1.046-.438.378 0 .678.12.899.36.223.238.342.565.355.98h-.57c-.014-.273-.08-.478-.199-.615a.603.603 0 00-.485-.205c-.269 0-.468.089-.598.267-.13.175-.197.464-.202.868v.471c0 .436.064.743.192.923.13.18.333.27.611.27zm1.822-1.572c0-.538.13-.963.39-1.275.262-.314.607-.472 1.035-.472.429 0 .773.153 1.033.458.262.306.396.722.403 1.248v.39c0 .535-.13.959-.39 1.271-.26.312-.606.468-1.039.468-.428 0-.772-.151-1.032-.454-.258-.303-.39-.713-.4-1.23v-.404zm.605.349c0 .38.074.68.222.898.15.217.352.325.605.325.533 0 .808-.385.824-1.155v-.417c0-.378-.075-.677-.226-.895a.698.698 0 00-.605-.332c-.248 0-.447.11-.598.331-.148.22-.222.517-.222.893v.352zm3.606-2.027l.017.4c.235-.313.534-.469.9-.469.653 0 .985.437.994 1.31V48h-.602v-2.43c0-.29-.049-.495-.147-.615-.096-.123-.24-.185-.434-.185a.62.62 0 00-.407.15c-.118.1-.214.232-.287.393V48h-.605v-3.698h.571zm4.618 2.751a.447.447 0 00-.147-.335c-.098-.093-.287-.203-.568-.328-.326-.134-.556-.25-.69-.345a.995.995 0 01-.297-.325.912.912 0 01-.1-.437c0-.301.11-.55.329-.749.22-.2.502-.3.844-.3.36 0 .65.104.868.314.219.21.328.478.328.806h-.602a.59.59 0 00-.167-.423.561.561 0 00-.427-.178.6.6 0 00-.42.14.474.474 0 00-.151.37.41.41 0 00.11.297c.075.075.253.174.536.297.449.175.754.347.916.516a.874.874 0 01.243.636c0 .321-.11.579-.332.772-.22.192-.517.287-.889.287-.385 0-.697-.11-.936-.331a1.095 1.095 0 01-.359-.841h.608c.007.205.07.366.189.482.118.116.284.174.498.174.201 0 .354-.044.459-.133a.46.46 0 00.157-.366zm2.047.947h-.605v-3.698h.605V48zm.048-4.68a.387.387 0 01-.085.257c-.057.069-.144.103-.26.103-.114 0-.2-.035-.257-.103a.387.387 0 01-.085-.256.4.4 0 01.085-.26c.057-.07.143-.106.257-.106.114 0 .2.037.256.11.06.07.089.156.089.256zm.78 2.663c0-.57.105-1.003.317-1.302.214-.298.52-.448.92-.448a.95.95 0 01.827.431V42.75h.605V48h-.554l-.03-.397a.952.952 0 01-.852.465c-.383 0-.684-.148-.902-.444-.217-.299-.327-.719-.332-1.261v-.38zm.604.346c0 .414.062.72.185.916.123.193.323.29.601.29.301 0 .526-.151.674-.454v-1.867c-.155-.296-.379-.444-.67-.444-.278 0-.479.098-.602.294-.123.194-.185.492-.188.895v.37zm4.317 1.74c-.46 0-.813-.137-1.06-.41-.246-.276-.37-.68-.375-1.21V46c0-.552.12-.984.358-1.296.242-.314.578-.472 1.009-.472.433 0 .756.138.97.414.215.276.324.705.329 1.288v.397h-2.065v.085c0 .397.074.685.222.865.15.18.366.27.646.27.178 0 .334-.033.469-.099a1.18 1.18 0 00.382-.321l.315.383c-.262.369-.662.553-1.2.553zm-.068-3.316c-.25 0-.437.087-.557.26-.121.17-.19.437-.206.8h1.457v-.083c-.016-.35-.08-.601-.192-.752-.11-.15-.277-.225-.502-.225zm3.554.116a1.476 1.476 0 00-.273-.024c-.31 0-.526.17-.65.51V48h-.604v-3.698h.588l.01.376c.162-.296.39-.445.687-.445.096 0 .175.016.239.048l.003.588zm4.97 2.068l.56-2.635h.599L35.892 48h-.482l-.721-2.645L33.985 48h-.486l-.898-3.698h.594l.575 2.57.686-2.57h.48l.703 2.635zm2.4-2.256c.23-.298.524-.448.881-.448.654 0 .986.437.995 1.31V48h-.602v-2.43c0-.29-.049-.495-.147-.615-.095-.123-.24-.185-.434-.185a.62.62 0 00-.406.15c-.119.1-.215.232-.287.393V48h-.605v-5.25h.605v1.931zm4.101 3.387c-.46 0-.813-.136-1.06-.41-.245-.276-.37-.679-.375-1.21v-.447c0-.552.12-.984.358-1.296.242-.314.578-.472 1.009-.472.433 0 .756.138.97.414.215.276.324.705.329 1.288v.397h-2.065v.085c0 .397.074.685.222.865.15.18.366.27.646.27.178 0 .334-.033.469-.099a1.18 1.18 0 00.382-.321l.315.383c-.262.369-.662.553-1.2.553zm-.068-3.315c-.25 0-.437.087-.557.26-.121.17-.19.437-.205.8h1.456v-.083c-.016-.35-.08-.601-.192-.752-.11-.15-.277-.225-.502-.225zm2.82-1.347v.896h.557v.489h-.557v2.293c0 .146.023.256.071.331.048.076.13.113.246.113.08 0 .161-.013.243-.04l-.007.512a1.32 1.32 0 01-.42.068c-.24 0-.422-.085-.547-.256-.125-.17-.188-.412-.188-.725V44.79h-.564v-.488h.564v-.896h.602zm1.883 1.275c.23-.298.524-.448.882-.448.654 0 .985.437.994 1.31V48h-.601v-2.43c0-.29-.05-.495-.147-.615-.096-.123-.24-.185-.434-.185a.62.62 0 00-.407.15c-.118.1-.214.232-.287.393V48h-.605v-5.25h.605v1.931zm4.102 3.387c-.46 0-.814-.136-1.06-.41-.246-.276-.371-.679-.376-1.21v-.447c0-.552.12-.984.359-1.296.241-.314.577-.472 1.008-.472.433 0 .757.138.97.414.215.276.324.705.329 1.288v.397h-2.065v.085c0 .397.075.685.223.865.15.18.365.27.646.27.177 0 .334-.033.468-.099a1.18 1.18 0 00.383-.321l.314.383c-.262.369-.662.553-1.2.553zm-.069-3.315c-.25 0-.436.087-.557.26-.12.17-.19.437-.205.8h1.456v-.083c-.016-.35-.08-.601-.192-.752-.109-.15-.276-.225-.502-.225zm3.555.116a1.476 1.476 0 00-.274-.024c-.31 0-.526.17-.65.51V48h-.604v-3.698h.588l.01.376c.162-.296.39-.445.687-.445.096 0 .176.016.24.048l.003.588zm3.223 2.126l.673-2.693h.643l-1.21 4.22c-.091.318-.22.558-.386.722a.782.782 0 01-.568.25c-.082 0-.187-.019-.314-.055v-.513l.133.014c.176 0 .312-.042.41-.127.1-.082.181-.225.243-.43l.12-.414-1.087-3.667h.66l.683 2.693zm1.78-1.015c0-.538.13-.963.39-1.275.262-.314.608-.472 1.036-.472.428 0 .773.153 1.032.458.262.306.397.722.404 1.248v.39c0 .535-.13.959-.39 1.271-.26.312-.606.468-1.04.468-.428 0-.772-.151-1.031-.454-.258-.303-.391-.713-.4-1.23v-.404zm.606.349c0 .38.074.68.222.898.15.217.352.325.605.325.533 0 .808-.385.824-1.155v-.417c0-.378-.076-.677-.226-.895a.698.698 0 00-.605-.332c-.248 0-.448.11-.598.331-.148.22-.222.517-.222.893v.352zm4.922 1.346c-.201.262-.494.393-.879.393-.335 0-.588-.115-.759-.345-.17-.232-.257-.57-.26-1.012v-2.41h.602v2.366c0 .576.173.865.52.865.367 0 .62-.164.758-.492v-2.738h.605V48h-.574l-.013-.325zm-55.556 8c-.2.262-.493.393-.879.393-.334 0-.587-.115-.758-.345-.171-.232-.258-.57-.26-1.012v-2.41h.601v2.366c0 .576.174.865.52.865.367 0 .62-.164.759-.492v-2.738h.605V56h-.574l-.014-.325zm2.068-3.373l.017.4c.235-.313.534-.469.899-.469.654 0 .985.437.994 1.31V56h-.601v-2.43c0-.29-.05-.495-.147-.615-.096-.123-.24-.185-.434-.185a.62.62 0 00-.407.15c-.118.1-.214.232-.287.393V56h-.605v-3.698h.57zm2.693 1.681c0-.57.106-1.003.318-1.302.214-.298.52-.448.92-.448a.95.95 0 01.827.431V50.75h.605V56h-.554l-.03-.397a.952.952 0 01-.852.465c-.383 0-.684-.148-.902-.444-.217-.299-.327-.719-.332-1.261v-.38zm.605.346c0 .414.062.72.185.916.123.193.323.29.601.29.301 0 .525-.151.674-.454v-1.867c-.155-.296-.379-.444-.67-.444-.278 0-.479.098-.602.294-.123.194-.186.492-.188.895v.37zm4.317 1.74c-.46 0-.814-.137-1.06-.41-.246-.276-.371-.68-.376-1.21V54c0-.552.12-.984.36-1.296.24-.314.577-.472 1.008-.472.433 0 .756.138.97.414.215.276.324.705.329 1.288v.397h-2.065v.085c0 .397.074.685.222.865.15.18.366.27.646.27.178 0 .334-.033.468-.099.137-.068.265-.175.383-.321l.315.383c-.262.369-.662.553-1.2.553zm-.068-3.316c-.251 0-.437.087-.558.26-.12.17-.189.437-.205.8h1.456v-.083c-.015-.35-.08-.601-.19-.752-.11-.15-.278-.225-.503-.225zm3.554.116a1.476 1.476 0 00-.273-.024c-.31 0-.527.17-.65.51V56h-.604v-3.698h.587l.01.376c.162-.296.391-.445.688-.445.095 0 .175.016.239.048l.003.588zm2.403 2.184a.447.447 0 00-.147-.335c-.098-.093-.287-.203-.567-.328-.326-.134-.556-.25-.69-.345a.994.994 0 01-.298-.325.912.912 0 01-.1-.437c0-.301.11-.55.329-.749.221-.2.502-.3.844-.3.36 0 .65.104.868.314.22.21.328.478.328.806h-.601a.59.59 0 00-.168-.423.561.561 0 00-.427-.178.6.6 0 00-.42.14.474.474 0 00-.15.37.41.41 0 00.109.297c.075.075.254.174.536.297.45.175.755.347.916.516a.875.875 0 01.243.636c0 .321-.11.579-.331.772-.221.192-.518.287-.89.287-.384 0-.696-.11-.936-.331a1.095 1.095 0 01-.358-.841h.608c.007.205.07.366.188.482.118.116.285.174.499.174.2 0 .353-.044.458-.133a.46.46 0 00.157-.366zm2.188-3.647v.896h.557v.489h-.557v2.293c0 .146.024.256.071.331.048.076.13.113.247.113.08 0 .16-.013.242-.04l-.007.512a1.32 1.32 0 01-.42.068c-.24 0-.422-.085-.547-.256-.125-.17-.188-.412-.188-.725V52.79h-.564v-.488h.564v-.896h.602zM30.28 56a1.328 1.328 0 01-.079-.403c-.214.314-.488.471-.82.471-.335 0-.597-.093-.786-.28-.187-.189-.28-.454-.28-.796 0-.376.127-.675.382-.896.256-.22.605-.334 1.05-.338h.444v-.393c0-.221-.05-.379-.147-.472-.098-.093-.247-.14-.448-.14a.615.615 0 00-.444.164.538.538 0 00-.171.41h-.605c0-.189.056-.369.168-.54.111-.173.261-.309.45-.407.19-.098.4-.147.633-.147.378 0 .665.095.861.284.198.187.3.46.305.82v1.867c.002.284.04.532.116.741V56h-.63zm-.807-.482c.148 0 .29-.04.424-.123a.759.759 0 00.294-.308v-.881h-.342c-.287.004-.514.07-.68.194a.609.609 0 00-.25.52c0 .21.043.362.127.458.084.093.227.14.427.14zm2.83-3.216l.017.4c.235-.313.535-.469.9-.469.653 0 .985.437.994 1.31V56h-.602v-2.43c0-.29-.049-.495-.147-.615-.095-.123-.24-.185-.434-.185a.62.62 0 00-.407.15c-.118.1-.214.232-.287.393V56h-.605v-3.698h.571zm2.694 1.681c0-.57.105-1.003.318-1.302.214-.298.52-.448.919-.448a.95.95 0 01.827.431V50.75h.605V56h-.554l-.03-.397a.952.952 0 01-.852.465c-.382 0-.683-.148-.902-.444-.216-.299-.327-.719-.331-1.261v-.38zm.605.346c0 .414.061.72.184.916.123.193.324.29.602.29.3 0 .525-.151.673-.454v-1.867c-.155-.296-.378-.444-.67-.444-.278 0-.478.098-.601.294-.123.194-.186.492-.188.895v.37zm5.205-1.648c.23-.298.524-.448.882-.448.654 0 .986.437.995 1.31V56h-.602v-2.43c0-.29-.049-.495-.147-.615-.096-.123-.24-.185-.434-.185a.62.62 0 00-.407.15c-.118.1-.214.232-.287.393V56h-.605v-5.25h.605v1.931zm2.652 1.299c0-.538.13-.963.39-1.275.262-.314.607-.472 1.036-.472.428 0 .772.153 1.032.458.262.306.396.722.403 1.248v.39c0 .535-.13.959-.39 1.271-.26.312-.605.468-1.038.468-.429 0-.773-.151-1.033-.454-.257-.303-.39-.713-.4-1.23v-.404zm.605.349c0 .38.075.68.223.898.15.217.352.325.605.325.533 0 .807-.385.823-1.155v-.417c0-.378-.075-.677-.225-.895a.698.698 0 00-.605-.332c-.249 0-.448.11-.598.331-.148.22-.222.517-.222.893v.352zm5.794.608l.56-2.635h.599L50.11 56h-.482l-.721-2.645L48.204 56h-.486l-.899-3.698h.595l.574 2.57.687-2.57h.479l.704 2.635zm6.607-.516c-.028.533-.178.941-.451 1.224-.272.282-.655.423-1.152.423-.5 0-.896-.189-1.19-.567-.294-.38-.44-.895-.44-1.545v-.902c0-.647.15-1.159.45-1.535.304-.376.716-.564 1.238-.564.48 0 .852.145 1.114.434.264.287.408.699.43 1.234h-.631c-.028-.406-.113-.695-.257-.868-.143-.173-.362-.26-.656-.26-.34 0-.6.133-.783.4-.182.264-.273.653-.273 1.165v.913c0 .504.084.89.253 1.159a.83.83 0 00.745.403c.326 0 .56-.08.704-.242.143-.162.232-.453.267-.872h.632zm3.158-.619h-1.682V56h-.625v-4.977h2.59v.54h-1.965v1.703h1.682v.536zM60.679 56v-4.977h1.186c.581 0 1.032.183 1.354.547.321.363.482.873.482 1.532v.834c0 .658-.163 1.167-.49 1.527-.325.358-.798.537-1.417.537h-1.115zm.626-4.437v3.9h.502c.44 0 .761-.125.964-.376.203-.253.306-.626.311-1.12v-.883c0-.524-.101-.908-.304-1.151-.2-.246-.505-.37-.913-.37h-.56zm5.086 3.49a.447.447 0 00-.147-.335c-.098-.093-.287-.203-.568-.328-.326-.134-.556-.25-.69-.345a.995.995 0 01-.297-.325.912.912 0 01-.1-.437c0-.301.11-.55.329-.749.22-.2.502-.3.844-.3.36 0 .65.104.868.314.219.21.328.478.328.806h-.602a.59.59 0 00-.167-.423.561.561 0 00-.427-.178.6.6 0 00-.42.14.474.474 0 00-.151.37.41.41 0 00.11.297c.075.075.253.174.536.297.449.175.754.347.916.516a.874.874 0 01.243.636c0 .321-.11.579-.332.772-.221.192-.517.287-.889.287-.385 0-.697-.11-.936-.331a1.095 1.095 0 01-.359-.841h.608c.007.205.07.366.188.482.119.116.285.174.5.174.2 0 .353-.044.457-.133a.46.46 0 00.158-.366zm5.759-.116l.56-2.635h.599L72.403 56h-.482l-.721-2.645L70.496 56h-.486l-.899-3.698h.595l.574 2.57.687-2.57h.479l.704 2.635zm1.668-.957c0-.538.13-.963.39-1.275.262-.314.607-.472 1.035-.472.428 0 .773.153 1.032.458.262.306.397.722.404 1.248v.39c0 .535-.13.959-.39 1.271-.26.312-.606.468-1.039.468-.428 0-.772-.151-1.032-.454-.258-.303-.391-.713-.4-1.23v-.404zm.605.349c0 .38.074.68.222.898.15.217.352.325.605.325.533 0 .808-.385.824-1.155v-.417c0-.378-.075-.677-.226-.895a.698.698 0 00-.605-.332c-.248 0-.448.11-.598.331-.148.22-.222.517-.222.893v.352zm4.563-1.46a1.476 1.476 0 00-.274-.024c-.31 0-.526.17-.649.51V56h-.605v-3.698h.588l.01.376c.162-.296.39-.445.687-.445.096 0 .176.016.24.048l.003.588zm1.534 1.44l-.32.368V56h-.606v-5.25h.605v3.141l1.152-1.59h.725L80.9 53.848 82.23 56h-.705l-1.005-1.692zM9.355 64a1.33 1.33 0 01-.079-.403c-.214.314-.487.471-.82.471-.335 0-.597-.093-.786-.28-.187-.189-.28-.454-.28-.796 0-.376.127-.675.382-.896.256-.22.605-.334 1.05-.338h.444v-.393c0-.221-.049-.379-.147-.472-.098-.093-.247-.14-.448-.14a.615.615 0 00-.444.164.538.538 0 00-.17.41H7.45c0-.189.056-.369.168-.54.111-.173.262-.309.45-.407.19-.098.4-.147.633-.147.378 0 .666.095.861.284.199.187.3.46.305.82v1.867c.002.284.04.532.116.741V64h-.629zm-.807-.482a.8.8 0 00.424-.123.759.759 0 00.294-.308v-.881h-.342c-.287.004-.514.07-.68.194a.609.609 0 00-.25.52c0 .21.043.362.127.458.084.093.227.14.427.14zm2.83-3.216l.018.4c.234-.313.534-.469.898-.469.654 0 .986.437.995 1.31V64h-.601v-2.43c0-.29-.05-.495-.148-.615-.095-.123-.24-.185-.434-.185a.62.62 0 00-.406.15c-.119.1-.214.232-.287.393V64h-.605v-3.698h.57zm2.694 1.681c0-.57.106-1.003.318-1.302.214-.298.52-.448.92-.448a.95.95 0 01.826.431V58.75h.605V64h-.553l-.031-.397a.952.952 0 01-.851.465c-.383 0-.684-.148-.903-.444-.216-.299-.327-.719-.331-1.261v-.38zm.605.346c0 .414.061.72.184.916.123.193.324.29.602.29.3 0 .525-.151.673-.454v-1.867c-.155-.296-.378-.444-.67-.444-.278 0-.478.098-.601.294-.123.194-.186.492-.188.895v.37zm7.359.608l.56-2.635h.598L22.29 64h-.482l-.722-2.645L20.381 64h-.485l-.899-3.698h.595l.574 2.57.687-2.57h.478l.705 2.635zm2.4-2.256c.23-.298.523-.448.88-.448.655 0 .986.437.995 1.31V64h-.601v-2.43c0-.29-.049-.495-.147-.615-.096-.123-.24-.185-.434-.185a.62.62 0 00-.407.15c-.118.1-.214.232-.287.393V64h-.605v-5.25h.605v1.931zm4.1 3.387c-.46 0-.813-.136-1.059-.41-.246-.276-.371-.679-.376-1.21v-.447c0-.552.12-.984.359-1.296.241-.314.578-.472 1.008-.472.433 0 .757.138.971.414.214.276.323.705.328 1.288v.397h-2.064v.085c0 .397.074.685.222.865.15.18.366.27.646.27.177 0 .334-.033.468-.099a1.18 1.18 0 00.383-.321l.314.383c-.262.369-.662.553-1.2.553zm-.068-3.315c-.25 0-.436.087-.557.26-.12.17-.189.437-.205.8h1.456v-.083c-.016-.35-.08-.601-.191-.752-.11-.15-.277-.225-.503-.225zm2.82-1.347v.896h.557v.489h-.557v2.293c0 .146.024.256.072.331.048.076.13.113.246.113.08 0 .16-.013.243-.04l-.007.512a1.32 1.32 0 01-.42.068c-.24 0-.422-.085-.547-.256-.126-.17-.189-.412-.189-.725V60.79h-.563v-.488h.563v-.896h.602zm1.883 1.275c.23-.298.525-.448.882-.448.654 0 .986.437.995 1.31V64h-.602v-2.43c0-.29-.049-.495-.147-.615-.095-.123-.24-.185-.434-.185a.62.62 0 00-.407.15c-.118.1-.214.232-.287.393V64h-.605v-5.25h.605v1.931zm4.102 3.387c-.46 0-.814-.136-1.06-.41-.246-.276-.371-.679-.376-1.21v-.447c0-.552.12-.984.36-1.296.24-.314.577-.472 1.008-.472.433 0 .756.138.97.414.215.276.324.705.328 1.288v.397H36.44v.085c0 .397.074.685.222.865.15.18.366.27.646.27.178 0 .334-.033.468-.099a1.18 1.18 0 00.383-.321l.315.383c-.262.369-.662.553-1.2.553zm-.068-3.315c-.251 0-.437.087-.557.26-.121.17-.19.437-.206.8h1.456v-.083c-.016-.35-.08-.601-.191-.752-.11-.15-.277-.225-.502-.225zm3.554.116a1.477 1.477 0 00-.273-.024c-.31 0-.526.17-.65.51V64h-.605v-3.698h.588l.01.376c.162-.296.391-.445.688-.445.095 0 .175.016.239.048l.003.588zm3.223 2.126l.674-2.693h.642l-1.21 4.22c-.09.318-.22.558-.386.722a.782.782 0 01-.567.25c-.082 0-.187-.019-.315-.055v-.513l.134.014c.175 0 .312-.042.41-.126.1-.083.18-.226.242-.431l.12-.414-1.087-3.667h.66l.683 2.693zm1.781-1.015c0-.538.13-.963.39-1.275.262-.314.607-.472 1.035-.472.429 0 .773.153 1.033.458.262.306.396.722.403 1.248v.39c0 .535-.13.959-.39 1.271-.26.312-.606.468-1.039.468-.428 0-.772-.151-1.032-.454-.257-.303-.39-.713-.4-1.23v-.404zm.605.349c0 .38.074.68.222.898.15.217.352.325.605.325.533 0 .808-.385.824-1.155v-.417c0-.378-.075-.677-.225-.895a.698.698 0 00-.605-.332c-.249 0-.448.11-.599.331-.148.22-.222.517-.222.893v.352zm4.922 1.346c-.2.262-.493.393-.878.393-.335 0-.588-.115-.76-.345-.17-.232-.257-.57-.259-1.012v-2.41h.602v2.366c0 .576.173.865.52.865.366 0 .619-.164.758-.492v-2.738h.605V64h-.574l-.014-.325zm4.389-.123c.2 0 .36-.061.482-.184.12-.126.186-.303.198-.534h.57a1.26 1.26 0 01-.379.886 1.197 1.197 0 01-.871.348c-.458 0-.808-.143-1.05-.43-.239-.29-.358-.72-.358-1.289v-.407c0-.558.12-.982.358-1.271.24-.292.588-.438 1.046-.438.379 0 .678.12.9.36.222.238.341.565.355.98h-.571c-.014-.273-.08-.478-.198-.615a.603.603 0 00-.486-.205c-.269 0-.468.089-.598.267-.13.175-.197.464-.201.868v.471c0 .436.063.743.19.923.13.18.335.27.613.27zM59.53 64a1.33 1.33 0 01-.079-.403c-.214.314-.487.471-.82.471-.335 0-.597-.093-.786-.28-.187-.189-.28-.454-.28-.796 0-.376.127-.675.382-.896.255-.22.605-.334 1.05-.338h.444v-.393c0-.221-.05-.379-.147-.472-.098-.093-.247-.14-.448-.14a.615.615 0 00-.444.164.538.538 0 00-.171.41h-.605c0-.189.056-.369.167-.54.112-.173.263-.309.452-.407.189-.098.4-.147.632-.147.378 0 .665.095.861.284.199.187.3.46.305.82v1.867c.002.284.04.532.116.741V64h-.63zm-.807-.482a.8.8 0 00.424-.123.758.758 0 00.294-.308v-.881H59.1c-.287.004-.514.07-.68.194a.609.609 0 00-.25.52c0 .21.043.362.127.458.084.093.227.14.427.14zm2.83-3.216l.017.4c.235-.313.535-.469.9-.469.653 0 .985.437.994 1.31V64h-.602v-2.43c0-.29-.049-.495-.147-.615-.095-.123-.24-.185-.434-.185a.62.62 0 00-.406.15c-.119.1-.215.232-.288.393V64h-.605v-3.698h.571zM67.884 64a1.328 1.328 0 01-.078-.403c-.215.314-.488.471-.82.471-.336 0-.598-.093-.787-.28-.187-.189-.28-.454-.28-.796 0-.376.127-.675.383-.896.255-.22.605-.334 1.05-.338h.443v-.393c0-.221-.049-.379-.147-.472-.097-.093-.247-.14-.447-.14a.615.615 0 00-.445.164.538.538 0 00-.17.41h-.605c0-.189.055-.369.167-.54.112-.173.262-.309.451-.407.19-.098.4-.147.632-.147.379 0 .666.095.862.284.198.187.3.46.304.82v1.867c.002.284.041.532.116.741V64h-.629zm-.806-.482c.148 0 .289-.04.423-.123a.759.759 0 00.294-.308v-.881h-.341c-.287.004-.514.07-.68.194a.609.609 0 00-.25.52c0 .21.042.362.126.458.085.093.227.14.428.14zm2.525.482v-3.21h-.481v-.488h.481v-.428c.007-.376.102-.668.284-.878.185-.212.445-.318.78-.318.12 0 .242.02.365.058l-.03.513a1.2 1.2 0 00-.277-.03c-.344 0-.516.244-.516.734v.349h.632v.489h-.632V64h-.606zm2.215 0v-3.21h-.482v-.488h.482v-.428c.007-.376.102-.668.284-.878.185-.212.444-.318.78-.318.12 0 .242.02.365.058l-.03.513a1.2 1.2 0 00-.278-.03c-.344 0-.516.244-.516.734v.349h.633v.489h-.633V64h-.605zm1.822-2.02c0-.538.13-.963.39-1.275.262-.314.607-.472 1.035-.472.429 0 .773.153 1.033.458.262.306.396.722.403 1.248v.39c0 .535-.13.959-.39 1.271-.26.312-.606.468-1.039.468-.428 0-.772-.151-1.032-.454-.257-.303-.39-.713-.4-1.23v-.404zm.605.349c0 .38.074.68.222.898.15.217.352.325.605.325.534 0 .808-.385.824-1.155v-.417c0-.378-.075-.677-.226-.895a.698.698 0 00-.605-.332c-.248 0-.447.11-.598.331-.148.22-.222.517-.222.893v.352zm4.563-1.46a1.476 1.476 0 00-.273-.024c-.31 0-.527.17-.65.51V64h-.605v-3.698h.588l.01.376c.162-.296.391-.445.687-.445.096 0 .176.016.24.048l.003.588zm.479 1.114c0-.57.106-1.003.317-1.302.215-.298.521-.448.92-.448a.95.95 0 01.827.431V58.75h.605V64h-.554l-.03-.397a.952.952 0 01-.852.465c-.382 0-.683-.148-.902-.444-.216-.299-.327-.719-.331-1.261v-.38zm.605.346c0 .414.061.72.184.916.123.193.324.29.602.29.3 0 .525-.151.673-.454v-1.867c-.155-.296-.378-.444-.67-.444-.278 0-.478.098-.601.294-.123.194-.186.492-.188.895v.37zM8.244 67.406v.896h.557v.488h-.557v2.294c0 .146.024.256.072.331.048.076.13.113.246.113.08 0 .16-.013.243-.04L8.798 72a1.32 1.32 0 01-.42.068c-.24 0-.422-.085-.547-.256-.126-.17-.188-.412-.188-.725V68.79h-.564v-.488h.564v-.896h.601zm1.084 2.574c0-.538.13-.963.39-1.275.261-.314.607-.472 1.035-.472.428 0 .772.153 1.032.458.262.306.397.722.403 1.248v.39c0 .535-.13.959-.39 1.271-.259.312-.605.468-1.038.468-.429 0-.773-.151-1.032-.454-.258-.303-.391-.713-.4-1.23v-.404zm.605.349c0 .38.074.68.222.899.15.216.352.324.605.324.533 0 .808-.385.824-1.155v-.417c0-.378-.076-.677-.226-.895a.698.698 0 00-.605-.332c-.248 0-.448.11-.598.332-.148.218-.222.516-.222.892v.352zm5.434-2.923v.896h.557v.488h-.557v2.294c0 .146.024.256.072.331.048.076.13.113.246.113.08 0 .16-.013.243-.04L15.92 72a1.32 1.32 0 01-.42.068c-.24 0-.422-.085-.547-.256-.126-.17-.188-.412-.188-.725V68.79h-.564v-.488h.564v-.896h.601zM18.55 72a1.334 1.334 0 01-.078-.403c-.215.314-.488.471-.82.471-.336 0-.598-.093-.787-.28-.187-.189-.28-.454-.28-.796 0-.376.128-.675.383-.896.255-.22.605-.334 1.05-.338h.443v-.393c0-.221-.049-.378-.146-.472-.099-.093-.248-.14-.448-.14a.615.615 0 00-.445.164.538.538 0 00-.17.41h-.606c0-.189.056-.369.168-.54a1.16 1.16 0 01.451-.407c.19-.098.4-.147.633-.147.378 0 .665.095.86.284.2.187.3.46.305.82v1.867c.002.284.041.532.116.741V72h-.629zm-.806-.482a.8.8 0 00.424-.123.759.759 0 00.293-.308v-.881h-.341c-.288.004-.514.07-.68.194a.608.608 0 00-.25.52c0 .21.042.362.126.458.085.093.227.14.428.14zm3.189-1.21l-.322.37V72h-.605v-5.25h.605v3.141l1.152-1.59h.725l-1.176 1.546L22.641 72h-.704l-1.005-1.692zm3.55 1.76c-.46 0-.813-.136-1.059-.41-.246-.276-.371-.679-.376-1.21v-.447c0-.552.12-.984.36-1.296.24-.314.577-.472 1.008-.472.433 0 .756.138.97.414.214.276.324.705.328 1.288v.397H23.65v.086c0 .396.074.684.222.864.15.18.366.27.646.27.178 0 .334-.033.468-.099a1.18 1.18 0 00.383-.321l.315.383c-.262.369-.662.553-1.2.553zm-.067-3.315c-.251 0-.437.087-.558.26-.12.17-.189.437-.205.8h1.456v-.082c-.016-.351-.08-.602-.191-.752-.11-.15-.277-.226-.502-.226zm4.426-1.347v.896h.557v.488h-.557v2.294c0 .146.024.256.072.331.047.076.13.113.246.113.08 0 .16-.013.242-.04l-.006.512a1.32 1.32 0 01-.42.068c-.24 0-.422-.085-.548-.256-.125-.17-.188-.412-.188-.725V68.79h-.564v-.488h.564v-.896h.602zm1.883 1.275c.23-.298.524-.448.882-.448.654 0 .986.437.995 1.31V72h-.602v-2.43c0-.29-.049-.495-.147-.615-.096-.123-.24-.185-.434-.185a.62.62 0 00-.407.15c-.118.1-.214.232-.287.394V72h-.605v-5.25h.605v1.931zm4.102 3.387c-.46 0-.814-.136-1.06-.41-.246-.276-.371-.679-.376-1.21v-.447c0-.552.12-.984.359-1.296.242-.314.578-.472 1.008-.472.433 0 .757.138.971.414.214.276.324.705.328 1.288v.397h-2.064v.086c0 .396.074.684.222.864.15.18.366.27.646.27.178 0 .334-.033.468-.099a1.18 1.18 0 00.383-.321l.314.383c-.262.369-.662.553-1.2.553zm-.069-3.315c-.25 0-.436.087-.557.26-.12.17-.189.437-.205.8h1.456v-.082c-.016-.351-.08-.602-.191-.752-.11-.15-.277-.226-.503-.226zm4.239-.072c.23-.298.524-.448.881-.448.654 0 .986.437.995 1.31V72h-.602v-2.43c0-.29-.049-.495-.147-.615-.095-.123-.24-.185-.433-.185a.62.62 0 00-.407.15c-.119.1-.215.232-.287.394V72h-.605v-5.25h.605v1.931zM42.427 72h-.605v-3.698h.605V72zm.048-4.68a.387.387 0 01-.085.257c-.057.069-.144.103-.26.103-.114 0-.2-.035-.257-.103a.387.387 0 01-.085-.256c0-.103.029-.19.086-.26.056-.07.142-.106.256-.106.114 0 .2.037.256.11.06.07.09.156.09.256zm.786 2.663c0-.576.105-1.011.315-1.305.21-.296.516-.445.92-.445.375 0 .661.161.857.482l.03-.413h.548v3.732c0 .458-.118.81-.352 1.053-.235.246-.562.37-.981.37-.183 0-.388-.046-.616-.138a1.275 1.275 0 01-.509-.331l.246-.417c.25.246.528.369.83.369.504 0 .763-.275.777-.824v-.482a.949.949 0 01-.834.434c-.383 0-.682-.143-.896-.43-.214-.29-.326-.704-.335-1.244v-.41zm.605.346c0 .414.06.72.181.916.123.193.324.29.602.29.3 0 .526-.154.677-.461v-1.85c-.157-.303-.38-.454-.67-.454-.278 0-.479.098-.602.294-.123.194-.186.492-.188.896v.369zm3.572-1.648c.23-.298.524-.448.882-.448.654 0 .985.437.995 1.31V72h-.602v-2.43c0-.29-.05-.495-.147-.615-.096-.123-.24-.185-.434-.185a.62.62 0 00-.407.15c-.118.1-.214.232-.287.394V72h-.605v-5.25h.605v1.931zm5.913.188a1.477 1.477 0 00-.273-.024c-.31 0-.527.17-.65.51V72h-.605v-3.698h.588l.01.376c.162-.296.391-.445.687-.445.096 0 .176.016.24.048l.003.588zM54.61 72h-.605v-3.698h.605V72zm.048-4.68a.387.387 0 01-.086.257c-.057.069-.143.103-.26.103-.113 0-.199-.035-.256-.103a.387.387 0 01-.085-.256.4.4 0 01.085-.26c.057-.07.143-.106.257-.106.114 0 .199.037.256.11.06.07.089.156.089.256zm2.703 3.733a.447.447 0 00-.147-.335c-.098-.093-.287-.203-.567-.328-.326-.134-.556-.25-.69-.345a.994.994 0 01-.298-.325.912.912 0 01-.099-.437c0-.301.11-.55.328-.749.221-.2.503-.3.844-.3.36 0 .65.104.869.314.218.21.328.478.328.806h-.602a.59.59 0 00-.167-.423.561.561 0 00-.428-.178.6.6 0 00-.42.14.474.474 0 00-.15.37.41.41 0 00.109.297c.075.075.254.174.537.297.448.175.754.347.916.516a.875.875 0 01.242.636c0 .321-.11.579-.331.772-.221.192-.517.287-.889.287-.385 0-.697-.11-.936-.331a1.095 1.095 0 01-.36-.841h.61c.006.205.069.366.187.482.119.116.285.174.5.174.2 0 .352-.044.457-.133a.46.46 0 00.157-.366zm2.325-.745l-.322.37V72h-.605v-5.25h.605v3.141l1.152-1.59h.725l-1.176 1.546L61.394 72h-.704l-1.005-1.692zm3.708-.328c0-.538.13-.963.39-1.275.262-.314.607-.472 1.035-.472.429 0 .773.153 1.033.458.262.306.396.722.403 1.248v.39c0 .535-.13.959-.39 1.271-.26.312-.606.468-1.039.468-.428 0-.772-.151-1.032-.454-.258-.303-.39-.713-.4-1.23v-.404zm.605.349c0 .38.074.68.222.899.15.216.352.324.605.324.533 0 .808-.385.824-1.155v-.417c0-.378-.075-.677-.226-.895a.698.698 0 00-.605-.332c-.248 0-.447.11-.598.332-.148.218-.222.516-.222.892v.352zM67.3 72v-3.21h-.482v-.488h.482v-.428c.007-.375.101-.668.284-.878.184-.212.444-.318.779-.318.12 0 .243.02.365.058l-.03.513a1.2 1.2 0 00-.277-.03c-.344 0-.516.244-.516.734v.349h.632v.488h-.632V72H67.3zM8.104 80h-.605v-5.25h.605V80zm.827-2.02c0-.538.13-.963.39-1.275.262-.314.607-.472 1.035-.472.429 0 .773.153 1.033.458.262.306.396.722.403 1.248v.39c0 .535-.13.959-.39 1.271-.26.312-.606.468-1.039.468-.428 0-.772-.151-1.032-.454-.257-.303-.39-.713-.4-1.23v-.404zm.605.349c0 .38.074.68.222.899.15.216.352.324.605.324.534 0 .808-.385.824-1.155v-.417c0-.378-.075-.677-.226-.895a.698.698 0 00-.605-.332c-.248 0-.447.11-.598.332-.148.218-.222.516-.222.892v.352zm4.833.724a.447.447 0 00-.147-.335c-.098-.093-.287-.203-.567-.328-.326-.134-.556-.25-.69-.345a.994.994 0 01-.298-.325.912.912 0 01-.1-.437c0-.301.11-.55.329-.749.221-.2.502-.3.844-.3.36 0 .65.104.868.314.22.21.329.478.329.806h-.602a.59.59 0 00-.168-.423.561.561 0 00-.427-.178.6.6 0 00-.42.14.474.474 0 00-.15.37.41.41 0 00.109.297c.075.075.254.174.536.297.45.175.755.347.916.516a.874.874 0 01.243.636c0 .321-.11.579-.331.772-.222.192-.518.287-.89.287-.384 0-.696-.11-.936-.331a1.095 1.095 0 01-.358-.841h.608c.007.205.07.366.188.482.118.116.285.174.499.174.2 0 .353-.044.458-.133a.46.46 0 00.157-.366zm2.047.947h-.604v-3.698h.604V80zm.048-4.68a.387.387 0 01-.085.257c-.057.069-.144.103-.26.103-.114 0-.2-.035-.256-.103a.387.387 0 01-.086-.256.4.4 0 01.086-.26c.057-.07.142-.106.256-.106.114 0 .2.037.256.11.06.07.09.156.09.256zm1.477.982l.017.4c.235-.313.534-.469.899-.469.654 0 .985.437.995 1.31V80h-.602v-2.43c0-.29-.049-.495-.147-.615-.096-.123-.24-.185-.434-.185a.62.62 0 00-.407.15c-.118.1-.214.232-.287.394V80h-.605v-3.698h.57zm2.7 1.681c0-.576.105-1.011.315-1.305.21-.296.516-.445.919-.445.376 0 .662.161.858.482l.03-.413h.547v3.732c0 .458-.117.81-.351 1.053-.235.246-.562.37-.982.37-.182 0-.387-.046-.615-.138a1.275 1.275 0 01-.509-.331l.246-.417c.25.246.528.369.83.369.504 0 .763-.275.777-.824v-.482a.949.949 0 01-.834.434c-.383 0-.682-.143-.896-.43-.214-.29-.326-.704-.335-1.244v-.41zm.605.346c0 .414.06.72.181.916.123.193.324.29.602.29.3 0 .526-.154.677-.461v-1.85c-.158-.303-.381-.454-.67-.454-.278 0-.479.098-.602.294-.123.194-.186.492-.188.896v.369zm5.585.666l.673-2.693h.643l-1.21 4.22c-.091.318-.22.558-.386.722a.782.782 0 01-.568.25c-.082 0-.186-.019-.314-.055v-.513l.133.014c.176 0 .312-.042.41-.126.1-.083.182-.226.243-.431l.12-.414-1.087-3.667h.66l.683 2.693zm1.78-1.015c0-.538.13-.963.39-1.275.262-.314.608-.472 1.036-.472.428 0 .773.153 1.032.458.262.306.397.722.404 1.248v.39c0 .535-.13.959-.39 1.271-.26.312-.606.468-1.04.468-.427 0-.771-.151-1.031-.454-.258-.303-.391-.713-.4-1.23v-.404zm.606.349c0 .38.074.68.222.899.15.216.352.324.605.324.533 0 .808-.385.824-1.155v-.417c0-.378-.075-.677-.226-.895a.698.698 0 00-.605-.332c-.248 0-.448.11-.598.332-.148.218-.222.516-.222.892v.352zm4.922 1.346c-.2.262-.494.393-.879.393-.335 0-.588-.115-.758-.345-.171-.232-.258-.57-.26-1.012v-2.41h.601v2.366c0 .576.173.865.52.865.367 0 .62-.164.759-.492v-2.738h.605V80h-.575l-.013-.325zm3.025-2.806a1.477 1.477 0 00-.274-.024c-.31 0-.526.17-.65.51V80h-.604v-3.698h.588l.01.376c.162-.296.39-.445.687-.445.096 0 .175.016.24.048l.003.588zm2.782-.567l.014.342a1.1 1.1 0 01.892-.41c.412 0 .7.178.864.536.233-.358.556-.537.971-.537.681 0 1.03.425 1.046 1.275V80h-.602v-2.434c0-.269-.047-.468-.143-.598-.096-.132-.258-.198-.486-.198-.182 0-.33.07-.444.212a.966.966 0 00-.198.54V80h-.608v-2.46c-.007-.514-.216-.77-.626-.77-.305 0-.52.153-.646.458V80h-.602v-3.698h.568zm4.573 1.678c0-.538.13-.963.39-1.275.262-.314.607-.472 1.035-.472.429 0 .773.153 1.033.458.262.306.396.722.403 1.248v.39c0 .535-.13.959-.39 1.271-.26.312-.606.468-1.039.468-.428 0-.772-.151-1.032-.454-.258-.303-.39-.713-.4-1.23v-.404zm.605.349c0 .38.074.68.222.899.15.216.352.324.605.324.533 0 .808-.385.824-1.155v-.417c0-.378-.075-.677-.226-.895a.698.698 0 00-.605-.332c-.248 0-.447.11-.598.332-.148.218-.222.516-.222.892v.352zm3.606-2.027l.017.4c.235-.313.534-.469.899-.469.654 0 .986.437.995 1.31V80h-.602v-2.43c0-.29-.049-.495-.147-.615-.096-.123-.24-.185-.434-.185a.62.62 0 00-.407.15c-.118.1-.214.232-.287.394V80h-.605v-3.698h.571zm4.143 3.766c-.46 0-.814-.136-1.06-.41-.246-.276-.371-.679-.376-1.21v-.447c0-.552.12-.984.359-1.296.241-.314.578-.472 1.008-.472.433 0 .757.138.97.414.215.276.325.705.329 1.288v.397h-2.064v.086c0 .396.074.684.222.864.15.18.365.27.646.27.178 0 .334-.033.468-.099a1.18 1.18 0 00.383-.321l.314.383c-.262.369-.662.553-1.2.553zm-.069-3.315c-.25 0-.436.087-.557.26-.12.17-.19.437-.205.8h1.456v-.082c-.016-.351-.08-.602-.191-.752-.11-.15-.277-.226-.503-.226zm3.039 2.242l.673-2.693h.643l-1.21 4.22c-.091.318-.22.558-.386.722a.782.782 0 01-.568.25c-.082 0-.187-.019-.314-.055v-.513l.133.014c.175 0 .312-.042.41-.126.1-.083.181-.226.243-.431l.12-.414-1.088-3.667h.66l.684 2.693zm1.948.673a.4.4 0 01.096-.273c.066-.073.164-.11.294-.11.13 0 .227.037.294.11a.384.384 0 01.102.273.363.363 0 01-.102.264c-.067.07-.165.106-.294.106-.13 0-.228-.036-.294-.106a.378.378 0 01-.096-.264z" fill="#000"/></svg>