<svg width="361" height="64" viewBox="0 0 361 64" fill="none" xmlns="http://www.w3.org/2000/svg"><path d="M.858 7.756H4.95V21h2.508V7.756h4.07V5.71H.858v2.046zm12.374 7.128c0 3.74 2.53 6.314 5.676 6.314 2.024 0 3.476-.968 4.246-2.002V21h2.53V8.878h-2.53v1.76c-.748-.99-2.156-1.958-4.202-1.958-3.19 0-5.72 2.464-5.72 6.204zm9.922.044c0 2.618-1.782 4.092-3.674 4.092-1.87 0-3.674-1.518-3.674-4.136 0-2.618 1.804-4.026 3.674-4.026 1.892 0 3.674 1.474 3.674 4.07zm8.332-4.268V8.878h-2.508v17.886h2.508V19.24a5.48 5.48 0 004.224 1.958c3.19 0 5.698-2.574 5.698-6.314S38.9 8.68 35.71 8.68c-1.98 0-3.454.968-4.224 1.98zm7.37 4.224c0 2.618-1.804 4.136-3.696 4.136-1.87 0-3.674-1.474-3.674-4.092 0-2.596 1.804-4.07 3.674-4.07 1.892 0 3.696 1.408 3.696 4.026zM49.603 21h2.508V8.878h-2.508V21zM50.88 7.272c.88 0 1.584-.704 1.584-1.606 0-.902-.704-1.606-1.584-1.606-.902 0-1.606.704-1.606 1.606 0 .902.704 1.606 1.606 1.606zM64.006 21h2.486v-7.15c0-3.388-2.134-5.17-4.972-5.17-1.452 0-2.794.594-3.608 1.584V8.878h-2.508V21h2.508v-6.776c0-2.222 1.21-3.366 3.058-3.366 1.826 0 3.036 1.144 3.036 3.366V21zm6.081-3.366c0 2.464 1.342 3.366 3.498 3.366h1.98v-2.09h-1.54c-1.056 0-1.408-.374-1.408-1.276v-6.71h2.948V8.878h-2.948V5.864h-2.53v3.014h-1.43v2.046h1.43v6.71zm19.34-2.706c0-3.806-2.728-6.248-6.182-6.248s-6.182 2.442-6.182 6.248 2.618 6.27 6.072 6.27c3.476 0 6.292-2.464 6.292-6.27zm-9.812 0c0-2.75 1.694-4.07 3.586-4.07 1.87 0 3.652 1.32 3.652 4.07s-1.848 4.092-3.718 4.092c-1.892 0-3.52-1.342-3.52-4.092zm18.402 2.706c0 2.464 1.342 3.366 3.498 3.366h1.98v-2.09h-1.54c-1.056 0-1.408-.374-1.408-1.276v-6.71h2.948V8.878h-2.948V5.864h-2.53v3.014h-1.43v2.046h1.43v6.71zm12.893-6.842c1.87 0 3.344 1.188 3.388 3.058h-6.71c.264-1.914 1.628-3.058 3.322-3.058zm5.676 6.6h-2.706c-.462.946-1.32 1.694-2.86 1.694-1.848 0-3.278-1.21-3.454-3.212h9.262c.066-.418.088-.814.088-1.232 0-3.564-2.442-5.962-5.896-5.962-3.586 0-6.05 2.442-6.05 6.248s2.574 6.27 6.05 6.27c2.97 0 4.884-1.694 5.566-3.806zm1.962-2.464c0 3.806 2.464 6.27 5.94 6.27 2.97 0 4.906-1.65 5.588-4.026h-2.706c-.462 1.254-1.386 1.914-2.882 1.914-2.024 0-3.366-1.496-3.366-4.158 0-2.64 1.342-4.136 3.366-4.136 1.496 0 2.464.748 2.882 1.914h2.706c-.682-2.552-2.618-4.026-5.588-4.026-3.476 0-5.94 2.464-5.94 6.248zM132.576 21h2.508v-6.776c0-2.222 1.21-3.366 3.058-3.366 1.826 0 3.036 1.144 3.036 3.366V21h2.486v-7.15c0-3.388-2.112-5.17-4.818-5.17-1.562 0-2.926.594-3.762 1.606V4.72h-2.508V21zm29.044-3.388c-.132-4.378-6.974-3.014-6.974-5.456 0-.814.704-1.364 2.046-1.364 1.364 0 2.178.726 2.266 1.782h2.508c-.132-2.42-1.936-3.894-4.686-3.894-2.86 0-4.664 1.562-4.664 3.498 0 4.444 7.04 3.08 7.04 5.456 0 .836-.77 1.452-2.222 1.452-1.386 0-2.332-.814-2.42-1.804h-2.596c.11 2.2 2.156 3.916 5.06 3.916 2.86 0 4.642-1.54 4.642-3.586zm3.106.022c0 2.464 1.342 3.366 3.498 3.366h1.98v-2.09h-1.54c-1.056 0-1.408-.374-1.408-1.276v-6.71h2.948V8.878h-2.948V5.864h-2.53v3.014h-1.43v2.046h1.43v6.71zm19.339-2.706c0-3.806-2.728-6.248-6.182-6.248s-6.182 2.442-6.182 6.248 2.618 6.27 6.072 6.27c3.476 0 6.292-2.464 6.292-6.27zm-9.812 0c0-2.75 1.694-4.07 3.586-4.07 1.87 0 3.652 1.32 3.652 4.07s-1.848 4.092-3.718 4.092c-1.892 0-3.52-1.342-3.52-4.092zm11.456 0c0 3.806 2.464 6.27 5.94 6.27 2.97 0 4.906-1.65 5.588-4.026h-2.706c-.462 1.254-1.386 1.914-2.882 1.914-2.024 0-3.366-1.496-3.366-4.158 0-2.64 1.342-4.136 3.366-4.136 1.496 0 2.464.748 2.882 1.914h2.706c-.682-2.552-2.618-4.026-5.588-4.026-3.476 0-5.94 2.464-5.94 6.248zM199.736 21h2.508v-5.214L206.732 21h3.388l-5.588-6.05 5.588-6.072h-3.476l-4.4 5.302V4.72h-2.508V21zm21.224-3.388c-.132-4.378-6.974-3.014-6.974-5.456 0-.814.704-1.364 2.046-1.364 1.364 0 2.178.726 2.266 1.782h2.508c-.132-2.42-1.936-3.894-4.686-3.894-2.86 0-4.664 1.562-4.664 3.498 0 4.444 7.04 3.08 7.04 5.456 0 .836-.77 1.452-2.222 1.452-1.386 0-2.332-.814-2.42-1.804h-2.596c.11 2.2 2.156 3.916 5.06 3.916 2.86 0 4.642-1.54 4.642-3.586zM229.692 21h2.53V10.924h2.244V8.878h-2.244V8.02c0-1.386.528-1.914 2.068-1.914v-2.09c-3.168 0-4.598 1.21-4.598 4.004v.858h-1.43v2.046h1.43V21zm9.505-6.38c0-2.574 1.144-3.344 2.992-3.344h.638V8.68c-1.716 0-2.926.748-3.63 1.958v-1.76h-2.508V21h2.508v-6.38zm17.485.308c0-3.806-2.728-6.248-6.182-6.248s-6.182 2.442-6.182 6.248 2.618 6.27 6.072 6.27c3.476 0 6.292-2.464 6.292-6.27zm-9.812 0c0-2.75 1.694-4.07 3.586-4.07 1.87 0 3.652 1.32 3.652 4.07s-1.848 4.092-3.718 4.092c-1.892 0-3.52-1.342-3.52-4.092zM276.344 21h2.486v-7.15c0-3.388-2.156-5.17-4.994-5.17-1.76 0-3.476.924-4.224 2.398-.836-1.584-2.442-2.398-4.356-2.398-1.452 0-2.772.594-3.586 1.584V8.878h-2.508V21h2.508v-6.776c0-2.222 1.21-3.366 3.058-3.366 1.826 0 3.036 1.144 3.036 3.366V21h2.486v-6.776c0-2.222 1.21-3.366 3.058-3.366 1.826 0 3.036 1.144 3.036 3.366V21zm11.018-12.078h2.442c.154-1.122.968-2.178 2.728-2.178 1.716 0 2.618.924 2.618 2.31 0 1.716-1.386 2.376-3.652 2.398h-.594v2.068h.572c2.618 0 3.982.726 3.982 2.838 0 1.496-.924 2.64-2.794 2.64-1.892 0-2.992-1.144-3.102-2.64h-2.42c.154 3.146 2.508 4.73 5.544 4.73 3.344 0 5.148-1.936 5.148-4.488 0-2.222-1.078-3.608-2.75-4.114v-.088c1.254-.418 2.464-1.716 2.464-3.63 0-2.332-1.738-4.18-4.928-4.18-2.926 0-5.082 1.562-5.258 4.334zm21.659 1.738V8.878h-2.508v17.886h2.508V19.24a5.48 5.48 0 004.224 1.958c3.19 0 5.698-2.574 5.698-6.314s-2.508-6.204-5.698-6.204c-1.98 0-3.454.968-4.224 1.98zm7.37 4.224c0 2.618-1.804 4.136-3.696 4.136-1.87 0-3.674-1.474-3.674-4.092 0-2.596 1.804-4.07 3.674-4.07 1.892 0 3.696 1.408 3.696 4.026zm5.428 2.75c0 2.464 1.342 3.366 3.498 3.366h1.98v-2.09h-1.54c-1.056 0-1.408-.374-1.408-1.276v-6.71h2.948V8.878h-2.948V5.864h-2.53v3.014h-1.43v2.046h1.43v6.71zm16.832-.022c-.132-4.378-6.974-3.014-6.974-5.456 0-.814.704-1.364 2.046-1.364 1.364 0 2.178.726 2.266 1.782h2.508c-.132-2.42-1.936-3.894-4.686-3.894-2.86 0-4.664 1.562-4.664 3.498 0 4.444 7.04 3.08 7.04 5.456 0 .836-.77 1.452-2.222 1.452-1.386 0-2.332-.814-2.42-1.804h-2.596c.11 2.2 2.156 3.916 5.06 3.916 2.86 0 4.642-1.54 4.642-3.586zM5.868 34.612v.696H3.54V43H2.7v-7.692H.36v-.696h5.508zm2.166 3c.184-.408.464-.724.84-.948.384-.224.852-.336 1.404-.336v.876h-.228c-.608 0-1.096.164-1.464.492-.368.328-.552.876-.552 1.644V43h-.84v-6.552h.84v1.164zm3.124 2.1c0-.672.132-1.26.396-1.764a2.881 2.881 0 011.116-1.176c.48-.28 1.02-.42 1.62-.42.624 0 1.16.144 1.608.432.456.288.784.656.984 1.104v-1.44h.84V43h-.84v-1.452c-.208.448-.54.82-.996 1.116-.448.288-.984.432-1.608.432-.592 0-1.128-.14-1.608-.42a2.964 2.964 0 01-1.116-1.188c-.264-.512-.396-1.104-.396-1.776zm5.724.012c0-.528-.108-.992-.324-1.392a2.3 2.3 0 00-.888-.924 2.373 2.373 0 00-1.224-.324c-.464 0-.88.104-1.248.312-.368.208-.66.512-.876.912-.208.392-.312.86-.312 1.404 0 .536.104 1.008.312 1.416.216.4.508.708.876.924.368.208.784.312 1.248.312.448 0 .856-.108 1.224-.324a2.3 2.3 0 00.888-.924c.216-.4.324-.864.324-1.392zm2.374-.012c0-.672.136-1.26.408-1.764a2.881 2.881 0 011.116-1.176c.48-.28 1.02-.42 1.62-.42.576 0 1.096.14 1.56.42.464.28.804.644 1.02 1.092V34.12h.84V43h-.84v-1.464a2.56 2.56 0 01-.984 1.128c-.456.288-.992.432-1.608.432-.6 0-1.14-.14-1.62-.42a2.964 2.964 0 01-1.116-1.188c-.264-.512-.396-1.104-.396-1.776zm5.724.012c0-.528-.108-.992-.324-1.392a2.3 2.3 0 00-.888-.924 2.373 2.373 0 00-1.224-.324c-.464 0-.88.104-1.248.312-.368.208-.66.512-.876.912-.208.392-.312.86-.312 1.404 0 .536.104 1.008.312 1.416.216.4.508.708.876.924.368.208.784.312 1.248.312.448 0 .856-.108 1.224-.324a2.3 2.3 0 00.888-.924c.216-.4.324-.864.324-1.392zm8.685-.336c0 .288-.008.508-.024.66h-5.436c.024.496.144.92.36 1.272s.5.62.852.804a2.54 2.54 0 001.152.264c.544 0 1-.132 1.368-.396a1.85 1.85 0 00.744-1.068h.888a2.792 2.792 0 01-1.032 1.572c-.52.4-1.176.6-1.968.6a3.343 3.343 0 01-1.656-.408 3.016 3.016 0 01-1.152-1.176c-.272-.512-.408-1.108-.408-1.788 0-.68.136-1.276.408-1.788a2.836 2.836 0 011.14-1.176c.488-.272 1.044-.408 1.668-.408.624 0 1.168.136 1.632.408.472.272.832.64 1.08 1.104.256.456.384.964.384 1.524zm-.852-.024c.008-.488-.092-.904-.3-1.248a1.947 1.947 0 00-.828-.78 2.54 2.54 0 00-1.152-.264c-.624 0-1.156.2-1.596.6-.44.4-.684.964-.732 1.692h4.608zm6.774-2.208v4.068c0 .4.076.676.228.828.152.152.42.228.804.228h.768V43h-.9c-.592 0-1.032-.136-1.32-.408-.288-.28-.432-.736-.432-1.368v-4.068h-.912v-.708h.912v-1.644h.852v1.644h1.8v.708h-1.8zm6.305-.828c.496 0 .94.104 1.332.312.4.208.713.528.937.96.231.424.347.944.347 1.56V43h-.828v-3.744c0-.712-.18-1.256-.54-1.632-.352-.376-.836-.564-1.452-.564-.632 0-1.136.2-1.512.6-.376.4-.564.988-.564 1.764V43h-.84v-8.88h.84v3.444a2.18 2.18 0 01.913-.912 2.878 2.878 0 011.367-.324zm10.402 3.06c0 .288-.008.508-.024.66h-5.436c.024.496.144.92.36 1.272s.5.62.852.804a2.54 2.54 0 001.152.264c.544 0 1-.132 1.368-.396a1.85 1.85 0 00.744-1.068h.888a2.792 2.792 0 01-1.032 1.572c-.52.4-1.176.6-1.968.6a3.343 3.343 0 01-1.656-.408 3.016 3.016 0 01-1.152-1.176c-.272-.512-.408-1.108-.408-1.788 0-.68.136-1.276.408-1.788a2.836 2.836 0 011.14-1.176c.488-.272 1.044-.408 1.668-.408.624 0 1.168.136 1.632.408.472.272.832.64 1.08 1.104.256.456.384.964.384 1.524zm-.852-.024c.008-.488-.092-.904-.3-1.248a1.947 1.947 0 00-.828-.78 2.54 2.54 0 00-1.152-.264c-.624 0-1.156.2-1.596.6-.44.4-.684.964-.732 1.692h4.608zm6.486-4.752v5.28c0 .832.196 1.448.588 1.848.4.4.944.6 1.632.6s1.224-.196 1.608-.588c.392-.4.588-1.02.588-1.86v-5.28h.84v5.268c0 1.064-.284 1.864-.852 2.4-.56.536-1.292.804-2.196.804-.904 0-1.64-.268-2.208-.804-.56-.536-.84-1.336-.84-2.4v-5.268h.84zm9.674 8.472c-.552 0-1.04-.096-1.464-.288a2.391 2.391 0 01-.984-.804 2.111 2.111 0 01-.384-1.152h.888c.04.408.22.768.54 1.08.32.304.788.456 1.404.456.568 0 1.016-.144 1.344-.432.336-.296.504-.668.504-1.116 0-.36-.092-.648-.276-.864a1.618 1.618 0 00-.684-.492 9.585 9.585 0 00-1.128-.36 9.862 9.862 0 01-1.332-.444 2.12 2.12 0 01-.84-.672c-.232-.304-.348-.716-.348-1.236 0-.432.112-.816.336-1.152.224-.344.54-.612.948-.804.408-.192.876-.288 1.404-.288.776 0 1.4.192 1.872.576.48.376.756.864.828 1.464h-.912c-.056-.344-.244-.648-.564-.912-.32-.272-.752-.408-1.296-.408-.504 0-.924.136-1.26.408-.336.264-.504.628-.504 1.092 0 .352.092.636.276.852.184.216.412.38.684.492.28.112.656.232 1.128.36.544.152.984.304 1.32.456a2.1 2.1 0 01.852.672c.232.304.348.712.348 1.224 0 .392-.104.764-.312 1.116a2.277 2.277 0 01-.924.852c-.408.216-.896.324-1.464.324zm12.524-8.472v.696h-2.328V43h-.84v-7.692h-2.34v-.696h5.508zm7.254 4.776c0 .288-.008.508-.024.66H85.92c.024.496.144.92.36 1.272s.5.62.852.804a2.54 2.54 0 001.152.264c.544 0 1-.132 1.368-.396a1.85 1.85 0 00.744-1.068h.888a2.792 2.792 0 01-1.032 1.572c-.52.4-1.176.6-1.968.6a3.343 3.343 0 01-1.656-.408 3.016 3.016 0 01-1.152-1.176c-.272-.512-.408-1.108-.408-1.788 0-.68.136-1.276.408-1.788a2.836 2.836 0 011.14-1.176c.488-.272 1.044-.408 1.668-.408.624 0 1.168.136 1.632.408.472.272.832.64 1.08 1.104.256.456.384.964.384 1.524zm-.852-.024c.008-.488-.092-.904-.3-1.248a1.947 1.947 0 00-.828-.78 2.54 2.54 0 00-1.152-.264c-.624 0-1.156.2-1.596.6-.44.4-.684.964-.732 1.692h4.608zm2.005.36c0-.68.136-1.272.408-1.776a2.858 2.858 0 011.128-1.176c.48-.28 1.028-.42 1.644-.42.808 0 1.472.2 1.992.6.528.4.868.944 1.02 1.632h-.9a1.808 1.808 0 00-.732-1.104c-.368-.272-.828-.408-1.38-.408-.44 0-.836.1-1.188.3-.352.2-.632.5-.84.9-.2.392-.3.876-.3 1.452s.1 1.064.3 1.464c.208.4.488.7.84.9.352.2.748.3 1.188.3.552 0 1.012-.132 1.38-.396.376-.272.62-.648.732-1.128h.9a2.748 2.748 0 01-1.02 1.62c-.528.408-1.192.612-1.992.612-.616 0-1.164-.136-1.644-.408a2.957 2.957 0 01-1.128-1.176c-.272-.512-.408-1.108-.408-1.788zm10.863-3.396c.496 0 .94.104 1.332.312.4.208.712.528.936.96.232.424.348.944.348 1.56V43h-.828v-3.744c0-.712-.18-1.256-.54-1.632-.352-.376-.836-.564-1.452-.564-.632 0-1.136.2-1.512.6-.376.4-.564.988-.564 1.764V43h-.84v-8.88h.84v3.444a2.18 2.18 0 01.912-.912 2.878 2.878 0 011.368-.324zm7.179-1.176v-.756h2.04V43h-.852v-7.848h-1.188zm3.912 3.468c0-1.376.212-2.444.636-3.204.424-.76 1.184-1.14 2.28-1.14 1.096 0 1.856.38 2.28 1.14.424.76.636 1.828.636 3.204 0 1.4-.212 2.484-.636 3.252-.424.768-1.184 1.152-2.28 1.152-1.104 0-1.868-.384-2.292-1.152-.416-.768-.624-1.852-.624-3.252zm5.004 0c0-.744-.052-1.372-.156-1.884-.104-.512-.308-.924-.612-1.236-.304-.312-.744-.468-1.32-.468-.576 0-1.016.156-1.32.468-.304.312-.508.724-.612 1.236-.104.512-.156 1.14-.156 1.884 0 .768.052 1.412.156 1.932.104.512.308.924.612 1.236.304.312.744.468 1.32.468.576 0 1.016-.156 1.32-.468.304-.312.508-.724.612-1.236.104-.52.156-1.164.156-1.932zm2.391 0c0-1.376.212-2.444.636-3.204.424-.76 1.184-1.14 2.28-1.14 1.096 0 1.856.38 2.28 1.14.424.76.636 1.828.636 3.204 0 1.4-.212 2.484-.636 3.252-.424.768-1.184 1.152-2.28 1.152-1.104 0-1.868-.384-2.292-1.152-.416-.768-.624-1.852-.624-3.252zm5.004 0c0-.744-.052-1.372-.156-1.884-.104-.512-.308-.924-.612-1.236-.304-.312-.744-.468-1.32-.468-.576 0-1.016.156-1.32.468-.304.312-.508.724-.612 1.236-.104.512-.156 1.14-.156 1.884 0 .768.052 1.412.156 1.932.104.512.308.924.612 1.236.304.312.744.468 1.32.468.576 0 1.016-.156 1.32-.468.304-.312.508-.724.612-1.236.104-.52.156-1.164.156-1.932zm8.731 4.476a3.411 3.411 0 01-1.668-.408 3.1 3.1 0 01-1.164-1.176c-.28-.512-.42-1.108-.42-1.788 0-.68.144-1.272.432-1.776a2.97 2.97 0 011.176-1.176 3.333 3.333 0 011.668-.42c.616 0 1.172.14 1.668.42.504.272.896.664 1.176 1.176.288.504.432 1.096.432 1.776 0 .672-.144 1.264-.432 1.776a3.03 3.03 0 01-1.188 1.188 3.48 3.48 0 01-1.68.408zm0-.732c.432 0 .832-.096 1.2-.288.368-.2.664-.496.888-.888.232-.4.348-.888.348-1.464s-.112-1.06-.336-1.452c-.224-.4-.52-.696-.888-.888-.368-.2-.768-.3-1.2-.3-.432 0-.832.1-1.2.3a2.157 2.157 0 00-.888.888c-.216.392-.324.876-.324 1.452s.108 1.064.324 1.464c.224.392.516.688.876.888.368.192.768.288 1.2.288zm7.903-6.036c.784 0 1.424.244 1.92.732.496.48.744 1.18.744 2.1V43h-.828v-3.744c0-.712-.18-1.256-.54-1.632-.352-.376-.836-.564-1.452-.564-.632 0-1.136.2-1.512.6-.376.4-.564.988-.564 1.764V43h-.84v-6.552h.84v1.116c.208-.4.508-.704.9-.912a2.714 2.714 0 011.332-.324zM.576 56.712c0-.672.132-1.26.396-1.764a2.881 2.881 0 011.116-1.176c.48-.28 1.02-.42 1.62-.42.624 0 1.16.144 1.608.432.456.288.784.656.984 1.104v-1.44h.84V60H6.3v-1.452c-.208.448-.54.82-.996 1.116-.448.288-.984.432-1.608.432-.592 0-1.128-.14-1.608-.42a2.964 2.964 0 01-1.116-1.188c-.264-.512-.396-1.104-.396-1.776zm5.724.012c0-.528-.108-.992-.324-1.392a2.3 2.3 0 00-.888-.924 2.373 2.373 0 00-1.224-.324c-.464 0-.88.104-1.248.312-.368.208-.66.512-.876.912-.208.392-.312.86-.312 1.404 0 .536.104 1.008.312 1.416.216.4.508.708.876.924.368.208.784.312 1.248.312.448 0 .856-.108 1.224-.324a2.3 2.3 0 00.888-.924c.216-.4.324-.864.324-1.392zm5.83-3.396c.784 0 1.424.244 1.92.732.496.48.744 1.18.744 2.1V60h-.828v-3.744c0-.712-.18-1.256-.54-1.632-.352-.376-.836-.564-1.452-.564-.632 0-1.136.2-1.512.6-.376.4-.564.988-.564 1.764V60h-.84v-6.552h.84v1.116c.208-.4.508-.704.9-.912a2.714 2.714 0 011.332-.324zm7.43 3.384c0-.672.132-1.26.396-1.764a2.881 2.881 0 011.116-1.176c.48-.28 1.02-.42 1.62-.42.624 0 1.16.144 1.608.432.456.288.784.656.984 1.104v-1.44h.84V60h-.84v-1.452c-.208.448-.54.82-.996 1.116-.448.288-.984.432-1.608.432-.592 0-1.128-.14-1.608-.42a2.964 2.964 0 01-1.116-1.188c-.264-.512-.396-1.104-.396-1.776zm5.724.012c0-.528-.108-.992-.324-1.392a2.3 2.3 0 00-.888-.924 2.373 2.373 0 00-1.224-.324c-.464 0-.88.104-1.248.312-.368.208-.66.512-.876.912-.208.392-.312.86-.312 1.404 0 .536.104 1.008.312 1.416.216.4.508.708.876.924.368.208.784.312 1.248.312.448 0 .856-.108 1.224-.324a2.3 2.3 0 00.888-.924c.216-.4.324-.864.324-1.392zm11.398-3.276L34.63 60h-.84l-1.812-5.496L30.166 60h-.852l-2.052-6.552h.852l1.632 5.7 1.836-5.7h.84l1.812 5.712 1.62-5.712h.828zm.761 3.264c0-.672.132-1.26.396-1.764a2.881 2.881 0 011.116-1.176c.48-.28 1.02-.42 1.62-.42.624 0 1.16.144 1.608.432.456.288.784.656.984 1.104v-1.44h.84V60h-.84v-1.452c-.208.448-.54.82-.996 1.116-.448.288-.984.432-1.608.432-.592 0-1.128-.14-1.608-.42a2.964 2.964 0 01-1.116-1.188c-.264-.512-.396-1.104-.396-1.776zm5.724.012c0-.528-.108-.992-.324-1.392a2.3 2.3 0 00-.888-.924 2.373 2.373 0 00-1.224-.324c-.464 0-.88.104-1.248.312-.368.208-.66.512-.876.912-.208.392-.312.86-.312 1.404 0 .536.104 1.008.312 1.416.216.4.508.708.876.924.368.208.784.312 1.248.312.448 0 .856-.108 1.224-.324a2.3 2.3 0 00.888-.924c.216-.4.324-.864.324-1.392zm3.598-2.112c.184-.408.464-.724.84-.948.384-.224.852-.336 1.404-.336v.876h-.228c-.608 0-1.096.164-1.464.492-.368.328-.552.876-.552 1.644V60h-.84v-6.552h.84v1.164zm3.123 2.1c0-.672.137-1.26.409-1.764a2.881 2.881 0 011.116-1.176c.48-.28 1.02-.42 1.62-.42.575 0 1.096.14 1.56.42.463.28.803.644 1.02 1.092V51.12h.84V60h-.84v-1.464a2.56 2.56 0 01-.984 1.128c-.456.288-.992.432-1.608.432-.6 0-1.14-.14-1.62-.42a2.964 2.964 0 01-1.117-1.188c-.264-.512-.395-1.104-.395-1.776zm5.724.012c0-.528-.108-.992-.324-1.392a2.3 2.3 0 00-.887-.924 2.373 2.373 0 00-1.225-.324c-.464 0-.88.104-1.248.312-.367.208-.66.512-.875.912-.209.392-.313.86-.313 1.404 0 .536.104 1.008.313 1.416.216.4.508.708.876.924.367.208.783.312 1.247.312.448 0 .856-.108 1.224-.324a2.3 2.3 0 00.889-.924c.215-.4.323-.864.323-1.392zm6.826-1.524v.708H57.77V55.2h4.668zm10.795-1.752L71.18 60h-.84l-1.812-5.496L66.717 60h-.852l-2.052-6.552h.852l1.632 5.7 1.836-5.7h.84l1.812 5.712 1.62-5.712h.828zm1.565-1.236a.59.59 0 01-.432-.18.603.603 0 01-.18-.444c0-.176.06-.32.18-.432a.59.59 0 01.432-.18.59.59 0 01.432.18c.12.112.18.256.18.432s-.06.324-.18.444a.59.59 0 01-.432.18zm.42 1.236V60h-.84v-6.552h.84zm4.974-.12c.784 0 1.424.244 1.92.732.496.48.744 1.18.744 2.1V60h-.828v-3.744c0-.712-.18-1.256-.54-1.632-.352-.376-.836-.564-1.452-.564-.632 0-1.136.2-1.512.6-.376.4-.564.988-.564 1.764V60h-.84v-6.552h.84v1.116c.208-.4.508-.704.9-.912a2.714 2.714 0 011.332-.324zm7.594 0c.784 0 1.424.244 1.92.732.496.48.744 1.18.744 2.1V60h-.828v-3.744c0-.712-.18-1.256-.54-1.632-.352-.376-.836-.564-1.452-.564-.632 0-1.136.2-1.512.6-.376.4-.564.988-.564 1.764V60h-.84v-6.552h.84v1.116c.208-.4.508-.704.9-.912a2.714 2.714 0 011.332-.324zm4.942-1.116a.59.59 0 01-.432-.18.603.603 0 01-.18-.444c0-.176.06-.32.18-.432a.59.59 0 01.432-.18.59.59 0 01.432.18c.12.112.18.256.18.432s-.06.324-.18.444a.59.59 0 01-.432.18zm.42 1.236V60h-.84v-6.552h.84zm4.974-.12c.784 0 1.424.244 1.92.732.496.48.744 1.18.744 2.1V60h-.828v-3.744c0-.712-.18-1.256-.54-1.632-.352-.376-.836-.564-1.452-.564-.632 0-1.136.2-1.512.6-.376.4-.564.988-.564 1.764V60h-.84v-6.552h.84v1.116c.208-.4.508-.704.9-.912a2.714 2.714 0 011.332-.324zm7.27.024c.616 0 1.152.144 1.608.432.456.288.784.652.984 1.092v-1.428h.84v6.72c0 .6-.132 1.132-.396 1.596a2.62 2.62 0 01-1.08 1.068c-.464.256-.992.384-1.584.384-.84 0-1.54-.2-2.1-.6a2.553 2.553 0 01-1.032-1.632h.828c.144.456.416.82.816 1.092.408.272.904.408 1.488.408.424 0 .804-.092 1.14-.276.336-.176.6-.44.792-.792.192-.352.288-.768.288-1.248v-1.62c-.208.448-.54.82-.996 1.116-.448.288-.98.432-1.596.432-.6 0-1.14-.14-1.62-.42a2.964 2.964 0 01-1.116-1.188c-.264-.512-.396-1.104-.396-1.776 0-.672.132-1.26.396-1.764a2.881 2.881 0 011.116-1.176c.48-.28 1.02-.42 1.62-.42zm2.592 3.372c0-.528-.108-.992-.324-1.392a2.3 2.3 0 00-.888-.924 2.373 2.373 0 00-1.224-.324c-.464 0-.88.104-1.248.312-.368.208-.66.512-.876.912-.208.392-.312.86-.312 1.404 0 .536.104 1.008.312 1.416.216.4.508.708.876.924.368.208.784.312 1.248.312.448 0 .856-.108 1.224-.324a2.3 2.3 0 00.888-.924c.216-.4.324-.864.324-1.392zm6.878-1.836c.208-.44.536-.804.984-1.092.456-.296.996-.444 1.62-.444.592 0 1.124.14 1.596.42.48.272.852.664 1.116 1.176.272.504.408 1.092.408 1.764 0 .672-.136 1.264-.408 1.776a2.86 2.86 0 01-1.116 1.188c-.472.28-1.004.42-1.596.42-.616 0-1.152-.144-1.608-.432-.456-.296-.788-.664-.996-1.104v4.536h-.828v-9.648h.828v1.44zm4.872 1.824c0-.544-.108-1.012-.324-1.404a2.166 2.166 0 00-.864-.912 2.492 2.492 0 00-1.248-.312c-.448 0-.86.108-1.236.324-.368.216-.66.524-.876.924-.216.4-.324.864-.324 1.392 0 .528.108.992.324 1.392.216.4.508.708.876.924.376.216.788.324 1.236.324.464 0 .88-.104 1.248-.312.368-.216.656-.524.864-.924.216-.408.324-.88.324-1.416zm3.238-5.592V60h-.84v-8.88h.84zm1.518 5.592c0-.672.132-1.26.396-1.764a2.881 2.881 0 011.116-1.176c.48-.28 1.02-.42 1.62-.42.624 0 1.16.144 1.608.432.456.288.784.656.984 1.104v-1.44h.84V60h-.84v-1.452c-.208.448-.54.82-.996 1.116-.448.288-.984.432-1.608.432-.592 0-1.128-.14-1.608-.42a2.964 2.964 0 01-1.116-1.188c-.264-.512-.396-1.104-.396-1.776zm5.724.012c0-.528-.108-.992-.324-1.392a2.3 2.3 0 00-.888-.924 2.373 2.373 0 00-1.224-.324c-.464 0-.88.104-1.248.312-.368.208-.66.512-.876.912-.208.392-.312.86-.312 1.404 0 .536.104 1.008.312 1.416.216.4.508.708.876.924.368.208.784.312 1.248.312.448 0 .856-.108 1.224-.324a2.3 2.3 0 00.888-.924c.216-.4.324-.864.324-1.392zm3.85-2.568v4.068c0 .4.076.676.228.828.152.152.42.228.804.228h.768V60h-.9c-.592 0-1.032-.136-1.32-.408-.288-.28-.432-.736-.432-1.368v-4.068h-.912v-.708h.912v-1.644h.852v1.644h1.8v.708h-1.8zm5.765 0h-1.524V60h-.84v-5.844h-.912v-.708h.912v-.456c0-.712.18-1.236.54-1.572.368-.336.96-.504 1.776-.504v.72c-.544 0-.928.104-1.152.312-.216.208-.324.556-.324 1.044v.456h1.524v.708zm4.19 5.94a3.411 3.411 0 01-1.668-.408 3.1 3.1 0 01-1.164-1.176c-.28-.512-.42-1.108-.42-1.788 0-.68.144-1.272.432-1.776a2.97 2.97 0 011.176-1.176 3.333 3.333 0 011.668-.42c.616 0 1.172.14 1.668.42.504.272.896.664 1.176 1.176.288.504.432 1.096.432 1.776 0 .672-.144 1.264-.432 1.776a3.03 3.03 0 01-1.188 1.188 3.48 3.48 0 01-1.68.408zm0-.732c.432 0 .832-.096 1.2-.288.368-.2.664-.496.888-.888.232-.4.348-.888.348-1.464s-.112-1.06-.336-1.452c-.224-.4-.52-.696-.888-.888-.368-.2-.768-.3-1.2-.3-.432 0-.832.1-1.2.3a2.157 2.157 0 00-.888.888c-.216.392-.324.876-.324 1.452s.108 1.064.324 1.464c.224.392.516.688.876.888.368.192.768.288 1.2.288zm5.672-4.752c.184-.408.464-.724.84-.948.384-.224.852-.336 1.404-.336v.876h-.228c-.608 0-1.096.164-1.464.492-.368.328-.552.876-.552 1.644V60h-.84v-6.552h.84v1.164zm11.307-1.284c.768 0 1.392.244 1.872.732.488.48.732 1.18.732 2.1V60h-.828v-3.744c0-.712-.172-1.256-.516-1.632-.344-.376-.812-.564-1.404-.564-.616 0-1.108.204-1.476.612-.368.408-.552 1-.552 1.776V60h-.828v-3.744c0-.712-.172-1.256-.516-1.632-.344-.376-.816-.564-1.416-.564-.616 0-1.108.204-1.476.612-.368.408-.552 1-.552 1.776V60h-.84v-6.552h.84v1.128c.208-.408.504-.716.888-.924a2.573 2.573 0 011.284-.324c.568 0 1.064.136 1.488.408.432.272.744.672.936 1.2.176-.52.476-.916.9-1.188.432-.28.92-.42 1.464-.42z" fill="#fff"/></svg>