<svg width="136" height="27" viewBox="0 0 136 27" fill="none" xmlns="http://www.w3.org/2000/svg"><path d="M.28 1.628h3.024V10h1.61V1.628h3.024V.2H.28v1.428zm11.635 1.204c-1.176 0-1.75.476-2.114 1.078l-.168-1.078H8.289V10H9.8V6.402c0-1.106.434-2.156 1.778-2.156h.672V2.832h-.336zm7.602 5.852c-.308 0-.462-.098-.462-.462v-2.87c0-1.694-1.092-2.604-2.996-2.604-1.806 0-3.01.868-3.164 2.268h1.484c.112-.63.714-1.05 1.61-1.05.994 0 1.568.49 1.568 1.288v.434H15.75c-2.002 0-3.066.826-3.066 2.296 0 1.33 1.092 2.1 2.66 2.1 1.162 0 1.89-.504 2.366-1.232 0 .714.336 1.148 1.316 1.148h.798V8.684h-.308zm-1.96-1.624c-.014 1.106-.742 1.848-2.002 1.848-.826 0-1.33-.42-1.33-1.022 0-.728.518-1.078 1.456-1.078h1.876v.252zm8.483-3.234c-.462-.63-1.232-1.078-2.324-1.078-1.946 0-3.388 1.456-3.388 3.668 0 2.296 1.442 3.668 3.388 3.668 1.134 0 1.876-.532 2.338-1.162L26.236 10h1.316V.2H26.04v3.626zM23.968 8.81c-1.26 0-2.086-.98-2.086-2.394 0-1.4.826-2.38 2.086-2.38 1.26 0 2.086.98 2.086 2.408 0 1.386-.826 2.366-2.086 2.366zm8.463 1.274c1.778 0 2.982-1.078 3.234-2.492h-1.512c-.21.798-.882 1.26-1.806 1.26-1.19 0-1.96-.798-2.002-2.016v-.098h5.404c.028-.196.042-.392.042-.574-.042-2.1-1.428-3.416-3.5-3.416-2.114 0-3.528 1.47-3.528 3.682 0 2.198 1.414 3.654 3.668 3.654zm-2.03-4.452c.112-1.022.938-1.666 1.904-1.666 1.05 0 1.792.602 1.918 1.666h-3.822zM42.528 10h1.848l2.646-7.168h-1.596l-1.947 5.544-1.974-5.544h-1.623L42.528 10zm8.319.084c2.184 0 3.654-1.47 3.654-3.668 0-2.184-1.47-3.668-3.654-3.668s-3.654 1.484-3.654 3.668c0 2.198 1.47 3.668 3.654 3.668zm0-1.288c-1.274 0-2.1-.994-2.1-2.38s.826-2.38 2.1-2.38 2.114.994 2.114 2.38-.84 2.38-2.114 2.38zM55.717 10h1.512V.2h-1.512V10zm9.546-1.316c-.308 0-.462-.098-.462-.462v-2.87c0-1.694-1.092-2.604-2.996-2.604-1.806 0-3.01.868-3.164 2.268h1.484c.112-.63.714-1.05 1.61-1.05.994 0 1.568.49 1.568 1.288v.434h-1.806c-2.002 0-3.066.826-3.066 2.296 0 1.33 1.092 2.1 2.66 2.1 1.162 0 1.89-.504 2.366-1.232 0 .714.336 1.148 1.316 1.148h.798V8.684h-.308zm-1.96-1.624c-.014 1.106-.742 1.848-2.002 1.848-.826 0-1.33-.42-1.33-1.022 0-.728.518-1.078 1.456-1.078h1.876v.252zm3.61.994c0 1.302.587 1.946 1.96 1.946h1.4V8.67h-1.065c-.574 0-.77-.21-.77-.77V4.162h1.75v-1.33h-1.75V.83h-1.526v2.002h-1.246v1.33h1.246v3.892zm5.091-6.23c.518 0 .924-.378.924-.91s-.406-.91-.924-.91-.924.378-.924.91.406.91.924.91zM71.234 10h1.512V2.832h-1.512V10zm2.994 0h1.512V.2h-1.512V10zm3.765-8.176c.517 0 .924-.378.924-.91s-.407-.91-.924-.91c-.518 0-.924.378-.924.91s.406.91.924.91zM77.223 10h1.511V2.832h-1.511V10zm3.512-1.946c0 1.302.588 1.946 1.96 1.946h1.4V8.67H83.03c-.574 0-.77-.21-.77-.77V4.162h1.75v-1.33h-1.75V.83h-1.526v2.002h-1.246v1.33h1.246v3.892zm6.394 1.988l-.28.7c-.225.588-.365.728-.953.728h-1.064v1.33h1.625c1.05 0 1.358-.518 1.806-1.68l3.247-8.288H89.9l-1.946 5.446-2.001-5.446h-1.61l2.785 7.21zm12.116.042c2.184 0 3.654-1.47 3.654-3.668 0-2.184-1.47-3.668-3.654-3.668s-3.654 1.484-3.654 3.668c0 2.198 1.47 3.668 3.654 3.668zm0-1.288c-1.274 0-2.1-.994-2.1-2.38s.826-2.38 2.1-2.38 2.114.994 2.114 2.38-.84 2.38-2.114 2.38zm8.65-6.048c-1.162 0-1.848.462-2.296 1.022l-.168-.938h-1.316V10h1.512V6.388c0-1.456.714-2.338 1.918-2.338 1.134 0 1.708.728 1.708 2.086V10h1.526V6.01c0-2.394-1.302-3.262-2.884-3.262zm8.359 5.306c0 1.302.588 1.946 1.96 1.946h1.4V8.67h-1.064c-.574 0-.77-.21-.77-.77V4.162h1.75v-1.33h-1.75V.83h-1.526v2.002h-1.246v1.33h1.246v3.892zm8.088-5.306c-1.12 0-1.806.504-2.254 1.12V.2h-1.512V10h1.512V6.374c0-1.442.728-2.324 1.918-2.324 1.12 0 1.722.728 1.722 2.086V10h1.512V6.01c0-2.394-1.302-3.262-2.898-3.262zm7.62 7.336c1.778 0 2.982-1.078 3.234-2.492h-1.512c-.21.798-.882 1.26-1.806 1.26-1.19 0-1.96-.798-2.002-2.016v-.098h5.404c.028-.196.042-.392.042-.574-.042-2.1-1.428-3.416-3.5-3.416-2.114 0-3.528 1.47-3.528 3.682 0 2.198 1.414 3.654 3.668 3.654zm-2.03-4.452c.112-1.022.938-1.666 1.904-1.666 1.05 0 1.792.602 1.918 1.666h-3.822zM1.778 24l.91-2.422h4.018L7.63 24h1.722l-3.654-9.8H3.78L.112 24h1.666zm2.912-8.064l1.568 4.27H3.136l1.554-4.27zm10.18 4.48c0 1.484-.7 2.352-1.847 2.352-1.106 0-1.666-.714-1.666-2.114v-3.822H9.845v3.99c0 2.45 1.302 3.262 2.828 3.262 1.106 0 1.764-.448 2.212-.994l.168.91h1.33v-7.168H14.87v3.584zm2.695 1.218c.042 1.554 1.358 2.45 3.276 2.45 1.736 0 3.038-.868 3.038-2.24 0-1.596-1.33-1.932-2.968-2.128-1.036-.112-1.722-.196-1.722-.868 0-.574.588-.938 1.484-.938s1.512.462 1.596 1.12h1.484c-.098-1.47-1.344-2.282-3.108-2.282-1.722-.014-2.94.868-2.94 2.226 0 1.484 1.288 1.834 2.926 2.03 1.106.14 1.764.196 1.764.966 0 .574-.616.938-1.554.938-1.092 0-1.736-.532-1.792-1.274h-1.484zm8.004.42c0 1.302.588 1.946 1.96 1.946h1.4v-1.33h-1.064c-.574 0-.77-.21-.77-.77v-3.738h1.75v-1.33h-1.75V14.83h-1.526v2.002h-1.246v1.33h1.246v3.892zm7.947-5.222c-1.176 0-1.75.476-2.114 1.078l-.168-1.078H29.89V24h1.512v-3.598c0-1.106.434-2.156 1.778-2.156h.672v-1.414h-.336zm7.602 5.852c-.308 0-.462-.098-.462-.462v-2.87c0-1.694-1.092-2.604-2.996-2.604-1.806 0-3.01.868-3.164 2.268h1.484c.112-.63.714-1.05 1.61-1.05.994 0 1.568.49 1.568 1.288v.434h-1.806c-2.002 0-3.066.826-3.066 2.296 0 1.33 1.092 2.1 2.66 2.1 1.162 0 1.89-.504 2.366-1.232 0 .714.336 1.148 1.316 1.148h.798v-1.316h-.308zm-1.96-1.624c-.014 1.106-.742 1.848-2.002 1.848-.826 0-1.33-.42-1.33-1.022 0-.728.518-1.078 1.456-1.078h1.876v.252zM42.25 24h1.512v-9.8H42.25V24zm3.764-8.176c.518 0 .924-.378.924-.91s-.406-.91-.924-.91-.924.378-.924.91.406.91.924.91zM45.244 24h1.512v-7.168h-1.512V24zm9.546-1.316c-.308 0-.462-.098-.462-.462v-2.87c0-1.694-1.092-2.604-2.996-2.604-1.806 0-3.01.868-3.164 2.268h1.484c.112-.63.714-1.05 1.61-1.05.994 0 1.568.49 1.568 1.288v.434h-1.806c-2.002 0-3.066.826-3.066 2.296 0 1.33 1.092 2.1 2.66 2.1 1.162 0 1.89-.504 2.366-1.232 0 .714.336 1.148 1.316 1.148h.798v-1.316h-.308zm-1.96-1.624c-.014 1.106-.742 1.848-2.002 1.848-.826 0-1.33-.42-1.33-1.022 0-.728.518-1.078 1.456-1.078h1.876v.252zM59.07 24h6.944v-1.358h-4.746l2.604-2.17c1.19-.994 2.072-1.904 2.072-3.36 0-1.792-1.232-2.996-3.43-2.996-2.086 0-3.43 1.358-3.43 3.22v.252h1.554v-.168c0-1.218.756-1.974 1.876-1.974 1.12 0 1.862.616 1.862 1.736 0 .938-.658 1.624-1.54 2.366l-3.766 3.206V24zm7.894-4.676c0 2.954 1.582 4.76 3.864 4.76s3.864-1.806 3.864-4.76v-.448c0-2.842-1.582-4.76-3.864-4.76s-3.864 1.918-3.864 4.76v.448zm6.16-.056c0 2.198-.924 3.458-2.296 3.458-1.372 0-2.296-1.26-2.296-3.458v-.336c0-2.184.924-3.458 2.296-3.458 1.372 0 2.296 1.274 2.296 3.458v.336zm2.658.056c0 2.954 1.582 4.76 3.864 4.76s3.864-1.806 3.864-4.76v-.448c0-2.842-1.582-4.76-3.864-4.76s-3.864 1.918-3.864 4.76v.448zm6.16-.056c0 2.198-.924 3.458-2.296 3.458-1.372 0-2.296-1.26-2.296-3.458v-.336c0-2.184.924-3.458 2.296-3.458 1.372 0 2.296 1.274 2.296 3.458v.336zm6.955 2.786c0 1.302.588 1.946 1.96 1.946h1.4v-1.33h-1.064c-.574 0-.77-.21-.77-.77v-3.738h1.75v-1.33h-1.75V14.83h-1.526v2.002H87.65v1.33h1.246v3.892zm7.56 2.03c2.183 0 3.653-1.47 3.653-3.668 0-2.184-1.47-3.668-3.654-3.668s-3.654 1.484-3.654 3.668c0 2.198 1.47 3.668 3.654 3.668zm0-1.288c-1.275 0-2.1-.994-2.1-2.38s.825-2.38 2.1-2.38c1.273 0 2.113.994 2.113 2.38s-.84 2.38-2.114 2.38zm10.315-4.97c-.462-.63-1.232-1.078-2.324-1.078-1.946 0-3.388 1.456-3.388 3.668 0 2.296 1.442 3.668 3.388 3.668 1.134 0 1.876-.532 2.338-1.162l.182 1.078h1.316v-9.8h-1.512v3.626zM104.7 22.81c-1.26 0-2.086-.98-2.086-2.394 0-1.4.826-2.38 2.086-2.38 1.26 0 2.086.98 2.086 2.408 0 1.386-.826 2.366-2.086 2.366zm11.614-.126c-.308 0-.462-.098-.462-.462v-2.87c0-1.694-1.092-2.604-2.996-2.604-1.806 0-3.01.868-3.164 2.268h1.484c.112-.63.714-1.05 1.61-1.05.994 0 1.568.49 1.568 1.288v.434h-1.806c-2.002 0-3.066.826-3.066 2.296 0 1.33 1.092 2.1 2.66 2.1 1.162 0 1.89-.504 2.366-1.232 0 .714.336 1.148 1.316 1.148h.798v-1.316h-.308zm-1.96-1.624c-.014 1.106-.742 1.848-2.002 1.848-.826 0-1.33-.42-1.33-1.022 0-.728.518-1.078 1.456-1.078h1.876v.252zm4.862 2.982l-.28.7c-.224.588-.364.728-.952.728h-1.064v1.33h1.624c1.05 0 1.358-.518 1.806-1.68l3.248-8.288h-1.61l-1.946 5.446-2.002-5.446h-1.61l2.786 7.21z" fill="#000"/></svg>