<svg width="83" height="13" viewBox="0 0 83 13" fill="none" xmlns="http://www.w3.org/2000/svg"><path d="M10.314 3.637V.826H.783V12.47h9.63V9.659H3.91V7.912h5.955V5.251H3.91V3.637h6.404zM22.882.826h-3.144V7.13c0 1.863-.848 2.645-2.212 2.645-1.348 0-2.196-.782-2.213-2.645V.843h-3.127V7.13c0 3.81 2.063 5.506 5.34 5.506 3.277 0 5.356-1.697 5.356-5.506V.826zm2.283.017V12.47h3.128V8.927h1.863l2.262 3.543h3.61l-2.612-3.96c1.613-.548 2.295-1.73 2.295-3.625 0-2.845-1.513-4.042-5.306-4.042h-5.24zm3.128 2.81h2.262c1.38 0 1.896.433 1.896 1.431 0 1.015-.516 1.43-1.896 1.43h-2.262v-2.86zm11.095 9.1L45.21.543 42.615.56l-5.822 12.193h2.595zM57.45.826h-3.144V7.13c0 1.863-.848 2.645-2.212 2.645-1.348 0-2.196-.782-2.213-2.645V.843h-3.127V7.13c0 3.81 2.063 5.506 5.34 5.506 3.276 0 5.356-1.697 5.356-5.506V.826zM64.474.66c-2.712.016-4.84 1.197-4.84 3.809 0 2.279 1.896 2.894 4.54 3.526 1.913.483 2.246.55 2.246 1.215 0 .532-.566.765-1.214.765-1.48 0-3.16-.433-4.674-1.281l-1.398 2.329c1.597 1.064 3.56 1.63 5.722 1.63 2.995 0 4.874-1.364 4.874-3.843 0-2.378-1.946-3.044-4.674-3.776-1.813-.449-2.03-.598-2.03-.964 0-.533.516-.766 1.115-.766 1.148 0 2.712.4 4.042 1.082l1.314-2.412C68.133 1.142 66.337.66 64.474.66zm7.052.183V12.47h4.99c3.444 0 6.238-2.512 6.238-5.806 0-3.31-2.794-5.838-6.237-5.838l-4.99.017zm3.128 2.794H76.4c1.73 0 3.144 1.298 3.144 3.01 0 1.73-1.414 3.028-3.144 3.028h-1.746V3.637z" fill="#09B45B"/></svg>