<svg width="37" height="13" viewBox="0 0 37 13" fill="none" xmlns="http://www.w3.org/2000/svg"><path d="M25.267 5.035h-1.892C22.856 2.195 20.684.47 17.4.47c-3.691 0-6.078 2.362-6.078 6.013 0 3.65 2.312 5.96 6.078 5.942 3.07 0 5.247-1.622 5.895-4.278h1.282l.391-1.039h-1.503a8.122 8.122 0 00.023-1.038h1.406l.373-1.039v.004zm-5.291 2.077h-2.017l-.39 1.038h2.299c-.259 1.555-.954 2.631-2.394 2.631-1.901 0-2.646-1.934-2.646-4.33 0-2.397.596-4.314 2.517-4.33 1.51 0 2.29 1.207 2.55 2.916h-1.636l-.374 1.038h2.1c.003.124.007.248.007.376 0 .226-.006.447-.016.662v-.001zM.883 12.425h3.3V8.076h5.611v-2.63H4.182V3.511h6.21V.738H.881v11.687zM34.441 8.165c1.473-.608 2.442-1.772 2.442-3.507v-.036c0-1.11-.355-2.004-1.045-2.65-.8-.77-2.07-1.234-3.877-1.234h-5.63v11.686h3.3v-3.74h1.454l1.79 3.786h3.802L34.44 8.165h.001zm-.858-3.312c0 .841-.652 1.36-1.77 1.36h-2.184V3.458h2.164c1.119 0 1.79.465 1.79 1.36v.035z" fill="#fff"/></svg>