<svg width="535" height="30" viewBox="0 0 535 30" fill="none" xmlns="http://www.w3.org/2000/svg"><path d="M4.064 26l2.08-5.536h9.184L17.44 26h3.936L13.024 3.6H8.64L.256 26h3.808zM10.72 7.568l3.584 9.76H7.168l3.552-9.76zM31.86 26h3.68v-5.92l3.873-4.352L46.453 26H50.9L42.07 13.008 50.291 3.6h-4.48L35.541 15.152V3.6h-3.68V26zM61.211 9.424c-2.656 0-4.224 1.056-5.248 2.336l-.384-2.144h-3.008V26h3.456v-8.256c0-3.328 1.632-5.344 4.384-5.344 2.592 0 3.904 1.664 3.904 4.768V26h3.488v-9.12c0-5.472-2.976-7.456-6.592-7.456zm17.354 16.768c4.992 0 8.352-3.36 8.352-8.384 0-4.992-3.36-8.384-8.352-8.384-4.992 0-8.352 3.392-8.352 8.384 0 5.024 3.36 8.384 8.352 8.384zm0-2.944c-2.912 0-4.8-2.272-4.8-5.44 0-3.168 1.888-5.44 4.8-5.44s4.832 2.272 4.832 5.44c0 3.168-1.92 5.44-4.832 5.44zm18.651 2.944c4.192 0 6.976-2.336 7.616-6.048h-3.648c-.416 1.888-1.824 3.104-3.936 3.104-2.784 0-4.608-2.208-4.608-5.408 0-3.232 1.824-5.472 4.608-5.472 2.144 0 3.52 1.184 3.968 3.104h3.616c-.672-3.712-3.296-6.048-7.52-6.048-4.96 0-8.224 3.36-8.224 8.416 0 5.12 3.168 8.352 8.128 8.352zM107.477 26h3.456v-4.16l2.944-3.072L118.709 26h4.096l-6.56-9.76 6.176-6.624h-4.064l-7.424 7.936V3.6h-3.456V26zm23.713.192c4.992 0 8.352-3.36 8.352-8.384 0-4.992-3.36-8.384-8.352-8.384-4.992 0-8.352 3.392-8.352 8.384 0 5.024 3.36 8.384 8.352 8.384zm0-2.944c-2.912 0-4.8-2.272-4.8-5.44 0-3.168 1.888-5.44 4.8-5.44s4.832 2.272 4.832 5.44c0 3.168-1.92 5.44-4.832 5.44zm22.363-5.44c0 3.392-1.6 5.376-4.224 5.376-2.528 0-3.808-1.632-3.808-4.832V9.616h-3.456v9.12c0 5.6 2.976 7.456 6.464 7.456 2.528 0 4.032-1.024 5.056-2.272l.384 2.08h3.04V9.616h-3.456v8.192zm8.14 3.744c0 2.976 1.343 4.448 4.48 4.448h3.2v-3.04h-2.432c-1.312 0-1.76-.48-1.76-1.76v-8.544h4v-3.04h-4V5.04h-3.488v4.576h-2.848v3.04h2.848v8.896zm39.314-6.752c0-6.56-4.448-11.392-10.88-11.392s-10.88 4.832-10.88 11.392 4.448 11.392 10.88 11.392 10.88-4.832 10.88-11.392zm-17.984 0c0-4.736 2.848-8.16 7.104-8.16s7.104 3.424 7.104 8.16c0 4.736-2.848 8.16-7.104 8.16s-7.104-3.424-7.104-8.16zm39.421-8.16V3.6h-3.296c-3.168 0-4.576 1.504-4.576 4.384v1.632h-6.016V8.24c0-1.12.448-1.6 1.568-1.6h2.432V3.6h-2.912c-3.168 0-4.576 1.504-4.576 4.384v1.632h-2.848v3.04h2.848V26h3.488V12.656h6.016V26h3.456V12.656h4.416v-3.04h-4.416V8.24c0-1.12.48-1.6 1.6-1.6h2.816zm8.903 19.552c4.064 0 6.816-2.464 7.392-5.696h-3.456c-.48 1.824-2.016 2.88-4.128 2.88-2.72 0-4.48-1.824-4.576-4.608v-.224h12.352c.064-.448.096-.896.096-1.312-.096-4.8-3.264-7.808-8-7.808-4.832 0-8.064 3.36-8.064 8.416 0 5.024 3.232 8.352 8.384 8.352zm-4.64-10.176c.256-2.336 2.144-3.808 4.352-3.808 2.4 0 4.096 1.376 4.384 3.808h-8.736zm23.402-6.4c-2.688 0-4 1.088-4.832 2.464l-.384-2.464h-3.072V26h3.456v-8.224c0-2.528.992-4.928 4.064-4.928h1.536V9.616h-.768zm2.58 2.784c0 1.28.928 2.176 2.208 2.176 1.28 0 2.24-.896 2.24-2.176 0-1.28-.96-2.176-2.24-2.176-1.28 0-2.208.896-2.208 2.176zm0 11.616c0 1.28.928 2.176 2.208 2.176 1.28 0 2.24-.896 2.24-2.176 0-1.28-.96-2.176-2.24-2.176-1.28 0-2.208.896-2.208 2.176zm25.167-10.912c-3.52-.608-5.824-1.088-5.824-3.392 0-2.112 1.76-3.2 4.288-3.2 2.72 0 4.512 1.536 4.8 3.808h3.68c-.128-3.616-2.592-6.176-6.624-6.784V.144h-3.104v3.328c-4.064.416-6.72 2.944-6.72 6.496 0 4.448 3.52 5.632 7.232 6.272 3.552.64 5.888 1.152 5.888 3.52 0 2.144-1.92 3.328-4.576 3.328-3.136 0-5.184-1.76-5.376-4.384l-3.712-.064c.128 3.968 2.784 6.848 7.264 7.424v3.36h3.104v-3.296c4.192-.448 6.976-3.104 6.976-6.752.032-4.416-3.584-5.6-7.296-6.272zM287.048 26h15.872v-3.104h-10.848l5.952-4.96c2.72-2.272 4.736-4.352 4.736-7.68 0-4.096-2.816-6.848-7.84-6.848-4.768 0-7.84 3.104-7.84 7.36v.576h3.552v-.384c0-2.784 1.728-4.512 4.288-4.512 2.56 0 4.256 1.408 4.256 3.968 0 2.144-1.504 3.712-3.52 5.408l-8.608 7.328V26zm18.044-10.688c0 6.752 3.616 10.88 8.832 10.88 5.216 0 8.832-4.128 8.832-10.88v-1.024c0-6.496-3.616-10.88-8.832-10.88-5.216 0-8.832 4.384-8.832 10.88v1.024zm14.08-.128c0 5.024-2.112 7.904-5.248 7.904s-5.248-2.88-5.248-7.904v-.768c0-4.992 2.112-7.904 5.248-7.904s5.248 2.912 5.248 7.904v.768zm6.076.128c0 6.752 3.616 10.88 8.832 10.88 5.216 0 8.832-4.128 8.832-10.88v-1.024c0-6.496-3.616-10.88-8.832-10.88-5.216 0-8.832 4.384-8.832 10.88v1.024zm14.08-.128c0 5.024-2.112 7.904-5.248 7.904s-5.248-2.88-5.248-7.904v-.768c0-4.992 2.112-7.904 5.248-7.904s5.248 2.912 5.248 7.904v.768zm13.656-8.32h6.912V26h3.68V6.864h6.912V3.6h-17.504v3.264zm26.594 2.752c-2.688 0-4 1.088-4.832 2.464l-.384-2.464h-3.072V26h3.456v-8.224c0-2.528.992-4.928 4.064-4.928h1.536V9.616h-.768zm17.375 13.376c-.704 0-1.056-.224-1.056-1.056v-6.56c0-3.872-2.496-5.952-6.848-5.952-4.128 0-6.88 1.984-7.232 5.184h3.392c.256-1.44 1.632-2.4 3.68-2.4 2.272 0 3.584 1.12 3.584 2.944v.992h-4.128c-4.576 0-7.008 1.888-7.008 5.248 0 3.04 2.496 4.8 6.08 4.8 2.656 0 4.32-1.152 5.408-2.816 0 1.632.768 2.624 3.008 2.624h1.824v-3.008h-.704zm-4.48-3.712c-.032 2.528-1.696 4.224-4.576 4.224-1.888 0-3.04-.96-3.04-2.336 0-1.664 1.184-2.464 3.328-2.464h4.288v.576zm19.39-7.392c-1.056-1.44-2.816-2.464-5.312-2.464-4.448 0-7.744 3.328-7.744 8.384 0 5.248 3.296 8.384 7.744 8.384 2.592 0 4.288-1.216 5.344-2.656l.416 2.464h3.008V3.6h-3.456v8.288zm-4.736 11.392c-2.88 0-4.768-2.24-4.768-5.472 0-3.2 1.888-5.44 4.768-5.44s4.768 2.24 4.768 5.504c0 3.168-1.888 5.408-4.768 5.408zm19.345 2.912c4.064 0 6.816-2.464 7.392-5.696h-3.456c-.48 1.824-2.016 2.88-4.128 2.88-2.72 0-4.48-1.824-4.576-4.608v-.224h12.352c.064-.448.096-.896.096-1.312-.096-4.8-3.264-7.808-8-7.808-4.832 0-8.064 3.36-8.064 8.416 0 5.024 3.232 8.352 8.384 8.352zm-4.64-10.176c.256-2.336 2.144-3.808 4.352-3.808 2.4 0 4.096 1.376 4.384 3.808h-8.736zM445.486 26h8.512c5.408 0 8.32-2.432 8.32-6.4 0-3.2-2.048-4.768-4.704-5.184 2.336-.64 3.84-2.24 3.84-4.896 0-3.68-2.816-5.92-7.744-5.92h-8.224V26zm8.32-19.328c2.56 0 3.968 1.216 3.968 3.2 0 2.016-1.44 3.232-3.968 3.232h-4.64V6.672h4.64zm.224 9.472c2.848 0 4.512 1.216 4.512 3.424 0 2.08-1.568 3.328-4.512 3.328h-4.864v-6.752h4.864zm18.91 10.048c4.992 0 8.352-3.36 8.352-8.384 0-4.992-3.36-8.384-8.352-8.384-4.992 0-8.352 3.392-8.352 8.384 0 5.024 3.36 8.384 8.352 8.384zm0-2.944c-2.912 0-4.8-2.272-4.8-5.44 0-3.168 1.888-5.44 4.8-5.44s4.832 2.272 4.832 5.44c0 3.168-1.92 5.44-4.832 5.44zm19.771-13.824c-2.656 0-4.224 1.056-5.248 2.336l-.384-2.144h-3.008V26h3.456v-8.256c0-3.328 1.632-5.344 4.384-5.344 2.592 0 3.904 1.664 3.904 4.768V26h3.488v-9.12c0-5.472-2.976-7.456-6.592-7.456zm20.967 8.384c0 3.392-1.6 5.376-4.224 5.376-2.528 0-3.808-1.632-3.808-4.832V9.616h-3.456v9.12c0 5.6 2.976 7.456 6.464 7.456 2.528 0 4.032-1.024 5.056-2.272l.384 2.08h3.04V9.616h-3.456v8.192zm6.158 2.784c.096 3.552 3.104 5.6 7.488 5.6 3.968 0 6.944-1.984 6.944-5.12 0-3.648-3.04-4.416-6.784-4.864-2.368-.256-3.936-.448-3.936-1.984 0-1.312 1.344-2.144 3.392-2.144s3.456 1.056 3.648 2.56h3.392c-.224-3.36-3.072-5.216-7.104-5.216-3.936-.032-6.72 1.984-6.72 5.088 0 3.392 2.944 4.192 6.688 4.64 2.528.32 4.032.448 4.032 2.208 0 1.312-1.408 2.144-3.552 2.144-2.496 0-3.968-1.216-4.096-2.912h-3.392z" fill="#000"/></svg>