<svg width="450" height="21" viewBox="0 0 450 21" fill="none" xmlns="http://www.w3.org/2000/svg"><path d="M.44 1.7h5.28V16h1.188V1.7h5.28V.6H.44v1.1zm16.864 3.146c-2.068 0-2.948.99-3.41 2.222l-.176-2.222h-.968V16h1.122v-5.654c0-2.266.594-4.422 3.212-4.422h.814V4.846h-.594zM28.9 14.966c-.66 0-.99-.22-.99-1.078V8.696c0-2.552-1.562-3.982-4.356-3.982-2.552 0-4.246 1.232-4.532 3.256h1.122c.286-1.364 1.474-2.266 3.366-2.266 2.09 0 3.278 1.1 3.278 2.948v.968h-3.784c-2.86 0-4.4 1.232-4.4 3.322 0 1.98 1.562 3.19 3.938 3.19 2.266 0 3.608-1.034 4.29-2.42v.396c-.044 1.32.506 1.892 1.826 1.892h.66v-1.034H28.9zm-2.112-3.476c0 2.134-1.518 3.674-4.158 3.674-1.782 0-2.882-.902-2.882-2.288 0-1.474 1.1-2.288 3.168-2.288h3.872v.902zm12.966-4.136c-.682-1.584-2.178-2.64-4.268-2.64-3.058 0-5.258 2.332-5.258 5.698 0 3.52 2.2 5.72 5.258 5.72 2.09 0 3.542-1.122 4.246-2.684L39.908 16h.968V.6h-1.122v6.754zm-4.18 7.766c-2.486 0-4.202-1.936-4.202-4.708 0-2.75 1.716-4.708 4.202-4.708 2.486 0 4.202 1.958 4.202 4.73 0 2.75-1.716 4.686-4.202 4.686zm12.87 1.012c2.441 0 4.311-1.584 4.795-3.828h-1.144c-.44 1.738-1.914 2.816-3.74 2.816-2.486 0-4.048-1.892-4.092-4.488v-.198h9.108c0-.154.022-.33.022-.462-.11-3.322-2.156-5.258-5.148-5.258-3.058 0-5.148 2.332-5.148 5.632 0 3.498 2.178 5.786 5.346 5.786zM44.35 9.488c.176-2.266 1.87-3.784 3.916-3.784 2.178 0 3.74 1.342 3.916 3.784h-7.832zm23.966 6.644c3.3 0 5.632-1.782 6.292-4.884h-1.254c-.66 2.464-2.442 3.784-5.06 3.784-3.564 0-5.808-2.794-5.808-6.732s2.288-6.732 5.852-6.732c2.574 0 4.378 1.342 5.06 3.762h1.254C73.97 2.25 71.639.468 68.405.468c-4.334 0-7.15 3.212-7.15 7.832 0 4.664 2.75 7.832 7.062 7.832zM77.166 16h1.188V8.894h6.644v-1.1h-6.644V1.7h7.964V.6h-9.152V16zm15.724 0c4.884 0 7.744-3.036 7.744-7.7 0-4.686-2.86-7.7-7.744-7.7h-4.488V16h4.488zm-3.3-14.3h3.3c4.202 0 6.534 2.552 6.534 6.6 0 4.026-2.332 6.6-6.534 6.6h-3.3V1.7zm12.91 10.868c.088 2.31 1.958 3.564 4.752 3.564 2.398 0 4.334-1.21 4.334-3.19 0-2.354-2.068-2.816-4.466-3.146-1.738-.242-3.278-.44-3.278-2.002 0-1.276 1.254-2.112 3.146-2.112 1.782 0 3.058.858 3.256 2.31h1.144c-.198-2.178-1.98-3.278-4.4-3.278-2.486-.022-4.268 1.254-4.268 3.168 0 2.244 2.068 2.662 4.356 2.97 1.87.264 3.388.506 3.388 2.156 0 1.32-1.386 2.156-3.212 2.156-2.134 0-3.52-.99-3.608-2.596H102.5zM122.362 16h1.21l3.3-9.372L130.018 16h1.21l3.96-11.154h-1.144l-3.432 9.812-3.19-9.812h-1.034l-3.366 9.812-3.256-9.812h-1.188L122.362 16zM137.33 2.492c.44 0 .792-.33.792-.792a.775.775 0 00-.792-.792.775.775 0 00-.792.792c0 .462.351.792.792.792zM136.758 16h1.122V4.846h-1.122V16zm4.595-2.596c0 1.782.726 2.596 2.618 2.596h1.628v-1.034h-1.54c-1.166 0-1.584-.44-1.584-1.584V5.88h3.014V4.846h-3.014V1.722h-1.122v3.124h-2.112V5.88h2.112v7.524zm11.101-8.69c-2.09 0-3.388 1.166-4.026 2.772V.6h-1.122V16h1.122v-5.5c0-2.904 1.474-4.752 3.85-4.752 2.134 0 3.454 1.408 3.454 4.048V16h1.122V9.752c0-3.52-1.87-5.038-4.4-5.038zm17.983 0c-2.09 0-3.388 1.166-4.026 2.772V.6h-1.122V16h1.122v-5.5c0-2.904 1.474-4.752 3.85-4.752 2.134 0 3.454 1.408 3.454 4.048V16h1.122V9.752c0-3.52-1.87-5.038-4.4-5.038zm7.476-2.222c.44 0 .792-.33.792-.792a.775.775 0 00-.792-.792c-.44 0-.792.33-.792.792s.352.792.792.792zM177.341 16h1.122V4.846h-1.122V16zm12.846-8.558c-.682-1.65-2.178-2.728-4.246-2.728-3.058 0-5.258 2.31-5.258 5.698 0 3.52 2.2 5.72 5.258 5.72 2.09 0 3.564-1.1 4.268-2.838v1.98c0 2.97-1.408 4.246-4.092 4.246-2.09 0-3.542-.946-3.894-2.64h-1.166c.352 2.376 2.266 3.652 4.972 3.652 3.608 0 5.302-1.716 5.302-5.214V4.846h-.968l-.176 2.596zm-4.158 7.678c-2.486 0-4.202-1.936-4.202-4.708 0-2.772 1.716-4.708 4.202-4.708 2.486 0 4.202 1.936 4.202 4.73 0 2.75-1.716 4.686-4.202 4.686zm13.089-10.406c-2.09 0-3.388 1.166-4.026 2.772V.6h-1.122V16h1.122v-5.5c0-2.904 1.474-4.752 3.85-4.752 2.134 0 3.454 1.408 3.454 4.048V16h1.122V9.752c0-3.52-1.87-5.038-4.4-5.038zm11.661 11.418c2.442 0 4.312-1.584 4.796-3.828h-1.144c-.44 1.738-1.914 2.816-3.74 2.816-2.486 0-4.048-1.892-4.092-4.488v-.198h9.108c0-.154.022-.33.022-.462-.11-3.322-2.156-5.258-5.148-5.258-3.058 0-5.148 2.332-5.148 5.632 0 3.498 2.178 5.786 5.346 5.786zm-4.092-6.644c.176-2.266 1.87-3.784 3.916-3.784 2.178 0 3.74 1.342 3.916 3.784h-7.832zm15.814-4.642c-2.068 0-2.948.99-3.41 2.222l-.176-2.222h-.968V16h1.122v-5.654c0-2.266.594-4.422 3.212-4.422h.814V4.846h-.594zM230.687 16h1.122V.6h-1.122V16zm8.688.132c2.442 0 4.312-1.584 4.796-3.828h-1.144c-.44 1.738-1.914 2.816-3.74 2.816-2.486 0-4.048-1.892-4.092-4.488v-.198h9.108c0-.154.022-.33.022-.462-.11-3.322-2.156-5.258-5.148-5.258-3.058 0-5.148 2.332-5.148 5.632 0 3.498 2.178 5.786 5.346 5.786zm-4.092-6.644c.176-2.266 1.87-3.784 3.916-3.784 2.178 0 3.74 1.342 3.916 3.784h-7.832zM249.304 16h1.342l4.356-11.154h-1.166l-3.828 9.856-3.85-9.856h-1.21L249.304 16zm11.684.132c2.442 0 4.312-1.584 4.796-3.828h-1.144c-.44 1.738-1.914 2.816-3.74 2.816-2.486 0-4.048-1.892-4.092-4.488v-.198h9.108c0-.154.022-.33.022-.462-.11-3.322-2.156-5.258-5.148-5.258-3.058 0-5.148 2.332-5.148 5.632 0 3.498 2.178 5.786 5.346 5.786zm-4.092-6.644c.176-2.266 1.87-3.784 3.916-3.784 2.178 0 3.74 1.342 3.916 3.784h-7.832zm15.814-4.642c-2.068 0-2.948.99-3.41 2.222l-.176-2.222h-.968V16h1.122v-5.654c0-2.266.594-4.422 3.212-4.422h.814V4.846h-.594zm11.596 10.12c-.66 0-.99-.22-.99-1.078V8.696c0-2.552-1.562-3.982-4.356-3.982-2.552 0-4.246 1.232-4.532 3.256h1.122c.286-1.364 1.474-2.266 3.366-2.266 2.09 0 3.278 1.1 3.278 2.948v.968h-3.784c-2.86 0-4.4 1.232-4.4 3.322 0 1.98 1.562 3.19 3.938 3.19 2.266 0 3.608-1.034 4.29-2.42v.396c-.044 1.32.506 1.892 1.826 1.892h.66v-1.034h-.418zm-2.112-3.476c0 2.134-1.518 3.674-4.158 3.674-1.782 0-2.882-.902-2.882-2.288 0-1.474 1.1-2.288 3.168-2.288h3.872v.902zm13.116-4.048c-.682-1.65-2.178-2.728-4.246-2.728-3.058 0-5.258 2.31-5.258 5.698 0 3.52 2.2 5.72 5.258 5.72 2.09 0 3.564-1.1 4.268-2.838v1.98c0 2.97-1.408 4.246-4.092 4.246-2.09 0-3.542-.946-3.894-2.64h-1.166c.352 2.376 2.266 3.652 4.972 3.652 3.608 0 5.302-1.716 5.302-5.214V4.846h-.968l-.176 2.596zm-4.158 7.678c-2.486 0-4.202-1.936-4.202-4.708 0-2.772 1.716-4.708 4.202-4.708 2.486 0 4.202 1.936 4.202 4.73 0 2.75-1.716 4.686-4.202 4.686zm12.869 1.012c2.442 0 4.312-1.584 4.796-3.828h-1.144c-.44 1.738-1.914 2.816-3.74 2.816-2.486 0-4.048-1.892-4.092-4.488v-.198h9.108c0-.154.022-.33.022-.462-.11-3.322-2.156-5.258-5.148-5.258-3.058 0-5.148 2.332-5.148 5.632 0 3.498 2.178 5.786 5.346 5.786zm-4.092-6.644c.176-2.266 1.87-3.784 3.916-3.784 2.178 0 3.74 1.342 3.916 3.784h-7.832zm16.346-7.084l-2.75 1.188.044-3.014h-.814l.044 3.014-2.728-1.188-.33.77 2.816 1.078-1.936 2.31.594.55 1.936-2.398 1.936 2.398.616-.55-1.914-2.288 2.794-1.078-.308-.792zm18.369 12.562c-.66 0-.99-.22-.99-1.078V8.696c0-2.552-1.562-3.982-4.356-3.982-2.552 0-4.246 1.232-4.532 3.256h1.122c.286-1.364 1.474-2.266 3.366-2.266 2.09 0 3.278 1.1 3.278 2.948v.968h-3.784c-2.86 0-4.4 1.232-4.4 3.322 0 1.98 1.562 3.19 3.938 3.19 2.266 0 3.608-1.034 4.29-2.42v.396c-.044 1.32.506 1.892 1.826 1.892h.66v-1.034h-.418zm-2.112-3.476c0 2.134-1.518 3.674-4.158 3.674-1.782 0-2.882-.902-2.882-2.288 0-1.474 1.1-2.288 3.168-2.288h3.872v.902zm9.178-6.776c-2.046 0-3.366 1.056-4.004 2.508l-.176-2.376h-.968V16h1.122v-5.5c0-2.904 1.474-4.752 3.85-4.752 2.156 0 3.454 1.408 3.454 4.048V16h1.122V9.752c0-3.52-1.87-5.038-4.4-5.038zm15.82 2.64c-.682-1.584-2.178-2.64-4.268-2.64-3.058 0-5.258 2.332-5.258 5.698 0 3.52 2.2 5.72 5.258 5.72 2.09 0 3.542-1.122 4.246-2.684l.176 2.552h.968V.6h-1.122v6.754zm-4.18 7.766c-2.486 0-4.202-1.936-4.202-4.708 0-2.75 1.716-4.708 4.202-4.708 2.486 0 4.202 1.958 4.202 4.73 0 2.75-1.716 4.686-4.202 4.686zm15.828-10.274V3.174c0-1.1.418-1.54 1.54-1.54h1.606V.6h-1.65c-1.87 0-2.618.814-2.618 2.596v1.65h-2.112V5.88h2.112V16h1.122V5.88h4.774V16h1.122V4.846h-5.896zm5.346-3.938c-.44 0-.792.33-.792.792s.352.792.792.792c.462 0 .792-.33.792-.792a.763.763 0 00-.792-.792zM376.517 16h1.298l3.696-4.906L385.207 16h1.364l-4.334-5.698 4.114-5.456h-1.276l-3.52 4.62-3.476-4.62h-1.342l4.114 5.456L376.517 16zm16.042.132c2.442 0 4.312-1.584 4.796-3.828h-1.144c-.44 1.738-1.914 2.816-3.74 2.816-2.486 0-4.048-1.892-4.092-4.488v-.198h9.108c0-.154.022-.33.022-.462-.11-3.322-2.156-5.258-5.148-5.258-3.058 0-5.148 2.332-5.148 5.632 0 3.498 2.178 5.786 5.346 5.786zm-4.092-6.644c.176-2.266 1.87-3.784 3.916-3.784 2.178 0 3.74 1.342 3.916 3.784h-7.832zm20.367-2.134c-.682-1.584-2.178-2.64-4.268-2.64-3.058 0-5.258 2.332-5.258 5.698 0 3.52 2.2 5.72 5.258 5.72 2.09 0 3.542-1.122 4.246-2.684l.176 2.552h.968V.6h-1.122v6.754zm-4.18 7.766c-2.486 0-4.202-1.936-4.202-4.708 0-2.75 1.716-4.708 4.202-4.708 2.486 0 4.202 1.958 4.202 4.73 0 2.75-1.716 4.686-4.202 4.686zm18.425-10.274c-2.068 0-2.948.99-3.41 2.222l-.176-2.222h-.968V16h1.122v-5.654c0-2.266.594-4.422 3.212-4.422h.814V4.846h-.594zm2.829-2.354c.44 0 .792-.33.792-.792a.775.775 0 00-.792-.792c-.44 0-.792.33-.792.792s.352.792.792.792zM425.336 16h1.122V4.846h-1.122V16zm3.253-3.432c.088 2.31 1.958 3.564 4.752 3.564 2.398 0 4.334-1.21 4.334-3.19 0-2.354-2.068-2.816-4.466-3.146-1.738-.242-3.278-.44-3.278-2.002 0-1.276 1.254-2.112 3.146-2.112 1.782 0 3.058.858 3.256 2.31h1.144c-.198-2.178-1.98-3.278-4.4-3.278-2.486-.022-4.268 1.254-4.268 3.168 0 2.244 2.068 2.662 4.356 2.97 1.87.264 3.388.506 3.388 2.156 0 1.32-1.386 2.156-3.212 2.156-2.134 0-3.52-.99-3.608-2.596h-1.144zM439.816 16h1.122v-3.014l2.618-2.684L447.824 16h1.364l-4.862-6.512 4.488-4.642h-1.386l-6.49 6.688V.6h-1.122V16z" fill="#000"/></svg>