<svg width="188" height="9" viewBox="0 0 188 9" fill="none" xmlns="http://www.w3.org/2000/svg"><path d="M.648 6.5h.486V3.593h2.718v-.45H1.134V.65h3.258V.2H.648v6.3zM5.371.974c.18 0 .324-.135.324-.324A.317.317 0 005.37.326a.317.317 0 00-.324.324c0 .189.144.324.324.324zM5.137 6.5h.459V1.937h-.46V6.5zM8.78 1.883c-.837 0-1.377.432-1.638 1.026l-.072-.972h-.396V6.5h.459V4.25c0-1.188.603-1.944 1.575-1.944.882 0 1.413.576 1.413 1.656V6.5h.459V3.944c0-1.44-.765-2.061-1.8-2.061zm6.471 1.08c-.279-.648-.89-1.08-1.746-1.08-1.25 0-2.15.954-2.15 2.331 0 1.44.9 2.34 2.15 2.34.855 0 1.45-.459 1.737-1.098l.072 1.044h.396V.2h-.459v2.763zm-1.71 3.177c-1.017 0-1.719-.792-1.719-1.926 0-1.125.702-1.926 1.72-1.926 1.016 0 1.718.801 1.718 1.935 0 1.125-.702 1.917-1.719 1.917zm7.69.414c1.288 0 2.197-.954 2.197-2.34 0-1.377-.91-2.331-2.196-2.331-1.287 0-2.187.954-2.187 2.331 0 1.386.9 2.34 2.187 2.34zm0-.414c-1.016 0-1.718-.792-1.718-1.926 0-1.125.702-1.926 1.719-1.926 1.017 0 1.719.801 1.719 1.926 0 1.134-.702 1.926-1.72 1.926zm6.42-1.962c0 1.197-.593 1.953-1.538 1.953-.846 0-1.368-.576-1.368-1.665V1.937h-.46v2.556c0 1.431.748 2.061 1.756 2.061.81 0 1.34-.432 1.602-1.017l.063.963h.405V1.937h-.46v2.241zm1.891 1.26c0 .729.297 1.062 1.071 1.062h.666v-.423h-.63c-.477 0-.648-.18-.648-.648V2.36h1.233v-.423h-1.233V.659h-.459v1.278h-.864v.423h.864v3.078zM35.511 6.5h.495l1.35-3.834L38.643 6.5h.495l1.62-4.563h-.468l-1.404 4.014-1.305-4.014h-.423l-1.377 4.014-1.332-4.014h-.486L35.511 6.5zm7.995-4.617c-.855 0-1.386.477-1.647 1.134V.2H41.4v6.3h.46V4.25c0-1.188.602-1.944 1.574-1.944.873 0 1.413.576 1.413 1.656V6.5h.46V3.944c0-1.44-.766-2.061-1.8-2.061zm3.059-.909c.18 0 .324-.135.324-.324a.317.317 0 00-.324-.324.317.317 0 00-.324.324c0 .189.144.324.324.324zM46.331 6.5h.459V1.937h-.459V6.5zm3.527.054c1.035 0 1.764-.594 1.944-1.521h-.486c-.153.675-.702 1.107-1.458 1.107-.999 0-1.692-.783-1.692-1.917s.684-1.935 1.692-1.935c.765 0 1.305.432 1.467 1.116h.477c-.189-.945-.9-1.521-1.935-1.521-1.287 0-2.169.954-2.169 2.34 0 1.404.873 2.331 2.16 2.331zM54.8 1.883c-.855 0-1.386.477-1.647 1.134V.2h-.459v6.3h.46V4.25c0-1.188.602-1.944 1.574-1.944.873 0 1.413.576 1.413 1.656V6.5h.46V3.944c0-1.44-.766-2.061-1.8-2.061zm10.345 0c-.837 0-1.377.468-1.638 1.143-.216-.756-.783-1.143-1.503-1.143-.783 0-1.251.459-1.485 1.026l-.072-.972h-.396V6.5h.459V4.178c0-1.116.54-1.872 1.413-1.872.792 0 1.287.558 1.287 1.611V6.5h.459V4.016c.027-1.044.567-1.71 1.422-1.71.792 0 1.269.531 1.269 1.566V6.5h.468V3.854c0-1.377-.73-1.971-1.683-1.971zm6.716 4.194c-.27 0-.405-.09-.405-.441V3.512c0-1.044-.64-1.629-1.782-1.629-1.044 0-1.737.504-1.854 1.332h.459c.117-.558.603-.927 1.377-.927.855 0 1.34.45 1.34 1.206v.396H69.45c-1.17 0-1.8.504-1.8 1.359 0 .81.639 1.305 1.61 1.305.928 0 1.477-.423 1.756-.99v.162c-.018.54.207.774.747.774h.27v-.423h-.171zm-.864-1.422c0 .873-.621 1.503-1.701 1.503-.73 0-1.18-.369-1.18-.936 0-.603.45-.936 1.297-.936h1.584v.369zm3.511-2.718c-.846 0-1.206.405-1.394.909l-.073-.909h-.395V6.5h.459V4.187c0-.927.242-1.809 1.313-1.809h.333v-.441h-.243zm.924 4.563h.459V5.267l1.07-1.098L78.709 6.5h.558l-1.99-2.664 1.837-1.899h-.567L75.89 4.673V.2h-.46v6.3zm6.217.054c.999 0 1.764-.648 1.962-1.566h-.468c-.18.711-.783 1.152-1.53 1.152-1.017 0-1.656-.774-1.674-1.836v-.081h3.726c0-.063.009-.135.009-.189-.045-1.359-.882-2.151-2.106-2.151-1.251 0-2.106.954-2.106 2.304 0 1.431.89 2.367 2.187 2.367zm-1.674-2.718c.072-.927.765-1.548 1.602-1.548.89 0 1.53.549 1.602 1.548h-3.204zm4.878 1.602c0 .729.297 1.062 1.07 1.062h.667v-.423h-.63c-.477 0-.648-.18-.648-.648V2.36h1.233v-.423h-1.233V.659h-.46v1.278h-.863v.423h.864v3.078zm2.228-.342c.036.945.801 1.458 1.944 1.458.981 0 1.773-.495 1.773-1.305 0-.963-.846-1.152-1.827-1.287-.711-.099-1.341-.18-1.341-.819 0-.522.513-.864 1.287-.864.729 0 1.251.351 1.332.945h.468c-.081-.891-.81-1.341-1.8-1.341-1.017-.009-1.746.513-1.746 1.296 0 .918.846 1.089 1.782 1.215.765.108 1.386.207 1.386.882 0 .54-.567.882-1.314.882-.873 0-1.44-.405-1.476-1.062h-.468zm11.033.981c-.27 0-.405-.09-.405-.441V3.512c0-1.044-.64-1.629-1.782-1.629-1.044 0-1.737.504-1.854 1.332h.459c.117-.558.603-.927 1.377-.927.855 0 1.34.45 1.34 1.206v.396h-1.547c-1.17 0-1.8.504-1.8 1.359 0 .81.639 1.305 1.61 1.305.928 0 1.477-.423 1.756-.99v.162c-.018.54.207.774.747.774h.27v-.423h-.171zm-.864-1.422c0 .873-.621 1.503-1.701 1.503-.73 0-1.18-.369-1.18-.936 0-.603.45-.936 1.297-.936h1.584v.369zm3.511-2.718c-.846 0-1.206.405-1.395.909l-.072-.909h-.396V6.5h.46V4.187c0-.927.242-1.809 1.313-1.809h.333v-.441h-.243zm2.614 4.617c.999 0 1.764-.648 1.962-1.566h-.468c-.18.711-.783 1.152-1.53 1.152-1.017 0-1.656-.774-1.674-1.836v-.081h3.726c0-.063.009-.135.009-.189-.045-1.359-.882-2.151-2.106-2.151-1.251 0-2.106.954-2.106 2.304 0 1.431.891 2.367 2.187 2.367zm-1.674-2.718c.072-.927.765-1.548 1.602-1.548.891 0 1.53.549 1.602 1.548h-3.204zm8.4 2.664l-.297.738c-.207.504-.288.639-.756.639h-.576V8.3h.702c.612 0 .756-.234 1.044-.954l2.187-5.409h-.495l-1.557 3.969-1.584-3.969h-.495l1.827 4.563zm4.744.054c1.287 0 2.196-.954 2.196-2.34 0-1.377-.909-2.331-2.196-2.331-1.287 0-2.187.954-2.187 2.331 0 1.386.9 2.34 2.187 2.34zm0-.414c-1.017 0-1.719-.792-1.719-1.926 0-1.125.702-1.926 1.719-1.926 1.017 0 1.719.801 1.719 1.926 0 1.134-.702 1.926-1.719 1.926zm6.42-1.962c0 1.197-.594 1.953-1.539 1.953-.846 0-1.368-.576-1.368-1.665V1.937h-.459v2.556c0 1.431.747 2.061 1.755 2.061.81 0 1.341-.432 1.602-1.017l.063.963h.405V1.937h-.459v2.241zm3.403-2.241c-.846 0-1.206.405-1.395.909l-.072-.909h-.396V6.5h.459V4.187c0-.927.243-1.809 1.314-1.809h.333v-.441h-.243zm8.443-.054c-.837 0-1.377.468-1.638 1.143-.216-.756-.783-1.143-1.503-1.143-.783 0-1.251.459-1.485 1.026l-.072-.972h-.396V6.5h.459V4.178c0-1.116.54-1.872 1.413-1.872.792 0 1.287.558 1.287 1.611V6.5h.459V4.016c.027-1.044.567-1.71 1.422-1.71.792 0 1.269.531 1.269 1.566V6.5h.468V3.854c0-1.377-.729-1.971-1.683-1.971zm4.647 4.671c1.287 0 2.196-.954 2.196-2.34 0-1.377-.909-2.331-2.196-2.331-1.287 0-2.187.954-2.187 2.331 0 1.386.9 2.34 2.187 2.34zm0-.414c-1.017 0-1.719-.792-1.719-1.926 0-1.125.702-1.926 1.719-1.926 1.017 0 1.719.801 1.719 1.926 0 1.134-.702 1.926-1.719 1.926zm2.892-1.044c.036.945.801 1.458 1.944 1.458.981 0 1.773-.495 1.773-1.305 0-.963-.846-1.152-1.827-1.287-.711-.099-1.341-.18-1.341-.819 0-.522.513-.864 1.287-.864.729 0 1.251.351 1.332.945h.468c-.081-.891-.81-1.341-1.8-1.341-1.017-.009-1.746.513-1.746 1.296 0 .918.846 1.089 1.782 1.215.765.108 1.386.207 1.386.882 0 .54-.567.882-1.314.882-.873 0-1.44-.405-1.476-1.062h-.468zm4.935.342c0 .729.297 1.062 1.071 1.062h.666v-.423h-.63c-.477 0-.648-.18-.648-.648V2.36h1.233v-.423h-1.233V.659h-.459v1.278h-.864v.423h.864v3.078zm7.066-3.555c-.855 0-1.449.459-1.737 1.098l-.072-1.044h-.396V8.3h.459V5.447c.261.666.882 1.107 1.746 1.107 1.251 0 2.151-.954 2.151-2.34 0-1.431-.9-2.331-2.151-2.331zm-.036 4.257c-1.017 0-1.719-.792-1.719-1.935 0-1.116.702-1.917 1.719-1.917 1.017 0 1.719.801 1.719 1.926 0 1.134-.702 1.926-1.719 1.926zm4.959-4.203c-.846 0-1.206.405-1.395.909l-.072-.909h-.396V6.5h.459V4.187c0-.927.243-1.809 1.314-1.809h.333v-.441h-.243zm2.614 4.617c1.287 0 2.196-.954 2.196-2.34 0-1.377-.909-2.331-2.196-2.331-1.287 0-2.187.954-2.187 2.331 0 1.386.9 2.34 2.187 2.34zm0-.414c-1.017 0-1.719-.792-1.719-1.926 0-1.125.702-1.926 1.719-1.926 1.017 0 1.719.801 1.719 1.926 0 1.134-.702 1.926-1.719 1.926zm3.839-4.203v-.684c0-.45.171-.63.63-.63h.657V.2h-.675c-.765 0-1.071.333-1.071 1.062v.675h-.864v.423h.864V6.5h.459V2.36h1.953V6.5h.459V1.937h-2.412zm2.187-1.611a.317.317 0 00-.324.324c0 .189.144.324.324.324a.312.312 0 00.324-.324.312.312 0 00-.324-.324zm1.643 5.112c0 .729.297 1.062 1.071 1.062h.666v-.423h-.63c-.477 0-.648-.18-.648-.648V2.36h1.233v-.423h-1.233V.659h-.459v1.278h-.864v.423h.864v3.078zm6.352.639c-.27 0-.405-.09-.405-.441V3.512c0-1.044-.639-1.629-1.782-1.629-1.044 0-1.737.504-1.854 1.332h.459c.117-.558.603-.927 1.377-.927.855 0 1.341.45 1.341 1.206v.396h-1.548c-1.17 0-1.8.504-1.8 1.359 0 .81.639 1.305 1.611 1.305.927 0 1.476-.423 1.755-.99v.162c-.018.54.207.774.747.774h.27v-.423h-.171zm-.864-1.422c0 .873-.621 1.503-1.701 1.503-.729 0-1.179-.369-1.179-.936 0-.603.45-.936 1.296-.936h1.584v.369zm3.854-2.772c-.855 0-1.458.468-1.746 1.116V.2h-.459v6.3h.396l.072-1.035c.27.657.882 1.089 1.737 1.089 1.251 0 2.151-.954 2.151-2.34 0-1.431-.9-2.331-2.151-2.331zm-.036 4.257c-1.017 0-1.719-.792-1.719-1.935 0-1.116.702-1.917 1.719-1.917 1.017 0 1.719.801 1.719 1.926 0 1.134-.702 1.926-1.719 1.926zm3.096.36h.459V.2h-.459v6.3zm3.554.054c.999 0 1.764-.648 1.962-1.566h-.468c-.18.711-.783 1.152-1.53 1.152-1.017 0-1.656-.774-1.674-1.836v-.081h3.726c0-.063.009-.135.009-.189-.045-1.359-.882-2.151-2.106-2.151-1.251 0-2.106.954-2.106 2.304 0 1.431.891 2.367 2.187 2.367zm-1.674-2.718c.072-.927.765-1.548 1.602-1.548.891 0 1.53.549 1.602 1.548h-3.204zm4.227 2.367c0 .207.144.342.342.342a.326.326 0 00.342-.342c0-.207-.144-.333-.342-.333-.198 0-.342.126-.342.333z" fill="#000"/></svg>