<svg width="284" height="17" viewBox="0 0 284 17" fill="none" xmlns="http://www.w3.org/2000/svg"><path d="M.34 2.334h3.672V12.5h1.955V2.334h3.672V.6H.34v1.734zm15.111 1.36c-1.36 0-2.193.612-2.737 1.36V.6H10.88v11.9h1.835V8.097c0-1.751.884-2.822 2.33-2.822 1.36 0 2.09.884 2.09 2.533V12.5h1.837V7.655c0-2.907-1.581-3.961-3.52-3.961zm9.254 8.908c2.159 0 3.62-1.309 3.927-3.026h-1.836c-.255.969-1.071 1.53-2.193 1.53-1.445 0-2.38-.969-2.431-2.448v-.119h6.562c.034-.238.05-.476.05-.697-.05-2.55-1.733-4.148-4.25-4.148-2.566 0-4.283 1.785-4.283 4.471 0 2.669 1.717 4.437 4.454 4.437zM22.24 7.196c.136-1.241 1.139-2.023 2.312-2.023 1.275 0 2.176.731 2.329 2.023H22.24zm17.037-3.502c-1.343 0-2.244.612-2.822 1.394V.6h-1.836v11.9h1.598l.22-1.258c.545.782 1.48 1.36 2.84 1.36 2.38 0 4.114-1.785 4.114-4.454 0-2.805-1.734-4.454-4.114-4.454zm-.306 7.361c-1.53 0-2.533-1.207-2.533-2.924 0-1.683 1.003-2.873 2.533-2.873s2.55 1.19 2.55 2.89c0 1.717-1.02 2.907-2.55 2.907zm6.826-8.483c.629 0 1.122-.459 1.122-1.105 0-.646-.493-1.105-1.122-1.105-.63 0-1.122.459-1.122 1.105 0 .646.493 1.105 1.122 1.105zm-.935 9.928h1.836V3.796h-1.836V12.5zm10.283-7.344c-.561-.867-1.496-1.462-2.856-1.462-2.363 0-4.114 1.751-4.114 4.42 0 2.771 1.75 4.42 4.114 4.42 1.36 0 2.26-.561 2.839-1.428v.969c0 1.666-.901 2.431-2.5 2.431-1.291 0-2.141-.561-2.362-1.53h-1.87c.17 1.955 1.785 3.026 4.097 3.026 3.128 0 4.454-1.496 4.454-3.859V3.796h-1.598l-.204 1.36zm-2.55 5.831c-1.53 0-2.533-1.173-2.533-2.873 0-1.683 1.003-2.873 2.533-2.873s2.533 1.19 2.533 2.907c0 1.666-1.003 2.839-2.533 2.839zm12.793-5.831c-.561-.867-1.496-1.462-2.856-1.462-2.363 0-4.114 1.751-4.114 4.42 0 2.771 1.75 4.42 4.114 4.42 1.36 0 2.26-.561 2.839-1.428v.969c0 1.666-.901 2.431-2.5 2.431-1.291 0-2.141-.561-2.362-1.53h-1.87c.17 1.955 1.785 3.026 4.097 3.026 3.128 0 4.454-1.496 4.454-3.859V3.796h-1.598l-.204 1.36zm-2.55 5.831c-1.53 0-2.533-1.173-2.533-2.873 0-1.683 1.003-2.873 2.533-2.873s2.533 1.19 2.533 2.907c0 1.666-1.003 2.839-2.533 2.839zm10.277 1.615c2.159 0 3.621-1.309 3.927-3.026h-1.836c-.255.969-1.071 1.53-2.193 1.53-1.445 0-2.38-.969-2.431-2.448v-.119h6.562c.034-.238.051-.476.051-.697-.051-2.55-1.734-4.148-4.25-4.148-2.567 0-4.284 1.785-4.284 4.471 0 2.669 1.717 4.437 4.454 4.437zM70.65 7.196c.136-1.241 1.139-2.023 2.312-2.023 1.275 0 2.176.731 2.329 2.023H70.65zm7.605 2.431c.052 1.887 1.65 2.975 3.979 2.975 2.108 0 3.689-1.054 3.689-2.72 0-1.938-1.615-2.346-3.605-2.584-1.257-.136-2.09-.238-2.09-1.054 0-.697.714-1.139 1.802-1.139s1.835.561 1.938 1.36h1.801c-.119-1.785-1.632-2.771-3.773-2.771-2.091-.017-3.57 1.054-3.57 2.703 0 1.802 1.564 2.227 3.552 2.465 1.344.17 2.143.238 2.143 1.173 0 .697-.748 1.139-1.887 1.139-1.326 0-2.108-.646-2.176-1.547h-1.803zm9.72.51c0 1.581.713 2.363 2.38 2.363h1.7v-1.615h-1.293c-.697 0-.935-.255-.935-.935V5.411h2.125V3.796h-2.125V1.365h-1.853v2.431h-1.513v1.615h1.513v4.726zm16.244-4.981c-.561-.867-1.496-1.462-2.856-1.462-2.363 0-4.114 1.751-4.114 4.42 0 2.771 1.75 4.42 4.114 4.42 1.36 0 2.261-.561 2.839-1.428v.969c0 1.666-.901 2.431-2.499 2.431-1.292 0-2.142-.561-2.363-1.53h-1.87c.17 1.955 1.785 3.026 4.097 3.026 3.128 0 4.454-1.496 4.454-3.859V3.796h-1.598l-.204 1.36zm-2.55 5.831c-1.53 0-2.533-1.173-2.533-2.873 0-1.683 1.003-2.873 2.533-2.873s2.533 1.19 2.533 2.907c0 1.666-1.003 2.839-2.533 2.839zm14.102-.085c-.374 0-.561-.119-.561-.561V6.856c0-2.057-1.326-3.162-3.638-3.162-2.193 0-3.655 1.054-3.842 2.754h1.802c.136-.765.867-1.275 1.955-1.275 1.207 0 1.904.595 1.904 1.564v.527h-2.193c-2.431 0-3.723 1.003-3.723 2.788 0 1.615 1.326 2.55 3.23 2.55 1.411 0 2.295-.612 2.873-1.496 0 .867.408 1.394 1.598 1.394h.969v-1.598h-.374zm-2.38-1.972c-.017 1.343-.901 2.244-2.431 2.244-1.003 0-1.615-.51-1.615-1.241 0-.884.629-1.309 1.768-1.309h2.278v.306zm13.767-5.236c-1.428 0-2.414.629-2.975 1.581-.527-1.122-1.547-1.581-2.686-1.581-1.309.017-2.057.595-2.55 1.241l-.204-1.139h-1.598V12.5h1.836V7.842c0-1.547.782-2.567 2.04-2.567 1.207 0 1.836.799 1.836 2.329V12.5h1.853V7.791c0-1.564.799-2.516 2.057-2.516 1.19 0 1.819.799 1.819 2.329V12.5h1.836V7.485c0-2.754-1.462-3.791-3.264-3.791zm8.993 8.908c2.159 0 3.621-1.309 3.927-3.026h-1.836c-.255.969-1.071 1.53-2.193 1.53-1.445 0-2.38-.969-2.431-2.448v-.119h6.562c.034-.238.051-.476.051-.697-.051-2.55-1.734-4.148-4.25-4.148-2.567 0-4.284 1.785-4.284 4.471 0 2.669 1.717 4.437 4.454 4.437zm-2.465-5.406c.136-1.241 1.139-2.023 2.312-2.023 1.275 0 2.176.731 2.329 2.023h-4.641zm8.348 3.111c-.782 0-1.292.51-1.292 1.156 0 .731.442 1.088 1.003 1.088a.914.914 0 00.561-.17.97.97 0 01.017.221c0 .595-.425 1.258-1.496 1.275v.986c1.683-.017 2.737-.952 2.737-2.601 0-1.088-.595-1.955-1.53-1.955zm8.237-7.735c.629 0 1.122-.459 1.122-1.105 0-.646-.493-1.105-1.122-1.105-.629 0-1.122.459-1.122 1.105 0 .646.493 1.105 1.122 1.105zm-.935 9.928h1.836V3.796h-1.836V12.5zm8.225-8.806c-1.411 0-2.244.561-2.788 1.241l-.204-1.139h-1.598V12.5h1.836V8.114c0-1.768.867-2.839 2.329-2.839 1.377 0 2.074.884 2.074 2.533V12.5h1.853V7.655c0-2.907-1.581-3.961-3.502-3.961zm4.798 5.933c.051 1.887 1.649 2.975 3.978 2.975 2.108 0 3.689-1.054 3.689-2.72 0-1.938-1.615-2.346-3.604-2.584-1.258-.136-2.091-.238-2.091-1.054 0-.697.714-1.139 1.802-1.139s1.836.561 1.938 1.36h1.802c-.119-1.785-1.632-2.771-3.774-2.771-2.091-.017-3.57 1.054-3.57 2.703 0 1.802 1.564 2.227 3.553 2.465 1.343.17 2.142.238 2.142 1.173 0 .697-.748 1.139-1.887 1.139-1.326 0-2.108-.646-2.176-1.547h-1.802zm10.025-7.055c.629 0 1.122-.459 1.122-1.105 0-.646-.493-1.105-1.122-1.105-.629 0-1.122.459-1.122 1.105 0 .646.493 1.105 1.122 1.105zm-.935 9.928h1.836V3.796h-1.836V12.5zm10.249-7.497c-.561-.765-1.496-1.309-2.822-1.309-2.363 0-4.114 1.768-4.114 4.454 0 2.788 1.751 4.454 4.114 4.454 1.377 0 2.278-.646 2.839-1.411l.221 1.309h1.598V.6h-1.836v4.403zm-2.516 6.052c-1.53 0-2.533-1.19-2.533-2.907 0-1.7 1.003-2.89 2.533-2.89s2.533 1.19 2.533 2.924c0 1.683-1.003 2.873-2.533 2.873zm10.277 1.547c2.159 0 3.621-1.309 3.927-3.026h-1.836c-.255.969-1.071 1.53-2.193 1.53-1.445 0-2.38-.969-2.431-2.448v-.119h6.562c.034-.238.051-.476.051-.697-.051-2.55-1.734-4.148-4.25-4.148-2.567 0-4.284 1.785-4.284 4.471 0 2.669 1.717 4.437 4.454 4.437zm-2.465-5.406c.136-1.241 1.139-2.023 2.312-2.023 1.275 0 2.176.731 2.329 2.023h-4.641zm14.895 5.355l-.34.85c-.272.714-.442.884-1.156.884h-1.292V15.9h1.972c1.275 0 1.649-.629 2.193-2.04l3.944-10.064h-1.955l-2.363 6.613-2.431-6.613h-1.955l3.383 8.755zm9.965.051c2.652 0 4.437-1.785 4.437-4.454 0-2.652-1.785-4.454-4.437-4.454s-4.437 1.802-4.437 4.454c0 2.669 1.785 4.454 4.437 4.454zm0-1.564c-1.547 0-2.55-1.207-2.55-2.89s1.003-2.89 2.55-2.89 2.567 1.207 2.567 2.89-1.02 2.89-2.567 2.89zm11.88-2.89c0 1.802-.85 2.856-2.244 2.856-1.343 0-2.023-.867-2.023-2.567V3.796h-1.836v4.845c0 2.975 1.581 3.961 3.434 3.961 1.343 0 2.142-.544 2.686-1.207l.204 1.105h1.615V3.796h-1.836v4.352zm8.049-4.352c-1.428 0-2.125.578-2.567 1.309l-.204-1.309h-1.632V12.5h1.836V8.131c0-1.343.527-2.618 2.159-2.618h.816V3.796h-.408zm10.462-.102c-1.36 0-2.193.612-2.737 1.36V.6h-1.836v11.9h1.836V8.097c0-1.751.884-2.822 2.329-2.822 1.36 0 2.091.884 2.091 2.533V12.5h1.836V7.655c0-2.907-1.581-3.961-3.519-3.961zm9.254 8.908c2.159 0 3.621-1.309 3.927-3.026h-1.836c-.255.969-1.071 1.53-2.193 1.53-1.445 0-2.38-.969-2.431-2.448v-.119h6.562c.034-.238.051-.476.051-.697-.051-2.55-1.734-4.148-4.25-4.148-2.567 0-4.284 1.785-4.284 4.471 0 2.669 1.717 4.437 4.454 4.437zm-2.465-5.406c.136-1.241 1.139-2.023 2.312-2.023 1.275 0 2.176.731 2.329 2.023h-4.641zm15.985 3.706c-.374 0-.561-.119-.561-.561V6.856c0-2.057-1.326-3.162-3.638-3.162-2.193 0-3.655 1.054-3.842 2.754h1.802c.136-.765.867-1.275 1.955-1.275 1.207 0 1.904.595 1.904 1.564v.527h-2.193c-2.431 0-3.723 1.003-3.723 2.788 0 1.615 1.326 2.55 3.23 2.55 1.411 0 2.295-.612 2.873-1.496 0 .867.408 1.394 1.598 1.394h.969v-1.598h-.374zm-2.38-1.972c-.017 1.343-.901 2.244-2.431 2.244-1.003 0-1.615-.51-1.615-1.241 0-.884.629-1.309 1.768-1.309h2.278v.306zm10.301-3.927c-.561-.765-1.496-1.309-2.822-1.309-2.363 0-4.114 1.768-4.114 4.454 0 2.788 1.751 4.454 4.114 4.454 1.377 0 2.278-.646 2.839-1.411l.221 1.309h1.598V.6h-1.836v4.403zm-2.516 6.052c-1.53 0-2.533-1.19-2.533-2.907 0-1.7 1.003-2.89 2.533-2.89s2.533 1.19 2.533 2.924c0 1.683-1.003 2.873-2.533 2.873zm7.608-6.562c0-1.411.85-2.363 2.159-2.363 1.139 0 1.904.68 1.904 1.649 0 .816-.442 1.36-1.207 1.87-1.02.663-1.819 1.224-1.819 2.601v.544h1.734v-.34c0-.85.578-1.292 1.496-1.921.884-.629 1.7-1.377 1.7-2.941 0-1.785-1.462-3.094-3.825-3.094-2.533 0-4.012 1.785-4.012 3.995h1.87zm.782 6.97c0 .68.51 1.139 1.173 1.139s1.156-.459 1.156-1.139c0-.68-.493-1.139-1.156-1.139-.663 0-1.173.459-1.173 1.139z" fill="#000"/></svg>