<svg width="120" height="600" viewBox="0 0 120 600" fill="none" xmlns="http://www.w3.org/2000/svg"><path fill="url(#paint0_linear_23_1920)" d="M0 0h120v600H0z"/><rect x="2" y="295.186" width="116" height="20" rx="10" fill="#14964F"/><path d="M16.786 308.186h.96l-1.992-5.568h-1.056l-1.992 5.568h.952l.4-1.136h2.328l.4 1.136zm-.656-1.88h-1.816l.912-2.584.904 2.584zm5.61 1.88h.904v-2.6c0-1.232-.776-1.88-1.808-1.88-.528 0-1.016.216-1.312.576v-.504h-.912v4.408h.912v-2.464c0-.808.44-1.224 1.112-1.224.664 0 1.104.416 1.104 1.224v2.464zm8.315 0h.904v-2.6c0-1.232-.784-1.88-1.816-1.88-.64 0-1.264.336-1.536.872-.304-.576-.888-.872-1.584-.872-.528 0-1.008.216-1.304.576v-.504h-.912v4.408h.912v-2.464c0-.808.44-1.224 1.112-1.224.664 0 1.104.416 1.104 1.224v2.464h.904v-2.464c0-.808.44-1.224 1.112-1.224.664 0 1.104.416 1.104 1.224v2.464zm3.92-3.712c.68 0 1.216.432 1.233 1.112h-2.44c.096-.696.591-1.112 1.207-1.112zm2.064 2.4h-.983c-.168.344-.48.616-1.04.616-.672 0-1.192-.44-1.256-1.168h3.367c.024-.152.032-.296.032-.448 0-1.296-.887-2.168-2.143-2.168-1.304 0-2.2.888-2.2 2.272s.936 2.28 2.2 2.28c1.08 0 1.776-.616 2.023-1.384zm1.018 1.312h.912v-5.92h-.912v5.92zm1.805-2.224c0 1.36.92 2.296 2.08 2.296.72 0 1.248-.336 1.528-.736v.664h.92v-5.92h-.92v2.128c-.336-.416-.944-.688-1.52-.688-1.168 0-2.088.896-2.088 2.256zm3.608.016c0 .952-.648 1.488-1.336 1.488-.68 0-1.336-.552-1.336-1.504s.656-1.464 1.336-1.464c.688 0 1.336.536 1.336 1.48zm3.974-1.504c.68 0 1.216.432 1.232 1.112h-2.44c.096-.696.592-1.112 1.208-1.112zm2.064 2.4h-.984c-.168.344-.48.616-1.04.616-.672 0-1.192-.44-1.256-1.168h3.368c.024-.152.032-.296.032-.448 0-1.296-.888-2.168-2.144-2.168-1.304 0-2.2.888-2.2 2.272s.936 2.28 2.2 2.28c1.08 0 1.776-.616 2.024-1.384zm4.146 1.312h.904v-2.6c0-1.232-.776-1.88-1.808-1.88-.528 0-1.016.216-1.312.576v-.504h-.912v4.408h.912v-2.464c0-.808.44-1.224 1.112-1.224.664 0 1.104.416 1.104 1.224v2.464zm8.137-4.408h-.912v2.456c0 .808-.44 1.224-1.112 1.224-.664 0-1.104-.416-1.104-1.224v-2.456h-.904v2.592c0 1.232.784 1.88 1.816 1.88.52 0 1.016-.216 1.304-.592v.528h.912v-4.408zm4.332 4.408h.903v-2.6c0-1.232-.775-1.88-1.807-1.88-.528 0-1.016.216-1.312.576v-.504h-.912v4.408h.912v-2.464c0-.808.44-1.224 1.112-1.224.663 0 1.103.416 1.103 1.224v2.464zm1.763-2.224c0 1.36.92 2.296 2.08 2.296.72 0 1.248-.336 1.528-.736v.664h.92v-5.92h-.92v2.128c-.336-.416-.944-.688-1.52-.688-1.168 0-2.088.896-2.088 2.256zm3.608.016c0 .952-.648 1.488-1.336 1.488-.68 0-1.336-.552-1.336-1.504s.656-1.464 1.336-1.464c.688 0 1.336.536 1.336 1.48zm4.196 2.208h.912v-2.464c0-.808.44-1.224 1.112-1.224.664 0 1.104.416 1.104 1.224v2.464h.904v-2.6c0-1.232-.768-1.88-1.752-1.88-.568 0-1.064.216-1.368.584v-2.024h-.912v5.92zm4.891-2.224c0 1.36.92 2.296 2.064 2.296.736 0 1.264-.352 1.544-.728v.656h.92v-4.408h-.92v.64c-.272-.36-.784-.712-1.528-.712-1.16 0-2.08.896-2.08 2.256zm3.608.016c0 .952-.648 1.488-1.336 1.488-.68 0-1.336-.552-1.336-1.504s.656-1.464 1.336-1.464c.688 0 1.336.536 1.336 1.48zm5.246 2.208h.904v-2.6c0-1.232-.776-1.88-1.808-1.88-.528 0-1.016.216-1.312.576v-.504h-.912v4.408h.912v-2.464c0-.808.44-1.224 1.112-1.224.664 0 1.104.416 1.104 1.224v2.464zm1.763-2.224c0 1.36.92 2.296 2.08 2.296.72 0 1.248-.336 1.528-.736v.664h.92v-5.92h-.92v2.128c-.336-.416-.944-.688-1.52-.688-1.168 0-2.088.896-2.088 2.256zm3.608.016c0 .952-.648 1.488-1.336 1.488-.68 0-1.336-.552-1.336-1.504s.656-1.464 1.336-1.464c.688 0 1.336.536 1.336 1.48zm3.974-1.504c.68 0 1.216.432 1.232 1.112h-2.44c.096-.696.592-1.112 1.208-1.112zm2.064 2.4h-.984c-.168.344-.48.616-1.04.616-.672 0-1.192-.44-1.256-1.168h3.368c.024-.152.032-.296.032-.448 0-1.296-.888-2.168-2.144-2.168-1.304 0-2.2.888-2.2 2.272s.936 2.28 2.2 2.28c1.08 0 1.776-.616 2.024-1.384zm1.018 1.312h.912v-5.92h-.912v5.92zm5.237 0h.904v-2.6c0-1.232-.776-1.88-1.808-1.88-.528 0-1.016.216-1.312.576v-.504h-.912v4.408h.912v-2.464c0-.808.44-1.224 1.112-1.224.664 0 1.104.416 1.104 1.224v2.464zM13 269.319h10.815v3.291h-7.062v2.294h6.383v3.121h-6.383v4.821H13v-13.527z" fill="#fff"/><path fill-rule="evenodd" clip-rule="evenodd" d="M42.366 269.319h6.471c2.085 0 3.547.552 4.472 1.465.795.764 1.204 1.826 1.204 3.143v.042c0 2.06-1.118 3.44-2.816 4.162l3.267 4.715h-4.386l-2.751-4.099H46.15v4.099h-3.805v-13.527h.021zm6.299 6.498c1.29 0 2.042-.616 2.042-1.614v-.043c0-1.061-.774-1.614-2.063-1.614H46.15v3.249h2.515v.022z" fill="#fff"/><path d="M56.287 269.319h10.879v3.185h-7.168v2.06h6.49v2.952h-6.49v2.144h7.253v3.186H56.287v-13.527zM73.125 275.965l-4.454-6.646h4.305l2.396 3.801 2.418-3.801h4.198l-4.431 6.604 4.644 6.923h-4.305l-2.587-4.078-2.609 4.078h-4.22l4.645-6.881zM85.87 276.432c0-1.55 1.187-2.845 2.883-2.845 1.103 0 1.845.488 2.311 1.21l-1.293.956c-.255-.361-.552-.574-.997-.574-.615 0-1.06.531-1.06 1.19v.021c0 .701.445 1.232 1.081 1.232.446 0 .743-.213 1.04-.553l1.272.914c-.51.743-1.209 1.231-2.396 1.231-1.654.021-2.842-1.253-2.842-2.782" fill="#fff"/><path fill-rule="evenodd" clip-rule="evenodd" d="M92.242 276.432c0-1.55 1.268-2.845 3.031-2.845 1.742 0 3.01 1.274 3.01 2.803v.021c0 1.529-1.268 2.824-3.031 2.824-1.742 0-3.01-1.274-3.01-2.803m4.17 0c0-.679-.494-1.231-1.16-1.231-.688 0-1.14.552-1.14 1.189v.021c0 .658.495 1.211 1.161 1.211.71 0 1.14-.553 1.14-1.19" fill="#fff"/><path d="M99.306 273.693h1.887v.743c.339-.446.848-.849 1.612-.849.721 0 1.272.318 1.548.87.466-.53 1.018-.87 1.802-.87 1.145 0 1.845.722 1.845 1.975v3.546h-1.887v-2.952c0-.594-.297-.892-.742-.892-.446 0-.785.319-.785.892v2.931h-1.866v-2.931c0-.594-.297-.892-.742-.892-.446 0-.764.319-.764.892v2.931h-1.887v-5.394h-.021z" fill="#fff"/><path fill-rule="evenodd" clip-rule="evenodd" d="M39.077 276.05c0-.136-.003-.27-.008-.403h1.62l.43-1.232h-2.182c-.598-3.369-3.105-5.415-6.89-5.415-4.256 0-7.008 2.803-7.008 7.135 0 4.375 2.666 7.072 7.008 7.05 3.54 0 6.052-1.924 6.798-5.075h1.479l.452-1.232h-1.734c.023-.269.035-.545.035-.828zm-6.944 5.182c-2.193 0-3.053-2.294-3.053-5.139 0-2.846.688-5.118 2.903-5.139 1.742 0 2.642 1.434 2.939 3.461h-1.886l-.43 1.232h2.422a15.832 15.832 0 01-.01 1.231H32.69l-.451 1.232h2.651c-.298 1.846-1.1 3.122-2.759 3.122z" fill="#14964F"/><path d="M83.24 278.089c0-.276.106-.489.297-.701a.96.96 0 01.7-.297.96.96 0 01.7.297c.19.191.296.425.296.701a.965.965 0 01-.297.701.942.942 0 01-.7.276.942.942 0 01-.7-.276c-.211-.17-.296-.404-.296-.701" fill="#fff"/><defs><linearGradient id="paint0_linear_23_1920" x1="60" y1="300" x2="60" y2="600" gradientUnits="userSpaceOnUse"><stop stop-color="#12225C"/><stop offset="1" stop-color="#0954B5"/></linearGradient></defs></svg>