<svg width="106" height="19" viewBox="0 0 106 19" fill="none" xmlns="http://www.w3.org/2000/svg"><rect width="106" height="19" rx="9.5" fill="#14964F"/><path d="M15.187 12h.84l-1.743-4.872h-.924L11.617 12h.833l.35-.994h2.037l.35.994zm-.574-1.645h-1.589l.798-2.261.791 2.261zM19.523 12h.79V9.725c0-1.078-.679-1.645-1.582-1.645-.462 0-.889.189-1.148.504v-.441h-.798V12h.798V9.844c0-.707.385-1.071.973-1.071.581 0 .966.364.966 1.071V12zm7.275 0h.791V9.725c0-1.078-.686-1.645-1.589-1.645-.56 0-1.106.294-1.344.763-.266-.504-.777-.763-1.386-.763-.462 0-.882.189-1.14.504v-.441h-.799V12h.798V9.844c0-.707.385-1.071.973-1.071.581 0 .966.364.966 1.071V12h.791V9.844c0-.707.385-1.071.973-1.071.581 0 .966.364.966 1.071V12zm3.43-3.248c.596 0 1.065.378 1.079.973h-2.135c.084-.609.518-.973 1.057-.973zm1.807 2.1h-.861c-.147.301-.42.539-.91.539-.588 0-1.043-.385-1.1-1.022h2.948c.02-.133.028-.259.028-.392 0-1.134-.777-1.897-1.876-1.897-1.141 0-1.925.777-1.925 1.988 0 1.211.819 1.995 1.925 1.995.945 0 1.554-.539 1.77-1.211zm.89 1.148h.798V6.82h-.798V12zm1.58-1.946c0 1.19.805 2.009 1.82 2.009.63 0 1.092-.294 1.337-.644V12h.805V6.82h-.805v1.862c-.294-.364-.826-.602-1.33-.602-1.022 0-1.827.784-1.827 1.974zm3.157.014c0 .833-.567 1.302-1.17 1.302-.594 0-1.168-.483-1.168-1.316 0-.833.574-1.281 1.169-1.281.602 0 1.169.469 1.169 1.295zm3.477-1.316c.595 0 1.064.378 1.078.973h-2.135c.084-.609.518-.973 1.057-.973zm1.806 2.1h-.861c-.147.301-.42.539-.91.539-.588 0-1.043-.385-1.1-1.022h2.948c.02-.133.028-.259.028-.392 0-1.134-.777-1.897-1.876-1.897-1.141 0-1.925.777-1.925 1.988 0 1.211.819 1.995 1.925 1.995.945 0 1.554-.539 1.77-1.211zM46.572 12h.791V9.725c0-1.078-.679-1.645-1.582-1.645-.462 0-.889.189-1.148.504v-.441h-.798V12h.798V9.844c0-.707.385-1.071.973-1.071.581 0 .966.364.966 1.071V12zm7.12-3.857h-.798v2.149c0 .707-.385 1.071-.973 1.071-.58 0-.966-.364-.966-1.071V8.143h-.79v2.268c0 1.078.685 1.645 1.588 1.645.455 0 .89-.189 1.141-.518V12h.798V8.143zM57.482 12h.791V9.725c0-1.078-.679-1.645-1.582-1.645-.462 0-.889.189-1.148.504v-.441h-.798V12h.798V9.844c0-.707.385-1.071.973-1.071.581 0 .966.364.966 1.071V12zm1.543-1.946c0 1.19.805 2.009 1.82 2.009.63 0 1.092-.294 1.337-.644V12h.805V6.82h-.805v1.862c-.294-.364-.826-.602-1.33-.602-1.022 0-1.827.784-1.827 1.974zm3.157.014c0 .833-.567 1.302-1.169 1.302-.595 0-1.169-.483-1.169-1.316 0-.833.574-1.281 1.17-1.281.601 0 1.168.469 1.168 1.295zM65.854 12h.798V9.844c0-.707.385-1.071.973-1.071.58 0 .966.364.966 1.071V12h.79V9.725c0-1.078-.671-1.645-1.532-1.645-.497 0-.931.189-1.197.511V6.82h-.798V12zm4.28-1.946c0 1.19.805 2.009 1.805 2.009.645 0 1.107-.308 1.352-.637V12h.805V8.143h-.806v.56c-.238-.315-.686-.623-1.337-.623-1.014 0-1.82.784-1.82 1.974zm3.156.014c0 .833-.567 1.302-1.169 1.302-.594 0-1.168-.483-1.168-1.316 0-.833.573-1.281 1.168-1.281.603 0 1.17.469 1.17 1.295zM77.88 12h.792V9.725c0-1.078-.68-1.645-1.582-1.645-.462 0-.89.189-1.148.504v-.441h-.798V12h.798V9.844c0-.707.385-1.071.973-1.071.58 0 .966.364.966 1.071V12zm1.544-1.946c0 1.19.805 2.009 1.82 2.009.63 0 1.092-.294 1.337-.644V12h.805V6.82h-.805v1.862c-.294-.364-.826-.602-1.33-.602-1.022 0-1.827.784-1.827 1.974zm3.157.014c0 .833-.567 1.302-1.17 1.302-.594 0-1.168-.483-1.168-1.316 0-.833.574-1.281 1.169-1.281.602 0 1.169.469 1.169 1.295zm3.477-1.316c.595 0 1.064.378 1.078.973H85c.084-.609.518-.973 1.057-.973zm1.806 2.1h-.861c-.147.301-.42.539-.91.539-.588 0-1.043-.385-1.1-1.022h2.948c.02-.133.028-.259.028-.392 0-1.134-.777-1.897-1.876-1.897-1.141 0-1.925.777-1.925 1.988 0 1.211.819 1.995 1.925 1.995.945 0 1.554-.539 1.77-1.211zm.89 1.148h.798V6.82h-.798V12zm4.583 0h.79V9.725c0-1.078-.678-1.645-1.581-1.645-.462 0-.89.189-1.148.504v-.441H90.6V12h.798V9.844c0-.707.385-1.071.973-1.071.58 0 .966.364.966 1.071V12z" fill="#fff"/></svg>