<svg width="97" height="39" viewBox="0 0 97 39" fill="none" xmlns="http://www.w3.org/2000/svg"><path d="M1.489 5.82c-.313 0-.583-.11-.81-.33-.227-.227-.34-.5-.34-.82 0-.327.113-.6.34-.82.227-.227.497-.34.81-.34.327 0 .6.113.82.34.227.22.34.493.34.82 0 .32-.113.593-.34.82-.22.22-.493.33-.82.33zM9.51 7.45c1.227-.92 2.173-1.743 2.84-2.47.673-.733 1.01-1.45 1.01-2.15 0-.46-.117-.827-.35-1.1-.227-.28-.6-.42-1.12-.42-.507 0-.9.16-1.18.48-.273.313-.427.733-.46 1.26h-.68c.04-.74.267-1.313.68-1.72.42-.413.967-.62 1.64-.62.647 0 1.17.183 1.57.55.4.36.6.873.6 1.54 0 .807-.337 1.59-1.01 2.35-.667.753-1.49 1.49-2.47 2.21h3.7v.59H9.51v-.5zm5.863-3.1c0-1.147.176-2.037.53-2.67.353-.633.986-.95 1.9-.95.913 0 1.546.317 1.9.95.353.633.53 1.523.53 2.67 0 1.167-.177 2.07-.53 2.71-.354.64-.987.96-1.9.96-.92 0-1.557-.32-1.91-.96-.347-.64-.52-1.543-.52-2.71zm4.17 0c0-.62-.044-1.143-.13-1.57-.087-.427-.257-.77-.51-1.03-.254-.26-.62-.39-1.1-.39-.48 0-.847.13-1.1.39-.254.26-.424.603-.51 1.03-.087.427-.13.95-.13 1.57 0 .64.043 1.177.13 1.61.086.427.256.77.51 1.03.253.26.62.39 1.1.39.48 0 .846-.13 1.1-.39.253-.26.423-.603.51-1.03.086-.433.13-.97.13-1.61zm8.116-3.34V6.3c0 .533-.163.963-.49 1.29-.327.32-.763.48-1.31.48-.567 0-1.02-.17-1.36-.51-.333-.347-.5-.813-.5-1.4h.71c.007.38.1.69.28.93.187.24.477.36.87.36.373 0 .65-.11.83-.33.18-.22.27-.493.27-.82V1.01h.7zm1.44 4.25c0-.56.11-1.05.33-1.47.227-.427.537-.753.93-.98.4-.233.85-.35 1.35-.35.52 0 .967.12 1.34.36.38.24.654.547.82.92v-1.2h.7V8h-.7V6.79c-.173.373-.45.683-.83.93-.373.24-.82.36-1.34.36a2.61 2.61 0 01-1.34-.35 2.47 2.47 0 01-.93-.99c-.22-.427-.33-.92-.33-1.48zm4.77.01c0-.44-.09-.827-.27-1.16a1.916 1.916 0 00-.74-.77 1.977 1.977 0 00-1.02-.27c-.386 0-.733.087-1.04.26-.306.173-.55.427-.73.76-.173.327-.26.717-.26 1.17 0 .447.087.84.26 1.18.18.333.424.59.73.77.307.173.654.26 1.04.26.373 0 .714-.09 1.02-.27.313-.18.56-.437.74-.77.18-.333.27-.72.27-1.16zm4.898-2.83c.413 0 .783.087 1.11.26.334.173.593.44.78.8.194.353.29.787.29 1.3V8h-.69V4.88c0-.593-.15-1.047-.45-1.36-.293-.313-.697-.47-1.21-.47-.526 0-.947.167-1.26.5-.313.333-.47.823-.47 1.47V8h-.7V.6h.7v2.87c.174-.327.427-.58.76-.76.34-.18.72-.27 1.14-.27zm4.428 1.07c.154-.34.387-.603.7-.79.32-.187.71-.28 1.17-.28v.73h-.19c-.506 0-.913.137-1.22.41-.306.273-.46.73-.46 1.37V8h-.7V2.54h.7v.97zm7.863 1.48c0 .24-.006.423-.02.55h-4.53c.02.413.12.767.3 1.06.18.293.417.517.71.67.294.147.614.22.96.22.454 0 .834-.11 1.14-.33.314-.22.52-.517.62-.89h.74c-.133.533-.42.97-.86 1.31-.433.333-.98.5-1.64.5-.513 0-.973-.113-1.38-.34a2.513 2.513 0 01-.96-.98c-.226-.427-.34-.923-.34-1.49s.114-1.063.34-1.49c.227-.427.544-.753.95-.98.407-.227.87-.34 1.39-.34.52 0 .974.113 1.36.34.394.227.694.533.9.92.214.38.32.803.32 1.27zm-.71-.02c.007-.407-.076-.753-.25-1.04a1.623 1.623 0 00-.69-.65 2.117 2.117 0 00-.96-.22c-.52 0-.963.167-1.33.5-.366.333-.57.803-.61 1.41h3.84zM10.5 15.58v2.61h2.65v.58H10.5v2.65h2.95V22H9.8v-7h3.65v.58H10.5zm5.03 1.93c.153-.34.386-.603.7-.79.32-.187.71-.28 1.17-.28v.73h-.19c-.507 0-.914.137-1.22.41-.307.273-.46.73-.46 1.37V22h-.7v-5.46h.7v.97zm5.072-.38h-1.27V22h-.7v-4.87h-.76v-.59h.76v-.38c0-.593.15-1.03.45-1.31.307-.28.8-.42 1.48-.42v.6c-.453 0-.773.087-.96.26-.18.173-.27.463-.27.87v.38h1.27v.59zm.782 2.13c0-.56.11-1.05.33-1.47.227-.427.537-.753.93-.98.4-.233.85-.35 1.35-.35.52 0 .967.12 1.34.36.38.24.654.547.82.92v-1.2h.7V22h-.7v-1.21c-.173.373-.45.683-.83.93-.373.24-.82.36-1.34.36a2.61 2.61 0 01-1.34-.35 2.47 2.47 0 01-.93-.99c-.22-.427-.33-.92-.33-1.48zm4.77.01c0-.44-.09-.827-.27-1.16a1.917 1.917 0 00-.74-.77 1.978 1.978 0 00-1.02-.27c-.386 0-.733.087-1.04.26-.306.173-.55.427-.73.76-.173.327-.26.717-.26 1.17 0 .447.087.84.26 1.18.18.333.424.59.73.77.307.173.654.26 1.04.26.374 0 .714-.09 1.02-.27.314-.18.56-.437.74-.77.18-.333.27-.72.27-1.16zm4.898-2.83c.414 0 .784.087 1.11.26.334.173.594.44.78.8.194.353.29.787.29 1.3V22h-.69v-3.12c0-.593-.15-1.047-.45-1.36-.293-.313-.696-.47-1.21-.47-.526 0-.946.167-1.26.5-.313.333-.47.823-.47 1.47V22h-.7v-7.4h.7v2.87c.174-.327.427-.58.76-.76.34-.18.72-.27 1.14-.27zm4.428 1.07c.154-.34.387-.603.7-.79.32-.187.71-.28 1.17-.28v.73h-.19c-.506 0-.913.137-1.22.41-.306.273-.46.73-.46 1.37V22h-.7v-5.46h.7v.97zm7.654-.97V22h-.7v-.96c-.16.34-.407.6-.74.78-.334.18-.707.27-1.12.27-.654 0-1.187-.2-1.6-.6-.414-.407-.62-.993-.62-1.76v-3.19h.69v3.11c0 .593.146 1.047.44 1.36.3.313.706.47 1.22.47.526 0 .946-.167 1.26-.5.313-.333.47-.823.47-1.47v-2.97h.7zm4.158-.1c.653 0 1.186.203 1.6.61.413.4.62.983.62 1.75V22h-.69v-3.12c0-.593-.15-1.047-.45-1.36-.294-.313-.697-.47-1.21-.47-.527 0-.947.167-1.26.5-.314.333-.47.823-.47 1.47V22h-.7v-5.46h.7v.93c.173-.333.423-.587.75-.76.326-.18.696-.27 1.11-.27zm6.058.02c.513 0 .96.12 1.34.36.38.24.653.543.82.91v-1.19h.7v5.6c0 .5-.11.943-.33 1.33a2.185 2.185 0 01-.9.89c-.387.213-.827.32-1.32.32-.7 0-1.284-.167-1.75-.5a2.127 2.127 0 01-.86-1.36h.69c.12.38.346.683.68.91.34.227.753.34 1.24.34.353 0 .67-.077.95-.23.28-.147.5-.367.66-.66.16-.293.24-.64.24-1.04v-1.35c-.174.373-.45.683-.83.93-.374.24-.817.36-1.33.36-.5 0-.95-.117-1.35-.35a2.468 2.468 0 01-.93-.99c-.22-.427-.33-.92-.33-1.48 0-.56.11-1.05.33-1.47a2.4 2.4 0 01.93-.98c.4-.233.85-.35 1.35-.35zm2.16 2.81c0-.44-.09-.827-.27-1.16a1.917 1.917 0 00-.74-.77 1.978 1.978 0 00-1.02-.27c-.387 0-.734.087-1.04.26-.307.173-.55.427-.73.76-.174.327-.26.717-.26 1.17 0 .447.086.84.26 1.18.18.333.423.59.73.77.306.173.653.26 1.04.26.373 0 .713-.09 1.02-.27.313-.18.56-.437.74-.77.18-.333.27-.72.27-1.16zm2.938 1.57l-1.04 2.62h-.48l.74-2.62h.78zm4.742-3.71v3.39c0 .333.064.563.19.69.127.127.35.19.67.19h.64v.6h-.75c-.493 0-.86-.113-1.1-.34-.24-.233-.36-.613-.36-1.14v-3.39h-.76v-.59h.76v-1.37h.71v1.37h1.5v.59h-1.5zm7.595 1.86c0 .24-.007.423-.02.55h-4.53c.02.413.12.767.3 1.06.18.293.417.517.71.67.293.147.613.22.96.22.453 0 .833-.11 1.14-.33.313-.22.52-.517.62-.89h.74c-.133.533-.42.97-.86 1.31-.433.333-.98.5-1.64.5-.513 0-.973-.113-1.38-.34a2.514 2.514 0 01-.96-.98c-.227-.427-.34-.923-.34-1.49s.113-1.063.34-1.49c.227-.427.543-.753.95-.98.407-.227.87-.34 1.39-.34.52 0 .973.113 1.36.34.393.227.693.533.9.92.213.38.32.803.32 1.27zm-.71-.02c.007-.407-.077-.753-.25-1.04a1.621 1.621 0 00-.69-.65 2.116 2.116 0 00-.96-.22c-.52 0-.963.167-1.33.5-.367.333-.57.803-.61 1.41h3.84zm2.34-3.46c-.14 0-.26-.05-.36-.15a.503.503 0 01-.15-.37.47.47 0 01.15-.36c.1-.1.22-.15.36-.15.14 0 .26.05.36.15.1.093.15.213.15.36s-.05.27-.15.37c-.1.1-.22.15-.36.15zm.35 1.03V22h-.7v-5.46h.7zm2.286-1.94V22h-.7v-7.4h.7zm6.27 6.72l1.84-4.78h.74L81.71 22h-.79l-2.19-5.46h.75l1.84 4.78zm5.918.76c-.514 0-.977-.113-1.39-.34a2.584 2.584 0 01-.97-.98c-.234-.427-.35-.923-.35-1.49s.12-1.06.36-1.48c.24-.427.567-.753.98-.98.413-.233.877-.35 1.39-.35.513 0 .977.117 1.39.35.42.227.746.553.98.98.24.42.36.913.36 1.48 0 .56-.12 1.053-.36 1.48-.24.427-.57.757-.99.99a2.9 2.9 0 01-1.4.34zm0-.61c.36 0 .693-.08 1-.24a1.88 1.88 0 00.74-.74c.193-.333.29-.74.29-1.22s-.094-.883-.28-1.21a1.797 1.797 0 00-.74-.74 2.06 2.06 0 00-1-.25c-.36 0-.694.083-1 .25-.307.16-.553.407-.74.74-.18.327-.27.73-.27 1.21s.09.887.27 1.22c.186.327.43.573.73.74.306.16.64.24 1 .24zm6.586-5.03c.653 0 1.186.203 1.6.61.413.4.62.983.62 1.75V22h-.69v-3.12c0-.593-.15-1.047-.45-1.36-.293-.313-.697-.47-1.21-.47-.527 0-.947.167-1.26.5-.314.333-.47.823-.47 1.47V22h-.7v-5.46h.7v.93c.173-.333.423-.587.75-.76.326-.18.697-.27 1.11-.27zM11.92 36.07c-.46 0-.867-.08-1.22-.24a1.992 1.992 0 01-.82-.67 1.76 1.76 0 01-.32-.96h.74c.033.34.183.64.45.9.267.253.657.38 1.17.38.473 0 .847-.12 1.12-.36.28-.247.42-.557.42-.93 0-.3-.077-.54-.23-.72a1.348 1.348 0 00-.57-.41 8.002 8.002 0 00-.94-.3 8.22 8.22 0 01-1.11-.37 1.767 1.767 0 01-.7-.56c-.193-.253-.29-.597-.29-1.03 0-.36.093-.68.28-.96.187-.287.45-.51.79-.67.34-.16.73-.24 1.17-.24.647 0 1.167.16 1.56.48.4.313.63.72.69 1.22h-.76c-.047-.287-.203-.54-.47-.76-.267-.227-.627-.34-1.08-.34-.42 0-.77.113-1.05.34-.28.22-.42.523-.42.91 0 .293.077.53.23.71.153.18.343.317.57.41.233.093.547.193.94.3a7.9 7.9 0 011.1.38c.28.12.517.307.71.56.193.253.29.593.29 1.02a1.8 1.8 0 01-.26.93c-.173.293-.43.53-.77.71-.34.18-.747.27-1.22.27zm4.513-4.94v3.39c0 .333.063.563.19.69.126.127.35.19.67.19h.64v.6h-.75c-.494 0-.86-.113-1.1-.34-.24-.233-.36-.613-.36-1.14v-3.39h-.76v-.59h.76v-1.37h.71v1.37h1.5v.59h-1.5zm5.044 4.95c-.513 0-.977-.113-1.39-.34a2.584 2.584 0 01-.97-.98c-.233-.427-.35-.923-.35-1.49s.12-1.06.36-1.48c.24-.427.567-.753.98-.98.413-.233.877-.35 1.39-.35.513 0 .977.117 1.39.35.42.227.747.553.98.98.24.42.36.913.36 1.48 0 .56-.12 1.053-.36 1.48-.24.427-.57.757-.99.99a2.9 2.9 0 01-1.4.34zm0-.61c.36 0 .693-.08 1-.24a1.88 1.88 0 00.74-.74c.193-.333.29-.74.29-1.22s-.093-.883-.28-1.21a1.798 1.798 0 00-.74-.74 2.06 2.06 0 00-1-.25c-.36 0-.693.083-1 .25-.307.16-.553.407-.74.74-.18.327-.27.73-.27 1.21s.09.887.27 1.22c.187.327.43.573.73.74.307.16.64.24 1 .24zm6.586-5.03c.654 0 1.187.203 1.6.61.413.4.62.983.62 1.75V36h-.69v-3.12c0-.593-.15-1.047-.45-1.36-.293-.313-.697-.47-1.21-.47-.526 0-.947.167-1.26.5-.313.333-.47.823-.47 1.47V36h-.7v-5.46h.7v.93c.174-.333.424-.587.75-.76.327-.18.697-.27 1.11-.27zm8.708 2.55c0 .24-.006.423-.02.55h-4.53c.02.413.12.767.3 1.06.18.293.417.517.71.67.294.147.614.22.96.22.454 0 .834-.11 1.14-.33.314-.22.52-.517.62-.89h.74c-.133.533-.42.97-.86 1.31-.433.333-.98.5-1.64.5-.513 0-.973-.113-1.38-.34a2.512 2.512 0 01-.96-.98c-.226-.427-.34-.923-.34-1.49s.114-1.063.34-1.49c.227-.427.544-.753.95-.98.407-.227.87-.34 1.39-.34.52 0 .974.113 1.36.34.394.227.694.533.9.92.214.38.32.803.32 1.27zm-.71-.02c.007-.407-.076-.753-.25-1.04a1.623 1.623 0 00-.69-.65 2.116 2.116 0 00-.96-.22c-.52 0-.963.167-1.33.5-.366.333-.57.803-.61 1.41h3.84zm4.511-.46l2.12 3.49h-.78l-1.78-2.92-1.69 2.92h-.78l2.11-3.52-2.11-3.47h.78l1.77 2.91 1.71-2.91h.78l-2.13 3.5zm11.574-1.46c-.2-.46-.507-.82-.92-1.08-.407-.267-.887-.4-1.44-.4-.52 0-.987.12-1.4.36-.414.24-.74.583-.98 1.03-.24.44-.36.953-.36 1.54 0 .587.12 1.103.36 1.55.24.447.566.79.98 1.03.413.24.88.36 1.4.36.486 0 .923-.103 1.31-.31.393-.213.706-.513.94-.9.24-.393.376-.85.41-1.37h-2.94v-.57h3.68v.51a3.57 3.57 0 01-.5 1.67 3.336 3.336 0 01-2.9 1.6c-.647 0-1.234-.15-1.76-.45a3.363 3.363 0 01-1.25-1.27c-.3-.547-.45-1.163-.45-1.85s.15-1.3.45-1.84a3.27 3.27 0 011.25-1.27 3.433 3.433 0 011.76-.46c.746 0 1.4.187 1.96.56.56.373.966.893 1.22 1.56h-.82zm3.022.46c.153-.34.387-.603.7-.79.32-.187.71-.28 1.17-.28v.73h-.19c-.507 0-.913.137-1.22.41-.307.273-.46.73-.46 1.37V36h-.7v-5.46h.7v.97zm5.313 4.57c-.513 0-.977-.113-1.39-.34a2.584 2.584 0 01-.97-.98c-.233-.427-.35-.923-.35-1.49s.12-1.06.36-1.48c.24-.427.567-.753.98-.98.413-.233.877-.35 1.39-.35.513 0 .977.117 1.39.35.42.227.747.553.98.98.24.42.36.913.36 1.48 0 .56-.12 1.053-.36 1.48-.24.427-.57.757-.99.99a2.9 2.9 0 01-1.4.34zm0-.61c.36 0 .693-.08 1-.24a1.88 1.88 0 00.74-.74c.193-.333.29-.74.29-1.22s-.093-.883-.28-1.21a1.798 1.798 0 00-.74-.74 2.06 2.06 0 00-1-.25c-.36 0-.693.083-1 .25-.307.16-.553.407-.74.74-.18.327-.27.73-.27 1.21s.09.887.27 1.22c.187.327.43.573.73.74.307.16.64.24 1 .24zm8.756-4.93V36h-.7v-.96c-.16.34-.407.6-.74.78-.333.18-.707.27-1.12.27-.653 0-1.187-.2-1.6-.6-.413-.407-.62-.993-.62-1.76v-3.19h.69v3.11c0 .593.147 1.047.44 1.36.3.313.707.47 1.22.47.527 0 .947-.167 1.26-.5.313-.333.47-.823.47-1.47v-2.97h.7zm2.288 1.2c.173-.367.447-.67.82-.91.38-.247.83-.37 1.35-.37.494 0 .937.117 1.33.35.4.227.71.553.93.98.227.42.34.91.34 1.47 0 .56-.113 1.053-.34 1.48-.22.427-.53.757-.93.99-.393.233-.837.35-1.33.35-.513 0-.96-.12-1.34-.36a2.23 2.23 0 01-.83-.92v3.78h-.69v-8.04h.69v1.2zm4.06 1.52c0-.453-.09-.843-.27-1.17a1.805 1.805 0 00-.72-.76 2.077 2.077 0 00-1.04-.26c-.373 0-.717.09-1.03.27-.306.18-.55.437-.73.77-.18.333-.27.72-.27 1.16 0 .44.09.827.27 1.16.18.333.424.59.73.77.313.18.657.27 1.03.27.387 0 .733-.087 1.04-.26.307-.18.547-.437.72-.77.18-.34.27-.733.27-1.18z" fill="#fff"/></svg>