<svg width="107" height="71" viewBox="0 0 107 71" fill="none" xmlns="http://www.w3.org/2000/svg"><path d="M7.344 1.864H1.2V13h6.144v-1.488h-4.32V8.104h3.84V6.616h-3.84V3.352h4.32V1.864zM9.591 13h1.824V4.184H9.59V13zm.928-9.984a1.15 1.15 0 001.152-1.168A1.15 1.15 0 0010.519.68c-.656 0-1.168.512-1.168 1.168 0 .656.512 1.168 1.168 1.168zM20.065 13h1.808V7.8c0-2.464-1.552-3.76-3.616-3.76-1.056 0-2.032.432-2.624 1.152V4.184H13.81V13h1.824V8.072c0-1.616.88-2.448 2.224-2.448 1.328 0 2.208.832 2.208 2.448V13zm10.711-2.464c-.096-3.184-5.072-2.192-5.072-3.968 0-.592.512-.992 1.488-.992.992 0 1.584.528 1.648 1.296h1.824c-.096-1.76-1.408-2.832-3.408-2.832-2.08 0-3.392 1.136-3.392 2.544 0 3.232 5.12 2.24 5.12 3.968 0 .608-.56 1.056-1.616 1.056-1.008 0-1.696-.592-1.76-1.312H23.72c.08 1.6 1.568 2.848 3.68 2.848 2.08 0 3.376-1.12 3.376-2.608zm2.259.016c0 1.792.976 2.448 2.544 2.448h1.44v-1.52h-1.12c-.768 0-1.024-.272-1.024-.928v-4.88h2.144V4.184h-2.144V1.992h-1.84v2.192h-1.04v1.488h1.04v4.88zM38.7 13h1.824V4.184H38.7V13zm.928-9.984a1.15 1.15 0 001.152-1.168A1.15 1.15 0 0039.628.68c-.656 0-1.168.512-1.168 1.168 0 .656.512 1.168 1.168 1.168zm7.003 2.56c1.36 0 2.432.864 2.464 2.224h-4.88c.192-1.392 1.184-2.224 2.416-2.224zm4.128 4.8H48.79c-.336.688-.96 1.232-2.08 1.232-1.344 0-2.384-.88-2.512-2.336h6.736c.048-.304.064-.592.064-.896 0-2.592-1.776-4.336-4.288-4.336-2.608 0-4.4 1.776-4.4 4.544s1.872 4.56 4.4 4.56c2.16 0 3.552-1.232 4.048-2.768zm1.427-1.824c0 2.72 1.84 4.592 4.16 4.592 1.44 0 2.496-.72 3.056-1.472v1.472c0 1.76-1.056 2.624-2.464 2.624-1.264 0-2.24-.624-2.512-1.536h-1.808c.224 1.952 1.968 3.12 4.32 3.12 2.752 0 4.304-1.808 4.304-4.208v-8.96h-1.84v1.28c-.544-.752-1.616-1.424-3.056-1.424-2.32 0-4.16 1.792-4.16 4.512zm7.216.032c0 1.904-1.296 2.976-2.672 2.976-1.36 0-2.672-1.104-2.672-3.008s1.312-2.928 2.672-2.928c1.376 0 2.672 1.072 2.672 2.96zM67.794 13h1.824V4.184h-1.824V13zm.928-9.984a1.15 1.15 0 001.152-1.168A1.15 1.15 0 0068.722.68c-.656 0-1.168.512-1.168 1.168 0 .656.512 1.168 1.168 1.168zM78.269 13h1.807V7.8c0-2.464-1.551-3.76-3.615-3.76-1.056 0-2.032.432-2.624 1.152V4.184h-1.825V13h1.825V8.072c0-1.616.88-2.448 2.224-2.448 1.327 0 2.207.832 2.207 2.448V13zM.624 22.368H3.6V32h1.824v-9.632h2.96V20.88H.624v1.488zm13.32 2.208c1.36 0 2.431.864 2.463 2.224h-4.88c.192-1.392 1.184-2.224 2.416-2.224zm4.127 4.8h-1.968c-.336.688-.96 1.232-2.08 1.232-1.344 0-2.384-.88-2.512-2.336h6.736c.048-.304.064-.592.064-.896 0-2.592-1.776-4.336-4.288-4.336-2.608 0-4.4 1.776-4.4 4.544s1.872 4.56 4.4 4.56c2.16 0 3.552-1.232 4.048-2.768zm1.427-1.792c0 2.768 1.792 4.56 4.32 4.56 2.16 0 3.568-1.2 4.064-2.928h-1.968c-.336.912-1.008 1.392-2.096 1.392-1.472 0-2.448-1.088-2.448-3.024 0-1.92.976-3.008 2.448-3.008 1.088 0 1.792.544 2.096 1.392h1.968c-.496-1.856-1.904-2.928-4.064-2.928-2.528 0-4.32 1.792-4.32 4.544zM29.7 32h1.824v-4.928c0-1.616.88-2.448 2.224-2.448 1.328 0 2.208.832 2.208 2.448V32h1.808v-5.2c0-2.464-1.536-3.76-3.504-3.76-1.136 0-2.128.432-2.736 1.168V20.16H29.7V32zm16.647 0h1.808v-5.2c0-2.464-1.552-3.76-3.616-3.76-1.056 0-2.032.432-2.624 1.152v-1.008H40.09V32h1.824v-4.928c0-1.616.88-2.448 2.224-2.448 1.328 0 2.208.832 2.208 2.448V32zm12.534-4.416c0-2.768-1.984-4.544-4.496-4.544-2.512 0-4.496 1.776-4.496 4.544s1.904 4.56 4.416 4.56c2.528 0 4.576-1.792 4.576-4.56zm-7.136 0c0-2 1.232-2.96 2.608-2.96 1.36 0 2.656.96 2.656 2.96s-1.344 2.976-2.704 2.976c-1.376 0-2.56-.976-2.56-2.976zM60.685 32h1.823V20.16h-1.824V32zm12.618-4.416c0-2.768-1.984-4.544-4.496-4.544-2.512 0-4.496 1.776-4.496 4.544s1.904 4.56 4.416 4.56c2.528 0 4.576-1.792 4.576-4.56zm-7.136 0c0-2 1.232-2.96 2.608-2.96 1.36 0 2.656.96 2.656 2.96s-1.344 2.976-2.704 2.976c-1.376 0-2.56-.976-2.56-2.976zm8.331-.032c0 2.72 1.84 4.592 4.16 4.592 1.44 0 2.496-.72 3.056-1.472v1.472c0 1.76-1.056 2.624-2.464 2.624-1.264 0-2.24-.624-2.512-1.536H74.93c.224 1.952 1.968 3.12 4.32 3.12 2.752 0 4.304-1.808 4.304-4.208v-8.96h-1.84v1.28c-.544-.752-1.616-1.424-3.056-1.424-2.32 0-4.16 1.792-4.16 4.512zm7.216.032c0 1.904-1.296 2.976-2.672 2.976-1.36 0-2.672-1.104-2.672-3.008s1.312-2.928 2.672-2.928c1.376 0 2.672 1.072 2.672 2.96zM85.95 32h1.824v-8.816H85.95V32zm.928-9.984a1.15 1.15 0 001.152-1.168 1.15 1.15 0 00-1.152-1.168c-.656 0-1.168.512-1.168 1.168 0 .656.512 1.168 1.168 1.168zm7.003 2.56c1.36 0 2.432.864 2.464 2.224h-4.88c.192-1.392 1.184-2.224 2.416-2.224zm4.128 4.8H96.04c-.336.688-.96 1.232-2.08 1.232-1.344 0-2.384-.88-2.512-2.336h6.736c.048-.304.064-.592.064-.896 0-2.592-1.776-4.336-4.288-4.336-2.608 0-4.4 1.776-4.4 4.544s1.872 4.56 4.4 4.56c2.16 0 3.552-1.232 4.048-2.768zm2.227-2.4h6.576V25.44h-6.576v1.536zM2.912 51h1.92l1.776-6.512L8.384 51h1.92l2.736-8.816h-1.792L9.424 49.24l-1.792-7.056H5.728l-1.872 7.088-1.84-7.088H.16L2.912 51zm15.203-7.424c1.36 0 2.432.864 2.464 2.224H15.7c.192-1.392 1.184-2.224 2.416-2.224zm4.128 4.8h-1.968c-.336.688-.96 1.232-2.08 1.232-1.344 0-2.384-.88-2.512-2.336h6.736c.048-.304.064-.592.064-.896 0-2.592-1.776-4.336-4.288-4.336-2.608 0-4.4 1.776-4.4 4.544s1.872 4.56 4.4 4.56c2.16 0 3.552-1.232 4.048-2.768zm3.86-2.016c0-1.872.831-2.432 2.175-2.432h.464V42.04c-1.248 0-2.128.544-2.64 1.424v-1.28h-1.824V51h1.824v-4.64zm4.604 2.192c0 1.792.976 2.448 2.544 2.448h1.44v-1.52h-1.12c-.768 0-1.024-.272-1.024-.928v-4.88h2.144v-1.488h-2.144v-2.192h-1.84v2.192h-1.04v1.488h1.04v4.88zm9.377-4.976c1.36 0 2.432.864 2.464 2.224h-4.88c.192-1.392 1.184-2.224 2.416-2.224zm4.128 4.8h-1.968c-.336.688-.96 1.232-2.08 1.232-1.344 0-2.384-.88-2.512-2.336h6.736c.048-.304.064-.592.064-.896 0-2.592-1.776-4.336-4.288-4.336-2.608 0-4.4 1.776-4.4 4.544s1.872 4.56 4.4 4.56c2.16 0 3.552-1.232 4.048-2.768zm5.583-1.824c0 2.72 1.84 4.592 4.128 4.592 1.472 0 2.528-.704 3.088-1.456V51h1.84v-8.816h-1.84v1.28c-.544-.72-1.568-1.424-3.056-1.424-2.32 0-4.16 1.792-4.16 4.512zm7.216.032c0 1.904-1.296 2.976-2.672 2.976-1.36 0-2.672-1.104-2.672-3.008s1.312-2.928 2.672-2.928c1.376 0 2.672 1.072 2.672 2.96zm6.06-3.088V39.16h-1.824V51h1.824v-1.28c.576.768 1.616 1.424 3.072 1.424 2.32 0 4.144-1.872 4.144-4.592 0-2.72-1.808-4.512-4.144-4.512-1.392 0-2.496.656-3.072 1.456zm5.36 3.056c0 1.904-1.312 3.008-2.688 3.008-1.36 0-2.672-1.072-2.672-2.976 0-1.888 1.312-2.96 2.672-2.96 1.376 0 2.688 1.024 2.688 2.928zm7.544-4.336h1.776c.112-.816.704-1.584 1.984-1.584 1.248 0 1.904.672 1.904 1.68 0 1.248-1.008 1.728-2.656 1.744h-.432v1.504h.416c1.904 0 2.896.528 2.896 2.064 0 1.088-.672 1.92-2.032 1.92-1.376 0-2.176-.832-2.256-1.92h-1.76c.112 2.288 1.824 3.44 4.032 3.44 2.432 0 3.744-1.408 3.744-3.264 0-1.616-.784-2.624-2-2.992v-.064c.912-.304 1.792-1.248 1.792-2.64 0-1.696-1.264-3.04-3.584-3.04-2.128 0-3.696 1.136-3.824 3.152zM3.024 64v-3.632H5.04c1.424 0 2.064.672 2.064 1.824 0 1.12-.64 1.808-2.064 1.808H3.024zm5.952-1.808c0-1.808-1.296-3.312-3.936-3.312H1.2V70h1.824v-4.512H5.04c2.896 0 3.936-1.712 3.936-3.296zM10.716 70h1.824v-3.792L15.804 70h2.464l-4.064-4.4 4.064-4.416H15.74l-3.2 3.856v-6.88h-1.824V70zm9.147-2.448c0 1.792.976 2.448 2.544 2.448h1.44v-1.52h-1.12c-.768 0-1.024-.272-1.024-.928v-4.88h2.144v-1.488h-2.144v-2.192h-1.84v2.192h-1.04v1.488h1.04v4.88zm7.553 1.392a1.15 1.15 0 00-1.152-1.168c-.656 0-1.168.512-1.168 1.168 0 .656.512 1.168 1.168 1.168a1.15 1.15 0 001.152-1.168z" fill="#fff"/></svg>