<svg width="97" height="23" viewBox="0 0 97 23" fill="none" xmlns="http://www.w3.org/2000/svg"><path d="M1.489 5.82c-.313 0-.583-.11-.81-.33-.227-.227-.34-.5-.34-.82 0-.327.113-.6.34-.82.227-.227.497-.34.81-.34.327 0 .6.113.82.34.227.22.34.493.34.82 0 .32-.113.593-.34.82-.22.22-.493.33-.82.33zM14.99 1.01V8h-.7V4.73H10.5V8h-.7V1.01h.7v3.14h3.79V1.01h.7zm1.277 4.25c0-.56.11-1.05.33-1.47.227-.427.537-.753.93-.98.4-.233.85-.35 1.35-.35.52 0 .967.12 1.34.36.38.24.653.547.82.92v-1.2h.7V8h-.7V6.79c-.173.373-.45.683-.83.93-.373.24-.82.36-1.34.36a2.61 2.61 0 01-1.34-.35 2.47 2.47 0 01-.93-.99c-.22-.427-.33-.92-.33-1.48zm4.77.01c0-.44-.09-.827-.27-1.16a1.916 1.916 0 00-.74-.77 1.978 1.978 0 00-1.02-.27c-.387 0-.733.087-1.04.26-.307.173-.55.427-.73.76-.173.327-.26.717-.26 1.17 0 .447.087.84.26 1.18.18.333.423.59.73.77.307.173.653.26 1.04.26.373 0 .713-.09 1.02-.27.313-.18.56-.437.74-.77.18-.333.27-.72.27-1.16zm4.858-2.83c.654 0 1.187.203 1.6.61.413.4.62.983.62 1.75V8h-.69V4.88c0-.593-.15-1.047-.45-1.36-.293-.313-.697-.47-1.21-.47-.527 0-.947.167-1.26.5-.313.333-.47.823-.47 1.47V8h-.7V2.54h.7v.93c.174-.333.424-.587.75-.76.327-.18.697-.27 1.11-.27zm3.448 2.82c0-.56.114-1.05.34-1.47a2.4 2.4 0 01.93-.98c.4-.233.85-.35 1.35-.35.48 0 .914.117 1.3.35.387.233.67.537.85.91V.6h.7V8h-.7V6.78c-.166.38-.44.693-.82.94-.38.24-.826.36-1.34.36-.5 0-.95-.117-1.35-.35a2.469 2.469 0 01-.93-.99c-.22-.427-.33-.92-.33-1.48zm4.77.01c0-.44-.09-.827-.27-1.16a1.916 1.916 0 00-.74-.77 1.978 1.978 0 00-1.02-.27c-.386 0-.733.087-1.04.26-.306.173-.55.427-.73.76-.173.327-.26.717-.26 1.17 0 .447.087.84.26 1.18.18.333.424.59.73.77.307.173.654.26 1.04.26.374 0 .714-.09 1.02-.27.314-.18.56-.437.74-.77.18-.333.27-.72.27-1.16zm7.238-.28c0 .24-.006.423-.02.55h-4.53c.02.413.12.767.3 1.06.18.293.417.517.71.67.294.147.614.22.96.22.454 0 .834-.11 1.14-.33.314-.22.52-.517.62-.89h.74c-.133.533-.42.97-.86 1.31-.433.333-.98.5-1.64.5-.513 0-.973-.113-1.38-.34a2.514 2.514 0 01-.96-.98c-.226-.427-.34-.923-.34-1.49s.114-1.063.34-1.49c.227-.427.544-.753.95-.98.407-.227.87-.34 1.39-.34.52 0 .974.113 1.36.34.394.227.694.533.9.92.214.38.32.803.32 1.27zm-.71-.02c.007-.407-.076-.753-.25-1.04a1.621 1.621 0 00-.69-.65 2.116 2.116 0 00-.96-.22c-.52 0-.963.167-1.33.5-.366.333-.57.803-.61 1.41h3.84zM43.332.6V8h-.7V.6h.7zm10.83 1.84c.64 0 1.16.203 1.56.61.406.4.61.983.61 1.75V8h-.69V4.88c0-.593-.144-1.047-.43-1.36-.287-.313-.677-.47-1.17-.47-.514 0-.924.17-1.23.51-.307.34-.46.833-.46 1.48V8h-.69V4.88c0-.593-.144-1.047-.43-1.36-.287-.313-.68-.47-1.18-.47-.514 0-.924.17-1.23.51-.307.34-.46.833-.46 1.48V8h-.7V2.54h.7v.94c.173-.34.42-.597.74-.77.32-.18.676-.27 1.07-.27.473 0 .886.113 1.24.34.36.227.62.56.78 1 .146-.433.396-.763.75-.99.36-.233.766-.35 1.22-.35zm4.074-.93c-.14 0-.26-.05-.36-.15a.503.503 0 01-.15-.37.47.47 0 01.15-.36c.1-.1.22-.15.36-.15.14 0 .26.05.36.15.1.093.15.213.15.36s-.05.27-.15.37c-.1.1-.22.15-.36.15zm.35 1.03V8h-.7V2.54h.7zm2.495.59v3.39c0 .333.063.563.19.69s.35.19.67.19h.64V8h-.75c-.493 0-.86-.113-1.1-.34-.24-.233-.36-.613-.36-1.14V3.13h-.76v-.59h.76V1.17h.71v1.37h1.5v.59h-1.5zM71.42 4.99c0 .24-.007.423-.02.55h-4.53c.02.413.12.767.3 1.06.18.293.416.517.71.67.293.147.613.22.96.22.453 0 .833-.11 1.14-.33.313-.22.52-.517.62-.89h.74c-.134.533-.42.97-.86 1.31-.434.333-.98.5-1.64.5-.514 0-.974-.113-1.38-.34a2.513 2.513 0 01-.96-.98c-.227-.427-.34-.923-.34-1.49s.113-1.063.34-1.49c.226-.427.543-.753.95-.98.406-.227.87-.34 1.39-.34.52 0 .973.113 1.36.34.393.227.693.533.9.92.213.38.32.803.32 1.27zm-.71-.02c.006-.407-.077-.753-.25-1.04a1.623 1.623 0 00-.69-.65 2.116 2.116 0 00-.96-.22c-.52 0-.964.167-1.33.5-.367.333-.57.803-.61 1.41h3.84zm2.34-3.46c-.14 0-.26-.05-.36-.15a.503.503 0 01-.15-.37.47.47 0 01.15-.36c.1-.1.22-.15.36-.15.14 0 .26.05.36.15.1.093.15.213.15.36s-.05.27-.15.37c-.1.1-.22.15-.36.15zm.35 1.03V8h-.7V2.54h.7zm4.145-.1c.654 0 1.187.203 1.6.61.414.4.62.983.62 1.75V8h-.69V4.88c0-.593-.15-1.047-.45-1.36-.293-.313-.696-.47-1.21-.47-.526 0-.946.167-1.26.5-.313.333-.47.823-.47 1.47V8h-.7V2.54h.7v.93c.174-.333.424-.587.75-.76.327-.18.697-.27 1.11-.27zm8.709 2.55c0 .24-.007.423-.02.55h-4.53c.02.413.12.767.3 1.06.18.293.416.517.71.67.293.147.613.22.96.22.453 0 .833-.11 1.14-.33.313-.22.52-.517.62-.89h.74c-.134.533-.42.97-.86 1.31-.434.333-.98.5-1.64.5-.514 0-.974-.113-1.38-.34a2.513 2.513 0 01-.96-.98c-.227-.427-.34-.923-.34-1.49s.113-1.063.34-1.49c.226-.427.543-.753.95-.98.406-.227.87-.34 1.39-.34.52 0 .973.113 1.36.34.393.227.693.533.9.92.213.38.32.803.32 1.27zm-.71-.02c.006-.407-.077-.753-.25-1.04a1.623 1.623 0 00-.69-.65 2.117 2.117 0 00-.96-.22c-.52 0-.964.167-1.33.5-.367.333-.57.803-.61 1.41h3.84zm8.49-2.53c.64 0 1.16.203 1.56.61.407.4.61.983.61 1.75V8h-.69V4.88c0-.593-.143-1.047-.43-1.36-.286-.313-.676-.47-1.17-.47-.513 0-.923.17-1.23.51-.306.34-.46.833-.46 1.48V8h-.69V4.88c0-.593-.143-1.047-.43-1.36-.286-.313-.68-.47-1.18-.47-.513 0-.923.17-1.23.51-.306.34-.46.833-.46 1.48V8h-.7V2.54h.7v.94c.174-.34.42-.597.74-.77.32-.18.677-.27 1.07-.27.474 0 .887.113 1.24.34.36.227.62.56.78 1 .147-.433.397-.763.75-.99.36-.233.767-.35 1.22-.35zM13.89 15.01v.58h-1.94V22h-.7v-6.41H9.3v-.58h4.59zm.785 4.25c0-.56.11-1.05.33-1.47.227-.427.537-.753.93-.98.4-.233.85-.35 1.35-.35.52 0 .967.12 1.34.36.38.24.654.547.82.92v-1.2h.7V22h-.7v-1.21c-.173.373-.45.683-.83.93-.373.24-.82.36-1.34.36a2.61 2.61 0 01-1.34-.35 2.47 2.47 0 01-.93-.99c-.22-.427-.33-.92-.33-1.48zm4.77.01c0-.44-.09-.827-.27-1.16a1.917 1.917 0 00-.74-.77 1.978 1.978 0 00-1.02-.27c-.386 0-.733.087-1.04.26-.306.173-.55.427-.73.76-.173.327-.26.717-.26 1.17 0 .447.087.84.26 1.18.18.333.424.59.73.77.307.173.654.26 1.04.26.374 0 .714-.09 1.02-.27.314-.18.56-.437.74-.77.18-.333.27-.72.27-1.16zm4.178 2.81c-.626 0-1.14-.143-1.54-.43a1.605 1.605 0 01-.66-1.19h.72c.034.307.177.557.43.75.26.187.607.28 1.04.28.38 0 .677-.09.89-.27.22-.18.33-.403.33-.67 0-.187-.06-.34-.18-.46a1.22 1.22 0 00-.46-.28 5.947 5.947 0 00-.74-.23 7.572 7.572 0 01-.99-.32 1.752 1.752 0 01-.65-.47c-.173-.213-.26-.497-.26-.85 0-.267.08-.513.24-.74.16-.227.387-.407.68-.54.294-.133.627-.2 1-.2.587 0 1.06.15 1.42.45.36.293.554.7.58 1.22h-.7a1.04 1.04 0 00-.38-.77c-.226-.2-.54-.3-.94-.3-.353 0-.64.083-.86.25-.22.167-.33.373-.33.62 0 .213.064.39.19.53.134.133.297.24.49.32.194.073.454.157.78.25.394.107.707.21.94.31.234.1.434.247.6.44.167.193.254.45.26.77 0 .293-.08.557-.24.79-.16.227-.383.407-.67.54-.286.133-.616.2-.99.2zm4.128-4.95v3.39c0 .333.063.563.19.69s.35.19.67.19h.64v.6h-.75c-.493 0-.86-.113-1.1-.34-.24-.233-.36-.613-.36-1.14v-3.39h-.76v-.59h.76v-1.37h.71v1.37h1.5v.59h-1.5zm7.595 1.86c0 .24-.007.423-.02.55h-4.53c.02.413.12.767.3 1.06.18.293.416.517.71.67.293.147.613.22.96.22.453 0 .833-.11 1.14-.33.313-.22.52-.517.62-.89h.74c-.134.533-.42.97-.86 1.31-.434.333-.98.5-1.64.5-.514 0-.974-.113-1.38-.34a2.512 2.512 0 01-.96-.98c-.227-.427-.34-.923-.34-1.49s.113-1.063.34-1.49c.226-.427.543-.753.95-.98.406-.227.87-.34 1.39-.34.52 0 .973.113 1.36.34.393.227.693.533.9.92.213.38.32.803.32 1.27zm-.71-.02c.006-.407-.077-.753-.25-1.04a1.623 1.623 0 00-.69-.65 2.116 2.116 0 00-.96-.22c-.52 0-.964.167-1.33.5-.367.333-.57.803-.61 1.41h3.84zm4.55-2.53c.654 0 1.187.203 1.6.61.413.4.62.983.62 1.75V22h-.69v-3.12c0-.593-.15-1.047-.45-1.36-.293-.313-.697-.47-1.21-.47-.526 0-.947.167-1.26.5-.313.333-.47.823-.47 1.47V22h-.7v-5.46h.7v.93c.173-.333.423-.587.75-.76.327-.18.697-.27 1.11-.27zm3.448 2.82c0-.56.114-1.05.34-1.47.227-.427.537-.753.93-.98.4-.233.85-.35 1.35-.35.48 0 .914.117 1.3.35.387.233.67.537.85.91V14.6h.7V22h-.7v-1.22c-.166.38-.44.693-.82.94-.38.24-.826.36-1.34.36-.5 0-.95-.117-1.35-.35a2.47 2.47 0 01-.93-.99c-.22-.427-.33-.92-.33-1.48zm4.77.01c0-.44-.09-.827-.27-1.16a1.917 1.917 0 00-.74-.77 1.978 1.978 0 00-1.02-.27c-.386 0-.733.087-1.04.26-.306.173-.55.427-.73.76-.173.327-.26.717-.26 1.17 0 .447.087.84.26 1.18.18.333.424.59.73.77.307.173.654.26 1.04.26.374 0 .714-.09 1.02-.27.314-.18.56-.437.74-.77.18-.333.27-.72.27-1.16zm2.998-1.76a1.72 1.72 0 01.7-.79c.32-.187.71-.28 1.17-.28v.73h-.19c-.506 0-.913.137-1.22.41-.306.273-.46.73-.46 1.37V22h-.7v-5.46h.7v.97zm7.653-.97V22h-.7v-.96c-.16.34-.406.6-.74.78-.333.18-.706.27-1.12.27-.653 0-1.186-.2-1.6-.6-.413-.407-.62-.993-.62-1.76v-3.19h.69v3.11c0 .593.147 1.047.44 1.36.3.313.707.47 1.22.47.527 0 .947-.167 1.26-.5.314-.333.47-.823.47-1.47v-2.97h.7zm1.279 2.73c0-.567.113-1.06.34-1.48.226-.427.54-.753.94-.98.4-.233.856-.35 1.37-.35.673 0 1.226.167 1.66.5.44.333.723.787.85 1.36h-.75a1.507 1.507 0 00-.61-.92c-.307-.227-.69-.34-1.15-.34-.367 0-.697.083-.99.25a1.778 1.778 0 00-.7.75c-.167.327-.25.73-.25 1.21s.083.887.25 1.22c.173.333.406.583.7.75.293.167.623.25.99.25.46 0 .843-.11 1.15-.33.313-.227.516-.54.61-.94h.75a2.29 2.29 0 01-.85 1.35c-.44.34-.994.51-1.66.51a2.73 2.73 0 01-1.37-.34c-.4-.233-.714-.56-.94-.98-.227-.427-.34-.923-.34-1.49zM68.736 22l-2.25-2.45V22h-.7v-7.4h.7v4.38l2.2-2.44h.98l-2.59 2.72 2.61 2.74h-.95z" fill="#fff"/></svg>