<svg width="167" height="15" viewBox="0 0 167 15" fill="none" xmlns="http://www.w3.org/2000/svg"><path d="M.24 4.324h2.592V11.5h1.38V4.324h2.592V3.1H.24v1.224zm12.14 6.048c-.263 0-.395-.084-.395-.396v-2.46c0-1.452-.936-2.232-2.568-2.232-1.548 0-2.58.744-2.712 1.944h1.272c.096-.54.612-.9 1.38-.9.852 0 1.344.42 1.344 1.104v.372H9.153c-1.716 0-2.628.708-2.628 1.968 0 1.14.936 1.8 2.28 1.8.996 0 1.62-.432 2.028-1.056 0 .612.288.984 1.128.984h.684v-1.128h-.264zM10.7 8.98c-.011.948-.635 1.584-1.715 1.584-.708 0-1.14-.36-1.14-.876 0-.624.444-.924 1.248-.924H10.7v.216zm2.65 2.52h1.297V9.94l1.104-1.152 1.812 2.712h1.536l-2.46-3.66 2.316-2.484H17.43l-2.784 2.976V3.1H13.35v8.4zm8.905.072c1.524 0 2.556-.924 2.772-2.136h-1.296c-.18.684-.756 1.08-1.548 1.08-1.02 0-1.68-.684-1.716-1.728v-.084H25.1a3.52 3.52 0 00.036-.492c-.036-1.8-1.224-2.928-3-2.928-1.812 0-3.024 1.26-3.024 3.156 0 1.884 1.212 3.132 3.144 3.132zm-1.74-3.816c.096-.876.804-1.428 1.632-1.428.9 0 1.536.516 1.644 1.428h-3.276zm14.354 2.616c-.264 0-.396-.084-.396-.396v-2.46c0-1.452-.936-2.232-2.568-2.232-1.548 0-2.58.744-2.712 1.944h1.272c.096-.54.612-.9 1.38-.9.852 0 1.344.42 1.344 1.104v.372h-1.548c-1.716 0-2.628.708-2.628 1.968 0 1.14.936 1.8 2.28 1.8.996 0 1.62-.432 2.028-1.056 0 .612.288.984 1.128.984h.684v-1.128h-.264zM33.19 8.98c-.012.948-.636 1.584-1.716 1.584-.708 0-1.14-.36-1.14-.876 0-.624.444-.924 1.248-.924h1.608v.216zm9.008-3.696c-.96 0-1.596.444-2.004.984l-.156-.912H38.91V13.9h1.296v-3.264c.384.552 1.044.936 1.992.936 1.68 0 2.904-1.248 2.904-3.144 0-1.968-1.224-3.144-2.904-3.144zm-.216 5.196c-1.08 0-1.788-.852-1.788-2.076 0-1.188.708-2.016 1.788-2.016s1.8.828 1.8 2.04c0 1.2-.72 2.052-1.8 2.052zm7.063 1.092c1.872 0 3.132-1.26 3.132-3.144 0-1.872-1.26-3.144-3.132-3.144s-3.132 1.272-3.132 3.144c0 1.884 1.26 3.144 3.132 3.144zm0-1.104c-1.092 0-1.8-.852-1.8-2.04 0-1.188.708-2.04 1.8-2.04s1.812.852 1.812 2.04c0 1.188-.72 2.04-1.812 2.04zm3.875-.996c.036 1.332 1.164 2.1 2.808 2.1 1.488 0 2.604-.744 2.604-1.92 0-1.368-1.14-1.656-2.544-1.824-.888-.096-1.476-.168-1.476-.744 0-.492.504-.804 1.272-.804s1.296.396 1.368.96h1.272c-.084-1.26-1.152-1.956-2.664-1.956-1.476-.012-2.52.744-2.52 1.908 0 1.272 1.104 1.572 2.508 1.74.948.12 1.512.168 1.512.828 0 .492-.528.804-1.332.804-.936 0-1.488-.456-1.536-1.092h-1.272zm7.076-4.98c.444 0 .792-.324.792-.78s-.348-.78-.792-.78c-.444 0-.792.324-.792.78s.348.78.792.78zm-.66 7.008h1.296V5.356h-1.296V11.5zm3.01-1.668c0 1.116.505 1.668 1.68 1.668h1.2v-1.14h-.911c-.492 0-.66-.18-.66-.66V6.496h1.5v-1.14h-1.5V3.64h-1.308v1.716h-1.068v1.14h1.068v3.336zm4.365-5.34c.444 0 .792-.324.792-.78s-.348-.78-.792-.78c-.444 0-.792.324-.792.78s.348.78.792.78zm-.66 7.008h1.296V5.356H66.05V11.5zm5.47.072c1.873 0 3.133-1.26 3.133-3.144 0-1.872-1.26-3.144-3.133-3.144-1.871 0-3.132 1.272-3.132 3.144 0 1.884 1.26 3.144 3.132 3.144zm0-1.104c-1.091 0-1.8-.852-1.8-2.04 0-1.188.709-2.04 1.8-2.04 1.093 0 1.813.852 1.813 2.04 0 1.188-.72 2.04-1.813 2.04zm7.415-5.184c-.996 0-1.584.396-1.968.876l-.144-.804h-1.128V11.5h1.296V8.404c0-1.248.612-2.004 1.644-2.004.972 0 1.464.624 1.464 1.788V11.5h1.308V8.08c0-2.052-1.116-2.796-2.472-2.796z" fill="url(#paint0_linear_42_850)"/><path d="M89.588 11.5h1.086l1.04-3.231 1.003 3.231h1.077l1.578-4.754h-1.021l-1.123 3.64-1.04-3.64h-.92l-1.086 3.64-1.086-3.64h-1.059l1.55 4.754zm8.81-4.81c-.743 0-1.198.335-1.495.743V5H95.9v6.5h1.003V9.095c0-.956.483-1.541 1.272-1.541.743 0 1.142.483 1.142 1.383V11.5h1.003V8.854c0-1.588-.863-2.164-1.922-2.164zm5.054 4.866c1.179 0 1.978-.715 2.145-1.653h-1.003c-.139.53-.585.836-1.198.836-.789 0-1.3-.53-1.327-1.337v-.065h3.584c.018-.13.027-.26.027-.381-.027-1.393-.947-2.266-2.321-2.266-1.402 0-2.34.975-2.34 2.442 0 1.458.938 2.424 2.433 2.424zm-1.346-2.953c.074-.678.622-1.105 1.262-1.105.697 0 1.189.4 1.273 1.105h-2.535zm6.892-1.913c-.771 0-1.225.307-1.523.678l-.111-.622h-.873V11.5h1.003V9.104c0-.965.474-1.55 1.272-1.55.752 0 1.133.483 1.133 1.383V11.5h1.012V8.854c0-1.588-.864-2.164-1.913-2.164zm7.448 4.866c1.448 0 2.423-.975 2.423-2.433 0-1.448-.975-2.433-2.423-2.433-1.449 0-2.424.985-2.424 2.433 0 1.458.975 2.433 2.424 2.433zm0-.854c-.845 0-1.393-.66-1.393-1.579 0-.92.548-1.578 1.393-1.578s1.402.659 1.402 1.578c0 .92-.557 1.579-1.402 1.579zm3.537-.493c0 .864.39 1.291 1.3 1.291h.928v-.882h-.706c-.38 0-.51-.14-.51-.51v-2.48h1.16v-.882h-1.16V5.418h-1.012v1.328h-.827v.882h.827v2.581zm5.364-3.519c-.743 0-1.198.335-1.495.743V5h-1.003v6.5h1.003V9.095c0-.956.483-1.541 1.272-1.541.743 0 1.142.483 1.142 1.383V11.5h1.003V8.854c0-1.588-.864-2.164-1.922-2.164zm5.054 4.866c1.179 0 1.977-.715 2.145-1.653h-1.003c-.139.53-.585.836-1.198.836-.789 0-1.3-.53-1.328-1.337v-.065h3.584c.019-.13.028-.26.028-.381-.028-1.393-.947-2.266-2.321-2.266-1.402 0-2.34.975-2.34 2.442 0 1.458.938 2.424 2.433 2.424zm-1.347-2.953c.075-.678.622-1.105 1.263-1.105.697 0 1.189.4 1.272 1.105h-2.535zm6.791-1.857c-.78 0-1.161.316-1.402.715l-.112-.715h-.891V11.5h1.003V9.114c0-.734.288-1.43 1.179-1.43h.446v-.938h-.223zm.555 3.185c.028 1.03.901 1.625 2.173 1.625 1.151 0 2.015-.576 2.015-1.486 0-1.058-.882-1.281-1.969-1.411-.687-.075-1.142-.13-1.142-.576 0-.38.39-.622.984-.622.595 0 1.003.306 1.059.743h.984c-.065-.975-.891-1.514-2.061-1.514-1.142-.009-1.95.576-1.95 1.477 0 .984.854 1.216 1.941 1.346.733.093 1.17.13 1.17.64 0 .381-.409.623-1.031.623-.724 0-1.151-.353-1.189-.845h-.984zm9.523 1.625c1.216 0 2.024-.678 2.209-1.755h-1.058c-.121.548-.529.9-1.142.9-.808 0-1.337-.64-1.337-1.569 0-.938.529-1.587 1.337-1.587.622 0 1.021.343 1.151.9h1.049c-.195-1.077-.956-1.755-2.182-1.755-1.439 0-2.386.975-2.386 2.442 0 1.486.919 2.424 2.359 2.424zm7.322-.929c-.204 0-.306-.065-.306-.306V8.417c0-1.123-.724-1.727-1.987-1.727-1.198 0-1.996.576-2.098 1.504h.984c.074-.417.473-.696 1.068-.696.659 0 1.04.325 1.04.854v.288h-1.198c-1.328 0-2.034.548-2.034 1.523 0 .882.725 1.393 1.764 1.393.771 0 1.254-.335 1.57-.817 0 .473.223.761.872.761h.53v-.873h-.205zm-1.299-1.077c-.01.734-.493 1.226-1.328 1.226-.548 0-.882-.279-.882-.678 0-.483.343-.715.965-.715h1.245v.167zm4.557-2.86c-.771 0-1.226.307-1.523.678l-.111-.622h-.873V11.5h1.003V9.104c0-.965.473-1.55 1.272-1.55.752 0 1.133.483 1.133 1.383V11.5h1.012V8.854c0-1.588-.864-2.164-1.913-2.164zm3.062-1.745c-.427 0-.705.278-.705.631 0 .39.241.594.547.594a.508.508 0 00.307-.102c.009.047.009.084.009.13 0 .325-.232.687-.817.687v.548c.919-.01 1.495-.52 1.495-1.42 0-.604-.325-1.068-.836-1.068zm2.137 5.264c0 .864.39 1.291 1.3 1.291h.929v-.882h-.706c-.381 0-.511-.14-.511-.51v-2.48h1.161v-.882h-1.161V5.418h-1.012v1.328h-.826v.882h.826v2.581zm2.828.715c0 .372.27.632.641.632s.65-.26.65-.632c0-.371-.279-.631-.65-.631s-.641.26-.641.631z" fill="#000"/><defs><linearGradient id="paint0_linear_42_850" x1="82" y1="7.5" x2="0" y2="7.5" gradientUnits="userSpaceOnUse"><stop stop-color="#FF4343"/><stop offset=".5" stop-color="#9C0B93"/><stop offset="1" stop-color="#4C1BB7"/></linearGradient></defs></svg>