<svg width="188" height="29" viewBox="0 0 188 29" fill="none" xmlns="http://www.w3.org/2000/svg"><path d="M22.489 7.23V.808H.715v26.6h22.002v-6.422H7.859v-3.99h13.604v-6.08H7.859V7.23h14.63zM51.199.808h-7.182V15.21c0 4.256-1.938 6.042-5.054 6.042-3.078 0-5.016-1.786-5.054-6.042V.846h-7.144V15.21c0 8.702 4.712 12.578 12.198 12.578 7.486 0 12.236-3.876 12.236-12.578V.808zm5.217.038v26.562h7.144v-8.094h4.256l5.168 8.094h8.246l-5.966-9.044c3.686-1.254 5.244-3.952 5.244-8.284 0-6.498-3.458-9.234-12.122-9.234h-11.97zm7.144 6.422h5.168c3.154 0 4.332.988 4.332 3.268 0 2.318-1.178 3.268-4.332 3.268H63.56V7.268zm25.348 20.786l13.3-27.892L96.28.2l-13.3 27.854h5.928zM130.168.808h-7.182V15.21c0 4.256-1.938 6.042-5.054 6.042-3.078 0-5.016-1.786-5.054-6.042V.846h-7.144V15.21c0 8.702 4.712 12.578 12.198 12.578 7.486 0 12.236-3.876 12.236-12.578V.808zm16.047-.38c-6.194.038-11.058 2.736-11.058 8.702 0 5.206 4.332 6.612 10.374 8.056 4.37 1.102 5.13 1.254 5.13 2.774 0 1.216-1.292 1.748-2.774 1.748-3.382 0-7.22-.988-10.678-2.926l-3.192 5.32c3.648 2.432 8.132 3.724 13.072 3.724 6.84 0 11.134-3.116 11.134-8.778 0-5.434-4.446-6.954-10.678-8.626-4.142-1.026-4.636-1.368-4.636-2.204 0-1.216 1.178-1.748 2.546-1.748 2.622 0 6.194.912 9.234 2.47l3.002-5.51c-3.116-1.9-7.22-3.002-11.476-3.002zm16.111.418v26.562h11.4c7.866 0 14.25-5.738 14.25-13.262 0-7.562-6.384-13.338-14.25-13.338l-11.4.038zm7.144 6.384h3.99c3.952 0 7.182 2.964 7.182 6.878 0 3.952-3.23 6.916-7.182 6.916h-3.99V7.23z" fill="#09B45B"/></svg>