<svg width="129" height="22" viewBox="0 0 129 22" fill="none" xmlns="http://www.w3.org/2000/svg"><path d="M6.195 21.375V.405H.555v20.97h5.64zm23.821 0v-21h-5.55v11.73L16.006.375h-5.85v21h5.55v-11.7l8.46 11.7h5.85zm3.96-20.97v20.97h9c6.21 0 11.25-4.53 11.25-10.47 0-5.97-5.04-10.53-11.25-10.53l-9 .03zm5.64 5.04h3.15c3.12 0 5.67 2.34 5.67 5.43 0 3.12-2.55 5.46-5.67 5.46h-3.15V5.445zm23.814 15.93V.405h-5.64v20.97h5.64zM78.072.105c-6.12 0-11.07 4.83-11.07 10.8 0 5.94 4.95 10.77 11.07 10.77 3.75 0 7.05-1.8 9.03-4.59l-4.89-2.76a5.015 5.015 0 01-4.11 2.07c-3.06 0-5.19-2.46-5.19-5.49 0-3.06 2.13-5.52 5.19-5.52 1.74 0 3.18.81 4.11 2.07l4.89-2.76c-1.98-2.79-5.28-4.59-9.03-4.59zm29.303 5.34V.375h-17.19v21h17.37v-5.07h-11.73v-3.15h10.74v-4.8h-10.74v-2.91h11.55zm11.777-5.37c-4.89.03-8.73 2.16-8.73 6.87 0 4.11 3.42 5.22 8.19 6.36 3.45.87 4.05.99 4.05 2.19 0 .96-1.02 1.38-2.19 1.38-2.67 0-5.7-.78-8.43-2.31l-2.52 4.2c2.88 1.92 6.42 2.94 10.32 2.94 5.4 0 8.79-2.46 8.79-6.93 0-4.29-3.51-5.49-8.43-6.81-3.27-.81-3.66-1.08-3.66-1.74 0-.96.93-1.38 2.01-1.38 2.07 0 4.89.72 7.29 1.95l2.37-4.35c-2.46-1.5-5.7-2.37-9.06-2.37z" fill="#09B45B"/></svg>