<svg width="368" height="21" viewBox="0 0 368 21" fill="none" xmlns="http://www.w3.org/2000/svg"><path d="M2.794 18l1.43-3.806h6.314L11.99 18h2.706L8.954 2.6H5.94L.176 18h2.618zM7.37 5.328l2.464 6.71H4.928l2.442-6.71zM21.904 18h2.53v-4.07l2.662-2.992L31.936 18h3.058l-6.072-8.932L34.576 2.6h-3.08l-7.062 7.942V2.6h-2.53V18zM42.083 6.604c-1.826 0-2.904.726-3.608 1.606l-.264-1.474h-2.068V18h2.376v-5.676c0-2.288 1.122-3.674 3.014-3.674 1.782 0 2.684 1.144 2.684 3.278V18h2.398v-6.27c0-3.762-2.046-5.126-4.532-5.126zm11.93 11.528c3.432 0 5.742-2.31 5.742-5.764 0-3.432-2.31-5.764-5.742-5.764s-5.742 2.332-5.742 5.764c0 3.454 2.31 5.764 5.742 5.764zm0-2.024c-2.002 0-3.3-1.562-3.3-3.74s1.298-3.74 3.3-3.74 3.322 1.562 3.322 3.74-1.32 3.74-3.322 3.74zm12.823 2.024c2.882 0 4.796-1.606 5.236-4.158h-2.508c-.286 1.298-1.254 2.134-2.706 2.134-1.914 0-3.168-1.518-3.168-3.718 0-2.222 1.254-3.762 3.168-3.762 1.474 0 2.42.814 2.728 2.134h2.486c-.462-2.552-2.266-4.158-5.17-4.158-3.41 0-5.654 2.31-5.654 5.786 0 3.52 2.178 5.742 5.588 5.742zM73.891 18h2.376v-2.86l2.024-2.112L81.613 18h2.816l-4.51-6.71 4.246-4.554H81.37l-5.104 5.456V2.6H73.89V18zm16.302.132c3.432 0 5.742-2.31 5.742-5.764 0-3.432-2.31-5.764-5.742-5.764s-5.742 2.332-5.742 5.764c0 3.454 2.31 5.764 5.742 5.764zm0-2.024c-2.002 0-3.3-1.562-3.3-3.74s1.298-3.74 3.3-3.74 3.322 1.562 3.322 3.74-1.32 3.74-3.322 3.74zm15.375-3.74c0 2.332-1.1 3.696-2.904 3.696-1.738 0-2.618-1.122-2.618-3.322V6.736H97.67v6.27c0 3.85 2.046 5.126 4.444 5.126 1.738 0 2.772-.704 3.476-1.562l.264 1.43h2.09V6.736h-2.376v5.632zm5.596 2.574c0 2.046.924 3.058 3.08 3.058h2.2v-2.09h-1.672c-.902 0-1.21-.33-1.21-1.21V8.826h2.75v-2.09h-2.75V3.59h-2.398v3.146h-1.958v2.09h1.958v6.116zm27.028-4.642c0-4.51-3.058-7.832-7.48-7.832-4.422 0-7.48 3.322-7.48 7.832s3.058 7.832 7.48 7.832c4.422 0 7.48-3.322 7.48-7.832zm-12.364 0c0-3.256 1.958-5.61 4.884-5.61s4.884 2.354 4.884 5.61c0 3.256-1.958 5.61-4.884 5.61s-4.884-2.354-4.884-5.61zm27.102-5.61V2.6h-2.266c-2.178 0-3.146 1.034-3.146 3.014v1.122h-4.136V5.79c0-.77.308-1.1 1.078-1.1h1.672V2.6h-2.002c-2.178 0-3.146 1.034-3.146 3.014v1.122h-1.958v2.09h1.958V18h2.398V8.826h4.136V18h2.376V8.826h3.036v-2.09h-3.036V5.79c0-.77.33-1.1 1.1-1.1h1.936zm6.121 13.442c2.794 0 4.686-1.694 5.082-3.916h-2.376c-.33 1.254-1.386 1.98-2.838 1.98-1.87 0-3.08-1.254-3.146-3.168v-.154h8.492c.044-.308.066-.616.066-.902-.066-3.3-2.244-5.368-5.5-5.368-3.322 0-5.544 2.31-5.544 5.786 0 3.454 2.222 5.742 5.764 5.742zm-3.19-6.996c.176-1.606 1.474-2.618 2.992-2.618 1.65 0 2.816.946 3.014 2.618h-6.006zm16.089-4.4c-1.848 0-2.75.748-3.322 1.694l-.264-1.694h-2.112V18h2.376v-5.654c0-1.738.682-3.388 2.794-3.388h1.056V6.736h-.528zm1.773 1.914c0 .88.638 1.496 1.518 1.496s1.54-.616 1.54-1.496-.66-1.496-1.54-1.496-1.518.616-1.518 1.496zm0 7.986c0 .88.638 1.496 1.518 1.496s1.54-.616 1.54-1.496-.66-1.496-1.54-1.496-1.518.616-1.518 1.496zm17.303-7.502c-2.42-.418-4.004-.748-4.004-2.332 0-1.452 1.21-2.2 2.948-2.2 1.87 0 3.102 1.056 3.3 2.618h2.53c-.088-2.486-1.782-4.246-4.554-4.664V.224h-2.134v2.288c-2.794.286-4.62 2.024-4.62 4.466 0 3.058 2.42 3.872 4.972 4.312 2.442.44 4.048.792 4.048 2.42 0 1.474-1.32 2.288-3.146 2.288-2.156 0-3.564-1.21-3.696-3.014l-2.552-.044c.088 2.728 1.914 4.708 4.994 5.104v2.31h2.134v-2.266c2.882-.308 4.796-2.134 4.796-4.642.022-3.036-2.464-3.85-5.016-4.312zM197.345 18h10.912v-2.134h-7.458l4.092-3.41c1.87-1.562 3.256-2.992 3.256-5.28 0-2.816-1.936-4.708-5.39-4.708-3.278 0-5.39 2.134-5.39 5.06v.396h2.442V7.66c0-1.914 1.188-3.102 2.948-3.102s2.926.968 2.926 2.728c0 1.474-1.034 2.552-2.42 3.718l-5.918 5.038V18zm12.406-7.348c0 4.642 2.486 7.48 6.072 7.48s6.072-2.838 6.072-7.48v-.704c0-4.466-2.486-7.48-6.072-7.48s-6.072 3.014-6.072 7.48v.704zm9.68-.088c0 3.454-1.452 5.434-3.608 5.434s-3.608-1.98-3.608-5.434v-.528c0-3.432 1.452-5.434 3.608-5.434s3.608 2.002 3.608 5.434v.528zm4.177.088c0 4.642 2.486 7.48 6.072 7.48s6.072-2.838 6.072-7.48v-.704c0-4.466-2.486-7.48-6.072-7.48s-6.072 3.014-6.072 7.48v.704zm9.68-.088c0 3.454-1.452 5.434-3.608 5.434s-3.608-1.98-3.608-5.434v-.528c0-3.432 1.452-5.434 3.608-5.434s3.608 2.002 3.608 5.434v.528zm9.388-5.72h4.752V18h2.53V4.844h4.752V2.6h-12.034v2.244zm18.284 1.892c-1.848 0-2.75.748-3.322 1.694l-.264-1.694h-2.112V18h2.376v-5.654c0-1.738.682-3.388 2.794-3.388h1.056V6.736h-.528zm11.945 9.196c-.484 0-.726-.154-.726-.726v-4.51c0-2.662-1.716-4.092-4.708-4.092-2.838 0-4.73 1.364-4.972 3.564h2.332c.176-.99 1.122-1.65 2.53-1.65 1.562 0 2.464.77 2.464 2.024v.682h-2.838c-3.146 0-4.818 1.298-4.818 3.608 0 2.09 1.716 3.3 4.18 3.3 1.826 0 2.97-.792 3.718-1.936 0 1.122.528 1.804 2.068 1.804h1.254v-2.068h-.484zm-3.08-2.552c-.022 1.738-1.166 2.904-3.146 2.904-1.298 0-2.09-.66-2.09-1.606 0-1.144.814-1.694 2.288-1.694h2.948v.396zm13.331-5.082c-.726-.99-1.936-1.694-3.652-1.694-3.058 0-5.324 2.288-5.324 5.764 0 3.608 2.266 5.764 5.324 5.764 1.782 0 2.948-.836 3.674-1.826l.286 1.694h2.068V2.6h-2.376v5.698zM279.9 16.13c-1.98 0-3.278-1.54-3.278-3.762 0-2.2 1.298-3.74 3.278-3.74s3.278 1.54 3.278 3.784c0 2.178-1.298 3.718-3.278 3.718zm13.3 2.002c2.794 0 4.686-1.694 5.082-3.916h-2.376c-.33 1.254-1.386 1.98-2.838 1.98-1.87 0-3.08-1.254-3.147-3.168v-.154h8.493c.044-.308.066-.616.066-.902-.066-3.3-2.244-5.368-5.5-5.368-3.322 0-5.544 2.31-5.544 5.786 0 3.454 2.222 5.742 5.764 5.742zm-3.19-6.996c.176-1.606 1.474-2.618 2.992-2.618 1.65 0 2.816.946 3.014 2.618h-6.006zM306.271 18h5.852c3.718 0 5.72-1.672 5.72-4.4 0-2.2-1.408-3.278-3.234-3.564 1.606-.44 2.64-1.54 2.64-3.366 0-2.53-1.936-4.07-5.324-4.07h-5.654V18zm5.72-13.288c1.76 0 2.728.836 2.728 2.2 0 1.386-.99 2.222-2.728 2.222h-3.19V4.712h3.19zm.154 6.512c1.958 0 3.102.836 3.102 2.354 0 1.43-1.078 2.288-3.102 2.288h-3.344v-4.642h3.344zm13.001 6.908c3.432 0 5.742-2.31 5.742-5.764 0-3.432-2.31-5.764-5.742-5.764s-5.742 2.332-5.742 5.764c0 3.454 2.31 5.764 5.742 5.764zm0-2.024c-2.002 0-3.3-1.562-3.3-3.74s1.298-3.74 3.3-3.74 3.322 1.562 3.322 3.74-1.32 3.74-3.322 3.74zm13.593-9.504c-1.826 0-2.904.726-3.608 1.606l-.264-1.474h-2.068V18h2.376v-5.676c0-2.288 1.122-3.674 3.014-3.674 1.782 0 2.684 1.144 2.684 3.278V18h2.398v-6.27c0-3.762-2.046-5.126-4.532-5.126zm14.415 5.764c0 2.332-1.1 3.696-2.904 3.696-1.738 0-2.618-1.122-2.618-3.322V6.736h-2.376v6.27c0 3.85 2.046 5.126 4.444 5.126 1.738 0 2.772-.704 3.476-1.562l.264 1.43h2.09V6.736h-2.376v5.632zm4.233 1.914c.066 2.442 2.134 3.85 5.148 3.85 2.728 0 4.774-1.364 4.774-3.52 0-2.508-2.09-3.036-4.664-3.344-1.628-.176-2.706-.308-2.706-1.364 0-.902.924-1.474 2.332-1.474s2.376.726 2.508 1.76h2.332c-.154-2.31-2.112-3.586-4.884-3.586-2.706-.022-4.62 1.364-4.62 3.498 0 2.332 2.024 2.882 4.598 3.19 1.738.22 2.772.308 2.772 1.518 0 .902-.968 1.474-2.442 1.474-1.716 0-2.728-.836-2.816-2.002h-2.332z" fill="#000"/></svg>