<svg width="264" height="10" viewBox="0 0 264 10" fill="none" xmlns="http://www.w3.org/2000/svg"><path d="M2.84 2.992l-.936.432.024-1.032h-.456l.016 1.024-.928-.424-.184.448.976.36-.672.792.344.32.664-.84.672.84.352-.32-.664-.784.976-.36-.184-.456zm.742.048h1.816V8h.696V3.04H7.91V2.4H3.582v.64zm9.488 4.376c-.208 0-.352-.04-.512-.224l-.312-.352 1.24-1.864h-.696l-.944 1.416-1.12-1.248c1.024-.4 1.36-.952 1.36-1.568 0-.696-.56-1.224-1.32-1.224-.896 0-1.576.576-1.576 1.344 0 .48.144.8.552 1.296-.928.392-1.256 1.016-1.256 1.6 0 .952.776 1.456 1.76 1.456.6 0 1.12-.24 1.576-.712l.32.36c.208.24.504.304.848.304h.608v-.584h-.528zm-2.352-4.512c.424 0 .704.288.704.688 0 .472-.328.864-1.048 1.152-.368-.432-.504-.672-.504-1.072 0-.448.336-.768.848-.768zm-.456 4.56c-.648 0-1.104-.344-1.104-.936 0-.504.24-.808.92-1.136.024.016.04.04.056.056l1.304 1.456c-.344.368-.728.56-1.176.56zm6.698.584c1.264 0 2.192-.72 2.4-1.88h-.736c-.208.784-.808 1.24-1.672 1.24-1.176 0-1.896-.92-1.896-2.208 0-1.296.752-2.208 1.928-2.208.84 0 1.432.464 1.648 1.24h.736c-.208-1.16-1.112-1.88-2.352-1.88-1.624 0-2.672 1.152-2.672 2.848 0 1.712 1.008 2.848 2.616 2.848zm2.976-1.392c.016.896.744 1.392 1.8 1.392.904 0 1.632-.472 1.632-1.232 0-.904-.744-1.08-1.672-1.192-.592-.072-1.024-.128-1.024-.576 0-.376.384-.616.952-.616.56 0 .944.312.992.728h.672c-.064-.848-.736-1.28-1.664-1.288-.92-.008-1.6.48-1.6 1.224 0 .848.728 1.032 1.64 1.144.608.072 1.056.112 1.056.624 0 .376-.408.624-.984.624-.68 0-1.104-.352-1.128-.832h-.672zm9.862.744c-.184 0-.264-.056-.264-.272V5.344c0-.952-.6-1.472-1.64-1.472-.984 0-1.632.472-1.728 1.272h.656c.08-.416.464-.688 1.04-.688.64 0 1.016.32 1.016.848v.28h-1.2c-1.072 0-1.64.456-1.64 1.272 0 .744.608 1.192 1.504 1.192.704 0 1.112-.312 1.368-.68.008.4.192.632.736.632h.36v-.6h-.208zm-.92-1.064c0 .68-.472 1.152-1.288 1.152-.544 0-.888-.272-.888-.672 0-.464.328-.68.912-.68h1.264v.2zm3.688-2.464a1.65 1.65 0 00-1.4.704l-.088-.656h-.567V9.6h.655V7.376c.248.392.712.672 1.4.672 1.128 0 1.96-.84 1.96-2.088 0-1.328-.832-2.088-1.96-2.088zm-.064 3.592c-.8 0-1.344-.624-1.344-1.52 0-.872.544-1.488 1.344-1.488.808 0 1.352.616 1.352 1.504s-.544 1.504-1.352 1.504zm4.83-3.592a1.65 1.65 0 00-1.4.704l-.088-.656h-.568V9.6h.656V7.376c.248.392.712.672 1.4.672 1.128 0 1.96-.84 1.96-2.088 0-1.328-.832-2.088-1.96-2.088zm-.064 3.592c-.8 0-1.344-.624-1.344-1.52 0-.872.544-1.488 1.344-1.488.808 0 1.352.616 1.352 1.504s-.544 1.504-1.352 1.504zM40.042 8h.656V2.4h-.656V8zm2.738.024l-.2.496c-.152.384-.216.48-.592.48h-.584v.6h.784c.576 0 .728-.256.984-.912l1.88-4.768h-.696L43.14 7.176 41.884 3.92h-.696l1.592 4.104zM45.08 7.6c0 .272.192.448.456.448s.456-.176.456-.448-.192-.448-.456-.448-.456.176-.456.448zm3.918.4h.696V2.4h-.696V8zm3.685-4.128c-.688 0-1.104.288-1.344.6l-.088-.552h-.568V8h.656V5.96c0-.92.464-1.488 1.232-1.488.712 0 1.104.448 1.104 1.296V8h.656V5.728c0-1.352-.728-1.856-1.648-1.856zM56.138 8h.792l1.528-4.08h-.688l-1.224 3.336-1.232-3.336h-.704L56.138 8zm4.51.048c.944 0 1.616-.6 1.776-1.416h-.664c-.136.528-.584.832-1.16.832-.776 0-1.264-.544-1.288-1.32v-.056h3.168c.008-.096.016-.192.016-.28-.032-1.208-.784-1.936-1.936-1.936s-1.936.848-1.936 2.088c0 1.248.8 2.088 2.024 2.088zm-1.296-2.504a1.208 1.208 0 011.216-1.096c.68 0 1.16.392 1.224 1.096h-2.44zm3.71 1.112c.015.896.743 1.392 1.8 1.392.903 0 1.631-.472 1.631-1.232 0-.904-.744-1.08-1.672-1.192-.592-.072-1.024-.128-1.024-.576 0-.376.384-.616.952-.616.56 0 .944.312.992.728h.672c-.064-.848-.736-1.28-1.664-1.288-.92-.008-1.6.48-1.6 1.224 0 .848.728 1.032 1.64 1.144.608.072 1.056.112 1.056.624 0 .376-.408.624-.984.624-.68 0-1.104-.352-1.128-.832h-.672zm4.463.28c0 .72.28 1.064 1.064 1.064h.712v-.6h-.648c-.352 0-.472-.128-.472-.472V4.52h1.056v-.6h-1.056V2.776h-.656V3.92h-.736v.6h.736v2.416zm2.68-3.704c.24 0 .425-.176.425-.424a.412.412 0 00-.424-.424.412.412 0 00-.424.424c0 .248.184.424.424.424zM69.87 8h.656V3.92h-.656V8zm3.555-4.128c-.688 0-1.104.288-1.344.6l-.088-.552h-.568V8h.656V5.96c0-.92.464-1.488 1.232-1.488.712 0 1.104.448 1.104 1.296V8h.656V5.728c0-1.352-.728-1.856-1.648-1.856zm5.7.752c-.256-.456-.712-.752-1.4-.752-1.128 0-1.96.84-1.96 2.088 0 1.328.832 2.088 1.96 2.088.688 0 1.128-.288 1.4-.752v.48c0 .888-.464 1.288-1.32 1.288-.68 0-1.136-.288-1.248-.8h-.672c.104.896.832 1.384 1.872 1.384 1.4 0 2.024-.672 2.024-1.848V3.92h-.568l-.088.704zm-1.336 2.84c-.808 0-1.352-.616-1.352-1.504s.544-1.504 1.352-1.504c.8 0 1.344.624 1.344 1.52 0 .872-.544 1.488-1.344 1.488zm5.315-4.232c.24 0 .424-.176.424-.424a.412.412 0 00-.424-.424.412.412 0 00-.424.424c0 .248.184.424.424.424zM82.768 8h.656V3.92h-.656V8zm3.555-4.128c-.688 0-1.104.288-1.344.6l-.088-.552h-.568V8h.656V5.96c0-.92.464-1.488 1.232-1.488.712 0 1.104.448 1.104 1.296V8h.656V5.728c0-1.352-.728-1.856-1.648-1.856zM89.779 8h.792l1.528-4.08h-.688l-1.224 3.336-1.232-3.336h-.704L89.779 8zm4.51.048c1.192 0 2.024-.848 2.024-2.088 0-1.24-.832-2.088-2.024-2.088-1.192 0-2.024.848-2.024 2.088 0 1.24.832 2.088 2.024 2.088zm0-.584c-.808 0-1.352-.632-1.352-1.504s.544-1.504 1.352-1.504 1.352.632 1.352 1.504-.544 1.504-1.352 1.504zM97.065 8h.656V2.4h-.656V8zm2.675 0h.792l1.528-4.08h-.688l-1.224 3.336-1.232-3.336h-.704L99.74 8zm4.51.048c.944 0 1.616-.6 1.776-1.416h-.664c-.136.528-.584.832-1.16.832-.776 0-1.264-.544-1.288-1.32v-.056h3.168c.008-.096.016-.192.016-.28-.032-1.208-.784-1.936-1.936-1.936s-1.936.848-1.936 2.088c0 1.248.8 2.088 2.024 2.088zm-1.296-2.504a1.208 1.208 0 011.216-1.096c.68 0 1.16.392 1.224 1.096h-2.44zm3.709 1.112c.016.896.744 1.392 1.8 1.392.904 0 1.632-.472 1.632-1.232 0-.904-.744-1.08-1.672-1.192-.592-.072-1.024-.128-1.024-.576 0-.376.384-.616.952-.616.56 0 .944.312.992.728h.672c-.064-.848-.736-1.28-1.664-1.288-.92-.008-1.6.48-1.6 1.224 0 .848.728 1.032 1.64 1.144.608.072 1.056.112 1.056.624 0 .376-.408.624-.984.624-.68 0-1.104-.352-1.128-.832h-.672zm8.142-2.736c-.728 0-1.04.304-1.232.616l-.088-.616h-.568V8h.656V5.92c0-.648.232-1.36 1.088-1.36h.328v-.64h-.184zm1.088-.688c.24 0 .424-.176.424-.424a.412.412 0 00-.424-.424.412.412 0 00-.424.424c0 .248.184.424.424.424zM115.557 8h.656V3.92h-.656V8zm1.387-1.344c.016.896.744 1.392 1.8 1.392.904 0 1.632-.472 1.632-1.232 0-.904-.744-1.08-1.672-1.192-.592-.072-1.024-.128-1.024-.576 0-.376.384-.616.952-.616.56 0 .944.312.992.728h.672c-.064-.848-.736-1.28-1.664-1.288-.92-.008-1.6.48-1.6 1.224 0 .848.728 1.032 1.64 1.144.608.072 1.056.112 1.056.624 0 .376-.408.624-.984.624-.68 0-1.104-.352-1.128-.832h-.672zM121.104 8h.656V6.928l.824-.848L123.936 8h.792l-1.704-2.392 1.592-1.688h-.808l-2.048 2.168V2.4h-.656V8zm4.382-.84c-.336 0-.528.2-.528.464 0 .288.184.432.424.432a.404.404 0 00.272-.096.423.423 0 01.008.104c0 .272-.16.632-.672.64v.376c.704-.016 1.128-.424 1.128-1.104 0-.44-.24-.816-.632-.816zm3.782-3.928c.24 0 .424-.176.424-.424a.412.412 0 00-.424-.424.412.412 0 00-.424.424c0 .248.184.424.424.424zM128.932 8h.656V3.92h-.656V8zm3.555-4.128c-.688 0-1.104.288-1.344.6l-.088-.552h-.568V8h.656V5.96c0-.92.464-1.488 1.232-1.488.712 0 1.104.448 1.104 1.296V8h.656V5.728c0-1.352-.728-1.856-1.648-1.856zm4.27 4.176c.992 0 1.656-.56 1.816-1.44h-.696c-.128.52-.528.856-1.112.856-.784 0-1.312-.608-1.312-1.496s.528-1.512 1.312-1.512c.6 0 1 .328 1.12.872h.688c-.168-.896-.8-1.456-1.8-1.456-1.184 0-1.992.848-1.992 2.096 0 1.272.784 2.08 1.976 2.08zM139.292 8h.656V2.4h-.656V8zm4.41-2.04c0 .92-.448 1.488-1.192 1.488-.68 0-1.064-.448-1.064-1.296V3.92h-.656v2.272c0 1.352.712 1.856 1.608 1.856.672 0 1.064-.288 1.304-.592l.088.544h.568V3.92h-.656v2.04zm4.767-1.416c-.248-.392-.712-.672-1.4-.672-1.128 0-1.96.84-1.96 2.088 0 1.328.832 2.088 1.96 2.088a1.65 1.65 0 001.4-.704l.088.656h.568V2.4h-.656v2.144zm-1.336 2.92c-.808 0-1.352-.616-1.352-1.504s.544-1.504 1.352-1.504c.8 0 1.344.624 1.344 1.52 0 .872-.544 1.488-1.344 1.488zm3.221-4.232c.24 0 .424-.176.424-.424a.412.412 0 00-.424-.424.412.412 0 00-.424.424c0 .248.184.424.424.424zM150.018 8h.656V3.92h-.656V8zm3.555-4.128c-.688 0-1.104.288-1.344.6l-.088-.552h-.568V8h.656V5.96c0-.92.464-1.488 1.232-1.488.712 0 1.104.448 1.104 1.296V8h.656V5.728c0-1.352-.728-1.856-1.648-1.856zm5.7.752c-.256-.456-.712-.752-1.4-.752-1.128 0-1.96.84-1.96 2.088 0 1.328.832 2.088 1.96 2.088.688 0 1.128-.288 1.4-.752v.48c0 .888-.464 1.288-1.32 1.288-.68 0-1.136-.288-1.248-.8h-.672c.104.896.832 1.384 1.872 1.384 1.4 0 2.024-.672 2.024-1.848V3.92h-.568l-.088.704zm-1.336 2.84c-.808 0-1.352-.616-1.352-1.504s.544-1.504 1.352-1.504c.8 0 1.344.624 1.344 1.52 0 .872-.544 1.488-1.344 1.488zm7.036-3.592a1.65 1.65 0 00-1.4.704l-.088-.656h-.568V9.6h.656V7.376c.248.392.712.672 1.4.672 1.128 0 1.96-.84 1.96-2.088 0-1.328-.832-2.088-1.96-2.088zm-.064 3.592c-.8 0-1.344-.624-1.344-1.52 0-.872.544-1.488 1.344-1.488.808 0 1.352.616 1.352 1.504s-.544 1.504-1.352 1.504zm4.653.584c1.192 0 2.024-.848 2.024-2.088 0-1.24-.832-2.088-2.024-2.088-1.192 0-2.024.848-2.024 2.088 0 1.24.832 2.088 2.024 2.088zm0-.584c-.808 0-1.352-.632-1.352-1.504s.544-1.504 1.352-1.504 1.352.632 1.352 1.504-.544 1.504-1.352 1.504zm2.593-.808c.016.896.744 1.392 1.8 1.392.904 0 1.632-.472 1.632-1.232 0-.904-.744-1.08-1.672-1.192-.592-.072-1.024-.128-1.024-.576 0-.376.384-.616.952-.616.56 0 .944.312.992.728h.672c-.064-.848-.736-1.28-1.664-1.288-.92-.008-1.6.48-1.6 1.224 0 .848.728 1.032 1.64 1.144.608.072 1.056.112 1.056.624 0 .376-.408.624-.984.624-.68 0-1.104-.352-1.128-.832h-.672zm3.914 0c.016.896.744 1.392 1.8 1.392.904 0 1.632-.472 1.632-1.232 0-.904-.744-1.08-1.672-1.192-.592-.072-1.024-.128-1.024-.576 0-.376.384-.616.952-.616.56 0 .944.312.992.728h.672c-.064-.848-.736-1.28-1.664-1.288-.92-.008-1.6.48-1.6 1.224 0 .848.728 1.032 1.64 1.144.608.072 1.056.112 1.056.624 0 .376-.408.624-.984.624-.68 0-1.104-.352-1.128-.832h-.672zm4.496-3.424c.24 0 .424-.176.424-.424a.412.412 0 00-.424-.424.412.412 0 00-.424.424c0 .248.184.424.424.424zM180.229 8h.656V3.92h-.656V8zm3.611-4.128a1.65 1.65 0 00-1.4.704V2.4h-.656V8h.568l.088-.624c.248.392.712.672 1.4.672 1.128 0 1.96-.84 1.96-2.088 0-1.328-.832-2.088-1.96-2.088zm-.064 3.592c-.8 0-1.344-.624-1.344-1.52 0-.872.544-1.488 1.344-1.488.808 0 1.352.616 1.352 1.504s-.544 1.504-1.352 1.504zM186.55 8h.656V2.4h-.656V8zm3.434.048c.944 0 1.616-.6 1.776-1.416h-.664c-.136.528-.584.832-1.16.832-.776 0-1.264-.544-1.288-1.32v-.056h3.168c.008-.096.016-.192.016-.28-.032-1.208-.784-1.936-1.936-1.936s-1.936.848-1.936 2.088c0 1.248.8 2.088 2.024 2.088zm-1.296-2.504a1.208 1.208 0 011.216-1.096c.68 0 1.16.392 1.224 1.096h-2.44zM194.675 8h.656V2.4h-.656V8zm3.434.048c1.192 0 2.024-.848 2.024-2.088 0-1.24-.832-2.088-2.024-2.088-1.192 0-2.024.848-2.024 2.088 0 1.24.832 2.088 2.024 2.088zm0-.584c-.808 0-1.352-.632-1.352-1.504s.544-1.504 1.352-1.504 1.352.632 1.352 1.504-.544 1.504-1.352 1.504zm2.593-.808c.016.896.744 1.392 1.8 1.392.904 0 1.632-.472 1.632-1.232 0-.904-.744-1.08-1.672-1.192-.592-.072-1.024-.128-1.024-.576 0-.376.384-.616.952-.616.56 0 .944.312.992.728h.672c-.064-.848-.736-1.28-1.664-1.288-.92-.008-1.6.48-1.6 1.224 0 .848.728 1.032 1.64 1.144.608.072 1.056.112 1.056.624 0 .376-.408.624-.984.624-.68 0-1.104-.352-1.128-.832h-.672zm3.914 0c.016.896.744 1.392 1.8 1.392.904 0 1.632-.472 1.632-1.232 0-.904-.744-1.08-1.672-1.192-.592-.072-1.024-.128-1.024-.576 0-.376.384-.616.952-.616.56 0 .944.312.992.728h.672c-.064-.848-.736-1.28-1.664-1.288-.92-.008-1.6.48-1.6 1.224 0 .848.728 1.032 1.64 1.144.608.072 1.056.112 1.056.624 0 .376-.408.624-.984.624-.68 0-1.104-.352-1.128-.832h-.672zm8.134 1.392c1.192 0 2.024-.848 2.024-2.088 0-1.24-.832-2.088-2.024-2.088-1.192 0-2.024.848-2.024 2.088 0 1.24.832 2.088 2.024 2.088zm0-.584c-.808 0-1.352-.632-1.352-1.504s.544-1.504 1.352-1.504 1.352.632 1.352 1.504-.544 1.504-1.352 1.504zm2.297-2.944h.736V8h.656V4.52h1.152v-.6h-1.152v-.472c0-.312.12-.448.448-.448h.704v-.6h-.744c-.76 0-1.064.344-1.064 1.064v.456h-.736v.6zm5.448-1.288c.24 0 .424-.176.424-.424a.412.412 0 00-.424-.424.412.412 0 00-.424.424c0 .248.184.424.424.424zM220.159 8h.656V3.92h-.656V8zm3.555-4.128c-.688 0-1.104.288-1.344.6l-.088-.552h-.568V8h.656V5.96c0-.92.464-1.488 1.232-1.488.712 0 1.104.448 1.104 1.296V8h.656V5.728c0-1.352-.728-1.856-1.648-1.856zM227.17 8h.792l1.528-4.08h-.688l-1.224 3.336-1.232-3.336h-.704L227.17 8zm4.51.048c.944 0 1.616-.6 1.776-1.416h-.664c-.136.528-.584.832-1.16.832-.776 0-1.264-.544-1.288-1.32v-.056h3.168c.008-.096.016-.192.016-.28-.032-1.208-.784-1.936-1.936-1.936s-1.936.848-1.936 2.088c0 1.248.8 2.088 2.024 2.088zm-1.296-2.504a1.208 1.208 0 011.216-1.096c.68 0 1.16.392 1.224 1.096h-2.44zm3.709 1.112c.016.896.744 1.392 1.8 1.392.904 0 1.632-.472 1.632-1.232 0-.904-.744-1.08-1.672-1.192-.592-.072-1.024-.128-1.024-.576 0-.376.384-.616.952-.616.56 0 .944.312.992.728h.672c-.064-.848-.736-1.28-1.664-1.288-.92-.008-1.6.48-1.6 1.224 0 .848.728 1.032 1.64 1.144.608.072 1.056.112 1.056.624 0 .376-.408.624-.984.624-.68 0-1.104-.352-1.128-.832h-.672zm4.464.28c0 .72.28 1.064 1.064 1.064h.712v-.6h-.648c-.352 0-.472-.128-.472-.472V4.52h1.056v-.6h-1.056V2.776h-.656V3.92h-.736v.6h.736v2.416zm6.896-3.064c-.728 0-1.168.336-1.416.776-.232-.52-.72-.776-1.288-.776-.632 0-.976.312-1.192.608l-.088-.56h-.568V8h.656V5.848c0-.816.408-1.376 1.08-1.376.624 0 .984.416.984 1.216V8h.656V5.816c0-.832.416-1.344 1.096-1.344.616 0 .968.416.968 1.216V8h.656V5.648c0-1.288-.696-1.776-1.544-1.776zm4.219 4.176c.944 0 1.616-.6 1.776-1.416h-.664c-.136.528-.584.832-1.16.832-.776 0-1.264-.544-1.288-1.32v-.056h3.168c.008-.096.016-.192.016-.28-.032-1.208-.784-1.936-1.936-1.936s-1.936.848-1.936 2.088c0 1.248.8 2.088 2.024 2.088zm-1.296-2.504a1.208 1.208 0 011.216-1.096c.68 0 1.16.392 1.224 1.096h-2.44zm5.892-1.672c-.688 0-1.104.288-1.344.6l-.088-.552h-.568V8h.656V5.96c0-.92.464-1.488 1.232-1.488.712 0 1.104.448 1.104 1.296V8h.656V5.728c0-1.352-.728-1.856-1.648-1.856zm2.789 3.064c0 .72.28 1.064 1.064 1.064h.712v-.6h-.648c-.352 0-.472-.128-.472-.472V4.52h1.056v-.6h-1.056V2.776h-.656V3.92h-.736v.6h.736v2.416z" fill="#000"/></svg>