<svg width="148" height="24" viewBox="0 0 148 24" fill="none" xmlns="http://www.w3.org/2000/svg"><path d="M5.049 1.344H.825V9h4.224V7.977h-2.97V5.634h2.64V4.611h-2.64V2.367h2.97V1.344zM6.594 9h1.254V2.939H6.594V9zm.638-6.864c.44 0 .792-.352.792-.803A.791.791 0 007.232.53a.794.794 0 00-.803.803c0 .451.352.803.803.803zM13.795 9h1.243V5.425c0-1.694-1.067-2.585-2.486-2.585-.726 0-1.397.297-1.804.792v-.693H9.494V9h1.254V5.612c0-1.111.605-1.683 1.529-1.683.913 0 1.518.572 1.518 1.683V9zm7.364-1.694c-.066-2.189-3.487-1.507-3.487-2.728 0-.407.351-.682 1.023-.682.681 0 1.088.363 1.133.891h1.253c-.066-1.21-.968-1.947-2.343-1.947-1.43 0-2.331.781-2.331 1.749 0 2.222 3.52 1.54 3.52 2.728 0 .418-.386.726-1.111.726-.694 0-1.166-.407-1.21-.902h-1.299c.056 1.1 1.079 1.958 2.53 1.958 1.43 0 2.322-.77 2.322-1.793zm1.553.011c0 1.232.67 1.683 1.748 1.683h.99V7.955h-.77c-.527 0-.703-.187-.703-.638V3.962h1.474V2.939h-1.474V1.432h-1.265v1.507h-.715v1.023h.715v3.355zM26.605 9h1.254V2.939h-1.254V9zm.638-6.864c.44 0 .792-.352.792-.803a.791.791 0 00-.792-.803.794.794 0 00-.803.803c0 .451.352.803.803.803zm4.815 1.76c.935 0 1.672.594 1.694 1.529h-3.355c.132-.957.814-1.529 1.66-1.529zm2.838 3.3h-1.353c-.231.473-.66.847-1.43.847-.924 0-1.64-.605-1.727-1.606h4.63c.034-.209.045-.407.045-.616 0-1.782-1.221-2.981-2.948-2.981-1.793 0-3.025 1.221-3.025 3.124s1.287 3.135 3.025 3.135c1.485 0 2.442-.847 2.783-1.903zm.98-1.254c0 1.87 1.266 3.157 2.86 3.157.99 0 1.717-.495 2.102-1.012v1.012c0 1.21-.726 1.804-1.694 1.804-.87 0-1.54-.429-1.727-1.056h-1.243c.154 1.342 1.353 2.145 2.97 2.145 1.892 0 2.959-1.243 2.959-2.893v-6.16h-1.265v.88c-.374-.517-1.111-.979-2.101-.979-1.595 0-2.86 1.232-2.86 3.102zm4.962.022c0 1.309-.891 2.046-1.837 2.046-.935 0-1.837-.759-1.837-2.068 0-1.309.902-2.013 1.837-2.013.946 0 1.837.737 1.837 2.035zM46.609 9h1.253V2.939h-1.254V9zm.637-6.864c.44 0 .792-.352.792-.803a.791.791 0 00-.792-.803.794.794 0 00-.803.803c0 .451.352.803.803.803zM53.81 9h1.243V5.425c0-1.694-1.067-2.585-2.486-2.585-.726 0-1.397.297-1.804.792v-.693h-1.254V9h1.254V5.612c0-1.111.605-1.683 1.529-1.683.913 0 1.518.572 1.518 1.683V9zM.429 14.378h2.046V21h1.254v-6.622h2.035v-1.023H.429v1.023zm9.157 1.518c.935 0 1.672.594 1.694 1.529H7.925c.132-.957.814-1.529 1.661-1.529zm2.838 3.3h-1.353c-.231.473-.66.847-1.43.847-.924 0-1.639-.605-1.727-1.606h4.631c.033-.209.044-.407.044-.616 0-1.782-1.221-2.981-2.948-2.981-1.793 0-3.025 1.221-3.025 3.124s1.287 3.135 3.025 3.135c1.485 0 2.442-.847 2.783-1.903zm.981-1.232c0 1.903 1.232 3.135 2.97 3.135 1.485 0 2.453-.825 2.794-2.013h-1.353c-.231.627-.693.957-1.441.957-1.012 0-1.683-.748-1.683-2.079 0-1.32.671-2.068 1.683-2.068.748 0 1.232.374 1.441.957h1.353c-.341-1.276-1.309-2.013-2.794-2.013-1.738 0-2.97 1.232-2.97 3.124zM20.419 21h1.254v-3.388c0-1.111.605-1.683 1.529-1.683.913 0 1.518.572 1.518 1.683V21h1.243v-3.575c0-1.694-1.056-2.585-2.41-2.585-.78 0-1.462.297-1.88.803V12.86h-1.254V21zm11.444 0h1.243v-3.575c0-1.694-1.067-2.585-2.486-2.585-.726 0-1.397.297-1.804.792v-.693h-1.254V21h1.254v-3.388c0-1.111.605-1.683 1.53-1.683.912 0 1.517.572 1.517 1.683V21zm8.618-3.036c0-1.903-1.364-3.124-3.091-3.124s-3.091 1.221-3.091 3.124 1.309 3.135 3.036 3.135c1.738 0 3.146-1.232 3.146-3.135zm-4.906 0c0-1.375.847-2.035 1.793-2.035.935 0 1.826.66 1.826 2.035s-.924 2.046-1.86 2.046c-.945 0-1.76-.671-1.76-2.046zM41.72 21h1.255v-8.14H41.72V21zm8.676-3.036c0-1.903-1.364-3.124-3.091-3.124s-3.091 1.221-3.091 3.124 1.309 3.135 3.036 3.135c1.738 0 3.146-1.232 3.146-3.135zm-4.906 0c0-1.375.847-2.035 1.793-2.035.935 0 1.826.66 1.826 2.035s-.924 2.046-1.86 2.046c-.945 0-1.76-.671-1.76-2.046zm5.727-.022c0 1.87 1.266 3.157 2.86 3.157.99 0 1.717-.495 2.102-1.012v1.012c0 1.21-.727 1.804-1.695 1.804-.869 0-1.54-.429-1.727-1.056h-1.242c.154 1.342 1.352 2.145 2.97 2.145 1.892 0 2.959-1.243 2.959-2.893v-6.16h-1.266v.88c-.373-.517-1.11-.979-2.1-.979-1.596 0-2.86 1.232-2.86 3.102zm4.962.022c0 1.309-.892 2.046-1.837 2.046-.935 0-1.837-.759-1.837-2.068 0-1.309.901-2.013 1.837-2.013.946 0 1.837.737 1.837 2.035zM59.09 21h1.254v-6.061H59.09V21zm.638-6.864c.44 0 .792-.352.792-.803a.791.791 0 00-.792-.803.794.794 0 00-.803.803c0 .451.352.803.803.803zm4.814 1.76c.935 0 1.672.594 1.694 1.529h-3.355c.132-.957.814-1.529 1.661-1.529zm2.838 3.3h-1.353c-.231.473-.66.847-1.43.847-.924 0-1.639-.605-1.727-1.606h4.631c.033-.209.044-.407.044-.616 0-1.782-1.221-2.981-2.948-2.981-1.793 0-3.025 1.221-3.025 3.124s1.287 3.135 3.025 3.135c1.485 0 2.442-.847 2.783-1.903zM69.957 21h1.32l1.221-4.477L73.72 21h1.32l1.881-6.061h-1.232l-1.254 4.851-1.232-4.851h-1.309l-1.287 4.873-1.265-4.873h-1.276L69.957 21zm10.452-5.104c.935 0 1.672.594 1.694 1.529h-3.355c.132-.957.814-1.529 1.661-1.529zm2.838 3.3h-1.353c-.23.473-.66.847-1.43.847-.924 0-1.639-.605-1.727-1.606h4.631c.033-.209.044-.407.044-.616 0-1.782-1.22-2.981-2.948-2.981-1.793 0-3.025 1.221-3.025 3.124s1.287 3.135 3.025 3.135c1.485 0 2.442-.847 2.783-1.903zM85.9 17.81c0-1.287.572-1.672 1.496-1.672h.32V14.84c-.859 0-1.464.374-1.816.979v-.88h-1.254V21H85.9v-3.19zm3.166 1.507c0 1.232.671 1.683 1.749 1.683h.99v-1.045h-.77c-.528 0-.704-.187-.704-.638v-3.355h1.474v-1.023h-1.474v-1.507h-1.265v1.507h-.715v1.023h.715v3.355zm6.447-3.421c.935 0 1.672.594 1.694 1.529h-3.355c.132-.957.814-1.529 1.66-1.529zm2.838 3.3h-1.353c-.231.473-.66.847-1.43.847-.924 0-1.64-.605-1.727-1.606h4.63c.034-.209.045-.407.045-.616 0-1.782-1.221-2.981-2.948-2.981-1.793 0-3.025 1.221-3.025 3.124s1.287 3.135 3.025 3.135c1.485 0 2.442-.847 2.783-1.903zm3.838-1.254c0 1.87 1.265 3.157 2.838 3.157 1.012 0 1.738-.484 2.123-1.001V21h1.265v-6.061h-1.265v.88c-.374-.495-1.078-.979-2.101-.979-1.595 0-2.86 1.232-2.86 3.102zm4.961.022c0 1.309-.891 2.046-1.837 2.046-.935 0-1.837-.759-1.837-2.068 0-1.309.902-2.013 1.837-2.013.946 0 1.837.737 1.837 2.035zm4.166-2.123V12.86h-1.254V21h1.254v-.88c.396.528 1.111.979 2.112.979 1.595 0 2.849-1.287 2.849-3.157s-1.243-3.102-2.849-3.102c-.957 0-1.716.451-2.112 1.001zm3.685 2.101c0 1.309-.902 2.068-1.848 2.068-.935 0-1.837-.737-1.837-2.046 0-1.298.902-2.035 1.837-2.035.946 0 1.848.704 1.848 2.013zm5.187-2.981h1.221c.077-.561.484-1.089 1.364-1.089.858 0 1.309.462 1.309 1.155 0 .858-.693 1.188-1.826 1.199h-.297v1.034h.286c1.309 0 1.991.363 1.991 1.419 0 .748-.462 1.32-1.397 1.32-.946 0-1.496-.572-1.551-1.32h-1.21c.077 1.573 1.254 2.365 2.772 2.365 1.672 0 2.574-.968 2.574-2.244 0-1.111-.539-1.804-1.375-2.057v-.044c.627-.209 1.232-.858 1.232-1.815 0-1.166-.869-2.09-2.464-2.09-1.463 0-2.541.781-2.629 2.167zm10.829 1.914v-2.497h1.386c.979 0 1.419.462 1.419 1.254 0 .77-.44 1.243-1.419 1.243h-1.386zm4.092-1.243c0-1.243-.891-2.277-2.706-2.277h-2.64V21h1.254v-3.102h1.386c1.991 0 2.706-1.177 2.706-2.266zM136.305 21h1.254v-2.607L139.803 21h1.694l-2.794-3.025 2.794-3.036h-1.738l-2.2 2.651v-4.73h-1.254V21zm6.289-1.683c0 1.232.671 1.683 1.749 1.683h.99v-1.045h-.77c-.528 0-.704-.187-.704-.638v-3.355h1.474v-1.023h-1.474v-1.507h-1.265v1.507h-.715v1.023h.715v3.355zm5.193.957a.791.791 0 00-.792-.803.794.794 0 00-.803.803c0 .451.352.803.803.803.44 0 .792-.352.792-.803z" fill="#fff"/></svg>