<svg width="88" height="60" viewBox="0 0 88 60" fill="none" xmlns="http://www.w3.org/2000/svg"><path fill="#fff" d="M0 0h88v60H0z"/><path d="M7.777 6.734v.47L6.43 11h-.867l1.353-3.583H5.199v-.683h2.578zm2.356-.008V11h-.82V7.733l-.815.314V7.36l1.547-.635h.088zm1.31 3.855c0-.129.042-.236.128-.322a.465.465 0 01.349-.132c.146 0 .263.044.349.132a.437.437 0 01.129.322.437.437 0 01-.13.322.471.471 0 01-.348.13.47.47 0 01-.349-.13.437.437 0 01-.129-.322zm3.518-3.893h.108v.697h-.038c-.185 0-.347.032-.486.096a.887.887 0 00-.343.276c-.09.119-.157.264-.202.433a2.19 2.19 0 00-.067.566v.718c0 .148.01.279.029.392.021.113.052.208.09.284.042.075.089.13.141.167a.311.311 0 00.36-.002.496.496 0 00.141-.162.867.867 0 00.088-.246c.022-.094.033-.196.033-.307 0-.114-.011-.217-.033-.31a.888.888 0 00-.09-.244.447.447 0 00-.144-.161.31.31 0 00-.185-.059c-.1 0-.184.03-.255.091a.558.558 0 00-.16.229.856.856 0 00-.062.29l-.246-.176c.008-.149.035-.288.082-.42.049-.132.115-.251.199-.357a.893.893 0 01.302-.246.849.849 0 01.395-.09c.17 0 .319.038.445.114.127.076.233.18.317.313.086.133.15.287.19.463.043.174.065.36.065.557 0 .207-.03.4-.088.577a1.46 1.46 0 01-.25.466 1.13 1.13 0 01-.907.422c-.196 0-.372-.041-.53-.123a1.204 1.204 0 01-.405-.35 1.68 1.68 0 01-.255-.538 2.513 2.513 0 01-.088-.686v-.33c0-.345.04-.659.12-.944a2.23 2.23 0 01.355-.744c.158-.21.351-.37.58-.484.23-.115.495-.173.794-.173zm1.178 1.092v-.225c0-.162.029-.31.088-.443a.76.76 0 01.266-.319c.12-.08.267-.12.443-.12.177 0 .326.04.445.12.119.08.207.186.264.32.058.132.087.28.087.442v.225c0 .158-.029.304-.087.437a.733.733 0 01-.267.32.761.761 0 01-.44.12.775.775 0 01-.442-.12.753.753 0 01-.27-.32 1.07 1.07 0 01-.087-.437zm.536-.225v.225c0 .067.01.13.03.19.019.06.048.107.087.144a.21.21 0 00.146.053.2.2 0 00.144-.053.335.335 0 00.082-.143c.02-.06.03-.124.03-.19v-.226a.61.61 0 00-.03-.194.3.3 0 00-.085-.143.204.204 0 00-.146-.056.204.204 0 00-.147.056.334.334 0 00-.085.143.67.67 0 00-.026.194zm1.148 2.628v-.229c0-.16.03-.307.091-.44a.76.76 0 01.267-.319.77.77 0 01.44-.12c.179 0 .327.04.444.12a.74.74 0 01.264.32c.06.132.09.279.09.44v.228c0 .16-.028.306-.087.44a.737.737 0 01-.267.316.761.761 0 01-.439.12.79.79 0 01-.445-.12.753.753 0 01-.27-.32 1.07 1.07 0 01-.088-.436zm.536-.229v.226c0 .068.012.133.035.193a.4.4 0 00.094.144.206.206 0 00.138.052c.07 0 .124-.017.161-.052a.274.274 0 00.073-.144.88.88 0 00.02-.193v-.223a.61.61 0 00-.028-.193.3.3 0 00-.085-.144.194.194 0 00-.144-.056c-.06 0-.11.019-.15.056a.322.322 0 00-.087.144.663.663 0 00-.027.19zm.478-2.607l-1.75 3.334-.392-.223 1.75-3.334.392.223zm2.44 2.176V9.31c0-.248.03-.468.088-.66.06-.191.147-.351.258-.48.111-.13.245-.23.401-.296.159-.068.335-.103.53-.103.198 0 .375.035.531.103.158.066.293.165.404.296.113.129.2.289.261.48.06.192.09.412.09.66v.213c0 .247-.03.465-.09.657a1.35 1.35 0 01-.26.483c-.112.13-.246.23-.402.296-.156.066-.332.1-.527.1-.196 0-.372-.034-.53-.1a1.096 1.096 0 01-.405-.296c-.113-.13-.2-.292-.26-.483a2.243 2.243 0 01-.089-.657zm.82-.213v.213c0 .147.01.274.03.381a.92.92 0 00.09.267c.042.07.09.122.147.155a.38.38 0 00.197.05c.074 0 .14-.017.199-.05a.37.37 0 00.143-.155c.04-.07.068-.16.085-.267.02-.107.03-.234.03-.38V9.31c0-.143-.011-.268-.033-.375a.883.883 0 00-.09-.267.411.411 0 00-.147-.158.345.345 0 00-.193-.056.345.345 0 00-.194.056.455.455 0 00-.143.158.88.88 0 00-.091.267c-.02.107-.03.232-.03.375zM25.377 11h-.823V7.555c0-.244.042-.449.126-.613a.879.879 0 01.354-.375c.154-.086.337-.129.548-.129a1.366 1.366 0 01.375.059l-.009.653a.5.5 0 00-.09-.017 1.009 1.009 0 00-.112-.006.392.392 0 00-.202.05.324.324 0 00-.126.143.585.585 0 00-.041.235V11zm.495-3.17v.618h-1.705V7.83h1.705zm2.66.706V11h-.82V7.83h.773l.047.706zm.747-.73l-.011.818a1.776 1.776 0 00-.27-.023.564.564 0 00-.234.044.39.39 0 00-.161.126.584.584 0 00-.094.205 1.293 1.293 0 00-.038.278l-.155-.059c0-.207.015-.396.046-.568.034-.174.082-.324.147-.451a.859.859 0 01.231-.3.498.498 0 01.31-.105c.04 0 .08.004.124.012.045.006.08.014.105.024zm1.638 3.253a1.56 1.56 0 01-.577-.1 1.141 1.141 0 01-.422-.287 1.287 1.287 0 01-.264-.46c-.06-.18-.09-.385-.09-.615v-.261c0-.258.029-.483.087-.677.059-.195.142-.36.25-.492a.984.984 0 01.395-.296c.158-.066.337-.1.536-.1.2 0 .374.034.524.1a.915.915 0 01.378.293c.1.129.175.29.226.48.05.192.076.415.076.668v.376h-2.124V9.11h1.319v-.073a1.08 1.08 0 00-.041-.322.37.37 0 00-.13-.196.388.388 0 00-.234-.065.405.405 0 00-.208.05.342.342 0 00-.135.155.961.961 0 00-.073.276 2.944 2.944 0 00-.023.4v.262c0 .146.012.27.038.369a.652.652 0 00.111.24c.05.06.113.104.185.132a.956.956 0 00.642-.038.898.898 0 00.298-.214l.328.498a1.277 1.277 0 01-.592.404c-.138.047-.298.07-.48.07zm2.977-3.229v.618h-1.618V7.83h1.618zm-1.245-.782h.817v2.985c0 .088.009.155.026.202.018.047.044.08.08.1a.346.346 0 00.146.026.562.562 0 00.193-.023v.641a1.137 1.137 0 01-.457.08.92.92 0 01-.428-.094.64.64 0 01-.278-.299 1.27 1.27 0 01-.1-.545V7.048zm3.1 3.223V8.806a.609.609 0 00-.036-.229.227.227 0 00-.1-.123.289.289 0 00-.158-.04.326.326 0 00-.176.043.268.268 0 00-.105.126.536.536 0 00-.032.196h-.824a.959.959 0 01.31-.709c.104-.093.227-.167.37-.22.143-.052.303-.079.48-.079.212 0 .399.037.563.109.164.07.294.183.39.337.095.154.143.354.143.6v1.412c0 .178.009.323.027.434.02.111.047.207.085.287V11h-.827a1.378 1.378 0 01-.085-.328 3.07 3.07 0 01-.026-.402zm.099-1.208l.003.493h-.302a.512.512 0 00-.205.038.45.45 0 00-.231.267.693.693 0 00-.027.193c0 .076.01.14.032.193a.249.249 0 00.25.161c.09 0 .167-.018.234-.056a.38.38 0 00.146-.134c.033-.053.044-.102.032-.147l.188.32a1.446 1.446 0 01-.097.225.954.954 0 01-.15.217.723.723 0 01-.225.164.736.736 0 01-.313.062.943.943 0 01-.466-.118.87.87 0 01-.334-.328.997.997 0 01-.12-.5c0-.16.025-.305.076-.434a.854.854 0 01.234-.331c.104-.092.235-.162.393-.211.158-.05.344-.074.556-.074h.326zM38.04 7.83V11h-.823V7.83h.823zm-.861-.82a.43.43 0 01.12-.314.438.438 0 01.328-.126c.139 0 .248.042.328.126a.43.43 0 01.12.314.43.43 0 01-.123.313.43.43 0 01-.322.123.447.447 0 01-.331-.123.436.436 0 01-.12-.313zm2.373-.51V11h-.823V6.5h.823zm2.894 1.33V11h-.823V7.83h.823zm-.861-.82a.43.43 0 01.12-.314.438.438 0 01.328-.126c.139 0 .248.042.328.126a.43.43 0 01.12.314.43.43 0 01-.123.313.43.43 0 01-.322.123.447.447 0 01-.33-.123.436.436 0 01-.121-.313zm2.317 1.497V11h-.823V7.83h.77l.053.677zm-.123.8l-.22.005a2.417 2.417 0 01.068-.641c.05-.19.122-.35.214-.483a.977.977 0 01.334-.308.887.887 0 01.436-.109c.123 0 .236.022.337.065a.66.66 0 01.267.205c.074.094.132.219.173.375.04.154.061.344.061.568V11h-.823V8.979a.952.952 0 00-.041-.317.274.274 0 00-.123-.158.409.409 0 00-.205-.047.34.34 0 00-.208.067.511.511 0 00-.152.18c-.04.075-.07.165-.091.269-.02.103-.029.214-.027.334zm3.205 1.06l.51-2.537h.856L47.48 11h-.513l.017-.633zm-.301-2.537l.518 2.54.009.63h-.516l-.87-3.17h.859zm3.298 3.229a1.56 1.56 0 01-.577-.1 1.141 1.141 0 01-.422-.287 1.287 1.287 0 01-.263-.46c-.06-.18-.091-.385-.091-.615v-.261c0-.258.03-.483.088-.677.058-.195.141-.36.249-.492a.984.984 0 01.395-.296c.159-.066.337-.1.537-.1.199 0 .373.034.524.1a.915.915 0 01.378.293c.1.129.175.29.225.48.051.192.077.415.077.668v.376h-2.124V9.11h1.318v-.073a1.08 1.08 0 00-.041-.322.37.37 0 00-.129-.196.388.388 0 00-.234-.065.405.405 0 00-.208.05.343.343 0 00-.135.155.961.961 0 00-.073.276 2.944 2.944 0 00-.024.4v.262c0 .146.013.27.038.369a.652.652 0 00.112.24c.05.06.112.104.184.132a.956.956 0 00.642-.038.898.898 0 00.299-.214l.328.498a1.277 1.277 0 01-.592.404c-.139.047-.299.07-.48.07zm3-.914a.218.218 0 00-.055-.147.66.66 0 00-.176-.132 2.908 2.908 0 00-.32-.155 3.383 3.383 0 01-.383-.182 1.35 1.35 0 01-.284-.208.77.77 0 01-.173-.26.895.895 0 01-.059-.334.893.893 0 01.29-.674.984.984 0 01.343-.205c.137-.051.29-.077.46-.077.238 0 .442.042.612.126a.914.914 0 01.396.346.966.966 0 01.137.519h-.82a.51.51 0 00-.032-.188.263.263 0 00-.105-.132.34.34 0 00-.19-.046.302.302 0 00-.267.14.273.273 0 00-.039.147.24.24 0 00.027.114c.02.033.05.065.09.097.042.03.096.064.165.1.07.032.156.07.257.11.211.079.384.163.519.252.137.09.238.196.305.317.066.119.1.266.1.442 0 .14-.028.269-.083.384a.836.836 0 01-.231.299 1.074 1.074 0 01-.366.193c-.141.045-.298.068-.472.068-.256 0-.472-.051-.648-.153a1.047 1.047 0 01-.398-.39 1.005 1.005 0 01-.135-.497h.78a.537.537 0 00.058.249c.037.058.087.1.15.123a.587.587 0 00.208.035c.076 0 .138-.01.187-.03a.233.233 0 00.114-.096.31.31 0 00.038-.155zm2.702-2.315v.618h-1.618V7.83h1.618zm-1.245-.782h.817v2.985c0 .088.009.155.026.202.018.047.044.08.08.1a.346.346 0 00.146.026.562.562 0 00.193-.023v.641a1.135 1.135 0 01-.457.08.92.92 0 01-.428-.094.64.64 0 01-.278-.299 1.27 1.27 0 01-.1-.545V7.048zm1.52 2.475V9.31c0-.248.03-.468.088-.66.06-.191.146-.351.258-.48.111-.13.245-.23.401-.296.158-.068.335-.103.53-.103.198 0 .374.035.53.103.159.066.294.165.405.296.113.129.2.289.26.48.061.192.092.412.092.66v.213c0 .247-.03.465-.091.657a1.35 1.35 0 01-.261.483 1.07 1.07 0 01-.401.296c-.157.066-.333.1-.528.1s-.372-.034-.53-.1a1.097 1.097 0 01-.404-.296 1.35 1.35 0 01-.261-.483 2.243 2.243 0 01-.088-.657zm.82-.213v.213c0 .147.01.274.03.381a.927.927 0 00.09.267c.041.07.09.122.147.155a.38.38 0 00.196.05c.074 0 .14-.017.2-.05a.371.371 0 00.143-.155.826.826 0 00.085-.267c.02-.107.03-.234.03-.38V9.31c0-.143-.012-.268-.033-.375a.886.886 0 00-.09-.267.412.412 0 00-.147-.158.345.345 0 00-.194-.056.345.345 0 00-.193.056.455.455 0 00-.144.158.886.886 0 00-.09.267c-.02.107-.03.232-.03.375zm3.082-.774V11h-.82V7.83h.774l.046.706zm.747-.73l-.011.818a1.779 1.779 0 00-.27-.023.564.564 0 00-.234.044.391.391 0 00-.161.126.586.586 0 00-.094.205 1.293 1.293 0 00-.038.278l-.155-.059c0-.207.015-.396.046-.568.034-.174.082-.324.147-.451a.858.858 0 01.231-.3.498.498 0 01.31-.105c.04 0 .081.004.124.012.045.006.08.014.105.024zm3.2 2.465V8.806a.61.61 0 00-.035-.229.227.227 0 00-.1-.123.29.29 0 00-.158-.04.325.325 0 00-.176.043.269.269 0 00-.106.126.536.536 0 00-.032.196h-.823a.959.959 0 01.31-.709c.104-.093.227-.167.37-.22.142-.052.302-.079.48-.079.211 0 .399.037.563.109.164.07.293.183.39.337.095.154.143.354.143.6v1.412c0 .178.009.323.026.434.02.111.048.207.085.287V11h-.826a1.374 1.374 0 01-.085-.328 3.052 3.052 0 01-.026-.402zm.1-1.208l.002.493h-.302a.513.513 0 00-.205.038.446.446 0 00-.231.267.69.69 0 00-.026.193c0 .076.01.14.032.193a.249.249 0 00.249.161c.09 0 .168-.018.234-.056a.38.38 0 00.147-.134c.033-.053.044-.102.032-.147l.187.32a1.445 1.445 0 01-.096.225.954.954 0 01-.15.217.723.723 0 01-.225.164.736.736 0 01-.314.062.943.943 0 01-.466-.118.868.868 0 01-.334-.328.996.996 0 01-.12-.5c0-.16.026-.305.076-.434a.855.855 0 01.235-.331c.103-.092.234-.162.392-.211.159-.05.344-.074.557-.074h.325zm2.478 1.313a.389.389 0 00.196-.047.295.295 0 00.129-.152.75.75 0 00.047-.273h.77c0 .239-.05.445-.152.619-.1.171-.234.304-.404.398a1.172 1.172 0 01-.572.138c-.213 0-.398-.035-.556-.103a.994.994 0 01-.393-.299 1.378 1.378 0 01-.231-.477 2.52 2.52 0 01-.076-.65v-.232c0-.24.025-.455.076-.645.052-.19.13-.35.231-.48a1 1 0 01.39-.299c.158-.068.344-.103.556-.103.229 0 .427.048.595.144a.965.965 0 01.393.416c.096.184.143.41.143.68h-.77a.996.996 0 00-.044-.302.37.37 0 00-.12-.188.315.315 0 00-.211-.067.384.384 0 00-.223.059.35.35 0 00-.126.164.986.986 0 00-.056.263c-.01.106-.014.225-.014.358v.231c0 .143.004.267.012.372.01.104.028.192.055.264.03.07.072.123.126.158a.43.43 0 00.229.053zm2.76 0a.389.389 0 00.196-.047.296.296 0 00.129-.152.752.752 0 00.047-.273h.77c0 .239-.05.445-.152.619-.1.171-.235.304-.405.398a1.171 1.171 0 01-.57.138c-.214 0-.4-.035-.558-.103a.996.996 0 01-.392-.299 1.378 1.378 0 01-.231-.477 2.519 2.519 0 01-.077-.65v-.232c0-.24.026-.455.076-.645.053-.19.13-.35.232-.48a1 1 0 01.39-.299c.158-.068.343-.103.556-.103.229 0 .427.048.595.144a.964.964 0 01.392.416c.096.184.144.41.144.68h-.77a.996.996 0 00-.044-.302.369.369 0 00-.12-.188.314.314 0 00-.211-.067.385.385 0 00-.223.059.35.35 0 00-.126.164.986.986 0 00-.056.263c-.01.106-.014.225-.014.358v.231c0 .143.004.267.011.372.01.104.029.192.056.264.03.07.071.123.126.158a.43.43 0 00.228.053zm1.52-.853V9.31c0-.248.03-.468.088-.66.06-.191.146-.351.258-.48.111-.13.245-.23.401-.296.158-.068.335-.103.53-.103.198 0 .374.035.53.103.159.066.294.165.405.296.113.129.2.289.26.48.061.192.091.412.091.66v.213c0 .247-.03.465-.09.657-.06.191-.148.352-.261.483a1.07 1.07 0 01-.401.296c-.157.066-.333.1-.528.1s-.372-.034-.53-.1a1.097 1.097 0 01-.404-.296c-.114-.13-.2-.292-.261-.483a2.243 2.243 0 01-.088-.657zm.82-.213v.213c0 .147.01.274.03.381a.927.927 0 00.09.267.42.42 0 00.147.155c.057.033.122.05.196.05.074 0 .14-.017.2-.05a.371.371 0 00.143-.155c.04-.07.067-.16.085-.267.02-.107.03-.234.03-.38V9.31c0-.143-.011-.268-.033-.375a.884.884 0 00-.09-.267.412.412 0 00-.147-.158.345.345 0 00-.194-.056.345.345 0 00-.193.056.456.456 0 00-.144.158.886.886 0 00-.09.267c-.02.107-.03.232-.03.375zm3.794.928V7.83h.823V11h-.773l-.05-.762zm.094-.653l.229-.006c0 .213-.021.41-.062.592-.041.18-.102.336-.185.469a.916.916 0 01-.307.31.846.846 0 01-.437.109.968.968 0 01-.357-.065.72.72 0 01-.278-.208 1.054 1.054 0 01-.185-.366 1.99 1.99 0 01-.064-.542V7.83h.823v2.057c0 .086.008.16.023.222.016.06.037.11.065.15.027.039.06.067.096.085.037.015.08.023.126.023a.44.44 0 00.305-.1.555.555 0 00.161-.278c.031-.119.047-.254.047-.404zm2.133-1.078V11h-.823V7.83h.77l.053.677zm-.123.8l-.22.005a2.417 2.417 0 01.067-.641c.051-.19.123-.35.214-.483a.978.978 0 01.334-.308.888.888 0 01.437-.109c.123 0 .235.022.337.065a.66.66 0 01.266.205c.075.094.132.219.173.375.041.154.062.344.062.568V11h-.823V8.979a.955.955 0 00-.041-.317.274.274 0 00-.124-.158.408.408 0 00-.205-.047.34.34 0 00-.208.067.511.511 0 00-.152.18 1.06 1.06 0 00-.09.269c-.02.103-.03.214-.027.334zm3.653-1.477v.618H79.42V7.83h1.617zm-1.245-.782h.817v2.985c0 .088.01.155.027.202.017.047.044.08.079.1a.347.347 0 00.146.026.562.562 0 00.193-.023v.641a1.135 1.135 0 01-.456.08.921.921 0 01-.428-.094.64.64 0 01-.278-.299 1.27 1.27 0 01-.1-.545V7.048zm3.108 3.097a.218.218 0 00-.055-.147.659.659 0 00-.176-.132 2.905 2.905 0 00-.32-.155 3.385 3.385 0 01-.383-.182 1.356 1.356 0 01-.284-.208.772.772 0 01-.173-.26.893.893 0 01-.059-.334.93.93 0 01.073-.373.896.896 0 01.217-.301.984.984 0 01.343-.205c.137-.051.29-.077.46-.077.238 0 .442.042.612.126a.915.915 0 01.396.346.966.966 0 01.138.519h-.82a.51.51 0 00-.033-.188.262.262 0 00-.105-.132.34.34 0 00-.191-.046.304.304 0 00-.267.14.273.273 0 00-.038.147.24.24 0 00.027.114c.02.033.05.065.09.097.042.03.096.064.165.1.07.032.156.07.257.11.211.079.384.163.519.252.137.09.238.196.305.317.066.119.1.266.1.442 0 .14-.028.269-.083.384a.834.834 0 01-.231.299 1.075 1.075 0 01-.366.193c-.141.045-.298.068-.472.068-.256 0-.472-.051-.648-.153a1.047 1.047 0 01-.398-.39 1.006 1.006 0 01-.135-.497h.78a.538.538 0 00.058.249c.037.058.087.1.15.123a.587.587 0 00.208.035.51.51 0 00.187-.03.234.234 0 00.114-.096.31.31 0 00.038-.155zM6.166 13.5V18h-.823v-4.5h.823zm.557 3.023v-.213c0-.248.029-.468.088-.66.06-.191.146-.351.257-.48.112-.13.245-.23.402-.296.158-.068.335-.103.53-.103.197 0 .374.035.53.103.158.066.293.165.405.296.113.129.2.289.26.48.06.192.091.411.091.66v.213c0 .247-.03.465-.09.657a1.35 1.35 0 01-.261.483 1.07 1.07 0 01-.402.296c-.156.066-.332.1-.527.1s-.372-.034-.53-.1a1.096 1.096 0 01-.405-.296 1.35 1.35 0 01-.26-.483 2.243 2.243 0 01-.088-.657zm.82-.213v.213c0 .147.01.274.03.381a.924.924 0 00.09.267c.041.07.09.122.147.155a.38.38 0 00.196.05c.074 0 .14-.017.2-.05a.371.371 0 00.143-.155c.039-.07.067-.16.085-.267.02-.107.029-.234.029-.38v-.214c0-.143-.01-.268-.032-.375a.883.883 0 00-.091-.267.412.412 0 00-.147-.158.345.345 0 00-.193-.056.345.345 0 00-.193.056.455.455 0 00-.144.158.883.883 0 00-.09.267c-.02.107-.03.232-.03.375zm3.668.835a.218.218 0 00-.056-.147.66.66 0 00-.175-.132 2.92 2.92 0 00-.32-.155 3.377 3.377 0 01-.384-.182 1.35 1.35 0 01-.284-.208.77.77 0 01-.173-.26.893.893 0 01-.058-.334.93.93 0 01.073-.373.896.896 0 01.217-.301.983.983 0 01.343-.205c.136-.051.29-.077.46-.077.238 0 .442.042.612.127a.914.914 0 01.395.345.965.965 0 01.138.519h-.82a.51.51 0 00-.033-.188.262.262 0 00-.105-.132.339.339 0 00-.19-.046.304.304 0 00-.267.14.273.273 0 00-.038.147.24.24 0 00.026.114c.02.033.05.065.091.097.041.03.096.064.164.1.07.032.156.07.258.11.21.079.384.163.518.252.137.09.239.196.305.317.067.119.1.267.1.442 0 .14-.027.269-.082.384a.836.836 0 01-.232.299 1.074 1.074 0 01-.366.193c-.14.045-.298.068-.472.068-.255 0-.471-.051-.647-.153a1.047 1.047 0 01-.398-.39 1.005 1.005 0 01-.135-.497h.78a.537.537 0 00.058.249c.037.058.087.1.15.123a.587.587 0 00.207.035.51.51 0 00.188-.03.234.234 0 00.114-.096.311.311 0 00.038-.155zm2.596.914a1.56 1.56 0 01-.578-.1 1.142 1.142 0 01-.421-.287 1.287 1.287 0 01-.264-.46c-.06-.18-.09-.385-.09-.615v-.261c0-.258.028-.483.087-.677.059-.195.142-.36.249-.492a.985.985 0 01.396-.296c.158-.066.337-.1.536-.1s.374.034.524.1a.914.914 0 01.378.293c.1.129.175.29.226.48.05.192.076.415.076.668v.375h-2.124v-.577h1.318v-.073a1.08 1.08 0 00-.04-.322.37.37 0 00-.13-.196.387.387 0 00-.234-.065.405.405 0 00-.208.05.343.343 0 00-.135.155.961.961 0 00-.073.276 2.945 2.945 0 00-.024.4v.262c0 .146.013.27.039.369a.652.652 0 00.11.24c.052.06.113.105.185.132a.957.957 0 00.642-.038.897.897 0 00.299-.214l.328.498a1.277 1.277 0 01-.592.404c-.139.047-.299.07-.48.07zm3.802-2.573V18h-.823v-3.17h.774l.05.656zm-.117.82l-.225.006a2.55 2.55 0 01.058-.615c.043-.187.108-.35.194-.489a.948.948 0 01.33-.322.92.92 0 01.466-.114c.116 0 .222.021.32.064a.648.648 0 01.255.196.92.92 0 01.167.346c.039.14.058.31.058.507V18h-.82v-2.016a.979.979 0 00-.041-.322.283.283 0 00-.117-.158.352.352 0 00-.188-.047.337.337 0 00-.205.064.469.469 0 00-.143.182 1.152 1.152 0 00-.082.27 1.993 1.993 0 00-.027.334zm1.544-.081l-.296.038a2.414 2.414 0 01.056-.583c.04-.182.104-.34.19-.475a.951.951 0 01.323-.32.887.887 0 01.454-.114c.129 0 .246.022.351.065a.647.647 0 01.27.208.954.954 0 01.173.372c.04.154.061.342.061.563V18h-.823v-2.019c0-.142-.014-.252-.041-.328-.027-.076-.067-.128-.117-.155a.378.378 0 00-.182-.041c-.07 0-.132.02-.184.059a.465.465 0 00-.13.164.887.887 0 00-.078.243 1.604 1.604 0 00-.027.302zm2.107.298v-.213c0-.248.029-.468.087-.66.061-.191.147-.351.258-.48.112-.13.245-.23.402-.296.158-.068.335-.103.53-.103.197 0 .374.035.53.103.158.066.293.165.405.296.113.129.2.289.26.48.06.192.091.411.091.66v.213c0 .247-.03.465-.09.657a1.35 1.35 0 01-.261.483 1.07 1.07 0 01-.402.296c-.156.066-.332.1-.527.1s-.372-.034-.53-.1a1.097 1.097 0 01-.405-.296 1.35 1.35 0 01-.26-.483 2.243 2.243 0 01-.088-.657zm.82-.213v.213c0 .147.01.274.03.381a.924.924 0 00.09.267c.041.07.09.122.147.155a.38.38 0 00.196.05c.074 0 .14-.017.199-.05a.372.372 0 00.144-.155.826.826 0 00.085-.267c.019-.107.029-.234.029-.38v-.214c0-.143-.01-.268-.032-.375a.885.885 0 00-.091-.267.412.412 0 00-.147-.158.345.345 0 00-.193-.056.345.345 0 00-.193.056.455.455 0 00-.144.158.883.883 0 00-.09.267 2.12 2.12 0 00-.03.375zm3.067-.803V18h-.823v-3.17h.77l.053.677zm-.123.8l-.22.006a2.417 2.417 0 01.068-.642c.05-.19.122-.35.214-.483a.976.976 0 01.334-.308.888.888 0 01.436-.109c.123 0 .236.022.337.065a.66.66 0 01.267.205c.074.094.132.219.173.375.04.154.061.344.061.568V18h-.823v-2.021a.955.955 0 00-.041-.317.274.274 0 00-.123-.158.409.409 0 00-.205-.047.34.34 0 00-.208.067.511.511 0 00-.153.18c-.039.075-.069.165-.09.269a1.66 1.66 0 00-.027.334zm3.548 1.752c-.217 0-.41-.034-.577-.1a1.14 1.14 0 01-.422-.287 1.284 1.284 0 01-.264-.46c-.06-.18-.09-.385-.09-.615v-.261c0-.258.029-.483.087-.677.059-.195.142-.36.25-.492a.983.983 0 01.395-.296c.158-.066.337-.1.536-.1.2 0 .374.034.524.1a.914.914 0 01.379.293c.1.129.174.29.225.48.05.192.076.415.076.668v.375H27.45v-.577h1.319v-.073c0-.129-.014-.236-.041-.322a.37.37 0 00-.13-.196.387.387 0 00-.234-.065.405.405 0 00-.208.05.343.343 0 00-.134.155.964.964 0 00-.074.276 2.945 2.945 0 00-.023.4v.262c0 .146.012.27.038.369a.653.653 0 00.111.24c.051.06.112.105.185.132a.956.956 0 00.642-.038.896.896 0 00.298-.214l.328.498a1.278 1.278 0 01-.592.404c-.138.047-.298.07-.48.07zm2.35-.422l.662-2.807h.855l-1.043 3.645a2.04 2.04 0 01-.096.257 1.098 1.098 0 01-.164.264.768.768 0 01-.252.205.786.786 0 01-.367.08.852.852 0 01-.175-.015 1.666 1.666 0 01-.165-.041v-.64h.05a.528.528 0 00.27-.035.293.293 0 00.132-.11.688.688 0 00.088-.191l.205-.612zm-.17-2.807l.492 2.274.111.925-.553.053-.93-3.252h.88zm4.172 2.335l.553-2.335h.516l-.126.95-.545 2.22h-.43l.032-.835zm-.159-2.335l.378 2.33-.003.84h-.504l-.659-3.17h.788zm1.644 2.291l.366-2.29h.794L36.79 18h-.504l.006-.879zm-.346-2.29l.554 2.317.038.852h-.43l-.545-2.215-.123-.955h.506zm2.719-1.331V18h-.82v-4.5h.82zm-.117 2.807l-.223.006c0-.223.023-.428.068-.616a1.66 1.66 0 01.202-.489.988.988 0 01.32-.322.8.8 0 01.418-.114c.13 0 .25.022.357.067a.71.71 0 01.279.21c.08.097.141.223.184.379.043.156.065.346.065.571V18h-.824v-2.007c0-.137-.013-.244-.04-.322a.288.288 0 00-.123-.164.39.39 0 00-.206-.05.376.376 0 00-.225.067.462.462 0 00-.147.18.996.996 0 00-.082.269 2.243 2.243 0 00-.023.334zm3.548 1.752a1.56 1.56 0 01-.577-.1 1.14 1.14 0 01-.422-.287 1.285 1.285 0 01-.264-.46c-.06-.18-.09-.385-.09-.615v-.261c0-.258.029-.483.087-.677.059-.195.142-.36.25-.492a.984.984 0 01.395-.296c.158-.066.337-.1.536-.1s.374.034.524.1a.914.914 0 01.378.293c.1.129.175.29.226.48.05.192.076.415.076.668v.375H41.09v-.577h1.318v-.073a1.08 1.08 0 00-.04-.322.37.37 0 00-.13-.196.388.388 0 00-.234-.065.405.405 0 00-.208.05.342.342 0 00-.135.155.961.961 0 00-.073.276 2.927 2.927 0 00-.024.4v.262c0 .146.013.27.038.369a.653.653 0 00.112.24c.05.06.112.105.184.132a.956.956 0 00.642-.038.896.896 0 00.299-.214l.328.498a1.278 1.278 0 01-.592.404 1.5 1.5 0 01-.48.07zm2.4-2.552V18h-.824v-3.17h.77l.053.677zm-.124.8l-.22.006a2.417 2.417 0 01.068-.642c.05-.19.122-.35.214-.483a.977.977 0 01.334-.308.887.887 0 01.436-.109c.123 0 .236.022.337.065a.66.66 0 01.267.205c.074.094.132.219.172.375.042.154.062.344.062.568V18h-.823v-2.021a.952.952 0 00-.041-.317.274.274 0 00-.123-.158.41.41 0 00-.205-.047.34.34 0 00-.208.067.512.512 0 00-.153.18c-.039.075-.07.165-.09.269-.02.103-.029.214-.027.334zm5.036-1.477v.618h-1.617v-.618h1.617zm-1.245-.782h.818v2.985c0 .088.008.155.026.202.017.047.044.08.079.1a.346.346 0 00.146.026.562.562 0 00.193-.023v.642a1.135 1.135 0 01-.456.079.921.921 0 01-.428-.094.64.64 0 01-.278-.299 1.27 1.27 0 01-.1-.545v-3.073zm2.523 1.488V18h-.82v-3.17h.773l.046.706zm.747-.73l-.012.818a1.779 1.779 0 00-.27-.023.564.564 0 00-.234.044.39.39 0 00-.161.126.585.585 0 00-.094.205 1.293 1.293 0 00-.038.278l-.155-.059c0-.207.015-.396.047-.568a1.7 1.7 0 01.146-.451.858.858 0 01.232-.299.497.497 0 01.31-.106c.04 0 .08.004.123.012.045.006.08.014.106.024zm1.728 2.464v-1.464a.611.611 0 00-.035-.229.227.227 0 00-.1-.123.29.29 0 00-.158-.04.326.326 0 00-.176.043.27.27 0 00-.105.126.536.536 0 00-.032.196h-.824a.959.959 0 01.311-.709c.103-.093.227-.167.37-.22.142-.052.302-.079.48-.079.21 0 .398.037.562.109.164.07.294.182.39.337.096.154.143.354.143.6v1.413c0 .177.01.322.027.433.02.111.047.207.085.287V18h-.826a1.374 1.374 0 01-.086-.328 3.052 3.052 0 01-.026-.402zm.1-1.206l.003.492h-.302a.512.512 0 00-.205.038.447.447 0 00-.231.267.69.69 0 00-.027.193c0 .076.01.14.032.193a.25.25 0 00.25.161c.09 0 .167-.018.234-.056a.379.379 0 00.146-.134c.033-.053.044-.102.032-.147l.188.32a1.456 1.456 0 01-.097.225.957.957 0 01-.15.217.725.725 0 01-.225.164.736.736 0 01-.313.062.943.943 0 01-.466-.118.87.87 0 01-.334-.328.996.996 0 01-.12-.5c0-.16.025-.305.076-.434a.854.854 0 01.234-.331c.104-.092.235-.162.393-.211.158-.05.344-.073.556-.073h.326zm2.868 1.236v-3.8h.823V18l-.744.003-.08-.703zm-1.644-.774v-.21c0-.258.022-.484.065-.677.045-.194.111-.355.199-.484a.835.835 0 01.322-.287.976.976 0 01.443-.097c.15 0 .282.039.395.115a.928.928 0 01.293.313c.08.135.145.294.194.478.048.183.082.384.102.603v.305c-.023.207-.06.4-.108.58-.047.18-.112.336-.194.469a.979.979 0 01-.29.313.705.705 0 01-.395.112.952.952 0 01-.443-.1.885.885 0 01-.322-.293 1.5 1.5 0 01-.196-.48 3.025 3.025 0 01-.065-.66zm.82-.21v.21c0 .149.008.277.021.384.016.106.04.192.073.26a.367.367 0 00.138.15.432.432 0 00.211.047c.11 0 .198-.027.267-.082a.502.502 0 00.152-.231c.035-.1.055-.214.059-.343v-.554a1.409 1.409 0 00-.038-.29.73.73 0 00-.091-.22.42.42 0 00-.147-.14.387.387 0 00-.199-.05.421.421 0 00-.211.05.343.343 0 00-.135.155.972.972 0 00-.076.267 2.739 2.739 0 00-.023.386zm3.127-1.486V18h-.824v-3.17h.824zm-.862-.82a.43.43 0 01.12-.314.438.438 0 01.329-.126c.138 0 .248.042.328.126a.43.43 0 01.12.314.43.43 0 01-.123.313.43.43 0 01-.322.123.447.447 0 01-.332-.123.437.437 0 01-.12-.313zm2.318 1.497V18h-.823v-3.17h.77l.053.677zm-.123.8l-.22.006a2.417 2.417 0 01.067-.642c.051-.19.122-.35.214-.483a.976.976 0 01.334-.308.887.887 0 01.437-.109c.123 0 .235.022.337.065a.66.66 0 01.266.205c.074.094.132.219.173.375.041.154.062.344.062.568V18h-.824v-2.021a.952.952 0 00-.04-.317.274.274 0 00-.124-.158.41.41 0 00-.205-.047.34.34 0 00-.208.067.512.512 0 00-.152.18c-.04.075-.07.165-.091.269a1.66 1.66 0 00-.026.334zm3.937-1.477h.744V18c0 .29-.055.525-.167.709a.972.972 0 01-.46.407 1.657 1.657 0 01-1.38-.035.944.944 0 01-.284-.2l.279-.567c.076.076.175.14.298.193a.89.89 0 00.364.082c.115 0 .21-.019.287-.056a.348.348 0 00.176-.181.812.812 0 00.061-.346v-2.44l.082-.736zm-1.77 1.696v-.21c0-.258.025-.484.074-.677a1.43 1.43 0 01.21-.484.86.86 0 01.338-.287c.134-.064.285-.097.45-.097.175 0 .32.039.437.115a.822.822 0 01.285.313c.074.135.13.294.17.478.04.183.072.384.093.603v.305a3.65 3.65 0 01-.105.58c-.047.18-.11.336-.188.469a.95.95 0 01-.287.313.732.732 0 01-.41.112.982.982 0 01-.445-.1.942.942 0 01-.337-.293 1.466 1.466 0 01-.211-.48 2.674 2.674 0 01-.073-.66zm.824-.21v.21c0 .149.009.277.026.384.02.106.05.192.088.26.04.067.089.117.15.15a.485.485 0 00.22.047c.118 0 .213-.027.283-.082a.483.483 0 00.159-.231c.035-.1.054-.214.058-.343v-.554a1.18 1.18 0 00-.038-.29.725.725 0 00-.09-.22.404.404 0 00-.153-.14.438.438 0 00-.214-.05.445.445 0 00-.217.05.402.402 0 00-.152.155.881.881 0 00-.09.267 2.19 2.19 0 00-.03.386zm5.76.263h.852c-.012.32-.076.59-.193.812a1.174 1.174 0 01-.501.498c-.215.113-.475.17-.78.17-.236 0-.446-.04-.63-.118a1.26 1.26 0 01-.468-.351 1.565 1.565 0 01-.293-.571 2.914 2.914 0 01-.097-.788v-.724c0-.297.034-.56.103-.788.07-.229.17-.42.299-.574.13-.157.288-.274.471-.352.186-.08.395-.12.627-.12.31 0 .57.058.78.176.208.117.37.288.483.512.115.223.184.495.208.818h-.855a1.617 1.617 0 00-.07-.478.413.413 0 00-.188-.246.727.727 0 00-.358-.073c-.113 0-.21.02-.293.061a.472.472 0 00-.202.19 1.023 1.023 0 00-.117.347 3.286 3.286 0 00-.035.521v.73c0 .2.01.372.032.515.022.14.056.256.103.346.046.09.11.155.19.196a.692.692 0 00.31.062.8.8 0 00.35-.065.403.403 0 00.198-.231c.043-.112.068-.27.074-.475zm2.247-2.845V18h-.859v-4.266h.859zm1.336 1.814v.709h-1.553v-.71h1.553zm.164-1.814v.712h-1.717v-.712h1.717zM73.877 18h-.753l.006-.709h.747c.207 0 .368-.037.483-.111a.598.598 0 00.243-.352c.05-.16.074-.37.074-.63v-.665c0-.197-.013-.364-.038-.5a.82.82 0 00-.13-.335.536.536 0 00-.242-.19 1.014 1.014 0 00-.378-.062h-.78v-.712h.78c.246 0 .47.04.67.12.202.08.375.198.52.352.144.152.255.34.333.566.078.224.117.48.117.767v.66c0 .288-.039.544-.117.767-.078.223-.19.411-.334.565a1.405 1.405 0 01-.518.349c-.204.08-.431.12-.683.12zm-.255-4.266V18h-.858v-4.266h.858zm3.9 3.41a.218.218 0 00-.056-.146.66.66 0 00-.176-.132 2.91 2.91 0 00-.32-.155 3.385 3.385 0 01-.383-.182 1.355 1.355 0 01-.284-.208.77.77 0 01-.173-.26.892.892 0 01-.059-.334.93.93 0 01.073-.373.897.897 0 01.217-.301.983.983 0 01.343-.205c.137-.051.29-.077.46-.077.238 0 .442.042.612.127a.914.914 0 01.396.345.965.965 0 01.138.519h-.82a.51.51 0 00-.033-.188.262.262 0 00-.105-.132.339.339 0 00-.19-.046.305.305 0 00-.267.14.273.273 0 00-.039.147.24.24 0 00.027.114c.02.033.05.065.09.097.042.03.096.064.165.1.07.032.156.07.257.11.211.079.384.163.52.252.136.09.237.196.304.317.066.119.1.267.1.442 0 .14-.028.269-.083.384a.836.836 0 01-.231.299 1.076 1.076 0 01-.366.193c-.141.045-.298.068-.472.068-.256 0-.472-.051-.648-.153a1.047 1.047 0 01-.398-.39 1.004 1.004 0 01-.135-.497h.78a.538.538 0 00.058.249c.037.058.087.1.15.123a.587.587 0 00.208.035.51.51 0 00.187-.03.234.234 0 00.114-.096.31.31 0 00.038-.155zM6.049 24.166l.554-2.335h.515l-.126.95L6.447 25h-.43l.032-.835zM5.89 21.83l.378 2.33-.003.84h-.504l-.66-3.17h.789zm1.643 2.291l.366-2.29h.794L8.032 25h-.504l.006-.879zm-.346-2.29l.554 2.317.038.852h-.43l-.545-2.215-.123-.955h.506zm2.78 0V25h-.822v-3.17h.823zm-.86-.821a.43.43 0 01.12-.314.438.438 0 01.328-.126c.138 0 .248.042.328.126a.43.43 0 01.12.314.43.43 0 01-.123.313.43.43 0 01-.322.123.447.447 0 01-.331-.123.436.436 0 01-.12-.313zm2.894.82v.618h-1.617v-.618h1.617zm-1.245-.782h.817v2.985c0 .088.009.155.027.202a.18.18 0 00.079.1.346.346 0 00.146.026.556.556 0 00.193-.023v.642a1.134 1.134 0 01-.457.079.92.92 0 01-.427-.094.64.64 0 01-.279-.299 1.27 1.27 0 01-.1-.545v-3.073zm2.502-.548V25h-.82v-4.5h.82zm-.117 2.807l-.223.006c0-.223.022-.428.067-.616a1.66 1.66 0 01.202-.489.988.988 0 01.32-.322.8.8 0 01.419-.114c.13 0 .25.022.357.067a.71.71 0 01.278.21c.08.096.142.223.185.379.043.156.065.346.065.571V25h-.824v-2.007a1.01 1.01 0 00-.04-.322.289.289 0 00-.124-.164.389.389 0 00-.205-.05.376.376 0 00-.225.067.461.461 0 00-.147.18.996.996 0 00-.082.269 2.243 2.243 0 00-.023.334zm5.036-1.477v.618H16.56v-.618h1.617zm-1.245-.782h.817v2.985c0 .088.009.155.026.202a.18.18 0 00.08.1.346.346 0 00.146.026.559.559 0 00.193-.023v.642a1.132 1.132 0 01-.457.079.921.921 0 01-.427-.094.64.64 0 01-.279-.299 1.27 1.27 0 01-.1-.545v-3.073zm2.502-.548V25h-.82v-4.5h.82zm-.118 2.807l-.222.006c0-.223.022-.428.067-.616a1.66 1.66 0 01.202-.489.987.987 0 01.32-.322.8.8 0 01.418-.114c.131 0 .25.022.358.067a.71.71 0 01.278.21c.08.096.142.223.185.379.043.156.064.346.064.571V25h-.823v-2.007c0-.137-.014-.244-.041-.322a.288.288 0 00-.123-.164.389.389 0 00-.205-.05.376.376 0 00-.226.067.462.462 0 00-.146.18.992.992 0 00-.082.269 2.243 2.243 0 00-.024.334zm3.132-1.477V25h-.823v-3.17h.823zm-.861-.82a.43.43 0 01.12-.314.438.438 0 01.328-.126c.139 0 .248.042.328.126a.43.43 0 01.12.314.43.43 0 01-.123.313.43.43 0 01-.322.123.447.447 0 01-.331-.123.436.436 0 01-.12-.313zm2.918 3.134a.218.218 0 00-.056-.146.66.66 0 00-.176-.132 2.92 2.92 0 00-.319-.155 3.377 3.377 0 01-.384-.182 1.352 1.352 0 01-.284-.208.769.769 0 01-.173-.26.892.892 0 01-.058-.334.93.93 0 01.073-.372.897.897 0 01.217-.302.983.983 0 01.343-.205c.136-.051.29-.076.46-.076.238 0 .442.042.612.126a.913.913 0 01.395.345.965.965 0 01.138.519h-.82a.51.51 0 00-.033-.188.262.262 0 00-.105-.132.338.338 0 00-.19-.047.304.304 0 00-.267.14.273.273 0 00-.038.148.24.24 0 00.026.114c.02.033.05.065.091.097.041.03.096.064.164.1.07.032.156.07.258.11.21.079.384.163.518.252.137.09.239.196.305.317.067.119.1.267.1.442 0 .14-.028.269-.082.384a.836.836 0 01-.232.299 1.075 1.075 0 01-.366.193c-.14.045-.298.068-.472.068-.256 0-.471-.051-.647-.153a1.046 1.046 0 01-.399-.39 1.004 1.004 0 01-.134-.497h.779a.537.537 0 00.059.249c.037.058.086.1.149.123a.587.587 0 00.208.035.51.51 0 00.188-.03.234.234 0 00.114-.096.31.31 0 00.038-.155zm3.521-1.704v3.779h-.817V21.83h.756l.061.61zm1.647.867v.21c0 .249-.022.468-.065.66a1.49 1.49 0 01-.193.483.857.857 0 01-.316.299.948.948 0 01-.446.1.741.741 0 01-.41-.112.952.952 0 01-.287-.313 1.844 1.844 0 01-.188-.466 4.38 4.38 0 01-.108-.571v-.328a4.53 4.53 0 01.103-.598c.045-.184.106-.343.184-.478a.91.91 0 01.29-.31.74.74 0 01.41-.111c.172 0 .322.03.449.093a.796.796 0 01.319.284c.086.125.15.285.193.478.043.193.065.42.065.68zm-.82.21v-.21c0-.153-.01-.283-.027-.39a.849.849 0 00-.076-.264.344.344 0 00-.138-.15.426.426 0 00-.208-.046c-.08 0-.15.016-.21.047a.373.373 0 00-.144.138.69.69 0 00-.085.216c-.02.084-.03.18-.032.287v.575c.003.127.02.239.05.337a.502.502 0 00.149.234.423.423 0 00.278.085.377.377 0 00.208-.053.378.378 0 00.138-.158c.035-.07.06-.16.073-.267.016-.107.024-.234.024-.38zm2.144-.98V25h-.82v-3.17h.773l.047.706zm.747-.73l-.012.817a1.779 1.779 0 00-.27-.023.564.564 0 00-.233.043.39.39 0 00-.162.127.585.585 0 00-.093.205 1.293 1.293 0 00-.039.278l-.155-.059c0-.207.016-.396.047-.568a1.7 1.7 0 01.147-.451.858.858 0 01.231-.299.497.497 0 01.31-.105c.04 0 .08.003.124.011.045.006.08.014.105.024zm.22 1.716v-.213c0-.248.03-.468.088-.66.06-.191.146-.351.258-.48.11-.13.245-.23.4-.296.16-.068.336-.102.531-.102.198 0 .374.034.53.102.159.066.293.165.405.296.113.129.2.289.26.48.061.192.091.412.091.66v.213c0 .247-.03.465-.09.657a1.35 1.35 0 01-.261.483c-.112.13-.245.23-.402.296-.156.066-.332.1-.527.1s-.372-.034-.53-.1a1.096 1.096 0 01-.405-.296c-.113-.13-.2-.292-.26-.483a2.243 2.243 0 01-.088-.657zm.82-.213v.213c0 .147.01.274.03.381a.92.92 0 00.09.267c.041.07.09.122.147.155a.38.38 0 00.196.05c.074 0 .14-.017.2-.05a.37.37 0 00.143-.155c.039-.07.067-.16.085-.267.02-.107.03-.234.03-.38v-.214c0-.143-.012-.268-.033-.375a.883.883 0 00-.091-.267.411.411 0 00-.147-.158.345.345 0 00-.193-.056.345.345 0 00-.193.056.455.455 0 00-.144.158.88.88 0 00-.09.267c-.02.107-.03.232-.03.375zm3.15 1.057l.51-2.537h.855L36.43 25h-.513l.018-.633zm-.302-2.537l.518 2.54.01.63h-.517l-.87-3.17h.859zm2.924 0V25h-.824v-3.17h.824zm-.862-.82a.43.43 0 01.12-.314.438.438 0 01.329-.126c.138 0 .248.042.328.126a.43.43 0 01.12.314.43.43 0 01-.123.313.43.43 0 01-.322.123.447.447 0 01-.332-.123.437.437 0 01-.12-.313zm3.047 3.29v-3.8h.823V25l-.744.003-.079-.703zm-1.643-.774v-.21c0-.258.021-.484.064-.677.045-.194.111-.355.2-.484a.835.835 0 01.322-.287.975.975 0 01.442-.096c.15 0 .282.038.395.114a.928.928 0 01.293.313c.08.135.145.294.194.478.049.183.083.384.102.603v.305c-.023.207-.06.4-.108.58-.047.18-.111.336-.193.469a.979.979 0 01-.29.313.705.705 0 01-.396.112.952.952 0 01-.442-.1.885.885 0 01-.323-.293 1.497 1.497 0 01-.196-.48 3.025 3.025 0 01-.064-.66zm.82-.21v.21c0 .149.007.277.02.384.016.106.04.192.074.26a.367.367 0 00.137.15.431.431 0 00.211.047c.11 0 .199-.027.267-.082a.502.502 0 00.152-.231c.035-.1.055-.214.059-.343v-.554a1.409 1.409 0 00-.038-.29.73.73 0 00-.091-.22.42.42 0 00-.147-.14.387.387 0 00-.199-.05.421.421 0 00-.21.05.343.343 0 00-.135.155.972.972 0 00-.077.267 2.737 2.737 0 00-.023.386zm3.542 1.743a1.56 1.56 0 01-.577-.1 1.141 1.141 0 01-.422-.287 1.287 1.287 0 01-.264-.46c-.06-.18-.09-.385-.09-.615v-.261c0-.258.029-.483.087-.677.059-.195.142-.36.25-.492a.985.985 0 01.395-.296c.158-.066.337-.1.536-.1.2 0 .374.034.524.1a.914.914 0 01.378.293c.1.129.175.29.226.48.05.192.076.415.076.669v.375h-2.124v-.578h1.318v-.073a1.08 1.08 0 00-.04-.322.37.37 0 00-.13-.196.387.387 0 00-.234-.065.405.405 0 00-.208.05.343.343 0 00-.135.155.961.961 0 00-.073.276 2.945 2.945 0 00-.023.4v.262c0 .146.012.27.038.369a.65.65 0 00.111.24c.05.06.112.105.185.132a.956.956 0 00.642-.038.898.898 0 00.298-.214l.328.498a1.277 1.277 0 01-.592.404c-.138.047-.298.07-.48.07zm2.414-2.523V25h-.82v-3.17h.773l.047.706zm.747-.73l-.012.818a1.781 1.781 0 00-.27-.023.564.564 0 00-.234.043.392.392 0 00-.16.127.585.585 0 00-.094.205 1.293 1.293 0 00-.038.278l-.156-.059c0-.207.016-.396.047-.568.033-.174.082-.324.147-.451a.858.858 0 01.231-.299.497.497 0 01.31-.105.69.69 0 01.124.011c.044.006.08.014.105.024zm-.017 2.775c0-.129.043-.236.128-.322a.465.465 0 01.349-.132c.146 0 .263.044.349.132a.437.437 0 01.129.322.437.437 0 01-.13.322.471.471 0 01-.348.13.47.47 0 01-.349-.13.437.437 0 01-.128-.322zm4.32-1.705l.874-2.142h.606l-1.213 2.675V25h-.536v-1.59l-1.213-2.676h.61l.873 2.142zm1.662.393c0-.461.111-.826.334-1.093.224-.27.52-.404.888-.404.367 0 .662.13.884.392.225.262.34.618.346 1.07v.333c0 .46-.111.823-.334 1.09-.223.268-.52.402-.89.402-.368 0-.663-.13-.885-.39-.221-.26-.335-.611-.343-1.055v-.345zm.518.298c0 .327.064.583.19.77a.602.602 0 00.52.28c.457 0 .692-.33.706-.991v-.357c0-.325-.065-.58-.194-.768a.598.598 0 00-.518-.284.593.593 0 00-.513.284c-.127.188-.19.442-.19.765v.301zm4.22 1.155c-.173.224-.424.337-.754.337-.287 0-.504-.099-.65-.296-.147-.2-.22-.489-.223-.868V21.83h.516v2.027c0 .495.148.742.445.742.315 0 .531-.141.65-.422V21.83h.52V25h-.493l-.012-.278zm4.2-.534a.383.383 0 00-.126-.287c-.084-.08-.246-.174-.486-.28a3.237 3.237 0 01-.592-.297.852.852 0 01-.255-.278.782.782 0 01-.085-.375c0-.258.094-.472.282-.642.19-.172.43-.258.723-.258.309 0 .557.09.745.27.187.18.28.41.28.691h-.515a.505.505 0 00-.51-.515.515.515 0 00-.36.12.406.406 0 00-.129.316c0 .106.031.19.094.255.064.065.218.15.46.255.384.15.646.298.785.442a.749.749 0 01.208.545.837.837 0 01-.284.663c-.19.164-.444.246-.762.246-.33 0-.598-.095-.803-.285a.938.938 0 01-.307-.72h.521a.58.58 0 00.161.413c.102.1.245.15.428.15.172 0 .303-.039.393-.115a.395.395 0 00.134-.313zm1.714-2.033a.914.914 0 01.756-.384c.56 0 .845.374.853 1.123V25h-.516v-2.083c0-.248-.042-.424-.126-.527-.082-.106-.206-.159-.372-.159a.531.531 0 00-.349.13.936.936 0 00-.246.336V25h-.518v-4.5h.518v1.655zm2.274 1.114c0-.461.111-.826.334-1.093.224-.27.52-.404.887-.404.368 0 .663.13.885.392.225.262.34.618.346 1.07v.333c0 .46-.112.823-.334 1.09-.223.268-.52.402-.89.402-.368 0-.663-.13-.885-.39-.221-.26-.335-.611-.343-1.055v-.345zm.518.298c0 .327.064.583.19.77a.601.601 0 00.52.28c.456 0 .692-.33.705-.991v-.357c0-.325-.064-.58-.193-.768a.598.598 0 00-.519-.284.593.593 0 00-.512.284c-.127.188-.19.442-.19.765v.301zm4.219 1.155c-.172.224-.423.337-.753.337-.287 0-.504-.099-.65-.296-.147-.2-.221-.489-.223-.868V21.83h.516v2.027c0 .495.148.742.445.742.314 0 .531-.141.65-.422V21.83h.519V25h-.492l-.012-.278zm1.843.278h-.519v-4.5h.519V25zm.709-1.729c0-.488.09-.86.272-1.116.184-.256.447-.384.788-.384.303 0 .54.123.71.37V20.5h.518V25h-.475l-.026-.34a.816.816 0 01-.73.399.909.909 0 01-.773-.381c-.186-.256-.28-.617-.284-1.081v-.326zm.518.296c0 .356.053.618.159.785.105.167.277.25.515.25.258 0 .45-.13.577-.39v-1.6c-.132-.254-.324-.38-.574-.38-.238 0-.41.083-.516.251-.105.166-.159.422-.16.768v.316zm-66.832 8.05c.172 0 .31-.053.413-.159.104-.107.16-.26.17-.457h.49a1.08 1.08 0 01-.326.759c-.203.199-.452.299-.747.299-.392 0-.692-.123-.9-.37-.204-.248-.307-.616-.307-1.104v-.349c0-.478.103-.841.308-1.09.205-.25.504-.375.896-.375.325 0 .581.103.77.308.192.205.294.485.306.84h-.49c-.011-.233-.068-.41-.17-.526a.516.516 0 00-.416-.176c-.23 0-.401.076-.512.228-.112.15-.17.399-.173.744v.405c0 .373.054.636.164.79.111.155.286.232.524.232zm1.562-1.348c0-.461.111-.826.334-1.093.224-.27.52-.404.887-.404.368 0 .663.13.885.392.225.262.34.618.346 1.07v.333c0 .46-.111.823-.334 1.09-.223.268-.52.402-.89.402-.368 0-.663-.13-.885-.39-.221-.26-.335-.611-.343-1.055v-.345zm.518.298c0 .327.064.583.19.77a.602.602 0 00.52.28c.456 0 .692-.33.705-.991v-.357c0-.325-.064-.58-.193-.768a.598.598 0 00-.519-.284.593.593 0 00-.512.284c-.127.188-.19.442-.19.765v.301zm3.091-1.737l.015.343c.201-.268.458-.401.77-.401.56 0 .845.373.853 1.122V32h-.516v-2.083c0-.248-.042-.424-.126-.527-.082-.106-.206-.159-.372-.159a.531.531 0 00-.348.13.936.936 0 00-.247.336V32h-.518v-3.17h.49zm3.958 2.359a.383.383 0 00-.126-.288c-.084-.08-.246-.174-.486-.28a3.237 3.237 0 01-.592-.297.852.852 0 01-.255-.278.782.782 0 01-.085-.375c0-.258.094-.472.281-.642.19-.172.431-.258.724-.258.309 0 .557.09.744.27.188.18.282.41.282.691h-.516a.505.505 0 00-.51-.515.515.515 0 00-.36.12.406.406 0 00-.13.316c0 .106.032.19.095.255.064.065.217.15.46.255.384.15.646.298.785.442a.749.749 0 01.208.545.837.837 0 01-.284.663c-.19.164-.444.246-.762.246-.33 0-.598-.095-.803-.285a.938.938 0 01-.308-.72h.522a.58.58 0 00.161.413c.102.1.244.15.428.15.172 0 .303-.039.392-.115a.395.395 0 00.135-.313zm1.755.811h-.518v-3.17h.518V32zm.041-4.01a.331.331 0 01-.073.219c-.049.059-.123.088-.223.088-.098 0-.17-.03-.22-.088a.331.331 0 01-.073-.22c0-.088.025-.162.073-.222.05-.06.123-.091.22-.091.098 0 .171.031.22.094a.33.33 0 01.076.22zm.668 2.282c0-.489.09-.86.273-1.117.183-.256.446-.384.788-.384.302 0 .539.123.709.37V27.5h.518V32h-.474l-.027-.34a.816.816 0 01-.73.399.909.909 0 01-.773-.381c-.185-.256-.28-.617-.284-1.081v-.326zm.519.295c0 .356.052.618.158.785.105.167.277.25.515.25.258 0 .45-.13.578-.39v-1.6c-.133-.254-.325-.38-.575-.38-.238 0-.41.083-.515.251-.106.166-.16.422-.161.768v.316zm3.7 1.492c-.395 0-.698-.118-.908-.352-.211-.236-.319-.582-.323-1.037v-.384c0-.473.103-.843.308-1.11.207-.27.495-.404.864-.404.371 0 .649.118.832.354.184.236.278.604.282 1.104v.34h-1.77v.074c0 .34.063.587.19.74.13.155.314.232.554.232a.899.899 0 00.401-.085c.118-.058.227-.15.329-.275l.27.328c-.226.316-.568.475-1.03.475zm-.059-2.842c-.215 0-.374.074-.477.223-.104.146-.162.374-.176.685h1.248v-.07c-.014-.301-.068-.516-.164-.645-.094-.129-.237-.193-.43-.193zm3.047.1a1.26 1.26 0 00-.234-.021c-.266 0-.451.145-.557.436V32h-.518v-3.17h.503l.01.322c.138-.254.334-.38.588-.38.082 0 .15.013.205.04l.003.504zm4.26 1.772l.48-2.259h.513L29.765 32h-.413l-.619-2.268L28.13 32h-.416l-.77-3.17h.51l.491 2.203.59-2.203h.41l.603 2.259zm2.057-1.934a.915.915 0 01.755-.384c.56 0 .845.374.853 1.123V32h-.516v-2.083c0-.248-.042-.424-.126-.527-.082-.106-.206-.159-.372-.159a.531.531 0 00-.348.13.936.936 0 00-.246.336V32h-.52v-4.5h.52v1.655zm3.515 2.904c-.394 0-.697-.118-.908-.352-.211-.236-.318-.582-.322-1.037v-.384c0-.473.102-.843.307-1.11.207-.27.495-.404.864-.404.372 0 .649.118.833.354.183.236.277.604.28 1.104v.34h-1.769v.074c0 .34.064.587.19.74.13.155.314.232.554.232a.899.899 0 00.402-.085c.117-.058.226-.15.328-.275l.27.328c-.225.316-.568.475-1.029.475zm-.058-2.842c-.215 0-.374.074-.478.223-.104.146-.162.374-.176.685h1.248v-.07c-.013-.301-.068-.516-.164-.645-.094-.129-.237-.193-.43-.193zm2.416-1.154v.767h.478v.419h-.478v1.966c0 .125.021.22.062.284.041.065.111.097.211.097a.654.654 0 00.208-.035l-.006.439c-.117.04-.237.059-.36.059-.205 0-.362-.074-.469-.22-.107-.147-.161-.354-.161-.621v-1.969h-.483v-.419h.483v-.767h.515zm1.615 1.092a.914.914 0 01.756-.384c.56 0 .844.374.852 1.123V32h-.516v-2.083c0-.248-.041-.424-.125-.527-.083-.106-.207-.159-.373-.159a.531.531 0 00-.348.13.936.936 0 00-.246.336V32h-.519v-4.5h.519v1.655zm3.515 2.904c-.394 0-.697-.118-.908-.352-.21-.236-.318-.582-.322-1.037v-.384c0-.473.102-.843.307-1.11.208-.27.496-.404.865-.404.37 0 .648.118.832.354.183.236.277.604.281 1.104v.34h-1.77v.074c0 .34.064.587.191.74.129.155.313.232.554.232a.899.899 0 00.401-.085c.117-.058.227-.15.328-.275l.27.328c-.225.316-.568.475-1.029.475zm-.058-2.842c-.215 0-.374.074-.478.223-.103.146-.162.374-.175.685h1.248v-.07c-.014-.301-.069-.516-.165-.645-.093-.129-.237-.193-.43-.193zm3.047.1a1.26 1.26 0 00-.235-.021c-.265 0-.45.145-.556.436V32h-.519v-3.17h.504l.009.322c.139-.254.335-.38.589-.38.082 0 .15.013.205.04l.003.504zm2.762 1.822l.578-2.309h.55l-1.037 3.618c-.078.272-.188.478-.33.618a.67.67 0 01-.487.214c-.07 0-.16-.015-.27-.047v-.44l.114.013c.15 0 .268-.036.352-.109.086-.07.155-.193.208-.369l.103-.354-.932-3.144h.565l.586 2.309zm1.527-.87c0-.461.111-.826.334-1.093.224-.27.52-.404.887-.404.368 0 .663.13.885.392.225.262.34.618.346 1.07v.333c0 .46-.111.823-.334 1.09-.223.268-.52.402-.89.402-.368 0-.663-.13-.886-.39-.22-.26-.334-.611-.342-1.055v-.345zm.518.298c0 .327.064.583.19.77a.602.602 0 00.52.28c.456 0 .692-.33.705-.991v-.357c0-.325-.064-.58-.193-.768a.598.598 0 00-.519-.284.593.593 0 00-.512.284c-.127.188-.19.442-.19.765v.301zm4.219 1.155c-.172.224-.423.337-.753.337-.287 0-.504-.099-.65-.296-.147-.2-.221-.489-.223-.868V28.83h.516v2.027c0 .495.148.742.445.742.315 0 .531-.141.65-.422V28.83h.519V32h-.492l-.012-.278zm4.277 0c-.172.224-.422.337-.752.337-.288 0-.504-.099-.65-.296-.147-.2-.222-.489-.224-.868V28.83h.516v2.027c0 .495.148.742.445.742.315 0 .532-.141.65-.422V28.83h.52V32h-.493l-.012-.278zm1.773-2.892l.014.343c.202-.268.459-.401.771-.401.56 0 .845.373.852 1.122V32h-.515v-2.083c0-.248-.042-.424-.126-.527-.082-.106-.206-.159-.372-.159a.532.532 0 00-.349.13.937.937 0 00-.246.336V32h-.518v-3.17h.489zm2.308 1.442c0-.489.091-.86.273-1.117.184-.256.446-.384.788-.384.303 0 .54.123.709.37V27.5h.518V32h-.474l-.026-.34a.816.816 0 01-.73.399.909.909 0 01-.773-.381c-.186-.256-.28-.617-.285-1.081v-.326zm.519.295c0 .356.053.618.158.785.106.167.277.25.516.25.258 0 .45-.13.577-.39v-1.6c-.133-.254-.324-.38-.574-.38-.239 0-.41.083-.516.251-.105.166-.159.422-.161.768v.316zm3.7 1.492c-.394 0-.697-.118-.908-.352-.21-.236-.318-.582-.322-1.037v-.384c0-.473.102-.843.307-1.11.207-.27.495-.404.865-.404s.648.118.832.354c.183.236.277.604.28 1.104v.34h-1.769v.074c0 .34.064.587.19.74.13.155.314.232.555.232a.899.899 0 00.4-.085c.118-.058.227-.15.329-.275l.27.328c-.225.316-.568.475-1.029.475zm-.058-2.842c-.215 0-.374.074-.478.223-.103.146-.162.374-.176.685h1.248v-.07c-.013-.301-.068-.516-.164-.645-.094-.129-.237-.193-.43-.193zm3.047.1a1.26 1.26 0 00-.235-.021c-.265 0-.451.145-.556.436V32h-.52v-3.17h.505l.009.322c.138-.254.335-.38.589-.38.082 0 .15.013.205.04l.002.504zm2.059 1.872a.383.383 0 00-.126-.288c-.084-.08-.246-.174-.486-.28a3.24 3.24 0 01-.592-.297.852.852 0 01-.255-.278.781.781 0 01-.085-.375c0-.258.094-.472.281-.642.19-.172.431-.258.724-.258.309 0 .557.09.744.27.188.18.281.41.281.691h-.515a.505.505 0 00-.51-.515.515.515 0 00-.36.12.407.407 0 00-.13.316c0 .106.032.19.095.255.064.065.217.15.46.255.384.15.646.298.785.442a.749.749 0 01.208.545.837.837 0 01-.285.663c-.189.164-.443.246-.761.246-.33 0-.598-.095-.803-.285a.938.938 0 01-.308-.72h.522a.58.58 0 00.161.413c.101.1.244.15.428.15.172 0 .302-.039.392-.115a.395.395 0 00.135-.313zm1.875-3.127v.768h.478v.419h-.478v1.966c0 .125.02.22.062.284.04.065.11.097.21.097a.653.653 0 00.209-.035l-.006.439c-.117.04-.238.059-.36.059-.206 0-.362-.074-.47-.22-.107-.147-.16-.354-.16-.621v-1.969h-.484v-.419h.483v-.767h.516zM76.851 32a1.14 1.14 0 01-.068-.346c-.183.27-.418.405-.703.405-.287 0-.512-.08-.674-.24-.16-.163-.24-.39-.24-.683 0-.322.11-.578.328-.768.219-.19.519-.286.9-.29h.38v-.337c0-.19-.042-.324-.126-.404-.084-.08-.212-.12-.383-.12a.527.527 0 00-.381.14.461.461 0 00-.147.352h-.518c0-.162.048-.316.143-.463a.995.995 0 01.387-.348 1.16 1.16 0 01.542-.127c.324 0 .57.081.738.244.17.16.257.394.261.703v1.6c.002.243.035.455.1.635V32h-.54zm-.692-.413a.687.687 0 00.363-.106.65.65 0 00.252-.263v-.756h-.293c-.246.004-.44.06-.583.167a.522.522 0 00-.213.445c0 .18.036.31.108.393.072.08.194.12.366.12zm2.426-2.757l.015.343c.2-.268.458-.401.77-.401.56 0 .845.373.853 1.122V32h-.516v-2.083c0-.248-.042-.424-.126-.527-.082-.106-.206-.159-.372-.159a.531.531 0 00-.349.13.936.936 0 00-.246.336V32h-.518v-3.17h.489zm2.309 1.442c0-.489.09-.86.272-1.117.184-.256.446-.384.788-.384.303 0 .54.123.71.37V27.5h.518V32h-.475l-.026-.34a.816.816 0 01-.73.399.909.909 0 01-.773-.381c-.186-.256-.28-.617-.284-1.081v-.326zm.518.295c0 .356.053.618.158.785.106.167.278.25.516.25.258 0 .45-.13.577-.39v-1.6c-.133-.254-.324-.38-.574-.38-.238 0-.41.083-.516.251-.105.166-.159.422-.16.768v.316zM5.905 36.155a.914.914 0 01.756-.383c.56 0 .845.373.853 1.122V39h-.516v-2.083c0-.248-.042-.424-.126-.527-.082-.106-.206-.159-.372-.159a.532.532 0 00-.349.13.936.936 0 00-.246.336V39h-.518v-4.5h.518v1.655zM8.18 37.27c0-.461.111-.826.334-1.093.224-.27.52-.404.887-.404.368 0 .662.13.885.392.225.262.34.618.346 1.07v.333c0 .46-.111.823-.334 1.09-.223.268-.52.402-.89.402-.368 0-.663-.13-.886-.39-.22-.26-.334-.611-.342-1.055v-.345zm.518.298c0 .327.064.583.19.77a.601.601 0 00.52.28c.456 0 .692-.33.705-.991v-.357c0-.325-.064-.58-.193-.768a.598.598 0 00-.519-.284.593.593 0 00-.512.284c-.127.188-.19.442-.19.765v.301zm4.966.522l.48-2.259h.513L13.88 39h-.413l-.618-2.268L12.245 39h-.416l-.77-3.17h.51l.491 2.203.59-2.203h.41l.603 2.259zm5.663-.442c-.023.456-.152.806-.387 1.048-.232.242-.561.364-.987.364-.428 0-.767-.162-1.02-.487-.251-.326-.377-.767-.377-1.324v-.773c0-.555.129-.994.386-1.316.26-.322.614-.483 1.061-.483.412 0 .73.124.955.372.227.246.35.599.37 1.057h-.543c-.023-.347-.096-.595-.22-.744-.123-.148-.31-.222-.562-.222a.764.764 0 00-.67.342c-.157.227-.235.56-.235 1v.782c0 .431.072.762.216.993.147.23.36.346.64.346.278 0 .48-.07.603-.208.123-.14.199-.388.228-.747h.542zm2.707-.53h-1.441V39h-.536v-4.266h2.22v.463h-1.684v1.46h1.441v.46zM22.938 39v-4.266h1.017c.498 0 .885.157 1.16.47.276.31.413.747.413 1.312v.715c0 .564-.14 1-.419 1.309-.279.307-.684.46-1.215.46h-.955zm.537-3.803v3.343h.43c.377 0 .653-.107.826-.322.174-.217.263-.537.267-.961V36.5c0-.45-.087-.778-.26-.987-.173-.211-.433-.317-.783-.317h-.48zm4.359 2.991a.383.383 0 00-.126-.287c-.084-.08-.246-.174-.486-.28a3.237 3.237 0 01-.592-.297.852.852 0 01-.255-.278.782.782 0 01-.085-.375c0-.258.094-.472.281-.642.19-.172.431-.258.724-.258.308 0 .557.09.744.27.188.18.281.41.281.691h-.515a.505.505 0 00-.51-.515.515.515 0 00-.36.12.406.406 0 00-.13.316c0 .106.032.19.094.255.065.065.218.15.46.255.385.15.647.298.785.443a.749.749 0 01.209.544.837.837 0 01-.285.663c-.19.164-.443.246-.761.246-.33 0-.598-.095-.803-.285a.938.938 0 01-.308-.72h.522a.58.58 0 00.16.413c.102.1.245.15.429.15.172 0 .302-.039.392-.115a.395.395 0 00.135-.314zm4.936-.1l.481-2.258h.513L32.987 39h-.413l-.618-2.268L31.352 39h-.416l-.77-3.17h.51l.492 2.203.589-2.203h.41l.603 2.259zm1.43-.82c0-.46.111-.825.334-1.092.225-.27.52-.404.888-.404.367 0 .662.13.885.392.224.262.34.618.345 1.07v.333c0 .46-.111.823-.334 1.09-.222.268-.52.402-.89.402-.367 0-.662-.13-.885-.39-.22-.26-.335-.611-.343-1.055v-.345zm.519.3c0 .326.063.582.19.77a.601.601 0 00.519.278c.457 0 .692-.33.706-.99v-.357c0-.325-.065-.58-.194-.768a.598.598 0 00-.518-.284.593.593 0 00-.513.284c-.127.188-.19.442-.19.765v.301zm3.91-1.252a1.26 1.26 0 00-.233-.02c-.266 0-.452.145-.557.436V39h-.519v-3.17h.504l.009.322c.139-.254.335-.38.589-.38.082 0 .15.013.205.04l.003.504zm1.316 1.234l-.275.316V39h-.519v-4.5h.519v2.692l.987-1.362h.621l-1.008 1.324L41.41 39h-.603l-.862-1.45zm4.92 1.45a1.137 1.137 0 01-.068-.346c-.184.27-.418.405-.703.405-.287 0-.512-.08-.674-.24-.16-.163-.24-.39-.24-.683 0-.323.11-.578.328-.768.219-.19.518-.286.9-.29h.38v-.337c0-.19-.042-.324-.126-.404-.084-.08-.212-.12-.384-.12a.527.527 0 00-.38.14.461.461 0 00-.147.352h-.519c0-.162.048-.316.144-.463a.995.995 0 01.387-.349 1.16 1.16 0 01.542-.125c.324 0 .57.08.738.243.17.16.257.394.26.703v1.6c.003.244.036.455.1.635V39h-.539zm-.692-.413a.686.686 0 00.363-.106.65.65 0 00.252-.263v-.756h-.293c-.246.004-.44.06-.583.167a.522.522 0 00-.214.445c0 .18.036.31.109.393.072.08.194.12.366.12zm2.426-2.757l.014.343c.202-.268.458-.401.77-.401.561 0 .845.373.853 1.122V39h-.515v-2.083c0-.248-.042-.424-.126-.527-.082-.106-.206-.159-.372-.159a.532.532 0 00-.349.13.937.937 0 00-.246.336V39h-.519v-3.17h.49zm2.308 1.442c0-.489.091-.86.273-1.117.183-.256.446-.383.788-.383.302 0 .539.123.709.369V34.5h.518V39h-.474l-.027-.34a.816.816 0 01-.73.399.909.909 0 01-.773-.381c-.185-.256-.28-.616-.284-1.081v-.325zm.519.295c0 .356.052.618.158.785.105.167.277.25.516.25.257 0 .45-.13.577-.39v-1.6c-.133-.254-.325-.38-.575-.38-.238 0-.41.083-.515.251-.106.166-.16.422-.161.768v.316zm6.307.522l.48-2.259h.514L55.95 39h-.413l-.618-2.268L54.315 39H53.9l-.77-3.17h.51l.492 2.203.589-2.203h.41l.603 2.259zm2.057-1.934a.915.915 0 01.756-.383c.56 0 .845.373.852 1.122V39h-.515v-2.083c0-.248-.042-.424-.126-.527-.082-.106-.206-.159-.372-.159a.532.532 0 00-.349.13.937.937 0 00-.246.336V39h-.518v-4.5h.518v1.655zm3.516 2.904c-.395 0-.698-.118-.908-.352-.212-.236-.319-.582-.323-1.037v-.384c0-.473.103-.843.308-1.11.207-.27.495-.404.864-.404.371 0 .648.118.832.354.184.236.277.605.281 1.105v.34h-1.77v.073c0 .34.064.587.191.74.13.155.314.232.554.232a.898.898 0 00.401-.085c.117-.058.227-.15.329-.275l.269.328c-.225.316-.567.475-1.028.475zm-.059-2.842c-.215 0-.374.074-.477.223-.104.146-.163.375-.176.685h1.248v-.07c-.014-.301-.069-.516-.164-.645-.094-.129-.238-.193-.43-.193zm2.417-1.154v.767h.478v.419h-.478v1.966c0 .125.02.22.062.284.04.064.11.097.21.097a.653.653 0 00.208-.035L64.14 39c-.117.04-.238.059-.36.059-.206 0-.362-.074-.47-.22-.107-.147-.16-.354-.16-.621v-1.969h-.484v-.419h.483v-.767h.516zm1.614 1.092a.915.915 0 01.756-.383c.56 0 .845.373.853 1.122V39h-.516v-2.083c0-.248-.042-.424-.126-.527-.082-.106-.206-.159-.372-.159a.531.531 0 00-.349.13.937.937 0 00-.246.336V39h-.518v-4.5h.518v1.655zm3.516 2.904c-.395 0-.697-.118-.908-.352-.211-.236-.319-.582-.322-1.037v-.384c0-.473.102-.843.307-1.11.207-.27.495-.404.864-.404.371 0 .649.118.832.354.184.236.278.605.282 1.105v.34h-1.77v.073c0 .34.064.587.19.74.13.155.314.232.554.232a.898.898 0 00.402-.085 1.01 1.01 0 00.328-.275l.27.328c-.225.316-.568.475-1.03.475zm-.059-2.842c-.215 0-.374.074-.477.223-.104.146-.162.375-.176.685h1.248v-.07c-.014-.301-.068-.516-.164-.645-.094-.129-.237-.193-.43-.193zm3.047.1a1.258 1.258 0 00-.234-.021c-.266 0-.451.145-.557.436V39h-.518v-3.17h.504l.008.322c.139-.254.335-.38.59-.38.081 0 .15.013.204.04l.003.504zm2.763 1.822l.577-2.309h.55l-1.036 3.618c-.078.272-.189.478-.331.618a.67.67 0 01-.487.214c-.07 0-.16-.015-.27-.047v-.44l.115.013c.15 0 .268-.036.352-.109.086-.07.155-.193.208-.369l.102-.354-.931-3.144h.565l.586 2.309zm1.526-.87c0-.461.112-.826.334-1.093.225-.27.52-.404.888-.404.367 0 .662.13.885.392.224.262.34.618.345 1.07v.333c0 .46-.11.823-.334 1.09-.222.268-.52.402-.89.402-.367 0-.662-.13-.885-.39-.22-.26-.335-.611-.343-1.055v-.345zm.519.298c0 .327.063.583.19.77a.601.601 0 00.519.28c.457 0 .692-.33.706-.991v-.357c0-.325-.065-.58-.194-.768a.598.598 0 00-.518-.284.593.593 0 00-.513.284c-.127.188-.19.442-.19.765v.301zm4.219 1.155c-.172.224-.423.337-.753.337-.287 0-.504-.099-.65-.296-.147-.2-.221-.489-.223-.867V35.83h.515v2.027c0 .495.149.742.446.742.314 0 .53-.141.65-.422V35.83h.519V39h-.493l-.011-.278zm-74.32 6.894c.171 0 .309-.053.412-.158.104-.107.16-.26.17-.457h.49a1.08 1.08 0 01-.326.759c-.203.199-.452.299-.747.299-.392 0-.692-.123-.9-.37-.204-.248-.307-.616-.307-1.104v-.349c0-.478.103-.841.308-1.09.205-.25.504-.374.896-.374.325 0 .581.102.77.307.192.205.294.486.306.84h-.49c-.011-.233-.068-.41-.17-.526a.516.516 0 00-.416-.176c-.23 0-.401.076-.512.228-.112.15-.17.399-.173.745v.404c0 .373.054.636.164.79.111.155.286.232.524.232zM9.79 46a1.14 1.14 0 01-.067-.346c-.184.27-.418.405-.703.405-.288 0-.512-.08-.674-.24-.16-.163-.24-.39-.24-.683 0-.323.109-.578.328-.768.218-.19.518-.286.899-.29h.38v-.337c0-.19-.041-.324-.125-.404-.084-.08-.212-.12-.384-.12a.527.527 0 00-.38.14.461.461 0 00-.147.352h-.519c0-.162.048-.316.144-.463a.995.995 0 01.386-.349 1.16 1.16 0 01.542-.125c.325 0 .57.08.739.243.17.16.257.394.26.703v1.6c.002.244.036.455.1.635V46H9.79zm-.691-.413a.686.686 0 00.363-.106.65.65 0 00.252-.263v-.756H9.42c-.246.004-.44.06-.583.167a.522.522 0 00-.214.445c0 .18.036.31.108.393.073.08.195.12.367.12zm2.425-2.757l.015.343c.201-.268.458-.401.77-.401.561 0 .845.373.853 1.122V46h-.516v-2.083c0-.248-.042-.424-.126-.527-.082-.106-.205-.159-.372-.159a.531.531 0 00-.348.13.936.936 0 00-.246.336V46h-.519v-3.17h.49zM16.95 46a1.14 1.14 0 01-.067-.346c-.184.27-.418.405-.703.405-.287 0-.512-.08-.674-.24-.16-.163-.24-.39-.24-.683 0-.323.109-.578.328-.768.219-.19.518-.286.9-.29h.38v-.337c0-.19-.042-.324-.126-.404-.084-.08-.212-.12-.384-.12a.527.527 0 00-.38.14.461.461 0 00-.147.352h-.519c0-.162.048-.316.144-.463a.995.995 0 01.387-.349 1.16 1.16 0 01.542-.125c.324 0 .57.08.738.243.17.16.257.394.26.703v1.6c.003.244.036.455.1.635V46h-.539zm-.691-.413a.687.687 0 00.363-.106.65.65 0 00.252-.263v-.756h-.293c-.246.004-.44.06-.583.167a.522.522 0 00-.214.445c0 .18.036.31.109.393.072.08.194.12.366.12zm2.165.413v-2.751h-.413v-.419h.413v-.366c.006-.322.087-.573.243-.753.158-.182.38-.273.668-.273.104 0 .208.017.313.05l-.026.44a1.031 1.031 0 00-.237-.027c-.295 0-.443.21-.443.63v.3h.542v.418h-.542V46h-.518zm1.898 0v-2.751h-.413v-.419h.413v-.366c.006-.322.087-.573.243-.753.159-.182.381-.273.668-.273.104 0 .208.017.314.05l-.027.44a1.031 1.031 0 00-.237-.027c-.295 0-.442.21-.442.63v.3h.542v.418h-.542V46h-.519zm1.562-1.731c0-.461.111-.826.334-1.093.224-.27.52-.404.887-.404.368 0 .663.13.885.392.225.262.34.618.346 1.07v.333c0 .46-.111.823-.334 1.09-.223.268-.52.402-.89.402-.368 0-.663-.13-.885-.39-.221-.26-.335-.611-.343-1.055v-.345zm.518.298c0 .327.064.583.19.77a.601.601 0 00.52.28c.456 0 .692-.33.705-.991v-.357c0-.325-.064-.58-.193-.768a.598.598 0 00-.518-.284.593.593 0 00-.513.284c-.127.188-.19.442-.19.765v.301zm3.912-1.25a1.26 1.26 0 00-.235-.021c-.265 0-.451.145-.556.436V46h-.52v-3.17h.505l.009.322c.138-.254.335-.38.588-.38.082 0 .15.013.206.04l.003.504zm.41.955c0-.489.09-.86.272-1.117.184-.256.446-.383.788-.383.303 0 .54.123.71.369V41.5h.518V46h-.475l-.026-.34a.816.816 0 01-.73.399.909.909 0 01-.773-.381c-.186-.256-.28-.616-.284-1.081v-.325zm.518.295c0 .356.053.618.158.785.106.167.278.25.516.25.258 0 .45-.13.577-.39v-1.6c-.133-.254-.324-.38-.574-.38-.238 0-.41.083-.516.251-.105.166-.159.422-.16.768v.316zm4.623-2.505v.768h.478v.419h-.478v1.966c0 .125.02.22.062.284.04.064.111.097.21.097a.653.653 0 00.209-.035L32.34 46a1.13 1.13 0 01-.36.059c-.206 0-.362-.074-.47-.22-.107-.147-.16-.354-.16-.621v-1.969h-.484v-.419h.484v-.767h.515zm.929 2.207c0-.461.111-.826.334-1.093.224-.27.52-.404.888-.404.367 0 .662.13.884.392.225.262.34.618.346 1.07v.333c0 .46-.111.823-.334 1.09-.222.268-.52.402-.89.402-.368 0-.663-.13-.885-.39-.221-.26-.335-.611-.343-1.055v-.345zm.519.298c0 .327.063.583.19.77a.602.602 0 00.519.28c.456 0 .692-.33.706-.991v-.357c0-.325-.065-.58-.194-.768a.598.598 0 00-.518-.284.593.593 0 00-.513.284c-.127.188-.19.442-.19.765v.301zm4.658-2.505v.768h.477v.419h-.477v1.966c0 .125.02.22.061.284.041.064.112.097.211.097a.654.654 0 00.208-.035l-.006.439c-.117.04-.237.059-.36.059-.205 0-.361-.074-.469-.22-.107-.147-.16-.354-.16-.621v-1.969h-.484v-.419h.483v-.767h.516zM40.698 46a1.14 1.14 0 01-.067-.346c-.184.27-.418.405-.703.405-.287 0-.512-.08-.674-.24-.16-.163-.24-.39-.24-.683 0-.323.109-.578.328-.768.218-.19.518-.286.9-.29h.38v-.337c0-.19-.042-.324-.126-.404-.084-.08-.212-.12-.384-.12a.528.528 0 00-.38.14.461.461 0 00-.147.352h-.519c0-.162.048-.316.144-.463a.995.995 0 01.387-.349 1.16 1.16 0 01.542-.125c.324 0 .57.08.738.243.17.16.257.394.26.703v1.6c.003.244.036.455.1.635V46h-.539zm-.691-.413a.686.686 0 00.363-.106.65.65 0 00.252-.263v-.756h-.293c-.246.004-.44.06-.583.167a.522.522 0 00-.214.445c0 .18.036.31.109.393.072.08.194.12.366.12zm2.733-1.037l-.275.316V46h-.519v-4.5h.519v2.692l.987-1.362h.621l-1.008 1.324L44.205 46h-.603l-.862-1.45zm3.044 1.509c-.394 0-.697-.118-.908-.352-.211-.236-.318-.582-.322-1.037v-.384c0-.473.102-.843.307-1.11.207-.27.495-.404.865-.404s.648.118.832.354c.183.236.277.605.28 1.105v.34H45.07v.073c0 .34.064.587.19.74.13.155.314.232.554.232a.898.898 0 00.402-.085c.117-.058.226-.15.328-.275l.27.328c-.225.316-.568.475-1.029.475zm-.058-2.842c-.215 0-.374.074-.478.223-.103.146-.162.375-.176.685h1.248v-.07c-.013-.301-.068-.516-.164-.645-.093-.129-.237-.193-.43-.193zm3.794-1.154v.767h.477v.419h-.477v1.966c0 .125.02.22.061.284.041.064.111.097.211.097A.653.653 0 0050 45.56l-.006.439a1.13 1.13 0 01-.36.059c-.205 0-.361-.074-.469-.22-.107-.147-.161-.354-.161-.621v-1.969h-.483v-.419h.483v-.767h.516zm1.614 1.092a.914.914 0 01.756-.383c.56 0 .844.373.852 1.122V46h-.515v-2.083c0-.248-.042-.424-.126-.527-.082-.106-.206-.159-.373-.159a.531.531 0 00-.348.13.936.936 0 00-.246.336V46h-.519v-4.5h.519v1.655zm3.515 2.904c-.394 0-.697-.118-.908-.352-.21-.236-.318-.582-.322-1.037v-.384c0-.473.103-.843.308-1.11.207-.27.495-.404.864-.404.37 0 .648.118.832.354.183.236.277.605.281 1.105v.34h-1.77v.073c0 .34.064.587.191.74.129.155.313.232.554.232a.899.899 0 00.401-.085c.117-.058.227-.15.328-.275l.27.328c-.225.316-.568.475-1.029.475zm-.058-2.842c-.215 0-.374.074-.478.223-.103.146-.162.375-.175.685h1.247v-.07c-.013-.301-.068-.516-.163-.645-.094-.129-.238-.193-.431-.193zm3.633-.062a.915.915 0 01.756-.383c.56 0 .844.373.852 1.122V46h-.516v-2.083c0-.248-.042-.424-.126-.527-.082-.106-.206-.159-.372-.159a.532.532 0 00-.348.13.937.937 0 00-.246.336V46h-.519v-4.5h.519v1.655zM61.165 46h-.518v-3.17h.518V46zm.041-4.01a.332.332 0 01-.073.219c-.049.059-.123.088-.223.088-.097 0-.17-.03-.22-.088a.332.332 0 01-.073-.22c0-.088.025-.162.073-.222.05-.06.123-.091.22-.091.098 0 .171.031.22.093a.33.33 0 01.076.22zm.674 2.282c0-.495.09-.868.27-1.12.18-.254.442-.38.788-.38a.81.81 0 01.735.413l.026-.355h.469v3.2c0 .392-.1.693-.302.902-.201.21-.481.316-.84.316a1.44 1.44 0 01-.528-.117 1.094 1.094 0 01-.436-.284l.21-.358c.215.211.453.317.712.317.432 0 .654-.236.665-.706v-.413a.813.813 0 01-.714.372c-.329 0-.584-.123-.768-.37-.184-.248-.28-.603-.287-1.066v-.351zm.518.295c0 .356.052.618.156.785.105.167.277.25.515.25.258 0 .451-.132.58-.396v-1.585c-.134-.26-.326-.39-.574-.39-.238 0-.41.084-.515.252-.106.166-.16.422-.162.768v.316zm3.062-1.412a.914.914 0 01.756-.383c.56 0 .845.373.852 1.122V46h-.515v-2.083c0-.248-.042-.424-.126-.527-.082-.106-.206-.159-.372-.159a.531.531 0 00-.349.13.936.936 0 00-.246.336V46h-.519v-4.5h.519v1.655zm5.068.161a1.259 1.259 0 00-.234-.02c-.266 0-.451.145-.557.436V46h-.518v-3.17h.504l.008.322c.14-.254.335-.38.59-.38.081 0 .15.013.204.04l.003.504zM71.606 46h-.518v-3.17h.518V46zm.041-4.01a.332.332 0 01-.073.219c-.049.059-.123.088-.222.088-.098 0-.171-.03-.22-.088a.332.332 0 01-.073-.22c0-.088.024-.162.073-.222.049-.06.122-.091.22-.091.097 0 .17.031.22.093a.33.33 0 01.075.22zm2.318 3.198a.383.383 0 00-.126-.287c-.084-.08-.246-.174-.486-.28a3.24 3.24 0 01-.592-.297.852.852 0 01-.255-.278.781.781 0 01-.085-.375c0-.258.094-.472.281-.642.19-.172.43-.258.724-.258.308 0 .556.09.744.27.187.18.281.41.281.691h-.515a.505.505 0 00-.51-.515.515.515 0 00-.36.12.407.407 0 00-.13.316c0 .106.032.19.094.255.065.065.218.15.46.255.385.15.647.298.785.443a.749.749 0 01.208.544.837.837 0 01-.284.663c-.19.164-.443.246-.761.246-.33 0-.598-.095-.803-.285a.938.938 0 01-.308-.72h.522a.58.58 0 00.16.413c.102.1.245.15.428.15.172 0 .303-.039.393-.115a.395.395 0 00.135-.314zm1.992-.638l-.275.316V46h-.519v-4.5h.519v2.692l.987-1.362h.621l-1.008 1.324L77.422 46h-.604l-.861-1.45zm3.179-.281c0-.461.111-.826.334-1.093.224-.27.52-.404.887-.404.368 0 .662.13.885.392.225.262.34.618.346 1.07v.333c0 .46-.111.823-.334 1.09-.223.268-.52.402-.89.402-.368 0-.663-.13-.886-.39-.22-.26-.334-.611-.342-1.055v-.345zm.518.298c0 .327.064.583.19.77a.602.602 0 00.52.28c.456 0 .692-.33.705-.991v-.357c0-.325-.064-.58-.193-.768a.598.598 0 00-.519-.284.593.593 0 00-.512.284c-.127.188-.19.442-.19.765v.301zM82.484 46v-2.751h-.413v-.419h.413v-.366c.006-.322.087-.573.244-.753.158-.182.38-.273.668-.273.103 0 .207.017.313.05l-.026.44a1.031 1.031 0 00-.238-.027c-.295 0-.442.21-.442.63v.3h.542v.418h-.542V46h-.519zM5.946 53h-.518v-4.5h.518V53zm.71-1.731c0-.461.11-.826.333-1.093.225-.27.52-.404.888-.404.367 0 .662.13.885.392.224.262.34.618.345 1.07v.333c0 .46-.11.823-.334 1.09-.222.268-.52.402-.89.402-.367 0-.662-.13-.885-.39-.22-.26-.335-.611-.343-1.055v-.345zm.518.298c0 .327.063.583.19.77a.601.601 0 00.519.28c.457 0 .692-.33.706-.991v-.357c0-.325-.065-.58-.193-.768a.598.598 0 00-.52-.284.593.593 0 00-.512.284c-.127.188-.19.442-.19.765v.301zm4.142.621a.383.383 0 00-.126-.287c-.084-.08-.246-.174-.486-.28a3.237 3.237 0 01-.592-.297.852.852 0 01-.255-.278.782.782 0 01-.085-.375c0-.258.094-.472.282-.642.19-.172.43-.258.723-.258.309 0 .557.09.745.27.187.18.28.41.28.691h-.515a.505.505 0 00-.51-.515.515.515 0 00-.36.12.407.407 0 00-.129.316c0 .106.031.19.094.255.064.065.218.15.46.255.385.15.646.298.785.443a.75.75 0 01.208.544.837.837 0 01-.284.663c-.19.164-.444.246-.762.246-.33 0-.598-.095-.803-.285a.938.938 0 01-.307-.72h.521c.006.175.06.313.161.413.102.1.244.15.428.15.172 0 .303-.039.393-.115a.395.395 0 00.134-.314zm1.755.812h-.518v-3.17h.518V53zm.041-4.01a.332.332 0 01-.073.219c-.049.059-.123.088-.223.088-.097 0-.17-.03-.22-.088a.332.332 0 01-.073-.22c0-.088.025-.162.074-.222.049-.06.122-.091.22-.091.097 0 .17.031.22.093a.33.33 0 01.075.22zm1.266.84l.015.343c.2-.268.458-.401.77-.401.56 0 .845.373.853 1.122V53H15.5v-2.083c0-.248-.042-.424-.126-.527-.082-.106-.206-.159-.372-.159a.532.532 0 00-.349.13.937.937 0 00-.246.336V53h-.518v-3.17h.489zm2.314 1.442c0-.495.09-.868.27-1.12.18-.254.442-.38.788-.38a.81.81 0 01.735.413l.027-.355h.468v3.2c0 .392-.1.693-.301.902-.201.21-.482.316-.841.316a1.44 1.44 0 01-.527-.117 1.094 1.094 0 01-.437-.284l.211-.358c.215.211.452.317.712.317.431 0 .653-.236.665-.706v-.413a.813.813 0 01-.715.372c-.328 0-.584-.123-.767-.37-.184-.248-.28-.603-.288-1.066v-.351zm.519.295c0 .356.052.618.155.785.106.167.278.25.516.25.258 0 .451-.132.58-.396v-1.585c-.135-.26-.326-.39-.574-.39-.239 0-.41.084-.516.252-.105.166-.16.422-.161.768v.316zm4.787.572l.577-2.309h.551l-1.037 3.618c-.078.272-.189.478-.331.618a.67.67 0 01-.486.214c-.07 0-.16-.015-.27-.047v-.44l.114.013c.15 0 .268-.036.352-.109.086-.07.155-.193.208-.369l.102-.354-.931-3.144h.565l.586 2.309zm1.526-.87c0-.461.112-.826.334-1.093.225-.27.52-.404.888-.404.367 0 .662.13.885.392.224.262.34.618.346 1.07v.333c0 .46-.112.823-.334 1.09-.223.268-.52.402-.891.402-.367 0-.662-.13-.885-.39-.22-.26-.335-.611-.343-1.055v-.345zm.519.298c0 .327.063.583.19.77a.602.602 0 00.519.28c.457 0 .692-.33.706-.991v-.357c0-.325-.064-.58-.193-.768a.598.598 0 00-.519-.284.593.593 0 00-.513.284c-.127.188-.19.442-.19.765v.301zm4.219 1.155c-.172.224-.423.337-.753.337-.287 0-.504-.099-.65-.296-.147-.2-.221-.489-.223-.867V49.83h.515v2.027c0 .495.149.742.446.742.314 0 .53-.141.65-.422V49.83h.519V53h-.493l-.011-.278zm2.593-2.406a1.26 1.26 0 00-.235-.02c-.265 0-.451.145-.556.436V53h-.52v-3.17h.505l.009.322c.138-.254.335-.38.588-.38.082 0 .15.013.206.04l.003.504zm2.384-.486l.012.293a.943.943 0 01.765-.351c.353 0 .6.153.74.46a.94.94 0 01.833-.46c.584 0 .883.364.896 1.092V53h-.515v-2.086c0-.23-.041-.401-.123-.513-.082-.113-.221-.17-.416-.17a.467.467 0 00-.381.182.828.828 0 00-.17.463V53h-.522v-2.11c-.005-.439-.184-.659-.536-.659-.262 0-.446.131-.553.393V53h-.516v-3.17h.486zm3.92 1.439c0-.461.111-.826.334-1.093.225-.27.52-.404.888-.404.367 0 .662.13.885.392.224.262.34.618.345 1.07v.333c0 .46-.111.823-.334 1.09-.222.268-.52.402-.89.402-.367 0-.662-.13-.885-.39-.22-.26-.335-.611-.343-1.055v-.345zm.519.298c0 .327.063.583.19.77a.601.601 0 00.519.28c.457 0 .692-.33.706-.991v-.357c0-.325-.065-.58-.194-.768a.598.598 0 00-.518-.284.593.593 0 00-.513.284c-.127.188-.19.442-.19.765v.301zm3.09-1.737l.015.343c.201-.268.458-.401.77-.401.561 0 .845.373.853 1.122V53h-.515v-2.083c0-.248-.042-.424-.126-.527-.082-.106-.206-.159-.372-.159a.532.532 0 00-.35.13.937.937 0 00-.245.336V53h-.519v-3.17h.49zm3.551 3.229c-.394 0-.697-.118-.908-.352-.21-.236-.318-.582-.322-1.037v-.384c0-.473.102-.843.308-1.11.206-.27.495-.404.864-.404.37 0 .648.118.832.354.183.236.277.605.281 1.105v.34h-1.77v.073c0 .34.064.587.19.74.13.155.314.232.555.232a.898.898 0 00.401-.085 1.01 1.01 0 00.328-.275l.27.328c-.225.316-.568.475-1.029.475zm-.058-2.842c-.215 0-.374.074-.478.223-.103.146-.162.375-.176.685h1.248v-.07c-.013-.301-.068-.516-.164-.645-.093-.129-.237-.193-.43-.193zm2.604 1.922l.577-2.309h.551l-1.037 3.618c-.078.272-.188.478-.331.618a.67.67 0 01-.486.214c-.07 0-.16-.015-.27-.047v-.44l.114.013c.15 0 .268-.036.352-.109.086-.07.155-.193.208-.369l.102-.354-.931-3.144h.565l.586 2.309zm1.67.577c0-.094.028-.172.082-.235.057-.062.14-.093.252-.093.111 0 .196.03.252.093a.33.33 0 01.088.235c0 .09-.03.165-.088.225-.056.061-.14.091-.252.091-.111 0-.195-.03-.252-.09a.324.324 0 01-.082-.226z" fill="#000"/></svg>