<svg width="234" height="40" viewBox="0 0 234 40" fill="none" xmlns="http://www.w3.org/2000/svg"><path d="M2.592 11.012L4.128 11l1.86-6.312L7.74 11h1.548l2.472-8.34h-1.464l-1.74 6.756-1.74-6.756H5.28L3.408 9.452 1.68 2.66H.228l2.364 8.352zM12.888 11h1.368V7.304c0-1.212.66-1.836 1.668-1.836.996 0 1.656.624 1.656 1.836V11h1.356V7.1c0-1.848-1.152-2.82-2.628-2.82-.852 0-1.596.324-2.052.876V2.12h-1.368V11zm7.793 0h1.368V4.388h-1.368V11zm.696-7.488c.48 0 .864-.384.864-.876a.863.863 0 00-.864-.876.866.866 0 00-.876.876c0 .492.384.876.876.876zm2.012 4.176c0 2.076 1.344 3.42 3.24 3.42 1.62 0 2.676-.9 3.048-2.196h-1.476c-.252.684-.756 1.044-1.572 1.044-1.104 0-1.836-.816-1.836-2.268 0-1.44.732-2.256 1.836-2.256.816 0 1.344.408 1.572 1.044h1.476C29.305 5.084 28.25 4.28 26.63 4.28c-1.896 0-3.24 1.344-3.24 3.408zM31.041 11h1.368V7.304c0-1.212.66-1.836 1.668-1.836.996 0 1.656.624 1.656 1.836V11h1.356V7.1c0-1.848-1.152-2.82-2.628-2.82-.852 0-1.596.324-2.052.876V2.12H31.04V11zm15.842-1.848c-.072-2.388-3.804-1.644-3.804-2.976 0-.444.384-.744 1.116-.744.744 0 1.188.396 1.236.972h1.368c-.072-1.32-1.056-2.124-2.556-2.124-1.56 0-2.544.852-2.544 1.908 0 2.424 3.84 1.68 3.84 2.976 0 .456-.42.792-1.212.792-.756 0-1.272-.444-1.32-.984H41.59c.06 1.2 1.176 2.136 2.76 2.136 1.56 0 2.532-.84 2.532-1.956zM48.36 11h1.368V4.388H48.36V11zm.696-7.488c.48 0 .864-.384.864-.876a.863.863 0 00-.864-.876.866.866 0 00-.876.876c0 .492.384.876.876.876zm2.012 4.152c0 2.04 1.38 3.444 3.12 3.444 1.08 0 1.872-.504 2.292-1.104V11h1.38V2.12h-1.38v3.192c-.504-.624-1.416-1.032-2.28-1.032-1.752 0-3.132 1.344-3.132 3.384zm5.412.024c0 1.428-.972 2.232-2.004 2.232-1.02 0-2.004-.828-2.004-2.256s.984-2.196 2.004-2.196c1.032 0 2.004.804 2.004 2.22zm5.96-2.256c1.02 0 1.825.648 1.849 1.668h-3.66c.144-1.044.888-1.668 1.812-1.668zm3.097 3.6h-1.476c-.252.516-.72.924-1.56.924-1.008 0-1.788-.66-1.884-1.752h5.052a4.22 4.22 0 00.048-.672c0-1.944-1.332-3.252-3.216-3.252-1.956 0-3.3 1.332-3.3 3.408 0 2.076 1.404 3.42 3.3 3.42 1.62 0 2.664-.924 3.036-2.076zM76.48 7.688c0-2.076-1.488-3.408-3.372-3.408s-3.372 1.332-3.372 3.408c0 2.076 1.428 3.42 3.312 3.42 1.896 0 3.432-1.344 3.432-3.42zm-5.352 0c0-1.5.924-2.22 1.956-2.22 1.02 0 1.992.72 1.992 2.22 0 1.5-1.008 2.232-2.028 2.232-1.032 0-1.92-.732-1.92-2.232zM78.002 11h1.38V5.504h1.224V4.388h-1.224V3.92c0-.756.288-1.044 1.128-1.044v-1.14c-1.728 0-2.508.66-2.508 2.184v.468h-.78v1.116h.78V11zm8.625.012L88.163 11l1.86-6.312L91.775 11h1.548l2.472-8.34h-1.464l-1.74 6.756-1.74-6.756h-1.536l-1.872 6.792-1.728-6.792h-1.452l2.364 8.352zm9.84-3.348c0 2.04 1.38 3.444 3.096 3.444 1.104 0 1.896-.528 2.316-1.092V11h1.38V4.388h-1.38v.96c-.408-.54-1.176-1.068-2.292-1.068-1.74 0-3.12 1.344-3.12 3.384zm5.412.024c0 1.428-.972 2.232-2.004 2.232-1.02 0-2.004-.828-2.004-2.256s.984-2.196 2.004-2.196c1.032 0 2.004.804 2.004 2.22zM105.056 11h1.368V2.12h-1.368V11zm3.164 0h1.368V2.12h-1.368V11zm11.91-2.364c0-3.048-4.416-1.872-4.416-3.756 0-.804.612-1.188 1.404-1.164.864.024 1.356.54 1.404 1.104h1.512c-.12-1.428-1.248-2.268-2.844-2.268-1.704 0-2.868.912-2.868 2.376 0 3.072 4.428 1.764 4.428 3.78 0 .708-.54 1.224-1.5 1.224-.948 0-1.428-.552-1.488-1.236h-1.464c0 1.476 1.284 2.388 2.952 2.388 1.86 0 2.88-1.2 2.88-2.448zm1.83.528c0 1.344.732 1.836 1.908 1.836h1.08V9.86h-.84c-.576 0-.768-.204-.768-.696v-3.66h1.608V4.388h-1.608V2.744h-1.38v1.644h-.78v1.116h.78v3.66zm5.617-1.644c0-1.404.624-1.824 1.632-1.824h.348V4.28c-.936 0-1.596.408-1.98 1.068v-.96h-1.368V11h1.368V7.52zm6.021-2.088c1.02 0 1.824.648 1.848 1.668h-3.66c.144-1.044.888-1.668 1.812-1.668zm3.096 3.6h-1.476c-.252.516-.72.924-1.56.924-1.008 0-1.788-.66-1.884-1.752h5.052a4.22 4.22 0 00.048-.672c0-1.944-1.332-3.252-3.216-3.252-1.956 0-3.3 1.332-3.3 3.408 0 2.076 1.404 3.42 3.3 3.42 1.62 0 2.664-.924 3.036-2.076zm4.31-3.6c1.02 0 1.824.648 1.848 1.668h-3.66c.144-1.044.888-1.668 1.812-1.668zm3.096 3.6h-1.476c-.252.516-.72.924-1.56.924-1.008 0-1.788-.66-1.884-1.752h5.052a4.22 4.22 0 00.048-.672c0-1.944-1.332-3.252-3.216-3.252-1.956 0-3.3 1.332-3.3 3.408 0 2.076 1.404 3.42 3.3 3.42 1.62 0 2.664-.924 3.036-2.076zm1.743.132c0 1.344.732 1.836 1.908 1.836h1.08V9.86h-.84c-.576 0-.768-.204-.768-.696v-3.66h1.608V4.388h-1.608V2.744h-1.38v1.644h-.78v1.116h.78v3.66zm8.65 1.836h1.44l1.332-4.884L158.597 11h1.44l2.052-6.612h-1.344l-1.368 5.292-1.344-5.292h-1.428l-1.404 5.316-1.38-5.316h-1.392L154.493 11zm8.618 0h1.368V4.388h-1.368V11zm.696-7.488c.48 0 .864-.384.864-.876a.863.863 0 00-.864-.876.866.866 0 00-.876.876c0 .492.384.876.876.876zM166.275 11h1.368V2.12h-1.368V11zm3.164 0h1.368V2.12h-1.368V11zm8.885-1.572l-1.86-5.04h-1.524l2.604 6.504-1.344 3.216h1.416l4.056-9.72h-1.416l-1.932 5.04zm10.681-1.74c0-2.076-1.488-3.408-3.372-3.408s-3.372 1.332-3.372 3.408c0 2.076 1.428 3.42 3.312 3.42 1.896 0 3.432-1.344 3.432-3.42zm-5.352 0c0-1.5.924-2.22 1.956-2.22 1.02 0 1.992.72 1.992 2.22 0 1.5-1.008 2.232-2.028 2.232-1.032 0-1.92-.732-1.92-2.232zm12.692-3.3h-1.368v3.684c0 1.212-.66 1.836-1.668 1.836-.996 0-1.656-.624-1.656-1.836V4.388h-1.356v3.888c0 1.848 1.176 2.82 2.724 2.82.78 0 1.524-.324 1.956-.888V11h1.368V4.388zm5.138 4.776c0 1.344.732 1.836 1.908 1.836h1.08V9.86h-.84c-.576 0-.768-.204-.768-.696v-3.66h1.608V4.388h-1.608V2.744h-1.38v1.644h-.78v1.116h.78v3.66zm3.793-1.5c0 2.04 1.38 3.444 3.096 3.444 1.104 0 1.896-.528 2.316-1.092V11h1.38V4.388h-1.38v.96c-.408-.54-1.176-1.068-2.292-1.068-1.74 0-3.12 1.344-3.12 3.384zm5.412.024c0 1.428-.972 2.232-2.004 2.232-1.02 0-2.004-.828-2.004-2.256s.984-2.196 2.004-2.196c1.032 0 2.004.804 2.004 2.22zM213.865 11h1.368V8.156L217.681 11h1.848l-3.048-3.3 3.048-3.312h-1.896l-2.4 2.892V2.12h-1.368V11zm9.428-5.568c1.02 0 1.824.648 1.848 1.668h-3.66c.144-1.044.888-1.668 1.812-1.668zm3.096 3.6h-1.476c-.252.516-.72.924-1.56.924-1.008 0-1.788-.66-1.884-1.752h5.052a4.22 4.22 0 00.048-.672c0-1.944-1.332-3.252-3.216-3.252-1.956 0-3.3 1.332-3.3 3.408 0 2.076 1.404 3.42 3.3 3.42 1.62 0 2.664-.924 3.036-2.076zm1.107-4.02h1.284c0-.84.54-1.32 1.392-1.32.864 0 1.38.516 1.38 1.356 0 1.26-1.044 1.5-2.4 1.5h-.396l.06 1.884h1.188l.048-.948c1.608 0 2.808-.744 2.808-2.436 0-1.56-1.092-2.508-2.7-2.508-1.632 0-2.676 1.02-2.664 2.472zm2.76 5.196a.863.863 0 00-.864-.876.866.866 0 00-.876.876c0 .492.384.876.876.876.48 0 .864-.384.864-.876z" fill="#fff"/><rect y="20" width="90" height="20" rx="10" fill="#14964F"/><path d="M8.84 26.745V33h3.141v-.828H9.866v-5.427H8.84zm8.724 3.771c0-1.557-1.116-2.556-2.529-2.556-1.413 0-2.529.999-2.529 2.556s1.071 2.565 2.484 2.565c1.422 0 2.574-1.008 2.574-2.565zm-4.014 0c0-1.125.693-1.665 1.467-1.665.765 0 1.494.54 1.494 1.665s-.756 1.674-1.52 1.674c-.775 0-1.44-.549-1.44-1.674zm4.686-.018c0 1.53 1.035 2.583 2.34 2.583.81 0 1.404-.405 1.72-.828v.828c0 .99-.595 1.476-1.387 1.476-.71 0-1.26-.351-1.413-.864H18.48c.126 1.098 1.107 1.755 2.43 1.755 1.548 0 2.421-1.017 2.421-2.367v-5.04h-1.035v.72c-.306-.423-.909-.801-1.719-.801-1.305 0-2.34 1.008-2.34 2.538zm4.06.018c0 1.071-.73 1.674-1.504 1.674-.765 0-1.503-.621-1.503-1.692s.738-1.647 1.503-1.647c.774 0 1.503.603 1.503 1.665zM27.015 33h1.026v-4.959h-1.026V33zm.522-5.616c.36 0 .648-.288.648-.657a.647.647 0 00-.648-.657.65.65 0 00-.657.657.65.65 0 00.657.657zM32.908 33h1.017v-2.925c0-1.386-.873-2.115-2.034-2.115-.594 0-1.143.243-1.476.648v-.567h-1.026V33h1.026v-2.772c0-.909.495-1.377 1.25-1.377.748 0 1.243.468 1.243 1.377V33zm4.322-2.502c0 1.53 1.035 2.583 2.322 2.583.828 0 1.422-.396 1.736-.819V33h1.036v-4.959h-1.035v.72c-.306-.405-.883-.801-1.72-.801-1.305 0-2.34 1.008-2.34 2.538zm4.059.018c0 1.071-.73 1.674-1.504 1.674-.764 0-1.502-.621-1.502-1.692s.737-1.647 1.502-1.647c.775 0 1.504.603 1.504 1.665zM47.19 33h1.017v-2.925c0-1.386-.873-2.115-2.034-2.115-.594 0-1.143.243-1.476.648v-.567h-1.026V33h1.026v-2.772c0-.909.495-1.377 1.251-1.377.747 0 1.242.468 1.242 1.377V33zm1.984-2.502c0 1.53 1.035 2.583 2.34 2.583.81 0 1.404-.378 1.719-.828V33h1.035v-6.66h-1.035v2.394c-.378-.468-1.062-.774-1.71-.774-1.314 0-2.35 1.008-2.35 2.538zm4.059.018c0 1.071-.73 1.674-1.503 1.674-.765 0-1.503-.621-1.503-1.692s.738-1.647 1.503-1.647c.774 0 1.503.603 1.503 1.665zm4.882 1.107c0 1.008.55 1.377 1.431 1.377h.81v-.855h-.63c-.432 0-.576-.153-.576-.522v-2.745h1.206v-.837H59.15v-1.233h-1.035v1.233h-.585v.837h.585v2.745zm4.213-1.233c0-1.053.468-1.368 1.224-1.368h.261V27.96c-.702 0-1.197.306-1.485.801v-.72h-1.026V33h1.026v-2.61zm2.086.108c0 1.53 1.035 2.583 2.322 2.583.828 0 1.422-.396 1.737-.819V33h1.035v-4.959h-1.035v.72c-.306-.405-.882-.801-1.719-.801-1.305 0-2.34 1.008-2.34 2.538zm4.06.018c0 1.071-.73 1.674-1.504 1.674-.765 0-1.503-.621-1.503-1.692s.738-1.647 1.503-1.647c.774 0 1.503.603 1.503 1.665zm2.04-.018c0 1.53 1.035 2.583 2.34 2.583.81 0 1.404-.378 1.719-.828V33h1.035v-6.66h-1.035v2.394c-.378-.468-1.062-.774-1.71-.774-1.314 0-2.35 1.008-2.35 2.538zm4.059.018c0 1.071-.73 1.674-1.503 1.674-.765 0-1.503-.621-1.503-1.692s.738-1.647 1.503-1.647c.774 0 1.503.603 1.503 1.665zm4.47-1.692c.765 0 1.368.486 1.386 1.251h-2.745c.108-.783.666-1.251 1.36-1.251zm2.322 2.7h-1.107c-.189.387-.54.693-1.17.693-.756 0-1.34-.495-1.413-1.314h3.79c.026-.171.035-.333.035-.504 0-1.458-.999-2.439-2.412-2.439-1.467 0-2.475.999-2.475 2.556s1.053 2.565 2.475 2.565c1.215 0 1.998-.693 2.277-1.557z" fill="#fff"/></svg>