<svg width="137" height="76" viewBox="0 0 137 76" fill="none" xmlns="http://www.w3.org/2000/svg"><path d="M3.048 17l1.56-4.152h6.888L13.08 17h2.952L9.768.2H6.48L.192 17h2.856zM8.04 3.176l2.688 7.32H5.376l2.664-7.32zM23.895 17h2.76v-4.44l2.904-3.264L34.84 17h3.336l-6.624-9.744L37.72.2h-3.36l-7.704 8.664V.2h-2.76V17zM45.908 4.568c-1.992 0-3.168.792-3.936 1.752l-.288-1.608h-2.256V17h2.592v-6.192c0-2.496 1.224-4.008 3.288-4.008 1.944 0 2.928 1.248 2.928 3.576V17h2.616v-6.84c0-4.104-2.232-5.592-4.944-5.592zm13.016 12.576c3.744 0 6.264-2.52 6.264-6.288 0-3.744-2.52-6.288-6.264-6.288s-6.264 2.544-6.264 6.288c0 3.768 2.52 6.288 6.264 6.288zm0-2.208c-2.184 0-3.6-1.704-3.6-4.08 0-2.376 1.416-4.08 3.6-4.08s3.624 1.704 3.624 4.08c0 2.376-1.44 4.08-3.624 4.08zm13.988 2.208c3.144 0 5.232-1.752 5.712-4.536h-2.736c-.312 1.416-1.368 2.328-2.952 2.328-2.088 0-3.456-1.656-3.456-4.056 0-2.424 1.368-4.104 3.456-4.104 1.608 0 2.64.888 2.976 2.328h2.712c-.504-2.784-2.472-4.536-5.64-4.536-3.72 0-6.168 2.52-6.168 6.312 0 3.84 2.376 6.264 6.096 6.264zM80.608 17H83.2v-3.12l2.208-2.304L89.032 17h3.072l-4.92-7.32 4.632-4.968h-3.048L83.2 10.664V.2h-2.592V17zm17.784.144c3.745 0 6.265-2.52 6.265-6.288 0-3.744-2.52-6.288-6.264-6.288-3.745 0-6.264 2.544-6.264 6.288 0 3.768 2.52 6.288 6.263 6.288zm0-2.208c-2.183 0-3.6-1.704-3.6-4.08 0-2.376 1.416-4.08 3.6-4.08 2.185 0 3.625 1.704 3.625 4.08 0 2.376-1.44 4.08-3.624 4.08zm16.773-4.08c0 2.544-1.2 4.032-3.168 4.032-1.896 0-2.856-1.224-2.856-3.624V4.712h-2.592v6.84c0 4.2 2.232 5.592 4.848 5.592 1.896 0 3.024-.768 3.792-1.704l.288 1.56h2.28V4.712h-2.592v6.144zm6.104 2.808c0 2.232 1.008 3.336 3.36 3.336h2.4v-2.28h-1.824c-.984 0-1.32-.36-1.32-1.32V6.992h3v-2.28h-3V1.28h-2.616v3.432h-2.136v2.28h2.136v6.672zM17.208 37.6c0-4.92-3.336-8.544-8.16-8.544S.888 32.68.888 37.6s3.336 8.544 8.16 8.544 8.16-3.624 8.16-8.544zm-13.488 0c0-3.552 2.136-6.12 5.328-6.12s5.328 2.568 5.328 6.12-2.136 6.12-5.328 6.12S3.72 41.152 3.72 37.6zm29.566-6.12V29.2h-2.472c-2.376 0-3.432 1.128-3.432 3.288v1.224H22.87V32.68c0-.84.336-1.2 1.176-1.2h1.824V29.2h-2.184c-2.376 0-3.432 1.128-3.432 3.288v1.224h-2.136v2.28h2.136V46h2.616V35.992h4.512V46h2.592V35.992h3.312v-2.28h-3.312V32.68c0-.84.36-1.2 1.2-1.2h2.112zm6.677 14.664c3.048 0 5.112-1.848 5.544-4.272h-2.592c-.36 1.368-1.512 2.16-3.096 2.16-2.04 0-3.36-1.368-3.432-3.456v-.168h9.264c.048-.336.072-.672.072-.984-.072-3.6-2.448-5.856-6-5.856-3.624 0-6.048 2.52-6.048 6.312 0 3.768 2.424 6.264 6.288 6.264zm-3.48-7.632c.192-1.752 1.608-2.856 3.264-2.856 1.8 0 3.072 1.032 3.288 2.856h-6.552zm17.552-4.8c-2.016 0-3 .816-3.624 1.848l-.288-1.848h-2.304V46h2.592v-6.168c0-1.896.744-3.696 3.048-3.696h1.152v-2.424h-.576zm1.934 2.088c0 .96.697 1.632 1.657 1.632.96 0 1.68-.672 1.68-1.632 0-.96-.72-1.632-1.68-1.632s-1.657.672-1.657 1.632zm0 8.712c0 .96.697 1.632 1.657 1.632.96 0 1.68-.672 1.68-1.632 0-.96-.72-1.632-1.68-1.632s-1.657.672-1.657 1.632zm18.876-8.184c-2.64-.456-4.368-.816-4.368-2.544 0-1.584 1.32-2.4 3.216-2.4 2.04 0 3.384 1.152 3.6 2.856h2.76c-.096-2.712-1.944-4.632-4.968-5.088v-2.544h-2.328v2.496c-3.048.312-5.04 2.208-5.04 4.872 0 3.336 2.64 4.224 5.424 4.704 2.664.48 4.416.864 4.416 2.64 0 1.608-1.44 2.496-3.432 2.496-2.352 0-3.888-1.32-4.032-3.288l-2.784-.048c.096 2.976 2.088 5.136 5.448 5.568v2.52h2.328v-2.472c3.144-.336 5.232-2.328 5.232-5.064.024-3.312-2.688-4.2-5.472-4.704zM81.74 46h11.904v-2.328h-8.136l4.464-3.72c2.04-1.704 3.552-3.264 3.552-5.76 0-3.072-2.112-5.136-5.88-5.136-3.576 0-5.88 2.328-5.88 5.52v.432h2.664v-.288c0-2.088 1.296-3.384 3.216-3.384 1.92 0 3.192 1.056 3.192 2.976 0 1.608-1.128 2.784-2.64 4.056l-6.456 5.496V46zm13.533-8.016c0 5.064 2.712 8.16 6.624 8.16 3.912 0 6.624-3.096 6.624-8.16v-.768c0-4.872-2.712-8.16-6.624-8.16-3.912 0-6.624 3.288-6.624 8.16v.768zm10.56-.096c0 3.768-1.584 5.928-3.936 5.928s-3.936-2.16-3.936-5.928v-.576c0-3.744 1.584-5.928 3.936-5.928s3.936 2.184 3.936 5.928v.576zm4.557.096c0 5.064 2.712 8.16 6.624 8.16 3.912 0 6.624-3.096 6.624-8.16v-.768c0-4.872-2.712-8.16-6.624-8.16-3.912 0-6.624 3.288-6.624 8.16v.768zm10.56-.096c0 3.768-1.584 5.928-3.936 5.928s-3.936-2.16-3.936-5.928v-.576c0-3.744 1.584-5.928 3.936-5.928s3.936 2.184 3.936 5.928v.576zM.48 60.648h5.184V75h2.76V60.648h5.184V58.2H.48v2.448zm19.945 2.064c-2.015 0-3 .816-3.623 1.848l-.288-1.848H14.21V75H16.8v-6.168c0-1.896.745-3.696 3.049-3.696H21v-2.424h-.576zm13.032 10.032c-.528 0-.792-.168-.792-.792v-4.92c0-2.904-1.872-4.464-5.136-4.464-3.096 0-5.16 1.488-5.424 3.888h2.544c.192-1.08 1.224-1.8 2.76-1.8 1.704 0 2.688.84 2.688 2.208v.744h-3.096c-3.432 0-5.256 1.416-5.256 3.936 0 2.28 1.872 3.6 4.56 3.6 1.992 0 3.24-.864 4.056-2.112 0 1.224.576 1.968 2.256 1.968h1.368v-2.256h-.528zm-3.36-2.784c-.024 1.896-1.272 3.168-3.432 3.168-1.416 0-2.28-.72-2.28-1.752 0-1.248.888-1.848 2.496-1.848h3.216v.432zm14.542-5.544c-.792-1.08-2.112-1.848-3.984-1.848-3.336 0-5.808 2.496-5.808 6.288 0 3.936 2.472 6.288 5.808 6.288 1.944 0 3.216-.912 4.008-1.992L44.975 75h2.256V58.2H44.64v6.216zm-3.552 8.544c-2.16 0-3.576-1.68-3.576-4.104 0-2.4 1.416-4.08 3.576-4.08s3.576 1.68 3.576 4.128c0 2.376-1.416 4.056-3.576 4.056zm14.51 2.184c3.047 0 5.111-1.848 5.543-4.272h-2.592c-.36 1.368-1.512 2.16-3.096 2.16-2.04 0-3.36-1.368-3.432-3.456v-.168h9.264c.048-.336.072-.672.072-.984-.072-3.6-2.448-5.856-6-5.856-3.624 0-6.048 2.52-6.048 6.312 0 3.768 2.424 6.264 6.288 6.264zm-3.48-7.632c.191-1.752 1.607-2.856 3.263-2.856 1.8 0 3.072 1.032 3.288 2.856h-6.552zM69.856 75h6.383c4.056 0 6.24-1.824 6.24-4.8 0-2.4-1.536-3.576-3.528-3.888 1.752-.48 2.88-1.68 2.88-3.672 0-2.76-2.112-4.44-5.808-4.44h-6.168V75zm6.24-14.496c1.92 0 2.975.912 2.975 2.4 0 1.512-1.08 2.424-2.976 2.424h-3.48v-4.824h3.48zm.167 7.104c2.136 0 3.384.912 3.384 2.568 0 1.56-1.176 2.496-3.384 2.496h-3.648v-5.064h3.648zm14.183 7.536c3.744 0 6.264-2.52 6.264-6.288 0-3.744-2.52-6.288-6.264-6.288s-6.264 2.544-6.264 6.288c0 3.768 2.52 6.288 6.264 6.288zm0-2.208c-2.184 0-3.6-1.704-3.6-4.08 0-2.376 1.416-4.08 3.6-4.08s3.624 1.704 3.624 4.08c0 2.376-1.44 4.08-3.624 4.08zm14.828-10.368c-1.992 0-3.168.792-3.936 1.752l-.288-1.608h-2.256V75h2.592v-6.192c0-2.496 1.224-4.008 3.288-4.008 1.944 0 2.928 1.248 2.928 3.576V75h2.616v-6.84c0-4.104-2.232-5.592-4.944-5.592zm15.726 6.288c0 2.544-1.2 4.032-3.168 4.032-1.896 0-2.856-1.224-2.856-3.624v-6.552h-2.592v6.84c0 4.2 2.232 5.592 4.848 5.592 1.896 0 3.024-.768 3.792-1.704l.288 1.56h2.28V62.712h-2.592v6.144zm4.618 2.088c.072 2.664 2.328 4.2 5.616 4.2 2.976 0 5.208-1.488 5.208-3.84 0-2.736-2.28-3.312-5.088-3.648-1.776-.192-2.952-.336-2.952-1.488 0-.984 1.008-1.608 2.544-1.608s2.592.792 2.736 1.92h2.544c-.168-2.52-2.304-3.912-5.328-3.912-2.952-.024-5.04 1.488-5.04 3.816 0 2.544 2.208 3.144 5.016 3.48 1.896.24 3.024.336 3.024 1.656 0 .984-1.056 1.608-2.664 1.608-1.872 0-2.976-.912-3.072-2.184h-2.544z" fill="#000"/></svg>