<svg width="132" height="31" viewBox="0 0 132 31" fill="none" xmlns="http://www.w3.org/2000/svg"><path d="M.26 1.55h3.12V10h.702V1.55h3.12V.9H.26v.65zm9.965 1.859c-1.222 0-1.742.585-2.015 1.313l-.104-1.313h-.572V10h.663V6.659c0-1.339.35-2.613 1.898-2.613h.48v-.637h-.35zm6.852 5.98c-.39 0-.585-.13-.585-.637V5.684c0-1.508-.923-2.353-2.574-2.353-1.508 0-2.509.728-2.678 1.924h.663c.169-.806.871-1.339 1.989-1.339 1.235 0 1.937.65 1.937 1.742v.572h-2.236c-1.69 0-2.6.728-2.6 1.963 0 1.17.923 1.885 2.327 1.885 1.339 0 2.132-.611 2.535-1.43v.234c-.026.78.299 1.118 1.079 1.118h.39v-.611h-.247zm-1.248-2.054c0 1.261-.897 2.171-2.457 2.171-1.053 0-1.703-.533-1.703-1.352 0-.871.65-1.352 1.872-1.352h2.288v.533zm7.662-2.444c-.403-.936-1.287-1.56-2.522-1.56-1.807 0-3.107 1.378-3.107 3.367 0 2.08 1.3 3.38 3.107 3.38 1.235 0 2.093-.663 2.51-1.586L23.581 10h.572V.9h-.663v3.991zm-2.47 4.589c-1.469 0-2.483-1.144-2.483-2.782 0-1.625 1.014-2.782 2.483-2.782 1.47 0 2.483 1.157 2.483 2.795 0 1.625-1.014 2.769-2.483 2.769zm7.605.598c1.443 0 2.548-.936 2.834-2.262h-.676c-.26 1.027-1.131 1.664-2.21 1.664-1.47 0-2.392-1.118-2.418-2.652v-.117h5.382c0-.091.013-.195.013-.273-.065-1.963-1.274-3.107-3.042-3.107-1.807 0-3.042 1.378-3.042 3.328 0 2.067 1.287 3.419 3.159 3.419zm-2.418-3.926c.104-1.339 1.105-2.236 2.314-2.236 1.287 0 2.21.793 2.314 2.236h-4.628zm14.161 3.926c1.95 0 3.328-1.053 3.718-2.886h-.741c-.39 1.456-1.443 2.236-2.99 2.236-2.106 0-3.432-1.651-3.432-3.978s1.352-3.978 3.458-3.978c1.521 0 2.587.793 2.99 2.223h.741C43.71 1.875 42.332.822 40.421.822c-2.561 0-4.225 1.898-4.225 4.628 0 2.756 1.625 4.628 4.173 4.628zm5.23-.078h.701V5.801h3.926v-.65H46.3V1.55h4.706V.9h-5.408V10zm9.29 0c2.887 0 4.577-1.794 4.577-4.55 0-2.769-1.69-4.55-4.576-4.55h-2.652V10h2.652zm-1.95-8.45h1.95c2.484 0 3.862 1.508 3.862 3.9 0 2.379-1.378 3.9-3.861 3.9h-1.95v-7.8zm7.629 6.422c.052 1.365 1.157 2.106 2.808 2.106 1.417 0 2.56-.715 2.56-1.885 0-1.391-1.221-1.664-2.638-1.859-1.027-.143-1.937-.26-1.937-1.183 0-.754.74-1.248 1.859-1.248 1.053 0 1.807.507 1.924 1.365h.676c-.117-1.287-1.17-1.937-2.6-1.937-1.47-.013-2.522.741-2.522 1.872 0 1.326 1.222 1.573 2.574 1.755 1.105.156 2.002.299 2.002 1.274 0 .78-.82 1.274-1.898 1.274-1.261 0-2.08-.585-2.132-1.534h-.676zM72.305 10h.715l1.95-5.538L76.829 10h.715l2.34-6.591h-.676L77.18 9.207l-1.885-5.798h-.611l-1.99 5.798-1.923-5.798h-.702L72.305 10zm8.844-7.982c.26 0 .468-.195.468-.468a.458.458 0 00-.468-.468.458.458 0 00-.468.468c0 .273.208.468.468.468zM80.811 10h.663V3.409h-.663V10zm2.716-1.534c0 1.053.429 1.534 1.547 1.534h.962v-.611h-.91c-.69 0-.936-.26-.936-.936V4.02h1.78v-.611h-1.78V1.563h-.663v1.846h-1.248v.611h1.248v4.446zm6.56-5.135c-1.235 0-2.002.689-2.38 1.638V.9h-.662V10h.663V6.75c0-1.716.87-2.808 2.275-2.808 1.26 0 2.04.832 2.04 2.392V10h.664V6.308c0-2.08-1.105-2.977-2.6-2.977zm10.626 0c-1.235 0-2.002.689-2.38 1.638V.9h-.662V10h.663V6.75c0-1.716.87-2.808 2.275-2.808 1.261 0 2.041.832 2.041 2.392V10h.663V6.308c0-2.08-1.105-2.977-2.6-2.977zm4.418-1.313c.26 0 .468-.195.468-.468a.458.458 0 00-.468-.468.458.458 0 00-.468.468c0 .273.208.468.468.468zM104.793 10h.663V3.409h-.663V10zm7.59-5.057c-.403-.975-1.287-1.612-2.509-1.612-1.807 0-3.107 1.365-3.107 3.367 0 2.08 1.3 3.38 3.107 3.38 1.235 0 2.106-.65 2.522-1.677v1.17c0 1.755-.832 2.509-2.418 2.509-1.235 0-2.093-.559-2.301-1.56h-.689c.208 1.404 1.339 2.158 2.938 2.158 2.132 0 3.133-1.014 3.133-3.081V3.409h-.572l-.104 1.534zm-2.457 4.537c-1.469 0-2.483-1.144-2.483-2.782 0-1.638 1.014-2.782 2.483-2.782s2.483 1.144 2.483 2.795c0 1.625-1.014 2.769-2.483 2.769zm7.735-6.149c-1.235 0-2.002.689-2.379 1.638V.9h-.663V10h.663V6.75c0-1.716.871-2.808 2.275-2.808 1.261 0 2.041.832 2.041 2.392V10h.663V6.308c0-2.08-1.105-2.977-2.6-2.977zm6.89 6.747c1.443 0 2.548-.936 2.834-2.262h-.676c-.26 1.027-1.131 1.664-2.21 1.664-1.469 0-2.392-1.118-2.418-2.652v-.117h5.382c0-.091.013-.195.013-.273-.065-1.963-1.274-3.107-3.042-3.107-1.807 0-3.042 1.378-3.042 3.328 0 2.067 1.287 3.419 3.159 3.419zm-2.418-3.926c.104-1.339 1.105-2.236 2.314-2.236 1.287 0 2.21.793 2.314 2.236h-4.628zm9.345-2.743c-1.222 0-1.742.585-2.015 1.313l-.104-1.313h-.572V10h.663V6.659c0-1.339.351-2.613 1.898-2.613h.481v-.637h-.351zM.78 28h.663v-9.1H.78V28zm5.134.078c1.443 0 2.548-.936 2.834-2.262h-.676c-.26 1.027-1.131 1.664-2.21 1.664-1.47 0-2.392-1.118-2.418-2.652v-.117h5.382c0-.091.013-.195.013-.273-.065-1.963-1.274-3.107-3.042-3.107-1.807 0-3.042 1.378-3.042 3.328 0 2.067 1.287 3.419 3.159 3.419zm-2.418-3.926C3.6 22.813 4.6 21.916 5.81 21.916c1.287 0 2.21.793 2.314 2.236H3.496zM11.78 28h.793l2.574-6.591h-.69l-2.261 5.824-2.275-5.824h-.715L11.78 28zm6.904.078c1.443 0 2.548-.936 2.834-2.262h-.676c-.26 1.027-1.13 1.664-2.21 1.664-1.469 0-2.392-1.118-2.418-2.652v-.117h5.382c0-.091.013-.195.013-.273-.065-1.963-1.274-3.107-3.042-3.107-1.807 0-3.042 1.378-3.042 3.328 0 2.067 1.287 3.419 3.16 3.419zm-2.418-3.926c.104-1.339 1.105-2.236 2.314-2.236 1.287 0 2.21.793 2.314 2.236h-4.628zm9.345-2.743c-1.222 0-1.742.585-2.015 1.313l-.104-1.313h-.572V28h.663v-3.341c0-1.339.35-2.613 1.898-2.613h.48v-.637h-.35zm6.852 5.98c-.39 0-.585-.13-.585-.637v-3.068c0-1.508-.923-2.353-2.574-2.353-1.508 0-2.51.728-2.678 1.924h.663c.169-.806.87-1.339 1.989-1.339 1.235 0 1.937.65 1.937 1.742v.572H28.98c-1.69 0-2.6.728-2.6 1.963 0 1.17.923 1.885 2.327 1.885 1.339 0 2.132-.611 2.535-1.43v.234c-.026.78.299 1.118 1.079 1.118h.39v-.611h-.247zm-1.248-2.054c0 1.261-.897 2.171-2.457 2.171-1.053 0-1.703-.533-1.703-1.352 0-.871.65-1.352 1.872-1.352h2.288v.533zm7.75-2.392c-.403-.975-1.287-1.612-2.509-1.612-1.807 0-3.107 1.365-3.107 3.367 0 2.08 1.3 3.38 3.107 3.38 1.235 0 2.106-.65 2.522-1.677v1.17c0 1.755-.832 2.509-2.418 2.509-1.235 0-2.093-.559-2.3-1.56h-.69c.208 1.404 1.34 2.158 2.938 2.158 2.132 0 3.133-1.014 3.133-3.081v-6.188h-.572l-.104 1.534zM36.51 27.48c-1.469 0-2.483-1.144-2.483-2.782 0-1.638 1.014-2.782 2.483-2.782 1.47 0 2.483 1.144 2.483 2.795 0 1.625-1.014 2.769-2.483 2.769zm7.605.598c1.443 0 2.548-.936 2.834-2.262h-.676c-.26 1.027-1.131 1.664-2.21 1.664-1.47 0-2.392-1.118-2.418-2.652v-.117h5.382c0-.091.013-.195.013-.273-.065-1.963-1.274-3.107-3.042-3.107-1.807 0-3.042 1.378-3.042 3.328 0 2.067 1.287 3.419 3.159 3.419zm-2.418-3.926c.104-1.339 1.105-2.236 2.314-2.236 1.287 0 2.21.793 2.314 2.236h-4.628zm9.659-4.186l-1.625.702.026-1.781h-.481l.026 1.781-1.612-.702-.195.455 1.664.637-1.144 1.365.35.325 1.145-1.417 1.144 1.417.364-.325-1.131-1.352 1.65-.637-.181-.468zm10.854 7.423c-.39 0-.585-.13-.585-.637v-3.068c0-1.508-.923-2.353-2.574-2.353-1.508 0-2.51.728-2.678 1.924h.663c.169-.806.87-1.339 1.989-1.339 1.235 0 1.937.65 1.937 1.742v.572h-2.236c-1.69 0-2.6.728-2.6 1.963 0 1.17.923 1.885 2.327 1.885 1.339 0 2.132-.611 2.535-1.43v.234c-.026.78.299 1.118 1.079 1.118h.39v-.611h-.247zm-1.248-2.054c0 1.261-.897 2.171-2.457 2.171-1.053 0-1.703-.533-1.703-1.352 0-.871.65-1.352 1.872-1.352h2.288v.533zm5.424-4.004c-1.21 0-1.99.624-2.367 1.482l-.104-1.404h-.572V28h.663v-3.25c0-1.716.871-2.808 2.276-2.808 1.273 0 2.04.832 2.04 2.392V28h.663v-3.692c0-2.08-1.105-2.977-2.6-2.977zm9.347 1.56c-.403-.936-1.287-1.56-2.522-1.56-1.807 0-3.107 1.378-3.107 3.367 0 2.08 1.3 3.38 3.107 3.38 1.235 0 2.093-.663 2.51-1.586L75.822 28h.572v-9.1h-.663v3.991zm-2.47 4.589c-1.469 0-2.483-1.144-2.483-2.782 0-1.625 1.014-2.782 2.483-2.782 1.47 0 2.483 1.157 2.483 2.795 0 1.625-1.014 2.769-2.483 2.769zm9.354-6.071v-.988c0-.65.247-.91.91-.91h.949V18.9H83.5c-1.105 0-1.547.481-1.547 1.534v.975h-1.248v.611h1.248V28h.663v-5.98h2.82V28h.664v-6.591h-3.484zm3.159-2.327a.458.458 0 00-.468.468c0 .273.208.468.468.468a.45.45 0 00.468-.468.45.45 0 00-.468-.468zM86.952 28h.767l2.184-2.899L92.087 28h.806l-2.561-3.367 2.431-3.224h-.754l-2.08 2.73-2.054-2.73h-.793l2.431 3.224L86.952 28zm9.48.078c1.442 0 2.547-.936 2.833-2.262h-.676c-.26 1.027-1.13 1.664-2.21 1.664-1.469 0-2.392-1.118-2.418-2.652v-.117h5.382c0-.091.013-.195.013-.273-.065-1.963-1.274-3.107-3.042-3.107-1.807 0-3.042 1.378-3.042 3.328 0 2.067 1.287 3.419 3.16 3.419zm-2.419-3.926c.104-1.339 1.105-2.236 2.314-2.236 1.287 0 2.21.793 2.314 2.236h-4.628zm12.036-1.261c-.403-.936-1.287-1.56-2.522-1.56-1.807 0-3.107 1.378-3.107 3.367 0 2.08 1.3 3.38 3.107 3.38 1.235 0 2.093-.663 2.509-1.586L106.14 28h.572v-9.1h-.663v3.991zm-2.47 4.589c-1.469 0-2.483-1.144-2.483-2.782 0-1.625 1.014-2.782 2.483-2.782s2.483 1.157 2.483 2.795c0 1.625-1.014 2.769-2.483 2.769zm10.887-6.071c-1.222 0-1.742.585-2.015 1.313l-.104-1.313h-.572V28h.663v-3.341c0-1.339.351-2.613 1.898-2.613h.481v-.637h-.351zm1.672-1.391c.26 0 .468-.195.468-.468a.458.458 0 00-.468-.468.458.458 0 00-.468.468c0 .273.208.468.468.468zM115.8 28h.663v-6.591h-.663V28zm1.922-2.028c.052 1.365 1.157 2.106 2.808 2.106 1.417 0 2.561-.715 2.561-1.885 0-1.391-1.222-1.664-2.639-1.859-1.027-.143-1.937-.26-1.937-1.183 0-.754.741-1.248 1.859-1.248 1.053 0 1.807.507 1.924 1.365h.676c-.117-1.287-1.17-1.937-2.6-1.937-1.469-.013-2.522.741-2.522 1.872 0 1.326 1.222 1.573 2.574 1.755 1.105.156 2.002.299 2.002 1.274 0 .78-.819 1.274-1.898 1.274-1.261 0-2.08-.585-2.132-1.534h-.676zM124.356 28h.663v-1.781l1.547-1.586L129.088 28h.806l-2.873-3.848 2.652-2.743h-.819l-3.835 3.952V18.9h-.663V28z" fill="#000"/></svg>