<svg width="131" height="41" viewBox="0 0 131 41" fill="none" xmlns="http://www.w3.org/2000/svg"><path d="M.592 7.233c.09 1.699 1.326 2.844 3.346 2.844 1.892 0 3.14-1.03 3.14-2.548 0-1.712-1.518-2.15-3.011-2.407-1.377-.231-2.574-.463-2.574-1.75 0-1.171.914-1.827 2.33-1.827 1.35 0 2.277.759 2.432 1.93h.708c-.13-1.544-1.3-2.561-3.14-2.561-1.828 0-3.025.965-3.025 2.497 0 1.711 1.467 2.097 2.908 2.342 1.416.245 2.677.528 2.677 1.84 0 1.159-.978 1.854-2.432 1.854-1.519 0-2.548-.876-2.638-2.214H.592zm10.742 2.844c1.429 0 2.523-.926 2.806-2.24h-.67c-.257 1.018-1.12 1.648-2.187 1.648-1.455 0-2.368-1.107-2.394-2.625v-.116h5.328c0-.09.013-.193.013-.27-.065-1.944-1.261-3.076-3.012-3.076-1.789 0-3.011 1.364-3.011 3.294 0 2.047 1.274 3.385 3.127 3.385zM8.94 6.191c.103-1.326 1.094-2.214 2.291-2.214 1.274 0 2.188.785 2.29 2.214h-4.58zm6.922-4.093a.453.453 0 00.463-.463.453.453 0 00-.463-.464.453.453 0 00-.464.464c0 .27.206.463.464.463zM15.527 10h.656V3.475h-.656V10zm1.89-5.92h4.196l-4.375 5.405V10h5.43v-.605H18.1l4.388-5.418v-.502h-5.07v.605zm8.798 5.997c1.428 0 2.522-.926 2.805-2.24h-.669c-.257 1.018-1.12 1.648-2.188 1.648-1.454 0-2.368-1.107-2.394-2.625v-.116h5.329c0-.09.012-.193.012-.27-.064-1.944-1.26-3.076-3.011-3.076-1.789 0-3.012 1.364-3.012 3.294 0 2.047 1.274 3.385 3.128 3.385zM23.82 6.191c.103-1.326 1.094-2.214 2.29-2.214 1.275 0 2.189.785 2.291 2.214h-4.581zm12.938 3.886c1.84 0 3.14-1.364 3.14-3.346 0-1.969-1.3-3.333-3.14-3.333s-3.127 1.364-3.127 3.333c0 1.982 1.287 3.346 3.127 3.346zm0-.592c-1.454 0-2.458-1.132-2.458-2.754 0-1.609 1.004-2.754 2.458-2.754 1.455 0 2.458 1.145 2.458 2.754 0 1.622-1.003 2.754-2.458 2.754zm7.456-6.087c-1.197 0-1.969.618-2.342 1.467l-.103-1.39h-.566V10h.656V6.783c0-1.7.862-2.78 2.252-2.78 1.261 0 2.02.823 2.02 2.368V10h.657V6.345c0-2.06-1.094-2.947-2.574-2.947zm10.378 6.68c1.429 0 2.523-.927 2.806-2.24h-.67c-.257 1.017-1.119 1.647-2.187 1.647-1.454 0-2.368-1.107-2.394-2.625v-.116h5.328c0-.09.013-.193.013-.27-.064-1.944-1.261-3.076-3.011-3.076-1.79 0-3.012 1.364-3.012 3.294 0 2.047 1.274 3.385 3.127 3.385zM52.2 6.19c.103-1.326 1.093-2.214 2.29-2.214 1.274 0 2.188.785 2.291 2.214H52.2zm12.326 3.204c-.386 0-.579-.129-.579-.63V5.727c0-1.493-.914-2.33-2.548-2.33-1.493 0-2.484.722-2.651 1.906h.656c.167-.798.862-1.326 1.97-1.326 1.222 0 1.917.643 1.917 1.725v.566h-2.214c-1.673 0-2.574.72-2.574 1.943 0 1.158.914 1.866 2.304 1.866 1.325 0 2.11-.605 2.51-1.415v.231c-.026.772.295 1.107 1.068 1.107h.386v-.605h-.245zm-1.235-2.033c0 1.248-.888 2.149-2.433 2.149-1.042 0-1.685-.528-1.685-1.338 0-.863.643-1.339 1.853-1.339h2.265v.528zm5.022-3.887c-1.21 0-1.725.58-1.995 1.3l-.103-1.3h-.567V10h.657V6.692c0-1.325.347-2.586 1.879-2.586h.476v-.63h-.347zm4.331-.077c-1.197 0-1.969.618-2.342 1.467l-.103-1.39h-.566V10h.656V6.783c0-1.7.862-2.78 2.252-2.78 1.261 0 2.02.823 2.02 2.368V10h.657V6.345c0-2.06-1.094-2.947-2.574-2.947zm4.361-1.3a.454.454 0 00.464-.463.454.454 0 00-.464-.464.454.454 0 00-.463.464c0 .27.206.463.463.463zM76.671 10h.656V3.475h-.656V10zm5.21-6.602c-1.196 0-1.968.618-2.342 1.467l-.103-1.39h-.566V10h.656V6.783c0-1.7.863-2.78 2.253-2.78 1.26 0 2.02.823 2.02 2.368V10h.657V6.345c0-2.06-1.094-2.947-2.574-2.947zm9.343 1.596c-.4-.966-1.275-1.596-2.484-1.596-1.79 0-3.076 1.351-3.076 3.333 0 2.06 1.287 3.346 3.076 3.346 1.222 0 2.085-.643 2.496-1.66v1.158c0 1.738-.823 2.484-2.393 2.484-1.223 0-2.073-.553-2.278-1.544h-.683c.206 1.39 1.326 2.136 2.91 2.136 2.11 0 3.1-1.004 3.1-3.05V3.475h-.566l-.102 1.519zM88.79 9.485c-1.454 0-2.458-1.132-2.458-2.754 0-1.621 1.004-2.754 2.458-2.754 1.454 0 2.458 1.133 2.458 2.767 0 1.609-1.004 2.741-2.458 2.741zm4.35-1.493c.051 1.352 1.145 2.085 2.78 2.085 1.402 0 2.535-.708 2.535-1.866 0-1.377-1.21-1.647-2.613-1.84-1.017-.142-1.917-.258-1.917-1.171 0-.747.733-1.236 1.84-1.236 1.042 0 1.789.502 1.905 1.351h.669c-.116-1.274-1.158-1.917-2.574-1.917-1.454-.013-2.497.733-2.497 1.853 0 1.313 1.21 1.557 2.548 1.737 1.094.155 1.982.296 1.982 1.262 0 .772-.81 1.26-1.879 1.26-1.248 0-2.059-.578-2.11-1.518h-.67zM104.76 10h.708l1.93-5.482 1.84 5.482h.708l2.317-6.525h-.669l-2.008 5.74-1.866-5.74h-.605l-1.969 5.74-1.905-5.74h-.695L104.76 10zm8.756-7.902a.453.453 0 00.463-.463.453.453 0 00-.463-.464.454.454 0 00-.464.464c0 .27.206.463.464.463zM113.181 10h.656V3.475h-.656V10zm2.688-1.519c0 1.043.425 1.519 1.532 1.519h.952v-.605h-.901c-.682 0-.926-.257-.926-.926v-4.39h1.763v-.604h-1.763V1.648h-.657v1.827h-1.235v.605h1.235V8.48zm6.494-5.083c-1.222 0-1.982.682-2.355 1.621V.991h-.656V10h.656V6.783c0-1.7.863-2.78 2.252-2.78 1.249 0 2.021.823 2.021 2.368V10h.656V6.345c0-2.06-1.094-2.947-2.574-2.947zM3.655 25.078c1.429 0 2.522-.927 2.806-2.24h-.67c-.257 1.017-1.12 1.647-2.187 1.647-1.455 0-2.369-1.107-2.394-2.625v-.116h5.328c0-.09.013-.193.013-.27-.065-1.944-1.262-3.076-3.012-3.076-1.789 0-3.011 1.364-3.011 3.294 0 2.047 1.274 3.385 3.127 3.385zM1.261 21.19c.103-1.326 1.094-2.214 2.291-2.214 1.274 0 2.188.785 2.29 2.214h-4.58zM6.927 25h.76l2.161-2.87L12.01 25h.798l-2.535-3.333 2.407-3.192h-.747l-2.059 2.703-2.033-2.703h-.785l2.406 3.192L6.927 25zm7.305-1.519c0 1.043.424 1.519 1.531 1.519h.952v-.605h-.9c-.683 0-.927-.257-.927-.927V19.08h1.763v-.605h-1.763v-1.827h-.656v1.827h-1.236v.605h1.236v4.401zm6.164 1.596c1.428 0 2.522-.926 2.805-2.24h-.669c-.257 1.018-1.12 1.648-2.188 1.648-1.454 0-2.368-1.107-2.394-2.625v-.116h5.329c0-.09.012-.193.012-.27-.064-1.944-1.26-3.076-3.011-3.076-1.79 0-3.012 1.364-3.012 3.294 0 2.047 1.274 3.385 3.128 3.385zm-2.394-3.886c.103-1.326 1.094-2.214 2.29-2.214 1.275 0 2.189.785 2.291 2.214h-4.581zm9.598-2.793c-1.197 0-1.969.618-2.342 1.467l-.103-1.39h-.566V25h.656v-3.217c0-1.7.862-2.78 2.252-2.78 1.262 0 2.02.823 2.02 2.368V25h.657v-3.655c0-2.06-1.094-2.947-2.574-2.947zm9.254 1.544c-.399-.926-1.274-1.544-2.496-1.544-1.79 0-3.076 1.364-3.076 3.333 0 2.06 1.287 3.346 3.076 3.346 1.222 0 2.072-.656 2.483-1.57L36.944 25h.567v-9.009h-.657v3.951zm-2.445 4.543c-1.454 0-2.458-1.132-2.458-2.754 0-1.609 1.004-2.754 2.458-2.754 1.454 0 2.458 1.145 2.458 2.767 0 1.609-1.004 2.741-2.458 2.741zm7.528.592c1.429 0 2.523-.926 2.806-2.24h-.67c-.257 1.018-1.119 1.648-2.187 1.648-1.454 0-2.368-1.107-2.394-2.625v-.116h5.328c0-.09.013-.193.013-.27-.064-1.944-1.261-3.076-3.011-3.076-1.79 0-3.012 1.364-3.012 3.294 0 2.047 1.274 3.385 3.127 3.385zm-2.393-3.886c.103-1.326 1.094-2.214 2.29-2.214 1.274 0 2.188.785 2.291 2.214h-4.581zm11.914-1.249c-.399-.926-1.274-1.544-2.496-1.544-1.79 0-3.076 1.364-3.076 3.333 0 2.06 1.287 3.346 3.076 3.346 1.222 0 2.072-.656 2.483-1.57L51.549 25h.567v-9.009h-.657v3.951zm-2.445 4.543c-1.454 0-2.458-1.132-2.458-2.754 0-1.609 1.004-2.754 2.458-2.754 1.454 0 2.458 1.145 2.458 2.767 0 1.609-1.004 2.741-2.458 2.741zm11.126-6.087c-1.223 0-1.982.682-2.355 1.621v-4.028h-.657V25h.657v-3.217c0-1.7.862-2.78 2.252-2.78 1.248 0 2.02.823 2.02 2.368V25h.657v-3.655c0-2.06-1.094-2.947-2.574-2.947zm6.821 6.68c1.84 0 3.14-1.365 3.14-3.347 0-1.969-1.3-3.333-3.14-3.333s-3.127 1.364-3.127 3.333c0 1.982 1.287 3.346 3.127 3.346zm0-.593c-1.454 0-2.458-1.132-2.458-2.754 0-1.609 1.004-2.754 2.458-2.754 1.455 0 2.459 1.145 2.459 2.754 0 1.622-1.004 2.754-2.459 2.754zm9.18-2.805c0 1.711-.849 2.792-2.2 2.792-1.21 0-1.956-.823-1.956-2.38v-3.617h-.656v3.655c0 2.046 1.068 2.947 2.51 2.947 1.157 0 1.917-.618 2.29-1.454l.09 1.377h.58v-6.525h-.657v3.205zm4.866-3.205c-1.21 0-1.724.58-1.995 1.3l-.102-1.3h-.567V25H79v-3.308c0-1.325.347-2.586 1.879-2.586h.476v-.63h-.348zm.861 4.517c.051 1.352 1.145 2.085 2.78 2.085 1.403 0 2.535-.708 2.535-1.866 0-1.377-1.21-1.647-2.612-1.84-1.017-.142-1.918-.258-1.918-1.171 0-.747.734-1.236 1.84-1.236 1.043 0 1.79.502 1.905 1.351h.67c-.116-1.274-1.159-1.917-2.575-1.917-1.454-.013-2.496.733-2.496 1.853 0 1.313 1.21 1.557 2.548 1.737 1.094.155 1.982.297 1.982 1.262 0 .772-.811 1.261-1.88 1.261-1.248 0-2.058-.58-2.11-1.519h-.669zm15.776 1.403c-.386 0-.579-.129-.579-.63v-3.038c0-1.493-.914-2.33-2.548-2.33-1.493 0-2.484.722-2.651 1.906h.656c.167-.798.862-1.326 1.969-1.326 1.223 0 1.918.643 1.918 1.724v.567h-2.214c-1.673 0-2.574.72-2.574 1.943 0 1.158.914 1.866 2.304 1.866 1.325 0 2.11-.605 2.51-1.415v.231c-.026.772.295 1.107 1.068 1.107h.386v-.605h-.245zm-1.235-2.033c0 1.248-.888 2.149-2.433 2.149-1.042 0-1.686-.528-1.686-1.338 0-.863.644-1.339 1.854-1.339h2.265v.528zm5.369-3.964c-1.197 0-1.97.618-2.342 1.467l-.103-1.39h-.567V25h.657v-3.217c0-1.7.862-2.78 2.252-2.78 1.261 0 2.02.823 2.02 2.368V25h.657v-3.655c0-2.06-1.094-2.947-2.574-2.947zm9.254 1.544c-.399-.926-1.274-1.544-2.497-1.544-1.789 0-3.076 1.364-3.076 3.333 0 2.06 1.287 3.346 3.076 3.346 1.223 0 2.072-.656 2.484-1.57l.103 1.493h.566v-9.009h-.656v3.951zm-2.445 4.543c-1.454 0-2.458-1.132-2.458-2.754 0-1.609 1.004-2.754 2.458-2.754 1.454 0 2.458 1.145 2.458 2.767 0 1.609-1.004 2.741-2.458 2.741zm14.42-1.956c0-1.712-1.518-2.15-3.011-2.407-1.377-.231-2.574-.463-2.574-1.75 0-1.171.913-1.827 2.329-1.827 1.351 0 2.278.759 2.433 1.93h.707c-.115-1.416-1.119-2.394-2.715-2.548V14.6h-.618v1.313c-1.724.064-2.831 1.017-2.831 2.497 0 1.711 1.467 2.098 2.908 2.342 1.416.244 2.677.528 2.677 1.84 0 1.159-.978 1.854-2.432 1.854-1.519 0-2.548-.875-2.638-2.214h-.721c.09 1.609 1.197 2.728 3.037 2.831v1.313h.618v-1.313c1.712-.103 2.831-1.106 2.831-2.535zm1.219-1.828c0 2.639 1.3 4.376 3.256 4.376 1.93 0 3.243-1.737 3.243-4.376v-.411c0-2.561-1.313-4.376-3.243-4.376-1.956 0-3.256 1.815-3.256 4.376v.412zm5.817-.025c0 2.29-1.017 3.784-2.561 3.784-1.558 0-2.574-1.493-2.574-3.784v-.36c0-2.291 1.016-3.784 2.574-3.784 1.544 0 2.561 1.493 2.561 3.783v.36zM3.616 40.077c1.48 0 2.523-.85 2.78-2.175h-.695c-.219.965-1.004 1.583-2.085 1.583-1.428 0-2.42-1.12-2.42-2.741 0-1.622.979-2.767 2.42-2.767 1.094 0 1.866.618 2.098 1.596h.682c-.27-1.352-1.287-2.175-2.767-2.175-1.84 0-3.101 1.364-3.101 3.346 0 2.008 1.248 3.333 3.088 3.333zm6.939 0c1.84 0 3.14-1.364 3.14-3.346 0-1.969-1.3-3.333-3.14-3.333s-3.127 1.364-3.127 3.333c0 1.982 1.286 3.346 3.127 3.346zm0-.592c-1.454 0-2.458-1.132-2.458-2.754 0-1.609 1.004-2.754 2.458-2.754 1.454 0 2.458 1.145 2.458 2.754 0 1.622-1.004 2.754-2.458 2.754zm11.729-6.087c-1.197 0-1.97.67-2.343 1.634-.309-1.08-1.12-1.634-2.149-1.634-1.12 0-1.789.656-2.124 1.467l-.102-1.39h-.567V40h.657v-3.32c0-1.596.772-2.677 2.02-2.677 1.133 0 1.84.798 1.84 2.303V40h.657v-3.552c.039-1.493.81-2.445 2.033-2.445 1.133 0 1.815.759 1.815 2.239V40h.67v-3.784c0-1.969-1.043-2.818-2.407-2.818zm11.147 0c-1.197 0-1.969.67-2.342 1.634-.309-1.08-1.12-1.634-2.15-1.634-1.119 0-1.788.656-2.123 1.467l-.103-1.39h-.566V40h.657v-3.32c0-1.596.772-2.677 2.02-2.677 1.132 0 1.84.798 1.84 2.303V40h.657v-3.552c.038-1.493.81-2.445 2.033-2.445 1.133 0 1.815.759 1.815 2.239V40h.669v-3.784c0-1.969-1.043-2.818-2.407-2.818zm4.199-1.3a.453.453 0 00.463-.463.453.453 0 00-.463-.464.453.453 0 00-.464.464c0 .27.206.463.464.463zM37.295 40h.656v-6.525h-.656V40zm1.903-2.008c.052 1.352 1.146 2.085 2.78 2.085 1.403 0 2.536-.708 2.536-1.866 0-1.377-1.21-1.647-2.613-1.84-1.017-.142-1.918-.258-1.918-1.171 0-.747.734-1.236 1.84-1.236 1.043 0 1.79.502 1.905 1.351h.67c-.116-1.274-1.159-1.917-2.574-1.917-1.454-.013-2.497.733-2.497 1.853 0 1.313 1.21 1.557 2.548 1.738 1.094.154 1.982.296 1.982 1.26 0 .773-.81 1.262-1.879 1.262-1.248 0-2.059-.58-2.11-1.519h-.67zm6.146 0c.052 1.352 1.146 2.085 2.78 2.085 1.403 0 2.535-.708 2.535-1.866 0-1.377-1.21-1.647-2.612-1.84-1.017-.142-1.918-.258-1.918-1.171 0-.747.734-1.236 1.84-1.236 1.043 0 1.79.502 1.905 1.351h.67c-.116-1.274-1.159-1.917-2.574-1.917-1.455-.013-2.497.733-2.497 1.853 0 1.313 1.21 1.557 2.548 1.738 1.094.154 1.982.296 1.982 1.26 0 .773-.81 1.262-1.879 1.262-1.248 0-2.06-.58-2.11-1.519h-.67zm6.902-5.894a.453.453 0 00.464-.463.453.453 0 00-.464-.464.454.454 0 00-.463.464c0 .27.206.463.463.463zM51.912 40h.656v-6.525h-.656V40zm5.082.077c1.84 0 3.14-1.364 3.14-3.346 0-1.969-1.3-3.333-3.14-3.333s-3.127 1.364-3.127 3.333c0 1.982 1.287 3.346 3.127 3.346zm0-.592c-1.454 0-2.458-1.132-2.458-2.754 0-1.609 1.004-2.754 2.458-2.754 1.454 0 2.458 1.145 2.458 2.754 0 1.622-1.004 2.754-2.458 2.754zm7.456-6.087c-1.197 0-1.97.618-2.343 1.467l-.102-1.39h-.567V40h.657v-3.217c0-1.7.862-2.78 2.252-2.78 1.261 0 2.02.823 2.02 2.368V40h.657v-3.655c0-2.06-1.094-2.947-2.574-2.947zm3.95 6.177c0 .296.205.49.488.49a.466.466 0 00.49-.49c0-.296-.207-.476-.49-.476-.283 0-.489.18-.489.476z" fill="#000"/></svg>