<svg width="220" height="34" viewBox="0 0 220 34" fill="none" xmlns="http://www.w3.org/2000/svg"><rect width="220" height="34" rx="17" fill="#14964F"/><path d="M23.126 23h1.92l-3.984-11.136H18.95L14.966 23h1.904l.8-2.272h4.656l.8 2.272zm-1.312-3.76h-3.632l1.824-5.168 1.808 5.168zM33.034 23h1.808v-5.2c0-2.464-1.552-3.76-3.616-3.76-1.056 0-2.032.432-2.624 1.152v-1.008h-1.824V23h1.824v-4.928c0-1.616.88-2.448 2.224-2.448 1.328 0 2.208.832 2.208 2.448V23zm16.63 0h1.809v-5.2c0-2.464-1.568-3.76-3.632-3.76-1.28 0-2.528.672-3.072 1.744-.608-1.152-1.776-1.744-3.168-1.744-1.056 0-2.016.432-2.608 1.152v-1.008h-1.824V23h1.824v-4.928c0-1.616.88-2.448 2.224-2.448 1.328 0 2.208.832 2.208 2.448V23h1.808v-4.928c0-1.616.88-2.448 2.224-2.448 1.328 0 2.208.832 2.208 2.448V23zm7.842-7.424c1.36 0 2.432.864 2.464 2.224h-4.88c.192-1.392 1.184-2.224 2.416-2.224zm4.128 4.8h-1.968c-.336.688-.96 1.232-2.08 1.232-1.344 0-2.384-.88-2.512-2.336h6.736c.048-.304.064-.592.064-.896 0-2.592-1.776-4.336-4.288-4.336-2.608 0-4.4 1.776-4.4 4.544s1.872 4.56 4.4 4.56c2.16 0 3.552-1.232 4.048-2.768zM63.669 23h1.824V11.16h-1.824V23zm3.61-4.448c0 2.72 1.84 4.592 4.16 4.592 1.44 0 2.497-.672 3.057-1.472V23h1.84V11.16h-1.84v4.256c-.672-.832-1.888-1.376-3.04-1.376-2.337 0-4.177 1.792-4.177 4.512zm7.217.032c0 1.904-1.296 2.976-2.672 2.976-1.36 0-2.672-1.104-2.672-3.008s1.311-2.928 2.671-2.928c1.377 0 2.673 1.072 2.673 2.96zm7.947-3.008c1.36 0 2.432.864 2.464 2.224h-4.88c.192-1.392 1.184-2.224 2.416-2.224zm4.128 4.8h-1.968c-.336.688-.96 1.232-2.08 1.232-1.344 0-2.384-.88-2.512-2.336h6.736c.048-.304.064-.592.064-.896 0-2.592-1.776-4.336-4.288-4.336-2.608 0-4.4 1.776-4.4 4.544s1.872 4.56 4.4 4.56c2.16 0 3.552-1.232 4.048-2.768zM94.862 23h1.808v-5.2c0-2.464-1.552-3.76-3.616-3.76-1.056 0-2.032.432-2.624 1.152v-1.008h-1.824V23h1.824v-4.928c0-1.616.88-2.448 2.224-2.448 1.328 0 2.208.832 2.208 2.448V23zm16.275-8.816h-1.824v4.912c0 1.616-.88 2.448-2.224 2.448-1.328 0-2.208-.832-2.208-2.448v-4.912h-1.808v5.184c0 2.464 1.568 3.76 3.632 3.76 1.04 0 2.032-.432 2.608-1.184V23h1.824v-8.816zM119.8 23h1.808v-5.2c0-2.464-1.552-3.76-3.616-3.76-1.056 0-2.032.432-2.624 1.152v-1.008h-1.824V23h1.824v-4.928c0-1.616.88-2.448 2.224-2.448 1.328 0 2.208.832 2.208 2.448V23zm3.526-4.448c0 2.72 1.84 4.592 4.16 4.592 1.44 0 2.496-.672 3.056-1.472V23h1.84V11.16h-1.84v4.256c-.672-.832-1.888-1.376-3.04-1.376-2.336 0-4.176 1.792-4.176 4.512zm7.216.032c0 1.904-1.296 2.976-2.672 2.976-1.36 0-2.672-1.104-2.672-3.008s1.312-2.928 2.672-2.928c1.376 0 2.672 1.072 2.672 2.96zM145.99 23h1.824V11.88h-1.824v4.768h-5.232V11.88h-1.824V23h1.824v-4.864h5.232V23zm3.618-4.448c0 2.72 1.84 4.592 4.128 4.592 1.472 0 2.528-.704 3.088-1.456V23h1.84v-8.816h-1.84v1.28c-.544-.72-1.568-1.424-3.056-1.424-2.32 0-4.16 1.792-4.16 4.512zm7.216.032c0 1.904-1.296 2.976-2.672 2.976-1.36 0-2.672-1.104-2.672-3.008s1.312-2.928 2.672-2.928c1.376 0 2.672 1.072 2.672 2.96zM167.315 23h1.808v-5.2c0-2.464-1.552-3.76-3.616-3.76-1.056 0-2.032.432-2.624 1.152v-1.008h-1.824V23h1.824v-4.928c0-1.616.88-2.448 2.224-2.448 1.328 0 2.208.832 2.208 2.448V23zm3.527-4.448c0 2.72 1.84 4.592 4.16 4.592 1.44 0 2.496-.672 3.056-1.472V23h1.84V11.16h-1.84v4.256c-.672-.832-1.888-1.376-3.04-1.376-2.336 0-4.176 1.792-4.176 4.512zm7.216.032c0 1.904-1.296 2.976-2.672 2.976-1.36 0-2.672-1.104-2.672-3.008s1.312-2.928 2.672-2.928c1.376 0 2.672 1.072 2.672 2.96zm7.948-3.008c1.36 0 2.432.864 2.464 2.224h-4.88c.192-1.392 1.184-2.224 2.416-2.224zm4.128 4.8h-1.968c-.336.688-.96 1.232-2.08 1.232-1.344 0-2.384-.88-2.512-2.336h6.736c.048-.304.064-.592.064-.896 0-2.592-1.776-4.336-4.288-4.336-2.608 0-4.4 1.776-4.4 4.544s1.872 4.56 4.4 4.56c2.16 0 3.552-1.232 4.048-2.768zM192.169 23h1.824V11.16h-1.824V23zm10.475 0h1.808v-5.2c0-2.464-1.552-3.76-3.616-3.76-1.056 0-2.032.432-2.624 1.152v-1.008h-1.824V23h1.824v-4.928c0-1.616.88-2.448 2.224-2.448 1.328 0 2.208.832 2.208 2.448V23z" fill="#fff"/></svg>