<svg width="486" height="17" viewBox="0 0 486 17" fill="none" xmlns="http://www.w3.org/2000/svg"><path d="M7.985 1.515V12h-1.05V7.095H1.25V12H.2V1.515h1.05v4.71h5.685v-4.71h1.05zM9.901 7.89c0-.84.165-1.575.495-2.205.34-.64.805-1.13 1.395-1.47.6-.35 1.275-.525 2.025-.525.78 0 1.45.18 2.01.54.57.36.98.82 1.23 1.38v-1.8h1.05V12h-1.05v-1.815c-.26.56-.675 1.025-1.245 1.395-.56.36-1.23.54-2.01.54-.74 0-1.41-.175-2.01-.525a3.705 3.705 0 01-1.395-1.485c-.33-.64-.495-1.38-.495-2.22zm7.155.015c0-.66-.135-1.24-.405-1.74s-.64-.885-1.11-1.155c-.46-.27-.97-.405-1.53-.405-.58 0-1.1.13-1.56.39-.46.26-.825.64-1.095 1.14-.26.49-.39 1.075-.39 1.755 0 .67.13 1.26.39 1.77.27.5.635.885 1.095 1.155.46.26.98.39 1.56.39.56 0 1.07-.135 1.53-.405.47-.27.84-.655 1.11-1.155.27-.5.405-1.08.405-1.74zm7.287-4.245c.98 0 1.78.305 2.4.915.62.6.93 1.475.93 2.625V12h-1.035V7.32c0-.89-.225-1.57-.675-2.04-.44-.47-1.045-.705-1.815-.705-.79 0-1.42.25-1.89.75s-.705 1.235-.705 2.205V12h-1.05V3.81h1.05v1.395c.26-.5.635-.88 1.125-1.14.49-.27 1.045-.405 1.665-.405zm5.172 4.23c0-.84.17-1.575.51-2.205.34-.64.805-1.13 1.395-1.47.6-.35 1.275-.525 2.025-.525a3.7 3.7 0 011.95.525c.58.35 1.005.805 1.275 1.365V.9h1.05V12h-1.05v-1.83c-.25.57-.66 1.04-1.23 1.41-.57.36-1.24.54-2.01.54-.75 0-1.425-.175-2.025-.525a3.705 3.705 0 01-1.395-1.485c-.33-.64-.495-1.38-.495-2.22zm7.155.015c0-.66-.135-1.24-.405-1.74s-.64-.885-1.11-1.155c-.46-.27-.97-.405-1.53-.405-.58 0-1.1.13-1.56.39-.46.26-.825.64-1.095 1.14-.26.49-.39 1.075-.39 1.755 0 .67.13 1.26.39 1.77.27.5.635.885 1.095 1.155.46.26.98.39 1.56.39.56 0 1.07-.135 1.53-.405.47-.27.84-.655 1.11-1.155.27-.5.405-1.08.405-1.74zm10.857-.42c0 .36-.01.635-.03.825h-6.795c.03.62.18 1.15.45 1.59.27.44.625.775 1.065 1.005.44.22.92.33 1.44.33.68 0 1.25-.165 1.71-.495.47-.33.78-.775.93-1.335h1.11c-.2.8-.63 1.455-1.29 1.965-.65.5-1.47.75-2.46.75-.77 0-1.46-.17-2.07-.51a3.77 3.77 0 01-1.44-1.47c-.34-.64-.51-1.385-.51-2.235 0-.85.17-1.595.51-2.235.34-.64.815-1.13 1.425-1.47.61-.34 1.305-.51 2.085-.51s1.46.17 2.04.51c.59.34 1.04.8 1.35 1.38.32.57.48 1.205.48 1.905zm-1.065-.03c.01-.61-.115-1.13-.375-1.56a2.433 2.433 0 00-1.035-.975c-.44-.22-.92-.33-1.44-.33-.78 0-1.445.25-1.995.75s-.855 1.205-.915 2.115h5.76zM50.498.9V12h-1.05V.9h1.05zm7.019 1.365a.736.736 0 01-.54-.225.754.754 0 01-.225-.555c0-.22.075-.4.225-.54.15-.15.33-.225.54-.225.21 0 .39.075.54.225.15.14.225.32.225.54 0 .22-.075.405-.225.555a.736.736 0 01-.54.225zm.525 1.545V12h-1.05V3.81h1.05zm6.218-.15c.98 0 1.78.305 2.4.915.62.6.93 1.475.93 2.625V12h-1.035V7.32c0-.89-.225-1.57-.675-2.04-.44-.47-1.045-.705-1.815-.705-.79 0-1.42.25-1.89.75S61.47 6.56 61.47 7.53V12h-1.05V3.81h1.05v1.395c.26-.5.635-.88 1.125-1.14.49-.27 1.045-.405 1.665-.405zm9.288 4.23c0-.84.17-1.575.51-2.205.34-.64.805-1.13 1.395-1.47.6-.35 1.275-.525 2.025-.525a3.7 3.7 0 011.95.525c.58.35 1.005.805 1.275 1.365V.9h1.05V12h-1.05v-1.83c-.25.57-.66 1.04-1.23 1.41-.57.36-1.24.54-2.01.54-.75 0-1.425-.175-2.025-.525a3.705 3.705 0 01-1.395-1.485c-.33-.64-.495-1.38-.495-2.22zm7.155.015c0-.66-.135-1.24-.405-1.74s-.64-.885-1.11-1.155c-.46-.27-.97-.405-1.53-.405-.58 0-1.1.13-1.56.39-.46.26-.825.64-1.095 1.14-.26.49-.39 1.075-.39 1.755 0 .67.13 1.26.39 1.77.27.5.635.885 1.095 1.155.46.26.98.39 1.56.39.56 0 1.07-.135 1.53-.405.47-.27.84-.655 1.11-1.155.27-.5.405-1.08.405-1.74zm10.857-.42c0 .36-.01.635-.03.825h-6.795c.03.62.18 1.15.45 1.59.27.44.625.775 1.065 1.005.44.22.92.33 1.44.33.68 0 1.25-.165 1.71-.495.47-.33.78-.775.93-1.335h1.11c-.2.8-.63 1.455-1.29 1.965-.65.5-1.47.75-2.46.75-.77 0-1.46-.17-2.07-.51a3.77 3.77 0 01-1.44-1.47c-.34-.64-.51-1.385-.51-2.235 0-.85.17-1.595.51-2.235.34-.64.815-1.13 1.425-1.47.61-.34 1.305-.51 2.085-.51s1.46.17 2.04.51c.59.34 1.04.8 1.35 1.38.32.57.48 1.205.48 1.905zm-1.065-.03c.01-.61-.115-1.13-.375-1.56a2.433 2.433 0 00-1.035-.975c-.44-.22-.92-.33-1.44-.33-.78 0-1.445.25-1.995.75s-.855 1.205-.915 2.115h5.76zm4.036-2.19c.23-.51.58-.905 1.05-1.185.48-.28 1.065-.42 1.755-.42v1.095h-.285c-.76 0-1.37.205-1.83.615-.46.41-.69 1.095-.69 2.055V12h-1.05V3.81h1.05v1.455zm16.286-3.75V12h-1.05V7.095h-5.685V12h-1.05V1.515h1.05v4.71h5.685v-4.71h1.05zm9.806 5.97c0 .36-.01.635-.03.825h-6.795c.03.62.18 1.15.45 1.59.27.44.625.775 1.065 1.005.44.22.92.33 1.44.33.68 0 1.25-.165 1.71-.495.47-.33.78-.775.93-1.335h1.11c-.2.8-.63 1.455-1.29 1.965-.65.5-1.47.75-2.46.75-.77 0-1.46-.17-2.07-.51a3.77 3.77 0 01-1.44-1.47c-.34-.64-.51-1.385-.51-2.235 0-.85.17-1.595.51-2.235.34-.64.815-1.13 1.425-1.47.61-.34 1.305-.51 2.085-.51s1.46.17 2.04.51c.59.34 1.04.8 1.35 1.38.32.57.48 1.205.48 1.905zm-1.065-.03c.01-.61-.115-1.13-.375-1.56a2.433 2.433 0 00-1.035-.975c-.44-.22-.92-.33-1.44-.33-.78 0-1.445.25-1.995.75s-.855 1.205-.915 2.115h5.76zm3.511-5.19a.736.736 0 01-.54-.225.754.754 0 01-.225-.555c0-.22.075-.4.225-.54.15-.15.33-.225.54-.225.21 0 .39.075.54.225.15.14.225.32.225.54 0 .22-.075.405-.225.555a.736.736 0 01-.54.225zm.525 1.545V12h-1.05V3.81h1.05zm12.127-.15c.96 0 1.74.305 2.34.915.61.6.915 1.475.915 2.625V12h-1.035V7.32c0-.89-.215-1.57-.645-2.04-.43-.47-1.015-.705-1.755-.705-.77 0-1.385.255-1.845.765-.46.51-.69 1.25-.69 2.22V12h-1.035V7.32c0-.89-.215-1.57-.645-2.04-.43-.47-1.02-.705-1.77-.705-.77 0-1.385.255-1.845.765-.46.51-.69 1.25-.69 2.22V12h-1.05V3.81h1.05v1.41c.26-.51.63-.895 1.11-1.155a3.217 3.217 0 011.605-.405c.71 0 1.33.17 1.86.51.54.34.93.84 1.17 1.5.22-.65.595-1.145 1.125-1.485.54-.35 1.15-.525 1.83-.525zm5.107 4.23c0-.84.165-1.575.495-2.205.34-.64.805-1.13 1.395-1.47.6-.35 1.275-.525 2.025-.525.78 0 1.45.18 2.01.54.57.36.98.82 1.23 1.38v-1.8h1.05V12h-1.05v-1.815c-.26.56-.675 1.025-1.245 1.395-.56.36-1.23.54-2.01.54-.74 0-1.41-.175-2.01-.525a3.705 3.705 0 01-1.395-1.485c-.33-.64-.495-1.38-.495-2.22zm7.155.015c0-.66-.135-1.24-.405-1.74s-.64-.885-1.11-1.155c-.46-.27-.97-.405-1.53-.405-.58 0-1.1.13-1.56.39-.46.26-.825.64-1.095 1.14-.26.49-.39 1.075-.39 1.755 0 .67.13 1.26.39 1.77.27.5.635.885 1.095 1.155.46.26.98.39 1.56.39.56 0 1.07-.135 1.53-.405.47-.27.84-.655 1.11-1.155.27-.5.405-1.08.405-1.74zm4.812-3.21V9.78c0 .5.095.845.285 1.035.19.19.525.285 1.005.285h.96v.9h-1.125c-.74 0-1.29-.17-1.65-.51-.36-.35-.54-.92-.54-1.71V4.695h-1.14V3.81h1.14V1.755h1.065V3.81h2.25v.885h-2.25zm11.008 6.285l2.76-7.17h1.11L164.388 12h-1.185l-3.285-8.19h1.125l2.76 7.17zm8.878 1.14c-.77 0-1.465-.17-2.085-.51a3.876 3.876 0 01-1.455-1.47c-.35-.64-.525-1.385-.525-2.235 0-.85.18-1.59.54-2.22.36-.64.85-1.13 1.47-1.47.62-.35 1.315-.525 2.085-.525s1.465.175 2.085.525c.63.34 1.12.83 1.47 1.47.36.63.54 1.37.54 2.22 0 .84-.18 1.58-.54 2.22a3.787 3.787 0 01-1.485 1.485c-.63.34-1.33.51-2.1.51zm0-.915c.54 0 1.04-.12 1.5-.36.46-.25.83-.62 1.11-1.11.29-.5.435-1.11.435-1.83s-.14-1.325-.42-1.815c-.28-.5-.65-.87-1.11-1.11-.46-.25-.96-.375-1.5-.375s-1.04.125-1.5.375c-.46.24-.83.61-1.11 1.11-.27.49-.405 1.095-.405 1.815s.135 1.33.405 1.83c.28.49.645.86 1.095 1.11.46.24.96.36 1.5.36zm9.88-7.545c.98 0 1.78.305 2.4.915.62.6.93 1.475.93 2.625V12h-1.035V7.32c0-.89-.225-1.57-.675-2.04-.44-.47-1.045-.705-1.815-.705-.79 0-1.42.25-1.89.75s-.705 1.235-.705 2.205V12h-1.05V3.81h1.05v1.395c.26-.5.635-.88 1.125-1.14.49-.27 1.045-.405 1.665-.405zm15.438-2.145v.87h-4.62V6.3h3.9v.87h-3.9V12h-1.05V1.515h5.67zm5.312 10.605c-.77 0-1.465-.17-2.085-.51a3.876 3.876 0 01-1.455-1.47c-.35-.64-.525-1.385-.525-2.235 0-.85.18-1.59.54-2.22.36-.64.85-1.13 1.47-1.47.62-.35 1.315-.525 2.085-.525s1.465.175 2.085.525c.63.34 1.12.83 1.47 1.47.36.63.54 1.37.54 2.22 0 .84-.18 1.58-.54 2.22a3.787 3.787 0 01-1.485 1.485c-.63.34-1.33.51-2.1.51zm0-.915c.54 0 1.04-.12 1.5-.36.46-.25.83-.62 1.11-1.11.29-.5.435-1.11.435-1.83s-.14-1.325-.42-1.815c-.28-.5-.65-.87-1.11-1.11-.46-.25-.96-.375-1.5-.375s-1.04.125-1.5.375c-.46.24-.83.61-1.11 1.11-.27.49-.405 1.095-.405 1.815s.135 1.33.405 1.83c.28.49.645.86 1.095 1.11.46.24.96.36 1.5.36zm7.089-5.94c.23-.51.58-.905 1.05-1.185.48-.28 1.065-.42 1.755-.42v1.095h-.285c-.76 0-1.37.205-1.83.615-.46.41-.69 1.095-.69 2.055V12h-1.05V3.81h1.05v1.455zm11.795 2.22c0 .36-.01.635-.03.825h-6.795c.03.62.18 1.15.45 1.59.27.44.625.775 1.065 1.005.44.22.92.33 1.44.33.68 0 1.25-.165 1.71-.495.47-.33.78-.775.93-1.335h1.11c-.2.8-.63 1.455-1.29 1.965-.65.5-1.47.75-2.46.75-.77 0-1.46-.17-2.07-.51a3.77 3.77 0 01-1.44-1.47c-.34-.64-.51-1.385-.51-2.235 0-.85.17-1.595.51-2.235.34-.64.815-1.13 1.425-1.47.61-.34 1.305-.51 2.085-.51s1.46.17 2.04.51c.59.34 1.04.8 1.35 1.38.32.57.48 1.205.48 1.905zm-1.065-.03c.01-.61-.115-1.13-.375-1.56a2.433 2.433 0 00-1.035-.975c-.44-.22-.92-.33-1.44-.33-.78 0-1.445.25-1.995.75s-.855 1.205-.915 2.115h5.76zM228.406 12l-2.115-3.3-2.04 3.3h-1.11l2.64-4.095-2.61-4.095h1.185l2.085 3.255 2.025-3.255h1.095l-2.61 4.05 2.64 4.14h-1.185zm6.246-4.11c0-.84.165-1.575.495-2.205.34-.64.805-1.13 1.395-1.47.6-.35 1.275-.525 2.025-.525.78 0 1.45.18 2.01.54.57.36.98.82 1.23 1.38v-1.8h1.05V12h-1.05v-1.815c-.26.56-.675 1.025-1.245 1.395-.56.36-1.23.54-2.01.54-.74 0-1.41-.175-2.01-.525a3.705 3.705 0 01-1.395-1.485c-.33-.64-.495-1.38-.495-2.22zm7.155.015c0-.66-.135-1.24-.405-1.74s-.64-.885-1.11-1.155c-.46-.27-.97-.405-1.53-.405-.58 0-1.1.13-1.56.39-.46.26-.825.64-1.095 1.14-.26.49-.39 1.075-.39 1.755 0 .67.13 1.26.39 1.77.27.5.635.885 1.095 1.155.46.26.98.39 1.56.39.56 0 1.07-.135 1.53-.405.47-.27.84-.655 1.11-1.155.27-.5.405-1.08.405-1.74zm10.542-4.095V12h-1.05v-1.44c-.24.51-.61.9-1.11 1.17-.5.27-1.06.405-1.68.405-.98 0-1.78-.3-2.4-.9-.62-.61-.93-1.49-.93-2.64V3.81h1.035v4.665c0 .89.22 1.57.66 2.04.45.47 1.06.705 1.83.705.79 0 1.42-.25 1.89-.75s.705-1.235.705-2.205V3.81h1.05zm5.622.885h-1.905V12h-1.05V4.695h-1.14V3.81h1.14v-.57c0-.89.225-1.545.675-1.965.46-.42 1.2-.63 2.22-.63v.9c-.68 0-1.16.13-1.44.39-.27.26-.405.695-.405 1.305v.57h1.905v.885zm13.179 2.79c0 .36-.01.635-.03.825h-6.795c.03.62.18 1.15.45 1.59.27.44.625.775 1.065 1.005.44.22.92.33 1.44.33.68 0 1.25-.165 1.71-.495.47-.33.78-.775.93-1.335h1.11c-.2.8-.63 1.455-1.29 1.965-.65.5-1.47.75-2.46.75-.77 0-1.46-.17-2.07-.51a3.77 3.77 0 01-1.44-1.47c-.34-.64-.51-1.385-.51-2.235 0-.85.17-1.595.51-2.235.34-.64.815-1.13 1.425-1.47.61-.34 1.305-.51 2.085-.51s1.46.17 2.04.51c.59.34 1.04.8 1.35 1.38.32.57.48 1.205.48 1.905zm-1.065-.03c.01-.61-.115-1.13-.375-1.56a2.433 2.433 0 00-1.035-.975c-.44-.22-.92-.33-1.44-.33-.78 0-1.445.25-1.995.75s-.855 1.205-.915 2.115h5.76zm3.511-5.19a.736.736 0 01-.54-.225.754.754 0 01-.225-.555c0-.22.075-.4.225-.54.15-.15.33-.225.54-.225.21 0 .39.075.54.225.15.14.225.32.225.54 0 .22-.075.405-.225.555a.736.736 0 01-.54.225zm.525 1.545V12h-1.05V3.81h1.05zm6.218-.15c.98 0 1.78.305 2.4.915.62.6.93 1.475.93 2.625V12h-1.035V7.32c0-.89-.225-1.57-.675-2.04-.44-.47-1.045-.705-1.815-.705-.79 0-1.42.25-1.89.75s-.705 1.235-.705 2.205V12h-1.05V3.81h1.05v1.395c.26-.5.635-.88 1.125-1.14.49-.27 1.045-.405 1.665-.405zm13.062 3.825c0 .36-.01.635-.03.825h-6.795c.03.62.18 1.15.45 1.59.27.44.625.775 1.065 1.005.44.22.92.33 1.44.33.68 0 1.25-.165 1.71-.495.47-.33.78-.775.93-1.335h1.11c-.2.8-.63 1.455-1.29 1.965-.65.5-1.47.75-2.46.75-.77 0-1.46-.17-2.07-.51a3.77 3.77 0 01-1.44-1.47c-.34-.64-.51-1.385-.51-2.235 0-.85.17-1.595.51-2.235.34-.64.815-1.13 1.425-1.47.61-.34 1.305-.51 2.085-.51s1.46.17 2.04.51c.59.34 1.04.8 1.35 1.38.32.57.48 1.205.48 1.905zm-1.065-.03c.01-.61-.115-1.13-.375-1.56a2.433 2.433 0 00-1.035-.975c-.44-.22-.92-.33-1.44-.33-.78 0-1.445.25-1.995.75s-.855 1.205-.915 2.115h5.76zm4.036-2.19c.23-.51.58-.905 1.05-1.185.48-.28 1.065-.42 1.755-.42v1.095h-.285c-.76 0-1.37.205-1.83.615-.46.41-.69 1.095-.69 2.055V12h-1.05V3.81h1.05v1.455zm9.536.345c.26-.55.67-1.005 1.23-1.365.57-.37 1.245-.555 2.025-.555.74 0 1.405.175 1.995.525.6.34 1.065.83 1.395 1.47.34.63.51 1.365.51 2.205 0 .84-.17 1.58-.51 2.22a3.574 3.574 0 01-1.395 1.485c-.59.35-1.255.525-1.995.525-.77 0-1.44-.18-2.01-.54-.57-.37-.985-.83-1.245-1.38v5.67h-1.035V3.81h1.035v1.8zm6.09 2.28c0-.68-.135-1.265-.405-1.755-.26-.5-.62-.88-1.08-1.14-.46-.26-.98-.39-1.56-.39-.56 0-1.075.135-1.545.405-.46.27-.825.655-1.095 1.155s-.405 1.08-.405 1.74c0 .66.135 1.24.405 1.74s.635.885 1.095 1.155c.47.27.985.405 1.545.405.58 0 1.1-.13 1.56-.39.46-.27.82-.655 1.08-1.155.27-.51.405-1.1.405-1.77zm4.047-2.625c.23-.51.58-.905 1.05-1.185.48-.28 1.065-.42 1.755-.42v1.095h-.285c-.76 0-1.37.205-1.83.615-.46.41-.69 1.095-.69 2.055V12h-1.05V3.81h1.05v1.455zm11.794 2.22c0 .36-.01.635-.03.825h-6.795c.03.62.18 1.15.45 1.59.27.44.625.775 1.065 1.005.44.22.92.33 1.44.33.68 0 1.25-.165 1.71-.495.47-.33.78-.775.93-1.335h1.11c-.2.8-.63 1.455-1.29 1.965-.65.5-1.47.75-2.46.75-.77 0-1.46-.17-2.07-.51a3.77 3.77 0 01-1.44-1.47c-.34-.64-.51-1.385-.51-2.235 0-.85.17-1.595.51-2.235.34-.64.815-1.13 1.425-1.47.61-.34 1.305-.51 2.085-.51s1.46.17 2.04.51c.59.34 1.04.8 1.35 1.38.32.57.48 1.205.48 1.905zm-1.065-.03c.01-.61-.115-1.13-.375-1.56a2.433 2.433 0 00-1.035-.975c-.44-.22-.92-.33-1.44-.33-.78 0-1.445.25-1.995.75s-.855 1.205-.915 2.115h5.76zm3.512-5.19a.736.736 0 01-.54-.225.754.754 0 01-.225-.555c0-.22.075-.4.225-.54.15-.15.33-.225.54-.225.21 0 .39.075.54.225.15.14.225.32.225.54 0 .22-.075.405-.225.555a.736.736 0 01-.54.225zm.525 1.545V12h-1.05V3.81h1.05zm5.197 8.31c-.94 0-1.71-.215-2.31-.645-.59-.44-.92-1.035-.99-1.785h1.08c.05.46.265.835.645 1.125.39.28.91.42 1.56.42.57 0 1.015-.135 1.335-.405.33-.27.495-.605.495-1.005 0-.28-.09-.51-.27-.69-.18-.18-.41-.32-.69-.42a8.91 8.91 0 00-1.11-.345c-.61-.16-1.105-.32-1.485-.48a2.63 2.63 0 01-.975-.705c-.26-.32-.39-.745-.39-1.275 0-.4.12-.77.36-1.11.24-.34.58-.61 1.02-.81.44-.2.94-.3 1.5-.3.88 0 1.59.225 2.13.675.54.44.83 1.05.87 1.83h-1.05c-.03-.48-.22-.865-.57-1.155-.34-.3-.81-.45-1.41-.45-.53 0-.96.125-1.29.375-.33.25-.495.56-.495.93 0 .32.095.585.285.795.2.2.445.36.735.48.29.11.68.235 1.17.375.59.16 1.06.315 1.41.465.35.15.65.37.9.66.25.29.38.675.39 1.155 0 .44-.12.835-.36 1.185-.24.34-.575.61-1.005.81-.43.2-.925.3-1.485.3zm8.262-8.43c.77 0 1.44.18 2.01.54.57.36.98.815 1.23 1.365V3.81h1.05v8.4c0 .75-.165 1.415-.495 1.995-.32.58-.77 1.025-1.35 1.335-.58.32-1.24.48-1.98.48-1.05 0-1.925-.25-2.625-.75-.69-.5-1.12-1.18-1.29-2.04h1.035c.18.57.52 1.025 1.02 1.365.51.34 1.13.51 1.86.51.53 0 1.005-.115 1.425-.345.42-.22.75-.55.99-.99.24-.44.36-.96.36-1.56v-2.025c-.26.56-.675 1.025-1.245 1.395-.56.36-1.225.54-1.995.54-.75 0-1.425-.175-2.025-.525a3.705 3.705 0 01-1.395-1.485c-.33-.64-.495-1.38-.495-2.22 0-.84.165-1.575.495-2.205.34-.64.805-1.13 1.395-1.47.6-.35 1.275-.525 2.025-.525zm3.24 4.215c0-.66-.135-1.24-.405-1.74s-.64-.885-1.11-1.155c-.46-.27-.97-.405-1.53-.405-.58 0-1.1.13-1.56.39-.46.26-.825.64-1.095 1.14-.26.49-.39 1.075-.39 1.755 0 .67.13 1.26.39 1.77.27.5.635.885 1.095 1.155.46.26.98.39 1.56.39.56 0 1.07-.135 1.53-.405.47-.27.84-.655 1.11-1.155.27-.5.405-1.08.405-1.74zm10.857-.42c0 .36-.01.635-.03.825h-6.795c.03.62.18 1.15.45 1.59.27.44.625.775 1.065 1.005.44.22.92.33 1.44.33.68 0 1.25-.165 1.71-.495.47-.33.78-.775.93-1.335h1.11c-.2.8-.63 1.455-1.29 1.965-.65.5-1.47.75-2.46.75-.77 0-1.46-.17-2.07-.51a3.77 3.77 0 01-1.44-1.47c-.34-.64-.51-1.385-.51-2.235 0-.85.17-1.595.51-2.235.34-.64.815-1.13 1.425-1.47.61-.34 1.305-.51 2.085-.51s1.46.17 2.04.51c.59.34 1.04.8 1.35 1.38.32.57.48 1.205.48 1.905zm-1.065-.03c.01-.61-.115-1.13-.375-1.56a2.433 2.433 0 00-1.035-.975c-.44-.22-.92-.33-1.44-.33-.78 0-1.445.25-1.995.75s-.855 1.205-.915 2.115h5.76zM364.713 12l-3.375-3.675V12h-1.05V.9h1.05v6.57l3.3-3.66h1.47l-3.885 4.08 3.915 4.11h-1.425zm3.832-6.735c.23-.51.58-.905 1.05-1.185.48-.28 1.065-.42 1.755-.42v1.095h-.285c-.76 0-1.37.205-1.83.615-.46.41-.69 1.095-.69 2.055V12h-1.05V3.81h1.05v1.455zm7.969 6.855c-.77 0-1.465-.17-2.085-.51a3.876 3.876 0 01-1.455-1.47c-.35-.64-.525-1.385-.525-2.235 0-.85.18-1.59.54-2.22.36-.64.85-1.13 1.47-1.47.62-.35 1.315-.525 2.085-.525s1.465.175 2.085.525c.63.34 1.12.83 1.47 1.47.36.63.54 1.37.54 2.22 0 .84-.18 1.58-.54 2.22a3.787 3.787 0 01-1.485 1.485c-.63.34-1.33.51-2.1.51zm0-.915c.54 0 1.04-.12 1.5-.36.46-.25.83-.62 1.11-1.11.29-.5.435-1.11.435-1.83s-.14-1.325-.42-1.815c-.28-.5-.65-.87-1.11-1.11-.46-.25-.96-.375-1.5-.375s-1.04.125-1.5.375c-.46.24-.83.61-1.11 1.11-.27.49-.405 1.095-.405 1.815s.135 1.33.405 1.83c.28.49.645.86 1.095 1.11.46.24.96.36 1.5.36zm-1.095-8.625a.704.704 0 01-.495-.195.704.704 0 01-.195-.495c0-.19.065-.35.195-.48.14-.14.305-.21.495-.21s.35.07.48.21c.14.13.21.29.21.48s-.07.355-.21.495a.652.652 0 01-.48.195zm2.31 0a.704.704 0 01-.495-.195.704.704 0 01-.195-.495c0-.19.065-.35.195-.48.14-.14.305-.21.495-.21s.35.07.48.21c.13.13.195.29.195.48s-.065.355-.195.495a.652.652 0 01-.48.195zm8.665 1.08c.98 0 1.78.305 2.4.915.62.6.93 1.475.93 2.625V12h-1.035V7.32c0-.89-.225-1.57-.675-2.04-.44-.47-1.045-.705-1.815-.705-.79 0-1.42.25-1.89.75s-.705 1.235-.705 2.205V12h-1.05V3.81h1.05v1.395c.26-.5.635-.88 1.125-1.14.49-.27 1.045-.405 1.665-.405zm7.017 1.035V9.78c0 .5.095.845.285 1.035.19.19.525.285 1.005.285h.96v.9h-1.125c-.74 0-1.29-.17-1.65-.51-.36-.35-.54-.92-.54-1.71V4.695h-1.14V3.81h1.14V1.755h1.065V3.81h2.25v.885h-2.25zm11.391 2.79c0 .36-.01.635-.03.825h-6.795c.03.62.18 1.15.45 1.59.27.44.625.775 1.065 1.005.44.22.92.33 1.44.33.68 0 1.25-.165 1.71-.495.47-.33.78-.775.93-1.335h1.11c-.2.8-.63 1.455-1.29 1.965-.65.5-1.47.75-2.46.75-.77 0-1.46-.17-2.07-.51a3.77 3.77 0 01-1.44-1.47c-.34-.64-.51-1.385-.51-2.235 0-.85.17-1.595.51-2.235.34-.64.815-1.13 1.425-1.47.61-.34 1.305-.51 2.085-.51s1.46.17 2.04.51c.59.34 1.04.8 1.35 1.38.32.57.48 1.205.48 1.905zm-1.065-.03c.01-.61-.115-1.13-.375-1.56a2.433 2.433 0 00-1.035-.975c-.44-.22-.92-.33-1.44-.33-.78 0-1.445.25-1.995.75s-.855 1.205-.915 2.115h5.76zm6.826-3.795c.98 0 1.78.305 2.4.915.62.6.93 1.475.93 2.625V12h-1.035V7.32c0-.89-.225-1.57-.675-2.04-.44-.47-1.045-.705-1.815-.705-.79 0-1.42.25-1.89.75s-.705 1.235-.705 2.205V12h-1.05V3.81h1.05v1.395c.26-.5.635-.88 1.125-1.14.49-.27 1.045-.405 1.665-.405zm16.474.87c0 .9-.295 1.625-.885 2.175-.59.55-1.475.825-2.655.825h-2.115V12h-1.05V1.515h3.165c1.17 0 2.05.275 2.64.825.6.55.9 1.28.9 2.19zm-3.54 2.1c1.64 0 2.46-.7 2.46-2.1 0-.7-.195-1.23-.585-1.59-.39-.36-1.015-.54-1.875-.54h-2.115v4.23h2.115zM429.849.9V12h-1.05V.9h1.05zm1.897 6.99c0-.84.165-1.575.495-2.205.34-.64.805-1.13 1.395-1.47.6-.35 1.275-.525 2.025-.525.78 0 1.45.18 2.01.54.57.36.98.82 1.23 1.38v-1.8h1.05V12h-1.05v-1.815c-.26.56-.675 1.025-1.245 1.395-.56.36-1.23.54-2.01.54-.74 0-1.41-.175-2.01-.525a3.705 3.705 0 01-1.395-1.485c-.33-.64-.495-1.38-.495-2.22zm7.155.015c0-.66-.135-1.24-.405-1.74s-.64-.885-1.11-1.155c-.46-.27-.97-.405-1.53-.405-.58 0-1.1.13-1.56.39-.46.26-.825.64-1.095 1.14-.26.49-.39 1.075-.39 1.755 0 .67.13 1.26.39 1.77.27.5.635.885 1.095 1.155.46.26.98.39 1.56.39.56 0 1.07-.135 1.53-.405.47-.27.84-.655 1.11-1.155.27-.5.405-1.08.405-1.74zm4.812-3.21V9.78c0 .5.095.845.285 1.035.19.19.525.285 1.005.285h.96v.9h-1.125c-.74 0-1.29-.17-1.65-.51-.36-.35-.54-.92-.54-1.71V4.695h-1.14V3.81h1.14V1.755h1.065V3.81h2.25v.885h-2.25zm5.347 0V9.78c0 .5.095.845.285 1.035.19.19.525.285 1.005.285h.96v.9h-1.125c-.74 0-1.29-.17-1.65-.51-.36-.35-.54-.92-.54-1.71V4.695h-1.14V3.81h1.14V1.755h1.065V3.81h2.25v.885h-2.25zm7.207 0h-1.905V12h-1.05V4.695h-1.14V3.81h1.14v-.57c0-.89.225-1.545.675-1.965.46-.42 1.2-.63 2.22-.63v.9c-.68 0-1.16.13-1.44.39-.27.26-.405.695-.405 1.305v.57h1.905v.885zm5.238 7.425c-.77 0-1.465-.17-2.085-.51a3.876 3.876 0 01-1.455-1.47c-.35-.64-.525-1.385-.525-2.235 0-.85.18-1.59.54-2.22.36-.64.85-1.13 1.47-1.47.62-.35 1.315-.525 2.085-.525s1.465.175 2.085.525c.63.34 1.12.83 1.47 1.47.36.63.54 1.37.54 2.22 0 .84-.18 1.58-.54 2.22a3.787 3.787 0 01-1.485 1.485c-.63.34-1.33.51-2.1.51zm0-.915c.54 0 1.04-.12 1.5-.36.46-.25.83-.62 1.11-1.11.29-.5.435-1.11.435-1.83s-.14-1.325-.42-1.815c-.28-.5-.65-.87-1.11-1.11-.46-.25-.96-.375-1.5-.375s-1.04.125-1.5.375c-.46.24-.83.61-1.11 1.11-.27.49-.405 1.095-.405 1.815s.135 1.33.405 1.83c.28.49.645.86 1.095 1.11.46.24.96.36 1.5.36zm7.089-5.94c.23-.51.58-.905 1.05-1.185.48-.28 1.065-.42 1.755-.42v1.095h-.285c-.76 0-1.37.205-1.83.615-.46.41-.69 1.095-.69 2.055V12h-1.05V3.81h1.05v1.455zm14.134-1.605c.96 0 1.74.305 2.34.915.61.6.915 1.475.915 2.625V12h-1.035V7.32c0-.89-.215-1.57-.645-2.04-.43-.47-1.015-.705-1.755-.705-.77 0-1.385.255-1.845.765-.46.51-.69 1.25-.69 2.22V12h-1.035V7.32c0-.89-.215-1.57-.645-2.04-.43-.47-1.02-.705-1.77-.705-.77 0-1.385.255-1.845.765-.46.51-.69 1.25-.69 2.22V12h-1.05V3.81h1.05v1.41c.26-.51.63-.895 1.11-1.155a3.217 3.217 0 011.605-.405c.71 0 1.33.17 1.86.51.54.34.93.84 1.17 1.5.22-.65.595-1.145 1.125-1.485.54-.35 1.15-.525 1.83-.525z" fill="#fff"/></svg>