<svg width="784" height="23" viewBox="0 0 784 23" fill="none" xmlns="http://www.w3.org/2000/svg"><path fill="#fff" d="M0 0h784v23H0z"/><path d="M12.837 7.602v.703L10.815 14h-1.3l2.03-5.375H8.97V7.602h3.867zm3.263-.014V14h-1.23V9.1l-1.222.47V8.542l2.32-.954h.132zm1.694 5.784c0-.194.065-.355.194-.484.129-.132.303-.198.523-.198.22 0 .394.066.523.198.129.13.193.29.193.484a.656.656 0 01-.193.483c-.13.129-.304.193-.523.193-.22 0-.394-.064-.523-.193a.656.656 0 01-.194-.483zm5.008-5.84h.163v1.045h-.057c-.279 0-.522.048-.73.145a1.33 1.33 0 00-.514.413 1.855 1.855 0 00-.303.65 3.289 3.289 0 00-.101.849v1.076c0 .223.014.42.044.59.032.17.077.311.136.426a.732.732 0 00.21.25.468.468 0 00.541-.004.745.745 0 00.211-.242c.059-.106.103-.229.132-.37.032-.14.049-.294.049-.46 0-.17-.017-.326-.049-.466a1.336 1.336 0 00-.136-.365.67.67 0 00-.215-.242.465.465 0 00-.277-.088.566.566 0 00-.383.136.838.838 0 00-.241.343 1.286 1.286 0 00-.093.435l-.369-.263c.012-.223.053-.433.123-.629.074-.199.173-.378.3-.536.125-.158.276-.281.452-.369.176-.09.373-.136.593-.136.255 0 .478.057.668.171.19.114.349.271.475.47.129.2.224.431.285.695.065.26.097.539.097.835 0 .31-.044.599-.132.865-.088.267-.212.5-.373.7a1.69 1.69 0 01-.59.465 1.743 1.743 0 01-.773.167c-.293 0-.558-.062-.795-.185a1.806 1.806 0 01-.606-.523 2.52 2.52 0 01-.383-.808 3.769 3.769 0 01-.132-1.028v-.497c0-.516.06-.987.18-1.415.12-.43.298-.803.532-1.116.238-.314.528-.556.87-.725.346-.173.743-.26 1.191-.26zm3.301 1.638v-.338c0-.243.044-.464.132-.664.09-.199.224-.358.4-.479.178-.12.4-.18.663-.18.267 0 .49.06.668.18.18.12.31.28.396.48.088.199.132.42.132.663v.338c0 .238-.044.456-.132.655a1.1 1.1 0 01-.4.48c-.176.12-.396.18-.66.18-.263 0-.484-.06-.663-.18a1.13 1.13 0 01-.404-.48 1.604 1.604 0 01-.132-.655zm.804-.338v.338c0 .1.015.195.044.286.03.088.073.16.132.215.059.053.132.08.22.08a.3.3 0 00.215-.08.5.5 0 00.123-.215.925.925 0 00.044-.286v-.338a.913.913 0 00-.044-.29.45.45 0 00-.127-.215.306.306 0 00-.22-.084.306.306 0 00-.22.084.502.502 0 00-.127.215c-.027.088-.04.185-.04.29zm1.723 3.942v-.343c0-.24.045-.46.136-.659.091-.2.224-.359.4-.479.179-.12.398-.18.66-.18.269 0 .491.06.667.18.176.12.308.28.396.479.09.2.136.419.136.66v.342c0 .24-.044.46-.132.66a1.105 1.105 0 01-.4.474c-.176.12-.395.18-.659.18s-.486-.06-.668-.18a1.13 1.13 0 01-.404-.48 1.604 1.604 0 01-.132-.654zm.804-.343v.339c0 .102.018.199.053.29.035.088.082.16.14.215a.31.31 0 00.207.079c.105 0 .186-.026.242-.08a.41.41 0 00.11-.214c.02-.091.03-.188.03-.29v-.335a.913.913 0 00-.044-.29.45.45 0 00-.127-.215.291.291 0 00-.215-.083.312.312 0 00-.224.083.48.48 0 00-.132.216.989.989 0 00-.04.285zm.716-3.911l-2.623 5.001-.589-.334 2.624-5.001.588.334zm5.564 4.43v-5.7h1.235V14l-1.116.004-.119-1.054zm-2.465-1.16v-.317c0-.387.032-.725.097-1.015.067-.29.167-.532.299-.725.131-.193.293-.337.483-.43.193-.097.415-.146.664-.146.225 0 .423.057.593.172.173.11.32.268.44.47.12.202.216.44.29.716.073.275.124.577.153.905v.457c-.035.311-.09.601-.163.87a2.56 2.56 0 01-.29.704c-.12.199-.265.356-.435.47-.17.111-.367.167-.593.167-.249 0-.47-.05-.663-.15-.19-.1-.352-.246-.484-.439a2.25 2.25 0 01-.294-.72 4.538 4.538 0 01-.097-.99zm1.23-.317v.317c0 .222.01.414.031.575.024.158.06.289.11.391.053.1.122.175.207.224a.65.65 0 00.316.07.62.62 0 00.4-.122.752.752 0 00.229-.347 1.7 1.7 0 00.087-.515v-.83a2.12 2.12 0 00-.057-.435 1.093 1.093 0 00-.136-.33.63.63 0 00-.22-.21.58.58 0 00-.298-.075.631.631 0 00-.317.074.514.514 0 00-.202.233c-.05.103-.088.236-.114.4a4.108 4.108 0 00-.035.58zm5.044 2.615c-.326 0-.614-.05-.866-.15-.25-.1-.46-.243-.633-.43a1.927 1.927 0 01-.395-.69 2.886 2.886 0 01-.137-.923v-.391c0-.387.044-.725.132-1.015.088-.293.212-.54.374-.739.16-.199.358-.347.593-.443.237-.1.505-.15.804-.15.299 0 .561.05.787.15.228.096.417.243.567.44.149.192.262.433.338.72.076.287.114.62.114 1.002v.562h-3.186v-.866h1.978v-.11c0-.193-.02-.354-.062-.483a.555.555 0 00-.193-.294.582.582 0 00-.352-.097.608.608 0 00-.312.075.514.514 0 00-.202.233 1.44 1.44 0 00-.11.413 4.415 4.415 0 00-.035.602v.391c0 .22.02.404.057.554a.979.979 0 00.167.36c.076.09.169.157.277.198.108.038.234.057.378.057a1.347 1.347 0 001.033-.435l.492.747a1.77 1.77 0 01-.352.334c-.149.111-.328.202-.536.272a2.25 2.25 0 01-.72.106zm3.35-3.784V14h-1.23V9.245h1.16l.07 1.06zm1.121-1.094l-.017 1.226a2.647 2.647 0 00-.404-.035.847.847 0 00-.352.066.586.586 0 00-.242.189.877.877 0 00-.14.307 1.94 1.94 0 00-.058.418l-.233-.088c0-.31.024-.595.07-.853.05-.26.124-.486.22-.676.097-.194.213-.343.348-.449a.746.746 0 01.465-.158c.06 0 .12.006.185.018.067.009.12.02.158.035zm3.512-1.608V14h-1.288V7.602h1.288zm3.177 0l-2.074 3.177-1.27 1.582-.246-1.288.822-1.37 1.204-2.101h1.564zM49.198 14L47.8 11.06l.945-.835L50.714 14h-1.516zm2.964-6.75V14h-1.235V7.25h1.235zm2.622 6.838c-.325 0-.614-.05-.866-.15-.249-.1-.46-.243-.633-.43a1.928 1.928 0 01-.395-.69 2.886 2.886 0 01-.136-.923v-.391c0-.387.044-.725.131-1.015.088-.293.213-.54.374-.739.161-.199.359-.347.593-.443.238-.1.506-.15.804-.15.3 0 .562.05.787.15.229.096.418.243.567.44.15.192.262.433.338.72.077.287.115.62.115 1.002v.562h-3.186v-.866h1.977v-.11c0-.193-.02-.354-.061-.483a.555.555 0 00-.194-.294.582.582 0 00-.351-.097.608.608 0 00-.312.075.514.514 0 00-.203.233c-.05.105-.086.243-.11.413a4.417 4.417 0 00-.035.602v.391c0 .22.02.404.058.554a.98.98 0 00.167.36c.076.09.168.157.276.198.109.038.235.057.378.057a1.347 1.347 0 001.033-.435l.492.747a1.77 1.77 0 01-.351.334c-.15.111-.328.202-.536.272a2.25 2.25 0 01-.721.106zm3.413-4.843V14h-1.235V9.245h1.234zm-1.293-1.23c0-.19.06-.348.18-.47a.657.657 0 01.493-.19c.208 0 .372.063.492.19.12.122.18.28.18.47a.646.646 0 01-.184.47.645.645 0 01-.484.184.671.671 0 01-.496-.184.655.655 0 01-.18-.47zm3.207 2.245V14h-1.235V9.245h1.156l.079 1.015zm-.185 1.2l-.33.009a3.628 3.628 0 01.102-.963c.076-.284.183-.526.32-.725.14-.202.308-.356.501-.461.197-.109.415-.163.655-.163.185 0 .353.032.505.097a.99.99 0 01.4.308c.112.14.198.328.26.562.061.231.092.516.092.853V14h-1.235v-3.032c0-.205-.02-.364-.061-.475a.41.41 0 00-.185-.237.612.612 0 00-.308-.07.51.51 0 00-.312.1.767.767 0 00-.228.269 1.593 1.593 0 00-.136.404c-.03.155-.043.322-.04.501zm5.232 1.446v-2.197a.914.914 0 00-.053-.343.34.34 0 00-.15-.185.432.432 0 00-.236-.061.49.49 0 00-.264.066.404.404 0 00-.158.188.806.806 0 00-.049.295h-1.235c0-.205.04-.399.12-.58.078-.185.194-.346.346-.484.156-.14.34-.25.554-.33.214-.078.454-.118.72-.118.317 0 .598.054.844.163.247.105.441.274.585.505.143.232.215.532.215.901v2.118c0 .267.013.484.04.65.03.168.072.311.127.431V14h-1.239a2.059 2.059 0 01-.127-.492c-.027-.2-.04-.4-.04-.602zm.15-1.81l.004.738h-.453a.768.768 0 00-.307.057.592.592 0 00-.216.162.671.671 0 00-.132.237c-.026.091-.04.188-.04.29 0 .115.017.211.05.29a.373.373 0 00.373.242.709.709 0 00.351-.083.57.57 0 00.22-.202c.05-.08.066-.153.048-.22l.282.479a2.174 2.174 0 01-.145.338 1.431 1.431 0 01-.225.325c-.09.1-.203.182-.338.247a1.104 1.104 0 01-.47.092c-.255 0-.488-.059-.699-.176a1.304 1.304 0 01-.5-.492c-.121-.211-.181-.461-.181-.752 0-.24.038-.457.114-.65a1.28 1.28 0 01.352-.497c.155-.137.351-.243.589-.316a2.84 2.84 0 01.835-.11h.487zm2.937-.836V14H67.01V9.245h1.156l.08 1.015zm-.184 1.2l-.33.009a3.628 3.628 0 01.101-.963c.077-.284.183-.526.321-.725.14-.202.308-.356.501-.461.196-.109.415-.163.655-.163.184 0 .353.032.505.097a.99.99 0 01.4.308c.112.14.198.328.26.562.06.231.092.516.092.853V14H69.33v-3.032c0-.205-.02-.364-.062-.475a.41.41 0 00-.184-.237.612.612 0 00-.308-.07.51.51 0 00-.312.1.767.767 0 00-.228.269 1.593 1.593 0 00-.137.404c-.029.155-.042.322-.04.501zm4.428-4.21V14h-1.235V7.25h1.235zm2.621 6.838c-.325 0-.614-.05-.865-.15-.25-.1-.46-.243-.633-.43a1.929 1.929 0 01-.396-.69 2.886 2.886 0 01-.136-.923v-.391c0-.387.044-.725.132-1.015.088-.293.212-.54.373-.739.161-.199.36-.347.594-.443.237-.1.505-.15.804-.15.299 0 .56.05.786.15.229.096.418.243.567.44.15.192.263.433.339.72.076.287.114.62.114 1.002v.562h-3.186v-.866h1.977v-.11c0-.193-.02-.354-.061-.483a.555.555 0 00-.194-.294.582.582 0 00-.351-.097.608.608 0 00-.312.075.514.514 0 00-.202.233c-.05.105-.087.243-.11.413a4.417 4.417 0 00-.035.602v.391c0 .22.019.404.057.554a.979.979 0 00.167.36c.076.09.168.157.277.198.108.038.234.057.378.057a1.347 1.347 0 001.033-.435l.492.747a1.77 1.77 0 01-.352.334c-.15.111-.328.202-.536.272a2.25 2.25 0 01-.72.106zm4.621-4.843h1.117V14c0 .434-.084.788-.251 1.063a1.458 1.458 0 01-.69.611 2.486 2.486 0 01-1.534.136 2.387 2.387 0 01-.536-.188 1.42 1.42 0 01-.426-.3l.418-.852c.114.114.263.211.448.29.184.082.366.123.545.123a.98.98 0 00.43-.083.521.521 0 00.264-.273c.061-.129.092-.301.092-.518v-3.66l.123-1.104zm-2.654 2.545v-.317c0-.387.037-.725.11-1.015.073-.29.179-.532.316-.725.138-.193.306-.337.506-.43.202-.097.427-.146.676-.146.261 0 .48.057.655.172.176.11.318.268.426.47a2.6 2.6 0 01.255.716c.062.275.109.577.14.905v.457c-.031.311-.084.601-.157.87-.07.27-.164.505-.282.704-.117.199-.26.356-.43.47-.17.111-.375.167-.615.167-.247 0-.47-.05-.668-.15a1.412 1.412 0 01-.506-.439 2.2 2.2 0 01-.316-.72 4.014 4.014 0 01-.11-.99zm1.235-.317v.317c0 .222.013.414.04.575.029.158.073.289.131.391.059.1.133.175.224.224a.73.73 0 00.33.07c.179 0 .32-.04.426-.122a.724.724 0 00.238-.347c.052-.15.082-.321.087-.515v-.83a1.78 1.78 0 00-.057-.435 1.095 1.095 0 00-.136-.33.607.607 0 00-.228-.21.656.656 0 00-.321-.075.666.666 0 00-.326.074.603.603 0 00-.228.233 1.325 1.325 0 00-.136.4c-.03.161-.044.355-.044.58zm5.1 2.615c-.325 0-.614-.05-.866-.15-.249-.1-.46-.243-.633-.43a1.927 1.927 0 01-.395-.69 2.886 2.886 0 01-.136-.923v-.391c0-.387.044-.725.131-1.015.088-.293.213-.54.374-.739.161-.199.359-.347.593-.443.238-.1.506-.15.804-.15.3 0 .562.05.787.15.229.096.418.243.567.44.15.192.262.433.338.72.077.287.115.62.115 1.002v.562h-3.186v-.866h1.977v-.11c0-.193-.02-.354-.061-.483a.556.556 0 00-.194-.294.582.582 0 00-.351-.097.608.608 0 00-.312.075.514.514 0 00-.202.233c-.05.105-.087.243-.11.413a4.417 4.417 0 00-.035.602v.391c0 .22.019.404.057.554a.979.979 0 00.167.36c.076.09.168.157.277.198.108.038.234.057.378.057a1.347 1.347 0 001.033-.435l.491.747a1.77 1.77 0 01-.351.334c-.15.111-.328.202-.536.272a2.25 2.25 0 01-.721.106zm3.351-3.784V14h-1.23V9.245h1.16l.07 1.06zm1.12-1.094l-.017 1.226a2.647 2.647 0 00-.404-.035.847.847 0 00-.352.066.586.586 0 00-.242.189.877.877 0 00-.14.307 1.94 1.94 0 00-.057.418l-.233-.088c0-.31.023-.595.07-.853.05-.26.123-.486.22-.676.097-.194.212-.343.347-.449a.746.746 0 01.466-.158c.059 0 .12.006.184.018.068.009.12.02.159.035zm1.59-1.964V14h-1.23V7.246h1.23zm2.5 2l-1.674 2.363-1.007 1.13-.435-.936.774-1.13.874-1.428h1.468zM90.69 14l-1.037-2.184.848-.782L92.1 14H90.69zm1.448-2.215v-.32c0-.373.044-.702.132-.99.09-.287.22-.527.387-.72.167-.196.367-.344.602-.444.237-.102.502-.154.795-.154.296 0 .561.052.796.154.237.1.439.248.606.444.17.193.3.433.391.72.09.288.136.617.136.99v.32c0 .37-.045.697-.136.985-.09.287-.221.528-.391.725a1.605 1.605 0 01-.602.444c-.234.1-.498.149-.791.149-.293 0-.558-.05-.796-.15a1.644 1.644 0 01-.606-.443c-.17-.197-.3-.438-.391-.725a3.364 3.364 0 01-.132-.985zm1.23-.32v.32c0 .22.015.41.044.571.033.162.078.295.137.4a.627.627 0 00.22.233c.084.05.183.075.294.075.111 0 .21-.025.299-.075a.557.557 0 00.215-.233c.059-.105.101-.238.127-.4.03-.16.045-.351.045-.57v-.322c0-.213-.017-.401-.049-.562a1.325 1.325 0 00-.136-.4.619.619 0 00-.22-.237.518.518 0 00-.29-.084.518.518 0 00-.29.084.684.684 0 00-.215.237 1.327 1.327 0 00-.137.4c-.029.161-.043.349-.043.562zM97.7 10.26V14h-1.235V9.245h1.156l.079 1.015zm-.185 1.2l-.33.009a3.62 3.62 0 01.102-.963c.076-.284.183-.526.32-.725.141-.202.308-.356.501-.461.197-.109.415-.163.655-.163.185 0 .353.032.505.097a.99.99 0 01.4.308c.112.14.198.328.26.562.061.231.092.516.092.853V14h-1.235v-3.032c0-.205-.02-.364-.061-.475a.41.41 0 00-.185-.237.612.612 0 00-.308-.07.51.51 0 00-.312.1.767.767 0 00-.228.269 1.597 1.597 0 00-.136.404c-.03.155-.043.322-.04.501zm5.21-2.215v.927h-2.426v-.927h2.426zm-1.868-1.173h1.226v4.478a.91.91 0 00.04.303c.026.07.066.12.119.15.055.026.129.039.219.039a.806.806 0 00.29-.035v.962a1.684 1.684 0 01-.307.088c-.106.02-.232.03-.378.03-.246 0-.46-.046-.642-.14a.959.959 0 01-.417-.448c-.1-.208-.15-.48-.15-.817v-4.61zm4.2 6.016a2.34 2.34 0 01-.866-.15c-.249-.1-.46-.243-.633-.43a1.912 1.912 0 01-.395-.69 2.88 2.88 0 01-.137-.923v-.391c0-.387.044-.725.132-1.015a2.14 2.14 0 01.374-.739c.161-.199.359-.347.593-.443.237-.1.505-.15.804-.15.299 0 .561.05.787.15.228.096.417.243.567.44.149.192.262.433.338.72.076.287.114.62.114 1.002v.562h-3.186v-.866h1.978v-.11c0-.193-.021-.354-.062-.483a.554.554 0 00-.193-.294.582.582 0 00-.352-.097.608.608 0 00-.312.075.514.514 0 00-.202.233c-.05.105-.086.243-.11.413a4.484 4.484 0 00-.035.602v.391c0 .22.019.404.057.554a.982.982 0 00.167.36.67.67 0 00.277.198c.109.038.235.057.378.057.217 0 .412-.038.585-.114.175-.08.325-.186.448-.321l.492.747a1.913 1.913 0 01-.888.606c-.208.07-.448.106-.72.106zm3.329-3.828V14h-1.235V9.245h1.156l.079 1.015zm-.185 1.2l-.329.009a3.587 3.587 0 01.101-.963c.076-.284.183-.526.32-.725.141-.202.308-.356.501-.461.197-.109.415-.163.655-.163.185 0 .353.032.506.097a.986.986 0 01.399.308c.112.14.198.328.26.562.061.231.092.516.092.853V14h-1.235v-3.032c0-.205-.02-.364-.061-.475a.411.411 0 00-.185-.237.611.611 0 00-.308-.07.51.51 0 00-.312.1.769.769 0 00-.228.269 1.57 1.57 0 00-.136.404c-.03.155-.043.322-.04.501zm6.342 1.59l.765-3.805h1.283L115.286 14h-.769l.026-.95zm-.453-3.805l.778 3.81.013.945h-.773l-1.305-4.755h1.287zm4.679 4.843a2.34 2.34 0 01-.866-.15c-.249-.1-.46-.243-.633-.43a1.912 1.912 0 01-.395-.69 2.88 2.88 0 01-.137-.923v-.391c0-.387.044-.725.132-1.015a2.14 2.14 0 01.374-.739c.161-.199.359-.347.593-.443.237-.1.505-.15.804-.15.299 0 .561.05.787.15.228.096.417.243.567.44.149.192.262.433.338.72.076.287.114.62.114 1.002v.562h-3.186v-.866h1.978v-.11c0-.193-.021-.354-.062-.483a.554.554 0 00-.193-.294.582.582 0 00-.352-.097.608.608 0 00-.312.075.514.514 0 00-.202.233c-.05.105-.086.243-.11.413a4.484 4.484 0 00-.035.602v.391c0 .22.019.404.057.554a.982.982 0 00.167.36c.076.09.169.157.277.198.109.038.235.057.378.057.217 0 .412-.038.585-.114.175-.08.325-.186.448-.321l.492.747a1.913 1.913 0 01-.888.606c-.208.07-.448.106-.72.106zm3.351-3.784V14h-1.231V9.245h1.16l.071 1.06zm1.12-1.094l-.017 1.226a2.68 2.68 0 00-.405-.035.847.847 0 00-.351.066.588.588 0 00-.242.189.882.882 0 00-.14.307 1.9 1.9 0 00-.058.418l-.232-.088c0-.31.023-.595.07-.853.05-.26.123-.486.22-.676.096-.194.212-.343.347-.449a.745.745 0 01.466-.158c.058 0 .12.006.184.018.067.009.12.02.158.035zm1.651-1.96V14h-1.235V7.25h1.235zm1.997 1.995V14h-1.235V9.245h1.235zm-1.292-1.23c0-.19.06-.348.18-.47a.66.66 0 01.493-.19c.208 0 .372.063.492.19.12.122.18.28.18.47a.643.643 0 01-.185.47.644.644 0 01-.483.184.674.674 0 01-.497-.184.655.655 0 01-.18-.47zm3.914 6.073c-.325 0-.614-.05-.866-.15-.249-.1-.46-.243-.633-.43a1.941 1.941 0 01-.395-.69 2.88 2.88 0 01-.136-.923v-.391c0-.387.044-.725.131-1.015a2.14 2.14 0 01.374-.739c.161-.199.359-.347.593-.443.238-.1.506-.15.804-.15.299 0 .561.05.787.15.229.096.418.243.567.44.149.192.262.433.338.72.077.287.115.62.115 1.002v.562h-3.186v-.866h1.977v-.11c0-.193-.02-.354-.061-.483a.555.555 0 00-.194-.294.581.581 0 00-.351-.097.608.608 0 00-.312.075.508.508 0 00-.202.233 1.42 1.42 0 00-.11.413 4.308 4.308 0 00-.036.602v.391c0 .22.02.404.058.554a.966.966 0 00.167.36.66.66 0 00.276.198c.109.038.235.057.378.057a1.343 1.343 0 001.033-.435l.492.747a1.776 1.776 0 01-.351.334c-.15.111-.328.202-.536.272-.208.07-.449.106-.721.106zm3.351-3.784V14h-1.23V9.245h1.16l.07 1.06zm1.121-1.094l-.018 1.226a2.655 2.655 0 00-.404-.035.849.849 0 00-.352.066.588.588 0 00-.242.189.882.882 0 00-.14.307 1.965 1.965 0 00-.057.418l-.233-.088c0-.31.023-.595.07-.853.05-.26.123-.486.22-.676.097-.194.212-.343.347-.449a.747.747 0 01.466-.158c.058 0 .12.006.184.018.068.009.121.02.159.035zm2.186 4.878c-.325 0-.614-.05-.866-.15-.249-.1-.46-.243-.632-.43a1.928 1.928 0 01-.396-.69 2.88 2.88 0 01-.136-.923v-.391c0-.387.044-.725.132-1.015.088-.293.212-.54.373-.739.161-.199.359-.347.594-.443.237-.1.505-.15.804-.15.299 0 .561.05.786.15.229.096.418.243.567.44.15.192.262.433.339.72.076.287.114.62.114 1.002v.562h-3.186v-.866h1.977v-.11c0-.193-.02-.354-.061-.483a.555.555 0 00-.194-.294.58.58 0 00-.351-.097.608.608 0 00-.312.075.514.514 0 00-.202.233 1.42 1.42 0 00-.11.413 4.324 4.324 0 00-.035.602v.391c0 .22.019.404.057.554a.982.982 0 00.167.36c.076.09.168.157.277.198.108.038.234.057.378.057a1.343 1.343 0 001.032-.435l.493.747a1.913 1.913 0 01-.888.606 2.25 2.25 0 01-.721.106zm3.329-3.828V14h-1.235V9.245h1.156l.079 1.015zm-.184 1.2l-.33.009a3.628 3.628 0 01.101-.963c.076-.284.183-.526.321-.725.141-.202.308-.356.501-.461.196-.109.415-.163.655-.163.184 0 .353.032.505.097a.99.99 0 01.4.308c.111.14.198.328.259.562.062.231.093.516.093.853V14h-1.235v-3.032a1.43 1.43 0 00-.062-.475.41.41 0 00-.184-.237.614.614 0 00-.308-.07.51.51 0 00-.312.1.77.77 0 00-.229.269 1.61 1.61 0 00-.136.404 2.5 2.5 0 00-.039.501zm9.347-.822v2.637c-.09.097-.224.21-.4.338a2.561 2.561 0 01-.681.334c-.278.094-.618.14-1.019.14-.355 0-.677-.055-.967-.166a1.963 1.963 0 01-.743-.505 2.315 2.315 0 01-.47-.853 4.07 4.07 0 01-.162-1.217v-1.09c0-.463.051-.866.153-1.209.106-.345.258-.632.457-.861.2-.228.437-.398.712-.51.279-.111.592-.167.941-.167.48 0 .874.08 1.182.242.31.161.545.4.703.716.161.317.258.705.29 1.165h-1.244c-.02-.27-.066-.48-.136-.633a.637.637 0 00-.286-.325.991.991 0 00-.479-.101 1 1 0 00-.443.092.748.748 0 00-.317.29 1.51 1.51 0 00-.189.519c-.041.21-.061.468-.061.773v1.099c0 .302.023.56.07.773.047.214.116.388.207.523a.826.826 0 00.351.295c.144.058.312.087.506.087.155 0 .279-.016.373-.048.094-.032.168-.066.224-.101a2.27 2.27 0 01.145-.088V11.61h-.918v-.97h2.201zm2.512 3.45c-.325 0-.614-.05-.866-.15-.249-.1-.46-.243-.632-.43a1.928 1.928 0 01-.396-.69 2.88 2.88 0 01-.136-.923v-.391c0-.387.044-.725.132-1.015.088-.293.212-.54.373-.739.161-.199.359-.347.593-.443.238-.1.506-.15.805-.15.299 0 .561.05.786.15.229.096.418.243.567.44.15.192.262.433.339.72.076.287.114.62.114 1.002v.562h-3.186v-.866h1.977v-.11c0-.193-.02-.354-.061-.483a.555.555 0 00-.194-.294.58.58 0 00-.351-.097.608.608 0 00-.312.075.514.514 0 00-.202.233 1.42 1.42 0 00-.11.413 4.324 4.324 0 00-.035.602v.391c0 .22.019.404.057.554a.982.982 0 00.167.36c.076.09.168.157.277.198.108.038.234.057.378.057a1.343 1.343 0 001.032-.435l.493.747a1.913 1.913 0 01-.888.606 2.25 2.25 0 01-.721.106zm3.413-6.838V14h-1.235V7.25h1.235zm3.008 5.7v-5.7h1.235V14l-1.116.004-.119-1.054zm-2.465-1.16v-.317c0-.387.032-.725.096-1.015.068-.29.167-.532.299-.725.132-.193.293-.337.484-.43a1.46 1.46 0 01.663-.146c.226 0 .424.057.593.172.173.11.32.268.44.47.12.202.217.44.29.716.073.275.124.577.154.905v.457c-.035.311-.09.601-.163.87-.07.27-.167.505-.29.704-.12.199-.265.356-.435.47-.17.111-.368.167-.593.167-.249 0-.47-.05-.664-.15a1.33 1.33 0 01-.483-.439 2.262 2.262 0 01-.295-.72 4.572 4.572 0 01-.096-.99zm1.23-.317v.317c0 .222.01.414.031.575.023.158.06.289.11.391a.55.55 0 00.206.224c.085.047.191.07.317.07a.622.622 0 00.4-.122.757.757 0 00.228-.347c.053-.15.082-.321.088-.515v-.83a2.142 2.142 0 00-.057-.435 1.103 1.103 0 00-.136-.33.632.632 0 00-.22-.21.58.58 0 00-.299-.075.63.63 0 00-.316.074.508.508 0 00-.202.233 1.47 1.47 0 00-.115.4 4.17 4.17 0 00-.035.58zm4.936-4.223h1.226v5.647L162.432 14h-1.138V7.25zm3.696 4.214v.312c0 .387-.031.724-.093 1.011a2.057 2.057 0 01-.277.72 1.186 1.186 0 01-.474.436 1.519 1.519 0 01-.686.145c-.237 0-.441-.056-.611-.167a1.431 1.431 0 01-.43-.47 3.074 3.074 0 01-.281-.708 5.828 5.828 0 01-.154-.892v-.461c.029-.317.079-.611.149-.884a2.97 2.97 0 01.281-.707c.115-.202.257-.36.427-.47.173-.115.376-.172.611-.172.269 0 .5.05.694.15.193.096.351.241.474.435.126.193.219.435.277.725.062.287.093.62.093.997zm-1.226.312v-.312c0-.22-.009-.408-.027-.566a1.324 1.324 0 00-.097-.396.502.502 0 00-.202-.237.634.634 0 00-.338-.08.612.612 0 00-.316.075.621.621 0 00-.22.211c-.059.091-.103.2-.132.325-.026.123-.041.26-.044.41v.83c.003.202.028.38.075.536a.722.722 0 00.224.36.652.652 0 00.422.128.692.692 0 00.334-.07.461.461 0 00.197-.225 1.13 1.13 0 00.097-.395 5.55 5.55 0 00.027-.594zm3.627 2.312c-.325 0-.613-.05-.865-.15-.249-.1-.46-.243-.633-.43a1.928 1.928 0 01-.396-.69 2.909 2.909 0 01-.136-.923v-.391c0-.387.044-.725.132-1.015.088-.293.212-.54.374-.739.161-.199.358-.347.593-.443.237-.1.505-.15.804-.15.299 0 .561.05.787.15.228.096.417.243.567.44.149.192.262.433.338.72.076.287.114.62.114 1.002v.562h-3.186v-.866h1.978v-.11c0-.193-.021-.354-.062-.483a.554.554 0 00-.193-.294.582.582 0 00-.352-.097.608.608 0 00-.312.075.514.514 0 00-.202.233c-.05.105-.086.243-.11.413a4.484 4.484 0 00-.035.602v.391c0 .22.019.404.057.554a.982.982 0 00.167.36c.076.09.169.157.277.198.108.038.234.057.378.057a1.347 1.347 0 001.033-.435l.492.747a1.913 1.913 0 01-.888.606 2.25 2.25 0 01-.721.106zm3.413-4.843V14h-1.235V9.245h1.235zm-1.292-1.23c0-.19.06-.348.18-.47a.656.656 0 01.492-.19c.208 0 .373.063.493.19.12.122.18.28.18.47a.647.647 0 01-.185.47.644.644 0 01-.483.184.672.672 0 01-.497-.184.655.655 0 01-.18-.47zm3.237 2.214V14h-1.235V9.245h1.16l.075.985zm-.176 1.231l-.338.009a3.794 3.794 0 01.088-.923c.064-.281.161-.526.29-.734.132-.208.297-.37.496-.483a1.38 1.38 0 01.699-.172c.173 0 .333.032.479.097a.97.97 0 01.382.294c.109.132.192.305.251.519.058.21.088.464.088.76V14h-1.231v-3.023c0-.211-.02-.373-.061-.484a.425.425 0 00-.176-.237.526.526 0 00-.281-.07.506.506 0 00-.308.096.696.696 0 00-.215.273 1.706 1.706 0 00-.123.404c-.027.155-.04.322-.04.501zm2.316-.123l-.444.057a3.59 3.59 0 01.084-.874 2.21 2.21 0 01.285-.712c.129-.205.29-.365.484-.48.196-.114.423-.17.681-.17.193 0 .369.031.527.096a.977.977 0 01.405.312c.114.14.2.327.259.558.061.231.092.513.092.844V14h-1.235v-3.028c0-.214-.02-.378-.061-.492-.041-.114-.1-.192-.176-.233a.567.567 0 00-.273-.062.45.45 0 00-.276.088.692.692 0 00-.194.247 1.348 1.348 0 00-.118.364c-.027.138-.04.289-.04.453zm7.946.532h1.279c-.018.48-.115.886-.29 1.217a1.764 1.764 0 01-.752.747c-.322.17-.712.255-1.169.255-.354 0-.669-.059-.945-.176a1.896 1.896 0 01-.703-.527 2.343 2.343 0 01-.439-.857 4.353 4.353 0 01-.145-1.182V10.26c0-.445.051-.84.154-1.182.105-.343.255-.63.448-.861.196-.235.432-.41.707-.528.279-.12.592-.18.941-.18.466 0 .855.088 1.169.264.313.176.555.432.725.769.173.334.277.743.312 1.226h-1.283c-.009-.305-.044-.543-.106-.716a.616.616 0 00-.281-.37c-.129-.073-.308-.11-.536-.11-.17 0-.317.032-.44.093a.707.707 0 00-.303.286 1.534 1.534 0 00-.176.518 4.95 4.95 0 00-.052.783v1.094c0 .302.016.56.048.773.032.211.083.384.154.519a.66.66 0 00.285.294c.123.062.279.092.466.092.217 0 .391-.032.523-.096a.6.6 0 00.299-.347c.064-.167.101-.405.11-.712zm3.101-4.267V14h-1.288V7.602h1.288zm2.003 2.72v1.063h-2.329v-1.063h2.329zm.247-2.72v1.067h-2.576V7.602h2.576zM190.337 14h-1.129l.008-1.063h1.121c.31 0 .552-.056.725-.167.173-.112.294-.288.365-.528.073-.24.11-.555.11-.945V10.3c0-.296-.019-.547-.058-.752a1.224 1.224 0 00-.193-.5.802.802 0 00-.365-.286 1.518 1.518 0 00-.567-.093h-1.168V7.602h1.168c.37 0 .705.06 1.007.18.302.12.561.296.778.527.216.229.383.511.501.848a3.5 3.5 0 01.175 1.152v.988c0 .434-.058.818-.175 1.152a2.393 2.393 0 01-.501.848 2.107 2.107 0 01-.778.523c-.305.12-.646.18-1.024.18zm-.382-6.398V14h-1.288V7.602h1.288zm5.684 3.142v1.024h-2.14v-1.024h2.14zm4.375-.55v1.064h-2.623v-1.064h2.623zm-2.259-2.592V14h-1.287V7.602h1.287zm3.191 0V14h-1.275V7.602h1.275zm2.815 5.304v-2.197a.918.918 0 00-.053-.343.34.34 0 00-.149-.185.436.436 0 00-.238-.061.487.487 0 00-.263.066.406.406 0 00-.159.188.81.81 0 00-.048.295h-1.235c0-.205.04-.399.119-.58.079-.185.195-.346.347-.484.155-.14.34-.25.554-.33.214-.078.454-.118.72-.118.317 0 .598.054.844.163.246.105.441.274.585.505.143.232.215.532.215.901v2.118c0 .267.013.484.04.65.029.168.071.311.127.431V14h-1.239a2.076 2.076 0 01-.128-.492c-.026-.2-.039-.4-.039-.602zm.149-1.81l.005.738h-.453a.771.771 0 00-.308.057.66.66 0 00-.347.4 1.05 1.05 0 00-.039.29c0 .114.016.21.048.29a.374.374 0 00.373.241.71.71 0 00.352-.083.568.568 0 00.22-.202c.05-.08.066-.153.048-.22l.281.479a2.117 2.117 0 01-.145.338 1.406 1.406 0 01-.224.325c-.091.1-.203.182-.338.247a1.105 1.105 0 01-.47.092c-.255 0-.488-.059-.699-.176a1.303 1.303 0 01-.501-.492c-.12-.211-.18-.461-.18-.752 0-.24.038-.457.114-.65.079-.196.196-.362.352-.497.155-.137.351-.243.588-.316.238-.073.516-.11.835-.11h.488zm2.938-.836V14h-1.235V9.245h1.156l.079 1.015zm-.184 1.2l-.33.009a3.628 3.628 0 01.101-.963c.076-.284.183-.526.321-.725.141-.202.308-.356.501-.461a1.33 1.33 0 01.655-.163c.184 0 .353.032.505.097a.99.99 0 01.4.308c.111.14.198.328.259.562.062.231.093.516.093.853V14h-1.235v-3.032a1.43 1.43 0 00-.062-.475.41.41 0 00-.184-.237.614.614 0 00-.308-.07.51.51 0 00-.312.1.77.77 0 00-.229.269 1.61 1.61 0 00-.136.404 2.5 2.5 0 00-.039.501zm5.438 1.49v-5.7h1.235V14l-1.116.004-.119-1.054zm-2.465-1.16v-.317c0-.387.032-.725.096-1.015.068-.29.167-.532.299-.725.132-.193.293-.337.484-.43a1.46 1.46 0 01.663-.146c.226 0 .424.057.594.172.172.11.319.268.439.47.12.202.217.44.29.716.073.275.125.577.154.905v.457c-.035.311-.09.601-.163.87-.07.27-.167.505-.29.704-.12.199-.265.356-.435.47-.17.111-.368.167-.593.167-.249 0-.47-.05-.664-.15a1.33 1.33 0 01-.483-.439 2.262 2.262 0 01-.295-.72 4.572 4.572 0 01-.096-.99zm1.23-.317v.317c0 .222.011.414.031.575.023.158.06.289.11.391a.55.55 0 00.206.224c.085.047.191.07.317.07a.622.622 0 00.4-.122.757.757 0 00.228-.347c.053-.15.082-.321.088-.515v-.83a2.142 2.142 0 00-.057-.435 1.103 1.103 0 00-.136-.33.632.632 0 00-.22-.21.58.58 0 00-.299-.075.63.63 0 00-.316.074.508.508 0 00-.202.233 1.47 1.47 0 00-.115.4 4.17 4.17 0 00-.035.58zm5.043 2.615c-.325 0-.614-.05-.865-.15-.249-.1-.46-.243-.633-.43a1.928 1.928 0 01-.396-.69 2.88 2.88 0 01-.136-.923v-.391c0-.387.044-.725.132-1.015.088-.293.212-.54.373-.739.161-.199.359-.347.594-.443.237-.1.505-.15.804-.15.299 0 .561.05.786.15.229.096.418.243.567.44.15.192.263.433.339.72.076.287.114.62.114 1.002v.562h-3.186v-.866h1.977v-.11c0-.193-.02-.354-.061-.483a.56.56 0 00-.193-.294.582.582 0 00-.352-.097.608.608 0 00-.312.075.514.514 0 00-.202.233 1.42 1.42 0 00-.11.413 4.484 4.484 0 00-.035.602v.391c0 .22.019.404.057.554a.982.982 0 00.167.36c.076.09.168.157.277.198.108.038.234.057.378.057a1.343 1.343 0 001.032-.435l.493.747a1.913 1.913 0 01-.888.606 2.25 2.25 0 01-.721.106zm3.413-6.838V14h-1.235V7.25h1.235zm3.749 2.98V14h-1.235V9.245h1.16l.075.985zm-.176 1.23l-.338.009a3.794 3.794 0 01.088-.923c.064-.281.161-.526.29-.734.132-.208.297-.37.496-.483.2-.115.432-.172.699-.172.173 0 .333.032.479.097.147.061.274.16.382.294.109.132.192.305.251.519.058.21.088.464.088.76V14H224.1v-3.023c0-.211-.02-.373-.061-.484a.425.425 0 00-.176-.237.526.526 0 00-.281-.07.508.508 0 00-.308.096.696.696 0 00-.215.273 1.706 1.706 0 00-.123.404c-.027.155-.04.322-.04.501zm2.316-.123l-.444.057a3.59 3.59 0 01.084-.874 2.21 2.21 0 01.285-.712c.129-.205.29-.365.484-.48.196-.114.423-.17.681-.17.193 0 .369.031.527.096a.977.977 0 01.405.312c.114.14.2.327.259.558.061.231.092.513.092.844V14h-1.235v-3.028c0-.214-.02-.378-.061-.492-.041-.114-.1-.192-.176-.233a.567.567 0 00-.273-.062.45.45 0 00-.276.088.692.692 0 00-.194.247 1.348 1.348 0 00-.118.364c-.027.138-.04.289-.04.453zm4.322-2.092V14h-1.235V9.245h1.235zm-1.292-1.23c0-.19.06-.348.181-.47a.656.656 0 01.492-.19c.208 0 .372.063.492.19.12.122.18.28.18.47a.646.646 0 01-.184.47.648.648 0 01-.484.184.67.67 0 01-.496-.184.652.652 0 01-.181-.47zm4.072 1.23v.927h-2.426v-.927h2.426zm-1.868-1.173h1.227v4.478c0 .132.013.233.039.303.026.07.066.12.119.15.055.026.129.039.219.039a.86.86 0 00.291-.035v.962c-.097.038-.2.068-.308.088-.106.02-.232.03-.378.03-.246 0-.46-.046-.642-.14a.964.964 0 01-.417-.448c-.1-.208-.15-.48-.15-.817v-4.61zm6.391 4.878v-5.7h1.235V14l-1.117.004-.118-1.054zm-2.466-1.16v-.317c0-.387.033-.725.097-1.015.067-.29.167-.532.299-.725.132-.193.293-.337.483-.43.194-.097.415-.146.664-.146.225 0 .423.057.593.172a1.4 1.4 0 01.44.47c.12.202.216.44.29.716.073.275.124.577.153.905v.457c-.035.311-.089.601-.162.87-.071.27-.167.505-.29.704-.12.199-.265.356-.435.47a1.06 1.06 0 01-.594.167c-.249 0-.47-.05-.663-.15a1.326 1.326 0 01-.484-.439 2.262 2.262 0 01-.294-.72 4.568 4.568 0 01-.097-.99zm1.231-.317v.317c0 .222.01.414.031.575.023.158.06.289.109.391.053.1.122.175.207.224.085.047.19.07.316.07a.62.62 0 00.4-.122.751.751 0 00.229-.347c.053-.15.082-.321.088-.515v-.83a2.142 2.142 0 00-.057-.435 1.104 1.104 0 00-.137-.33.63.63 0 00-.219-.21.58.58 0 00-.299-.075.634.634 0 00-.317.074.514.514 0 00-.202.233c-.05.103-.088.236-.114.4a4.17 4.17 0 00-.035.58zm4.419-2.228V14h-1.235V9.245h1.235zm-1.292-1.23c0-.19.06-.348.18-.47a.656.656 0 01.492-.19c.208 0 .372.063.492.19.12.122.18.28.18.47a.646.646 0 01-.184.47.644.644 0 01-.483.184.672.672 0 01-.497-.184.655.655 0 01-.18-.47zm3.913 6.073c-.325 0-.613-.05-.865-.15-.249-.1-.46-.243-.633-.43a1.928 1.928 0 01-.396-.69 2.909 2.909 0 01-.136-.923v-.391c0-.387.044-.725.132-1.015.088-.293.212-.54.373-.739.162-.199.359-.347.594-.443.237-.1.505-.15.804-.15.299 0 .561.05.787.15.228.096.417.243.566.44.15.192.263.433.339.72.076.287.114.62.114 1.002v.562h-3.186v-.866h1.978v-.11c0-.193-.021-.354-.062-.483a.554.554 0 00-.193-.294.582.582 0 00-.352-.097.608.608 0 00-.312.075.514.514 0 00-.202.233c-.05.105-.086.243-.11.413a4.484 4.484 0 00-.035.602v.391c0 .22.019.404.057.554a.982.982 0 00.167.36c.076.09.169.157.277.198.108.038.234.057.378.057a1.347 1.347 0 001.033-.435l.492.747a1.913 1.913 0 01-.888.606 2.25 2.25 0 01-.721.106zm4.23-1.371a.325.325 0 00-.083-.22.998.998 0 00-.264-.198c-.12-.07-.28-.148-.479-.233a4.959 4.959 0 01-.575-.272 2.026 2.026 0 01-.427-.312 1.164 1.164 0 01-.259-.391 1.332 1.332 0 01-.088-.501 1.4 1.4 0 01.11-.558c.076-.173.185-.324.325-.453a1.48 1.48 0 01.514-.308 1.97 1.97 0 01.69-.114c.358 0 .664.063.919.19.257.122.455.295.593.518.138.222.206.482.206.778h-1.23a.77.77 0 00-.048-.282.395.395 0 00-.159-.197.506.506 0 00-.285-.07.45.45 0 00-.4.21.41.41 0 00-.057.22c0 .064.013.122.039.171.03.05.075.098.137.145.061.047.143.097.246.15.105.05.234.105.386.167.317.117.576.243.778.378.205.134.358.293.457.474.1.179.15.4.15.664 0 .21-.041.403-.123.575a1.247 1.247 0 01-.348.449 1.604 1.604 0 01-.549.29 2.318 2.318 0 01-.707.1c-.384 0-.708-.075-.972-.228a1.576 1.576 0 01-.597-.584 1.505 1.505 0 01-.202-.747h1.169a.806.806 0 00.087.373c.056.088.131.15.225.185a.876.876 0 00.312.053.764.764 0 00.281-.044.35.35 0 00.171-.145.466.466 0 00.057-.233zm3.624 1.37c-.325 0-.614-.049-.866-.149-.249-.1-.46-.243-.633-.43a1.941 1.941 0 01-.395-.69 2.88 2.88 0 01-.136-.923v-.391c0-.387.044-.725.131-1.015a2.14 2.14 0 01.374-.739c.161-.199.359-.347.593-.443.238-.1.506-.15.804-.15.299 0 .562.05.787.15.229.096.418.243.567.44.149.192.262.433.338.72.077.287.115.62.115 1.002v.562h-3.186v-.866h1.977v-.11c0-.193-.02-.354-.061-.483a.555.555 0 00-.194-.294.581.581 0 00-.351-.097.608.608 0 00-.312.075.508.508 0 00-.202.233 1.42 1.42 0 00-.11.413 4.324 4.324 0 00-.035.602v.391c0 .22.019.404.057.554a.966.966 0 00.167.36.66.66 0 00.276.198c.109.038.235.057.378.057a1.343 1.343 0 001.033-.435l.492.747a1.776 1.776 0 01-.351.334c-.15.111-.328.202-.536.272-.208.07-.449.106-.721.106zm3.36-3.857V14h-1.235V9.245h1.16l.075.985zm-.176 1.23l-.338.009a3.794 3.794 0 01.088-.923c.064-.281.161-.526.29-.734.131-.208.297-.37.496-.483a1.38 1.38 0 01.699-.172c.173 0 .332.032.479.097a.97.97 0 01.382.294c.109.132.192.305.251.519.058.21.088.464.088.76V14h-1.231v-3.023c0-.211-.02-.373-.061-.484a.425.425 0 00-.176-.237.526.526 0 00-.281-.07.506.506 0 00-.308.096.696.696 0 00-.215.273 1.706 1.706 0 00-.123.404c-.027.155-.04.322-.04.501zm2.316-.123l-.444.057a3.59 3.59 0 01.084-.874 2.21 2.21 0 01.285-.712c.129-.205.29-.365.484-.48.196-.114.423-.17.681-.17.193 0 .369.031.527.096a.968.968 0 01.404.312c.115.14.201.327.26.558.061.231.092.513.092.844V14h-1.235v-3.028c0-.214-.02-.378-.061-.492-.041-.114-.1-.192-.176-.233a.567.567 0 00-.273-.062.45.45 0 00-.276.088.692.692 0 00-.194.247 1.347 1.347 0 00-.119.364 2.444 2.444 0 00-.039.453zm7.212-2.593L261.832 14h-1.358l2-6.398h.848l-.114 1.142zM264.293 14l-1.384-5.256-.127-1.142h.861L265.66 14h-1.367zm.049-2.386v1.068h-2.888v-1.068h2.888zm2.595-1.354V14h-1.235V9.245h1.156l.079 1.015zm-.185 1.2l-.329.009a3.628 3.628 0 01.101-.963c.076-.284.183-.526.321-.725.14-.202.307-.356.501-.461.196-.109.414-.163.654-.163.185 0 .353.032.506.097a.996.996 0 01.4.308c.111.14.197.328.259.562.061.231.092.516.092.853V14h-1.235v-3.032c0-.205-.02-.364-.061-.475a.411.411 0 00-.185-.237.61.61 0 00-.307-.07.506.506 0 00-.312.1.77.77 0 00-.229.269 1.61 1.61 0 00-.136.404 2.497 2.497 0 00-.04.501zm3.14-4.21h1.227v5.647L271.031 14h-1.139V7.25zm3.696 4.214v.312c0 .387-.03.724-.092 1.011a2.076 2.076 0 01-.277.72 1.186 1.186 0 01-.474.436 1.519 1.519 0 01-.686.145c-.237 0-.441-.056-.611-.167a1.434 1.434 0 01-.431-.47 3.074 3.074 0 01-.281-.708 6.083 6.083 0 01-.154-.892v-.461c.03-.317.08-.611.15-.884a2.97 2.97 0 01.281-.707c.114-.202.256-.36.426-.47.173-.115.377-.172.611-.172.27 0 .501.05.695.15.193.096.351.241.474.435.126.193.218.435.277.725.062.287.092.62.092.997zm-1.226.312v-.312c0-.22-.009-.408-.026-.566a1.355 1.355 0 00-.097-.396.507.507 0 00-.202-.237.636.636 0 00-.338-.08.618.618 0 00-.317.075.619.619 0 00-.219.211c-.059.091-.103.2-.132.325-.027.123-.041.26-.044.41v.83c.003.202.028.38.074.536a.723.723 0 00.225.36.65.65 0 00.421.128.69.69 0 00.334-.07.468.468 0 00.198-.225c.05-.102.082-.234.097-.395.017-.164.026-.362.026-.594zm3.004-2.53V14h-1.235V9.245h1.235zm-1.292-1.231c0-.19.06-.348.18-.47a.657.657 0 01.493-.19c.208 0 .372.063.492.19.12.122.18.28.18.47a.647.647 0 01-.185.47.644.644 0 01-.483.184.672.672 0 01-.497-.184.655.655 0 01-.18-.47zm3.914 6.073c-.325 0-.614-.05-.866-.15-.249-.1-.46-.243-.633-.43a1.926 1.926 0 01-.395-.69 2.88 2.88 0 01-.137-.923v-.391c0-.387.044-.725.132-1.015a2.14 2.14 0 01.374-.739c.161-.199.359-.347.593-.443.237-.1.505-.15.804-.15.299 0 .561.05.787.15.228.096.417.243.567.44.149.192.262.433.338.72.076.287.114.62.114 1.002v.562h-3.186v-.866h1.978v-.11c0-.193-.021-.354-.062-.483a.554.554 0 00-.193-.294.581.581 0 00-.351-.097.603.603 0 00-.312.075.516.516 0 00-.203.233 1.456 1.456 0 00-.109.413 4.308 4.308 0 00-.036.602v.391c0 .22.019.404.057.554a.998.998 0 00.167.36.67.67 0 00.277.198c.109.038.235.057.378.057a1.343 1.343 0 001.033-.435l.492.747a1.776 1.776 0 01-.351.334c-.15.111-.329.202-.537.272-.208.07-.448.106-.72.106zm4.195-4.843v.927h-2.426v-.927h2.426zm-1.868-1.173h1.226v4.478c0 .132.013.233.04.303.026.07.065.12.118.15.056.026.129.039.22.039a.826.826 0 00.29-.035v.962a1.695 1.695 0 01-.308.088c-.105.02-.231.03-.378.03-.246 0-.46-.046-.641-.14a.96.96 0 01-.418-.448c-.099-.208-.149-.48-.149-.817v-4.61zm4.199 6.016c-.325 0-.614-.05-.866-.15-.249-.1-.46-.243-.632-.43a1.928 1.928 0 01-.396-.69 2.88 2.88 0 01-.136-.923v-.391c0-.387.044-.725.132-1.015.088-.293.212-.54.373-.739.161-.199.359-.347.594-.443.237-.1.505-.15.804-.15.299 0 .561.05.786.15.229.096.418.243.567.44.15.192.262.433.339.72.076.287.114.62.114 1.002v.562h-3.186v-.866h1.977v-.11c0-.193-.02-.354-.061-.483a.555.555 0 00-.194-.294.58.58 0 00-.351-.097.608.608 0 00-.312.075.514.514 0 00-.202.233 1.42 1.42 0 00-.11.413 4.324 4.324 0 00-.035.602v.391c0 .22.019.404.057.554a.982.982 0 00.167.36c.076.09.168.157.277.198.108.038.234.057.378.057a1.343 1.343 0 001.032-.435l.493.747a1.913 1.913 0 01-.888.606 2.25 2.25 0 01-.721.106zm3.351-3.784V14h-1.23V9.245h1.16l.07 1.06zm1.121-1.094l-.018 1.226a2.634 2.634 0 00-.404-.035.849.849 0 00-.352.066.585.585 0 00-.241.189.865.865 0 00-.141.307 1.965 1.965 0 00-.057.418l-.233-.088c0-.31.024-.595.07-.853.05-.26.123-.486.22-.676a1.3 1.3 0 01.347-.449.747.747 0 01.466-.158c.059 0 .12.006.185.018.067.009.12.02.158.035zm-.297 4.162c0-.194.065-.355.194-.484.129-.132.303-.198.523-.198.22 0 .394.066.523.198.129.13.193.29.193.484a.655.655 0 01-.193.483c-.129.129-.303.193-.523.193-.22 0-.394-.064-.523-.193a.656.656 0 01-.194-.483zm7.072-.99c0-.319-.087-.563-.259-.733-.173-.17-.485-.335-.937-.497-.451-.16-.796-.33-1.037-.505a1.859 1.859 0 01-.536-.607 1.692 1.692 0 01-.176-.782c0-.507.169-.924.506-1.252.34-.328.784-.492 1.331-.492.375 0 .709.085 1.002.255.293.167.519.4.677.698.158.3.237.627.237.985h-.808c0-.396-.095-.702-.286-.919-.19-.217-.464-.325-.822-.325-.325 0-.577.09-.755.272-.179.182-.269.437-.269.765 0 .27.097.495.29.677.194.181.493.344.897.488.63.208 1.08.464 1.349.769.273.304.409.703.409 1.195 0 .519-.169.935-.506 1.248-.336.31-.795.466-1.375.466-.372 0-.716-.08-1.033-.242a1.88 1.88 0 01-.742-.685 1.922 1.922 0 01-.269-1.015h.809c0 .395.11.703.33.922.222.22.524.33.905.33.354 0 .621-.09.8-.272.178-.182.268-.43.268-.743zM298.092 14h-.777V9.245h.777V14zm.062-6.016a.499.499 0 01-.11.33c-.073.087-.185.131-.334.131-.146 0-.256-.044-.33-.132a.498.498 0 01-.109-.33c0-.13.036-.242.109-.333.074-.09.184-.136.33-.136.147 0 .256.047.33.14.076.091.114.201.114.33zm2.595 6.104c-.592 0-1.046-.176-1.362-.527-.317-.355-.478-.873-.484-1.556v-.576c0-.709.154-1.264.462-1.665.31-.405.743-.607 1.296-.607.557 0 .973.177 1.248.532.276.354.416.907.422 1.657v.51h-2.654v.11c0 .51.095.88.286 1.111.193.232.47.347.83.347.229 0 .429-.042.602-.127.176-.088.34-.226.492-.413l.405.492c-.337.475-.851.712-1.543.712zm-.088-4.263c-.322 0-.561.112-.716.334-.155.22-.243.563-.264 1.028h1.872v-.105c-.02-.451-.102-.773-.246-.967-.14-.193-.356-.29-.646-.29zm6.443 2.958a.574.574 0 00-.189-.43c-.126-.121-.369-.262-.729-.423-.419-.173-.715-.32-.888-.444a1.276 1.276 0 01-.382-.417 1.172 1.172 0 01-.128-.563c0-.386.141-.707.422-.962.284-.258.646-.387 1.086-.387.462 0 .835.135 1.116.405.281.269.422.615.422 1.037h-.774a.76.76 0 00-.215-.545.723.723 0 00-.549-.229c-.229 0-.409.06-.541.18a.61.61 0 00-.193.475c0 .158.047.286.14.382.097.097.327.224.69.383.577.225.97.446 1.178.663.208.214.312.487.312.818 0 .413-.142.744-.426.993-.284.246-.665.369-1.143.369-.495 0-.896-.142-1.204-.426a1.406 1.406 0 01-.461-1.081h.782c.009.263.089.47.242.62.152.149.366.223.641.223.258 0 .454-.057.589-.171a.591.591 0 00.202-.47zm1.361-1.38c0-.692.167-1.238.501-1.64.336-.404.78-.606 1.331-.606.551 0 .993.197 1.327.59.337.392.51.926.519 1.603v.501c0 .689-.167 1.233-.501 1.635-.334.401-.78.602-1.336.602-.551 0-.993-.195-1.327-.585-.331-.39-.503-.917-.514-1.582v-.518zm.777.448c0 .49.096.875.286 1.156a.902.902 0 00.778.417c.685 0 1.038-.495 1.059-1.485v-.536c0-.487-.097-.87-.29-1.152-.193-.284-.453-.426-.778-.426-.319 0-.576.142-.769.427-.19.28-.286.663-.286 1.146v.453zM313.714 14h-.778V7.25h.778V14zm1.795 0h-.777V7.25h.777V14zm1.976-5.906v1.151h.716v.629h-.716v2.948c0 .188.031.33.092.427.062.096.167.145.317.145a.986.986 0 00.312-.053l-.009.659a1.7 1.7 0 01-.541.088c-.307 0-.541-.11-.703-.33-.161-.22-.241-.53-.241-.931V9.874h-.725v-.629h.725V8.094h.773zm3.074 5.994c-.591 0-1.046-.176-1.362-.527-.316-.355-.478-.873-.483-1.556v-.576c0-.709.153-1.264.461-1.665.311-.405.743-.607 1.296-.607.557 0 .973.177 1.248.532.276.354.416.907.422 1.657v.51h-2.654v.11c0 .51.095.88.286 1.111.193.232.47.347.83.347.229 0 .429-.042.602-.127.176-.088.34-.226.493-.413l.404.492c-.337.475-.851.712-1.543.712zm-.088-4.263c-.322 0-.561.112-.716.334-.155.22-.243.563-.264 1.028h1.873v-.105c-.021-.451-.103-.773-.247-.967-.14-.193-.356-.29-.646-.29zm3.07-.58l.022.514c.302-.401.687-.602 1.156-.602.841 0 1.267.561 1.279 1.683V14h-.774v-3.124c0-.373-.063-.636-.189-.791-.123-.159-.309-.238-.558-.238a.8.8 0 00-.523.194 1.412 1.412 0 00-.369.505V14h-.778V9.245h.734zm7.577 4.338c-.258.336-.634.505-1.129.505-.431 0-.756-.148-.976-.444-.22-.299-.331-.732-.334-1.3V9.244h.773v3.041c0 .741.223 1.112.668 1.112.472 0 .797-.211.976-.633v-3.52h.778V14h-.738l-.018-.418zm-2.25-5.608c0-.132.04-.242.119-.33.082-.09.202-.136.36-.136.158 0 .278.046.36.137a.464.464 0 01.123.33.464.464 0 01-.123.329c-.082.088-.202.132-.36.132-.158 0-.278-.044-.36-.132a.475.475 0 01-.119-.33zm1.89.009a.49.49 0 01.118-.334c.082-.09.202-.136.361-.136.158 0 .278.045.36.136a.48.48 0 01.123.334.464.464 0 01-.123.33c-.082.087-.202.131-.36.131-.159 0-.279-.044-.361-.132a.474.474 0 01-.118-.33zm5.46 3.867c0 .741-.133 1.3-.4 1.674-.266.375-.653.563-1.16.563-.504 0-.882-.217-1.134-.65l-.039.562h-.708V7.25h.774v2.518c.255-.407.621-.61 1.098-.61.522 0 .913.184 1.174.553.26.37.392.926.395 1.67v.47zm-.773-.444c0-.562-.079-.962-.238-1.2-.155-.24-.408-.36-.76-.36-.401 0-.7.217-.896.65v2.264c.193.428.495.641.905.641.351 0 .603-.123.756-.369.152-.246.23-.628.233-1.147v-.479zm3.197 2.68c-.592 0-1.046-.175-1.362-.527-.317-.354-.478-.873-.484-1.555v-.576c0-.709.154-1.264.462-1.665.31-.405.742-.607 1.296-.607.557 0 .973.177 1.248.532.275.354.416.907.422 1.657v.51h-2.654v.11c0 .51.095.88.285 1.111.194.232.471.347.831.347.228 0 .429-.042.602-.127.176-.088.34-.226.492-.413l.404.492c-.336.475-.851.712-1.542.712zm-.088-4.262c-.322 0-.561.112-.716.334-.156.22-.243.563-.264 1.028h1.872v-.105c-.02-.451-.102-.773-.246-.967-.141-.193-.356-.29-.646-.29zm4.3.15a1.883 1.883 0 00-.351-.031c-.399 0-.677.218-.835.655V14h-.778V9.245h.756l.013.484c.208-.381.502-.572.883-.572.123 0 .226.02.308.062l.004.756zM344.202 14h-.778V7.25h.778V14zm2.656.088c-.591 0-1.046-.176-1.362-.527-.316-.355-.478-.873-.483-1.556v-.576c0-.709.153-1.264.461-1.665.311-.405.743-.607 1.296-.607.557 0 .973.177 1.248.532.276.354.416.907.422 1.657v.51h-2.654v.11c0 .51.095.88.286 1.111.193.232.47.347.83.347.229 0 .429-.042.602-.127.176-.088.34-.226.492-.413l.405.492c-.337.475-.851.712-1.543.712zm-.088-4.263c-.322 0-.561.112-.716.334-.155.22-.243.563-.264 1.028h1.873v-.105c-.021-.451-.103-.773-.247-.967-.14-.193-.356-.29-.646-.29zm2.183 1.582c0-.741.134-1.3.404-1.678.269-.381.663-.572 1.182-.572.483 0 .851.207 1.103.62l.04-.532h.703v4.799c0 .589-.151 1.04-.453 1.354-.302.316-.722.474-1.261.474-.235 0-.498-.059-.791-.176-.29-.114-.508-.256-.655-.426l.316-.536c.323.316.679.475 1.068.475.648 0 .98-.354.998-1.06v-.62c-.252.373-.61.559-1.072.559-.493 0-.876-.185-1.152-.554-.275-.372-.419-.905-.43-1.6v-.527zm.777.444c0 .533.078.926.233 1.178.159.249.416.373.774.373.386 0 .677-.197.87-.593v-2.377c-.202-.39-.489-.585-.861-.585-.358 0-.616.126-.774.378-.158.25-.239.633-.242 1.152v.474zm5.246 2.237c-.592 0-1.046-.176-1.363-.527-.316-.355-.477-.873-.483-1.556v-.576c0-.709.154-1.264.461-1.665.311-.405.743-.607 1.297-.607.556 0 .972.177 1.248.532.275.354.416.907.422 1.657v.51h-2.655v.11c0 .51.096.88.286 1.111.193.232.47.347.831.347.228 0 .429-.042.602-.127.175-.088.339-.226.492-.413l.404.492c-.337.475-.851.712-1.542.712zm-.088-4.263c-.323 0-.561.112-.717.334-.155.22-.243.563-.263 1.028h1.872v-.105c-.021-.451-.103-.773-.246-.967-.141-.193-.356-.29-.646-.29zm3.069-.58l.022.514c.302-.401.687-.602 1.156-.602.841 0 1.267.561 1.279 1.683V14h-.773v-3.124c0-.373-.063-.636-.189-.791-.123-.159-.309-.238-.558-.238a.796.796 0 00-.523.194 1.402 1.402 0 00-.37.505V14h-.777V9.245h.733zm3.365 6.03l-.462-.317c.276-.384.419-.78.431-1.187v-.733h.795v.637c0 .296-.073.592-.219.887a2.058 2.058 0 01-.545.712zm3.12-3.872c0-.692.167-1.238.501-1.64.337-.404.781-.606 1.332-.606s.993.197 1.327.59c.337.392.51.926.519 1.603v.501c0 .689-.167 1.233-.501 1.635-.334.401-.78.602-1.336.602-.551 0-.993-.195-1.327-.585-.331-.39-.503-.917-.515-1.582v-.518zm.778.448c0 .49.095.875.286 1.156a.902.902 0 00.778.417c.685 0 1.038-.495 1.059-1.485v-.536c0-.487-.097-.87-.29-1.152-.194-.284-.453-.426-.778-.426-.319 0-.576.142-.769.427-.191.28-.286.663-.286 1.146v.453zm7.078 0c0 .741-.133 1.3-.4 1.674-.267.375-.653.563-1.16.563-.504 0-.882-.217-1.134-.65l-.039.562h-.708V7.25h.773v2.518c.255-.407.622-.61 1.099-.61.522 0 .913.184 1.173.553.261.37.393.926.396 1.67v.47zm-.774-.444c0-.562-.079-.962-.237-1.2-.155-.24-.409-.36-.76-.36-.401 0-.7.217-.897.65v2.264c.194.428.496.641.906.641.351 0 .603-.123.756-.369.152-.246.23-.628.232-1.147v-.479zm6.197.976c0-.32-.086-.564-.259-.734-.173-.17-.485-.335-.936-.497-.451-.16-.797-.33-1.037-.505a1.859 1.859 0 01-.536-.607 1.692 1.692 0 01-.176-.782c0-.507.168-.924.505-1.252.34-.328.784-.492 1.332-.492.375 0 .709.085 1.002.255.293.167.518.4.677.698.158.3.237.627.237.985h-.809c0-.396-.095-.702-.285-.919-.191-.217-.465-.325-.822-.325-.325 0-.577.09-.756.272-.179.182-.268.437-.268.765 0 .27.097.495.29.677.193.181.492.344.896.488.63.208 1.08.464 1.35.769.272.304.408.703.408 1.195 0 .519-.168.935-.505 1.248-.337.31-.796.466-1.376.466a2.24 2.24 0 01-1.032-.242 1.884 1.884 0 01-.743-.685 1.922 1.922 0 01-.268-1.015h.809c0 .395.109.703.329.922.223.22.525.33.905.33.355 0 .622-.09.8-.272.179-.182.268-.43.268-.743zM380.053 14h-.778V9.245h.778V14zm.061-6.016a.498.498 0 01-.109.33c-.074.087-.185.131-.334.131-.147 0-.257-.044-.33-.132a.499.499 0 01-.11-.33c0-.13.037-.242.11-.333.073-.09.183-.136.33-.136.146 0 .256.047.329.14.076.091.114.201.114.33zm2.596 6.104c-.592 0-1.046-.176-1.363-.527-.316-.355-.477-.873-.483-1.556v-.576c0-.709.154-1.264.461-1.665.311-.405.743-.607 1.297-.607.556 0 .972.177 1.248.532.275.354.416.907.422 1.657v.51h-2.655v.11c0 .51.096.88.286 1.111.193.232.47.347.831.347.228 0 .429-.042.602-.127.175-.088.339-.226.492-.413l.404.492c-.337.475-.851.712-1.542.712zm-.088-4.263c-.323 0-.561.112-.717.334-.155.22-.243.563-.263 1.028h1.872v-.105c-.021-.451-.103-.773-.246-.967-.141-.193-.356-.29-.646-.29zm5.48 2.993l.901-3.573h.791L388.383 14h-.58l-1.428-4.755h.791l.936 3.573zm3.931 1.27c-.591 0-1.046-.176-1.362-.527-.316-.355-.477-.873-.483-1.556v-.576c0-.709.153-1.264.461-1.665.311-.405.743-.607 1.296-.607.557 0 .973.177 1.249.532.275.354.416.907.421 1.657v.51h-2.654v.11c0 .51.095.88.286 1.111.193.232.47.347.83.347.229 0 .43-.042.602-.127.176-.088.34-.226.493-.413l.404.492c-.337.475-.851.712-1.543.712zm-.088-4.263c-.322 0-.561.112-.716.334-.155.22-.243.563-.263 1.028h1.872v-.105c-.021-.451-.103-.773-.247-.967-.14-.193-.355-.29-.646-.29zm4.301.15a1.901 1.901 0 00-.352-.031c-.398 0-.677.218-.835.655V14h-.778V9.245h.756l.014.484c.208-.381.502-.572.883-.572.123 0 .225.02.307.062l.005.756zm2.819 2.808a.574.574 0 00-.189-.43c-.126-.121-.369-.262-.729-.423-.419-.173-.715-.32-.888-.444a1.276 1.276 0 01-.382-.417 1.172 1.172 0 01-.128-.563c0-.386.141-.707.422-.962.284-.258.646-.387 1.086-.387.462 0 .835.135 1.116.405.281.269.422.615.422 1.037h-.774a.76.76 0 00-.215-.545.723.723 0 00-.549-.229c-.229 0-.409.06-.541.18a.61.61 0 00-.193.475c0 .158.047.286.14.382.097.097.327.224.69.383.577.225.97.446 1.178.663.208.214.312.487.312.818 0 .413-.142.744-.426.993-.284.246-.665.369-1.143.369-.495 0-.896-.142-1.204-.426a1.406 1.406 0 01-.461-1.081h.782c.009.263.089.47.242.62.152.149.366.223.641.223.258 0 .454-.057.589-.171a.591.591 0 00.202-.47zm2.543-4.69v1.152h.716v.629h-.716v2.948c0 .188.03.33.092.427.061.096.167.145.316.145a.977.977 0 00.312-.053l-.008.659a1.7 1.7 0 01-.541.088c-.308 0-.542-.11-.703-.33-.161-.22-.242-.53-.242-.931V9.874h-.725v-.629h.725V8.094h.774zm3.074 5.995c-.592 0-1.046-.176-1.362-.527-.317-.355-.478-.873-.484-1.556v-.576c0-.709.154-1.264.462-1.665.31-.405.742-.607 1.296-.607.557 0 .973.177 1.248.532.275.354.416.907.422 1.657v.51h-2.654v.11c0 .51.095.88.285 1.111.194.232.471.347.831.347.228 0 .429-.042.602-.127.176-.088.34-.226.492-.413l.404.492c-.337.475-.851.712-1.542.712zm-.088-4.263c-.322 0-.561.112-.716.334-.156.22-.243.563-.264 1.028h1.872v-.105c-.02-.451-.102-.773-.246-.967-.141-.193-.356-.29-.646-.29zm3.114-.092c.296-.384.674-.576 1.134-.576.84 0 1.267.561 1.278 1.683V14h-.773v-3.124c0-.373-.063-.636-.189-.791-.123-.159-.309-.238-.558-.238a.798.798 0 00-.523.194 1.412 1.412 0 00-.369.505V14h-.778V7.25h.778v2.483zm5.003 4.355c-.592 0-1.046-.176-1.362-.527-.316-.355-.478-.873-.483-1.556v-.576c0-.709.153-1.264.461-1.665.311-.405.743-.607 1.296-.607.557 0 .973.177 1.248.532.276.354.416.907.422 1.657v.51h-2.654v.11c0 .51.095.88.286 1.111.193.232.47.347.83.347.229 0 .429-.042.602-.127.176-.088.34-.226.492-.413l.405.492c-.337.475-.851.712-1.543.712zm-.088-4.263c-.322 0-.561.112-.716.334-.155.22-.243.563-.264 1.028h1.872v-.105c-.02-.451-.102-.773-.246-.967-.14-.193-.356-.29-.646-.29zm3.07-.58l.022.514c.302-.401.687-.602 1.156-.602.841 0 1.267.561 1.279 1.683V14h-.774v-3.124c0-.373-.063-.636-.189-.791-.123-.159-.309-.238-.558-.238a.8.8 0 00-.523.194 1.412 1.412 0 00-.369.505V14h-.778V9.245h.734zm3.364 6.03l-.461-.317c.275-.384.419-.78.431-1.187v-.733h.795v.637c0 .296-.073.592-.22.887a2.046 2.046 0 01-.545.712zm6.83-2.642l.721-3.388h.769L426.212 14h-.619l-.928-3.401L423.76 14h-.624l-1.156-4.755h.765l.738 3.305.884-3.305h.615l.905 3.388zM428.764 14h-.778V9.245h.778V14zm.061-6.016a.499.499 0 01-.11.33c-.073.087-.184.131-.334.131-.146 0-.256-.044-.329-.132a.494.494 0 01-.11-.33.51.51 0 01.11-.333c.073-.09.183-.136.329-.136.147 0 .257.047.33.14.076.091.114.201.114.33zm2.595 6.104c-.591 0-1.046-.176-1.362-.527-.316-.355-.477-.873-.483-1.556v-.576c0-.709.153-1.264.461-1.665.311-.405.743-.607 1.296-.607.557 0 .973.177 1.249.532.275.354.416.907.421 1.657v.51h-2.654v.11c0 .51.095.88.286 1.111.193.232.47.347.83.347.229 0 .429-.042.602-.127.176-.088.34-.226.493-.413l.404.492c-.337.475-.851.712-1.543.712zm-.088-4.263c-.322 0-.561.112-.716.334-.155.22-.243.563-.264 1.028h1.873v-.105c-.021-.451-.103-.773-.247-.967-.14-.193-.356-.29-.646-.29zm8.254 2.145c-.035.685-.229 1.21-.58 1.573-.349.363-.842.545-1.481.545-.642 0-1.151-.243-1.529-.73-.378-.489-.567-1.151-.567-1.986v-1.16c0-.832.193-1.49.58-1.973.389-.484.92-.725 1.591-.725.618 0 1.095.186 1.432.558.34.369.525.898.554 1.586h-.813c-.035-.521-.145-.893-.33-1.116-.184-.223-.465-.334-.843-.334-.437 0-.772.171-1.007.514-.234.34-.351.84-.351 1.499v1.173c0 .647.108 1.144.325 1.49.22.345.539.518.958.518.419 0 .721-.104.905-.312.185-.208.299-.581.343-1.12h.813zm3.79-.796h-2.162V14h-.804V7.602h3.331v.694h-2.527v2.188h2.162v.69zM444.464 14V7.602h1.525c.747 0 1.327.234 1.741.703.413.466.619 1.122.619 1.968v1.073c0 .846-.209 1.501-.628 1.964-.419.46-1.027.69-1.824.69h-1.433zm.805-5.704v5.014h.646c.565 0 .978-.161 1.239-.483.261-.325.394-.806.4-1.442v-1.133c0-.674-.131-1.168-.391-1.481-.258-.317-.649-.475-1.174-.475h-.72zm6.269 4.487a.574.574 0 00-.189-.43c-.126-.121-.369-.262-.73-.423-.419-.173-.715-.32-.888-.444a1.287 1.287 0 01-.382-.417 1.172 1.172 0 01-.127-.563c0-.386.14-.707.422-.962.284-.258.646-.387 1.085-.387.463 0 .835.135 1.116.405.281.269.422.615.422 1.037h-.773a.756.756 0 00-.216-.545.72.72 0 00-.549-.229c-.228 0-.409.06-.54.18a.61.61 0 00-.194.475c0 .158.047.286.141.382.096.097.326.224.69.383.577.225.969.446 1.177.663.208.214.312.487.312.818 0 .413-.142.744-.426.993-.284.246-.665.369-1.142.369-.496 0-.897-.142-1.204-.426a1.407 1.407 0 01-.462-1.081h.782c.009.263.09.47.242.62.152.149.366.223.642.223.257 0 .454-.057.588-.171a.592.592 0 00.203-.47zM455.199 14V9.874h-.62v-.629h.62v-.55c.009-.483.13-.86.365-1.129.237-.272.571-.408 1.001-.408.156 0 .313.025.471.074l-.04.66a1.539 1.539 0 00-.356-.04c-.442 0-.663.315-.663.945v.448h.813v.629h-.813V14h-.778zm4.66-.418c-.257.337-.634.506-1.129.506-.431 0-.756-.148-.976-.444-.219-.299-.331-.732-.333-1.3V9.244h.773v3.041c0 .741.223 1.112.668 1.112.472 0 .797-.211.975-.633v-3.52h.778V14h-.738l-.018-.418zm2.389-4.337l.022.514c.302-.401.687-.602 1.156-.602.841 0 1.267.561 1.279 1.683V14h-.774v-3.124c0-.373-.063-.636-.189-.791-.123-.159-.309-.238-.558-.238a.8.8 0 00-.523.194 1.412 1.412 0 00-.369.505V14h-.778V9.245h.734zm4.551 2.58l-.413.474V14h-.778V7.25h.778v4.039l1.481-2.044h.931l-1.511 1.986L468.996 14h-.905l-1.292-2.175zm3.615-3.731v1.151h.716v.629h-.716v2.948c0 .188.03.33.092.427.062.096.167.145.316.145a.977.977 0 00.312-.053l-.008.659a1.7 1.7 0 01-.541.088c-.308 0-.542-.11-.703-.33-.161-.22-.242-.53-.242-.931V9.874h-.725v-.629h.725V8.094h.774zM472.627 14h-.778V9.245h.778V14zm.061-6.016a.494.494 0 01-.11.33c-.073.087-.184.131-.334.131-.146 0-.256-.044-.329-.132a.494.494 0 01-.11-.33.51.51 0 01.11-.333c.073-.09.183-.136.329-.136.147 0 .257.047.33.14.076.091.114.201.114.33zm.732 3.419c0-.692.167-1.238.501-1.64.337-.404.781-.606 1.332-.606.55 0 .993.197 1.327.59.337.392.51.926.518 1.603v.501c0 .689-.167 1.233-.501 1.635-.334.401-.779.602-1.336.602-.55 0-.993-.195-1.327-.585-.331-.39-.502-.917-.514-1.582v-.518zm.778.448c0 .49.095.875.286 1.156a.9.9 0 00.777.417c.686 0 1.039-.495 1.059-1.485v-.536c0-.487-.096-.87-.29-1.152-.193-.284-.452-.426-.777-.426-.32 0-.576.142-.769.427-.191.28-.286.663-.286 1.146v.453zm4.366-2.606l.022.514c.302-.401.687-.602 1.156-.602.841 0 1.267.561 1.279 1.683V14h-.774v-3.124c0-.373-.063-.636-.189-.791-.123-.159-.309-.238-.558-.238a.8.8 0 00-.523.194 1.412 1.412 0 00-.369.505V14h-.778V9.245h.734zM482.759 14h-.778V9.245h.778V14zm.062-6.016a.499.499 0 01-.11.33c-.074.087-.185.131-.334.131-.147 0-.257-.044-.33-.132a.499.499 0 01-.11-.33c0-.13.037-.242.11-.333.073-.09.183-.136.33-.136.146 0 .256.047.329.14.076.091.115.201.115.33zm2.595 6.104c-.592 0-1.046-.176-1.363-.527-.316-.355-.477-.873-.483-1.556v-.576c0-.709.154-1.264.461-1.665.311-.405.743-.607 1.297-.607.557 0 .973.177 1.248.532.275.354.416.907.422 1.657v.51h-2.654v.11c0 .51.095.88.285 1.111.194.232.47.347.831.347.228 0 .429-.042.602-.127.176-.088.34-.226.492-.413l.404.492c-.337.475-.851.712-1.542.712zm-.088-4.263c-.322 0-.561.112-.716.334-.156.22-.244.563-.264 1.028h1.872v-.105c-.021-.451-.103-.773-.246-.967-.141-.193-.356-.29-.646-.29zm4.3.15a1.883 1.883 0 00-.351-.031c-.399 0-.677.218-.835.655V14h-.778V9.245h.756l.013.484c.208-.381.502-.572.883-.572.123 0 .226.02.308.062l.004.756zm2.209 4.113c-.592 0-1.046-.176-1.363-.527-.316-.355-.477-.873-.483-1.556v-.576c0-.709.154-1.264.461-1.665.311-.405.743-.607 1.297-.607.556 0 .972.177 1.248.532.275.354.416.907.422 1.657v.51h-2.655v.11c0 .51.096.88.286 1.111.193.232.47.347.831.347.228 0 .429-.042.602-.127.175-.088.34-.226.492-.413l.404.492c-.337.475-.851.712-1.542.712zm-.088-4.263c-.322 0-.561.112-.716.334-.156.22-.244.563-.264 1.028h1.872v-.105c-.021-.451-.103-.773-.246-.967-.141-.193-.356-.29-.646-.29zm3.07-.58l.022.514c.301-.401.687-.602 1.155-.602.841 0 1.267.561 1.279 1.683V14h-.773v-3.124c0-.373-.063-.636-.189-.791-.123-.159-.309-.238-.558-.238a.796.796 0 00-.523.194 1.389 1.389 0 00-.369.505V14h-.778V9.245h.734zm3.364 6.03l-.461-.317c.275-.384.418-.78.43-1.187v-.733h.796v.637c0 .296-.074.592-.22.887a2.058 2.058 0 01-.545.712zm5.709-1.693c-.258.337-.634.506-1.129.506-.431 0-.756-.148-.976-.444-.22-.299-.331-.732-.334-1.3V9.244h.773v3.041c0 .741.223 1.112.668 1.112.472 0 .797-.211.976-.633v-3.52h.778V14h-.738l-.018-.418zm2.389-4.337l.022.514c.301-.401.687-.602 1.155-.602.841 0 1.267.561 1.279 1.683V14h-.773v-3.124c0-.373-.063-.636-.189-.791-.123-.159-.309-.238-.558-.238a.796.796 0 00-.523.194 1.389 1.389 0 00-.369.505V14h-.778V9.245h.734zm3.193 2.162c0-.732.136-1.29.408-1.674.276-.384.67-.576 1.182-.576.454 0 .809.185 1.064.554V7.25h.778V14h-.712l-.04-.51a1.223 1.223 0 01-1.094.598c-.492 0-.879-.19-1.16-.571-.279-.384-.421-.925-.426-1.622v-.488zm.777.444c0 .533.079.926.238 1.178.158.249.416.373.773.373.387 0 .675-.194.866-.584v-2.4c-.199-.38-.486-.57-.861-.57-.358 0-.616.125-.774.377-.158.25-.239.633-.242 1.152v.474zm5.213-.448c0-.692.167-1.238.501-1.64.337-.404.781-.606 1.331-.606.551 0 .994.197 1.328.59.336.392.509.926.518 1.603v.501c0 .689-.167 1.233-.501 1.635-.334.401-.779.602-1.336.602-.551 0-.993-.195-1.327-.585-.331-.39-.502-.917-.514-1.582v-.518zm.778.448c0 .49.095.875.285 1.156.194.278.453.417.778.417.686 0 1.039-.495 1.059-1.485v-.536c0-.487-.096-.87-.29-1.152-.193-.284-.452-.426-.778-.426-.319 0-.575.142-.769.427-.19.28-.285.663-.285 1.146v.453zm7.077 0c0 .741-.133 1.3-.4 1.674-.266.375-.653.563-1.16.563-.504 0-.882-.217-1.134-.65l-.039.562h-.708V7.25h.774v2.518c.255-.407.621-.61 1.098-.61.522 0 .913.184 1.174.553.261.37.392.926.395 1.67v.47zm-.773-.444c0-.562-.079-.962-.237-1.2-.156-.24-.409-.36-.761-.36-.401 0-.7.217-.896.65v2.264c.193.428.495.641.905.641.352 0 .604-.123.756-.369.152-.246.23-.628.233-1.147v-.479zm6.197.976c0-.32-.087-.564-.26-.734-.172-.17-.484-.335-.936-.497-.451-.16-.797-.33-1.037-.505a1.859 1.859 0 01-.536-.607 1.692 1.692 0 01-.176-.782c0-.507.169-.924.506-1.252.34-.328.783-.492 1.331-.492.375 0 .709.085 1.002.255.293.167.519.4.677.698.158.3.237.627.237.985h-.808c0-.396-.096-.702-.286-.919-.19-.217-.464-.325-.822-.325-.325 0-.577.09-.756.272-.178.182-.268.437-.268.765 0 .27.097.495.29.677.194.181.493.344.897.488.63.208 1.079.464 1.349.769.272.304.409.703.409 1.195 0 .519-.169.935-.506 1.248-.337.31-.795.466-1.375.466-.372 0-.717-.08-1.033-.242a1.89 1.89 0 01-.743-.685 1.93 1.93 0 01-.268-1.015h.809c0 .395.11.703.33.922.222.22.524.33.905.33.354 0 .621-.09.8-.272.178-.182.268-.43.268-.743zM531.074 14h-.778V9.245h.778V14zm.062-6.016a.499.499 0 01-.11.33c-.073.087-.185.131-.334.131-.147 0-.256-.044-.33-.132a.498.498 0 01-.109-.33c0-.13.036-.242.109-.333.074-.09.183-.136.33-.136.146 0 .256.047.33.14.076.091.114.201.114.33zm2.595 6.104c-.592 0-1.046-.176-1.362-.527-.317-.355-.478-.873-.484-1.556v-.576c0-.709.154-1.264.462-1.665.31-.405.742-.607 1.296-.607.557 0 .973.177 1.248.532.276.354.416.907.422 1.657v.51h-2.654v.11c0 .51.095.88.285 1.111.194.232.471.347.831.347.228 0 .429-.042.602-.127.176-.088.34-.226.492-.413l.404.492c-.336.475-.851.712-1.542.712zm-.088-4.263c-.322 0-.561.112-.716.334-.155.22-.243.563-.264 1.028h1.872v-.105c-.02-.451-.102-.773-.246-.967-.141-.193-.356-.29-.646-.29zm5.832 4.263c-.592 0-1.046-.176-1.362-.527-.316-.355-.478-.873-.483-1.556v-.576c0-.709.153-1.264.461-1.665.31-.405.743-.607 1.296-.607.557 0 .973.177 1.248.532.276.354.416.907.422 1.657v.51h-2.654v.11c0 .51.095.88.286 1.111.193.232.47.347.83.347.229 0 .429-.042.602-.127.176-.088.34-.226.492-.413l.405.492c-.337.475-.851.712-1.543.712zm-.088-4.263c-.322 0-.561.112-.716.334-.155.22-.243.563-.264 1.028h1.872v-.105c-.02-.451-.102-.773-.246-.967-.14-.193-.356-.29-.646-.29zm4.648 2.958a.574.574 0 00-.189-.43c-.126-.121-.369-.262-.73-.423-.419-.173-.715-.32-.887-.444a1.28 1.28 0 01-.383-.417 1.172 1.172 0 01-.127-.563c0-.386.14-.707.422-.962.284-.258.646-.387 1.085-.387.463 0 .835.135 1.116.405.282.269.422.615.422 1.037h-.773a.76.76 0 00-.215-.545.723.723 0 00-.55-.229c-.228 0-.408.06-.54.18a.61.61 0 00-.194.475c0 .158.047.286.141.382.097.097.327.224.69.383.577.225.97.446 1.178.663.208.214.312.487.312.818 0 .413-.142.744-.427.993-.284.246-.665.369-1.142.369-.495 0-.897-.142-1.204-.426a1.407 1.407 0 01-.462-1.081h.782c.009.263.09.47.242.62.153.149.366.223.642.223.258 0 .454-.057.589-.171a.594.594 0 00.202-.47zm5.63 0a.574.574 0 00-.189-.43c-.126-.121-.369-.262-.73-.423-.419-.173-.715-.32-.887-.444a1.28 1.28 0 01-.383-.417 1.172 1.172 0 01-.127-.563c0-.386.14-.707.422-.962.284-.258.646-.387 1.085-.387.463 0 .835.135 1.116.405.282.269.422.615.422 1.037h-.773a.756.756 0 00-.216-.545.72.72 0 00-.549-.229c-.228 0-.409.06-.54.18a.61.61 0 00-.194.475c0 .158.047.286.141.382.096.097.326.224.69.383.577.225.969.446 1.177.663.209.214.313.487.313.818 0 .413-.143.744-.427.993-.284.246-.665.369-1.142.369-.495 0-.897-.142-1.204-.426a1.407 1.407 0 01-.462-1.081h.782c.009.263.09.47.242.62.152.149.366.223.642.223.257 0 .454-.057.589-.171a.594.594 0 00.202-.47zM552.027 14h-.778V9.245h.778V14zm.062-6.016a.499.499 0 01-.11.33c-.074.087-.185.131-.334.131-.147 0-.257-.044-.33-.132a.499.499 0 01-.11-.33c0-.13.037-.242.11-.333.073-.09.183-.136.33-.136.146 0 .256.047.329.14.076.091.115.201.115.33zm2.546 5.44c.258 0 .465-.079.62-.237.155-.161.24-.39.255-.685h.734c-.018.457-.18.836-.488 1.138a1.54 1.54 0 01-1.121.448c-.588 0-1.038-.185-1.349-.554-.307-.372-.461-.924-.461-1.657v-.523c0-.717.154-1.262.461-1.634.308-.375.756-.563 1.345-.563.486 0 .872.154 1.156.462.287.307.439.728.457 1.26h-.734c-.018-.35-.103-.614-.255-.79-.149-.176-.357-.264-.624-.264-.346 0-.602.114-.769.343-.167.226-.253.598-.259 1.116v.607c0 .56.082.955.246 1.186.167.232.429.347.786.347zm3.013-3.691c.296-.384.674-.576 1.134-.576.841 0 1.267.561 1.279 1.683V14h-.774v-3.124c0-.373-.063-.636-.189-.791-.123-.159-.309-.238-.558-.238a.8.8 0 00-.523.194 1.412 1.412 0 00-.369.505V14h-.778V7.25h.778v2.483zM563.586 14h-.778V7.25h.778V14zm2.656.088c-.591 0-1.045-.176-1.362-.527-.316-.355-.477-.873-.483-1.556v-.576c0-.709.154-1.264.461-1.665.311-.405.743-.607 1.297-.607.556 0 .972.177 1.248.532.275.354.416.907.421 1.657v.51h-2.654v.11c0 .51.095.88.286 1.111.193.232.47.347.83.347.229 0 .43-.042.602-.127.176-.088.34-.226.493-.413l.404.492c-.337.475-.851.712-1.543.712zm-.087-4.263c-.323 0-.561.112-.717.334-.155.22-.243.563-.263 1.028h1.872v-.105c-.021-.451-.103-.773-.246-.967-.141-.193-.356-.29-.646-.29zM569.33 14h-.778V9.245h.778V14zm.061-6.016a.498.498 0 01-.109.33c-.074.087-.185.131-.334.131-.147 0-.257-.044-.33-.132a.499.499 0 01-.11-.33c0-.13.037-.242.11-.333.073-.09.183-.136.33-.136.146 0 .256.047.329.14.076.091.114.201.114.33zm3.206 4.799a.577.577 0 00-.188-.43c-.126-.121-.37-.262-.73-.423-.419-.173-.715-.32-.888-.444a1.276 1.276 0 01-.382-.417 1.172 1.172 0 01-.127-.563c0-.386.14-.707.421-.962.285-.258.646-.387 1.086-.387.463 0 .835.135 1.116.405.281.269.422.615.422 1.037h-.773a.756.756 0 00-.216-.545.72.72 0 00-.549-.229c-.229 0-.409.06-.541.18a.61.61 0 00-.193.475c0 .158.047.286.141.382.096.097.326.224.69.383.577.225.969.446 1.177.663.208.214.312.487.312.818 0 .413-.142.744-.426.993-.284.246-.665.369-1.143.369-.495 0-.896-.142-1.204-.426a1.41 1.41 0 01-.461-1.081h.782c.009.263.09.47.242.62.152.149.366.223.641.223.258 0 .455-.057.589-.171a.591.591 0 00.202-.47zm2.543-4.69v1.152h.716v.629h-.716v2.948c0 .188.031.33.092.427.062.096.167.145.317.145a.986.986 0 00.312-.053l-.009.659a1.7 1.7 0 01-.541.088c-.307 0-.542-.11-.703-.33-.161-.22-.241-.53-.241-.931V9.874h-.726v-.629h.726V8.094h.773zm3.074 5.995c-.592 0-1.046-.176-1.362-.527-.316-.355-.478-.873-.483-1.556v-.576c0-.709.153-1.264.461-1.665.311-.405.743-.607 1.296-.607.557 0 .973.177 1.248.532.276.354.416.907.422 1.657v.51h-2.654v.11c0 .51.095.88.286 1.111.193.232.47.347.83.347.229 0 .429-.042.602-.127.176-.088.34-.226.492-.413l.405.492c-.337.475-.851.712-1.543.712zm-.088-4.263c-.322 0-.561.112-.716.334-.155.22-.243.563-.264 1.028h1.872v-.105c-.02-.451-.102-.773-.246-.967-.14-.193-.356-.29-.646-.29zm3.07-.58l.022.514c.302-.401.687-.602 1.156-.602.841 0 1.267.561 1.279 1.683V14h-.774v-3.124c0-.373-.063-.636-.189-.791-.123-.159-.309-.238-.558-.238a.8.8 0 00-.523.194 1.412 1.412 0 00-.369.505V14h-.778V9.245h.734zm6.346 2.58l-.413.474V14h-.777V7.25h.777v4.039l1.481-2.044h.932l-1.512 1.986L589.74 14h-.906l-1.292-2.175zm2.433-.422c0-.692.167-1.238.501-1.64.337-.404.781-.606 1.332-.606.55 0 .993.197 1.327.59.337.392.509.926.518 1.603v.501c0 .689-.167 1.233-.501 1.635-.334.401-.779.602-1.336.602-.55 0-.993-.195-1.327-.585-.331-.39-.502-.917-.514-1.582v-.518zm.778.448c0 .49.095.875.286 1.156a.9.9 0 00.777.417c.686 0 1.039-.495 1.059-1.485v-.536c0-.487-.096-.87-.29-1.152-.193-.284-.452-.426-.777-.426-.32 0-.576.142-.769.427-.191.28-.286.663-.286 1.146v.453zm-.396-3.876c0-.132.04-.242.119-.33.082-.09.202-.136.36-.136.159 0 .279.046.361.137a.464.464 0 01.123.33.464.464 0 01-.123.329c-.082.088-.202.132-.361.132-.158 0-.278-.044-.36-.132a.475.475 0 01-.119-.33zm1.89.009c0-.132.04-.243.119-.334.082-.09.202-.136.36-.136.158 0 .278.045.36.136a.48.48 0 01.123.334.464.464 0 01-.123.33c-.082.087-.202.131-.36.131-.158 0-.278-.044-.36-.132a.475.475 0 01-.119-.33zm2.872 1.261l.022.514c.302-.401.687-.602 1.156-.602.841 0 1.267.561 1.279 1.683V14h-.774v-3.124c0-.373-.063-.636-.189-.791-.123-.159-.309-.238-.558-.238a.798.798 0 00-.523.194 1.412 1.412 0 00-.369.505V14h-.778V9.245h.734zm4.089 0l.022.514c.302-.401.687-.602 1.156-.602.841 0 1.267.561 1.279 1.683V14h-.773v-3.124c0-.373-.063-.636-.189-.791-.123-.159-.309-.238-.558-.238a.796.796 0 00-.523.194 1.402 1.402 0 00-.37.505V14h-.777V9.245h.733zm5.057 4.843c-.592 0-1.046-.176-1.363-.527-.316-.355-.477-.873-.483-1.556v-.576c0-.709.154-1.264.461-1.665.311-.405.743-.607 1.297-.607.556 0 .972.177 1.248.532.275.354.416.907.422 1.657v.51h-2.655v.11c0 .51.096.88.286 1.111.193.232.47.347.831.347.228 0 .429-.042.602-.127.175-.088.339-.226.492-.413l.404.492c-.337.475-.851.712-1.542.712zm-.088-4.263c-.323 0-.561.112-.717.334-.155.22-.243.563-.263 1.028h1.872v-.105c-.021-.451-.103-.773-.246-.967-.141-.193-.356-.29-.646-.29zm3.07-.58l.022.514c.301-.401.687-.602 1.155-.602.841 0 1.267.561 1.279 1.683V14h-.773v-3.124c0-.373-.063-.636-.189-.791-.123-.159-.309-.238-.558-.238a.796.796 0 00-.523.194 1.389 1.389 0 00-.369.505V14h-.778V9.245h.734zm3.364 6.03l-.462-.317c.276-.384.419-.78.431-1.187v-.733h.796v.637c0 .296-.074.592-.22.887a2.058 2.058 0 01-.545.712zm3.121-3.868c0-.732.136-1.29.408-1.674.276-.384.67-.576 1.182-.576.454 0 .809.185 1.064.554V7.25h.778V14h-.712l-.04-.51a1.223 1.223 0 01-1.094.598c-.492 0-.879-.19-1.16-.571-.279-.384-.421-.925-.426-1.622v-.488zm.777.444c0 .533.079.926.238 1.178.158.249.416.373.773.373.387 0 .675-.194.866-.584v-2.4c-.199-.38-.487-.57-.862-.57-.357 0-.615.125-.773.377-.158.25-.239.633-.242 1.152v.474zM620.537 14c-.047-.102-.081-.275-.101-.519-.276.405-.627.607-1.055.607-.431 0-.768-.12-1.011-.36-.24-.244-.36-.585-.36-1.024 0-.484.164-.868.492-1.152.328-.284.778-.429 1.349-.435h.571v-.505c0-.284-.063-.486-.188-.607-.126-.12-.318-.18-.576-.18a.788.788 0 00-.571.211.69.69 0 00-.22.527h-.778c0-.243.072-.474.215-.694.144-.223.337-.397.58-.523.244-.126.515-.189.813-.189.487 0 .856.122 1.108.365.255.24.385.592.391 1.055v2.4c.003.365.053.683.149.953V14h-.808zm-1.037-.62c.19 0 .372-.052.545-.158a.978.978 0 00.377-.395v-1.134h-.439c-.369.006-.661.09-.874.25-.214.159-.321.381-.321.668 0 .27.054.466.162.59.109.12.292.18.55.18zm4.946-.597a.574.574 0 00-.189-.43c-.126-.121-.369-.262-.73-.423-.418-.173-.714-.32-.887-.444a1.28 1.28 0 01-.383-.417 1.172 1.172 0 01-.127-.563c0-.386.141-.707.422-.962.284-.258.646-.387 1.085-.387.463 0 .835.135 1.117.405.281.269.421.615.421 1.037h-.773a.76.76 0 00-.215-.545.723.723 0 00-.55-.229c-.228 0-.408.06-.54.18a.61.61 0 00-.194.475c0 .158.047.286.141.382.097.097.327.224.69.383.577.225.97.446 1.178.663.208.214.312.487.312.818 0 .413-.142.744-.427.993-.284.246-.665.369-1.142.369-.495 0-.897-.142-1.204-.426a1.407 1.407 0 01-.462-1.081h.783c.008.263.089.47.241.62.153.149.367.223.642.223.258 0 .454-.057.589-.171a.591.591 0 00.202-.47zm4.096-3.05c.296-.384.674-.576 1.134-.576.841 0 1.267.561 1.279 1.683V14h-.774v-3.124c0-.373-.063-.636-.189-.791-.123-.159-.309-.238-.558-.238a.8.8 0 00-.523.194 1.412 1.412 0 00-.369.505V14h-.778V7.25h.778v2.483zm3.14 1.67c0-.692.167-1.238.501-1.64.337-.404.781-.606 1.332-.606s.993.197 1.327.59c.337.392.51.926.519 1.603v.501c0 .689-.167 1.233-.501 1.635-.334.401-.78.602-1.336.602-.551 0-.994-.195-1.328-.585-.331-.39-.502-.917-.514-1.582v-.518zm.778.448c0 .49.095.875.286 1.156a.9.9 0 00.778.417c.685 0 1.038-.495 1.059-1.485v-.536c0-.487-.097-.87-.29-1.152-.194-.284-.453-.426-.778-.426-.32 0-.576.142-.769.427-.191.28-.286.663-.286 1.146v.453zm4.41-2.118c.296-.384.674-.576 1.134-.576.841 0 1.267.561 1.279 1.683V14h-.774v-3.124c0-.373-.063-.636-.189-.791-.123-.159-.309-.238-.558-.238a.8.8 0 00-.523.194 1.412 1.412 0 00-.369.505V14h-.778V7.25h.778v2.483zm5.004 4.355c-.592 0-1.046-.176-1.363-.527-.316-.355-.477-.873-.483-1.556v-.576c0-.709.154-1.264.461-1.665.311-.405.743-.607 1.297-.607.556 0 .972.177 1.248.532.275.354.416.907.422 1.657v.51h-2.655v.11c0 .51.096.88.286 1.111.193.232.47.347.831.347.228 0 .429-.042.602-.127.175-.088.34-.226.492-.413l.404.492c-.337.475-.851.712-1.542.712zm-.088-4.263c-.322 0-.561.112-.716.334-.156.22-.244.563-.264 1.028h1.872v-.105c-.021-.451-.103-.773-.246-.967-.141-.193-.356-.29-.646-.29zm6.175 1.587h-1.125V14h-.809V7.602h1.793c.627 0 1.102.164 1.424.492.322.325.483.802.483 1.432a2 2 0 01-.263 1.037 1.643 1.643 0 01-.739.664l1.24 2.72V14h-.866l-1.138-2.588zm-1.125-.69h.975c.337 0 .605-.109.804-.325.203-.217.304-.507.304-.87 0-.82-.372-1.231-1.117-1.231h-.966v2.426zM651.268 14h-.778V9.245h.778V14zm.061-6.016a.494.494 0 01-.11.33c-.073.087-.184.131-.334.131-.146 0-.256-.044-.329-.132a.499.499 0 01-.11-.33c0-.13.037-.242.11-.333.073-.09.183-.136.329-.136.147 0 .257.047.33.14.076.091.114.201.114.33zm3.206 4.799a.574.574 0 00-.189-.43c-.125-.121-.369-.262-.729-.423-.419-.173-.715-.32-.888-.444a1.276 1.276 0 01-.382-.417 1.172 1.172 0 01-.127-.563c0-.386.14-.707.421-.962.285-.258.646-.387 1.086-.387.463 0 .835.135 1.116.405.281.269.422.615.422 1.037h-.773a.756.756 0 00-.216-.545.72.72 0 00-.549-.229c-.229 0-.409.06-.541.18a.61.61 0 00-.193.475c0 .158.047.286.141.382.096.097.326.224.69.383.577.225.969.446 1.177.663.208.214.312.487.312.818 0 .413-.142.744-.426.993-.284.246-.665.369-1.143.369-.495 0-.896-.142-1.204-.426a1.41 1.41 0 01-.461-1.081h.782c.009.263.09.47.242.62.152.149.366.223.641.223.258 0 .455-.057.589-.171a.591.591 0 00.202-.47zM656.898 14h-.778V9.245h.778V14zm.061-6.016a.494.494 0 01-.11.33c-.073.087-.184.131-.334.131-.146 0-.256-.044-.329-.132a.499.499 0 01-.11-.33c0-.13.037-.242.11-.333.073-.09.183-.136.329-.136.147 0 .257.047.33.14.076.091.114.201.114.33zm2.09 3.84l-.413.475V14h-.778V7.25h.778v4.039l1.481-2.044h.932l-1.512 1.986L661.246 14h-.905l-1.292-2.175zm2.433-.421c0-.692.167-1.238.501-1.64.337-.404.781-.606 1.331-.606.551 0 .993.197 1.327.59.337.392.51.926.519 1.603v.501c0 .689-.167 1.233-.501 1.635-.334.401-.779.602-1.336.602-.551 0-.993-.195-1.327-.585-.331-.39-.502-.917-.514-1.582v-.518zm.778.448c0 .49.095.875.285 1.156.194.278.453.417.778.417.686 0 1.039-.495 1.059-1.485v-.536c0-.487-.096-.87-.29-1.152-.193-.284-.452-.426-.778-.426-.319 0-.575.142-.769.427-.19.28-.285.663-.285 1.146v.453zm7.128 2.237c-.592 0-1.046-.176-1.362-.527-.317-.355-.478-.873-.484-1.556v-.576c0-.709.154-1.264.462-1.665.31-.405.742-.607 1.296-.607.557 0 .973.177 1.248.532.276.354.416.907.422 1.657v.51h-2.654v.11c0 .51.095.88.285 1.111.194.232.471.347.831.347.229 0 .429-.042.602-.127.176-.088.34-.226.492-.413l.405.492c-.337.475-.852.712-1.543.712zm-.088-4.263c-.322 0-.561.112-.716.334-.155.22-.243.563-.264 1.028h1.872v-.105c-.02-.451-.102-.773-.246-.967-.14-.193-.356-.29-.646-.29zM672.476 14h-.778V9.245h.778V14zm.061-6.016a.499.499 0 01-.11.33c-.073.087-.184.131-.334.131-.146 0-.256-.044-.329-.132a.494.494 0 01-.11-.33.51.51 0 01.11-.333c.073-.09.183-.136.329-.136.147 0 .257.047.33.14.076.091.114.201.114.33zm1.628 1.261l.022.514c.302-.401.687-.602 1.156-.602.841 0 1.267.561 1.279 1.683V14h-.773v-3.124c0-.373-.063-.636-.189-.791-.123-.159-.309-.238-.558-.238a.796.796 0 00-.523.194 1.402 1.402 0 00-.37.505V14h-.777V9.245h.733zm4.077 4.091h2.294V14h-3.182v-.598l2.18-3.485h-2.162v-.672h3.076v.576l-2.206 3.515zm5.39.246c-.258.337-.634.506-1.13.506-.43 0-.755-.148-.975-.444-.22-.299-.331-.732-.334-1.3V9.244h.773v3.041c0 .741.223 1.112.668 1.112.472 0 .797-.211.976-.633v-3.52h.778V14h-.739l-.017-.418zm1.501-2.175c0-.741.135-1.3.404-1.678.27-.381.664-.572 1.182-.572.484 0 .851.207 1.103.62l.04-.532h.703v4.799c0 .589-.151 1.04-.453 1.354-.301.316-.722.474-1.261.474a2.16 2.16 0 01-.791-.176c-.29-.114-.508-.256-.655-.426l.317-.536c.322.316.678.475 1.068.475.647 0 .98-.354.997-1.06v-.62c-.252.373-.609.559-1.072.559-.492 0-.876-.185-1.152-.554-.275-.372-.418-.905-.43-1.6v-.527zm.778.444c0 .533.077.926.233 1.178.158.249.416.373.773.373.387 0 .677-.197.87-.593v-2.377c-.202-.39-.489-.585-.861-.585-.358 0-.615.126-.774.378-.158.25-.238.633-.241 1.152v.474zm5.245 2.237c-.592 0-1.046-.176-1.363-.527-.316-.355-.477-.873-.483-1.556v-.576c0-.709.154-1.264.461-1.665.311-.405.743-.607 1.297-.607.557 0 .973.177 1.248.532.275.354.416.907.422 1.657v.51h-2.655v.11c0 .51.096.88.286 1.111.193.232.47.347.831.347.228 0 .429-.042.602-.127.176-.088.34-.226.492-.413l.404.492c-.337.475-.851.712-1.542.712zm-.088-4.263c-.322 0-.561.112-.716.334-.156.22-.244.563-.264 1.028h1.872v-.105c-.021-.451-.103-.773-.246-.967-.141-.193-.356-.29-.646-.29zm3.114-.092c.296-.384.674-.576 1.133-.576.841 0 1.268.561 1.279 1.683V14h-.773v-3.124c0-.373-.063-.636-.189-.791-.123-.159-.309-.238-.558-.238a.796.796 0 00-.523.194 1.389 1.389 0 00-.369.505V14h-.778V7.25h.778v2.483zm5.003 4.355c-.592 0-1.046-.176-1.362-.527-.317-.355-.478-.873-.484-1.556v-.576c0-.709.154-1.264.462-1.665.31-.405.743-.607 1.296-.607.557 0 .973.177 1.248.532.276.354.416.907.422 1.657v.51h-2.654v.11c0 .51.095.88.285 1.111.194.232.471.347.831.347.229 0 .429-.042.602-.127.176-.088.34-.226.492-.413l.405.492c-.337.475-.851.712-1.543.712zm-.088-4.263c-.322 0-.561.112-.716.334-.155.22-.243.563-.264 1.028h1.872v-.105c-.02-.451-.102-.773-.246-.967-.14-.193-.356-.29-.646-.29zm3.07-.58l.022.514c.302-.401.687-.602 1.156-.602.841 0 1.267.561 1.279 1.683V14h-.774v-3.124c0-.373-.063-.636-.189-.791-.123-.159-.309-.238-.558-.238a.798.798 0 00-.523.194 1.412 1.412 0 00-.369.505V14h-.778V9.245h.734zm3.364 6.03l-.461-.317c.275-.384.419-.78.431-1.187v-.733h.795v.637c0 .296-.073.592-.22.887a2.046 2.046 0 01-.545.712zM709.764 14h-.804V7.602h.804V14zm1.808-4.267c.296-.384.674-.576 1.134-.576.841 0 1.267.561 1.279 1.683V14h-.773v-3.124c0-.373-.063-.636-.189-.791-.123-.159-.309-.238-.559-.238a.796.796 0 00-.522.194 1.402 1.402 0 00-.37.505V14h-.777V7.25h.777v2.483zm5.268.242a1.901 1.901 0 00-.352-.031c-.398 0-.677.218-.835.655V14h-.778V9.245h.756l.013.484c.208-.381.503-.572.884-.572.123 0 .225.02.307.062l.005.756zm6.416 3.23l-.141.175c-.404.472-.996.708-1.775.708-.691 0-1.235-.229-1.63-.686-.393-.46-.594-1.108-.602-1.946v-1.257c0-.897.178-1.568.536-2.013.36-.448.898-.672 1.613-.672.609 0 1.085.17 1.428.51.345.34.536.824.571 1.454h-.804c-.032-.398-.144-.709-.334-.932-.188-.225-.473-.338-.857-.338-.46 0-.797.15-1.011.453-.214.298-.325.777-.334 1.437v1.305c0 .644.123 1.14.369 1.485.246.343.599.514 1.059.514.434 0 .764-.105.989-.316l.119-.11V11.5h-1.169v-.685h1.973v2.39zm2.635.883c-.592 0-1.046-.176-1.362-.527-.317-.355-.478-.873-.484-1.556v-.576c0-.709.154-1.264.462-1.665.31-.405.742-.607 1.296-.607.557 0 .973.177 1.248.532.275.354.416.907.422 1.657v.51h-2.654v.11c0 .51.095.88.285 1.111.194.232.47.347.831.347.228 0 .429-.042.602-.127.176-.088.34-.226.492-.413l.404.492c-.337.475-.851.712-1.542.712zm-.088-4.263c-.322 0-.561.112-.716.334-.156.22-.243.563-.264 1.028h1.872v-.105c-.02-.451-.102-.773-.246-.967-.141-.193-.356-.29-.646-.29zM728.978 14h-.778V7.25h.778V14zm.794-2.593c0-.732.136-1.29.408-1.674.276-.384.67-.576 1.183-.576.454 0 .808.185 1.063.554V7.25h.778V14h-.712l-.04-.51a1.222 1.222 0 01-1.094.598c-.492 0-.879-.19-1.16-.571-.278-.384-.42-.925-.426-1.622v-.488zm.778.444c0 .533.079.926.237 1.178.158.249.416.373.773.373.387 0 .676-.194.866-.584v-2.4c-.199-.38-.486-.57-.861-.57-.358 0-.616.125-.774.377-.158.25-.239.633-.241 1.152v.474zm6.095 1.485h2.294V14h-3.181v-.598l2.179-3.485h-2.162v-.672h3.076v.576l-2.206 3.515zm5.39.246c-.257.337-.634.506-1.129.506-.431 0-.756-.148-.976-.444-.219-.299-.331-.732-.334-1.3V9.244h.774v3.041c0 .741.223 1.112.668 1.112.472 0 .797-.211.975-.633v-3.52h.778V14h-.738l-.018-.418zm4.8-.764l.901-3.573h.791L747.116 14h-.58l-1.428-4.755h.791l.936 3.573zm3.931 1.27c-.592 0-1.046-.176-1.362-.527-.317-.355-.478-.873-.484-1.556v-.576c0-.709.154-1.264.462-1.665.31-.405.742-.607 1.296-.607.557 0 .973.177 1.248.532.276.354.416.907.422 1.657v.51h-2.654v.11c0 .51.095.88.285 1.111.194.232.471.347.831.347.228 0 .429-.042.602-.127.176-.088.34-.226.492-.413l.404.492c-.336.475-.851.712-1.542.712zm-.088-4.263c-.322 0-.561.112-.716.334-.155.22-.243.563-.264 1.028h1.872v-.105c-.02-.451-.102-.773-.246-.967-.141-.193-.356-.29-.646-.29zm4.3.15a1.883 1.883 0 00-.351-.031c-.399 0-.677.218-.835.655V14h-.778V9.245h.756l.013.484c.208-.381.503-.572.883-.572.123 0 .226.02.308.062l.004.756zM756.326 14h-.778V7.25h.778V14zm1.795 0h-.778V9.245h.778V14zm.062-6.016a.499.499 0 01-.11.33c-.074.087-.185.131-.334.131-.147 0-.257-.044-.33-.132a.499.499 0 01-.11-.33c0-.13.037-.242.11-.333.073-.09.183-.136.33-.136.146 0 .256.047.329.14.076.091.115.201.115.33zm2.595 6.104c-.592 0-1.046-.176-1.362-.527-.317-.355-.478-.873-.484-1.556v-.576c0-.709.154-1.264.462-1.665.31-.405.742-.607 1.296-.607.557 0 .973.177 1.248.532.275.354.416.907.422 1.657v.51h-2.654v.11c0 .51.095.88.285 1.111.194.232.47.347.831.347.228 0 .429-.042.602-.127.176-.088.34-.226.492-.413l.404.492c-.337.475-.851.712-1.542.712zm-.088-4.263c-.322 0-.561.112-.716.334-.156.22-.244.563-.264 1.028h1.872v-.105c-.02-.451-.103-.773-.246-.967-.141-.193-.356-.29-.646-.29zm4.3.15a1.883 1.883 0 00-.351-.031c-.399 0-.677.218-.835.655V14h-.778V9.245h.756l.013.484c.208-.381.502-.572.883-.572.123 0 .226.02.308.062l.004.756zm2.209 4.113c-.592 0-1.046-.176-1.363-.527-.316-.355-.477-.873-.483-1.556v-.576c0-.709.154-1.264.461-1.665.311-.405.743-.607 1.297-.607.556 0 .972.177 1.248.532.275.354.416.907.422 1.657v.51h-2.655v.11c0 .51.096.88.286 1.111.193.232.47.347.831.347.228 0 .429-.042.602-.127.176-.088.34-.226.492-.413l.404.492c-.337.475-.851.712-1.542.712zm-.088-4.263c-.322 0-.561.112-.716.334-.156.22-.244.563-.264 1.028h1.872v-.105c-.021-.451-.103-.773-.246-.967-.141-.193-.356-.29-.646-.29zm3.07-.58l.022.514c.301-.401.687-.602 1.155-.602.841 0 1.268.561 1.279 1.683V14h-.773v-3.124c0-.373-.063-.636-.189-.791-.123-.159-.309-.238-.558-.238a.796.796 0 00-.523.194 1.389 1.389 0 00-.369.505V14h-.778V9.245h.734zm3.408 4.329c0-.14.041-.258.123-.352.085-.094.211-.14.378-.14s.293.046.378.14c.088.094.132.211.132.352a.467.467 0 01-.132.338c-.085.09-.211.136-.378.136s-.293-.045-.378-.136a.486.486 0 01-.123-.338z" fill="#000"/></svg>