<svg width="393" height="63" viewBox="0 0 393 63" fill="none" xmlns="http://www.w3.org/2000/svg"><path d="M12.416 25h2.964V6.93h-2.964v7.748H3.914V6.93H.95V25h2.964v-7.904h8.502V25zm5.878-7.228c0 4.42 2.99 7.462 6.708 7.462 2.392 0 4.108-1.144 5.018-2.366V25h2.99V10.674h-2.99v2.08c-.884-1.17-2.548-2.314-4.966-2.314-3.77 0-6.76 2.912-6.76 7.332zm11.726.052c0 3.094-2.106 4.836-4.342 4.836-2.21 0-4.342-1.794-4.342-4.888s2.132-4.758 4.342-4.758c2.236 0 4.342 1.742 4.342 4.81zM47.07 25h2.937v-8.45c0-4.004-2.522-6.11-5.876-6.11-1.716 0-3.302.702-4.264 1.872v-1.638h-2.964V25h2.964v-8.008c0-2.626 1.43-3.978 3.614-3.978 2.158 0 3.588 1.352 3.588 3.978V25zm5.73-7.228c0 4.42 2.99 7.462 6.76 7.462 2.34 0 4.056-1.092 4.966-2.392V25h2.99V5.76h-2.99v6.916c-1.092-1.352-3.068-2.236-4.94-2.236-3.796 0-6.786 2.912-6.786 7.332zm11.726.052c0 3.094-2.106 4.836-4.342 4.836-2.21 0-4.342-1.794-4.342-4.888s2.132-4.758 4.342-4.758c2.236 0 4.342 1.742 4.342 4.81zm12.915-4.888c2.21 0 3.952 1.404 4.004 3.614h-7.93c.312-2.262 1.924-3.614 3.926-3.614zm6.708 7.8h-3.198c-.546 1.118-1.56 2.002-3.38 2.002-2.184 0-3.874-1.43-4.082-3.796h10.946c.078-.494.104-.962.104-1.456 0-4.212-2.886-7.046-6.968-7.046-4.238 0-7.15 2.886-7.15 7.384s3.042 7.41 7.15 7.41c3.51 0 5.772-2.002 6.578-4.498zM87.456 25h2.964V5.76h-2.964V25zm23.593-18.096h-9.984V25h9.984v-2.418h-7.02v-5.538h6.24v-2.418h-6.24V9.322h7.02V6.904zm3.625 11.492c0 4.602 3.224 6.786 7.02 6.786 3.77 0 7.098-2.184 7.098-6.786V6.93h-2.964v11.518c0 2.808-1.586 4.134-4.108 4.134-2.496 0-4.082-1.326-4.082-4.134V6.93h-2.964v11.466zm27.571-6.058c0 1.794-1.04 3.068-3.354 3.068h-3.276V9.348h3.276c2.314 0 3.354 1.17 3.354 2.99zm-9.594-5.408V25h2.964v-7.228h2.262l4.16 7.228h3.536l-4.472-7.488c3.042-.754 4.186-3.042 4.186-5.174 0-2.938-2.106-5.408-6.396-5.408h-6.24zm16.064 22.62h2.912L158.699.456h-2.938l-7.046 29.094zm13.693-11.154c0 4.602 3.224 6.786 7.02 6.786 3.77 0 7.098-2.184 7.098-6.786V6.93h-2.964v11.518c0 2.808-1.586 4.134-4.108 4.134-2.496 0-4.082-1.326-4.082-4.134V6.93h-2.964v11.466zm30.172 1.482c0-6.604-9.568-4.056-9.568-8.138 0-1.742 1.326-2.574 3.042-2.522 1.872.052 2.938 1.17 3.042 2.392h3.276c-.26-3.094-2.704-4.914-6.162-4.914-3.692 0-6.214 1.976-6.214 5.148 0 6.656 9.594 3.822 9.594 8.19 0 1.534-1.17 2.652-3.25 2.652-2.054 0-3.094-1.196-3.224-2.678h-3.172c0 3.198 2.782 5.174 6.396 5.174 4.03 0 6.24-2.6 6.24-5.304zm9.399-12.948h-5.902V25h5.902c5.798 0 9.594-3.406 9.594-8.97 0-5.59-3.796-9.1-9.594-9.1zm-2.938 15.652V9.348h2.938c4.264 0 6.552 2.548 6.552 6.682 0 4.108-2.288 6.552-6.552 6.552h-2.938zM241.57 25h2.938v-8.45c0-4.004-2.548-6.11-5.902-6.11-2.08 0-4.108 1.092-4.992 2.834-.988-1.872-2.886-2.834-5.148-2.834-1.716 0-3.276.702-4.238 1.872v-1.638h-2.964V25h2.964v-8.008c0-2.626 1.43-3.978 3.614-3.978 2.158 0 3.588 1.352 3.588 3.978V25h2.938v-8.008c0-2.626 1.43-3.978 3.614-3.978 2.158 0 3.588 1.352 3.588 3.978V25zm6.71 0h2.964V10.674h-2.964V25zm1.508-16.224c1.04 0 1.872-.832 1.872-1.898 0-1.066-.832-1.898-1.872-1.898a1.876 1.876 0 00-1.898 1.898c0 1.066.832 1.898 1.898 1.898zm5.816 12.246c0 2.912 1.586 3.978 4.134 3.978h2.34v-2.47h-1.82c-1.248 0-1.664-.442-1.664-1.508v-7.93h3.484v-2.418h-3.484V7.112h-2.99v3.562h-1.69v2.418h1.69v7.93zM281.729 25h2.938v-8.45c0-4.004-2.522-6.11-5.876-6.11-1.716 0-3.302.702-4.264 1.872v-1.638h-2.964V25h2.964v-8.008c0-2.626 1.43-3.978 3.614-3.978 2.158 0 3.588 1.352 3.588 3.978V25zm6.719 0h2.964V10.674h-2.964V25zm1.508-16.224c1.04 0 1.872-.832 1.872-1.898 0-1.066-.832-1.898-1.872-1.898a1.876 1.876 0 00-1.898 1.898c0 1.066.832 1.898 1.898 1.898zm11.38 4.16c2.21 0 3.952 1.404 4.004 3.614h-7.93c.312-2.262 1.924-3.614 3.926-3.614zm6.708 7.8h-3.198c-.546 1.118-1.56 2.002-3.38 2.002-2.184 0-3.874-1.43-4.082-3.796h10.946c.078-.494.104-.962.104-1.456 0-4.212-2.886-7.046-6.968-7.046-4.238 0-7.15 2.886-7.15 7.384s3.042 7.41 7.15 7.41c3.51 0 5.772-2.002 6.578-4.498zm2.318-2.964c0 4.42 2.99 7.462 6.76 7.462 2.34 0 4.056-1.092 4.966-2.392V25h2.99V5.76h-2.99v6.916c-1.092-1.352-3.068-2.236-4.94-2.236-3.796 0-6.786 2.912-6.786 7.332zm11.726.052c0 3.094-2.106 4.836-4.342 4.836-2.21 0-4.342-1.794-4.342-4.888s2.132-4.758 4.342-4.758c2.236 0 4.342 1.742 4.342 4.81zm9.847-.364c0-3.042 1.352-3.952 3.536-3.952h.754V10.44c-2.028 0-3.458.884-4.29 2.314v-2.08h-2.964V25h2.964v-7.54zM338.95 25h2.964V10.674h-2.964V25zm1.508-16.224c1.04 0 1.872-.832 1.872-1.898 0-1.066-.832-1.898-1.872-1.898a1.876 1.876 0 00-1.898 1.898c0 1.066.832 1.898 1.898 1.898zm4.359 8.996c0 4.42 2.99 7.462 6.76 7.462 2.34 0 4.056-1.17 4.966-2.392v2.392c0 2.86-1.716 4.264-4.004 4.264-2.054 0-3.64-1.014-4.082-2.496h-2.938c.364 3.172 3.198 5.07 7.02 5.07 4.472 0 6.994-2.938 6.994-6.838v-14.56h-2.99v2.08c-.884-1.222-2.626-2.314-4.966-2.314-3.77 0-6.76 2.912-6.76 7.332zm11.726.052c0 3.094-2.106 4.836-4.342 4.836-2.21 0-4.342-1.794-4.342-4.888s2.132-4.758 4.342-4.758c2.236 0 4.342 1.742 4.342 4.81zm12.916-4.888c2.21 0 3.952 1.404 4.004 3.614h-7.93c.312-2.262 1.924-3.614 3.926-3.614zm6.708 7.8h-3.198c-.546 1.118-1.56 2.002-3.38 2.002-2.184 0-3.874-1.43-4.082-3.796h10.946c.078-.494.104-.962.104-1.456 0-4.212-2.886-7.046-6.968-7.046-4.238 0-7.15 2.886-7.15 7.384s3.042 7.41 7.15 7.41c3.51 0 5.772-2.002 6.578-4.498zM389.639 25h2.938v-8.45c0-4.004-2.522-6.11-5.876-6.11-1.716 0-3.302.702-4.264 1.872v-1.638h-2.964V25h2.964v-8.008c0-2.626 1.43-3.978 3.614-3.978 2.158 0 3.588 1.352 3.588 3.978V25zM13.144 50.878c0-6.604-9.568-4.056-9.568-8.138 0-1.742 1.326-2.574 3.042-2.522 1.872.052 2.938 1.17 3.042 2.392h3.276c-.26-3.094-2.704-4.914-6.162-4.914-3.692 0-6.214 1.976-6.214 5.148 0 6.656 9.594 3.822 9.594 8.19 0 1.534-1.17 2.652-3.25 2.652-2.054 0-3.094-1.196-3.224-2.678H.508c0 3.198 2.782 5.174 6.396 5.174 4.03 0 6.24-2.6 6.24-5.304zm6.461-7.098v-2.106h-2.964v21.138h2.964V53.92a6.477 6.477 0 004.992 2.314c3.77 0 6.734-3.042 6.734-7.462s-2.964-7.332-6.734-7.332c-2.34 0-4.082 1.144-4.992 2.34zm8.71 4.992c0 3.094-2.132 4.888-4.368 4.888-2.21 0-4.342-1.742-4.342-4.836 0-3.068 2.132-4.81 4.342-4.81 2.236 0 4.368 1.664 4.368 4.758zm8.912-.312c0-3.042 1.352-3.952 3.536-3.952h.754V41.44c-2.029 0-3.459.884-4.29 2.314v-2.08h-2.964V56h2.964v-7.54zm13.046-4.524c2.21 0 3.952 1.404 4.004 3.614h-7.93c.312-2.262 1.924-3.614 3.926-3.614zm6.708 7.8h-3.198c-.546 1.118-1.56 2.002-3.38 2.002-2.184 0-3.874-1.43-4.082-3.796h10.946c.078-.494.104-.962.104-1.456 0-4.212-2.886-7.046-6.968-7.046-4.238 0-7.15 2.886-7.15 7.384s3.042 7.41 7.15 7.41c3.51 0 5.772-2.002 6.578-4.498zm2.319-2.964c0 4.42 2.99 7.462 6.708 7.462 2.392 0 4.108-1.144 5.018-2.366V56h2.99V41.674h-2.99v2.08c-.884-1.17-2.548-2.314-4.966-2.314-3.77 0-6.76 2.912-6.76 7.332zm11.726.052c0 3.094-2.106 4.836-4.342 4.836-2.21 0-4.342-1.794-4.342-4.888s2.132-4.758 4.342-4.758c2.236 0 4.342 1.742 4.342 4.81zm5.895-.052c0 4.42 2.99 7.462 6.76 7.462 2.34 0 4.056-1.092 4.966-2.392V56h2.99V36.76h-2.99v6.916c-1.092-1.352-3.068-2.236-4.94-2.236-3.796 0-6.786 2.912-6.786 7.332zm11.726.052c0 3.094-2.106 4.836-4.342 4.836-2.21 0-4.342-1.794-4.342-4.888s2.132-4.758 4.342-4.758c2.236 0 4.342 1.742 4.342 4.81zm17.569 3.172c-.156-5.174-8.242-3.562-8.242-6.448 0-.962.832-1.612 2.418-1.612 1.612 0 2.574.858 2.678 2.106h2.964c-.156-2.86-2.288-4.602-5.538-4.602-3.38 0-5.512 1.846-5.512 4.134 0 5.252 8.32 3.64 8.32 6.448 0 .988-.91 1.716-2.626 1.716-1.638 0-2.756-.962-2.86-2.132H94.75c.13 2.6 2.548 4.628 5.98 4.628 3.38 0 5.486-1.82 5.486-4.238zm22.931-10.322h-2.964v7.982c0 2.626-1.43 3.978-3.614 3.978-2.158 0-3.588-1.352-3.588-3.978v-7.982h-2.938v8.424c0 4.004 2.548 6.11 5.902 6.11 1.69 0 3.302-.702 4.238-1.924V56h2.964V41.674zM143.223 56h2.938v-8.45c0-4.004-2.522-6.11-5.876-6.11-1.716 0-3.302.702-4.264 1.872v-1.638h-2.964V56h2.964v-8.008c0-2.626 1.43-3.978 3.614-3.978 2.158 0 3.588 1.352 3.588 3.978V56zm5.731-7.228c0 4.42 2.99 7.462 6.76 7.462 2.34 0 4.056-1.092 4.966-2.392V56h2.99V36.76h-2.99v6.916c-1.092-1.352-3.068-2.236-4.94-2.236-3.796 0-6.786 2.912-6.786 7.332zm11.726.052c0 3.094-2.106 4.836-4.342 4.836-2.21 0-4.342-1.794-4.342-4.888s2.132-4.758 4.342-4.758c2.236 0 4.342 1.742 4.342 4.81zm13.247-2.548c0 5.512 1.456 9.672 6.76 9.672s6.76-4.16 6.76-9.672c0-5.408-1.456-9.568-6.76-9.568s-6.76 4.16-6.76 9.568zm10.608 0c0 3.718-.39 6.968-3.848 6.968-3.458 0-3.848-3.25-3.848-6.968 0-3.536.39-6.864 3.848-6.864 3.458 0 3.848 3.328 3.848 6.864zm5.58-4.654c0 2.6 1.69 4.082 3.952 4.082s3.952-1.482 3.952-4.082c0-2.574-1.69-4.056-3.952-4.056s-3.952 1.482-3.952 4.056zm3.952-2.262c.988 0 1.638.65 1.638 2.262s-.65 2.288-1.638 2.288c-1.014 0-1.638-.676-1.638-2.288 0-1.612.624-2.262 1.638-2.262zM192.689 56h2.912l10.374-18.096h-2.912L192.689 56zm8.008-3.744c0 2.6 1.69 4.082 3.952 4.082 2.236 0 3.926-1.482 3.926-4.082 0-2.6-1.69-4.056-3.926-4.056-2.262 0-3.952 1.456-3.952 4.056zm3.926-2.262c.988 0 1.638.65 1.638 2.262s-.65 2.262-1.638 2.262c-.988 0-1.638-.65-1.638-2.262s.65-2.262 1.638-2.262zM228.328 56h3.874l-7.982-9.022 7.852-9.048h-3.718l-7.02 8.242V37.93h-2.964V56h2.964v-8.086L228.328 56zm20.145-7.176c0-4.498-3.224-7.384-7.306-7.384s-7.306 2.886-7.306 7.384 3.094 7.41 7.176 7.41c4.108 0 7.436-2.912 7.436-7.41zm-11.596 0c0-3.25 2.002-4.81 4.238-4.81 2.21 0 4.316 1.56 4.316 4.81 0 3.25-2.184 4.836-4.394 4.836-2.236 0-4.16-1.586-4.16-4.836zM271.709 56h2.938v-8.45c0-4.004-2.548-6.11-5.902-6.11-2.08 0-4.108 1.092-4.992 2.834-.988-1.872-2.886-2.834-5.148-2.834-1.716 0-3.276.702-4.238 1.872v-1.638h-2.964V56h2.964v-8.008c0-2.626 1.43-3.978 3.614-3.978 2.158 0 3.588 1.352 3.588 3.978V56h2.938v-8.008c0-2.626 1.43-3.978 3.614-3.978 2.158 0 3.588 1.352 3.588 3.978V56zm27.016 0h2.938v-8.45c0-4.004-2.548-6.11-5.902-6.11-2.08 0-4.108 1.092-4.992 2.834-.988-1.872-2.886-2.834-5.148-2.834-1.716 0-3.276.702-4.238 1.872v-1.638h-2.964V56h2.964v-8.008c0-2.626 1.43-3.978 3.614-3.978 2.158 0 3.588 1.352 3.588 3.978V56h2.938v-8.008c0-2.626 1.43-3.978 3.614-3.978 2.158 0 3.588 1.352 3.588 3.978V56zm6.709 0h2.964V41.674h-2.964V56zm1.508-16.224c1.04 0 1.872-.832 1.872-1.898 0-1.066-.832-1.898-1.872-1.898a1.876 1.876 0 00-1.898 1.898c0 1.066.832 1.898 1.898 1.898zm16.034 12.22c-.156-5.174-8.242-3.562-8.242-6.448 0-.962.832-1.612 2.418-1.612 1.612 0 2.574.858 2.678 2.106h2.964c-.156-2.86-2.288-4.602-5.538-4.602-3.38 0-5.512 1.846-5.512 4.134 0 5.252 8.32 3.64 8.32 6.448 0 .988-.91 1.716-2.626 1.716-1.638 0-2.756-.962-2.86-2.132h-3.068c.13 2.6 2.548 4.628 5.98 4.628 3.38 0 5.486-1.82 5.486-4.238zm13.889 0c-.156-5.174-8.242-3.562-8.242-6.448 0-.962.832-1.612 2.418-1.612 1.612 0 2.574.858 2.678 2.106h2.964c-.156-2.86-2.288-4.602-5.538-4.602-3.38 0-5.512 1.846-5.512 4.134 0 5.252 8.32 3.64 8.32 6.448 0 .988-.91 1.716-2.626 1.716-1.638 0-2.756-.962-2.86-2.132h-3.068c.13 2.6 2.548 4.628 5.98 4.628 3.38 0 5.486-1.82 5.486-4.238zM340.067 56h2.964V41.674h-2.964V56zm1.508-16.224c1.04 0 1.872-.832 1.872-1.898 0-1.066-.832-1.898-1.872-1.898a1.876 1.876 0 00-1.898 1.898c0 1.066.832 1.898 1.898 1.898zm18.998 9.048c0-4.498-3.224-7.384-7.306-7.384s-7.306 2.886-7.306 7.384 3.094 7.41 7.176 7.41c4.108 0 7.436-2.912 7.436-7.41zm-11.596 0c0-3.25 2.002-4.81 4.238-4.81 2.21 0 4.316 1.56 4.316 4.81 0 3.25-2.184 4.836-4.394 4.836-2.236 0-4.16-1.586-4.16-4.836zM373.669 56h2.938v-8.45c0-4.004-2.522-6.11-5.876-6.11-1.716 0-3.302.702-4.264 1.872v-1.638h-2.964V56h2.964v-8.008c0-2.626 1.43-3.978 3.614-3.978 2.158 0 3.588 1.352 3.588 3.978V56z" fill="#fff"/></svg>