<svg width="264" height="41" viewBox="0 0 264 41" fill="none" xmlns="http://www.w3.org/2000/svg"><path d="M6.426 3.256H1.05V13h5.376v-1.302h-3.78V8.716h3.36V7.414h-3.36V4.558h3.78V3.256zM8.392 13h1.596V5.286H8.392V13zm.812-8.736c.56 0 1.008-.448 1.008-1.022 0-.574-.448-1.022-1.008-1.022a1.01 1.01 0 00-1.022 1.022 1.01 1.01 0 001.022 1.022zM17.557 13h1.582V8.45c0-2.156-1.358-3.29-3.164-3.29-.924 0-1.778.378-2.296 1.008v-.882h-1.596V13h1.596V8.688c0-1.414.77-2.142 1.946-2.142 1.162 0 1.932.728 1.932 2.142V13zm9.372-2.156c-.084-2.786-4.438-1.918-4.438-3.472 0-.518.448-.868 1.302-.868.868 0 1.386.462 1.442 1.134h1.596c-.084-1.54-1.232-2.478-2.982-2.478-1.82 0-2.968.994-2.968 2.226 0 2.828 4.48 1.96 4.48 3.472 0 .532-.49.924-1.414.924-.882 0-1.484-.518-1.54-1.148h-1.652c.07 1.4 1.372 2.492 3.22 2.492 1.82 0 2.954-.98 2.954-2.282zm1.977.014c0 1.568.854 2.142 2.226 2.142h1.26v-1.33h-.98c-.672 0-.896-.238-.896-.812v-4.27h1.876V5.286h-1.877V3.368h-1.61v1.918h-.91v1.302h.91v4.27zM33.861 13h1.596V5.286h-1.596V13zm.813-8.736c.56 0 1.008-.448 1.008-1.022 0-.574-.449-1.022-1.008-1.022a1.01 1.01 0 00-1.022 1.022 1.01 1.01 0 001.022 1.022zm6.127 2.24c1.19 0 2.128.756 2.156 1.946h-4.27c.168-1.218 1.036-1.946 2.114-1.946zm3.612 4.2h-1.722c-.294.602-.84 1.078-1.82 1.078-1.176 0-2.086-.77-2.198-2.044h5.894c.042-.266.056-.518.056-.784 0-2.268-1.554-3.794-3.752-3.794-2.282 0-3.85 1.554-3.85 3.976 0 2.422 1.638 3.99 3.85 3.99 1.89 0 3.108-1.078 3.542-2.422zm1.248-1.596c0 2.38 1.61 4.018 3.64 4.018 1.26 0 2.184-.63 2.675-1.288v1.288c0 1.54-.924 2.296-2.156 2.296-1.106 0-1.96-.546-2.198-1.344H46.04c.196 1.708 1.722 2.73 3.78 2.73 2.407 0 3.766-1.582 3.766-3.682v-7.84h-1.61v1.12c-.476-.658-1.414-1.246-2.674-1.246-2.03 0-3.64 1.568-3.64 3.948zm6.315.028c0 1.666-1.134 2.604-2.338 2.604-1.19 0-2.339-.966-2.339-2.632 0-1.666 1.149-2.562 2.339-2.562 1.203 0 2.337.938 2.337 2.59zM59.32 13h1.596V5.286H59.32V13zm.812-8.736c.56 0 1.008-.448 1.008-1.022 0-.574-.449-1.022-1.008-1.022a1.01 1.01 0 00-1.023 1.022 1.01 1.01 0 001.023 1.022zM68.484 13h1.582V8.45c0-2.156-1.358-3.29-3.164-3.29-.924 0-1.778.378-2.296 1.008v-.882H63.01V13h1.596V8.688c0-1.414.77-2.142 1.946-2.142 1.162 0 1.932.728 1.932 2.142V13zm6.75-8.428h2.605V13h1.596V4.572h2.59V3.27h-6.79v1.302zM86.89 6.504c1.19 0 2.128.756 2.156 1.946h-4.27c.168-1.218 1.036-1.946 2.114-1.946zm3.612 4.2H88.78c-.294.602-.84 1.078-1.82 1.078-1.176 0-2.086-.77-2.198-2.044h5.894c.042-.266.056-.518.056-.784 0-2.268-1.554-3.794-3.752-3.794-2.282 0-3.85 1.554-3.85 3.976 0 2.422 1.638 3.99 3.85 3.99 1.89 0 3.108-1.078 3.542-2.422zm1.248-1.568c0 2.422 1.568 3.99 3.78 3.99 1.89 0 3.122-1.05 3.556-2.562h-1.722c-.294.798-.882 1.218-1.834 1.218-1.288 0-2.142-.952-2.142-2.646 0-1.68.854-2.632 2.142-2.632.952 0 1.568.476 1.834 1.218h1.722C98.652 6.098 97.42 5.16 95.53 5.16c-2.212 0-3.78 1.568-3.78 3.976zM100.677 13h1.596V8.688c0-1.414.77-2.142 1.946-2.142 1.162 0 1.932.728 1.932 2.142V13h1.582V8.45c0-2.156-1.344-3.29-3.066-3.29-.994 0-1.862.378-2.394 1.022V2.64h-1.596V13zm14.566 0h1.582V8.45c0-2.156-1.358-3.29-3.164-3.29-.924 0-1.778.378-2.296 1.008v-.882h-1.596V13h1.596V8.688c0-1.414.77-2.142 1.946-2.142 1.162 0 1.932.728 1.932 2.142V13zm10.968-3.864c0-2.422-1.736-3.976-3.934-3.976-2.198 0-3.934 1.554-3.934 3.976 0 2.422 1.666 3.99 3.864 3.99 2.212 0 4.004-1.568 4.004-3.99zm-6.244 0c0-1.75 1.078-2.59 2.282-2.59 1.19 0 2.324.84 2.324 2.59s-1.176 2.604-2.366 2.604c-1.204 0-2.24-.854-2.24-2.604zM127.788 13h1.596V2.64h-1.596V13zm11.042-3.864c0-2.422-1.736-3.976-3.934-3.976-2.198 0-3.934 1.554-3.934 3.976 0 2.422 1.666 3.99 3.864 3.99 2.212 0 4.004-1.568 4.004-3.99zm-6.244 0c0-1.75 1.078-2.59 2.282-2.59 1.19 0 2.324.84 2.324 2.59s-1.176 2.604-2.366 2.604c-1.204 0-2.24-.854-2.24-2.604zm7.289-.028c0 2.38 1.61 4.018 3.64 4.018 1.26 0 2.184-.63 2.674-1.288v1.288c0 1.54-.924 2.296-2.156 2.296-1.106 0-1.96-.546-2.198-1.344h-1.582c.196 1.708 1.722 2.73 3.78 2.73 2.408 0 3.766-1.582 3.766-3.682v-7.84h-1.61v1.12c-.476-.658-1.414-1.246-2.674-1.246-2.03 0-3.64 1.568-3.64 3.948zm6.314.028c0 1.666-1.134 2.604-2.338 2.604-1.19 0-2.338-.966-2.338-2.632 0-1.666 1.148-2.562 2.338-2.562 1.204 0 2.338.938 2.338 2.59zM149.896 13h1.596V5.286h-1.596V13zm.812-8.736c.56 0 1.008-.448 1.008-1.022 0-.574-.448-1.022-1.008-1.022a1.01 1.01 0 00-1.022 1.022 1.01 1.01 0 001.022 1.022zm6.127 2.24c1.19 0 2.128.756 2.156 1.946h-4.27c.168-1.218 1.036-1.946 2.114-1.946zm3.612 4.2h-1.722c-.294.602-.84 1.078-1.82 1.078-1.176 0-2.086-.77-2.198-2.044h5.894c.042-.266.056-.518.056-.784 0-2.268-1.554-3.794-3.752-3.794-2.282 0-3.85 1.554-3.85 3.976 0 2.422 1.638 3.99 3.85 3.99 1.89 0 3.108-1.078 3.542-2.422zM163.726 13h1.68l1.554-5.698L168.514 13h1.68l2.394-7.714h-1.568l-1.596 6.174-1.568-6.174h-1.666l-1.638 6.202-1.61-6.202h-1.624L163.726 13zm13.302-6.496c1.19 0 2.128.756 2.156 1.946h-4.27c.168-1.218 1.036-1.946 2.114-1.946zm3.612 4.2h-1.722c-.294.602-.84 1.078-1.82 1.078-1.176 0-2.086-.77-2.198-2.044h5.894c.042-.266.056-.518.056-.784 0-2.268-1.554-3.794-3.752-3.794-2.282 0-3.85 1.554-3.85 3.976 0 2.422 1.638 3.99 3.85 3.99 1.89 0 3.108-1.078 3.542-2.422zm3.377-1.764c0-1.638.728-2.128 1.904-2.128h.406V5.16c-1.092 0-1.862.476-2.31 1.246v-1.12h-1.596V13h1.596V8.94zm4.029 1.918c0 1.568.854 2.142 2.226 2.142h1.26v-1.33h-.98c-.672 0-.896-.238-.896-.812v-4.27h1.876V5.286h-1.876V3.368h-1.61v1.918h-.91v1.302h.91v4.27zm8.205-4.354c1.19 0 2.128.756 2.156 1.946h-4.27c.168-1.218 1.036-1.946 2.114-1.946zm3.612 4.2h-1.722c-.294.602-.84 1.078-1.82 1.078-1.176 0-2.086-.77-2.198-2.044h5.894c.042-.266.056-.518.056-.784 0-2.268-1.554-3.794-3.752-3.794-2.282 0-3.85 1.554-3.85 3.976 0 2.422 1.638 3.99 3.85 3.99 1.89 0 3.108-1.078 3.542-2.422zm4.885-1.596c0 2.38 1.61 4.018 3.612 4.018 1.288 0 2.212-.616 2.702-1.274V13h1.61V5.286h-1.61v1.12c-.476-.63-1.372-1.246-2.674-1.246-2.03 0-3.64 1.568-3.64 3.948zm6.314.028c0 1.666-1.134 2.604-2.338 2.604-1.19 0-2.338-.966-2.338-2.632 0-1.666 1.148-2.562 2.338-2.562 1.204 0 2.338.938 2.338 2.59zm5.303-2.702V2.64h-1.596V13h1.596v-1.12c.504.672 1.414 1.246 2.688 1.246 2.03 0 3.626-1.638 3.626-4.018s-1.582-3.948-3.626-3.948c-1.218 0-2.184.574-2.688 1.274zm4.69 2.674c0 1.666-1.148 2.632-2.352 2.632-1.19 0-2.338-.938-2.338-2.604 0-1.652 1.148-2.59 2.338-2.59 1.204 0 2.352.896 2.352 2.562zm6.601-3.794h1.554c.098-.714.616-1.386 1.736-1.386 1.092 0 1.666.588 1.666 1.47 0 1.092-.882 1.512-2.324 1.526h-.378V8.24h.364c1.666 0 2.534.462 2.534 1.806 0 .952-.588 1.68-1.778 1.68-1.204 0-1.904-.728-1.974-1.68h-1.54c.098 2.002 1.596 3.01 3.528 3.01 2.128 0 3.276-1.232 3.276-2.856 0-1.414-.686-2.296-1.75-2.618v-.056c.798-.266 1.568-1.092 1.568-2.31 0-1.484-1.106-2.66-3.136-2.66-1.862 0-3.234.994-3.346 2.758zm13.783 2.436V4.572h1.764c1.246 0 1.806.588 1.806 1.596 0 .98-.56 1.582-1.806 1.582h-1.764zm5.208-1.582c0-1.582-1.134-2.898-3.444-2.898h-3.36V13h1.596V9.052h1.764c2.534 0 3.444-1.498 3.444-2.884zM248.169 13h1.596V9.682L252.621 13h2.156l-3.556-3.85 3.556-3.864h-2.212l-2.8 3.374V2.64h-1.596V13zm8.004-2.142c0 1.568.854 2.142 2.226 2.142h1.26v-1.33h-.98c-.672 0-.896-.238-.896-.812v-4.27h1.876V5.286h-1.876V3.368h-1.61v1.918h-.91v1.302h.91v4.27zm6.609 1.218c0-.574-.448-1.022-1.008-1.022a1.01 1.01 0 00-1.022 1.022 1.01 1.01 0 001.022 1.022c.56 0 1.008-.448 1.008-1.022zM4.792 21.408V27h-.56v-2.616H1.2V27H.64v-5.592h.56v2.512h3.032v-2.512h.56zm1.022 3.4c0-.448.088-.84.264-1.176a1.92 1.92 0 01.744-.784c.32-.187.68-.28 1.08-.28.416 0 .773.096 1.072.288.304.192.522.437.656.736v-.96h.56V27h-.56v-.968c-.139.299-.36.547-.664.744-.299.192-.656.288-1.072.288-.395 0-.752-.093-1.072-.28a1.976 1.976 0 01-.744-.792 2.548 2.548 0 01-.264-1.184zm3.816.008c0-.352-.072-.661-.216-.928a1.533 1.533 0 00-.592-.616 1.582 1.582 0 00-.816-.216c-.31 0-.587.07-.832.208-.246.139-.44.341-.584.608-.139.261-.208.573-.208.936 0 .357.069.672.208.944.144.267.338.472.584.616.245.139.522.208.832.208.298 0 .57-.072.816-.216.25-.144.448-.35.592-.616.144-.267.216-.576.216-.928zm3.886-2.264c.523 0 .95.163 1.28.488.33.32.496.787.496 1.4V27h-.552v-2.496c0-.475-.12-.837-.36-1.088-.235-.25-.557-.376-.968-.376-.421 0-.757.133-1.008.4-.25.267-.376.659-.376 1.176V27h-.56v-4.368h.56v.744c.139-.267.339-.47.6-.608a1.81 1.81 0 01.888-.216zm2.759 2.256c0-.448.09-.84.272-1.176.181-.341.429-.603.744-.784.32-.187.68-.28 1.08-.28.384 0 .73.093 1.04.28.309.187.536.43.68.728V21.08h.56V27h-.56v-.976a1.706 1.706 0 01-.656.752 1.965 1.965 0 01-1.072.288c-.4 0-.76-.093-1.08-.28a1.977 1.977 0 01-.744-.792 2.548 2.548 0 01-.264-1.184zm3.816.008c0-.352-.072-.661-.216-.928a1.582 1.582 0 00-1.408-.832c-.31 0-.587.07-.832.208-.246.139-.44.341-.584.608-.139.261-.208.573-.208.936 0 .357.069.672.208.944.144.267.338.472.584.616.245.139.522.208.832.208a1.582 1.582 0 001.408-.832c.144-.267.216-.576.216-.928zm5.79-.224c0 .192-.005.339-.016.44h-3.624c.016.33.096.613.24.848s.333.413.568.536c.235.117.49.176.768.176.363 0 .667-.088.912-.264.25-.176.416-.413.496-.712h.592a1.861 1.861 0 01-.688 1.048c-.347.267-.784.4-1.312.4-.41 0-.779-.09-1.104-.272a2.01 2.01 0 01-.768-.784c-.181-.341-.272-.739-.272-1.192 0-.453.09-.85.272-1.192a1.89 1.89 0 01.76-.784 2.245 2.245 0 011.112-.272c.416 0 .779.09 1.088.272.315.181.555.427.72.736.17.304.256.643.256 1.016zm-.568-.016c.005-.325-.061-.603-.2-.832a1.299 1.299 0 00-.552-.52 1.694 1.694 0 00-.768-.176c-.416 0-.77.133-1.064.4-.293.267-.456.643-.488 1.128h3.072zm2.153-3.496V27h-.56v-5.92h.56zm3.207 3.728c0-.448.09-.84.272-1.176a1.92 1.92 0 01.744-.784c.32-.187.68-.28 1.08-.28.384 0 .73.093 1.04.28.31.187.536.43.68.728V21.08h.56V27h-.56v-.976a1.707 1.707 0 01-.656.752 1.965 1.965 0 01-1.072.288c-.4 0-.76-.093-1.08-.28a1.976 1.976 0 01-.744-.792 2.548 2.548 0 01-.264-1.184zm3.816.008c0-.352-.072-.661-.216-.928a1.533 1.533 0 00-.592-.616 1.583 1.583 0 00-.816-.216c-.31 0-.587.07-.832.208-.245.139-.44.341-.584.608-.139.261-.208.573-.208.936 0 .357.07.672.208.944.144.267.339.472.584.616.245.139.523.208.832.208.299 0 .57-.072.816-.216.25-.144.448-.35.592-.616.144-.267.216-.576.216-.928zm5.79-.224c0 .192-.005.339-.016.44H36.64c.016.33.096.613.24.848.143.235.333.413.567.536.235.117.491.176.768.176.363 0 .667-.088.912-.264.251-.176.416-.413.496-.712h.593a1.861 1.861 0 01-.688 1.048c-.347.267-.785.4-1.313.4-.41 0-.778-.09-1.104-.272a2.011 2.011 0 01-.767-.784c-.182-.341-.273-.739-.273-1.192 0-.453.091-.85.273-1.192a1.89 1.89 0 01.76-.784 2.245 2.245 0 011.111-.272c.416 0 .78.09 1.088.272.315.181.555.427.72.736.171.304.256.643.256 1.016zm-.568-.016c.006-.325-.06-.603-.2-.832a1.297 1.297 0 00-.552-.52 1.694 1.694 0 00-.768-.176c-.416 0-.77.133-1.064.4-.293.267-.456.643-.488 1.128h3.072zm3.641-2.024c.523 0 .95.163 1.28.488.33.32.496.787.496 1.4V27h-.552v-2.496c0-.475-.12-.837-.36-1.088-.235-.25-.557-.376-.968-.376-.421 0-.757.133-1.008.4-.25.267-.376.659-.376 1.176V27h-.56v-4.368h.56v.744c.139-.267.339-.47.6-.608.261-.144.557-.216.888-.216zm5.746-1.144v3.52c0 .555.13.965.392 1.232.267.267.63.4 1.088.4.458 0 .816-.13 1.072-.392.261-.267.392-.68.392-1.24v-3.52h.56v3.512c0 .71-.19 1.243-.568 1.6-.373.357-.861.536-1.464.536s-1.093-.179-1.472-.536c-.373-.357-.56-.89-.56-1.6v-3.512h.56zm6.449 5.648c-.368 0-.693-.064-.976-.192a1.595 1.595 0 01-.656-.536 1.408 1.408 0 01-.256-.768h.592c.027.272.147.512.36.72.213.203.525.304.936.304.379 0 .677-.096.896-.288a.95.95 0 00.336-.744c0-.24-.061-.432-.184-.576a1.078 1.078 0 00-.456-.328 6.375 6.375 0 00-.752-.24c-.373-.101-.67-.2-.888-.296a1.414 1.414 0 01-.56-.448c-.155-.203-.232-.477-.232-.824 0-.288.075-.544.224-.768.15-.23.36-.408.632-.536.272-.128.584-.192.936-.192.517 0 .933.128 1.248.384.32.25.504.576.552.976h-.608c-.037-.23-.163-.432-.376-.608-.213-.181-.501-.272-.864-.272-.336 0-.616.09-.84.272-.224.176-.336.419-.336.728 0 .235.061.424.184.568.123.144.275.253.456.328.187.075.437.155.752.24.363.101.656.203.88.304a1.4 1.4 0 01.568.448c.155.203.232.475.232.816 0 .261-.07.51-.208.744a1.517 1.517 0 01-.616.568c-.272.144-.597.216-.976.216zm8.35-5.648v.464h-1.553V27h-.56v-5.128h-1.56v-.464h3.672zm4.836 3.184c0 .192-.006.339-.016.44h-3.624c.016.33.096.613.24.848s.333.413.568.536c.234.117.49.176.768.176.362 0 .666-.088.912-.264.25-.176.416-.413.496-.712h.592a1.86 1.86 0 01-.688 1.048c-.347.267-.784.4-1.312.4-.411 0-.779-.09-1.104-.272a2.011 2.011 0 01-.768-.784c-.182-.341-.272-.739-.272-1.192 0-.453.09-.85.272-1.192.181-.341.434-.603.76-.784a2.246 2.246 0 011.112-.272c.416 0 .778.09 1.088.272.314.181.554.427.72.736.17.304.256.643.256 1.016zm-.568-.016c.005-.325-.062-.603-.2-.832a1.297 1.297 0 00-.552-.52 1.693 1.693 0 00-.768-.176c-.416 0-.771.133-1.064.4-.294.267-.456.643-.488 1.128h3.072zm1.336.24c0-.453.09-.848.272-1.184.181-.341.432-.603.752-.784.32-.187.685-.28 1.096-.28.539 0 .982.133 1.328.4.352.267.579.63.68 1.088h-.6a1.206 1.206 0 00-.488-.736c-.245-.181-.552-.272-.92-.272-.293 0-.557.067-.792.2a1.422 1.422 0 00-.56.6c-.133.261-.2.584-.2.968s.067.71.2.976c.139.267.325.467.56.6.235.133.499.2.792.2.368 0 .675-.088.92-.264.25-.181.413-.432.488-.752h.6a1.832 1.832 0 01-.68 1.08c-.352.272-.794.408-1.328.408-.41 0-.776-.09-1.096-.272a1.972 1.972 0 01-.752-.784c-.181-.341-.272-.739-.272-1.192zm7.242-2.264c.331 0 .627.07.888.208.267.139.475.352.624.64.155.283.232.63.232 1.04V27h-.552v-2.496c0-.475-.12-.837-.36-1.088-.234-.25-.557-.376-.968-.376-.42 0-.757.133-1.008.4-.25.267-.376.659-.376 1.176V27h-.56v-5.92h.56v2.296c.14-.261.342-.464.608-.608.272-.144.576-.216.912-.216zm4.786-.784v-.504h1.36V27h-.568v-5.232h-.792zm2.608 2.312c0-.917.141-1.63.424-2.136.283-.507.79-.76 1.52-.76s1.237.253 1.52.76c.283.507.424 1.219.424 2.136 0 .933-.141 1.656-.424 2.168-.282.512-.79.768-1.52.768-.736 0-1.245-.256-1.528-.768-.277-.512-.416-1.235-.416-2.168zm3.336 0c0-.496-.034-.915-.104-1.256-.07-.341-.205-.616-.408-.824-.203-.208-.496-.312-.88-.312s-.677.104-.88.312c-.202.208-.338.483-.408.824-.07.341-.104.76-.104 1.256 0 .512.035.941.104 1.288.07.341.206.616.408.824.203.208.496.312.88.312s.677-.104.88-.312c.203-.208.339-.483.408-.824.07-.347.104-.776.104-1.288zm1.594 0c0-.917.141-1.63.424-2.136.282-.507.79-.76 1.52-.76s1.237.253 1.52.76c.282.507.424 1.219.424 2.136 0 .933-.141 1.656-.424 2.168-.283.512-.79.768-1.52.768-.736 0-1.245-.256-1.528-.768-.278-.512-.416-1.235-.416-2.168zm3.336 0c0-.496-.035-.915-.104-1.256-.07-.341-.206-.616-.408-.824-.203-.208-.496-.312-.88-.312s-.677.104-.88.312c-.203.208-.339.483-.408.824-.07.341-.104.76-.104 1.256 0 .512.034.941.104 1.288.07.341.205.616.408.824.203.208.496.312.88.312s.677-.104.88-.312c.203-.208.338-.483.408-.824.07-.347.104-.776.104-1.288zm3.653.728c0-.448.088-.84.264-1.176a1.92 1.92 0 01.744-.784c.32-.187.68-.28 1.08-.28.416 0 .773.096 1.072.288.304.192.523.437.656.736v-.96h.56V27h-.56v-.968c-.139.299-.36.547-.664.744-.299.192-.656.288-1.072.288-.395 0-.752-.093-1.072-.28a1.976 1.976 0 01-.744-.792 2.548 2.548 0 01-.264-1.184zm3.816.008c0-.352-.072-.661-.216-.928a1.533 1.533 0 00-.592-.616 1.583 1.583 0 00-.816-.216c-.31 0-.587.07-.832.208-.245.139-.44.341-.584.608-.139.261-.208.573-.208.936 0 .357.07.672.208.944.144.267.339.472.584.616.245.139.523.208.832.208.298 0 .57-.072.816-.216.25-.144.448-.35.592-.616.144-.267.216-.576.216-.928zm5.622-2.184V27h-.56v-.768a1.34 1.34 0 01-.592.624 1.852 1.852 0 01-.896.216c-.522 0-.949-.16-1.28-.48-.33-.325-.496-.795-.496-1.408v-2.552h.552v2.488c0 .475.118.837.352 1.088.24.25.566.376.976.376.422 0 .758-.133 1.008-.4.251-.267.376-.659.376-1.176v-2.376h.56zm2.999.472h-1.016V27h-.56v-3.896h-.608v-.472h.608v-.304c0-.475.12-.824.36-1.048.245-.224.64-.336 1.184-.336v.48c-.363 0-.619.07-.768.208-.144.139-.216.37-.216.696v.304h1.016v.472zM4.592 35.592c0 .192-.005.339-.016.44H.952c.016.33.096.613.24.848s.333.413.568.536c.235.117.49.176.768.176.363 0 .667-.088.912-.264.25-.176.416-.413.496-.712h.592a1.86 1.86 0 01-.688 1.048c-.347.267-.784.4-1.312.4-.41 0-.779-.09-1.104-.272a2.01 2.01 0 01-.768-.784c-.181-.341-.272-.739-.272-1.192 0-.453.09-.85.272-1.192a1.89 1.89 0 01.76-.784 2.245 2.245 0 011.112-.272c.416 0 .779.09 1.088.272.315.181.555.427.72.736.17.304.256.643.256 1.016zm-.568-.016c.005-.325-.061-.603-.2-.832a1.298 1.298 0 00-.552-.52 1.694 1.694 0 00-.768-.176c-.416 0-.77.133-1.064.4-.293.267-.456.643-.488 1.128h3.072zm1.873-2.768a.393.393 0 01-.288-.12.402.402 0 01-.12-.296c0-.117.04-.213.12-.288.08-.08.176-.12.288-.12.112 0 .208.04.288.12.08.075.12.17.12.288 0 .117-.04.216-.12.296a.393.393 0 01-.288.12zm.28.824V38h-.56v-4.368h.56zm3.316-.08c.522 0 .949.163 1.28.488.33.32.496.787.496 1.4V38h-.552v-2.496c0-.475-.12-.837-.36-1.088-.235-.25-.558-.376-.968-.376-.422 0-.758.133-1.008.4-.251.267-.376.659-.376 1.176V38h-.56v-4.368h.56v.744c.138-.267.338-.47.6-.608a1.81 1.81 0 01.888-.216zm6.966 2.04c0 .192-.005.339-.016.44H12.82c.016.33.096.613.24.848s.334.413.568.536c.235.117.49.176.768.176.363 0 .667-.088.912-.264.25-.176.416-.413.496-.712h.592a1.861 1.861 0 01-.688 1.048c-.347.267-.784.4-1.312.4-.41 0-.778-.09-1.104-.272a2.011 2.011 0 01-.768-.784c-.181-.341-.272-.739-.272-1.192 0-.453.09-.85.272-1.192a1.89 1.89 0 01.76-.784 2.245 2.245 0 011.112-.272c.416 0 .779.09 1.088.272.315.181.555.427.72.736.17.304.256.643.256 1.016zm-.568-.016c.005-.325-.061-.603-.2-.832a1.297 1.297 0 00-.552-.52 1.694 1.694 0 00-.768-.176c-.416 0-.77.133-1.064.4-.293.267-.456.643-.488 1.128h3.072zm2.153-1.168c.122-.272.31-.483.56-.632.256-.15.568-.224.936-.224v.584h-.152c-.406 0-.73.11-.976.328-.246.219-.368.584-.368 1.096V38h-.56v-4.368h.56v.776zm5.085.184c.14-.293.358-.536.656-.728.305-.197.665-.296 1.08-.296.395 0 .75.093 1.065.28.32.181.567.443.744.784.18.336.271.728.271 1.176 0 .448-.09.843-.271 1.184a1.906 1.906 0 01-.744.792c-.315.187-.67.28-1.064.28-.411 0-.768-.096-1.072-.288a1.785 1.785 0 01-.665-.736v3.024h-.552v-6.432h.552v.96zm3.248 1.216c0-.363-.072-.675-.215-.936a1.444 1.444 0 00-.576-.608 1.66 1.66 0 00-.832-.208c-.3 0-.574.072-.825.216a1.55 1.55 0 00-.583.616 1.923 1.923 0 00-.216.928c0 .352.072.661.216.928.143.267.338.472.584.616.25.144.525.216.823.216.31 0 .587-.07.832-.208.246-.144.438-.35.576-.616.144-.272.216-.587.216-.944zm2.159-1.4c.123-.272.31-.483.56-.632.256-.15.568-.224.936-.224v.584h-.152c-.405 0-.73.11-.976.328-.245.219-.368.584-.368 1.096V38h-.56v-4.368h.56v.776zm6.29 1.184c0 .192-.005.339-.016.44h-3.624c.016.33.096.613.24.848s.334.413.568.536c.235.117.491.176.768.176.363 0 .667-.088.912-.264.251-.176.416-.413.496-.712h.592a1.861 1.861 0 01-.688 1.048c-.346.267-.784.4-1.312.4-.41 0-.778-.09-1.104-.272a2.01 2.01 0 01-.768-.784c-.181-.341-.272-.739-.272-1.192 0-.453.091-.85.272-1.192a1.89 1.89 0 01.76-.784 2.245 2.245 0 011.112-.272c.416 0 .779.09 1.088.272.315.181.555.427.72.736.171.304.256.643.256 1.016zm-.568-.016c.006-.325-.061-.603-.2-.832a1.299 1.299 0 00-.552-.52 1.694 1.694 0 00-.768-.176c-.416 0-.77.133-1.064.4-.293.267-.456.643-.488 1.128h3.072zm1.873-2.768a.393.393 0 01-.288-.12.402.402 0 01-.12-.296c0-.117.04-.213.12-.288.08-.08.176-.12.288-.12.112 0 .208.04.288.12.08.075.12.17.12.288 0 .117-.04.216-.12.296a.393.393 0 01-.288.12zm.28.824V38h-.56v-4.368h.56zm2.772 4.432c-.501 0-.912-.115-1.232-.344a1.284 1.284 0 01-.528-.952H38a.843.843 0 00.344.6c.208.15.485.224.832.224.304 0 .541-.072.712-.216a.666.666 0 00.264-.536.498.498 0 00-.144-.368.974.974 0 00-.368-.224 4.75 4.75 0 00-.592-.184 6.054 6.054 0 01-.792-.256 1.402 1.402 0 01-.52-.376c-.139-.17-.208-.397-.208-.68 0-.213.064-.41.192-.592a1.31 1.31 0 01.544-.432c.235-.107.501-.16.8-.16.47 0 .848.12 1.136.36.288.235.443.56.464.976h-.56a.832.832 0 00-.304-.616c-.181-.16-.432-.24-.752-.24-.283 0-.512.067-.688.2a.602.602 0 00-.264.496c0 .17.05.312.152.424.107.107.237.192.392.256.155.059.363.125.624.2.315.085.565.168.752.248.187.08.347.197.48.352.133.155.203.36.208.616 0 .235-.064.445-.192.632a1.32 1.32 0 01-.536.432c-.23.107-.493.16-.792.16zm4.406-4.496c.41 0 .768.096 1.072.288.304.192.523.435.656.728v-.952h.56v4.48c0 .4-.088.755-.264 1.064-.17.31-.41.547-.72.712-.31.17-.661.256-1.056.256-.56 0-1.027-.133-1.4-.4a1.702 1.702 0 01-.688-1.088h.552c.096.304.277.547.544.728.272.181.603.272.992.272.283 0 .536-.061.76-.184.224-.117.4-.293.528-.528.128-.235.192-.512.192-.832v-1.08c-.139.299-.36.547-.664.744-.298.192-.653.288-1.064.288-.4 0-.76-.093-1.08-.28a1.976 1.976 0 01-.744-.792 2.548 2.548 0 01-.264-1.184c0-.448.088-.84.264-1.176a1.92 1.92 0 01.744-.784c.32-.187.68-.28 1.08-.28zm1.728 2.248c0-.352-.072-.661-.216-.928a1.582 1.582 0 00-1.408-.832c-.31 0-.587.07-.832.208-.245.139-.44.341-.584.608-.139.261-.208.573-.208.936 0 .357.07.672.208.944.144.267.339.472.584.616.245.139.523.208.832.208a1.582 1.582 0 001.408-.832c.144-.267.216-.576.216-.928zm5.79-.224c0 .192-.005.339-.015.44h-3.624c.016.33.096.613.24.848s.333.413.568.536c.234.117.49.176.768.176.362 0 .666-.088.912-.264.25-.176.416-.413.496-.712h.592a1.86 1.86 0 01-.688 1.048c-.347.267-.784.4-1.312.4-.411 0-.779-.09-1.104-.272a2.011 2.011 0 01-.768-.784c-.182-.341-.272-.739-.272-1.192 0-.453.09-.85.272-1.192.181-.341.434-.603.76-.784a2.246 2.246 0 011.112-.272c.416 0 .778.09 1.088.272.314.181.554.427.72.736.17.304.256.643.256 1.016zm-.567-.016c.005-.325-.062-.603-.2-.832a1.297 1.297 0 00-.552-.52 1.693 1.693 0 00-.768-.176c-.416 0-.771.133-1.064.4-.294.267-.456.643-.488 1.128h3.072zM54.492 38l-1.8-1.96V38h-.56v-5.92h.56v3.504l1.76-1.952h.784l-2.072 2.176L55.252 38h-.76zm2.044-3.592c.123-.272.31-.483.56-.632.256-.15.568-.224.936-.224v.584h-.152c-.405 0-.73.11-.976.328-.245.219-.368.584-.368 1.096V38h-.56v-4.368h.56v.776zm4.25 3.656c-.41 0-.781-.09-1.112-.272a2.067 2.067 0 01-.776-.784c-.186-.341-.28-.739-.28-1.192 0-.453.096-.848.288-1.184a1.98 1.98 0 01.784-.784c.331-.187.702-.28 1.112-.28.411 0 .782.093 1.112.28.336.181.598.443.784.784.192.336.288.73.288 1.184 0 .448-.096.843-.288 1.184a2.02 2.02 0 01-.792.792 2.32 2.32 0 01-1.12.272zm0-.488c.288 0 .555-.064.8-.192.246-.133.443-.33.592-.592.155-.267.232-.592.232-.976s-.074-.707-.224-.968a1.439 1.439 0 00-.592-.592 1.65 1.65 0 00-.8-.2c-.288 0-.554.067-.8.2a1.437 1.437 0 00-.592.592c-.144.261-.216.584-.216.968s.072.71.216.976c.15.261.344.459.584.592.246.128.512.192.8.192zm-.584-4.6a.375.375 0 01-.264-.104.375.375 0 01-.104-.264c0-.101.035-.187.104-.256a.36.36 0 01.264-.112c.102 0 .187.037.256.112.075.07.112.155.112.256s-.037.19-.112.264a.348.348 0 01-.256.104zm1.232 0a.375.375 0 01-.264-.104.375.375 0 01-.104-.264c0-.101.035-.187.104-.256a.36.36 0 01.264-.112c.102 0 .187.037.256.112.07.07.104.155.104.256s-.034.19-.104.264a.348.348 0 01-.256.104zm4.621.576c.523 0 .95.163 1.28.488.33.32.496.787.496 1.4V38h-.552v-2.496c0-.475-.12-.837-.36-1.088-.234-.25-.557-.376-.968-.376-.421 0-.757.133-1.008.4-.25.267-.376.659-.376 1.176V38h-.56v-4.368h.56v.744c.139-.267.339-.47.6-.608.261-.144.558-.216.888-.216zm3.743.552v2.712c0 .267.05.45.152.552.101.101.28.152.536.152h.512V38h-.6c-.395 0-.688-.09-.88-.272-.192-.187-.288-.49-.288-.912v-2.712h-.608v-.472h.608v-1.096h.568v1.096h1.2v.472h-1.2zm6.075 1.488c0 .192-.005.339-.016.44h-3.624c.016.33.096.613.24.848s.334.413.568.536c.235.117.49.176.768.176.363 0 .667-.088.912-.264.25-.176.416-.413.496-.712h.592a1.861 1.861 0 01-.688 1.048c-.346.267-.784.4-1.312.4-.41 0-.778-.09-1.104-.272a2.01 2.01 0 01-.768-.784c-.181-.341-.272-.739-.272-1.192 0-.453.09-.85.272-1.192a1.89 1.89 0 01.76-.784 2.245 2.245 0 011.112-.272c.416 0 .779.09 1.088.272.315.181.555.427.72.736.17.304.256.643.256 1.016zm-.568-.016c.006-.325-.061-.603-.2-.832a1.299 1.299 0 00-.552-.52 1.694 1.694 0 00-.768-.176c-.416 0-.77.133-1.064.4-.293.267-.456.643-.488 1.128h3.072zm3.64-2.024c.524 0 .95.163 1.28.488.332.32.497.787.497 1.4V38h-.552v-2.496c0-.475-.12-.837-.36-1.088-.235-.25-.558-.376-.968-.376-.421 0-.757.133-1.008.4-.25.267-.376.659-.376 1.176V38h-.56v-4.368h.56v.744c.139-.267.338-.47.6-.608.261-.144.557-.216.888-.216zm8.787.464c0 .48-.158.867-.472 1.16-.315.293-.787.44-1.416.44h-1.128V38h-.56v-5.592h1.688c.624 0 1.093.147 1.408.44.32.293.48.683.48 1.168zm-1.888 1.12c.874 0 1.312-.373 1.312-1.12 0-.373-.104-.656-.312-.848-.208-.192-.542-.288-1-.288h-1.128v2.256h1.128zm3.387-3.056V38h-.56v-5.92h.56zm1.012 3.728c0-.448.088-.84.264-1.176a1.92 1.92 0 01.744-.784c.32-.187.68-.28 1.08-.28.416 0 .774.096 1.072.288.304.192.523.437.656.736v-.96h.56V38h-.56v-.968c-.138.299-.36.547-.664.744-.298.192-.656.288-1.072.288-.394 0-.752-.093-1.072-.28a1.976 1.976 0 01-.744-.792 2.548 2.548 0 01-.264-1.184zm3.816.008c0-.352-.072-.661-.216-.928a1.533 1.533 0 00-.592-.616 1.583 1.583 0 00-.816-.216c-.309 0-.586.07-.832.208-.245.139-.44.341-.584.608-.138.261-.208.573-.208.936 0 .357.07.672.208.944.144.267.339.472.584.616.246.139.523.208.832.208.299 0 .571-.072.816-.216.251-.144.448-.35.592-.616.144-.267.216-.576.216-.928zm2.567-1.712v2.712c0 .267.05.45.152.552.101.101.28.152.536.152h.512V38h-.6c-.395 0-.688-.09-.88-.272-.192-.187-.288-.49-.288-.912v-2.712h-.608v-.472h.608v-1.096h.568v1.096h1.2v.472h-1.2zm2.851 0v2.712c0 .267.051.45.152.552.102.101.28.152.536.152h.512V38h-.6c-.394 0-.688-.09-.88-.272-.192-.187-.288-.49-.288-.912v-2.712h-.608v-.472h.608v-1.096h.568v1.096h1.2v.472h-1.2zm3.844 0h-1.016V38h-.56v-3.896h-.608v-.472h.608v-.304c0-.475.12-.824.36-1.048.245-.224.64-.336 1.184-.336v.48c-.363 0-.619.07-.768.208-.144.139-.216.37-.216.696v.304h1.016v.472zm2.794 3.96c-.411 0-.782-.09-1.112-.272a2.063 2.063 0 01-.776-.784c-.187-.341-.28-.739-.28-1.192 0-.453.096-.848.288-1.184.192-.341.453-.603.784-.784a2.22 2.22 0 011.112-.28c.41 0 .781.093 1.112.28.336.181.597.443.784.784.192.336.288.73.288 1.184 0 .448-.096.843-.288 1.184a2.02 2.02 0 01-.792.792c-.336.181-.71.272-1.12.272zm0-.488c.288 0 .554-.064.8-.192a1.51 1.51 0 00.592-.592c.154-.267.232-.592.232-.976s-.075-.707-.224-.968a1.444 1.444 0 00-.592-.592 1.65 1.65 0 00-.8-.2c-.288 0-.555.067-.8.2a1.432 1.432 0 00-.592.592c-.144.261-.216.584-.216.968s.072.71.216.976c.149.261.344.459.584.592.245.128.512.192.8.192zm3.78-3.168a1.38 1.38 0 01.56-.632c.256-.15.568-.224.936-.224v.584h-.152c-.405 0-.73.11-.976.328-.245.219-.368.584-.368 1.096V38h-.56v-4.368h.56v.776zm7.539-.856c.512 0 .928.163 1.248.488.325.32.488.787.488 1.4V38h-.552v-2.496c0-.475-.115-.837-.344-1.088-.23-.25-.542-.376-.936-.376-.411 0-.739.136-.984.408-.246.272-.368.667-.368 1.184V38h-.552v-2.496c0-.475-.115-.837-.344-1.088-.23-.25-.544-.376-.944-.376-.411 0-.739.136-.984.408-.246.272-.368.667-.368 1.184V38h-.56v-4.368h.56v.752c.138-.272.336-.477.592-.616.256-.144.541-.216.856-.216.378 0 .709.09.992.272.288.181.496.448.624.8a1.46 1.46 0 01.6-.792c.288-.187.613-.28.976-.28z" fill="#fff"/></svg>