<svg width="88" height="60" viewBox="0 0 88 60" fill="none" xmlns="http://www.w3.org/2000/svg"><path fill="#fff" d="M0 0h88v60H0z"/><path d="M6.24 3.023v.547L4.668 8H3.656l1.58-4.18H3.231v-.797H6.24zm2.748-.01V8h-.957V4.189l-.95.366v-.8l1.805-.742h.102zm1.528 4.498c0-.15.05-.275.15-.376a.543.543 0 01.407-.154c.171 0 .307.052.407.154.1.1.15.226.15.376a.51.51 0 01-.15.376.55.55 0 01-.407.15.55.55 0 01-.407-.15.51.51 0 01-.15-.376zm4.105-4.542h.127v.813h-.045c-.216 0-.405.038-.567.113-.16.073-.293.18-.4.321a1.443 1.443 0 00-.236.506 2.555 2.555 0 00-.079.66v.837c0 .173.012.326.035.458.025.132.06.243.106.332a.57.57 0 00.164.195.364.364 0 00.42-.004.58.58 0 00.164-.188c.046-.082.08-.178.103-.287.025-.11.037-.229.037-.359 0-.132-.012-.253-.037-.362a1.037 1.037 0 00-.106-.284.52.52 0 00-.168-.188.362.362 0 00-.215-.068.44.44 0 00-.297.106.65.65 0 00-.189.266 1 1 0 00-.071.339l-.287-.205c.009-.173.04-.336.095-.489.057-.155.135-.294.233-.417a1.04 1.04 0 01.352-.287.99.99 0 01.461-.106.99.99 0 01.52.133c.148.09.27.211.369.366.1.155.174.335.222.54.05.203.075.42.075.65 0 .24-.034.465-.102.673a1.703 1.703 0 01-.29.543 1.316 1.316 0 01-1.06.492c-.228 0-.434-.047-.62-.143a1.405 1.405 0 01-.47-.407 1.96 1.96 0 01-.298-.629 2.93 2.93 0 01-.103-.8v-.386c0-.4.047-.768.14-1.1a2.6 2.6 0 01.414-.869c.185-.243.41-.431.677-.564.269-.134.578-.201.926-.201zm2.987 1.275V3.98c0-.189.035-.36.103-.516a.888.888 0 01.311-.372.905.905 0 01.516-.14c.207 0 .38.046.52.14a.833.833 0 01.307.372c.069.155.103.327.103.516v.264c0 .184-.034.354-.103.509a.855.855 0 01-.31.372.888.888 0 01-.514.14.905.905 0 01-.516-.14.88.88 0 01-.314-.372 1.249 1.249 0 01-.103-.51zm.626-.264v.264c0 .077.011.151.034.222a.4.4 0 00.103.167.246.246 0 00.17.062c.069 0 .125-.02.168-.062a.39.39 0 00.096-.167.719.719 0 00.034-.222V3.98a.71.71 0 00-.034-.225.351.351 0 00-.1-.168.239.239 0 00-.17-.065.238.238 0 00-.171.065.39.39 0 00-.1.168.783.783 0 00-.03.225zm1.34 3.066V6.78c0-.187.035-.358.106-.513a.888.888 0 01.31-.372.898.898 0 01.513-.14.9.9 0 01.52.14c.137.093.24.217.308.372.07.155.105.326.105.513v.266c0 .187-.034.358-.102.513a.86.86 0 01-.311.37.888.888 0 01-.513.14.921.921 0 01-.52-.14.879.879 0 01-.314-.373 1.247 1.247 0 01-.102-.51zm.625-.266v.263c0 .08.014.155.041.226a.466.466 0 00.11.167.24.24 0 00.16.062c.082 0 .145-.021.188-.062a.319.319 0 00.086-.167c.016-.071.024-.146.024-.226v-.26a.71.71 0 00-.035-.225.35.35 0 00-.099-.168.227.227 0 00-.167-.065.243.243 0 00-.175.065.374.374 0 00-.102.168.77.77 0 00-.03.222zm.557-3.042l-2.04 3.89-.458-.26 2.04-3.89.458.26zm4.748 3.445V2.75h.96V8l-.868.003-.092-.82zm-1.918-.902v-.246c0-.301.026-.564.076-.79.052-.225.13-.413.232-.564a.975.975 0 01.376-.335c.15-.075.322-.113.516-.113.176 0 .33.045.462.134.134.086.248.208.341.365.094.158.169.343.226.558.057.214.097.448.12.704v.355c-.028.242-.07.467-.127.677-.055.21-.13.392-.226.547a1.14 1.14 0 01-.338.365.822.822 0 01-.461.13 1.11 1.11 0 01-.516-.116 1.033 1.033 0 01-.376-.342c-.1-.152-.177-.34-.23-.56a3.534 3.534 0 01-.075-.77zm.958-.246v.246c0 .173.007.322.023.448.019.123.047.224.086.304a.427.427 0 00.16.174.504.504 0 00.247.055.483.483 0 00.31-.096.585.585 0 00.178-.27c.041-.116.064-.25.069-.4V5.85a1.653 1.653 0 00-.045-.338.85.85 0 00-.106-.257.49.49 0 00-.17-.164.451.451 0 00-.233-.058.492.492 0 00-.246.058.4.4 0 00-.157.181 1.13 1.13 0 00-.09.311 3.196 3.196 0 00-.026.452zm4.132 2.033c-.253 0-.478-.038-.674-.116a1.332 1.332 0 01-.492-.335 1.5 1.5 0 01-.307-.536 2.245 2.245 0 01-.106-.718v-.304c0-.301.034-.564.102-.79.069-.228.165-.42.29-.574.126-.155.28-.27.462-.345.185-.078.393-.117.626-.117.232 0 .436.04.611.117.178.075.325.189.441.341.117.15.204.338.264.561.059.223.088.483.088.78v.437h-2.478v-.674h1.538V5.71c0-.15-.015-.276-.047-.376a.432.432 0 00-.15-.229.452.452 0 00-.274-.075.473.473 0 00-.243.058.4.4 0 00-.157.181c-.039.082-.067.19-.086.321a3.42 3.42 0 00-.027.469v.304c0 .17.015.314.045.43.03.114.072.208.13.28.059.071.13.123.215.155.084.03.182.044.294.044a1.048 1.048 0 00.803-.338l.383.58a1.492 1.492 0 01-.69.472 1.75 1.75 0 01-.561.082zm2.816-2.943V8h-.957V4.302h.902l.055.823zm.872-.85l-.014.953a2.078 2.078 0 00-.314-.027.658.658 0 00-.274.05.456.456 0 00-.188.148.685.685 0 00-.11.24c-.024.095-.039.203-.044.324l-.18-.068c0-.242.018-.463.054-.664.039-.202.096-.378.17-.526a1 1 0 01.27-.349.58.58 0 01.363-.123c.046 0 .094.005.144.014a.559.559 0 01.123.027zm-27.96 5.748V15h-1v-4.977h1zm2.472 0l-1.613 2.472-.988 1.23-.192-1.001.64-1.067.936-1.634h1.217zM5.721 15l-1.087-2.287.735-.649L6.899 15H5.722zm2.515-5.25V15h-.96V9.75h.96zm2.25 5.318a1.82 1.82 0 01-.674-.116 1.331 1.331 0 01-.492-.335 1.499 1.499 0 01-.308-.536 2.244 2.244 0 01-.106-.718v-.304c0-.301.034-.564.103-.79.068-.228.165-.42.29-.574.126-.155.28-.27.462-.345.184-.078.393-.117.625-.117.233 0 .437.04.612.117.178.075.325.189.441.341.116.15.204.338.263.561.06.223.089.483.089.78v.437H9.313v-.674h1.538v-.085c0-.15-.016-.276-.048-.376a.431.431 0 00-.15-.229.452.452 0 00-.274-.075.473.473 0 00-.242.058.4.4 0 00-.158.181c-.038.082-.067.19-.085.321-.018.13-.027.286-.027.469v.304c0 .17.015.314.044.43.03.114.073.208.13.28.06.071.131.123.215.154a1.115 1.115 0 00.749-.044c.137-.061.253-.145.348-.25l.383.582a1.492 1.492 0 01-.69.472 1.749 1.749 0 01-.56.081zm2.864-3.766V15h-.96v-3.698h.96zm-1.005-.957c0-.148.046-.27.14-.366a.51.51 0 01.383-.147c.162 0 .29.049.383.147.093.096.14.218.14.366a.502.502 0 01-.144.365.501.501 0 01-.376.144.521.521 0 01-.386-.144.509.509 0 01-.14-.365zm2.703 1.746V15h-.96v-3.698h.899l.061.79zm-.143.933l-.257.007a2.819 2.819 0 01.08-.748c.058-.221.142-.41.249-.564.109-.157.239-.277.39-.36.152-.083.322-.126.508-.126a1 1 0 01.394.076c.12.05.224.13.31.239.087.11.154.255.202.437.048.18.072.401.072.663V15h-.96v-2.358c0-.16-.016-.283-.048-.37a.32.32 0 00-.144-.184.476.476 0 00-.24-.055.397.397 0 00-.242.079c-.07.05-.13.12-.178.208-.045.09-.08.194-.106.315-.022.12-.033.25-.03.39zm4.28 1.125v-1.71c0-.11-.015-.2-.042-.266a.265.265 0 00-.116-.143.337.337 0 00-.185-.048.38.38 0 00-.205.051.313.313 0 00-.123.147.625.625 0 00-.037.23h-.96a1.118 1.118 0 01.361-.828c.121-.11.265-.195.431-.256.166-.062.353-.093.56-.093.247 0 .465.043.657.127a.977.977 0 01.454.393c.112.18.168.413.168.7v1.648c0 .207.01.376.03.506.023.13.056.242.1.335V15h-.964a1.602 1.602 0 01-.1-.383 3.567 3.567 0 01-.03-.468zm.115-1.408l.004.574h-.352a.598.598 0 00-.24.044.522.522 0 00-.27.311.805.805 0 00-.03.226.6.6 0 00.037.226.29.29 0 00.29.188.552.552 0 00.274-.065.443.443 0 00.171-.158c.039-.061.051-.118.038-.17l.218.372a1.681 1.681 0 01-.112.263 1.108 1.108 0 01-.175.253.843.843 0 01-.263.192.859.859 0 01-.366.071 1.1 1.1 0 01-.543-.136 1.013 1.013 0 01-.39-.383 1.162 1.162 0 01-.14-.585c0-.187.03-.355.089-.505a.997.997 0 01.274-.387c.12-.107.273-.189.457-.246.185-.057.401-.085.65-.085h.38zm2.495-.65V15h-.96v-3.698h.899l.061.79zm-.143.933l-.257.007a2.823 2.823 0 01.08-.748c.058-.221.141-.41.249-.564.109-.157.239-.277.39-.36.152-.083.322-.126.509-.126a1 1 0 01.393.076c.12.05.224.13.31.239.087.11.154.255.202.437.048.18.072.401.072.663V15h-.96v-2.358c0-.16-.016-.283-.048-.37a.32.32 0 00-.144-.184.476.476 0 00-.239-.055.397.397 0 00-.243.079c-.07.05-.13.12-.177.208-.046.09-.081.194-.106.315-.023.12-.033.25-.031.39zm3.654-3.274V15h-.96V9.75h.96zm2.249 5.318c-.253 0-.478-.038-.674-.116a1.331 1.331 0 01-.492-.335 1.5 1.5 0 01-.308-.536 2.245 2.245 0 01-.105-.718v-.304c0-.301.034-.564.102-.79.069-.228.165-.42.29-.574.126-.155.28-.27.462-.345.185-.078.393-.117.626-.117.232 0 .436.04.611.117.178.075.325.189.441.341.117.15.204.338.264.561.059.223.088.483.088.78v.437h-2.478v-.674h1.538v-.085c0-.15-.016-.276-.047-.376a.432.432 0 00-.15-.229.453.453 0 00-.274-.075.472.472 0 00-.243.058.4.4 0 00-.157.181c-.039.082-.067.19-.086.321a3.42 3.42 0 00-.027.469v.304c0 .17.015.314.044.43a.76.76 0 00.13.28c.06.071.131.123.216.154a1.115 1.115 0 00.748-.044 1.05 1.05 0 00.349-.25l.383.582a1.492 1.492 0 01-.69.472 1.748 1.748 0 01-.561.081zm3.804-3.766h.868V15c0 .337-.065.613-.195.827a1.134 1.134 0 01-.536.475 1.933 1.933 0 01-1.193.106 1.855 1.855 0 01-.417-.147 1.103 1.103 0 01-.332-.232l.325-.663c.089.089.205.164.348.225.144.064.285.096.424.096a.763.763 0 00.335-.065.406.406 0 00.205-.212.947.947 0 00.072-.403V12.16l.096-.858zm-2.065 1.979v-.246c0-.301.029-.564.086-.79.057-.225.139-.413.246-.564.107-.15.238-.262.393-.335.157-.075.333-.113.526-.113.203 0 .373.045.51.134a.957.957 0 01.331.365c.087.158.153.343.198.558.048.214.085.448.11.704v.355a4.245 4.245 0 01-.123.677c-.055.21-.128.392-.219.547a1.109 1.109 0 01-.335.365.854.854 0 01-.478.13c-.192 0-.365-.038-.52-.116a1.1 1.1 0 01-.393-.342 1.711 1.711 0 01-.246-.56 3.123 3.123 0 01-.086-.77zm.96-.246v.246c0 .173.011.322.032.447a.97.97 0 00.102.305.457.457 0 00.174.174.566.566 0 00.257.055c.139 0 .25-.032.331-.096a.564.564 0 00.185-.27c.041-.116.064-.25.068-.4v-.646a1.387 1.387 0 00-.044-.338.85.85 0 00-.106-.257.471.471 0 00-.178-.164.511.511 0 00-.25-.058.519.519 0 00-.252.058c-.07.039-.13.1-.178.182-.046.08-.08.183-.106.31a2.561 2.561 0 00-.034.452zm4.178 2.033a1.82 1.82 0 01-.674-.116 1.331 1.331 0 01-.492-.335 1.499 1.499 0 01-.307-.536 2.245 2.245 0 01-.107-.718v-.304c0-.301.035-.564.103-.79a1.66 1.66 0 01.29-.574c.126-.155.28-.27.462-.345.185-.078.393-.117.626-.117.232 0 .436.04.611.117.178.075.325.189.441.341.117.15.204.338.263.561.06.223.09.483.09.78v.437h-2.479v-.674h1.538v-.085c0-.15-.016-.276-.047-.376a.431.431 0 00-.15-.229.452.452 0 00-.274-.075.473.473 0 00-.243.058.399.399 0 00-.157.181c-.039.082-.067.19-.086.321-.018.13-.027.286-.027.469v.304c0 .17.015.314.044.43a.76.76 0 00.13.28c.06.071.131.123.216.154a1.115 1.115 0 00.749-.044c.136-.061.252-.145.348-.25l.383.582a1.492 1.492 0 01-.69.472 1.75 1.75 0 01-.561.081zm2.816-2.942V15h-.957v-3.698h.902l.055.824zm.872-.852l-.014.954a2.103 2.103 0 00-.315-.027.658.658 0 00-.273.051.455.455 0 00-.188.147.683.683 0 00-.11.24c-.024.095-.04.203-.044.324l-.18-.068c0-.242.017-.463.054-.664.039-.202.096-.378.17-.526.076-.15.166-.267.27-.349a.58.58 0 01.363-.123c.046 0 .093.005.144.014a.554.554 0 01.123.027zm1.445-1.527V15h-.957V9.747h.957zm1.945 1.555l-1.302 1.839-.783.878-.338-.728.601-.878.68-1.111h1.142zM40.512 15l-.806-1.699.66-.608L41.608 15h-1.097zm1.337-1.723v-.25c0-.289.034-.545.102-.768.07-.223.171-.41.301-.56.13-.153.286-.268.468-.346.185-.08.391-.12.619-.12.23 0 .436.04.619.12.184.078.341.193.471.345.132.15.234.338.304.56.071.224.106.48.106.77v.25c0 .287-.035.542-.106.765-.07.223-.172.411-.304.564-.13.153-.286.268-.468.345a1.558 1.558 0 01-.615.116c-.228 0-.434-.038-.619-.116a1.277 1.277 0 01-.472-.345 1.573 1.573 0 01-.304-.564 2.615 2.615 0 01-.102-.766zm.957-.25v.25c0 .171.011.32.034.445.025.125.06.229.106.31a.489.489 0 00.17.182.445.445 0 00.23.058c.086 0 .164-.02.232-.058a.433.433 0 00.168-.181.96.96 0 00.099-.311c.023-.126.034-.274.034-.445v-.25a2.25 2.25 0 00-.038-.437 1.034 1.034 0 00-.106-.31.481.481 0 00-.17-.185.402.402 0 00-.226-.065.402.402 0 00-.226.065.532.532 0 00-.167.184c-.046.08-.081.184-.106.311a2.48 2.48 0 00-.034.438zm3.578-.936V15h-.96v-3.698h.899l.061.79zm-.143.933l-.257.007a2.815 2.815 0 01.079-.748c.06-.221.142-.41.25-.564.109-.157.239-.277.39-.36.152-.083.322-.126.508-.126a1 1 0 01.394.076c.12.05.224.13.31.239.087.11.154.255.202.437.048.18.072.401.072.663V15h-.96v-2.358c0-.16-.016-.283-.048-.37a.32.32 0 00-.144-.184.476.476 0 00-.24-.055.397.397 0 00-.242.079c-.07.05-.13.12-.178.208-.045.09-.08.194-.105.315-.023.12-.034.25-.031.39zm4.262-1.722v.72h-1.887v-.72h1.887zm-1.453-.913h.954v3.483c0 .103.01.181.03.236a.21.21 0 00.093.116c.043.02.1.03.17.03a.638.638 0 00.226-.027v.75c-.075.029-.155.051-.239.067-.082.016-.18.024-.294.024-.191 0-.358-.036-.499-.109a.746.746 0 01-.325-.349c-.077-.161-.116-.373-.116-.635v-3.586zm3.476 4.68a1.82 1.82 0 01-.673-.117 1.331 1.331 0 01-.492-.335 1.5 1.5 0 01-.308-.536 2.245 2.245 0 01-.106-.718v-.304c0-.301.034-.564.103-.79.068-.228.165-.42.29-.574.126-.155.28-.27.462-.345.184-.078.393-.117.625-.117.233 0 .437.04.612.117.178.075.325.189.441.341.116.15.204.338.263.561.06.223.089.483.089.78v.437h-2.478v-.674h1.538v-.085c0-.15-.016-.276-.048-.376a.431.431 0 00-.15-.229.452.452 0 00-.274-.075.473.473 0 00-.242.058.4.4 0 00-.157.181c-.04.082-.068.19-.086.321a3.42 3.42 0 00-.027.469v.304c0 .17.014.314.044.43.03.114.073.208.13.28.06.071.131.123.215.154a1.115 1.115 0 00.748-.044c.138-.061.254-.145.35-.25l.382.582a1.492 1.492 0 01-.69.472 1.749 1.749 0 01-.56.081zm2.8-2.978V15h-.96v-3.698h.898l.062.79zm-.144.933l-.256.007a2.815 2.815 0 01.078-.748c.06-.221.143-.41.25-.564.11-.157.24-.277.39-.36.152-.083.322-.126.509-.126a1 1 0 01.393.076c.12.05.224.13.31.239.087.11.155.255.203.437.047.18.071.401.071.663V15h-.96v-2.358c0-.16-.016-.283-.048-.37a.32.32 0 00-.144-.184.476.476 0 00-.239-.055.397.397 0 00-.242.079c-.071.05-.13.12-.178.208-.046.09-.081.194-.106.315-.023.12-.033.25-.03.39zm5.353 1.238l.594-2.96h.998L61.112 15h-.598l.02-.738zm-.352-2.96l.605 2.963.01.735h-.602l-1.015-3.698h1.002zm3.848 3.766a1.82 1.82 0 01-.673-.116 1.331 1.331 0 01-.492-.335 1.499 1.499 0 01-.308-.536 2.245 2.245 0 01-.106-.718v-.304c0-.301.034-.564.103-.79a1.66 1.66 0 01.29-.574c.126-.155.28-.27.462-.345.184-.078.393-.117.625-.117.233 0 .436.04.612.117.178.075.325.189.44.341.117.15.205.338.264.561.06.223.089.483.089.78v.437h-2.478v-.674h1.538v-.085c0-.15-.016-.276-.048-.376a.431.431 0 00-.15-.229.452.452 0 00-.274-.075.473.473 0 00-.242.058.399.399 0 00-.158.181c-.038.082-.067.19-.085.321-.018.13-.027.286-.027.469v.304c0 .17.014.314.044.43.03.114.073.208.13.28.06.071.13.123.215.154a1.115 1.115 0 00.749-.044c.136-.061.253-.145.348-.25l.383.582a1.492 1.492 0 01-.69.472 1.75 1.75 0 01-.56.081zm2.817-2.942V15h-.957v-3.698h.902l.055.824zm.871-.852l-.013.954a2.103 2.103 0 00-.315-.027.658.658 0 00-.273.051.455.455 0 00-.188.147.683.683 0 00-.11.24c-.025.095-.04.203-.044.324l-.181-.068c0-.242.018-.463.054-.664.04-.202.096-.378.171-.526.076-.15.166-.267.27-.349a.58.58 0 01.363-.123c.045 0 .093.005.143.014a.554.554 0 01.123.027zm1.494-1.524V15h-.96V9.75h.96zm1.764 1.552V15h-.96v-3.698h.96zm-1.005-.957c0-.148.046-.27.14-.366a.51.51 0 01.383-.147c.161 0 .289.049.382.147.094.096.14.218.14.366a.502.502 0 01-.143.365.5.5 0 01-.376.144.522.522 0 01-.386-.144.51.51 0 01-.14-.365zm3.254 4.723c-.253 0-.478-.038-.674-.116a1.331 1.331 0 01-.492-.335 1.5 1.5 0 01-.308-.536 2.245 2.245 0 01-.105-.718v-.304c0-.301.034-.564.102-.79.068-.228.165-.42.29-.574.126-.155.28-.27.462-.345.184-.078.393-.117.625-.117.233 0 .437.04.612.117.178.075.325.189.441.341.116.15.204.338.263.561.06.223.09.483.09.78v.437h-2.479v-.674h1.538v-.085c0-.15-.016-.276-.047-.376a.432.432 0 00-.15-.229.453.453 0 00-.274-.075.472.472 0 00-.243.058.4.4 0 00-.157.181c-.039.082-.067.19-.086.321a3.42 3.42 0 00-.027.469v.304c0 .17.015.314.044.43.03.114.073.208.13.28.06.071.131.123.216.154a1.115 1.115 0 00.748-.044 1.05 1.05 0 00.349-.25l.383.582a1.492 1.492 0 01-.69.472 1.749 1.749 0 01-.561.081zm2.816-2.942V15h-.957v-3.698h.902l.055.824zm.872-.852l-.014.954a2.108 2.108 0 00-.314-.027.658.658 0 00-.274.051.456.456 0 00-.188.147.685.685 0 00-.11.24c-.024.095-.04.203-.044.324l-.18-.068c0-.242.017-.463.054-.664.038-.202.096-.378.17-.526.076-.15.166-.267.27-.349a.58.58 0 01.363-.123c.045 0 .093.005.143.014a.555.555 0 01.124.027zm1.91 3.794a1.82 1.82 0 01-.673-.116 1.33 1.33 0 01-.492-.335 1.499 1.499 0 01-.308-.536 2.242 2.242 0 01-.106-.718v-.304c0-.301.034-.564.103-.79a1.66 1.66 0 01.29-.574c.125-.155.28-.27.462-.345.184-.078.393-.117.625-.117.233 0 .437.04.612.117.178.075.325.189.44.341.117.15.205.338.264.561.06.223.089.483.089.78v.437h-2.478v-.674h1.538v-.085c0-.15-.016-.276-.048-.376a.431.431 0 00-.15-.229.452.452 0 00-.274-.075.473.473 0 00-.242.058.399.399 0 00-.158.181 1.12 1.12 0 00-.085.321c-.018.13-.027.286-.027.469v.304c0 .17.014.314.044.43a.76.76 0 00.13.28c.06.071.13.123.215.154a1.115 1.115 0 00.749-.044c.137-.061.253-.145.348-.25l.383.582a1.495 1.495 0 01-.69.472 1.75 1.75 0 01-.56.081zm2.8-2.977V15h-.96v-3.698h.898l.062.79zm-.144.933l-.256.007a2.823 2.823 0 01.078-.748c.06-.221.143-.41.25-.564.11-.157.239-.277.39-.36.152-.083.322-.126.509-.126a1 1 0 01.393.076c.12.05.224.13.31.239.087.11.155.255.202.437.048.18.072.401.072.663V15h-.96v-2.358c0-.16-.016-.283-.048-.37a.32.32 0 00-.144-.184.476.476 0 00-.239-.055.397.397 0 00-.243.079c-.07.05-.13.12-.177.208-.046.09-.081.194-.106.315-.023.12-.033.25-.031.39zM6.784 19.385v2.051a2.012 2.012 0 01-.84.523c-.218.073-.482.11-.794.11-.276 0-.526-.044-.752-.13a1.526 1.526 0 01-.578-.394 1.793 1.793 0 01-.365-.663 3.154 3.154 0 01-.127-.947v-.847c0-.36.04-.673.12-.94.082-.269.2-.492.355-.67.155-.178.34-.31.554-.397.216-.086.46-.13.731-.13.374 0 .68.063.92.189.241.125.424.31.547.557.125.246.2.548.225.905h-.967a1.47 1.47 0 00-.106-.492.5.5 0 00-.222-.253.773.773 0 00-.373-.078.778.778 0 00-.345.072.581.581 0 00-.246.225c-.066.105-.115.24-.147.404a3.213 3.213 0 00-.048.601v.855c0 .234.018.435.055.601.036.166.09.302.16.407a.645.645 0 00.274.229c.112.045.243.068.393.068.12 0 .218-.012.29-.037a.853.853 0 00.175-.079c.045-.03.083-.052.113-.068v-.916H5.07v-.756h1.713zm2.163 2.683a1.82 1.82 0 01-.673-.116 1.331 1.331 0 01-.492-.335 1.499 1.499 0 01-.308-.536 2.244 2.244 0 01-.106-.718v-.304c0-.301.034-.564.103-.79.068-.228.165-.42.29-.574.126-.155.28-.27.462-.345.184-.078.393-.117.625-.117.233 0 .437.04.612.117.178.075.325.189.44.341.117.15.205.338.264.561.06.223.089.483.089.78v.437H7.775v-.674h1.538v-.085c0-.15-.016-.276-.048-.376a.431.431 0 00-.15-.229.452.452 0 00-.274-.075.473.473 0 00-.242.058.4.4 0 00-.158.181c-.038.082-.067.19-.085.321-.018.13-.027.286-.027.469v.304c0 .17.014.314.044.43.03.114.073.208.13.28.06.071.131.123.215.154a1.115 1.115 0 00.749-.044c.137-.061.253-.145.348-.25l.383.582a1.492 1.492 0 01-.69.472 1.749 1.749 0 01-.56.081zm2.865-5.318V22h-.96v-5.25h.96zm2.55 4.433V16.75h.96V22l-.868.003-.093-.82zm-1.918-.902v-.246c0-.301.025-.564.075-.79a1.66 1.66 0 01.232-.564.974.974 0 01.376-.335 1.14 1.14 0 01.517-.113c.175 0 .329.045.461.134.134.086.248.208.342.365.093.158.168.343.225.558.057.214.097.448.12.704v.355c-.027.242-.07.467-.127.677-.054.21-.13.392-.225.547a1.142 1.142 0 01-.338.366.823.823 0 01-.462.13 1.11 1.11 0 01-.516-.117 1.033 1.033 0 01-.376-.342c-.1-.152-.176-.34-.229-.56a3.534 3.534 0 01-.075-.77zm.957-.246v.246c0 .173.008.322.024.448.018.123.046.224.085.304a.426.426 0 00.16.174.504.504 0 00.247.055.483.483 0 00.311-.096.586.586 0 00.178-.27c.04-.116.064-.25.068-.4v-.646a1.64 1.64 0 00-.044-.338.85.85 0 00-.106-.257.488.488 0 00-.171-.164.451.451 0 00-.233-.058.492.492 0 00-.246.058.399.399 0 00-.157.181c-.039.08-.068.184-.089.312a3.196 3.196 0 00-.027.45zm4.259-3.285h.953v4.392l-.068.858h-.885v-5.25zm2.874 3.278v.242c0 .301-.024.563-.072.787a1.61 1.61 0 01-.215.56.922.922 0 01-.37.339 1.18 1.18 0 01-.532.112.848.848 0 01-.475-.13 1.109 1.109 0 01-.335-.365 2.391 2.391 0 01-.22-.55 4.625 4.625 0 01-.119-.694v-.36c.023-.245.062-.474.116-.686.057-.212.13-.396.22-.55.088-.158.199-.28.33-.366a.841.841 0 01.476-.134c.21 0 .39.04.54.117.15.075.273.188.37.338.097.15.169.338.214.564.048.223.072.482.072.776zm-.953.242v-.242c0-.171-.007-.318-.02-.441a1.05 1.05 0 00-.076-.308.395.395 0 00-.157-.184.494.494 0 00-.264-.062.48.48 0 00-.246.058.487.487 0 00-.17.164.794.794 0 00-.103.253 1.68 1.68 0 00-.034.318v.646c.002.157.021.296.058.417.036.12.094.214.174.28.082.066.192.1.328.1a.537.537 0 00.26-.055.364.364 0 00.154-.174.895.895 0 00.075-.308 4.44 4.44 0 00.02-.462zm3.031 1.798a1.82 1.82 0 01-.673-.116 1.33 1.33 0 01-.492-.335 1.498 1.498 0 01-.308-.536 2.242 2.242 0 01-.106-.718v-.304c0-.301.034-.564.103-.79.068-.228.165-.42.29-.574.126-.155.28-.27.462-.345.184-.078.393-.117.625-.117.233 0 .436.04.612.117.178.075.325.189.44.341.117.15.205.338.264.561.06.223.089.483.089.78v.437H21.44v-.674h1.538v-.085c0-.15-.016-.276-.048-.376a.432.432 0 00-.15-.229.453.453 0 00-.274-.075.473.473 0 00-.242.058.4.4 0 00-.158.181c-.038.082-.067.19-.085.321-.018.13-.027.286-.027.469v.304c0 .17.015.314.044.43a.76.76 0 00.13.28c.06.071.131.123.215.154a1.115 1.115 0 00.748-.044c.138-.061.254-.145.35-.25l.382.582a1.493 1.493 0 01-.69.472 1.75 1.75 0 01-.56.081zm2.865-3.766V22h-.96v-3.698h.96zm-1.005-.957c0-.148.046-.27.14-.366a.51.51 0 01.383-.147c.161 0 .289.049.382.147.094.096.14.218.14.366a.502.502 0 01-.143.365.5.5 0 01-.376.144.522.522 0 01-.386-.144.51.51 0 01-.14-.365zm2.727 1.722V22h-.96v-3.698h.902l.058.765zm-.137.957l-.263.007c-.004-.26.018-.499.069-.717.05-.22.125-.41.225-.571.103-.162.232-.287.387-.376.154-.09.336-.134.543-.134.134 0 .259.026.372.076a.754.754 0 01.298.229c.084.102.15.237.195.403.045.164.068.361.068.591V22H28v-2.352c0-.164-.016-.289-.048-.375a.33.33 0 00-.137-.185.41.41 0 00-.218-.055.394.394 0 00-.24.075.547.547 0 00-.167.212 1.34 1.34 0 00-.096.315c-.02.12-.03.25-.03.39zm1.802-.095l-.345.044a2.81 2.81 0 01.065-.68c.047-.212.121-.396.222-.554.1-.16.225-.283.376-.372.152-.09.329-.134.53-.134.15 0 .287.026.41.076s.227.13.314.242c.089.11.156.254.202.434.047.18.071.4.071.657V22h-.96v-2.355c0-.166-.016-.294-.048-.383-.032-.089-.077-.149-.137-.18a.441.441 0 00-.212-.049.352.352 0 00-.215.069.54.54 0 00-.15.191c-.041.08-.072.174-.092.284-.021.107-.031.224-.031.352zm6.6.413h.995c-.014.374-.09.69-.226.947a1.369 1.369 0 01-.585.581c-.25.132-.553.198-.909.198a1.86 1.86 0 01-.735-.136 1.468 1.468 0 01-.546-.41 1.826 1.826 0 01-.342-.667 3.396 3.396 0 01-.113-.92v-.844c0-.346.04-.652.12-.92.082-.266.198-.489.348-.669a1.45 1.45 0 01.55-.41c.217-.094.46-.14.732-.14.362 0 .665.068.91.205.243.137.43.336.563.598.135.26.215.578.243.954h-.998a1.884 1.884 0 00-.082-.558.48.48 0 00-.22-.287.848.848 0 00-.416-.085.756.756 0 00-.342.072.55.55 0 00-.236.222 1.192 1.192 0 00-.136.403 3.82 3.82 0 00-.041.608v.852c0 .234.012.435.037.601a1.3 1.3 0 00.12.403.515.515 0 00.222.23.807.807 0 00.362.071.933.933 0 00.407-.075.469.469 0 00.232-.27c.05-.13.079-.315.086-.554zm2.621-3.319V22h-1.001v-4.977h1.001zm1.559 2.116v.827h-1.811v-.827h1.811zm.191-2.116v.831h-2.002v-.83h2.002zM41.72 22h-.879l.007-.827h.872c.241 0 .43-.043.564-.13a.697.697 0 00.283-.41c.057-.187.086-.432.086-.735v-.776c0-.23-.015-.425-.045-.584a.954.954 0 00-.15-.39.624.624 0 00-.284-.222 1.181 1.181 0 00-.44-.072h-.91v-.83h.91c.287 0 .547.046.782.14.235.093.437.23.605.41.169.177.299.397.39.66.09.261.137.56.137.895v.769a2.7 2.7 0 01-.137.896c-.091.26-.221.48-.39.66a1.64 1.64 0 01-.605.406c-.237.093-.502.14-.796.14zm-.298-4.977V22H40.42v-4.977h1.001zm4.632 2.444v.797h-1.665v-.797h1.665zm3.613-.427v.827h-2.041v-.827h2.04zm-1.757-2.017V22h-1.002v-4.977h1.002zm2.481 0V22H49.4v-4.977h.991zm2.4 4.126v-1.71a.71.71 0 00-.041-.266.265.265 0 00-.117-.143.337.337 0 00-.184-.048.38.38 0 00-.205.051.314.314 0 00-.123.147.627.627 0 00-.038.23h-.96a1.117 1.117 0 01.362-.828c.12-.11.264-.195.43-.256.167-.062.354-.093.561-.093.246 0 .465.043.656.127a.976.976 0 01.455.393c.112.18.167.413.167.7v1.648c0 .207.01.376.031.506.023.13.056.242.1.335V22h-.965a1.603 1.603 0 01-.099-.383 3.567 3.567 0 01-.03-.468zm.116-1.408l.003.574h-.352a.598.598 0 00-.24.044.52.52 0 00-.27.311.802.802 0 00-.03.226c0 .089.013.164.038.226a.29.29 0 00.29.188.552.552 0 00.274-.065.444.444 0 00.17-.158c.04-.061.052-.118.038-.17l.219.372a1.681 1.681 0 01-.113.263 1.115 1.115 0 01-.174.253.844.844 0 01-.263.192.859.859 0 01-.366.071 1.1 1.1 0 01-.544-.136 1.014 1.014 0 01-.39-.383 1.162 1.162 0 01-.14-.585c0-.186.03-.355.09-.505a.996.996 0 01.273-.387c.12-.107.273-.189.458-.246.184-.057.401-.085.65-.085h.379zm2.495-.65V22h-.96v-3.698h.898l.062.79zm-.144.933l-.256.007a2.815 2.815 0 01.079-.748c.059-.221.142-.41.25-.564.108-.158.238-.277.389-.36.152-.083.322-.126.509-.126a1 1 0 01.393.076c.12.05.224.13.311.239.087.11.154.255.202.437.048.18.072.401.072.663V22h-.96v-2.358c0-.16-.017-.283-.049-.37a.32.32 0 00-.143-.184.476.476 0 00-.24-.055.397.397 0 00-.242.079c-.07.05-.13.12-.178.208-.045.09-.08.194-.106.315-.023.12-.033.25-.03.39zm4.44 1.16V16.75h.96V22l-.867.003-.093-.82zm-1.917-.903v-.246c0-.301.025-.564.075-.79a1.66 1.66 0 01.232-.564.974.974 0 01.376-.335c.15-.075.323-.113.517-.113.175 0 .329.045.46.134.135.086.25.208.343.365.093.158.168.343.225.558.057.214.097.448.12.704v.355c-.027.242-.07.467-.127.677-.054.21-.13.392-.225.547a1.141 1.141 0 01-.339.366.823.823 0 01-.46.13 1.11 1.11 0 01-.517-.117 1.031 1.031 0 01-.376-.342 1.75 1.75 0 01-.229-.56 3.534 3.534 0 01-.075-.77zm.957-.246v.246c0 .173.008.322.024.448.018.123.046.224.085.304a.427.427 0 00.16.174.504.504 0 00.247.055.483.483 0 00.311-.096.586.586 0 00.178-.27c.04-.116.064-.25.068-.4v-.646a1.647 1.647 0 00-.044-.338.85.85 0 00-.106-.257.49.49 0 00-.171-.164.452.452 0 00-.233-.058.491.491 0 00-.246.058.4.4 0 00-.157.181c-.039.08-.068.184-.089.312a3.18 3.18 0 00-.027.45zm4.132 2.033a1.82 1.82 0 01-.673-.116 1.331 1.331 0 01-.492-.335 1.499 1.499 0 01-.308-.536 2.245 2.245 0 01-.106-.718v-.304c0-.301.034-.564.103-.79a1.66 1.66 0 01.29-.574c.125-.155.28-.27.462-.345.184-.078.393-.117.625-.117.232 0 .436.04.612.117.178.075.325.189.44.341.117.15.205.338.264.561.06.223.089.483.089.78v.437h-2.478v-.674h1.538v-.085c0-.15-.016-.276-.048-.376a.431.431 0 00-.15-.229.452.452 0 00-.274-.075.473.473 0 00-.242.058.399.399 0 00-.158.181c-.038.082-.067.19-.085.321-.018.13-.027.286-.027.469v.304c0 .17.014.314.044.43a.76.76 0 00.13.28c.059.071.13.123.215.154a1.115 1.115 0 00.749-.044c.136-.061.253-.145.348-.25l.383.582a1.492 1.492 0 01-.69.472 1.75 1.75 0 01-.56.081zm2.864-5.318V22h-.96v-5.25h.96zm3.336 2.317V22h-.96v-3.698h.902l.058.765zm-.136.957l-.264.007c-.004-.26.019-.499.069-.717.05-.22.125-.41.225-.571.103-.162.232-.287.387-.376.155-.09.336-.134.543-.134.135 0 .259.026.373.076a.754.754 0 01.297.229c.084.102.15.237.195.403.045.164.068.361.068.591V22h-.957v-2.352c0-.164-.016-.289-.048-.375a.33.33 0 00-.136-.185.41.41 0 00-.22-.055.394.394 0 00-.238.075.546.546 0 00-.168.212 1.35 1.35 0 00-.096.315c-.02.12-.03.25-.03.39zm1.8-.095l-.344.044c-.005-.244.017-.47.065-.68a1.73 1.73 0 01.222-.554c.1-.16.225-.283.376-.372.152-.09.329-.134.53-.134.15 0 .287.026.41.076s.228.13.314.242c.089.11.156.254.202.434.048.18.072.4.072.657V22h-.96v-2.355c0-.166-.017-.294-.049-.383-.032-.089-.077-.149-.136-.18a.441.441 0 00-.212-.049.352.352 0 00-.216.069.54.54 0 00-.15.191 1.04 1.04 0 00-.092.284c-.02.107-.031.224-.031.352zm3.573-1.627V22h-.96v-3.698h.96zm-1.005-.957c0-.148.046-.27.14-.366a.51.51 0 01.383-.147c.162 0 .29.049.383.147.093.096.14.218.14.366a.502.502 0 01-.144.365.5.5 0 01-.376.144.522.522 0 01-.386-.144.51.51 0 01-.14-.365zm3.377.957v.72H74.79v-.72h1.887zm-1.453-.913h.954v3.483c0 .103.01.181.03.236a.21.21 0 00.093.116c.043.02.1.03.17.03a.638.638 0 00.225-.027v.75c-.074.029-.154.052-.238.067-.082.016-.18.024-.294.024-.191 0-.358-.036-.499-.109a.746.746 0 01-.325-.349c-.077-.161-.116-.373-.116-.635v-3.586zM5.146 28.183V23.75h.96V29l-.867.003-.093-.82zm-1.917-.902v-.246c0-.301.025-.564.075-.79a1.66 1.66 0 01.233-.564.975.975 0 01.376-.335c.15-.075.322-.113.516-.113.175 0 .329.045.461.134.135.086.249.208.342.365.093.158.169.343.226.558.056.214.096.448.12.704v.355a4.52 4.52 0 01-.127.677c-.055.21-.13.392-.226.547a1.142 1.142 0 01-.338.366.823.823 0 01-.462.13 1.11 1.11 0 01-.516-.117 1.032 1.032 0 01-.376-.342 1.75 1.75 0 01-.229-.56 3.532 3.532 0 01-.075-.77zm.957-.246v.246c0 .173.008.322.024.448.018.123.047.224.085.304a.427.427 0 00.161.174.504.504 0 00.246.055.483.483 0 00.311-.096.586.586 0 00.178-.27 1.32 1.32 0 00.068-.4v-.646a1.647 1.647 0 00-.044-.338.85.85 0 00-.106-.257.489.489 0 00-.171-.164.452.452 0 00-.232-.058.492.492 0 00-.247.058.4.4 0 00-.157.181c-.038.08-.068.184-.089.312a3.19 3.19 0 00-.027.45zm3.647-1.733V29h-.96v-3.698h.96zm-1.005-.957c0-.148.047-.27.14-.366a.51.51 0 01.383-.147c.162 0 .29.049.383.147.093.096.14.218.14.366a.502.502 0 01-.144.365.501.501 0 01-.376.144.522.522 0 01-.386-.144.509.509 0 01-.14-.365zm3.254 4.723a1.82 1.82 0 01-.673-.116 1.331 1.331 0 01-.493-.335 1.499 1.499 0 01-.307-.536 2.244 2.244 0 01-.106-.718v-.304c0-.301.034-.564.102-.79.069-.228.166-.42.291-.574.125-.155.28-.27.461-.345.185-.078.393-.117.626-.117.232 0 .436.04.612.117.178.075.324.189.44.341.117.15.205.338.264.561.06.223.089.483.089.78v.437H8.91v-.674h1.538v-.085c0-.15-.016-.276-.048-.376a.431.431 0 00-.15-.229.452.452 0 00-.274-.075.473.473 0 00-.243.058.4.4 0 00-.157.181c-.039.082-.067.19-.085.321-.019.13-.028.286-.028.469v.304c0 .17.015.314.045.43.03.114.073.208.13.28.059.071.13.123.215.154a1.115 1.115 0 00.749-.044c.136-.061.252-.145.348-.25l.383.582a1.492 1.492 0 01-.69.472 1.75 1.75 0 01-.561.081zm3.5-1.066a.254.254 0 00-.065-.17.77.77 0 00-.205-.155 3.418 3.418 0 00-.372-.18 3.953 3.953 0 01-.448-.213 1.575 1.575 0 01-.332-.242.9.9 0 01-.201-.305 1.042 1.042 0 01-.069-.39 1.043 1.043 0 01.338-.786c.11-.102.243-.182.4-.239.16-.059.339-.089.537-.089.278 0 .516.05.714.147.2.096.355.23.462.404.107.173.16.375.16.605h-.957a.594.594 0 00-.037-.22.305.305 0 00-.123-.153.396.396 0 00-.222-.055.353.353 0 00-.311.164.318.318 0 00-.045.171c0 .05.01.095.03.134a.405.405 0 00.107.113c.048.036.112.075.191.116.082.038.183.082.301.13.246.09.448.189.605.293.16.105.278.228.356.37.077.139.116.31.116.516 0 .164-.032.313-.096.448a.974.974 0 01-.27.348c-.119.098-.26.173-.427.226a1.8 1.8 0 01-.55.078c-.299 0-.55-.059-.756-.177a1.222 1.222 0 01-.465-.455 1.172 1.172 0 01-.157-.581h.91c.004.123.026.22.068.29a.346.346 0 00.174.144.687.687 0 00.242.041.595.595 0 00.22-.034.273.273 0 00.133-.113.362.362 0 00.044-.181zm3.028 1.066a1.82 1.82 0 01-.673-.116 1.331 1.331 0 01-.492-.335 1.499 1.499 0 01-.308-.536 2.245 2.245 0 01-.106-.718v-.304c0-.301.034-.564.103-.79a1.66 1.66 0 01.29-.574c.126-.155.28-.27.462-.345.184-.078.393-.117.625-.117.233 0 .437.04.612.117.178.075.325.189.441.341.116.15.204.338.263.561.06.223.089.483.089.78v.437h-2.478v-.674h1.538v-.085c0-.15-.016-.276-.048-.376a.431.431 0 00-.15-.229.452.452 0 00-.274-.075.473.473 0 00-.242.058.399.399 0 00-.157.181c-.04.082-.068.19-.086.321-.018.13-.027.286-.027.469v.304c0 .17.014.314.044.43.03.114.073.208.13.28.06.071.131.123.215.154a1.115 1.115 0 00.749-.044c.137-.061.253-.145.349-.25l.382.582a1.492 1.492 0 01-.69.472 1.749 1.749 0 01-.56.081zm2.824-3V29h-.96v-3.698h.901l.059.765zm-.137.956l-.263.007c-.005-.26.018-.499.068-.717.05-.22.125-.41.226-.571.102-.162.23-.287.386-.376.155-.09.336-.134.543-.134.135 0 .259.026.373.076a.754.754 0 01.297.229c.085.102.15.237.195.403.046.164.068.361.068.591V29h-.957v-2.352c0-.164-.016-.289-.047-.375a.33.33 0 00-.137-.185.41.41 0 00-.219-.055.394.394 0 00-.24.075.547.547 0 00-.167.212 1.35 1.35 0 00-.095.315c-.02.12-.031.25-.031.39zm1.801-.095l-.345.044c-.005-.244.017-.47.065-.68a1.73 1.73 0 01.222-.554c.1-.16.226-.283.376-.372.153-.09.33-.134.53-.134.15 0 .287.026.41.076s.228.13.314.242c.09.11.156.254.202.434.048.18.072.4.072.657V29h-.96v-2.355c0-.166-.017-.294-.049-.383-.031-.089-.077-.149-.136-.18a.44.44 0 00-.212-.049.352.352 0 00-.215.069.54.54 0 00-.15.191c-.042.08-.073.174-.093.284-.02.107-.03.224-.03.352zm6.03-2.017L26.057 29h-1.056l1.555-4.977h.66l-.09.89zM27.971 29l-1.077-4.088-.1-.889h.67L29.036 29h-1.063zm.037-1.856v.83h-2.245v-.83h2.245zm2.229-1.053V29h-.96v-3.698h.898l.062.79zm-.144.933l-.256.007a2.815 2.815 0 01.078-.748c.06-.221.143-.41.25-.564.11-.158.24-.277.39-.36.152-.083.322-.126.509-.126a1 1 0 01.393.076c.12.05.225.13.311.239.087.11.154.255.202.437.048.18.071.401.071.663V29h-.96v-2.358c0-.16-.016-.283-.048-.37a.32.32 0 00-.143-.184.476.476 0 00-.24-.055.397.397 0 00-.242.079c-.07.05-.13.12-.178.208-.046.09-.08.194-.106.315-.023.12-.033.25-.03.39zm2.653-3.274h.953v4.392l-.068.858h-.885v-5.25zm2.874 3.278v.242c0 .301-.024.563-.072.787a1.61 1.61 0 01-.215.56.922.922 0 01-.37.339c-.15.075-.327.112-.532.112a.848.848 0 01-.476-.13 1.109 1.109 0 01-.334-.365 2.391 2.391 0 01-.22-.55 4.625 4.625 0 01-.119-.694v-.36c.023-.245.062-.474.116-.686a2.31 2.31 0 01.22-.55c.088-.158.199-.28.33-.366a.841.841 0 01.476-.134c.21 0 .39.04.54.117.15.075.273.188.369.338.098.15.17.338.215.564.048.223.072.482.072.776zm-.954.242v-.242c0-.171-.006-.318-.02-.441a1.05 1.05 0 00-.075-.308.395.395 0 00-.157-.184.495.495 0 00-.264-.062.48.48 0 00-.246.058.487.487 0 00-.17.164.794.794 0 00-.103.253c-.02.096-.032.202-.034.318v.646c.002.157.021.296.058.417.036.12.094.214.174.28.082.066.192.1.328.1a.537.537 0 00.26-.055.364.364 0 00.154-.174.895.895 0 00.075-.308 4.44 4.44 0 00.02-.462zm2.547-1.968V29h-.96v-3.698h.96zm-1.005-.957c0-.148.047-.27.14-.366a.51.51 0 01.383-.147c.162 0 .29.049.383.147.093.096.14.218.14.366a.502.502 0 01-.144.365.5.5 0 01-.376.144.522.522 0 01-.386-.144.51.51 0 01-.14-.365zm3.254 4.723a1.82 1.82 0 01-.673-.116 1.33 1.33 0 01-.493-.335 1.5 1.5 0 01-.307-.536 2.245 2.245 0 01-.106-.718v-.304c0-.301.034-.564.102-.79.069-.228.166-.42.29-.574.126-.155.28-.27.462-.345.185-.078.393-.117.626-.117.232 0 .436.04.612.117.177.075.324.189.44.341.117.15.204.338.264.561.059.223.089.483.089.78v.437H38.29v-.674h1.538v-.085c0-.15-.016-.276-.048-.376a.432.432 0 00-.15-.229.453.453 0 00-.274-.075.472.472 0 00-.243.058.4.4 0 00-.157.181c-.039.082-.067.19-.085.321-.019.13-.028.286-.028.469v.304c0 .17.015.314.045.43a.76.76 0 00.13.28c.059.071.13.123.215.154a1.115 1.115 0 00.748-.044c.137-.061.253-.145.35-.25l.382.582a1.492 1.492 0 01-.69.472 1.748 1.748 0 01-.561.081zm3.472-3.766v.72H41.05v-.72h1.886zm-1.452-.913h.954v3.483c0 .103.01.181.03.236a.21.21 0 00.093.116c.043.02.1.03.17.03a.644.644 0 00.226-.027v.75a1.32 1.32 0 01-.24.067c-.081.016-.18.024-.293.024-.192 0-.358-.036-.5-.109a.746.746 0 01-.324-.349c-.077-.161-.116-.373-.116-.635v-3.586zm3.476 4.68c-.253 0-.477-.04-.673-.117a1.331 1.331 0 01-.492-.335 1.5 1.5 0 01-.308-.536 2.245 2.245 0 01-.106-.718v-.304c0-.301.034-.564.102-.79.069-.228.166-.42.29-.574.126-.155.28-.27.462-.345.185-.078.393-.117.626-.117.232 0 .436.04.612.117.177.075.324.189.44.341.117.15.205.338.264.561.059.223.089.483.089.78v.437h-2.478v-.674h1.538v-.085c0-.15-.016-.276-.048-.376a.432.432 0 00-.15-.229.453.453 0 00-.274-.075.472.472 0 00-.243.058.4.4 0 00-.157.181c-.039.082-.067.19-.085.321a3.42 3.42 0 00-.028.469v.304c0 .17.015.314.045.43.03.114.073.208.13.28.059.071.13.123.215.154a1.115 1.115 0 00.748-.044c.137-.061.253-.145.35-.25l.382.582a1.492 1.492 0 01-.69.472 1.749 1.749 0 01-.561.081zm2.816-2.944V29h-.957v-3.698h.903l.054.823zm.872-.85l-.014.953a2.108 2.108 0 00-.314-.027.658.658 0 00-.274.051.456.456 0 00-.188.147.685.685 0 00-.109.24c-.025.095-.04.203-.044.324l-.181-.069c0-.241.018-.462.054-.663.039-.202.096-.378.171-.526.075-.15.165-.266.27-.349a.58.58 0 01.362-.123c.046 0 .094.005.144.014a.555.555 0 01.123.027zm-.02 3.236c0-.15.05-.276.15-.376a.542.542 0 01.407-.154c.17 0 .306.052.406.154.1.1.15.226.15.376a.51.51 0 01-.15.376.55.55 0 01-.406.15.55.55 0 01-.407-.15.51.51 0 01-.15-.376zm5.926-.769c0-.248-.067-.439-.201-.57-.135-.133-.378-.262-.728-.387-.351-.125-.62-.256-.807-.393a1.444 1.444 0 01-.417-.472 1.315 1.315 0 01-.137-.608c0-.394.131-.719.393-.974.265-.255.61-.383 1.036-.383.292 0 .551.066.78.198.227.13.402.311.526.544.123.232.184.487.184.765h-.629c0-.307-.074-.545-.222-.714-.148-.169-.361-.253-.64-.253-.252 0-.448.07-.587.212-.139.141-.209.34-.209.595 0 .21.076.385.226.526.15.141.383.268.697.38.49.161.84.36 1.05.598.212.237.317.546.317.93 0 .403-.13.726-.393.97-.262.242-.618.362-1.07.362-.289 0-.556-.062-.803-.188a1.466 1.466 0 01-.577-.533 1.497 1.497 0 01-.209-.79h.63c0 .308.085.548.256.718.173.171.407.257.704.257.275 0 .483-.07.622-.212s.208-.334.208-.578zM56.577 29h-.605v-3.698h.605V29zm.047-4.68a.387.387 0 01-.085.257c-.057.068-.144.103-.26.103-.114 0-.2-.035-.256-.103a.387.387 0 01-.086-.256c0-.103.029-.19.086-.26.057-.07.142-.106.256-.106.114 0 .2.037.257.11.059.07.088.155.088.256zm2.229 4.748c-.46 0-.813-.136-1.06-.41-.246-.276-.371-.679-.376-1.21V27c0-.55.12-.983.36-1.295.24-.314.577-.472 1.008-.472.433 0 .756.138.97.414.215.276.324.705.328 1.289v.396H58.02v.085c0 .397.074.685.222.865.15.18.366.27.646.27.178 0 .334-.033.468-.099a1.18 1.18 0 00.383-.321l.315.383c-.262.369-.662.553-1.2.553zm-.068-3.315c-.251 0-.437.087-.557.26-.121.17-.19.437-.206.8h1.456v-.082c-.015-.351-.08-.602-.19-.753-.11-.15-.278-.225-.503-.225zm5.43 2.3a.447.447 0 00-.146-.335c-.098-.093-.287-.203-.568-.328-.325-.134-.555-.25-.69-.345a.995.995 0 01-.297-.325.912.912 0 01-.1-.437c0-.301.11-.55.329-.749.22-.2.502-.3.844-.3.36 0 .65.104.868.314.219.21.328.478.328.807h-.601a.59.59 0 00-.168-.424.561.561 0 00-.427-.178.6.6 0 00-.42.14.474.474 0 00-.15.37.41.41 0 00.108.297c.076.075.255.174.537.297.449.175.754.347.916.516a.874.874 0 01.243.636c0 .321-.11.579-.332.772-.22.192-.517.287-.888.287-.386 0-.698-.11-.937-.331a1.095 1.095 0 01-.359-.841h.609c.006.205.07.366.188.482.118.116.284.174.499.174.2 0 .353-.044.458-.133a.46.46 0 00.157-.366zm1.269-1.073c0-.538.13-.963.39-1.275.262-.314.607-.472 1.035-.472.429 0 .773.153 1.032.458.263.306.397.722.404 1.248v.39c0 .535-.13.959-.39 1.271-.26.312-.606.468-1.039.468-.428 0-.772-.151-1.032-.454-.258-.303-.391-.713-.4-1.23v-.404zm.605.349c0 .38.074.68.222.898.15.217.352.325.605.325.533 0 .808-.385.824-1.155v-.417c0-.378-.075-.677-.226-.896a.698.698 0 00-.605-.331c-.248 0-.448.11-.598.331-.148.22-.222.517-.222.893v.352zM69.777 29h-.605v-5.25h.605V29zm1.606 0h-.605v-5.25h.605V29zm1.747-4.594v.896h.557v.489h-.557v2.293c0 .146.024.256.072.332.047.075.13.112.246.112.08 0 .16-.013.242-.04l-.006.512a1.32 1.32 0 01-.42.068c-.24 0-.422-.085-.548-.256-.125-.17-.188-.412-.188-.725v-2.296h-.564v-.49h.564v-.895h.602zm2.601 4.662c-.46 0-.813-.136-1.06-.41-.246-.276-.371-.679-.376-1.21V27c0-.55.12-.983.36-1.295.24-.314.577-.472 1.008-.472.433 0 .756.138.97.414.215.276.324.705.328 1.289v.396h-2.064v.085c0 .397.074.685.222.865.15.18.366.27.646.27.178 0 .334-.033.468-.099a1.18 1.18 0 00.383-.321l.315.383c-.262.369-.662.553-1.2.553zm-.068-3.315c-.251 0-.437.087-.557.26-.121.17-.19.437-.206.8h1.456v-.082c-.015-.351-.08-.602-.191-.753-.11-.15-.277-.225-.502-.225zm2.597-.451l.017.4c.235-.313.535-.469.9-.469.653 0 .985.437.994 1.31V29h-.602v-2.43c0-.29-.049-.495-.147-.615-.095-.123-.24-.185-.434-.185a.62.62 0 00-.406.15c-.119.1-.215.232-.288.393V29h-.605v-3.698h.571zM5.338 35.675c-.2.262-.493.393-.879.393-.334 0-.587-.115-.758-.345-.171-.232-.258-.57-.26-1.012v-2.41h.601v2.366c0 .576.174.865.52.865.367 0 .62-.164.759-.492v-2.738h.605V36h-.574l-.014-.325zm-1.75-4.361c0-.103.03-.188.092-.256.064-.071.157-.106.28-.106.123 0 .217.035.28.106a.361.361 0 01.096.256.361.361 0 01-.095.256c-.064.069-.157.103-.28.103-.124 0-.217-.034-.28-.103a.369.369 0 01-.093-.256zm1.47.007c0-.103.03-.19.092-.26.064-.07.157-.106.28-.106.123 0 .217.035.28.106.064.07.096.157.096.26a.361.361 0 01-.096.256c-.063.068-.157.103-.28.103-.123 0-.216-.035-.28-.103a.369.369 0 01-.092-.256zm4.457 3.008c0 .576-.104 1.01-.311 1.302-.208.291-.509.437-.903.437a.957.957 0 01-.882-.505L7.39 36h-.55v-5.25h.6v1.959a.95.95 0 01.855-.476c.406 0 .71.144.913.431.203.287.305.72.308 1.299v.366zm-.602-.346c0-.437-.061-.748-.184-.933-.121-.187-.318-.28-.592-.28-.312 0-.544.169-.697.506v1.76c.15.333.385.5.704.5.273 0 .47-.096.588-.288.118-.191.179-.489.181-.892v-.373zm2.697 2.085c-.46 0-.814-.136-1.06-.41-.246-.276-.371-.679-.376-1.21v-.447c0-.552.12-.984.36-1.296.24-.314.577-.472 1.007-.472.433 0 .757.138.971.414.214.276.324.705.328 1.288v.397h-2.064v.085c0 .397.074.685.222.865.15.18.366.27.646.27.178 0 .334-.033.468-.099a1.18 1.18 0 00.383-.321l.315.383c-.263.369-.662.553-1.2.553zm-.069-3.315c-.25 0-.436.087-.557.26-.12.17-.189.437-.205.8h1.456v-.083c-.016-.35-.08-.601-.191-.752-.11-.15-.277-.225-.503-.225zm3.555.116a1.476 1.476 0 00-.273-.024c-.31 0-.527.17-.65.51V36h-.605v-3.698h.588l.01.376c.162-.296.391-.445.688-.445.095 0 .175.016.239.048l.003.588zM16.354 36h-.605v-5.25h.605V36zm2.276.068c-.46 0-.813-.136-1.06-.41-.245-.276-.37-.679-.375-1.21v-.447c0-.552.12-.984.359-1.296.241-.314.577-.472 1.008-.472.433 0 .756.138.97.414.215.276.324.705.329 1.288v.397h-2.065v.085c0 .397.074.685.223.865.15.18.365.27.646.27.177 0 .333-.033.468-.099a1.18 1.18 0 00.383-.321l.314.383c-.262.369-.662.553-1.2.553zm-.068-3.315c-.25 0-.436.087-.557.26-.12.17-.19.437-.205.8h1.456v-.083c-.016-.35-.08-.601-.192-.752-.109-.15-.276-.225-.502-.225zm1.907 1.23c0-.576.105-1.011.315-1.305.21-.296.516-.445.92-.445.375 0 .661.161.857.482l.03-.413h.548v3.732c0 .458-.118.81-.352 1.053-.235.246-.562.37-.981.37-.183 0-.388-.047-.616-.138a1.274 1.274 0 01-.509-.331l.246-.417c.25.246.528.369.83.369.504 0 .763-.275.777-.824v-.482a.949.949 0 01-.834.434c-.383 0-.682-.143-.896-.43-.214-.29-.326-.704-.335-1.244v-.41zm.605.346c0 .414.06.72.181.916.123.193.324.29.602.29.3 0 .526-.154.677-.461v-1.85c-.157-.302-.38-.454-.67-.454-.278 0-.479.098-.602.294-.123.194-.186.492-.188.895v.37zm4.29 1.74c-.46 0-.814-.137-1.06-.41-.246-.276-.371-.68-.376-1.21V34c0-.552.12-.984.36-1.296.24-.314.577-.472 1.007-.472.433 0 .757.138.971.414.214.276.324.705.328 1.288v.397H24.53v.085c0 .397.074.685.222.865.15.18.366.27.646.27.178 0 .334-.033.468-.099a1.18 1.18 0 00.383-.321l.315.383c-.263.369-.663.553-1.2.553zm-.069-3.316c-.25 0-.436.087-.557.26-.12.17-.189.437-.205.8h1.456v-.083c-.016-.35-.08-.601-.191-.752-.11-.15-.277-.225-.503-.225zm2.598-.451l.017.4c.235-.313.535-.469.9-.469.653 0 .985.437.994 1.31V36h-.602v-2.43c0-.29-.049-.495-.147-.615-.096-.123-.24-.185-.434-.185a.62.62 0 00-.407.15c-.118.1-.214.232-.287.393V36h-.605v-3.698h.571zm2.827 4.69l-.36-.247c.215-.298.327-.606.336-.923v-.57h.618v.495c0 .23-.056.46-.17.69a1.6 1.6 0 01-.424.554zm2.847-3.012c0-.538.13-.963.39-1.275.262-.314.607-.472 1.035-.472.429 0 .773.153 1.032.458.262.306.397.722.404 1.248v.39c0 .535-.13.959-.39 1.271-.26.312-.606.468-1.039.468-.428 0-.772-.151-1.032-.454-.258-.303-.391-.713-.4-1.23v-.404zm.605.349c0 .38.074.68.222.898.15.217.352.325.605.325.533 0 .808-.385.824-1.155v-.417c0-.378-.075-.677-.226-.895a.698.698 0 00-.605-.332c-.248 0-.448.11-.598.331-.148.22-.222.517-.222.893v.352zm5.715 0c0 .576-.104 1.01-.311 1.302-.208.291-.508.437-.903.437a.957.957 0 01-.882-.505l-.03.437h-.55v-5.25h.601v1.959a.95.95 0 01.855-.476c.405 0 .71.144.912.431.203.287.305.72.308 1.299v.366zm-.602-.346c0-.437-.061-.748-.184-.933-.121-.187-.318-.28-.592-.28-.312 0-.544.169-.697.506v1.76c.15.333.385.5.704.5.274 0 .47-.096.588-.288.118-.191.179-.489.181-.892v-.373zm5.24.76c0-.25-.067-.44-.202-.572-.134-.132-.377-.26-.728-.386-.35-.125-.62-.256-.806-.393a1.444 1.444 0 01-.417-.472 1.314 1.314 0 01-.137-.608c0-.394.13-.719.393-.974.264-.255.61-.383 1.036-.383.291 0 .551.066.779.198.228.13.403.311.526.544.123.232.185.487.185.765h-.63c0-.307-.073-.545-.221-.714-.148-.169-.361-.253-.64-.253-.252 0-.448.07-.587.212-.14.141-.209.34-.209.595 0 .21.075.385.226.526.15.141.383.268.697.38.49.161.84.36 1.05.598.211.237.317.547.317.93 0 .403-.13.726-.393.97-.262.242-.619.362-1.07.362-.29 0-.557-.062-.803-.188a1.466 1.466 0 01-.578-.533 1.497 1.497 0 01-.208-.79h.629c0 .308.085.547.256.718.173.171.408.257.704.257.276 0 .483-.07.622-.212.14-.142.209-.334.209-.578zM46.548 36h-.605v-3.698h.605V36zm.048-4.68a.387.387 0 01-.085.257c-.057.068-.144.103-.26.103-.114 0-.2-.035-.256-.103a.387.387 0 01-.086-.256c0-.103.029-.19.086-.26.057-.07.142-.106.256-.106.114 0 .2.037.256.11.06.07.09.155.09.256zm2.229 4.748c-.46 0-.814-.136-1.06-.41-.246-.276-.371-.679-.376-1.21v-.447c0-.552.12-.984.359-1.296.242-.314.578-.472 1.008-.472.433 0 .757.138.971.414.214.276.324.705.328 1.288v.397h-2.064v.085c0 .397.074.685.222.865.15.18.366.27.646.27.178 0 .334-.033.468-.099a1.18 1.18 0 00.383-.321l.314.383c-.262.369-.662.553-1.2.553zm-.069-3.315c-.25 0-.436.087-.557.26-.12.17-.189.437-.205.8h1.456v-.083c-.016-.35-.08-.601-.191-.752-.11-.15-.277-.225-.503-.225zm4.956 3.315c-.46 0-.813-.136-1.06-.41-.245-.276-.37-.679-.375-1.21v-.447c0-.552.12-.984.359-1.296.241-.314.577-.472 1.008-.472.433 0 .757.138.97.414.215.276.324.705.329 1.288v.397h-2.065v.085c0 .397.075.685.223.865.15.18.365.27.646.27.177 0 .333-.033.468-.099a1.18 1.18 0 00.383-.321l.314.383c-.262.369-.662.553-1.2.553zm-.068-3.315c-.25 0-.436.087-.557.26-.12.17-.19.437-.205.8h1.456v-.083c-.016-.35-.08-.601-.191-.752-.11-.15-.277-.225-.503-.225zm3.825 2.3a.447.447 0 00-.147-.335c-.098-.093-.287-.203-.568-.328-.325-.134-.556-.25-.69-.345a.994.994 0 01-.297-.325.912.912 0 01-.1-.437c0-.301.11-.55.329-.749.22-.2.502-.3.844-.3.36 0 .65.104.868.314.219.21.328.478.328.806h-.601a.59.59 0 00-.168-.423.561.561 0 00-.427-.178.6.6 0 00-.42.14.474.474 0 00-.151.37.41.41 0 00.11.297c.075.075.254.174.536.297.449.175.754.347.916.516a.875.875 0 01.243.636c0 .321-.11.579-.332.772-.22.192-.517.287-.889.287-.385 0-.697-.11-.936-.331a1.095 1.095 0 01-.359-.841h.608c.007.205.07.366.189.482.118.116.284.174.498.174.201 0 .354-.044.459-.133a.46.46 0 00.157-.366zm4.799 0a.447.447 0 00-.147-.335c-.098-.093-.288-.203-.568-.328-.326-.134-.556-.25-.69-.345a.994.994 0 01-.298-.325.912.912 0 01-.099-.437c0-.301.11-.55.328-.749.222-.2.503-.3.845-.3.36 0 .65.104.868.314.219.21.328.478.328.806h-.602a.589.589 0 00-.167-.423.561.561 0 00-.427-.178.6.6 0 00-.42.14.474.474 0 00-.151.37.41.41 0 00.11.297c.074.075.253.174.536.297.449.175.754.347.916.516a.874.874 0 01.243.636c0 .321-.111.579-.332.772-.221.192-.517.287-.889.287-.385 0-.697-.11-.936-.331a1.095 1.095 0 01-.36-.841h.61c.006.205.069.366.187.482.119.116.285.174.5.174.2 0 .352-.044.457-.133a.46.46 0 00.158-.366zm2.047.947h-.605v-3.698h.605V36zm.048-4.68a.387.387 0 01-.086.257c-.057.068-.143.103-.26.103-.113 0-.199-.035-.256-.103a.387.387 0 01-.085-.256c0-.103.028-.19.085-.26.057-.07.143-.106.257-.106.114 0 .199.037.256.11.06.07.089.155.089.256zm2.19 4.232c.201 0 .362-.061.483-.184.12-.126.186-.303.198-.534h.57a1.26 1.26 0 01-.379.886 1.197 1.197 0 01-.871.348c-.458 0-.808-.143-1.05-.43-.239-.29-.359-.72-.359-1.289v-.407c0-.558.12-.982.36-1.271.239-.292.587-.438 1.045-.438.379 0 .678.12.9.36.222.238.341.565.355.98h-.571c-.014-.273-.08-.478-.198-.615a.603.603 0 00-.486-.205c-.269 0-.468.089-.598.267-.13.175-.197.464-.201.868v.471c0 .436.063.743.19.923.13.18.335.27.613.27zm2.554-2.87c.23-.3.524-.449.882-.449.654 0 .985.437.994 1.31V36h-.601v-2.43c0-.29-.05-.495-.147-.615-.096-.123-.24-.185-.434-.185a.62.62 0 00-.407.15c-.118.1-.214.232-.287.393V36h-.605v-5.25h.605v1.931zM4.104 43h-.605v-5.25h.605V43zm2.276.068c-.46 0-.813-.136-1.06-.41-.245-.276-.37-.679-.375-1.21v-.447c0-.552.12-.984.359-1.296.241-.314.577-.472 1.008-.472.433 0 .757.138.97.414.215.276.324.705.329 1.288v.397H5.546v.085c0 .397.074.685.223.865.15.18.365.27.646.27.177 0 .333-.033.468-.099a1.18 1.18 0 00.383-.321l.314.383c-.262.369-.662.553-1.2.553zm-.068-3.315c-.25 0-.436.087-.557.26-.12.17-.19.437-.205.8h1.456v-.083c-.016-.35-.08-.601-.192-.752-.109-.15-.276-.225-.502-.225zM8.992 43h-.605v-3.698h.605V43zm.048-4.68a.387.387 0 01-.086.257c-.057.069-.143.103-.26.103-.114 0-.2-.035-.256-.103a.387.387 0 01-.085-.256.4.4 0 01.085-.26c.057-.07.142-.106.256-.106.114 0 .2.037.257.11.059.07.089.156.089.256zm2.703 3.733a.447.447 0 00-.147-.335c-.098-.093-.287-.203-.567-.328-.326-.134-.556-.25-.69-.345a.994.994 0 01-.298-.325.912.912 0 01-.1-.437c0-.301.11-.55.329-.749.221-.2.503-.3.844-.3.36 0 .65.104.868.314.22.21.329.478.329.806h-.602a.589.589 0 00-.168-.423.561.561 0 00-.427-.178.6.6 0 00-.42.14.474.474 0 00-.15.37.41.41 0 00.109.297c.075.075.254.174.537.297.448.175.754.347.915.516a.874.874 0 01.243.636c0 .321-.11.579-.331.772-.221.192-.518.287-.89.287-.384 0-.696-.11-.936-.331a1.095 1.095 0 01-.358-.841h.608c.007.205.07.366.188.482.118.116.285.174.499.174.2 0 .353-.044.458-.133a.46.46 0 00.157-.366zm2.188-3.647v.896h.557v.489h-.557v2.293c0 .146.024.256.071.331.048.076.13.113.246.113.08 0 .161-.013.243-.04l-.007.512a1.32 1.32 0 01-.42.068c-.24 0-.422-.085-.547-.256-.125-.17-.188-.412-.188-.725V39.79h-.564v-.488h.564v-.896h.602zm2.6 4.662c-.46 0-.813-.136-1.059-.41-.246-.276-.371-.679-.376-1.21v-.447c0-.552.12-.984.36-1.296.24-.314.577-.472 1.007-.472.433 0 .757.138.971.414.214.276.324.705.328 1.288v.397h-2.064v.085c0 .397.074.685.222.865.15.18.366.27.646.27.178 0 .334-.033.468-.099a1.18 1.18 0 00.383-.321l.314.383c-.262.369-.662.553-1.2.553zm-.068-3.315c-.25 0-.436.087-.557.26-.12.17-.189.437-.205.8h1.456v-.083c-.016-.35-.08-.601-.191-.752-.11-.15-.277-.225-.503-.225zm2.598-.451l.017.4c.235-.313.535-.469.9-.469.653 0 .985.437.994 1.31V43h-.602v-2.43c0-.29-.049-.495-.147-.615-.096-.123-.24-.185-.434-.185a.62.62 0 00-.407.15c-.118.1-.214.232-.287.393V43h-.605v-3.698h.571zm5.356 2.006l-.321.37V43h-.605v-5.25h.605v3.141l1.152-1.59h.724l-1.176 1.546L26.126 43h-.704l-1.005-1.692zm2.102-.328c0-.538.13-.963.39-1.275.262-.314.607-.472 1.035-.472.429 0 .773.153 1.033.458.262.306.396.722.403 1.248v.39c0 .535-.13.959-.39 1.271-.26.312-.606.468-1.039.468-.428 0-.772-.151-1.032-.454-.258-.303-.39-.713-.4-1.23v-.404zm.605.349c0 .38.074.68.222.898.15.217.352.325.605.325.533 0 .808-.385.824-1.155v-.417c0-.378-.075-.677-.226-.895a.698.698 0 00-.605-.332c-.248 0-.447.11-.598.331-.148.22-.222.517-.222.893v.352zm-.308-3.015a.37.37 0 01.093-.256c.064-.071.157-.106.28-.106.123 0 .216.035.28.106a.361.361 0 01.096.256.361.361 0 01-.096.256c-.064.069-.157.103-.28.103-.123 0-.216-.034-.28-.103a.369.369 0 01-.093-.256zm1.47.007c0-.103.03-.19.092-.26.064-.07.158-.106.28-.106.124 0 .217.035.281.106.064.07.096.157.096.26a.361.361 0 01-.096.256c-.064.069-.157.103-.28.103-.123 0-.217-.035-.28-.103a.369.369 0 01-.093-.256zm2.444.98l.017.4c.235-.312.534-.468.899-.468.654 0 .986.437.995 1.31V43h-.602v-2.43c0-.29-.049-.495-.147-.615-.096-.123-.24-.185-.434-.185a.62.62 0 00-.407.15c-.118.1-.214.232-.287.393V43h-.605v-3.698h.571zm3.39 0l.018.4c.234-.312.534-.468.899-.468.654 0 .985.437.994 1.31V43h-.601v-2.43c0-.29-.05-.495-.147-.615-.096-.123-.24-.185-.434-.185a.62.62 0 00-.407.15c-.119.1-.214.232-.287.393V43h-.605v-3.698h.57zm4.143 3.767c-.46 0-.813-.136-1.06-.41-.245-.276-.37-.679-.375-1.21v-.447c0-.552.12-.984.358-1.296.242-.314.578-.472 1.009-.472.433 0 .756.138.97.414.215.276.324.705.329 1.288v.397h-2.065v.085c0 .397.074.685.222.865.15.18.366.27.646.27.178 0 .334-.033.469-.099a1.18 1.18 0 00.382-.321l.315.383c-.262.369-.662.553-1.2.553zm-.068-3.315c-.25 0-.437.087-.557.26-.121.17-.19.437-.205.8h1.456v-.083c-.016-.35-.08-.601-.192-.752-.11-.15-.277-.225-.502-.225zm2.597-.451l.018.4c.234-.313.534-.469.898-.469.654 0 .986.437.995 1.31V43h-.601v-2.43c0-.29-.05-.495-.147-.615-.096-.123-.24-.185-.434-.185a.62.62 0 00-.407.15c-.119.1-.214.232-.287.393V43h-.605v-3.698h.57zm2.827 4.69l-.359-.247c.214-.298.326-.606.335-.923v-.57h.619v.495c0 .23-.057.46-.171.69a1.6 1.6 0 01-.424.554zm2.847-3.009c0-.57.106-1.003.318-1.302.214-.298.52-.448.92-.448a.95.95 0 01.827.431V37.75h.605V43h-.554l-.03-.397a.952.952 0 01-.852.465c-.383 0-.683-.148-.902-.444-.217-.299-.327-.719-.332-1.261v-.38zm.605.346c0 .414.062.72.185.916.123.193.323.29.601.29.301 0 .526-.151.674-.454v-1.867c-.155-.296-.378-.444-.67-.444-.278 0-.479.098-.602.294-.123.194-.185.492-.188.895v.37zM51.97 43a1.334 1.334 0 01-.078-.403c-.215.314-.488.471-.82.471-.336 0-.598-.093-.787-.28-.187-.189-.28-.454-.28-.796 0-.376.128-.675.383-.896.255-.22.605-.334 1.049-.338h.444v-.393c0-.221-.049-.379-.147-.472-.098-.093-.247-.14-.447-.14a.615.615 0 00-.445.164.538.538 0 00-.17.41h-.606c0-.189.056-.369.168-.54.112-.173.262-.309.451-.407.19-.098.4-.147.632-.147.379 0 .666.095.862.284.198.187.3.46.304.82v1.867c.002.284.04.532.116.741V43h-.629zm-.806-.482a.8.8 0 00.423-.123.76.76 0 00.294-.308v-.881h-.341c-.288.004-.514.07-.68.194a.609.609 0 00-.25.52c0 .21.042.362.126.458.085.093.227.14.428.14zm4.057-.465a.447.447 0 00-.147-.335c-.098-.093-.287-.203-.568-.328-.326-.134-.556-.25-.69-.345a.995.995 0 01-.297-.325.912.912 0 01-.1-.437c0-.301.11-.55.329-.749.22-.2.502-.3.844-.3.36 0 .65.104.868.314.219.21.328.478.328.806h-.602a.59.59 0 00-.167-.423.561.561 0 00-.427-.178.6.6 0 00-.42.14.474.474 0 00-.151.37.41.41 0 00.11.297c.075.075.253.174.536.297.449.175.754.347.916.516a.874.874 0 01.243.636c0 .321-.11.579-.332.772-.22.192-.517.287-.889.287-.385 0-.697-.11-.936-.331a1.095 1.095 0 01-.359-.841h.608c.007.205.07.366.188.482.119.116.285.174.5.174.2 0 .353-.044.458-.133a.46.46 0 00.157-.366zm3.606-2.372c.23-.298.524-.448.882-.448.654 0 .985.437.994 1.31V43h-.601v-2.43c0-.29-.05-.495-.147-.615-.096-.123-.24-.185-.434-.185a.62.62 0 00-.407.15c-.119.1-.214.232-.287.393V43h-.605v-5.25h.605v1.931zm2.652 1.299c0-.538.13-.963.39-1.275.262-.314.607-.472 1.035-.472.429 0 .773.153 1.032.458.263.306.397.722.404 1.248v.39c0 .535-.13.959-.39 1.271-.26.312-.606.468-1.039.468-.428 0-.772-.151-1.032-.454-.258-.303-.39-.713-.4-1.23v-.404zm.605.349c0 .38.074.68.222.898.15.217.352.325.605.325.533 0 .808-.385.824-1.155v-.417c0-.378-.075-.677-.226-.895a.698.698 0 00-.605-.332c-.248 0-.447.11-.598.331-.148.22-.222.517-.222.893v.352zm3.64-1.648c.23-.298.524-.448.882-.448.654 0 .986.437.995 1.31V43h-.602v-2.43c0-.29-.049-.495-.147-.615-.096-.123-.24-.185-.434-.185a.62.62 0 00-.407.15c-.118.1-.214.232-.287.393V43h-.605v-5.25h.605v1.931zm4.102 3.387c-.46 0-.814-.136-1.06-.41-.246-.276-.371-.679-.376-1.21v-.447c0-.552.12-.984.359-1.296.242-.314.578-.472 1.008-.472.433 0 .757.138.971.414.214.276.324.705.328 1.288v.397h-2.064v.085c0 .397.074.685.222.865.15.18.366.27.646.27.178 0 .334-.033.468-.099a1.18 1.18 0 00.383-.321l.314.383c-.262.369-.662.553-1.2.553zm-.069-3.315c-.25 0-.436.087-.557.26-.12.17-.189.437-.205.8h1.456v-.083c-.016-.35-.08-.601-.191-.752-.11-.15-.277-.225-.503-.225zM5.041 47.987h-.875V50h-.63v-4.977h1.395c.488 0 .857.128 1.108.383.25.253.376.625.376 1.114 0 .308-.069.577-.206.807-.134.228-.325.4-.574.516L6.6 49.96V50h-.673l-.885-2.013zm-.875-.537h.758c.262 0 .47-.084.626-.253.157-.168.236-.394.236-.677 0-.638-.29-.957-.869-.957h-.751v1.887zM7.823 50h-.605v-3.698h.605V50zm.048-4.68a.387.387 0 01-.086.257c-.057.069-.143.103-.26.103-.114 0-.199-.035-.256-.103a.387.387 0 01-.085-.256.4.4 0 01.085-.26c.057-.07.142-.106.256-.106.114 0 .2.037.257.11.059.07.089.156.089.256zm2.703 3.733a.447.447 0 00-.147-.335c-.098-.093-.287-.203-.567-.328-.326-.134-.556-.25-.69-.345a.994.994 0 01-.298-.325.912.912 0 01-.1-.437c0-.301.11-.55.33-.749.22-.2.502-.3.843-.3.36 0 .65.104.868.314.22.21.329.478.329.806h-.602a.59.59 0 00-.167-.423.561.561 0 00-.428-.178.6.6 0 00-.42.14.474.474 0 00-.15.37c0 .122.036.221.109.297.075.075.254.174.537.297.448.175.754.347.915.516a.874.874 0 01.243.636c0 .321-.11.579-.331.772-.221.192-.518.287-.889.287-.385 0-.697-.11-.937-.331a1.095 1.095 0 01-.358-.841h.608c.007.205.07.366.188.482.118.116.285.174.499.174.2 0 .353-.044.458-.133a.46.46 0 00.157-.366zm2.048.947h-.605v-3.698h.605V50zm.047-4.68a.387.387 0 01-.085.257c-.057.069-.144.103-.26.103-.114 0-.2-.035-.256-.103a.387.387 0 01-.086-.256.4.4 0 01.086-.26c.057-.07.142-.106.256-.106.114 0 .2.037.257.11.059.07.088.156.088.256zm1.836 2.988l-.321.37V50h-.605v-5.25h.605v3.141l1.151-1.59h.725l-1.176 1.546L16.214 50h-.704l-1.005-1.692zm2.102-.328c0-.538.13-.963.39-1.275.262-.314.607-.472 1.035-.472.429 0 .773.153 1.032.458.262.306.397.722.404 1.248v.39c0 .535-.13.959-.39 1.271-.26.312-.606.468-1.039.468-.428 0-.772-.151-1.032-.454-.258-.303-.391-.713-.4-1.23v-.404zm.605.349c0 .38.074.68.222.898.15.217.352.325.605.325.533 0 .808-.385.824-1.155v-.417c0-.378-.075-.677-.226-.895a.698.698 0 00-.605-.332c-.248 0-.448.11-.598.331-.148.22-.222.517-.222.893v.352zm5.964 1.74c-.46 0-.813-.137-1.06-.41-.245-.276-.37-.68-.375-1.21V48c0-.552.12-.984.359-1.296.241-.314.577-.472 1.008-.472.433 0 .756.138.97.414.215.276.324.705.329 1.288v.397h-2.065v.085c0 .397.074.685.223.865.15.18.365.27.645.27.178 0 .334-.033.469-.099a1.18 1.18 0 00.383-.321l.314.383c-.262.369-.662.553-1.2.553zm-.068-3.316c-.25 0-.436.087-.557.26-.121.17-.19.437-.205.8h1.456v-.083c-.016-.35-.08-.601-.192-.752-.109-.15-.276-.225-.502-.225zM25.788 50h-.605v-3.698h.605V50zm.047-4.68a.387.387 0 01-.085.257c-.057.069-.144.103-.26.103-.114 0-.2-.035-.256-.103a.387.387 0 01-.086-.256.4.4 0 01.086-.26c.057-.07.142-.106.256-.106.114 0 .2.037.257.11.059.07.088.156.088.256zm1.477.982l.017.4c.235-.313.534-.469.899-.469.654 0 .985.437.995 1.31V50h-.602v-2.43c0-.29-.049-.495-.147-.615-.096-.123-.24-.185-.434-.185a.62.62 0 00-.407.15c-.118.1-.214.232-.287.393V50h-.605v-3.698h.571zm3.38 3.182h1.785V50h-2.475v-.465l1.695-2.71h-1.681v-.523h2.392v.447l-1.716 2.735zm4.403.191c-.2.262-.494.393-.879.393-.335 0-.588-.115-.758-.345-.171-.232-.258-.57-.26-1.012v-2.41h.601v2.366c0 .576.173.865.52.865.367 0 .62-.164.759-.492v-2.738h.605V50h-.575l-.013-.325zm1.377-1.692c0-.576.105-1.011.315-1.305.21-.296.516-.445.92-.445.375 0 .661.161.857.482l.03-.413h.548v3.732c0 .458-.118.81-.352 1.053-.235.246-.562.37-.981.37-.183 0-.388-.047-.616-.138a1.274 1.274 0 01-.509-.331l.246-.417c.25.246.528.369.83.369.504 0 .763-.275.777-.824v-.482a.948.948 0 01-.834.434c-.383 0-.682-.143-.896-.43-.214-.29-.326-.704-.335-1.244v-.41zm.605.346c0 .414.06.72.181.916.123.193.324.29.602.29.3 0 .526-.154.677-.461v-1.85c-.158-.302-.38-.454-.67-.454-.278 0-.479.098-.602.294-.123.194-.186.492-.188.895v.37zm4.29 1.74c-.46 0-.814-.137-1.06-.41-.246-.276-.371-.68-.376-1.21V48c0-.552.12-.984.359-1.296.242-.314.578-.472 1.008-.472.433 0 .757.138.971.414.214.276.324.705.328 1.288v.397h-2.064v.085c0 .397.074.685.222.865.15.18.366.27.646.27.178 0 .334-.033.468-.099a1.18 1.18 0 00.383-.321l.314.383c-.262.369-.662.553-1.2.553zm-.069-3.316c-.25 0-.436.087-.557.26-.12.17-.189.437-.205.8h1.456v-.083c-.016-.35-.08-.601-.191-.752-.11-.15-.277-.225-.503-.225zm2.632-.072c.23-.298.524-.448.882-.448.654 0 .986.437.995 1.31V50h-.602v-2.43c0-.29-.049-.495-.147-.615-.096-.123-.24-.185-.434-.185a.62.62 0 00-.407.15c-.118.1-.214.232-.287.393V50h-.605v-5.25h.605v1.931zm4.102 3.387c-.46 0-.814-.136-1.06-.41-.246-.276-.371-.679-.376-1.21v-.447c0-.552.12-.984.36-1.296.24-.314.577-.472 1.007-.472.433 0 .757.138.971.414.214.276.324.705.328 1.288v.397h-2.064v.085c0 .397.074.685.222.865.15.18.366.27.646.27.178 0 .334-.033.468-.099a1.18 1.18 0 00.383-.321l.314.383c-.262.369-.662.553-1.2.553zm-.069-3.315c-.25 0-.436.087-.557.26-.12.17-.189.437-.205.8h1.456v-.083c-.016-.35-.08-.601-.191-.752-.11-.15-.277-.225-.503-.225zm2.598-.451l.017.4c.235-.313.534-.469.9-.469.653 0 .985.437.994 1.31V50h-.602v-2.43c0-.29-.049-.495-.147-.615-.096-.123-.24-.185-.434-.185a.62.62 0 00-.407.15c-.118.1-.214.232-.287.393V50h-.605v-3.698h.571zm2.827 4.69l-.36-.247c.215-.298.327-.606.336-.923v-.57h.618v.495c0 .23-.056.46-.17.69-.112.23-.253.415-.424.554zM57.1 50h-.626v-4.977h.626V50zm1.616-3.319c.23-.298.524-.448.882-.448.654 0 .986.437.995 1.31V50h-.602v-2.43c0-.29-.049-.495-.147-.615-.096-.123-.24-.185-.434-.185a.62.62 0 00-.407.15c-.118.1-.214.232-.287.393V50h-.605v-5.25h.605v1.931zm4.307.188a1.476 1.476 0 00-.274-.024c-.31 0-.526.17-.649.51V50h-.605v-3.698h.588l.01.376c.162-.296.391-.445.687-.445.096 0 .176.016.24.048l.003.588zm5.41 2.512l-.109.137c-.314.367-.775.55-1.38.55-.538 0-.961-.177-1.269-.533-.305-.358-.461-.862-.468-1.514v-.977c0-.698.139-1.22.417-1.566.28-.349.698-.523 1.254-.523.474 0 .845.132 1.111.397.27.264.417.641.445 1.13h-.626c-.025-.309-.112-.55-.26-.724-.145-.175-.368-.263-.666-.263-.358 0-.62.117-.786.352-.167.233-.253.605-.26 1.118v1.015c0 .501.096.886.287 1.155.191.267.466.4.824.4.337 0 .593-.082.769-.246l.092-.085v-1.149h-.91v-.533h1.536v1.86zm2.26.687c-.46 0-.814-.136-1.06-.41-.246-.276-.371-.679-.376-1.21v-.447c0-.552.12-.984.36-1.296.24-.314.577-.472 1.007-.472.434 0 .757.138.971.414.214.276.324.705.328 1.288v.397H69.86v.085c0 .397.074.685.222.865.15.18.366.27.646.27.178 0 .334-.033.468-.099a1.18 1.18 0 00.383-.321l.315.383c-.263.369-.662.553-1.2.553zm-.069-3.315c-.25 0-.436.087-.557.26-.12.17-.189.437-.205.8h1.456v-.083c-.016-.35-.08-.601-.191-.752-.11-.15-.277-.225-.502-.225zM73.305 50H72.7v-5.25h.605V50zm.827-2.017c0-.57.106-1.003.318-1.302.214-.298.52-.448.92-.448a.95.95 0 01.827.431V44.75h.605V50h-.554l-.03-.397a.952.952 0 01-.852.465c-.383 0-.683-.148-.902-.444-.217-.299-.327-.719-.332-1.261v-.38zm.605.346c0 .414.062.72.185.916.123.193.323.29.601.29.301 0 .526-.151.674-.454v-1.867c-.155-.296-.379-.444-.67-.444-.278 0-.479.098-.602.294-.123.194-.185.492-.188.895v.37zM4.012 56.484h1.784V57H3.32v-.465l1.696-2.71H3.335v-.523h2.393v.447l-1.716 2.735zm4.402.191c-.2.262-.493.393-.878.393-.335 0-.588-.115-.76-.345-.17-.232-.257-.57-.259-1.012v-2.41h.602v2.366c0 .576.173.865.52.865.366 0 .619-.164.758-.492v-2.738h.605V57h-.574l-.014-.325zm4.153-.594l.7-2.78h.616L12.786 57h-.451l-1.111-3.698h.615l.728 2.779zm3.268.987c-.46 0-.814-.136-1.06-.41-.246-.276-.372-.679-.376-1.21v-.447c0-.552.12-.984.359-1.296.241-.314.577-.472 1.008-.472.433 0 .757.138.97.414.215.276.324.705.329 1.288v.397H15v.085c0 .397.075.685.223.865.15.18.365.27.646.27.177 0 .334-.033.468-.099a1.18 1.18 0 00.383-.321l.314.383c-.262.369-.662.553-1.2.553zm-.069-3.315c-.25 0-.436.087-.557.26-.12.17-.19.437-.205.8h1.456v-.083c-.016-.35-.08-.601-.191-.752-.11-.15-.277-.225-.503-.225zm3.555.116a1.476 1.476 0 00-.274-.024c-.31 0-.526.17-.65.51V57h-.604v-3.698h.588l.01.376c.162-.296.39-.445.687-.445.096 0 .176.016.24.048l.003.588zM20.579 57h-.605v-5.25h.605V57zm1.606 0h-.605v-3.698h.605V57zm.048-4.68a.387.387 0 01-.085.257c-.058.069-.144.103-.26.103-.114 0-.2-.035-.257-.103a.387.387 0 01-.085-.256c0-.103.028-.19.085-.26.057-.07.143-.106.257-.106.114 0 .2.037.256.11.06.07.089.156.089.256zm2.228 4.748c-.46 0-.813-.136-1.06-.41-.245-.276-.37-.679-.375-1.21v-.447c0-.552.12-.984.359-1.296.241-.314.577-.472 1.008-.472.433 0 .757.138.97.414.215.276.324.705.329 1.288v.397h-2.065v.085c0 .397.075.685.223.865.15.18.365.27.646.27.177 0 .333-.033.468-.099a1.18 1.18 0 00.383-.321l.314.383c-.262.369-.662.553-1.2.553zm-.068-3.315c-.25 0-.436.087-.557.26-.12.17-.19.437-.205.8h1.456v-.083c-.016-.35-.08-.601-.192-.752-.109-.15-.276-.225-.502-.225zm3.555.116a1.477 1.477 0 00-.274-.024c-.31 0-.526.17-.65.51V57h-.604v-3.698h.588l.01.376c.162-.296.39-.445.687-.445.096 0 .176.016.24.048l.003.588zm1.927 3.2c-.46 0-.813-.137-1.06-.41-.245-.276-.37-.68-.375-1.21V55c0-.552.12-.984.359-1.296.241-.314.578-.472 1.008-.472.433 0 .757.138.97.414.215.276.324.705.329 1.288v.397h-2.065v.085c0 .397.075.685.223.865.15.18.365.27.646.27.177 0 .334-.033.468-.099a1.18 1.18 0 00.383-.321l.314.383c-.262.369-.662.553-1.2.553zm-.068-3.316c-.25 0-.436.087-.557.26-.12.17-.19.437-.205.8H30.5v-.083c-.016-.35-.08-.601-.191-.752-.11-.15-.277-.225-.503-.225zm2.598-.451l.017.4c.235-.313.534-.469.899-.469.654 0 .985.437.994 1.31V57h-.601v-2.43c0-.29-.05-.495-.147-.615-.096-.123-.24-.185-.434-.185a.62.62 0 00-.407.15c-.118.1-.214.232-.287.393V57h-.605v-3.698h.57zm2.86 3.367a.4.4 0 01.096-.274c.066-.073.164-.11.294-.11.13 0 .228.037.294.11a.384.384 0 01.103.273.363.363 0 01-.103.264c-.066.07-.164.106-.294.106-.13 0-.228-.036-.294-.106a.378.378 0 01-.095-.264z" fill="#000"/></svg>