<svg width="28" height="9" viewBox="0 0 28 9" fill="none" xmlns="http://www.w3.org/2000/svg"><path d="M19.171 3.424h-1.42C17.364 1.294 15.734 0 13.272 0c-2.769 0-4.559 1.772-4.559 4.51 0 2.738 1.734 4.47 4.559 4.456 2.302 0 3.935-1.216 4.421-3.208h.961l.294-.78H17.82a6.103 6.103 0 00.017-.778h1.054l.28-.779v.003zM15.202 4.98H13.69l-.293.78h1.724c-.193 1.166-.715 1.972-1.795 1.972-1.426 0-1.985-1.45-1.985-3.247 0-1.798.448-3.236 1.888-3.248 1.133 0 1.719.906 1.912 2.187h-1.226l-.28.779h1.574a10.074 10.074 0 01-.007.779V4.98zM.883 8.966h2.474v-3.26h4.21V3.731h-4.21v-1.45h4.657V.202H.883v8.764zM26.052 5.772c1.104-.457 1.83-1.33 1.83-2.631v-.027c0-.832-.265-1.503-.783-1.987C26.5.549 25.547.2 24.191.2H19.97v8.765h2.475V6.161h1.09L24.877 9h2.852L26.05 5.772h.002zm-.644-2.485c0 .631-.489 1.02-1.328 1.02h-1.637V2.241h1.622c.84 0 1.343.35 1.343 1.02v.026z" fill="#fff"/></svg>