<svg width="47" height="17" viewBox="0 0 47 17" fill="none" xmlns="http://www.w3.org/2000/svg"><path d="M31.54 6.587h-2.417C28.46 2.8 25.684.5 21.488.5c-4.716 0-7.766 3.15-7.766 8.017 0 4.868 2.955 7.948 7.766 7.923 3.922 0 6.705-2.162 7.533-5.704h1.638l.5-1.385h-1.921a11.305 11.305 0 00.03-1.384h1.796l.477-1.385v.005zm-6.76 2.769h-2.577l-.5 1.384h2.938c-.33 2.074-1.219 3.508-3.058 3.508-2.43 0-3.382-2.579-3.382-5.774s.762-5.751 3.217-5.774c1.93 0 2.927 1.612 3.257 3.889h-2.09l-.477 1.385h2.683c.004.165.009.33.009.5 0 .302-.007.596-.02.884v-.002zM.383 16.44h4.216v-5.797h7.171V7.135H4.6V4.556h7.932V.858H.382V16.44zM43.263 10.76c1.882-.81 3.12-2.363 3.12-4.676v-.048c0-1.48-.453-2.672-1.335-3.533C44.025 1.477 42.403.858 40.094.858H32.9V16.44h4.217v-4.988h1.857l2.287 5.048h4.86l-2.86-5.74h.002zm-1.097-4.416c0 1.122-.832 1.813-2.262 1.813h-2.79V4.484h2.765c1.43 0 2.287.62 2.287 1.813v.047z" fill="#fff"/></svg>