<svg width="136" height="74" viewBox="0 0 136 74" fill="none" xmlns="http://www.w3.org/2000/svg"><path d="M.48 2.648h5.184V17h2.76V2.648h5.184V.2H.48v2.448zm19.945 2.064c-2.015 0-3 .816-3.623 1.848l-.288-1.848H14.21V17H16.8v-6.168c0-1.896.745-3.696 3.049-3.696H21V4.712h-.576zm13.032 10.032c-.528 0-.792-.168-.792-.792v-4.92c0-2.904-1.872-4.464-5.136-4.464-3.096 0-5.16 1.488-5.424 3.888h2.544c.192-1.08 1.224-1.8 2.76-1.8 1.704 0 2.688.84 2.688 2.208v.744h-3.096c-3.432 0-5.256 1.416-5.256 3.936 0 2.28 1.872 3.6 4.56 3.6 1.992 0 3.24-.864 4.056-2.112 0 1.224.576 1.968 2.256 1.968h1.368v-2.256h-.528zm-3.36-2.784c-.024 1.896-1.272 3.168-3.432 3.168-1.416 0-2.28-.72-2.28-1.752 0-1.248.888-1.848 2.496-1.848h3.216v.432zM44.64 6.416c-.792-1.08-2.112-1.848-3.984-1.848-3.336 0-5.808 2.496-5.808 6.288 0 3.936 2.472 6.288 5.808 6.288 1.944 0 3.216-.912 4.008-1.992L44.975 17h2.256V.2H44.64v6.216zm-3.552 8.544c-2.16 0-3.576-1.68-3.576-4.104 0-2.4 1.416-4.08 3.576-4.08s3.576 1.68 3.576 4.128c0 2.376-1.416 4.056-3.576 4.056zm14.51 2.184c3.047 0 5.111-1.848 5.543-4.272h-2.592c-.36 1.368-1.512 2.16-3.096 2.16-2.04 0-3.36-1.368-3.432-3.456v-.168h9.264c.048-.336.072-.672.072-.984-.072-3.6-2.448-5.856-6-5.856-3.624 0-6.048 2.52-6.048 6.312 0 3.768 2.424 6.264 6.288 6.264zm-3.48-7.632c.191-1.752 1.607-2.856 3.263-2.856 1.8 0 3.072 1.032 3.288 2.856h-6.552zm28.707 5.232c-.528 0-.792-.168-.792-.792v-4.92c0-2.904-1.872-4.464-5.136-4.464-3.096 0-5.16 1.488-5.424 3.888h2.544c.192-1.08 1.224-1.8 2.76-1.8 1.704 0 2.688.84 2.688 2.208v.744h-3.096c-3.432 0-5.256 1.416-5.256 3.936 0 2.28 1.872 3.6 4.56 3.6 1.992 0 3.24-.864 4.056-2.112 0 1.224.576 1.968 2.256 1.968h1.368v-2.256h-.528zm-3.36-2.784c-.024 1.896-1.272 3.168-3.432 3.168-1.416 0-2.28-.72-2.28-1.752 0-1.248.888-1.848 2.496-1.848h3.216v.432zM89.22 4.568c-1.92 0-3.096.864-3.864 1.92V.2h-2.592V17h2.592v-6.216c0-2.472 1.248-3.984 3.288-3.984 1.92 0 2.952 1.248 2.952 3.576V17h2.592v-6.84c0-4.104-2.232-5.592-4.968-5.592zm13.064 12.576c3.048 0 5.112-1.848 5.544-4.272h-2.592c-.36 1.368-1.512 2.16-3.096 2.16-2.04 0-3.36-1.368-3.432-3.456v-.168h9.264c.048-.336.072-.672.072-.984-.072-3.6-2.448-5.856-6-5.856-3.624 0-6.048 2.52-6.048 6.312 0 3.768 2.424 6.264 6.288 6.264zm-3.48-7.632c.192-1.752 1.608-2.856 3.264-2.856 1.8 0 3.072 1.032 3.288 2.856h-6.552zm22.567 5.232c-.528 0-.792-.168-.792-.792v-4.92c0-2.904-1.872-4.464-5.136-4.464-3.096 0-5.16 1.488-5.424 3.888h2.544c.192-1.08 1.224-1.8 2.76-1.8 1.704 0 2.688.84 2.688 2.208v.744h-3.096c-3.432 0-5.256 1.416-5.256 3.936 0 2.28 1.872 3.6 4.56 3.6 1.992 0 3.24-.864 4.056-2.112 0 1.224.576 1.968 2.256 1.968h1.368v-2.256h-.528zm-3.36-2.784c-.024 1.896-1.272 3.168-3.432 3.168-1.416 0-2.28-.72-2.28-1.752 0-1.248.888-1.848 2.496-1.848h3.216v.432zm14.542-5.544c-.792-1.08-2.112-1.848-3.984-1.848-3.336 0-5.808 2.496-5.808 6.288 0 3.936 2.472 6.288 5.808 6.288 1.944 0 3.216-.912 4.008-1.992l.312 1.848h2.256V.2h-2.592v6.216zm-3.552 8.544c-2.16 0-3.576-1.68-3.576-4.104 0-2.4 1.416-4.08 3.576-4.08s3.576 1.68 3.576 4.128c0 2.376-1.416 4.056-3.576 4.056zM7.08 43.144c3.744 0 6.264-2.52 6.264-6.288 0-3.744-2.52-6.288-6.264-6.288S.816 33.112.816 36.856c0 3.768 2.52 6.288 6.264 6.288zm0-2.208c-2.184 0-3.6-1.704-3.6-4.08 0-2.376 1.416-4.08 3.6-4.08s3.624 1.704 3.624 4.08c0 2.376-1.44 4.08-3.624 4.08zm7.006-7.944h2.136V43h2.616V32.992h3.288v-2.28h-3.335V29.68c0-.84.36-1.2 1.2-1.2h2.136V26.2h-2.473c-2.375 0-3.431 1.152-3.431 3.36v1.152h-2.136v2.28zm16.41 6.672c0 2.232 1.008 3.336 3.36 3.336h2.4v-2.28h-1.824c-.984 0-1.32-.36-1.32-1.32v-6.408h3v-2.28h-3V27.28h-2.616v3.432H28.36v2.28h2.136v6.672zm13.865-9.096c-1.92 0-3.096.864-3.864 1.92V26.2h-2.592V43h2.592v-6.216c0-2.472 1.248-3.984 3.288-3.984 1.92 0 2.952 1.248 2.952 3.576V43h2.592v-6.84c0-4.104-2.232-5.592-4.968-5.592zm13.063 12.576c3.048 0 5.112-1.848 5.544-4.272h-2.592c-.36 1.368-1.512 2.16-3.096 2.16-2.04 0-3.36-1.368-3.432-3.456v-.168h9.264c.048-.336.072-.672.072-.984-.072-3.6-2.448-5.856-6-5.856-3.624 0-6.048 2.52-6.048 6.312 0 3.768 2.424 6.264 6.288 6.264zm-3.48-7.632c.192-1.752 1.608-2.856 3.264-2.856 1.8 0 3.072 1.032 3.288 2.856h-6.552zM71.684 43h2.76v-6.096h3.696L81.38 43h3.072L80.9 36.304c1.968-.696 3.264-2.496 3.264-4.752 0-3.264-2.352-5.352-5.856-5.352h-6.624V43zm6.408-14.4c1.968 0 3.24 1.152 3.24 2.952s-1.272 2.952-3.24 2.952h-3.648V28.6h3.648zM86.638 43h6.384c4.056 0 6.24-1.824 6.24-4.8 0-2.4-1.536-3.576-3.528-3.888 1.752-.48 2.88-1.68 2.88-3.672 0-2.76-2.112-4.44-5.808-4.44h-6.168V43zm6.24-14.496c1.92 0 2.976.912 2.976 2.4 0 1.512-1.08 2.424-2.976 2.424h-3.48v-4.824h3.48zm.168 7.104c2.136 0 3.384.912 3.384 2.568 0 1.56-1.176 2.496-3.384 2.496h-3.648v-5.064h3.648zM102.634 43l1.56-4.152h6.888L112.666 43h2.952l-6.264-16.8h-3.288L99.778 43h2.856zm4.992-13.824l2.688 7.32h-5.352l2.664-7.32zM15.408 56.568c-2.016 0-3.408.888-4.2 2.232-.744-1.584-2.184-2.232-3.792-2.232-1.848.024-2.904.84-3.6 1.752l-.288-1.608H1.272V69h2.592v-6.576c0-2.184 1.104-3.624 2.88-3.624 1.704 0 2.592 1.128 2.592 3.288V69h2.616v-6.648c0-2.208 1.128-3.552 2.904-3.552 1.68 0 2.568 1.128 2.568 3.288V69h2.592v-7.08c0-3.888-2.064-5.352-4.608-5.352zm12.696 12.576c3.048 0 5.112-1.848 5.544-4.272h-2.592c-.36 1.368-1.512 2.16-3.096 2.16-2.04 0-3.36-1.368-3.432-3.456v-.168h9.264c.048-.336.072-.672.072-.984-.072-3.6-2.448-5.856-6-5.856-3.624 0-6.048 2.52-6.048 6.312 0 3.768 2.424 6.264 6.288 6.264zm-3.48-7.632c.192-1.752 1.608-2.856 3.264-2.856 1.8 0 3.072 1.032 3.288 2.856h-6.552zm17.168 7.632c3.047 0 5.111-1.848 5.544-4.272h-2.593c-.36 1.368-1.512 2.16-3.096 2.16-2.04 0-3.36-1.368-3.431-3.456v-.168h9.264c.048-.336.072-.672.072-.984-.072-3.6-2.449-5.856-6-5.856-3.624 0-6.048 2.52-6.048 6.312 0 3.768 2.424 6.264 6.288 6.264zm-3.48-7.632c.192-1.752 1.608-2.856 3.264-2.856 1.8 0 3.072 1.032 3.288 2.856h-6.552zm12.13 4.152c0 2.232 1.007 3.336 3.36 3.336h2.4v-2.28h-1.825c-.984 0-1.32-.36-1.32-1.32v-6.408h3v-2.28h-3V53.28h-2.616v3.432h-2.136v2.28h2.136v6.672zm8.728-10.68c.888 0 1.584-.648 1.584-1.56s-.696-1.56-1.584-1.56c-.888 0-1.584.648-1.584 1.56s.696 1.56 1.584 1.56zM57.85 69h2.592V56.712H57.85V69zm11.613-12.432c-1.992 0-3.168.792-3.936 1.752l-.288-1.608h-2.256V69h2.592v-6.192c0-2.496 1.224-4.008 3.288-4.008 1.944 0 2.928 1.248 2.928 3.576V69h2.616v-6.84c0-4.104-2.232-5.592-4.944-5.592zm16.685 2.064c-.792-1.224-2.112-2.064-4.032-2.064-3.336 0-5.808 2.472-5.808 6.24 0 3.912 2.472 6.24 5.808 6.24 1.92 0 3.192-.792 4.008-2.016V68.4c0 2.352-1.272 3.432-3.528 3.432-1.824 0-3.024-.792-3.336-2.16h-2.64c.24 2.76 2.52 4.272 5.784 4.272 4.416 0 6.288-2.112 6.288-5.448V56.712h-2.256l-.288 1.92zm-3.6 8.232c-2.16 0-3.576-1.656-3.576-4.056 0-2.376 1.416-4.056 3.576-4.056s3.576 1.68 3.576 4.104c0 2.352-1.416 4.008-3.576 4.008z" fill="#000"/></svg>