<svg width="540" height="71" viewBox="0 0 540 71" fill="none" xmlns="http://www.w3.org/2000/svg"><path d="M2.048 31h3.68v-8.128h4.928L14.976 31h4.096l-4.736-8.928c2.624-.928 4.352-3.328 4.352-6.336 0-4.352-3.136-7.136-7.808-7.136H2.048V31zm8.544-19.2c2.624 0 4.32 1.536 4.32 3.936s-1.696 3.936-4.32 3.936H5.728V11.8h4.864zm18.036 19.392c4.064 0 6.816-2.464 7.392-5.696h-3.456c-.48 1.824-2.016 2.88-4.128 2.88-2.72 0-4.48-1.824-4.576-4.608v-.224h12.352c.064-.448.096-.896.096-1.312-.096-4.8-3.264-7.808-8-7.808-4.832 0-8.064 3.36-8.064 8.416 0 5.024 3.232 8.352 8.384 8.352zm-4.64-10.176c.256-2.336 2.144-3.808 4.352-3.808 2.4 0 4.096 1.376 4.384 3.808h-8.736zm30.09 6.976c-.704 0-1.056-.224-1.056-1.056v-6.56c0-3.872-2.496-5.952-6.848-5.952-4.128 0-6.88 1.984-7.232 5.184h3.392c.256-1.44 1.632-2.4 3.68-2.4 2.272 0 3.584 1.12 3.584 2.944v.992H45.47c-4.576 0-7.008 1.888-7.008 5.248 0 3.04 2.496 4.8 6.08 4.8 2.656 0 4.32-1.152 5.408-2.816 0 1.632.768 2.624 3.008 2.624h1.824v-3.008h-.704zm-4.48-3.712c-.032 2.528-1.696 4.224-4.576 4.224-1.888 0-3.04-.96-3.04-2.336 0-1.664 1.184-2.464 3.328-2.464h4.288v.576zm19.39-7.392c-1.056-1.44-2.816-2.464-5.312-2.464-4.448 0-7.744 3.328-7.744 8.384 0 5.248 3.296 8.384 7.744 8.384 2.592 0 4.288-1.216 5.344-2.656L69.436 31h3.008V8.6h-3.456v8.288zM64.252 28.28c-2.88 0-4.768-2.24-4.768-5.472 0-3.2 1.888-5.44 4.768-5.44s4.768 2.24 4.768 5.504c0 3.168-1.888 5.408-4.768 5.408zm16.305 2.816l-.64 1.6c-.512 1.344-.832 1.664-2.176 1.664h-2.432v3.04h3.712c2.4 0 3.104-1.184 4.128-3.84l7.424-18.944h-3.68l-4.448 12.448-4.576-12.448h-3.68l6.368 16.48zm21.136-4.544c0 2.976 1.343 4.448 4.48 4.448h3.2v-3.04h-2.432c-1.312 0-1.76-.48-1.76-1.76v-8.544h4v-3.04h-4V10.04h-3.488v4.576h-2.849v3.04h2.849v8.896zm17.278 4.64c4.992 0 8.352-3.36 8.352-8.384 0-4.992-3.36-8.384-8.352-8.384-4.992 0-8.352 3.392-8.352 8.384 0 5.024 3.36 8.384 8.352 8.384zm0-2.944c-2.912 0-4.8-2.272-4.8-5.44 0-3.168 1.888-5.44 4.8-5.44s4.832 2.272 4.832 5.44c0 3.168-1.92 5.44-4.832 5.44zm20.503-1.696c0 2.976 1.344 4.448 4.48 4.448h3.2v-3.04h-2.432c-1.312 0-1.76-.48-1.76-1.76v-8.544h4v-3.04h-4V10.04h-3.488v4.576h-2.848v3.04h2.848v8.896zm18.166-11.936c-2.688 0-4 1.088-4.832 2.464l-.384-2.464h-3.072V31h3.456v-8.224c0-2.528.992-4.928 4.064-4.928h1.536v-3.232h-.768zm17.376 13.376c-.704 0-1.056-.224-1.056-1.056v-6.56c0-3.872-2.496-5.952-6.848-5.952-4.128 0-6.88 1.984-7.232 5.184h3.392c.256-1.44 1.632-2.4 3.68-2.4 2.272 0 3.584 1.12 3.584 2.944v.992h-4.128c-4.576 0-7.008 1.888-7.008 5.248 0 3.04 2.496 4.8 6.08 4.8 2.656 0 4.32-1.152 5.408-2.816 0 1.632.768 2.624 3.008 2.624h1.824v-3.008h-.704zm-4.48-3.712c-.032 2.528-1.696 4.224-4.576 4.224-1.888 0-3.04-.96-3.04-2.336 0-1.664 1.184-2.464 3.328-2.464h4.288v.576zm19.389-7.392c-1.056-1.44-2.816-2.464-5.312-2.464-4.448 0-7.744 3.328-7.744 8.384 0 5.248 3.296 8.384 7.744 8.384 2.592 0 4.288-1.216 5.344-2.656l.416 2.464h3.008V8.6h-3.456v8.288zm-4.736 11.392c-2.88 0-4.768-2.24-4.768-5.472 0-3.2 1.888-5.44 4.768-5.44s4.768 2.24 4.768 5.504c0 3.168-1.888 5.408-4.768 5.408zm19.346 2.912c4.064 0 6.816-2.464 7.392-5.696h-3.456c-.48 1.824-2.016 2.88-4.128 2.88-2.72 0-4.48-1.824-4.577-4.608v-.224h12.353c.064-.448.096-.896.096-1.312-.096-4.8-3.264-7.808-8-7.808-4.832 0-8.064 3.36-8.064 8.416 0 5.024 3.232 8.352 8.384 8.352zm-4.64-10.176c.256-2.336 2.144-3.808 4.352-3.808 2.4 0 4.096 1.376 4.384 3.808h-8.736zm24.485 5.536c0 2.976 1.344 4.448 4.48 4.448h3.2v-3.04h-2.432c-1.312 0-1.76-.48-1.76-1.76v-8.544h4v-3.04h-4V10.04h-3.488v4.576h-2.848v3.04h2.848v8.896zm18.487-12.128c-2.56 0-4.128 1.152-5.152 2.56V8.6h-3.456V31h3.456v-8.288c0-3.296 1.664-5.312 4.384-5.312 2.56 0 3.936 1.664 3.936 4.768V31h3.456v-9.12c0-5.472-2.976-7.456-6.624-7.456zm17.418 16.768c4.064 0 6.816-2.464 7.392-5.696h-3.456c-.48 1.824-2.016 2.88-4.128 2.88-2.72 0-4.48-1.824-4.577-4.608v-.224h12.353c.064-.448.096-.896.096-1.312-.096-4.8-3.264-7.808-8-7.808-4.832 0-8.064 3.36-8.064 8.416 0 5.024 3.232 8.352 8.384 8.352zm-4.64-10.176c.256-2.336 2.144-3.808 4.352-3.808 2.4 0 4.096 1.376 4.384 3.808h-8.736zm31.589-6.4c-2.688 0-4 1.088-4.832 2.464l-.384-2.464h-3.072V31h3.456v-8.224c0-2.528.992-4.928 4.064-4.928h1.536v-3.232h-.768zm9.894 16.576c4.064 0 6.816-2.464 7.392-5.696h-3.456c-.48 1.824-2.016 2.88-4.128 2.88-2.72 0-4.48-1.824-4.576-4.608v-.224h12.352c.064-.448.096-.896.096-1.312-.096-4.8-3.264-7.808-8-7.808-4.832 0-8.064 3.36-8.064 8.416 0 5.024 3.232 8.352 8.384 8.352zm-4.64-10.176c.256-2.336 2.144-3.808 4.352-3.808 2.4 0 4.096 1.376 4.384 3.808h-8.736zm30.09 6.976c-.704 0-1.056-.224-1.056-1.056v-6.56c0-3.872-2.496-5.952-6.848-5.952-4.128 0-6.88 1.984-7.232 5.184h3.392c.256-1.44 1.632-2.4 3.68-2.4 2.272 0 3.584 1.12 3.584 2.944v.992h-4.128c-4.576 0-7.008 1.888-7.008 5.248 0 3.04 2.496 4.8 6.08 4.8 2.656 0 4.32-1.152 5.408-2.816 0 1.632.768 2.624 3.008 2.624h1.824v-3.008h-.704zm-4.48-3.712c-.032 2.528-1.696 4.224-4.576 4.224-1.888 0-3.04-.96-3.04-2.336 0-1.664 1.184-2.464 3.328-2.464h4.288v.576zm7.067 6.72h3.456V8.6h-3.456V31zm33.879-16.576c-2.688 0-4.544 1.184-5.6 2.976-.992-2.112-2.912-2.976-5.056-2.976-2.464.032-3.872 1.12-4.8 2.336l-.384-2.144h-3.008V31h3.456v-8.768c0-2.912 1.472-4.832 3.84-4.832 2.272 0 3.456 1.504 3.456 4.384V31h3.488v-8.864c0-2.944 1.504-4.736 3.872-4.736 2.24 0 3.424 1.504 3.424 4.384V31h3.456v-9.44c0-5.184-2.752-7.136-6.144-7.136zm24.253 13.568c-.704 0-1.056-.224-1.056-1.056v-6.56c0-3.872-2.496-5.952-6.848-5.952-4.128 0-6.88 1.984-7.232 5.184h3.392c.256-1.44 1.632-2.4 3.68-2.4 2.272 0 3.584 1.12 3.584 2.944v.992h-4.128c-4.576 0-7.008 1.888-7.008 5.248 0 3.04 2.496 4.8 6.08 4.8 2.656 0 4.32-1.152 5.408-2.816 0 1.632.768 2.624 3.008 2.624h1.824v-3.008h-.704zm-4.48-3.712c-.032 2.528-1.696 4.224-4.576 4.224-1.888 0-3.04-.96-3.04-2.336 0-1.664 1.184-2.464 3.328-2.464h4.288v.576zm15.355-9.664c-2.688 0-4 1.088-4.832 2.464l-.384-2.464h-3.072V31h3.456v-8.224c0-2.528.992-4.928 4.064-4.928h1.536v-3.232h-.768zM397.071 31h3.456v-4.16l2.944-3.072L408.303 31h4.096l-6.56-9.76 6.176-6.624h-4.064l-7.424 7.936V8.6h-3.456V31zm23.745.192c4.064 0 6.816-2.464 7.392-5.696h-3.456c-.48 1.824-2.016 2.88-4.128 2.88-2.72 0-4.48-1.824-4.576-4.608v-.224H428.4c.064-.448.096-.896.096-1.312-.096-4.8-3.264-7.808-8-7.808-4.832 0-8.064 3.36-8.064 8.416 0 5.024 3.232 8.352 8.384 8.352zm-4.64-10.176c.256-2.336 2.144-3.808 4.352-3.808 2.4 0 4.096 1.376 4.384 3.808h-8.736zm16.173 5.536c0 2.976 1.344 4.448 4.48 4.448h3.2v-3.04h-2.432c-1.312 0-1.76-.48-1.76-1.76v-8.544h4v-3.04h-4V10.04h-3.488v4.576h-2.848v3.04h2.848v8.896zm9.174-.96c.096 3.552 3.104 5.6 7.488 5.6 3.968 0 6.944-1.984 6.944-5.12 0-3.648-3.04-4.416-6.784-4.864-2.368-.256-3.936-.448-3.936-1.984 0-1.312 1.344-2.144 3.392-2.144s3.456 1.056 3.648 2.56h3.392c-.224-3.36-3.072-5.216-7.104-5.216-3.936-.032-6.72 1.984-6.72 5.088 0 3.392 2.944 4.192 6.688 4.64 2.528.32 4.032.448 4.032 2.208 0 1.312-1.408 2.144-3.552 2.144-2.496 0-3.968-1.216-4.096-2.912h-3.392zm19.05-9.664c0-2.656 1.6-4.448 4.064-4.448 2.144 0 3.584 1.28 3.584 3.104 0 1.536-.832 2.56-2.272 3.52-1.92 1.248-3.424 2.304-3.424 4.896v1.024h3.264v-.64c0-1.6 1.088-2.432 2.816-3.616 1.664-1.184 3.2-2.592 3.2-5.536 0-3.36-2.752-5.824-7.2-5.824-4.768 0-7.552 3.36-7.552 7.52h3.52zm1.472 13.12c0 1.28.96 2.144 2.208 2.144 1.248 0 2.176-.864 2.176-2.144 0-1.28-.928-2.144-2.176-2.144-1.248 0-2.208.864-2.208 2.144zM1.242 59.798c0 3.51 1.494 5.31 4.59 5.31 3.114 0 4.626-1.8 4.626-5.31V52.4h-.972v7.452c0 2.898-1.116 4.356-3.654 4.356-2.502 0-3.618-1.458-3.618-4.356V52.4h-.972v7.398zm15.955-4.032c-1.71 0-2.898.918-3.474 2.196l-.144-2.088h-.792V68.6h.918v-5.706c.522 1.332 1.764 2.214 3.492 2.214 2.502 0 4.302-1.908 4.302-4.68 0-2.862-1.8-4.662-4.302-4.662zm-.072 8.514c-2.034 0-3.438-1.584-3.438-3.87 0-2.232 1.404-3.834 3.438-3.834 2.034 0 3.438 1.602 3.438 3.852 0 2.268-1.404 3.852-3.438 3.852zm13.625-6.282c-.558-1.35-1.782-2.232-3.474-2.232-2.502 0-4.302 1.89-4.302 4.662 0 2.88 1.8 4.68 4.302 4.68 1.71 0 2.916-.9 3.492-2.322v1.62c0 2.43-1.152 3.474-3.348 3.474-1.71 0-2.898-.774-3.186-2.16h-.954c.288 1.944 1.854 2.988 4.068 2.988 2.952 0 4.338-1.404 4.338-4.266v-8.568h-.792l-.144 2.124zm-3.402 6.282c-2.034 0-3.438-1.584-3.438-3.852s1.404-3.852 3.438-3.852c2.034 0 3.438 1.584 3.438 3.87 0 2.25-1.404 3.834-3.438 3.834zm10.224-8.406c-1.692 0-2.412.81-2.79 1.818l-.144-1.818h-.792V65h.918v-4.626c0-1.854.486-3.618 2.628-3.618h.666v-.882h-.486zm9.487 8.28c-.54 0-.81-.18-.81-.882v-4.248c0-2.088-1.278-3.258-3.564-3.258-2.088 0-3.474 1.008-3.708 2.664h.918c.234-1.116 1.206-1.854 2.754-1.854 1.71 0 2.682.9 2.682 2.412v.792h-3.096c-2.34 0-3.6 1.008-3.6 2.718 0 1.62 1.278 2.61 3.222 2.61 1.854 0 2.952-.846 3.51-1.98v.324c-.036 1.08.414 1.548 1.494 1.548h.54v-.846h-.342zm-1.728-2.844c0 1.746-1.242 3.006-3.402 3.006-1.458 0-2.358-.738-2.358-1.872 0-1.206.9-1.872 2.592-1.872h3.168v.738zm10.61-3.384c-.559-1.296-1.783-2.16-3.493-2.16-2.502 0-4.302 1.908-4.302 4.662 0 2.88 1.8 4.68 4.302 4.68 1.71 0 2.898-.918 3.474-2.196L56.066 65h.792V52.4h-.918v5.526zm-3.42 6.354c-2.035 0-3.439-1.584-3.439-3.852 0-2.25 1.404-3.852 3.438-3.852 2.034 0 3.438 1.602 3.438 3.87 0 2.25-1.404 3.834-3.438 3.834zm10.529.828c1.998 0 3.528-1.296 3.924-3.132h-.937c-.36 1.422-1.566 2.304-3.06 2.304-2.033 0-3.311-1.548-3.347-3.672v-.162h7.452c0-.126.018-.27.018-.378-.09-2.718-1.764-4.302-4.212-4.302-2.502 0-4.212 1.908-4.212 4.608 0 2.862 1.782 4.734 4.373 4.734zm-3.348-5.436c.144-1.854 1.53-3.096 3.204-3.096 1.782 0 3.06 1.098 3.203 3.096h-6.407zm14.748 3.204c0 1.458.593 2.124 2.141 2.124h1.333v-.846h-1.26c-.954 0-1.296-.36-1.296-1.296V56.72h2.466v-.846h-2.466v-2.556h-.918v2.556h-1.728v.846h1.728v6.156zm8.621 2.232c2.574 0 4.392-1.908 4.392-4.68 0-2.754-1.818-4.662-4.392-4.662-2.574 0-4.374 1.908-4.374 4.662 0 2.772 1.8 4.68 4.374 4.68zm0-.828c-2.034 0-3.438-1.584-3.438-3.852 0-2.25 1.404-3.852 3.438-3.852 2.034 0 3.438 1.602 3.438 3.852 0 2.268-1.404 3.852-3.438 3.852zm19.096-.126c-.54 0-.81-.18-.81-.882v-4.248c0-2.088-1.278-3.258-3.564-3.258-2.088 0-3.474 1.008-3.708 2.664h.918c.234-1.116 1.206-1.854 2.754-1.854 1.71 0 2.682.9 2.682 2.412v.792h-3.096c-2.34 0-3.6 1.008-3.6 2.718 0 1.62 1.278 2.61 3.222 2.61 1.854 0 2.952-.846 3.51-1.98v.324c-.036 1.08.414 1.548 1.494 1.548h.54v-.846h-.342zm-1.728-2.844c0 1.746-1.242 3.006-3.402 3.006-1.458 0-2.358-.738-2.358-1.872 0-1.206.9-1.872 2.592-1.872h3.168v.738zm8.149 3.69h.918V52.4h-.918V65zm3.544-11.052c.36 0 .648-.27.648-.648a.634.634 0 00-.648-.648c-.36 0-.648.27-.648.648s.288.648.648.648zM111.664 65h.918v-9.126h-.918V65zm5.722 0h1.098l3.564-9.126h-.954l-3.132 8.064-3.15-8.064h-.99L117.386 65zm9.56.108c1.998 0 3.528-1.296 3.924-3.132h-.936c-.36 1.422-1.566 2.304-3.06 2.304-2.034 0-3.312-1.548-3.348-3.672v-.162h7.452c0-.126.018-.27.018-.378-.09-2.718-1.764-4.302-4.212-4.302-2.502 0-4.212 1.908-4.212 4.608 0 2.862 1.782 4.734 4.374 4.734zm-3.348-5.436c.144-1.854 1.53-3.096 3.204-3.096 1.782 0 3.06 1.098 3.204 3.096h-6.408zm22.092 4.482c-.54 0-.81-.18-.81-.882v-4.248c0-2.088-1.278-3.258-3.564-3.258-2.088 0-3.474 1.008-3.708 2.664h.918c.234-1.116 1.206-1.854 2.754-1.854 1.71 0 2.682.9 2.682 2.412v.792h-3.096c-2.34 0-3.6 1.008-3.6 2.718 0 1.62 1.278 2.61 3.222 2.61 1.854 0 2.952-.846 3.51-1.98v.324c-.036 1.08.414 1.548 1.494 1.548h.54v-.846h-.342zm-1.728-2.844c0 1.746-1.242 3.006-3.402 3.006-1.458 0-2.358-.738-2.358-1.872 0-1.206.9-1.872 2.592-1.872h3.168v.738zm7.135 3.798c2.07 0 3.528-1.188 3.888-3.042h-.972c-.306 1.35-1.404 2.214-2.916 2.214-1.998 0-3.384-1.566-3.384-3.834s1.368-3.87 3.384-3.87c1.53 0 2.61.864 2.934 2.232h.954c-.378-1.89-1.8-3.042-3.87-3.042-2.574 0-4.338 1.908-4.338 4.68 0 2.808 1.746 4.662 4.32 4.662zm9.65 0c2.07 0 3.528-1.188 3.888-3.042h-.972c-.306 1.35-1.404 2.214-2.916 2.214-1.998 0-3.384-1.566-3.384-3.834s1.368-3.87 3.384-3.87c1.53 0 2.61.864 2.934 2.232h.954c-.378-1.89-1.8-3.042-3.87-3.042-2.574 0-4.338 1.908-4.338 4.68 0 2.808 1.746 4.662 4.32 4.662zm9.705 0c2.574 0 4.392-1.908 4.392-4.68 0-2.754-1.818-4.662-4.392-4.662-2.574 0-4.374 1.908-4.374 4.662 0 2.772 1.8 4.68 4.374 4.68zm0-.828c-2.034 0-3.438-1.584-3.438-3.852 0-2.25 1.404-3.852 3.438-3.852 2.034 0 3.438 1.602 3.438 3.852 0 2.268-1.404 3.852-3.438 3.852zm12.84-3.924c0 2.394-1.188 3.906-3.078 3.906-1.692 0-2.736-1.152-2.736-3.33v-5.058h-.918v5.112c0 2.862 1.494 4.122 3.51 4.122 1.62 0 2.682-.864 3.204-2.034L183.4 65h.81v-9.126h-.918v4.482zm7.291-4.59c-1.674 0-2.754.864-3.276 2.052l-.144-1.944h-.792V65h.918v-4.5c0-2.376 1.206-3.888 3.15-3.888 1.764 0 2.826 1.152 2.826 3.312V65h.918v-5.112c0-2.88-1.53-4.122-3.6-4.122zm6.316 7.11c0 1.458.594 2.124 2.142 2.124h1.332v-.846h-1.26c-.954 0-1.296-.36-1.296-1.296V56.72h2.466v-.846h-2.466v-2.556h-.918v2.556h-1.728v.846h1.728v6.156zm10.406 0c0 1.458.594 2.124 2.142 2.124h1.332v-.846h-1.26c-.954 0-1.296-.36-1.296-1.296V56.72h2.466v-.846h-2.466v-2.556h-.918v2.556h-1.728v.846h1.728v6.156zm8.621 2.232c2.574 0 4.392-1.908 4.392-4.68 0-2.754-1.818-4.662-4.392-4.662-2.574 0-4.374 1.908-4.374 4.662 0 2.772 1.8 4.68 4.374 4.68zm0-.828c-2.034 0-3.438-1.584-3.438-3.852 0-2.25 1.404-3.852 3.438-3.852 2.034 0 3.438 1.602 3.438 3.852 0 2.268-1.404 3.852-3.438 3.852zm13.669-6.354c-.558-1.296-1.782-2.16-3.492-2.16-2.502 0-4.302 1.908-4.302 4.662 0 2.88 1.8 4.68 4.302 4.68 1.71 0 2.898-.918 3.474-2.196l.144 2.088h.792V52.4h-.918v5.526zm-3.42 6.354c-2.034 0-3.438-1.584-3.438-3.852 0-2.25 1.404-3.852 3.438-3.852 2.034 0 3.438 1.602 3.438 3.87 0 2.25-1.404 3.834-3.438 3.834zm14.525-.126c-.54 0-.81-.18-.81-.882v-4.248c0-2.088-1.278-3.258-3.564-3.258-2.088 0-3.474 1.008-3.708 2.664h.918c.234-1.116 1.206-1.854 2.754-1.854 1.71 0 2.682.9 2.682 2.412v.792h-3.096c-2.34 0-3.6 1.008-3.6 2.718 0 1.62 1.278 2.61 3.222 2.61 1.854 0 2.952-.846 3.51-1.98v.324c-.036 1.08.414 1.548 1.494 1.548h.54v-.846h-.342zm-1.728-2.844c0 1.746-1.242 3.006-3.402 3.006-1.458 0-2.358-.738-2.358-1.872 0-1.206.9-1.872 2.592-1.872h3.168v.738zm5.735 3.69l-.594 1.476c-.414 1.008-.576 1.278-1.512 1.278h-1.152v.846h1.404c1.224 0 1.512-.468 2.088-1.908l4.374-10.818h-.99l-3.114 7.938-3.168-7.938h-.99L244.707 65zm5.013-.594c0 .414.288.684.684.684.396 0 .684-.27.684-.684 0-.414-.288-.666-.684-.666-.396 0-.684.252-.684.666z" fill="#000"/></svg>