<svg width="171" height="62" viewBox="0 0 171 62" fill="none" xmlns="http://www.w3.org/2000/svg"><path d="M8.721 1.776H1.425V15h7.296v-1.767h-5.13V9.186h4.56V7.419h-4.56V3.543h5.13V1.776zM11.389 15h2.166V4.531h-2.166V15zM12.49 3.144c.76 0 1.368-.608 1.368-1.387S13.25.37 12.49.37a1.37 1.37 0 00-1.387 1.387 1.37 1.37 0 001.387 1.387zM23.828 15h2.147V8.825c0-2.926-1.843-4.465-4.294-4.465-1.254 0-2.413.513-3.116 1.368V4.531h-2.166V15h2.166V9.148c0-1.919 1.045-2.907 2.64-2.907 1.578 0 2.623.988 2.623 2.907V15zm12.719-2.926c-.114-3.781-6.023-2.603-6.023-4.712 0-.703.607-1.178 1.767-1.178 1.178 0 1.88.627 1.957 1.539h2.166c-.114-2.09-1.672-3.363-4.047-3.363-2.47 0-4.028 1.349-4.028 3.021 0 3.838 6.08 2.66 6.08 4.712 0 .722-.665 1.254-1.92 1.254-1.197 0-2.014-.703-2.09-1.558h-2.241c.095 1.9 1.861 3.382 4.37 3.382 2.47 0 4.009-1.33 4.009-3.097zm2.682.019c0 2.128 1.159 2.907 3.02 2.907h1.71v-1.805h-1.33c-.911 0-1.215-.323-1.215-1.102V6.298h2.546V4.531h-2.546V1.928h-2.185v2.603h-1.235v1.767h1.235v5.795zM45.956 15h2.166V4.531h-2.166V15zm1.102-11.856c.76 0 1.368-.608 1.368-1.387S47.818.37 47.058.37a1.37 1.37 0 00-1.387 1.387 1.37 1.37 0 001.387 1.387zm8.316 3.04c1.615 0 2.888 1.026 2.926 2.641h-5.795c.228-1.653 1.406-2.641 2.869-2.641zm4.902 5.7h-2.337c-.399.817-1.14 1.463-2.47 1.463-1.596 0-2.831-1.045-2.983-2.774h7.999c.057-.361.076-.703.076-1.064 0-3.078-2.109-5.149-5.092-5.149-3.097 0-5.225 2.109-5.225 5.396s2.223 5.415 5.225 5.415c2.565 0 4.218-1.463 4.807-3.287zm1.695-2.166c0 3.23 2.185 5.453 4.94 5.453 1.71 0 2.964-.855 3.629-1.748v1.748c0 2.09-1.254 3.116-2.926 3.116-1.501 0-2.66-.741-2.983-1.824h-2.147c.266 2.318 2.337 3.705 5.13 3.705 3.268 0 5.11-2.147 5.11-4.997V4.531H70.54v1.52c-.646-.893-1.92-1.691-3.63-1.691-2.754 0-4.94 2.128-4.94 5.358zm8.569.038c0 2.261-1.54 3.534-3.173 3.534-1.615 0-3.173-1.311-3.173-3.572s1.558-3.477 3.173-3.477c1.634 0 3.173 1.273 3.173 3.515zM80.505 15h2.166V4.531h-2.166V15zm1.102-11.856c.76 0 1.368-.608 1.368-1.387S82.367.37 81.607.37a1.37 1.37 0 00-1.387 1.387 1.37 1.37 0 001.387 1.387zM92.944 15h2.147V8.825c0-2.926-1.843-4.465-4.294-4.465-1.254 0-2.413.513-3.116 1.368V4.531h-2.166V15h2.166V9.148c0-1.919 1.045-2.907 2.64-2.907 1.578 0 2.623.988 2.623 2.907V15zM.74 26.562h3.534V38h2.166V26.562h3.515v-1.767H.741v1.767zm15.817 2.622c1.615 0 2.888 1.026 2.926 2.641h-5.795c.228-1.653 1.406-2.641 2.869-2.641zm4.902 5.7h-2.337c-.4.817-1.14 1.463-2.47 1.463-1.596 0-2.831-1.045-2.983-2.774h7.999c.057-.361.076-.703.076-1.064 0-3.078-2.11-5.149-5.092-5.149-3.097 0-5.225 2.109-5.225 5.396s2.223 5.415 5.225 5.415c2.565 0 4.218-1.463 4.807-3.287zm1.694-2.128c0 3.287 2.128 5.415 5.13 5.415 2.565 0 4.237-1.425 4.826-3.477h-2.337c-.399 1.083-1.197 1.653-2.489 1.653-1.748 0-2.907-1.292-2.907-3.591 0-2.28 1.16-3.572 2.907-3.572 1.292 0 2.128.646 2.49 1.653h2.336c-.589-2.204-2.26-3.477-4.826-3.477-3.002 0-5.13 2.128-5.13 5.396zM35.27 38h2.166v-5.852c0-1.919 1.045-2.907 2.64-2.907 1.578 0 2.623.988 2.623 2.907V38h2.147v-6.175c0-2.926-1.824-4.465-4.161-4.465-1.35 0-2.527.513-3.25 1.387V23.94H35.27V38zm19.768 0h2.147v-6.175c0-2.926-1.843-4.465-4.294-4.465-1.254 0-2.413.513-3.116 1.368v-1.197h-2.166V38h2.166v-5.852c0-1.919 1.045-2.907 2.64-2.907 1.578 0 2.623.988 2.623 2.907V38zm14.884-5.244c0-3.287-2.356-5.396-5.339-5.396-2.982 0-5.338 2.109-5.338 5.396s2.26 5.415 5.243 5.415c3.003 0 5.434-2.128 5.434-5.415zm-8.474 0c0-2.375 1.463-3.515 3.097-3.515 1.615 0 3.154 1.14 3.154 3.515s-1.595 3.534-3.21 3.534c-1.635 0-3.04-1.159-3.04-3.534zM72.064 38h2.166V23.94h-2.166V38zm14.984-5.244c0-3.287-2.355-5.396-5.338-5.396-2.984 0-5.34 2.109-5.34 5.396s2.261 5.415 5.245 5.415c3.001 0 5.433-2.128 5.433-5.415zm-8.474 0c0-2.375 1.464-3.515 3.098-3.515 1.614 0 3.153 1.14 3.153 3.515s-1.596 3.534-3.21 3.534c-1.635 0-3.04-1.159-3.04-3.534zm9.894-.038c0 3.23 2.185 5.453 4.94 5.453 1.71 0 2.964-.855 3.629-1.748v1.748c0 2.09-1.254 3.116-2.926 3.116-1.501 0-2.66-.741-2.983-1.824H88.98c.266 2.318 2.337 3.705 5.13 3.705 3.268 0 5.11-2.147 5.11-4.997v-10.64h-2.184v1.52c-.646-.893-1.92-1.691-3.63-1.691-2.754 0-4.94 2.128-4.94 5.358zm8.569.038c0 2.261-1.54 3.534-3.173 3.534-1.615 0-3.173-1.311-3.173-3.572s1.558-3.477 3.173-3.477c1.634 0 3.173 1.273 3.173 3.515zm5.03 5.244h2.166V27.531h-2.166V38zm1.102-11.856c.76 0 1.368-.608 1.368-1.387s-.608-1.387-1.368-1.387a1.37 1.37 0 00-1.387 1.387 1.37 1.37 0 001.387 1.387zm8.315 3.04c1.615 0 2.888 1.026 2.926 2.641h-5.795c.228-1.653 1.406-2.641 2.869-2.641zm4.902 5.7h-2.337c-.399.817-1.14 1.463-2.47 1.463-1.596 0-2.831-1.045-2.983-2.774h7.999c.057-.361.076-.703.076-1.064 0-3.078-2.109-5.149-5.092-5.149-3.097 0-5.225 2.109-5.225 5.396s2.223 5.415 5.225 5.415c2.565 0 4.218-1.463 4.807-3.287zm4.45 3.116h2.28l2.109-7.733L127.333 38h2.28l3.249-10.469h-2.128l-2.166 8.379-2.128-8.379h-2.261l-2.223 8.417-2.185-8.417h-2.204L120.835 38zm18.054-8.816c1.615 0 2.888 1.026 2.926 2.641h-5.795c.228-1.653 1.406-2.641 2.869-2.641zm4.902 5.7h-2.337c-.399.817-1.14 1.463-2.47 1.463-1.596 0-2.831-1.045-2.983-2.774H144c.057-.361.076-.703.076-1.064 0-3.078-2.109-5.149-5.092-5.149-3.097 0-5.225 2.109-5.225 5.396s2.223 5.415 5.225 5.415c2.565 0 4.218-1.463 4.807-3.287zm4.582-2.394c0-2.223.988-2.888 2.584-2.888h.551V27.36c-1.482 0-2.527.646-3.135 1.691v-1.52h-2.166V38h2.166v-5.51zm5.468 2.603c0 2.128 1.159 2.907 3.021 2.907h1.71v-1.805h-1.33c-.912 0-1.216-.323-1.216-1.102v-5.795h2.546v-1.767h-2.546v-2.603h-2.185v2.603h-1.235v1.767h1.235v5.795zm11.136-5.909c1.615 0 2.888 1.026 2.926 2.641h-5.795c.228-1.653 1.406-2.641 2.869-2.641zm4.902 5.7h-2.337c-.399.817-1.14 1.463-2.47 1.463-1.596 0-2.831-1.045-2.983-2.774h7.999c.057-.361.076-.703.076-1.064 0-3.078-2.109-5.149-5.092-5.149-3.097 0-5.225 2.109-5.225 5.396s2.223 5.415 5.225 5.415c2.565 0 4.218-1.463 4.807-3.287zM.703 55.718c0 3.23 2.185 5.453 4.902 5.453 1.748 0 3.002-.836 3.667-1.729V61h2.185V50.531H9.272v1.52c-.646-.855-1.862-1.691-3.629-1.691-2.755 0-4.94 2.128-4.94 5.358zm8.569.038c0 2.261-1.539 3.534-3.173 3.534-1.615 0-3.173-1.311-3.173-3.572s1.558-3.477 3.173-3.477c1.634 0 3.173 1.273 3.173 3.515zm7.196-3.667V46.94h-2.166V61h2.166v-1.52c.684.912 1.919 1.691 3.648 1.691 2.755 0 4.921-2.223 4.921-5.453 0-3.23-2.147-5.358-4.921-5.358-1.653 0-2.964.779-3.648 1.729zm6.365 3.629c0 2.261-1.558 3.572-3.192 3.572-1.615 0-3.173-1.273-3.173-3.534 0-2.242 1.558-3.515 3.173-3.515 1.634 0 3.192 1.216 3.192 3.477zm8.959-5.149H33.9c.133-.969.837-1.881 2.357-1.881 1.482 0 2.26.798 2.26 1.995 0 1.482-1.197 2.052-3.154 2.071h-.513v1.786h.494c2.261 0 3.44.627 3.44 2.451 0 1.292-.798 2.28-2.413 2.28-1.635 0-2.585-.988-2.68-2.28h-2.09c.134 2.717 2.166 4.085 4.788 4.085 2.889 0 4.447-1.672 4.447-3.876 0-1.919-.931-3.116-2.375-3.553v-.076c1.083-.361 2.128-1.482 2.128-3.135 0-2.014-1.502-3.61-4.256-3.61-2.527 0-4.39 1.349-4.541 3.743zm18.705 3.306v-4.313h2.394c1.691 0 2.451.798 2.451 2.166 0 1.33-.76 2.147-2.45 2.147h-2.395zm7.068-2.147c0-2.147-1.539-3.933-4.674-3.933h-4.56V61h2.166v-5.358h2.394c3.44 0 4.674-2.033 4.674-3.914zM59.631 61h2.166v-4.503L65.673 61H68.6l-4.826-5.225 4.826-5.244h-3.002l-3.8 4.579v-8.17h-2.166V61zm10.863-2.907c0 2.128 1.159 2.907 3.02 2.907h1.71v-1.805h-1.33c-.911 0-1.215-.323-1.215-1.102v-5.795h2.546v-1.767h-2.546v-2.603h-2.185v2.603h-1.235v1.767h1.235v5.795zm8.969 1.653c0-.779-.608-1.387-1.368-1.387a1.37 1.37 0 00-1.387 1.387 1.37 1.37 0 001.387 1.387c.76 0 1.368-.608 1.368-1.387z" fill="#fff"/></svg>