<svg width="163" height="26" viewBox="0 0 163 26" fill="none" xmlns="http://www.w3.org/2000/svg"><rect width="163" height="26" rx="13" fill="#14964F"/><path d="M16.678 17h1.44L15.13 8.648h-1.584L10.558 17h1.428l.6-1.704h3.492l.6 1.704zm-.984-2.82H12.97l1.368-3.876 1.356 3.876zM24.11 17h1.356v-3.9c0-1.848-1.164-2.82-2.712-2.82-.792 0-1.524.324-1.968.864v-.756h-1.368V17h1.368v-3.696c0-1.212.66-1.836 1.668-1.836.996 0 1.656.624 1.656 1.836V17zm12.473 0h1.355v-3.9c0-1.848-1.175-2.82-2.724-2.82-.96 0-1.895.504-2.303 1.308-.456-.864-1.333-1.308-2.377-1.308-.791 0-1.511.324-1.956.864v-.756h-1.367V17h1.367v-3.696c0-1.212.66-1.836 1.669-1.836.995 0 1.655.624 1.655 1.836V17h1.356v-3.696c0-1.212.66-1.836 1.668-1.836.996 0 1.657.624 1.657 1.836V17zm5.88-5.568c1.02 0 1.824.648 1.848 1.668h-3.66c.144-1.044.888-1.668 1.812-1.668zm3.096 3.6h-1.476c-.252.516-.72.924-1.56.924-1.008 0-1.788-.66-1.884-1.752h5.052a4.22 4.22 0 00.048-.672c0-1.944-1.332-3.252-3.216-3.252-1.956 0-3.3 1.332-3.3 3.408 0 2.076 1.404 3.42 3.3 3.42 1.62 0 2.664-.924 3.036-2.076zM47.086 17h1.367V8.12h-1.367V17zm2.708-3.336c0 2.04 1.38 3.444 3.12 3.444 1.08 0 1.872-.504 2.292-1.104V17h1.38V8.12h-1.38v3.192c-.504-.624-1.416-1.032-2.28-1.032-1.752 0-3.132 1.344-3.132 3.384zm5.412.024c0 1.428-.972 2.232-2.004 2.232-1.02 0-2.004-.828-2.004-2.256s.984-2.196 2.004-2.196c1.032 0 2.004.804 2.004 2.22zm5.96-2.256c1.02 0 1.824.648 1.848 1.668h-3.66c.144-1.044.888-1.668 1.812-1.668zm3.096 3.6h-1.476c-.252.516-.72.924-1.56.924-1.008 0-1.788-.66-1.884-1.752h5.052a4.22 4.22 0 00.048-.672c0-1.944-1.332-3.252-3.216-3.252-1.956 0-3.3 1.332-3.3 3.408 0 2.076 1.404 3.42 3.3 3.42 1.62 0 2.664-.924 3.036-2.076zM70.481 17h1.356v-3.9c0-1.848-1.164-2.82-2.712-2.82-.792 0-1.524.324-1.968.864v-.756h-1.368V17h1.368v-3.696c0-1.212.66-1.836 1.668-1.836.996 0 1.656.624 1.656 1.836V17zm12.206-6.612h-1.368v3.684c0 1.212-.66 1.836-1.668 1.836-.996 0-1.656-.624-1.656-1.836v-3.684h-1.356v3.888c0 1.848 1.176 2.82 2.724 2.82.78 0 1.524-.324 1.956-.888V17h1.368v-6.612zM89.184 17h1.356v-3.9c0-1.848-1.164-2.82-2.712-2.82-.792 0-1.524.324-1.968.864v-.756h-1.368V17h1.368v-3.696c0-1.212.66-1.836 1.668-1.836.996 0 1.656.624 1.656 1.836V17zm2.645-3.336c0 2.04 1.38 3.444 3.12 3.444 1.08 0 1.872-.504 2.292-1.104V17h1.38V8.12h-1.38v3.192c-.504-.624-1.416-1.032-2.28-1.032-1.752 0-3.132 1.344-3.132 3.384zm5.412.024c0 1.428-.972 2.232-2.004 2.232-1.02 0-2.004-.828-2.004-2.256s.984-2.196 2.004-2.196c1.032 0 2.004.804 2.004 2.22zM103.535 17h1.368v-3.696c0-1.212.66-1.836 1.668-1.836.996 0 1.656.624 1.656 1.836V17h1.356v-3.9c0-1.848-1.152-2.82-2.628-2.82-.852 0-1.596.324-2.052.876V8.12h-1.368V17zm7.337-3.336c0 2.04 1.38 3.444 3.096 3.444 1.104 0 1.896-.528 2.316-1.092V17h1.38v-6.612h-1.38v.96c-.408-.54-1.176-1.068-2.292-1.068-1.74 0-3.12 1.344-3.12 3.384zm5.412.024c0 1.428-.972 2.232-2.004 2.232-1.02 0-2.004-.828-2.004-2.256s.984-2.196 2.004-2.196c1.032 0 2.004.804 2.004 2.22zM124.153 17h1.356v-3.9c0-1.848-1.164-2.82-2.712-2.82-.792 0-1.524.324-1.968.864v-.756h-1.368V17h1.368v-3.696c0-1.212.66-1.836 1.668-1.836.996 0 1.656.624 1.656 1.836V17zm2.645-3.336c0 2.04 1.38 3.444 3.12 3.444 1.08 0 1.872-.504 2.292-1.104V17h1.38V8.12h-1.38v3.192c-.504-.624-1.416-1.032-2.28-1.032-1.752 0-3.132 1.344-3.132 3.384zm5.412.024c0 1.428-.972 2.232-2.004 2.232-1.02 0-2.004-.828-2.004-2.256s.984-2.196 2.004-2.196c1.032 0 2.004.804 2.004 2.22zm5.96-2.256c1.02 0 1.824.648 1.848 1.668h-3.66c.144-1.044.888-1.668 1.812-1.668zm3.096 3.6h-1.476c-.252.516-.72.924-1.56.924-1.008 0-1.788-.66-1.884-1.752h5.052a4.22 4.22 0 00.048-.672c0-1.944-1.332-3.252-3.216-3.252-1.956 0-3.3 1.332-3.3 3.408 0 2.076 1.404 3.42 3.3 3.42 1.62 0 2.664-.924 3.036-2.076zM142.793 17h1.368V8.12h-1.368V17zm7.856 0h1.356v-3.9c0-1.848-1.164-2.82-2.712-2.82-.792 0-1.524.324-1.968.864v-.756h-1.368V17h1.368v-3.696c0-1.212.66-1.836 1.668-1.836.996 0 1.656.624 1.656 1.836V17z" fill="#fff"/></svg>