<svg width="85" height="13" viewBox="0 0 85 13" fill="none" xmlns="http://www.w3.org/2000/svg"><path d="M7.368.69C4.058.673.931 2.852.931 6.695c0 3.293 2.794 5.971 6.237 5.971 1.963 0 3.776-.648 5.174-1.763v-5.09H7.368v2.229h1.996v1.115a4.32 4.32 0 01-2.196.582c-1.746 0-2.96-1.364-2.96-3.044 0-1.947 1.48-3.11 3.16-3.11.898 0 1.813.315 2.545.947l2.046-2.146C10.662 1.272 9.015.706 7.368.69zm7.248.183V12.5h6.553c3.028 0 3.993-1.58 3.993-3.177 0-1.214-.55-2.429-2.18-2.928 1.099-.449 1.714-1.314 1.714-2.578 0-1.946-1.414-2.96-3.81-2.96l-6.27.016zm3.127 4.69V3.419h2.229c.931 0 1.447.366 1.447 1.081 0 .699-.532 1.065-1.447 1.065h-2.23zm0 4.392V7.643h2.645c1.147 0 1.513.582 1.513 1.164s-.366 1.148-1.513 1.148h-2.645zM26.96.873V12.5h3.128V9.19h1.996c3.46 0 5.106-1.281 5.106-4.125 0-2.845-1.563-4.192-5.14-4.192h-5.09zm3.128 2.694h1.846c1.397 0 1.996.516 1.996 1.614 0 1.114-.615 1.597-1.996 1.597h-1.846v-3.21zm10.835 9.216L46.746.573 44.151.59 38.33 12.783h2.595zM58.986.856h-3.144V7.16c0 1.863-.848 2.645-2.212 2.645-1.348 0-2.196-.782-2.213-2.645V.873H48.29V7.16c0 3.81 2.063 5.506 5.34 5.506 3.276 0 5.356-1.696 5.356-5.506V.856zM66.01.69c-2.712.016-4.84 1.197-4.84 3.809 0 2.279 1.896 2.894 4.54 3.526 1.913.483 2.246.55 2.246 1.215 0 .532-.566.765-1.214.765-1.48 0-3.16-.433-4.674-1.281l-1.398 2.329c1.597 1.064 3.56 1.63 5.722 1.63 2.995 0 4.874-1.364 4.874-3.843 0-2.378-1.946-3.044-4.674-3.775-1.813-.45-2.03-.6-2.03-.965 0-.533.516-.765 1.115-.765 1.148 0 2.712.399 4.042 1.08l1.314-2.411C69.67 1.172 67.873.69 66.01.69zm7.052.183V12.5h4.99c3.444 0 6.239-2.512 6.239-5.805 0-3.31-2.795-5.839-6.238-5.839l-4.99.017zm3.128 2.794h1.746c1.73 0 3.144 1.298 3.144 3.011 0 1.73-1.414 3.027-3.144 3.027H76.19V3.667z" fill="#09B45B"/></svg>