<svg width="223" height="47" viewBox="0 0 223 47" fill="none" xmlns="http://www.w3.org/2000/svg"><path d="M.46 2.746h4.968V16.5h2.645V2.746h4.968V.4H.46v2.346zm19.114 1.978c-1.932 0-2.875.782-3.473 1.771l-.276-1.771h-2.208V16.5h2.484v-5.911c0-1.817.713-3.542 2.921-3.542h1.104V4.724h-.552zm12.49 9.614c-.507 0-.76-.161-.76-.759V8.864c0-2.783-1.794-4.278-4.922-4.278-2.967 0-4.945 1.426-5.198 3.726h2.438c.184-1.035 1.173-1.725 2.645-1.725 1.633 0 2.576.805 2.576 2.116v.713h-2.967c-3.289 0-5.037 1.357-5.037 3.772 0 2.185 1.794 3.45 4.37 3.45 1.91 0 3.105-.828 3.887-2.024 0 1.173.552 1.886 2.162 1.886h1.311v-2.162h-.506zm-3.22-2.668c-.024 1.817-1.22 3.036-3.29 3.036-1.357 0-2.185-.69-2.185-1.679 0-1.196.851-1.771 2.392-1.771h3.082v.414zm13.935-5.313c-.759-1.035-2.024-1.771-3.818-1.771-3.197 0-5.566 2.392-5.566 6.026 0 3.772 2.37 6.026 5.566 6.026 1.863 0 3.082-.874 3.841-1.909l.3 1.771h2.161V.4H42.78v5.957zm-3.404 8.188c-2.07 0-3.427-1.61-3.427-3.933 0-2.3 1.357-3.91 3.427-3.91 2.07 0 3.427 1.61 3.427 3.956 0 2.277-1.357 3.887-3.427 3.887zm13.905 2.093c2.92 0 4.899-1.771 5.313-4.094h-2.484c-.345 1.311-1.45 2.07-2.967 2.07-1.955 0-3.22-1.311-3.29-3.312v-.161h8.879c.046-.322.069-.644.069-.943-.07-3.45-2.346-5.612-5.75-5.612-3.473 0-5.796 2.415-5.796 6.049 0 3.611 2.323 6.003 6.026 6.003zm-3.335-7.314c.184-1.679 1.54-2.737 3.128-2.737 1.725 0 2.944.989 3.15 2.737h-6.278zM69.867 16.5h3.036L77.25 4.724h-2.622l-3.197 9.108-3.243-9.108H65.52L69.867 16.5zm13.667.138c3.588 0 6.003-2.415 6.003-6.026 0-3.588-2.415-6.026-6.003-6.026s-6.003 2.438-6.003 6.026c0 3.611 2.415 6.026 6.003 6.026zm0-2.116c-2.093 0-3.45-1.633-3.45-3.91s1.357-3.91 3.45-3.91 3.473 1.633 3.473 3.91-1.38 3.91-3.473 3.91zm8 1.978h2.484V.4h-2.484v16.1zm15.683-2.162c-.506 0-.759-.161-.759-.759V8.864c0-2.783-1.794-4.278-4.922-4.278-2.967 0-4.945 1.426-5.198 3.726h2.438c.184-1.035 1.173-1.725 2.645-1.725 1.633 0 2.576.805 2.576 2.116v.713h-2.967c-3.289 0-5.037 1.357-5.037 3.772 0 2.185 1.794 3.45 4.37 3.45 1.909 0 3.105-.828 3.887-2.024 0 1.173.552 1.886 2.162 1.886h1.311v-2.162h-.506zm-3.22-2.668c-.023 1.817-1.219 3.036-3.289 3.036-1.357 0-2.185-.69-2.185-1.679 0-1.196.851-1.771 2.392-1.771h3.082v.414zm5.93 1.633c0 2.139.966 3.197 3.22 3.197h2.3v-2.185h-1.748c-.943 0-1.265-.345-1.265-1.265V6.909h2.875V4.724h-2.875V1.435h-2.507v3.289h-2.047v2.185h2.047v6.394zm8.366-10.235c.851 0 1.518-.621 1.518-1.495 0-.874-.667-1.495-1.518-1.495s-1.518.621-1.518 1.495c0 .874.667 1.495 1.518 1.495zM117.028 16.5h2.484V4.724h-2.484V16.5zm4.919 0h2.484V.4h-2.484v16.1zm6.183-13.432c.851 0 1.518-.621 1.518-1.495 0-.874-.667-1.495-1.518-1.495s-1.518.621-1.518 1.495c0 .874.667 1.495 1.518 1.495zM126.865 16.5h2.484V4.724h-2.484V16.5zm5.77-3.197c0 2.139.966 3.197 3.22 3.197h2.3v-2.185h-1.748c-.943 0-1.265-.345-1.265-1.265V6.909h2.875V4.724h-2.875V1.435h-2.507v3.289h-2.047v2.185h2.047v6.394zm10.505 3.266l-.46 1.15c-.368.966-.598 1.196-1.564 1.196h-1.748V21.1h2.668c1.725 0 2.231-.851 2.967-2.76l5.336-13.616h-2.645l-3.197 8.947-3.289-8.947h-2.645l4.577 11.845zm19.906.069c3.588 0 6.003-2.415 6.003-6.026 0-3.588-2.415-6.026-6.003-6.026s-6.003 2.438-6.003 6.026c0 3.611 2.415 6.026 6.003 6.026zm0-2.116c-2.093 0-3.45-1.633-3.45-3.91s1.357-3.91 3.45-3.91 3.473 1.633 3.473 3.91-1.38 3.91-3.473 3.91zm14.21-9.936c-1.909 0-3.036.759-3.772 1.679l-.276-1.541h-2.162V16.5h2.484v-5.934c0-2.392 1.173-3.841 3.151-3.841 1.863 0 2.806 1.196 2.806 3.427V16.5h2.507V9.945c0-3.933-2.139-5.359-4.738-5.359zm13.733 8.717c0 2.139.966 3.197 3.22 3.197h2.3v-2.185h-1.748c-.943 0-1.265-.345-1.265-1.265V6.909h2.875V4.724h-2.875V1.435h-2.507v3.289h-2.047v2.185h2.047v6.394zm13.287-8.717c-1.84 0-2.967.828-3.703 1.84V.4h-2.484v16.1h2.484v-5.957c0-2.369 1.196-3.818 3.151-3.818 1.84 0 2.829 1.196 2.829 3.427V16.5h2.484V9.945c0-3.933-2.139-5.359-4.761-5.359zm12.519 12.052c2.921 0 4.899-1.771 5.313-4.094h-2.484c-.345 1.311-1.449 2.07-2.967 2.07-1.955 0-3.22-1.311-3.289-3.312v-.161h8.878c.046-.322.069-.644.069-.943-.069-3.45-2.346-5.612-5.75-5.612-3.473 0-5.796 2.415-5.796 6.049 0 3.611 2.323 6.003 6.026 6.003zm-3.335-7.314c.184-1.679 1.541-2.737 3.128-2.737 1.725 0 2.944.989 3.151 2.737h-6.279zM2.921 41.5l1.495-3.979h6.601l1.518 3.979h2.829L9.361 25.4H6.21L.184 41.5h2.737zm4.784-13.248l2.576 7.015H5.152l2.553-7.015zm16.726 7.36c0 2.438-1.15 3.864-3.036 3.864-1.817 0-2.737-1.173-2.737-3.473v-6.279h-2.484v6.555c0 4.025 2.139 5.359 4.646 5.359 1.817 0 2.898-.736 3.634-1.633l.276 1.495h2.185V29.724H24.43v5.888zm4.426 2.001c.069 2.553 2.23 4.025 5.382 4.025 2.852 0 4.99-1.426 4.99-3.68 0-2.622-2.184-3.174-4.875-3.496-1.702-.184-2.83-.322-2.83-1.426 0-.943.967-1.541 2.439-1.541s2.484.759 2.622 1.84h2.438c-.161-2.415-2.208-3.749-5.106-3.749-2.83-.023-4.83 1.426-4.83 3.657 0 2.438 2.116 3.013 4.807 3.335 1.817.23 2.898.322 2.898 1.587 0 .943-1.012 1.541-2.553 1.541-1.794 0-2.852-.874-2.944-2.093h-2.438zm13.148.69c0 2.139.966 3.197 3.22 3.197h2.3v-2.185h-1.747c-.944 0-1.265-.345-1.265-1.265v-6.141h2.875v-2.185h-2.875v-3.289h-2.508v3.289h-2.047v2.185h2.047v6.394zm13.058-8.579c-1.932 0-2.875.782-3.473 1.771l-.276-1.771h-2.208V41.5h2.484v-5.911c0-1.817.713-3.542 2.92-3.542h1.105v-2.323h-.552zm12.488 9.614c-.506 0-.759-.161-.759-.759v-4.715c0-2.783-1.794-4.278-4.922-4.278-2.967 0-4.945 1.426-5.198 3.726h2.438c.184-1.035 1.173-1.725 2.645-1.725 1.633 0 2.576.805 2.576 2.116v.713h-2.967c-3.289 0-5.037 1.357-5.037 3.772 0 2.185 1.794 3.45 4.37 3.45 1.91 0 3.105-.828 3.887-2.024 0 1.173.552 1.886 2.162 1.886h1.311v-2.162h-.506zm-3.22-2.668c-.023 1.817-1.219 3.036-3.289 3.036-1.357 0-2.185-.69-2.185-1.679 0-1.196.851-1.771 2.392-1.771h3.082v.414zm5.08 4.83h2.483V25.4H69.41v16.1zm6.183-13.432c.851 0 1.518-.621 1.518-1.495 0-.874-.667-1.495-1.518-1.495-.85 0-1.518.621-1.518 1.495 0 .874.667 1.495 1.518 1.495zM74.33 41.5h2.484V29.724H74.33V41.5zm15.683-2.162c-.506 0-.759-.161-.759-.759v-4.715c0-2.783-1.794-4.278-4.922-4.278-2.967 0-4.945 1.426-5.198 3.726h2.438c.184-1.035 1.173-1.725 2.645-1.725 1.633 0 2.576.805 2.576 2.116v.713h-2.967c-3.289 0-5.037 1.357-5.037 3.772 0 2.185 1.794 3.45 4.37 3.45 1.91 0 3.105-.828 3.887-2.024 0 1.173.552 1.886 2.162 1.886h1.311v-2.162h-.506zm-3.22-2.668c-.023 1.817-1.219 3.036-3.289 3.036-1.357 0-2.185-.69-2.185-1.679 0-1.196.851-1.771 2.392-1.771h3.082v.414zm10.251 4.83h11.408v-2.231h-7.797l4.278-3.565c1.955-1.633 3.404-3.128 3.404-5.52 0-2.944-2.024-4.922-5.635-4.922-3.427 0-5.635 2.231-5.635 5.29v.414h2.553v-.276c0-2.001 1.242-3.243 3.082-3.243 1.84 0 3.059 1.012 3.059 2.852 0 1.541-1.081 2.668-2.53 3.887l-6.187 5.267V41.5zm12.969-7.682c0 4.853 2.599 7.82 6.348 7.82 3.749 0 6.348-2.967 6.348-7.82v-.736c0-4.669-2.599-7.82-6.348-7.82-3.749 0-6.348 3.151-6.348 7.82v.736zm10.12-.092c0 3.611-1.518 5.681-3.772 5.681-2.254 0-3.772-2.07-3.772-5.681v-.552c0-3.588 1.518-5.681 3.772-5.681 2.254 0 3.772 2.093 3.772 5.681v.552zm4.368.092c0 4.853 2.599 7.82 6.348 7.82 3.749 0 6.348-2.967 6.348-7.82v-.736c0-4.669-2.599-7.82-6.348-7.82-3.749 0-6.348 3.151-6.348 7.82v.736zm10.12-.092c0 3.611-1.518 5.681-3.772 5.681-2.254 0-3.772-2.07-3.772-5.681v-.552c0-3.588 1.518-5.681 3.772-5.681 2.254 0 3.772 2.093 3.772 5.681v.552zm11.425 4.577c0 2.139.966 3.197 3.22 3.197h2.3v-2.185h-1.748c-.943 0-1.265-.345-1.265-1.265v-6.141h2.875v-2.185h-2.875v-3.289h-2.507v3.289h-2.047v2.185h2.047v6.394zm12.419 3.335c3.588 0 6.003-2.415 6.003-6.026 0-3.588-2.415-6.026-6.003-6.026s-6.003 2.438-6.003 6.026c0 3.611 2.415 6.026 6.003 6.026zm0-2.116c-2.093 0-3.45-1.633-3.45-3.91s1.357-3.91 3.45-3.91 3.473 1.633 3.473 3.91-1.38 3.91-3.473 3.91zm16.947-8.165c-.759-1.035-2.024-1.771-3.818-1.771-3.197 0-5.566 2.392-5.566 6.026 0 3.772 2.369 6.026 5.566 6.026 1.863 0 3.082-.874 3.841-1.909l.299 1.771h2.162V25.4h-2.484v5.957zm-3.404 8.188c-2.07 0-3.427-1.61-3.427-3.933 0-2.3 1.357-3.91 3.427-3.91 2.07 0 3.427 1.61 3.427 3.956 0 2.277-1.357 3.887-3.427 3.887zm19.08-.207c-.506 0-.759-.161-.759-.759v-4.715c0-2.783-1.794-4.278-4.922-4.278-2.967 0-4.945 1.426-5.198 3.726h2.438c.184-1.035 1.173-1.725 2.645-1.725 1.633 0 2.576.805 2.576 2.116v.713H184.9c-3.289 0-5.037 1.357-5.037 3.772 0 2.185 1.794 3.45 4.37 3.45 1.909 0 3.105-.828 3.887-2.024 0 1.173.552 1.886 2.162 1.886h1.311v-2.162h-.506zm-3.22-2.668c-.023 1.817-1.219 3.036-3.289 3.036-1.357 0-2.185-.69-2.185-1.679 0-1.196.851-1.771 2.392-1.771h3.082v.414zm7.988 4.899l-.46 1.15c-.368.966-.598 1.196-1.564 1.196h-1.748V46.1h2.668c1.725 0 2.231-.851 2.967-2.76l5.336-13.616h-2.645l-3.197 8.947-3.289-8.947h-2.645l4.577 11.845z" fill="#000"/></svg>