<svg width="138" height="36" viewBox="0 0 138 36" fill="none" xmlns="http://www.w3.org/2000/svg"><path d="M1.088 13h7.973v-1.734H3.043V7.815h4.794V6.132H3.043V2.834h5.814V1.1H1.088V13zm8.491 0h2.023l2.295-3.162L16.175 13h2.142l-3.28-4.454 3.093-4.25h-2.023l-2.125 2.941-2.074-2.941H9.766l3.077 4.25L9.58 13zM23.87 4.194c-1.36 0-2.26.629-2.838 1.394l-.221-1.292h-1.599V16.4h1.837v-4.624c.544.782 1.479 1.326 2.822 1.326 2.38 0 4.114-1.768 4.114-4.454 0-2.788-1.735-4.454-4.114-4.454zm-.306 7.361c-1.53 0-2.532-1.207-2.532-2.941 0-1.683 1.003-2.856 2.532-2.856 1.53 0 2.55 1.173 2.55 2.89 0 1.7-1.02 2.907-2.55 2.907zm10.023 1.547c2.159 0 3.62-1.309 3.927-3.026h-1.836c-.255.969-1.071 1.53-2.193 1.53-1.445 0-2.38-.969-2.431-2.448v-.119h6.562c.034-.238.05-.476.05-.697-.05-2.55-1.733-4.148-4.25-4.148-2.566 0-4.283 1.785-4.283 4.471 0 2.669 1.717 4.437 4.454 4.437zm-2.465-5.406c.136-1.241 1.139-2.023 2.312-2.023 1.275 0 2.176.731 2.329 2.023h-4.641zm12.432-3.4c-1.428 0-2.125.578-2.567 1.309l-.204-1.309h-1.632V13h1.836V8.631c0-1.343.527-2.618 2.159-2.618h.816V4.296h-.408zm2.475-1.224c.63 0 1.122-.459 1.122-1.105 0-.646-.493-1.105-1.122-1.105-.629 0-1.122.459-1.122 1.105 0 .646.493 1.105 1.122 1.105zM45.094 13h1.836V4.296h-1.836V13zm7.767.102c2.16 0 3.621-1.309 3.927-3.026h-1.836c-.255.969-1.07 1.53-2.193 1.53-1.445 0-2.38-.969-2.43-2.448v-.119h6.561c.034-.238.051-.476.051-.697-.05-2.55-1.734-4.148-4.25-4.148-2.567 0-4.284 1.785-4.284 4.471 0 2.669 1.717 4.437 4.454 4.437zm-2.465-5.406c.136-1.241 1.14-2.023 2.312-2.023 1.275 0 2.176.731 2.33 2.023h-4.642zm12.62-3.502c-1.412 0-2.245.561-2.789 1.241l-.204-1.139h-1.598V13h1.836V8.614c0-1.768.867-2.839 2.33-2.839 1.376 0 2.073.884 2.073 2.533V13h1.853V8.155c0-2.907-1.58-3.961-3.502-3.961zm9.1 8.908c2.227 0 3.706-1.241 4.046-3.213h-1.938c-.221 1.003-.97 1.649-2.091 1.649-1.48 0-2.448-1.173-2.448-2.873 0-1.717.969-2.907 2.448-2.907 1.139 0 1.87.629 2.108 1.649h1.92c-.356-1.972-1.75-3.213-3.994-3.213-2.635 0-4.37 1.785-4.37 4.471 0 2.72 1.684 4.437 4.319 4.437zm9.582 0c2.159 0 3.621-1.309 3.927-3.026h-1.836c-.255.969-1.071 1.53-2.193 1.53-1.445 0-2.38-.969-2.431-2.448v-.119h6.562c.034-.238.051-.476.051-.697-.051-2.55-1.734-4.148-4.25-4.148-2.567 0-4.284 1.785-4.284 4.471 0 2.669 1.717 4.437 4.454 4.437zm-2.465-5.406c.136-1.241 1.139-2.023 2.312-2.023 1.275 0 2.176.731 2.329 2.023h-4.641zm7.328 4.25c0 .68.493 1.156 1.173 1.156s1.19-.476 1.19-1.156c0-.68-.51-1.156-1.19-1.156-.68 0-1.173.476-1.173 1.156zM.612 28.09c.068 2.38 1.853 4.012 4.811 4.012 2.618 0 4.403-1.479 4.403-3.621.017-2.346-1.904-2.975-3.876-3.332-1.87-.323-3.094-.578-3.094-1.802 0-1.122.935-1.7 2.278-1.7 1.445 0 2.397.816 2.55 2.023h1.955c-.085-2.193-1.785-3.672-4.505-3.672-2.533 0-4.233 1.411-4.233 3.485 0 2.363 1.87 2.992 3.842 3.332 1.887.34 3.128.612 3.128 1.87 0 1.139-1.02 1.768-2.431 1.768-1.666 0-2.754-.935-2.856-2.329L.612 28.09zm15.406-4.896c-1.36 0-2.261.629-2.839 1.394l-.221-1.292H11.36V35.4h1.836v-4.624c.544.782 1.479 1.326 2.822 1.326 2.38 0 4.114-1.768 4.114-4.454 0-2.788-1.734-4.454-4.114-4.454zm-.306 7.361c-1.53 0-2.533-1.207-2.533-2.941 0-1.683 1.003-2.856 2.533-2.856s2.55 1.173 2.55 2.89c0 1.7-1.02 2.907-2.55 2.907zm10.022 1.547c2.16 0 3.621-1.309 3.927-3.026h-1.836c-.255.969-1.07 1.53-2.193 1.53-1.445 0-2.38-.969-2.43-2.448v-.119h6.561c.034-.238.051-.476.051-.697-.05-2.55-1.734-4.148-4.25-4.148-2.567 0-4.284 1.785-4.284 4.471 0 2.669 1.717 4.437 4.454 4.437zm-2.465-5.406c.136-1.241 1.14-2.023 2.312-2.023 1.275 0 2.176.731 2.33 2.023h-4.642zm12.16 5.406c2.16 0 3.621-1.309 3.927-3.026H37.52c-.255.969-1.07 1.53-2.193 1.53-1.444 0-2.38-.969-2.43-2.448v-.119h6.562c.033-.238.05-.476.05-.697-.05-2.55-1.733-4.148-4.25-4.148-2.566 0-4.284 1.785-4.284 4.471 0 2.669 1.718 4.437 4.454 4.437zm-2.465-5.406c.136-1.241 1.14-2.023 2.313-2.023 1.274 0 2.175.731 2.328 2.023h-4.64zm14.643-2.193c-.561-.765-1.496-1.309-2.822-1.309-2.363 0-4.114 1.768-4.114 4.454 0 2.788 1.75 4.454 4.114 4.454 1.377 0 2.278-.646 2.839-1.411l.22 1.309h1.599V20.1h-1.836v4.403zm-2.516 6.052c-1.53 0-2.533-1.19-2.533-2.907 0-1.7 1.003-2.89 2.533-2.89s2.533 1.19 2.533 2.924c0 1.683-1.003 2.873-2.533 2.873zm5.976.391c0 .68.493 1.156 1.173 1.156s1.19-.476 1.19-1.156c0-.68-.51-1.156-1.19-1.156-.68 0-1.173.476-1.173 1.156zM59.575 32h7.973v-1.734H61.53v-3.451h4.794v-1.683H61.53v-3.298h5.814V20.1h-7.769V32zm8.491 0h2.023l2.295-3.162L74.662 32h2.142l-3.28-4.454 3.093-4.25h-2.023l-2.125 2.941-2.074-2.941h-2.142l3.077 4.25L68.066 32zm13.366.102c2.16 0 3.621-1.309 3.927-3.026h-1.836c-.255.969-1.07 1.53-2.193 1.53-1.445 0-2.38-.969-2.43-2.448v-.119h6.561c.034-.238.051-.476.051-.697-.05-2.55-1.734-4.148-4.25-4.148-2.567 0-4.284 1.785-4.284 4.471 0 2.669 1.717 4.437 4.454 4.437zm-2.465-5.406c.136-1.241 1.14-2.023 2.312-2.023 1.275 0 2.176.731 2.33 2.023h-4.642zm12.025 5.406c2.227 0 3.706-1.241 4.046-3.213H93.1c-.221 1.003-.97 1.649-2.091 1.649-1.48 0-2.448-1.173-2.448-2.873 0-1.717.969-2.907 2.448-2.907 1.139 0 1.87.629 2.108 1.649h1.92c-.356-1.972-1.75-3.213-3.994-3.213-2.635 0-4.37 1.785-4.37 4.471 0 2.72 1.684 4.437 4.319 4.437zm11.418-4.454c0 1.802-.85 2.856-2.244 2.856-1.343 0-2.023-.867-2.023-2.567v-4.641h-1.836v4.845c0 2.975 1.581 3.961 3.434 3.961 1.343 0 2.142-.544 2.686-1.207l.204 1.105h1.615v-8.704h-1.836v4.352zm4.324 1.989c0 1.581.714 2.363 2.38 2.363h1.7v-1.615h-1.292c-.697 0-.935-.255-.935-.935v-4.539h2.125v-1.615h-2.125v-2.431h-1.853v2.431h-1.513v1.615h1.513v4.726zm6.183-7.565c.629 0 1.122-.459 1.122-1.105 0-.646-.493-1.105-1.122-1.105-.629 0-1.122.459-1.122 1.105 0 .646.493 1.105 1.122 1.105zM111.982 32h1.836v-8.704h-1.836V32zm7.75.102c2.652 0 4.437-1.785 4.437-4.454 0-2.652-1.785-4.454-4.437-4.454s-4.437 1.802-4.437 4.454c0 2.669 1.785 4.454 4.437 4.454zm0-1.564c-1.547 0-2.55-1.207-2.55-2.89s1.003-2.89 2.55-2.89 2.567 1.207 2.567 2.89-1.02 2.89-2.567 2.89zm10.503-7.344c-1.411 0-2.244.561-2.788 1.241l-.204-1.139h-1.598V32h1.836v-4.386c0-1.768.867-2.839 2.329-2.839 1.377 0 2.074.884 2.074 2.533V32h1.853v-4.845c0-2.907-1.581-3.961-3.502-3.961zm5.002 7.752c0 .68.493 1.156 1.173 1.156s1.19-.476 1.19-1.156c0-.68-.51-1.156-1.19-1.156-.68 0-1.173.476-1.173 1.156z" fill="#000"/></svg>