<svg width="151" height="9" viewBox="0 0 151 9" fill="none" xmlns="http://www.w3.org/2000/svg"><path d="M.18 1.618h1.944V7h1.035V1.618h1.944V.7H.18v.918zm8 .72c-.72 0-1.16.324-1.449.72V.7H5.76V7h.972V4.669c0-.927.468-1.494 1.233-1.494.72 0 1.107.468 1.107 1.341V7h.972V4.435c0-1.539-.837-2.097-1.863-2.097zm4.899 4.716c1.143 0 1.917-.693 2.079-1.602h-.972c-.135.513-.567.81-1.161.81-.765 0-1.26-.513-1.287-1.296v-.063h3.474a2.64 2.64 0 00.027-.369c-.027-1.35-.918-2.196-2.25-2.196-1.359 0-2.268.945-2.268 2.367 0 1.413.909 2.349 2.358 2.349zm-1.305-2.862c.072-.657.603-1.071 1.224-1.071.675 0 1.152.387 1.233 1.071h-2.457zm9.02-1.854c-.711 0-1.188.324-1.494.738V.7h-.972V7h.846l.117-.666c.288.414.783.72 1.503.72 1.26 0 2.178-.945 2.178-2.358 0-1.485-.918-2.358-2.178-2.358zm-.162 3.897c-.81 0-1.341-.639-1.341-1.548 0-.891.53-1.521 1.34-1.521s1.35.63 1.35 1.53c0 .909-.54 1.539-1.35 1.539zm3.613-4.491a.575.575 0 00.594-.585.575.575 0 00-.594-.585.575.575 0 00-.594.585c0 .342.261.585.594.585zM23.75 7h.972V2.392h-.972V7zm5.444-3.888c-.297-.459-.792-.774-1.512-.774-1.25 0-2.178.927-2.178 2.34 0 1.467.927 2.34 2.178 2.34.72 0 1.197-.297 1.503-.756v.513c0 .882-.477 1.287-1.323 1.287-.684 0-1.134-.297-1.25-.81h-.99c.09 1.035.944 1.602 2.168 1.602 1.656 0 2.358-.792 2.358-2.043V2.392h-.846l-.108.72zm-1.35 3.087c-.81 0-1.34-.621-1.34-1.521 0-.891.53-1.521 1.34-1.521s1.341.63 1.341 1.539c0 .882-.53 1.503-1.34 1.503zm6.773-3.087c-.297-.459-.792-.774-1.512-.774-1.25 0-2.178.927-2.178 2.34 0 1.467.927 2.34 2.178 2.34.72 0 1.197-.297 1.503-.756v.513c0 .882-.477 1.287-1.323 1.287-.684 0-1.134-.297-1.25-.81h-.99c.09 1.035.944 1.602 2.168 1.602 1.656 0 2.358-.792 2.358-2.043V2.392h-.846l-.108.72zm-1.35 3.087c-.81 0-1.34-.621-1.34-1.521 0-.891.53-1.521 1.34-1.521s1.341.63 1.341 1.539c0 .882-.53 1.503-1.34 1.503zm5.44.855c1.144 0 1.918-.693 2.08-1.602h-.972c-.135.513-.567.81-1.161.81-.765 0-1.26-.513-1.287-1.296v-.063h3.474a2.64 2.64 0 00.027-.369c-.027-1.35-.918-2.196-2.25-2.196-1.36 0-2.268.945-2.268 2.367 0 1.413.909 2.349 2.358 2.349zm-1.304-2.862c.072-.657.603-1.071 1.224-1.071.675 0 1.152.387 1.233 1.071h-2.457zm4.026 1.287c.027.999.873 1.575 2.106 1.575 1.116 0 1.953-.558 1.953-1.44 0-1.026-.855-1.242-1.908-1.368-.666-.072-1.107-.126-1.107-.558 0-.369.378-.603.954-.603s.972.297 1.026.72h.954c-.063-.945-.864-1.467-1.998-1.467-1.107-.009-1.89.558-1.89 1.431 0 .954.828 1.179 1.881 1.305.711.09 1.134.126 1.134.621 0 .369-.396.603-.999.603-.702 0-1.116-.342-1.152-.819h-.954zm5.146.27c0 .837.378 1.251 1.26 1.251h.9v-.855h-.684c-.37 0-.495-.135-.495-.495V3.247h1.125v-.855h-1.125V1.105h-.981v1.287h-.801v.855h.8v2.502zm8.6-2.637c-.297-.459-.792-.774-1.512-.774-1.251 0-2.178.927-2.178 2.34 0 1.467.927 2.34 2.178 2.34.72 0 1.197-.297 1.503-.756v.513c0 .882-.477 1.287-1.323 1.287-.684 0-1.134-.297-1.251-.81h-.99c.09 1.035.945 1.602 2.169 1.602 1.656 0 2.358-.792 2.358-2.043V2.392h-.846l-.108.72zm-1.35 3.087c-.81 0-1.341-.621-1.341-1.521 0-.891.53-1.521 1.34-1.521s1.342.63 1.342 1.539c0 .882-.531 1.503-1.341 1.503zm7.466-.045c-.198 0-.297-.063-.297-.297V4.012c0-1.089-.702-1.674-1.926-1.674-1.161 0-1.935.558-2.034 1.458h.954c.072-.405.459-.675 1.035-.675.639 0 1.008.315 1.008.828v.279H58.87c-1.287 0-1.971.531-1.971 1.476 0 .855.702 1.35 1.71 1.35.747 0 1.215-.324 1.52-.792 0 .459.217.738.847.738h.513v-.846h-.198zM60.03 5.11c-.01.711-.477 1.188-1.287 1.188-.531 0-.855-.27-.855-.657 0-.468.333-.693.936-.693h1.206v.162zm7.288-2.772c-.756 0-1.278.333-1.575.837-.279-.594-.819-.837-1.422-.837-.693.009-1.089.315-1.35.657l-.108-.603h-.846V7h.972V4.534c0-.819.414-1.359 1.08-1.359.639 0 .972.423.972 1.233V7h.981V4.507c0-.828.423-1.332 1.089-1.332.63 0 .963.423.963 1.233V7h.972V4.345c0-1.458-.774-2.007-1.728-2.007zm4.761 4.716c1.143 0 1.917-.693 2.079-1.602h-.972c-.135.513-.567.81-1.161.81-.765 0-1.26-.513-1.287-1.296v-.063h3.474a2.64 2.64 0 00.027-.369c-.027-1.35-.918-2.196-2.25-2.196-1.359 0-2.268.945-2.268 2.367 0 1.413.909 2.349 2.358 2.349zm-1.305-2.862c.072-.657.603-1.071 1.224-1.071.675 0 1.152.387 1.233 1.071h-2.457zm4.42 1.647c-.414 0-.684.27-.684.612 0 .387.234.576.53.576a.484.484 0 00.298-.09.513.513 0 01.009.117c0 .315-.225.666-.792.675v.522c.89-.009 1.449-.504 1.449-1.377 0-.576-.315-1.035-.81-1.035zm4.36-4.095a.575.575 0 00.594-.585.575.575 0 00-.594-.585.575.575 0 00-.594.585c0 .342.261.585.594.585zM79.06 7h.972V2.392h-.972V7zm4.355-4.662c-.747 0-1.188.297-1.476.657l-.108-.603h-.846V7h.972V4.678c0-.936.459-1.503 1.233-1.503.729 0 1.098.468 1.098 1.341V7h.98V4.435c0-1.539-.836-2.097-1.853-2.097zm2.54 3.141c.027.999.873 1.575 2.106 1.575 1.116 0 1.953-.558 1.953-1.44 0-1.026-.855-1.242-1.908-1.368-.666-.072-1.107-.126-1.107-.558 0-.369.378-.603.954-.603s.972.297 1.026.72h.954c-.063-.945-.864-1.467-1.998-1.467-1.107-.009-1.89.558-1.89 1.431 0 .954.828 1.179 1.88 1.305.712.09 1.135.126 1.135.621 0 .369-.396.603-1 .603-.701 0-1.115-.342-1.151-.819h-.954zm5.307-3.735a.575.575 0 00.594-.585.575.575 0 00-.594-.585.575.575 0 00-.594.585c0 .342.261.585.594.585zM90.767 7h.972V2.392h-.972V7zm5.426-3.969c-.297-.405-.792-.693-1.494-.693-1.251 0-2.178.936-2.178 2.358 0 1.476.927 2.358 2.178 2.358.729 0 1.206-.342 1.503-.747l.117.693h.846V.7h-.972v2.331zM94.86 6.235c-.81 0-1.341-.63-1.341-1.539 0-.9.53-1.53 1.34-1.53s1.342.63 1.342 1.548c0 .891-.531 1.521-1.341 1.521zm5.441.819c1.143 0 1.917-.693 2.079-1.602h-.972c-.135.513-.567.81-1.161.81-.765 0-1.26-.513-1.287-1.296v-.063h3.474a2.64 2.64 0 00.027-.369c-.027-1.35-.918-2.196-2.25-2.196-1.36 0-2.268.945-2.268 2.367 0 1.413.909 2.349 2.358 2.349zm-1.305-2.862c.072-.657.603-1.071 1.224-1.071.675 0 1.152.387 1.233 1.071h-2.457zm7.885 2.835l-.18.45c-.144.378-.234.468-.612.468h-.684V8.8h1.044c.675 0 .873-.333 1.161-1.08l2.088-5.328h-1.035l-1.251 3.501-1.287-3.501h-1.035l1.791 4.635zm5.276.027c1.404 0 2.349-.945 2.349-2.358 0-1.404-.945-2.358-2.349-2.358-1.404 0-2.349.954-2.349 2.358 0 1.413.945 2.358 2.349 2.358zm0-.828c-.819 0-1.35-.639-1.35-1.53s.531-1.53 1.35-1.53c.819 0 1.359.639 1.359 1.53s-.54 1.53-1.359 1.53zm6.29-1.53c0 .954-.45 1.512-1.188 1.512-.711 0-1.071-.459-1.071-1.359V2.392h-.972v2.565c0 1.575.837 2.097 1.818 2.097.711 0 1.134-.288 1.422-.639l.108.585h.855V2.392h-.972v2.304zm4.26-2.304c-.756 0-1.125.306-1.359.693l-.108-.693h-.864V7h.972V4.687c0-.711.279-1.386 1.143-1.386h.432v-.909h-.216zm5.54-.054c-.72 0-1.161.324-1.449.72V.7h-.972V7h.972V4.669c0-.927.468-1.494 1.233-1.494.72 0 1.107.468 1.107 1.341V7h.972V4.435c0-1.539-.837-2.097-1.863-2.097zm4.898 4.716c1.143 0 1.917-.693 2.079-1.602h-.972c-.135.513-.567.81-1.161.81-.765 0-1.26-.513-1.287-1.296v-.063h3.474a2.64 2.64 0 00.027-.369c-.027-1.35-.918-2.196-2.25-2.196-1.359 0-2.268.945-2.268 2.367 0 1.413.909 2.349 2.358 2.349zm-1.305-2.862c.072-.657.603-1.071 1.224-1.071.675 0 1.152.387 1.233 1.071h-2.457zm8.463 1.962c-.198 0-.297-.063-.297-.297V4.012c0-1.089-.702-1.674-1.926-1.674-1.161 0-1.935.558-2.034 1.458h.954c.072-.405.459-.675 1.035-.675.639 0 1.008.315 1.008.828v.279h-1.161c-1.287 0-1.971.531-1.971 1.476 0 .855.702 1.35 1.71 1.35.747 0 1.215-.324 1.521-.792 0 .459.216.738.846.738h.513v-.846h-.198zm-1.26-1.044c-.009.711-.477 1.188-1.287 1.188-.531 0-.855-.27-.855-.657 0-.468.333-.693.936-.693h1.206v.162zm5.454-2.079c-.297-.405-.792-.693-1.494-.693-1.251 0-2.178.936-2.178 2.358 0 1.476.927 2.358 2.178 2.358.729 0 1.206-.342 1.503-.747l.117.693h.846V.7h-.972v2.331zm-1.332 3.204c-.81 0-1.341-.63-1.341-1.539 0-.9.531-1.53 1.341-1.53.81 0 1.341.63 1.341 1.548 0 .891-.531 1.521-1.341 1.521zm4.027-3.474c0-.747.45-1.251 1.143-1.251.603 0 1.008.36 1.008.873 0 .432-.234.72-.639.99-.54.351-.963.648-.963 1.377v.288h.918v-.18c0-.45.306-.684.792-1.017.468-.333.9-.729.9-1.557 0-.945-.774-1.638-2.025-1.638-1.341 0-2.124.945-2.124 2.115h.99zm.414 3.69c0 .36.27.603.621.603s.612-.243.612-.603-.261-.603-.612-.603-.621.243-.621.603z" fill="#000"/></svg>