<svg width="238" height="12" viewBox="0 0 238 12" fill="none" xmlns="http://www.w3.org/2000/svg"><path d="M.22 1.85h2.64V9h.594V1.85h2.64V1.3H.22v.55zm10.867 6.633c-.33 0-.495-.11-.495-.539V5.348c0-1.276-.78-1.991-2.178-1.991-1.276 0-2.123.616-2.266 1.628h.561c.143-.682.737-1.133 1.683-1.133 1.045 0 1.64.55 1.64 1.474v.484H8.138c-1.43 0-2.2.616-2.2 1.661 0 .99.781 1.595 1.97 1.595 1.132 0 1.803-.517 2.144-1.21v.198c-.022.66.253.946.913.946h.33v-.517h-.208zm-1.056-1.738c0 1.067-.759 1.837-2.079 1.837-.89 0-1.44-.451-1.44-1.144 0-.737.55-1.144 1.583-1.144h1.936v.451zM12.047 9h.56V7.493l1.31-1.342L16.05 9h.682l-2.431-3.256 2.244-2.321h-.693l-3.245 3.344V1.3h-.561V9zm7.598.066c1.221 0 2.157-.792 2.399-1.914h-.573c-.22.869-.956 1.408-1.87 1.408-1.242 0-2.023-.946-2.046-2.244v-.099h4.555c0-.077.01-.165.01-.231-.055-1.661-1.078-2.629-2.573-2.629-1.53 0-2.575 1.166-2.575 2.816 0 1.749 1.09 2.893 2.673 2.893zM17.6 5.744c.088-1.133.936-1.892 1.959-1.892 1.088 0 1.87.671 1.957 1.892H17.6zM31.1 8.483c-.33 0-.495-.11-.495-.539V5.348c0-1.276-.78-1.991-2.178-1.991-1.276 0-2.123.616-2.266 1.628h.561c.143-.682.737-1.133 1.683-1.133 1.045 0 1.64.55 1.64 1.474v.484h-1.893c-1.43 0-2.2.616-2.2 1.661 0 .99.781 1.595 1.97 1.595 1.132 0 1.803-.517 2.144-1.21v.198c-.022.66.253.946.913.946h.33v-.517H31.1zm-1.056-1.738c0 1.067-.759 1.837-2.079 1.837-.89 0-1.44-.451-1.44-1.144 0-.737.55-1.144 1.583-1.144h1.936v.451zm7.675-3.388c-1.045 0-1.77.561-2.123 1.342l-.088-1.276h-.484V11.2h.561V7.713c.32.814 1.078 1.353 2.134 1.353 1.53 0 2.63-1.166 2.63-2.86 0-1.749-1.1-2.849-2.63-2.849zm-.044 5.203c-1.243 0-2.1-.968-2.1-2.365 0-1.364.857-2.343 2.1-2.343s2.101.979 2.101 2.354c0 1.386-.858 2.354-2.1 2.354zm6.248.506c1.573 0 2.684-1.166 2.684-2.86 0-1.683-1.111-2.849-2.684-2.849-1.573 0-2.673 1.166-2.673 2.849 0 1.694 1.1 2.86 2.673 2.86zm0-.506c-1.243 0-2.101-.968-2.101-2.354 0-1.375.858-2.354 2.1-2.354 1.244 0 2.102.979 2.102 2.354 0 1.386-.858 2.354-2.101 2.354zm3.535-1.276c.044 1.155.979 1.782 2.376 1.782 1.199 0 2.167-.605 2.167-1.595 0-1.177-1.034-1.408-2.233-1.573-.87-.121-1.64-.22-1.64-1.001 0-.638.628-1.056 1.574-1.056.89 0 1.529.429 1.628 1.155h.572c-.1-1.089-.99-1.639-2.2-1.639-1.243-.011-2.134.627-2.134 1.584 0 1.122 1.034 1.331 2.178 1.485.935.132 1.694.253 1.694 1.078 0 .66-.693 1.078-1.606 1.078-1.067 0-1.76-.495-1.804-1.298h-.572zm5.9-5.038c.22 0 .395-.165.395-.396a.388.388 0 00-.396-.396.388.388 0 00-.396.396c0 .231.176.396.396.396zM53.07 9h.561V3.423h-.56V9zm2.298-1.298c0 .891.363 1.298 1.309 1.298h.814v-.517h-.77c-.583 0-.792-.22-.792-.792V3.94h1.507v-.517H55.93V1.861h-.561v1.562h-1.056v.517h1.056v3.762zm3.263-5.456c.22 0 .396-.165.396-.396a.388.388 0 00-.396-.396.388.388 0 00-.396.396c0 .231.175.396.396.396zM58.346 9h.56V3.423h-.56V9zm4.343.066c1.573 0 2.684-1.166 2.684-2.86 0-1.683-1.11-2.849-2.684-2.849-1.573 0-2.673 1.166-2.673 2.849 0 1.694 1.1 2.86 2.673 2.86zm0-.506c-1.243 0-2.1-.968-2.1-2.354 0-1.375.857-2.354 2.1-2.354s2.101.979 2.101 2.354c0 1.386-.858 2.354-2.1 2.354zm6.373-5.203c-1.023 0-1.683.528-2.002 1.254l-.088-1.188h-.484V9h.561V6.25c0-1.452.737-2.376 1.925-2.376 1.078 0 1.727.704 1.727 2.024V9h.561V5.876c0-1.76-.935-2.519-2.2-2.519zm8.87 5.709c1.574 0 2.685-1.166 2.685-2.86 0-1.683-1.111-2.849-2.684-2.849-1.573 0-2.673 1.166-2.673 2.849 0 1.694 1.1 2.86 2.673 2.86zm0-.506c-1.242 0-2.1-.968-2.1-2.354 0-1.375.858-2.354 2.1-2.354 1.244 0 2.102.979 2.102 2.354 0 1.386-.858 2.354-2.101 2.354zm6.373-5.203c-1.023 0-1.683.528-2.002 1.254l-.088-1.188h-.484V9h.561V6.25c0-1.452.737-2.376 1.925-2.376 1.078 0 1.727.704 1.727 2.024V9h.561V5.876c0-1.76-.935-2.519-2.2-2.519zM90.855 9l.924-2.354h3.542L96.245 9h.638l-2.97-7.7h-.693L90.239 9h.616zm2.695-7.04l1.595 4.136h-3.19L93.55 1.96zm3.9 3.861c0 2.145.912 3.245 2.804 3.245 1.903 0 2.827-1.1 2.827-3.245V1.3h-.594v4.554c0 1.771-.682 2.662-2.233 2.662-1.529 0-2.21-.891-2.21-2.662V1.3h-.595v4.521zM106.88 9c2.442 0 3.872-1.518 3.872-3.85 0-2.343-1.43-3.85-3.872-3.85h-2.244V9h2.244zm-1.65-7.15h1.65c2.101 0 3.267 1.276 3.267 3.3 0 2.013-1.166 3.3-3.267 3.3h-1.65v-6.6zm6.236 8.58L114.58.97h-.561l-3.113 9.46h.561zm4.062-4.609c0 2.145.913 3.245 2.805 3.245 1.903 0 2.827-1.1 2.827-3.245V1.3h-.594v4.554c0 1.771-.682 2.662-2.233 2.662-1.529 0-2.211-.891-2.211-2.662V1.3h-.594v4.521zm6.901.814c.077 1.452 1.133 2.431 2.86 2.431 1.617 0 2.684-.88 2.684-2.178 0-1.463-1.298-1.837-2.574-2.057-1.177-.198-2.2-.396-2.2-1.496 0-1.001.781-1.562 1.991-1.562 1.155 0 1.947.649 2.079 1.65h.605c-.11-1.32-1.111-2.189-2.684-2.189-1.562 0-2.585.825-2.585 2.134 0 1.463 1.254 1.793 2.486 2.002 1.21.209 2.288.451 2.288 1.573 0 .99-.836 1.584-2.079 1.584-1.298 0-2.178-.748-2.255-1.892h-.616zM131.523 9c2.442 0 3.872-1.518 3.872-3.85 0-2.343-1.43-3.85-3.872-3.85h-2.244V9h2.244zm-1.65-7.15h1.65c2.101 0 3.267 1.276 3.267 3.3 0 2.013-1.166 3.3-3.267 3.3h-1.65v-6.6zm12.368 1.507c-1.045 0-1.782.572-2.134 1.364V1.3h-.561V9h.484l.088-1.265c.33.803 1.078 1.331 2.123 1.331 1.529 0 2.629-1.166 2.629-2.86 0-1.749-1.1-2.849-2.629-2.849zm-.044 5.203c-1.243 0-2.101-.968-2.101-2.365 0-1.364.858-2.343 2.101-2.343 1.243 0 2.101.979 2.101 2.354 0 1.386-.858 2.354-2.101 2.354zm6.247.506c1.221 0 2.156-.792 2.398-1.914h-.572c-.22.869-.957 1.408-1.87 1.408-1.243 0-2.024-.946-2.046-2.244v-.099h4.554c0-.077.011-.165.011-.231-.055-1.661-1.078-2.629-2.574-2.629-1.529 0-2.574 1.166-2.574 2.816 0 1.749 1.089 2.893 2.673 2.893zm-2.046-3.322c.088-1.133.935-1.892 1.958-1.892 1.089 0 1.87.671 1.958 1.892h-3.916zm4.906-1.804h1.056V9h.561V3.94h1.672v-.517h-1.672v-.836c0-.55.209-.77.77-.77h.913V1.3h-.935c-.935 0-1.309.407-1.309 1.298v.825h-1.056v.517zm6.142 5.126c1.573 0 2.684-1.166 2.684-2.86 0-1.683-1.111-2.849-2.684-2.849-1.573 0-2.673 1.166-2.673 2.849 0 1.694 1.1 2.86 2.673 2.86zm0-.506c-1.243 0-2.101-.968-2.101-2.354 0-1.375.858-2.354 2.101-2.354 1.243 0 2.101.979 2.101 2.354 0 1.386-.858 2.354-2.101 2.354zm6.076-5.137c-1.034 0-1.474.495-1.705 1.111l-.088-1.111h-.484V9h.561V6.173c0-1.133.297-2.211 1.606-2.211h.407v-.539h-.297zm3.195 5.643c1.221 0 2.156-.792 2.398-1.914h-.572c-.22.869-.957 1.408-1.87 1.408-1.243 0-2.024-.946-2.046-2.244v-.099h4.554c0-.077.011-.165.011-.231-.055-1.661-1.078-2.629-2.574-2.629-1.529 0-2.574 1.166-2.574 2.816 0 1.749 1.089 2.893 2.673 2.893zm-2.046-3.322c.088-1.133.935-1.892 1.958-1.892 1.089 0 1.87.671 1.958 1.892h-3.916zm11.168-2.387c-1.023 0-1.683.528-2.002 1.254l-.088-1.188h-.484V9h.561V6.25c0-1.452.737-2.376 1.925-2.376 1.078 0 1.727.704 1.727 2.024V9h.561V5.876c0-1.76-.935-2.519-2.2-2.519zm5.82 5.709c1.221 0 2.156-.792 2.398-1.914h-.572c-.22.869-.957 1.408-1.87 1.408-1.243 0-2.024-.946-2.046-2.244v-.099h4.554c0-.077.011-.165.011-.231-.055-1.661-1.078-2.629-2.574-2.629-1.529 0-2.574 1.166-2.574 2.816 0 1.749 1.089 2.893 2.673 2.893zm-2.046-3.322c.088-1.133.935-1.892 1.958-1.892 1.089 0 1.87.671 1.958 1.892h-3.916zM184.456 9h.649l1.848-2.453L188.801 9h.682l-2.167-2.849 2.057-2.728h-.638l-1.76 2.31-1.738-2.31h-.671l2.057 2.728L184.456 9zm6.243-1.298c0 .891.363 1.298 1.309 1.298h.814v-.517h-.77c-.583 0-.792-.22-.792-.792V3.94h1.507v-.517h-1.507V1.861h-.561v1.562h-1.056v.517h1.056v3.762zM196.2 1.85h2.64V9h.594V1.85h2.64V1.3H196.2v.55zm10.311 4.312c0 1.463-.726 2.387-1.881 2.387-1.034 0-1.672-.704-1.672-2.035V3.423h-.561v3.124c0 1.749.913 2.519 2.145 2.519.99 0 1.639-.528 1.958-1.243L206.577 9h.495V3.423h-.561v2.739zm4.345 2.904c1.221 0 2.156-.792 2.398-1.914h-.572c-.22.869-.957 1.408-1.87 1.408-1.243 0-2.024-.946-2.046-2.244v-.099h4.554c0-.077.011-.165.011-.231-.055-1.661-1.078-2.629-2.574-2.629-1.529 0-2.574 1.166-2.574 2.816 0 1.749 1.089 2.893 2.673 2.893zm-2.046-3.322c.088-1.133.935-1.892 1.958-1.892 1.089 0 1.87.671 1.958 1.892h-3.916zm5.367 1.54c.044 1.155.979 1.782 2.376 1.782 1.199 0 2.167-.605 2.167-1.595 0-1.177-1.034-1.408-2.233-1.573-.869-.121-1.639-.22-1.639-1.001 0-.638.627-1.056 1.573-1.056.891 0 1.529.429 1.628 1.155h.572c-.099-1.089-.99-1.639-2.2-1.639-1.243-.011-2.134.627-2.134 1.584 0 1.122 1.034 1.331 2.178 1.485.935.132 1.694.253 1.694 1.078 0 .66-.693 1.078-1.606 1.078-1.067 0-1.76-.495-1.804-1.298h-.572zm10.167-2.607c-.341-.792-1.089-1.32-2.134-1.32-1.529 0-2.629 1.166-2.629 2.849 0 1.76 1.1 2.86 2.629 2.86 1.045 0 1.771-.561 2.123-1.342L224.421 9h.484V1.3h-.561v3.377zm-2.09 3.883c-1.243 0-2.101-.968-2.101-2.354 0-1.375.858-2.354 2.101-2.354 1.243 0 2.101.979 2.101 2.365 0 1.375-.858 2.343-2.101 2.343zm8.876-.077c-.33 0-.495-.11-.495-.539V5.348c0-1.276-.781-1.991-2.178-1.991-1.276 0-2.123.616-2.266 1.628h.561c.143-.682.737-1.133 1.683-1.133 1.045 0 1.639.55 1.639 1.474v.484h-1.892c-1.43 0-2.2.616-2.2 1.661 0 .99.781 1.595 1.969 1.595 1.133 0 1.804-.517 2.145-1.21v.198c-.022.66.253.946.913.946h.33v-.517h-.209zm-1.056-1.738c0 1.067-.759 1.837-2.079 1.837-.891 0-1.441-.451-1.441-1.144 0-.737.55-1.144 1.584-1.144h1.936v.451zM233.579 9l-.363.902c-.253.616-.352.781-.924.781h-.704v.517h.858c.748 0 .924-.286 1.276-1.166l2.673-6.611h-.605l-1.903 4.851-1.936-4.851h-.605L233.579 9zm3.064-.363c0 .253.176.418.418.418a.398.398 0 00.418-.418c0-.253-.176-.407-.418-.407s-.418.154-.418.407z" fill="#000"/></svg>