<svg width="31" height="11" viewBox="0 0 31 11" fill="none" xmlns="http://www.w3.org/2000/svg"><path d="M21.203 4.274h-1.577C19.194 1.907 17.384.47 14.647.47c-3.076 0-5.065 1.968-5.065 5.01 0 3.043 1.927 4.968 5.065 4.952 2.558 0 4.373-1.351 4.913-3.565h1.068l.326-.865H19.7a6.748 6.748 0 00.02-.865h1.17l.312-.866v.003zm-4.41 1.73h-1.68l-.326.866h1.917c-.216 1.296-.796 2.193-1.995 2.193-1.585 0-2.206-1.612-2.206-3.61 0-1.996.498-3.594 2.098-3.608 1.259 0 1.91 1.007 2.125 2.43h-1.363l-.312.866h1.75a10.701 10.701 0 01-.007.865v-.001zM.883 10.432h2.75V6.81h4.676V4.617H3.632V3.005h5.174V.694H.883v9.738zM28.848 6.883c1.228-.507 2.035-1.477 2.035-2.923v-.03c0-.925-.296-1.67-.87-2.208C29.344 1.08 28.286.694 26.78.694H22.09v9.738h2.75V7.315h1.211l1.492 3.155h3.169l-1.865-3.587h.001zm-.715-2.76c0 .7-.543 1.132-1.476 1.132h-1.819V2.96h1.803c.933 0 1.492.388 1.492 1.133v.03z" fill="#fff"/></svg>