<svg width="174" height="11" viewBox="0 0 174 11" fill="none" xmlns="http://www.w3.org/2000/svg"><path d="M11.735 10.47L7.83.67H4.371l-3.864 9.8h3.15l.63-1.708h3.668l.63 1.708h3.15zM4.973 6.662L6.107 3.61l1.134 3.052H4.973zm10.719 3.808V.684H13.06v9.786h2.632zm6.314-2.604V5.822h-4.858v2.044h4.858zM23.479.684v9.786h2.632V7.684h1.68c2.912 0 4.298-1.078 4.298-3.472S30.772.684 27.762.684h-4.284zm2.632 2.268h1.554c1.176 0 1.68.434 1.68 1.358 0 .938-.518 1.344-1.68 1.344H26.11V2.952zM38.716.544c-2.898 0-5.25 2.254-5.25 5.04 0 2.772 2.352 5.026 5.25 5.026s5.25-2.254 5.25-5.026c0-2.786-2.352-5.04-5.25-5.04zm0 2.464c1.47 0 2.506 1.148 2.506 2.576 0 1.414-1.036 2.562-2.506 2.562-1.47 0-2.492-1.148-2.492-2.562 0-1.428 1.022-2.576 2.492-2.576zM56.6 10.47L59.82.684h-2.94l-1.75 5.67L53.423.67h-2.576l-1.708 5.684-1.75-5.67h-2.94l3.22 9.786h2.702l1.764-5.628 1.764 5.628H56.6zm12.592-7.434V.67h-8.022v9.8h8.106V8.104h-5.474v-1.47h5.012v-2.24h-5.012V3.036h5.39zM70.769.684v9.786H73.4V7.488H74.969l1.904 2.982h3.038l-2.198-3.332c1.358-.462 1.932-1.456 1.932-3.052 0-2.394-1.274-3.402-4.466-3.402h-4.41zM73.4 3.05h1.904c1.162 0 1.596.364 1.596 1.204 0 .854-.434 1.204-1.596 1.204H73.4V3.05zm15.862-.014V.67h-8.022v9.8h8.106V8.104h-5.474v-1.47h5.012v-2.24h-5.012V3.036h5.39zM90.84.684v9.786h4.2c2.898 0 5.25-2.114 5.25-4.886 0-2.786-2.352-4.914-5.25-4.914l-4.2.014zm2.632 2.352h1.47c1.456 0 2.646 1.092 2.646 2.534 0 1.456-1.19 2.548-2.646 2.548h-1.47V3.036zm19.724-.112V.67h-8.33v2.254h2.842v7.546h2.646V2.924h2.842zm1.324-2.24v9.786h2.632V7.488H118.719l1.904 2.982h3.038l-2.198-3.332c1.358-.462 1.932-1.456 1.932-3.052 0-2.394-1.274-3.402-4.466-3.402h-4.41zm2.632 2.366h1.904c1.162 0 1.596.364 1.596 1.204 0 .854-.434 1.204-1.596 1.204h-1.904V3.05zm18.41 7.42l-3.906-9.8h-3.458l-3.864 9.8h3.15l.63-1.708h3.668l.63 1.708h3.15zm-6.762-3.808l1.134-3.052 1.134 3.052h-2.268zm8.087-5.978v9.786h4.2c2.898 0 5.25-2.114 5.25-4.886 0-2.786-2.352-4.914-5.25-4.914l-4.2.014zm2.632 2.352h1.47c1.456 0 2.646 1.092 2.646 2.534 0 1.456-1.19 2.548-2.646 2.548h-1.47V3.036zm11.183 7.434V.684h-2.632v9.786h2.632zm11.187 0V.67h-2.59v5.474L155.35.67h-2.73v9.8h2.59V5.01l3.948 5.46h2.73zm7.07-9.94c-2.786-.014-5.418 1.82-5.418 5.054 0 2.772 2.352 5.026 5.25 5.026 1.652 0 3.178-.546 4.354-1.484V4.842h-4.186v1.876h1.68v.938a3.636 3.636 0 01-1.848.49c-1.47 0-2.492-1.148-2.492-2.562 0-1.638 1.246-2.618 2.66-2.618.756 0 1.526.266 2.142.798l1.722-1.806C171.73 1.02 170.344.544 168.958.53z" fill="#09B45B"/></svg>