<svg width="127" height="90" viewBox="0 0 127 90" fill="none" xmlns="http://www.w3.org/2000/svg"><path fill="#fff" d="M0 0h127v90H0z"/><path d="M10 37.36h12.067v3.712h-7.879v2.587h7.122v3.52h-7.122v5.438H10V37.359z" fill="#12225C"/><path fill-rule="evenodd" clip-rule="evenodd" d="M42.767 37.36h7.22c2.327 0 3.958.622 4.99 1.652.887.862 1.343 2.06 1.343 3.545v.048c0 2.323-1.248 3.88-3.143 4.694l3.646 5.318H51.93l-3.07-4.623h-1.872v4.623h-4.245V37.359h.024zm7.028 7.329c1.44 0 2.279-.695 2.279-1.82v-.049c0-1.197-.864-1.82-2.303-1.82h-2.783v3.665h2.807v.024z" fill="#12225C"/><path d="M58.3 37.36h12.138v3.592H62.44v2.323h7.24v3.33h-7.24v2.419h8.092v3.593H58.3V37.359zM77.086 44.856l-4.969-7.497h4.803l2.674 4.288 2.698-4.288h4.684l-4.945 7.45 5.182 7.808H82.41l-2.887-4.6-2.91 4.6h-4.709l5.182-7.76zM91.306 45.383c0-1.748 1.326-3.21 3.218-3.21 1.23 0 2.059.551 2.58 1.366l-1.444 1.078c-.284-.408-.615-.647-1.112-.647-.686 0-1.183.599-1.183 1.341v.024c0 .79.497 1.39 1.207 1.39.497 0 .828-.24 1.159-.623l1.42 1.03c-.568.838-1.349 1.389-2.674 1.389-1.846.024-3.17-1.413-3.17-3.138" fill="#12225C"/><path fill-rule="evenodd" clip-rule="evenodd" d="M98.418 45.383c0-1.748 1.415-3.21 3.382-3.21 1.943 0 3.358 1.438 3.358 3.162v.024c0 1.725-1.415 3.186-3.382 3.186-1.943 0-3.358-1.438-3.358-3.162m4.653 0c0-.766-.552-1.39-1.295-1.39-.768 0-1.272.624-1.272 1.342v.024c0 .742.552 1.365 1.296 1.365.791 0 1.271-.622 1.271-1.341" fill="#12225C"/><path d="M106.299 42.293h2.106v.839c.378-.503.946-.959 1.798-.959.805 0 1.42.36 1.727.983.521-.6 1.136-.983 2.012-.983 1.277 0 2.058.815 2.058 2.228v4h-2.106v-3.33c0-.67-.331-1.005-.828-1.005-.497 0-.875.359-.875 1.006v3.305h-2.083v-3.305c0-.671-.331-1.006-.828-1.006-.497 0-.851.359-.851 1.006v3.305h-2.106v-6.084h-.024z" fill="#12225C"/><path fill-rule="evenodd" clip-rule="evenodd" d="M39.096 44.952c0-.154-.002-.305-.008-.455h1.808l.48-1.39H38.94c-.668-3.8-3.465-6.107-7.688-6.107-4.75 0-7.82 3.162-7.82 8.048 0 4.934 2.974 7.976 7.82 7.952 3.949 0 6.752-2.17 7.585-5.725h1.65l.504-1.389h-1.935c.026-.304.04-.615.04-.934zm-7.747 5.844c-2.447 0-3.407-2.586-3.407-5.796 0-3.21.768-5.773 3.239-5.796 1.943 0 2.948 1.618 3.279 3.904h-2.104l-.48 1.389h2.702a18.057 18.057 0 01-.012 1.39h-2.594l-.504 1.388h2.96c-.333 2.082-1.228 3.521-3.08 3.521z" fill="#14964F"/><path d="M88.373 47.251c0-.311.118-.55.331-.79.213-.216.473-.335.78-.335.308 0 .569.12.782.335.213.215.33.479.33.79 0 .312-.117.575-.33.79a1.045 1.045 0 01-.781.312c-.308 0-.568-.096-.781-.311-.236-.192-.331-.455-.331-.79" fill="#12225C"/></svg>