<svg width="189" height="18" viewBox="0 0 189 18" fill="none" xmlns="http://www.w3.org/2000/svg"><path d="M9.284.513C4.388.513.428 4.377.428 9.153c0 4.752 3.96 8.616 8.856 8.616 3 0 5.64-1.44 7.224-3.672l-3.912-2.208a4.012 4.012 0 01-3.288 1.656c-2.448 0-4.152-1.968-4.152-4.392 0-2.448 1.704-4.416 4.152-4.416 1.392 0 2.544.648 3.288 1.656l3.912-2.208C14.924 1.953 12.284.513 9.284.513zm18.05 0c-4.968 0-9 3.864-9 8.64 0 4.752 4.032 8.616 9 8.616s9-3.864 9-8.616c0-4.776-4.032-8.64-9-8.64zm0 4.224c2.52 0 4.296 1.968 4.296 4.416 0 2.424-1.776 4.392-4.296 4.392-2.52 0-4.272-1.968-4.272-4.392 0-2.448 1.752-4.416 4.272-4.416zm32.435 12.792V.729h-5.928l-4.368 7.224L45.13.729h-5.928v16.8h4.44V6.777l5.064 8.544h1.536l5.064-8.544v10.752h4.464zm23.86 0V.729H77.7l-4.368 7.224L68.989.729H63.06v16.8h4.44V6.777l5.064 8.544H74.1l5.064-8.544v10.752h4.464zM95.584.513c-4.968 0-9 3.864-9 8.64 0 4.752 4.032 8.616 9 8.616s9-3.864 9-8.616c0-4.776-4.032-8.64-9-8.64zm0 4.224c2.52 0 4.296 1.968 4.296 4.416 0 2.424-1.776 4.392-4.296 4.392-2.52 0-4.272-1.968-4.272-4.392 0-2.448 1.752-4.416 4.272-4.416zM107.57.753v16.776h7.2c4.968 0 9-3.624 9-8.376 0-4.776-4.032-8.424-9-8.424l-7.2.024zm4.512 4.032h2.52c2.496 0 4.536 1.872 4.536 4.344 0 2.496-2.04 4.368-4.536 4.368h-2.52V4.785zm19.172 12.744V.753h-4.512v16.776h4.512zM147.84 4.593V.729h-14.28v3.864h4.872v12.936h4.536V4.593h4.872zm6.782 12.936V.753h-4.512v16.776h4.512zm17.186-12.744V.729h-13.752v16.8h13.896v-4.056h-9.384v-2.52h8.592v-3.84h-8.592V4.785h9.24zm9.541-4.296c-3.912.024-6.984 1.728-6.984 5.496 0 3.288 2.736 4.176 6.552 5.088 2.76.696 3.24.792 3.24 1.752 0 .768-.816 1.104-1.752 1.104-2.136 0-4.56-.624-6.744-1.848l-2.016 3.36c2.304 1.536 5.136 2.352 8.256 2.352 4.32 0 7.032-1.968 7.032-5.544 0-3.432-2.808-4.392-6.744-5.448-2.616-.648-2.928-.864-2.928-1.392 0-.768.744-1.104 1.608-1.104 1.656 0 3.912.576 5.832 1.56l1.896-3.48c-1.968-1.2-4.56-1.896-7.248-1.896z" fill="#09B45B"/></svg>