<svg width="217" height="18" viewBox="0 0 217 18" fill="none" xmlns="http://www.w3.org/2000/svg"><path d="M1.982 9.512c-.501 0-.933-.176-1.296-.528a1.788 1.788 0 01-.544-1.312c0-.523.182-.96.544-1.312a1.77 1.77 0 011.296-.544c.523 0 .96.181 1.312.544.363.352.544.79.544 1.312 0 .512-.181.95-.544 1.312-.352.352-.789.528-1.312.528zm20.45-4.48c0 .96-.315 1.733-.944 2.32-.63.587-1.573.88-2.832.88H16.4V13h-1.12V1.816h3.376c1.248 0 2.187.293 2.816.88.64.587.96 1.365.96 2.336zm-3.776 2.24c1.75 0 2.624-.747 2.624-2.24 0-.747-.208-1.312-.624-1.696-.416-.384-1.083-.576-2-.576H16.4v4.512h2.256zm6.775-1.456a2.75 2.75 0 011.12-1.264c.512-.299 1.136-.448 1.872-.448v1.168h-.304c-.81 0-1.461.219-1.952.656-.49.437-.736 1.168-.736 2.192V13h-1.12V4.264h1.12v1.552zm12.581 2.368c0 .384-.01.677-.032.88h-7.248c.032.661.192 1.227.48 1.696.288.47.667.827 1.136 1.072.47.235.982.352 1.536.352.725 0 1.334-.176 1.824-.528.502-.352.832-.827.992-1.424h1.184a3.722 3.722 0 01-1.376 2.096c-.693.533-1.568.8-2.624.8-.821 0-1.557-.181-2.208-.544a4.022 4.022 0 01-1.536-1.568c-.363-.683-.544-1.477-.544-2.384 0-.907.181-1.701.544-2.384a3.782 3.782 0 011.52-1.568c.65-.363 1.392-.544 2.224-.544.832 0 1.557.181 2.176.544.63.363 1.11.853 1.44 1.472.342.608.512 1.285.512 2.032zm-1.136-.032c.01-.65-.122-1.205-.4-1.664a2.595 2.595 0 00-1.104-1.04 3.386 3.386 0 00-1.536-.352c-.832 0-1.541.267-2.128.8-.586.533-.912 1.285-.976 2.256h6.144zm3.745-5.536a.786.786 0 01-.576-.24.804.804 0 01-.24-.592c0-.235.08-.427.24-.576.16-.16.352-.24.576-.24.224 0 .416.08.576.24.16.15.24.341.24.576 0 .235-.08.432-.24.592a.786.786 0 01-.576.24zm.56 1.648V13h-1.12V4.264h1.12zm5.544 8.864c-1.002 0-1.824-.23-2.464-.688-.629-.47-.98-1.104-1.056-1.904h1.153c.053.49.282.89.688 1.2.416.299.97.448 1.663.448.608 0 1.083-.144 1.424-.432.352-.288.528-.645.528-1.072a.997.997 0 00-.288-.736 1.949 1.949 0 00-.735-.448 9.506 9.506 0 00-1.184-.368c-.651-.17-1.18-.341-1.584-.512a2.805 2.805 0 01-1.04-.752c-.278-.341-.416-.795-.416-1.36 0-.427.127-.821.383-1.184.257-.363.62-.65 1.089-.864.469-.213 1.002-.32 1.6-.32.938 0 1.696.24 2.272.72.575.47.885 1.12.927 1.952h-1.12c-.032-.512-.234-.923-.607-1.232-.363-.32-.864-.48-1.505-.48-.565 0-1.024.133-1.376.4-.352.267-.527.597-.527.992 0 .341.1.624.303.848.214.213.475.384.785.512.309.117.725.25 1.248.4.629.17 1.13.336 1.503.496.374.16.694.395.96.704.267.31.406.72.417 1.232 0 .47-.128.89-.384 1.264-.256.363-.614.65-1.072.864-.46.213-.987.32-1.585.32zm8.813-8.992c.821 0 1.536.192 2.144.576.608.384 1.045.87 1.312 1.456V4.264h1.12v8.96c0 .8-.176 1.51-.528 2.128a3.495 3.495 0 01-1.44 1.424c-.619.341-1.323.512-2.112.512-1.12 0-2.054-.267-2.8-.8-.736-.533-1.195-1.259-1.376-2.176h1.104a2.699 2.699 0 001.088 1.456c.544.363 1.205.544 1.984.544.565 0 1.072-.123 1.52-.368a2.52 2.52 0 001.056-1.056c.256-.47.384-1.024.384-1.664v-2.16c-.278.597-.72 1.093-1.328 1.488-.598.384-1.307.576-2.128.576-.8 0-1.52-.187-2.16-.56a3.95 3.95 0 01-1.488-1.584c-.352-.683-.528-1.472-.528-2.368 0-.896.176-1.68.528-2.352.362-.683.858-1.205 1.488-1.568.64-.373 1.36-.56 2.16-.56zm3.456 4.496c0-.704-.144-1.323-.432-1.856a3.066 3.066 0 00-1.184-1.232 3.165 3.165 0 00-1.632-.432c-.619 0-1.174.139-1.664.416-.49.277-.88.683-1.168 1.216-.278.523-.416 1.147-.416 1.872 0 .715.138 1.344.416 1.888a3.1 3.1 0 001.168 1.232c.49.277 1.045.416 1.664.416.597 0 1.141-.144 1.632-.432a3.066 3.066 0 001.184-1.232c.288-.533.432-1.152.432-1.856zm11.58-.448c0 .384-.01.677-.031.88h-7.248c.032.661.192 1.227.48 1.696.288.47.666.827 1.136 1.072.469.235.981.352 1.536.352.725 0 1.333-.176 1.824-.528.501-.352.832-.827.992-1.424h1.184a3.722 3.722 0 01-1.376 2.096c-.694.533-1.568.8-2.624.8-.822 0-1.558-.181-2.208-.544a4.022 4.022 0 01-1.536-1.568c-.363-.683-.544-1.477-.544-2.384 0-.907.181-1.701.544-2.384a3.782 3.782 0 011.52-1.568c.65-.363 1.392-.544 2.224-.544.832 0 1.557.181 2.176.544.629.363 1.109.853 1.44 1.472.341.608.512 1.285.512 2.032zm-1.135-.032c.01-.65-.123-1.205-.4-1.664a2.595 2.595 0 00-1.104-1.04 3.386 3.386 0 00-1.536-.352c-.832 0-1.542.267-2.128.8-.587.533-.912 1.285-.976 2.256h6.144zM77.344 13l-3.6-3.92V13h-1.12V1.16h1.12v7.008l3.52-3.904h1.568l-4.144 4.352L78.864 13h-1.52zm4.087-7.184a2.75 2.75 0 011.12-1.264c.512-.299 1.136-.448 1.872-.448v1.168h-.304c-.81 0-1.461.219-1.952.656-.49.437-.736 1.168-.736 2.192V13h-1.12V4.264h1.12v1.552zm8.501 7.312c-.821 0-1.563-.181-2.224-.544a4.135 4.135 0 01-1.552-1.568c-.373-.683-.56-1.477-.56-2.384 0-.907.192-1.696.576-2.368a3.96 3.96 0 011.568-1.568c.662-.373 1.403-.56 2.224-.56.822 0 1.563.187 2.224.56a3.829 3.829 0 011.568 1.568c.384.672.576 1.461.576 2.368 0 .896-.192 1.685-.576 2.368a4.039 4.039 0 01-1.584 1.584c-.672.363-1.418.544-2.24.544zm0-.976c.576 0 1.11-.128 1.6-.384.49-.267.886-.661 1.184-1.184.31-.533.464-1.184.464-1.952s-.15-1.413-.448-1.936c-.299-.533-.693-.928-1.184-1.184a3.297 3.297 0 00-1.6-.4c-.576 0-1.11.133-1.6.4-.49.256-.885.65-1.184 1.184-.288.523-.432 1.168-.432 1.936s.144 1.419.432 1.952c.299.523.688.917 1.168 1.184.49.256 1.024.384 1.6.384zm-1.168-9.2a.75.75 0 01-.528-.208.75.75 0 01-.208-.528c0-.203.07-.373.208-.512a.722.722 0 01.528-.224c.203 0 .374.075.512.224.15.139.224.31.224.512a.722.722 0 01-.224.528.696.696 0 01-.512.208zm2.464 0a.75.75 0 01-.528-.208.75.75 0 01-.208-.528c0-.203.07-.373.208-.512a.722.722 0 01.528-.224c.203 0 .374.075.512.224.139.139.208.31.208.512a.75.75 0 01-.208.528.696.696 0 01-.512.208zm9.242 1.152c1.045 0 1.898.325 2.56.976.661.64.992 1.573.992 2.8V13h-1.104V8.008c0-.95-.24-1.675-.72-2.176-.47-.501-1.115-.752-1.936-.752-.843 0-1.515.267-2.016.8-.502.533-.752 1.317-.752 2.352V13h-1.12V4.264h1.12v1.488a2.81 2.81 0 011.2-1.216c.522-.288 1.114-.432 1.776-.432zm7.485 1.104v5.424c0 .533.101.901.304 1.104.202.203.56.304 1.072.304h1.024V13h-1.2c-.79 0-1.376-.181-1.76-.544-.384-.373-.576-.981-.576-1.824V5.208h-1.216v-.944h1.216V2.072h1.136v2.192h2.4v.944h-2.4zm12.151 2.976c0 .384-.011.677-.032.88h-7.248c.032.661.192 1.227.48 1.696.288.47.667.827 1.136 1.072.469.235.981.352 1.536.352.725 0 1.333-.176 1.824-.528.501-.352.832-.827.992-1.424h1.184a3.72 3.72 0 01-1.376 2.096c-.693.533-1.568.8-2.624.8-.821 0-1.557-.181-2.208-.544a4.016 4.016 0 01-1.536-1.568c-.363-.683-.544-1.477-.544-2.384 0-.907.181-1.701.544-2.384a3.781 3.781 0 011.52-1.568c.651-.363 1.392-.544 2.224-.544.832 0 1.557.181 2.176.544a3.679 3.679 0 011.44 1.472c.341.608.512 1.285.512 2.032zm-1.136-.032c.011-.65-.123-1.205-.4-1.664a2.6 2.6 0 00-1.104-1.04 3.384 3.384 0 00-1.536-.352c-.832 0-1.541.267-2.128.8-.587.533-.912 1.285-.976 2.256h6.144zm14.728-3.12c0 .96-.315 1.733-.944 2.32-.63.587-1.574.88-2.832.88h-2.256V13h-1.12V1.816h3.376c1.248 0 2.186.293 2.816.88.64.587.96 1.365.96 2.336zm-3.776 2.24c1.749 0 2.624-.747 2.624-2.24 0-.747-.208-1.312-.624-1.696-.416-.384-1.083-.576-2-.576h-2.256v4.512h2.256zm6.775-6.112V13h-1.12V1.16h1.12zm2.024 7.456c0-.896.176-1.68.528-2.352.363-.683.859-1.205 1.488-1.568.64-.373 1.36-.56 2.16-.56.832 0 1.547.192 2.144.576.608.384 1.045.875 1.312 1.472v-1.92h1.12V13h-1.12v-1.936c-.277.597-.72 1.093-1.328 1.488-.597.384-1.312.576-2.144.576a4.178 4.178 0 01-2.144-.56 3.956 3.956 0 01-1.488-1.584c-.352-.683-.528-1.472-.528-2.368zm7.632.016c0-.704-.144-1.323-.432-1.856a3.068 3.068 0 00-1.184-1.232 3.166 3.166 0 00-1.632-.432c-.619 0-1.173.139-1.664.416-.491.277-.88.683-1.168 1.216-.277.523-.416 1.147-.416 1.872 0 .715.139 1.344.416 1.888.288.533.677.944 1.168 1.232a3.322 3.322 0 001.664.416c.597 0 1.141-.144 1.632-.432a3.068 3.068 0 001.184-1.232c.288-.533.432-1.152.432-1.856zm5.133-3.424v5.424c0 .533.101.901.304 1.104.203.203.56.304 1.072.304h1.024V13h-1.2c-.789 0-1.376-.181-1.76-.544-.384-.373-.576-.981-.576-1.824V5.208h-1.216v-.944h1.216V2.072h1.136v2.192h2.4v.944h-2.4zm5.703 0v5.424c0 .533.101.901.304 1.104.203.203.56.304 1.072.304h1.024V13h-1.2c-.789 0-1.376-.181-1.76-.544-.384-.373-.576-.981-.576-1.824V5.208h-1.216v-.944h1.216V2.072h1.136v2.192h2.4v.944h-2.4zm7.687 0h-2.032V13h-1.12V5.208h-1.216v-.944h1.216v-.608c0-.95.24-1.648.72-2.096.491-.448 1.28-.672 2.368-.672v.96c-.725 0-1.237.139-1.536.416-.288.277-.432.741-.432 1.392v.608h2.032v.944zm5.587 7.92c-.821 0-1.562-.181-2.224-.544a4.139 4.139 0 01-1.552-1.568c-.373-.683-.56-1.477-.56-2.384 0-.907.192-1.696.576-2.368a3.962 3.962 0 011.568-1.568c.662-.373 1.403-.56 2.224-.56.822 0 1.563.187 2.224.56a3.827 3.827 0 011.568 1.568c.384.672.576 1.461.576 2.368 0 .896-.192 1.685-.576 2.368a4.039 4.039 0 01-1.584 1.584c-.672.363-1.418.544-2.24.544zm0-.976c.576 0 1.11-.128 1.6-.384a3.002 3.002 0 001.184-1.184c.31-.533.464-1.184.464-1.952s-.149-1.413-.448-1.936c-.298-.533-.693-.928-1.184-1.184a3.295 3.295 0 00-1.6-.4c-.576 0-1.109.133-1.6.4-.49.256-.885.65-1.184 1.184-.288.523-.432 1.168-.432 1.936s.144 1.419.432 1.952c.299.523.688.917 1.168 1.184a3.408 3.408 0 001.6.384zm7.562-6.336a2.75 2.75 0 011.12-1.264c.512-.299 1.136-.448 1.872-.448v1.168h-.304c-.811 0-1.461.219-1.952.656-.491.437-.736 1.168-.736 2.192V13h-1.12V4.264h1.12v1.552zm15.077-1.712c1.024 0 1.856.325 2.496.976.651.64.976 1.573.976 2.8V13h-1.104V8.008c0-.95-.229-1.675-.688-2.176-.459-.501-1.083-.752-1.872-.752-.821 0-1.477.272-1.968.816-.491.544-.736 1.333-.736 2.368V13h-1.104V8.008c0-.95-.229-1.675-.688-2.176-.459-.501-1.088-.752-1.888-.752-.821 0-1.477.272-1.968.816-.491.544-.736 1.333-.736 2.368V13h-1.12V4.264h1.12v1.504a2.814 2.814 0 011.184-1.232 3.432 3.432 0 011.712-.432c.757 0 1.419.181 1.984.544.576.363.992.896 1.248 1.6.235-.693.635-1.221 1.2-1.584a3.511 3.511 0 011.952-.56zm13.863 4.08c0 .384-.01.677-.032.88h-7.248c.032.661.192 1.227.48 1.696.288.47.667.827 1.136 1.072.47.235.982.352 1.536.352.726 0 1.334-.176 1.824-.528.502-.352.832-.827.992-1.424h1.184a3.72 3.72 0 01-1.376 2.096c-.693.533-1.568.8-2.624.8-.821 0-1.557-.181-2.208-.544a4.03 4.03 0 01-1.536-1.568c-.362-.683-.544-1.477-.544-2.384 0-.907.182-1.701.544-2.384a3.787 3.787 0 011.52-1.568c.651-.363 1.392-.544 2.224-.544.832 0 1.558.181 2.176.544.63.363 1.11.853 1.44 1.472.342.608.512 1.285.512 2.032zm-1.136-.032c.011-.65-.122-1.205-.4-1.664a2.588 2.588 0 00-1.104-1.04 3.384 3.384 0 00-1.536-.352c-.832 0-1.541.267-2.128.8-.586.533-.912 1.285-.976 2.256h6.144zm7.281-4.048c1.046 0 1.899.325 2.56.976.662.64.992 1.573.992 2.8V13h-1.104V8.008c0-.95-.24-1.675-.72-2.176-.469-.501-1.114-.752-1.936-.752-.842 0-1.514.267-2.016.8-.501.533-.752 1.317-.752 2.352V13h-1.12V4.264h1.12v1.488a2.818 2.818 0 011.2-1.216c.523-.288 1.115-.432 1.776-.432z" fill="#fff"/></svg>