<svg width="339" height="18" viewBox="0 0 339 18" fill="none" xmlns="http://www.w3.org/2000/svg"><path d="M1.982 9.512c-.501 0-.933-.176-1.296-.528a1.788 1.788 0 01-.544-1.312c0-.523.182-.96.544-1.312a1.77 1.77 0 011.296-.544c.523 0 .96.181 1.312.544.363.352.544.79.544 1.312 0 .512-.181.95-.544 1.312-.352.352-.789.528-1.312.528zm12.834 2.608c1.963-1.472 3.477-2.79 4.544-3.952 1.077-1.173 1.616-2.32 1.616-3.44 0-.736-.187-1.323-.56-1.76-.363-.448-.96-.672-1.792-.672-.81 0-1.44.256-1.888.768-.437.501-.683 1.173-.736 2.016h-1.088c.064-1.184.427-2.101 1.088-2.752.672-.661 1.547-.992 2.624-.992 1.035 0 1.872.293 2.512.88.64.576.96 1.397.96 2.464 0 1.29-.539 2.544-1.616 3.76-1.067 1.205-2.384 2.384-3.952 3.536h5.92v.944h-7.632v-.8zm9.38-4.96c0-1.835.283-3.259.848-4.272.566-1.013 1.579-1.52 3.04-1.52 1.462 0 2.475.507 3.04 1.52.566 1.013.848 2.437.848 4.272 0 1.867-.282 3.312-.848 4.336-.565 1.024-1.578 1.536-3.04 1.536-1.472 0-2.49-.512-3.056-1.536-.554-1.024-.832-2.47-.832-4.336zm6.672 0c0-.992-.07-1.83-.208-2.512-.138-.683-.41-1.232-.816-1.648-.405-.416-.992-.624-1.76-.624s-1.354.208-1.76.624c-.405.416-.677.965-.816 1.648-.138.683-.208 1.52-.208 2.512 0 1.024.07 1.883.208 2.576.139.683.41 1.232.816 1.648.406.416.992.624 1.76.624s1.355-.208 1.76-.624c.406-.416.678-.965.816-1.648.139-.693.208-1.552.208-2.576zm12.986-5.344v8.464c0 .853-.261 1.541-.784 2.064-.522.512-1.221.768-2.096.768-.906 0-1.632-.272-2.176-.816-.533-.555-.8-1.301-.8-2.24h1.136c.01.608.16 1.104.448 1.488.299.384.763.576 1.392.576.598 0 1.04-.176 1.328-.528.288-.352.432-.79.432-1.312V1.816h1.12zm2.305 6.8c0-.896.176-1.68.528-2.352.362-.683.858-1.205 1.488-1.568.64-.373 1.36-.56 2.16-.56.832 0 1.546.192 2.144.576.608.384 1.045.875 1.312 1.472v-1.92h1.12V13h-1.12v-1.936c-.278.597-.72 1.093-1.328 1.488-.598.384-1.312.576-2.144.576-.79 0-1.504-.187-2.144-.56a3.952 3.952 0 01-1.488-1.584c-.352-.683-.528-1.472-.528-2.368zm7.632.016c0-.704-.144-1.323-.432-1.856a3.065 3.065 0 00-1.184-1.232 3.164 3.164 0 00-1.632-.432c-.619 0-1.174.139-1.664.416a2.99 2.99 0 00-1.168 1.216c-.278.523-.416 1.147-.416 1.872 0 .715.138 1.344.416 1.888a3.1 3.1 0 001.168 1.232c.49.277 1.045.416 1.664.416.597 0 1.141-.144 1.632-.432a3.066 3.066 0 001.184-1.232c.288-.533.432-1.152.432-1.856zm7.837-4.528c.66 0 1.253.139 1.776.416.533.277.949.704 1.247 1.28.31.565.465 1.259.465 2.08V13H64.01V8.008c0-.95-.24-1.675-.72-2.176-.469-.501-1.114-.752-1.935-.752-.843 0-1.515.267-2.017.8-.5.533-.752 1.317-.752 2.352V13h-1.12V1.16h1.12v4.592a2.906 2.906 0 011.216-1.216 3.837 3.837 0 011.825-.432zm7.085 1.712a2.75 2.75 0 011.12-1.264c.511-.299 1.136-.448 1.871-.448v1.168h-.303c-.811 0-1.462.219-1.953.656-.49.437-.735 1.168-.735 2.192V13h-1.12V4.264h1.12v1.552zm12.58 2.368c0 .384-.01.677-.032.88h-7.248c.032.661.192 1.227.48 1.696.288.47.667.827 1.136 1.072.47.235.982.352 1.536.352.726 0 1.334-.176 1.824-.528.502-.352.832-.827.992-1.424h1.184a3.723 3.723 0 01-1.376 2.096c-.693.533-1.568.8-2.624.8-.821 0-1.557-.181-2.208-.544a4.02 4.02 0 01-1.536-1.568c-.362-.683-.544-1.477-.544-2.384 0-.907.182-1.701.544-2.384a3.78 3.78 0 011.52-1.568c.651-.363 1.392-.544 2.224-.544.832 0 1.558.181 2.176.544.63.363 1.11.853 1.44 1.472a4.08 4.08 0 01.512 2.032zm-1.136-.032c.011-.65-.122-1.205-.4-1.664a2.596 2.596 0 00-1.104-1.04 3.386 3.386 0 00-1.536-.352c-.832 0-1.541.267-2.128.8-.586.533-.912 1.285-.976 2.256h6.144zm8.696-5.424v4.176h4.24v.928h-4.24v4.24h4.72V13h-5.84V1.8h5.84v.928h-4.72zM96.9 5.816a2.75 2.75 0 011.12-1.264c.512-.299 1.136-.448 1.872-.448v1.168h-.304c-.81 0-1.461.219-1.952.656-.49.437-.736 1.168-.736 2.192V13h-1.12V4.264h1.12v1.552zm8.117-.608h-2.032V13h-1.12V5.208h-1.216v-.944h1.216v-.608c0-.95.24-1.648.72-2.096.491-.448 1.28-.672 2.368-.672v.96c-.725 0-1.237.139-1.536.416-.288.277-.432.741-.432 1.392v.608h2.032v.944zm1.251 3.408c0-.896.176-1.68.528-2.352.363-.683.859-1.205 1.488-1.568.64-.373 1.36-.56 2.16-.56.832 0 1.547.192 2.144.576.608.384 1.045.875 1.312 1.472v-1.92h1.12V13h-1.12v-1.936c-.277.597-.72 1.093-1.328 1.488-.597.384-1.312.576-2.144.576a4.178 4.178 0 01-2.144-.56 3.956 3.956 0 01-1.488-1.584c-.352-.683-.528-1.472-.528-2.368zm7.632.016c0-.704-.144-1.323-.432-1.856a3.068 3.068 0 00-1.184-1.232 3.166 3.166 0 00-1.632-.432c-.619 0-1.173.139-1.664.416-.491.277-.88.683-1.168 1.216-.277.523-.416 1.147-.416 1.872 0 .715.139 1.344.416 1.888.288.533.677.944 1.168 1.232a3.322 3.322 0 001.664.416c.597 0 1.141-.144 1.632-.432a3.068 3.068 0 001.184-1.232c.288-.533.432-1.152.432-1.856zm7.837-4.528c.661 0 1.253.139 1.776.416.533.277.949.704 1.248 1.28.309.565.464 1.259.464 2.08V13h-1.104V8.008c0-.95-.24-1.675-.72-2.176-.469-.501-1.115-.752-1.936-.752-.843 0-1.515.267-2.016.8-.501.533-.752 1.317-.752 2.352V13h-1.12V1.16h1.12v4.592a2.906 2.906 0 011.216-1.216 3.837 3.837 0 011.824-.432zm7.085 1.712a2.75 2.75 0 011.12-1.264c.512-.299 1.136-.448 1.872-.448v1.168h-.304c-.811 0-1.461.219-1.952.656-.491.437-.736 1.168-.736 2.192V13h-1.12V4.264h1.12v1.552zm12.245-1.552V13h-1.12v-1.536c-.256.544-.651.96-1.184 1.248a3.713 3.713 0 01-1.792.432c-1.046 0-1.899-.32-2.56-.96-.662-.65-.992-1.59-.992-2.816V4.264h1.104V9.24c0 .95.234 1.675.704 2.176.48.501 1.13.752 1.952.752.842 0 1.514-.267 2.016-.8.501-.533.752-1.317.752-2.352V4.264h1.12zm6.653-.16c1.045 0 1.898.325 2.56.976.661.64.992 1.573.992 2.8V13h-1.104V8.008c0-.95-.24-1.675-.72-2.176-.47-.501-1.115-.752-1.936-.752-.843 0-1.515.267-2.016.8-.502.533-.752 1.317-.752 2.352V13h-1.12V4.264h1.12v1.488a2.808 2.808 0 011.2-1.216c.522-.288 1.114-.432 1.776-.432zm9.693.032c.821 0 1.536.192 2.144.576.608.384 1.045.87 1.312 1.456V4.264h1.12v8.96c0 .8-.176 1.51-.528 2.128a3.502 3.502 0 01-1.44 1.424c-.619.341-1.323.512-2.112.512-1.12 0-2.054-.267-2.8-.8-.736-.533-1.195-1.259-1.376-2.176h1.104a2.696 2.696 0 001.088 1.456c.544.363 1.205.544 1.984.544.565 0 1.072-.123 1.52-.368a2.52 2.52 0 001.056-1.056c.256-.47.384-1.024.384-1.664v-2.16c-.278.597-.72 1.093-1.328 1.488-.598.384-1.307.576-2.128.576-.8 0-1.52-.187-2.16-.56a3.942 3.942 0 01-1.488-1.584c-.352-.683-.528-1.472-.528-2.368 0-.896.176-1.68.528-2.352a3.833 3.833 0 011.488-1.568c.64-.373 1.36-.56 2.16-.56zm3.456 4.496c0-.704-.144-1.323-.432-1.856a3.068 3.068 0 00-1.184-1.232 3.166 3.166 0 00-1.632-.432 3.32 3.32 0 00-1.664.416c-.491.277-.88.683-1.168 1.216-.278.523-.416 1.147-.416 1.872 0 .715.138 1.344.416 1.888.288.533.677.944 1.168 1.232a3.32 3.32 0 001.664.416c.597 0 1.141-.144 1.632-.432a3.068 3.068 0 001.184-1.232c.288-.533.432-1.152.432-1.856zm4.701 2.512l-1.664 4.192h-.768l1.184-4.192h1.248zm7.588-5.936v5.424c0 .533.101.901.304 1.104.203.203.56.304 1.072.304h1.024V13h-1.2c-.789 0-1.376-.181-1.76-.544-.384-.373-.576-.981-.576-1.824V5.208h-1.216v-.944h1.216V2.072h1.136v2.192h2.4v.944h-2.4zm12.151 2.976c0 .384-.011.677-.032.88h-7.248c.032.661.192 1.227.48 1.696.288.47.667.827 1.136 1.072.469.235.981.352 1.536.352.725 0 1.333-.176 1.824-.528.501-.352.832-.827.992-1.424h1.184a3.72 3.72 0 01-1.376 2.096c-.693.533-1.568.8-2.624.8-.821 0-1.557-.181-2.208-.544a4.016 4.016 0 01-1.536-1.568c-.363-.683-.544-1.477-.544-2.384 0-.907.181-1.701.544-2.384a3.781 3.781 0 011.52-1.568c.651-.363 1.392-.544 2.224-.544.832 0 1.557.181 2.176.544a3.679 3.679 0 011.44 1.472c.341.608.512 1.285.512 2.032zm-1.136-.032c.011-.65-.123-1.205-.4-1.664a2.6 2.6 0 00-1.104-1.04 3.384 3.384 0 00-1.536-.352c-.832 0-1.541.267-2.128.8-.587.533-.912 1.285-.976 2.256h6.144zm3.745-5.536a.786.786 0 01-.576-.24.804.804 0 01-.24-.592c0-.235.08-.427.24-.576.16-.16.352-.24.576-.24.224 0 .416.08.576.24.16.15.24.341.24.576 0 .235-.08.432-.24.592a.786.786 0 01-.576.24zm.56 1.648V13h-1.12V4.264h1.12zm3.656-3.104V13h-1.12V1.16h1.12zm10.031 10.752l2.944-7.648h1.184L202.789 13h-1.264l-3.504-8.736h1.2l2.944 7.648zm9.47 1.216c-.821 0-1.562-.181-2.224-.544a4.139 4.139 0 01-1.552-1.568c-.373-.683-.56-1.477-.56-2.384 0-.907.192-1.696.576-2.368a3.962 3.962 0 011.568-1.568c.662-.373 1.403-.56 2.224-.56.822 0 1.563.187 2.224.56a3.827 3.827 0 011.568 1.568c.384.672.576 1.461.576 2.368 0 .896-.192 1.685-.576 2.368a4.039 4.039 0 01-1.584 1.584c-.672.363-1.418.544-2.24.544zm0-.976c.576 0 1.11-.128 1.6-.384a3.002 3.002 0 001.184-1.184c.31-.533.464-1.184.464-1.952s-.149-1.413-.448-1.936c-.298-.533-.693-.928-1.184-1.184a3.295 3.295 0 00-1.6-.4c-.576 0-1.109.133-1.6.4-.49.256-.885.65-1.184 1.184-.288.523-.432 1.168-.432 1.936s.144 1.419.432 1.952c.299.523.688.917 1.168 1.184a3.408 3.408 0 001.6.384zm10.538-8.048c1.045 0 1.899.325 2.56.976.661.64.992 1.573.992 2.8V13h-1.104V8.008c0-.95-.24-1.675-.72-2.176-.469-.501-1.115-.752-1.936-.752-.843 0-1.515.267-2.016.8-.501.533-.752 1.317-.752 2.352V13h-1.12V4.264h1.12v1.488a2.808 2.808 0 011.2-1.216c.523-.288 1.115-.432 1.776-.432zm13.812 9.008c-.736 0-1.387-.128-1.952-.384a3.186 3.186 0 01-1.312-1.072 2.813 2.813 0 01-.512-1.536h1.184c.053.544.293 1.024.72 1.44.426.405 1.05.608 1.872.608.757 0 1.354-.192 1.792-.576a1.9 1.9 0 00.672-1.488c0-.48-.123-.864-.368-1.152a2.166 2.166 0 00-.912-.656c-.363-.15-.864-.31-1.504-.48-.747-.203-1.339-.4-1.776-.592a2.82 2.82 0 01-1.12-.896c-.31-.405-.464-.955-.464-1.648 0-.576.149-1.088.448-1.536.298-.459.72-.816 1.264-1.072.544-.256 1.168-.384 1.872-.384 1.034 0 1.866.256 2.496.768a2.818 2.818 0 011.104 1.952h-1.216c-.075-.459-.326-.864-.752-1.216-.427-.363-1.003-.544-1.728-.544-.672 0-1.232.181-1.68.544-.448.352-.672.837-.672 1.456 0 .47.122.848.368 1.136.245.288.549.507.912.656.373.15.874.31 1.504.48.725.203 1.312.405 1.76.608.448.192.826.49 1.136.896.309.405.464.95.464 1.632 0 .523-.139 1.019-.416 1.488-.278.47-.688.848-1.232 1.136-.544.288-1.195.432-1.952.432zm7.22-7.904v5.424c0 .533.101.901.304 1.104.202.203.56.304 1.072.304h1.024V13h-1.2c-.79 0-1.376-.181-1.76-.544-.384-.373-.576-.981-.576-1.824V5.208h-1.216v-.944h1.216V2.072h1.136v2.192h2.4v.944h-2.4zm8.071 7.92c-.821 0-1.563-.181-2.224-.544a4.132 4.132 0 01-1.552-1.568c-.373-.683-.56-1.477-.56-2.384 0-.907.192-1.696.576-2.368a3.962 3.962 0 011.568-1.568c.661-.373 1.403-.56 2.224-.56.821 0 1.563.187 2.224.56a3.827 3.827 0 011.568 1.568c.384.672.576 1.461.576 2.368 0 .896-.192 1.685-.576 2.368a4.039 4.039 0 01-1.584 1.584c-.672.363-1.419.544-2.24.544zm0-.976c.576 0 1.109-.128 1.6-.384a3.008 3.008 0 001.184-1.184c.309-.533.464-1.184.464-1.952s-.149-1.413-.448-1.936c-.299-.533-.693-.928-1.184-1.184a3.298 3.298 0 00-1.6-.4c-.576 0-1.109.133-1.6.4-.491.256-.885.65-1.184 1.184-.288.523-.432 1.168-.432 1.936s.144 1.419.432 1.952c.299.523.688.917 1.168 1.184a3.408 3.408 0 001.6.384zm10.538-8.048c1.045 0 1.898.325 2.56.976.661.64.992 1.573.992 2.8V13h-1.104V8.008c0-.95-.24-1.675-.72-2.176-.47-.501-1.115-.752-1.936-.752-.843 0-1.515.267-2.016.8-.502.533-.752 1.317-.752 2.352V13h-1.12V4.264h1.12v1.488a2.808 2.808 0 011.2-1.216c.522-.288 1.114-.432 1.776-.432zm13.933 4.08c0 .384-.011.677-.032.88h-7.248c.032.661.192 1.227.48 1.696.288.47.666.827 1.136 1.072.469.235.981.352 1.536.352.725 0 1.333-.176 1.824-.528.501-.352.832-.827.992-1.424h1.184a3.726 3.726 0 01-1.376 2.096c-.694.533-1.568.8-2.624.8-.822 0-1.558-.181-2.208-.544a4.016 4.016 0 01-1.536-1.568c-.363-.683-.544-1.477-.544-2.384 0-.907.181-1.701.544-2.384a3.775 3.775 0 011.52-1.568c.65-.363 1.392-.544 2.224-.544.832 0 1.557.181 2.176.544a3.679 3.679 0 011.44 1.472c.341.608.512 1.285.512 2.032zm-1.136-.032c.01-.65-.123-1.205-.4-1.664a2.6 2.6 0 00-1.104-1.04 3.39 3.39 0 00-1.536-.352c-.832 0-1.542.267-2.128.8-.587.533-.912 1.285-.976 2.256h6.144zm7.217-.736L285.22 13h-1.248l-2.848-4.672L278.42 13h-1.248l3.376-5.632-3.376-5.552h1.248l2.832 4.656 2.736-4.656h1.248l-3.408 5.6zm18.518-2.336a3.765 3.765 0 00-1.472-1.728c-.651-.427-1.419-.64-2.304-.64-.832 0-1.579.192-2.24.576-.662.384-1.184.933-1.568 1.648-.384.704-.576 1.525-.576 2.464 0 .939.192 1.765.576 2.48.384.715.906 1.264 1.568 1.648.661.384 1.408.576 2.24.576.778 0 1.477-.165 2.096-.496a3.907 3.907 0 001.504-1.44c.384-.63.602-1.36.656-2.192h-4.704v-.912h5.888v.816a5.721 5.721 0 01-.8 2.672 5.264 5.264 0 01-1.936 1.872c-.8.459-1.702.688-2.704.688-1.035 0-1.974-.24-2.816-.72a5.374 5.374 0 01-2-2.032c-.48-.875-.72-1.861-.72-2.96s.24-2.08.72-2.944a5.226 5.226 0 012-2.032c.842-.49 1.781-.736 2.816-.736 1.194 0 2.24.299 3.136.896.896.597 1.546 1.43 1.952 2.496h-1.312zm4.835.736a2.755 2.755 0 011.12-1.264c.512-.299 1.136-.448 1.872-.448v1.168h-.304c-.81 0-1.461.219-1.952.656-.49.437-.736 1.168-.736 2.192V13h-1.12V4.264h1.12v1.552zm8.501 7.312c-.821 0-1.563-.181-2.224-.544a4.132 4.132 0 01-1.552-1.568c-.373-.683-.56-1.477-.56-2.384 0-.907.192-1.696.576-2.368a3.962 3.962 0 011.568-1.568c.661-.373 1.403-.56 2.224-.56.821 0 1.563.187 2.224.56a3.827 3.827 0 011.568 1.568c.384.672.576 1.461.576 2.368 0 .896-.192 1.685-.576 2.368a4.039 4.039 0 01-1.584 1.584c-.672.363-1.419.544-2.24.544zm0-.976c.576 0 1.109-.128 1.6-.384a3.008 3.008 0 001.184-1.184c.309-.533.464-1.184.464-1.952s-.149-1.413-.448-1.936c-.299-.533-.693-.928-1.184-1.184a3.298 3.298 0 00-1.6-.4c-.576 0-1.109.133-1.6.4-.491.256-.885.65-1.184 1.184-.288.523-.432 1.168-.432 1.936s.144 1.419.432 1.952c.299.523.688.917 1.168 1.184a3.408 3.408 0 001.6.384zm14.01-7.888V13h-1.12v-1.536c-.256.544-.651.96-1.184 1.248a3.713 3.713 0 01-1.792.432c-1.046 0-1.899-.32-2.56-.96-.662-.65-.992-1.59-.992-2.816V4.264h1.104V9.24c0 .95.234 1.675.704 2.176.48.501 1.13.752 1.952.752.842 0 1.514-.267 2.016-.8.501-.533.752-1.317.752-2.352V4.264h1.12zm3.661 1.92c.277-.587.714-1.072 1.312-1.456.608-.395 1.328-.592 2.16-.592.789 0 1.498.187 2.128.56a3.71 3.71 0 011.488 1.568c.362.672.544 1.456.544 2.352 0 .896-.182 1.685-.544 2.368a3.812 3.812 0 01-1.488 1.584c-.63.373-1.339.56-2.128.56-.822 0-1.536-.192-2.144-.576-.608-.395-1.051-.885-1.328-1.472v6.048h-1.104V4.264h1.104v1.92zm6.496 2.432c0-.725-.144-1.35-.432-1.872a2.895 2.895 0 00-1.152-1.216 3.325 3.325 0 00-1.664-.416c-.598 0-1.147.144-1.648.432-.491.288-.88.699-1.168 1.232-.288.533-.432 1.152-.432 1.856 0 .704.144 1.323.432 1.856.288.533.677.944 1.168 1.232.501.288 1.05.432 1.648.432.618 0 1.173-.139 1.664-.416.49-.288.874-.699 1.152-1.232.288-.544.432-1.173.432-1.888z" fill="#fff"/></svg>