<svg width="257" height="14" viewBox="0 0 257 14" fill="none" xmlns="http://www.w3.org/2000/svg"><path d="M1.982 9.512c-.501 0-.933-.176-1.296-.528a1.788 1.788 0 01-.544-1.312c0-.523.182-.96.544-1.312a1.77 1.77 0 011.296-.544c.523 0 .96.181 1.312.544.363.352.544.79.544 1.312 0 .512-.181.95-.544 1.312-.352.352-.789.528-1.312.528zm21.602-7.696V13h-1.12V7.768H16.4V13h-1.12V1.816h1.12V6.84h6.064V1.816h1.12zm2.043 6.8c0-.896.176-1.68.528-2.352.363-.683.859-1.205 1.488-1.568.64-.373 1.36-.56 2.16-.56.832 0 1.547.192 2.144.576.608.384 1.046.875 1.312 1.472v-1.92h1.12V13h-1.12v-1.936c-.277.597-.72 1.093-1.328 1.488-.597.384-1.312.576-2.144.576-.789 0-1.504-.187-2.144-.56a3.95 3.95 0 01-1.488-1.584c-.352-.683-.528-1.472-.528-2.368zm7.632.016c0-.704-.144-1.323-.432-1.856a3.066 3.066 0 00-1.184-1.232 3.165 3.165 0 00-1.632-.432c-.618 0-1.173.139-1.664.416-.49.277-.88.683-1.168 1.216-.277.523-.416 1.147-.416 1.872 0 .715.139 1.344.416 1.888a3.1 3.1 0 001.168 1.232c.491.277 1.046.416 1.664.416.598 0 1.142-.144 1.632-.432a3.066 3.066 0 001.184-1.232c.288-.533.432-1.152.432-1.856zm7.773-4.528c1.046 0 1.899.325 2.56.976.662.64.992 1.573.992 2.8V13H43.48V8.008c0-.95-.24-1.675-.72-2.176-.47-.501-1.114-.752-1.936-.752-.842 0-1.514.267-2.016.8-.501.533-.752 1.317-.752 2.352V13h-1.12V4.264h1.12v1.488a2.81 2.81 0 011.2-1.216c.523-.288 1.115-.432 1.776-.432zm5.517 4.512c0-.896.182-1.68.544-2.352.363-.683.859-1.205 1.488-1.568.64-.373 1.36-.56 2.16-.56.768 0 1.462.187 2.08.56.619.373 1.072.859 1.36 1.456V1.16h1.12V13h-1.12v-1.952c-.266.608-.704 1.11-1.312 1.504-.608.384-1.322.576-2.144.576-.8 0-1.52-.187-2.16-.56a3.95 3.95 0 01-1.488-1.584c-.352-.683-.528-1.472-.528-2.368zm7.632.016c0-.704-.144-1.323-.432-1.856a3.066 3.066 0 00-1.184-1.232 3.165 3.165 0 00-1.632-.432c-.618 0-1.173.139-1.664.416-.49.277-.88.683-1.168 1.216-.277.523-.416 1.147-.416 1.872 0 .715.139 1.344.416 1.888a3.1 3.1 0 001.168 1.232c.49.277 1.046.416 1.664.416.598 0 1.142-.144 1.632-.432a3.066 3.066 0 001.184-1.232c.288-.533.432-1.152.432-1.856zm11.581-.448c0 .384-.01.677-.032.88h-7.248c.032.661.192 1.227.48 1.696.288.47.667.827 1.136 1.072.47.235.982.352 1.536.352.725 0 1.334-.176 1.824-.528.502-.352.832-.827.992-1.424h1.184a3.722 3.722 0 01-1.376 2.096c-.693.533-1.568.8-2.624.8-.821 0-1.557-.181-2.208-.544a4.022 4.022 0 01-1.536-1.568c-.362-.683-.544-1.477-.544-2.384 0-.907.182-1.701.544-2.384a3.782 3.782 0 011.52-1.568c.65-.363 1.392-.544 2.224-.544.832 0 1.557.181 2.176.544.63.363 1.11.853 1.44 1.472.341.608.512 1.285.512 2.032zm-1.136-.032c.01-.65-.123-1.205-.4-1.664a2.595 2.595 0 00-1.104-1.04 3.386 3.386 0 00-1.536-.352c-.832 0-1.541.267-2.128.8-.587.533-.912 1.285-.976 2.256h6.144zm4.305-6.992V13h-1.12V1.16h1.12zm17.327 2.944c1.024 0 1.856.325 2.496.976.65.64.976 1.573.976 2.8V13h-1.104V8.008c0-.95-.23-1.675-.688-2.176-.459-.501-1.082-.752-1.872-.752-.821 0-1.477.272-1.968.816-.49.544-.736 1.333-.736 2.368V13h-1.104V8.008c0-.95-.23-1.675-.688-2.176-.458-.501-1.088-.752-1.888-.752-.821 0-1.477.272-1.968.816-.49.544-.736 1.333-.736 2.368V13h-1.12V4.264h1.12v1.504a2.816 2.816 0 011.184-1.232 3.431 3.431 0 011.712-.432c.758 0 1.419.181 1.984.544.576.363.992.896 1.248 1.6.235-.693.635-1.221 1.2-1.584a3.51 3.51 0 011.952-.56zm6.52-1.488a.786.786 0 01-.577-.24.804.804 0 01-.24-.592c0-.235.08-.427.24-.576.16-.16.353-.24.577-.24.223 0 .415.08.575.24.16.15.24.341.24.576 0 .235-.08.432-.24.592a.786.786 0 01-.575.24zm.56 1.648V13h-1.12V4.264h1.12zm3.992.944v5.424c0 .533.101.901.304 1.104.202.203.56.304 1.072.304h1.024V13h-1.2c-.79 0-1.376-.181-1.76-.544-.384-.373-.576-.981-.576-1.824V5.208h-1.216v-.944h1.216V2.072h1.136v2.192h2.4v.944h-2.4zm16.542 2.976c0 .384-.011.677-.032.88h-7.248c.032.661.192 1.227.48 1.696.288.47.666.827 1.136 1.072.469.235.981.352 1.536.352.725 0 1.333-.176 1.824-.528.501-.352.832-.827.992-1.424h1.184a3.726 3.726 0 01-1.376 2.096c-.694.533-1.568.8-2.624.8-.822 0-1.558-.181-2.208-.544A4.016 4.016 0 01106 11.016c-.363-.683-.544-1.477-.544-2.384 0-.907.181-1.701.544-2.384a3.775 3.775 0 011.52-1.568c.65-.363 1.392-.544 2.224-.544.832 0 1.557.181 2.176.544a3.679 3.679 0 011.44 1.472c.341.608.512 1.285.512 2.032zm-1.136-.032c.01-.65-.123-1.205-.4-1.664a2.6 2.6 0 00-1.104-1.04 3.39 3.39 0 00-1.536-.352c-.832 0-1.542.267-2.128.8-.587.533-.912 1.285-.976 2.256h6.144zm3.745-5.536a.786.786 0 01-.576-.24.804.804 0 01-.24-.592c0-.235.08-.427.24-.576.16-.16.352-.24.576-.24.224 0 .416.08.576.24.16.15.24.341.24.576 0 .235-.08.432-.24.592a.786.786 0 01-.576.24zm.56 1.648V13h-1.12V4.264h1.12zm6.632-.16c1.045 0 1.899.325 2.56.976.661.64.992 1.573.992 2.8V13h-1.104V8.008c0-.95-.24-1.675-.72-2.176-.469-.501-1.115-.752-1.936-.752-.843 0-1.515.267-2.016.8-.501.533-.752 1.317-.752 2.352V13h-1.12V4.264h1.12v1.488a2.808 2.808 0 011.2-1.216c.523-.288 1.115-.432 1.776-.432zm13.933 4.08c0 .384-.011.677-.032.88h-7.248c.032.661.192 1.227.48 1.696.288.47.667.827 1.136 1.072.469.235.981.352 1.536.352.725 0 1.333-.176 1.824-.528.501-.352.832-.827.992-1.424h1.184a3.72 3.72 0 01-1.376 2.096c-.693.533-1.568.8-2.624.8-.821 0-1.557-.181-2.208-.544a4.016 4.016 0 01-1.536-1.568c-.363-.683-.544-1.477-.544-2.384 0-.907.181-1.701.544-2.384a3.781 3.781 0 011.52-1.568c.651-.363 1.392-.544 2.224-.544.832 0 1.557.181 2.176.544a3.679 3.679 0 011.44 1.472c.341.608.512 1.285.512 2.032zm-1.136-.032c.011-.65-.123-1.205-.4-1.664a2.6 2.6 0 00-1.104-1.04 3.384 3.384 0 00-1.536-.352c-.832 0-1.541.267-2.128.8-.587.533-.912 1.285-.976 2.256h6.144zm13.585-4.048c1.024 0 1.856.325 2.496.976.651.64.976 1.573.976 2.8V13h-1.104V8.008c0-.95-.229-1.675-.688-2.176-.459-.501-1.083-.752-1.872-.752-.821 0-1.477.272-1.968.816-.491.544-.736 1.333-.736 2.368V13h-1.104V8.008c0-.95-.229-1.675-.688-2.176-.459-.501-1.088-.752-1.888-.752-.821 0-1.477.272-1.968.816-.491.544-.736 1.333-.736 2.368V13h-1.12V4.264h1.12v1.504a2.814 2.814 0 011.184-1.232 3.432 3.432 0 011.712-.432c.757 0 1.419.181 1.984.544.576.363.992.896 1.248 1.6.235-.693.635-1.221 1.2-1.584a3.511 3.511 0 011.952-.56zm16.894-2.288v.928h-3.104V13h-1.12V2.744h-3.12v-.928h7.344zm1.257 6.8c0-.896.176-1.68.528-2.352a3.833 3.833 0 011.488-1.568c.64-.373 1.36-.56 2.16-.56.832 0 1.546.192 2.144.576.608.384 1.045.875 1.312 1.472v-1.92h1.12V13h-1.12v-1.936c-.278.597-.72 1.093-1.328 1.488-.598.384-1.312.576-2.144.576-.79 0-1.504-.187-2.144-.56a3.942 3.942 0 01-1.488-1.584c-.352-.683-.528-1.472-.528-2.368zm7.632.016c0-.704-.144-1.323-.432-1.856a3.068 3.068 0 00-1.184-1.232 3.166 3.166 0 00-1.632-.432 3.32 3.32 0 00-1.664.416c-.491.277-.88.683-1.168 1.216-.278.523-.416 1.147-.416 1.872 0 .715.138 1.344.416 1.888.288.533.677.944 1.168 1.232a3.32 3.32 0 001.664.416c.597 0 1.141-.144 1.632-.432a3.068 3.068 0 001.184-1.232c.288-.533.432-1.152.432-1.856zm6.684 4.496c-1.002 0-1.824-.23-2.464-.688-.629-.47-.981-1.104-1.056-1.904h1.152c.054.49.283.89.688 1.2.416.299.971.448 1.664.448.608 0 1.083-.144 1.424-.432.352-.288.528-.645.528-1.072a.997.997 0 00-.288-.736 1.946 1.946 0 00-.736-.448 9.468 9.468 0 00-1.184-.368c-.65-.17-1.178-.341-1.584-.512a2.807 2.807 0 01-1.04-.752c-.277-.341-.416-.795-.416-1.36 0-.427.128-.821.384-1.184s.619-.65 1.088-.864c.47-.213 1.003-.32 1.6-.32.939 0 1.696.24 2.272.72.576.47.886 1.12.928 1.952h-1.12c-.032-.512-.234-.923-.608-1.232-.362-.32-.864-.48-1.504-.48-.565 0-1.024.133-1.376.4-.352.267-.528.597-.528.992 0 .341.102.624.304.848.214.213.475.384.784.512.31.117.726.25 1.248.4.63.17 1.131.336 1.504.496.374.16.694.395.96.704.267.31.406.72.416 1.232 0 .47-.128.89-.384 1.264-.256.363-.613.65-1.072.864-.458.213-.986.32-1.584.32zm6.605-7.92v5.424c0 .533.101.901.304 1.104.202.203.56.304 1.072.304h1.024V13h-1.2c-.79 0-1.376-.181-1.76-.544-.384-.373-.576-.981-.576-1.824V5.208h-1.216v-.944h1.216V2.072h1.136v2.192h2.4v.944h-2.4zm12.151 2.976c0 .384-.011.677-.032.88h-7.248c.032.661.192 1.227.48 1.696.288.47.666.827 1.136 1.072.469.235.981.352 1.536.352.725 0 1.333-.176 1.824-.528.501-.352.832-.827.992-1.424h1.184a3.726 3.726 0 01-1.376 2.096c-.694.533-1.568.8-2.624.8-.822 0-1.558-.181-2.208-.544a4.016 4.016 0 01-1.536-1.568c-.363-.683-.544-1.477-.544-2.384 0-.907.181-1.701.544-2.384a3.775 3.775 0 011.52-1.568c.65-.363 1.392-.544 2.224-.544.832 0 1.557.181 2.176.544a3.679 3.679 0 011.44 1.472c.341.608.512 1.285.512 2.032zm-1.136-.032c.01-.65-.123-1.205-.4-1.664a2.6 2.6 0 00-1.104-1.04 3.39 3.39 0 00-1.536-.352c-.832 0-1.542.267-2.128.8-.587.533-.912 1.285-.976 2.256h6.144zm7.281-4.048c1.045 0 1.899.325 2.56.976.661.64.992 1.573.992 2.8V13h-1.104V8.008c0-.95-.24-1.675-.72-2.176-.469-.501-1.115-.752-1.936-.752-.843 0-1.515.267-2.016.8-.501.533-.752 1.317-.752 2.352V13h-1.12V4.264h1.12v1.488a2.808 2.808 0 011.2-1.216c.523-.288 1.115-.432 1.776-.432zm5.517 4.512c0-.896.181-1.68.544-2.352.363-.683.859-1.205 1.488-1.568.64-.373 1.36-.56 2.16-.56.768 0 1.461.187 2.08.56.619.373 1.072.859 1.36 1.456V1.16h1.12V13h-1.12v-1.952c-.267.608-.704 1.11-1.312 1.504-.608.384-1.323.576-2.144.576-.8 0-1.52-.187-2.16-.56a3.956 3.956 0 01-1.488-1.584c-.352-.683-.528-1.472-.528-2.368zm7.632.016c0-.704-.144-1.323-.432-1.856a3.068 3.068 0 00-1.184-1.232 3.166 3.166 0 00-1.632-.432c-.619 0-1.173.139-1.664.416-.491.277-.88.683-1.168 1.216-.277.523-.416 1.147-.416 1.872 0 .715.139 1.344.416 1.888.288.533.677.944 1.168 1.232a3.322 3.322 0 001.664.416c.597 0 1.141-.144 1.632-.432a3.068 3.068 0 001.184-1.232c.288-.533.432-1.152.432-1.856zm4.797-2.816a2.744 2.744 0 011.12-1.264c.512-.299 1.136-.448 1.872-.448v1.168h-.304c-.811 0-1.462.219-1.952.656-.491.437-.736 1.168-.736 2.192V13h-1.12V4.264h1.12v1.552zm12.245-1.552V13h-1.12v-1.536c-.256.544-.651.96-1.184 1.248a3.713 3.713 0 01-1.792.432c-1.046 0-1.899-.32-2.56-.96-.662-.65-.992-1.59-.992-2.816V4.264h1.104V9.24c0 .95.234 1.675.704 2.176.48.501 1.13.752 1.952.752.842 0 1.514-.267 2.016-.8.501-.533.752-1.317.752-2.352V4.264h1.12zm2.045 4.368c0-.907.181-1.696.544-2.368a3.806 3.806 0 011.504-1.568c.64-.373 1.37-.56 2.192-.56 1.077 0 1.962.267 2.656.8.704.533 1.157 1.259 1.36 2.176h-1.2c-.15-.63-.475-1.12-.976-1.472-.491-.363-1.104-.544-1.84-.544-.587 0-1.115.133-1.584.4-.47.267-.843.667-1.12 1.2-.267.523-.4 1.168-.4 1.936s.133 1.419.4 1.952c.277.533.65.933 1.12 1.2.469.267.997.4 1.584.4.736 0 1.349-.176 1.84-.528.501-.363.826-.864.976-1.504h1.2c-.203.896-.656 1.616-1.36 2.16-.704.544-1.59.816-2.656.816-.822 0-1.552-.181-2.192-.544a3.939 3.939 0 01-1.504-1.568c-.363-.683-.544-1.477-.544-2.384zM254.703 13l-3.6-3.92V13h-1.12V1.16h1.12v7.008l3.52-3.904h1.568l-4.144 4.352L256.223 13h-1.52z" fill="#fff"/></svg>