<svg width="784" height="23" viewBox="0 0 784 23" fill="none" xmlns="http://www.w3.org/2000/svg"><path fill="#fff" d="M0 0h784v23H0z"/><path d="M26.854 7.89v.782L24.607 15h-1.445l2.256-5.972h-2.861V7.891h4.297zm3.925-.014V15h-1.367V9.556l-1.357.522V8.936l2.578-1.06h.146zm2.183 6.426c0-.215.071-.394.215-.537.143-.147.337-.22.58-.22.245 0 .439.073.582.22a.729.729 0 01.215.537.729.729 0 01-.215.537c-.143.143-.337.215-.581.215-.244 0-.438-.072-.581-.215a.729.729 0 01-.215-.537zm5.864-6.49h.18v1.163h-.063c-.309 0-.58.053-.81.16a1.478 1.478 0 00-.572.46c-.15.198-.261.44-.336.722-.075.28-.113.595-.113.943v1.196c0 .248.017.466.05.654.035.19.085.347.15.474a.812.812 0 00.235.278.52.52 0 00.6-.005.827.827 0 00.235-.268c.065-.117.114-.254.146-.41.036-.156.054-.327.054-.513a2.32 2.32 0 00-.054-.518 1.48 1.48 0 00-.151-.405.746.746 0 00-.24-.268.517.517 0 00-.307-.098.629.629 0 00-.425.151.931.931 0 00-.268.381 1.427 1.427 0 00-.103.484l-.41-.293a2.44 2.44 0 01.137-.699c.081-.221.192-.42.332-.595.14-.176.307-.313.503-.41.195-.101.415-.152.659-.152.283 0 .53.064.742.19.212.128.387.302.527.523.144.221.25.478.318.771.071.29.107.6.107.928 0 .345-.049.666-.146.962a2.43 2.43 0 01-.415.777 1.877 1.877 0 01-.655.517c-.253.124-.54.186-.859.186-.326 0-.62-.069-.884-.205a2.007 2.007 0 01-.674-.582 2.801 2.801 0 01-.424-.898 4.186 4.186 0 01-.147-1.143v-.551c0-.573.067-1.097.2-1.572.134-.479.33-.892.591-1.24a2.71 2.71 0 01.967-.806c.384-.192.825-.289 1.323-.289zm4.268 1.822v-.376c0-.27.049-.516.146-.737.101-.222.25-.4.445-.533.198-.133.444-.2.737-.2.296 0 .544.067.742.2.199.134.345.311.44.533.097.22.146.467.146.737v.376c0 .263-.049.506-.147.727a1.223 1.223 0 01-.444.533c-.195.133-.44.2-.732.2-.293 0-.539-.067-.737-.2a1.256 1.256 0 01-.45-.533 1.783 1.783 0 01-.146-.727zm.893-.376v.376c0 .11.017.216.05.317a.573.573 0 00.146.24.351.351 0 00.244.087c.097 0 .177-.029.239-.088a.557.557 0 00.137-.239c.032-.1.049-.207.049-.317v-.376c0-.117-.017-.225-.05-.322a.5.5 0 00-.14-.24.34.34 0 00-.245-.092.34.34 0 00-.244.092.558.558 0 00-.142.24c-.029.097-.044.205-.044.322zm1.914 4.38v-.381c0-.267.05-.511.152-.733.1-.22.249-.398.444-.532.199-.133.443-.2.733-.2.299 0 .546.067.742.2.195.134.341.311.44.532.1.222.15.466.15.733v.38c0 .268-.048.512-.146.733a1.229 1.229 0 01-.444.528c-.196.133-.44.2-.733.2s-.54-.067-.742-.2a1.256 1.256 0 01-.45-.533 1.781 1.781 0 01-.146-.727zm.894-.381v.376c0 .114.02.221.058.322.04.098.092.178.157.24a.344.344 0 00.23.087c.116 0 .206-.03.268-.088a.454.454 0 00.122-.239c.023-.1.034-.208.034-.322v-.371c0-.117-.016-.225-.049-.322a.5.5 0 00-.141-.24.324.324 0 00-.24-.093c-.1 0-.184.031-.249.093a.533.533 0 00-.146.24 1.1 1.1 0 00-.044.317zm.796-4.346l-2.915 5.557-.654-.371 2.915-5.557.654.371zm6.782 4.922V7.5h1.372V15l-1.24.005-.132-1.172zm-2.74-1.29v-.35c0-.43.037-.806.108-1.128.075-.323.186-.591.332-.806.147-.215.326-.375.537-.479.215-.107.461-.16.738-.16.25 0 .47.063.659.19.192.123.355.297.488.522.134.225.241.49.322.796.082.306.139.641.171 1.006v.508c-.039.345-.099.667-.18.966-.078.3-.186.56-.323.782a1.63 1.63 0 01-.483.522 1.176 1.176 0 01-.66.186c-.276 0-.522-.056-.736-.166a1.474 1.474 0 01-.538-.489 2.5 2.5 0 01-.327-.8 5.047 5.047 0 01-.107-1.1zm1.368-.35v.35c0 .248.011.462.034.64.026.176.067.321.122.435a.61.61 0 00.23.25.72.72 0 00.351.077.69.69 0 00.445-.136.837.837 0 00.254-.386c.058-.166.09-.357.097-.571v-.923a2.351 2.351 0 00-.063-.484 1.215 1.215 0 00-.152-.366.7.7 0 00-.244-.234.645.645 0 00-.332-.083.703.703 0 00-.351.083.57.57 0 00-.225.258 1.62 1.62 0 00-.127.445 4.564 4.564 0 00-.039.644zm5.903 2.905c-.361 0-.682-.056-.962-.166a1.9 1.9 0 01-.703-.479 2.14 2.14 0 01-.44-.766c-.1-.3-.15-.642-.15-1.026v-.434c0-.43.048-.806.146-1.128.098-.326.236-.6.415-.82a1.64 1.64 0 01.66-.494 2.29 2.29 0 01.893-.166c.332 0 .623.055.874.166.254.108.464.27.63.488.166.215.29.482.376.801.084.32.127.69.127 1.114v.624h-3.54v-.961h2.197v-.123c0-.214-.023-.393-.069-.537a.617.617 0 00-.214-.327.646.646 0 00-.391-.107.676.676 0 00-.347.083.571.571 0 00-.224.259c-.056.117-.096.27-.122.459-.027.185-.04.408-.04.669v.434c0 .244.022.45.064.615.042.163.104.297.185.4.085.102.188.175.308.22.12.043.26.064.42.064a1.497 1.497 0 001.147-.483l.547.83a1.961 1.961 0 01-.39.37 2.134 2.134 0 01-.596.303 2.5 2.5 0 01-.8.118zm4.024-4.204V15H61.56V9.717h1.289l.078 1.177zm1.245-1.216l-.02 1.362a2.968 2.968 0 00-.45-.039.94.94 0 00-.39.073.652.652 0 00-.268.21.976.976 0 00-.156.342 2.157 2.157 0 00-.064.464l-.259-.098c0-.345.026-.66.078-.947.056-.29.137-.54.245-.752a1.43 1.43 0 01.385-.498.83.83 0 01.518-.176c.065 0 .133.007.205.02.075.01.133.022.176.039zm4.502-1.787V15h-1.43V7.89h1.43zm3.53 0L69.9 11.42l-1.41 1.758-.274-1.431.913-1.523 1.338-2.334h1.738zM70.555 15l-1.553-3.267 1.05-.927L72.239 15h-1.684zm3.593-7.5V15h-1.372V7.5h1.372zm3.213 7.598c-.361 0-.682-.056-.962-.166a1.9 1.9 0 01-.703-.479 2.14 2.14 0 01-.44-.766c-.1-.3-.15-.642-.15-1.026v-.434c0-.43.048-.806.146-1.128.098-.326.236-.6.415-.82a1.64 1.64 0 01.66-.494c.263-.11.56-.166.893-.166.332 0 .623.055.874.166.254.108.464.27.63.488.166.215.291.482.376.801.084.32.127.69.127 1.114v.624h-3.54v-.961h2.197v-.123c0-.214-.023-.393-.069-.537a.616.616 0 00-.214-.327.646.646 0 00-.391-.107.675.675 0 00-.347.083.57.57 0 00-.224.259 1.6 1.6 0 00-.122.459c-.026.185-.04.408-.04.669v.434c0 .244.022.45.064.615.042.163.104.297.186.4.084.102.187.175.307.22.12.043.26.064.42.064.241 0 .458-.042.65-.127.195-.088.36-.207.498-.356l.546.83a1.961 1.961 0 01-.39.37 2.134 2.134 0 01-.596.303 2.5 2.5 0 01-.8.118zm4.092-5.381V15h-1.372V9.717h1.372zM80.018 8.35c0-.212.066-.386.2-.523a.73.73 0 01.547-.21c.23 0 .413.07.546.21.134.137.2.311.2.523a.718.718 0 01-.204.522c-.134.137-.313.205-.538.205-.23 0-.415-.068-.551-.205a.727.727 0 01-.2-.522zm3.862 2.495V15h-1.372V9.717h1.284l.088 1.128zm-.205 1.333l-.366.01c-.007-.398.03-.754.112-1.07a2.58 2.58 0 01.356-.806 1.63 1.63 0 01.557-.512c.218-.12.46-.18.727-.18.206 0 .393.035.562.107.173.071.32.185.444.341.124.157.22.365.289.625.068.258.102.573.102.948V15h-1.372v-3.37a1.59 1.59 0 00-.068-.527.457.457 0 00-.206-.263.682.682 0 00-.341-.078.567.567 0 00-.347.112.852.852 0 00-.254.298 1.772 1.772 0 00-.151.45 2.75 2.75 0 00-.044.556zm6.113 1.606v-2.441c0-.16-.02-.287-.058-.381a.38.38 0 00-.166-.205.482.482 0 00-.264-.069.544.544 0 00-.293.074.447.447 0 00-.176.21.892.892 0 00-.054.327h-1.372c0-.228.044-.443.132-.645.088-.205.217-.384.386-.537.172-.156.377-.278.615-.366.238-.088.505-.132.8-.132.352 0 .665.06.938.18.274.118.49.305.65.562.16.257.239.591.239 1.001v2.354c0 .296.015.537.044.723.032.185.08.345.142.478V15h-1.377a2.295 2.295 0 01-.142-.547 5.091 5.091 0 01-.044-.669zm.166-2.011l.005.82h-.503a.854.854 0 00-.342.063.658.658 0 00-.239.18.747.747 0 00-.147.265c-.029.1-.043.208-.043.322 0 .127.017.234.053.322a.414.414 0 00.415.269c.15 0 .28-.031.39-.093a.633.633 0 00.245-.225c.055-.088.073-.169.054-.244l.312.532c-.039.12-.093.246-.16.376-.066.13-.149.251-.25.362-.1.11-.226.202-.376.273-.146.069-.32.103-.522.103a1.57 1.57 0 01-.777-.196 1.45 1.45 0 01-.556-.546 1.66 1.66 0 01-.2-.835c0-.267.042-.508.126-.723.088-.218.219-.402.391-.552.173-.153.39-.27.654-.351a3.16 3.16 0 01.928-.122h.542zm3.565-.928V15h-1.373V9.717h1.285l.088 1.128zm-.206 1.333l-.366.01c-.006-.398.031-.754.113-1.07a2.58 2.58 0 01.356-.806 1.63 1.63 0 01.557-.512c.218-.12.46-.18.727-.18.205 0 .392.035.562.107a1.1 1.1 0 01.444.341c.124.157.22.365.288.625.069.258.103.573.103.948V15h-1.372v-3.37a1.59 1.59 0 00-.069-.527.457.457 0 00-.205-.263.682.682 0 00-.342-.078.567.567 0 00-.346.112.85.85 0 00-.254.298 1.772 1.772 0 00-.152.45 2.758 2.758 0 00-.043.556zm5.22-4.678V15h-1.372V7.5h1.372zm3.213 7.598c-.361 0-.682-.056-.962-.166a1.897 1.897 0 01-.703-.479 2.142 2.142 0 01-.44-.766c-.1-.3-.15-.642-.15-1.026v-.434c0-.43.048-.806.146-1.128a2.37 2.37 0 01.415-.82c.179-.222.399-.386.659-.494.264-.11.561-.166.893-.166.333 0 .624.055.875.166.253.108.463.27.629.488.166.215.292.482.376.801.085.32.127.69.127 1.114v.624h-3.54v-.961h2.198v-.123c0-.214-.023-.393-.069-.537a.612.612 0 00-.215-.327.644.644 0 00-.39-.107.675.675 0 00-.347.083.578.578 0 00-.225.259c-.055.117-.096.27-.122.459a4.91 4.91 0 00-.039.669v.434c0 .244.021.45.064.615.042.163.104.297.185.4.085.102.188.175.308.22.12.043.26.064.42.064.241 0 .457-.042.649-.127.196-.088.362-.207.498-.356l.547.83a1.946 1.946 0 01-.39.37 2.137 2.137 0 01-.596.303 2.5 2.5 0 01-.801.118zm5.435-5.381h1.24V15c0 .482-.093.876-.278 1.182-.183.309-.438.535-.767.678-.326.147-.706.22-1.143.22-.166 0-.353-.023-.561-.068a2.653 2.653 0 01-.596-.21 1.566 1.566 0 01-.473-.332l.463-.947c.127.126.293.234.498.322.206.09.407.136.606.136.192 0 .351-.03.478-.092a.576.576 0 00.293-.303c.069-.143.103-.335.103-.576v-4.068l.137-1.225zm-2.95 2.827v-.352c0-.43.041-.805.123-1.127.081-.323.198-.591.351-.806.153-.215.34-.375.562-.479.224-.107.475-.16.752-.16.289 0 .532.063.727.19.195.123.353.297.474.522.123.225.218.49.283.796.068.306.12.641.156 1.006v.508a6.03 6.03 0 01-.176.966c-.078.3-.182.56-.312.782-.13.221-.29.395-.479.522a1.216 1.216 0 01-.683.186c-.274 0-.521-.056-.742-.166a1.57 1.57 0 01-.562-.489 2.437 2.437 0 01-.351-.8 4.431 4.431 0 01-.123-1.1zm1.373-.352v.352c0 .247.014.46.043.64a1.4 1.4 0 00.147.434c.065.11.148.194.249.25a.808.808 0 00.366.077c.199 0 .357-.045.474-.136a.805.805 0 00.263-.386c.059-.166.092-.357.098-.571v-.923a1.968 1.968 0 00-.063-.484 1.223 1.223 0 00-.152-.366.669.669 0 00-.254-.234.728.728 0 00-.356-.083.74.74 0 00-.361.083.667.667 0 00-.254.258 1.481 1.481 0 00-.152.445 3.722 3.722 0 00-.048.644zm5.966 2.906c-.361 0-.682-.056-.962-.166a1.905 1.905 0 01-.703-.479 2.142 2.142 0 01-.439-.766 3.202 3.202 0 01-.152-1.026v-.434c0-.43.049-.806.147-1.128a2.38 2.38 0 01.415-.82c.179-.222.399-.386.659-.494.264-.11.562-.166.894-.166.332 0 .623.055.874.166.254.108.464.27.63.488.166.215.291.482.376.801.084.32.127.69.127 1.114v.624h-3.54v-.961h2.197v-.123c0-.214-.023-.393-.069-.537a.616.616 0 00-.214-.327.647.647 0 00-.391-.107.677.677 0 00-.347.083.57.57 0 00-.224.259 1.58 1.58 0 00-.122.459 4.91 4.91 0 00-.039.669v.434c0 .244.021.45.063.615.042.163.104.297.186.4.084.102.187.175.307.22.121.043.261.064.42.064a1.497 1.497 0 001.148-.483l.546.83a1.946 1.946 0 01-.39.37 2.137 2.137 0 01-.596.303 2.5 2.5 0 01-.801.118zm4.024-4.204V15h-1.367V9.717h1.289l.078 1.177zm1.245-1.216l-.02 1.362a1.74 1.74 0 00-.224-.03 2.989 2.989 0 00-.225-.009.944.944 0 00-.391.073.655.655 0 00-.268.21.967.967 0 00-.156.342 2.174 2.174 0 00-.064.464l-.259-.098c0-.345.026-.66.079-.947a2.8 2.8 0 01.244-.752c.107-.215.236-.38.385-.498a.83.83 0 01.518-.176c.065 0 .133.007.205.02.075.01.134.022.176.039zm2.065-2.183V15h-1.367V7.495h1.367zm2.779 2.222l-1.861 2.627-1.118 1.255-.483-1.04.859-1.255.972-1.587h1.631zM120.257 15l-1.153-2.427.943-.869L121.824 15h-1.567zm1.909-2.46v-.357c0-.414.049-.78.146-1.099.101-.319.245-.586.43-.8a1.79 1.79 0 01.669-.494c.264-.114.558-.17.884-.17.329 0 .623.056.884.17.263.11.488.275.674.493.188.215.333.482.434.801.101.319.151.685.151 1.099v.356c0 .41-.05.775-.151 1.094a2.263 2.263 0 01-.434.806 1.79 1.79 0 01-.669.493 2.23 2.23 0 01-.879.166c-.326 0-.62-.056-.884-.166a1.823 1.823 0 01-.674-.494 2.25 2.25 0 01-.435-.805 3.76 3.76 0 01-.146-1.094zm1.367-.357v.356c0 .244.016.456.049.635.036.179.086.327.151.444a.7.7 0 00.245.259.633.633 0 00.327.083.665.665 0 00.332-.083.623.623 0 00.239-.259c.065-.117.112-.265.142-.444.032-.18.048-.39.048-.635v-.356c0-.238-.017-.446-.053-.625a1.48 1.48 0 00-.152-.445.683.683 0 00-.244-.263.575.575 0 00-.322-.093.572.572 0 00-.322.093.768.768 0 00-.24.263 1.482 1.482 0 00-.151.445c-.033.179-.049.387-.049.625zm5.113-1.338V15h-1.373V9.717h1.285l.088 1.128zm-.206 1.333l-.366.01a4.02 4.02 0 01.113-1.07c.084-.316.203-.584.356-.806.156-.224.342-.395.557-.512.218-.12.46-.18.727-.18.205 0 .392.035.562.107.172.071.32.185.444.341.124.157.22.365.288.625.068.258.103.573.103.948V15h-1.372v-3.37c0-.227-.023-.403-.069-.527a.455.455 0 00-.205-.263.681.681 0 00-.342-.078.566.566 0 00-.346.112.847.847 0 00-.254.298 1.784 1.784 0 00-.152.45 2.817 2.817 0 00-.044.556zm6.089-2.461v1.03h-2.695v-1.03h2.695zm-2.075-1.304h1.362v4.976c0 .146.015.259.044.337.03.078.074.133.132.166.062.029.143.043.244.043a.998.998 0 00.323-.039v1.07a1.917 1.917 0 01-.342.098 2.228 2.228 0 01-.42.034c-.274 0-.511-.052-.713-.157a1.066 1.066 0 01-.464-.498c-.111-.23-.166-.534-.166-.908V8.413zm4.966 6.685c-.361 0-.682-.056-.962-.166a1.897 1.897 0 01-.703-.479 2.144 2.144 0 01-.44-.766c-.1-.3-.151-.642-.151-1.026v-.434c0-.43.049-.806.147-1.128.097-.326.236-.6.415-.82.179-.222.398-.386.659-.494.263-.11.561-.166.893-.166.332 0 .624.055.874.166.254.108.464.27.63.488.166.215.292.482.376.801.085.32.127.69.127 1.114v.624h-3.54v-.961h2.197v-.123c0-.214-.022-.393-.068-.537a.617.617 0 00-.215-.327.644.644 0 00-.39-.107.675.675 0 00-.347.083.572.572 0 00-.225.259c-.055.117-.096.27-.122.459a4.91 4.91 0 00-.039.669v.434c0 .244.021.45.064.615.042.163.104.297.185.4.085.102.187.175.308.22.12.043.26.064.42.064.241 0 .457-.042.649-.127.195-.088.361-.207.498-.356l.547.83a2.13 2.13 0 01-.986.674 2.5 2.5 0 01-.801.117zm3.999-4.253V15h-1.372V9.717h1.284l.088 1.128zm-.205 1.333l-.366.01a4.022 4.022 0 01.112-1.07 2.59 2.59 0 01.356-.806c.157-.224.342-.395.557-.512.218-.12.461-.18.728-.18.205 0 .392.035.561.107.173.071.321.185.444.341.124.157.22.365.289.625.068.258.102.573.102.948V15h-1.372v-3.37c0-.227-.023-.403-.068-.527a.46.46 0 00-.205-.263.687.687 0 00-.342-.078.569.569 0 00-.347.112.857.857 0 00-.254.298 1.784 1.784 0 00-.151.45 2.744 2.744 0 00-.044.556zm7.646 1.767l.85-4.228h1.426L149.686 15h-.855l.029-1.055zm-.503-4.228l.865 4.233.014 1.05h-.859l-1.45-5.283h1.43zm5.498 5.38c-.361 0-.681-.055-.961-.165a1.9 1.9 0 01-.704-.479 2.142 2.142 0 01-.439-.766 3.203 3.203 0 01-.151-1.026v-.434c0-.43.048-.806.146-1.128a2.38 2.38 0 01.415-.82c.179-.222.399-.386.659-.494.264-.11.562-.166.894-.166.332 0 .623.055.874.166.254.108.464.27.63.488.166.215.291.482.376.801.084.32.127.69.127 1.114v.624h-3.54v-.961h2.197v-.123c0-.214-.023-.393-.068-.537a.623.623 0 00-.215-.327.647.647 0 00-.391-.107.677.677 0 00-.347.083.57.57 0 00-.224.259 1.58 1.58 0 00-.122.459 4.91 4.91 0 00-.039.669v.434c0 .244.021.45.063.615.042.163.104.297.186.4.084.102.187.175.307.22.121.043.261.064.42.064.241 0 .458-.042.65-.127.195-.088.361-.207.498-.356l.547.83a1.98 1.98 0 01-.391.37 2.137 2.137 0 01-.596.303 2.5 2.5 0 01-.801.118zm4.024-4.203V15h-1.367V9.717h1.289l.078 1.177zm1.245-1.216l-.02 1.362a1.717 1.717 0 00-.224-.03 2.989 2.989 0 00-.225-.009.936.936 0 00-.39.073.652.652 0 00-.269.21.985.985 0 00-.156.342 2.174 2.174 0 00-.064.464l-.258-.098c0-.345.026-.66.078-.947a2.8 2.8 0 01.244-.752c.107-.215.236-.38.386-.498a.828.828 0 01.517-.176c.065 0 .134.007.205.02.075.01.134.022.176.039zm2.134-2.178V15h-1.372V7.5h1.372zm2.519 2.217V15h-1.372V9.717h1.372zm-1.435-1.367c0-.212.067-.386.2-.523a.73.73 0 01.547-.21c.231 0 .413.07.547.21.133.137.2.311.2.523a.717.717 0 01-.205.522.718.718 0 01-.537.205c-.231 0-.415-.068-.552-.205a.73.73 0 01-.2-.522zm4.648 6.748c-.361 0-.682-.056-.962-.166a1.905 1.905 0 01-.703-.479 2.142 2.142 0 01-.439-.766 3.202 3.202 0 01-.152-1.026v-.434c0-.43.049-.806.147-1.128a2.38 2.38 0 01.415-.82c.179-.222.399-.386.659-.494.264-.11.562-.166.894-.166.332 0 .623.055.874.166.254.108.464.27.63.488.166.215.291.482.376.801.084.32.126.69.126 1.114v.624h-3.54v-.961h2.198v-.123c0-.214-.023-.393-.069-.537a.612.612 0 00-.215-.327.642.642 0 00-.39-.107.677.677 0 00-.347.083.57.57 0 00-.224.259 1.58 1.58 0 00-.122.459c-.027.185-.04.408-.04.669v.434c0 .244.022.45.064.615.042.163.104.297.185.4.085.102.188.175.308.22.121.043.261.064.42.064.241 0 .457-.042.649-.127.196-.088.362-.207.498-.356l.547.83a1.946 1.946 0 01-.39.37 2.137 2.137 0 01-.596.303 2.5 2.5 0 01-.801.118zm4.024-4.204V15h-1.368V9.717h1.29l.078 1.177zm1.245-1.216l-.02 1.362a1.74 1.74 0 00-.224-.03 2.989 2.989 0 00-.225-.009.944.944 0 00-.391.073.649.649 0 00-.268.21.95.95 0 00-.156.342 2.174 2.174 0 00-.064.464l-.259-.098c0-.345.026-.66.078-.947.056-.29.137-.54.245-.752.107-.215.236-.38.385-.498a.83.83 0 01.518-.176c.065 0 .133.007.205.02.075.01.133.022.176.039zm2.729 5.42c-.361 0-.682-.056-.962-.166a1.905 1.905 0 01-.703-.479 2.142 2.142 0 01-.439-.766 3.202 3.202 0 01-.152-1.026v-.434c0-.43.049-.806.147-1.128a2.38 2.38 0 01.415-.82c.179-.222.399-.386.659-.494.264-.11.562-.166.894-.166.332 0 .623.055.874.166.254.108.464.27.63.488.166.215.291.482.376.801.084.32.127.69.127 1.114v.624h-3.541v-.961h2.198v-.123c0-.214-.023-.393-.069-.537a.616.616 0 00-.214-.327.647.647 0 00-.391-.107.677.677 0 00-.347.083.57.57 0 00-.224.259 1.58 1.58 0 00-.122.459c-.026.185-.04.408-.04.669v.434c0 .244.022.45.064.615.042.163.104.297.186.4.084.102.187.175.307.22.121.043.261.064.42.064a1.497 1.497 0 001.148-.483l.546.83a1.946 1.946 0 01-.39.37 2.137 2.137 0 01-.596.303 2.5 2.5 0 01-.801.118zm3.999-4.253V15h-1.372V9.717h1.284l.088 1.128zm-.205 1.333l-.366.01a4.063 4.063 0 01.112-1.07 2.59 2.59 0 01.357-.806c.156-.224.342-.395.556-.512.219-.12.461-.18.728-.18.205 0 .392.035.561.107a1.1 1.1 0 01.445.341c.124.157.22.365.288.625.068.258.102.573.102.948V15h-1.372v-3.37c0-.227-.022-.403-.068-.527a.46.46 0 00-.205-.263.681.681 0 00-.342-.078.569.569 0 00-.347.112.855.855 0 00-.253.298 1.745 1.745 0 00-.152.45 2.817 2.817 0 00-.044.556zm10.987-.913v2.93a2.866 2.866 0 01-1.202.747c-.309.104-.686.156-1.132.156-.394 0-.752-.062-1.075-.186a2.179 2.179 0 01-.825-.561 2.553 2.553 0 01-.522-.948c-.121-.38-.181-.831-.181-1.352V10.84c0-.514.057-.962.171-1.343.117-.384.286-.703.508-.957a2.06 2.06 0 01.791-.566 2.79 2.79 0 011.045-.186c.534 0 .971.09 1.313.269.345.179.606.444.781.796.179.351.287.782.323 1.293h-1.382c-.023-.299-.073-.533-.152-.703a.708.708 0 00-.317-.361 1.104 1.104 0 00-.532-.112 1.11 1.11 0 00-.493.102.834.834 0 00-.352.323c-.094.15-.164.341-.21.576-.045.234-.068.52-.068.86v1.22c0 .335.026.621.078.86.052.237.129.43.229.58.105.15.235.259.391.327.16.066.347.098.562.098.172 0 .31-.018.415-.054.104-.036.187-.073.249-.112a2.22 2.22 0 01.161-.098v-1.308h-1.021v-1.08h2.447zm3.09 3.833c-.361 0-.682-.056-.962-.166a1.905 1.905 0 01-.703-.479 2.142 2.142 0 01-.439-.766 3.203 3.203 0 01-.151-1.026v-.434c0-.43.048-.806.146-1.128a2.38 2.38 0 01.415-.82c.179-.222.399-.386.659-.494.264-.11.562-.166.894-.166.332 0 .623.055.874.166.254.108.464.27.63.488.166.215.291.482.376.801.084.32.127.69.127 1.114v.624h-3.54v-.961h2.197v-.123c0-.214-.023-.393-.069-.537a.616.616 0 00-.214-.327.647.647 0 00-.391-.107.677.677 0 00-.347.083.57.57 0 00-.224.259 1.58 1.58 0 00-.122.459 4.91 4.91 0 00-.039.669v.434c0 .244.021.45.063.615.042.163.104.297.186.4.084.102.187.175.307.22.121.043.261.064.42.064.241 0 .458-.042.65-.127.195-.088.361-.207.498-.356l.546.83a1.946 1.946 0 01-.39.37 2.137 2.137 0 01-.596.303 2.5 2.5 0 01-.801.118zm4.092-7.598V15h-1.372V7.5h1.372zm3.643 6.333V7.5h1.372V15l-1.24.005-.132-1.172zm-2.74-1.29v-.35c0-.43.036-.806.108-1.128.075-.323.185-.591.332-.806.146-.215.325-.375.537-.479.215-.107.461-.16.737-.16.251 0 .471.063.66.19.192.123.354.297.488.522.133.225.241.49.322.796.081.306.138.641.171 1.006v.508a6.37 6.37 0 01-.181.966c-.078.3-.185.56-.322.782a1.632 1.632 0 01-.483.522 1.178 1.178 0 01-.66.186c-.276 0-.522-.056-.737-.166a1.483 1.483 0 01-.537-.489 2.509 2.509 0 01-.327-.8 5.02 5.02 0 01-.108-1.1zm1.368-.35v.35c0 .248.011.462.034.64.026.176.067.321.122.435.059.11.135.194.229.25a.723.723 0 00.352.077.69.69 0 00.444-.136.834.834 0 00.254-.386 1.89 1.89 0 00.098-.571v-.923a2.37 2.37 0 00-.064-.484 1.197 1.197 0 00-.151-.366.696.696 0 00-.244-.234.646.646 0 00-.332-.083.704.704 0 00-.352.083.57.57 0 00-.224.258 1.585 1.585 0 00-.127.445 4.564 4.564 0 00-.039.644zm6.084-4.693h1.362v6.274L206.57 15h-1.264V7.5zm4.106 4.683v.346c0 .43-.034.804-.102 1.123-.066.32-.168.586-.308.801a1.323 1.323 0 01-.527.484 1.686 1.686 0 01-.762.16c-.264 0-.49-.061-.679-.185a1.576 1.576 0 01-.478-.522 3.438 3.438 0 01-.313-.787 6.639 6.639 0 01-.171-.99V12.1c.033-.352.088-.68.166-.982.082-.303.186-.565.313-.786.127-.225.285-.399.473-.522.192-.127.419-.19.679-.19.3 0 .557.054.772.165.214.108.39.269.527.484.14.214.242.483.308.805.068.32.102.689.102 1.109zm-1.362.346v-.346c0-.245-.01-.454-.029-.63a1.514 1.514 0 00-.108-.44.562.562 0 00-.225-.263.704.704 0 00-.376-.088.685.685 0 00-.351.083.696.696 0 00-.244.234 1.15 1.15 0 00-.147.361 2.484 2.484 0 00-.049.455v.922c.004.225.031.424.083.596a.813.813 0 00.25.4c.117.095.273.142.468.142a.766.766 0 00.371-.078.516.516 0 00.22-.25 1.3 1.3 0 00.108-.439c.019-.182.029-.402.029-.659zm4.331 2.569c-.361 0-.682-.056-.962-.166a1.897 1.897 0 01-.703-.479 2.144 2.144 0 01-.44-.766 3.203 3.203 0 01-.151-1.026v-.434c0-.43.049-.806.146-1.128.098-.326.236-.6.416-.82.179-.222.398-.386.659-.494.263-.11.561-.166.893-.166.332 0 .624.055.874.166.254.108.464.27.63.488.166.215.292.482.376.801.085.32.127.69.127 1.114v.624h-3.54v-.961h2.197v-.123c0-.214-.022-.393-.068-.537a.617.617 0 00-.215-.327.647.647 0 00-.391-.107.674.674 0 00-.346.083.572.572 0 00-.225.259c-.055.117-.096.27-.122.459a4.91 4.91 0 00-.039.669v.434c0 .244.021.45.064.615.042.163.104.297.185.4.085.102.187.175.308.22.12.043.26.064.42.064.241 0 .457-.042.649-.127.195-.088.361-.207.498-.356l.547.83a2.13 2.13 0 01-.986.674 2.5 2.5 0 01-.801.117zm4.092-5.381V15h-1.372V9.717h1.372zm-1.436-1.367c0-.212.067-.386.2-.523a.73.73 0 01.547-.21c.231 0 .414.07.547.21.134.137.2.311.2.523a.717.717 0 01-.205.522c-.133.137-.312.205-.537.205-.231 0-.415-.068-.552-.205a.73.73 0 01-.2-.522zm3.897 2.46V15h-1.372V9.717h1.289l.083 1.093zm-.196 1.368l-.376.01a4.26 4.26 0 01.098-1.026c.072-.312.179-.584.322-.815a1.59 1.59 0 01.552-.537c.221-.127.48-.19.776-.19.192 0 .37.035.533.107.162.068.304.177.424.327.121.146.214.338.279.576.065.234.097.516.097.845V15h-1.367v-3.36c0-.234-.023-.413-.068-.537a.473.473 0 00-.196-.263.582.582 0 00-.312-.078.564.564 0 00-.342.107.789.789 0 00-.239.303 1.927 1.927 0 00-.137.45 3.359 3.359 0 00-.044.556zm2.574-.137l-.494.063a4.066 4.066 0 01.093-.971c.068-.303.174-.567.318-.791a1.58 1.58 0 01.537-.532c.218-.127.47-.19.756-.19.215 0 .411.035.586.107.176.071.326.187.45.346.127.156.223.363.288.62.068.258.102.57.102.938V15h-1.372v-3.364c0-.238-.023-.42-.068-.547-.046-.127-.111-.213-.196-.259a.625.625 0 00-.302-.068.505.505 0 00-.308.097.785.785 0 00-.215.274 1.526 1.526 0 00-.132.405c-.029.153-.043.32-.043.503zm9.428.59h1.421c-.019.535-.127.986-.322 1.353a1.957 1.957 0 01-.835.83c-.358.19-.791.284-1.299.284-.394 0-.744-.065-1.05-.196a2.097 2.097 0 01-.781-.586 2.595 2.595 0 01-.488-.952 4.83 4.83 0 01-.161-1.313v-1.206c0-.495.057-.933.171-1.314.117-.38.283-.7.498-.957.218-.26.48-.456.786-.586a2.61 2.61 0 011.045-.2c.517 0 .95.098 1.298.293.349.195.617.48.806.855.192.37.308.825.347 1.362h-1.426c-.01-.339-.049-.604-.117-.796-.065-.195-.169-.332-.313-.41-.143-.082-.341-.122-.595-.122-.189 0-.352.034-.489.102a.792.792 0 00-.337.318 1.717 1.717 0 00-.195.576 5.484 5.484 0 00-.058.869v1.216c0 .335.017.621.053.86.036.234.093.426.171.575.078.15.184.26.318.327.136.069.309.103.517.103.241 0 .435-.036.581-.107.15-.072.261-.2.332-.386.072-.186.112-.45.122-.791zm3.745-4.74V15h-1.43V7.89h1.43zm2.227 3.022v1.182h-2.588v-1.182h2.588zm.273-3.022v1.186h-2.861V7.891h2.861zM239.676 15h-1.255l.01-1.182h1.245c.345 0 .613-.061.805-.185.193-.124.328-.32.406-.586.081-.267.122-.617.122-1.05V10.89c0-.33-.021-.607-.064-.835a1.359 1.359 0 00-.215-.557.888.888 0 00-.405-.317 1.688 1.688 0 00-.63-.103h-1.299V7.891h1.299c.41 0 .783.066 1.118.2.336.133.624.329.865.586.241.254.426.568.556.942.131.374.196.8.196 1.28v1.098c0 .482-.065.908-.196 1.28-.13.37-.315.685-.556.942a2.345 2.345 0 01-.865.58c-.338.134-.717.201-1.137.201zm-.425-7.11V15h-1.431V7.89h1.431zm6.616 3.492v1.138h-2.378v-1.138h2.378zm5.161-.61v1.181h-2.915v-1.181h2.915zm-2.509-2.881V15h-1.431V7.89h1.431zm3.544 0V15h-1.416V7.89h1.416zm3.428 5.893v-2.441c0-.16-.019-.287-.058-.381a.384.384 0 00-.166-.205.485.485 0 00-.264-.069.544.544 0 00-.293.074.449.449 0 00-.176.21.89.89 0 00-.054.327h-1.372c0-.228.044-.443.132-.645.088-.205.217-.384.386-.537.173-.156.378-.278.615-.366a2.3 2.3 0 01.801-.132c.352 0 .664.06.937.18.274.118.49.305.65.562.159.257.239.591.239 1.001v2.354c0 .296.015.537.044.723.033.185.08.345.142.478V15h-1.377a2.303 2.303 0 01-.142-.547 5.143 5.143 0 01-.044-.669zm.166-2.011l.005.82h-.503a.857.857 0 00-.342.063.738.738 0 00-.385.444c-.03.101-.044.209-.044.323 0 .127.018.234.053.322.036.088.09.155.162.2a.46.46 0 00.253.069.79.79 0 00.391-.093.63.63 0 00.244-.225c.056-.088.073-.169.054-.244l.312.532c-.039.12-.092.246-.161.376-.065.13-.148.251-.249.362-.101.11-.226.202-.376.273-.146.069-.32.103-.522.103-.283 0-.542-.065-.777-.196a1.452 1.452 0 01-.556-.546 1.654 1.654 0 01-.2-.835c0-.267.042-.508.127-.723.087-.218.218-.402.39-.552.173-.153.391-.27.655-.351.263-.082.572-.122.927-.122h.542zm3.565-.928V15h-1.372V9.717h1.284l.088 1.128zm-.205 1.333l-.367.01a4.02 4.02 0 01.113-1.07c.084-.316.203-.584.356-.806.156-.224.342-.395.557-.512.218-.12.46-.18.727-.18.205 0 .393.035.562.107.172.071.32.185.444.341.124.157.22.365.288.625.069.258.103.573.103.948V15h-1.372v-3.37c0-.227-.023-.403-.069-.527a.455.455 0 00-.205-.263.681.681 0 00-.342-.078.566.566 0 00-.346.112.847.847 0 00-.254.298 1.745 1.745 0 00-.151.45 2.674 2.674 0 00-.044.556zm6.342 1.655V7.5h1.372V15l-1.24.005-.132-1.172zm-2.739-1.29v-.35c0-.43.036-.806.108-1.128.074-.323.185-.591.332-.806.146-.215.325-.375.537-.479.215-.107.46-.16.737-.16.251 0 .47.063.659.19.192.123.355.297.488.522.134.225.241.49.323.796.081.306.138.641.171 1.006v.508c-.039.345-.1.667-.181.966-.078.3-.186.56-.322.782a1.635 1.635 0 01-.484.522 1.174 1.174 0 01-.659.186c-.277 0-.522-.056-.737-.166a1.467 1.467 0 01-.537-.489 2.464 2.464 0 01-.327-.8 5.02 5.02 0 01-.108-1.1zm1.367-.35v.35c0 .248.012.462.034.64.027.176.067.321.123.435.058.11.135.194.229.25a.72.72 0 00.352.077.69.69 0 00.444-.136.834.834 0 00.254-.386 1.92 1.92 0 00.098-.571v-.923a2.37 2.37 0 00-.064-.484 1.223 1.223 0 00-.151-.366.704.704 0 00-.244-.234.65.65 0 00-.333-.083.703.703 0 00-.351.083.578.578 0 00-.225.258 1.655 1.655 0 00-.127.445 4.564 4.564 0 00-.039.644zm5.904 2.905a2.6 2.6 0 01-.962-.166 1.897 1.897 0 01-.703-.479 2.144 2.144 0 01-.44-.766 3.203 3.203 0 01-.151-1.026v-.434c0-.43.049-.806.146-1.128a2.38 2.38 0 01.415-.82c.179-.222.399-.386.659-.494.264-.11.562-.166.894-.166.332 0 .623.055.874.166.254.108.464.27.63.488.166.215.291.482.376.801.085.32.127.69.127 1.114v.624h-3.54v-.961h2.197v-.123c0-.214-.023-.393-.068-.537a.617.617 0 00-.215-.327.647.647 0 00-.391-.107.674.674 0 00-.346.083.566.566 0 00-.225.259c-.055.117-.096.27-.122.459a4.91 4.91 0 00-.039.669v.434c0 .244.021.45.063.615.043.163.104.297.186.4.084.102.187.175.307.22.121.043.261.064.42.064.241 0 .458-.042.65-.127.195-.088.361-.207.498-.356l.547.83a2.124 2.124 0 01-.987.674 2.498 2.498 0 01-.8.117zm4.091-7.598V15h-1.372V7.5h1.372zm4.766 3.31V15h-1.372V9.717h1.289l.083 1.093zm-.195 1.368l-.376.01a4.261 4.261 0 01.097-1.026 2.66 2.66 0 01.323-.815c.146-.231.33-.41.551-.537.222-.127.481-.19.777-.19.192 0 .369.035.532.107.163.068.304.177.425.327.12.146.213.338.278.576.065.234.098.516.098.845V15h-1.367v-3.36c0-.234-.023-.413-.069-.537a.468.468 0 00-.195-.263.588.588 0 00-.313-.078.56.56 0 00-.341.107.781.781 0 00-.24.303 1.928 1.928 0 00-.136.45c-.03.172-.044.357-.044.556zm2.573-.137l-.493.063a3.966 3.966 0 01.093-.971c.068-.303.174-.567.317-.791a1.58 1.58 0 01.537-.532c.218-.127.47-.19.757-.19.215 0 .41.035.586.107.176.071.325.187.449.346.127.156.223.363.288.62.069.258.103.57.103.938V15h-1.372v-3.364c0-.238-.023-.42-.069-.547-.045-.127-.11-.213-.195-.259a.632.632 0 00-.303-.068.5.5 0 00-.307.097.763.763 0 00-.215.274 1.457 1.457 0 00-.132.405c-.029.153-.044.32-.044.503zm5.103-2.324V15h-1.373V9.717h1.373zm-1.436-1.367c0-.212.067-.386.2-.523a.73.73 0 01.547-.21c.231 0 .413.07.547.21.133.137.2.311.2.523a.717.717 0 01-.205.522c-.133.137-.312.205-.537.205-.231 0-.415-.068-.552-.205a.73.73 0 01-.2-.522zm4.824 1.367v1.03h-2.695v-1.03h2.695zm-2.075-1.304h1.362v4.976c0 .146.015.259.044.337.03.078.073.133.132.166.062.029.143.043.244.043a.94.94 0 00.322-.039v1.07a1.882 1.882 0 01-.341.098 2.228 2.228 0 01-.42.034c-.274 0-.511-.052-.713-.157a1.066 1.066 0 01-.464-.498c-.111-.23-.166-.534-.166-.908V8.413zm7.7 5.42V7.5h1.372V15l-1.24.005-.132-1.172zm-2.739-1.29v-.35c0-.43.036-.806.107-1.128.075-.323.186-.591.332-.806a1.4 1.4 0 01.537-.479 1.63 1.63 0 01.738-.16c.25 0 .47.063.659.19.192.123.355.297.488.522.134.225.241.49.323.796.081.306.138.641.17 1.006v.508a6.499 6.499 0 01-.18.966c-.078.3-.186.56-.323.782a1.621 1.621 0 01-.483.522 1.174 1.174 0 01-.659.186c-.277 0-.523-.056-.737-.166a1.467 1.467 0 01-.537-.489 2.487 2.487 0 01-.328-.8 5.086 5.086 0 01-.107-1.1zm1.367-.35v.35c0 .248.012.462.034.64.026.176.067.321.122.435a.61.61 0 00.23.25.716.716 0 00.351.077.69.69 0 00.445-.136.841.841 0 00.254-.386 1.89 1.89 0 00.097-.571v-.923a2.305 2.305 0 00-.063-.484 1.198 1.198 0 00-.152-.366.696.696 0 00-.244-.234.644.644 0 00-.332-.083.7.7 0 00-.351.083.566.566 0 00-.225.258 1.62 1.62 0 00-.127.445 4.564 4.564 0 00-.039.644zm5.21-2.476V15h-1.372V9.717h1.372zm-1.435-1.367c0-.212.066-.386.2-.523.136-.14.319-.21.547-.21.231 0 .413.07.546.21.134.137.201.311.201.523a.72.72 0 01-.205.522c-.134.137-.313.205-.538.205-.231 0-.415-.068-.551-.205a.725.725 0 01-.2-.522zm4.648 6.748c-.361 0-.682-.056-.962-.166a1.897 1.897 0 01-.703-.479 2.144 2.144 0 01-.44-.766c-.1-.3-.151-.642-.151-1.026v-.434c0-.43.049-.806.147-1.128.097-.326.236-.6.415-.82.179-.222.398-.386.659-.494.263-.11.561-.166.893-.166.332 0 .624.055.874.166.254.108.464.27.63.488.166.215.292.482.376.801.085.32.127.69.127 1.114v.624h-3.54v-.961h2.197v-.123c0-.214-.022-.393-.068-.537a.617.617 0 00-.215-.327.644.644 0 00-.39-.107.675.675 0 00-.347.083.578.578 0 00-.225.259c-.055.117-.096.27-.122.459a4.91 4.91 0 00-.039.669v.434c0 .244.021.45.064.615.042.163.104.297.185.4.085.102.187.175.308.22.12.043.26.064.42.064.241 0 .457-.042.649-.127.195-.088.361-.207.498-.356l.547.83a2.13 2.13 0 01-.986.674 2.5 2.5 0 01-.801.117zm5-1.524a.363.363 0 00-.093-.244 1.092 1.092 0 00-.293-.22 4.822 4.822 0 00-.532-.258 5.675 5.675 0 01-.64-.303 2.255 2.255 0 01-.473-.347 1.28 1.28 0 01-.288-.434 1.491 1.491 0 01-.098-.557c0-.225.041-.431.122-.62a1.5 1.5 0 01.361-.503c.157-.147.347-.26.572-.342.228-.085.483-.127.766-.127.397 0 .738.07 1.021.21.286.137.506.329.659.576.153.248.229.536.229.865h-1.367a.867.867 0 00-.053-.313.44.44 0 00-.176-.22.566.566 0 00-.318-.078.508.508 0 00-.444.234.457.457 0 00-.063.245c0 .071.014.135.044.19.032.056.083.11.151.161.068.052.159.108.273.166.118.056.261.118.43.186.352.13.64.27.864.42.228.15.397.325.508.527.111.199.166.444.166.737a1.46 1.46 0 01-.522 1.138c-.17.14-.373.248-.611.322a2.574 2.574 0 01-.786.113c-.426 0-.786-.085-1.079-.254a1.747 1.747 0 01-.664-.65 1.672 1.672 0 01-.225-.83h1.299a.897.897 0 00.098.415.496.496 0 00.249.205c.104.04.22.059.347.059a.845.845 0 00.312-.049.385.385 0 00.19-.161.51.51 0 00.064-.259zm4.326 1.524c-.361 0-.682-.056-.962-.166a1.905 1.905 0 01-.703-.479 2.142 2.142 0 01-.439-.766 3.202 3.202 0 01-.152-1.026v-.434c0-.43.049-.806.147-1.128.097-.326.236-.6.415-.82.179-.222.399-.386.659-.494.264-.11.562-.166.894-.166.332 0 .623.055.874.166.253.108.463.27.629.488.166.215.292.482.376.801.085.32.127.69.127 1.114v.624h-3.54v-.961h2.198v-.123c0-.214-.023-.393-.069-.537a.612.612 0 00-.215-.327.642.642 0 00-.39-.107.675.675 0 00-.347.083.578.578 0 00-.225.259c-.055.117-.096.27-.122.459a4.91 4.91 0 00-.039.669v.434c0 .244.022.45.064.615.042.163.104.297.185.4.085.102.188.175.308.22.12.043.26.064.42.064.241 0 .457-.042.649-.127.196-.088.362-.207.498-.356l.547.83a1.946 1.946 0 01-.39.37 2.137 2.137 0 01-.596.303 2.5 2.5 0 01-.801.118zm4.033-4.288V15h-1.372V9.717h1.289l.083 1.093zm-.195 1.368l-.376.01a4.26 4.26 0 01.098-1.026c.071-.312.179-.584.322-.815.146-.231.33-.41.552-.537.221-.127.48-.19.776-.19.192 0 .37.035.532.107.163.068.305.177.425.327.121.146.213.338.278.576.066.234.098.516.098.845V15h-1.367v-3.36c0-.234-.023-.413-.068-.537a.473.473 0 00-.196-.263.585.585 0 00-.312-.078.564.564 0 00-.342.107.78.78 0 00-.239.303 1.927 1.927 0 00-.137.45 3.359 3.359 0 00-.044.556zm2.573-.137l-.493.063a4.066 4.066 0 01.093-.971c.068-.303.174-.567.317-.791.143-.228.323-.405.537-.532.218-.127.471-.19.757-.19.215 0 .41.035.586.107.176.071.326.187.449.346.127.156.223.363.288.62.069.258.103.57.103.938V15h-1.372v-3.364c0-.238-.023-.42-.068-.547-.046-.127-.111-.213-.196-.259a.625.625 0 00-.302-.068.502.502 0 00-.308.097.774.774 0 00-.215.274 1.491 1.491 0 00-.132.405c-.029.153-.044.32-.044.503zm8.614-2.88L325.115 15h-1.509l2.222-7.11h.943l-.127 1.27zM327.85 15l-1.538-5.84-.142-1.27h.957l2.241 7.11h-1.518zm.053-2.651v1.186h-3.208V12.35h3.208zm3.184-1.504V15h-1.372V9.717h1.284l.088 1.128zm-.205 1.333l-.366.01a4.022 4.022 0 01.112-1.07 2.59 2.59 0 01.356-.806c.157-.224.342-.395.557-.512.218-.12.461-.18.728-.18.205 0 .392.035.561.107.173.071.321.185.444.341.124.157.22.365.288.625.069.258.103.573.103.948V15h-1.372v-3.37c0-.227-.023-.403-.068-.527a.46.46 0 00-.205-.263.687.687 0 00-.342-.078.569.569 0 00-.347.112.857.857 0 00-.254.298 1.784 1.784 0 00-.151.45 2.744 2.744 0 00-.044.556zm3.789-4.678h1.362v6.274L335.936 15h-1.265V7.5zm4.106 4.683v.346c0 .43-.034.804-.102 1.123-.065.32-.168.586-.308.801a1.316 1.316 0 01-.527.484 1.686 1.686 0 01-.762.16c-.264 0-.49-.061-.679-.185a1.587 1.587 0 01-.478-.522 3.438 3.438 0 01-.313-.787 6.517 6.517 0 01-.17-.99V12.1c.032-.352.087-.68.166-.982.081-.303.185-.565.312-.786.127-.225.285-.399.474-.522a1.2 1.2 0 01.678-.19c.3 0 .557.054.772.165.215.108.39.269.527.484.14.214.243.483.308.805.068.32.102.689.102 1.109zm-1.362.346v-.346c0-.245-.01-.454-.029-.63a1.514 1.514 0 00-.108-.44.565.565 0 00-.224-.263.708.708 0 00-.376-.088.689.689 0 00-.352.083.696.696 0 00-.244.234c-.065.101-.114.221-.146.361a2.32 2.32 0 00-.049.455v.922c.003.225.031.424.083.596a.805.805 0 00.249.4c.117.095.273.142.469.142a.77.77 0 00.371-.078.52.52 0 00.219-.25c.056-.113.091-.26.108-.439.019-.182.029-.402.029-.659zm3.638-2.812V15h-1.372V9.717h1.372zm-1.436-1.367c0-.212.067-.386.2-.523a.73.73 0 01.547-.21c.231 0 .414.07.547.21.134.137.2.311.2.523a.717.717 0 01-.205.522c-.133.137-.312.205-.537.205-.231 0-.415-.068-.552-.205a.73.73 0 01-.2-.522zm4.649 6.748a2.6 2.6 0 01-.962-.166 1.897 1.897 0 01-.703-.479 2.144 2.144 0 01-.44-.766 3.203 3.203 0 01-.151-1.026v-.434c0-.43.049-.806.146-1.128a2.38 2.38 0 01.415-.82c.179-.222.399-.386.659-.494.264-.11.562-.166.894-.166.332 0 .623.055.874.166.254.108.464.27.63.488.166.215.291.482.376.801.085.32.127.69.127 1.114v.624h-3.54v-.961h2.197v-.123c0-.214-.023-.393-.068-.537a.617.617 0 00-.215-.327.647.647 0 00-.391-.107.674.674 0 00-.346.083.566.566 0 00-.225.259c-.055.117-.096.27-.122.459a4.91 4.91 0 00-.039.669v.434c0 .244.021.45.063.615.043.163.104.297.186.4.084.102.187.175.307.22.121.043.261.064.42.064.241 0 .458-.042.65-.127.195-.088.361-.207.498-.356l.547.83a2.124 2.124 0 01-.987.674 2.498 2.498 0 01-.8.117zm4.961-5.381v1.03h-2.696v-1.03h2.696zm-2.076-1.304h1.363v4.976c0 .146.014.259.044.337a.301.301 0 00.131.166.58.58 0 00.245.043.928.928 0 00.322-.039v1.07a1.893 1.893 0 01-.342.098 2.228 2.228 0 01-.42.034c-.273 0-.511-.052-.713-.157a1.07 1.07 0 01-.464-.498c-.11-.23-.166-.534-.166-.908V8.413zm4.966 6.685c-.361 0-.682-.056-.962-.166a1.905 1.905 0 01-.703-.479 2.142 2.142 0 01-.439-.766 3.202 3.202 0 01-.152-1.026v-.434c0-.43.049-.806.147-1.128.097-.326.236-.6.415-.82.179-.222.399-.386.659-.494.264-.11.562-.166.894-.166.332 0 .623.055.874.166.254.108.463.27.629.488.167.215.292.482.376.801.085.32.127.69.127 1.114v.624h-3.54v-.961h2.198v-.123c0-.214-.023-.393-.069-.537a.612.612 0 00-.215-.327.642.642 0 00-.39-.107.677.677 0 00-.347.083.57.57 0 00-.224.259 1.61 1.61 0 00-.123.459 4.91 4.91 0 00-.039.669v.434c0 .244.022.45.064.615.042.163.104.297.185.4.085.102.188.175.308.22.12.043.26.064.42.064.241 0 .457-.042.649-.127.196-.088.362-.207.498-.356l.547.83a1.946 1.946 0 01-.39.37 2.137 2.137 0 01-.596.303 2.5 2.5 0 01-.801.118zm4.024-4.204V15h-1.368V9.717h1.289l.079 1.177zm1.245-1.216l-.02 1.362a1.765 1.765 0 00-.224-.03 2.989 2.989 0 00-.225-.009.944.944 0 00-.391.073.649.649 0 00-.268.21.95.95 0 00-.156.342 2.174 2.174 0 00-.064.464l-.259-.098c0-.345.026-.66.078-.947.056-.29.137-.54.245-.752.107-.215.236-.38.385-.498a.83.83 0 01.518-.176c.065 0 .133.007.205.02.075.01.133.022.176.039zm-.03 4.624a.73.73 0 01.215-.537c.144-.147.337-.22.581-.22.244 0 .438.073.581.22a.726.726 0 01.215.537.726.726 0 01-.215.537c-.143.143-.337.215-.581.215-.244 0-.437-.072-.581-.215a.73.73 0 01-.215-.537zm8.467-1.099c0-.355-.096-.627-.288-.815-.192-.19-.539-.373-1.04-.552-.501-.18-.885-.366-1.152-.562a2.068 2.068 0 01-.596-.673 1.88 1.88 0 01-.195-.87c0-.563.187-1.027.561-1.391.378-.365.871-.547 1.48-.547.416 0 .788.094 1.113.283.326.186.576.445.752.777.176.332.264.696.264 1.093h-.899c0-.44-.106-.78-.317-1.02-.212-.241-.516-.362-.913-.362-.362 0-.642.101-.84.303-.199.202-.298.485-.298.85 0 .3.107.55.322.752.215.202.547.382.996.542.7.23 1.2.516 1.499.854.303.339.455.781.455 1.328 0 .577-.188 1.039-.562 1.387-.374.345-.884.518-1.528.518-.414 0-.796-.09-1.148-.269a2.096 2.096 0 01-.825-.762 2.135 2.135 0 01-.298-1.127h.899c0 .439.122.78.366 1.025.247.244.583.366 1.006.366.394 0 .69-.1.888-.303.199-.202.298-.477.298-.825zM368.714 15h-.864V9.717h.864V15zm.068-6.685a.55.55 0 01-.122.367c-.081.097-.205.146-.371.146-.163 0-.285-.049-.366-.146a.55.55 0 01-.122-.367c0-.146.04-.27.122-.37.081-.102.203-.152.366-.152.163 0 .285.052.366.156a.55.55 0 01.127.366zm3.184 6.783c-.658 0-1.162-.196-1.514-.586-.351-.394-.53-.97-.537-1.729v-.64c0-.787.171-1.404.513-1.85.345-.45.825-.674 1.44-.674.619 0 1.081.197 1.387.591.306.394.462 1.007.469 1.84v.567h-2.95v.122c0 .567.106.978.318 1.236.215.257.522.385.923.385.254 0 .477-.047.669-.141.195-.098.377-.25.546-.46l.45.548c-.375.527-.946.79-1.714.79zm-.098-4.737c-.358 0-.623.124-.796.371-.172.245-.27.625-.293 1.143h2.08v-.117c-.022-.501-.114-.86-.273-1.074-.156-.215-.396-.323-.718-.323zm7.759 3.287a.638.638 0 00-.21-.48c-.14-.132-.41-.289-.811-.468-.465-.192-.794-.356-.986-.493a1.426 1.426 0 01-.425-.464 1.308 1.308 0 01-.141-.625c0-.43.156-.786.468-1.07.316-.286.718-.429 1.207-.429.514 0 .927.15 1.24.45.312.299.469.683.469 1.152h-.86c0-.238-.08-.44-.239-.606a.803.803 0 00-.61-.254c-.254 0-.455.067-.601.2a.678.678 0 00-.215.528c0 .176.052.317.156.425.108.107.363.249.767.425.641.25 1.077.496 1.309.737.231.237.346.54.346.908 0 .459-.158.827-.473 1.104-.316.273-.739.41-1.27.41-.55 0-.996-.158-1.338-.474a1.564 1.564 0 01-.513-1.201h.87c.009.293.099.522.268.688.169.166.407.25.713.25.287 0 .505-.064.654-.191a.657.657 0 00.225-.522zm1.811-1.534c0-.768.186-1.375.557-1.821.374-.45.868-.674 1.48-.674s1.103.218 1.474.654c.375.437.567 1.03.576 1.783v.556c0 .765-.185 1.37-.556 1.817-.371.446-.866.669-1.485.669-.612 0-1.103-.217-1.474-.65-.368-.433-.559-1.019-.572-1.758v-.576zm.865.498c0 .544.106.972.317 1.284.215.31.503.464.864.464.762 0 1.154-.55 1.177-1.65v-.596c0-.54-.107-.966-.322-1.279-.215-.316-.503-.474-.864-.474-.355 0-.64.158-.855.474-.211.313-.317.737-.317 1.274v.503zM387.571 15h-.864V7.5h.864V15zm2.295 0h-.864V7.5h.864V15zm2.495-6.563v1.28h.796v.698h-.796v3.276c0 .209.035.367.103.474.068.108.185.161.351.161.114 0 .23-.02.347-.058l-.01.732a1.883 1.883 0 01-.6.098c-.342 0-.602-.122-.781-.367-.18-.244-.269-.589-.269-1.035v-3.281h-.806v-.698h.806v-1.28h.859zm3.716 6.66c-.657 0-1.162-.195-1.514-.585-.351-.394-.53-.97-.537-1.729v-.64c0-.787.171-1.404.513-1.85.345-.45.825-.674 1.44-.674.619 0 1.081.197 1.387.591.306.394.462 1.007.469 1.84v.567h-2.949v.122c0 .567.106.978.317 1.236.215.257.523.385.923.385.254 0 .477-.047.669-.141a1.69 1.69 0 00.547-.46l.449.548c-.374.527-.946.79-1.714.79zm-.098-4.736c-.358 0-.623.124-.795.371-.173.245-.271.625-.293 1.143h2.08v-.117c-.023-.501-.114-.86-.274-1.074-.156-.215-.395-.323-.718-.323zm3.711-.644l.025.571c.335-.446.763-.669 1.284-.669.934 0 1.408.623 1.421 1.87V15h-.859v-3.472c0-.413-.07-.706-.21-.879-.137-.175-.344-.263-.621-.263a.889.889 0 00-.581.215c-.169.143-.306.33-.41.561V15h-.864V9.717h.815zm9.019 4.82c-.286.373-.705.56-1.255.56-.478 0-.84-.164-1.084-.492-.244-.332-.368-.814-.371-1.446V9.717h.859v3.379c0 .823.248 1.235.743 1.235.524 0 .885-.234 1.084-.703V9.717h.864V15h-.82l-.02-.464zm-2.5-6.231c0-.147.044-.269.132-.367.091-.1.224-.15.4-.15.176 0 .309.05.401.15.091.098.136.22.136.367a.516.516 0 01-.136.366c-.092.098-.225.146-.401.146-.176 0-.309-.048-.4-.146a.527.527 0 01-.132-.366zm2.1.01c0-.147.044-.27.131-.372.092-.1.225-.151.401-.151.176 0 .309.05.4.151.091.101.137.225.137.371a.517.517 0 01-.137.367c-.091.097-.224.146-.4.146-.176 0-.309-.049-.401-.146a.53.53 0 01-.131-.367zm6.367 4.296c0 .824-.148 1.444-.445 1.86-.296.417-.725.626-1.289.626-.56 0-.979-.241-1.259-.723l-.044.625h-.786V7.5h.859v2.798c.283-.453.69-.679 1.221-.679.579 0 1.014.205 1.303.615.29.41.437 1.029.44 1.856v.522zm-.86-.493c0-.625-.087-1.07-.263-1.333-.173-.267-.454-.4-.845-.4-.446 0-.778.24-.996.722v2.515c.215.475.55.713 1.006.713.39 0 .67-.137.84-.41.169-.274.255-.699.258-1.275v-.532zm3.853 2.979c-.658 0-1.162-.196-1.514-.586-.351-.394-.53-.97-.537-1.729v-.64c0-.787.171-1.404.513-1.85.345-.45.825-.674 1.44-.674.619 0 1.081.197 1.387.591.306.394.462 1.007.469 1.84v.567h-2.949v.122c0 .567.105.978.317 1.236.215.257.522.385.923.385.254 0 .477-.047.669-.141a1.7 1.7 0 00.547-.46l.449.548c-.375.527-.946.79-1.714.79zm-.098-4.737c-.358 0-.623.124-.796.371-.172.245-.27.625-.293 1.143h2.08v-.117c-.022-.501-.113-.86-.273-1.074-.156-.215-.395-.323-.718-.323zm5.078.166a2.1 2.1 0 00-.39-.034c-.443 0-.752.243-.928.728V15h-.864V9.717h.84l.014.537c.231-.423.559-.635.982-.635.136 0 .25.023.342.069l.004.84zM424.446 15h-.864V7.5h.864V15zm3.252.098c-.657 0-1.162-.196-1.513-.586-.352-.394-.531-.97-.538-1.729v-.64c0-.787.171-1.404.513-1.85.345-.45.825-.674 1.441-.674.618 0 1.08.197 1.386.591.306.394.463 1.007.469 1.84v.567h-2.949v.122c0 .567.106.978.317 1.236.215.257.523.385.923.385.254 0 .477-.047.669-.141a1.69 1.69 0 00.547-.46l.449.548c-.374.527-.946.79-1.714.79zm-.097-4.737c-.358 0-.624.124-.796.371-.173.245-.27.625-.293 1.143h2.08v-.117c-.023-.501-.114-.86-.274-1.074-.156-.215-.395-.323-.717-.323zm2.724 1.758c0-.823.15-1.445.449-1.865.3-.423.738-.635 1.314-.635.537 0 .946.23 1.225.689l.044-.591h.782v5.332c0 .654-.168 1.155-.503 1.504-.336.351-.803.527-1.402.527-.26 0-.553-.065-.879-.195-.322-.127-.564-.285-.727-.474l.351-.596c.359.352.754.528 1.187.528.719 0 1.089-.393 1.108-1.177v-.689c-.28.414-.677.62-1.191.62-.547 0-.973-.204-1.279-.615-.306-.413-.466-1.005-.479-1.777v-.586zm.864.493c0 .593.087 1.029.259 1.309.176.277.462.415.86.415.429 0 .752-.22.966-.66v-2.64c-.224-.434-.543-.65-.957-.65-.397 0-.683.14-.859.42-.176.276-.265.703-.269 1.279v.527zm6.128 2.486c-.657 0-1.162-.196-1.513-.586-.352-.394-.531-.97-.537-1.729v-.64c0-.787.171-1.404.512-1.85.345-.45.825-.674 1.441-.674.618 0 1.08.197 1.386.591.306.394.463 1.007.469 1.84v.567h-2.949v.122c0 .567.106.978.317 1.236.215.257.523.385.923.385.254 0 .477-.047.669-.141a1.69 1.69 0 00.547-.46l.449.548c-.374.527-.945.79-1.714.79zm-.097-4.737c-.358 0-.624.124-.796.371-.173.245-.27.625-.293 1.143h2.08v-.117c-.023-.501-.114-.86-.273-1.074-.157-.215-.396-.323-.718-.323zm3.711-.644l.024.571c.335-.446.763-.669 1.284-.669.935 0 1.408.623 1.421 1.87V15h-.859v-3.472c0-.413-.07-.706-.21-.879-.137-.175-.344-.263-.62-.263a.885.885 0 00-.581.215c-.17.143-.306.33-.411.561V15h-.864V9.717h.816zm4.038 6.699l-.513-.352c.306-.426.466-.865.479-1.318v-.815h.883v.708c0 .328-.081.657-.244.986a2.279 2.279 0 01-.605.791zm4.067-4.302c0-.768.186-1.375.557-1.821.374-.45.867-.674 1.479-.674.612 0 1.104.218 1.475.654.374.437.566 1.03.576 1.783v.556c0 .765-.185 1.37-.557 1.817-.371.446-.865.669-1.484.669-.612 0-1.103-.217-1.475-.65-.367-.433-.558-1.019-.571-1.758v-.576zm.864.498c0 .544.106.972.318 1.284.215.31.503.464.864.464.762 0 1.154-.55 1.177-1.65v-.596c0-.54-.108-.966-.322-1.279-.215-.316-.503-.474-.865-.474-.355 0-.639.158-.854.474-.212.313-.318.737-.318 1.274v.503zm8.164 0c0 .824-.148 1.444-.444 1.86-.296.417-.726.626-1.289.626-.56 0-.98-.241-1.26-.723l-.044.625h-.786V7.5h.86v2.798c.283-.453.69-.679 1.22-.679.58 0 1.014.205 1.304.615.29.41.436 1.029.439 1.856v.522zm-.859-.493c0-.625-.088-1.07-.264-1.333-.172-.267-.454-.4-.844-.4-.446 0-.778.24-.996.722v2.515c.214.475.55.713 1.005.713.391 0 .671-.137.84-.41.17-.274.256-.699.259-1.275v-.532zm7.485 1.084c0-.355-.096-.627-.288-.815-.192-.19-.538-.373-1.04-.552-.501-.18-.885-.366-1.152-.562a2.068 2.068 0 01-.596-.673 1.88 1.88 0 01-.195-.87c0-.563.187-1.027.561-1.391.378-.365.871-.547 1.48-.547.417 0 .788.094 1.113.283.326.186.576.445.752.777.176.332.264.696.264 1.093h-.899c0-.44-.105-.78-.317-1.02-.212-.241-.516-.362-.913-.362-.361 0-.641.101-.84.303-.198.202-.298.485-.298.85 0 .3.108.55.323.752.214.202.546.382.996.542.699.23 1.199.516 1.499.854.302.339.454.781.454 1.328 0 .577-.187 1.039-.562 1.387-.374.345-.884.518-1.528.518-.414 0-.796-.09-1.148-.269a2.096 2.096 0 01-.825-.762 2.144 2.144 0 01-.298-1.127h.899c0 .439.122.78.366 1.025.247.244.583.366 1.006.366.394 0 .69-.1.889-.303.198-.202.297-.477.297-.825zM467.581 15h-.864V9.717h.864V15zm.068-6.685a.55.55 0 01-.122.367c-.081.097-.205.146-.371.146-.163 0-.285-.049-.366-.146a.555.555 0 01-.122-.367c0-.146.041-.27.122-.37.081-.102.203-.152.366-.152.163 0 .285.052.366.156a.55.55 0 01.127.366zm3.184 6.783c-.658 0-1.162-.196-1.514-.586-.351-.394-.53-.97-.537-1.729v-.64c0-.787.171-1.404.513-1.85.345-.45.825-.674 1.44-.674.619 0 1.081.197 1.387.591.306.394.462 1.007.469 1.84v.567h-2.949v.122c0 .567.105.978.317 1.236.215.257.522.385.923.385.254 0 .477-.047.669-.141a1.7 1.7 0 00.547-.46l.449.548c-.374.527-.946.79-1.714.79zm-.098-4.737c-.358 0-.623.124-.796.371-.172.245-.27.625-.293 1.143h2.081v-.117c-.023-.501-.114-.86-.274-1.074-.156-.215-.395-.323-.718-.323zm7.08 4.737c-.657 0-1.162-.196-1.513-.586-.352-.394-.531-.97-.537-1.729v-.64c0-.787.171-1.404.512-1.85.345-.45.826-.674 1.441-.674.618 0 1.081.197 1.386.591.306.394.463 1.007.469 1.84v.567h-2.949v.122c0 .567.106.978.317 1.236.215.257.523.385.923.385.254 0 .477-.047.669-.141a1.68 1.68 0 00.547-.46l.449.548c-.374.527-.945.79-1.714.79zm-.097-4.737c-.358 0-.624.124-.796.371-.173.245-.27.625-.293 1.143h2.08v-.117c-.023-.501-.114-.86-.273-1.074-.157-.215-.396-.323-.718-.323zm5.464 3.287a.638.638 0 00-.21-.48c-.14-.132-.41-.289-.811-.468-.465-.192-.794-.356-.986-.493a1.415 1.415 0 01-.425-.464 1.308 1.308 0 01-.142-.625c0-.43.157-.786.469-1.07.316-.286.718-.429 1.206-.429.515 0 .928.15 1.24.45.313.299.469.683.469 1.152h-.859c0-.238-.08-.44-.239-.606a.803.803 0 00-.611-.254c-.254 0-.454.067-.6.2a.675.675 0 00-.215.528c0 .176.052.317.156.425.107.107.363.249.767.425.641.25 1.077.496 1.308.737.231.237.347.54.347.908 0 .459-.158.827-.474 1.104-.315.273-.739.41-1.269.41-.55 0-.996-.158-1.338-.474a1.564 1.564 0 01-.513-1.201h.869c.01.293.1.522.269.688.169.166.407.25.713.25.286 0 .504-.064.654-.191a.657.657 0 00.225-.522zm6.855 0a.638.638 0 00-.21-.48c-.14-.132-.41-.289-.81-.468-.466-.192-.795-.356-.987-.493a1.426 1.426 0 01-.425-.464 1.308 1.308 0 01-.141-.625c0-.43.156-.786.469-1.07.315-.286.717-.429 1.206-.429.514 0 .927.15 1.24.45.312.299.469.683.469 1.152h-.86a.84.84 0 00-.239-.606.801.801 0 00-.61-.254c-.254 0-.454.067-.601.2a.678.678 0 00-.215.528c0 .176.052.317.156.425.108.107.363.249.767.425.641.25 1.078.496 1.309.737.231.237.346.54.346.908 0 .459-.158.827-.473 1.104-.316.273-.739.41-1.27.41-.55 0-.996-.158-1.338-.474a1.566 1.566 0 01-.512-1.201h.869c.01.293.099.522.268.688.17.166.407.25.713.25.287 0 .505-.064.654-.191a.657.657 0 00.225-.522zM492.962 15h-.864V9.717h.864V15zm.068-6.685a.55.55 0 01-.122.367c-.081.097-.205.146-.371.146-.163 0-.285-.049-.366-.146a.555.555 0 01-.122-.367c0-.146.041-.27.122-.37.081-.102.203-.152.366-.152.163 0 .285.052.366.156a.55.55 0 01.127.366zm3.13 6.045c.287 0 .516-.087.689-.263.172-.18.267-.433.283-.762h.815c-.019.508-.2.93-.542 1.265a1.708 1.708 0 01-1.245.498c-.654 0-1.154-.205-1.499-.616-.342-.413-.513-1.027-.513-1.84v-.582c0-.797.171-1.402.513-1.816.342-.417.84-.625 1.494-.625.541 0 .969.171 1.284.513.319.342.489.809.508 1.401h-.815c-.02-.39-.114-.683-.283-.879-.166-.195-.398-.293-.694-.293-.384 0-.669.127-.854.381-.186.25-.282.664-.288 1.24v.674c0 .622.091 1.061.273 1.319.186.257.477.385.874.385zm3.648-4.101c.328-.427.748-.64 1.259-.64.935 0 1.408.623 1.421 1.87V15h-.859v-3.472c0-.413-.07-.706-.21-.879-.137-.175-.343-.263-.62-.263a.885.885 0 00-.581.215c-.169.143-.306.33-.41.561V15h-.865V7.5h.865v2.759zM507.005 15h-.864V7.5h.864V15zm3.252.098c-.658 0-1.162-.196-1.514-.586-.351-.394-.53-.97-.537-1.729v-.64c0-.787.171-1.404.513-1.85.345-.45.825-.674 1.44-.674.619 0 1.081.197 1.387.591.306.394.462 1.007.469 1.84v.567h-2.95v.122c0 .567.106.978.318 1.236.215.257.522.385.923.385.254 0 .477-.047.669-.141.195-.098.377-.25.546-.46l.45.548c-.375.527-.946.79-1.714.79zm-.098-4.737c-.358 0-.623.124-.796.371-.172.245-.27.625-.293 1.143h2.08v-.117c-.022-.501-.114-.86-.273-1.074-.156-.215-.396-.323-.718-.323zM513.987 15h-.864V9.717h.864V15zm.069-6.685a.555.555 0 01-.122.367c-.082.097-.205.146-.372.146-.162 0-.284-.049-.366-.146a.555.555 0 01-.122-.367c0-.146.041-.27.122-.37.082-.102.204-.152.366-.152.163 0 .285.052.367.156.084.101.127.223.127.366zm3.862 5.333a.638.638 0 00-.21-.48c-.14-.132-.41-.289-.811-.468-.465-.192-.794-.356-.986-.493a1.426 1.426 0 01-.425-.464 1.308 1.308 0 01-.141-.625c0-.43.156-.786.468-1.07.316-.286.718-.429 1.207-.429.514 0 .927.15 1.24.45.312.299.469.683.469 1.152h-.86c0-.238-.08-.44-.239-.606a.803.803 0 00-.61-.254c-.254 0-.455.067-.601.2a.678.678 0 00-.215.528c0 .176.052.317.156.425.108.107.363.249.767.425.641.25 1.077.496 1.309.737.231.237.346.54.346.908 0 .459-.158.827-.473 1.104-.316.273-.739.41-1.27.41-.55 0-.996-.158-1.338-.474a1.564 1.564 0 01-.513-1.201h.87c.009.293.099.522.268.688.169.166.407.25.713.25.287 0 .505-.064.654-.191a.657.657 0 00.225-.522zm3.125-5.21v1.279h.796v.698h-.796v3.276c0 .209.034.367.103.474.068.108.185.161.351.161.114 0 .23-.02.347-.058l-.01.732a1.889 1.889 0 01-.601.098c-.341 0-.602-.122-.781-.367-.179-.244-.268-.589-.268-1.035v-3.281h-.806v-.698h.806v-1.28h.859zm3.716 6.66c-.658 0-1.162-.196-1.514-.586-.351-.394-.53-.97-.537-1.729v-.64c0-.787.171-1.404.513-1.85.345-.45.825-.674 1.44-.674.619 0 1.081.197 1.387.591.306.394.462 1.007.469 1.84v.567h-2.95v.122c0 .567.106.978.318 1.236.215.257.522.385.923.385.254 0 .477-.047.669-.141.195-.098.377-.25.546-.46l.45.548c-.375.527-.946.79-1.714.79zm-.098-4.737c-.358 0-.623.124-.796.371-.172.245-.27.625-.293 1.143h2.08v-.117c-.022-.501-.114-.86-.273-1.074-.156-.215-.396-.323-.718-.323zm3.711-.644l.024.571c.336-.446.764-.669 1.285-.669.934 0 1.408.623 1.421 1.87V15h-.86v-3.472c0-.413-.07-.706-.21-.879-.136-.175-.343-.263-.62-.263a.887.887 0 00-.581.215c-.169.143-.306.33-.41.561V15h-.864V9.717h.815zm7.651 2.866l-.459.527V15h-.864V7.5h.864v4.487l1.646-2.27h1.035l-1.68 2.207 1.9 3.076h-1.006l-1.436-2.417zm3.003-.469c0-.768.186-1.375.557-1.821.374-.45.868-.674 1.479-.674.612 0 1.104.218 1.475.654.374.437.567 1.03.576 1.783v.556c0 .765-.185 1.37-.556 1.817-.371.446-.866.669-1.485.669-.612 0-1.103-.217-1.474-.65-.368-.433-.559-1.019-.572-1.758v-.576zm.865.498c0 .544.105.972.317 1.284.215.31.503.464.864.464.762 0 1.154-.55 1.177-1.65v-.596c0-.54-.107-.966-.322-1.279-.215-.316-.503-.474-.865-.474-.354 0-.639.158-.854.474-.212.313-.317.737-.317 1.274v.503zm-.44-4.306c0-.147.044-.269.132-.367.091-.1.225-.15.4-.15.176 0 .31.05.401.15.091.098.137.22.137.367a.517.517 0 01-.137.366c-.091.098-.225.146-.401.146-.175 0-.309-.048-.4-.146a.527.527 0 01-.132-.366zm2.1.01c0-.147.044-.27.132-.372.091-.1.224-.151.4-.151.176 0 .309.05.4.151a.53.53 0 01.137.371.513.513 0 01-.137.367c-.091.097-.224.146-.4.146-.176 0-.309-.049-.4-.146a.527.527 0 01-.132-.367zm3.491 1.4l.024.572c.336-.446.764-.669 1.285-.669.934 0 1.407.623 1.42 1.87V15h-.859v-3.472c0-.413-.07-.706-.21-.879-.137-.175-.343-.263-.62-.263a.887.887 0 00-.581.215c-.169.143-.306.33-.41.561V15h-.864V9.717h.815zm4.844 0l.024.572c.335-.446.764-.669 1.284-.669.935 0 1.408.623 1.421 1.87V15h-.859v-3.472c0-.413-.07-.706-.21-.879-.137-.175-.344-.263-.62-.263a.885.885 0 00-.581.215 1.55 1.55 0 00-.41.561V15h-.865V9.717h.816zm5.918 5.382c-.658 0-1.162-.196-1.514-.586-.352-.394-.531-.97-.537-1.729v-.64c0-.787.171-1.404.513-1.85.345-.45.825-.674 1.44-.674.619 0 1.081.197 1.387.591.306.394.462 1.007.469 1.84v.567h-2.95v.122c0 .567.106.978.318 1.236.215.257.522.385.923.385.253 0 .476-.047.668-.141a1.68 1.68 0 00.547-.46l.45.548c-.375.527-.946.79-1.714.79zm-.098-4.737c-.358 0-.623.124-.796.371-.172.245-.27.625-.293 1.143h2.08v-.117c-.023-.501-.114-.86-.273-1.074-.156-.215-.396-.323-.718-.323zm3.711-.644l.024.571c.336-.446.764-.669 1.285-.669.934 0 1.407.623 1.42 1.87V15h-.859v-3.472c0-.413-.07-.706-.21-.879-.137-.175-.343-.263-.62-.263a.887.887 0 00-.581.215c-.169.143-.306.33-.41.561V15h-.864V9.717h.815zm4.038 6.699l-.513-.352c.306-.426.466-.865.479-1.318v-.815h.884v.708c0 .328-.082.657-.244.986-.16.329-.362.592-.606.791zm4.067-4.297c0-.814.152-1.434.455-1.86.306-.427.743-.64 1.313-.64.505 0 .898.205 1.182.615V7.5h.864V15h-.791l-.044-.566c-.283.442-.689.664-1.216.664-.547 0-.976-.212-1.289-.635-.309-.426-.467-1.027-.474-1.802v-.542zm.865.493c0 .593.088 1.029.263 1.309.176.277.463.415.86.415.429 0 .75-.216.962-.65v-2.665c-.222-.424-.541-.635-.957-.635-.397 0-.684.14-.86.42-.176.276-.265.703-.268 1.279v.527zM575.384 15c-.052-.114-.09-.306-.113-.576-.306.449-.696.674-1.171.674-.479 0-.853-.134-1.123-.4-.267-.27-.401-.65-.401-1.138 0-.537.182-.964.547-1.28.365-.316.864-.477 1.499-.483h.635v-.562c0-.315-.07-.54-.21-.673-.14-.134-.353-.2-.64-.2-.26 0-.472.078-.635.234a.771.771 0 00-.244.586h-.864c0-.27.08-.528.239-.772.16-.247.375-.44.645-.58.27-.14.571-.21.903-.21.541 0 .951.134 1.231.404.283.267.428.658.434 1.172v2.666c.003.407.059.76.166 1.06V15h-.898zm-1.153-.688c.212 0 .414-.06.606-.176.192-.117.332-.264.42-.44v-1.26h-.488c-.411.007-.734.1-.972.279-.238.176-.357.423-.357.742 0 .3.061.518.181.654.121.134.324.2.61.2zm5.796-.664a.638.638 0 00-.21-.48c-.14-.132-.41-.289-.81-.468-.466-.192-.794-.356-.986-.493a1.415 1.415 0 01-.425-.464 1.296 1.296 0 01-.142-.625c0-.43.156-.786.469-1.07.316-.286.718-.429 1.206-.429.514 0 .928.15 1.24.45.313.299.469.683.469 1.152h-.859a.84.84 0 00-.24-.606.801.801 0 00-.61-.254c-.254 0-.454.067-.601.2a.678.678 0 00-.215.528c0 .176.053.317.157.425.107.107.363.249.766.425.642.25 1.078.496 1.309.737.231.237.347.54.347.908 0 .459-.158.827-.474 1.104-.316.273-.739.41-1.27.41-.55 0-.996-.158-1.337-.474a1.564 1.564 0 01-.513-1.201h.869c.01.293.099.522.269.688.169.166.406.25.712.25.287 0 .505-.064.655-.191a.66.66 0 00.224-.522zm5.152-3.39c.328-.426.748-.639 1.259-.639.935 0 1.408.623 1.421 1.87V15H587v-3.472c0-.413-.07-.706-.21-.879-.137-.175-.343-.263-.62-.263a.885.885 0 00-.581.215c-.169.143-.306.33-.41.561V15h-.865V7.5h.865v2.759zm3.789 1.856c0-.768.185-1.375.556-1.821.375-.45.868-.674 1.48-.674s1.103.218 1.475.654c.374.437.566 1.03.576 1.783v.556c0 .765-.186 1.37-.557 1.817-.371.446-.866.669-1.484.669-.612 0-1.104-.217-1.475-.65-.368-.433-.558-1.019-.571-1.758v-.576zm.864.498c0 .544.106.972.317 1.284.215.31.503.464.865.464.761 0 1.154-.55 1.176-1.65v-.596c0-.54-.107-.966-.322-1.279-.215-.316-.503-.474-.864-.474-.355 0-.64.158-.855.474-.211.313-.317.737-.317 1.274v.503zm5.2-2.353c.329-.427.749-.64 1.26-.64.934 0 1.408.623 1.421 1.87V15h-.859v-3.472c0-.413-.07-.706-.21-.879-.137-.175-.344-.263-.621-.263a.889.889 0 00-.581.215c-.169.143-.306.33-.41.561V15h-.864V7.5h.864v2.759zm5.86 4.839c-.658 0-1.163-.196-1.514-.586-.352-.394-.531-.97-.537-1.729v-.64c0-.787.171-1.404.513-1.85.345-.45.825-.674 1.44-.674.618 0 1.081.197 1.387.591.306.394.462 1.007.468 1.84v.567H599.7v.122c0 .567.106.978.318 1.236.214.257.522.385.922.385.254 0 .477-.047.669-.141a1.68 1.68 0 00.547-.46l.449.548c-.374.527-.945.79-1.713.79zm-.098-4.737c-.358 0-.623.124-.796.371-.172.245-.27.625-.293 1.143h2.08v-.117c-.023-.501-.114-.86-.273-1.074-.157-.215-.396-.323-.718-.323zm7.461 1.763h-1.25V15h-.899V7.89h1.993c.696 0 1.224.183 1.582.548.358.36.537.891.537 1.591 0 .44-.098.824-.293 1.153a1.825 1.825 0 01-.821.737l1.377 3.022V15h-.961l-1.265-2.876zm-1.25-.767h1.084c.374 0 .672-.12.893-.36.225-.242.337-.564.337-.968 0-.911-.413-1.367-1.24-1.367h-1.074v2.695zM612.229 15h-.864V9.717h.864V15zm.069-6.685a.555.555 0 01-.122.367c-.082.097-.205.146-.371.146-.163 0-.285-.049-.367-.146a.555.555 0 01-.122-.367c0-.146.041-.27.122-.37.082-.102.204-.152.367-.152.162 0 .285.052.366.156a.55.55 0 01.127.366zm3.862 5.333a.638.638 0 00-.21-.48c-.14-.132-.41-.289-.81-.468-.466-.192-.795-.356-.987-.493a1.422 1.422 0 01-.424-.464 1.296 1.296 0 01-.142-.625c0-.43.156-.786.469-1.07.315-.286.717-.429 1.206-.429.514 0 .927.15 1.24.45.312.299.469.683.469 1.152h-.86a.84.84 0 00-.239-.606.801.801 0 00-.61-.254c-.254 0-.454.067-.601.2a.678.678 0 00-.215.528c0 .176.052.317.157.425.107.107.362.249.766.425.641.25 1.078.496 1.309.737.231.237.346.54.346.908 0 .459-.157.827-.473 1.104-.316.273-.739.41-1.27.41-.55 0-.996-.158-1.338-.474a1.566 1.566 0 01-.512-1.201h.869c.01.293.099.522.268.688.17.166.407.25.713.25.287 0 .505-.064.655-.191a.66.66 0 00.224-.522zM619.085 15h-.864V9.717h.864V15zm.068-6.685a.55.55 0 01-.122.367c-.081.097-.205.146-.371.146-.163 0-.285-.049-.366-.146a.555.555 0 01-.122-.367c0-.146.041-.27.122-.37.081-.102.203-.152.366-.152.163 0 .285.052.366.156a.55.55 0 01.127.366zm2.622 4.268l-.459.527V15h-.864V7.5h.864v4.487l1.646-2.27h1.035l-1.68 2.207 1.9 3.076h-1.006l-1.436-2.417zm3.003-.469c0-.768.186-1.375.557-1.821.374-.45.867-.674 1.479-.674.612 0 1.104.218 1.475.654.374.437.566 1.03.576 1.783v.556c0 .765-.185 1.37-.556 1.817-.371.446-.866.669-1.485.669-.612 0-1.103-.217-1.474-.65-.368-.433-.559-1.019-.572-1.758v-.576zm.865.498c0 .544.105.972.317 1.284.215.31.503.464.864.464.762 0 1.154-.55 1.177-1.65v-.596c0-.54-.107-.966-.322-1.279-.215-.316-.503-.474-.865-.474-.354 0-.639.158-.854.474-.212.313-.317.737-.317 1.274v.503zm8.52 2.486c-.657 0-1.162-.196-1.514-.586-.351-.394-.53-.97-.537-1.729v-.64c0-.787.171-1.404.513-1.85.345-.45.825-.674 1.44-.674.619 0 1.081.197 1.387.591.306.394.462 1.007.469 1.84v.567h-2.949v.122c0 .567.105.978.317 1.236.215.257.523.385.923.385.254 0 .477-.047.669-.141a1.7 1.7 0 00.547-.46l.449.548c-.374.527-.946.79-1.714.79zm-.098-4.737c-.358 0-.623.124-.795.371-.173.245-.271.625-.293 1.143h2.08v-.117c-.023-.501-.114-.86-.274-1.074-.156-.215-.395-.323-.718-.323zM637.894 15h-.865V9.717h.865V15zm.068-6.685a.555.555 0 01-.122.367c-.082.097-.205.146-.371.146-.163 0-.285-.049-.366-.146a.55.55 0 01-.123-.367.57.57 0 01.123-.37c.081-.102.203-.152.366-.152.163 0 .285.052.366.156a.55.55 0 01.127.366zm2.109 1.402l.025.571c.335-.446.763-.669 1.284-.669.934 0 1.408.623 1.421 1.87V15h-.86v-3.472c0-.413-.07-.706-.21-.879-.136-.175-.343-.263-.62-.263a.887.887 0 00-.581.215c-.169.143-.306.33-.41.561V15h-.864V9.717h.815zm4.829 4.546h2.549V15h-3.535v-.664l2.422-3.872h-2.402v-.747h3.418v.64l-2.452 3.906zm6.289.273c-.286.375-.704.562-1.254.562-.479 0-.84-.165-1.084-.494-.245-.331-.368-.813-.372-1.445V9.717h.86v3.379c0 .823.247 1.235.742 1.235.524 0 .885-.234 1.084-.703V9.717h.864V15h-.82l-.02-.464zm1.968-2.417c0-.823.15-1.445.449-1.865.3-.423.738-.635 1.314-.635.537 0 .946.23 1.226.689l.043-.591h.782v5.332c0 .654-.168 1.155-.503 1.504-.336.351-.803.527-1.402.527-.26 0-.553-.065-.878-.195-.323-.127-.565-.285-.728-.474l.352-.596c.358.352.753.528 1.186.528.719 0 1.089-.393 1.108-1.177v-.689c-.28.414-.677.62-1.191.62-.547 0-.973-.204-1.279-.615-.306-.413-.466-1.005-.479-1.777v-.586zm.864.493c0 .593.087 1.029.259 1.309.176.277.463.415.86.415.429 0 .752-.22.966-.66v-2.64c-.224-.434-.543-.65-.957-.65-.397 0-.683.14-.859.42-.176.276-.265.703-.269 1.279v.527zm6.128 2.486c-.657 0-1.162-.196-1.513-.586-.352-.394-.531-.97-.537-1.729v-.64c0-.787.171-1.404.512-1.85.345-.45.826-.674 1.441-.674.618 0 1.08.197 1.386.591.306.394.463 1.007.469 1.84v.567h-2.949v.122c0 .567.106.978.317 1.236.215.257.523.385.923.385.254 0 .477-.047.669-.141a1.69 1.69 0 00.547-.46l.449.548c-.374.527-.945.79-1.714.79zm-.097-4.737c-.358 0-.624.124-.796.371-.173.245-.27.625-.293 1.143h2.08v-.117c-.023-.501-.114-.86-.273-1.074-.157-.215-.396-.323-.718-.323zm3.76-.102c.328-.427.748-.64 1.259-.64.935 0 1.408.623 1.421 1.87V15h-.859v-3.472c0-.413-.07-.706-.21-.879-.137-.175-.344-.263-.62-.263a.885.885 0 00-.581.215 1.55 1.55 0 00-.41.561V15h-.865V7.5h.865v2.759zm5.859 4.839c-.658 0-1.162-.196-1.514-.586-.351-.394-.53-.97-.537-1.729v-.64c0-.787.171-1.404.513-1.85.345-.45.825-.674 1.44-.674.619 0 1.081.197 1.387.591.306.394.462 1.007.469 1.84v.567h-2.95v.122c0 .567.106.978.318 1.236.215.257.522.385.923.385.254 0 .477-.047.669-.141a1.7 1.7 0 00.547-.46l.449.548c-.375.527-.946.79-1.714.79zm-.098-4.737c-.358 0-.623.124-.796.371-.172.245-.27.625-.293 1.143h2.08v-.117c-.022-.501-.113-.86-.273-1.074-.156-.215-.395-.323-.718-.323zm3.711-.644l.025.571c.335-.446.763-.669 1.284-.669.934 0 1.408.623 1.421 1.87V15h-.86v-3.472c0-.413-.07-.706-.21-.879-.136-.175-.343-.263-.62-.263a.887.887 0 00-.581.215c-.169.143-.306.33-.41.561V15h-.864V9.717h.815zm4.038 6.699l-.512-.352c.306-.426.465-.865.478-1.318v-.815h.884v.708c0 .328-.082.657-.244.986-.16.329-.362.592-.606.791zM682.625 15h-.894V7.89h.894V15zm2.31-4.741c.328-.427.748-.64 1.259-.64.935 0 1.408.623 1.421 1.87V15h-.859v-3.472c0-.413-.07-.706-.21-.879-.137-.175-.344-.263-.62-.263a.885.885 0 00-.581.215 1.55 1.55 0 00-.41.561V15h-.865V7.5h.865v2.759zm6.152.268a2.118 2.118 0 00-.391-.034c-.442 0-.752.243-.927.728V15h-.865V9.717h.84l.015.537c.231-.423.558-.635.981-.635a.76.76 0 01.342.069l.005.84zm7.729 3.59l-.156.194c-.449.525-1.107.787-1.972.787-.769 0-1.373-.254-1.812-.762-.436-.511-.659-1.232-.669-2.163v-1.397c0-.996.199-1.741.596-2.236.4-.498.997-.747 1.792-.747.677 0 1.206.189 1.587.566.384.378.595.917.634 1.617h-.893c-.036-.443-.16-.788-.371-1.036-.209-.25-.526-.376-.952-.376-.511 0-.886.168-1.123.503-.238.332-.362.865-.372 1.597v1.45c0 .716.137 1.266.411 1.65.273.382.665.572 1.176.572.482 0 .848-.117 1.099-.352l.132-.122v-1.64h-1.299v-.762h2.192v2.656zm3.228.98c-.658 0-1.162-.195-1.514-.585-.351-.394-.53-.97-.537-1.729v-.64c0-.787.171-1.404.513-1.85.345-.45.825-.674 1.44-.674.619 0 1.081.197 1.387.591.306.394.462 1.007.469 1.84v.567h-2.949v.122c0 .567.105.978.317 1.236.215.257.522.385.923.385.254 0 .477-.047.669-.141a1.7 1.7 0 00.547-.46l.449.548c-.375.527-.946.79-1.714.79zm-.098-4.736c-.358 0-.623.124-.796.371-.172.245-.27.625-.293 1.143h2.081v-.117c-.023-.501-.114-.86-.274-1.074-.156-.215-.395-.323-.718-.323zM705.774 15h-.864V7.5h.864V15zm1.182-2.88c0-.815.151-1.435.454-1.861.306-.427.744-.64 1.314-.64.504 0 .898.205 1.181.615V7.5h.865V15h-.791l-.044-.566c-.284.442-.689.664-1.216.664-.547 0-.977-.212-1.289-.635-.31-.426-.467-1.027-.474-1.802v-.542zm.864.492c0 .593.088 1.029.264 1.309.176.277.462.415.859.415.43 0 .751-.216.962-.65v-2.665c-.221-.424-.54-.635-.957-.635-.397 0-.683.14-.859.42-.176.276-.265.703-.269 1.279v.527zm7.373 1.65h2.549V15h-3.535v-.664l2.422-3.872h-2.402v-.747h3.418v.64l-2.452 3.906zm6.289.274c-.286.375-.704.562-1.254.562-.479 0-.84-.165-1.084-.494-.245-.331-.368-.813-.372-1.445V9.717h.86v3.379c0 .823.247 1.235.742 1.235.524 0 .885-.234 1.084-.703V9.717h.864V15h-.82l-.02-.464zm5.933-.85l1.001-3.97h.879L727.728 15h-.645l-1.587-5.283h.879l1.04 3.97zm4.668 1.412c-.658 0-1.162-.196-1.514-.586-.351-.394-.53-.97-.537-1.729v-.64c0-.787.171-1.404.513-1.85.345-.45.825-.674 1.44-.674.619 0 1.081.197 1.387.591.306.394.462 1.007.469 1.84v.567h-2.949v.122c0 .567.105.978.317 1.236.215.257.522.385.923.385.254 0 .477-.047.669-.141a1.7 1.7 0 00.547-.46l.449.548c-.374.527-.946.79-1.714.79zm-.098-4.737c-.358 0-.623.124-.796.371-.172.245-.27.625-.293 1.143h2.081v-.117c-.023-.501-.114-.86-.274-1.074-.156-.215-.395-.323-.718-.323zm5.078.166a2.1 2.1 0 00-.39-.034c-.443 0-.752.243-.928.728V15h-.864V9.717h.84l.014.537c.231-.423.559-.635.982-.635.137 0 .25.023.342.069l.004.84zM738.86 15h-.864V7.5h.864V15zm2.295 0h-.864V9.717h.864V15zm.069-6.685a.555.555 0 01-.122.367c-.082.097-.206.146-.372.146-.162 0-.284-.049-.366-.146a.555.555 0 01-.122-.367c0-.146.041-.27.122-.37.082-.102.204-.152.366-.152.163 0 .285.052.367.156.084.101.127.223.127.366zm3.183 6.783c-.657 0-1.162-.196-1.513-.586-.352-.394-.531-.97-.538-1.729v-.64c0-.787.171-1.404.513-1.85.345-.45.825-.674 1.441-.674.618 0 1.08.197 1.386.591.306.394.463 1.007.469 1.84v.567h-2.949v.122c0 .567.106.978.317 1.236.215.257.523.385.923.385.254 0 .477-.047.669-.141a1.69 1.69 0 00.547-.46l.449.548c-.374.527-.946.79-1.714.79zm-.097-4.737c-.359 0-.624.124-.796.371-.173.245-.271.625-.293 1.143h2.08v-.117c-.023-.501-.114-.86-.274-1.074-.156-.215-.395-.323-.717-.323zm5.078.166a2.118 2.118 0 00-.391-.034c-.443 0-.752.243-.928.728V15h-.864V9.717h.84l.015.537c.231-.423.558-.635.981-.635a.76.76 0 01.342.069l.005.84zm2.754 4.57c-.658 0-1.163-.195-1.514-.585-.352-.394-.531-.97-.537-1.729v-.64c0-.787.171-1.404.513-1.85.345-.45.825-.674 1.44-.674.618 0 1.081.197 1.387.591.306.394.462 1.007.468 1.84v.567h-2.949v.122c0 .567.106.978.318 1.236.214.257.522.385.922.385.254 0 .477-.047.669-.141a1.68 1.68 0 00.547-.46l.449.548c-.374.527-.945.79-1.713.79zm-.098-4.736c-.358 0-.623.124-.796.371-.172.245-.27.625-.293 1.143h2.08v-.117c-.023-.501-.114-.86-.273-1.074-.157-.215-.396-.323-.718-.323zm3.711-.644l.024.571c.336-.446.764-.669 1.284-.669.935 0 1.408.623 1.421 1.87V15h-.859v-3.472c0-.413-.07-.706-.21-.879-.137-.175-.343-.263-.62-.263a.885.885 0 00-.581.215c-.169.143-.306.33-.41.561V15h-.865V9.717h.816zm4.087 4.81c0-.157.045-.287.137-.391.094-.104.234-.156.419-.156.186 0 .326.052.42.156a.548.548 0 01.147.39c0 .15-.049.275-.147.376-.094.101-.234.152-.42.152-.185 0-.325-.05-.419-.152a.536.536 0 01-.137-.376z" fill="#000"/></svg>