<svg width="488" height="29" viewBox="0 0 488 29" fill="none" xmlns="http://www.w3.org/2000/svg"><path d="M10.934 2.904H.95V21h9.984v-2.418h-7.02v-5.538h6.24v-2.418h-6.24V5.322h7.02V2.904zM14.584 21h2.965V6.674h-2.964V21zm1.509-16.224c1.04 0 1.872-.832 1.872-1.898 0-1.066-.832-1.898-1.872-1.898a1.876 1.876 0 00-1.898 1.898c0 1.066.832 1.898 1.898 1.898zM31.606 21h2.938v-8.45c0-4.004-2.522-6.11-5.876-6.11-1.716 0-3.302.702-4.264 1.872V6.674H21.44V21h2.964v-8.008c0-2.626 1.43-3.978 3.614-3.978 2.158 0 3.588 1.352 3.588 3.978V21zm17.405-4.004c-.156-5.174-8.242-3.562-8.242-6.448 0-.962.832-1.612 2.418-1.612 1.612 0 2.574.858 2.678 2.106h2.964c-.156-2.86-2.288-4.602-5.538-4.602-3.38 0-5.512 1.846-5.512 4.134 0 5.252 8.32 3.64 8.32 6.448 0 .988-.91 1.716-2.626 1.716-1.638 0-2.756-.962-2.86-2.132h-3.068c.13 2.6 2.548 4.628 5.98 4.628 3.38 0 5.486-1.82 5.486-4.238zm3.67.026c0 2.912 1.587 3.978 4.135 3.978h2.34v-2.47h-1.82c-1.248 0-1.664-.442-1.664-1.508v-7.93h3.484V6.674h-3.484V3.112h-2.99v3.562h-1.69v2.418h1.69v7.93zM61.889 21h2.964V6.674h-2.965V21zm1.508-16.224c1.04 0 1.871-.832 1.871-1.898 0-1.066-.831-1.898-1.871-1.898a1.876 1.876 0 00-1.898 1.898c0 1.066.832 1.898 1.898 1.898zm11.379 4.16c2.21 0 3.952 1.404 4.004 3.614h-7.93c.312-2.262 1.924-3.614 3.926-3.614zm6.708 7.8h-3.198c-.546 1.118-1.56 2.002-3.38 2.002-2.184 0-3.874-1.43-4.082-3.796h10.946c.078-.494.104-.962.104-1.456 0-4.212-2.886-7.046-6.968-7.046-4.238 0-7.15 2.886-7.15 7.384s3.042 7.41 7.15 7.41c3.51 0 5.772-2.002 6.578-4.498zm2.319-2.964c0 4.42 2.99 7.462 6.76 7.462 2.34 0 4.056-1.17 4.966-2.392v2.392c0 2.86-1.716 4.264-4.004 4.264-2.054 0-3.64-1.014-4.082-2.496h-2.938c.364 3.172 3.198 5.07 7.02 5.07 4.472 0 6.994-2.938 6.994-6.838V6.674h-2.99v2.08c-.884-1.222-2.626-2.314-4.966-2.314-3.77 0-6.76 2.912-6.76 7.332zm11.726.052c0 3.094-2.106 4.836-4.342 4.836-2.21 0-4.342-1.794-4.342-4.888s2.132-4.758 4.342-4.758c2.236 0 4.342 1.742 4.342 4.81zM109.165 21h2.964V6.674h-2.964V21zm1.508-16.224c1.04 0 1.872-.832 1.872-1.898 0-1.066-.832-1.898-1.872-1.898a1.876 1.876 0 00-1.898 1.898c0 1.066.832 1.898 1.898 1.898zM126.186 21h2.938v-8.45c0-4.004-2.522-6.11-5.876-6.11-1.716 0-3.302.702-4.264 1.872V6.674h-2.964V21h2.964v-8.008c0-2.626 1.43-3.978 3.614-3.978 2.158 0 3.588 1.352 3.588 3.978V21zm12.537-15.652h4.836V21h2.964V5.348h4.81V2.93h-12.61v2.418zm21.644 3.588c2.21 0 3.952 1.404 4.004 3.614h-7.93c.312-2.262 1.924-3.614 3.926-3.614zm6.708 7.8h-3.198c-.546 1.118-1.56 2.002-3.38 2.002-2.184 0-3.874-1.43-4.082-3.796h10.946c.078-.494.104-.962.104-1.456 0-4.212-2.886-7.046-6.968-7.046-4.238 0-7.15 2.886-7.15 7.384s3.042 7.41 7.15 7.41c3.51 0 5.772-2.002 6.578-4.498zm2.319-2.912c0 4.498 2.912 7.41 7.02 7.41 3.51 0 5.798-1.95 6.604-4.758h-3.198c-.546 1.482-1.638 2.262-3.406 2.262-2.392 0-3.978-1.768-3.978-4.914 0-3.12 1.586-4.888 3.978-4.888 1.768 0 2.912.884 3.406 2.262h3.198c-.806-3.016-3.094-4.758-6.604-4.758-4.108 0-7.02 2.912-7.02 7.384zM185.971 21h2.964v-8.008c0-2.626 1.43-3.978 3.614-3.978 2.158 0 3.588 1.352 3.588 3.978V21h2.938v-8.45c0-4.004-2.496-6.11-5.694-6.11-1.846 0-3.458.702-4.446 1.898V1.76h-2.964V21zm27.051 0h2.938v-8.45c0-4.004-2.522-6.11-5.876-6.11-1.716 0-3.302.702-4.264 1.872V6.674h-2.964V21h2.964v-8.008c0-2.626 1.43-3.978 3.614-3.978 2.158 0 3.588 1.352 3.588 3.978V21zm20.369-7.176c0-4.498-3.224-7.384-7.306-7.384s-7.306 2.886-7.306 7.384 3.094 7.41 7.176 7.41c4.108 0 7.436-2.912 7.436-7.41zm-11.596 0c0-3.25 2.002-4.81 4.238-4.81 2.21 0 4.316 1.56 4.316 4.81 0 3.25-2.184 4.836-4.394 4.836-2.236 0-4.16-1.586-4.16-4.836zM236.321 21h2.964V1.76h-2.964V21zm20.506-7.176c0-4.498-3.224-7.384-7.306-7.384s-7.306 2.886-7.306 7.384 3.094 7.41 7.176 7.41c4.108 0 7.436-2.912 7.436-7.41zm-11.596 0c0-3.25 2.002-4.81 4.238-4.81 2.21 0 4.316 1.56 4.316 4.81 0 3.25-2.184 4.836-4.394 4.836-2.236 0-4.16-1.586-4.16-4.836zm13.538-.052c0 4.42 2.99 7.462 6.76 7.462 2.34 0 4.056-1.17 4.966-2.392v2.392c0 2.86-1.716 4.264-4.004 4.264-2.054 0-3.64-1.014-4.082-2.496h-2.938c.364 3.172 3.198 5.07 7.02 5.07 4.472 0 6.994-2.938 6.994-6.838V6.674h-2.99v2.08c-.884-1.222-2.626-2.314-4.966-2.314-3.77 0-6.76 2.912-6.76 7.332zm11.726.052c0 3.094-2.106 4.836-4.342 4.836-2.21 0-4.342-1.794-4.342-4.888s2.132-4.758 4.342-4.758c2.236 0 4.342 1.742 4.342 4.81zM277.378 21h2.964V6.674h-2.964V21zm1.508-16.224c1.04 0 1.872-.832 1.872-1.898 0-1.066-.832-1.898-1.872-1.898a1.876 1.876 0 00-1.898 1.898c0 1.066.832 1.898 1.898 1.898zm11.379 4.16c2.21 0 3.952 1.404 4.004 3.614h-7.93c.312-2.262 1.924-3.614 3.926-3.614zm6.708 7.8h-3.198c-.546 1.118-1.56 2.002-3.38 2.002-2.184 0-3.874-1.43-4.082-3.796h10.946c.078-.494.104-.962.104-1.456 0-4.212-2.886-7.046-6.968-7.046-4.238 0-7.15 2.886-7.15 7.384s3.042 7.41 7.15 7.41c3.51 0 5.772-2.002 6.578-4.498zM303.062 21h3.12l2.886-10.582L311.954 21h3.12l4.446-14.326h-2.912l-2.964 11.466-2.912-11.466h-3.094l-3.042 11.518-2.99-11.518h-3.016L303.062 21zm24.705-12.064c2.21 0 3.952 1.404 4.004 3.614h-7.93c.312-2.262 1.924-3.614 3.926-3.614zm6.708 7.8h-3.198c-.546 1.118-1.56 2.002-3.38 2.002-2.184 0-3.874-1.43-4.082-3.796h10.946c.078-.494.104-.962.104-1.456 0-4.212-2.886-7.046-6.968-7.046-4.238 0-7.15 2.886-7.15 7.384s3.042 7.41 7.15 7.41c3.51 0 5.772-2.002 6.578-4.498zm6.271-3.276c0-3.042 1.352-3.952 3.536-3.952h.754V6.44c-2.028 0-3.458.884-4.29 2.314v-2.08h-2.964V21h2.964v-7.54zm7.483 3.562c0 2.912 1.586 3.978 4.134 3.978h2.34v-2.47h-1.82c-1.248 0-1.664-.442-1.664-1.508v-7.93h3.484V6.674h-3.484V3.112h-2.99v3.562h-1.69v2.418h1.69v7.93zm15.237-8.086c2.21 0 3.952 1.404 4.004 3.614h-7.93c.312-2.262 1.924-3.614 3.926-3.614zm6.708 7.8h-3.198c-.546 1.118-1.56 2.002-3.38 2.002-2.184 0-3.874-1.43-4.082-3.796h10.946c.078-.494.104-.962.104-1.456 0-4.212-2.886-7.046-6.968-7.046-4.238 0-7.15 2.886-7.15 7.384s3.042 7.41 7.15 7.41c3.51 0 5.772-2.002 6.578-4.498zm9.073-2.964c0 4.42 2.99 7.462 6.708 7.462 2.392 0 4.108-1.144 5.018-2.366V21h2.99V6.674h-2.99v2.08c-.884-1.17-2.548-2.314-4.966-2.314-3.77 0-6.76 2.912-6.76 7.332zm11.726.052c0 3.094-2.106 4.836-4.342 4.836-2.21 0-4.342-1.794-4.342-4.888s2.132-4.758 4.342-4.758c2.236 0 4.342 1.742 4.342 4.81zm9.847-5.018V1.76h-2.964V21h2.964v-2.08c.936 1.248 2.626 2.314 4.992 2.314 3.77 0 6.734-3.042 6.734-7.462s-2.938-7.332-6.734-7.332c-2.262 0-4.056 1.066-4.992 2.366zm8.71 4.966c0 3.094-2.132 4.888-4.368 4.888-2.21 0-4.342-1.742-4.342-4.836 0-3.068 2.132-4.81 4.342-4.81 2.236 0 4.368 1.664 4.368 4.758zm12.259-7.046h2.886c.182-1.326 1.144-2.574 3.224-2.574 2.028 0 3.094 1.092 3.094 2.73 0 2.028-1.638 2.808-4.316 2.834h-.702v2.444h.676c3.094 0 4.706.858 4.706 3.354 0 1.768-1.092 3.12-3.302 3.12-2.236 0-3.536-1.352-3.666-3.12h-2.86c.182 3.718 2.964 5.59 6.552 5.59 3.952 0 6.084-2.288 6.084-5.304 0-2.626-1.274-4.264-3.25-4.862v-.104c1.482-.494 2.912-2.028 2.912-4.29 0-2.756-2.054-4.94-5.824-4.94-3.458 0-6.006 1.846-6.214 5.122zm25.598 4.524V5.348h3.276c2.314 0 3.354 1.092 3.354 2.964 0 1.82-1.04 2.938-3.354 2.938h-3.276zm9.672-2.938c0-2.938-2.106-5.382-6.396-5.382h-6.24V21h2.964v-7.332h3.276c4.706 0 6.396-2.782 6.396-5.356zM459.886 21h2.964v-6.162L468.154 21h4.004l-6.604-7.15 6.604-7.176h-4.108l-5.2 6.266V1.76h-2.964V21zm14.864-3.978c0 2.912 1.586 3.978 4.134 3.978h2.34v-2.47h-1.82c-1.248 0-1.664-.442-1.664-1.508v-7.93h3.484V6.674h-3.484V3.112h-2.99v3.562h-1.69v2.418h1.69v7.93zm12.274 2.262c0-1.066-.832-1.898-1.872-1.898a1.876 1.876 0 00-1.898 1.898c0 1.066.832 1.898 1.898 1.898 1.04 0 1.872-.832 1.872-1.898z" fill="#fff"/></svg>