<svg width="256" height="39" viewBox="0 0 256 39" fill="none" xmlns="http://www.w3.org/2000/svg"><path d="M30.141 10.365V1.622H.497v36.214h29.955v-8.743H10.223V23.66h18.522v-8.278H10.224v-5.018H30.14zM69.23 1.622h-9.777v19.607c0 5.794-2.639 8.226-6.881 8.226-4.19 0-6.83-2.431-6.88-8.226V1.673h-9.727V21.23c0 11.848 6.415 17.124 16.607 17.124S69.23 33.078 69.23 21.23V1.622zm7.102.051v36.163h9.726v-11.02h5.795l7.036 11.02h11.226l-8.122-12.313c5.018-1.707 7.139-5.38 7.139-11.278 0-8.847-4.708-12.572-16.503-12.572H76.33zm9.726 8.744h7.036c4.294 0 5.898 1.345 5.898 4.449 0 3.156-1.604 4.45-5.898 4.45h-7.036v-8.9zm34.51 28.299L138.674.742l-8.071.052-18.107 37.922h8.071zm56.174-37.094h-9.778v19.607c0 5.794-2.639 8.226-6.881 8.226-4.19 0-6.829-2.431-6.881-8.226V1.673h-9.726V21.23c0 11.848 6.415 17.124 16.607 17.124s16.659-5.276 16.659-17.124V1.622zm21.846-.518c-8.433.052-15.055 3.725-15.055 11.848 0 7.087 5.898 9.001 14.124 10.967 5.949 1.5 6.984 1.708 6.984 3.777 0 1.656-1.759 2.38-3.777 2.38-4.604 0-9.829-1.345-14.537-3.984l-4.346 7.243c4.967 3.311 11.071 5.07 17.797 5.07 9.312 0 15.158-4.242 15.158-11.95 0-7.399-6.053-9.468-14.537-11.744-5.639-1.397-6.312-1.863-6.312-3.001 0-1.655 1.604-2.38 3.466-2.38 3.57 0 8.433 1.242 12.572 3.363l4.087-7.502c-4.242-2.586-9.83-4.087-15.624-4.087zm21.935.57v36.162h15.52c10.709 0 19.401-7.812 19.401-18.055 0-10.296-8.692-18.16-19.401-18.16l-15.52.052zm9.726 8.69h5.432c5.38 0 9.778 4.036 9.778 9.365 0 5.38-4.398 9.416-9.778 9.416h-5.432v-18.78z" fill="#09B45B"/></svg>