<svg width="127" height="20" viewBox="0 0 127 20" fill="none" xmlns="http://www.w3.org/2000/svg"><path d="M17.497 1.175h-4.913v9.854c0 2.912-1.326 4.134-3.458 4.134-2.106 0-3.432-1.222-3.458-4.134V1.2H.78v9.828c0 5.954 3.224 8.606 8.346 8.606s8.371-2.652 8.371-8.606V1.175zm10.98-.26C24.239.94 20.91 2.787 20.91 6.869c0 3.562 2.964 4.524 7.098 5.512 2.99.754 3.51.858 3.51 1.898 0 .832-.884 1.196-1.898 1.196-2.314 0-4.94-.676-7.306-2.002l-2.184 3.64c2.496 1.664 5.564 2.548 8.944 2.548 4.68 0 7.618-2.132 7.618-6.006 0-3.718-3.042-4.758-7.306-5.902-2.834-.702-3.172-.936-3.172-1.508 0-.832.806-1.196 1.742-1.196 1.794 0 4.238.624 6.318 1.69l2.054-3.77c-2.132-1.3-4.94-2.054-7.852-2.054zM39.5 1.2v18.174h7.8c5.382 0 9.75-3.926 9.75-9.074 0-5.174-4.368-9.126-9.75-9.126l-7.8.026zm4.888 4.368h2.73c2.704 0 4.914 2.028 4.914 4.706 0 2.704-2.21 4.732-4.914 4.732h-2.73V5.569zm18.664 14.248l9.1-19.084-4.056.026-9.1 19.058h4.056zM86.915 1.175h-4.888v10.894c0 2.21-1.014 3.094-2.574 3.094-.962 0-1.716-.338-2.236-1.092l-3.926 2.548c1.222 2.262 3.458 3.016 6.422 3.016 4.42 0 7.202-1.716 7.202-7.566V1.175zm3.722.026v18.174h4.888V14.2h3.12c5.408 0 7.982-2.002 7.982-6.448 0-4.446-2.444-6.552-8.034-6.552h-7.956zm4.888 4.212h2.886c2.184 0 3.12.806 3.12 2.522 0 1.742-.962 2.496-3.12 2.496h-2.886V5.413zm23.83 7.722l7.254-11.96h-5.798l-3.874 6.786-3.848-6.786h-5.85l7.228 12.012v6.188h4.888v-6.24z" fill="#09B45B"/></svg>