<svg width="136" height="43" viewBox="0 0 136 43" fill="none" xmlns="http://www.w3.org/2000/svg"><path d="M2.16 10.01L3.44 10l1.55-5.26L6.45 10h1.29L9.8 3.05H8.58L7.13 8.68 5.68 3.05H4.4L2.84 8.71 1.4 3.05H.19l1.97 6.96zm8.58-.01h1.14V6.92c0-1.01.55-1.53 1.39-1.53.83 0 1.38.52 1.38 1.53V10h1.13V6.75c0-1.54-.96-2.35-2.19-2.35-.71 0-1.33.27-1.71.73V2.6h-1.14V10zm6.494 0h1.14V4.49h-1.14V10zm.58-6.24c.4 0 .72-.32.72-.73a.72.72 0 00-.72-.73c-.41 0-.73.32-.73.73s.32.73.73.73zm1.677 3.48c0 1.73 1.12 2.85 2.7 2.85 1.35 0 2.23-.75 2.54-1.83h-1.23c-.21.57-.63.87-1.31.87-.92 0-1.53-.68-1.53-1.89 0-1.2.61-1.88 1.53-1.88.68 0 1.12.34 1.31.87h1.23c-.31-1.16-1.19-1.83-2.54-1.83-1.58 0-2.7 1.12-2.7 2.84zM25.867 10h1.14V6.92c0-1.01.55-1.53 1.39-1.53.83 0 1.38.52 1.38 1.53V10h1.13V6.75c0-1.54-.96-2.35-2.19-2.35-.71 0-1.33.27-1.71.73V2.6h-1.14V10zM39.07 8.46c-.06-1.99-3.17-1.37-3.17-2.48 0-.37.32-.62.93-.62.62 0 .99.33 1.03.81h1.14c-.06-1.1-.88-1.77-2.13-1.77-1.3 0-2.12.71-2.12 1.59 0 2.02 3.2 1.4 3.2 2.48 0 .38-.35.66-1.01.66-.63 0-1.06-.37-1.1-.82h-1.18c.05 1 .98 1.78 2.3 1.78 1.3 0 2.11-.7 2.11-1.63zM40.301 10h1.14V4.49H40.3V10zm.58-6.24c.4 0 .72-.32.72-.73a.72.72 0 00-.72-.73c-.41 0-.73.32-.73.73s.32.73.73.73zm1.676 3.46c0 1.7 1.15 2.87 2.6 2.87.9 0 1.56-.42 1.91-.92V10h1.15V2.6h-1.15v2.66c-.42-.52-1.18-.86-1.9-.86-1.46 0-2.61 1.12-2.61 2.82zm4.51.02c0 1.19-.81 1.86-1.67 1.86-.85 0-1.67-.69-1.67-1.88s.82-1.83 1.67-1.83c.86 0 1.67.67 1.67 1.85zm4.968-1.88c.85 0 1.52.54 1.54 1.39h-3.05c.12-.87.74-1.39 1.51-1.39zm2.58 3h-1.23c-.21.43-.6.77-1.3.77-.84 0-1.49-.55-1.57-1.46h4.21c.03-.19.04-.37.04-.56 0-1.62-1.11-2.71-2.68-2.71-1.63 0-2.75 1.11-2.75 2.84 0 1.73 1.17 2.85 2.75 2.85 1.35 0 2.22-.77 2.53-1.73zm9.12-1.12c0-1.73-1.24-2.84-2.81-2.84s-2.81 1.11-2.81 2.84c0 1.73 1.19 2.85 2.76 2.85 1.58 0 2.86-1.12 2.86-2.85zm-4.46 0c0-1.25.77-1.85 1.63-1.85.85 0 1.66.6 1.66 1.85s-.84 1.86-1.69 1.86c-.86 0-1.6-.61-1.6-1.86zM65 10h1.15V5.42h1.02v-.93h-1.02V4.1c0-.63.24-.87.94-.87v-.95c-1.44 0-2.09.55-2.09 1.82v.39h-.65v.93h.65V10zm7.188.01l1.28-.01 1.55-5.26L76.48 10h1.29l2.06-6.95h-1.22l-1.45 5.63-1.45-5.63h-1.28l-1.56 5.66-1.44-5.66h-1.21l1.97 6.96zm8.2-2.79c0 1.7 1.15 2.87 2.58 2.87.92 0 1.58-.44 1.93-.91V10h1.15V4.49H84.9v.8c-.34-.45-.98-.89-1.91-.89-1.45 0-2.6 1.12-2.6 2.82zm4.51.02c0 1.19-.81 1.86-1.67 1.86-.85 0-1.67-.69-1.67-1.88s.82-1.83 1.67-1.83c.86 0 1.67.67 1.67 1.85zM87.547 10h1.14V2.6h-1.14V10zm2.637 0h1.14V2.6h-1.14V10zm9.924-1.97c0-2.54-3.68-1.56-3.68-3.13 0-.67.51-.99 1.17-.97.72.02 1.13.45 1.17.92h1.26c-.1-1.19-1.04-1.89-2.37-1.89-1.42 0-2.39.76-2.39 1.98 0 2.56 3.69 1.47 3.69 3.15 0 .59-.45 1.02-1.25 1.02-.79 0-1.19-.46-1.24-1.03h-1.22c0 1.23 1.07 1.99 2.46 1.99 1.55 0 2.4-1 2.4-2.04zm1.525.44c0 1.12.61 1.53 1.59 1.53h.9v-.95h-.7c-.48 0-.64-.17-.64-.58V5.42h1.34v-.93h-1.34V3.12h-1.15v1.37h-.65v.93h.65v3.05zm4.681-1.37c0-1.17.52-1.52 1.36-1.52h.29V4.4c-.78 0-1.33.34-1.65.89v-.8h-1.14V10h1.14V7.1zm5.018-1.74c.85 0 1.52.54 1.54 1.39h-3.05c.12-.87.74-1.39 1.51-1.39zm2.58 3h-1.23c-.21.43-.6.77-1.3.77-.84 0-1.49-.55-1.57-1.46h4.21c.03-.19.04-.37.04-.56 0-1.62-1.11-2.71-2.68-2.71-1.63 0-2.75 1.11-2.75 2.84 0 1.73 1.17 2.85 2.75 2.85 1.35 0 2.22-.77 2.53-1.73zm3.592-3c.85 0 1.52.54 1.54 1.39h-3.05c.12-.87.74-1.39 1.51-1.39zm2.58 3h-1.23c-.21.43-.6.77-1.3.77-.84 0-1.49-.55-1.57-1.46h4.21c.03-.19.04-.37.04-.56 0-1.62-1.11-2.71-2.68-2.71-1.63 0-2.75 1.11-2.75 2.84 0 1.73 1.17 2.85 2.75 2.85 1.35 0 2.22-.77 2.53-1.73zm1.451.11c0 1.12.61 1.53 1.59 1.53h.9v-.95h-.7c-.48 0-.64-.17-.64-.58V5.42h1.34v-.93h-1.34V3.12h-1.15v1.37h-.65v.93h.65v3.05zM1.82 22h1.2l1.11-4.07L5.24 22h1.2l1.71-5.51H7.03L5.89 20.9l-1.12-4.41H3.58l-1.17 4.43-1.15-4.43H.1L1.82 22zm7.182 0h1.14v-5.51h-1.14V22zm.58-6.24c.4 0 .72-.32.72-.73a.72.72 0 00-.72-.73c-.41 0-.73.32-.73.73s.32.73.73.73zM11.639 22h1.14v-7.4h-1.14V22zm2.636 0h1.14v-7.4h-1.14V22zm7.405-1.31l-1.55-4.2h-1.27l2.17 5.42-1.12 2.68h1.18l3.38-8.1h-1.18l-1.61 4.2zm8.9-1.45c0-1.73-1.24-2.84-2.81-2.84s-2.81 1.11-2.81 2.84c0 1.73 1.19 2.85 2.76 2.85 1.58 0 2.86-1.12 2.86-2.85zm-4.46 0c0-1.25.77-1.85 1.63-1.85.85 0 1.66.6 1.66 1.85s-.84 1.86-1.69 1.86c-.86 0-1.6-.61-1.6-1.86zm10.577-2.75h-1.14v3.07c0 1.01-.55 1.53-1.39 1.53-.83 0-1.38-.52-1.38-1.53v-3.07h-1.13v3.24c0 1.54.98 2.35 2.27 2.35.65 0 1.27-.27 1.63-.74V22h1.14v-5.51zm4.282 3.98c0 1.12.61 1.53 1.59 1.53h.9v-.95h-.7c-.48 0-.64-.17-.64-.58v-3.05h1.34v-.93h-1.34v-1.37h-1.15v1.37h-.65v.93h.65v3.05zm3.16-1.25c0 1.7 1.15 2.87 2.58 2.87.92 0 1.58-.44 1.93-.91V22h1.15v-5.51h-1.15v.8c-.34-.45-.98-.89-1.91-.89-1.45 0-2.6 1.12-2.6 2.82zm4.51.02c0 1.19-.81 1.86-1.67 1.86-.85 0-1.67-.69-1.67-1.88s.82-1.83 1.67-1.83c.86 0 1.67.67 1.67 1.85zM51.298 22h1.14v-2.37l2.04 2.37h1.54l-2.54-2.75 2.54-2.76h-1.58l-2 2.41v-4.3h-1.14V22zm7.857-4.64c.85 0 1.52.54 1.54 1.39h-3.05c.12-.87.74-1.39 1.51-1.39zm2.58 3h-1.23c-.21.43-.6.77-1.3.77-.84 0-1.49-.55-1.57-1.46h4.21c.03-.19.04-.37.04-.56 0-1.62-1.11-2.71-2.68-2.71-1.63 0-2.75 1.11-2.75 2.84 0 1.73 1.17 2.85 2.75 2.85 1.35 0 2.22-.77 2.53-1.73zm.922-3.35h1.07c0-.7.45-1.1 1.16-1.1.72 0 1.15.43 1.15 1.13 0 1.05-.87 1.25-2 1.25h-.33l.05 1.57h.99l.04-.79c1.34 0 2.34-.62 2.34-2.03 0-1.3-.91-2.09-2.25-2.09-1.36 0-2.23.85-2.22 2.06zm2.3 4.33a.72.72 0 00-.72-.73c-.41 0-.73.32-.73.73s.32.73.73.73c.4 0 .72-.32.72-.73z" fill="#fff"/><rect y="26" width="68" height="17" rx="8.5" fill="#14964F"/><path d="M5.876 32.135V37h2.443v-.644H6.674v-4.221h-.798zm6.785 2.933c0-1.211-.868-1.988-1.967-1.988-1.1 0-1.967.777-1.967 1.988 0 1.211.833 1.995 1.932 1.995 1.106 0 2.002-.784 2.002-1.995zm-3.122 0c0-.875.539-1.295 1.14-1.295.596 0 1.163.42 1.163 1.295s-.588 1.302-1.183 1.302c-.602 0-1.12-.427-1.12-1.302zm3.645-.014c0 1.19.805 2.009 1.82 2.009.63 0 1.092-.315 1.337-.644v.644c0 .77-.462 1.148-1.078 1.148-.553 0-.98-.273-1.1-.672h-.79c.098.854.86 1.365 1.89 1.365 1.204 0 1.883-.791 1.883-1.841v-3.92h-.805v.56c-.238-.329-.707-.623-1.337-.623-1.015 0-1.82.784-1.82 1.974zm3.157.014c0 .833-.567 1.302-1.17 1.302-.594 0-1.168-.483-1.168-1.316 0-.833.574-1.281 1.169-1.281.602 0 1.169.469 1.169 1.295zM20.012 37h.798v-3.857h-.798V37zm.406-4.368c.28 0 .504-.224.504-.511a.503.503 0 00-.504-.511.505.505 0 00-.51.511c0 .287.223.511.51.511zM24.595 37h.791v-2.275c0-1.078-.679-1.645-1.582-1.645-.462 0-.889.189-1.148.504v-.441h-.798V37h.798v-2.156c0-.707.385-1.071.973-1.071.581 0 .966.364.966 1.071V37zm3.361-1.946c0 1.19.805 2.009 1.806 2.009.644 0 1.106-.308 1.351-.637V37h.805v-3.857h-.805v.56c-.238-.315-.686-.623-1.337-.623-1.015 0-1.82.784-1.82 1.974zm3.157.014c0 .833-.567 1.302-1.169 1.302-.595 0-1.169-.483-1.169-1.316 0-.833.574-1.281 1.17-1.281.601 0 1.168.469 1.168 1.295zM35.703 37h.791v-2.275c0-1.078-.679-1.645-1.582-1.645-.462 0-.889.189-1.148.504v-.441h-.798V37h.798v-2.156c0-.707.385-1.071.973-1.071.581 0 .966.364.966 1.071V37zm1.543-1.946c0 1.19.805 2.009 1.82 2.009.63 0 1.092-.294 1.337-.644V37h.805v-5.18h-.805v1.862c-.294-.364-.826-.602-1.33-.602-1.022 0-1.827.784-1.827 1.974zm3.157.014c0 .833-.567 1.302-1.169 1.302-.595 0-1.169-.483-1.169-1.316 0-.833.574-1.281 1.17-1.281.601 0 1.168.469 1.168 1.295zm3.798.861c0 .784.427 1.071 1.113 1.071h.63v-.665h-.49c-.336 0-.448-.119-.448-.406v-2.135h.938v-.651h-.938v-.959H44.2v.959h-.455v.651h.455v2.135zm3.276-.959c0-.819.364-1.064.952-1.064h.203v-.826c-.546 0-.93.238-1.155.623v-.56h-.798V37h.798v-2.03zm1.623.084c0 1.19.805 2.009 1.806 2.009.644 0 1.106-.308 1.35-.637V37h.806v-3.857h-.805v.56c-.238-.315-.686-.623-1.337-.623-1.015 0-1.82.784-1.82 1.974zm3.157.014c0 .833-.567 1.302-1.17 1.302-.594 0-1.168-.483-1.168-1.316 0-.833.574-1.281 1.169-1.281.602 0 1.169.469 1.169 1.295zm1.587-.014c0 1.19.805 2.009 1.82 2.009.63 0 1.092-.294 1.337-.644V37h.805v-5.18h-.805v1.862c-.294-.364-.826-.602-1.33-.602-1.022 0-1.827.784-1.827 1.974zm3.157.014c0 .833-.567 1.302-1.169 1.302-.595 0-1.169-.483-1.169-1.316 0-.833.574-1.281 1.169-1.281.602 0 1.169.469 1.169 1.295zm3.477-1.316c.595 0 1.064.378 1.078.973h-2.135c.084-.609.518-.973 1.057-.973zm1.806 2.1h-.86c-.148.301-.42.539-.91.539-.589 0-1.044-.385-1.1-1.022h2.947c.021-.133.028-.259.028-.392 0-1.134-.777-1.897-1.876-1.897-1.14 0-1.925.777-1.925 1.988 0 1.211.82 1.995 1.925 1.995.945 0 1.554-.539 1.771-1.211z" fill="#fff"/></svg>