<svg width="320" height="50" viewBox="0 0 320 50" fill="none" xmlns="http://www.w3.org/2000/svg"><path fill="url(#paint0_linear_1_506)" d="M0 0h320v50H0z"/><rect x="186" y="14" width="90" height="22" rx="11" fill="#14964F"/><path d="M194.84 21.745V28h3.141v-.828h-2.115v-5.427h-1.026zm8.724 3.771c0-1.557-1.116-2.556-2.529-2.556-1.413 0-2.529.999-2.529 2.556s1.071 2.565 2.484 2.565c1.422 0 2.574-1.008 2.574-2.565zm-4.014 0c0-1.125.693-1.665 1.467-1.665.765 0 1.494.54 1.494 1.665s-.756 1.674-1.521 1.674c-.774 0-1.44-.549-1.44-1.674zm4.686-.018c0 1.53 1.035 2.583 2.34 2.583.81 0 1.404-.405 1.719-.828v.828c0 .99-.594 1.476-1.386 1.476-.711 0-1.26-.351-1.413-.864h-1.017c.126 1.098 1.107 1.755 2.43 1.755 1.548 0 2.421-1.017 2.421-2.367v-5.04h-1.035v.72c-.306-.423-.909-.801-1.719-.801-1.305 0-2.34 1.008-2.34 2.538zm4.059.018c0 1.071-.729 1.674-1.503 1.674-.765 0-1.503-.621-1.503-1.692s.738-1.647 1.503-1.647c.774 0 1.503.603 1.503 1.665zM213.016 28h1.026v-4.959h-1.026V28zm.522-5.616c.36 0 .648-.288.648-.657a.647.647 0 00-.648-.657.65.65 0 00-.657.657.65.65 0 00.657.657zm5.37 5.616h1.017v-2.925c0-1.386-.873-2.115-2.034-2.115-.594 0-1.143.243-1.476.648v-.567h-1.026V28h1.026v-2.772c0-.909.495-1.377 1.251-1.377.747 0 1.242.468 1.242 1.377V28zm4.321-2.502c0 1.53 1.035 2.583 2.322 2.583.828 0 1.422-.396 1.737-.819V28h1.035v-4.959h-1.035v.72c-.306-.405-.882-.801-1.719-.801-1.305 0-2.34 1.008-2.34 2.538zm4.059.018c0 1.071-.729 1.674-1.503 1.674-.765 0-1.503-.621-1.503-1.692s.738-1.647 1.503-1.647c.774 0 1.503.603 1.503 1.665zM233.19 28h1.017v-2.925c0-1.386-.873-2.115-2.034-2.115-.594 0-1.143.243-1.476.648v-.567h-1.026V28h1.026v-2.772c0-.909.495-1.377 1.251-1.377.747 0 1.242.468 1.242 1.377V28zm1.984-2.502c0 1.53 1.035 2.583 2.34 2.583.81 0 1.404-.378 1.719-.828V28h1.035v-6.66h-1.035v2.394c-.378-.468-1.062-.774-1.71-.774-1.314 0-2.349 1.008-2.349 2.538zm4.059.018c0 1.071-.729 1.674-1.503 1.674-.765 0-1.503-.621-1.503-1.692s.738-1.647 1.503-1.647c.774 0 1.503.603 1.503 1.665zm4.882 1.107c0 1.008.549 1.377 1.431 1.377h.81v-.855h-.63c-.432 0-.576-.153-.576-.522v-2.745h1.206v-.837h-1.206v-1.233h-1.035v1.233h-.585v.837h.585v2.745zm4.213-1.233c0-1.053.468-1.368 1.224-1.368h.261V22.96c-.702 0-1.197.306-1.485.801v-.72h-1.026V28h1.026v-2.61zm2.086.108c0 1.53 1.035 2.583 2.322 2.583.828 0 1.422-.396 1.737-.819V28h1.035v-4.959h-1.035v.72c-.306-.405-.882-.801-1.719-.801-1.305 0-2.34 1.008-2.34 2.538zm4.059.018c0 1.071-.729 1.674-1.503 1.674-.765 0-1.503-.621-1.503-1.692s.738-1.647 1.503-1.647c.774 0 1.503.603 1.503 1.665zm2.041-.018c0 1.53 1.035 2.583 2.34 2.583.81 0 1.404-.378 1.719-.828V28h1.035v-6.66h-1.035v2.394c-.378-.468-1.062-.774-1.71-.774-1.314 0-2.349 1.008-2.349 2.538zm4.059.018c0 1.071-.729 1.674-1.503 1.674-.765 0-1.503-.621-1.503-1.692s.738-1.647 1.503-1.647c.774 0 1.503.603 1.503 1.665zm4.47-1.692c.765 0 1.368.486 1.386 1.251h-2.745c.108-.783.666-1.251 1.359-1.251zm2.322 2.7h-1.107c-.189.387-.54.693-1.17.693-.756 0-1.341-.495-1.413-1.314h3.789c.027-.171.036-.333.036-.504 0-1.458-.999-2.439-2.412-2.439-1.467 0-2.475.999-2.475 2.556s1.053 2.565 2.475 2.565c1.215 0 1.998-.693 2.277-1.557zM58 17.37h12.547v3.818h-8.193v2.66h7.405v3.622h-7.405v5.593H58V17.37z" fill="#fff"/><path fill-rule="evenodd" clip-rule="evenodd" d="M92.069 17.37h7.507c2.419 0 4.115.64 5.187 1.7.923.886 1.397 2.118 1.397 3.646v.049c0 2.39-1.297 3.991-3.267 4.828l3.791 5.47h-5.088l-3.193-4.755h-1.945v4.755h-4.414V17.37h.025zm7.307 7.538c1.496 0 2.369-.714 2.369-1.872v-.05c0-1.231-.898-1.872-2.394-1.872h-2.893v3.77h2.918v.024z" fill="#fff"/><path d="M108.219 17.37h12.62v3.695h-8.315v2.39h7.528v3.424h-7.528v2.488h8.414v3.696h-12.719V17.37zM127.752 25.08l-5.166-7.71h4.994l2.78 4.41 2.804-4.41h4.871l-5.141 7.661 5.387 8.032h-4.994l-3.001-4.73-3.026 4.73h-4.895l5.387-7.982zM142.537 25.622c0-1.798 1.378-3.3 3.346-3.3 1.279 0 2.141.566 2.682 1.404l-1.501 1.108c-.295-.419-.64-.665-1.156-.665-.714 0-1.23.616-1.23 1.38v.024c0 .813.516 1.43 1.254 1.43.517 0 .861-.247 1.206-.642l1.476 1.06c-.59.862-1.402 1.429-2.78 1.429-1.919.024-3.297-1.454-3.297-3.228" fill="#fff"/><path fill-rule="evenodd" clip-rule="evenodd" d="M149.931 25.622c0-1.798 1.471-3.3 3.516-3.3 2.021 0 3.492 1.477 3.492 3.251v.025c0 1.774-1.471 3.277-3.516 3.277-2.021 0-3.492-1.479-3.492-3.253m4.838 0c0-.788-.573-1.428-1.346-1.428-.798 0-1.322.64-1.322 1.38v.024c0 .764.573 1.404 1.346 1.404.824 0 1.322-.64 1.322-1.38" fill="#fff"/><path d="M158.126 22.444h2.189v.863c.394-.518.984-.986 1.87-.986.836 0 1.476.37 1.796 1.01.541-.616 1.181-1.01 2.091-1.01 1.328 0 2.14.838 2.14 2.291v4.115h-2.189v-3.425c0-.69-.345-1.035-.861-1.035-.517 0-.91.37-.91 1.035v3.4h-2.165v-3.4c0-.69-.345-1.035-.861-1.035-.517 0-.886.37-.886 1.035v3.4h-2.19v-6.258h-.024z" fill="#fff"/><path fill-rule="evenodd" clip-rule="evenodd" d="M88.253 25.18c0-.159-.003-.315-.01-.469h1.88l.5-1.429H88.09C87.396 19.373 84.489 17 80.097 17c-4.938 0-8.13 3.252-8.13 8.278 0 5.075 3.092 8.203 8.13 8.179 4.106 0 7.02-2.233 7.887-5.888h1.715l.524-1.429h-2.011c.026-.313.04-.633.04-.96zm-8.056 6.01c-2.544 0-3.542-2.66-3.542-5.962 0-3.3.799-5.937 3.367-5.962 2.021 0 3.066 1.665 3.41 4.016h-2.188l-.498 1.429h2.809a18.332 18.332 0 01-.013 1.429h-2.697l-.523 1.429h3.076c-.346 2.141-1.276 3.621-3.201 3.621z" fill="#14964F"/><path d="M139.487 27.544c0-.32.123-.567.345-.813.221-.222.492-.345.812-.345.319 0 .59.123.811.345.222.222.345.493.345.813 0 .32-.123.591-.345.813-.221.222-.492.32-.811.32-.32 0-.591-.098-.812-.32-.246-.197-.345-.468-.345-.813" fill="#fff"/><defs><linearGradient id="paint0_linear_1_506" x1="130" y1="36" x2="358" y2="36" gradientUnits="userSpaceOnUse"><stop stop-color="#12225C"/><stop offset="1" stop-color="#0954B5"/></linearGradient></defs></svg>