<svg width="169" height="41" viewBox="0 0 169 41" fill="none" xmlns="http://www.w3.org/2000/svg"><path d="M.408 18h10.318v-2.244H2.938V11.29h6.204V9.112H2.938V4.844h7.524V2.6H.408V18zm22.128-2.068c-.484 0-.726-.154-.726-.726v-4.51c0-2.662-1.716-4.092-4.708-4.092-2.838 0-4.73 1.364-4.972 3.564h2.332c.176-.99 1.122-1.65 2.53-1.65 1.562 0 2.464.77 2.464 2.024v.682h-2.838c-3.146 0-4.818 1.298-4.818 3.608 0 2.09 1.716 3.3 4.18 3.3 1.826 0 2.97-.792 3.718-1.936 0 1.122.528 1.804 2.068 1.804h1.254v-2.068h-.484zm-3.08-2.552c-.022 1.738-1.166 2.904-3.146 2.904-1.298 0-2.09-.66-2.09-1.606 0-1.144.814-1.694 2.288-1.694h2.948v.396zm10.556-6.644c-1.848 0-2.75.748-3.322 1.694l-.264-1.694h-2.112V18h2.376v-5.654c0-1.738.682-3.388 2.794-3.388h1.056V6.736h-.528zm7.934-.132c-1.826 0-2.904.726-3.608 1.606l-.264-1.474h-2.068V18h2.376v-5.676c0-2.288 1.122-3.674 3.014-3.674 1.782 0 2.684 1.144 2.684 3.278V18h2.398v-6.27c0-3.762-2.046-5.126-4.532-5.126zm18.856 2.53c-2.42-.418-4.004-.748-4.004-2.332 0-1.452 1.21-2.2 2.948-2.2 1.87 0 3.102 1.056 3.3 2.618h2.53c-.088-2.486-1.782-4.246-4.554-4.664V.224h-2.134v2.288c-2.794.286-4.62 2.024-4.62 4.466 0 3.058 2.42 3.872 4.972 4.312 2.442.44 4.048.792 4.048 2.42 0 1.474-1.32 2.288-3.146 2.288-2.156 0-3.564-1.21-3.696-3.014l-2.552-.044c.088 2.728 1.914 4.708 4.994 5.104v2.31h2.134v-2.266c2.882-.308 4.796-2.134 4.796-4.642.022-3.036-2.464-3.85-5.016-4.312zM63.12 18h10.912v-2.134h-7.458l4.092-3.41c1.87-1.562 3.256-2.992 3.256-5.28 0-2.816-1.936-4.708-5.39-4.708-3.278 0-5.39 2.134-5.39 5.06v.396h2.442V7.66c0-1.914 1.188-3.102 2.948-3.102s2.926.968 2.926 2.728c0 1.474-1.034 2.552-2.42 3.718l-5.918 5.038V18zm12.405-7.348c0 4.642 2.486 7.48 6.072 7.48s6.072-2.838 6.072-7.48v-.704c0-4.466-2.486-7.48-6.072-7.48s-6.072 3.014-6.072 7.48v.704zm9.68-.088c0 3.454-1.452 5.434-3.608 5.434s-3.608-1.98-3.608-5.434v-.528c0-3.432 1.452-5.434 3.608-5.434s3.608 2.002 3.608 5.434v.528zm4.177.088c0 4.642 2.486 7.48 6.072 7.48s6.072-2.838 6.072-7.48v-.704c0-4.466-2.486-7.48-6.072-7.48s-6.072 3.014-6.072 7.48v.704zm9.68-.088c0 3.454-1.452 5.434-3.608 5.434s-3.608-1.98-3.608-5.434v-.528c0-3.432 1.452-5.434 3.608-5.434s3.608 2.002 3.608 5.434v.528zM111.774 18h2.574l2.464-7.656L119.188 18h2.552l3.74-11.264h-2.42l-2.662 8.624-2.464-8.624h-2.178l-2.574 8.624-2.574-8.624H108.1L111.774 18zM127.94 5.152c.814 0 1.452-.594 1.452-1.43s-.638-1.43-1.452-1.43-1.452.594-1.452 1.43.638 1.43 1.452 1.43zM126.73 18h2.376V6.736h-2.376V18zm5.52-3.058c0 2.046.924 3.058 3.08 3.058h2.2v-2.09h-1.672c-.902 0-1.21-.33-1.21-1.21V8.826h2.75v-2.09h-2.75V3.59h-2.398v3.146h-1.958v2.09h1.958v6.116zm12.709-8.338c-1.76 0-2.838.792-3.542 1.76V2.6h-2.376V18h2.376v-5.698c0-2.266 1.144-3.652 3.014-3.652 1.76 0 2.706 1.144 2.706 3.278V18h2.376v-6.27c0-3.762-2.046-5.126-4.554-5.126zm22.64 9.328c-.484 0-.726-.154-.726-.726v-4.51c0-2.662-1.716-4.092-4.708-4.092-2.838 0-4.73 1.364-4.972 3.564h2.332c.176-.99 1.122-1.65 2.53-1.65 1.562 0 2.464.77 2.464 2.024v.682h-2.838c-3.146 0-4.818 1.298-4.818 3.608 0 2.09 1.716 3.3 4.18 3.3 1.826 0 2.97-.792 3.718-1.936 0 1.122.528 1.804 2.068 1.804h1.254v-2.068h-.484zm-3.08-2.552c-.022 1.738-1.166 2.904-3.146 2.904-1.298 0-2.09-.66-2.09-1.606 0-1.144.814-1.694 2.288-1.694h2.948v.396zM.166 40h2.376v-2.86l2.024-2.112L7.888 40h2.816l-4.51-6.71 4.246-4.554H7.646l-5.104 5.456V24.6H.166V40zm17.628-11.396c-1.827 0-2.905.726-3.609 1.606l-.264-1.474h-2.067V40h2.376v-5.676c0-2.288 1.121-3.674 3.014-3.674 1.782 0 2.683 1.144 2.683 3.278V40h2.399v-6.27c0-3.762-2.047-5.126-4.532-5.126zm11.93 11.528c3.432 0 5.742-2.31 5.742-5.764 0-3.432-2.31-5.764-5.742-5.764s-5.742 2.332-5.742 5.764c0 3.454 2.31 5.764 5.742 5.764zm0-2.024c-2.002 0-3.3-1.562-3.3-3.74s1.298-3.74 3.3-3.74 3.322 1.562 3.322 3.74-1.32 3.74-3.322 3.74zm12.823 2.024c2.882 0 4.796-1.606 5.236-4.158h-2.508c-.286 1.298-1.254 2.134-2.706 2.134-1.914 0-3.168-1.518-3.168-3.718 0-2.222 1.254-3.762 3.168-3.762 1.474 0 2.42.814 2.728 2.134h2.486c-.462-2.552-2.266-4.158-5.17-4.158-3.41 0-5.654 2.31-5.654 5.786 0 3.52 2.178 5.742 5.588 5.742zM49.602 40h2.376v-2.86L54 35.028 57.325 40h2.816l-4.51-6.71 4.245-4.554h-2.794l-5.104 5.456V24.6h-2.375V40zm16.302.132c3.432 0 5.742-2.31 5.742-5.764 0-3.432-2.31-5.764-5.742-5.764s-5.742 2.332-5.742 5.764c0 3.454 2.31 5.764 5.742 5.764zm0-2.024c-2.002 0-3.3-1.562-3.3-3.74s1.298-3.74 3.3-3.74 3.322 1.562 3.322 3.74-1.32 3.74-3.322 3.74zm15.375-3.74c0 2.332-1.1 3.696-2.904 3.696-1.738 0-2.618-1.122-2.618-3.322v-6.006H73.38v6.27c0 3.85 2.046 5.126 4.444 5.126 1.738 0 2.772-.704 3.476-1.562l.264 1.43h2.09V28.736h-2.376v5.632zm5.596 2.574c0 2.046.924 3.058 3.08 3.058h2.2v-2.09h-1.672c-.903 0-1.21-.33-1.21-1.21v-5.874h2.75v-2.09h-2.75V25.59h-2.398v3.146h-1.959v2.09h1.959v6.116zm17.744 3.19c3.432 0 5.742-2.31 5.742-5.764 0-3.432-2.31-5.764-5.742-5.764s-5.742 2.332-5.742 5.764c0 3.454 2.31 5.764 5.742 5.764zm0-2.024c-2.002 0-3.3-1.562-3.3-3.74s1.298-3.74 3.3-3.74 3.322 1.562 3.322 3.74-1.32 3.74-3.322 3.74zm20.327-11.418V24.6h-2.266c-2.178 0-3.146 1.034-3.146 3.014v1.122h-4.136v-.946c0-.77.308-1.1 1.078-1.1h1.672V24.6h-2.002c-2.178 0-3.146 1.034-3.146 3.014v1.122h-1.958v2.09H113V40h2.398v-9.174h4.136V40h2.376v-9.174h3.036v-2.09h-3.036v-.946c0-.77.33-1.1 1.1-1.1h1.936zm6.121 13.442c2.794 0 4.686-1.694 5.082-3.916h-2.376c-.33 1.254-1.386 1.98-2.838 1.98-1.87 0-3.08-1.254-3.146-3.168v-.154h8.492c.044-.308.066-.616.066-.902-.066-3.3-2.244-5.368-5.5-5.368-3.322 0-5.544 2.31-5.544 5.786 0 3.454 2.222 5.742 5.764 5.742zm-3.19-6.996c.176-1.606 1.474-2.618 2.992-2.618 1.65 0 2.816.946 3.014 2.618h-6.006zm16.089-4.4c-1.848 0-2.75.748-3.322 1.694l-.264-1.694h-2.112V40h2.376v-5.654c0-1.738.682-3.388 2.794-3.388h1.056v-2.222h-.528z" fill="#000"/></svg>