<svg width="494" height="32" viewBox="0 0 494 32" fill="none" xmlns="http://www.w3.org/2000/svg"><path d="M.176 28h15.946v-3.468H4.086V17.63h9.588v-3.366H4.086V7.668h11.628V4.2H.176V28zm34.198-3.196c-.748 0-1.122-.238-1.122-1.122v-6.97c0-4.114-2.652-6.324-7.276-6.324-4.386 0-7.31 2.108-7.684 5.508h3.604c.272-1.53 1.734-2.55 3.91-2.55 2.414 0 3.808 1.19 3.808 3.128v1.054h-4.386c-4.862 0-7.446 2.006-7.446 5.576 0 3.23 2.652 5.1 6.46 5.1 2.822 0 4.59-1.224 5.746-2.992 0 1.734.816 2.788 3.196 2.788h1.938v-3.196h-.748zm-4.76-3.944c-.034 2.686-1.802 4.488-4.862 4.488-2.006 0-3.23-1.02-3.23-2.482 0-1.768 1.258-2.618 3.536-2.618h4.556v.612zm16.314-10.268c-2.856 0-4.25 1.156-5.134 2.618l-.408-2.618h-3.264V28h3.672v-8.738c0-2.686 1.054-5.236 4.318-5.236h1.632v-3.434h-.816zm12.261-.204c-2.822 0-4.488 1.122-5.576 2.482l-.408-2.278h-3.196V28h3.672v-8.772c0-3.536 1.734-5.678 4.658-5.678 2.754 0 4.148 1.768 4.148 5.066V28h3.706v-9.69c0-5.814-3.162-7.922-7.004-7.922zm29.14 3.91c-3.74-.646-6.187-1.156-6.187-3.604 0-2.244 1.87-3.4 4.556-3.4 2.89 0 4.794 1.632 5.1 4.046h3.91c-.136-3.842-2.754-6.562-7.038-7.208V.528h-3.298v3.536c-4.318.442-7.14 3.128-7.14 6.902 0 4.726 3.74 5.984 7.684 6.664 3.774.68 6.256 1.224 6.256 3.74 0 2.278-2.04 3.536-4.862 3.536-3.332 0-5.508-1.87-5.712-4.658l-3.944-.068c.136 4.216 2.958 7.276 7.718 7.888v3.57h3.298v-3.502c4.454-.476 7.412-3.298 7.412-7.174.034-4.692-3.808-5.95-7.752-6.664zM97.097 28h16.864v-3.298h-11.526l6.324-5.27c2.89-2.414 5.032-4.624 5.032-8.16 0-4.352-2.992-7.276-8.33-7.276-5.066 0-8.33 3.298-8.33 7.82v.612h3.774v-.408c0-2.958 1.836-4.794 4.556-4.794 2.72 0 4.522 1.496 4.522 4.216 0 2.278-1.598 3.944-3.74 5.746l-9.146 7.786V28zm19.171-11.356c0 7.174 3.842 11.56 9.384 11.56s9.384-4.386 9.384-11.56v-1.088c0-6.902-3.842-11.56-9.384-11.56s-9.384 4.658-9.384 11.56v1.088zm14.96-.136c0 5.338-2.244 8.398-5.576 8.398-3.332 0-5.576-3.06-5.576-8.398v-.816c0-5.304 2.244-8.398 5.576-8.398 3.332 0 5.576 3.094 5.576 8.398v.816zm6.456.136c0 7.174 3.842 11.56 9.384 11.56s9.384-4.386 9.384-11.56v-1.088c0-6.902-3.842-11.56-9.384-11.56s-9.384 4.658-9.384 11.56v1.088zm14.96-.136c0 5.338-2.244 8.398-5.576 8.398-3.332 0-5.576-3.06-5.576-8.398v-.816c0-5.304 2.244-8.398 5.576-8.398 3.332 0 5.576 3.094 5.576 8.398v.816zM172.287 28h3.978l3.808-11.832L183.745 28h3.944l5.78-17.408h-3.74l-4.114 13.328-3.808-13.328h-3.366l-3.978 13.328-3.978-13.328h-3.876L172.287 28zm24.985-19.856c1.258 0 2.244-.918 2.244-2.21 0-1.292-.986-2.21-2.244-2.21-1.258 0-2.244.918-2.244 2.21 0 1.292.986 2.21 2.244 2.21zM195.402 28h3.672V10.592h-3.672V28zm8.529-4.726c0 3.162 1.428 4.726 4.76 4.726h3.4v-3.23h-2.584c-1.394 0-1.87-.51-1.87-1.87v-9.078h4.25v-3.23h-4.25V5.73h-3.706v4.862h-3.026v3.23h3.026v9.452zm19.642-12.886c-2.72 0-4.386 1.224-5.474 2.72V4.2h-3.672V28h3.672v-8.806c0-3.502 1.768-5.644 4.658-5.644 2.72 0 4.182 1.768 4.182 5.066V28h3.672v-9.69c0-5.814-3.162-7.922-7.038-7.922zm34.989 14.416c-.748 0-1.122-.238-1.122-1.122v-6.97c0-4.114-2.652-6.324-7.276-6.324-4.386 0-7.31 2.108-7.684 5.508h3.604c.272-1.53 1.734-2.55 3.91-2.55 2.414 0 3.808 1.19 3.808 3.128v1.054h-4.386c-4.862 0-7.446 2.006-7.446 5.576 0 3.23 2.652 5.1 6.46 5.1 2.822 0 4.59-1.224 5.746-2.992 0 1.734.816 2.788 3.196 2.788h1.938v-3.196h-.748zm-4.76-3.944c-.034 2.686-1.802 4.488-4.862 4.488-2.006 0-3.23-1.02-3.23-2.482 0-1.768 1.258-2.618 3.536-2.618h4.556v.612zM270.009 28h3.672v-4.42l3.128-3.264L281.943 28h4.352l-6.97-10.37 6.562-7.038h-4.318l-7.888 8.432V4.2h-3.672V28zm27.243-17.612c-2.822 0-4.488 1.122-5.576 2.482l-.408-2.278h-3.196V28h3.672v-8.772c0-3.536 1.734-5.678 4.658-5.678 2.754 0 4.148 1.768 4.148 5.066V28h3.706v-9.69c0-5.814-3.162-7.922-7.004-7.922zm18.438 17.816c5.304 0 8.874-3.57 8.874-8.908 0-5.304-3.57-8.908-8.874-8.908s-8.874 3.604-8.874 8.908c0 5.338 3.57 8.908 8.874 8.908zm0-3.128c-3.094 0-5.1-2.414-5.1-5.78s2.006-5.78 5.1-5.78 5.134 2.414 5.134 5.78-2.04 5.78-5.134 5.78zm19.817 3.128c4.454 0 7.412-2.482 8.092-6.426h-3.876c-.442 2.006-1.938 3.298-4.182 3.298-2.958 0-4.896-2.346-4.896-5.746 0-3.434 1.938-5.814 4.896-5.814 2.278 0 3.74 1.258 4.216 3.298h3.842c-.714-3.944-3.502-6.426-7.99-6.426-5.27 0-8.738 3.57-8.738 8.942 0 5.44 3.366 8.874 8.636 8.874zM346.409 28h3.672v-4.42l3.128-3.264L358.343 28h4.352l-6.97-10.37 6.562-7.038h-4.318l-7.888 8.432V4.2h-3.672V28zm25.195.204c5.304 0 8.874-3.57 8.874-8.908 0-5.304-3.57-8.908-8.874-8.908s-8.874 3.604-8.874 8.908c0 5.338 3.57 8.908 8.874 8.908zm0-3.128c-3.094 0-5.1-2.414-5.1-5.78s2.006-5.78 5.1-5.78 5.134 2.414 5.134 5.78-2.04 5.78-5.134 5.78zm23.761-5.78c0 3.604-1.7 5.712-4.488 5.712-2.686 0-4.046-1.734-4.046-5.134v-9.282h-3.672v9.69c0 5.95 3.162 7.922 6.868 7.922 2.686 0 4.284-1.088 5.372-2.414l.408 2.21h3.23V10.592h-3.672v8.704zm8.648 3.978c0 3.162 1.428 4.726 4.76 4.726h3.4v-3.23h-2.584c-1.394 0-1.87-.51-1.87-1.87v-9.078h4.25v-3.23h-4.25V5.73h-3.706v4.862h-3.026v3.23h3.026v9.452zm27.423 4.93c5.304 0 8.874-3.57 8.874-8.908 0-5.304-3.57-8.908-8.874-8.908s-8.874 3.604-8.874 8.908c0 5.338 3.57 8.908 8.874 8.908zm0-3.128c-3.094 0-5.1-2.414-5.1-5.78s2.006-5.78 5.1-5.78 5.134 2.414 5.134 5.78-2.04 5.78-5.134 5.78zM462.85 7.43V4.2h-3.502c-3.366 0-4.862 1.598-4.862 4.658v1.734h-6.392V9.13c0-1.19.476-1.7 1.666-1.7h2.584V4.2h-3.094c-3.366 0-4.862 1.598-4.862 4.658v1.734h-3.026v3.23h3.026V28h3.706V13.822h6.392V28h3.672V13.822h4.692v-3.23h-4.692V9.13c0-1.19.51-1.7 1.7-1.7h2.992zm9.46 20.774c4.318 0 7.242-2.618 7.854-6.052h-3.672c-.51 1.938-2.142 3.06-4.386 3.06-2.89 0-4.76-1.938-4.862-4.896v-.238h13.124c.068-.476.102-.952.102-1.394-.102-5.1-3.468-8.296-8.5-8.296-5.134 0-8.568 3.57-8.568 8.942 0 5.338 3.434 8.874 8.908 8.874zm-4.93-10.812c.272-2.482 2.278-4.046 4.624-4.046 2.55 0 4.352 1.462 4.658 4.046h-9.282zm24.865-6.8c-2.856 0-4.25 1.156-5.134 2.618l-.408-2.618h-3.264V28h3.672v-8.738c0-2.686 1.054-5.236 4.318-5.236h1.632v-3.434h-.816z" fill="#000"/></svg>