<svg width="530" height="21" viewBox="0 0 530 21" fill="none" xmlns="http://www.w3.org/2000/svg"><path d="M5.072 16c4.884 0 7.744-3.036 7.744-7.7 0-4.686-2.86-7.7-7.744-7.7H.584V16h4.488zm-3.3-14.3h3.3c4.202 0 6.534 2.552 6.534 6.6 0 4.026-2.332 6.6-6.534 6.6h-3.3V1.7zm13.987.792c.44 0 .792-.33.792-.792a.775.775 0 00-.792-.792c-.44 0-.792.33-.792.792s.352.792.792.792zM15.187 16h1.122V4.846h-1.122V16zm3.254-3.432c.088 2.31 1.958 3.564 4.752 3.564 2.398 0 4.334-1.21 4.334-3.19 0-2.354-2.068-2.816-4.466-3.146-1.738-.242-3.278-.44-3.278-2.002 0-1.276 1.254-2.112 3.146-2.112 1.782 0 3.058.858 3.256 2.31h1.144c-.198-2.178-1.98-3.278-4.4-3.278-2.486-.022-4.268 1.254-4.268 3.168 0 2.244 2.068 2.662 4.356 2.97 1.87.264 3.388.506 3.388 2.156 0 1.32-1.386 2.156-3.212 2.156-2.134 0-3.52-.99-3.608-2.596h-1.144zm16.089 3.564c2.53 0 4.312-1.452 4.752-3.718h-1.188c-.374 1.65-1.716 2.706-3.564 2.706-2.442 0-4.136-1.914-4.136-4.686 0-2.772 1.672-4.73 4.136-4.73 1.87 0 3.19 1.056 3.586 2.728h1.166c-.462-2.31-2.2-3.718-4.73-3.718-3.146 0-5.302 2.332-5.302 5.72 0 3.432 2.134 5.698 5.28 5.698zm11.86 0c3.147 0 5.369-2.332 5.369-5.72 0-3.366-2.222-5.698-5.368-5.698-3.146 0-5.346 2.332-5.346 5.698 0 3.388 2.2 5.72 5.346 5.72zm0-1.012c-2.485 0-4.201-1.936-4.201-4.708 0-2.75 1.716-4.708 4.202-4.708 2.486 0 4.202 1.958 4.202 4.708 0 2.772-1.716 4.708-4.202 4.708zm10.36.88h1.341l4.356-11.154h-1.166l-3.828 9.856-3.85-9.856h-1.21L56.75 16zm11.683.132c2.442 0 4.313-1.584 4.796-3.828h-1.144c-.44 1.738-1.913 2.816-3.74 2.816-2.486 0-4.047-1.892-4.091-4.488v-.198h9.108c0-.154.022-.33.022-.462-.11-3.322-2.156-5.258-5.148-5.258-3.059 0-5.149 2.332-5.149 5.632 0 3.498 2.178 5.786 5.346 5.786zm-4.092-6.644c.177-2.266 1.87-3.784 3.916-3.784 2.178 0 3.74 1.342 3.916 3.784h-7.832zm15.814-4.642c-2.068 0-2.948.99-3.41 2.222l-.176-2.222h-.968V16h1.122v-5.654c0-2.266.594-4.422 3.212-4.422h.814V4.846h-.594zm9.022 8.558c0 1.782.726 2.596 2.618 2.596h1.629v-1.034h-1.54c-1.166 0-1.585-.44-1.585-1.584V5.88h3.014V4.846H90.3V1.722h-1.122v3.124h-2.112V5.88h2.112v7.524zm11.102-8.69c-2.09 0-3.388 1.166-4.026 2.772V.6H95.13V16h1.123v-5.5c0-2.904 1.474-4.752 3.85-4.752 2.134 0 3.454 1.408 3.454 4.048V16h1.122V9.752c0-3.52-1.87-5.038-4.4-5.038zm11.66 11.418c2.442 0 4.312-1.584 4.796-3.828h-1.144c-.44 1.738-1.914 2.816-3.74 2.816-2.486 0-4.048-1.892-4.092-4.488v-.198h9.108c0-.154.022-.33.022-.462-.11-3.322-2.156-5.258-5.148-5.258-3.058 0-5.148 2.332-5.148 5.632 0 3.498 2.178 5.786 5.346 5.786zm-4.092-6.644c.176-2.266 1.87-3.784 3.916-3.784 2.178 0 3.74 1.342 3.916 3.784h-7.832zm17.762-6.996c.44 0 .792-.33.792-.792a.775.775 0 00-.792-.792c-.44 0-.792.33-.792.792s.352.792.792.792zM125.037 16h1.122V4.846h-1.122V16zm8.908-11.286c-2.046 0-3.366 1.056-4.004 2.508l-.176-2.376h-.968V16h1.122v-5.5c0-2.904 1.474-4.752 3.85-4.752 2.156 0 3.454 1.408 3.454 4.048V16h1.122V9.752c0-3.52-1.87-5.038-4.4-5.038zm12.031 0c-2.046 0-3.366 1.056-4.004 2.508l-.176-2.376h-.968V16h1.122v-5.5c0-2.904 1.474-4.752 3.85-4.752 2.156 0 3.454 1.408 3.454 4.048V16h1.122V9.752c0-3.52-1.87-5.038-4.4-5.038zm11.639 11.418c3.146 0 5.368-2.332 5.368-5.72 0-3.366-2.222-5.698-5.368-5.698-3.146 0-5.346 2.332-5.346 5.698 0 3.388 2.2 5.72 5.346 5.72zm0-1.012c-2.486 0-4.202-1.936-4.202-4.708 0-2.75 1.716-4.708 4.202-4.708 2.486 0 4.202 1.958 4.202 4.708 0 2.772-1.716 4.708-4.202 4.708zm10.359.88h1.342l4.356-11.154h-1.166l-3.828 9.856-3.85-9.856h-1.21L167.974 16zm16.611-1.034c-.66 0-.99-.22-.99-1.078V8.696c0-2.552-1.562-3.982-4.356-3.982-2.552 0-4.246 1.232-4.532 3.256h1.122c.286-1.364 1.474-2.266 3.366-2.266 2.09 0 3.278 1.1 3.278 2.948v.968h-3.784c-2.86 0-4.4 1.232-4.4 3.322 0 1.98 1.562 3.19 3.938 3.19 2.266 0 3.608-1.034 4.29-2.42v.396c-.044 1.32.506 1.892 1.826 1.892h.66v-1.034h-.418zm-2.112-3.476c0 2.134-1.518 3.674-4.158 3.674-1.782 0-2.882-.902-2.882-2.288 0-1.474 1.1-2.288 3.168-2.288h3.872v.902zm4.867 1.914c0 1.782.726 2.596 2.618 2.596h1.628v-1.034h-1.54c-1.166 0-1.584-.44-1.584-1.584V5.88h3.014V4.846h-3.014V1.722h-1.122v3.124h-2.112V5.88h2.112v7.524zm6.525-10.912c.44 0 .792-.33.792-.792a.775.775 0 00-.792-.792c-.44 0-.792.33-.792.792s.352.792.792.792zM193.293 16h1.122V4.846h-1.122V16zm6.993 0h1.342l4.356-11.154h-1.166l-3.828 9.856-3.85-9.856h-1.21L200.286 16zm11.685.132c2.442 0 4.312-1.584 4.796-3.828h-1.144c-.44 1.738-1.914 2.816-3.74 2.816-2.486 0-4.048-1.892-4.092-4.488v-.198h9.108c0-.154.022-.33.022-.462-.11-3.322-2.156-5.258-5.148-5.258-3.058 0-5.148 2.332-5.148 5.632 0 3.498 2.178 5.786 5.346 5.786zm-4.092-6.644c.176-2.266 1.87-3.784 3.916-3.784 2.178 0 3.74 1.342 3.916 3.784h-7.832zM227.774 16h1.21l3.3-9.372L235.43 16h1.21l3.96-11.154h-1.144l-3.432 9.812-3.19-9.812H231.8l-3.366 9.812-3.256-9.812h-1.188L227.774 16zm23.842-1.034c-.66 0-.99-.22-.99-1.078V8.696c0-2.552-1.562-3.982-4.356-3.982-2.552 0-4.246 1.232-4.532 3.256h1.122c.286-1.364 1.474-2.266 3.366-2.266 2.09 0 3.278 1.1 3.278 2.948v.968h-3.784c-2.86 0-4.4 1.232-4.4 3.322 0 1.98 1.562 3.19 3.938 3.19 2.266 0 3.608-1.034 4.29-2.42v.396c-.044 1.32.506 1.892 1.826 1.892h.66v-1.034h-.418zm-2.112-3.476c0 2.134-1.518 3.674-4.158 3.674-1.782 0-2.882-.902-2.882-2.288 0-1.474 1.1-2.288 3.168-2.288h3.872v.902zm7.01 4.51l-.726 1.804c-.506 1.232-.704 1.562-1.848 1.562h-1.408V20.4h1.716c1.496 0 1.848-.572 2.552-2.332l5.346-13.222h-1.21l-3.806 9.702-3.872-9.702h-1.21L256.514 16zm13.906-2.596c0 1.782.726 2.596 2.618 2.596h1.628v-1.034h-1.54c-1.166 0-1.584-.44-1.584-1.584V5.88h3.014V4.846h-3.014V1.722h-1.122v3.124h-2.112V5.88h2.112v7.524zm10.537 2.728c3.146 0 5.368-2.332 5.368-5.72 0-3.366-2.222-5.698-5.368-5.698-3.146 0-5.346 2.332-5.346 5.698 0 3.388 2.2 5.72 5.346 5.72zm0-1.012c-2.486 0-4.202-1.936-4.202-4.708 0-2.75 1.716-4.708 4.202-4.708 2.486 0 4.202 1.958 4.202 4.708 0 2.772-1.716 4.708-4.202 4.708zm14.363-1.716c0 1.782.726 2.596 2.618 2.596h1.628v-1.034h-1.54c-1.166 0-1.584-.44-1.584-1.584V5.88h3.014V4.846h-3.014V1.722h-1.122v3.124h-2.112V5.88h2.112v7.524zm10.507-8.558c-2.068 0-2.948.99-3.41 2.222l-.176-2.222h-.968V16h1.122v-5.654c0-2.266.594-4.422 3.212-4.422h.814V4.846h-.594zm11.596 10.12c-.66 0-.99-.22-.99-1.078V8.696c0-2.552-1.562-3.982-4.356-3.982-2.552 0-4.246 1.232-4.532 3.256h1.122c.286-1.364 1.474-2.266 3.366-2.266 2.09 0 3.278 1.1 3.278 2.948v.968h-3.784c-2.86 0-4.4 1.232-4.4 3.322 0 1.98 1.562 3.19 3.938 3.19 2.266 0 3.608-1.034 4.29-2.42v.396c-.044 1.32.506 1.892 1.826 1.892h.66v-1.034h-.418zm-2.112-3.476c0 2.134-1.518 3.674-4.158 3.674-1.782 0-2.882-.902-2.882-2.288 0-1.474 1.1-2.288 3.168-2.288h3.872v.902zm12.967-4.136c-.682-1.584-2.178-2.64-4.268-2.64-3.058 0-5.258 2.332-5.258 5.698 0 3.52 2.2 5.72 5.258 5.72 2.09 0 3.542-1.122 4.246-2.684l.176 2.552h.968V.6h-1.122v6.754zm-4.18 7.766c-2.486 0-4.202-1.936-4.202-4.708 0-2.75 1.716-4.708 4.202-4.708 2.486 0 4.202 1.958 4.202 4.73 0 2.75-1.716 4.686-4.202 4.686zm12.869 1.012c2.442 0 4.312-1.584 4.796-3.828h-1.144c-.44 1.738-1.914 2.816-3.74 2.816-2.486 0-4.048-1.892-4.092-4.488v-.198h9.108c0-.154.022-.33.022-.462-.11-3.322-2.156-5.258-5.148-5.258-3.058 0-5.148 2.332-5.148 5.632 0 3.498 2.178 5.786 5.346 5.786zm-4.092-6.644c.176-2.266 1.87-3.784 3.916-3.784 2.178 0 3.74 1.342 3.916 3.784h-7.832zM350.328 16h1.188V8.894h6.644v-1.1h-6.644V1.7h7.964V.6h-9.152V16zm10.07 0h1.386l4.708-6.974L371.244 16h1.408l-5.368-7.964L372.322.6h-1.386l-4.4 6.556-4.4-6.556h-1.408l5.06 7.524-5.39 7.876zm29.728-1.034c-.66 0-.99-.22-.99-1.078V8.696c0-2.552-1.562-3.982-4.356-3.982-2.552 0-4.246 1.232-4.532 3.256h1.122c.286-1.364 1.474-2.266 3.366-2.266 2.09 0 3.278 1.1 3.278 2.948v.968h-3.784c-2.86 0-4.4 1.232-4.4 3.322 0 1.98 1.562 3.19 3.938 3.19 2.266 0 3.608-1.034 4.29-2.42v.396c-.044 1.32.506 1.892 1.826 1.892h.66v-1.034h-.418zm-2.112-3.476c0 2.134-1.518 3.674-4.158 3.674-1.782 0-2.882-.902-2.882-2.288 0-1.474 1.1-2.288 3.168-2.288h3.872v.902zm9.179-6.776c-2.046 0-3.366 1.056-4.004 2.508l-.176-2.376h-.968V16h1.122v-5.5c0-2.904 1.474-4.752 3.85-4.752 2.156 0 3.454 1.408 3.454 4.048V16h1.122V9.752c0-3.52-1.87-5.038-4.4-5.038zm15.819 2.64c-.682-1.584-2.178-2.64-4.268-2.64-3.058 0-5.258 2.332-5.258 5.698 0 3.52 2.2 5.72 5.258 5.72 2.09 0 3.542-1.122 4.246-2.684l.176 2.552h.968V.6h-1.122v6.754zm-4.18 7.766c-2.486 0-4.202-1.936-4.202-4.708 0-2.75 1.716-4.708 4.202-4.708 2.486 0 4.202 1.958 4.202 4.73 0 2.75-1.716 4.686-4.202 4.686zm14.443-12.628c.44 0 .792-.33.792-.792a.775.775 0 00-.792-.792c-.44 0-.792.33-.792.792s.352.792.792.792zM422.703 16h1.122V4.846h-1.122V16zm8.908-11.286c-2.046 0-3.366 1.056-4.004 2.508l-.176-2.376h-.968V16h1.122v-5.5c0-2.904 1.474-4.752 3.85-4.752 2.156 0 3.454 1.408 3.454 4.048V16h1.122V9.752c0-3.52-1.87-5.038-4.4-5.038zm15.819 2.64c-.682-1.584-2.178-2.64-4.268-2.64-3.058 0-5.258 2.332-5.258 5.698 0 3.52 2.2 5.72 5.258 5.72 2.09 0 3.542-1.122 4.246-2.684l.176 2.552h.968V.6h-1.122v6.754zm-4.18 7.766c-2.486 0-4.202-1.936-4.202-4.708 0-2.75 1.716-4.708 4.202-4.708 2.486 0 4.202 1.958 4.202 4.73 0 2.75-1.716 4.686-4.202 4.686zm12.869 1.012c2.442 0 4.312-1.584 4.796-3.828h-1.144c-.44 1.738-1.914 2.816-3.74 2.816-2.486 0-4.048-1.892-4.092-4.488v-.198h9.108c0-.154.022-.33.022-.462-.11-3.322-2.156-5.258-5.148-5.258-3.058 0-5.148 2.332-5.148 5.632 0 3.498 2.178 5.786 5.346 5.786zm-4.092-6.644c.176-2.266 1.87-3.784 3.916-3.784 2.178 0 3.74 1.342 3.916 3.784h-7.832zM461.712 16h1.298l3.696-4.906L470.402 16h1.364l-4.334-5.698 4.114-5.456h-1.276l-3.52 4.62-3.476-4.62h-1.342l4.114 5.456L461.712 16zm24.206.132c3.3 0 5.632-1.782 6.292-4.884h-1.254c-.66 2.464-2.442 3.784-5.06 3.784-3.564 0-5.808-2.794-5.808-6.732s2.288-6.732 5.852-6.732c2.574 0 4.378 1.342 5.06 3.762h1.254c-.682-3.08-3.014-4.862-6.248-4.862-4.334 0-7.15 3.212-7.15 7.832 0 4.664 2.75 7.832 7.062 7.832zm8.85-.132h1.188V8.894h6.644v-1.1h-6.644V1.7h7.964V.6h-9.152V16zm15.724 0c4.884 0 7.744-3.036 7.744-7.7 0-4.686-2.86-7.7-7.744-7.7h-4.488V16h4.488zm-3.3-14.3h3.3c4.202 0 6.534 2.552 6.534 6.6 0 4.026-2.332 6.6-6.534 6.6h-3.3V1.7zm12.909 10.868c.088 2.31 1.958 3.564 4.752 3.564 2.398 0 4.334-1.21 4.334-3.19 0-2.354-2.068-2.816-4.466-3.146-1.738-.242-3.278-.44-3.278-2.002 0-1.276 1.254-2.112 3.146-2.112 1.782 0 3.058.858 3.256 2.31h1.144c-.198-2.178-1.98-3.278-4.4-3.278-2.486-.022-4.268 1.254-4.268 3.168 0 2.244 2.068 2.662 4.356 2.97 1.87.264 3.388.506 3.388 2.156 0 1.32-1.386 2.156-3.212 2.156-2.134 0-3.52-.99-3.608-2.596h-1.144z" fill="#000"/></svg>