<svg width="254" height="41" viewBox="0 0 254 41" fill="none" xmlns="http://www.w3.org/2000/svg"><path d="M14.704 4.9V1.036H.424V4.9h4.872v12.936h4.536V4.9h4.872zm2.27-3.84v16.776h4.511v-5.112h2.689l3.264 5.112h5.207l-3.768-5.712c2.329-.792 3.313-2.496 3.313-5.232 0-4.104-2.184-5.832-7.656-5.832h-7.56zm4.511 4.056h3.265c1.991 0 2.735.624 2.735 2.064 0 1.464-.744 2.064-2.735 2.064h-3.265V5.116zm17.954 12.72V1.06h-4.512v16.776h4.512zM56.624 5.092V1.036H42.872v16.8h13.896V13.78h-9.384v-2.52h8.592V7.42h-8.592V5.092h9.24zm2.701-4.032v16.776h7.2c4.968 0 9-3.624 9-8.376 0-4.776-4.032-8.424-9-8.424l-7.2.024zm4.512 4.032h2.52c2.496 0 4.536 1.872 4.536 4.344 0 2.496-2.04 4.368-4.536 4.368h-2.52V5.092zm22.052 8.28V9.868h-8.328v3.504h8.328zm20.642 4.464l-6.696-16.8h-5.928l-6.624 16.8h5.4l1.08-2.928h6.288l1.08 2.928h5.4zm-11.592-6.528l1.944-5.232 1.944 5.232h-3.888zm29.607 6.528v-16.8h-4.44v9.384l-6.768-9.384h-4.68v16.8h4.44v-9.36l6.768 9.36h4.68zm3.287-16.776v16.776h7.2c4.968 0 9-3.624 9-8.376 0-4.776-4.032-8.424-9-8.424l-7.2.024zm4.512 4.032h2.52c2.496 0 4.536 1.872 4.536 4.344 0 2.496-2.04 4.368-4.536 4.368h-2.52V5.092zm22.052 8.28V9.868h-8.328v3.504h8.328zM170.071 4.9V1.036h-14.28V4.9h4.872v12.936h4.536V4.9h4.872zm16.022.192V1.036h-13.752v16.8h13.896V13.78h-9.384v-2.52h8.592V7.42h-8.592V5.092h9.24zm9.541-4.296c-3.912.024-6.984 1.728-6.984 5.496 0 3.288 2.736 4.176 6.552 5.088 2.76.696 3.24.792 3.24 1.752 0 .768-.816 1.104-1.752 1.104-2.136 0-4.56-.624-6.744-1.848l-2.016 3.36c2.304 1.536 5.136 2.352 8.256 2.352 4.32 0 7.032-1.968 7.032-5.544 0-3.432-2.808-4.392-6.744-5.448-2.616-.648-2.928-.864-2.928-1.392 0-.768.744-1.104 1.608-1.104 1.656 0 3.912.576 5.832 1.56l1.896-3.48c-1.968-1.2-4.56-1.896-7.248-1.896zM218.961 4.9V1.036h-14.28V4.9h4.872v12.936h4.536V4.9h4.872zm16.022.192V1.036h-13.752v16.8h13.896V13.78h-9.384v-2.52h8.592V7.42h-8.592V5.092h9.24zm2.701-4.032v16.776h7.2c4.968 0 9-3.624 9-8.376 0-4.776-4.032-8.424-9-8.424l-7.2.024zm4.512 4.032h2.52c2.496 0 4.536 1.872 4.536 4.344 0 2.496-2.04 4.368-4.536 4.368h-2.52V5.092zM82.754 26.9v-3.864h-14.28V26.9h4.872v12.936h4.536V26.9h4.872zm2.27-3.84v16.776h4.512v-5.112H92.224l3.264 5.112h5.208l-3.768-5.712c2.328-.792 3.312-2.496 3.312-5.232 0-4.104-2.184-5.832-7.656-5.832h-7.56zm4.512 4.056H92.8c1.992 0 2.736.624 2.736 2.064 0 1.464-.744 2.064-2.736 2.064h-3.264v-4.128zm31.561 12.72l-6.696-16.8h-5.928l-6.624 16.8h5.4l1.08-2.928h6.288l1.08 2.928h5.4zm-11.592-6.528l1.944-5.232 1.944 5.232h-3.888zm13.863-10.248v16.776h7.2c4.968 0 9-3.624 9-8.376 0-4.776-4.032-8.424-9-8.424l-7.2.024zm4.512 4.032h2.52c2.496 0 4.536 1.872 4.536 4.344 0 2.496-2.04 4.368-4.536 4.368h-2.52v-8.712zm19.172 12.744V23.06h-4.512v16.776h4.512zm19.177 0v-16.8h-4.44v9.384l-6.768-9.384h-4.68v16.8h4.44v-9.36l6.768 9.36h4.68zm12.12-17.04c-4.776-.024-9.288 3.12-9.288 8.664 0 4.752 4.032 8.616 9 8.616 2.832 0 5.448-.936 7.464-2.544v-7.344h-7.176v3.216h2.88v1.608a6.233 6.233 0 01-3.168.84c-2.52 0-4.272-1.968-4.272-4.392 0-2.808 2.136-4.488 4.56-4.488 1.296 0 2.616.456 3.672 1.368l2.952-3.096c-1.872-1.608-4.248-2.424-6.624-2.448z" fill="#09B45B"/></svg>