<svg width="131" height="13" viewBox="0 0 131 13" fill="none" xmlns="http://www.w3.org/2000/svg"><path d="M6.497.676C3.13.676.408 3.333.408 6.616c0 3.267 2.723 5.924 6.089 5.924 2.062 0 3.877-.99 4.966-2.525l-2.69-1.518a2.758 2.758 0 01-2.26 1.139c-1.683 0-2.854-1.353-2.854-3.02 0-1.683 1.171-3.036 2.854-3.036.957 0 1.75.446 2.26 1.139l2.69-1.518C10.374 1.666 8.56.676 6.497.676zm12.41 0c-3.416 0-6.188 2.657-6.188 5.94 0 3.267 2.772 5.924 6.187 5.924 3.416 0 6.188-2.657 6.188-5.924 0-3.283-2.772-5.94-6.188-5.94zm0 2.904c1.732 0 2.953 1.353 2.953 3.036 0 1.667-1.221 3.02-2.954 3.02-1.732 0-2.937-1.353-2.937-3.02 0-1.683 1.205-3.036 2.937-3.036zm22.299 8.795V.825H37.13L34.127 5.79 31.14.825h-4.075v11.55h3.052V4.983l3.482 5.874h1.056l3.481-5.874v7.392h3.07zm16.403 0V.825h-4.076L50.53 5.79 47.544.825h-4.076v11.55h3.053V4.983l3.481 5.874h1.056l3.482-5.874v7.392h3.069zM65.829.676c-3.416 0-6.188 2.657-6.188 5.94 0 3.267 2.772 5.924 6.187 5.924 3.416 0 6.188-2.657 6.188-5.924 0-3.283-2.772-5.94-6.188-5.94zm0 2.904c1.732 0 2.953 1.353 2.953 3.036 0 1.667-1.221 3.02-2.954 3.02-1.732 0-2.937-1.353-2.937-3.02 0-1.683 1.205-3.036 2.937-3.036zm8.24-2.739v11.534h4.95c3.416 0 6.188-2.492 6.188-5.759 0-3.283-2.772-5.791-6.188-5.791L74.07.84zm3.102 2.772h1.733c1.716 0 3.118 1.287 3.118 2.987 0 1.716-1.402 3.003-3.118 3.003H77.17v-5.99zm13.181 8.762V.84H87.25v11.534h3.102zm11.402-8.894V.825h-9.817V3.48h3.35v8.894h3.118V3.48h3.349zm4.663 8.894V.84h-3.102v11.534h3.102zm11.815-8.762V.825h-9.455v11.55h9.554V9.586h-6.452V7.854h5.907v-2.64h-5.907v-1.6h6.353zM124.791.66c-2.689.016-4.801 1.188-4.801 3.778 0 2.26 1.881 2.871 4.504 3.498 1.898.479 2.228.545 2.228 1.205 0 .528-.561.759-1.205.759-1.468 0-3.135-.43-4.636-1.27l-1.386 2.31c1.584 1.055 3.531 1.616 5.676 1.616 2.97 0 4.834-1.353 4.834-3.811 0-2.36-1.93-3.02-4.636-3.746-1.799-.445-2.013-.594-2.013-.957 0-.528.511-.759 1.105-.759 1.139 0 2.69.396 4.01 1.073l1.303-2.393c-1.353-.825-3.135-1.303-4.983-1.303z" fill="#09B45B"/></svg>