<svg width="145" height="29" viewBox="0 0 145 29" fill="none" xmlns="http://www.w3.org/2000/svg"><path d="M.3 2.03h3.24V11h1.725V2.03h3.24V.5H.3v1.53zm12.466 1.29c-1.26 0-1.875.51-2.265 1.155l-.18-1.155H8.88V11h1.62V7.145c0-1.185.465-2.31 1.905-2.31h.72V3.32h-.36zm8.145 6.27c-.33 0-.495-.105-.495-.495V6.02c0-1.815-1.17-2.79-3.21-2.79-1.935 0-3.225.93-3.39 2.43h1.59c.12-.675.765-1.125 1.725-1.125 1.065 0 1.68.525 1.68 1.38v.465h-1.935c-2.145 0-3.285.885-3.285 2.46 0 1.425 1.17 2.25 2.85 2.25 1.245 0 2.025-.54 2.535-1.32 0 .765.36 1.23 1.41 1.23h.855V9.59h-.33zm-2.1-1.74c-.015 1.185-.795 1.98-2.145 1.98-.885 0-1.425-.45-1.425-1.095 0-.78.555-1.155 1.56-1.155h2.01v.27zm9.088-3.465c-.495-.675-1.32-1.155-2.49-1.155-2.084 0-3.63 1.56-3.63 3.93 0 2.46 1.546 3.93 3.63 3.93 1.216 0 2.01-.57 2.506-1.245L28.11 11h1.41V.5H27.9v3.885zm-2.22 5.34c-1.35 0-2.234-1.05-2.234-2.565 0-1.5.884-2.55 2.235-2.55 1.35 0 2.235 1.05 2.235 2.58 0 1.485-.886 2.535-2.235 2.535zm9.069 1.365c1.905 0 3.195-1.155 3.465-2.67h-1.62c-.225.855-.945 1.35-1.935 1.35-1.275 0-2.1-.855-2.145-2.16v-.105h5.79a4.4 4.4 0 00.045-.615c-.045-2.25-1.53-3.66-3.75-3.66-2.265 0-3.78 1.575-3.78 3.945 0 2.355 1.515 3.915 3.93 3.915zm-2.175-4.77c.12-1.095 1.005-1.785 2.04-1.785 1.125 0 1.92.645 2.055 1.785h-4.095zM45.565 11h1.98l2.835-7.68h-1.71l-2.085 5.94-2.115-5.94h-1.74L45.565 11zm8.914.09c2.34 0 3.915-1.575 3.915-3.93 0-2.34-1.575-3.93-3.915-3.93s-3.915 1.59-3.915 3.93c0 2.355 1.575 3.93 3.915 3.93zm0-1.38c-1.365 0-2.25-1.065-2.25-2.55 0-1.485.885-2.55 2.25-2.55s2.265 1.065 2.265 2.55c0 1.485-.9 2.55-2.265 2.55zM59.696 11h1.62V.5h-1.62V11zm10.228-1.41c-.33 0-.495-.105-.495-.495V6.02c0-1.815-1.17-2.79-3.21-2.79-1.935 0-3.225.93-3.39 2.43h1.59c.12-.675.765-1.125 1.725-1.125 1.065 0 1.68.525 1.68 1.38v.465H65.89c-2.145 0-3.285.885-3.285 2.46 0 1.425 1.17 2.25 2.85 2.25 1.245 0 2.025-.54 2.535-1.32 0 .765.36 1.23 1.41 1.23h.855V9.59h-.33zm-2.1-1.74c-.015 1.185-.795 1.98-2.145 1.98-.885 0-1.425-.45-1.425-1.095 0-.78.555-1.155 1.56-1.155h2.01v.27zm3.868 1.065c0 1.395.63 2.085 2.1 2.085h1.5V9.575h-1.14c-.615 0-.825-.225-.825-.825V4.745h1.875V3.32h-1.875V1.175h-1.635V3.32h-1.335v1.425h1.335v4.17zm5.455-6.675c.555 0 .99-.405.99-.975s-.435-.975-.99-.975c-.555 0-.99.405-.99.975s.435.975.99.975zM76.322 11h1.62V3.32h-1.62V11zm3.208 0h1.62V.5h-1.62V11zm4.033-8.76c.555 0 .99-.405.99-.975s-.435-.975-.99-.975c-.555 0-.99.405-.99.975s.435.975.99.975zM82.738 11h1.62V3.32h-1.62V11zm3.763-2.085c0 1.395.63 2.085 2.1 2.085h1.5V9.575h-1.14c-.615 0-.825-.225-.825-.825V4.745h1.875V3.32h-1.875V1.175h-1.635V3.32h-1.335v1.425h1.335v4.17zm6.85 2.13l-.3.75c-.24.63-.39.78-1.02.78h-1.14V14h1.74c1.126 0 1.456-.555 1.936-1.8l3.48-8.88h-1.725l-2.085 5.835-2.145-5.835h-1.725l2.985 7.725zm12.983.045c2.34 0 3.915-1.575 3.915-3.93 0-2.34-1.575-3.93-3.915-3.93s-3.915 1.59-3.915 3.93c0 2.355 1.575 3.93 3.915 3.93zm0-1.38c-1.365 0-2.25-1.065-2.25-2.55 0-1.485.885-2.55 2.25-2.55s2.265 1.065 2.265 2.55c0 1.485-.9 2.55-2.265 2.55zm9.268-6.48c-1.245 0-1.98.495-2.46 1.095l-.18-1.005h-1.41V11h1.62V7.13c0-1.56.765-2.505 2.055-2.505 1.215 0 1.83.78 1.83 2.235V11h1.635V6.725c0-2.565-1.395-3.495-3.09-3.495zm8.956 5.685c0 1.395.63 2.085 2.1 2.085h1.5V9.575h-1.14c-.615 0-.825-.225-.825-.825V4.745h1.875V3.32h-1.875V1.175h-1.635V3.32h-1.335v1.425h1.335v4.17zm8.666-5.685c-1.2 0-1.935.54-2.415 1.2V.5h-1.62V11h1.62V7.115c0-1.545.78-2.49 2.055-2.49 1.2 0 1.845.78 1.845 2.235V11h1.62V6.725c0-2.565-1.395-3.495-3.105-3.495zm8.164 7.86c1.905 0 3.195-1.155 3.465-2.67h-1.62c-.225.855-.945 1.35-1.935 1.35-1.275 0-2.1-.855-2.145-2.16v-.105h5.79a4.4 4.4 0 00.045-.615c-.045-2.25-1.53-3.66-3.75-3.66-2.265 0-3.78 1.575-3.78 3.945 0 2.355 1.515 3.915 3.93 3.915zm-2.175-4.77c.12-1.095 1.005-1.785 2.04-1.785 1.125 0 1.92.645 2.055 1.785h-4.095zM1.905 26l.975-2.595h4.305L8.175 26h1.845L6.105 15.5H4.05L.12 26h1.785zm3.12-8.64l1.68 4.575H3.36l1.665-4.575zm10.908 4.8c0 1.59-.75 2.52-1.98 2.52-1.185 0-1.785-.765-1.785-2.265V18.32h-1.62v4.275c0 2.625 1.395 3.495 3.03 3.495 1.185 0 1.89-.48 2.37-1.065l.18.975h1.425v-7.68h-1.62v3.84zm2.887 1.305c.044 1.665 1.454 2.625 3.51 2.625 1.86 0 3.255-.93 3.255-2.4 0-1.71-1.425-2.07-3.18-2.28-1.11-.12-1.846-.21-1.846-.93 0-.615.63-1.005 1.59-1.005.96 0 1.62.495 1.71 1.2h1.59c-.105-1.575-1.44-2.445-3.33-2.445-1.845-.015-3.15.93-3.15 2.385 0 1.59 1.38 1.965 3.136 2.175 1.184.15 1.89.21 1.89 1.035 0 .615-.66 1.005-1.666 1.005-1.17 0-1.86-.57-1.92-1.365h-1.59zm8.575.45c0 1.395.63 2.085 2.1 2.085h1.5v-1.425h-1.14c-.615 0-.825-.225-.825-.825v-4.005h1.875V18.32H29.03v-2.145h-1.635v2.145H26.06v1.425h1.335v4.17zm8.515-5.595c-1.26 0-1.874.51-2.264 1.155l-.18-1.155h-1.44V26h1.62v-3.855c0-1.185.465-2.31 1.904-2.31h.72V18.32h-.36zm8.145 6.27c-.33 0-.495-.105-.495-.495V21.02c0-1.815-1.17-2.79-3.21-2.79-1.935 0-3.225.93-3.39 2.43h1.59c.12-.675.765-1.125 1.725-1.125 1.065 0 1.68.525 1.68 1.38v.465H40.02c-2.145 0-3.285.885-3.285 2.46 0 1.425 1.17 2.25 2.85 2.25 1.245 0 2.025-.54 2.535-1.32 0 .765.36 1.23 1.41 1.23h.855v-1.41h-.33zm-2.1-1.74c-.015 1.185-.795 1.98-2.145 1.98-.885 0-1.425-.45-1.425-1.095 0-.78.555-1.155 1.56-1.155h2.01v.27zM45.268 26h1.62V15.5h-1.62V26zm4.033-8.76c.555 0 .99-.405.99-.975s-.435-.975-.99-.975c-.555 0-.99.405-.99.975s.435.975.99.975zM48.476 26h1.62v-7.68h-1.62V26zm10.228-1.41c-.33 0-.495-.105-.495-.495V21.02c0-1.815-1.17-2.79-3.21-2.79-1.935 0-3.225.93-3.39 2.43h1.59c.12-.675.765-1.125 1.725-1.125 1.065 0 1.68.525 1.68 1.38v.465h-1.935c-2.145 0-3.285.885-3.285 2.46 0 1.425 1.17 2.25 2.85 2.25 1.245 0 2.025-.54 2.535-1.32 0 .765.36 1.23 1.41 1.23h.855v-1.41h-.33zm-2.1-1.74c-.015 1.185-.795 1.98-2.145 1.98-.885 0-1.425-.45-1.425-1.095 0-.78.555-1.155 1.56-1.155h2.01v.27zM63.289 26h7.44v-1.455h-5.085l2.79-2.325c1.275-1.065 2.22-2.04 2.22-3.6 0-1.92-1.32-3.21-3.675-3.21-2.235 0-3.675 1.455-3.675 3.45v.27h1.665v-.18c0-1.305.81-2.115 2.01-2.115 1.2 0 1.995.66 1.995 1.86 0 1.005-.705 1.74-1.65 2.535l-4.035 3.435V26zm8.458-5.01c0 3.165 1.695 5.1 4.14 5.1 2.445 0 4.14-1.935 4.14-5.1v-.48c0-3.045-1.695-5.1-4.14-5.1-2.445 0-4.14 2.055-4.14 5.1v.48zm6.6-.06c0 2.355-.99 3.705-2.46 3.705s-2.46-1.35-2.46-3.705v-.36c0-2.34.99-3.705 2.46-3.705s2.46 1.365 2.46 3.705v.36zm2.848.06c0 3.165 1.695 5.1 4.14 5.1 2.445 0 4.14-1.935 4.14-5.1v-.48c0-3.045-1.695-5.1-4.14-5.1-2.445 0-4.14 2.055-4.14 5.1v.48zm6.6-.06c0 2.355-.99 3.705-2.46 3.705s-2.46-1.35-2.46-3.705v-.36c0-2.34.99-3.705 2.46-3.705s2.46 1.365 2.46 3.705v.36zm7.451 2.985c0 1.395.63 2.085 2.1 2.085h1.5v-1.425h-1.14c-.615 0-.825-.225-.825-.825v-4.005h1.876V18.32H96.88v-2.145h-1.635v2.145h-1.334v1.425h1.334v4.17zm8.1 2.175c2.34 0 3.915-1.575 3.915-3.93 0-2.34-1.575-3.93-3.915-3.93s-3.915 1.59-3.915 3.93c0 2.355 1.575 3.93 3.915 3.93zm0-1.38c-1.365 0-2.25-1.065-2.25-2.55 0-1.485.885-2.55 2.25-2.55s2.265 1.065 2.265 2.55c0 1.485-.9 2.55-2.265 2.55zm11.053-5.325c-.495-.675-1.32-1.155-2.49-1.155-2.085 0-3.63 1.56-3.63 3.93 0 2.46 1.545 3.93 3.63 3.93 1.215 0 2.01-.57 2.505-1.245l.195 1.155h1.41V15.5h-1.62v3.885zm-2.22 5.34c-1.35 0-2.235-1.05-2.235-2.565 0-1.5.885-2.55 2.235-2.55 1.35 0 2.235 1.05 2.235 2.58 0 1.485-.885 2.535-2.235 2.535zm12.443-.135c-.33 0-.495-.105-.495-.495V21.02c0-1.815-1.17-2.79-3.21-2.79-1.935 0-3.225.93-3.39 2.43h1.59c.12-.675.765-1.125 1.725-1.125 1.065 0 1.68.525 1.68 1.38v.465h-1.935c-2.145 0-3.285.885-3.285 2.46 0 1.425 1.17 2.25 2.85 2.25 1.245 0 2.025-.54 2.535-1.32 0 .765.36 1.23 1.41 1.23h.855v-1.41h-.33zm-2.1-1.74c-.015 1.185-.795 1.98-2.145 1.98-.885 0-1.425-.45-1.425-1.095 0-.78.555-1.155 1.56-1.155h2.01v.27zm5.21 3.195l-.3.75c-.24.63-.39.78-1.02.78h-1.14V29h1.74c1.125 0 1.455-.555 1.935-1.8l3.48-8.88h-1.725l-2.085 5.835-2.145-5.835h-1.725l2.985 7.725z" fill="#000"/></svg>