<svg width="266" height="39" viewBox="0 0 266 39" fill="none" xmlns="http://www.w3.org/2000/svg"><path d="M34.19 1.622h-9.777v19.607c0 5.794-2.639 8.226-6.881 8.226-4.19 0-6.829-2.431-6.88-8.226V1.673H.924V21.23c0 11.848 6.415 17.124 16.607 17.124s16.659-5.276 16.659-17.124V1.622zm21.847-.518c-8.433.052-15.055 3.725-15.055 11.848 0 7.087 5.898 9.001 14.124 10.967 5.95 1.5 6.984 1.708 6.984 3.777 0 1.656-1.76 2.38-3.777 2.38-4.604 0-9.83-1.345-14.537-3.984l-4.346 7.243c4.967 3.311 11.071 5.07 17.797 5.07 9.312 0 15.158-4.242 15.158-11.95 0-7.399-6.053-9.468-14.538-11.744-5.639-1.397-6.311-1.863-6.311-3.001 0-1.655 1.604-2.38 3.466-2.38 3.57 0 8.433 1.242 12.572 3.363l4.087-7.502c-4.243-2.586-9.83-4.087-15.624-4.087zm21.935.57v36.162h15.52c10.709 0 19.401-7.812 19.401-18.055 0-10.296-8.692-18.16-19.401-18.16l-15.52.052zm9.726 8.69h5.432c5.38 0 9.778 4.036 9.778 9.365 0 5.38-4.398 9.416-9.778 9.416h-5.432v-18.78zm37.136 28.352L142.942.742l-8.071.052-18.107 37.922h8.07zm41.016-37.56c-10.554 0-19.09 8.33-19.09 18.625 0 10.243 8.536 18.572 19.09 18.572 6.467 0 12.158-3.104 15.572-7.915l-8.433-4.76c-1.603 2.173-4.087 3.57-7.087 3.57-5.277 0-8.95-4.242-8.95-9.467 0-5.277 3.673-9.52 8.95-9.52 3 0 5.484 1.397 7.087 3.57l8.433-4.76c-3.414-4.81-9.105-7.915-15.572-7.915zm59.349 36.68L210.765 1.622h-12.778l-14.279 36.214h11.64l2.329-6.311h13.554l2.328 6.311h11.64zm-24.987-14.072l4.19-11.278 4.191 11.278h-8.381zm29.882-22.09v36.162h15.52c10.71 0 19.401-7.812 19.401-18.055 0-10.296-8.691-18.16-19.401-18.16l-15.52.052zm9.726 8.69h5.432c5.381 0 9.778 4.036 9.778 9.365 0 5.38-4.397 9.416-9.778 9.416h-5.432v-18.78z" fill="#09B45B"/></svg>