<svg width="29" height="11" viewBox="0 0 29 11" fill="none" xmlns="http://www.w3.org/2000/svg"><path d="M19.748 4.348h-1.456c-.4-2.376-2.07-3.82-4.597-3.82-2.84 0-4.676 1.977-4.676 5.03 0 3.054 1.779 4.986 4.676 4.97 2.362 0 4.037-1.355 4.536-3.577h.986l.301-.87h-1.157a7.384 7.384 0 00.018-.868h1.082l.287-.868v.003zm-4.071 1.737h-1.552l-.3.868h1.769c-.2 1.301-.734 2.201-1.842 2.201-1.463 0-2.036-1.618-2.036-3.622 0-2.005.459-3.608 1.937-3.623 1.162 0 1.762 1.011 1.961 2.44h-1.259l-.287.869h1.616c.002.103.005.207.005.314 0 .189-.004.374-.012.554v-.001zM.986 10.29h2.54V6.892h4.317v-2.2H3.525V3.074h4.777V.754H.986v9.536zM26.807 6.966c1.133-.509 1.878-1.483 1.878-2.934v-.03c0-.928-.272-1.676-.803-2.216-.616-.644-1.593-1.032-2.984-1.032h-4.331v9.536h2.539V7.4h1.118l1.836 2.89h2.926l-2.18-3.324zm-.66-2.77c0 .703-.502 1.137-1.363 1.137h-1.68V3.028h1.665c.86 0 1.377.39 1.377 1.138v.03z" fill="#fff"/></svg>