<svg width="361" height="61" viewBox="0 0 361 61" fill="none" xmlns="http://www.w3.org/2000/svg"><path d="M8.721 4.776H1.425V18h7.296v-1.767h-5.13v-4.047h4.56v-1.767h-4.56V6.543h5.13V4.776zM11.389 18h2.166V7.531h-2.166V18zM12.49 6.144c.76 0 1.368-.608 1.368-1.387S13.25 3.37 12.49 3.37a1.37 1.37 0 00-1.387 1.387 1.37 1.37 0 001.387 1.387zM23.828 18h2.147v-6.175c0-2.926-1.843-4.465-4.294-4.465-1.254 0-2.413.513-3.116 1.368V7.531h-2.166V18h2.166v-5.852c0-1.919 1.045-2.907 2.64-2.907 1.578 0 2.623.988 2.623 2.907V18zm12.719-2.926c-.114-3.781-6.023-2.603-6.023-4.712 0-.703.607-1.178 1.767-1.178 1.178 0 1.88.627 1.957 1.539h2.166c-.114-2.09-1.672-3.363-4.047-3.363-2.47 0-4.028 1.349-4.028 3.021 0 3.838 6.08 2.66 6.08 4.712 0 .722-.665 1.254-1.92 1.254-1.197 0-2.014-.703-2.09-1.558h-2.241c.095 1.9 1.861 3.382 4.37 3.382 2.47 0 4.009-1.33 4.009-3.097zm2.682.019c0 2.128 1.159 2.907 3.02 2.907h1.71v-1.805h-1.33c-.911 0-1.215-.323-1.215-1.102V9.298h2.546V7.531h-2.546V4.928h-2.185v2.603h-1.235v1.767h1.235v5.795zM45.956 18h2.166V7.531h-2.166V18zm1.102-11.856c.76 0 1.368-.608 1.368-1.387s-.608-1.387-1.368-1.387a1.37 1.37 0 00-1.387 1.387 1.37 1.37 0 001.387 1.387zm8.316 3.04c1.615 0 2.888 1.026 2.926 2.641h-5.795c.228-1.653 1.406-2.641 2.869-2.641zm4.902 5.7h-2.337c-.399.817-1.14 1.463-2.47 1.463-1.596 0-2.831-1.045-2.983-2.774h7.999c.057-.361.076-.703.076-1.064 0-3.078-2.109-5.149-5.092-5.149-3.097 0-5.225 2.109-5.225 5.396s2.223 5.415 5.225 5.415c2.565 0 4.218-1.463 4.807-3.287zm1.695-2.166c0 3.23 2.185 5.453 4.94 5.453 1.71 0 2.964-.855 3.629-1.748v1.748c0 2.09-1.254 3.116-2.926 3.116-1.501 0-2.66-.741-2.983-1.824h-2.147c.266 2.318 2.337 3.705 5.13 3.705 3.268 0 5.11-2.147 5.11-4.997V7.531H70.54v1.52c-.646-.893-1.92-1.691-3.63-1.691-2.754 0-4.94 2.128-4.94 5.358zm8.569.038c0 2.261-1.54 3.534-3.173 3.534-1.615 0-3.173-1.311-3.173-3.572s1.558-3.477 3.173-3.477c1.634 0 3.173 1.273 3.173 3.515zM80.505 18h2.166V7.531h-2.166V18zm1.102-11.856c.76 0 1.368-.608 1.368-1.387s-.608-1.387-1.368-1.387a1.37 1.37 0 00-1.387 1.387 1.37 1.37 0 001.387 1.387zM92.944 18h2.147v-6.175c0-2.926-1.843-4.465-4.294-4.465-1.254 0-2.413.513-3.116 1.368V7.531h-2.166V18h2.166v-5.852c0-1.919 1.045-2.907 2.64-2.907 1.578 0 2.623.988 2.623 2.907V18zm9.161-11.438h3.534V18h2.166V6.562h3.515V4.795h-9.215v1.767zm15.817 2.622c1.615 0 2.888 1.026 2.926 2.641h-5.795c.228-1.653 1.406-2.641 2.869-2.641zm4.902 5.7h-2.337c-.399.817-1.14 1.463-2.47 1.463-1.596 0-2.831-1.045-2.983-2.774h7.999c.057-.361.076-.703.076-1.064 0-3.078-2.109-5.149-5.092-5.149-3.097 0-5.225 2.109-5.225 5.396s2.223 5.415 5.225 5.415c2.565 0 4.218-1.463 4.807-3.287zm1.694-2.128c0 3.287 2.128 5.415 5.13 5.415 2.565 0 4.237-1.425 4.826-3.477h-2.337c-.399 1.083-1.197 1.653-2.489 1.653-1.748 0-2.907-1.292-2.907-3.591 0-2.28 1.159-3.572 2.907-3.572 1.292 0 2.128.646 2.489 1.653h2.337c-.589-2.204-2.261-3.477-4.826-3.477-3.002 0-5.13 2.128-5.13 5.396zM136.633 18h2.166v-5.852c0-1.919 1.045-2.907 2.641-2.907 1.577 0 2.622.988 2.622 2.907V18h2.147v-6.175c0-2.926-1.824-4.465-4.161-4.465-1.349 0-2.527.513-3.249 1.387V3.94h-2.166V18zm19.768 0h2.147v-6.175c0-2.926-1.843-4.465-4.294-4.465-1.254 0-2.413.513-3.116 1.368V7.531h-2.166V18h2.166v-5.852c0-1.919 1.045-2.907 2.641-2.907 1.577 0 2.622.988 2.622 2.907V18zm14.885-5.244c0-3.287-2.356-5.396-5.339-5.396-2.983 0-5.339 2.109-5.339 5.396s2.261 5.415 5.244 5.415c3.002 0 5.434-2.128 5.434-5.415zm-8.474 0c0-2.375 1.463-3.515 3.097-3.515 1.615 0 3.154 1.14 3.154 3.515s-1.596 3.534-3.211 3.534c-1.634 0-3.04-1.159-3.04-3.534zM173.427 18h2.166V3.94h-2.166V18zm14.985-5.244c0-3.287-2.356-5.396-5.339-5.396-2.983 0-5.339 2.109-5.339 5.396s2.261 5.415 5.244 5.415c3.002 0 5.434-2.128 5.434-5.415zm-8.474 0c0-2.375 1.463-3.515 3.097-3.515 1.615 0 3.154 1.14 3.154 3.515s-1.596 3.534-3.211 3.534c-1.634 0-3.04-1.159-3.04-3.534zm9.893-.038c0 3.23 2.185 5.453 4.94 5.453 1.71 0 2.964-.855 3.629-1.748v1.748c0 2.09-1.254 3.116-2.926 3.116-1.501 0-2.66-.741-2.983-1.824h-2.147c.266 2.318 2.337 3.705 5.13 3.705 3.268 0 5.111-2.147 5.111-4.997V7.531H198.4v1.52c-.646-.893-1.919-1.691-3.629-1.691-2.755 0-4.94 2.128-4.94 5.358zm8.569.038c0 2.261-1.539 3.534-3.173 3.534-1.615 0-3.173-1.311-3.173-3.572s1.558-3.477 3.173-3.477c1.634 0 3.173 1.273 3.173 3.515zM203.43 18h2.166V7.531h-2.166V18zm1.102-11.856c.76 0 1.368-.608 1.368-1.387s-.608-1.387-1.368-1.387a1.37 1.37 0 00-1.387 1.387 1.37 1.37 0 001.387 1.387zm8.316 3.04c1.615 0 2.888 1.026 2.926 2.641h-5.795c.228-1.653 1.406-2.641 2.869-2.641zm4.902 5.7h-2.337c-.399.817-1.14 1.463-2.47 1.463-1.596 0-2.831-1.045-2.983-2.774h7.999c.057-.361.076-.703.076-1.064 0-3.078-2.109-5.149-5.092-5.149-3.097 0-5.225 2.109-5.225 5.396s2.223 5.415 5.225 5.415c2.565 0 4.218-1.463 4.807-3.287zM222.199 18h2.28l2.109-7.733L228.697 18h2.28l3.249-10.469h-2.128l-2.166 8.379-2.128-8.379h-2.261l-2.223 8.417-2.185-8.417h-2.204L222.199 18zm18.054-8.816c1.615 0 2.888 1.026 2.926 2.641h-5.795c.228-1.653 1.406-2.641 2.869-2.641zm4.902 5.7h-2.337c-.399.817-1.14 1.463-2.47 1.463-1.596 0-2.831-1.045-2.983-2.774h7.999c.057-.361.076-.703.076-1.064 0-3.078-2.109-5.149-5.092-5.149-3.097 0-5.225 2.109-5.225 5.396s2.223 5.415 5.225 5.415c2.565 0 4.218-1.463 4.807-3.287zm4.582-2.394c0-2.223.988-2.888 2.584-2.888h.551V7.36c-1.482 0-2.527.646-3.135 1.691v-1.52h-2.166V18h2.166v-5.51zm5.468 2.603c0 2.128 1.159 2.907 3.021 2.907h1.71v-1.805h-1.33c-.912 0-1.216-.323-1.216-1.102V9.298h2.546V7.531h-2.546V4.928h-2.185v2.603h-1.235v1.767h1.235v5.795zm11.136-5.909c1.615 0 2.888 1.026 2.926 2.641h-5.795c.228-1.653 1.406-2.641 2.869-2.641zm4.902 5.7h-2.337c-.399.817-1.14 1.463-2.47 1.463-1.596 0-2.831-1.045-2.983-2.774h7.999c.057-.361.076-.703.076-1.064 0-3.078-2.109-5.149-5.092-5.149-3.097 0-5.225 2.109-5.225 5.396s2.223 5.415 5.225 5.415c2.565 0 4.218-1.463 4.807-3.287zm6.63-2.166c0 3.23 2.185 5.453 4.902 5.453 1.748 0 3.002-.836 3.667-1.729V18h2.185V7.531h-2.185v1.52c-.646-.855-1.862-1.691-3.629-1.691-2.755 0-4.94 2.128-4.94 5.358zm8.569.038c0 2.261-1.539 3.534-3.173 3.534-1.615 0-3.173-1.311-3.173-3.572s1.558-3.477 3.173-3.477c1.634 0 3.173 1.273 3.173 3.515zm7.196-3.667V3.94h-2.166V18h2.166v-1.52c.684.912 1.919 1.691 3.648 1.691 2.755 0 4.921-2.223 4.921-5.453 0-3.23-2.147-5.358-4.921-5.358-1.653 0-2.964.779-3.648 1.729zm6.365 3.629c0 2.261-1.558 3.572-3.192 3.572-1.615 0-3.173-1.273-3.173-3.534 0-2.242 1.558-3.515 3.173-3.515 1.634 0 3.192 1.216 3.192 3.477zm8.958-5.149h2.109c.133-.969.836-1.881 2.356-1.881 1.482 0 2.261.798 2.261 1.995 0 1.482-1.197 2.052-3.154 2.071h-.513v1.786h.494c2.261 0 3.439.627 3.439 2.451 0 1.292-.798 2.28-2.413 2.28-1.634 0-2.584-.988-2.679-2.28h-2.09c.133 2.717 2.166 4.085 4.788 4.085 2.888 0 4.446-1.672 4.446-3.876 0-1.919-.931-3.116-2.375-3.553v-.076c1.083-.361 2.128-1.482 2.128-3.135 0-2.014-1.501-3.61-4.256-3.61-2.527 0-4.389 1.349-4.541 3.743zm18.706 3.306V6.562h2.394c1.691 0 2.451.798 2.451 2.166 0 1.33-.76 2.147-2.451 2.147h-2.394zm7.068-2.147c0-2.147-1.539-3.933-4.674-3.933h-4.56V18h2.166v-5.358h2.394c3.439 0 4.674-2.033 4.674-3.914zM336.801 18h2.166v-4.503L342.843 18h2.926l-4.826-5.225 4.826-5.244h-3.002l-3.8 4.579V3.94h-2.166V18zm10.862-2.907c0 2.128 1.159 2.907 3.021 2.907h1.71v-1.805h-1.33c-.912 0-1.216-.323-1.216-1.102V9.298h2.546V7.531h-2.546V4.928h-2.185v2.603h-1.235v1.767h1.235v5.795zm8.97 1.653c0-.779-.608-1.387-1.368-1.387a1.37 1.37 0 00-1.387 1.387 1.37 1.37 0 001.387 1.387c.76 0 1.368-.608 1.368-1.387zM7.188 31.612V40h-.84v-3.924H1.8V40H.96v-8.388h.84v3.768h4.548v-3.768h.84zm1.533 5.1c0-.672.132-1.26.396-1.764a2.881 2.881 0 011.115-1.176c.48-.28 1.02-.42 1.62-.42.624 0 1.16.144 1.608.432.456.288.784.656.984 1.104v-1.44h.84V40h-.84v-1.452c-.208.448-.54.82-.996 1.116-.447.288-.984.432-1.607.432-.592 0-1.128-.14-1.608-.42a2.964 2.964 0 01-1.116-1.188c-.264-.512-.396-1.104-.396-1.776zm5.723.012c0-.528-.108-.992-.324-1.392a2.3 2.3 0 00-.887-.924 2.373 2.373 0 00-1.225-.324c-.463 0-.88.104-1.247.312-.368.208-.66.512-.876.912-.208.392-.312.86-.312 1.404 0 .536.104 1.008.312 1.416.216.4.508.708.876.924.368.208.784.312 1.248.312.447 0 .855-.108 1.223-.324a2.3 2.3 0 00.889-.924c.215-.4.323-.864.323-1.392zm5.83-3.396c.784 0 1.424.244 1.92.732.496.48.744 1.18.744 2.1V40h-.828v-3.744c0-.712-.18-1.256-.54-1.632-.352-.376-.836-.564-1.452-.564-.632 0-1.136.2-1.512.6-.376.4-.564.988-.564 1.764V40h-.84v-6.552h.84v1.116c.208-.4.508-.704.9-.912a2.714 2.714 0 011.332-.324zm4.138 3.384c0-.672.136-1.26.408-1.764a2.881 2.881 0 011.116-1.176c.48-.28 1.02-.42 1.62-.42.576 0 1.096.14 1.56.42.464.28.804.644 1.02 1.092V31.12h.84V40h-.84v-1.464a2.56 2.56 0 01-.984 1.128c-.456.288-.992.432-1.608.432-.6 0-1.14-.14-1.62-.42a2.964 2.964 0 01-1.116-1.188c-.264-.512-.396-1.104-.396-1.776zm5.724.012c0-.528-.108-.992-.324-1.392a2.3 2.3 0 00-.888-.924 2.373 2.373 0 00-1.224-.324c-.464 0-.88.104-1.248.312-.368.208-.66.512-.876.912-.208.392-.312.86-.312 1.404 0 .536.104 1.008.312 1.416.216.4.508.708.876.924.368.208.784.312 1.248.312.448 0 .856-.108 1.224-.324a2.3 2.3 0 00.888-.924c.216-.4.324-.864.324-1.392zm8.686-.336c0 .288-.008.508-.024.66h-5.436c.024.496.144.92.36 1.272s.5.62.852.804a2.54 2.54 0 001.152.264c.544 0 1-.132 1.368-.396a1.85 1.85 0 00.744-1.068h.888a2.792 2.792 0 01-1.032 1.572c-.52.4-1.176.6-1.968.6a3.343 3.343 0 01-1.656-.408 3.016 3.016 0 01-1.152-1.176c-.272-.512-.408-1.108-.408-1.788 0-.68.136-1.276.408-1.788a2.836 2.836 0 011.14-1.176c.488-.272 1.044-.408 1.668-.408.624 0 1.168.136 1.632.408.472.272.832.64 1.08 1.104.256.456.384.964.384 1.524zm-.852-.024c.008-.488-.092-.904-.3-1.248a1.947 1.947 0 00-.828-.78 2.54 2.54 0 00-1.152-.264c-.624 0-1.156.2-1.596.6-.44.4-.684.964-.732 1.692h4.608zm3.228-5.244V40h-.84v-8.88h.84zm4.812 5.592c0-.672.136-1.26.408-1.764a2.881 2.881 0 011.116-1.176c.48-.28 1.02-.42 1.62-.42.576 0 1.096.14 1.56.42.464.28.804.644 1.02 1.092V31.12h.84V40h-.84v-1.464a2.56 2.56 0 01-.984 1.128c-.456.288-.992.432-1.608.432-.6 0-1.14-.14-1.62-.42a2.964 2.964 0 01-1.116-1.188c-.264-.512-.396-1.104-.396-1.776zm5.724.012c0-.528-.108-.992-.324-1.392a2.3 2.3 0 00-.888-.924 2.373 2.373 0 00-1.224-.324c-.464 0-.88.104-1.248.312-.368.208-.66.512-.876.912-.208.392-.312.86-.312 1.404 0 .536.104 1.008.312 1.416.216.4.508.708.876.924.368.208.784.312 1.248.312.448 0 .856-.108 1.224-.324a2.3 2.3 0 00.888-.924c.216-.4.324-.864.324-1.392zm8.685-.336c0 .288-.008.508-.024.66H54.96c.024.496.144.92.36 1.272s.5.62.852.804a2.54 2.54 0 001.152.264c.544 0 1-.132 1.368-.396a1.85 1.85 0 00.744-1.068h.888a2.792 2.792 0 01-1.032 1.572c-.52.4-1.176.6-1.968.6a3.343 3.343 0 01-1.656-.408 3.016 3.016 0 01-1.152-1.176c-.272-.512-.408-1.108-.408-1.788 0-.68.136-1.276.408-1.788a2.836 2.836 0 011.14-1.176c.488-.272 1.044-.408 1.668-.408.624 0 1.168.136 1.632.408.472.272.832.64 1.08 1.104.256.456.384.964.384 1.524zm-.852-.024c.008-.488-.092-.904-.3-1.248a1.947 1.947 0 00-.828-.78 2.54 2.54 0 00-1.152-.264c-.624 0-1.156.2-1.596.6-.44.4-.684.964-.732 1.692h4.608zm5.461-3.036c.784 0 1.424.244 1.92.732.496.48.744 1.18.744 2.1V40h-.828v-3.744c0-.712-.18-1.256-.54-1.632-.352-.376-.836-.564-1.452-.564-.632 0-1.136.2-1.512.6-.376.4-.564.988-.564 1.764V40h-.84v-6.552h.84v1.116c.208-.4.508-.704.9-.912a2.714 2.714 0 011.332-.324zm8.619-1.716v5.28c0 .832.196 1.448.588 1.848.4.4.944.6 1.632.6s1.224-.196 1.608-.588c.392-.4.588-1.02.588-1.86v-5.28h.84v5.268c0 1.064-.284 1.864-.852 2.4-.56.536-1.292.804-2.196.804-.904 0-1.64-.268-2.208-.804-.56-.536-.84-1.336-.84-2.4v-5.268h.84zm9.673 8.472c-.552 0-1.04-.096-1.464-.288a2.391 2.391 0 01-.984-.804 2.111 2.111 0 01-.384-1.152h.888c.04.408.22.768.54 1.08.32.304.788.456 1.404.456.568 0 1.016-.144 1.344-.432.336-.296.504-.668.504-1.116 0-.36-.092-.648-.276-.864a1.618 1.618 0 00-.684-.492 9.585 9.585 0 00-1.128-.36 9.862 9.862 0 01-1.332-.444 2.12 2.12 0 01-.84-.672c-.232-.304-.348-.716-.348-1.236 0-.432.112-.816.336-1.152.224-.344.54-.612.948-.804.408-.192.876-.288 1.404-.288.776 0 1.4.192 1.872.576.48.376.756.864.828 1.464h-.912c-.056-.344-.244-.648-.564-.912-.32-.272-.752-.408-1.296-.408-.504 0-.924.136-1.26.408-.336.264-.504.628-.504 1.092 0 .352.092.636.276.852.184.216.412.38.684.492.28.112.656.232 1.128.36.544.152.984.304 1.32.456a2.1 2.1 0 01.852.672c.232.304.348.712.348 1.224 0 .392-.104.764-.312 1.116a2.277 2.277 0 01-.924.852c-.408.216-.896.324-1.464.324zm12.525-8.472v.696h-2.328V40h-.84v-7.692h-2.34v-.696h5.508zm7.254 4.776c0 .288-.008.508-.024.66h-5.436c.024.496.144.92.36 1.272s.5.62.852.804a2.54 2.54 0 001.152.264c.544 0 1-.132 1.368-.396a1.85 1.85 0 00.744-1.068h.888a2.792 2.792 0 01-1.032 1.572c-.52.4-1.176.6-1.968.6a3.343 3.343 0 01-1.656-.408 3.016 3.016 0 01-1.152-1.176c-.272-.512-.408-1.108-.408-1.788 0-.68.136-1.276.408-1.788a2.836 2.836 0 011.14-1.176c.488-.272 1.044-.408 1.668-.408.624 0 1.168.136 1.632.408.472.272.832.64 1.08 1.104.256.456.384.964.384 1.524zm-.852-.024c.008-.488-.092-.904-.3-1.248a1.947 1.947 0 00-.828-.78 2.54 2.54 0 00-1.152-.264c-.624 0-1.156.2-1.596.6-.44.4-.684.964-.732 1.692h4.608zm2.005.36c0-.68.136-1.272.408-1.776a2.858 2.858 0 011.128-1.176c.48-.28 1.028-.42 1.644-.42.808 0 1.472.2 1.992.6.528.4.868.944 1.02 1.632h-.9a1.808 1.808 0 00-.732-1.104c-.368-.272-.828-.408-1.38-.408-.44 0-.836.1-1.188.3-.352.2-.632.5-.84.9-.2.392-.3.876-.3 1.452s.1 1.064.3 1.464c.208.4.488.7.84.9.352.2.748.3 1.188.3.552 0 1.012-.132 1.38-.396.376-.272.62-.648.732-1.128h.9a2.748 2.748 0 01-1.02 1.62c-.528.408-1.192.612-1.992.612-.616 0-1.164-.136-1.644-.408a2.957 2.957 0 01-1.128-1.176c-.272-.512-.408-1.108-.408-1.788zm10.863-3.396c.496 0 .94.104 1.332.312.4.208.712.528.936.96.232.424.348.944.348 1.56V40h-.828v-3.744c0-.712-.18-1.256-.54-1.632-.352-.376-.836-.564-1.452-.564-.632 0-1.136.2-1.512.6-.376.4-.564.988-.564 1.764V40h-.84v-8.88h.84v3.444a2.18 2.18 0 01.912-.912 2.878 2.878 0 011.368-.324zm7.179-1.176v-.756h2.04V40h-.852v-7.848h-1.188zm3.912 3.468c0-1.376.212-2.444.636-3.204.424-.76 1.184-1.14 2.28-1.14 1.096 0 1.856.38 2.28 1.14.424.76.636 1.828.636 3.204 0 1.4-.212 2.484-.636 3.252-.424.768-1.184 1.152-2.28 1.152-1.104 0-1.868-.384-2.292-1.152-.416-.768-.624-1.852-.624-3.252zm5.004 0c0-.744-.052-1.372-.156-1.884-.104-.512-.308-.924-.612-1.236-.304-.312-.744-.468-1.32-.468-.576 0-1.016.156-1.32.468-.304.312-.508.724-.612 1.236-.104.512-.156 1.14-.156 1.884 0 .768.052 1.412.156 1.932.104.512.308.924.612 1.236.304.312.744.468 1.32.468.576 0 1.016-.156 1.32-.468.304-.312.508-.724.612-1.236.104-.52.156-1.164.156-1.932zm2.39 0c0-1.376.212-2.444.636-3.204.424-.76 1.184-1.14 2.28-1.14 1.096 0 1.856.38 2.28 1.14.424.76.636 1.828.636 3.204 0 1.4-.212 2.484-.636 3.252-.424.768-1.184 1.152-2.28 1.152-1.104 0-1.868-.384-2.292-1.152-.416-.768-.624-1.852-.624-3.252zm5.004 0c0-.744-.052-1.372-.156-1.884-.104-.512-.308-.924-.612-1.236-.304-.312-.744-.468-1.32-.468-.576 0-1.016.156-1.32.468-.304.312-.508.724-.612 1.236-.104.512-.156 1.14-.156 1.884 0 .768.052 1.412.156 1.932.104.512.308.924.612 1.236.304.312.744.468 1.32.468.576 0 1.016-.156 1.32-.468.304-.312.508-.724.612-1.236.104-.52.156-1.164.156-1.932zm5.48 1.092c0-.672.132-1.26.396-1.764a2.881 2.881 0 011.116-1.176c.48-.28 1.02-.42 1.62-.42.624 0 1.16.144 1.608.432.456.288.784.656.984 1.104v-1.44h.84V40h-.84v-1.452c-.208.448-.54.82-.996 1.116-.448.288-.984.432-1.608.432-.592 0-1.128-.14-1.608-.42a2.964 2.964 0 01-1.116-1.188c-.264-.512-.396-1.104-.396-1.776zm5.724.012c0-.528-.108-.992-.324-1.392a2.3 2.3 0 00-.888-.924 2.373 2.373 0 00-1.224-.324c-.464 0-.88.104-1.248.312-.368.208-.66.512-.876.912-.208.392-.312.86-.312 1.404 0 .536.104 1.008.312 1.416.216.4.508.708.876.924.368.208.784.312 1.248.312.448 0 .856-.108 1.224-.324a2.3 2.3 0 00.888-.924c.216-.4.324-.864.324-1.392zm8.433-3.276V40h-.84v-1.152c-.192.408-.488.72-.888.936-.4.216-.848.324-1.344.324-.784 0-1.424-.24-1.92-.72-.496-.488-.744-1.192-.744-2.112v-3.828h.828v3.732c0 .712.176 1.256.528 1.632.36.376.848.564 1.464.564.632 0 1.136-.2 1.512-.6.376-.4.564-.988.564-1.764v-3.564h.84zm4.498.708h-1.524V40h-.84v-5.844h-.912v-.708h.912v-.456c0-.712.18-1.236.54-1.572.368-.336.96-.504 1.776-.504v.72c-.544 0-.928.104-1.152.312-.216.208-.324.556-.324 1.044v.456h1.524v.708zM6.888 53.388c0 .288-.008.508-.024.66H1.428c.024.496.144.92.36 1.272s.5.62.852.804a2.54 2.54 0 001.152.264c.544 0 1-.132 1.368-.396a1.85 1.85 0 00.744-1.068h.888a2.792 2.792 0 01-1.032 1.572c-.52.4-1.176.6-1.968.6a3.343 3.343 0 01-1.656-.408 3.016 3.016 0 01-1.152-1.176C.712 55 .576 54.404.576 53.724c0-.68.136-1.276.408-1.788a2.836 2.836 0 011.14-1.176c.488-.272 1.044-.408 1.668-.408.624 0 1.168.136 1.632.408.472.272.832.64 1.08 1.104.256.456.384.964.384 1.524zm-.852-.024c.008-.488-.092-.904-.3-1.248a1.947 1.947 0 00-.828-.78 2.54 2.54 0 00-1.152-.264c-.624 0-1.156.2-1.596.6-.44.4-.684.964-.732 1.692h4.608zm2.809-4.152a.59.59 0 01-.432-.18.603.603 0 01-.18-.444c0-.176.06-.32.18-.432a.59.59 0 01.432-.18.59.59 0 01.432.18c.12.112.18.256.18.432s-.06.324-.18.444a.59.59 0 01-.432.18zm.42 1.236V57h-.84v-6.552h.84zm4.974-.12c.784 0 1.424.244 1.92.732.496.48.744 1.18.744 2.1V57h-.828v-3.744c0-.712-.18-1.256-.54-1.632-.352-.376-.836-.564-1.452-.564-.632 0-1.136.2-1.512.6-.376.4-.564.988-.564 1.764V57h-.84v-6.552h.84v1.116c.208-.4.508-.704.9-.912a2.714 2.714 0 011.332-.324zm10.45 3.06c0 .288-.008.508-.024.66h-5.436c.024.496.144.92.36 1.272s.5.62.852.804a2.54 2.54 0 001.152.264c.544 0 1-.132 1.368-.396a1.85 1.85 0 00.744-1.068h.888a2.792 2.792 0 01-1.032 1.572c-.52.4-1.176.6-1.968.6a3.343 3.343 0 01-1.656-.408 3.016 3.016 0 01-1.152-1.176c-.272-.512-.408-1.108-.408-1.788 0-.68.136-1.276.408-1.788a2.836 2.836 0 011.14-1.176c.488-.272 1.044-.408 1.668-.408.624 0 1.168.136 1.632.408.472.272.832.64 1.08 1.104.256.456.384.964.384 1.524zm-.852-.024c.008-.488-.092-.904-.3-1.248a1.947 1.947 0 00-.828-.78 2.54 2.54 0 00-1.152-.264c-.624 0-1.156.2-1.596.6-.44.4-.684.964-.732 1.692h4.608zm3.229-1.752c.184-.408.464-.724.84-.948.384-.224.852-.336 1.404-.336v.876h-.228c-.608 0-1.096.164-1.464.492-.368.328-.552.876-.552 1.644V57h-.84v-6.552h.84v1.164zm7.628.276c.208-.44.536-.804.984-1.092.456-.296.996-.444 1.62-.444.592 0 1.124.14 1.596.42.48.272.852.664 1.116 1.176.272.504.408 1.092.408 1.764 0 .672-.136 1.264-.408 1.776a2.86 2.86 0 01-1.116 1.188c-.472.28-1.004.42-1.596.42-.616 0-1.152-.144-1.608-.432-.456-.296-.788-.664-.996-1.104v4.536h-.828v-9.648h.828v1.44zm4.872 1.824c0-.544-.108-1.012-.324-1.404a2.165 2.165 0 00-.864-.912 2.492 2.492 0 00-1.248-.312c-.448 0-.86.108-1.236.324-.368.216-.66.524-.876.924-.216.4-.324.864-.324 1.392 0 .528.108.992.324 1.392.216.4.508.708.876.924.376.216.788.324 1.236.324.464 0 .88-.104 1.248-.312.368-.216.656-.524.864-.924.216-.408.324-.88.324-1.416zm3.238-2.1c.184-.408.464-.724.84-.948.384-.224.852-.336 1.404-.336v.876h-.228c-.608 0-1.096.164-1.464.492-.368.328-.552.876-.552 1.644V57h-.84v-6.552h.84v1.164zm9.436 1.776c0 .288-.008.508-.024.66H46.78c.024.496.144.92.36 1.272s.5.62.852.804a2.54 2.54 0 001.152.264c.544 0 1-.132 1.368-.396a1.85 1.85 0 00.744-1.068h.888a2.792 2.792 0 01-1.032 1.572c-.52.4-1.176.6-1.968.6a3.343 3.343 0 01-1.656-.408 3.016 3.016 0 01-1.152-1.176c-.272-.512-.408-1.108-.408-1.788 0-.68.136-1.276.408-1.788a2.836 2.836 0 011.14-1.176c.488-.272 1.044-.408 1.668-.408.624 0 1.168.136 1.632.408.472.272.832.64 1.08 1.104.256.456.384.964.384 1.524zm-.852-.024c.008-.488-.092-.904-.3-1.248a1.947 1.947 0 00-.828-.78 2.54 2.54 0 00-1.152-.264c-.624 0-1.156.2-1.596.6-.44.4-.684.964-.732 1.692h4.608zm2.808-4.152a.59.59 0 01-.432-.18.603.603 0 01-.18-.444c0-.176.06-.32.18-.432a.59.59 0 01.432-.18.59.59 0 01.432.18c.12.112.18.256.18.432s-.06.324-.18.444a.59.59 0 01-.432.18zm.42 1.236V57h-.84v-6.552h.84zm4.159 6.648c-.752 0-1.368-.172-1.848-.516-.472-.352-.736-.828-.792-1.428h.864c.04.368.212.668.516.9.312.224.728.336 1.248.336.456 0 .812-.108 1.068-.324.264-.216.396-.484.396-.804a.748.748 0 00-.216-.552 1.462 1.462 0 00-.552-.336 7.128 7.128 0 00-.888-.276 9.09 9.09 0 01-1.188-.384 2.103 2.103 0 01-.78-.564c-.208-.256-.312-.596-.312-1.02 0-.32.096-.616.288-.888.192-.272.464-.488.816-.648a2.87 2.87 0 011.2-.24c.704 0 1.272.18 1.704.54.432.352.664.84.696 1.464h-.84a1.248 1.248 0 00-.456-.924c-.272-.24-.648-.36-1.128-.36-.424 0-.768.1-1.032.3-.264.2-.396.448-.396.744 0 .256.076.468.228.636.16.16.356.288.588.384.232.088.544.188.936.3a8.84 8.84 0 011.128.372c.28.12.52.296.72.528.2.232.304.54.312.924 0 .352-.096.668-.288.948-.192.272-.46.488-.804.648-.344.16-.74.24-1.188.24zm6.609-6.744c.616 0 1.152.144 1.608.432.456.288.784.652.984 1.092v-1.428h.84v6.72c0 .6-.132 1.132-.396 1.596a2.62 2.62 0 01-1.08 1.068c-.464.256-.992.384-1.584.384-.84 0-1.54-.2-2.1-.6a2.553 2.553 0 01-1.032-1.632h.828c.144.456.416.82.816 1.092.408.272.904.408 1.488.408.424 0 .804-.092 1.14-.276.336-.176.6-.44.792-.792.192-.352.288-.768.288-1.248v-1.62c-.208.448-.54.82-.996 1.116-.448.288-.98.432-1.596.432-.6 0-1.14-.14-1.62-.42a2.964 2.964 0 01-1.116-1.188c-.264-.512-.396-1.104-.396-1.776 0-.672.132-1.26.396-1.764a2.881 2.881 0 011.116-1.176c.48-.28 1.02-.42 1.62-.42zm2.592 3.372c0-.528-.108-.992-.324-1.392a2.3 2.3 0 00-.888-.924 2.373 2.373 0 00-1.224-.324c-.464 0-.88.104-1.248.312-.368.208-.66.512-.876.912-.208.392-.312.86-.312 1.404 0 .536.104 1.008.312 1.416.216.4.508.708.876.924.368.208.784.312 1.248.312.448 0 .856-.108 1.224-.324a2.3 2.3 0 00.888-.924c.216-.4.324-.864.324-1.392zm8.685-.336c0 .288-.008.508-.024.66h-5.436c.024.496.144.92.36 1.272s.5.62.852.804a2.54 2.54 0 001.152.264c.544 0 1-.132 1.368-.396a1.85 1.85 0 00.744-1.068h.888a2.792 2.792 0 01-1.032 1.572c-.52.4-1.176.6-1.968.6a3.343 3.343 0 01-1.656-.408 3.016 3.016 0 01-1.152-1.176c-.272-.512-.408-1.108-.408-1.788 0-.68.136-1.276.408-1.788a2.836 2.836 0 011.14-1.176c.488-.272 1.044-.408 1.668-.408.624 0 1.168.136 1.632.408.472.272.832.64 1.08 1.104.256.456.384.964.384 1.524zm-.852-.024c.008-.488-.092-.904-.3-1.248a1.947 1.947 0 00-.828-.78 2.54 2.54 0 00-1.152-.264c-.624 0-1.156.2-1.596.6-.44.4-.684.964-.732 1.692h4.608zM81.74 57l-2.7-2.94V57h-.84v-8.88h.84v5.256l2.64-2.928h1.175l-3.108 3.264L82.878 57h-1.14zm3.065-5.388c.184-.408.464-.724.84-.948.384-.224.852-.336 1.404-.336v.876h-.228c-.608 0-1.096.164-1.464.492-.368.328-.552.876-.552 1.644V57h-.84v-6.552h.84v1.164zm6.376 5.484a3.411 3.411 0 01-1.668-.408 3.1 3.1 0 01-1.164-1.176c-.28-.512-.42-1.108-.42-1.788 0-.68.144-1.272.432-1.776a2.97 2.97 0 011.176-1.176 3.333 3.333 0 011.668-.42c.616 0 1.172.14 1.668.42.504.272.896.664 1.176 1.176.288.504.432 1.096.432 1.776 0 .672-.144 1.264-.432 1.776a3.03 3.03 0 01-1.188 1.188 3.48 3.48 0 01-1.68.408zm0-.732c.432 0 .832-.096 1.2-.288.368-.2.664-.496.888-.888.232-.4.348-.888.348-1.464s-.112-1.06-.336-1.452c-.224-.4-.52-.696-.888-.888-.368-.2-.768-.3-1.2-.3-.432 0-.832.1-1.2.3a2.157 2.157 0 00-.888.888c-.216.392-.324.876-.324 1.452s.108 1.064.324 1.464c.224.392.516.688.876.888.368.192.768.288 1.2.288zm-.876-6.9a.563.563 0 01-.396-.156.563.563 0 01-.156-.396c0-.152.052-.28.156-.384a.542.542 0 01.396-.168c.152 0 .28.056.384.168a.503.503 0 01.168.384.542.542 0 01-.168.396.522.522 0 01-.384.156zm1.848 0a.563.563 0 01-.396-.156.563.563 0 01-.156-.396c0-.152.052-.28.156-.384a.542.542 0 01.396-.168c.152 0 .28.056.384.168a.522.522 0 01.156.384.563.563 0 01-.156.396.522.522 0 01-.384.156zm6.93.864c.785 0 1.425.244 1.921.732.496.48.744 1.18.744 2.1V57h-.828v-3.744c0-.712-.18-1.256-.54-1.632-.352-.376-.836-.564-1.452-.564-.632 0-1.136.2-1.512.6-.376.4-.564.988-.564 1.764V57h-.84v-6.552h.84v1.116c.208-.4.508-.704.9-.912a2.714 2.714 0 011.332-.324zm5.615.828v4.068c0 .4.076.676.228.828.152.152.42.228.804.228h.768V57h-.9c-.592 0-1.032-.136-1.32-.408-.288-.28-.432-.736-.432-1.368v-4.068h-.912v-.708h.912v-1.644h.852v1.644h1.8v.708h-1.8zm9.113 2.232c0 .288-.008.508-.024.66h-5.436c.024.496.144.92.36 1.272s.5.62.852.804a2.54 2.54 0 001.152.264c.544 0 1-.132 1.368-.396a1.85 1.85 0 00.744-1.068h.888a2.792 2.792 0 01-1.032 1.572c-.52.4-1.176.6-1.968.6a3.343 3.343 0 01-1.656-.408 3.016 3.016 0 01-1.152-1.176c-.272-.512-.408-1.108-.408-1.788 0-.68.136-1.276.408-1.788a2.836 2.836 0 011.14-1.176c.488-.272 1.044-.408 1.668-.408.624 0 1.168.136 1.632.408.472.272.832.64 1.08 1.104.256.456.384.964.384 1.524zm-.852-.024c.008-.488-.092-.904-.3-1.248a1.947 1.947 0 00-.828-.78 2.54 2.54 0 00-1.152-.264c-.624 0-1.156.2-1.596.6-.44.4-.684.964-.732 1.692h4.608zm5.461-3.036c.784 0 1.424.244 1.92.732.496.48.744 1.18.744 2.1V57h-.828v-3.744c0-.712-.18-1.256-.54-1.632-.352-.376-.836-.564-1.452-.564-.632 0-1.136.2-1.512.6-.376.4-.564.988-.564 1.764V57h-.84v-6.552h.84v1.116c.208-.4.508-.704.9-.912a2.714 2.714 0 011.332-.324zm13.178.696c0 .72-.236 1.3-.708 1.74-.472.44-1.18.66-2.124.66h-1.692V57h-.84v-8.388h2.532c.936 0 1.64.22 2.112.66.48.44.72 1.024.72 1.752zm-2.832 1.68c1.312 0 1.968-.56 1.968-1.68 0-.56-.156-.984-.468-1.272-.312-.288-.812-.432-1.5-.432h-1.692v3.384h1.692zm5.082-4.584V57h-.84v-8.88h.84zm1.518 5.592c0-.672.132-1.26.396-1.764a2.881 2.881 0 011.116-1.176c.48-.28 1.02-.42 1.62-.42.624 0 1.16.144 1.608.432.456.288.784.656.984 1.104v-1.44h.84V57h-.84v-1.452c-.208.448-.54.82-.996 1.116-.448.288-.984.432-1.608.432-.592 0-1.128-.14-1.608-.42a2.964 2.964 0 01-1.116-1.188c-.264-.512-.396-1.104-.396-1.776zm5.724.012c0-.528-.108-.992-.324-1.392a2.3 2.3 0 00-.888-.924 2.373 2.373 0 00-1.224-.324c-.464 0-.88.104-1.248.312-.368.208-.66.512-.876.912-.208.392-.312.86-.312 1.404 0 .536.104 1.008.312 1.416.216.4.508.708.876.924.368.208.784.312 1.248.312.448 0 .856-.108 1.224-.324a2.3 2.3 0 00.888-.924c.216-.4.324-.864.324-1.392zm3.85-2.568v4.068c0 .4.076.676.228.828.152.152.42.228.804.228h.768V57h-.9c-.592 0-1.032-.136-1.32-.408-.288-.28-.432-.736-.432-1.368v-4.068h-.912v-.708h.912v-1.644h.852v1.644h1.8v.708h-1.8zm4.277 0v4.068c0 .4.076.676.228.828.152.152.42.228.804.228h.768V57h-.9c-.592 0-1.032-.136-1.32-.408-.288-.28-.432-.736-.432-1.368v-4.068h-.912v-.708h.912v-1.644h.852v1.644h1.8v.708h-1.8zm5.765 0h-1.524V57h-.84v-5.844h-.912v-.708h.912v-.456c0-.712.18-1.236.54-1.572.368-.336.96-.504 1.776-.504v.72c-.544 0-.928.104-1.152.312-.216.208-.324.556-.324 1.044v.456h1.524v.708zm4.191 5.94a3.411 3.411 0 01-1.668-.408 3.1 3.1 0 01-1.164-1.176c-.28-.512-.42-1.108-.42-1.788 0-.68.144-1.272.432-1.776a2.97 2.97 0 011.176-1.176 3.333 3.333 0 011.668-.42c.616 0 1.172.14 1.668.42.504.272.896.664 1.176 1.176.288.504.432 1.096.432 1.776 0 .672-.144 1.264-.432 1.776a3.03 3.03 0 01-1.188 1.188 3.48 3.48 0 01-1.68.408zm0-.732c.432 0 .832-.096 1.2-.288.368-.2.664-.496.888-.888.232-.4.348-.888.348-1.464s-.112-1.06-.336-1.452c-.224-.4-.52-.696-.888-.888-.368-.2-.768-.3-1.2-.3-.432 0-.832.1-1.2.3a2.157 2.157 0 00-.888.888c-.216.392-.324.876-.324 1.452s.108 1.064.324 1.464c.224.392.516.688.876.888.368.192.768.288 1.2.288zm5.671-4.752c.184-.408.464-.724.84-.948.384-.224.852-.336 1.404-.336v.876h-.228c-.608 0-1.096.164-1.464.492-.368.328-.552.876-.552 1.644V57h-.84v-6.552h.84v1.164zm11.308-1.284c.768 0 1.392.244 1.872.732.488.48.732 1.18.732 2.1V57h-.828v-3.744c0-.712-.172-1.256-.516-1.632-.344-.376-.812-.564-1.404-.564-.616 0-1.108.204-1.476.612-.368.408-.552 1-.552 1.776V57h-.828v-3.744c0-.712-.172-1.256-.516-1.632-.344-.376-.816-.564-1.416-.564-.616 0-1.108.204-1.476.612-.368.408-.552 1-.552 1.776V57h-.84v-6.552h.84v1.128c.208-.408.504-.716.888-.924a2.573 2.573 0 011.284-.324c.568 0 1.064.136 1.488.408.432.272.744.672.936 1.2.176-.52.476-.916.9-1.188.432-.28.92-.42 1.464-.42z" fill="#fff"/></svg>