<svg width="91" height="90" viewBox="0 0 91 90" fill="none" xmlns="http://www.w3.org/2000/svg"><path fill="#fff" d="M0 0h91v90H0z"/><path d="M10.703 7.313v.625L8.906 13H7.75l1.805-4.777h-2.29v-.91h3.438zm3.14-.012V13H12.75V8.645l-1.086.418v-.915l2.063-.847h.117zm1.747 5.14c0-.171.057-.315.172-.43a.62.62 0 01.465-.175.62.62 0 01.464.176.583.583 0 01.172.43.583.583 0 01-.172.43.628.628 0 01-.464.171.628.628 0 01-.465-.172.583.583 0 01-.172-.43zM20.28 7.25h.145v.93h-.051c-.247 0-.463.043-.648.129a1.183 1.183 0 00-.457.367c-.12.159-.21.351-.27.578a2.92 2.92 0 00-.09.754v.957c0 .198.013.372.04.523.028.151.068.278.12.38a.65.65 0 00.188.222.416.416 0 00.48-.004.661.661 0 00.188-.215c.052-.094.09-.203.117-.328a1.84 1.84 0 00.043-.41c0-.151-.014-.29-.043-.414a1.187 1.187 0 00-.121-.324.596.596 0 00-.192-.215.413.413 0 00-.246-.078.503.503 0 00-.34.12.745.745 0 00-.214.305 1.14 1.14 0 00-.082.387l-.328-.234c.01-.198.046-.384.109-.559.065-.177.154-.336.265-.476.113-.141.247-.25.403-.329.156-.08.332-.12.527-.12.227 0 .425.05.594.152.17.101.31.24.422.418.114.177.2.382.254.617.057.232.086.479.086.742 0 .276-.04.533-.117.77a1.945 1.945 0 01-.332.62 1.503 1.503 0 01-1.212.563c-.26 0-.496-.055-.706-.164a1.608 1.608 0 01-.54-.465 2.24 2.24 0 01-.34-.719 3.352 3.352 0 01-.117-.914v-.441c0-.458.054-.878.16-1.258.107-.383.265-.713.473-.992.211-.279.469-.493.774-.645.307-.153.66-.23 1.058-.23zm3.414 1.457v-.3c0-.217.04-.414.117-.59.081-.178.2-.32.356-.426.159-.107.355-.16.59-.16.237 0 .435.053.594.16a.953.953 0 01.351.425c.078.177.117.374.117.59v.301c0 .211-.039.405-.117.582a.978.978 0 01-.355.426c-.157.107-.352.16-.586.16-.235 0-.431-.053-.59-.16a1.004 1.004 0 01-.36-.426 1.426 1.426 0 01-.117-.582zm.715-.3v.3c0 .089.013.173.04.254a.459.459 0 00.116.191c.053.047.118.07.196.07a.267.267 0 00.191-.07.446.446 0 00.11-.191.823.823 0 00.039-.254v-.3a.812.812 0 00-.04-.259.4.4 0 00-.113-.191.272.272 0 00-.195-.074.272.272 0 00-.195.074.447.447 0 00-.114.191.896.896 0 00-.035.258zm1.531 3.503v-.305c0-.213.04-.408.122-.585.08-.178.199-.32.355-.426.159-.107.354-.16.586-.16.24 0 .437.053.594.16a.987.987 0 01.351.426c.08.177.121.372.121.585v.305c0 .214-.039.409-.117.586a.983.983 0 01-.355.422c-.157.107-.352.16-.586.16-.235 0-.433-.053-.594-.16a1.004 1.004 0 01-.36-.426 1.426 1.426 0 01-.117-.582zm.715-.305v.301a.71.71 0 00.047.258.532.532 0 00.125.191c.055.047.116.07.184.07.093 0 .165-.023.215-.07a.365.365 0 00.097-.19 1.17 1.17 0 00.028-.259v-.297a.812.812 0 00-.04-.257.4.4 0 00-.113-.192.26.26 0 00-.191-.074.278.278 0 00-.2.074.426.426 0 00-.117.192.88.88 0 00-.035.253zm.637-3.476l-2.332 4.445-.523-.297 2.332-4.445.523.297zm5.426 3.937V7h1.097v6l-.992.004-.105-.938zm-2.192-1.03v-.282c0-.344.029-.645.086-.902.06-.258.149-.473.266-.645.117-.172.26-.3.43-.383.171-.086.368-.129.59-.129.2 0 .376.051.527.153.153.099.284.238.39.418a2.5 2.5 0 01.258.636c.065.245.11.513.137.805v.406a5.16 5.16 0 01-.145.774c-.062.24-.148.448-.257.625a1.305 1.305 0 01-.387.418.94.94 0 01-.527.148c-.222 0-.418-.044-.59-.133a1.18 1.18 0 01-.43-.39 2 2 0 01-.262-.64 4.036 4.036 0 01-.086-.88zm1.094-.282v.281c0 .198.01.369.027.512.021.14.054.256.098.348a.488.488 0 00.184.199c.075.041.169.062.28.062a.552.552 0 00.356-.11.668.668 0 00.203-.308c.047-.133.073-.285.079-.457v-.738a1.89 1.89 0 00-.051-.387.974.974 0 00-.121-.293.56.56 0 00-.196-.187.516.516 0 00-.265-.067.562.562 0 00-.281.067.457.457 0 00-.18.207c-.044.091-.078.21-.102.355-.02.144-.03.315-.03.516zm4.723 2.324a2.08 2.08 0 01-.77-.133 1.522 1.522 0 01-.562-.383 1.713 1.713 0 01-.352-.613 2.562 2.562 0 01-.12-.82v-.348c0-.344.038-.644.116-.902a1.9 1.9 0 01.332-.656c.144-.177.32-.309.528-.395.21-.088.449-.133.715-.133.265 0 .498.045.699.133.203.086.37.216.504.39.132.173.233.386.3.641.068.256.102.553.102.891v.5h-2.832v-.77h1.758v-.097c0-.172-.019-.315-.055-.43a.493.493 0 00-.172-.262.517.517 0 00-.312-.086.54.54 0 00-.278.067.457.457 0 00-.18.207 1.284 1.284 0 00-.097.367 3.91 3.91 0 00-.031.535v.348c0 .195.017.36.05.492a.87.87 0 00.149.32c.068.081.15.14.246.176.096.034.208.051.336.051a1.196 1.196 0 00.918-.387l.437.664c-.075.1-.18.198-.312.297-.133.1-.292.18-.477.242a2 2 0 01-.64.094zm3.218-3.363V13H38.47V8.773H39.5l.063.942zm.997-.973l-.016 1.09a2.378 2.378 0 00-.36-.031.752.752 0 00-.312.058.522.522 0 00-.215.168.784.784 0 00-.125.274c-.028.11-.045.233-.05.37l-.208-.077c0-.276.021-.529.063-.758a2.27 2.27 0 01.195-.602c.086-.171.19-.304.309-.398a.664.664 0 01.414-.14c.052 0 .107.005.164.015.06.008.107.018.14.031zm-31.954 7.57V22H7.461v-5.688h1.144zm2.825 0l-1.844 2.825-1.129 1.406-.219-1.145.73-1.218 1.071-1.867h1.39zM10.11 22l-1.243-2.613.84-.742L11.457 22h-1.348zm2.874-6v6h-1.097v-6h1.097zm2.57 6.078a2.08 2.08 0 01-.769-.133 1.52 1.52 0 01-.562-.383 1.712 1.712 0 01-.352-.613 2.565 2.565 0 01-.121-.82v-.348c0-.343.04-.644.117-.902.078-.26.189-.48.332-.656.143-.177.32-.309.528-.395.21-.088.449-.133.714-.133.266 0 .5.045.7.133.203.086.37.216.504.39.132.173.233.386.3.641.068.256.102.552.102.891v.5h-2.832v-.77h1.758v-.097a1.44 1.44 0 00-.055-.43.494.494 0 00-.172-.262.517.517 0 00-.312-.085.54.54 0 00-.278.066.456.456 0 00-.18.207 1.281 1.281 0 00-.097.367c-.02.149-.031.327-.031.535v.348c0 .195.017.36.05.492a.87.87 0 00.149.32c.068.081.15.14.246.176.096.034.208.051.336.051a1.197 1.197 0 00.918-.387l.437.664c-.075.1-.18.198-.312.297-.133.1-.292.18-.477.242a2 2 0 01-.64.094zm3.274-4.305V22H17.73v-4.227h1.098zM17.68 16.68c0-.17.053-.309.16-.418a.584.584 0 01.437-.168c.185 0 .331.056.438.168.107.11.16.248.16.418a.574.574 0 01-.164.418.573.573 0 01-.43.164.597.597 0 01-.441-.164.582.582 0 01-.16-.418zm3.09 1.996V22h-1.098v-4.227h1.027l.07.903zm-.165 1.066l-.293.008a3.222 3.222 0 01.09-.855c.068-.253.163-.468.285-.645.125-.18.274-.316.446-.41.174-.096.368-.145.582-.145.164 0 .314.029.45.086a.88.88 0 01.355.274c.099.125.175.291.23.5.055.205.082.458.082.758V22h-1.098v-2.695c0-.183-.018-.323-.054-.422a.365.365 0 00-.164-.211.544.544 0 00-.274-.063.453.453 0 00-.277.09.681.681 0 00-.203.238 1.42 1.42 0 00-.121.36 2.21 2.21 0 00-.035.445zm4.891 1.285v-1.953a.813.813 0 00-.047-.305.302.302 0 00-.133-.163.385.385 0 00-.21-.055.434.434 0 00-.235.058.358.358 0 00-.14.168.715.715 0 00-.044.262H23.59c0-.182.035-.354.105-.516.07-.164.174-.307.309-.43.138-.124.302-.222.492-.292.19-.07.404-.106.64-.106.282 0 .532.049.75.145.22.094.393.243.52.45.128.205.192.472.192.8v1.883c0 .237.011.43.035.578.026.148.064.276.113.383V22h-1.101a1.838 1.838 0 01-.114-.438 4.081 4.081 0 01-.035-.535zm.133-1.609l.004.656h-.402a.683.683 0 00-.274.051.526.526 0 00-.191.145.597.597 0 00-.118.21.921.921 0 00-.035.258c0 .102.015.188.043.258.029.07.072.124.13.16a.37.37 0 00.202.055.63.63 0 00.313-.074.507.507 0 00.195-.18c.044-.07.059-.135.043-.195l.25.425a1.947 1.947 0 01-.129.301 1.27 1.27 0 01-.2.29.964.964 0 01-.3.218.981.981 0 01-.418.082c-.226 0-.433-.052-.62-.156a1.16 1.16 0 01-.446-.438 1.328 1.328 0 01-.16-.668c0-.213.034-.406.101-.578.07-.174.175-.321.313-.441.138-.123.312-.216.523-.281.211-.065.459-.098.742-.098h.434zm2.851-.742V22h-1.097v-4.227h1.027l.07.903zm-.164 1.066l-.293.008a3.221 3.221 0 01.09-.855c.068-.253.163-.468.285-.645.125-.18.274-.316.446-.41.174-.096.368-.145.582-.145.164 0 .314.029.449.086a.88.88 0 01.355.274c.1.125.176.291.23.5.056.205.083.458.083.758V22h-1.098v-2.695c0-.183-.018-.323-.054-.422a.365.365 0 00-.164-.211.545.545 0 00-.274-.063.453.453 0 00-.277.09.68.68 0 00-.203.238 1.417 1.417 0 00-.121.36 2.202 2.202 0 00-.036.445zM32.492 16v6h-1.097v-6h1.097zm2.57 6.078a2.08 2.08 0 01-.769-.133 1.52 1.52 0 01-.563-.383 1.712 1.712 0 01-.351-.613 2.565 2.565 0 01-.121-.82v-.348c0-.343.039-.644.117-.902.078-.26.189-.48.332-.656.143-.177.319-.309.527-.395.211-.088.45-.133.715-.133.266 0 .499.045.7.133.203.086.37.216.503.39.133.173.233.386.301.641.068.256.102.552.102.891v.5h-2.832v-.77h1.758v-.097a1.44 1.44 0 00-.055-.43.494.494 0 00-.172-.262.517.517 0 00-.313-.085.54.54 0 00-.277.066.456.456 0 00-.18.207 1.284 1.284 0 00-.097.367c-.021.149-.032.327-.032.535v.348c0 .195.017.36.051.492a.87.87 0 00.149.32c.067.081.15.14.246.176.096.034.208.051.336.051a1.197 1.197 0 00.918-.387l.437.664c-.075.1-.18.198-.312.297-.133.1-.292.18-.477.242a2 2 0 01-.64.094zm4.348-4.305h.992V22c0 .385-.074.7-.222.945-.146.248-.35.429-.614.543a2.21 2.21 0 01-1.363.121 2.122 2.122 0 01-.476-.168 1.26 1.26 0 01-.38-.265l.372-.758c.101.102.234.188.398.258.164.073.326.11.485.11a.872.872 0 00.382-.075.464.464 0 00.235-.242c.054-.115.082-.268.082-.461v-3.254l.11-.98zm-2.36 2.262v-.281c0-.344.033-.645.098-.902.066-.258.16-.473.282-.645.122-.172.272-.3.449-.383.18-.086.38-.129.602-.129.231 0 .425.051.581.153.157.099.283.238.38.418.098.18.174.392.226.636.055.245.096.513.125.805v.406a4.87 4.87 0 01-.14.774c-.063.24-.146.448-.25.625a1.265 1.265 0 01-.383.418.976.976 0 01-.547.148c-.22 0-.417-.044-.594-.133a1.255 1.255 0 01-.45-.39 1.956 1.956 0 01-.28-.64 3.571 3.571 0 01-.098-.88zm1.098-.281v.281c0 .198.012.369.036.512.026.14.065.256.117.348a.523.523 0 00.199.199.648.648 0 00.293.062.602.602 0 00.379-.11.644.644 0 00.21-.308c.048-.133.074-.285.079-.457v-.738a1.583 1.583 0 00-.05-.387.976.976 0 00-.122-.293.54.54 0 00-.203-.187.583.583 0 00-.285-.067.592.592 0 00-.29.067.536.536 0 00-.202.207c-.052.091-.093.21-.121.355-.027.143-.04.315-.04.516zm4.774 2.324a2.08 2.08 0 01-.77-.133 1.522 1.522 0 01-.562-.383 1.713 1.713 0 01-.352-.613 2.565 2.565 0 01-.12-.82v-.348c0-.343.038-.644.116-.902.078-.26.19-.48.332-.656.144-.177.32-.309.528-.395.21-.088.449-.133.715-.133.265 0 .498.045.699.133.203.086.37.216.504.39.133.173.233.386.3.641.068.256.102.552.102.891v.5h-2.832v-.77h1.758v-.097a1.44 1.44 0 00-.055-.43.494.494 0 00-.172-.262.517.517 0 00-.312-.085.54.54 0 00-.278.066.456.456 0 00-.18.207 1.281 1.281 0 00-.097.367c-.02.149-.031.327-.031.535v.348c0 .195.017.36.05.492a.87.87 0 00.15.32c.067.081.149.14.245.176.097.034.209.051.336.051a1.197 1.197 0 00.918-.387l.438.664a1.709 1.709 0 01-.79.54 2 2 0 01-.64.093zm3.219-3.363V22h-1.094v-4.227h1.031l.063.942zm.996-.973l-.016 1.09a2.377 2.377 0 00-.36-.031.752.752 0 00-.312.058.52.52 0 00-.215.168.78.78 0 00-.125.274c-.028.11-.045.233-.05.37l-.207-.077c0-.276.02-.529.062-.758.044-.232.11-.432.195-.602.086-.172.19-.304.309-.398a.664.664 0 01.414-.14.92.92 0 01.164.015c.06.008.107.018.14.031zm1.652-1.746V22h-1.094v-6.004h1.094zm2.223 1.777l-1.489 2.102-.894 1.004-.387-.832.688-1.004.777-1.27h1.305zM49.872 22l-.923-1.941.754-.696L51.125 22h-1.254zm1.526-1.969v-.285c0-.33.04-.624.118-.879.08-.255.195-.469.343-.64.149-.175.327-.306.535-.395.212-.091.447-.137.708-.137.263 0 .498.046.707.137.21.089.39.22.539.395.15.171.267.385.347.64.081.255.121.548.121.88v.284c0 .328-.04.62-.12.875a1.8 1.8 0 01-.348.645 1.427 1.427 0 01-.535.394 1.78 1.78 0 01-.704.133 1.81 1.81 0 01-.707-.133 1.46 1.46 0 01-.539-.394 1.8 1.8 0 01-.347-.645 2.99 2.99 0 01-.118-.875zm1.094-.285v.285c0 .196.013.365.04.508.028.143.068.262.12.355.055.094.12.163.196.208a.508.508 0 00.261.066.53.53 0 00.266-.066.495.495 0 00.191-.207c.052-.094.09-.213.114-.356a2.88 2.88 0 00.039-.508v-.285c0-.19-.015-.357-.043-.5a1.181 1.181 0 00-.121-.355.55.55 0 00-.196-.211.46.46 0 00-.257-.075.46.46 0 00-.258.075.607.607 0 00-.192.21c-.052.092-.092.21-.12.356-.027.143-.04.31-.04.5zm4.09-1.07V22h-1.098v-4.227h1.028l.07.903zm-.164 1.066l-.293.008a3.222 3.222 0 01.09-.855c.068-.253.163-.468.285-.645.125-.18.273-.316.445-.41.175-.096.369-.145.582-.145.164 0 .314.029.45.086a.88.88 0 01.355.274c.099.125.176.291.23.5.055.205.083.458.083.758V22h-1.098v-2.695c0-.183-.018-.323-.055-.422a.365.365 0 00-.164-.211.544.544 0 00-.273-.063.453.453 0 00-.278.09.681.681 0 00-.203.238 1.42 1.42 0 00-.12.36 2.21 2.21 0 00-.036.445zm4.871-1.969v.825h-2.156v-.825h2.156zm-1.66-1.043h1.09v3.98c0 .118.011.208.035.27a.24.24 0 00.105.133.46.46 0 00.196.035.747.747 0 00.258-.031v.856c-.086.034-.178.06-.274.078a1.79 1.79 0 01-.336.027c-.219 0-.409-.041-.57-.125a.853.853 0 01-.371-.398c-.089-.185-.133-.427-.133-.727V16.73zm3.973 5.348a2.08 2.08 0 01-.77-.133 1.522 1.522 0 01-.563-.383 1.713 1.713 0 01-.351-.613 2.562 2.562 0 01-.121-.82v-.348c0-.343.039-.644.117-.902.078-.26.189-.48.332-.656.143-.177.32-.309.527-.395.211-.088.45-.133.715-.133.266 0 .499.045.7.133.203.086.37.216.503.39.133.173.233.386.301.641.068.256.102.552.102.891v.5h-2.832v-.77h1.757v-.097c0-.172-.018-.315-.054-.43a.493.493 0 00-.172-.262.517.517 0 00-.313-.085.54.54 0 00-.277.066.457.457 0 00-.18.207 1.285 1.285 0 00-.097.367 3.91 3.91 0 00-.032.535v.348c0 .195.017.36.051.492a.87.87 0 00.149.32c.067.081.15.14.246.176.096.034.208.051.336.051a1.197 1.197 0 00.918-.387l.437.664c-.075.1-.18.198-.312.297-.133.1-.292.18-.477.242a2 2 0 01-.64.094zm3.199-3.402V22h-1.098v-4.227h1.028l.07.903zm-.164 1.066l-.293.008a3.218 3.218 0 01.09-.855c.067-.253.162-.468.285-.645.125-.18.273-.316.445-.41.174-.096.369-.145.582-.145.164 0 .314.029.45.086a.88.88 0 01.355.274c.099.125.176.291.23.5.055.205.082.458.082.758V22h-1.097v-2.695c0-.183-.019-.323-.055-.422a.365.365 0 00-.164-.211.544.544 0 00-.274-.063.453.453 0 00-.277.09.681.681 0 00-.203.238 1.417 1.417 0 00-.121.36 2.202 2.202 0 00-.035.445zM8.652 30.156l.68-3.383h1.14L9.313 31H8.63l.023-.844zm-.402-3.383l.691 3.387.012.84h-.687l-1.16-4.227H8.25zm4.398 4.305a2.08 2.08 0 01-.77-.133 1.522 1.522 0 01-.562-.383 1.715 1.715 0 01-.351-.613 2.565 2.565 0 01-.121-.82v-.348c0-.343.039-.644.117-.902.078-.26.189-.48.332-.656.143-.177.319-.309.527-.395.211-.088.45-.133.715-.133.266 0 .499.045.7.133.203.086.37.216.503.39.133.173.233.386.301.641.068.256.102.552.102.891v.5h-2.832v-.77h1.757v-.097c0-.172-.018-.315-.054-.43a.493.493 0 00-.172-.262.517.517 0 00-.313-.085.54.54 0 00-.277.066.457.457 0 00-.18.207 1.281 1.281 0 00-.097.367 3.91 3.91 0 00-.032.535v.348c0 .195.017.36.051.492.034.13.083.237.149.32.067.081.15.14.246.176.096.034.208.051.336.051a1.198 1.198 0 00.918-.387l.437.664c-.075.1-.18.198-.312.297-.133.1-.292.18-.477.242a2 2 0 01-.64.094zm3.22-3.363V31h-1.095v-4.227h1.032l.062.942zm.995-.973l-.015 1.09a2.377 2.377 0 00-.36-.031.751.751 0 00-.312.058.52.52 0 00-.215.168.782.782 0 00-.125.274c-.029.11-.046.233-.05.37l-.208-.077c0-.276.021-.529.063-.758.044-.232.109-.432.195-.602.086-.172.189-.304.309-.398a.664.664 0 01.414-.14.92.92 0 01.164.015c.06.008.106.018.14.031zM18.57 25v6h-1.097v-6h1.097zm2.016 1.773V31h-1.098v-4.227h1.098zm-1.148-1.093c0-.17.053-.309.16-.418a.583.583 0 01.437-.168c.185 0 .33.056.438.168.106.11.16.248.16.418a.575.575 0 01-.164.418.573.573 0 01-.43.164.597.597 0 01-.441-.164.582.582 0 01-.16-.418zm3.718 5.398a2.08 2.08 0 01-.77-.133 1.522 1.522 0 01-.562-.383 1.713 1.713 0 01-.351-.613 2.562 2.562 0 01-.121-.82v-.348c0-.343.039-.644.117-.902.078-.26.189-.48.332-.656.143-.177.319-.309.527-.395.211-.088.45-.133.715-.133.266 0 .499.045.7.133.202.086.37.216.503.39.133.173.233.386.3.641.069.256.102.552.102.891v.5h-2.832v-.77h1.758v-.097c0-.172-.018-.315-.055-.43a.493.493 0 00-.171-.262.517.517 0 00-.313-.085.54.54 0 00-.277.066.457.457 0 00-.18.207 1.285 1.285 0 00-.098.367 3.91 3.91 0 00-.03.535v.348c0 .195.016.36.05.492a.87.87 0 00.148.32c.068.081.15.14.247.176.096.034.208.051.335.051a1.197 1.197 0 00.918-.387l.438.664a1.707 1.707 0 01-.789.54 2 2 0 01-.64.093zm3.219-3.363V31h-1.094v-4.227h1.032l.062.942zm.996-.973l-.015 1.09a2.377 2.377 0 00-.36-.031.751.751 0 00-.312.058.52.52 0 00-.215.168.78.78 0 00-.125.274c-.029.11-.046.233-.051.37l-.207-.077c0-.276.02-.529.062-.758.045-.232.11-.432.196-.602.086-.172.189-.304.308-.398a.664.664 0 01.414-.14.92.92 0 01.165.015c.06.008.106.018.14.031zm2.184 4.336a2.08 2.08 0 01-.77-.133 1.52 1.52 0 01-.562-.383 1.712 1.712 0 01-.352-.613 2.565 2.565 0 01-.121-.82v-.348c0-.343.04-.644.117-.902.078-.26.189-.48.332-.656.143-.177.32-.309.528-.395.21-.088.449-.133.714-.133.266 0 .5.045.7.133.203.086.37.216.504.39.132.173.233.386.3.641.068.256.102.552.102.891v.5h-2.832v-.77h1.758v-.097a1.44 1.44 0 00-.055-.43.494.494 0 00-.172-.262.517.517 0 00-.312-.085.54.54 0 00-.278.066.456.456 0 00-.18.207 1.281 1.281 0 00-.097.367c-.02.149-.031.327-.031.535v.348c0 .195.017.36.05.492a.87.87 0 00.149.32c.068.081.15.14.246.176.096.034.208.051.336.051a1.197 1.197 0 00.918-.387l.437.664c-.075.1-.18.198-.312.297-.133.1-.292.18-.477.242a2 2 0 01-.64.094zm3.199-3.402V31h-1.098v-4.227h1.028l.07.903zm-.164 1.066l-.293.008a3.222 3.222 0 01.09-.855c.067-.253.163-.468.285-.645.125-.18.273-.316.445-.41.175-.096.369-.145.582-.145.164 0 .314.029.45.086a.88.88 0 01.355.274c.099.125.176.291.23.5.055.205.082.458.082.758V31H33.72v-2.695c0-.183-.019-.323-.055-.422a.365.365 0 00-.164-.211.544.544 0 00-.273-.063.453.453 0 00-.278.09.681.681 0 00-.203.238 1.417 1.417 0 00-.121.36 2.209 2.209 0 00-.035.445zm8.789-.73v2.343a2.297 2.297 0 01-.96.598 2.86 2.86 0 01-.907.125c-.315 0-.602-.05-.86-.148a1.744 1.744 0 01-.66-.45 2.05 2.05 0 01-.418-.757 3.607 3.607 0 01-.144-1.082v-.97c0-.41.045-.769.136-1.073.094-.308.23-.563.407-.766a1.65 1.65 0 01.633-.453c.247-.1.526-.149.835-.149.427 0 .778.072 1.051.215.276.143.485.356.625.637.143.281.23.626.258 1.035H40.27a1.68 1.68 0 00-.122-.562.571.571 0 00-.254-.29.883.883 0 00-.425-.09.89.89 0 00-.395.083.664.664 0 00-.281.258c-.076.12-.132.273-.168.46a3.667 3.667 0 00-.055.688v.977c0 .268.021.497.063.687.041.19.103.345.183.465.084.12.188.207.313.262.128.052.277.078.45.078.137 0 .248-.014.331-.043a.972.972 0 00.2-.09c.051-.034.094-.06.128-.078v-1.047h-.816v-.863h1.957zm2.473 3.066a2.08 2.08 0 01-.77-.133 1.522 1.522 0 01-.563-.383 1.713 1.713 0 01-.351-.613 2.562 2.562 0 01-.121-.82v-.348c0-.343.039-.644.117-.902.078-.26.189-.48.332-.656.143-.177.32-.309.527-.395.211-.088.45-.133.715-.133.266 0 .499.045.7.133.203.086.37.216.503.39.133.173.233.386.301.641.068.256.102.552.102.891v.5h-2.832v-.77h1.758v-.097c0-.172-.019-.315-.055-.43a.493.493 0 00-.172-.262.517.517 0 00-.313-.085.54.54 0 00-.277.066.457.457 0 00-.18.207 1.285 1.285 0 00-.097.367 3.91 3.91 0 00-.032.535v.348c0 .195.017.36.051.492a.87.87 0 00.149.32c.067.081.15.14.246.176.096.034.208.051.336.051a1.197 1.197 0 00.918-.387l.437.664c-.075.1-.18.198-.312.297-.133.1-.292.18-.477.242a2 2 0 01-.64.094zM47.125 25v6h-1.098v-6h1.098zm2.914 5.066V25h1.098v6l-.992.004-.106-.938zm-2.191-1.03v-.282c0-.344.028-.645.086-.902a1.9 1.9 0 01.265-.645c.117-.172.26-.3.43-.383.172-.086.368-.129.59-.129.2 0 .376.051.527.153.154.099.284.238.39.418a2.5 2.5 0 01.258.636c.066.245.111.513.137.805v.406a5.16 5.16 0 01-.144.774c-.063.24-.149.448-.258.625a1.305 1.305 0 01-.387.418.94.94 0 01-.527.148c-.222 0-.418-.044-.59-.133a1.18 1.18 0 01-.43-.39 2 2 0 01-.261-.64 4.036 4.036 0 01-.086-.88zm1.093-.282v.281c0 .198.01.369.028.512.02.14.053.256.097.348a.488.488 0 00.184.199c.075.041.17.062.281.062a.552.552 0 00.356-.11.668.668 0 00.203-.308c.047-.133.073-.285.078-.457v-.738a1.884 1.884 0 00-.05-.387.973.973 0 00-.122-.293.56.56 0 00-.195-.187.515.515 0 00-.266-.067.561.561 0 00-.281.067.457.457 0 00-.18.207c-.044.091-.078.21-.101.355-.021.143-.032.315-.032.516zM53.81 25h1.09v5.02l-.079.98H53.81v-6zm3.285 3.746v.277c0 .344-.028.644-.082.899a1.84 1.84 0 01-.246.64c-.11.172-.25.301-.422.387a1.347 1.347 0 01-.61.13.969.969 0 01-.543-.15 1.267 1.267 0 01-.382-.417 2.729 2.729 0 01-.25-.63 5.274 5.274 0 01-.137-.792v-.41c.026-.282.07-.543.133-.785.065-.243.148-.452.25-.63.101-.18.228-.318.379-.417a.961.961 0 01.543-.153c.24 0 .445.045.617.133.172.086.312.215.422.387.112.172.194.387.246.644.054.256.082.551.082.887zm-1.09.277v-.277c0-.195-.008-.363-.023-.504a1.2 1.2 0 00-.087-.351.45.45 0 00-.18-.211.565.565 0 00-.3-.07.548.548 0 00-.281.066.556.556 0 00-.196.187.91.91 0 00-.117.29c-.023.109-.036.23-.039.363v.738c.003.18.025.338.067.476a.644.644 0 00.199.32.58.58 0 00.375.114c.122 0 .221-.02.297-.062a.415.415 0 00.175-.2c.045-.09.073-.208.087-.351a5.06 5.06 0 00.023-.528zm3.465 2.055a2.08 2.08 0 01-.77-.133 1.522 1.522 0 01-.562-.383 1.713 1.713 0 01-.352-.613 2.562 2.562 0 01-.12-.82v-.348c0-.343.038-.644.116-.902.078-.26.19-.48.332-.656.144-.177.32-.309.528-.395.21-.088.449-.133.715-.133.265 0 .498.045.699.133.203.086.37.216.504.39.132.173.233.386.3.641.068.256.102.552.102.891v.5h-2.832v-.77h1.758v-.097c0-.172-.019-.315-.055-.43a.493.493 0 00-.172-.262.517.517 0 00-.312-.085.54.54 0 00-.278.066.457.457 0 00-.18.207 1.285 1.285 0 00-.097.367 3.91 3.91 0 00-.031.535v.348c0 .195.017.36.05.492a.87.87 0 00.149.32c.068.081.15.14.246.176.096.034.208.051.336.051a1.196 1.196 0 00.918-.387l.437.664c-.075.1-.18.198-.312.297-.133.1-.292.18-.477.242a2 2 0 01-.64.094zm3.273-4.305V31h-1.097v-4.227h1.097zm-1.148-1.093c0-.17.053-.309.16-.418a.584.584 0 01.437-.168c.185 0 .331.056.438.168.107.11.16.248.16.418a.574.574 0 01-.164.418.573.573 0 01-.43.164.597.597 0 01-.441-.164.582.582 0 01-.16-.418zm3.117 1.968V31h-1.098v-4.227h1.031l.067.875zm-.156 1.094l-.301.008c-.005-.297.02-.57.078-.82.057-.25.143-.468.258-.653.117-.185.264-.328.441-.43.177-.1.384-.152.621-.152.154 0 .296.029.426.086.13.055.244.142.34.262.096.117.17.27.223.46.052.188.078.414.078.677V31h-1.094v-2.688c0-.187-.018-.33-.055-.43a.377.377 0 00-.156-.21.468.468 0 00-.25-.063.45.45 0 00-.273.086.625.625 0 00-.192.242 1.543 1.543 0 00-.11.36 2.666 2.666 0 00-.034.445zm2.058-.11l-.394.052c-.005-.28.02-.538.074-.778.055-.242.14-.453.254-.633.115-.182.258-.324.43-.425a1.18 1.18 0 01.605-.153c.172 0 .328.029.469.086.14.058.26.15.36.278.1.125.177.29.23.496.054.205.082.455.082.75V31h-1.098v-2.691c0-.19-.018-.336-.055-.438-.036-.101-.088-.17-.156-.207a.504.504 0 00-.242-.055.402.402 0 00-.246.078.62.62 0 00-.172.22c-.047.09-.082.198-.106.323a2.146 2.146 0 00-.035.403zm-56.441 9.473h1.137c-.016.428-.102.788-.258 1.083a1.566 1.566 0 01-.668.664c-.287.15-.633.226-1.04.226a2.13 2.13 0 01-.84-.156 1.678 1.678 0 01-.624-.469 2.086 2.086 0 01-.39-.762 3.881 3.881 0 01-.13-1.05v-.965c0-.396.046-.746.137-1.051.094-.305.227-.56.399-.766.174-.208.384-.364.628-.468.248-.107.526-.16.836-.16.414 0 .76.078 1.04.234.278.156.493.384.644.683.154.297.246.66.277 1.09h-1.14a2.151 2.151 0 00-.094-.636.55.55 0 00-.25-.329c-.115-.065-.274-.097-.477-.097a.864.864 0 00-.39.082.63.63 0 00-.27.254c-.07.117-.122.27-.156.46-.031.19-.047.422-.047.696v.973c0 .268.014.497.043.687.029.188.074.341.137.461.062.12.147.207.254.262.11.054.247.082.414.082.192 0 .347-.029.465-.086a.536.536 0 00.265-.309c.058-.148.09-.36.098-.633zm2.996-3.792V40h-1.145v-5.688h1.145zm1.781 2.417v.946h-2.07v-.946h2.07zm.219-2.417v.949h-2.29v-.95h2.29zM17.32 40h-1.004l.008-.945h.996c.276 0 .491-.05.645-.149a.796.796 0 00.324-.468c.065-.214.098-.494.098-.84v-.887c0-.263-.017-.486-.051-.668a1.09 1.09 0 00-.172-.445.714.714 0 00-.324-.254 1.35 1.35 0 00-.504-.082h-1.04v-.95h1.04c.328 0 .626.054.895.16.268.107.498.264.69.47.194.203.342.454.446.753.104.3.156.64.156 1.024v.879c0 .385-.052.726-.156 1.023a2.106 2.106 0 01-.445.754c-.19.203-.42.358-.692.465-.27.107-.574.16-.91.16zm-.34-5.688V40h-1.144v-5.688h1.144zm5.293 2.794v.91h-1.902v-.91h1.902zm4.13-.489v.946H24.07v-.946h2.332zm-2.008-2.304V40H23.25v-5.688h1.145zm2.835 0V40h-1.132v-5.688h1.133zm2.743 4.714v-1.953a.815.815 0 00-.047-.304.303.303 0 00-.133-.165.385.385 0 00-.211-.054.434.434 0 00-.234.058.359.359 0 00-.141.168.717.717 0 00-.043.262h-1.098c0-.182.036-.354.106-.516.07-.164.173-.307.308-.43.139-.124.303-.222.493-.292.19-.07.403-.106.64-.106.282 0 .532.048.75.145.219.094.392.243.52.45.127.205.191.472.191.8v1.883c0 .237.012.43.035.578.026.148.064.276.114.383V40H30.12a1.834 1.834 0 01-.113-.438 4.081 4.081 0 01-.035-.535zm.133-1.609l.003.656h-.402a.682.682 0 00-.273.051.595.595 0 00-.309.355.921.921 0 00-.035.258c0 .102.014.188.043.258.029.07.071.124.129.16a.37.37 0 00.203.055.63.63 0 00.312-.074.506.506 0 00.196-.18c.044-.07.058-.135.043-.195l.25.425a1.927 1.927 0 01-.13.301c-.051.104-.118.2-.198.29a.963.963 0 01-.301.218.98.98 0 01-.418.082c-.227 0-.434-.052-.621-.156a1.16 1.16 0 01-.446-.438 1.329 1.329 0 01-.16-.668c0-.213.034-.406.102-.578.07-.174.174-.321.312-.441a1.4 1.4 0 01.524-.281c.21-.066.458-.098.742-.098h.433zm2.851-.742V40h-1.098v-4.227h1.028l.07.903zm-.164 1.066l-.293.008a3.222 3.222 0 01.09-.855c.068-.253.163-.468.285-.645.125-.18.273-.316.445-.41.175-.097.369-.145.582-.145.164 0 .314.029.45.086a.88.88 0 01.355.274c.099.125.176.291.23.5.055.205.083.458.083.758V40h-1.098v-2.695c0-.183-.018-.323-.055-.422a.365.365 0 00-.164-.211.544.544 0 00-.273-.063.453.453 0 00-.278.09.681.681 0 00-.203.239 1.42 1.42 0 00-.12.359 2.21 2.21 0 00-.036.445zm5.074 1.324V34h1.098v6l-.992.004-.106-.938zm-2.191-1.03v-.282c0-.344.028-.645.086-.902.06-.258.148-.473.265-.645.117-.172.26-.3.43-.383.172-.086.368-.129.59-.129.2 0 .376.051.527.153.154.099.284.238.39.418a2.5 2.5 0 01.259.636 4.8 4.8 0 01.136.805v.406c-.03.276-.08.534-.144.774-.063.24-.149.448-.258.625a1.303 1.303 0 01-.387.418.94.94 0 01-.527.148 1.27 1.27 0 01-.59-.133 1.18 1.18 0 01-.43-.39 2.002 2.002 0 01-.261-.64 4.036 4.036 0 01-.086-.88zm1.093-.282v.281c0 .198.01.369.028.512.02.14.053.256.098.348a.488.488 0 00.183.199c.076.041.17.062.281.062a.552.552 0 00.356-.11.67.67 0 00.203-.308c.047-.133.073-.285.078-.457v-.738a1.877 1.877 0 00-.05-.387.97.97 0 00-.122-.293.56.56 0 00-.195-.187.515.515 0 00-.266-.067.562.562 0 00-.281.067.457.457 0 00-.18.207c-.044.091-.078.21-.101.355-.021.144-.032.315-.032.516zm4.723 2.324a2.08 2.08 0 01-.77-.133 1.52 1.52 0 01-.562-.383 1.712 1.712 0 01-.351-.613 2.565 2.565 0 01-.121-.82v-.348c0-.343.039-.644.117-.902.078-.26.188-.48.332-.656.143-.177.319-.309.527-.395.211-.088.45-.133.715-.133.266 0 .499.045.7.133.202.086.37.216.503.39.133.173.233.386.3.641.069.256.102.552.102.891v.5h-2.832v-.77h1.758v-.097a1.44 1.44 0 00-.054-.43.494.494 0 00-.172-.262.517.517 0 00-.313-.086.54.54 0 00-.277.067.456.456 0 00-.18.207 1.281 1.281 0 00-.098.367c-.02.148-.03.327-.03.535v.348c0 .195.016.36.05.492a.87.87 0 00.148.32c.068.081.15.14.246.176.097.034.209.051.336.051a1.197 1.197 0 00.918-.387l.438.664a1.707 1.707 0 01-.79.54 2 2 0 01-.64.093zM44.766 34v6h-1.098v-6h1.098zm3.812 2.648V40H47.48v-4.227h1.032l.066.875zm-.156 1.094l-.3.008c-.006-.297.02-.57.077-.82.058-.25.143-.468.258-.653.117-.185.264-.328.441-.43.177-.1.385-.152.621-.152.154 0 .296.029.426.086.13.055.244.142.34.262.097.117.17.27.223.46.052.188.078.414.078.677V40h-1.094v-2.688c0-.187-.018-.33-.054-.43a.377.377 0 00-.157-.21.468.468 0 00-.25-.063.45.45 0 00-.273.086.625.625 0 00-.192.242 1.543 1.543 0 00-.109.36 2.666 2.666 0 00-.035.445zm2.059-.11l-.395.052c-.005-.28.02-.538.074-.778.055-.242.14-.453.254-.633.115-.182.258-.324.43-.425a1.18 1.18 0 01.605-.153c.172 0 .328.029.469.086.14.058.26.15.36.278.1.125.178.29.23.496.054.205.082.455.082.75V40h-1.098v-2.691c0-.19-.018-.336-.054-.438-.037-.102-.089-.17-.157-.207a.503.503 0 00-.242-.055.402.402 0 00-.246.078.62.62 0 00-.172.22c-.047.09-.082.199-.105.324a2.146 2.146 0 00-.035.402zm4.081-1.859V40h-1.097v-4.227h1.097zm-1.148-1.093c0-.17.053-.309.16-.418a.584.584 0 01.438-.168c.185 0 .33.056.437.168.107.11.16.248.16.418a.574.574 0 01-.164.418.573.573 0 01-.43.164.597.597 0 01-.44-.164.582.582 0 01-.16-.418zm3.86 1.093v.825h-2.157v-.825h2.156zm-1.66-1.043h1.09v3.98a.8.8 0 00.034.27.24.24 0 00.106.133.46.46 0 00.195.035.75.75 0 00.258-.031v.856c-.086.034-.177.06-.274.078a1.788 1.788 0 01-.336.027c-.218 0-.408-.042-.57-.125a.852.852 0 01-.37-.398c-.09-.185-.134-.427-.134-.727V34.73zm6.16 4.336V34h1.097v6l-.992.004-.106-.938zm-2.192-1.03v-.282c0-.344.029-.645.086-.902a1.9 1.9 0 01.266-.645c.117-.172.26-.3.43-.383.171-.086.368-.129.59-.129.2 0 .375.051.526.153.154.099.284.238.391.418a2.5 2.5 0 01.258.636c.065.245.11.513.137.805v.406a5.16 5.16 0 01-.145.774c-.062.24-.148.448-.258.625a1.305 1.305 0 01-.386.418.941.941 0 01-.528.148c-.221 0-.418-.044-.59-.133a1.18 1.18 0 01-.43-.39 2 2 0 01-.261-.64 4.036 4.036 0 01-.086-.88zm1.094-.282v.281c0 .198.009.369.027.512.021.14.053.256.098.348a.488.488 0 00.183.199c.076.041.17.062.282.062a.552.552 0 00.355-.11.67.67 0 00.203-.308c.047-.133.073-.285.078-.457v-.738a1.884 1.884 0 00-.05-.387.973.973 0 00-.121-.293.56.56 0 00-.196-.187.516.516 0 00-.265-.067.561.561 0 00-.282.067.457.457 0 00-.18.207c-.044.091-.078.21-.101.355-.02.144-.031.315-.031.516zm4.168-1.98V40h-1.098v-4.227h1.098zm-1.149-1.094c0-.17.054-.309.16-.418a.583.583 0 01.438-.168c.185 0 .33.056.438.168.106.11.16.248.16.418a.575.575 0 01-.164.418.573.573 0 01-.43.164.597.597 0 01-.441-.164.582.582 0 01-.16-.418zm3.72 5.398a2.08 2.08 0 01-.77-.133 1.522 1.522 0 01-.563-.383 1.713 1.713 0 01-.351-.613 2.562 2.562 0 01-.122-.82v-.348c0-.343.04-.644.118-.902.078-.26.188-.48.332-.656.143-.177.319-.309.527-.395.21-.088.45-.133.715-.133.265 0 .498.045.699.133.203.086.371.216.504.39.133.173.233.386.3.641.068.256.102.552.102.891v.5h-2.832v-.77h1.758v-.097c0-.172-.018-.315-.055-.43a.493.493 0 00-.171-.262.517.517 0 00-.313-.086.54.54 0 00-.277.067.457.457 0 00-.18.207 1.285 1.285 0 00-.098.367 3.91 3.91 0 00-.031.535v.348c0 .195.017.36.05.492a.87.87 0 00.15.32c.067.081.149.14.245.176.097.034.209.051.336.051a1.196 1.196 0 00.918-.387l.438.664a1.707 1.707 0 01-.79.54 2 2 0 01-.64.093zm4-1.219a.29.29 0 00-.075-.195.878.878 0 00-.234-.176 3.897 3.897 0 00-.426-.207 4.51 4.51 0 01-.512-.242 1.801 1.801 0 01-.379-.277 1.026 1.026 0 01-.23-.348 1.191 1.191 0 01-.078-.445c0-.18.032-.345.097-.496.068-.154.164-.288.29-.403.124-.117.276-.208.456-.273.183-.068.387-.102.614-.102.317 0 .59.056.816.168.23.11.405.263.527.461.123.198.184.429.184.692H71.37a.679.679 0 00-.043-.25.35.35 0 00-.14-.176.453.453 0 00-.254-.063.406.406 0 00-.355.188.364.364 0 00-.052.195c0 .057.012.108.035.153a.461.461 0 00.122.128c.054.042.127.086.218.133.094.044.209.094.344.149.281.104.512.216.692.336.182.12.317.26.406.422.088.158.133.355.133.59 0 .187-.037.357-.11.511-.07.154-.173.286-.308.398a1.433 1.433 0 01-.489.258 2.06 2.06 0 01-.629.09c-.34 0-.629-.068-.863-.203a1.397 1.397 0 01-.531-.52 1.34 1.34 0 01-.18-.664h1.04c.005.141.03.252.077.332.05.079.116.133.2.164a.783.783 0 00.277.047.679.679 0 00.25-.039.312.312 0 00.152-.129.414.414 0 00.051-.207zm3.46 1.22a2.08 2.08 0 01-.77-.134 1.52 1.52 0 01-.562-.383 1.712 1.712 0 01-.352-.613 2.565 2.565 0 01-.12-.82v-.348c0-.343.038-.644.117-.902.078-.26.188-.48.331-.656.144-.177.32-.309.528-.395.21-.088.45-.133.715-.133.265 0 .498.045.699.133.203.086.371.216.504.39.133.173.233.386.3.641.068.256.102.552.102.891v.5h-2.832v-.77h1.758v-.097a1.44 1.44 0 00-.055-.43.494.494 0 00-.172-.262.517.517 0 00-.312-.086.54.54 0 00-.277.067.456.456 0 00-.18.207 1.284 1.284 0 00-.098.367c-.02.148-.031.327-.031.535v.348c0 .195.017.36.05.492.035.13.084.237.15.32.067.081.149.14.245.176.097.034.209.051.336.051a1.198 1.198 0 00.918-.387l.438.664a1.707 1.707 0 01-.79.54 2 2 0 01-.64.093zm3.227-3.43V40h-1.098v-4.227h1.031l.067.875zm-.157 1.093l-.3.008c-.006-.297.02-.57.078-.82.057-.25.143-.468.258-.653.117-.185.264-.328.44-.43.178-.1.385-.152.622-.152.154 0 .295.029.426.086.13.055.243.142.34.262.096.117.17.27.222.46.052.188.078.414.078.677V40h-1.093v-2.688c0-.187-.019-.33-.055-.43a.377.377 0 00-.156-.21.468.468 0 00-.25-.063.45.45 0 00-.274.086.625.625 0 00-.191.242 1.543 1.543 0 00-.11.36 2.655 2.655 0 00-.035.445zm2.059-.11l-.395.052c-.005-.28.02-.538.075-.778.054-.242.139-.453.254-.633.114-.182.257-.324.43-.425.174-.102.376-.153.605-.153.171 0 .328.029.468.086.141.058.26.15.36.278.101.125.178.29.23.496.055.205.082.455.082.75V40h-1.097v-2.691c0-.19-.019-.336-.055-.438-.037-.102-.089-.17-.156-.207a.504.504 0 00-.243-.055.402.402 0 00-.246.078.62.62 0 00-.172.22c-.046.09-.082.199-.105.324a2.137 2.137 0 00-.035.402zM9.52 44.329L8.297 49H7.09l1.777-5.688h.754l-.101 1.016zM10.484 49l-1.23-4.672-.113-1.016h.765L11.7 49h-1.215zm.043-2.121v.95H7.961v-.95h2.566zm2.547-1.203V49h-1.097v-4.227h1.027l.07.903zm-.164 1.066l-.293.008a3.222 3.222 0 01.09-.855c.068-.253.163-.468.285-.645.125-.18.274-.316.445-.41.175-.097.369-.145.583-.145.164 0 .313.029.449.086a.88.88 0 01.355.274c.1.125.176.291.23.5.055.205.083.458.083.758V49h-1.098v-2.695c0-.183-.018-.323-.055-.422a.365.365 0 00-.164-.211.544.544 0 00-.273-.063.453.453 0 00-.277.09.681.681 0 00-.204.239 1.42 1.42 0 00-.12.359 2.21 2.21 0 00-.036.445zM15.941 43h1.09v5.02l-.078.98h-1.012v-6zm3.286 3.746v.277c0 .344-.028.644-.082.899a1.84 1.84 0 01-.247.64c-.109.172-.25.301-.421.387a1.347 1.347 0 01-.61.13.97.97 0 01-.543-.15 1.267 1.267 0 01-.383-.417 2.729 2.729 0 01-.25-.63 5.274 5.274 0 01-.136-.792v-.41c.026-.282.07-.543.133-.785.065-.243.148-.452.25-.63.101-.18.227-.318.378-.417a.962.962 0 01.543-.153c.24 0 .446.045.618.133.171.086.312.215.421.387.112.172.194.387.247.644.054.256.082.551.082.887zm-1.09.277v-.277c0-.195-.008-.363-.024-.504a1.196 1.196 0 00-.086-.351.45.45 0 00-.18-.211.565.565 0 00-.3-.07.548.548 0 00-.281.066.556.556 0 00-.196.187.91.91 0 00-.117.29 1.92 1.92 0 00-.039.363v.738c.003.18.025.338.066.477a.644.644 0 00.2.32.58.58 0 00.375.113c.122 0 .221-.02.297-.062a.415.415 0 00.175-.2 1.02 1.02 0 00.086-.351 5.06 5.06 0 00.024-.528zm2.91-2.25V49h-1.098v-4.227h1.098zm-1.149-1.093c0-.17.054-.309.16-.418a.584.584 0 01.438-.168c.185 0 .33.056.438.168.106.11.16.248.16.418a.574.574 0 01-.164.418.573.573 0 01-.43.164.597.597 0 01-.441-.164.582.582 0 01-.16-.418zm3.72 5.398a2.08 2.08 0 01-.77-.133 1.52 1.52 0 01-.563-.383 1.712 1.712 0 01-.351-.613 2.565 2.565 0 01-.122-.82v-.348c0-.343.04-.644.118-.902.078-.26.189-.48.332-.656.143-.177.319-.309.527-.395.211-.088.45-.133.715-.133.265 0 .499.045.7.133.202.086.37.216.503.39.133.173.233.386.3.641.069.256.102.552.102.891v.5h-2.832v-.77h1.758v-.097a1.44 1.44 0 00-.055-.43.494.494 0 00-.171-.262.517.517 0 00-.313-.086.54.54 0 00-.277.067.456.456 0 00-.18.207 1.281 1.281 0 00-.098.367c-.02.148-.03.327-.03.535v.348c0 .195.016.36.05.492a.87.87 0 00.148.32c.068.081.15.14.246.176.097.034.209.051.336.051a1.197 1.197 0 00.918-.387l.438.664a1.707 1.707 0 01-.79.54 2 2 0 01-.64.093zm3.968-4.305v.825H25.43v-.825h2.156zm-1.66-1.043h1.09v3.98a.8.8 0 00.035.27.24.24 0 00.105.133.46.46 0 00.196.035.75.75 0 00.258-.031v.856c-.087.034-.178.06-.274.078a1.788 1.788 0 01-.336.027c-.219 0-.409-.042-.57-.125a.852.852 0 01-.371-.398c-.089-.185-.133-.427-.133-.727V43.73zm3.972 5.348a2.08 2.08 0 01-.77-.133 1.522 1.522 0 01-.562-.383 1.715 1.715 0 01-.351-.613 2.565 2.565 0 01-.121-.82v-.348c0-.343.039-.644.117-.902.078-.26.189-.48.332-.656.143-.177.319-.309.527-.395.211-.088.45-.133.715-.133.266 0 .499.045.7.133.203.086.37.216.503.39.133.173.233.386.301.641.068.256.102.552.102.891v.5h-2.832v-.77h1.757v-.097c0-.172-.018-.315-.054-.43a.493.493 0 00-.172-.262.517.517 0 00-.313-.086.54.54 0 00-.277.067.457.457 0 00-.18.207 1.281 1.281 0 00-.097.367 3.91 3.91 0 00-.032.535v.348c0 .195.017.36.051.492.034.13.084.237.149.32.067.081.15.14.246.176.096.034.208.051.336.051a1.198 1.198 0 00.918-.387l.437.664c-.075.1-.18.198-.312.297-.133.1-.292.18-.477.242a2 2 0 01-.64.094zm3.22-3.363V49h-1.095v-4.227h1.032l.062.942zm.995-.973l-.015 1.09a2.377 2.377 0 00-.36-.031.751.751 0 00-.312.058.52.52 0 00-.215.168.782.782 0 00-.125.274c-.029.11-.046.233-.05.37l-.208-.077c0-.276.021-.529.063-.758.044-.232.109-.432.195-.602.086-.172.189-.304.309-.398a.664.664 0 01.414-.14.92.92 0 01.164.015c.06.008.106.018.14.031zm-.023 3.7c0-.172.057-.316.172-.43a.62.62 0 01.465-.176.62.62 0 01.464.176.583.583 0 01.172.43.583.583 0 01-.172.43.628.628 0 01-.464.171.628.628 0 01-.465-.172.583.583 0 01-.172-.43zm6.773-.88c0-.283-.077-.5-.23-.652-.154-.15-.431-.298-.832-.441-.401-.144-.709-.293-.922-.45a1.651 1.651 0 01-.477-.538 1.503 1.503 0 01-.156-.696c0-.45.15-.821.45-1.113.301-.292.696-.438 1.183-.438.333 0 .63.076.89.227.26.148.462.355.602.621.14.266.211.557.211.875h-.719c0-.352-.084-.624-.254-.816-.169-.193-.412-.29-.73-.29-.29 0-.513.081-.672.243-.159.161-.238.388-.238.68 0 .239.086.44.258.601.171.161.437.306.796.434.56.184.96.412 1.2.683.242.271.363.625.363 1.063 0 .46-.15.83-.45 1.11-.299.275-.706.413-1.222.413-.33 0-.637-.072-.918-.215a1.675 1.675 0 01-.66-.61 1.711 1.711 0 01-.238-.901h.718c0 .351.098.625.293.82.198.195.466.293.805.293.315 0 .552-.08.711-.242.159-.162.238-.382.238-.66zM43.176 49h-.692v-4.227h.692V49zm.054-5.348a.442.442 0 01-.097.293c-.065.078-.164.117-.297.117-.13 0-.228-.039-.293-.117a.442.442 0 01-.098-.293c0-.117.033-.216.098-.297.065-.08.163-.12.293-.12.13 0 .228.041.293.124a.44.44 0 01.102.293zm2.547 5.426c-.526 0-.93-.156-1.21-.469-.282-.315-.425-.776-.43-1.382v-.512c0-.63.136-1.124.41-1.48.276-.36.66-.54 1.152-.54.495 0 .865.158 1.11.473.244.315.37.806.375 1.473v.453h-2.36v.097c0 .453.085.783.254.989.172.205.418.308.738.308a1.2 1.2 0 00.536-.113c.156-.078.302-.2.437-.367l.36.437c-.3.422-.757.633-1.372.633zM45.7 45.29c-.286 0-.498.099-.636.297-.139.195-.217.5-.235.914h1.664v-.094c-.018-.4-.091-.687-.219-.86-.125-.171-.316-.257-.574-.257zm6.207 2.629a.51.51 0 00-.168-.383c-.112-.107-.328-.232-.648-.375-.373-.153-.636-.285-.79-.394a1.137 1.137 0 01-.34-.371 1.042 1.042 0 01-.112-.5c0-.344.125-.63.375-.856.252-.23.574-.344.965-.344.411 0 .742.12.992.36s.375.547.375.922h-.688a.673.673 0 00-.191-.485.642.642 0 00-.489-.203c-.203 0-.363.053-.48.16a.542.542 0 00-.172.422c0 .14.042.254.125.34.086.086.29.2.613.34.513.2.862.397 1.047.59a1 1 0 01.278.726c0 .367-.127.662-.38.883-.252.219-.59.328-1.015.328-.44 0-.797-.126-1.07-.379a1.251 1.251 0 01-.41-.96h.695c.008.234.08.417.215.55.135.133.325.2.57.2.23 0 .404-.051.524-.153a.526.526 0 00.18-.418zm1.45-1.227c0-.614.148-1.1.445-1.457.3-.359.694-.539 1.183-.539.49 0 .883.175 1.18.524.3.349.453.824.461 1.425v.446c0 .612-.148 1.096-.445 1.453-.297.357-.693.535-1.188.535-.49 0-.883-.173-1.18-.52-.294-.346-.446-.815-.456-1.406v-.46zm.69.399c0 .435.086.777.255 1.027a.802.802 0 00.691.371c.61 0 .923-.44.942-1.32v-.477c0-.432-.086-.773-.258-1.023-.172-.253-.403-.379-.692-.379-.284 0-.511.126-.683.379-.17.25-.254.59-.254 1.02v.402zM58.263 49h-.692v-6h.692v6zm1.836 0h-.692v-6h.692v6zm1.996-5.25v1.023h.636v.559h-.636v2.621c0 .167.027.293.082.379.054.086.148.129.281.129a.875.875 0 00.277-.047l-.007.586a1.51 1.51 0 01-.48.078c-.274 0-.483-.098-.626-.293-.143-.195-.215-.471-.215-.828v-2.625h-.644v-.559h.644V43.75h.688zm2.972 5.328c-.526 0-.93-.156-1.21-.469-.282-.315-.425-.776-.43-1.382v-.512c0-.63.136-1.124.41-1.48.276-.36.66-.54 1.152-.54.495 0 .865.158 1.11.473.244.315.37.806.375 1.473v.453h-2.36v.097c0 .453.085.783.254.989.172.205.418.308.739.308.203 0 .381-.038.535-.113.156-.078.302-.2.437-.367l.36.437c-.3.422-.757.633-1.372.633zm-.078-3.789c-.286 0-.498.099-.636.297-.139.195-.217.5-.235.914h1.664v-.094c-.018-.4-.09-.687-.219-.86-.124-.171-.316-.257-.574-.257zm2.969-.516l.02.457c.268-.356.61-.535 1.027-.535.747 0 1.126.499 1.137 1.496V49h-.688v-2.777c0-.331-.056-.565-.168-.703-.11-.141-.275-.211-.496-.211a.709.709 0 00-.465.172 1.249 1.249 0 00-.328.449V49h-.691v-4.227h.652zM9.672 57.63c-.23.3-.564.45-1.004.45-.383 0-.672-.132-.867-.395-.196-.266-.294-.651-.297-1.157v-2.754h.687v2.704c0 .658.198.988.594.988.42 0 .708-.188.867-.563v-3.129h.692V58h-.656l-.016-.371zm-2-4.984c0-.118.035-.215.105-.293.073-.081.18-.121.32-.121.141 0 .248.04.321.12.073.079.11.176.11.294a.413.413 0 01-.11.292c-.073.079-.18.118-.32.118-.141 0-.248-.04-.32-.117a.422.422 0 01-.106-.294zm1.68.007c0-.117.035-.216.105-.297.073-.08.18-.12.32-.12.141 0 .248.04.32.12.074.081.11.18.11.297a.413.413 0 01-.11.293c-.072.078-.179.117-.32.117-.14 0-.247-.039-.32-.117a.422.422 0 01-.105-.293zm5.093 3.438c0 .659-.118 1.155-.355 1.488-.237.333-.58.5-1.031.5-.448 0-.784-.193-1.008-.578l-.035.5h-.63v-6h.688v2.238c.227-.362.552-.543.977-.543.463 0 .811.164 1.043.492.232.329.349.823.351 1.485v.418zm-.687-.395c0-.5-.07-.855-.211-1.066-.138-.214-.363-.32-.676-.32-.357 0-.622.192-.797.578v2.011c.172.38.44.57.805.57.312 0 .536-.109.672-.327.135-.22.204-.559.207-1.02v-.426zm3.082 2.383c-.526 0-.93-.156-1.211-.469-.281-.315-.425-.776-.43-1.382v-.512c0-.63.137-1.124.41-1.48.276-.36.66-.54 1.153-.54.494 0 .864.158 1.11.473.244.315.369.806.374 1.473v.453h-2.36v.097c0 .453.085.783.255.989.172.205.418.308.738.308a1.2 1.2 0 00.535-.113c.156-.078.302-.2.438-.367l.359.437c-.3.422-.757.633-1.371.633zm-.078-3.789c-.287 0-.499.099-.637.297-.138.195-.216.5-.234.914h1.664v-.094c-.018-.4-.091-.687-.22-.86-.124-.171-.316-.257-.573-.257zm4.062.133a1.675 1.675 0 00-.312-.027c-.354 0-.602.194-.742.582V58h-.692v-4.227h.672l.012.43c.185-.338.446-.508.785-.508.11 0 .2.019.273.055l.004.672zM22.262 58h-.692v-6h.692v6zm2.601.078c-.526 0-.93-.156-1.21-.469-.282-.315-.425-.776-.43-1.382v-.512c0-.63.136-1.124.41-1.48.276-.36.66-.54 1.152-.54.495 0 .865.158 1.11.473.244.315.37.806.375 1.473v.453h-2.36v.097c0 .453.085.783.254.989.172.205.418.308.738.308a1.2 1.2 0 00.535-.113c.157-.078.303-.2.438-.367l.36.437c-.3.422-.757.633-1.372.633zm-.078-3.789c-.286 0-.498.099-.637.297-.138.195-.216.5-.234.914h1.664v-.094c-.018-.4-.091-.687-.219-.86-.125-.171-.316-.257-.574-.257zm2.18 1.406c0-.659.12-1.156.36-1.492.239-.338.59-.508 1.05-.508.43 0 .756.184.98.551l.036-.473h.625v4.266c0 .523-.134.925-.403 1.203-.268.281-.642.422-1.12.422-.21 0-.444-.052-.704-.156-.258-.102-.452-.228-.582-.38l.281-.476c.287.282.603.422.95.422.575 0 .87-.314.886-.941v-.551c-.224.33-.541.496-.953.496-.437 0-.779-.164-1.023-.492-.245-.33-.373-.805-.383-1.422v-.469zm.691.395c0 .474.07.823.207 1.047.14.221.37.332.688.332.344 0 .601-.176.773-.528v-2.113c-.18-.346-.435-.52-.765-.52-.318 0-.547.113-.688.337-.14.22-.212.562-.215 1.023v.422zm4.903 1.988c-.526 0-.93-.156-1.211-.469-.282-.315-.425-.776-.43-1.382v-.512c0-.63.137-1.124.41-1.48.276-.36.66-.54 1.152-.54.495 0 .865.158 1.11.473.245.315.37.806.375 1.473v.453h-2.36v.097c0 .453.085.783.254.989.172.205.418.308.739.308.203 0 .381-.038.535-.113.156-.078.302-.2.437-.367l.36.437c-.3.422-.757.633-1.371.633zm-.078-3.789c-.287 0-.5.099-.637.297-.138.195-.216.5-.235.914h1.664v-.094c-.018-.4-.09-.687-.218-.86-.125-.171-.317-.257-.575-.257zm2.968-.516l.02.457c.268-.356.61-.535 1.027-.535.747 0 1.126.499 1.137 1.496V58h-.688v-2.777c0-.331-.056-.565-.168-.703-.109-.141-.274-.211-.496-.211a.709.709 0 00-.465.172 1.249 1.249 0 00-.328.449V58h-.691v-4.227h.652zm3.23 5.36l-.41-.281c.245-.342.373-.693.383-1.055v-.652h.707v.566c0 .263-.065.526-.195.789-.128.263-.289.474-.484.633zm3.255-3.442c0-.614.148-1.1.445-1.457.3-.359.694-.539 1.184-.539s.882.175 1.18.524c.299.349.452.824.46 1.425v.446c0 .612-.148 1.096-.445 1.453-.297.357-.693.535-1.188.535-.49 0-.883-.173-1.18-.52-.294-.346-.446-.815-.456-1.406v-.46zm.691.399c0 .435.085.777.254 1.027a.802.802 0 00.691.371c.61 0 .923-.44.942-1.32v-.477c0-.432-.086-.773-.258-1.023-.172-.253-.402-.379-.691-.379-.284 0-.512.126-.684.379-.17.25-.254.59-.254 1.02v.402zm6.531 0c0 .659-.118 1.155-.355 1.488-.237.333-.58.5-1.032.5-.447 0-.783-.193-1.007-.578l-.035.5h-.63v-6h.688v2.238c.227-.362.552-.543.977-.543.463 0 .81.164 1.043.492.231.329.349.823.351 1.485v.418zm-.687-.395c0-.5-.07-.855-.211-1.066-.138-.214-.364-.32-.676-.32-.357 0-.622.192-.797.578v2.011c.172.38.44.57.805.57.312 0 .536-.109.672-.327.135-.22.204-.559.207-1.02v-.426zm5.988.867c0-.283-.077-.5-.23-.652-.154-.15-.431-.298-.832-.441-.402-.144-.709-.293-.922-.45a1.65 1.65 0 01-.477-.538 1.502 1.502 0 01-.156-.696c0-.45.15-.821.45-1.113.301-.292.696-.438 1.183-.438.333 0 .63.076.89.227.26.148.461.355.602.621.14.266.21.557.21.875h-.718c0-.352-.085-.624-.254-.816-.17-.193-.413-.29-.73-.29-.29 0-.513.081-.672.243-.16.161-.239.388-.239.68 0 .239.086.44.258.601.172.161.438.306.797.434.56.184.96.412 1.2.683.242.271.363.625.363 1.063 0 .46-.15.83-.45 1.11-.299.275-.707.413-1.222.413-.33 0-.637-.072-.918-.215a1.675 1.675 0 01-.66-.61 1.71 1.71 0 01-.239-.901h.72c0 .351.097.625.292.82.198.195.466.293.805.293.315 0 .552-.08.71-.242.16-.162.239-.382.239-.66zM56.77 58h-.692v-4.227h.691V58zm.054-5.348a.442.442 0 01-.097.293c-.066.078-.164.117-.297.117-.13 0-.228-.039-.293-.117a.442.442 0 01-.098-.293c0-.117.033-.216.098-.297.065-.08.163-.12.293-.12.13 0 .228.041.293.124a.44.44 0 01.101.293zm2.547 5.426c-.526 0-.93-.156-1.21-.469-.282-.315-.425-.776-.43-1.382v-.512c0-.63.136-1.124.41-1.48.276-.36.66-.54 1.152-.54.495 0 .865.158 1.11.473.244.315.37.806.374 1.473v.453h-2.359v.097c0 .453.085.783.254.989.172.205.418.308.738.308.203 0 .382-.038.535-.113.157-.078.302-.2.438-.367l.36.437c-.3.422-.757.633-1.372.633zm-.078-3.789c-.286 0-.499.099-.637.297-.138.195-.216.5-.234.914h1.664v-.094c-.018-.4-.091-.687-.219-.86-.125-.171-.316-.257-.574-.257zm5.664 3.79c-.526 0-.93-.157-1.21-.47-.282-.315-.425-.776-.43-1.382v-.512c0-.63.136-1.124.41-1.48.276-.36.66-.54 1.152-.54.495 0 .864.158 1.11.473.244.315.37.806.374 1.473v.453h-2.36v.097c0 .453.085.783.255.989.172.205.418.308.738.308.203 0 .382-.038.535-.113.156-.078.302-.2.438-.367l.36.437c-.3.422-.757.633-1.372.633zm-.078-3.79c-.287 0-.499.099-.637.297-.138.195-.216.5-.234.914h1.664v-.094c-.018-.4-.091-.687-.219-.86-.125-.171-.316-.257-.574-.257zm4.371 2.629a.51.51 0 00-.168-.383c-.112-.107-.328-.232-.648-.375-.373-.153-.636-.285-.79-.394a1.136 1.136 0 01-.34-.371 1.042 1.042 0 01-.113-.5c0-.344.125-.63.375-.856.253-.23.575-.344.965-.344.412 0 .742.12.992.36s.375.547.375.922h-.687a.673.673 0 00-.192-.485.641.641 0 00-.488-.203c-.203 0-.363.053-.48.16a.542.542 0 00-.172.422c0 .14.042.254.125.34.086.086.29.2.613.34.513.2.862.397 1.047.59a1 1 0 01.277.726c0 .367-.126.662-.379.883-.252.219-.59.328-1.015.328-.44 0-.797-.126-1.07-.379a1.251 1.251 0 01-.41-.96h.695c.007.234.08.417.215.55.135.133.325.2.57.2.229 0 .404-.051.523-.153a.526.526 0 00.18-.418zm-59.68 9a.51.51 0 00-.168-.383c-.112-.107-.328-.232-.648-.375-.372-.153-.636-.285-.79-.394a1.136 1.136 0 01-.339-.372 1.042 1.042 0 01-.113-.5c0-.343.125-.628.375-.855.252-.23.574-.344.965-.344.411 0 .742.12.992.36s.375.547.375.922H9.53a.673.673 0 00-.191-.485.642.642 0 00-.488-.203c-.204 0-.364.053-.48.16a.542.542 0 00-.173.422c0 .14.042.254.125.34.086.086.29.2.614.34.513.2.861.397 1.046.59.185.19.278.432.278.726 0 .367-.127.662-.38.883-.252.219-.59.328-1.015.328-.44 0-.797-.126-1.07-.379a1.251 1.251 0 01-.41-.96h.695c.008.234.08.417.215.55.135.133.325.2.57.2.23 0 .404-.052.524-.153a.526.526 0 00.18-.418zM11.91 67h-.691v-4.227h.691V67zm.055-5.348a.442.442 0 01-.098.293c-.065.078-.164.117-.297.117-.13 0-.228-.039-.293-.117a.442.442 0 01-.097-.293c0-.117.032-.216.097-.297.065-.08.163-.12.293-.12.13 0 .228.041.293.124a.44.44 0 01.102.293zm2.504 4.836c.229 0 .413-.07.55-.21.139-.144.214-.347.227-.61h.652a1.44 1.44 0 01-.433 1.012c-.271.265-.603.398-.996.398-.524 0-.923-.164-1.2-.492-.273-.33-.41-.822-.41-1.473v-.465c0-.638.137-1.122.41-1.453.274-.333.672-.5 1.196-.5.432 0 .775.137 1.027.41.255.274.39.648.406 1.122h-.652c-.016-.313-.091-.547-.226-.704-.133-.156-.318-.234-.555-.234-.307 0-.535.102-.684.305-.148.2-.225.531-.23.992v.539c0 .497.073.849.219 1.055.148.205.381.308.699.308zm2.918-3.281c.263-.341.599-.512 1.008-.512.747 0 1.126.499 1.136 1.496V67h-.687v-2.777c0-.331-.056-.565-.168-.703-.11-.141-.275-.211-.496-.211a.71.71 0 00-.465.172 1.25 1.25 0 00-.328.449V67h-.692v-6h.692v2.207zM23.145 67h-.692v-6h.692v6zm2.601.078c-.526 0-.93-.156-1.21-.469-.282-.315-.425-.776-.43-1.382v-.512c0-.63.136-1.124.41-1.48.276-.36.66-.54 1.152-.54.495 0 .865.158 1.11.473.244.315.37.806.374 1.473v.453h-2.359v.097c0 .453.085.783.254.989.172.205.418.308.738.308.203 0 .382-.037.535-.113.157-.078.302-.2.438-.367l.36.437c-.3.422-.757.633-1.372.633zm-.078-3.789c-.287 0-.499.099-.637.297-.138.195-.216.5-.234.914h1.664v-.094c-.018-.4-.091-.687-.219-.86-.125-.171-.316-.257-.574-.257zM28.731 67h-.692v-4.227h.691V67zm.054-5.348a.442.442 0 01-.098.293c-.065.078-.164.117-.296.117-.13 0-.228-.039-.293-.117a.442.442 0 01-.098-.293c0-.117.033-.216.098-.297.065-.08.162-.12.293-.12.13 0 .228.041.293.124a.44.44 0 01.101.293zm3.09 4.266a.51.51 0 00-.168-.383c-.112-.107-.328-.232-.648-.375-.373-.153-.636-.285-.79-.394a1.136 1.136 0 01-.34-.372 1.042 1.042 0 01-.113-.5c0-.343.125-.628.375-.855.253-.23.575-.344.965-.344.412 0 .742.12.992.36s.375.547.375.922h-.687a.673.673 0 00-.191-.485.641.641 0 00-.489-.203c-.203 0-.363.053-.48.16a.542.542 0 00-.172.422c0 .14.042.254.125.34.086.086.29.2.613.34.513.2.862.397 1.047.59a1 1 0 01.277.726c0 .367-.126.662-.379.883-.252.219-.59.328-1.015.328-.44 0-.797-.126-1.07-.379a1.251 1.251 0 01-.41-.96h.695c.008.234.08.417.215.55.135.133.325.2.57.2.229 0 .404-.052.523-.153a.526.526 0 00.18-.418zm2.5-4.168v1.023h.637v.559h-.637v2.621c0 .167.027.293.082.379.055.086.148.129.281.129a.874.874 0 00.278-.047l-.008.586a1.509 1.509 0 01-.48.078c-.274 0-.482-.097-.626-.293-.143-.195-.215-.471-.215-.828v-2.625h-.644v-.559h.645V61.75h.687zm2.973 5.328c-.526 0-.93-.156-1.211-.469-.282-.315-.425-.776-.43-1.382v-.512c0-.63.137-1.124.41-1.48.276-.36.66-.54 1.153-.54.494 0 .864.158 1.109.473.245.315.37.806.375 1.473v.453h-2.36v.097c0 .453.085.783.254.989.172.205.418.308.739.308a1.2 1.2 0 00.535-.113c.156-.078.302-.2.437-.367l.36.437c-.3.422-.757.633-1.371.633zm-.078-3.789c-.287 0-.5.099-.637.297-.138.195-.216.5-.235.914h1.664v-.094c-.018-.4-.09-.687-.218-.86-.125-.171-.317-.257-.575-.257zm2.968-.516l.02.457c.268-.356.61-.535 1.027-.535.748 0 1.127.499 1.137 1.496V67h-.688v-2.777c0-.331-.056-.565-.168-.703-.109-.141-.274-.211-.496-.211a.709.709 0 00-.465.172 1.25 1.25 0 00-.328.449V67h-.691v-4.227h.652zm6.121 2.293l-.367.422V67h-.691v-6h.691v3.59l1.317-1.817h.828l-1.344 1.766L48.313 67h-.805l-1.149-1.934zm2.403-.375c0-.614.148-1.1.445-1.457.3-.359.694-.539 1.184-.539s.882.175 1.18.524c.299.349.452.824.46 1.425v.446c0 .612-.148 1.096-.445 1.453-.297.357-.693.535-1.188.535-.49 0-.882-.173-1.18-.52-.294-.346-.446-.815-.456-1.406v-.46zm.691.399c0 .435.085.777.254 1.027a.802.802 0 00.691.371c.61 0 .924-.44.942-1.32v-.477c0-.432-.086-.773-.258-1.023-.172-.253-.402-.379-.691-.379-.284 0-.512.126-.684.379-.17.25-.254.59-.254 1.02v.402zm-.351-3.446c0-.117.035-.214.105-.292.073-.081.18-.121.32-.121.141 0 .248.04.32.12.074.079.11.176.11.294a.413.413 0 01-.11.292c-.072.079-.179.118-.32.118-.14 0-.247-.04-.32-.117a.422.422 0 01-.105-.294zm1.68.008c0-.117.034-.216.105-.297.073-.08.18-.12.32-.12s.247.04.32.12c.073.081.11.18.11.297a.412.412 0 01-.11.293c-.073.078-.18.117-.32.117s-.247-.039-.32-.117a.422.422 0 01-.106-.293zm2.792 1.121l.02.457c.268-.356.61-.535 1.027-.535.747 0 1.126.499 1.137 1.496V67h-.688v-2.777c0-.331-.056-.565-.168-.703-.109-.141-.274-.211-.496-.211a.709.709 0 00-.465.172 1.249 1.249 0 00-.328.449V67h-.691v-4.227h.652zm3.875 0l.02.457c.268-.356.61-.535 1.027-.535.747 0 1.126.499 1.137 1.496V67h-.688v-2.777c0-.331-.056-.565-.168-.703-.109-.141-.274-.211-.496-.211a.709.709 0 00-.465.172 1.249 1.249 0 00-.328.449V67h-.691v-4.227h.652zm4.735 4.305c-.526 0-.93-.156-1.211-.469-.282-.315-.425-.776-.43-1.382v-.512c0-.63.137-1.124.41-1.48.276-.36.66-.54 1.152-.54.495 0 .865.158 1.11.473.245.315.37.806.375 1.473v.453h-2.36v.097c0 .453.085.783.254.989.172.205.418.308.739.308.203 0 .381-.037.535-.113.156-.078.302-.2.437-.367l.36.437c-.3.422-.757.633-1.371.633zm-.078-3.789c-.287 0-.5.099-.637.297-.138.195-.216.5-.235.914h1.664v-.094c-.018-.4-.09-.687-.218-.86-.125-.171-.317-.257-.575-.257zm2.968-.516l.02.457c.268-.356.61-.535 1.027-.535.748 0 1.126.499 1.137 1.496V67h-.688v-2.777c0-.331-.056-.565-.168-.703-.109-.141-.274-.211-.496-.211a.709.709 0 00-.465.172 1.249 1.249 0 00-.328.449V67h-.691v-4.227h.652zm3.23 5.36l-.41-.281c.245-.342.373-.693.383-1.055v-.653h.707v.567c0 .263-.065.526-.195.789-.127.263-.289.474-.484.633zm3.255-3.438c0-.65.12-1.147.363-1.488.245-.341.595-.512 1.05-.512.404 0 .72.164.946.492V61h.691v6h-.632l-.036-.453c-.226.354-.55.531-.972.531-.438 0-.781-.17-1.031-.508-.248-.34-.374-.821-.38-1.441v-.434zm.691.395c0 .474.07.823.21 1.047.142.221.37.332.688.332.344 0 .6-.173.77-.52v-2.133c-.177-.338-.432-.507-.766-.507-.317 0-.546.112-.687.336-.14.22-.212.562-.215 1.023v.422zM77.848 67c-.042-.091-.072-.245-.09-.46-.245.358-.557.538-.938.538-.382 0-.682-.107-.898-.32-.214-.216-.32-.52-.32-.91 0-.43.145-.771.437-1.024.292-.252.692-.381 1.2-.386h.507v-.45c0-.252-.056-.432-.168-.539-.112-.107-.282-.16-.512-.16a.703.703 0 00-.507.188.615.615 0 00-.196.468h-.691c0-.216.064-.422.191-.617.128-.198.3-.353.516-.465.216-.112.457-.168.723-.168.432 0 .76.108.984.325.227.213.342.526.348.937v2.133c.002.325.047.608.132.847V67h-.718zm-.922-.55c.17 0 .33-.048.484-.141a.867.867 0 00.336-.352v-1.008h-.39c-.329.005-.588.08-.778.223a.695.695 0 00-.285.594c0 .24.048.414.144.523.097.107.26.16.489.16zm4.636-.532a.51.51 0 00-.168-.383c-.111-.107-.328-.232-.648-.375-.372-.153-.635-.285-.789-.394a1.136 1.136 0 01-.34-.372 1.042 1.042 0 01-.113-.5c0-.343.125-.628.375-.855.252-.23.574-.344.965-.344.411 0 .742.12.992.36s.375.547.375.922h-.688a.673.673 0 00-.191-.485.641.641 0 00-.488-.203c-.203 0-.363.053-.48.16a.542.542 0 00-.173.422c0 .14.042.254.125.34.086.086.29.2.614.34.513.2.862.397 1.047.59a1 1 0 01.277.726c0 .367-.126.662-.379.883-.253.219-.591.328-1.016.328-.44 0-.796-.126-1.07-.379a1.251 1.251 0 01-.41-.96h.695c.008.234.08.417.215.55.135.133.326.2.57.2.23 0 .404-.052.524-.153a.526.526 0 00.18-.418zM8.207 72.207c.263-.341.599-.512 1.008-.512.747 0 1.126.499 1.137 1.496V76h-.688v-2.777c0-.331-.056-.565-.168-.704-.11-.14-.275-.21-.496-.21a.709.709 0 00-.465.172 1.25 1.25 0 00-.328.449V76h-.691v-6h.691v2.207zm3.031 1.484c0-.614.149-1.1.446-1.457.3-.359.694-.539 1.183-.539.49 0 .883.175 1.18.524.3.349.453.824.46 1.425v.446c0 .612-.148 1.096-.444 1.453-.297.357-.693.535-1.188.535-.49 0-.883-.173-1.18-.52-.294-.346-.446-.815-.457-1.406v-.46zm.692.399c0 .435.084.777.254 1.027a.802.802 0 00.691.371c.61 0 .923-.44.941-1.32v-.477c0-.432-.086-.773-.257-1.023-.172-.253-.403-.379-.692-.379-.284 0-.512.126-.683.379-.17.25-.254.59-.254 1.02v.402zm4.16-1.883c.263-.341.599-.512 1.008-.512.747 0 1.126.499 1.136 1.496V76h-.687v-2.777c0-.331-.056-.565-.168-.704-.11-.14-.275-.21-.496-.21a.709.709 0 00-.465.172 1.25 1.25 0 00-.328.449V76h-.692v-6h.692v2.207zm4.687 3.871c-.526 0-.93-.156-1.21-.469-.282-.315-.425-.776-.43-1.382v-.512c0-.63.136-1.124.41-1.48.276-.36.66-.54 1.152-.54.495 0 .865.158 1.11.473.244.315.37.806.375 1.473v.453h-2.36v.097c0 .453.085.783.254.989.172.205.418.308.738.308a1.2 1.2 0 00.536-.113c.156-.078.302-.2.437-.367l.36.437c-.3.422-.757.633-1.372.633zM20.7 72.29c-.286 0-.498.099-.637.297-.138.195-.216.5-.234.914h1.664v-.094c-.018-.4-.091-.687-.219-.86-.125-.171-.316-.257-.574-.257zm5.969 1.41h-1V76h-.719v-5.688h1.594c.557 0 .98.146 1.266.438.286.29.43.713.43 1.273 0 .352-.079.66-.235.922-.154.26-.373.457-.656.59l1.101 2.418V76h-.77l-1.011-2.3zm-1-.613h.867c.3 0 .538-.096.715-.29.18-.192.27-.45.27-.773 0-.729-.331-1.093-.993-1.093h-.859v2.156zM29.848 76h-.692v-4.227h.692V76zm.054-5.348a.442.442 0 01-.097.293c-.065.078-.164.118-.297.118-.13 0-.228-.04-.293-.118a.442.442 0 01-.098-.293c0-.117.033-.216.098-.296.065-.081.163-.122.293-.122.13 0 .228.042.293.125a.44.44 0 01.101.293zm3.09 4.266a.51.51 0 00-.168-.383c-.112-.107-.328-.232-.648-.375-.373-.153-.636-.285-.79-.394a1.136 1.136 0 01-.34-.372 1.042 1.042 0 01-.112-.5c0-.343.125-.628.375-.855.252-.23.574-.344.964-.344.412 0 .743.12.993.36s.375.547.375.922h-.688a.673.673 0 00-.191-.485.641.641 0 00-.489-.203c-.203 0-.363.053-.48.16a.542.542 0 00-.172.422c0 .14.042.254.125.34.086.086.29.2.613.34.513.2.862.397 1.047.59a1 1 0 01.278.726c0 .367-.127.662-.38.883-.252.219-.59.328-1.015.328-.44 0-.797-.126-1.07-.379a1.251 1.251 0 01-.41-.96h.695c.008.234.08.417.215.55.135.133.325.2.57.2.23 0 .404-.052.523-.153a.526.526 0 00.18-.418zM35.332 76h-.691v-4.227h.691V76zm.055-5.348a.442.442 0 01-.098.293c-.065.078-.164.118-.297.118-.13 0-.228-.04-.293-.118a.442.442 0 01-.097-.293c0-.117.032-.216.097-.296.065-.081.163-.122.293-.122.13 0 .228.042.293.125a.44.44 0 01.102.293zm2.097 3.414l-.367.422V76h-.691v-6h.691v3.59l1.317-1.817h.828l-1.344 1.766L39.438 76h-.805l-1.149-1.934zm2.403-.375c0-.614.148-1.1.445-1.457.3-.359.694-.539 1.184-.539s.882.175 1.18.524c.299.349.452.824.46 1.425v.446c0 .612-.148 1.096-.445 1.453-.297.357-.693.535-1.188.535-.49 0-.882-.173-1.18-.52-.294-.346-.446-.815-.456-1.406v-.46zm.691.399c0 .435.085.777.254 1.027a.802.802 0 00.691.371c.61 0 .924-.44.942-1.32v-.477c0-.432-.086-.773-.258-1.023-.172-.253-.402-.379-.691-.379-.284 0-.512.126-.684.379-.17.25-.254.59-.254 1.02v.402zm6.816 1.988c-.526 0-.93-.156-1.21-.469-.282-.315-.425-.776-.43-1.382v-.512c0-.63.137-1.124.41-1.48.276-.36.66-.54 1.152-.54.495 0 .865.158 1.11.473.245.315.37.806.375 1.473v.453h-2.36v.097c0 .453.085.783.254.989.172.205.418.308.739.308a1.2 1.2 0 00.535-.113c.156-.078.302-.2.437-.367l.36.437c-.3.422-.757.633-1.371.633zm-.078-3.789c-.286 0-.498.099-.636.297-.138.195-.216.5-.235.914h1.664v-.094c-.018-.4-.09-.687-.218-.86-.125-.171-.317-.257-.575-.257zM50.38 76h-.691v-4.227h.69V76zm.055-5.348a.442.442 0 01-.098.293c-.065.078-.164.118-.297.118-.13 0-.228-.04-.293-.118a.442.442 0 01-.098-.293c0-.117.033-.216.098-.296.065-.081.163-.122.293-.122.13 0 .228.042.293.125a.44.44 0 01.102.293zm1.687 1.121l.02.458c.268-.357.61-.536 1.027-.536.747 0 1.126.499 1.137 1.496V76h-.688v-2.777c0-.331-.056-.565-.168-.704-.11-.14-.274-.21-.496-.21a.709.709 0 00-.465.172 1.249 1.249 0 00-.328.449V76h-.691v-4.227h.652zm3.863 3.637h2.04V76h-2.829v-.531l1.938-3.098H55.21v-.598h2.734v.512l-1.96 3.125zm5.032.219c-.23.3-.564.45-1.004.45-.383 0-.672-.132-.867-.395-.196-.266-.295-.651-.297-1.157v-2.754h.687v2.704c0 .658.198.988.594.988.42 0 .708-.188.867-.563v-3.129h.691V76h-.656l-.015-.371zm1.574-1.934c0-.658.12-1.156.36-1.492.239-.338.59-.508 1.05-.508.43 0 .757.184.98.551l.036-.473h.625v4.266c0 .523-.135.924-.403 1.203-.268.281-.642.422-1.12.422-.21 0-.443-.052-.704-.156-.258-.102-.452-.228-.582-.38l.281-.476c.287.282.603.422.95.422.575 0 .87-.314.886-.941v-.551c-.224.33-.541.496-.953.496-.437 0-.779-.164-1.023-.492-.245-.33-.373-.805-.383-1.422v-.469zm.691.395c0 .474.07.823.207 1.047.14.221.37.332.688.332.343 0 .601-.176.773-.528v-2.113c-.18-.346-.435-.52-.765-.52-.318 0-.547.113-.688.336-.14.222-.212.563-.215 1.024v.422zm4.903 1.988c-.526 0-.93-.156-1.211-.469-.282-.315-.425-.776-.43-1.382v-.512c0-.63.137-1.124.41-1.48.276-.36.66-.54 1.153-.54.494 0 .864.158 1.109.473.245.315.37.806.375 1.473v.453h-2.36v.097c0 .453.085.783.254.989.172.205.418.308.739.308.203 0 .381-.037.535-.113.156-.078.302-.2.437-.367l.36.437c-.3.422-.757.633-1.371.633zm-.078-3.789c-.287 0-.5.099-.637.297-.138.195-.216.5-.235.914h1.664v-.094c-.018-.4-.09-.687-.218-.86-.125-.171-.317-.257-.575-.257zm3.007-.082c.263-.341.6-.512 1.008-.512.748 0 1.126.499 1.137 1.496V76h-.688v-2.777c0-.331-.056-.565-.168-.704-.109-.14-.274-.21-.496-.21a.709.709 0 00-.465.172 1.249 1.249 0 00-.328.449V76h-.691v-6h.691v2.207zm4.688 3.871c-.526 0-.93-.156-1.211-.469-.281-.315-.425-.776-.43-1.382v-.512c0-.63.137-1.124.41-1.48.276-.36.66-.54 1.153-.54.494 0 .864.158 1.109.473.245.315.37.806.375 1.473v.453h-2.36v.097c0 .453.085.783.255.989.171.205.417.308.738.308a1.2 1.2 0 00.535-.113c.156-.078.302-.2.438-.367l.359.437c-.3.422-.757.633-1.371.633zm-.078-3.789c-.287 0-.499.099-.637.297-.138.195-.216.5-.234.914h1.664v-.094c-.019-.4-.092-.687-.22-.86-.124-.171-.316-.257-.573-.257zm2.968-.516l.02.458c.268-.357.61-.536 1.027-.536.748 0 1.127.499 1.137 1.496V76h-.688v-2.777c0-.331-.055-.565-.168-.704-.109-.14-.274-.21-.496-.21a.709.709 0 00-.464.172 1.249 1.249 0 00-.328.449V76h-.692v-4.227h.652zm3.23 5.36l-.41-.281c.246-.342.373-.693.383-1.055v-.653h.708v.567c0 .263-.066.526-.196.789a1.827 1.827 0 01-.484.633zM8.36 85h-.714v-5.688h.714V85zm1.848-3.793c.263-.341.599-.512 1.008-.512.747 0 1.126.499 1.137 1.496V85h-.688v-2.777c0-.331-.056-.565-.168-.704-.11-.14-.275-.21-.496-.21a.709.709 0 00-.465.172 1.25 1.25 0 00-.328.449V85h-.691v-6h.691v2.207zm4.922.215a1.675 1.675 0 00-.313-.028c-.354 0-.601.194-.742.583V85h-.691v-4.227h.672l.011.43c.185-.338.447-.508.786-.508.109 0 .2.019.273.055l.004.672zm6.184 2.871l-.125.156c-.36.42-.886.63-1.579.63-.614 0-1.097-.204-1.449-.61-.349-.41-.527-.986-.535-1.73V81.62c0-.797.159-1.393.477-1.789.32-.398.798-.598 1.433-.598.542 0 .965.151 1.27.454.307.302.476.733.508 1.293h-.715c-.029-.355-.128-.63-.297-.829-.167-.2-.42-.3-.762-.3-.409 0-.708.134-.898.402-.19.265-.29.691-.297 1.277v1.16c0 .573.11 1.013.328 1.32.219.305.532.458.941.458.386 0 .679-.094.88-.281l.105-.098v-1.313h-1.04v-.609h1.755v2.125zm2.582.785c-.526 0-.93-.156-1.211-.469-.282-.315-.425-.776-.43-1.382v-.512c0-.63.137-1.124.41-1.48.276-.36.66-.54 1.152-.54.495 0 .865.158 1.11.473.245.315.37.806.375 1.473v.453h-2.36v.097c0 .453.085.783.254.989.172.205.418.308.739.308a1.2 1.2 0 00.535-.113c.156-.078.302-.2.437-.367l.36.437c-.3.422-.757.633-1.371.633zm-.079-3.789c-.286 0-.498.099-.636.297-.138.195-.216.5-.235.914h1.664v-.094c-.018-.4-.09-.687-.218-.86-.125-.171-.317-.257-.575-.257zM26.88 85h-.692v-6h.692v6zm.945-2.305c0-.65.121-1.147.363-1.488.245-.341.596-.512 1.051-.512.404 0 .719.164.946.493V79h.691v6h-.633l-.035-.453c-.227.354-.55.531-.973.531-.437 0-.78-.17-1.03-.508-.248-.34-.375-.821-.38-1.441v-.434zm.692.395c0 .474.07.823.21 1.047.141.221.37.332.688.332.344 0 .6-.173.77-.52v-2.133c-.178-.338-.433-.507-.766-.507-.318 0-.547.112-.688.335-.14.222-.212.563-.214 1.024v.422zm5.898 1.32h2.04V85h-2.829v-.531l1.938-3.098H33.64v-.598h2.734v.512l-1.96 3.125zm5.031.219c-.229.3-.563.45-1.004.45-.382 0-.672-.132-.867-.395-.195-.266-.294-.651-.297-1.157v-2.754h.688v2.704c0 .658.198.988.594.988.419 0 .708-.188.867-.563v-3.129h.691V85h-.656l-.016-.371zm4.746-.68l.801-3.176h.703L44.441 85h-.515l-1.27-4.227h.703l.832 3.176zm3.735 1.13c-.526 0-.93-.157-1.211-.47-.281-.315-.425-.776-.43-1.382v-.512c0-.63.137-1.124.41-1.48.276-.36.66-.54 1.153-.54.494 0 .864.158 1.109.473.245.315.37.806.375 1.473v.453h-2.36v.097c0 .453.085.783.255.989.171.205.418.308.738.308a1.2 1.2 0 00.535-.113c.156-.078.302-.2.438-.367l.359.437c-.3.422-.757.633-1.371.633zm-.078-3.79c-.287 0-.499.099-.637.297-.138.195-.216.5-.234.914h1.664v-.094c-.019-.4-.091-.687-.22-.86-.124-.171-.316-.257-.573-.257zm4.062.133a1.677 1.677 0 00-.312-.028c-.355 0-.602.194-.742.583V85h-.692v-4.227h.672l.012.43c.185-.338.446-.508.785-.508.11 0 .2.019.273.055l.004.672zM53.348 85h-.692v-6h.692v6zm1.836 0h-.692v-4.227h.692V85zm.054-5.348a.442.442 0 01-.097.293c-.066.078-.164.118-.297.118-.13 0-.228-.04-.293-.118a.442.442 0 01-.098-.293c0-.117.033-.216.098-.296.065-.081.163-.122.293-.122.13 0 .228.042.293.125a.44.44 0 01.101.293zm2.547 5.426c-.526 0-.93-.156-1.21-.469-.282-.315-.425-.776-.43-1.382v-.512c0-.63.136-1.124.41-1.48.276-.36.66-.54 1.152-.54.495 0 .865.158 1.11.473.244.315.37.806.374 1.473v.453h-2.359v.097c0 .453.085.783.254.989.172.205.418.308.738.308a1.2 1.2 0 00.535-.113c.157-.078.302-.2.438-.367l.36.437c-.3.422-.757.633-1.372.633zm-.078-3.789c-.286 0-.499.099-.637.297-.138.195-.216.5-.234.914H58.5v-.094c-.018-.4-.091-.687-.219-.86-.125-.171-.316-.257-.574-.257zm4.063.133a1.675 1.675 0 00-.313-.028c-.354 0-.602.194-.742.583V85h-.692v-4.227h.672l.012.43c.185-.338.447-.508.785-.508.11 0 .2.019.274.055l.004.672zm2.203 3.656c-.526 0-.93-.156-1.211-.469-.282-.315-.425-.776-.43-1.382v-.512c0-.63.137-1.124.41-1.48.276-.36.66-.54 1.153-.54.494 0 .864.158 1.109.473.245.315.37.806.375 1.473v.453h-2.36v.097c0 .453.085.783.254.989.172.205.418.308.739.308a1.2 1.2 0 00.535-.113c.156-.078.302-.2.437-.367l.36.437c-.3.422-.757.633-1.371.633zm-.078-3.789c-.287 0-.5.099-.637.297-.138.195-.216.5-.235.914h1.664v-.094c-.018-.4-.09-.687-.218-.86-.125-.171-.317-.257-.574-.257zm2.968-.516l.02.458c.268-.357.61-.536 1.027-.536.748 0 1.127.499 1.137 1.496V85h-.688v-2.777c0-.331-.056-.565-.168-.704-.109-.14-.274-.21-.496-.21a.709.709 0 00-.464.172 1.25 1.25 0 00-.329.449V85h-.691v-4.227h.652zm3.27 3.848c0-.125.036-.23.11-.312.075-.084.187-.125.335-.125.149 0 .26.041.336.125a.44.44 0 01.117.312c0 .12-.039.22-.117.3-.076.082-.187.122-.336.122-.148 0-.26-.04-.336-.121a.432.432 0 01-.11-.3z" fill="#000"/></svg>