<svg width="167" height="24" viewBox="0 0 167 24" fill="none" xmlns="http://www.w3.org/2000/svg"><rect width="167" height="24" rx="12" fill="#14964F"/><path d="M18.678 16h1.44L17.13 7.648h-1.584L12.558 16h1.428l.6-1.704h3.492l.6 1.704zm-.984-2.82H14.97l1.368-3.876 1.356 3.876zM26.11 16h1.356v-3.9c0-1.848-1.164-2.82-2.712-2.82-.792 0-1.524.324-1.968.864v-.756h-1.368V16h1.368v-3.696c0-1.212.66-1.836 1.668-1.836.996 0 1.656.624 1.656 1.836V16zm12.473 0h1.355v-3.9c0-1.848-1.175-2.82-2.724-2.82-.96 0-1.895.504-2.303 1.308-.456-.864-1.333-1.308-2.377-1.308-.791 0-1.511.324-1.956.864v-.756h-1.367V16h1.367v-3.696c0-1.212.66-1.836 1.668-1.836.996 0 1.657.624 1.657 1.836V16h1.355v-3.696c0-1.212.66-1.836 1.668-1.836.996 0 1.657.624 1.657 1.836V16zm5.88-5.568c1.02 0 1.824.648 1.848 1.668h-3.66c.144-1.044.888-1.668 1.812-1.668zm3.096 3.6h-1.476c-.252.516-.72.924-1.56.924-1.008 0-1.788-.66-1.884-1.752h5.052a4.22 4.22 0 00.048-.672c0-1.944-1.332-3.252-3.216-3.252-1.956 0-3.3 1.332-3.3 3.408 0 2.076 1.404 3.42 3.3 3.42 1.62 0 2.664-.924 3.036-2.076zM49.086 16h1.367V7.12h-1.367V16zm2.708-3.336c0 2.04 1.38 3.444 3.12 3.444 1.08 0 1.872-.504 2.292-1.104V16h1.38V7.12h-1.38v3.192c-.504-.624-1.416-1.032-2.28-1.032-1.752 0-3.132 1.344-3.132 3.384zm5.412.024c0 1.428-.972 2.232-2.004 2.232-1.02 0-2.004-.828-2.004-2.256s.984-2.196 2.004-2.196c1.032 0 2.004.804 2.004 2.22zm5.96-2.256c1.02 0 1.824.648 1.848 1.668h-3.66c.144-1.044.888-1.668 1.812-1.668zm3.096 3.6h-1.476c-.252.516-.72.924-1.56.924-1.008 0-1.788-.66-1.884-1.752h5.052a4.22 4.22 0 00.048-.672c0-1.944-1.332-3.252-3.216-3.252-1.956 0-3.3 1.332-3.3 3.408 0 2.076 1.404 3.42 3.3 3.42 1.62 0 2.664-.924 3.036-2.076zM72.481 16h1.356v-3.9c0-1.848-1.164-2.82-2.712-2.82-.792 0-1.524.324-1.968.864v-.756h-1.368V16h1.368v-3.696c0-1.212.66-1.836 1.668-1.836.996 0 1.656.624 1.656 1.836V16zm12.206-6.612h-1.368v3.684c0 1.212-.66 1.836-1.668 1.836-.996 0-1.656-.624-1.656-1.836V9.388h-1.356v3.888c0 1.848 1.176 2.82 2.724 2.82.78 0 1.524-.324 1.956-.888V16h1.368V9.388zM91.184 16h1.356v-3.9c0-1.848-1.164-2.82-2.712-2.82-.792 0-1.524.324-1.968.864v-.756h-1.368V16h1.368v-3.696c0-1.212.66-1.836 1.668-1.836.996 0 1.656.624 1.656 1.836V16zm2.645-3.336c0 2.04 1.38 3.444 3.12 3.444 1.08 0 1.872-.504 2.292-1.104V16h1.38V7.12h-1.38v3.192c-.504-.624-1.416-1.032-2.28-1.032-1.752 0-3.132 1.344-3.132 3.384zm5.412.024c0 1.428-.972 2.232-2.004 2.232-1.02 0-2.004-.828-2.004-2.256s.984-2.196 2.004-2.196c1.032 0 2.004.804 2.004 2.22zM105.535 16h1.368v-3.696c0-1.212.66-1.836 1.668-1.836.996 0 1.656.624 1.656 1.836V16h1.356v-3.9c0-1.848-1.152-2.82-2.628-2.82-.852 0-1.596.324-2.052.876V7.12h-1.368V16zm7.337-3.336c0 2.04 1.38 3.444 3.096 3.444 1.104 0 1.896-.528 2.316-1.092V16h1.38V9.388h-1.38v.96c-.408-.54-1.176-1.068-2.292-1.068-1.74 0-3.12 1.344-3.12 3.384zm5.412.024c0 1.428-.972 2.232-2.004 2.232-1.02 0-2.004-.828-2.004-2.256s.984-2.196 2.004-2.196c1.032 0 2.004.804 2.004 2.22zM126.153 16h1.356v-3.9c0-1.848-1.164-2.82-2.712-2.82-.792 0-1.524.324-1.968.864v-.756h-1.368V16h1.368v-3.696c0-1.212.66-1.836 1.668-1.836.996 0 1.656.624 1.656 1.836V16zm2.645-3.336c0 2.04 1.38 3.444 3.12 3.444 1.08 0 1.872-.504 2.292-1.104V16h1.38V7.12h-1.38v3.192c-.504-.624-1.416-1.032-2.28-1.032-1.752 0-3.132 1.344-3.132 3.384zm5.412.024c0 1.428-.972 2.232-2.004 2.232-1.02 0-2.004-.828-2.004-2.256s.984-2.196 2.004-2.196c1.032 0 2.004.804 2.004 2.22zm5.96-2.256c1.02 0 1.824.648 1.848 1.668h-3.66c.144-1.044.888-1.668 1.812-1.668zm3.096 3.6h-1.476c-.252.516-.72.924-1.56.924-1.008 0-1.788-.66-1.884-1.752h5.052a4.22 4.22 0 00.048-.672c0-1.944-1.332-3.252-3.216-3.252-1.956 0-3.3 1.332-3.3 3.408 0 2.076 1.404 3.42 3.3 3.42 1.62 0 2.664-.924 3.036-2.076zM144.793 16h1.368V7.12h-1.368V16zm7.856 0h1.356v-3.9c0-1.848-1.164-2.82-2.712-2.82-.792 0-1.524.324-1.968.864v-.756h-1.368V16h1.368v-3.696c0-1.212.66-1.836 1.668-1.836.996 0 1.656.624 1.656 1.836V16z" fill="#fff"/></svg>