<svg width="185" height="29" viewBox="0 0 185 29" fill="none" xmlns="http://www.w3.org/2000/svg"><path d="M25.375.808h-7.182V15.21c0 4.256-1.938 6.042-5.054 6.042-3.078 0-5.016-1.786-5.054-6.042V.846H.941V15.21c0 8.702 4.712 12.578 12.198 12.578 7.486 0 12.236-3.876 12.236-12.578V.808zm16.047-.38C35.228.466 30.364 3.164 30.364 9.13c0 5.206 4.332 6.612 10.374 8.056 4.37 1.102 5.13 1.254 5.13 2.774 0 1.216-1.292 1.748-2.774 1.748-3.382 0-7.22-.988-10.678-2.926l-3.192 5.32c3.648 2.432 8.132 3.724 13.072 3.724 6.84 0 11.134-3.116 11.134-8.778 0-5.434-4.446-6.954-10.678-8.626-4.142-1.026-4.636-1.368-4.636-2.204 0-1.216 1.178-1.748 2.546-1.748 2.622 0 6.194.912 9.234 2.47l3.002-5.51C49.782 1.53 45.678.428 41.422.428zm16.111.418v26.562h11.4c7.866 0 14.25-5.738 14.25-13.262 0-7.562-6.384-13.338-14.25-13.338l-11.4.038zm7.144 6.384h3.99c3.952 0 7.182 2.964 7.182 6.878 0 3.952-3.23 6.916-7.182 6.916h-3.99V7.23zm27.277 20.824l13.3-27.892L99.326.2l-13.3 27.854h5.928zM126.831.808h-7.144V16.73c0 3.23-1.482 4.522-3.762 4.522-1.406 0-2.508-.494-3.268-1.596l-5.738 3.724c1.786 3.306 5.054 4.408 9.386 4.408 6.46 0 10.526-2.508 10.526-11.058V.808zm5.44.038v26.562h7.144v-7.562h4.56c7.904 0 11.666-2.926 11.666-9.424 0-6.498-3.572-9.576-11.742-9.576h-11.628zm7.144 6.156h4.218c3.192 0 4.56 1.178 4.56 3.686 0 2.546-1.406 3.648-4.56 3.648h-4.218V7.002zm34.829 11.286L184.846.808h-8.474l-5.662 9.918-5.624-9.918h-8.55L167.1 18.364v9.044h7.144v-9.12z" fill="#09B45B"/></svg>