<svg width="92" height="45" viewBox="0 0 92 45" fill="none" xmlns="http://www.w3.org/2000/svg"><path d="M.546 2.572H3.15V11h1.596V2.572h2.59V1.27H.546v1.302zM8.42 7.108c0 2.38 1.61 4.018 3.612 4.018 1.288 0 2.212-.616 2.702-1.274V11h1.61V3.286h-1.61v1.12c-.476-.63-1.372-1.246-2.674-1.246-2.03 0-3.64 1.568-3.64 3.948zm6.314.028c0 1.666-1.134 2.604-2.338 2.604-1.19 0-2.338-.966-2.338-2.632 0-1.666 1.148-2.562 2.338-2.562 1.204 0 2.338.938 2.338 2.59zm5.303-2.716V3.286H18.44v11.382h1.596V9.88a3.488 3.488 0 002.688 1.246c2.03 0 3.626-1.638 3.626-4.018S24.755 3.16 22.725 3.16c-1.26 0-2.198.616-2.688 1.26zm4.69 2.688c0 1.666-1.148 2.632-2.352 2.632-1.19 0-2.338-.938-2.338-2.604 0-1.652 1.148-2.59 2.338-2.59 1.204 0 2.352.896 2.352 2.562zM31.566 11h1.596V3.286h-1.596V11zm.812-8.736c.56 0 1.008-.448 1.008-1.022 0-.574-.448-1.022-1.008-1.022a1.01 1.01 0 00-1.022 1.022 1.01 1.01 0 001.022 1.022zM40.73 11h1.582V6.45c0-2.156-1.358-3.29-3.164-3.29-.924 0-1.778.378-2.296 1.008v-.882h-1.596V11h1.596V6.688c0-1.414.77-2.142 1.946-2.142 1.162 0 1.932.728 1.932 2.142V11zm3.87-2.142c0 1.568.854 2.142 2.226 2.142h1.26V9.67h-.98c-.672 0-.896-.238-.896-.812v-4.27h1.876V3.286H46.21V1.368H44.6v1.918h-.91v1.302h.91v4.27zm12.307-1.722c0-2.422-1.736-3.976-3.934-3.976-2.198 0-3.934 1.554-3.934 3.976 0 2.422 1.666 3.99 3.864 3.99 2.212 0 4.004-1.568 4.004-3.99zm-6.244 0c0-1.75 1.078-2.59 2.282-2.59 1.19 0 2.324.84 2.324 2.59S54.094 9.74 52.904 9.74c-1.204 0-2.24-.854-2.24-2.604zm11.71 1.722c0 1.568.854 2.142 2.226 2.142h1.26V9.67h-.98c-.672 0-.896-.238-.896-.812v-4.27h1.876V3.286h-1.876V1.368h-1.61v1.918h-.91v1.302h.91v4.27zm8.205-4.354c1.19 0 2.128.756 2.156 1.946h-4.27c.168-1.218 1.036-1.946 2.114-1.946zm3.612 4.2H72.47c-.294.602-.84 1.078-1.82 1.078-1.176 0-2.086-.77-2.198-2.044h5.894c.042-.266.056-.518.056-.784 0-2.268-1.554-3.794-3.752-3.794-2.282 0-3.85 1.554-3.85 3.976 0 2.422 1.638 3.99 3.85 3.99 1.89 0 3.108-1.078 3.542-2.422zm1.249-1.568c0 2.422 1.568 3.99 3.78 3.99 1.89 0 3.122-1.05 3.556-2.562h-1.722c-.294.798-.882 1.218-1.834 1.218-1.288 0-2.142-.952-2.142-2.646 0-1.68.854-2.632 2.142-2.632.952 0 1.568.476 1.834 1.218h1.722C82.342 4.098 81.11 3.16 79.22 3.16c-2.212 0-3.78 1.568-3.78 3.976zM84.366 11h1.596V6.688c0-1.414.77-2.142 1.946-2.142 1.162 0 1.932.728 1.932 2.142V11h1.582V6.45c0-2.156-1.344-3.29-3.066-3.29-.994 0-1.862.378-2.394 1.022V.64h-1.596V11zM6.804 23.844c-.084-2.786-4.438-1.918-4.438-3.472 0-.518.448-.868 1.302-.868.868 0 1.386.462 1.442 1.134h1.596c-.084-1.54-1.232-2.478-2.982-2.478-1.82 0-2.968.994-2.968 2.226 0 2.828 4.48 1.96 4.48 3.472 0 .532-.49.924-1.414.924-.882 0-1.484-.518-1.54-1.148H.63c.07 1.4 1.372 2.492 3.22 2.492 1.82 0 2.954-.98 2.954-2.282zm1.977.014c0 1.568.854 2.142 2.226 2.142h1.26v-1.33h-.98c-.673 0-.897-.238-.897-.812v-4.27h1.877v-1.302H10.39v-1.918H8.78v1.918h-.91v1.302h.91v4.27zm12.306-1.722c0-2.422-1.735-3.976-3.933-3.976-2.198 0-3.934 1.554-3.934 3.976 0 2.422 1.665 3.99 3.864 3.99 2.212 0 4.003-1.568 4.003-3.99zm-6.243 0c0-1.75 1.078-2.59 2.281-2.59 1.19 0 2.325.84 2.325 2.59s-1.177 2.604-2.366 2.604c-1.204 0-2.24-.854-2.24-2.604zm7.29 0c0 2.422 1.567 3.99 3.78 3.99 1.89 0 3.121-1.05 3.555-2.562h-1.722c-.294.798-.882 1.218-1.834 1.218-1.288 0-2.142-.952-2.142-2.646 0-1.68.854-2.632 2.142-2.632.952 0 1.568.476 1.834 1.218h1.722c-.434-1.624-1.666-2.562-3.556-2.562-2.212 0-3.78 1.568-3.78 3.976zM31.06 26h1.596v-3.318L35.512 26h2.156l-3.556-3.85 3.556-3.864h-2.212l-2.8 3.374v-6.02H31.06V26zm13.506-2.156c-.084-2.786-4.438-1.918-4.438-3.472 0-.518.448-.868 1.302-.868.868 0 1.386.462 1.442 1.134h1.596c-.084-1.54-1.232-2.478-2.982-2.478-1.82 0-2.968.994-2.968 2.226 0 2.828 4.48 1.96 4.48 3.472 0 .532-.49.924-1.414.924-.882 0-1.484-.518-1.54-1.148h-1.652c.07 1.4 1.372 2.492 3.22 2.492 1.82 0 2.954-.98 2.954-2.282zM50.123 26h1.61v-6.412h1.428v-1.302h-1.428v-.546c0-.882.336-1.218 1.316-1.218v-1.33c-2.016 0-2.926.77-2.926 2.548v.546h-.91v1.302h.91V26zm6.048-4.06c0-1.638.728-2.128 1.904-2.128h.406V18.16c-1.092 0-1.862.476-2.31 1.246v-1.12h-1.596V26h1.596v-4.06zm11.127.196c0-2.422-1.736-3.976-3.934-3.976-2.198 0-3.934 1.554-3.934 3.976 0 2.422 1.666 3.99 3.864 3.99 2.212 0 4.004-1.568 4.004-3.99zm-6.244 0c0-1.75 1.078-2.59 2.282-2.59 1.19 0 2.324.84 2.324 2.59s-1.176 2.604-2.366 2.604c-1.204 0-2.24-.854-2.24-2.604zM79.81 26h1.582v-4.55c0-2.156-1.372-3.29-3.178-3.29-1.12 0-2.212.588-2.688 1.526-.532-1.008-1.554-1.526-2.772-1.526-.924 0-1.764.378-2.282 1.008v-.882h-1.596V26h1.596v-4.312c0-1.414.77-2.142 1.946-2.142 1.162 0 1.932.728 1.932 2.142V26h1.582v-4.312c0-1.414.77-2.142 1.946-2.142 1.162 0 1.932.728 1.932 2.142V26zM.812 33.314h1.554c.098-.714.616-1.386 1.736-1.386 1.092 0 1.666.588 1.666 1.47 0 1.092-.882 1.512-2.324 1.526h-.378v1.316h.364c1.666 0 2.534.462 2.534 1.806 0 .952-.588 1.68-1.778 1.68-1.204 0-1.904-.728-1.974-1.68H.672c.098 2.002 1.596 3.01 3.528 3.01 2.128 0 3.276-1.232 3.276-2.856 0-1.414-.686-2.296-1.75-2.618v-.056c.798-.266 1.568-1.092 1.568-2.31 0-1.484-1.106-2.66-3.136-2.66-1.862 0-3.234.994-3.346 2.758zm13.783 1.106v-1.134H13v11.382h1.596V39.88a3.488 3.488 0 002.688 1.246c2.03 0 3.626-1.638 3.626-4.018s-1.596-3.948-3.626-3.948c-1.26 0-2.198.616-2.688 1.26zm4.69 2.688c0 1.666-1.148 2.632-2.352 2.632-1.19 0-2.338-.938-2.338-2.604 0-1.652 1.148-2.59 2.338-2.59 1.204 0 2.352.896 2.352 2.562zm3.454 1.75c0 1.568.854 2.142 2.226 2.142h1.26v-1.33h-.98c-.672 0-.896-.238-.896-.812v-4.27h1.877v-1.302h-1.877v-1.918h-1.61v1.918h-.91v1.302h.91v4.27zm10.711-.014c-.084-2.786-4.438-1.918-4.438-3.472 0-.518.448-.868 1.302-.868.869 0 1.387.462 1.442 1.134h1.596c-.083-1.54-1.231-2.478-2.981-2.478-1.82 0-2.968.994-2.968 2.226 0 2.828 4.48 1.96 4.48 3.472 0 .532-.49.924-1.415.924-.881 0-1.483-.518-1.54-1.148h-1.652c.07 1.4 1.372 2.492 3.22 2.492 1.82 0 2.954-.98 2.954-2.282z" fill="#fff"/></svg>