<svg width="77" height="50" viewBox="0 0 77 50" fill="none" xmlns="http://www.w3.org/2000/svg"><path fill="#fff" d="M0 0h77v50H0z"/><path d="M8.314 5.445v.39L7.191 9H6.47l1.128-2.986H6.166v-.569h2.148zm1.963-.007V9h-.683V6.278l-.679.261v-.571l1.29-.53h.072zm1.092 3.213c0-.108.036-.197.107-.269a.388.388 0 01.29-.11c.123 0 .22.037.291.11a.365.365 0 01.108.269.364.364 0 01-.108.268.392.392 0 01-.29.108.392.392 0 01-.29-.108.364.364 0 01-.108-.268zM14.3 5.406h.09v.581h-.032a.953.953 0 00-.405.08.74.74 0 00-.286.23c-.074.1-.13.22-.168.362-.037.14-.056.297-.056.47v.599c0 .124.008.233.024.327a.883.883 0 00.076.237.407.407 0 00.117.14.26.26 0 00.3-.003.413.413 0 00.118-.135.724.724 0 00.073-.205c.018-.078.027-.163.027-.256 0-.094-.01-.18-.027-.259a.742.742 0 00-.076-.202.373.373 0 00-.12-.135.258.258 0 00-.153-.049.314.314 0 00-.213.076.465.465 0 00-.134.19.71.71 0 00-.051.242L13.2 7.55c.006-.124.029-.24.068-.35.04-.11.096-.21.166-.297a.744.744 0 01.252-.205.708.708 0 01.33-.076c.14 0 .264.032.37.095.106.064.194.15.264.262.072.11.124.239.159.385.035.145.053.3.053.464 0 .173-.024.333-.073.481a1.216 1.216 0 01-.207.388.939.939 0 01-.757.352.945.945 0 01-.442-.103 1.004 1.004 0 01-.337-.29 1.398 1.398 0 01-.212-.45 2.095 2.095 0 01-.074-.57v-.277a2.9 2.9 0 01.1-.786c.067-.239.166-.446.296-.62.132-.174.293-.308.483-.403a1.46 1.46 0 01.662-.144zm.981.91V6.13c0-.135.025-.258.073-.369.05-.11.125-.2.223-.266.099-.067.222-.1.368-.1a.595.595 0 01.59.366c.05.11.074.234.074.369v.188a.892.892 0 01-.073.364.611.611 0 01-.222.266.634.634 0 01-.366.1.646.646 0 01-.369-.1.627.627 0 01-.225-.266.89.89 0 01-.073-.364zm.447-.187v.188c0 .055.008.108.024.159.017.048.041.088.074.12.032.029.073.043.122.043a.167.167 0 00.12-.044c.03-.03.053-.07.068-.12a.513.513 0 00.024-.158v-.188a.506.506 0 00-.024-.161.25.25 0 00-.071-.12.17.17 0 00-.122-.046.17.17 0 00-.122.046.28.28 0 00-.071.12.557.557 0 00-.022.16zm.957 2.19v-.19c0-.134.025-.256.076-.367.05-.11.124-.2.222-.266.1-.067.221-.1.366-.1.15 0 .273.033.371.1.098.067.171.156.22.266.05.11.076.233.076.366v.19a.898.898 0 01-.074.367.615.615 0 01-.222.264.634.634 0 01-.366.1.658.658 0 01-.371-.1.627.627 0 01-.225-.266.89.89 0 01-.073-.364zm.447-.19v.187c0 .057.01.111.03.162.019.048.045.088.077.12.034.028.073.043.115.043.059 0 .103-.015.134-.044.031-.03.052-.07.061-.12a.73.73 0 00.017-.16V8.13a.51.51 0 00-.024-.161.251.251 0 00-.07-.12.162.162 0 00-.12-.046.174.174 0 00-.125.046.268.268 0 00-.073.12.548.548 0 00-.022.158zm.398-2.173l-1.458 2.778-.327-.186 1.458-2.778.327.186zm2.034 1.814V7.59c0-.206.024-.39.073-.549.05-.16.122-.293.214-.4a.892.892 0 01.335-.247c.132-.057.28-.085.442-.085.164 0 .312.028.442.085a.888.888 0 01.337.247 1.1 1.1 0 01.217.4c.05.16.076.343.076.55v.178c0 .205-.026.387-.076.546-.05.16-.123.294-.217.403a.891.891 0 01-.335.247c-.13.055-.276.083-.44.083-.162 0-.31-.028-.441-.083a.913.913 0 01-.337-.247 1.126 1.126 0 01-.217-.403 1.87 1.87 0 01-.074-.546zm.683-.179v.179c0 .122.008.227.024.317.018.09.044.163.076.222a.349.349 0 00.122.13.317.317 0 00.164.041.33.33 0 00.166-.042.309.309 0 00.12-.129.684.684 0 00.07-.222c.017-.09.025-.195.025-.317V7.59a1.61 1.61 0 00-.027-.312.735.735 0 00-.076-.222.342.342 0 00-.122-.132.287.287 0 00-.161-.047.287.287 0 00-.161.047.38.38 0 00-.12.132.738.738 0 00-.075.222c-.017.09-.025.193-.025.312zM22.98 9h-.686V6.129c0-.204.035-.374.105-.51a.732.732 0 01.295-.313.924.924 0 01.457-.107 1.136 1.136 0 01.313.049l-.008.544a.418.418 0 00-.076-.015.843.843 0 00-.092-.005.328.328 0 00-.169.042.27.27 0 00-.105.12.488.488 0 00-.034.195V9zm.413-2.642v.516h-1.421v-.516h1.42zm2.216.589V9h-.683V6.358h.644l.04.589zm.623-.608l-.01.681a.47.47 0 00-.42.017.326.326 0 00-.134.105.488.488 0 00-.078.171 1.082 1.082 0 00-.032.232l-.13-.049c0-.172.014-.33.04-.474.027-.144.068-.27.122-.376a.716.716 0 01.193-.249.415.415 0 01.258-.087c.033 0 .067.003.103.01a.396.396 0 01.088.019zm1.365 2.71c-.181 0-.341-.028-.481-.083a.951.951 0 01-.352-.24 1.07 1.07 0 01-.22-.383c-.05-.15-.075-.32-.075-.512v-.218c0-.215.024-.403.073-.564.049-.162.118-.3.207-.41a.82.82 0 01.33-.246c.132-.056.28-.083.447-.083.166 0 .312.027.437.083a.762.762 0 01.315.244c.083.107.146.24.188.4.042.16.063.345.063.557v.312h-1.77v-.48h1.099v-.062a.898.898 0 00-.034-.268.309.309 0 00-.108-.164.323.323 0 00-.195-.054.337.337 0 00-.173.042.285.285 0 00-.113.13.8.8 0 00-.06.229c-.014.093-.02.204-.02.334v.218c0 .122.01.224.031.307a.544.544 0 00.093.2c.043.05.094.087.154.11a.797.797 0 00.535-.032.75.75 0 00.249-.178l.273.415a1.066 1.066 0 01-.493.337 1.25 1.25 0 01-.4.059zm2.48-2.69v.515H28.73v-.516h1.348zm-1.037-.652h.68v2.487a.5.5 0 00.023.169.15.15 0 00.066.083c.03.014.071.022.122.022a.468.468 0 00.161-.02v.535a.944.944 0 01-.381.066.767.767 0 01-.356-.078.532.532 0 01-.232-.25 1.057 1.057 0 01-.083-.453V5.707zm2.583 2.685v-1.22c0-.08-.01-.144-.03-.191a.19.19 0 00-.083-.103.241.241 0 00-.132-.034.272.272 0 00-.146.037.225.225 0 00-.088.105.447.447 0 00-.027.163h-.686a.797.797 0 01.259-.59.936.936 0 01.308-.184c.118-.043.252-.065.4-.065.176 0 .332.03.469.09a.698.698 0 01.324.28c.08.13.12.296.12.501v1.177c0 .148.007.268.022.361a.97.97 0 00.07.24V9h-.688a1.147 1.147 0 01-.07-.273 2.555 2.555 0 01-.022-.335zm.083-1.006l.002.41h-.252a.427.427 0 00-.17.032.372.372 0 00-.193.222.573.573 0 00-.022.161c0 .064.009.118.027.162a.207.207 0 00.207.134c.075 0 .14-.016.195-.047a.317.317 0 00.123-.112c.027-.044.036-.084.026-.122l.157.266c-.02.06-.047.123-.08.188a.798.798 0 01-.125.18.603.603 0 01-.188.138.613.613 0 01-.262.05.786.786 0 01-.388-.097.724.724 0 01-.278-.273.83.83 0 01-.1-.418c0-.133.02-.254.063-.361a.712.712 0 01.196-.276.873.873 0 01.327-.176c.131-.04.286-.06.464-.06h.27zm1.828-1.028V9h-.686V6.358h.686zm-.718-.683c0-.106.034-.193.1-.261a.365.365 0 01.274-.105.36.36 0 01.273.105c.067.068.1.155.1.26a.359.359 0 01-.102.262.358.358 0 01-.269.103.373.373 0 01-.276-.103.364.364 0 01-.1-.261zm1.978-.425V9h-.686V5.25h.686zm2.412 1.108V9h-.686V6.358h.686zm-.718-.683c0-.106.034-.193.1-.261a.365.365 0 01.274-.105.36.36 0 01.273.105c.067.068.1.155.1.26a.359.359 0 01-.102.262.358.358 0 01-.269.103.373.373 0 01-.276-.103.364.364 0 01-.1-.261zm1.931 1.247V9h-.686V6.358h.643l.043.564zm-.102.667l-.183.005a2.015 2.015 0 01.056-.535c.042-.158.102-.292.178-.403a.815.815 0 01.279-.256.74.74 0 01.363-.09c.103 0 .196.017.281.053a.55.55 0 01.222.171c.062.078.11.182.144.313.034.128.052.286.052.473V9h-.687V7.315a.794.794 0 00-.034-.263.228.228 0 00-.102-.132.34.34 0 00-.171-.04.283.283 0 00-.174.057.424.424 0 00-.126.149.884.884 0 00-.076.225 1.379 1.379 0 00-.022.278zm2.67.884l.426-2.115h.713L41.4 9h-.427l.015-.527zm-.25-2.115l.431 2.117.008.525h-.43l-.725-2.642h.715zm2.748 2.69c-.18 0-.34-.027-.48-.082a.951.951 0 01-.352-.24 1.072 1.072 0 01-.22-.383c-.05-.15-.076-.32-.076-.512v-.218c0-.215.025-.403.074-.564.049-.162.118-.3.207-.41a.82.82 0 01.33-.246c.132-.056.28-.083.447-.083.166 0 .311.027.437.083a.762.762 0 01.315.244c.082.107.145.24.188.4.042.16.063.345.063.557v.312h-1.77v-.48h1.099v-.062a.898.898 0 00-.035-.268.309.309 0 00-.107-.164.323.323 0 00-.195-.054.338.338 0 00-.174.042.286.286 0 00-.112.13.803.803 0 00-.061.229c-.013.093-.02.204-.02.334v.218c0 .122.011.224.032.307a.544.544 0 00.093.2c.042.05.094.087.154.11a.797.797 0 00.535-.032.749.749 0 00.248-.178l.274.415a1.066 1.066 0 01-.493.337c-.116.04-.25.059-.4.059zm2.5-.76a.182.182 0 00-.046-.123.551.551 0 00-.147-.11 2.437 2.437 0 00-.266-.13c-.12-.048-.227-.098-.32-.15a1.129 1.129 0 01-.236-.174.64.64 0 01-.144-.217.744.744 0 01-.05-.279.745.745 0 01.242-.562.82.82 0 01.286-.17c.114-.042.242-.063.383-.063.2 0 .37.035.51.105a.762.762 0 01.33.288.805.805 0 01.115.432h-.684a.425.425 0 00-.026-.156.219.219 0 00-.088-.11.283.283 0 00-.159-.04.253.253 0 00-.222.117.227.227 0 00-.032.123c0 .036.008.067.022.095a.289.289 0 00.076.08.94.94 0 00.136.084c.06.027.13.058.215.092.176.066.32.136.432.21a.75.75 0 01.254.264c.056.1.083.222.083.369a.738.738 0 01-.068.32.697.697 0 01-.193.249.896.896 0 01-.305.16 1.288 1.288 0 01-.393.057c-.213 0-.393-.042-.54-.127a.872.872 0 01-.332-.325.837.837 0 01-.112-.415h.65c.003.088.019.157.048.208.031.048.073.083.125.102.052.02.11.03.173.03a.425.425 0 00.156-.025.194.194 0 00.096-.08.258.258 0 00.031-.13zm2.251-1.93v.516H46.89v-.516h1.347zM47.2 5.707h.68v2.487a.5.5 0 00.023.169.15.15 0 00.066.083c.03.014.071.022.122.022a.468.468 0 00.161-.02v.535a.944.944 0 01-.38.066.767.767 0 01-.357-.078.533.533 0 01-.232-.25 1.059 1.059 0 01-.083-.453V5.707zm1.267 2.063V7.59c0-.206.024-.39.073-.549.05-.16.122-.293.215-.4a.892.892 0 01.334-.247c.132-.057.28-.085.442-.085.165 0 .312.028.442.085a.888.888 0 01.337.247 1.1 1.1 0 01.217.4c.05.16.076.343.076.55v.178c0 .205-.025.387-.076.546-.05.16-.123.294-.217.403a.892.892 0 01-.334.247c-.13.055-.277.083-.44.083-.163 0-.31-.028-.442-.083a.913.913 0 01-.337-.247 1.124 1.124 0 01-.217-.403 1.867 1.867 0 01-.073-.546zm.683-.179v.179c0 .122.009.227.025.317.018.09.043.163.075.222a.349.349 0 00.123.13.317.317 0 00.163.041.331.331 0 00.166-.042.309.309 0 00.12-.129.684.684 0 00.07-.222c.017-.09.025-.195.025-.317V7.59a1.61 1.61 0 00-.027-.312.738.738 0 00-.076-.222.344.344 0 00-.122-.132.287.287 0 00-.16-.047.288.288 0 00-.162.047.38.38 0 00-.12.132.738.738 0 00-.075.222c-.016.09-.025.193-.025.312zm2.569-.644V9h-.684V6.358h.645l.039.589zm.622-.608l-.01.681a.47.47 0 00-.42.017.326.326 0 00-.134.105.488.488 0 00-.078.171 1.082 1.082 0 00-.032.232l-.129-.049c0-.172.013-.33.04-.474.027-.144.068-.27.121-.376a.716.716 0 01.193-.249.415.415 0 01.259-.087c.032 0 .067.003.102.01a.396.396 0 01.088.019zm2.666 2.053v-1.22a.51.51 0 00-.029-.191.19.19 0 00-.083-.103.24.24 0 00-.132-.034.272.272 0 00-.146.037.225.225 0 00-.088.105.447.447 0 00-.027.163h-.686a.797.797 0 01.259-.59.937.937 0 01.307-.184c.12-.043.253-.065.4-.065.177 0 .333.03.47.09a.698.698 0 01.324.28c.08.13.12.296.12.501v1.177c0 .148.007.268.022.361a.97.97 0 00.07.24V9H55.1a1.147 1.147 0 01-.07-.273 2.555 2.555 0 01-.023-.335zm.083-1.006l.003.41h-.252a.427.427 0 00-.17.032.372.372 0 00-.193.222.573.573 0 00.004.323.207.207 0 00.208.134c.075 0 .14-.016.195-.047a.316.316 0 00.122-.112c.028-.044.037-.084.027-.122l.157.266c-.02.06-.047.123-.081.188a.798.798 0 01-.125.18.603.603 0 01-.188.138.613.613 0 01-.26.05.786.786 0 01-.389-.097.724.724 0 01-.278-.273.83.83 0 01-.1-.418c0-.133.02-.254.063-.361a.713.713 0 01.195-.276.874.874 0 01.328-.176c.131-.04.286-.06.463-.06h.271zm2.066 1.094a.325.325 0 00.163-.04.247.247 0 00.108-.126.626.626 0 00.039-.227h.642c0 .198-.042.37-.127.515a.869.869 0 01-.337.332.977.977 0 01-.476.115c-.177 0-.332-.029-.464-.086a.829.829 0 01-.327-.249 1.148 1.148 0 01-.193-.398 2.1 2.1 0 01-.063-.542v-.192c0-.2.02-.38.063-.538.044-.157.108-.29.193-.4a.832.832 0 01.325-.249c.132-.057.286-.085.464-.085.19 0 .355.04.495.12.14.077.25.193.327.346.08.153.12.342.12.566h-.642a.83.83 0 00-.037-.251.307.307 0 00-.1-.156.262.262 0 00-.176-.057.32.32 0 00-.185.05.292.292 0 00-.105.136.824.824 0 00-.047.22 3.273 3.273 0 00-.012.298v.192c0 .12.004.223.01.31a.85.85 0 00.046.22c.025.059.06.103.105.132.048.03.111.044.19.044zm2.3 0a.325.325 0 00.163-.04.247.247 0 00.108-.126.626.626 0 00.039-.227h.642c0 .198-.043.37-.127.515a.869.869 0 01-.337.332.977.977 0 01-.476.115c-.178 0-.332-.029-.464-.086a.829.829 0 01-.327-.249 1.148 1.148 0 01-.193-.398 2.1 2.1 0 01-.064-.542v-.192c0-.2.022-.38.064-.538.044-.157.108-.29.193-.4A.832.832 0 0159 6.395c.131-.057.286-.085.463-.085.19 0 .356.04.496.12.14.077.249.193.327.346.08.153.12.342.12.566h-.642a.83.83 0 00-.037-.251.307.307 0 00-.1-.156.262.262 0 00-.176-.057.32.32 0 00-.185.05.292.292 0 00-.105.136.824.824 0 00-.047.22 3.273 3.273 0 00-.012.298v.192c0 .12.003.223.01.31a.85.85 0 00.046.22c.025.059.06.103.105.132.047.03.11.044.19.044zm1.267-.71V7.59c0-.206.024-.39.073-.549.05-.16.122-.293.215-.4a.891.891 0 01.334-.247c.132-.057.28-.085.442-.085.164 0 .312.028.442.085a.886.886 0 01.337.247 1.1 1.1 0 01.217.4c.05.16.076.343.076.55v.178c0 .205-.025.387-.076.546-.05.16-.123.294-.217.403a.891.891 0 01-.334.247c-.13.055-.277.083-.44.083-.163 0-.31-.028-.442-.083a.913.913 0 01-.337-.247 1.126 1.126 0 01-.217-.403 1.87 1.87 0 01-.073-.546zm.683-.179v.179c0 .122.008.227.025.317.018.09.043.163.075.222a.348.348 0 00.122.13.318.318 0 00.164.041.33.33 0 00.166-.042.31.31 0 00.12-.129.689.689 0 00.07-.222c.017-.09.025-.195.025-.317V7.59c0-.119-.01-.223-.027-.312a.735.735 0 00-.076-.222.343.343 0 00-.122-.132.287.287 0 00-.16-.047.287.287 0 00-.162.047.38.38 0 00-.12.132.735.735 0 00-.075.222c-.017.09-.025.193-.025.312zm3.162.774V6.358h.686V9h-.645l-.041-.635zm.078-.544l.19-.005c0 .177-.017.342-.05.493-.035.15-.086.28-.155.39a.765.765 0 01-.256.26.705.705 0 01-.364.09.807.807 0 01-.298-.054.6.6 0 01-.232-.173.88.88 0 01-.153-.305 1.66 1.66 0 01-.054-.452V6.358h.686v1.714c0 .072.006.134.02.186.013.05.03.092.053.124.023.033.05.056.08.071.032.013.067.02.106.02a.367.367 0 00.254-.083.463.463 0 00.134-.232c.026-.1.039-.212.039-.337zm1.777-.899V9h-.686V6.358h.642l.044.564zm-.102.667l-.183.005a2.015 2.015 0 01.056-.535 1.29 1.29 0 01.178-.403.815.815 0 01.278-.256.74.74 0 01.364-.09c.103 0 .196.017.28.053a.55.55 0 01.223.171c.062.078.11.182.144.313.034.128.051.286.051.473V9h-.686V7.315a.794.794 0 00-.034-.263.229.229 0 00-.102-.132.34.34 0 00-.171-.04.284.284 0 00-.174.057.426.426 0 00-.126.149.884.884 0 00-.076.225 1.379 1.379 0 00-.022.278zm3.044-1.23v.515h-1.347v-.516h1.347zm-1.037-.652h.68v2.487a.5.5 0 00.023.169.15.15 0 00.066.083c.03.014.071.022.122.022a.465.465 0 00.161-.02v.535a.944.944 0 01-.381.066.767.767 0 01-.356-.078.532.532 0 01-.232-.25 1.057 1.057 0 01-.083-.453V5.707zm2.59 2.58a.182.182 0 00-.046-.122.548.548 0 00-.147-.11 2.42 2.42 0 00-.266-.13c-.12-.048-.227-.098-.32-.15a1.126 1.126 0 01-.237-.174.642.642 0 01-.144-.217.746.746 0 01-.049-.279.746.746 0 01.242-.562.82.82 0 01.286-.17c.114-.042.242-.063.383-.063.199 0 .369.035.51.105a.762.762 0 01.33.288.805.805 0 01.115.432h-.684a.425.425 0 00-.027-.156.219.219 0 00-.088-.11.283.283 0 00-.158-.04.253.253 0 00-.222.117.228.228 0 00-.032.123.2.2 0 00.022.095.288.288 0 00.075.08c.035.027.08.054.137.084.059.027.13.058.215.092.176.066.32.136.432.21a.75.75 0 01.254.264c.055.1.083.222.083.369a.736.736 0 01-.068.32.695.695 0 01-.193.249.894.894 0 01-.305.16 1.288 1.288 0 01-.393.057c-.214 0-.394-.042-.54-.127a.873.873 0 01-.332-.325.837.837 0 01-.112-.415h.65c.002.088.019.157.048.208a.248.248 0 00.124.102c.053.02.11.03.174.03a.425.425 0 00.156-.025.195.195 0 00.095-.08.259.259 0 00.032-.13zM6.972 11.25V15h-.686v-3.75h.686zm.464 2.52v-.179c0-.206.024-.39.073-.549.05-.16.122-.293.215-.4a.893.893 0 01.334-.247c.132-.057.28-.085.442-.085.164 0 .312.028.442.085a.889.889 0 01.337.247 1.1 1.1 0 01.217.4c.05.16.076.343.076.55v.178c0 .205-.025.387-.076.546-.05.16-.123.294-.217.403a.89.89 0 01-.335.247c-.13.055-.276.083-.44.083a1.13 1.13 0 01-.441-.083.912.912 0 01-.337-.247 1.124 1.124 0 01-.217-.403 1.869 1.869 0 01-.073-.546zm.683-.179v.179c0 .122.008.227.025.317a.77.77 0 00.075.222.349.349 0 00.122.13.318.318 0 00.164.041.332.332 0 00.166-.042.31.31 0 00.12-.129.687.687 0 00.07-.222c.017-.09.025-.195.025-.317v-.179c0-.118-.01-.223-.027-.312a.738.738 0 00-.076-.222.343.343 0 00-.122-.132.288.288 0 00-.161-.047.288.288 0 00-.161.047.38.38 0 00-.12.132.738.738 0 00-.075.222c-.017.09-.025.194-.025.312zm3.057.696a.182.182 0 00-.047-.122.55.55 0 00-.146-.11 2.414 2.414 0 00-.266-.13c-.12-.048-.227-.099-.32-.15a1.126 1.126 0 01-.237-.174.642.642 0 01-.144-.217.745.745 0 01-.049-.279.747.747 0 01.242-.562.82.82 0 01.286-.17c.114-.042.241-.063.383-.063.198 0 .369.035.51.105a.762.762 0 01.33.288.805.805 0 01.114.432h-.683a.425.425 0 00-.027-.156.218.218 0 00-.088-.11.282.282 0 00-.159-.04.253.253 0 00-.222.117.228.228 0 00-.031.123.2.2 0 00.022.095.288.288 0 00.075.08c.034.027.08.054.137.084.059.027.13.058.215.092.176.066.32.136.432.21a.75.75 0 01.254.264c.055.1.083.222.083.369a.736.736 0 01-.069.32.697.697 0 01-.192.248.895.895 0 01-.306.162 1.29 1.29 0 01-.393.056c-.213 0-.393-.042-.54-.127a.873.873 0 01-.331-.325.837.837 0 01-.113-.415h.65c.003.088.02.157.049.208a.247.247 0 00.124.102c.052.02.11.03.174.03a.427.427 0 00.156-.025.195.195 0 00.095-.08.258.258 0 00.032-.13zm2.163.762a1.3 1.3 0 01-.481-.083.952.952 0 01-.352-.24 1.072 1.072 0 01-.22-.383c-.05-.15-.075-.32-.075-.512v-.218c0-.215.024-.403.073-.564.049-.162.118-.3.208-.41a.82.82 0 01.33-.246c.131-.056.28-.083.446-.083.166 0 .312.027.437.083a.763.763 0 01.315.244c.083.107.146.24.188.4.042.16.063.345.063.557v.312h-1.77v-.48h1.1v-.062a.898.898 0 00-.035-.268.309.309 0 00-.107-.164.323.323 0 00-.196-.054.338.338 0 00-.173.042.286.286 0 00-.113.13.803.803 0 00-.06.229c-.014.093-.02.204-.02.334v.218c0 .122.01.224.032.307a.544.544 0 00.092.2c.043.05.094.088.154.11a.798.798 0 00.535-.032.748.748 0 00.249-.178l.273.415a1.066 1.066 0 01-.493.337 1.25 1.25 0 01-.4.059zm3.169-2.144V15h-.686v-2.642h.644l.042.547zm-.098.684l-.188.005a2.125 2.125 0 01.049-.513c.036-.156.09-.292.161-.408a.791.791 0 01.276-.268.767.767 0 01.654-.042.539.539 0 01.213.164c.06.073.106.17.139.288.032.117.049.258.049.422V15h-.684v-1.68a.813.813 0 00-.034-.268.236.236 0 00-.098-.132.294.294 0 00-.156-.04.281.281 0 00-.17.055.39.39 0 00-.12.15.965.965 0 00-.069.225 1.67 1.67 0 00-.022.279zm1.287-.069l-.247.032a2.008 2.008 0 01.047-.486c.034-.151.087-.283.158-.395a.792.792 0 01.269-.266.738.738 0 01.378-.095.77.77 0 01.293.053.538.538 0 01.225.174.796.796 0 01.144.31c.034.128.051.285.051.468V15h-.686v-1.682a.847.847 0 00-.034-.274c-.023-.063-.055-.106-.098-.129a.316.316 0 00-.151-.034.25.25 0 00-.154.049.386.386 0 00-.107.136.74.74 0 00-.066.203c-.015.076-.022.16-.022.252zm1.755.25v-.179c0-.206.025-.39.073-.549.05-.16.123-.293.215-.4a.893.893 0 01.335-.247c.131-.057.279-.085.442-.085.164 0 .311.028.442.085a.889.889 0 01.336.247 1.1 1.1 0 01.218.4c.05.16.075.343.075.55v.178c0 .205-.025.387-.075.546-.05.16-.123.294-.218.403a.891.891 0 01-.334.247c-.13.055-.277.083-.44.083a1.13 1.13 0 01-.441-.083.912.912 0 01-.337-.247 1.124 1.124 0 01-.218-.403 1.87 1.87 0 01-.073-.546zm.684-.179v.179c0 .122.008.227.024.317.018.09.043.164.076.222a.349.349 0 00.122.13.318.318 0 00.163.041.331.331 0 00.166-.042.31.31 0 00.12-.129.684.684 0 00.07-.222c.017-.09.025-.195.025-.317v-.179a1.61 1.61 0 00-.027-.312.736.736 0 00-.075-.222.342.342 0 00-.122-.132.288.288 0 00-.161-.047.288.288 0 00-.162.047.38.38 0 00-.12.132.74.74 0 00-.075.222c-.016.09-.024.194-.024.312zm2.556-.669V15h-.686v-2.642h.642l.044.564zm-.103.667l-.183.005a2.015 2.015 0 01.056-.535 1.29 1.29 0 01.179-.403.815.815 0 01.278-.256.74.74 0 01.364-.09c.102 0 .196.018.28.053a.55.55 0 01.223.171c.061.078.11.182.144.313.034.128.051.286.051.473V15h-.686v-1.685a.794.794 0 00-.034-.263.228.228 0 00-.103-.132.34.34 0 00-.17-.04.283.283 0 00-.174.057.426.426 0 00-.127.149.89.89 0 00-.076.224 1.38 1.38 0 00-.022.279zm2.957 1.46a1.3 1.3 0 01-.481-.083.951.951 0 01-.352-.24 1.07 1.07 0 01-.22-.383c-.05-.15-.075-.32-.075-.512v-.218c0-.215.024-.403.073-.564.049-.162.118-.3.208-.41a.82.82 0 01.33-.246c.131-.056.28-.083.446-.083.166 0 .312.027.437.083a.763.763 0 01.315.244c.083.107.146.24.188.4.042.16.064.345.064.557v.312h-1.77v-.48h1.098v-.062a.898.898 0 00-.034-.268.308.308 0 00-.107-.164.323.323 0 00-.196-.054.338.338 0 00-.173.042.285.285 0 00-.112.13.803.803 0 00-.061.229c-.014.093-.02.204-.02.334v.218c0 .122.01.224.032.307a.544.544 0 00.093.2c.042.05.093.088.153.11a.797.797 0 00.535-.032.747.747 0 00.249-.178l.273.415a1.066 1.066 0 01-.493.337c-.115.04-.249.059-.4.059zm1.958-.352l.552-2.339h.713l-.87 3.037a1.7 1.7 0 01-.08.215.913.913 0 01-.137.22.639.639 0 01-.21.171.656.656 0 01-.305.066.716.716 0 01-.147-.012 1.37 1.37 0 01-.136-.035v-.532h.041a.441.441 0 00.225-.03.243.243 0 00.11-.092.574.574 0 00.073-.159l.17-.51zm-.142-2.339l.41 1.895.093.771-.461.044-.774-2.71h.732zm3.477 1.946l.461-1.946h.43l-.105.791L31.171 15h-.359l.027-.696zm-.132-1.946l.315 1.941-.002.701h-.42l-.55-2.642h.657zm1.37 1.91l.305-1.91h.662L32.492 15h-.42l.005-.732zm-.288-1.91l.461 1.932.032.71h-.36l-.453-1.846-.103-.796h.423zm2.265-1.108V15h-.683v-3.75h.683zm-.098 2.339l-.185.005a2.2 2.2 0 01.056-.513c.04-.156.095-.292.169-.408a.824.824 0 01.266-.268.666.666 0 01.349-.095c.109 0 .208.018.298.056.09.037.166.096.232.175.066.08.118.185.153.315.036.13.054.29.054.476V15h-.686v-1.672a.84.84 0 00-.034-.269.24.24 0 00-.103-.137.324.324 0 00-.17-.041.314.314 0 00-.188.056.385.385 0 00-.123.149.83.83 0 00-.068.224c-.013.087-.02.18-.02.279zm2.957 1.46a1.3 1.3 0 01-.48-.083.951.951 0 01-.352-.24 1.07 1.07 0 01-.22-.383c-.05-.15-.076-.32-.076-.512v-.218c0-.215.025-.403.073-.564.05-.162.118-.3.208-.41a.82.82 0 01.33-.246c.131-.056.28-.083.446-.083.166 0 .312.027.437.083a.763.763 0 01.315.244c.083.107.146.24.188.4.043.16.064.345.064.557v.312h-1.77v-.48h1.098v-.062a.898.898 0 00-.034-.268.308.308 0 00-.107-.164.323.323 0 00-.196-.054.338.338 0 00-.173.042.285.285 0 00-.112.13.8.8 0 00-.061.229c-.013.093-.02.204-.02.334v.218c0 .122.01.224.032.307a.544.544 0 00.093.2c.042.05.093.088.154.11a.797.797 0 00.535-.032.748.748 0 00.248-.178l.274.415a1.066 1.066 0 01-.493.337c-.116.04-.25.059-.4.059zm2-2.127V15h-.686v-2.642h.642l.044.564zm-.103.667l-.183.005a2.011 2.011 0 01.056-.535 1.29 1.29 0 01.178-.403.815.815 0 01.279-.256.74.74 0 01.363-.09c.103 0 .197.018.281.053a.55.55 0 01.222.171c.062.078.11.182.144.313.035.128.052.286.052.473V15h-.686v-1.685a.794.794 0 00-.035-.263.228.228 0 00-.102-.132.34.34 0 00-.171-.04.283.283 0 00-.173.057.426.426 0 00-.127.149.89.89 0 00-.076.224 1.38 1.38 0 00-.022.279zm4.197-1.23v.514h-1.348v-.515h1.348zm-1.038-.652h.681v2.487a.5.5 0 00.022.169.15.15 0 00.066.083c.031.014.072.022.122.022a.467.467 0 00.161-.02v.535a.941.941 0 01-.38.066.767.767 0 01-.357-.078.533.533 0 01-.232-.25 1.059 1.059 0 01-.083-.453v-2.562zm2.102 1.24V15h-.683v-2.642h.644l.04.589zm.623-.608l-.01.681a.47.47 0 00-.42.017.325.325 0 00-.134.105.487.487 0 00-.078.171 1.081 1.081 0 00-.032.232l-.13-.049c0-.172.014-.33.04-.473.027-.145.068-.27.122-.377a.716.716 0 01.193-.248.415.415 0 01.258-.088c.033 0 .067.003.103.01a.393.393 0 01.088.019zm1.44 2.053v-1.22c0-.08-.01-.144-.029-.191a.19.19 0 00-.083-.103.24.24 0 00-.132-.034.27.27 0 00-.146.037.224.224 0 00-.088.105.447.447 0 00-.027.163h-.686a.798.798 0 01.259-.59.936.936 0 01.307-.183c.12-.044.253-.066.4-.066.176 0 .333.03.47.09a.698.698 0 01.324.28c.08.13.12.296.12.501v1.177c0 .148.007.268.022.361a.97.97 0 00.07.24V15h-.688a1.142 1.142 0 01-.07-.273 2.555 2.555 0 01-.023-.335zm.083-1.006l.003.41h-.252a.428.428 0 00-.17.032.373.373 0 00-.193.222.573.573 0 00-.022.161c0 .064.009.118.026.162a.207.207 0 00.208.134c.075 0 .14-.016.195-.047a.316.316 0 00.122-.112c.028-.044.037-.085.027-.122l.156.266c-.02.06-.046.123-.08.188a.79.79 0 01-.125.18.602.602 0 01-.188.138.614.614 0 01-.26.05.786.786 0 01-.39-.097.724.724 0 01-.277-.273.83.83 0 01-.1-.418c0-.133.02-.254.063-.361a.711.711 0 01.195-.276.873.873 0 01.327-.176c.132-.04.287-.06.464-.06h.271zm2.39 1.03V11.25h.687V15l-.62.002-.067-.586zm-1.37-.644v-.176c0-.215.019-.403.054-.564.038-.16.093-.295.167-.403a.697.697 0 01.268-.239.813.813 0 01.369-.08c.125 0 .235.031.33.095a.773.773 0 01.244.261c.066.112.12.245.16.398.041.153.07.32.086.503v.254c-.02.172-.05.334-.09.483-.04.15-.093.28-.161.39a.816.816 0 01-.242.262.588.588 0 01-.33.093.793.793 0 01-.368-.083.737.737 0 01-.269-.244 1.25 1.25 0 01-.163-.4 2.523 2.523 0 01-.054-.55zm.684-.176v.176c0 .124.006.23.017.32.014.088.034.16.061.217.03.055.068.097.115.125a.36.36 0 00.176.039.345.345 0 00.222-.069.418.418 0 00.127-.193.944.944 0 00.049-.285v-.462a1.171 1.171 0 00-.032-.241.607.607 0 00-.075-.183.35.35 0 00-.123-.118.322.322 0 00-.166-.041.35.35 0 00-.175.041.285.285 0 00-.113.13.809.809 0 00-.063.222c-.013.09-.02.197-.02.322zm2.605-1.238V15h-.686v-2.642h.686zm-.717-.683c0-.106.033-.193.1-.261a.365.365 0 01.273-.105.36.36 0 01.274.105c.066.068.1.155.1.26a.359.359 0 01-.103.262.358.358 0 01-.268.103.373.373 0 01-.276-.103.364.364 0 01-.1-.261zm1.93 1.247V15h-.685v-2.642h.642l.044.564zm-.102.667l-.183.005a2.01 2.01 0 01.056-.535 1.29 1.29 0 01.178-.403.814.814 0 01.279-.256.74.74 0 01.364-.09c.102 0 .196.018.28.053a.55.55 0 01.223.171c.061.078.11.182.143.313.035.128.052.286.052.473V15h-.686v-1.685a.794.794 0 00-.034-.263.229.229 0 00-.103-.132.341.341 0 00-.17-.04.284.284 0 00-.174.057.426.426 0 00-.127.149.886.886 0 00-.076.224 1.38 1.38 0 00-.022.279zm3.282-1.23h.62V15c0 .24-.047.438-.14.59a.81.81 0 01-.383.34 1.382 1.382 0 01-1.15-.03.788.788 0 01-.237-.165l.232-.474a.785.785 0 00.25.161.742.742 0 00.302.069.544.544 0 00.24-.047.29.29 0 00.146-.151.676.676 0 00.051-.288V12.97l.069-.613zm-1.475 1.413v-.176c0-.215.02-.403.06-.564.042-.16.1-.295.177-.403a.717.717 0 01.28-.239.86.86 0 01.376-.08c.145 0 .266.031.364.095a.683.683 0 01.237.261c.062.112.109.245.142.398.034.153.06.32.078.503v.254a3.038 3.038 0 01-.088.483c-.04.15-.091.28-.156.39a.792.792 0 01-.24.262.61.61 0 01-.341.093.818.818 0 01-.372-.083.785.785 0 01-.28-.244 1.223 1.223 0 01-.176-.4 2.23 2.23 0 01-.061-.55zm.686-.176v.176c0 .124.007.23.022.32a.69.69 0 00.073.217.327.327 0 00.125.125c.052.026.113.039.183.039.099 0 .178-.023.236-.069a.402.402 0 00.132-.193.944.944 0 00.05-.285v-.462a.988.988 0 00-.032-.241.607.607 0 00-.076-.183.337.337 0 00-.127-.118.364.364 0 00-.178-.041.37.37 0 00-.181.041.335.335 0 00-.127.13.735.735 0 00-.076.222c-.016.09-.024.197-.024.322zm4.8.22h.71a1.55 1.55 0 01-.161.676.978.978 0 01-.417.415 1.377 1.377 0 01-.65.142 1.33 1.33 0 01-.525-.098 1.05 1.05 0 01-.39-.293 1.306 1.306 0 01-.245-.476c-.053-.19-.08-.41-.08-.657v-.603c0-.247.028-.466.085-.656.059-.19.142-.35.25-.479.108-.13.24-.228.392-.293.155-.067.33-.1.523-.1.259 0 .475.049.65.146.173.098.308.24.402.428.096.185.154.412.174.68h-.713a1.346 1.346 0 00-.059-.397.344.344 0 00-.156-.205.606.606 0 00-.298-.061.542.542 0 00-.244.051.394.394 0 00-.169.159.852.852 0 00-.097.288c-.02.119-.03.264-.03.434v.608c0 .168.01.311.027.43a.932.932 0 00.086.288c.039.075.092.13.158.164a.577.577 0 00.26.051c.12 0 .216-.018.29-.054.075-.036.13-.1.166-.193.035-.092.056-.224.06-.395zm1.872-2.37V15h-.715v-3.555h.715zm1.114 1.51v.591h-1.294v-.59h1.294zm.136-1.51v.593h-1.43v-.594h1.43zM63.398 15h-.628l.005-.59h.623c.172 0 .306-.032.402-.094a.498.498 0 00.203-.293c.04-.133.061-.308.061-.524v-.555c0-.164-.01-.303-.032-.417a.68.68 0 00-.107-.278.447.447 0 00-.203-.16.847.847 0 00-.315-.05h-.65v-.594h.65a1.5 1.5 0 01.56.1c.167.067.311.165.431.293.12.127.214.284.279.472.065.187.097.4.097.64v.549c0 .24-.032.454-.097.64a1.316 1.316 0 01-.279.47 1.171 1.171 0 01-.432.29c-.169.068-.359.101-.569.101zm-.213-3.555V15h-.715v-3.555h.715zm3.25 2.842a.182.182 0 00-.047-.122.55.55 0 00-.146-.11 2.414 2.414 0 00-.266-.13 2.8 2.8 0 01-.32-.15 1.127 1.127 0 01-.237-.174.644.644 0 01-.144-.217.746.746 0 01-.049-.279.746.746 0 01.242-.562.82.82 0 01.285-.17c.114-.042.242-.063.384-.063.198 0 .368.035.51.105a.762.762 0 01.33.288.805.805 0 01.114.432h-.683a.425.425 0 00-.027-.156.218.218 0 00-.088-.11.282.282 0 00-.159-.04.254.254 0 00-.222.117.228.228 0 00-.032.123c0 .036.008.067.022.095a.289.289 0 00.076.08c.034.027.08.054.137.084.058.027.13.058.215.092.175.066.32.136.432.21a.75.75 0 01.254.264c.055.1.083.222.083.369a.737.737 0 01-.069.32.697.697 0 01-.193.248.896.896 0 01-.305.162 1.29 1.29 0 01-.393.056c-.213 0-.393-.042-.54-.127a.873.873 0 01-.331-.325.837.837 0 01-.113-.415h.65c.003.088.02.157.048.208.031.048.073.083.125.102.052.02.11.03.173.03a.427.427 0 00.157-.025.195.195 0 00.095-.08.258.258 0 00.032-.13zM6.874 20.304l.461-1.946h.43l-.105.791L7.206 21h-.359l.027-.696zm-.132-1.946l.315 1.941-.002.701h-.42l-.55-2.642h.657zm1.37 1.91l.305-1.91h.662L8.527 21h-.42l.005-.732zm-.288-1.91l.461 1.932.032.71h-.359l-.454-1.846-.103-.796h.423zm2.317 0V21h-.686v-2.642h.686zm-.718-.683c0-.106.033-.193.1-.261a.365.365 0 01.273-.105.36.36 0 01.274.105c.067.068.1.155.1.26a.36.36 0 01-.103.262.358.358 0 01-.268.103.373.373 0 01-.276-.103.364.364 0 01-.1-.261zm2.412.683v.515h-1.348v-.515h1.348zm-1.038-.652h.681v2.488a.5.5 0 00.023.169.15.15 0 00.065.083c.031.014.072.022.122.022a.463.463 0 00.161-.02v.535a.941.941 0 01-.38.066.767.767 0 01-.357-.078.533.533 0 01-.232-.25 1.057 1.057 0 01-.083-.453v-2.562zm2.085-.456V21H12.2v-3.75h.683zm-.097 2.339l-.186.005c0-.186.019-.357.056-.513.04-.156.096-.292.169-.408a.825.825 0 01.266-.268.666.666 0 01.349-.095c.109 0 .208.018.298.056.09.037.167.096.232.175.067.08.118.185.154.315.035.13.053.29.053.476V21h-.686v-1.672a.844.844 0 00-.034-.269.24.24 0 00-.102-.137.324.324 0 00-.171-.041.314.314 0 00-.188.056.385.385 0 00-.122.149.826.826 0 00-.069.225c-.013.086-.02.179-.02.278zm4.196-1.23v.514h-1.347v-.515h1.347zm-1.037-.653h.681v2.488a.5.5 0 00.022.169.15.15 0 00.066.083c.03.014.072.022.122.022a.467.467 0 00.161-.02v.535a.941.941 0 01-.38.066.767.767 0 01-.357-.078.533.533 0 01-.232-.25 1.057 1.057 0 01-.083-.453v-2.562zm2.085-.456V21h-.684v-3.75h.684zm-.098 2.339l-.185.005c0-.186.018-.357.056-.513.039-.156.095-.292.168-.408a.825.825 0 01.266-.268.666.666 0 01.35-.095c.109 0 .208.018.297.056.09.037.167.096.232.175.067.08.118.185.154.315.036.13.054.29.054.476V21h-.686v-1.672a.84.84 0 00-.035-.269.24.24 0 00-.102-.137.324.324 0 00-.17-.041.314.314 0 00-.189.056.386.386 0 00-.122.149.83.83 0 00-.068.225c-.013.086-.02.179-.02.278zm2.61-1.23V21h-.686v-2.642h.686zm-.718-.684c0-.106.034-.193.1-.261a.365.365 0 01.274-.105.36.36 0 01.273.105c.067.068.1.155.1.26a.36.36 0 01-.102.262.358.358 0 01-.269.103.373.373 0 01-.276-.103.364.364 0 01-.1-.261zm2.432 2.612a.182.182 0 00-.046-.122.55.55 0 00-.147-.11 2.414 2.414 0 00-.266-.13c-.12-.048-.227-.099-.32-.15a1.126 1.126 0 01-.237-.174.642.642 0 01-.144-.217.746.746 0 01-.049-.279.747.747 0 01.242-.562.82.82 0 01.286-.17c.114-.042.241-.063.383-.063.199 0 .369.035.51.105a.762.762 0 01.33.288.805.805 0 01.115.432h-.684a.425.425 0 00-.027-.157.218.218 0 00-.088-.11.282.282 0 00-.158-.038.253.253 0 00-.222.117.228.228 0 00-.032.122.2.2 0 00.022.095.288.288 0 00.075.08c.035.027.08.054.137.084.059.027.13.058.215.092.176.065.32.135.432.21a.75.75 0 01.254.264c.055.1.083.222.083.369a.736.736 0 01-.068.32.696.696 0 01-.193.248.895.895 0 01-.306.162 1.289 1.289 0 01-.393.056c-.213 0-.393-.043-.54-.127a.873.873 0 01-.331-.325.837.837 0 01-.112-.415h.649c.003.088.02.157.049.208a.247.247 0 00.124.102c.052.02.11.03.174.03a.427.427 0 00.156-.025.195.195 0 00.095-.08.258.258 0 00.032-.13zm2.934-1.42v3.149h-.68v-3.658h.63l.05.508zm1.372.722v.176c0 .206-.017.39-.053.549-.036.158-.09.292-.161.403a.713.713 0 01-.264.249.789.789 0 01-.371.083.618.618 0 01-.342-.093.791.791 0 01-.24-.261 1.535 1.535 0 01-.155-.388 3.62 3.62 0 01-.09-.476v-.274c.019-.18.047-.347.085-.498.037-.153.088-.286.154-.398a.76.76 0 01.241-.259.618.618 0 01.342-.092c.143 0 .268.026.374.078a.663.663 0 01.266.236c.071.105.125.237.16.399.037.16.054.35.054.566zm-.683.176v-.176c0-.127-.007-.235-.022-.325a.708.708 0 00-.064-.22.287.287 0 00-.114-.124.355.355 0 00-.174-.04.379.379 0 00-.175.04.31.31 0 00-.12.115.574.574 0 00-.07.18c-.017.07-.026.15-.028.24v.478c.004.106.017.2.042.28a.42.42 0 00.124.196c.057.047.135.071.232.071.07 0 .128-.015.174-.044a.317.317 0 00.114-.132.696.696 0 00.061-.222c.013-.09.02-.195.02-.317zm1.787-.818V21h-.684v-2.642h.645l.039.589zm.623-.608l-.01.681a.47.47 0 00-.42.017.326.326 0 00-.134.105.49.49 0 00-.079.171 1.075 1.075 0 00-.031.232l-.13-.049c0-.172.013-.33.04-.473.027-.145.068-.27.121-.377a.715.715 0 01.193-.248.415.415 0 01.26-.088c.032 0 .066.003.102.01a.396.396 0 01.088.019zm.183 1.43v-.178c0-.206.024-.39.073-.549.05-.16.122-.293.215-.4a.893.893 0 01.334-.247c.132-.057.28-.085.442-.085.165 0 .312.028.442.085a.889.889 0 01.337.247c.094.107.167.24.217.4.05.16.076.343.076.55v.178c0 .205-.025.387-.076.546-.05.16-.123.294-.217.403a.891.891 0 01-.334.247c-.13.055-.277.083-.44.083a1.13 1.13 0 01-.442-.083.912.912 0 01-.337-.247 1.125 1.125 0 01-.217-.403 1.87 1.87 0 01-.073-.546zm.683-.178v.178c0 .123.008.228.025.318.018.09.043.163.075.222a.349.349 0 00.122.13.318.318 0 00.164.041.332.332 0 00.166-.041.31.31 0 00.12-.13.69.69 0 00.07-.222c.017-.09.025-.195.025-.317v-.179c0-.119-.01-.223-.027-.312a.74.74 0 00-.076-.222.344.344 0 00-.122-.132.288.288 0 00-.16-.047.288.288 0 00-.162.047.38.38 0 00-.12.132.736.736 0 00-.075.222c-.017.09-.025.194-.025.312zm2.625.882l.425-2.115h.712L32.191 21h-.427l.015-.527zm-.252-2.115l.432 2.117.008.525h-.43l-.725-2.642h.715zm2.437 0V21h-.686v-2.642h.686zm-.718-.683c0-.106.033-.193.1-.261a.365.365 0 01.274-.105.36.36 0 01.273.105c.067.068.1.155.1.26a.359.359 0 01-.102.262.358.358 0 01-.269.103.373.373 0 01-.276-.103.364.364 0 01-.1-.261zm2.54 2.741V17.25h.685V21l-.62.002-.066-.585zm-1.37-.644v-.176c0-.215.017-.403.053-.564.038-.16.093-.295.166-.403a.696.696 0 01.269-.239.814.814 0 01.368-.08c.126 0 .236.031.33.095a.772.772 0 01.244.261c.067.112.12.245.161.398.041.153.07.32.086.503v.254c-.02.172-.05.333-.09.483a1.42 1.42 0 01-.162.39.815.815 0 01-.241.262.588.588 0 01-.33.093.793.793 0 01-.369-.083.738.738 0 01-.268-.244 1.252 1.252 0 01-.164-.4 2.523 2.523 0 01-.053-.55zm.683-.176v.176c0 .124.006.23.017.32.013.088.034.16.061.217.03.055.068.097.115.125a.36.36 0 00.176.039.344.344 0 00.222-.069.418.418 0 00.127-.193.941.941 0 00.049-.285v-.462a1.171 1.171 0 00-.032-.241.605.605 0 00-.076-.183.348.348 0 00-.122-.118.322.322 0 00-.166-.041.351.351 0 00-.176.041.285.285 0 00-.112.13.81.81 0 00-.063.222c-.013.09-.02.197-.02.322zm2.952 1.453a1.3 1.3 0 01-.481-.083.951.951 0 01-.352-.24 1.07 1.07 0 01-.22-.383c-.05-.15-.075-.32-.075-.512v-.218c0-.215.024-.403.073-.564.049-.162.118-.3.208-.41a.82.82 0 01.33-.246c.131-.056.28-.083.446-.083.166 0 .312.027.437.083a.763.763 0 01.315.244c.083.107.146.24.188.4.042.16.063.345.063.557v.312h-1.77v-.48h1.099v-.062a.898.898 0 00-.034-.268.309.309 0 00-.108-.164.323.323 0 00-.195-.054.338.338 0 00-.173.042.285.285 0 00-.112.13.8.8 0 00-.062.229c-.013.093-.02.204-.02.334v.218c0 .122.012.224.033.307a.544.544 0 00.092.2c.043.05.094.087.154.11a.798.798 0 00.535-.032.748.748 0 00.249-.178l.273.415a1.066 1.066 0 01-.493.337 1.25 1.25 0 01-.4.059zm2.011-2.102V21h-.683v-2.642h.644l.04.589zm.623-.608l-.01.681a.47.47 0 00-.42.017.326.326 0 00-.134.105.487.487 0 00-.078.171 1.081 1.081 0 00-.032.232l-.13-.049c0-.172.014-.33.04-.473.028-.145.068-.27.122-.377a.716.716 0 01.193-.248.415.415 0 01.259-.088c.032 0 .066.003.102.01a.396.396 0 01.088.019zm-.015 2.312c0-.107.036-.197.108-.269a.388.388 0 01.29-.11c.122 0 .22.037.29.11a.365.365 0 01.108.269.364.364 0 01-.107.268.393.393 0 01-.29.108.393.393 0 01-.291-.108.364.364 0 01-.108-.268zm3.602-1.421l.727-1.785h.505l-1.01 2.23V21h-.447v-1.326l-1.01-2.229h.507l.728 1.785zm1.384.327c0-.384.093-.688.278-.91a.916.916 0 01.74-.337.92.92 0 01.737.327c.187.218.283.515.288.89v.28c0 .382-.093.684-.278.907a.917.917 0 01-.742.335.923.923 0 01-.738-.325c-.184-.216-.279-.51-.285-.879v-.288zm.432.25c0 .271.053.485.159.641a.5.5 0 00.432.232c.38 0 .577-.275.588-.825v-.298c0-.27-.054-.483-.161-.64a.499.499 0 00-.432-.236.494.494 0 00-.427.236c-.106.157-.16.37-.16.638v.251zm3.515.961c-.143.187-.352.28-.627.28-.24 0-.42-.081-.542-.246-.122-.166-.184-.407-.185-.722v-1.722h.43v1.69c0 .412.123.618.37.618.262 0 .443-.118.542-.352v-1.956h.432V21h-.41l-.01-.232zm3.502-.444a.32.32 0 00-.105-.24c-.07-.066-.206-.144-.406-.234a2.693 2.693 0 01-.493-.247.71.71 0 01-.212-.231.652.652 0 01-.071-.313.69.69 0 01.234-.535.863.863 0 01.603-.214c.257 0 .464.074.62.224.157.15.235.342.235.576h-.43a.42.42 0 00-.425-.43.429.429 0 00-.3.1.339.339 0 00-.107.264c0 .088.026.16.078.213.053.053.181.124.383.212.32.126.539.248.654.369.116.119.174.27.174.454 0 .23-.08.413-.237.552-.158.136-.37.205-.635.205-.275 0-.498-.08-.669-.237a.782.782 0 01-.256-.6h.434c.005.146.05.26.135.344a.487.487 0 00.356.124c.143 0 .252-.032.327-.095a.329.329 0 00.113-.261zm1.428-1.695a.762.762 0 01.63-.32c.467 0 .704.312.71.936V21h-.43v-1.736c0-.206-.035-.353-.105-.44-.068-.087-.171-.131-.31-.131a.443.443 0 00-.29.107.781.781 0 00-.205.281V21H54.1v-3.75h.432v1.38zm1.894.928c0-.384.093-.688.279-.91a.916.916 0 01.74-.337.92.92 0 01.737.327c.187.218.283.515.288.89v.28c0 .382-.093.684-.279.907a.917.917 0 01-.742.335.923.923 0 01-.737-.325c-.184-.216-.28-.51-.286-.879v-.288zm.432.25c0 .271.053.485.16.641a.5.5 0 00.431.232c.381 0 .577-.275.589-.825v-.298c0-.27-.054-.483-.162-.64a.498.498 0 00-.432-.236.494.494 0 00-.427.236c-.106.157-.159.37-.159.638v.251zm3.516.961c-.143.187-.352.28-.627.28-.24 0-.42-.081-.542-.246-.123-.166-.184-.407-.186-.722v-1.722h.43v1.69c0 .412.123.618.37.618.263 0 .444-.118.543-.352v-1.956h.432V21h-.41l-.01-.232zm1.536.232h-.433v-3.75h.433V21zm.59-1.44c0-.407.076-.717.227-.93.154-.214.372-.32.657-.32.253 0 .45.102.591.307V17.25h.432V21h-.395l-.022-.283a.68.68 0 01-.608.332.757.757 0 01-.645-.318c-.154-.213-.233-.513-.236-.9v-.271zm.433.246c0 .296.044.514.131.654.088.139.232.208.43.208.215 0 .375-.108.481-.325V19.01c-.11-.211-.27-.317-.478-.317-.199 0-.342.07-.43.21-.088.138-.133.351-.134.64v.263zM7.24 26.68a.46.46 0 00.344-.132.57.57 0 00.142-.38h.408a.9.9 0 01-.271.632.855.855 0 01-.623.249c-.327 0-.577-.103-.75-.308-.17-.206-.256-.513-.256-.92v-.29c0-.4.086-.702.257-.909.17-.208.42-.312.747-.312.27 0 .484.085.642.256.16.17.244.404.254.7h-.408c-.01-.195-.057-.341-.142-.439a.43.43 0 00-.346-.146c-.192 0-.335.063-.427.19-.093.125-.141.332-.144.62v.337c0 .311.045.53.136.66.093.128.239.192.437.192zm1.301-1.123c0-.384.093-.688.279-.91a.916.916 0 01.74-.337.92.92 0 01.737.327c.187.218.283.515.288.89v.28c0 .382-.093.684-.278.907a.917.917 0 01-.743.335.923.923 0 01-.737-.325c-.184-.216-.279-.51-.286-.879v-.288zm.433.25c0 .271.053.485.158.641a.501.501 0 00.432.232c.381 0 .577-.275.589-.825v-.298c0-.27-.054-.483-.161-.64a.498.498 0 00-.432-.236.494.494 0 00-.428.236c-.105.157-.158.37-.158.638v.251zm2.575-1.449l.013.286a.771.771 0 01.642-.334c.467 0 .704.311.71.935V27h-.43v-1.736c0-.206-.035-.353-.105-.44-.068-.087-.171-.131-.31-.131a.443.443 0 00-.29.107.781.781 0 00-.205.281V27h-.432v-2.642h.407zm3.299 1.966a.32.32 0 00-.105-.24c-.07-.066-.205-.144-.406-.234a2.698 2.698 0 01-.493-.247.71.71 0 01-.212-.231.652.652 0 01-.071-.313c0-.215.078-.393.234-.535a.863.863 0 01.603-.214c.258 0 .464.074.62.224.157.15.235.342.235.576h-.43a.42.42 0 00-.425-.43.429.429 0 00-.3.1.339.339 0 00-.107.264c0 .088.026.16.078.213.054.053.181.124.383.212.32.126.539.248.654.369.116.119.174.27.174.454 0 .23-.08.413-.237.552-.158.136-.37.205-.635.205-.275 0-.498-.08-.669-.237a.782.782 0 01-.256-.6h.434c.005.146.05.26.135.344a.487.487 0 00.356.124c.143 0 .253-.032.327-.095a.33.33 0 00.113-.261zM16.31 27h-.432v-2.642h.432V27zm.034-3.342c0 .073-.02.134-.06.183-.041.049-.103.073-.186.073-.082 0-.143-.024-.183-.073a.276.276 0 01-.061-.183c0-.074.02-.135.06-.186.041-.05.102-.076.184-.076.081 0 .142.026.183.079.042.05.063.111.063.183zm.557 1.902c0-.407.076-.717.227-.93.153-.214.372-.32.657-.32.252 0 .449.102.59.307V23.25h.433V27h-.396l-.022-.283a.68.68 0 01-.608.332.757.757 0 01-.644-.318c-.155-.213-.234-.513-.237-.9v-.271zm.432.246c0 .296.044.514.132.654.088.139.231.208.43.208.214 0 .375-.108.48-.325V25.01c-.11-.211-.27-.317-.478-.317-.199 0-.342.07-.43.21-.088.138-.132.351-.134.64v.263zm3.084 1.243c-.33 0-.582-.098-.757-.293-.176-.197-.266-.485-.269-.864v-.32c0-.394.086-.703.257-.925.172-.225.412-.337.72-.337.309 0 .54.098.693.295.153.197.231.504.234.92v.284h-1.474v.06c0 .284.053.49.159.618.107.129.26.193.46.193a.75.75 0 00.335-.07.846.846 0 00.274-.23l.224.273c-.187.264-.472.396-.857.396zm-.05-2.368c-.178 0-.311.061-.397.185-.086.122-.135.313-.147.572h1.04v-.06c-.011-.25-.057-.429-.136-.536-.079-.108-.198-.161-.36-.161zm2.54.083a1.05 1.05 0 00-.196-.017c-.22 0-.376.12-.463.363V27h-.433v-2.642h.42l.008.269c.115-.212.279-.317.49-.317a.38.38 0 01.171.034l.003.42zm3.55 1.477l.4-1.883h.427L26.637 27h-.344l-.515-1.89-.503 1.89h-.347l-.642-2.642h.425l.41 1.836.49-1.836h.343l.502 1.883zm1.713-1.612a.762.762 0 01.63-.32c.467 0 .704.312.71.936V27h-.429v-1.736c0-.206-.035-.353-.105-.44-.068-.087-.172-.131-.31-.131a.443.443 0 00-.29.107.781.781 0 00-.206.281V27h-.432v-3.75h.432v1.38zm2.93 2.42c-.329 0-.581-.098-.757-.293-.175-.197-.265-.485-.268-.864v-.32c0-.394.085-.703.256-.925.173-.225.413-.337.72-.337.31 0 .54.098.694.295.153.197.23.504.234.92v.284h-1.475v.06c0 .284.053.49.16.618.106.129.26.193.46.193a.75.75 0 00.335-.07.846.846 0 00.273-.23l.225.273c-.187.264-.473.396-.857.396zm-.049-2.368c-.179 0-.311.061-.398.185-.086.122-.135.313-.146.572h1.04v-.06c-.012-.25-.057-.429-.137-.536-.078-.108-.198-.161-.359-.161zm2.014-.962v.64h.398v.348h-.398v1.639c0 .104.018.183.052.236.034.054.093.081.175.081.057 0 .115-.01.174-.03L33.46 27a.942.942 0 01-.3.049.454.454 0 01-.391-.183c-.09-.122-.134-.295-.134-.518v-1.64h-.403v-.35h.403v-.64h.43zm1.346.91a.762.762 0 01.63-.32c.467 0 .704.312.71.936V27h-.43v-1.736c0-.206-.035-.353-.105-.44-.068-.087-.171-.131-.31-.131a.443.443 0 00-.29.107.781.781 0 00-.205.281V27h-.433v-3.75h.433v1.38zm2.93 2.42c-.33 0-.582-.098-.758-.293-.175-.197-.265-.485-.268-.864v-.32c0-.394.085-.703.256-.925.173-.225.413-.337.72-.337.31 0 .54.098.694.295.153.197.231.504.234.92v.284h-1.474v.06c0 .284.053.49.158.618.108.129.262.193.462.193a.75.75 0 00.334-.07.846.846 0 00.274-.23l.224.273c-.187.264-.473.396-.857.396zm-.05-2.368c-.178 0-.311.061-.397.185-.087.122-.136.313-.147.572h1.04v-.06c-.011-.25-.057-.429-.137-.536-.078-.108-.197-.161-.358-.161zm2.54.083a1.052 1.052 0 00-.196-.017c-.221 0-.376.12-.464.363V27h-.432v-2.642h.42l.008.269c.115-.212.279-.317.49-.317a.38.38 0 01.171.034l.003.42zm2.302 1.518l.48-1.924h.46l-.864 3.015c-.066.227-.158.398-.276.516a.559.559 0 01-.406.178.853.853 0 01-.224-.04v-.365l.095.01c.125 0 .223-.03.293-.09.072-.06.13-.162.173-.309l.086-.295-.777-2.62h.471l.489 1.924zm1.272-.725c0-.384.093-.688.278-.91a.916.916 0 01.74-.337.92.92 0 01.737.327c.187.218.283.515.288.89v.28c0 .382-.093.684-.278.907a.917.917 0 01-.742.335.923.923 0 01-.738-.325c-.183-.216-.279-.51-.285-.879v-.288zm.432.25c0 .271.053.485.159.641a.501.501 0 00.432.232c.38 0 .577-.275.588-.825v-.298c0-.27-.054-.483-.161-.64a.498.498 0 00-.432-.236.494.494 0 00-.427.236c-.106.157-.16.37-.16.638v.251zm3.515.961c-.143.187-.352.28-.627.28-.24 0-.42-.081-.542-.246-.122-.166-.184-.407-.185-.722v-1.722h.43v1.69c0 .412.123.618.37.618.262 0 .443-.118.542-.352v-1.956h.432V27h-.41l-.01-.232zm3.565 0c-.143.187-.352.28-.627.28-.24 0-.42-.081-.542-.246-.122-.166-.184-.407-.186-.722v-1.722h.43v1.69c0 .412.123.618.37.618.263 0 .444-.118.543-.352v-1.956h.432V27h-.41l-.01-.232zm1.477-2.41l.012.286a.771.771 0 01.642-.334c.468 0 .704.311.71.935V27h-.429v-1.736c0-.206-.035-.353-.105-.44-.068-.087-.172-.131-.31-.131a.443.443 0 00-.29.107.78.78 0 00-.206.281V27h-.432v-2.642h.408zm1.924 1.202c0-.407.076-.717.227-.93.153-.214.372-.32.657-.32.252 0 .449.102.59.307V23.25h.433V27h-.396l-.022-.283a.68.68 0 01-.608.332.757.757 0 01-.644-.318c-.155-.213-.234-.513-.237-.9v-.271zm.432.246c0 .296.044.514.132.654.088.139.231.208.43.208.214 0 .375-.108.48-.325V25.01c-.11-.211-.27-.317-.478-.317-.199 0-.342.07-.43.21-.088.138-.132.351-.134.64v.263zm3.084 1.243c-.33 0-.582-.098-.757-.293-.176-.197-.266-.485-.269-.864v-.32c0-.394.086-.703.257-.925.172-.225.412-.337.72-.337.309 0 .54.098.693.295.153.197.231.504.234.92v.284h-1.474v.06c0 .284.053.49.159.618.107.129.26.193.46.193a.75.75 0 00.335-.07.846.846 0 00.274-.23l.224.273c-.187.264-.472.396-.856.396zm-.05-2.368c-.178 0-.311.061-.397.185-.087.122-.135.313-.147.572h1.04v-.06c-.011-.25-.057-.429-.136-.536-.079-.108-.198-.161-.36-.161zm2.54.083a1.05 1.05 0 00-.196-.017c-.22 0-.376.12-.463.363V27h-.433v-2.642h.42l.008.269c.115-.212.279-.317.49-.317a.38.38 0 01.171.034l.003.42zm1.716 1.56a.32.32 0 00-.105-.24c-.07-.066-.205-.144-.405-.234a2.691 2.691 0 01-.493-.247.71.71 0 01-.213-.231.652.652 0 01-.07-.313.69.69 0 01.234-.535.863.863 0 01.603-.214c.257 0 .464.074.62.224.156.15.234.342.234.576h-.43a.421.421 0 00-.424-.43.429.429 0 00-.3.1.339.339 0 00-.108.264c0 .088.026.16.078.213.054.053.182.124.383.212.321.126.54.248.655.369.115.119.173.27.173.454 0 .23-.079.413-.237.552-.157.136-.37.205-.634.205-.276 0-.498-.08-.67-.237a.782.782 0 01-.256-.6h.435c.005.146.05.26.134.344a.488.488 0 00.357.124c.143 0 .252-.032.327-.095a.329.329 0 00.112-.261zm1.563-2.605v.64H64v.348h-.399v1.639c0 .104.018.183.052.236.034.054.093.081.176.081.057 0 .114-.01.173-.03l-.005.367a.942.942 0 01-.3.049.454.454 0 01-.39-.183c-.09-.122-.135-.295-.135-.518v-1.64h-.403v-.35h.403v-.64h.43zM65.876 27a.949.949 0 01-.057-.288c-.153.224-.348.337-.586.337-.239 0-.426-.067-.561-.2-.134-.136-.2-.325-.2-.57 0-.268.09-.481.273-.639.182-.158.432-.238.75-.242h.317v-.28c0-.158-.035-.27-.105-.337-.07-.067-.177-.1-.32-.1a.439.439 0 00-.317.117.384.384 0 00-.122.293h-.432c0-.135.04-.264.12-.386a.829.829 0 01.322-.29.967.967 0 01.451-.105c.27 0 .475.067.615.202.142.134.214.329.218.586v1.333c.001.204.029.38.083.53V27h-.45zm-.577-.344c.106 0 .207-.03.303-.088a.542.542 0 00.21-.22v-.63h-.244c-.205.003-.367.05-.486.14a.435.435 0 00-.178.37c0 .15.03.26.09.328.06.066.162.1.305.1zm2.022-2.298l.012.286a.771.771 0 01.642-.334c.467 0 .704.311.71.935V27h-.43v-1.736c0-.206-.034-.353-.104-.44-.069-.087-.172-.131-.31-.131a.443.443 0 00-.29.107.781.781 0 00-.206.281V27h-.432v-2.642h.408zm1.924 1.202c0-.407.075-.717.227-.93.153-.214.372-.32.656-.32.253 0 .45.102.591.307V23.25h.432V27h-.395l-.022-.283a.68.68 0 01-.608.332.757.757 0 01-.645-.318c-.154-.213-.233-.513-.236-.9v-.271zm.432.246c0 .296.044.514.132.654.088.139.23.208.43.208.214 0 .374-.108.48-.325V25.01c-.11-.211-.27-.317-.478-.317-.199 0-.342.07-.43.21-.088.138-.133.351-.134.64v.263zM6.754 30.63a.762.762 0 01.63-.32c.467 0 .704.312.71.936V33h-.429v-1.736c0-.206-.035-.353-.105-.44-.068-.087-.172-.131-.31-.131a.443.443 0 00-.29.107.78.78 0 00-.206.281V33h-.432v-3.75h.432v1.38zm1.895.928c0-.384.093-.688.278-.91a.916.916 0 01.74-.337.92.92 0 01.737.327c.188.218.284.515.288.89v.28c0 .382-.092.684-.278.907a.917.917 0 01-.742.335.923.923 0 01-.737-.325c-.184-.216-.28-.51-.286-.879v-.288zm.432.25c0 .271.053.485.159.641a.501.501 0 00.432.232c.38 0 .577-.275.588-.825v-.298c0-.27-.053-.483-.16-.64a.498.498 0 00-.433-.236.494.494 0 00-.427.236c-.106.157-.159.37-.159.638v.251zm4.138.434l.4-1.883h.428L13.4 33h-.344l-.515-1.89-.503 1.89h-.347l-.642-2.642h.425l.41 1.836.49-1.836h.342l.503 1.883zm4.72-.369c-.02.38-.128.672-.323.874-.194.202-.468.303-.822.303a1.02 1.02 0 01-.85-.405c-.21-.272-.315-.64-.315-1.104v-.645c0-.462.107-.827.322-1.096.217-.268.511-.402.884-.402.343 0 .609.103.796.31.189.205.291.498.308.88h-.452c-.02-.289-.08-.495-.183-.62-.103-.123-.26-.185-.469-.185a.636.636 0 00-.56.286c-.13.189-.194.466-.194.832v.652c0 .36.06.636.18.828.122.192.3.288.533.288.232 0 .4-.058.502-.173.103-.116.166-.323.19-.623h.453zm2.255-.442h-1.2V33h-.448v-3.555h1.851v.386h-1.404v1.216h1.201v.383zM20.95 33v-3.555h.847c.415 0 .737.13.967.39.23.26.344.624.344 1.095v.595c0 .47-.116.834-.35 1.092-.232.255-.57.383-1.012.383h-.796zm.446-3.169v2.786h.36c.314 0 .543-.09.688-.269.145-.18.219-.447.222-.8v-.63c0-.375-.072-.65-.217-.823-.143-.176-.36-.264-.652-.264h-.4zm3.633 2.493a.32.32 0 00-.105-.24c-.07-.066-.205-.144-.405-.234a2.691 2.691 0 01-.493-.247.71.71 0 01-.212-.231.652.652 0 01-.071-.313.69.69 0 01.234-.535.863.863 0 01.603-.214c.257 0 .464.074.62.224.156.15.235.342.235.576h-.43a.421.421 0 00-.425-.43.429.429 0 00-.3.1.339.339 0 00-.108.264c0 .088.026.16.079.213.053.053.181.124.383.212.32.126.539.248.654.369.116.119.173.27.173.454 0 .23-.079.413-.236.552-.158.136-.37.205-.635.205-.275 0-.498-.08-.67-.237a.782.782 0 01-.255-.6h.434c.005.146.05.26.134.344a.488.488 0 00.357.124c.143 0 .252-.032.327-.095a.329.329 0 00.112-.261zm4.114-.083l.4-1.883h.428L29.323 33h-.345l-.515-1.89L27.96 33h-.346l-.642-2.642h.424l.41 1.836.491-1.836h.342l.503 1.883zm1.192-.684c0-.384.092-.688.278-.91a.916.916 0 01.74-.337.92.92 0 01.737.327c.187.218.283.515.288.89v.28c0 .382-.093.684-.278.907a.917.917 0 01-.743.335.923.923 0 01-.737-.325c-.184-.216-.279-.51-.285-.879v-.288zm.432.25c0 .271.053.485.158.641a.501.501 0 00.432.232c.381 0 .577-.275.589-.825v-.298c0-.27-.054-.483-.161-.64a.498.498 0 00-.432-.236.494.494 0 00-.428.236c-.105.157-.158.37-.158.638v.251zm3.259-1.043a1.05 1.05 0 00-.195-.017c-.222 0-.376.12-.464.363V33h-.432v-2.642h.42l.007.269c.115-.212.279-.317.49-.317a.38.38 0 01.172.034l.002.42zm1.096 1.027l-.23.264V33h-.431v-3.75h.432v2.244l.822-1.136h.518l-.84 1.104.95 1.538h-.503l-.718-1.209zm4.1 1.209a.952.952 0 01-.057-.288c-.153.224-.348.337-.586.337-.24 0-.426-.067-.561-.2-.134-.135-.2-.325-.2-.57 0-.268.09-.481.273-.639.182-.158.432-.238.75-.242h.317v-.28c0-.158-.035-.27-.105-.337-.07-.067-.177-.1-.32-.1a.439.439 0 00-.317.117.384.384 0 00-.123.293h-.432c0-.135.04-.264.12-.386a.83.83 0 01.322-.29.967.967 0 01.452-.105c.27 0 .475.067.615.202.142.134.214.329.217.586v1.333c.002.204.03.38.083.53V33h-.449zm-.577-.344c.106 0 .207-.03.303-.088a.542.542 0 00.21-.22v-.63h-.244c-.205.003-.367.05-.486.14a.435.435 0 00-.178.37c0 .15.03.26.09.328.06.066.162.1.305.1zm2.022-2.298l.012.286a.771.771 0 01.642-.334c.467 0 .704.311.71.935V33h-.43v-1.736c0-.206-.034-.353-.104-.44-.069-.087-.172-.131-.31-.131a.443.443 0 00-.291.107.781.781 0 00-.205.281V33h-.432v-2.642h.407zm1.923 1.202c0-.407.076-.717.227-.93.153-.214.372-.32.657-.32.252 0 .45.102.591.307V29.25h.432V33h-.395l-.022-.283a.68.68 0 01-.608.332.757.757 0 01-.645-.318c-.154-.213-.233-.513-.237-.9v-.271zm.433.246c0 .296.043.515.131.654.088.139.231.208.43.208.215 0 .375-.108.481-.325V31.01c-.11-.211-.27-.317-.479-.317-.198 0-.341.07-.43.21-.087.138-.132.351-.133.64v.263zm5.256.435l.4-1.883h.428L48.457 33h-.344l-.515-1.89-.503 1.89h-.346l-.643-2.642h.425l.41 1.836.491-1.836h.342l.503 1.883zm1.714-1.612a.762.762 0 01.63-.32c.467 0 .703.312.71.936V33h-.43v-1.736c0-.206-.035-.353-.105-.44-.068-.087-.171-.131-.31-.131a.443.443 0 00-.29.107.78.78 0 00-.205.281V33h-.432v-3.75h.432v1.38zm2.93 2.42c-.33 0-.582-.098-.757-.293-.176-.197-.266-.485-.269-.864v-.32c0-.394.085-.703.256-.925.173-.225.413-.337.72-.337.31 0 .54.098.694.295.153.197.231.504.234.92v.284h-1.474v.06c0 .284.053.49.158.618.108.129.262.193.462.193a.75.75 0 00.334-.07.846.846 0 00.274-.23l.224.273c-.187.264-.472.396-.857.396zm-.05-2.368c-.178 0-.311.061-.397.185-.087.122-.136.313-.147.572h1.04v-.06c-.011-.25-.057-.429-.137-.536-.078-.108-.197-.161-.358-.161zm2.015-.962v.64h.398v.348h-.398v1.639c0 .104.017.183.051.237.034.053.093.08.176.08.057 0 .114-.01.173-.03l-.005.367a.942.942 0 01-.3.049.454.454 0 01-.39-.183c-.09-.122-.135-.295-.135-.518v-1.64h-.403v-.35h.403v-.64h.43zm1.345.91a.762.762 0 01.63-.32c.467 0 .704.312.71.936V33h-.43v-1.736c0-.206-.034-.353-.104-.44-.069-.087-.172-.131-.31-.131a.443.443 0 00-.291.107.781.781 0 00-.205.281V33H55.8v-3.75h.432v1.38zm2.93 2.42c-.33 0-.581-.098-.757-.293-.176-.197-.266-.485-.269-.864v-.32c0-.394.086-.703.257-.925.172-.225.412-.337.72-.337.309 0 .54.098.693.295.153.197.231.504.235.92v.284h-1.475v.06c0 .284.053.49.159.618.107.129.26.193.461.193a.75.75 0 00.334-.07.845.845 0 00.274-.23l.225.273c-.188.264-.473.396-.857.396zm-.05-2.368c-.178 0-.31.061-.397.185-.086.122-.135.313-.147.572h1.04v-.06c-.011-.25-.057-.429-.136-.536-.078-.108-.198-.161-.36-.161zm2.54.083a1.052 1.052 0 00-.196-.017c-.22 0-.375.12-.463.363V33h-.433v-2.642h.42l.008.269c.115-.212.279-.317.49-.317a.38.38 0 01.171.034l.003.42zm2.302 1.518l.481-1.924h.459l-.864 3.015c-.065.227-.157.399-.276.516a.559.559 0 01-.405.178.852.852 0 01-.225-.04v-.365l.095.01c.126 0 .223-.03.293-.09.072-.06.13-.162.173-.309l.086-.295-.776-2.62h.47l.49 1.924zm1.272-.725c0-.384.093-.688.278-.91a.916.916 0 01.74-.337.92.92 0 01.737.327c.188.218.284.515.288.89v.28c0 .382-.092.684-.278.907a.917.917 0 01-.742.335.923.923 0 01-.737-.325c-.184-.216-.28-.51-.286-.879v-.288zm.432.25c0 .271.053.485.159.641a.501.501 0 00.432.232c.38 0 .577-.275.588-.825v-.298c0-.27-.053-.483-.16-.64a.499.499 0 00-.433-.236.494.494 0 00-.427.236c-.106.157-.159.37-.159.638v.251zm3.516.961c-.143.187-.353.28-.628.28-.239 0-.42-.081-.542-.246-.122-.166-.184-.407-.185-.722v-1.722h.43v1.69c0 .412.123.617.37.617.263 0 .443-.117.543-.351v-1.956h.432V33h-.41l-.01-.232zM7.24 38.68a.46.46 0 00.344-.132.57.57 0 00.142-.38h.408a.9.9 0 01-.271.632.855.855 0 01-.623.249c-.327 0-.577-.103-.75-.308-.17-.206-.256-.513-.256-.92v-.29c0-.4.086-.702.257-.909.17-.208.42-.312.747-.312.27 0 .484.085.642.256.16.17.244.404.254.7h-.408c-.01-.195-.057-.341-.142-.439a.43.43 0 00-.346-.146c-.192 0-.335.063-.427.19-.093.125-.141.332-.144.62v.337c0 .311.045.53.136.66.093.128.239.192.437.192zm2.752.32a.95.95 0 01-.056-.288c-.153.224-.349.337-.586.337-.24 0-.427-.067-.562-.2-.133-.135-.2-.325-.2-.57 0-.268.091-.481.273-.639.183-.158.432-.238.75-.242h.317v-.28c0-.158-.035-.27-.105-.337-.07-.067-.176-.1-.32-.1a.439.439 0 00-.317.117.384.384 0 00-.122.293h-.432c0-.135.04-.264.12-.386a.83.83 0 01.322-.29.967.967 0 01.451-.105c.27 0 .476.067.616.202.141.134.214.329.217.586v1.333c.002.204.03.38.083.53V39h-.45zm-.576-.344c.105 0 .206-.03.302-.088a.542.542 0 00.21-.22v-.63h-.244c-.205.003-.367.05-.486.14a.435.435 0 00-.178.37c0 .15.03.26.09.328.06.066.162.1.306.1zm2.021-2.298l.012.286a.771.771 0 01.642-.334c.467 0 .704.311.71.935V39h-.429v-1.736c0-.207-.035-.353-.105-.44-.068-.087-.172-.131-.31-.131a.443.443 0 00-.29.107.781.781 0 00-.206.281V39h-.432v-2.642h.408zM15.959 39a.952.952 0 01-.057-.288c-.153.224-.348.337-.586.337-.239 0-.426-.067-.561-.2-.134-.135-.2-.325-.2-.57 0-.268.09-.481.273-.639.182-.158.432-.238.75-.242h.317v-.28c0-.158-.035-.27-.105-.337-.07-.067-.177-.1-.32-.1a.439.439 0 00-.317.117.384.384 0 00-.122.293h-.432c0-.135.04-.264.12-.386a.829.829 0 01.322-.29.967.967 0 01.451-.105c.27 0 .475.067.615.202.142.134.215.329.218.586v1.333c.001.204.029.38.083.53V39h-.45zm-.577-.344c.106 0 .207-.03.303-.088a.542.542 0 00.21-.22v-.63h-.244c-.205.003-.367.05-.486.14a.435.435 0 00-.178.37c0 .15.03.26.09.328.06.066.162.1.305.1zm1.804.344v-2.292h-.344v-.35h.345v-.305c.004-.268.072-.477.202-.627.132-.152.317-.227.557-.227.086 0 .173.014.261.041l-.022.366a.86.86 0 00-.198-.022c-.245 0-.368.175-.368.525v.25h.451v.349h-.451V39h-.433zm1.583 0v-2.292h-.345v-.35h.345v-.305c.004-.268.072-.477.202-.627.132-.152.318-.227.557-.227.086 0 .173.014.261.041l-.022.366a.86.86 0 00-.198-.022c-.245 0-.368.175-.368.525v.25h.451v.349h-.451V39h-.432zm1.3-1.443c0-.384.094-.688.28-.91a.916.916 0 01.739-.337.92.92 0 01.737.327c.187.218.283.515.288.89v.28c0 .382-.093.684-.278.907a.917.917 0 01-.742.335.923.923 0 01-.738-.325c-.183-.216-.279-.51-.285-.879v-.288zm.433.25c0 .271.053.485.159.641a.501.501 0 00.432.232c.38 0 .577-.275.588-.825v-.298c0-.27-.054-.483-.161-.64a.498.498 0 00-.432-.236.495.495 0 00-.427.236c-.106.157-.159.37-.159.638v.251zm3.26-1.043a1.05 1.05 0 00-.196-.017c-.221 0-.376.12-.464.363V39h-.432v-2.642h.42l.007.269c.116-.212.28-.317.49-.317a.38.38 0 01.172.034l.002.42zm.341.796c0-.407.076-.717.227-.93.153-.214.372-.32.657-.32.252 0 .449.102.59.307V35.25h.433V39h-.396l-.022-.283a.68.68 0 01-.608.332.757.757 0 01-.644-.318c-.155-.213-.234-.513-.237-.9v-.271zm.432.246c0 .296.044.515.132.654.088.139.231.208.43.208.214 0 .375-.108.48-.325V37.01c-.11-.211-.27-.317-.478-.317-.198 0-.342.07-.43.21-.088.138-.132.351-.134.64v.263zm3.853-2.087v.64h.398v.349h-.398v1.638c0 .104.017.183.051.237.034.053.093.08.176.08.057 0 .115-.01.173-.03l-.005.367a.943.943 0 01-.3.049.454.454 0 01-.39-.183c-.09-.122-.135-.295-.135-.518v-1.64h-.403v-.35h.403v-.64h.43zm.774 1.838c0-.384.092-.688.278-.91a.916.916 0 01.74-.337.92.92 0 01.737.327c.187.218.283.515.288.89v.28c0 .382-.093.684-.278.907a.917.917 0 01-.742.335.923.923 0 01-.738-.325c-.184-.216-.279-.51-.285-.879v-.288zm.432.25c0 .271.053.485.158.641a.501.501 0 00.433.232c.38 0 .577-.275.588-.825v-.298c0-.27-.054-.483-.161-.64a.498.498 0 00-.432-.236.495.495 0 00-.428.236c-.105.157-.158.37-.158.638v.251zm3.882-2.088v.64h.398v.349h-.398v1.638c0 .104.017.183.05.237.035.053.094.08.177.08.057 0 .114-.01.173-.03l-.005.367a.943.943 0 01-.3.049.454.454 0 01-.39-.183c-.09-.122-.135-.295-.135-.518v-1.64h-.403v-.35h.403v-.64h.43zM35.749 39a.952.952 0 01-.057-.288c-.153.224-.348.337-.586.337-.239 0-.426-.067-.561-.2-.134-.135-.2-.325-.2-.57 0-.268.09-.481.273-.639.182-.158.432-.238.75-.242h.317v-.28c0-.158-.035-.27-.105-.337-.07-.067-.176-.1-.32-.1a.439.439 0 00-.317.117.384.384 0 00-.122.293h-.432c0-.135.04-.264.12-.386a.83.83 0 01.322-.29.967.967 0 01.451-.105c.27 0 .476.067.616.202.141.134.213.329.217.586v1.333c.001.204.029.38.083.53V39h-.45zm-.577-.344c.106 0 .207-.03.303-.088a.543.543 0 00.21-.22v-.63h-.244c-.205.003-.367.05-.486.14a.435.435 0 00-.178.37c0 .15.03.26.09.328.06.066.162.1.305.1zm2.278-.864l-.23.263V39h-.431v-3.75h.432v2.244l.823-1.136h.517l-.84 1.104.95 1.538h-.503l-.718-1.209zm2.537 1.257c-.329 0-.581-.098-.757-.293-.176-.197-.265-.485-.269-.864v-.32c0-.394.086-.703.257-.925.172-.225.412-.337.72-.337.31 0 .54.098.693.295.153.197.231.504.235.92v.284H39.39v.06c0 .284.053.49.159.618.107.129.261.193.461.193a.75.75 0 00.335-.07.845.845 0 00.273-.23l.225.273c-.187.264-.473.396-.857.396zm-.049-2.368c-.179 0-.312.062-.398.185-.086.122-.135.313-.146.572h1.04v-.06c-.012-.25-.057-.429-.137-.536-.078-.108-.198-.161-.359-.161zm3.162-.962v.64h.398v.349H43.1v1.638c0 .104.017.183.05.237.035.053.094.08.177.08.057 0 .114-.01.173-.03l-.005.367a.942.942 0 01-.3.049.454.454 0 01-.39-.183c-.09-.122-.135-.295-.135-.518v-1.64h-.403v-.35h.403v-.64h.43zm1.345.91a.762.762 0 01.63-.32c.467 0 .704.312.71.936V39h-.43v-1.736c0-.207-.034-.353-.104-.44-.069-.087-.172-.131-.31-.131a.443.443 0 00-.291.107.781.781 0 00-.205.281V39h-.432v-3.75h.432v1.38zm2.93 2.42c-.33 0-.581-.098-.757-.293-.176-.197-.266-.485-.269-.864v-.32c0-.394.086-.703.257-.925.172-.225.412-.337.72-.337.309 0 .54.098.693.295.153.197.231.504.234.92v.284H46.78v.06c0 .284.053.49.158.618.108.129.262.193.462.193a.75.75 0 00.334-.07.845.845 0 00.274-.23l.224.273c-.187.264-.472.396-.857.396zm-.05-2.368c-.178 0-.311.062-.397.185-.086.122-.135.313-.147.572h1.04v-.06c-.011-.25-.057-.429-.136-.536-.079-.108-.198-.161-.36-.161zm3.028-.052a.762.762 0 01.63-.32c.467 0 .704.312.71.936V39h-.43v-1.736c0-.207-.034-.353-.104-.44-.069-.087-.172-.131-.31-.131a.443.443 0 00-.29.107.781.781 0 00-.206.281V39h-.432v-3.75h.432v1.38zM52.804 39h-.432v-2.642h.432V39zm.034-3.342c0 .073-.02.134-.06.183-.041.049-.103.073-.186.073-.082 0-.143-.024-.183-.073a.276.276 0 01-.061-.183c0-.074.02-.135.06-.186.041-.05.102-.075.184-.075.081 0 .142.026.183.078.042.05.063.111.063.183zm.562 1.902c0-.412.075-.723.224-.933.15-.212.37-.317.657-.317.269 0 .473.114.613.344l.022-.296h.39v2.666c0 .328-.083.578-.25.752-.168.176-.402.264-.701.264a1.2 1.2 0 01-.44-.098.91.91 0 01-.364-.236l.176-.298c.18.175.377.263.593.263.36 0 .545-.196.554-.588v-.344a.678.678 0 01-.595.31.753.753 0 01-.64-.308c-.153-.206-.233-.503-.24-.889v-.292zm.432.246c0 .296.043.515.13.654.087.139.23.208.43.208.214 0 .375-.11.482-.33v-1.32c-.112-.217-.271-.325-.478-.325-.199 0-.342.07-.43.21-.088.138-.132.351-.134.64v.263zm2.551-1.177a.762.762 0 01.63-.32c.467 0 .704.312.71.936V39h-.43v-1.736c0-.207-.034-.353-.104-.44-.068-.087-.172-.131-.31-.131a.443.443 0 00-.29.107.78.78 0 00-.206.281V39h-.432v-3.75h.432v1.38zm4.224.135a1.05 1.05 0 00-.195-.017c-.222 0-.376.12-.464.363V39h-.432v-2.642h.42l.007.269c.115-.212.279-.317.49-.317a.38.38 0 01.172.034l.002.42zM61.505 39h-.432v-2.642h.432V39zm.035-3.342c0 .073-.02.134-.062.183-.04.049-.102.073-.185.073-.081 0-.142-.024-.183-.073a.276.276 0 01-.061-.183c0-.074.02-.135.06-.186.042-.05.103-.075.184-.075s.142.026.183.078c.042.05.064.111.064.183zm1.93 2.666a.32.32 0 00-.104-.24c-.07-.066-.205-.144-.406-.234a2.693 2.693 0 01-.493-.247.71.71 0 01-.212-.231.652.652 0 01-.07-.313.69.69 0 01.233-.535.863.863 0 01.604-.214c.257 0 .463.074.62.224.156.15.234.342.234.576h-.43a.421.421 0 00-.424-.43.429.429 0 00-.3.1.339.339 0 00-.108.264c0 .088.026.16.078.213.054.053.181.124.383.212.32.126.539.248.654.369.116.119.174.27.174.454 0 .23-.08.413-.237.552-.158.136-.37.205-.635.205-.275 0-.498-.08-.669-.237a.782.782 0 01-.256-.6h.434c.005.146.05.26.135.344a.487.487 0 00.356.124c.144 0 .252-.032.327-.095a.329.329 0 00.113-.261zm1.66-.532l-.229.263V39h-.432v-3.75h.432v2.244l.823-1.136h.518l-.84 1.104.95 1.538h-.503l-.718-1.209zm2.65-.235c0-.384.093-.688.278-.91a.916.916 0 01.74-.337.92.92 0 01.737.327c.187.218.283.515.288.89v.28c0 .382-.092.684-.278.907a.917.917 0 01-.742.335.923.923 0 01-.738-.325c-.183-.216-.279-.51-.285-.879v-.288zm.432.25c0 .271.053.485.159.641a.501.501 0 00.432.232c.38 0 .577-.275.588-.825v-.298c0-.27-.054-.483-.161-.64a.498.498 0 00-.432-.236.494.494 0 00-.427.236c-.106.157-.16.37-.16.638v.251zM70.57 39v-2.292h-.344v-.35h.344v-.305c.005-.268.073-.477.203-.627.132-.152.317-.227.557-.227.086 0 .173.014.26.041l-.021.366a.858.858 0 00-.198-.022c-.246 0-.369.175-.369.525v.25h.452v.349h-.452V39h-.432zM6.79 45h-.433v-3.75h.433V45zm.59-1.443c0-.384.093-.688.279-.91a.916.916 0 01.74-.337.92.92 0 01.737.327c.187.218.283.515.288.89v.28c0 .382-.093.684-.278.907a.917.917 0 01-.743.335.923.923 0 01-.737-.325c-.184-.216-.28-.51-.286-.879v-.288zm.433.25c0 .271.052.485.158.641a.501.501 0 00.432.232c.381 0 .577-.275.589-.825v-.298c0-.27-.054-.483-.161-.64a.498.498 0 00-.433-.236.494.494 0 00-.427.236c-.106.157-.158.37-.158.638v.251zm3.452.517a.32.32 0 00-.105-.24c-.07-.066-.205-.144-.406-.234a2.693 2.693 0 01-.493-.247.71.71 0 01-.212-.231.652.652 0 01-.07-.313c0-.215.077-.393.233-.535a.863.863 0 01.604-.214c.257 0 .463.074.62.224.156.15.234.342.234.576h-.43a.42.42 0 00-.425-.43.429.429 0 00-.3.1.338.338 0 00-.107.264c0 .088.026.16.078.213.054.053.181.124.383.212.32.126.539.248.655.369.115.119.173.27.173.454 0 .23-.08.413-.237.552-.158.136-.37.205-.635.205-.275 0-.498-.08-.669-.237a.782.782 0 01-.256-.6h.435c.004.146.05.26.134.344a.487.487 0 00.356.124c.143 0 .252-.032.327-.095a.33.33 0 00.113-.261zm1.462.676h-.432v-2.642h.432V45zm.034-3.342c0 .073-.02.134-.06.183-.041.049-.103.073-.186.073-.082 0-.143-.024-.183-.073a.276.276 0 01-.061-.183c0-.074.02-.135.06-.186.041-.05.102-.075.184-.075.081 0 .142.026.183.078.042.05.063.111.063.183zm1.055.7l.012.286a.771.771 0 01.642-.334c.467 0 .704.311.71.935V45h-.429v-1.736c0-.207-.035-.353-.105-.44-.068-.087-.172-.131-.31-.131a.443.443 0 00-.29.107.78.78 0 00-.206.281V45h-.432v-2.642h.408zm1.929 1.202c0-.412.075-.723.224-.933.15-.212.369-.317.657-.317.269 0 .473.114.613.344l.022-.296h.39v2.666c0 .328-.083.578-.251.752-.168.176-.401.264-.7.264-.131 0-.277-.032-.44-.098a.912.912 0 01-.364-.236l.176-.298c.179.175.377.263.593.263.36 0 .544-.196.554-.588v-.344a.678.678 0 01-.595.31.753.753 0 01-.64-.308c-.153-.206-.233-.503-.24-.889v-.292zm.432.246c0 .296.043.515.13.654.087.139.23.208.429.208.215 0 .376-.11.483-.33v-1.32c-.112-.217-.271-.325-.478-.325-.199 0-.342.07-.43.21-.088.138-.133.351-.134.64v.263zm3.989.476l.481-1.924h.459l-.864 3.016c-.065.226-.157.398-.276.515a.558.558 0 01-.405.178.852.852 0 01-.225-.04v-.365l.095.01c.125 0 .223-.03.293-.09.072-.06.13-.162.174-.309l.085-.295-.776-2.62h.47l.489 1.924zm1.272-.725c0-.384.093-.688.278-.91a.916.916 0 01.74-.337.92.92 0 01.737.327c.188.218.284.515.288.89v.28c0 .382-.092.684-.278.907a.917.917 0 01-.742.335.923.923 0 01-.737-.325c-.184-.216-.28-.51-.286-.879v-.288zm.432.25c0 .271.053.485.159.641a.501.501 0 00.432.232c.38 0 .577-.275.588-.825v-.298c0-.27-.053-.483-.16-.64a.498.498 0 00-.433-.236.495.495 0 00-.427.236c-.106.157-.159.37-.159.638v.251zm3.516.961c-.144.187-.353.28-.628.28-.239 0-.42-.081-.542-.246-.122-.166-.184-.407-.185-.722v-1.722h.43v1.69c0 .412.123.617.37.617.263 0 .443-.117.543-.351v-1.956h.432V45h-.41l-.01-.232zm2.16-2.004a1.05 1.05 0 00-.195-.017c-.221 0-.376.12-.464.363V45h-.432v-2.642h.42l.007.269c.116-.212.28-.317.491-.317a.38.38 0 01.171.034l.002.42zm1.988-.406l.01.245a.785.785 0 01.637-.293c.294 0 .5.127.617.383a.783.783 0 01.694-.383c.486 0 .735.303.747.91V45h-.43v-1.738c0-.192-.034-.335-.102-.428-.069-.094-.184-.141-.347-.141-.13 0-.236.05-.318.151a.69.69 0 00-.141.386V45h-.435v-1.758c-.005-.366-.154-.55-.446-.55-.218 0-.372.11-.462.328V45h-.43v-2.642h.406zm3.266 1.2c0-.385.093-.688.279-.911a.916.916 0 01.74-.337.92.92 0 01.737.327c.187.218.283.515.288.89v.28c0 .382-.093.684-.279.907a.917.917 0 01-.742.335.923.923 0 01-.737-.325c-.184-.216-.28-.51-.286-.879v-.288zm.432.248c0 .272.053.486.16.642a.501.501 0 00.431.232c.381 0 .577-.275.589-.825v-.298c0-.27-.054-.483-.162-.64a.498.498 0 00-.432-.236.495.495 0 00-.427.236c-.106.157-.159.37-.159.638v.251zm2.576-1.448l.012.286a.771.771 0 01.642-.334c.468 0 .704.311.71.935V45h-.429v-1.736c0-.207-.035-.353-.105-.44-.068-.087-.172-.131-.31-.131a.443.443 0 00-.29.107.781.781 0 00-.206.281V45H35.4v-2.642h.408zm2.96 2.69c-.33 0-.582-.097-.758-.292-.175-.197-.265-.485-.268-.864v-.32c0-.394.085-.703.256-.925.173-.225.413-.337.72-.337.31 0 .54.098.694.295.153.197.23.504.234.92v.284H38.17v.06c0 .284.053.49.16.618.107.129.26.193.46.193a.75.75 0 00.335-.07.845.845 0 00.273-.23l.225.273c-.187.264-.473.396-.857.396zm-.05-2.367c-.179 0-.311.062-.398.185-.086.122-.135.313-.146.572h1.04v-.06c-.011-.25-.057-.429-.137-.536-.078-.108-.198-.161-.359-.161zm2.17 1.601l.482-1.924h.459l-.865 3.016c-.065.226-.157.398-.276.515a.559.559 0 01-.405.178.852.852 0 01-.224-.04v-.365l.095.01c.125 0 .223-.03.293-.09.071-.06.13-.162.173-.309l.086-.295-.777-2.62h.471l.489 1.924zm1.392.481c0-.078.023-.143.069-.195.047-.052.117-.078.21-.078.092 0 .162.026.21.078a.275.275 0 01.073.195.26.26 0 01-.073.188c-.048.05-.118.076-.21.076-.093 0-.163-.025-.21-.076a.27.27 0 01-.069-.188z" fill="#000"/></svg>