<svg width="48" height="17" viewBox="0 0 48 17" fill="none" xmlns="http://www.w3.org/2000/svg"><rect width="48" height="17" rx="8.5" fill="#14964F"/><path d="M5.748 6.786H7.05V11h.798V6.786h1.295v-.651H5.748v.651zm5 2.184c0-.819.365-1.064.953-1.064h.203V7.08c-.546 0-.931.238-1.155.623v-.56H9.95V11h.798V8.97zm1.623.084c0 1.19.805 2.009 1.806 2.009.644 0 1.106-.308 1.351-.637V11h.805V7.143h-.805v.56c-.238-.315-.686-.623-1.337-.623-1.015 0-1.82.784-1.82 1.974zm3.157.014c0 .833-.567 1.302-1.169 1.302-.595 0-1.169-.483-1.169-1.316 0-.833.574-1.281 1.17-1.281.601 0 1.168.469 1.168 1.295zm1.587-.014c0 1.19.805 2.009 1.82 2.009.63 0 1.092-.294 1.337-.644V11h.805V5.82h-.805v1.862c-.294-.364-.826-.602-1.33-.602-1.022 0-1.827.784-1.827 1.974zm3.157.014c0 .833-.567 1.302-1.169 1.302-.595 0-1.169-.483-1.169-1.316 0-.833.574-1.281 1.17-1.281.601 0 1.168.469 1.168 1.295zm3.478-1.316c.595 0 1.064.378 1.078.973h-2.135c.084-.609.518-.973 1.057-.973zm1.806 2.1h-.861c-.147.301-.42.539-.91.539-.588 0-1.043-.385-1.1-1.022h2.948c.02-.133.028-.259.028-.392 0-1.134-.777-1.897-1.876-1.897-1.141 0-1.925.777-1.925 1.988 0 1.211.819 1.995 1.925 1.995.945 0 1.554-.539 1.77-1.211zM31 11h.791V8.725c0-1.078-.679-1.645-1.582-1.645-.462 0-.889.189-1.148.504v-.441h-.798V11h.798V8.844c0-.707.385-1.071.973-1.071.581 0 .966.364.966 1.071V11zm5.484-1.932c0-1.211-.868-1.988-1.967-1.988-1.099 0-1.967.777-1.967 1.988 0 1.211.833 1.995 1.932 1.995 1.106 0 2.002-.784 2.002-1.995zm-3.122 0c0-.875.54-1.295 1.141-1.295.595 0 1.162.42 1.162 1.295s-.588 1.302-1.183 1.302c-.602 0-1.12-.427-1.12-1.302zM38.023 11h.84l.777-2.849.777 2.849h.84l1.197-3.857h-.784l-.798 3.087-.784-3.087h-.833l-.819 3.101-.805-3.101h-.812L38.023 11z" fill="#fff"/></svg>