<svg width="225" height="42" viewBox="0 0 225 42" fill="none" xmlns="http://www.w3.org/2000/svg"><path d="M.588.081v41.755h11.23V29.113H18.51l8.124 12.723h12.962L30.217 27.62c5.794-1.971 8.243-6.212 8.243-13.022C38.46 4.382 33.024.081 19.405.081H.588zm11.23 10.096h8.124c4.958 0 6.81 1.553 6.81 5.137 0 3.644-1.852 5.137-6.81 5.137H11.82V10.177zm44.685 31.66V.08h-11.23v41.755h11.23zM65.048.08v41.755h11.23V29.95h7.169c12.424 0 18.338-4.6 18.338-14.814C101.785 4.92 96.17.08 83.327.08H65.048zm11.23 9.678h6.631c5.018 0 7.168 1.851 7.168 5.794 0 4.002-2.21 5.734-7.168 5.734h-6.63V9.76zM108.8.08v41.755h11.23V29.95h7.169c12.424 0 18.338-4.6 18.338-14.814C145.536 4.92 139.921.08 127.078.08h-18.279zm11.23 9.678h6.631c5.018 0 7.168 1.851 7.168 5.794 0 4.002-2.21 5.734-7.168 5.734h-6.631V9.76zm43.752 21.982V.02H152.55v41.815h31.72V31.741h-20.489zm60.39-21.624V.022h-34.228v41.814h34.586V31.741h-23.356v-6.272h21.385V15.91h-21.385v-5.794h22.998z" fill="#09B45B"/></svg>