<svg width="256" height="44" viewBox="0 0 256 44" fill="none" xmlns="http://www.w3.org/2000/svg"><path d="M.255 1.081v41.755H23.79c10.872 0 14.337-5.675 14.337-11.41 0-4.36-1.972-8.72-7.826-10.513 3.943-1.612 6.153-4.719 6.153-9.258 0-6.99-5.078-10.633-13.68-10.633l-22.52.06zm11.23 16.846V10.22h8.004c3.345 0 5.197 1.314 5.197 3.883 0 2.509-1.911 3.823-5.197 3.823h-8.004zm0 15.77v-8.304h9.498c4.121 0 5.436 2.091 5.436 4.182 0 2.09-1.315 4.122-5.436 4.122h-9.498zm44.334 9.14V1.08H44.59v41.755h11.23zM97.1 10.638V1.022H61.557v9.617h12.126v32.197h11.29V10.64h12.126zM121.323.484c-12.186 0-22.042 9.617-22.042 21.505 0 11.827 9.856 21.445 22.042 21.445 7.466 0 14.037-3.585 17.98-9.14l-9.737-5.496c-1.852 2.51-4.719 4.122-8.184 4.122-6.093 0-10.334-4.898-10.334-10.931 0-6.093 4.241-10.992 10.334-10.992 3.465 0 6.332 1.613 8.184 4.122l9.737-5.495c-3.943-5.556-10.514-9.14-17.98-9.14zm44.926 0c-12.365 0-22.401 9.617-22.401 21.505 0 11.827 10.036 21.445 22.401 21.445s22.4-9.618 22.4-21.445c0-11.888-10.035-21.505-22.4-21.505zm0 10.514c6.272 0 10.692 4.898 10.692 10.99 0 6.034-4.42 10.932-10.692 10.932s-10.633-4.898-10.633-10.931c0-6.093 4.361-10.992 10.633-10.992zm41.066 31.838V1.081h-11.231v41.755h11.231zm47.731 0V1.022h-11.051v23.356L227.15 1.022h-11.649v41.814h11.051V19.54l16.846 23.296h11.648z" fill="#09B45B"/></svg>