<svg width="253" height="43" viewBox="0 0 253 43" fill="none" xmlns="http://www.w3.org/2000/svg"><path d="M22.155.005C10.119.005.384 9.505.384 21.245c0 11.682 9.735 21.181 21.77 21.181 7.376 0 13.866-3.54 17.76-9.027l-9.617-5.428c-1.83 2.478-4.661 4.071-8.083 4.071-6.018 0-10.207-4.838-10.207-10.797 0-6.018 4.189-10.856 10.207-10.856 3.422 0 6.254 1.593 8.083 4.071l9.617-5.428C36.02 3.545 29.53.005 22.154.005zm23.118.59v41.241h11.092V29.27H62.974l8.025 12.567H83.8l-9.263-14.042c5.723-1.947 8.142-6.136 8.142-12.862C82.68 4.843 77.312.595 63.86.595H45.273zm11.092 9.971h8.024c4.898 0 6.727 1.534 6.727 5.074 0 3.6-1.83 5.074-6.727 5.074h-8.023V10.566zm55.151 17.11L127.977.536H114.82l-8.791 15.4-8.732-15.4H84.022l16.402 27.258v14.042h11.092v-14.16zM132.58.596v41.24h11.092v-11.74h7.08c12.272 0 18.113-4.544 18.113-14.633 0-10.089-5.546-14.868-18.231-14.868H132.58zm11.092 9.557h6.549c4.956 0 7.08 1.83 7.08 5.723 0 3.953-2.183 5.664-7.08 5.664h-6.549V10.153zm63.453-.118V.536H172.02v9.5h11.977v31.8h11.151v-31.8h11.977zM230.404.005c-12.213 0-22.125 9.5-22.125 21.24 0 11.682 9.912 21.181 22.125 21.181s22.125-9.499 22.125-21.18c0-11.742-9.912-21.24-22.125-21.24zm0 10.384c6.195 0 10.561 4.838 10.561 10.856 0 5.96-4.366 10.797-10.561 10.797s-10.502-4.838-10.502-10.797c0-6.018 4.307-10.856 10.502-10.856z" fill="#09B45B"/></svg>