<svg width="208" height="42" viewBox="0 0 208 42" fill="none" xmlns="http://www.w3.org/2000/svg"><path d="M34.45 10.117V.022H.222v41.814h34.586V31.741H11.452v-6.272h21.385V15.91H11.452v-5.794H34.45zm39.458-.478V.022H38.365v9.617h12.127v32.197h11.29V9.64h12.126zm45.194 32.197V.022h-11.29v15.77H90.787V.022h-11.23v41.814h11.23v-15.95h17.025v15.95h11.29zm42.751-31.72V.023h-34.228v41.814h34.586V31.741h-23.356v-6.272h21.385V15.91h-21.385v-5.794h22.998zM168.576.082v41.755h11.23V29.113h6.69l8.124 12.723h12.963l-9.379-14.217c5.795-1.971 8.244-6.212 8.244-13.022 0-10.215-5.436-14.516-19.056-14.516h-18.816zm11.23 10.096h8.124c4.958 0 6.81 1.553 6.81 5.137 0 3.644-1.852 5.137-6.81 5.137h-8.124V10.177z" fill="#09B45B"/></svg>