<svg width="160" height="73" viewBox="0 0 160 73" fill="none" xmlns="http://www.w3.org/2000/svg"><path fill="#fff" d="M0 0h160v73H0z"/><path d="M15.166 7.602v.703L13.145 14h-1.301l2.03-5.375h-2.575V7.602h3.867zm3.533-.014V14h-1.23V9.1l-1.222.47V8.542l2.32-.954h.132zm1.965 5.784c0-.194.064-.355.193-.484.129-.132.303-.198.523-.198.22 0 .394.066.523.198.129.13.193.29.193.484a.656.656 0 01-.193.483c-.13.129-.303.193-.523.193-.22 0-.394-.064-.523-.193a.656.656 0 01-.193-.483zm5.277-5.84h.163v1.045h-.057c-.278 0-.522.048-.73.145a1.33 1.33 0 00-.514.413 1.856 1.856 0 00-.303.65 3.284 3.284 0 00-.101.849v1.076c0 .223.015.42.044.59.032.17.077.311.136.426a.731.731 0 00.211.25.468.468 0 00.54-.004.745.745 0 00.212-.242c.058-.106.102-.229.131-.37a2.06 2.06 0 00.049-.46c0-.17-.016-.326-.049-.466a1.333 1.333 0 00-.136-.365.671.671 0 00-.215-.242.466.466 0 00-.277-.088.566.566 0 00-.382.136.837.837 0 00-.242.343 1.283 1.283 0 00-.092.435l-.37-.263c.012-.223.053-.433.123-.629.074-.199.173-.378.3-.536a1.34 1.34 0 01.452-.369c.176-.09.373-.136.593-.136.255 0 .478.057.668.171.19.114.349.271.475.47.129.2.224.431.285.695.065.26.097.539.097.835 0 .31-.044.599-.132.865a2.19 2.19 0 01-.373.7 1.69 1.69 0 01-.59.465 1.743 1.743 0 01-.773.167c-.293 0-.558-.062-.795-.185a1.806 1.806 0 01-.606-.523 2.52 2.52 0 01-.383-.808 3.769 3.769 0 01-.131-1.028v-.497c0-.516.06-.987.18-1.415.12-.43.297-.803.531-1.116.238-.314.528-.556.87-.725.346-.173.743-.26 1.191-.26zm1.767 1.638v-.338c0-.243.044-.464.132-.664.09-.199.224-.358.4-.479.179-.12.4-.18.663-.18.267 0 .49.06.668.18.179.12.31.28.396.48.088.199.132.42.132.663v.338c0 .238-.044.456-.132.655a1.1 1.1 0 01-.4.48c-.176.12-.396.18-.66.18-.263 0-.484-.06-.663-.18a1.13 1.13 0 01-.404-.48 1.606 1.606 0 01-.132-.655zm.804-.338v.338c0 .1.015.195.044.286.03.088.073.16.132.215.059.053.132.08.22.08a.3.3 0 00.215-.08.502.502 0 00.123-.215.924.924 0 00.044-.286v-.338a.913.913 0 00-.044-.29.452.452 0 00-.127-.215.307.307 0 00-.22-.084.306.306 0 00-.22.084.502.502 0 00-.127.215c-.027.088-.04.185-.04.29zm1.723 3.942v-.343c0-.24.045-.46.136-.659.09-.2.224-.359.4-.479.179-.12.398-.18.66-.18.269 0 .491.06.667.18.176.12.308.28.396.479.09.2.136.419.136.66v.342c0 .24-.044.46-.132.66a1.104 1.104 0 01-.4.474c-.176.12-.395.18-.659.18s-.486-.06-.668-.18a1.13 1.13 0 01-.404-.48 1.604 1.604 0 01-.132-.654zm.804-.343v.339c0 .102.018.199.053.29.035.088.082.16.14.215a.31.31 0 00.207.079c.105 0 .186-.026.242-.08a.41.41 0 00.11-.214c.02-.091.03-.188.03-.29v-.335a.913.913 0 00-.044-.29.45.45 0 00-.127-.215.291.291 0 00-.215-.083.312.312 0 00-.225.083.481.481 0 00-.131.216.989.989 0 00-.04.285zm.716-3.911l-2.623 5.001-.589-.334 2.623-5.001.59.334zm3.661 3.265v-.32c0-.373.044-.702.132-.99.09-.287.22-.527.387-.72.167-.196.367-.344.602-.444.237-.102.502-.154.795-.154.296 0 .561.052.795.154.238.1.44.248.607.444.17.193.3.433.391.72.09.288.136.617.136.99v.32c0 .37-.045.697-.136.985-.09.287-.221.528-.391.725a1.605 1.605 0 01-.602.444c-.234.1-.498.149-.791.149-.293 0-.558-.05-.796-.15a1.643 1.643 0 01-.606-.443c-.17-.197-.3-.438-.391-.725a3.363 3.363 0 01-.132-.985zm1.23-.32v.32c0 .22.015.41.044.571.033.162.078.295.137.4a.626.626 0 00.22.233c.084.05.183.075.294.075a.595.595 0 00.299-.075.557.557 0 00.215-.233c.059-.105.101-.238.127-.4.03-.16.044-.351.044-.57v-.322c0-.213-.016-.401-.048-.562a1.325 1.325 0 00-.136-.4.618.618 0 00-.22-.237.518.518 0 00-.29-.084.518.518 0 00-.29.084.684.684 0 00-.215.237 1.327 1.327 0 00-.137.4c-.029.161-.043.349-.043.562zM41.565 14h-1.235V8.832c0-.366.063-.672.19-.918.125-.247.302-.434.53-.563.232-.129.506-.193.823-.193.102 0 .199.008.29.026.093.015.184.035.272.062l-.013.98a.75.75 0 00-.136-.027 1.514 1.514 0 00-.167-.009.589.589 0 00-.303.075.485.485 0 00-.19.215.88.88 0 00-.061.352V14zm.743-4.755v.927h-2.558v-.927h2.558zm3.99 1.06V14h-1.23V9.245h1.16l.07 1.06zm1.12-1.095l-.017 1.226a2.651 2.651 0 00-.404-.035.847.847 0 00-.352.066.587.587 0 00-.242.189.877.877 0 00-.14.307 1.94 1.94 0 00-.057.418l-.233-.088c0-.31.023-.595.07-.853.05-.26.123-.486.22-.676.096-.194.212-.343.347-.449a.747.747 0 01.466-.158c.058 0 .12.006.184.018.068.009.12.02.158.035zm2.457 4.878c-.325 0-.614-.05-.866-.15-.249-.1-.46-.243-.633-.43a1.926 1.926 0 01-.395-.69 2.886 2.886 0 01-.136-.923v-.391c0-.387.044-.725.132-1.015.087-.293.212-.54.373-.739.161-.199.359-.347.593-.443.238-.1.506-.15.805-.15.298 0 .56.05.786.15.229.096.418.243.567.44.15.192.262.433.338.72.077.287.115.62.115 1.002v.562h-3.186v-.866h1.977v-.11c0-.193-.02-.354-.061-.483a.556.556 0 00-.194-.294.582.582 0 00-.351-.097.607.607 0 00-.312.075.513.513 0 00-.202.233 1.44 1.44 0 00-.11.413 4.4 4.4 0 00-.035.602v.391c0 .22.019.404.057.554a.98.98 0 00.167.36c.076.09.168.157.277.198.108.038.234.057.378.057a1.346 1.346 0 001.033-.435l.491.747a1.766 1.766 0 01-.351.334 1.92 1.92 0 01-.536.272 2.25 2.25 0 01-.721.106zm4.465-4.843v.927h-2.426v-.927h2.426zM52.47 8.072h1.226v4.478c0 .132.013.233.04.303a.27.27 0 00.118.15c.056.026.13.039.22.039a.837.837 0 00.29-.035v.962c-.096.038-.199.068-.307.088-.106.02-.232.03-.378.03-.246 0-.46-.046-.642-.14a.96.96 0 01-.417-.448c-.1-.208-.15-.48-.15-.817v-4.61zm4.65 4.834v-2.197a.916.916 0 00-.053-.343.341.341 0 00-.15-.185.433.433 0 00-.237-.061.49.49 0 00-.264.066.404.404 0 00-.158.188.805.805 0 00-.048.295h-1.235c0-.205.04-.399.119-.58.079-.185.195-.346.347-.484.155-.14.34-.25.554-.33.213-.078.454-.118.72-.118.317 0 .598.054.844.163.246.105.441.274.584.505.144.232.216.532.216.901v2.118c0 .267.013.484.04.65.029.168.071.311.127.431V14h-1.24a2.06 2.06 0 01-.127-.492c-.026-.2-.04-.4-.04-.602zm.149-1.81l.004.738h-.452a.768.768 0 00-.308.057.591.591 0 00-.215.162.671.671 0 00-.132.237c-.026.091-.04.188-.04.29 0 .115.017.211.049.29.032.08.08.14.145.18.064.042.14.062.228.062a.709.709 0 00.352-.083.57.57 0 00.22-.202c.05-.08.066-.153.048-.22l.281.479a2.183 2.183 0 01-.145.338 1.431 1.431 0 01-.224.325c-.09.1-.204.182-.338.247a1.104 1.104 0 01-.47.092c-.255 0-.488-.059-.7-.176a1.303 1.303 0 01-.5-.492c-.12-.211-.18-.461-.18-.752 0-.24.038-.457.114-.65a1.28 1.28 0 01.351-.497c.156-.137.352-.243.59-.316a2.84 2.84 0 01.834-.11h.488zm3.291-1.85V14h-1.234V9.245h1.235zM59.27 8.014c0-.19.06-.348.18-.47a.657.657 0 01.492-.19c.208 0 .372.063.492.19.12.122.18.28.18.47a.646.646 0 01-.184.47.645.645 0 01-.484.184.671.671 0 01-.496-.184.655.655 0 01-.18-.47zm3.56-.765V14h-1.236V7.25h1.235zm4.34 1.995V14h-1.234V9.245h1.235zm-1.291-1.23c0-.19.06-.348.18-.47a.657.657 0 01.492-.19c.208 0 .372.063.492.19.12.122.18.28.18.47a.646.646 0 01-.184.47.645.645 0 01-.483.184.671.671 0 01-.497-.184.655.655 0 01-.18-.47zm3.476 2.245V14H68.12V9.245h1.156l.079 1.015zm-.185 1.2l-.33.009a3.628 3.628 0 01.102-.963c.076-.284.183-.526.32-.725.141-.202.308-.356.502-.461.196-.109.414-.163.654-.163.185 0 .353.032.506.097a.99.99 0 01.4.308c.111.14.198.328.259.562.061.231.092.516.092.853V14H70.44v-3.032c0-.205-.02-.364-.061-.475a.41.41 0 00-.185-.237.612.612 0 00-.307-.07.51.51 0 00-.312.1.767.767 0 00-.229.269 1.593 1.593 0 00-.136.404c-.03.155-.042.322-.04.501zm4.808 1.59l.765-3.805h1.283L74.72 14h-.77l.027-.95zm-.453-3.805l.778 3.81.013.945h-.773l-1.305-4.755h1.287zm4.949 4.843c-.326 0-.614-.05-.866-.15-.25-.1-.46-.243-.633-.43a1.926 1.926 0 01-.395-.69 2.886 2.886 0 01-.137-.923v-.391c0-.387.044-.725.132-1.015.088-.293.213-.54.374-.739.16-.199.359-.347.593-.443.237-.1.505-.15.804-.15.299 0 .561.05.787.15.228.096.417.243.567.44.15.192.262.433.338.72.076.287.114.62.114 1.002v.562h-3.186v-.866h1.978v-.11c0-.193-.02-.354-.062-.483a.555.555 0 00-.193-.294.582.582 0 00-.352-.097.608.608 0 00-.312.075.513.513 0 00-.202.233 1.44 1.44 0 00-.11.413 4.4 4.4 0 00-.035.602v.391c0 .22.02.404.057.554a.979.979 0 00.167.36c.076.09.169.157.277.198.109.038.235.057.378.057a1.346 1.346 0 001.033-.435l.492.747a1.766 1.766 0 01-.351.334 1.92 1.92 0 01-.537.272 2.25 2.25 0 01-.72.106zm4.5-1.371a.327.327 0 00-.084-.22.987.987 0 00-.264-.198c-.12-.07-.28-.148-.479-.233a5.069 5.069 0 01-.575-.272 2.026 2.026 0 01-.427-.312 1.154 1.154 0 01-.259-.391 1.34 1.34 0 01-.088-.501c0-.202.037-.388.11-.558.076-.173.185-.324.325-.453.141-.132.312-.234.515-.308a1.97 1.97 0 01.69-.114c.357 0 .663.063.918.19.258.122.456.295.593.518.138.222.207.482.207.778h-1.23c0-.106-.017-.2-.049-.282a.394.394 0 00-.158-.197.509.509 0 00-.286-.07.454.454 0 00-.4.21.409.409 0 00-.057.22c0 .064.013.122.04.171.029.05.074.098.136.145.061.047.143.097.246.15a7.4 7.4 0 00.387.167c.316.117.575.243.778.378.205.134.357.293.456.474.1.179.15.4.15.664 0 .21-.041.403-.123.575-.08.173-.195.323-.347.449a1.61 1.61 0 01-.55.29c-.21.067-.446.1-.707.1-.384 0-.708-.075-.971-.228a1.572 1.572 0 01-.598-.584 1.508 1.508 0 01-.202-.747h1.169a.808.808 0 00.088.373c.055.088.13.15.224.185a.881.881 0 00.312.053.765.765 0 00.281-.044.35.35 0 00.171-.145.465.465 0 00.058-.233zm4.051-3.472v.927H84.6v-.927h2.425zm-1.867-1.173h1.226v4.478c0 .132.013.233.04.303.026.07.065.12.118.15.056.026.129.039.22.039a.843.843 0 00.29-.035v.962c-.097.038-.2.068-.308.088-.105.02-.231.03-.378.03-.246 0-.46-.046-.641-.14a.96.96 0 01-.418-.448c-.1-.208-.15-.48-.15-.817v-4.61zm2.28 3.713v-.32c0-.373.044-.702.132-.99.091-.287.22-.527.387-.72.167-.196.368-.344.602-.444.237-.102.502-.154.796-.154.295 0 .56.052.795.154.237.1.44.248.606.444.17.193.3.433.391.72.091.288.137.617.137.99v.32c0 .37-.046.697-.137.985-.09.287-.22.528-.39.725a1.604 1.604 0 01-.603.444c-.234.1-.498.149-.79.149-.294 0-.559-.05-.796-.15a1.643 1.643 0 01-.607-.443c-.17-.197-.3-.438-.39-.725a3.364 3.364 0 01-.132-.985zm1.23-.32v.32c0 .22.016.41.045.571.032.162.078.295.136.4a.627.627 0 00.22.233c.085.05.183.075.294.075.112 0 .211-.025.3-.075a.556.556 0 00.214-.233c.059-.105.102-.238.128-.4.03-.16.044-.351.044-.57v-.322c0-.213-.016-.401-.049-.562a1.325 1.325 0 00-.136-.4.619.619 0 00-.22-.237.518.518 0 00-.29-.084.518.518 0 00-.29.084.683.683 0 00-.215.237 1.325 1.325 0 00-.136.4c-.03.161-.044.349-.044.562zm4.624-1.16V14h-1.23V9.245h1.16l.07 1.06zm1.12-1.095l-.017 1.226a2.651 2.651 0 00-.404-.035.846.846 0 00-.352.066.585.585 0 00-.242.189.877.877 0 00-.14.307 1.946 1.946 0 00-.057.418l-.233-.088c0-.31.023-.595.07-.853.05-.26.123-.486.22-.676.096-.194.212-.343.347-.449a.747.747 0 01.466-.158c.058 0 .12.006.184.018.068.009.12.02.159.035zm4.8 3.696v-2.197a.916.916 0 00-.053-.343.34.34 0 00-.15-.185.433.433 0 00-.237-.061.49.49 0 00-.264.066.404.404 0 00-.158.188.806.806 0 00-.048.295h-1.235c0-.205.04-.399.119-.58.079-.185.194-.346.347-.484.155-.14.34-.25.553-.33.214-.078.454-.118.721-.118.317 0 .598.054.844.163.246.105.441.274.584.505.144.232.216.532.216.901v2.118c0 .267.013.484.039.65.03.168.072.311.128.431V14h-1.24a2.064 2.064 0 01-.127-.492c-.026-.2-.04-.4-.04-.602zm.149-1.81l.004.738h-.452a.768.768 0 00-.308.057.591.591 0 00-.215.162.673.673 0 00-.132.237c-.027.091-.04.188-.04.29 0 .115.016.211.049.29a.373.373 0 00.373.242.709.709 0 00.352-.083.569.569 0 00.22-.202c.05-.08.065-.153.048-.22l.281.479a2.173 2.173 0 01-.145.338 1.431 1.431 0 01-.224.325c-.09.1-.204.182-.338.247a1.104 1.104 0 01-.47.092c-.256 0-.489-.059-.7-.176a1.303 1.303 0 01-.5-.492c-.12-.211-.18-.461-.18-.752 0-.24.038-.457.114-.65a1.28 1.28 0 01.351-.497c.156-.137.352-.243.59-.316a2.84 2.84 0 01.834-.11h.488zm3.718 1.968a.584.584 0 00.294-.07.444.444 0 00.193-.229c.044-.105.068-.242.071-.409h1.155c0 .358-.076.667-.228.928a1.566 1.566 0 01-.606.597 1.759 1.759 0 01-.857.207 2.09 2.09 0 01-.835-.154 1.486 1.486 0 01-.589-.448 2.052 2.052 0 01-.347-.716 3.741 3.741 0 01-.115-.976v-.347c0-.36.038-.683.115-.967a2.05 2.05 0 01.347-.72c.155-.197.35-.346.584-.449.238-.102.516-.154.835-.154.343 0 .64.072.892.216.252.14.449.348.589.624.144.275.215.615.215 1.02h-1.155a1.497 1.497 0 00-.066-.454.553.553 0 00-.18-.28.473.473 0 00-.317-.102.579.579 0 00-.334.088.526.526 0 00-.189.246 1.458 1.458 0 00-.083.396 5.744 5.744 0 00-.022.536v.347c0 .214.006.4.017.558.015.155.043.287.084.396a.502.502 0 00.189.237c.085.053.199.079.343.079zm4.139 0a.585.585 0 00.295-.07.444.444 0 00.193-.229c.044-.105.067-.242.07-.409h1.156c0 .358-.076.667-.228.928-.15.257-.352.457-.607.597a1.756 1.756 0 01-.857.207c-.319 0-.597-.051-.835-.154a1.5 1.5 0 01-.589-.448 2.07 2.07 0 01-.347-.716 3.787 3.787 0 01-.114-.976v-.347c0-.36.038-.683.114-.967.079-.284.195-.524.347-.72.156-.197.351-.346.585-.449.237-.102.516-.154.835-.154.343 0 .64.072.892.216.252.14.448.348.589.624.143.275.215.615.215 1.02h-1.156a1.497 1.497 0 00-.066-.454.553.553 0 00-.18-.28.47.47 0 00-.316-.102.577.577 0 00-.334.088.526.526 0 00-.189.246 1.494 1.494 0 00-.084.396 6.11 6.11 0 00-.022.536v.347c0 .214.006.4.018.558.015.155.043.287.084.396a.494.494 0 00.188.237c.085.053.2.079.343.079zm2.281-1.279v-.32c0-.373.044-.702.132-.99.091-.287.22-.527.387-.72a1.6 1.6 0 01.602-.444c.237-.102.502-.154.795-.154.296 0 .561.052.795.154.238.1.44.248.607.444.17.193.3.433.391.72.091.288.136.617.136.99v.32c0 .37-.045.697-.136.985a2.027 2.027 0 01-.391.725 1.608 1.608 0 01-.602.444c-.235.1-.498.149-.791.149-.293 0-.558-.05-.796-.15a1.646 1.646 0 01-.606-.443c-.17-.197-.3-.438-.391-.725a3.36 3.36 0 01-.132-.985zm1.23-.32v.32c0 .22.015.41.044.571.033.162.078.295.137.4a.621.621 0 00.219.233c.085.05.183.075.295.075a.597.597 0 00.299-.075.557.557 0 00.215-.233c.059-.105.101-.238.127-.4.03-.16.044-.351.044-.57v-.322c0-.213-.016-.401-.048-.562a1.336 1.336 0 00-.136-.4.621.621 0 00-.22-.237.519.519 0 00-.29-.084.519.519 0 00-.29.084.679.679 0 00-.215.237 1.335 1.335 0 00-.137.4 3.205 3.205 0 00-.044.562zm5.691 1.392V9.245h1.235V14h-1.16l-.075-1.143zm.141-.98l.343-.008c0 .319-.031.615-.092.887-.062.27-.154.504-.277.704-.123.199-.277.354-.462.465a1.27 1.27 0 01-.655.163c-.193 0-.372-.032-.536-.097a1.08 1.08 0 01-.417-.312 1.582 1.582 0 01-.277-.55 3.004 3.004 0 01-.097-.812V9.245h1.235v3.085c0 .129.012.24.035.334.024.09.056.166.097.224a.37.37 0 00.145.128.484.484 0 00.189.035c.193 0 .346-.05.457-.15a.836.836 0 00.242-.417c.047-.179.07-.381.07-.607zm3.199-1.617V14h-1.235V9.245h1.156l.079 1.015zm-.184 1.2l-.33.009a3.628 3.628 0 01.101-.963c.076-.284.183-.526.321-.725.141-.202.308-.356.501-.461a1.33 1.33 0 01.655-.163c.184 0 .353.032.505.097a.99.99 0 01.4.308c.111.14.198.328.259.562.062.231.093.516.093.853V14h-1.235v-3.032a1.43 1.43 0 00-.062-.475.41.41 0 00-.184-.237.614.614 0 00-.308-.07.51.51 0 00-.312.1.77.77 0 00-.229.269 1.61 1.61 0 00-.136.404 2.5 2.5 0 00-.039.501zm5.48-2.215v.927h-2.426v-.927h2.426zm-1.868-1.173h1.226v4.478c0 .132.013.233.04.303.026.07.066.12.118.15.056.026.129.039.22.039a.826.826 0 00.29-.035v.962a1.695 1.695 0 01-.308.088c-.105.02-.231.03-.378.03a1.38 1.38 0 01-.641-.14.96.96 0 01-.418-.448c-.099-.208-.149-.48-.149-.817v-4.61zm4.663 4.645a.326.326 0 00-.084-.22.982.982 0 00-.264-.198 4.297 4.297 0 00-.479-.233 5.121 5.121 0 01-.575-.272 2.052 2.052 0 01-.427-.312 1.164 1.164 0 01-.259-.391 1.352 1.352 0 01-.088-.501 1.4 1.4 0 01.11-.558c.076-.173.185-.324.325-.453.141-.132.312-.234.515-.308.205-.076.435-.114.689-.114.358 0 .664.063.919.19.258.122.455.295.593.518.138.222.207.482.207.778h-1.231a.77.77 0 00-.048-.282.393.393 0 00-.158-.197.512.512 0 00-.286-.07.45.45 0 00-.4.21.41.41 0 00-.057.22c0 .064.013.122.04.171.029.05.074.098.136.145.061.047.143.097.246.15.105.05.234.105.387.167.316.117.575.243.777.378.206.134.358.293.457.474.1.179.15.4.15.664 0 .21-.041.403-.123.575a1.255 1.255 0 01-.347.449 1.619 1.619 0 01-.55.29 2.314 2.314 0 01-.707.1c-.384 0-.708-.075-.971-.228a1.572 1.572 0 01-.598-.584 1.505 1.505 0 01-.202-.747h1.169a.805.805 0 00.088.373.44.44 0 00.224.185.884.884 0 00.312.053.764.764 0 00.281-.044.35.35 0 00.171-.145.456.456 0 00.058-.233zm5.343-5.467V14h-1.235V7.25h1.235zm.835 4.535v-.32c0-.373.044-.702.132-.99.091-.287.22-.527.387-.72.167-.196.368-.344.602-.444.237-.102.502-.154.795-.154.296 0 .561.052.796.154.237.1.439.248.606.444.17.193.3.433.391.72.091.288.137.617.137.99v.32c0 .37-.046.697-.137.985a2.027 2.027 0 01-.391.725 1.608 1.608 0 01-.602.444c-.234.1-.498.149-.791.149-.293 0-.558-.05-.795-.15a1.64 1.64 0 01-.607-.443c-.17-.197-.3-.438-.391-.725a3.36 3.36 0 01-.132-.985zm1.231-.32v.32c0 .22.014.41.044.571.032.162.077.295.136.4a.623.623 0 00.22.233.57.57 0 00.294.075.597.597 0 00.299-.075.55.55 0 00.215-.233 1.24 1.24 0 00.128-.4c.029-.16.044-.351.044-.57v-.322c0-.213-.016-.401-.049-.562a1.309 1.309 0 00-.136-.4.621.621 0 00-.22-.237.516.516 0 00-.29-.084.519.519 0 00-.29.084.679.679 0 00-.215.237 1.309 1.309 0 00-.136.4c-.03.161-.044.349-.044.562zm5.502 1.252a.326.326 0 00-.084-.22.975.975 0 00-.263-.198 4.479 4.479 0 00-.479-.233 5.058 5.058 0 01-.576-.272 2.019 2.019 0 01-.426-.312 1.152 1.152 0 01-.26-.391 1.352 1.352 0 01-.088-.501 1.4 1.4 0 01.11-.558c.076-.173.185-.324.325-.453.141-.132.312-.234.515-.308a1.97 1.97 0 01.69-.114c.357 0 .663.063.918.19.258.122.456.295.593.518.138.222.207.482.207.778h-1.231a.77.77 0 00-.048-.282.393.393 0 00-.158-.197.51.51 0 00-.286-.07.459.459 0 00-.4.21.41.41 0 00-.057.22c0 .064.013.122.04.171.029.05.074.098.136.145.061.047.143.097.246.15.106.05.234.105.387.167.316.117.575.243.778.378.205.134.357.293.457.474.099.179.149.4.149.664 0 .21-.041.403-.123.575a1.255 1.255 0 01-.347.449 1.623 1.623 0 01-.549.29 2.32 2.32 0 01-.708.1c-.384 0-.708-.075-.971-.228a1.572 1.572 0 01-.598-.584 1.505 1.505 0 01-.202-.747h1.169a.805.805 0 00.088.373.44.44 0 00.224.185.884.884 0 00.312.053.764.764 0 00.281-.044.352.352 0 00.172-.145.466.466 0 00.057-.233zm3.893 1.37c-.325 0-.613-.049-.865-.149-.249-.1-.46-.243-.633-.43a1.928 1.928 0 01-.396-.69 2.88 2.88 0 01-.136-.923v-.391c0-.387.044-.725.132-1.015.088-.293.212-.54.373-.739.162-.199.359-.347.594-.443.237-.1.505-.15.804-.15.299 0 .561.05.786.15.229.096.418.243.567.44.15.192.263.433.339.72.076.287.114.62.114 1.002v.562h-3.186v-.866h1.977v-.11c0-.193-.02-.354-.061-.483a.56.56 0 00-.193-.294.582.582 0 00-.352-.097.608.608 0 00-.312.075.514.514 0 00-.202.233 1.42 1.42 0 00-.11.413 4.484 4.484 0 00-.035.602v.391c0 .22.019.404.057.554a.982.982 0 00.167.36c.076.09.168.157.277.198.108.038.234.057.378.057a1.343 1.343 0 001.032-.435l.493.747a1.913 1.913 0 01-.888.606 2.25 2.25 0 01-.721.106zM12.696 20.23V24h-1.235v-4.755h1.16l.075.985zm-.175 1.23l-.339.009a3.834 3.834 0 01.088-.923c.065-.281.161-.526.29-.734.132-.208.297-.37.497-.483.199-.115.432-.172.698-.172.173 0 .333.032.48.097a.97.97 0 01.382.294c.108.132.192.305.25.519.059.21.088.464.088.76V24h-1.23v-3.023c0-.211-.02-.372-.062-.484a.424.424 0 00-.176-.237.527.527 0 00-.28-.07.507.507 0 00-.309.096.703.703 0 00-.215.273 1.734 1.734 0 00-.123.404 2.99 2.99 0 00-.04.501zm2.315-.123l-.443.057a3.62 3.62 0 01.083-.874c.062-.273.157-.51.286-.712.129-.206.29-.365.483-.48a1.33 1.33 0 01.681-.17c.194 0 .37.031.528.096a.97.97 0 01.404.312c.114.14.2.327.26.558.06.232.091.513.091.844V24h-1.234v-3.028c0-.214-.02-.378-.062-.492-.04-.114-.1-.192-.176-.233a.567.567 0 00-.272-.061.452.452 0 00-.277.087.697.697 0 00-.193.247 1.334 1.334 0 00-.119.364c-.026.138-.04.289-.04.453zm3.16.448v-.32c0-.373.044-.702.132-.99.09-.287.22-.527.387-.72.167-.196.367-.344.602-.444.237-.102.502-.154.795-.154.296 0 .561.052.796.154.237.1.439.248.606.444.17.193.3.434.391.72.09.288.136.617.136.99v.32c0 .37-.045.697-.136.985-.09.287-.221.528-.391.725a1.605 1.605 0 01-.602.444c-.235.1-.498.149-.791.149-.293 0-.558-.05-.796-.15a1.644 1.644 0 01-.606-.443c-.17-.197-.3-.438-.391-.726a3.364 3.364 0 01-.132-.984zm1.23-.32v.32c0 .22.015.41.044.571.033.162.078.295.137.4a.627.627 0 00.22.233c.084.05.183.075.294.075.111 0 .21-.025.299-.075a.557.557 0 00.215-.233c.059-.105.101-.238.128-.4.029-.16.043-.351.043-.57v-.322c0-.213-.016-.401-.048-.562a1.325 1.325 0 00-.136-.4.619.619 0 00-.22-.237.518.518 0 00-.29-.084.518.518 0 00-.29.084.684.684 0 00-.215.237 1.325 1.325 0 00-.137.4c-.029.161-.043.348-.043.562zm4.602-1.205V24h-1.235v-4.755h1.155l.08 1.015zm-.185 1.2l-.33.009a3.62 3.62 0 01.102-.963c.076-.284.183-.526.32-.725.141-.202.308-.356.501-.461.197-.109.415-.163.655-.163.185 0 .353.032.506.097a.99.99 0 01.4.307c.11.141.197.329.259.563.061.232.092.516.092.853V24h-1.235v-3.032c0-.205-.02-.363-.061-.475a.411.411 0 00-.185-.237.612.612 0 00-.308-.07.51.51 0 00-.312.1.767.767 0 00-.228.269 1.597 1.597 0 00-.136.404c-.03.155-.043.322-.04.501zm5.322 2.628c-.325 0-.614-.05-.866-.15-.249-.1-.46-.243-.633-.43a1.927 1.927 0 01-.395-.69 2.886 2.886 0 01-.136-.923v-.391c0-.387.044-.725.131-1.015.088-.293.213-.54.374-.739.161-.199.359-.347.593-.443.237-.1.506-.15.804-.15.3 0 .561.05.787.15.229.096.418.243.567.44.15.192.262.433.338.72.076.287.115.62.115 1.002v.562h-3.186v-.865h1.977v-.11c0-.194-.02-.355-.061-.484a.555.555 0 00-.194-.294.582.582 0 00-.351-.097.608.608 0 00-.312.075.513.513 0 00-.203.233c-.05.105-.086.243-.11.413a4.415 4.415 0 00-.035.602v.391c0 .22.02.404.058.554a.977.977 0 00.167.36c.076.09.168.157.276.198.109.038.235.057.378.057a1.347 1.347 0 001.033-.435l.492.747a1.766 1.766 0 01-.351.334c-.15.111-.328.202-.537.272a2.25 2.25 0 01-.72.106zm3.524-.633l.993-4.21h1.284L33.2 24.712c-.035.12-.083.249-.145.387-.061.14-.143.272-.246.395a1.15 1.15 0 01-.378.308c-.152.079-.335.118-.55.118a1.28 1.28 0 01-.263-.022 2.487 2.487 0 01-.246-.061v-.958h.075a.793.793 0 00.404-.053.438.438 0 00.198-.167c.053-.076.097-.171.132-.285l.307-.919zm-.255-4.21l.739 3.41.167 1.389-.83.079-1.394-4.878h1.318zm6.258 3.503l.83-3.503h.774l-.189 1.424L39.09 24h-.646l.048-1.252zm-.237-3.503l.567 3.494L38.817 24h-.755l-.99-4.755h1.183zm2.465 3.437l.55-3.437h1.19L41.467 24h-.756l.01-1.318zm-.518-3.437l.83 3.476L41.09 24h-.646l-.817-3.322-.185-1.433h.76zm4.078-1.995V24h-1.23v-6.75h1.23zm-.176 4.21l-.334.009c0-.334.034-.642.101-.923a2.49 2.49 0 01.303-.734c.132-.208.292-.37.48-.483a1.2 1.2 0 01.628-.172c.196 0 .375.034.536.101.161.068.3.173.417.317.12.143.213.332.277.567.065.234.097.52.097.857V24h-1.235v-3.01c0-.205-.02-.366-.062-.484a.432.432 0 00-.184-.246.582.582 0 00-.308-.075.564.564 0 00-.338.102.692.692 0 00-.22.268 1.488 1.488 0 00-.123.404 3.352 3.352 0 00-.035.501zm5.322 2.628c-.325 0-.614-.05-.866-.15-.249-.1-.46-.243-.633-.43a1.929 1.929 0 01-.395-.69 2.886 2.886 0 01-.136-.923v-.391c0-.387.044-.725.131-1.015.088-.293.213-.54.374-.739.161-.199.359-.347.593-.443.237-.1.505-.15.804-.15.3 0 .561.05.787.15.228.096.417.243.567.44.15.192.262.433.338.72.076.287.114.62.114 1.002v.562H47.92v-.865h1.977v-.11c0-.194-.02-.355-.062-.484a.555.555 0 00-.193-.294.582.582 0 00-.351-.097.608.608 0 00-.313.075.514.514 0 00-.202.233c-.05.105-.086.243-.11.413a4.417 4.417 0 00-.035.602v.391c0 .22.02.404.057.554a.979.979 0 00.168.36c.076.09.168.157.276.198.109.038.235.057.378.057.217 0 .412-.038.585-.114.175-.08.325-.186.448-.321l.492.747a1.77 1.77 0 01-.351.334c-.15.111-.328.202-.536.272a2.25 2.25 0 01-.721.106zm3.599-3.828V24H51.79v-4.755h1.156l.079 1.015zm-.185 1.2l-.33.009a3.628 3.628 0 01.102-.963c.076-.284.183-.526.32-.725.141-.202.308-.356.502-.461.196-.109.414-.163.654-.163.185 0 .353.032.506.097a.991.991 0 01.4.307c.111.141.197.329.259.563.062.232.092.516.092.853V24H54.11v-3.032c0-.205-.02-.363-.061-.475a.41.41 0 00-.185-.237.613.613 0 00-.307-.07.51.51 0 00-.312.1.767.767 0 00-.229.269 1.593 1.593 0 00-.136.404c-.03.155-.043.322-.04.501zm7.554-2.215v.927H57.97v-.927h2.425zm-1.867-1.173h1.226v4.478c0 .132.013.233.04.303a.27.27 0 00.118.15c.056.026.129.039.22.039a.84.84 0 00.29-.035v.962c-.097.038-.2.068-.308.088a2.01 2.01 0 01-.378.03c-.246 0-.46-.046-.641-.14a.959.959 0 01-.418-.448c-.1-.208-.15-.48-.15-.817v-4.61zm3.783 2.232V24h-1.23v-4.755h1.16l.07 1.06zm1.121-1.094l-.017 1.226a2.647 2.647 0 00-.404-.035.847.847 0 00-.352.066.586.586 0 00-.242.189.877.877 0 00-.14.307 1.94 1.94 0 00-.058.418l-.233-.088c0-.31.024-.595.07-.853.05-.26.124-.486.22-.676.097-.194.213-.343.348-.449a.747.747 0 01.465-.158c.059 0 .12.006.185.018.067.009.12.02.158.035zm2.593 3.696v-2.197a.916.916 0 00-.053-.343.34.34 0 00-.15-.185.433.433 0 00-.236-.061.49.49 0 00-.264.066.404.404 0 00-.158.189.806.806 0 00-.049.294H63.88c0-.205.04-.399.119-.58.08-.185.195-.346.347-.483.156-.141.34-.251.554-.33.214-.08.454-.119.72-.119.317 0 .598.054.844.163.247.105.441.274.585.505.143.232.215.532.215.901v2.118c0 .267.013.484.04.65.029.168.072.311.127.431V24h-1.24a2.064 2.064 0 01-.126-.492c-.027-.2-.04-.4-.04-.602zm.15-1.81l.004.738h-.453a.768.768 0 00-.307.057.591.591 0 00-.216.162.673.673 0 00-.132.238c-.026.09-.04.187-.04.29 0 .114.017.21.05.29a.373.373 0 00.373.241.709.709 0 00.351-.083.569.569 0 00.22-.202c.05-.08.066-.153.048-.22l.281.479a2.173 2.173 0 01-.144.338 1.431 1.431 0 01-.225.326c-.09.1-.203.181-.338.246a1.104 1.104 0 01-.47.092c-.255 0-.488-.059-.699-.176a1.303 1.303 0 01-.5-.492c-.121-.211-.181-.462-.181-.752 0-.24.038-.457.114-.65a1.28 1.28 0 01.352-.497c.155-.137.351-.243.589-.316a2.84 2.84 0 01.835-.11h.487zm4.302 1.854v-5.7h1.234V24l-1.116.004-.118-1.054zm-2.466-1.16v-.317c0-.387.032-.725.097-1.015.067-.29.167-.532.299-.725.132-.193.293-.337.483-.43.194-.097.415-.146.664-.146.225 0 .423.057.593.172.173.11.32.268.44.47.12.202.216.44.29.716.073.276.124.577.153.905v.457c-.035.311-.09.601-.162.87-.07.27-.167.505-.29.704-.12.199-.266.356-.435.47-.17.111-.368.167-.594.167-.249 0-.47-.05-.663-.15-.19-.1-.352-.246-.484-.439a2.25 2.25 0 01-.294-.72 4.544 4.544 0 01-.097-.99zm1.23-.317v.317c0 .222.011.414.032.575.023.158.06.289.11.391.052.1.12.175.206.224.085.047.19.07.316.07a.62.62 0 00.4-.122.752.752 0 00.229-.347 1.7 1.7 0 00.088-.515v-.83a2.12 2.12 0 00-.057-.435 1.095 1.095 0 00-.137-.33.628.628 0 00-.22-.21.58.58 0 00-.298-.075.63.63 0 00-.317.074.513.513 0 00-.202.233c-.05.103-.088.236-.114.4a4.092 4.092 0 00-.035.58zm4.69-2.228V24h-1.235v-4.755h1.235zm-1.292-1.23c0-.19.06-.348.18-.47a.657.657 0 01.492-.19c.208 0 .372.064.492.19.12.122.18.28.18.47a.647.647 0 01-.184.47.645.645 0 01-.484.184.671.671 0 01-.496-.184.655.655 0 01-.18-.47zm3.476 2.245V24h-1.235v-4.755h1.156l.079 1.015zm-.185 1.2l-.33.009a3.624 3.624 0 01.102-.963c.076-.284.183-.526.32-.725.141-.202.308-.356.501-.461.197-.109.415-.163.655-.163.185 0 .353.032.506.097a.99.99 0 01.4.307c.11.141.197.329.259.563.061.232.092.516.092.853V24H77.2v-3.032c0-.205-.02-.363-.061-.475a.41.41 0 00-.185-.237.612.612 0 00-.308-.07.51.51 0 00-.311.1.767.767 0 00-.229.269 1.593 1.593 0 00-.136.404c-.03.155-.043.322-.04.501zm5.906-2.215h1.117V24c0 .434-.084.788-.25 1.064a1.458 1.458 0 01-.69.61 2.485 2.485 0 01-1.534.137 2.388 2.388 0 01-.537-.19 1.421 1.421 0 01-.426-.298l.418-.853c.114.114.263.211.448.29.184.082.366.123.545.123a.98.98 0 00.43-.083.521.521 0 00.264-.273c.062-.129.092-.301.092-.518v-3.66l.123-1.104zm-2.654 2.545v-.317c0-.387.037-.725.11-1.015.073-.29.179-.532.316-.725.138-.193.307-.337.506-.43a1.55 1.55 0 01.677-.146c.26 0 .479.057.654.172.176.11.318.268.427.47.11.202.196.44.255.716.061.276.108.577.14.905v.457c-.032.311-.085.601-.158.87-.07.27-.164.505-.281.704-.117.199-.261.356-.431.47-.17.111-.375.167-.615.167-.246 0-.469-.05-.668-.15a1.413 1.413 0 01-.506-.439 2.202 2.202 0 01-.316-.72 4.019 4.019 0 01-.11-.99zm1.235-.317v.317c0 .222.013.414.04.575.029.158.073.289.131.391.059.1.134.175.224.224a.73.73 0 00.33.07c.179 0 .32-.04.426-.122a.724.724 0 00.238-.347 1.7 1.7 0 00.088-.515v-.83a1.78 1.78 0 00-.058-.435 1.093 1.093 0 00-.136-.33.607.607 0 00-.228-.21.656.656 0 00-.321-.075.666.666 0 00-.325.074.602.602 0 00-.229.233 1.325 1.325 0 00-.136.4c-.03.161-.044.355-.044.58zm8.64.396h1.279c-.018.48-.115.886-.29 1.217a1.76 1.76 0 01-.752.747c-.322.17-.712.255-1.169.255-.355 0-.67-.059-.945-.176a1.888 1.888 0 01-.703-.527 2.347 2.347 0 01-.44-.857 4.365 4.365 0 01-.144-1.182V20.26c0-.445.05-.84.153-1.182.106-.343.255-.63.449-.861.196-.235.432-.41.707-.527.279-.12.592-.18.94-.18.466 0 .856.087 1.17.263.313.176.555.432.725.769.172.334.276.743.312 1.226h-1.284c-.008-.305-.043-.543-.105-.716-.059-.176-.152-.3-.281-.37-.13-.073-.308-.11-.536-.11-.17 0-.317.032-.44.093a.708.708 0 00-.303.286c-.08.131-.138.304-.176.518a4.929 4.929 0 00-.053.782v1.095c0 .302.016.56.049.773.032.211.083.384.154.519.07.134.165.233.285.294.123.062.278.092.466.092.217 0 .391-.032.523-.096a.603.603 0 00.299-.347c.064-.167.1-.405.11-.712zm3.37-4.267V24H91.14v-6.398h1.287zm2.004 2.72v1.063h-2.329v-1.063h2.33zm.246-2.72v1.067h-2.575v-1.067h2.575zM97.098 24h-1.13l.01-1.064h1.12c.31 0 .552-.055.725-.166.173-.112.294-.288.365-.528.073-.24.11-.555.11-.945V20.3c0-.296-.02-.547-.058-.752a1.228 1.228 0 00-.193-.5.803.803 0 00-.365-.286 1.52 1.52 0 00-.567-.093h-1.169v-1.067h1.17c.368 0 .704.06 1.006.18.301.12.56.296.777.527.217.229.384.511.501.848.118.337.176.72.176 1.152v.988c0 .434-.058.818-.176 1.152a2.37 2.37 0 01-.5.848 2.108 2.108 0 01-.778.523c-.305.12-.646.18-1.024.18zm-.383-6.398V24h-1.287v-6.398h1.287zm5.849 5.115a.325.325 0 00-.083-.22.998.998 0 00-.264-.198 4.297 4.297 0 00-.479-.233 5.039 5.039 0 01-.575-.272 2.052 2.052 0 01-.427-.312 1.164 1.164 0 01-.259-.391 1.332 1.332 0 01-.088-.501 1.4 1.4 0 01.11-.558c.076-.173.185-.324.325-.453a1.48 1.48 0 01.514-.308c.205-.076.435-.114.69-.114.358 0 .664.063.919.19.258.122.455.295.593.518.138.222.207.482.207.778h-1.231a.77.77 0 00-.048-.282.393.393 0 00-.158-.197.512.512 0 00-.286-.07.45.45 0 00-.4.21.41.41 0 00-.057.22c0 .064.013.121.039.171.03.05.075.099.137.145.061.047.143.097.246.15.105.05.234.105.386.167.317.117.576.243.778.378.205.134.358.293.457.474.1.179.15.4.15.664 0 .21-.041.403-.123.576a1.255 1.255 0 01-.347.448 1.619 1.619 0 01-.55.29 2.318 2.318 0 01-.707.1c-.384 0-.708-.075-.971-.228a1.572 1.572 0 01-.598-.584 1.505 1.505 0 01-.202-.747h1.169a.805.805 0 00.088.373.44.44 0 00.224.185.876.876 0 00.312.053.764.764 0 00.281-.044.35.35 0 00.171-.145.466.466 0 00.057-.233zm5.168.03l.831-3.502h.773l-.189 1.424L108.33 24h-.646l.048-1.252zm-.237-3.502l.567 3.494-.004 1.261h-.756l-.989-4.755h1.182zm2.465 3.437l.55-3.437h1.191L110.708 24h-.756l.008-1.318zm-.518-3.437l.83 3.476.058 1.279h-.646l-.818-3.322-.184-1.433h.76zm4.17 0V24h-1.235v-4.755h1.235zm-1.292-1.23c0-.19.06-.348.18-.47a.66.66 0 01.493-.19c.208 0 .372.064.492.19.12.122.18.28.18.47a.643.643 0 01-.185.47.644.644 0 01-.483.184.674.674 0 01-.497-.184.655.655 0 01-.18-.47zm4.342 1.23v.927h-2.426v-.927h2.426zm-1.868-1.173h1.227v4.478c0 .132.013.233.039.303.026.07.066.12.119.15.055.026.129.039.219.039a.806.806 0 00.29-.035v.962a1.684 1.684 0 01-.307.088c-.106.02-.232.03-.378.03-.246 0-.46-.046-.642-.14a.959.959 0 01-.417-.448c-.1-.208-.15-.48-.15-.817v-4.61zm3.753-.822V24h-1.23v-6.75h1.23zm-.175 4.21l-.334.009c0-.334.033-.642.101-.923.07-.281.171-.526.303-.734.132-.208.291-.37.479-.483.19-.115.4-.172.628-.172.197 0 .375.034.536.101.162.068.301.173.418.317.12.143.212.332.277.567.064.234.096.52.096.857V24h-1.234v-3.01c0-.205-.021-.366-.062-.484a.431.431 0 00-.184-.246.587.587 0 00-.308-.075.561.561 0 00-.338.102.685.685 0 00-.22.268 1.467 1.467 0 00-.123.404 3.288 3.288 0 00-.035.501zm7.554-2.215v.927H123.5v-.927h2.426zm-1.868-1.173h1.226v4.478c0 .132.013.233.04.303.026.07.066.12.118.15.056.026.129.039.22.039a.826.826 0 00.29-.035v.962a1.707 1.707 0 01-.307.088c-.106.02-.232.03-.378.03-.246 0-.46-.046-.642-.14a.954.954 0 01-.417-.448c-.1-.208-.15-.48-.15-.817v-4.61zm3.753-.822V24h-1.23v-6.75h1.23zm-.176 4.21l-.334.009c0-.334.034-.642.101-.923.071-.281.172-.526.304-.734a1.47 1.47 0 01.479-.483c.19-.115.399-.172.628-.172.196 0 .375.034.536.101.161.068.3.173.418.317.12.143.212.332.276.567.065.234.097.52.097.857V24h-1.235v-3.01c0-.205-.02-.366-.061-.484a.433.433 0 00-.185-.246.58.58 0 00-.307-.075.566.566 0 00-.339.102.694.694 0 00-.22.268 1.539 1.539 0 00-.123.404 3.421 3.421 0 00-.035.501zm4.698-2.215V24h-1.235v-4.755h1.235zm-1.292-1.23c0-.19.06-.348.18-.47a.657.657 0 01.492-.19c.208 0 .372.064.493.19.12.122.18.28.18.47a.647.647 0 01-.185.47.644.644 0 01-.483.184.672.672 0 01-.497-.184.655.655 0 01-.18-.47zm4.377 4.702a.326.326 0 00-.084-.22.975.975 0 00-.263-.198c-.12-.07-.28-.148-.479-.233a5.058 5.058 0 01-.576-.272 2.019 2.019 0 01-.426-.312 1.149 1.149 0 01-.259-.391 1.332 1.332 0 01-.088-.501c0-.202.036-.388.11-.558.076-.173.184-.324.325-.453a1.47 1.47 0 01.514-.308c.205-.076.435-.114.69-.114.357 0 .663.063.918.19.258.122.456.295.594.518.137.222.206.482.206.778h-1.23a.75.75 0 00-.049-.282.393.393 0 00-.158-.197.507.507 0 00-.286-.07.456.456 0 00-.399.21.402.402 0 00-.058.22c0 .064.014.121.04.171a.52.52 0 00.136.145c.062.047.144.097.246.15.106.05.235.105.387.167.316.117.576.243.778.378.205.134.357.293.457.474.099.179.149.4.149.664 0 .21-.041.403-.123.576a1.255 1.255 0 01-.347.448 1.604 1.604 0 01-.549.29 2.32 2.32 0 01-.708.1c-.384 0-.707-.075-.971-.228a1.572 1.572 0 01-.598-.584 1.515 1.515 0 01-.202-.747h1.169a.805.805 0 00.088.373c.056.088.13.15.224.185a.884.884 0 00.312.053.764.764 0 00.281-.044.348.348 0 00.172-.145.466.466 0 00.057-.233zm-122.73 7.442v5.67H11.46v-6.584h1.134l.092.914zm2.47 1.301v.316c0 .372-.033.702-.098.99a2.234 2.234 0 01-.29.724 1.285 1.285 0 01-.474.448c-.19.1-.413.15-.668.15-.237 0-.443-.056-.615-.167a1.425 1.425 0 01-.431-.47 2.76 2.76 0 01-.281-.699 6.55 6.55 0 01-.163-.857v-.492c.035-.325.087-.624.154-.897a2.71 2.71 0 01.277-.716c.12-.202.265-.357.435-.466.173-.111.378-.167.615-.167.258 0 .482.047.672.14.194.095.354.237.48.427.128.188.225.426.29.716.064.29.096.63.096 1.02zm-1.231.316v-.316c0-.229-.013-.423-.04-.585a1.268 1.268 0 00-.114-.395.513.513 0 00-.207-.224.638.638 0 00-.312-.07.68.68 0 00-.316.07.558.558 0 00-.215.206 1.032 1.032 0 00-.128.326c-.03.126-.045.27-.048.43v.862c.006.19.03.358.075.505a.753.753 0 00.224.352.634.634 0 00.417.127c.126 0 .23-.026.312-.08a.57.57 0 00.207-.236 1.25 1.25 0 00.11-.4c.023-.161.035-.352.035-.572zm3.217-1.472V34h-1.23v-4.755h1.16l.07 1.06zm1.12-1.094l-.017 1.226a2.647 2.647 0 00-.404-.035.847.847 0 00-.352.066.586.586 0 00-.242.189.877.877 0 00-.14.307 1.94 1.94 0 00-.058.418l-.233-.088c0-.31.024-.595.07-.853.05-.26.124-.486.22-.676.097-.194.213-.343.348-.449a.747.747 0 01.465-.158c.059 0 .12.006.185.018.067.009.12.02.158.035zm.33 2.575v-.32c0-.373.044-.702.132-.99.09-.287.22-.527.386-.72.167-.196.368-.344.602-.444.238-.102.503-.154.796-.154.296 0 .56.052.795.154.238.1.44.248.607.444.17.193.3.434.39.72.092.288.137.617.137.99v.32c0 .37-.045.697-.136.985-.091.287-.222.528-.391.725a1.606 1.606 0 01-.602.444c-.235.1-.498.149-.791.149-.293 0-.559-.05-.796-.15a1.644 1.644 0 01-.606-.443c-.17-.197-.3-.438-.391-.725a3.364 3.364 0 01-.132-.985zm1.23-.32v.32c0 .22.015.41.044.571.032.162.078.295.136.4a.627.627 0 00.22.233c.085.05.183.075.295.075.11 0 .21-.025.298-.075a.556.556 0 00.216-.233c.058-.105.1-.238.127-.4.03-.16.044-.351.044-.57v-.322c0-.213-.016-.401-.048-.562a1.327 1.327 0 00-.136-.4.618.618 0 00-.22-.237.518.518 0 00-.29-.084.518.518 0 00-.29.084.684.684 0 00-.216.237 1.325 1.325 0 00-.136.4c-.03.161-.044.348-.044.562zm4.724 1.586l.765-3.806h1.283L25.291 34h-.769l.026-.95zm-.452-3.806l.777 3.81.014.945h-.774l-1.305-4.755h1.288zm4.385 0V34h-1.234v-4.755h1.234zm-1.292-1.23c0-.19.06-.348.18-.47a.657.657 0 01.493-.19c.208 0 .372.064.492.19.12.122.18.28.18.47a.646.646 0 01-.184.47.645.645 0 01-.484.184.671.671 0 01-.496-.184.655.655 0 01-.18-.47zm4.57 4.935v-5.7h1.236V34l-1.117.004-.118-1.054zm-2.465-1.16v-.317c0-.387.033-.725.097-1.015.068-.29.167-.532.299-.725.132-.193.293-.337.483-.43.194-.097.415-.146.664-.146.226 0 .423.057.593.172.173.11.32.268.44.47.12.202.216.44.29.716.073.276.124.577.154.905v.457c-.036.311-.09.601-.163.87a2.56 2.56 0 01-.29.704c-.12.199-.265.356-.435.47-.17.111-.368.167-.593.167-.25 0-.47-.05-.664-.15-.19-.1-.352-.246-.483-.439a2.25 2.25 0 01-.295-.72 4.544 4.544 0 01-.097-.99zm1.23-.317v.317c0 .222.011.414.032.575.023.158.06.289.11.391.052.1.121.175.206.224.085.047.19.07.317.07a.62.62 0 00.4-.122.752.752 0 00.228-.347 1.7 1.7 0 00.088-.515v-.83a2.12 2.12 0 00-.057-.435 1.095 1.095 0 00-.137-.33.63.63 0 00-.22-.21.58.58 0 00-.298-.075.63.63 0 00-.317.074.513.513 0 00-.202.233c-.05.103-.088.236-.114.4a4.092 4.092 0 00-.035.58zm5.314 2.615c-.325 0-.614-.05-.866-.15-.249-.1-.46-.243-.633-.43a1.928 1.928 0 01-.395-.69 2.886 2.886 0 01-.136-.923v-.391c0-.387.044-.725.132-1.015.087-.293.212-.54.373-.739.161-.199.359-.347.593-.443.238-.1.506-.15.804-.15.3 0 .562.05.787.15.229.096.418.243.567.44.15.192.262.433.338.72.076.287.115.62.115 1.002v.562H34.33v-.865h1.977v-.11c0-.194-.02-.355-.061-.484a.555.555 0 00-.194-.294.582.582 0 00-.351-.097.608.608 0 00-.312.075.514.514 0 00-.203.233c-.05.105-.086.243-.11.413a4.417 4.417 0 00-.035.602v.391c0 .22.02.404.058.554a.98.98 0 00.167.36c.076.09.168.157.276.198.109.038.235.057.378.057a1.347 1.347 0 001.033-.435l.492.747a1.77 1.77 0 01-.351.334c-.15.111-.328.202-.536.272a2.25 2.25 0 01-.721.106zm3.621-3.784V34h-1.23v-4.755h1.16l.07 1.06zm1.12-1.094l-.017 1.226a2.651 2.651 0 00-.404-.035.846.846 0 00-.352.066.585.585 0 00-.241.189.877.877 0 00-.141.307 1.946 1.946 0 00-.057.418l-.233-.088c0-.31.023-.595.07-.853.05-.26.123-.486.22-.676.096-.194.212-.343.347-.449a.747.747 0 01.466-.158c.058 0 .12.006.184.018.068.009.12.02.159.035zm-.026 4.162c0-.194.065-.355.194-.484.129-.132.303-.198.523-.198.22 0 .394.066.522.198.13.13.194.29.194.484a.656.656 0 01-.194.483c-.128.129-.303.193-.523.193-.22 0-.393-.064-.522-.193a.656.656 0 01-.194-.483zm6.482-2.558l1.31-3.212h.91l-1.82 4.012V34h-.804v-2.386l-1.82-4.012h.915l1.31 3.212zm2.492.589c0-.692.167-1.238.5-1.64.338-.404.782-.606 1.332-.606.551 0 .993.197 1.328.59.336.392.51.926.518 1.603v.501c0 .689-.167 1.233-.5 1.635-.335.401-.78.602-1.337.602-.55 0-.993-.195-1.327-.585-.331-.39-.502-.917-.514-1.582v-.518zm.778.448c0 .49.095.875.285 1.156a.902.902 0 00.778.417c.686 0 1.039-.495 1.06-1.485v-.536c0-.486-.097-.87-.29-1.151-.194-.285-.453-.427-.779-.427-.319 0-.575.142-.769.427-.19.28-.285.663-.285 1.146v.453zm6.328 1.732c-.258.336-.635.505-1.13.505-.43 0-.755-.148-.975-.444-.22-.299-.331-.732-.334-1.3v-3.099h.773v3.041c0 .741.223 1.112.668 1.112.472 0 .797-.211.976-.633v-3.52h.778V34h-.739l-.017-.417zm6.302-.8a.574.574 0 00-.19-.43c-.125-.121-.368-.262-.729-.423-.419-.173-.715-.32-.888-.444a1.279 1.279 0 01-.382-.417 1.172 1.172 0 01-.127-.563c0-.386.14-.707.422-.962.284-.258.646-.387 1.085-.387.463 0 .835.135 1.116.404.281.27.422.616.422 1.038h-.773a.758.758 0 00-.216-.545.722.722 0 00-.549-.229c-.228 0-.409.06-.54.18a.61.61 0 00-.194.475c0 .158.047.286.14.382.097.097.327.224.69.383.578.225.97.446 1.178.663.208.214.312.486.312.818 0 .413-.142.744-.426.993-.284.246-.665.369-1.142.369-.496 0-.897-.142-1.204-.426a1.408 1.408 0 01-.462-1.081h.782c.009.263.09.47.242.62.152.149.366.223.642.223.257 0 .454-.057.588-.171a.592.592 0 00.203-.47zm2.57-3.05c.296-.384.674-.576 1.134-.576.841 0 1.267.561 1.279 1.683V34h-.774v-3.125c0-.372-.063-.635-.188-.79-.124-.159-.31-.238-.559-.238a.798.798 0 00-.523.194 1.405 1.405 0 00-.369.505V34h-.777v-6.75h.777v2.483zm3.41 1.67c0-.692.167-1.238.501-1.64.337-.404.781-.606 1.332-.606.55 0 .993.197 1.327.59.337.392.51.926.519 1.603v.501c0 .689-.167 1.233-.501 1.635-.334.401-.78.602-1.336.602-.55 0-.993-.195-1.327-.585-.331-.39-.503-.917-.515-1.582v-.518zm.778.448c0 .49.096.875.286 1.156a.902.902 0 00.778.417c.685 0 1.038-.495 1.059-1.485v-.536c0-.486-.097-.87-.29-1.151-.194-.285-.453-.427-.778-.427-.32 0-.576.142-.769.427-.19.28-.286.663-.286 1.146v.453zm6.329 1.732c-.258.336-.635.505-1.13.505-.43 0-.756-.148-.975-.444-.22-.299-.332-.732-.335-1.3v-3.099h.774v3.041c0 .741.223 1.112.668 1.112.472 0 .797-.211.975-.633v-3.52h.778V34h-.738l-.017-.417zm2.764.417h-.778v-6.75h.778V34zm1.063-2.593c0-.732.136-1.29.409-1.674.275-.384.67-.576 1.182-.576.454 0 .809.185 1.063.554V27.25h.778V34h-.712l-.04-.51c-.254.399-.619.598-1.093.598-.493 0-.88-.19-1.16-.571-.279-.384-.421-.925-.427-1.622v-.488zm.778.444c0 .533.08.926.237 1.178.158.249.416.373.774.373.386 0 .675-.194.865-.584v-2.4c-.199-.38-.486-.57-.86-.57-.358 0-.616.125-.774.377-.159.25-.24.633-.242 1.151v.475zm7.567 1.573c.258 0 .465-.079.62-.237.155-.161.24-.39.255-.685h.734a1.62 1.62 0 01-.488 1.138 1.539 1.539 0 01-1.12.448c-.59 0-1.04-.185-1.35-.554-.307-.372-.461-.924-.461-1.657v-.522c0-.718.154-1.263.461-1.635.308-.375.756-.563 1.345-.563.486 0 .871.154 1.156.462.287.307.44.728.457 1.26h-.734c-.018-.35-.103-.614-.255-.79-.15-.176-.357-.264-.624-.264-.346 0-.602.114-.77.343-.166.226-.252.598-.258 1.116v.607c0 .56.082.955.246 1.186.167.232.429.347.786.347zm2.343-2.021c0-.692.167-1.238.5-1.64.337-.404.781-.606 1.332-.606.55 0 .993.197 1.327.59.337.392.51.926.519 1.603v.501c0 .689-.167 1.233-.501 1.635-.334.401-.78.602-1.336.602-.55 0-.993-.195-1.327-.585-.331-.39-.503-.917-.514-1.582v-.518zm.777.448c0 .49.096.875.286 1.156a.902.902 0 00.778.417c.686 0 1.038-.495 1.059-1.485v-.536c0-.486-.097-.87-.29-1.151-.193-.285-.453-.427-.778-.427-.32 0-.576.142-.769.427-.19.28-.285.663-.285 1.146v.453zm4.637-2.606l.022.514c.301-.401.687-.602 1.155-.602.841 0 1.267.561 1.28 1.683V34h-.774v-3.125c0-.372-.063-.635-.19-.79-.122-.159-.308-.238-.557-.238a.797.797 0 00-.523.194 1.405 1.405 0 00-.37.505V34h-.777v-4.755h.734zm5.937 3.538a.574.574 0 00-.189-.43c-.126-.121-.369-.262-.73-.423-.419-.173-.715-.32-.887-.444a1.275 1.275 0 01-.383-.417 1.173 1.173 0 01-.127-.563c0-.386.14-.707.422-.962.284-.258.646-.387 1.085-.387.463 0 .835.135 1.116.404.282.27.422.616.422 1.038h-.773a.756.756 0 00-.216-.545.72.72 0 00-.549-.229c-.228 0-.409.06-.54.18a.61.61 0 00-.194.475c0 .158.047.286.141.382.097.097.326.224.69.383.577.225.97.446 1.178.663.208.214.312.486.312.818 0 .413-.143.744-.427.993-.284.246-.665.369-1.142.369-.495 0-.897-.142-1.204-.426a1.408 1.408 0 01-.462-1.081h.782c.009.263.09.47.242.62.152.149.366.223.642.223.257 0 .454-.057.589-.171a.594.594 0 00.202-.47zM104.52 34h-.778v-4.755h.778V34zm.062-6.016a.499.499 0 01-.11.33c-.074.087-.185.131-.334.131-.147 0-.257-.044-.33-.131a.499.499 0 01-.11-.33c0-.132.037-.243.11-.334.073-.09.183-.136.33-.136.146 0 .256.047.329.14.076.091.115.201.115.33zm1.001 3.423c0-.732.137-1.29.409-1.674.276-.384.67-.576 1.182-.576.454 0 .809.185 1.064.554V27.25h.778V34h-.712l-.04-.51a1.223 1.223 0 01-1.094.598c-.492 0-.879-.19-1.16-.571-.279-.384-.421-.925-.427-1.622v-.488zm.778.444c0 .533.079.926.238 1.178.158.249.416.373.773.373.387 0 .675-.194.866-.584v-2.4c-.199-.38-.487-.57-.862-.57-.357 0-.615.125-.773.377-.158.25-.239.633-.242 1.151v.475zm5.551 2.237c-.592 0-1.046-.176-1.363-.528-.316-.354-.477-.873-.483-1.555v-.576c0-.709.154-1.264.461-1.665.311-.405.743-.607 1.297-.607.556 0 .972.177 1.248.532.275.355.416.907.422 1.657v.51h-2.655v.11c0 .51.096.88.286 1.111.193.232.47.347.831.347.228 0 .429-.042.602-.127.175-.088.339-.226.492-.413l.404.492c-.337.475-.851.712-1.542.712zm-.088-4.263c-.323 0-.561.111-.717.334-.155.22-.243.563-.263 1.029h1.872v-.106c-.021-.451-.103-.773-.246-.967-.141-.193-.356-.29-.646-.29zm4.57.15a1.894 1.894 0 00-.352-.031c-.398 0-.676.218-.834.655V34h-.778v-4.755h.756l.013.483c.208-.38.502-.57.883-.57.123 0 .226.02.308.06l.004.757zm6.39 2.658l.72-3.388h.769L123.109 34h-.62l-.927-3.401-.905 3.401h-.624l-1.156-4.755h.765l.738 3.305.883-3.305h.615l.906 3.388zm3.085-2.9c.296-.384.673-.576 1.133-.576.841 0 1.268.561 1.279 1.683V34h-.773v-3.125c0-.372-.063-.635-.189-.79-.123-.159-.309-.238-.558-.238a.796.796 0 00-.523.194 1.389 1.389 0 00-.369.505V34h-.778v-6.75h.778v2.483zm5.273 4.355c-.592 0-1.046-.176-1.362-.528-.317-.354-.478-.873-.484-1.555v-.576c0-.709.154-1.264.462-1.665.31-.405.742-.607 1.296-.607.557 0 .973.177 1.248.532.276.355.416.907.422 1.657v.51h-2.654v.11c0 .51.095.88.285 1.111.194.232.471.347.831.347.229 0 .429-.042.602-.127.176-.088.34-.226.492-.413l.405.492c-.337.475-.852.712-1.543.712zm-.088-4.263c-.322 0-.561.111-.716.334-.155.22-.243.563-.264 1.029h1.872v-.106c-.02-.451-.102-.773-.246-.967-.14-.193-.356-.29-.646-.29zm3.626-1.731v1.151h.716v.628h-.716v2.95c0 .187.03.329.092.425.061.097.167.146.316.146a.977.977 0 00.312-.053l-.008.659a1.7 1.7 0 01-.541.088c-.308 0-.542-.11-.703-.33-.161-.22-.242-.53-.242-.931v-2.953h-.725v-.629h.725v-1.151h.774zm2.421 1.639c.296-.384.674-.576 1.134-.576.841 0 1.267.561 1.279 1.683V34h-.774v-3.125c0-.372-.063-.635-.189-.79-.123-.159-.309-.238-.558-.238a.798.798 0 00-.523.194 1.412 1.412 0 00-.369.505V34h-.778v-6.75h.778v2.483zm5.274 4.355c-.592 0-1.046-.176-1.363-.528-.316-.354-.477-.873-.483-1.555v-.576c0-.709.154-1.264.461-1.665.311-.405.743-.607 1.297-.607.556 0 .972.177 1.248.532.275.355.416.907.422 1.657v.51h-2.655v.11c0 .51.095.88.286 1.111.193.232.47.347.83.347.229 0 .43-.042.603-.127.175-.088.339-.226.492-.413l.404.492c-.337.475-.851.712-1.542.712zm-.088-4.263c-.323 0-.561.111-.717.334-.155.22-.243.563-.263 1.029h1.872v-.106c-.021-.451-.103-.773-.246-.967-.141-.193-.356-.29-.646-.29zm4.57.15a1.894 1.894 0 00-.352-.031c-.398 0-.676.218-.835.655V34h-.777v-4.755h.755l.014.483c.208-.38.502-.57.883-.57.123 0 .226.02.308.06l.004.757zM12.881 42.708l.866-3.463h.826l-1.556 5.427c-.117.408-.283.717-.496.928-.214.213-.458.32-.73.32-.106 0-.24-.023-.404-.07v-.66l.171.019c.226 0 .402-.055.527-.163.13-.106.233-.29.313-.554l.153-.532-1.397-4.715h.848l.879 3.463zm2.29-1.305c0-.692.166-1.238.5-1.64.337-.404.781-.606 1.332-.606.55 0 .993.197 1.327.59.337.392.51.926.519 1.603v.501c0 .689-.167 1.233-.501 1.635-.334.401-.78.602-1.336.602-.551 0-.993-.195-1.327-.585-.332-.39-.503-.917-.515-1.582v-.518zm.777.448c0 .49.096.875.286 1.156a.902.902 0 00.778.417c.685 0 1.038-.495 1.059-1.485v-.536c0-.486-.097-.87-.29-1.151-.194-.285-.453-.427-.778-.427-.32 0-.576.142-.77.426-.19.282-.285.664-.285 1.147v.453zm6.328 1.732c-.257.336-.634.505-1.129.505-.43 0-.756-.148-.976-.444-.22-.299-.33-.732-.334-1.3v-3.099h.774v3.041c0 .741.223 1.112.668 1.112.471 0 .797-.211.975-.633v-3.52h.778V44h-.738l-.018-.417zm6.416 0c-.257.336-.634.505-1.129.505-.43 0-.756-.148-.976-.444-.22-.299-.33-.732-.334-1.3v-3.099h.774v3.041c0 .741.223 1.112.668 1.112.471 0 .797-.211.975-.633v-3.52h.778V44h-.738l-.018-.417zm2.66-4.338l.021.514c.302-.401.687-.602 1.156-.602.84 0 1.267.561 1.279 1.683V44h-.774v-3.124c0-.373-.063-.636-.189-.791-.123-.159-.309-.238-.558-.238a.797.797 0 00-.523.194 1.405 1.405 0 00-.369.505V44h-.778v-4.755h.734zm3.462 2.162c0-.732.136-1.29.409-1.674.275-.384.67-.576 1.182-.576.454 0 .808.185 1.063.554V37.25h.778V44h-.712l-.04-.51c-.254.399-.619.598-1.094.598-.492 0-.878-.19-1.16-.571-.278-.384-.42-.925-.426-1.622v-.488zm.778.444c0 .533.079.926.237 1.178.158.249.416.373.773.373.387 0 .676-.194.866-.584v-2.4c-.199-.38-.486-.57-.861-.57-.358 0-.615.125-.773.377-.159.25-.24.633-.242 1.151v.475zm5.55 2.237c-.592 0-1.046-.176-1.362-.528-.317-.354-.478-.873-.484-1.555v-.576c0-.709.154-1.264.462-1.665.31-.405.742-.607 1.296-.607.557 0 .973.178 1.248.532.276.355.416.907.422 1.657v.51H40.07v.11c0 .51.095.88.285 1.111.194.232.47.347.831.347.229 0 .43-.042.602-.127a1.52 1.52 0 00.492-.413l.405.492c-.337.475-.852.712-1.543.712zm-.088-4.263c-.322 0-.56.111-.716.334-.155.22-.243.563-.264 1.029h1.872v-.106c-.02-.451-.102-.773-.246-.967-.14-.193-.356-.29-.646-.29zm4.57.15a1.893 1.893 0 00-.351-.031c-.399 0-.677.218-.835.655V44h-.778v-4.755h.756l.013.483c.208-.38.503-.57.883-.57.123 0 .226.02.308.06l.005.757zm3.09 2.808a.574.574 0 00-.19-.43c-.125-.121-.368-.262-.729-.423-.419-.173-.714-.32-.887-.444a1.279 1.279 0 01-.383-.417 1.172 1.172 0 01-.127-.563c0-.386.14-.707.422-.962.284-.258.646-.387 1.085-.387.463 0 .835.135 1.117.405.28.27.421.615.421 1.037h-.773a.758.758 0 00-.215-.545.722.722 0 00-.55-.229c-.228 0-.408.06-.54.18a.61.61 0 00-.194.475c0 .158.047.286.141.382.097.097.327.224.69.383.577.225.97.446 1.178.663.208.214.312.486.312.818 0 .413-.142.744-.427.993-.284.246-.665.369-1.142.369-.495 0-.897-.142-1.204-.426a1.408 1.408 0 01-.462-1.081h.783c.008.263.089.47.241.62.153.149.367.223.642.223.258 0 .454-.057.589-.171a.592.592 0 00.202-.47zm2.812-4.69v1.152h.717v.629h-.717v2.948c0 .188.031.33.093.426.061.097.167.146.316.146a.982.982 0 00.312-.053l-.009.659a1.698 1.698 0 01-.54.088c-.308 0-.542-.11-.703-.33-.161-.22-.242-.53-.242-.931v-2.953h-.725v-.629h.725v-1.151h.773zM55.618 44c-.047-.102-.08-.275-.101-.519-.276.405-.627.607-1.055.607-.43 0-.768-.12-1.01-.36-.241-.244-.361-.585-.361-1.024 0-.484.164-.868.492-1.152.328-.284.778-.429 1.35-.435h.57v-.505c0-.284-.063-.486-.188-.607-.127-.12-.318-.18-.576-.18a.79.79 0 00-.572.211.692.692 0 00-.22.527h-.777c0-.243.072-.474.215-.694.144-.222.337-.397.58-.523a1.74 1.74 0 01.813-.189c.487 0 .856.122 1.108.365.255.24.385.592.39 1.055v2.4c.004.365.054.683.15.953V44h-.808zm-1.037-.62c.19 0 .372-.052.544-.158a.976.976 0 00.378-.395v-1.134h-.439c-.37.006-.66.09-.874.25-.214.159-.321.381-.321.668 0 .27.054.466.162.59.109.12.292.18.55.18zm3.638-4.135l.022.514c.302-.401.687-.602 1.156-.602.84 0 1.267.561 1.279 1.683V44h-.774v-3.124c0-.373-.063-.636-.189-.791-.123-.159-.309-.238-.558-.238a.798.798 0 00-.523.194 1.405 1.405 0 00-.369.505V44h-.778v-4.755h.734zm3.463 2.162c0-.732.136-1.29.409-1.674.275-.384.67-.576 1.182-.576.454 0 .809.185 1.063.554V37.25h.778V44h-.712l-.04-.51c-.254.399-.619.598-1.093.598-.493 0-.88-.19-1.16-.571-.279-.384-.421-.925-.427-1.622v-.488zm.778.444c0 .533.08.926.237 1.178.158.249.416.373.774.373.386 0 .675-.194.865-.584v-2.4c-.199-.38-.486-.57-.86-.57-.358 0-.616.125-.774.377-.158.25-.24.633-.242 1.151v.475zm6.693-2.118c.296-.384.674-.576 1.134-.576.84 0 1.267.561 1.278 1.683V44h-.773v-3.124c0-.373-.063-.636-.189-.791-.123-.159-.31-.238-.558-.238a.797.797 0 00-.523.194 1.405 1.405 0 00-.37.505V44h-.777v-6.75h.778v2.483zm3.41 1.67c0-.692.167-1.238.501-1.64.337-.404.78-.606 1.332-.606.55 0 .993.197 1.327.59.337.392.51.926.518 1.603v.501c0 .689-.167 1.233-.5 1.635-.335.401-.78.602-1.337.602-.55 0-.993-.195-1.327-.585-.33-.39-.502-.917-.514-1.582v-.518zm.778.448c0 .49.095.875.285 1.156a.902.902 0 00.778.417c.686 0 1.039-.495 1.06-1.485v-.536c0-.486-.097-.87-.29-1.151-.194-.285-.453-.427-.779-.427-.319 0-.575.142-.769.426-.19.282-.285.664-.285 1.147v.453zm7.449.782l.72-3.388h.77L81.114 44h-.62l-.927-3.401L78.663 44h-.624l-1.156-4.755h.764l.739 3.305.883-3.305h.615l.906 3.388zm8.494-.663c-.035.685-.228 1.21-.58 1.573-.348.363-.842.545-1.48.545-.642 0-1.152-.243-1.53-.73-.378-.489-.567-1.151-.567-1.986v-1.16c0-.832.193-1.49.58-1.973.39-.484.92-.725 1.59-.725.619 0 1.097.186 1.434.558.34.369.524.898.553 1.586h-.813c-.035-.521-.145-.893-.33-1.116-.184-.223-.465-.334-.843-.334-.437 0-.772.171-1.007.514-.234.34-.351.84-.351 1.499v1.173c0 .648.108 1.144.325 1.49.22.346.54.518.958.518.42 0 .72-.104.905-.312.185-.208.3-.581.343-1.12h.813zm4.06-.796h-2.161V44h-.805v-6.398h3.332v.694h-2.527v2.188h2.162v.69zM94.704 44v-6.398h1.525c.747 0 1.327.234 1.74.703.413.465.62 1.122.62 1.968v1.073c0 .846-.21 1.501-.629 1.964-.419.46-1.027.69-1.824.69h-1.432zm.804-5.704v5.014h.646c.565 0 .978-.161 1.24-.483.26-.325.393-.806.399-1.442v-1.133c0-.674-.13-1.168-.391-1.482-.258-.316-.649-.474-1.173-.474h-.721zm6.539 4.487a.574.574 0 00-.189-.43c-.126-.121-.369-.262-.73-.423-.419-.173-.714-.32-.887-.444a1.279 1.279 0 01-.383-.417 1.173 1.173 0 01-.127-.563c0-.386.14-.707.422-.962.284-.258.646-.387 1.085-.387.463 0 .835.135 1.117.405.281.27.421.615.421 1.037h-.773a.76.76 0 00-.215-.545.723.723 0 00-.55-.229c-.228 0-.408.06-.54.18a.61.61 0 00-.194.475c0 .158.047.286.141.382.097.097.327.224.69.383.577.225.97.446 1.178.663.208.214.312.486.312.818 0 .413-.142.744-.427.993-.284.246-.665.369-1.142.369-.495 0-.897-.142-1.204-.426a1.407 1.407 0 01-.462-1.081h.783c.008.263.089.47.241.62.153.149.366.223.642.223.258 0 .454-.057.589-.171a.591.591 0 00.202-.47zm7.405-.15l.72-3.388h.769L109.776 44h-.62l-.927-3.401-.905 3.401h-.624l-1.156-4.755h.765l.738 3.305.883-3.305h.615l.906 3.388zm2.144-1.23c0-.692.167-1.238.501-1.64.337-.404.781-.606 1.332-.606s.993.197 1.327.59c.337.392.51.926.518 1.603v.501c0 .689-.167 1.233-.501 1.635-.334.401-.779.602-1.335.602-.551 0-.994-.195-1.328-.585-.331-.39-.502-.917-.514-1.582v-.518zm.778.448c0 .49.095.875.286 1.156a.9.9 0 00.778.417c.685 0 1.038-.495 1.059-1.485v-.536c0-.486-.097-.87-.29-1.151-.194-.285-.453-.427-.778-.427-.32 0-.576.142-.769.426-.191.282-.286.664-.286 1.147v.453zm5.867-1.876a1.902 1.902 0 00-.352-.031c-.398 0-.677.218-.835.655V44h-.778v-4.755h.756l.013.483c.208-.38.503-.57.884-.57a.68.68 0 01.307.06l.005.757zm1.973 1.85l-.413.474V44h-.778v-6.75h.778v4.039l1.481-2.044h.931l-1.511 1.986L122.41 44h-.905l-1.292-2.175zM127.591 44c-.047-.102-.08-.275-.101-.519-.275.405-.627.607-1.054.607-.431 0-.768-.12-1.011-.36-.24-.244-.361-.585-.361-1.024 0-.484.165-.868.493-1.152.328-.284.777-.429 1.349-.435h.571v-.505c0-.284-.063-.486-.189-.607-.126-.12-.318-.18-.576-.18a.791.791 0 00-.571.211.694.694 0 00-.22.527h-.777c0-.243.071-.474.215-.694.143-.222.337-.397.58-.523a1.74 1.74 0 01.813-.189c.486 0 .855.122 1.107.365.255.24.386.592.391 1.055v2.4c.003.365.053.683.15.953V44h-.809zm-1.037-.62c.191 0 .372-.052.545-.158a.974.974 0 00.378-.395v-1.134h-.439c-.37.006-.661.09-.875.25-.214.159-.321.381-.321.668 0 .27.054.466.163.59.108.12.291.18.549.18zm3.639-4.135l.022.514c.302-.401.687-.602 1.156-.602.84 0 1.267.561 1.278 1.683V44h-.773v-3.124c0-.373-.063-.636-.189-.791-.123-.159-.309-.238-.558-.238a.798.798 0 00-.523.194 1.412 1.412 0 00-.369.505V44h-.778v-4.755h.734zm3.463 2.162c0-.732.136-1.29.408-1.674.276-.384.67-.576 1.183-.576.454 0 .808.185 1.063.554V37.25h.778V44h-.712l-.04-.51a1.222 1.222 0 01-1.094.598c-.492 0-.879-.19-1.16-.571-.278-.384-.42-.925-.426-1.622v-.488zm.778.444c0 .533.079.926.237 1.178.158.249.416.373.773.373.387 0 .676-.194.866-.584v-2.4c-.199-.38-.486-.57-.861-.57-.358 0-.616.125-.774.377-.158.25-.238.633-.241 1.151v.475zM15.126 52.633l.721-3.388h.77L15.451 54h-.62l-.927-3.401L13 54h-.624l-1.156-4.755h.764l.739 3.305.883-3.305h.615l.905 3.388zm3.085-2.9c.296-.384.674-.576 1.134-.576.841 0 1.267.561 1.279 1.683V54h-.773v-3.124c0-.373-.063-.636-.19-.791-.122-.159-.309-.238-.558-.238a.797.797 0 00-.522.194 1.405 1.405 0 00-.37.505V54h-.777v-6.75h.777v2.483zm5.274 4.355c-.592 0-1.046-.176-1.362-.528-.317-.354-.478-.873-.484-1.555v-.576c0-.709.154-1.264.462-1.665.31-.405.742-.607 1.296-.607.557 0 .973.178 1.248.532.275.355.416.907.422 1.657v.51h-2.654v.11c0 .51.095.88.285 1.111.194.232.47.347.83.347.23 0 .43-.042.603-.127a1.52 1.52 0 00.492-.413l.404.492c-.337.475-.85.712-1.542.712zm-.088-4.263c-.322 0-.561.111-.716.334-.156.22-.244.563-.264 1.029h1.872v-.106c-.02-.451-.103-.773-.246-.967-.14-.193-.356-.29-.646-.29zm3.626-1.731v1.151h.716v.629h-.716v2.948c0 .188.03.33.092.426.061.097.167.146.316.146a.982.982 0 00.312-.053l-.009.659a1.699 1.699 0 01-.54.088c-.308 0-.542-.11-.703-.33-.161-.22-.242-.53-.242-.931v-2.953h-.725v-.629h.725v-1.151h.774zm2.42 1.639c.297-.384.675-.576 1.135-.576.84 0 1.267.561 1.278 1.683V54h-.773v-3.124c0-.373-.063-.636-.189-.791-.123-.159-.309-.238-.558-.238a.798.798 0 00-.523.194 1.405 1.405 0 00-.37.505V54h-.777v-6.75h.778v2.483zm5.274 4.355c-.591 0-1.046-.176-1.362-.528-.316-.354-.478-.873-.483-1.555v-.576c0-.709.153-1.264.461-1.665.31-.405.743-.607 1.296-.607.557 0 .973.178 1.248.532.276.355.416.907.422 1.657v.51h-2.654v.11c0 .51.095.88.286 1.111.193.232.47.347.83.347.229 0 .43-.042.602-.127a1.52 1.52 0 00.492-.413l.405.492c-.337.475-.851.712-1.543.712zm-.088-4.263c-.322 0-.56.111-.716.334-.155.22-.243.563-.264 1.029h1.873v-.106c-.021-.451-.103-.773-.247-.967-.14-.193-.356-.29-.646-.29zm4.57.15a1.893 1.893 0 00-.35-.031c-.4 0-.678.218-.836.655V54h-.778v-4.755h.756l.013.483c.208-.38.503-.57.884-.57.123 0 .225.02.307.06l.005.757zm4.145 2.733l.865-3.463h.827l-1.556 5.427c-.117.408-.283.717-.497.928-.213.213-.457.32-.73.32-.105 0-.24-.023-.403-.07v-.66l.171.019c.226 0 .401-.055.527-.163.13-.106.233-.29.312-.554l.154-.532-1.397-4.715h.848l.879 3.463zm2.29-1.305c0-.692.166-1.238.5-1.64.337-.404.781-.606 1.332-.606.55 0 .993.197 1.327.59.337.392.51.926.519 1.603v.501c0 .689-.167 1.233-.502 1.635-.333.401-.779.602-1.335.602-.551 0-.994-.195-1.328-.585-.33-.39-.502-.917-.514-1.582v-.518zm.777.448c0 .49.095.875.286 1.156a.902.902 0 00.778.417c.685 0 1.038-.495 1.059-1.485v-.536c0-.486-.097-.87-.29-1.151-.194-.285-.453-.427-.778-.427-.32 0-.576.142-.77.426-.19.282-.285.664-.285 1.147v.453zm6.328 1.732c-.258.336-.634.505-1.13.505-.43 0-.755-.148-.975-.444-.22-.299-.33-.732-.334-1.3v-3.099h.774v3.041c0 .741.222 1.112.668 1.112.471 0 .797-.211.975-.633v-3.52h.778V54h-.738l-.018-.417zm5.643-.159c.258 0 .464-.079.62-.237.155-.161.24-.39.254-.685h.734a1.62 1.62 0 01-.488 1.138 1.539 1.539 0 01-1.12.448c-.589 0-1.039-.185-1.35-.554-.307-.372-.46-.924-.46-1.657v-.523c0-.717.153-1.262.46-1.634.308-.375.757-.563 1.345-.563.487 0 .872.154 1.156.462.287.307.44.728.457 1.26h-.734c-.017-.35-.102-.614-.255-.79-.149-.176-.357-.264-.624-.264-.345 0-.602.114-.769.343-.167.226-.253.598-.259 1.116v.607c0 .56.082.955.246 1.186.167.232.43.347.787.347zm4.953.576c-.047-.102-.081-.275-.102-.519-.275.405-.627.607-1.054.607-.431 0-.768-.12-1.011-.36-.24-.244-.36-.585-.36-1.024 0-.484.164-.868.492-1.152.328-.284.778-.429 1.349-.435h.571v-.505c0-.284-.063-.486-.189-.607-.126-.12-.318-.18-.575-.18a.79.79 0 00-.572.211.692.692 0 00-.22.527h-.777c0-.243.072-.474.215-.694.144-.222.337-.397.58-.523a1.74 1.74 0 01.813-.189c.486 0 .856.122 1.108.365.254.24.385.592.39 1.055v2.4c.004.365.053.683.15.953V54h-.809zm-1.038-.62c.19 0 .372-.052.545-.158a.976.976 0 00.378-.395v-1.134h-.44c-.368.006-.66.09-.874.25-.214.159-.32.381-.32.668 0 .27.054.466.162.59.108.12.292.18.55.18zm3.639-4.135l.022.514c.302-.401.687-.602 1.156-.602.84 0 1.267.561 1.279 1.683V54h-.774v-3.124c0-.373-.063-.636-.189-.791-.123-.159-.309-.238-.558-.238a.798.798 0 00-.523.194 1.405 1.405 0 00-.369.505V54h-.778v-4.755h.734zM74.075 54c-.047-.102-.08-.275-.101-.519-.276.405-.627.607-1.055.607-.43 0-.768-.12-1.01-.36-.241-.244-.361-.585-.361-1.024 0-.484.164-.868.492-1.152.328-.284.778-.429 1.35-.435h.57v-.505c0-.284-.063-.486-.188-.607-.127-.12-.318-.18-.576-.18a.79.79 0 00-.572.211.692.692 0 00-.22.527h-.777c0-.243.072-.474.215-.694.144-.222.337-.397.58-.523a1.74 1.74 0 01.813-.189c.487 0 .856.122 1.108.365.255.24.385.592.39 1.055v2.4c.004.365.054.683.15.953V54h-.808zm-1.037-.62c.19 0 .372-.052.544-.158a.975.975 0 00.378-.395v-1.134h-.439c-.37.006-.66.09-.874.25-.214.159-.321.381-.321.668 0 .27.054.466.162.59.109.12.292.18.55.18zm3.247.62v-4.127h-.62v-.628h.62v-.55c.009-.483.13-.86.365-1.129.237-.272.571-.408 1.002-.408.155 0 .312.025.47.074l-.04.66a1.54 1.54 0 00-.355-.04c-.443 0-.664.315-.664.945v.448h.813v.629h-.813V54h-.778zm2.848 0v-4.127h-.62v-.628h.62v-.55c.009-.483.13-.86.365-1.129.237-.272.57-.408 1.001-.408.156 0 .313.025.47.074l-.039.66a1.54 1.54 0 00-.356-.04c-.442 0-.663.315-.663.945v.448h.813v.629h-.813V54h-.778zm2.342-2.597c0-.692.167-1.238.501-1.64.337-.404.78-.606 1.332-.606.55 0 .993.197 1.327.59.337.392.51.926.518 1.603v.501c0 .689-.167 1.233-.5 1.635-.335.401-.78.602-1.337.602-.55 0-.993-.195-1.327-.585-.33-.39-.502-.917-.514-1.582v-.518zm.778.448c0 .49.095.875.286 1.156a.902.902 0 00.777.417c.686 0 1.039-.495 1.06-1.485v-.536c0-.486-.097-.87-.29-1.151-.194-.285-.453-.427-.778-.427-.32 0-.576.142-.77.426-.19.282-.285.664-.285 1.147v.453zm5.867-1.876a1.893 1.893 0 00-.352-.031c-.398 0-.677.218-.835.655V54h-.778v-4.755h.756l.013.483c.208-.38.503-.57.884-.57.123 0 .225.02.307.06l.005.757zm.615 1.432c0-.732.136-1.29.409-1.674.275-.384.669-.576 1.182-.576.454 0 .808.185 1.063.554V47.25h.778V54h-.712l-.04-.51c-.254.399-.62.598-1.094.598-.492 0-.879-.19-1.16-.571-.278-.384-.42-.925-.426-1.622v-.488zm.778.444c0 .533.079.926.237 1.178.158.249.416.373.773.373.387 0 .676-.194.866-.584v-2.4c-.2-.38-.486-.57-.861-.57-.358 0-.615.125-.774.377-.158.25-.238.633-.241 1.151v.475zm6.934-3.757v1.151h.717v.629h-.717v2.948c0 .188.031.33.093.426.061.097.166.146.316.146a.982.982 0 00.312-.053l-.009.659a1.698 1.698 0 01-.54.088c-.308 0-.542-.11-.704-.33-.16-.22-.241-.53-.241-.931v-2.953h-.725v-.629h.725v-1.151h.773zm1.393 3.309c0-.692.167-1.238.501-1.64.337-.404.781-.606 1.332-.606s.993.197 1.327.59c.337.392.51.926.519 1.603v.501c0 .689-.167 1.233-.501 1.635-.334.401-.78.602-1.336.602-.551 0-.993-.195-1.328-.585-.33-.39-.502-.917-.514-1.582v-.518zm.778.448c0 .49.095.875.286 1.156a.902.902 0 00.778.417c.685 0 1.038-.495 1.059-1.485v-.536c0-.486-.097-.87-.29-1.151-.194-.285-.453-.427-.778-.427-.32 0-.576.142-.77.426-.19.282-.285.664-.285 1.147v.453zm6.987-3.757v1.151h.717v.629h-.717v2.948c0 .188.031.33.093.426.061.097.167.146.316.146a.977.977 0 00.312-.053l-.009.659a1.694 1.694 0 01-.54.088c-.308 0-.542-.11-.703-.33-.161-.22-.242-.53-.242-.931v-2.953h-.725v-.629h.725v-1.151h.773zM109.697 54c-.047-.102-.081-.275-.101-.519-.276.405-.627.607-1.055.607-.431 0-.768-.12-1.011-.36-.24-.244-.36-.585-.36-1.024 0-.484.164-.868.492-1.152.328-.284.778-.429 1.349-.435h.572v-.505c0-.284-.063-.486-.189-.607-.126-.12-.318-.18-.576-.18a.788.788 0 00-.571.211.69.69 0 00-.22.527h-.778c0-.243.072-.474.215-.694.144-.222.337-.397.58-.523.244-.126.515-.189.813-.189.487 0 .856.122 1.108.365.255.24.385.592.391 1.055v2.4c.003.365.053.683.149.953V54h-.808zm-1.037-.62c.19 0 .372-.052.545-.158a.988.988 0 00.378-.395v-1.134h-.44c-.369.006-.661.09-.874.25-.214.159-.321.381-.321.668 0 .27.054.466.162.59.109.12.292.18.55.18zm4.1-1.555l-.413.474V54h-.778v-6.75h.778v4.039l1.481-2.044h.931l-1.511 1.986L114.957 54h-.905l-1.292-2.175zm4.566 2.263c-.592 0-1.046-.176-1.363-.528-.316-.354-.477-.873-.483-1.555v-.576c0-.709.154-1.264.461-1.665.311-.405.743-.607 1.297-.607.556 0 .972.178 1.248.532.275.355.416.907.422 1.657v.51h-2.655v.11c0 .51.096.88.286 1.111.193.232.47.347.831.347.228 0 .429-.042.602-.127.175-.088.34-.226.492-.413l.404.492c-.337.475-.851.712-1.542.712zm-.088-4.263c-.322 0-.561.111-.717.334-.155.22-.243.563-.263 1.029h1.872v-.106c-.021-.451-.103-.773-.246-.967-.141-.193-.356-.29-.646-.29zm5.691-1.731v1.151h.716v.629h-.716v2.948c0 .188.03.33.092.426.062.097.167.146.316.146a.977.977 0 00.312-.053l-.008.659a1.7 1.7 0 01-.541.088c-.308 0-.542-.11-.703-.33-.161-.22-.242-.53-.242-.931v-2.953h-.725v-.629h.725v-1.151h.774zm2.421 1.639c.296-.384.674-.576 1.134-.576.841 0 1.267.561 1.279 1.683V54h-.774v-3.124c0-.373-.063-.636-.189-.791-.123-.159-.309-.238-.558-.238a.8.8 0 00-.523.194 1.412 1.412 0 00-.369.505V54h-.778v-6.75h.778v2.483zm5.274 4.355c-.592 0-1.046-.176-1.363-.528-.316-.354-.477-.873-.483-1.555v-.576c0-.709.154-1.264.461-1.665.311-.405.743-.607 1.297-.607.556 0 .972.178 1.248.532.275.355.416.907.422 1.657v.51h-2.655v.11c0 .51.095.88.286 1.111.193.232.47.347.83.347.229 0 .43-.042.603-.127.175-.088.339-.226.492-.413l.404.492c-.337.475-.851.712-1.542.712zm-.088-4.263c-.323 0-.561.111-.717.334-.155.22-.243.563-.263 1.029h1.872v-.106c-.021-.451-.103-.773-.246-.967-.141-.193-.356-.29-.646-.29zM12.358 59.733c.296-.384.674-.576 1.134-.576.84 0 1.267.561 1.278 1.683V64h-.773v-3.124c0-.373-.063-.636-.189-.791-.123-.159-.309-.238-.558-.238a.797.797 0 00-.523.194 1.405 1.405 0 00-.37.505V64h-.777v-6.75h.778v2.483zM16.77 64h-.778v-4.755h.778V64zm.061-6.016a.498.498 0 01-.11.33c-.073.087-.184.131-.333.131-.147 0-.257-.044-.33-.132a.498.498 0 01-.11-.33c0-.13.037-.242.11-.333.073-.09.183-.136.33-.136.146 0 .256.046.33.14.076.091.113.201.113.33zm1.011 3.423c0-.741.135-1.3.405-1.678.27-.381.663-.572 1.182-.572.483 0 .85.207 1.103.62l.04-.532h.702v4.799c0 .589-.15 1.04-.452 1.353-.302.317-.722.475-1.261.475a2.16 2.16 0 01-.791-.176c-.29-.114-.509-.256-.655-.426l.316-.536c.322.316.678.475 1.068.475.648 0 .98-.353.998-1.06v-.62c-.252.373-.61.559-1.073.559-.492 0-.876-.185-1.151-.554-.275-.372-.419-.905-.43-1.6v-.527zm.778.444c0 .533.078.926.233 1.178.158.249.416.373.773.373.387 0 .677-.197.87-.593v-2.377c-.202-.39-.489-.585-.86-.585-.358 0-.616.126-.774.378-.158.25-.239.633-.242 1.151v.475zm4.592-2.118c.296-.384.674-.576 1.134-.576.841 0 1.267.561 1.279 1.683V64h-.773v-3.124c0-.373-.063-.636-.19-.791-.122-.159-.308-.238-.557-.238a.798.798 0 00-.524.194 1.406 1.406 0 00-.369.505V64h-.777v-6.75h.777v2.483zm7.603.242a1.892 1.892 0 00-.352-.031c-.398 0-.676.218-.835.655V64h-.777v-4.755h.755l.014.483c.208-.38.502-.57.883-.57.123 0 .226.02.308.06l.004.757zM32.432 64h-.778v-4.755h.778V64zm.062-6.016a.498.498 0 01-.11.33c-.074.087-.185.131-.334.131-.147 0-.256-.044-.33-.132a.498.498 0 01-.11-.33c0-.13.037-.242.11-.333.074-.09.183-.136.33-.136.146 0 .256.046.33.14.076.091.114.201.114.33zm3.476 4.799a.575.575 0 00-.19-.43c-.125-.121-.368-.262-.729-.423-.419-.173-.715-.32-.887-.444a1.279 1.279 0 01-.383-.417 1.173 1.173 0 01-.127-.563c0-.386.14-.707.422-.962.284-.258.646-.387 1.085-.387.463 0 .835.135 1.116.405.282.27.422.615.422 1.037h-.773a.757.757 0 00-.216-.545.722.722 0 00-.549-.229c-.228 0-.409.06-.54.18a.61.61 0 00-.194.475c0 .158.047.286.14.382.098.097.328.224.69.383.578.225.97.446 1.178.663.209.214.313.486.313.818 0 .413-.142.744-.427.993-.284.246-.665.369-1.142.369-.495 0-.897-.142-1.204-.426a1.408 1.408 0 01-.462-1.081h.782c.01.263.09.47.242.62.153.149.366.223.642.223.258 0 .454-.057.589-.171a.592.592 0 00.202-.47zm2.988-.958l-.413.474V64h-.778v-6.75h.778v4.039l1.48-2.044h.933l-1.512 1.986L41.156 64h-.906l-1.292-2.175zm4.768-.422c0-.692.167-1.238.501-1.64.337-.404.78-.606 1.332-.606.55 0 .993.197 1.327.59.337.392.51.926.518 1.603v.501c0 .689-.167 1.233-.5 1.635-.335.401-.78.602-1.337.602-.55 0-.993-.195-1.327-.585-.33-.39-.502-.917-.514-1.582v-.518zm.778.448c0 .49.095.875.286 1.156a.902.902 0 00.777.417c.686 0 1.039-.495 1.06-1.485v-.536c0-.486-.097-.87-.29-1.151-.194-.285-.453-.427-.778-.427-.32 0-.576.142-.77.426-.19.282-.285.664-.285 1.147v.453zM48.749 64v-4.127h-.62v-.628h.62v-.55c.009-.483.13-.86.365-1.129.237-.272.571-.408 1.002-.408.155 0 .312.025.47.074l-.04.66a1.54 1.54 0 00-.356-.04c-.442 0-.663.315-.663.945v.448h.813v.629h-.813V64h-.778zm5.41 0h-.778v-6.75h.778V64zm1.063-2.597c0-.692.167-1.238.501-1.64.337-.404.78-.606 1.332-.606.55 0 .993.197 1.327.59.337.392.51.926.518 1.603v.501c0 .689-.167 1.233-.5 1.635-.335.401-.78.602-1.337.602-.55 0-.993-.195-1.327-.585-.33-.39-.502-.917-.514-1.582v-.518zm.778.448c0 .49.095.875.286 1.156a.902.902 0 00.777.417c.686 0 1.04-.495 1.06-1.485v-.536c0-.486-.097-.87-.29-1.151-.194-.285-.453-.427-.778-.427-.32 0-.576.142-.77.426-.19.282-.285.664-.285 1.147v.453zm6.214.932a.574.574 0 00-.19-.43c-.125-.121-.368-.262-.729-.423-.419-.173-.714-.32-.887-.444a1.279 1.279 0 01-.383-.417 1.172 1.172 0 01-.127-.563c0-.386.14-.707.422-.962.284-.258.646-.387 1.085-.387.463 0 .835.135 1.117.405.28.27.421.615.421 1.037h-.773a.758.758 0 00-.215-.545.722.722 0 00-.55-.229c-.228 0-.408.06-.54.18a.61.61 0 00-.194.475c0 .158.047.286.141.382.097.097.327.224.69.383.577.225.97.446 1.178.663.208.214.312.486.312.818 0 .413-.142.744-.427.993-.284.246-.665.369-1.142.369-.495 0-.897-.142-1.204-.426a1.408 1.408 0 01-.462-1.081h.783c.008.263.089.47.241.62.153.149.367.223.642.223.258 0 .454-.057.589-.171a.592.592 0 00.202-.47zM64.846 64h-.778v-4.755h.778V64zm.062-6.016a.498.498 0 01-.11.33c-.073.087-.185.131-.334.131-.147 0-.257-.044-.33-.132a.497.497 0 01-.11-.33c0-.13.037-.242.11-.333.073-.09.183-.136.33-.136.146 0 .256.046.33.14.076.091.114.201.114.33zm1.898 1.261l.022.514c.302-.401.687-.602 1.156-.602.84 0 1.267.561 1.279 1.683V64h-.774v-3.124c0-.373-.063-.636-.189-.791-.123-.159-.309-.238-.558-.238a.798.798 0 00-.523.194 1.405 1.405 0 00-.369.505V64h-.778v-4.755h.734zm3.472 2.162c0-.741.135-1.3.404-1.678.27-.381.664-.572 1.182-.572.484 0 .851.207 1.103.62l.04-.532h.703v4.799c0 .589-.15 1.04-.453 1.353-.301.317-.722.475-1.26.475-.235 0-.499-.058-.792-.176-.29-.114-.508-.256-.655-.426l.317-.536c.322.316.678.475 1.068.475.647 0 .98-.353.997-1.06v-.62c-.252.373-.61.559-1.072.559-.492 0-.876-.185-1.151-.554-.276-.372-.42-.905-.431-1.6v-.527zm.778.444c0 .533.077.926.233 1.178.158.249.416.373.773.373.387 0 .677-.197.87-.593v-2.377c-.202-.39-.49-.585-.861-.585-.358 0-.615.126-.774.378-.158.25-.238.633-.241 1.151v.475zm7.18.857l.866-3.463h.826l-1.555 5.427c-.118.408-.283.717-.497.928-.214.214-.457.32-.73.32-.105 0-.24-.023-.404-.07v-.66l.172.019c.225 0 .4-.055.527-.163.129-.106.233-.29.312-.554l.154-.532-1.398-4.715h.848l.88 3.463zm2.29-1.305c0-.692.167-1.238.5-1.64.338-.404.782-.606 1.332-.606.551 0 .994.197 1.328.59.336.392.51.926.518 1.603v.501c0 .689-.167 1.233-.5 1.635-.335.401-.78.602-1.337.602-.55 0-.993-.195-1.327-.585-.331-.39-.502-.917-.514-1.582v-.518zm.778.448c0 .49.095.875.285 1.156a.902.902 0 00.778.417c.686 0 1.039-.495 1.06-1.485v-.536c0-.486-.097-.87-.29-1.151-.194-.285-.453-.427-.779-.427-.319 0-.575.142-.769.426-.19.282-.285.664-.285 1.147v.453zm6.328 1.732c-.258.336-.634.505-1.13.505-.43 0-.755-.148-.975-.444-.22-.299-.331-.732-.334-1.3v-3.099h.773v3.041c0 .741.223 1.112.668 1.112.472 0 .797-.211.976-.633v-3.52h.778V64h-.739l-.017-.417zm3.889-3.608a1.893 1.893 0 00-.352-.031c-.398 0-.676.218-.834.655V64h-.778v-4.755h.755l.014.483c.208-.38.502-.57.883-.57.123 0 .226.02.308.06l.004.757zm3.577-.73l.018.44c.29-.352.672-.528 1.147-.528.53 0 .9.23 1.111.69.3-.46.715-.69 1.249-.69.876 0 1.324.547 1.344 1.64V64h-.773v-3.129c0-.346-.062-.602-.185-.769-.123-.17-.33-.255-.624-.255a.7.7 0 00-.571.273 1.242 1.242 0 00-.255.694V64h-.782v-3.164c-.009-.66-.277-.989-.804-.989-.393 0-.67.197-.83.589V64h-.774v-4.755h.73zm5.88 2.158c0-.692.167-1.238.501-1.64.337-.404.781-.606 1.332-.606.55 0 .993.197 1.327.59.337.392.509.926.518 1.603v.501c0 .689-.167 1.233-.501 1.635-.334.401-.779.602-1.336.602-.55 0-.993-.195-1.327-.585-.331-.39-.502-.917-.514-1.582v-.518zm.778.448c0 .49.095.875.286 1.156a.9.9 0 00.777.417c.686 0 1.039-.495 1.059-1.485v-.536c0-.486-.096-.87-.29-1.151-.193-.285-.452-.427-.777-.427-.32 0-.576.142-.769.426-.191.282-.286.664-.286 1.147v.453zm4.636-2.606l.022.514c.302-.401.687-.602 1.156-.602.841 0 1.267.561 1.279 1.683V64h-.774v-3.124c0-.373-.063-.636-.189-.791-.123-.159-.309-.238-.558-.238a.798.798 0 00-.523.194 1.412 1.412 0 00-.369.505V64h-.778v-4.755h.734zm5.326 4.843c-.592 0-1.046-.176-1.362-.527-.316-.355-.478-.873-.483-1.556v-.576c0-.709.153-1.264.461-1.665.311-.405.743-.607 1.296-.607.557 0 .973.178 1.248.532.276.355.416.907.422 1.657v.51h-2.654v.11c0 .51.095.88.286 1.111.193.232.47.347.83.347.229 0 .429-.042.602-.127.176-.088.34-.226.492-.413l.405.492c-.337.475-.851.712-1.543.712zm-.088-4.263c-.322 0-.561.111-.716.334-.155.22-.243.563-.264 1.029h1.872v-.106c-.02-.451-.102-.773-.246-.967-.14-.193-.356-.29-.646-.29zm3.907 2.883l.866-3.463h.826l-1.556 5.427c-.117.408-.282.717-.496.928-.214.214-.457.32-.73.32-.105 0-.24-.023-.404-.07v-.66l.171.019c.226 0 .402-.055.528-.163.129-.106.233-.29.312-.554l.154-.532-1.398-4.715h.848l.879 3.463zm2.505.866c0-.14.041-.258.123-.352.085-.094.211-.14.378-.14s.293.046.378.14c.088.094.132.211.132.352a.467.467 0 01-.132.338c-.085.09-.211.136-.378.136s-.293-.045-.378-.136a.486.486 0 01-.123-.338z" fill="#000"/></svg>