<svg width="160" height="40" viewBox="0 0 160 40" fill="none" xmlns="http://www.w3.org/2000/svg"><path fill="#fff" d="M0 0h160v40H0z"/><path d="M21 11.404h13.433v4.177h-8.77v2.91h7.927v3.961h-7.928v6.117H21V11.404z" fill="#12225C"/><path fill-rule="evenodd" clip-rule="evenodd" d="M57.476 11.404h8.038c2.59 0 4.406.7 5.554 1.86.988.97 1.495 2.317 1.495 3.988v.053c0 2.614-1.388 4.366-3.498 5.282l4.059 5.982h-5.447l-3.418-5.2H62.175v5.2H57.45V11.404h.027zM65.3 19.65c1.602 0 2.537-.782 2.537-2.048v-.054c0-1.347-.962-2.048-2.564-2.048h-3.097v4.123H65.3v.027z" fill="#12225C"/><path d="M74.767 11.404H88.28v4.042h-8.903v2.614h8.06v3.745h-8.06v2.722h9.008v4.042H74.767V11.404zM95.68 19.838l-5.53-8.434h5.346l2.977 4.823 3.002-4.823h5.216l-5.505 8.38 5.768 8.785h-5.347l-3.213-5.174-3.24 5.174h-5.242l5.769-8.73zM111.511 20.43c0-1.966 1.475-3.61 3.582-3.61 1.37 0 2.292.62 2.871 1.536l-1.607 1.213c-.316-.459-.684-.728-1.238-.728-.763 0-1.317.674-1.317 1.509v.027c0 .89.554 1.563 1.344 1.563.553 0 .922-.27 1.29-.7l1.581 1.158c-.632.943-1.502 1.563-2.977 1.563-2.054.027-3.529-1.59-3.529-3.53" fill="#12225C"/><path fill-rule="evenodd" clip-rule="evenodd" d="M119.427 20.43c0-1.966 1.575-3.61 3.765-3.61 2.163 0 3.739 1.617 3.739 3.557v.027c0 1.94-1.576 3.584-3.766 3.584-2.163 0-3.738-1.617-3.738-3.557m5.18 0c0-.862-.614-1.563-1.441-1.563-.855 0-1.416.7-1.416 1.509v.027c0 .835.614 1.536 1.442 1.536.881 0 1.415-.7 1.415-1.51" fill="#12225C"/><path d="M128.201 16.955h2.344v.943c.421-.566 1.054-1.078 2.002-1.078.895 0 1.58.404 1.923 1.105.579-.674 1.264-1.105 2.238-1.105 1.423 0 2.292.916 2.292 2.506v4.5h-2.344v-3.745c0-.755-.369-1.132-.922-1.132s-.975.404-.975 1.132v3.718h-2.318v-3.718c0-.755-.368-1.132-.921-1.132-.554 0-.949.404-.949 1.132v3.718h-2.344v-6.844h-.026z" fill="#12225C"/><path fill-rule="evenodd" clip-rule="evenodd" d="M53.39 19.946c0-.173-.003-.343-.01-.512h2.013l.534-1.563h-2.71C52.473 13.596 49.36 11 44.659 11c-5.288 0-8.706 3.557-8.706 9.054 0 5.55 3.312 8.973 8.706 8.946 4.396 0 7.516-2.442 8.443-6.44h1.837l.561-1.563h-2.154c.03-.342.045-.692.045-1.05zm-8.624 6.575c-2.724 0-3.792-2.91-3.792-6.521 0-3.61.854-6.494 3.605-6.521 2.163 0 3.281 1.82 3.65 4.392h-2.342l-.534 1.563h3.008a20.663 20.663 0 01-.014 1.563H45.46l-.561 1.563h3.294c-.37 2.342-1.367 3.96-3.428 3.96z" fill="#14964F"/><path d="M108.245 22.533c0-.35.132-.62.369-.89.237-.242.527-.377.869-.377.342 0 .632.135.869.377.237.243.369.54.369.89s-.132.646-.369.889c-.237.242-.527.35-.869.35-.342 0-.632-.108-.869-.35-.263-.216-.369-.512-.369-.89" fill="#12225C"/></svg>