<svg width="133" height="241" viewBox="0 0 133 241" fill="none" xmlns="http://www.w3.org/2000/svg"><path d="M5.184 23.024L8.256 23l3.72-12.624L15.48 23h3.096L23.52 6.32h-2.928l-3.48 13.512-3.48-13.512H10.56L6.816 19.904 3.36 6.32H.456l4.728 16.704zM25.777 23h2.736v-7.392c0-2.424 1.32-3.672 3.336-3.672 1.992 0 3.312 1.248 3.312 3.672V23h2.712v-7.8c0-3.696-2.304-5.64-5.256-5.64-1.704 0-3.192.648-4.104 1.752V5.24h-2.736V23zm15.585 0h2.736V9.776h-2.736V23zm1.392-14.976c.96 0 1.729-.768 1.729-1.752s-.768-1.752-1.728-1.752c-.985 0-1.753.768-1.753 1.752s.768 1.752 1.752 1.752zm4.025 8.352c0 4.152 2.688 6.84 6.48 6.84 3.24 0 5.352-1.8 6.096-4.392h-2.952c-.504 1.368-1.512 2.088-3.144 2.088-2.208 0-3.672-1.632-3.672-4.536 0-2.88 1.464-4.512 3.672-4.512 1.632 0 2.688.816 3.144 2.088h2.952c-.744-2.784-2.856-4.392-6.096-4.392-3.792 0-6.48 2.688-6.48 6.816zM62.08 23h2.736v-7.392c0-2.424 1.32-3.672 3.336-3.672 1.992 0 3.312 1.248 3.312 3.672V23h2.712v-7.8c0-3.696-2.304-5.64-5.256-5.64-1.704 0-3.192.648-4.104 1.752V5.24h-2.736V23zm31.685-3.696c-.144-4.776-7.608-3.288-7.608-5.952 0-.888.768-1.488 2.232-1.488 1.488 0 2.376.792 2.472 1.944h2.736c-.144-2.64-2.112-4.248-5.112-4.248-3.12 0-5.088 1.704-5.088 3.816 0 4.848 7.68 3.36 7.68 5.952 0 .912-.84 1.584-2.424 1.584-1.512 0-2.544-.888-2.64-1.968h-2.832c.12 2.4 2.352 4.272 5.52 4.272 3.12 0 5.064-1.68 5.064-3.912zM96.722 23h2.736V9.776h-2.736V23zm1.392-14.976c.96 0 1.728-.768 1.728-1.752s-.768-1.752-1.728-1.752c-.984 0-1.752.768-1.752 1.752s.768 1.752 1.752 1.752zm4.024 8.304c0 4.08 2.76 6.888 6.24 6.888 2.16 0 3.744-1.008 4.584-2.208V23h2.76V5.24h-2.76v6.384c-1.008-1.248-2.832-2.064-4.56-2.064-3.504 0-6.264 2.688-6.264 6.768zm10.824.048c0 2.856-1.944 4.464-4.008 4.464-2.04 0-4.008-1.656-4.008-4.512s1.968-4.392 4.008-4.392c2.064 0 4.008 1.608 4.008 4.44zm11.922-4.512c2.04 0 3.648 1.296 3.696 3.336h-7.32c.288-2.088 1.776-3.336 3.624-3.336zm6.192 7.2h-2.952c-.504 1.032-1.44 1.848-3.12 1.848-2.016 0-3.576-1.32-3.768-3.504h10.104a8.44 8.44 0 00.096-1.344c0-3.888-2.664-6.504-6.432-6.504-3.912 0-6.6 2.664-6.6 6.816 0 4.152 2.808 6.84 6.6 6.84 3.24 0 5.328-1.848 6.072-4.152zM14.4 45.376c0-4.152-2.976-6.816-6.744-6.816S.912 41.224.912 45.376c0 4.152 2.856 6.84 6.624 6.84 3.792 0 6.864-2.688 6.864-6.84zm-10.704 0c0-3 1.848-4.44 3.912-4.44 2.04 0 3.984 1.44 3.984 4.44 0 3-2.016 4.464-4.056 4.464-2.064 0-3.84-1.464-3.84-4.464zM17.441 52h2.76V41.008h2.448v-2.232H20.2v-.936c0-1.512.576-2.088 2.256-2.088v-2.28c-3.456 0-5.016 1.32-5.016 4.368v.936h-1.56v2.232h1.56V52zm17.25.024L37.765 52l3.72-12.624L44.988 52h3.096l4.944-16.68H50.1l-3.48 13.512-3.48-13.512h-3.072l-3.744 13.584-3.456-13.584h-2.904l4.728 16.704zm19.681-6.696c0 4.08 2.76 6.888 6.192 6.888 2.208 0 3.792-1.056 4.632-2.184V52h2.76V38.776h-2.76v1.92c-.816-1.08-2.352-2.136-4.584-2.136-3.48 0-6.24 2.688-6.24 6.768zm10.824.048c0 2.856-1.944 4.464-4.008 4.464-2.04 0-4.008-1.656-4.008-4.512s1.968-4.392 4.008-4.392c2.064 0 4.008 1.608 4.008 4.44zM71.55 52h2.736V34.24H71.55V52zm6.328 0h2.736V34.24h-2.736V52zM13.056 76.272c0-6.096-8.832-3.744-8.832-7.512 0-1.608 1.224-2.376 2.808-2.328 1.728.048 2.712 1.08 2.808 2.208h3.024c-.24-2.856-2.496-4.536-5.688-4.536-3.408 0-5.736 1.824-5.736 4.752 0 6.144 8.856 3.528 8.856 7.56 0 1.416-1.08 2.448-3 2.448-1.896 0-2.856-1.104-2.976-2.472H1.392c0 2.952 2.568 4.776 5.904 4.776 3.72 0 5.76-2.4 5.76-4.896zm3.66 1.056c0 2.688 1.464 3.672 3.816 3.672h2.16v-2.28h-1.68c-1.152 0-1.536-.408-1.536-1.392v-7.32h3.216v-2.232h-3.216v-3.288h-2.76v3.288h-1.56v2.232h1.56v7.32zM27.95 74.04c0-2.808 1.248-3.648 3.264-3.648h.696V67.56c-1.872 0-3.192.816-3.96 2.136v-1.92h-2.736V81h2.736v-6.96zm12.043-4.176c2.04 0 3.648 1.296 3.696 3.336h-7.32c.288-2.088 1.776-3.336 3.624-3.336zm6.192 7.2h-2.952c-.504 1.032-1.44 1.848-3.12 1.848-2.016 0-3.576-1.32-3.768-3.504h10.104a8.44 8.44 0 00.096-1.344c0-3.888-2.664-6.504-6.432-6.504-3.912 0-6.6 2.664-6.6 6.816 0 4.152 2.808 6.84 6.6 6.84 3.24 0 5.328-1.848 6.072-4.152zm8.62-7.2c2.04 0 3.648 1.296 3.697 3.336h-7.32c.287-2.088 1.776-3.336 3.623-3.336zm6.193 7.2h-2.953c-.504 1.032-1.44 1.848-3.12 1.848-2.015 0-3.575-1.32-3.767-3.504H61.26a8.44 8.44 0 00.096-1.344c0-3.888-2.663-6.504-6.431-6.504-3.913 0-6.6 2.664-6.6 6.816 0 4.152 2.807 6.84 6.6 6.84 3.24 0 5.328-1.848 6.072-4.152zm3.484.264c0 2.688 1.464 3.672 3.816 3.672h2.16v-2.28h-1.68c-1.152 0-1.536-.408-1.536-1.392v-7.32h3.216v-2.232h-3.216v-3.288h-2.76v3.288h-1.56v2.232h1.56v7.32zM81.782 81h2.88l2.664-9.768L89.99 81h2.88l4.104-13.224h-2.688L91.55 78.36l-2.688-10.584h-2.856l-2.808 10.632-2.76-10.632h-2.784L81.782 81zm17.237 0h2.736V67.776h-2.736V81zm1.392-14.976c.96 0 1.728-.768 1.728-1.752s-.768-1.752-1.728-1.752c-.984 0-1.752.768-1.752 1.752s.768 1.752 1.752 1.752zM105.347 81h2.736V63.24h-2.736V81zm6.328 0h2.736V63.24h-2.736V81zM7.008 106.856l-3.72-10.08H.24l5.208 13.008-2.688 6.432h2.832l8.112-19.44h-2.832l-3.864 10.08zm21.36-3.48c0-4.152-2.975-6.816-6.743-6.816-3.768 0-6.744 2.664-6.744 6.816 0 4.152 2.856 6.84 6.624 6.84 3.792 0 6.864-2.688 6.864-6.84zm-10.703 0c0-3 1.848-4.44 3.912-4.44 2.04 0 3.984 1.44 3.984 4.44 0 3-2.016 4.464-4.056 4.464-2.064 0-3.84-1.464-3.84-4.464zm25.384-6.6h-2.736v7.368c0 2.424-1.32 3.672-3.336 3.672-1.992 0-3.312-1.248-3.312-3.672v-7.368h-2.712v7.776c0 3.696 2.352 5.64 5.448 5.64 1.56 0 3.048-.648 3.912-1.776V110h2.736V96.776zm10.277 9.552c0 2.688 1.464 3.672 3.816 3.672h2.16v-2.28h-1.68c-1.152 0-1.536-.408-1.536-1.392v-7.32h3.216v-2.232h-3.216v-3.288h-2.76v3.288h-1.56v2.232h1.56v7.32zm7.585-3c0 4.08 2.76 6.888 6.192 6.888 2.208 0 3.792-1.056 4.632-2.184V110h2.76V96.776h-2.76v1.92c-.816-1.08-2.352-2.136-4.584-2.136-3.48 0-6.24 2.688-6.24 6.768zm10.824.048c0 2.856-1.944 4.464-4.008 4.464-2.04 0-4.008-1.656-4.008-4.512s1.968-4.392 4.008-4.392c2.064 0 4.008 1.608 4.008 4.44zM78.09 110h2.736v-5.688L85.721 110h3.696l-6.096-6.6 6.096-6.624h-3.792l-4.8 5.784V92.24H78.09V110zm18.857-11.136c2.04 0 3.648 1.296 3.696 3.336h-7.32c.288-2.088 1.776-3.336 3.624-3.336zm6.192 7.2h-2.952c-.504 1.032-1.44 1.848-3.12 1.848-2.016 0-3.576-1.32-3.768-3.504h10.104a8.44 8.44 0 00.096-1.344c0-3.888-2.664-6.504-6.432-6.504-3.912 0-6.6 2.664-6.6 6.816 0 4.152 2.808 6.84 6.6 6.84 3.24 0 5.328-1.848 6.072-4.152zm2.213-8.04h2.568c0-1.68 1.08-2.64 2.784-2.64 1.728 0 2.76 1.032 2.76 2.712 0 2.52-2.088 3-4.8 3h-.792l.12 3.768h2.376l.096-1.896c3.216 0 5.616-1.488 5.616-4.872 0-3.12-2.184-5.016-5.4-5.016-3.264 0-5.352 2.04-5.328 4.944zm5.52 10.392c0-.984-.768-1.752-1.728-1.752-.984 0-1.752.768-1.752 1.752s.768 1.752 1.752 1.752c.96 0 1.728-.768 1.728-1.752zM8.82 132.07a3.292 3.292 0 00-1.288-1.512c-.57-.373-1.241-.56-2.016-.56-.728 0-1.381.168-1.96.504a3.59 3.59 0 00-1.372 1.442c-.336.616-.504 1.335-.504 2.156 0 .821.168 1.545.504 2.17a3.59 3.59 0 001.372 1.442c.579.336 1.232.504 1.96.504.681 0 1.293-.145 1.834-.434.55-.299.99-.719 1.316-1.26.336-.551.527-1.19.574-1.918H5.124v-.798h5.152v.714a4.999 4.999 0 01-.7 2.338 4.596 4.596 0 01-1.694 1.638c-.7.401-1.489.602-2.366.602-.905 0-1.727-.21-2.464-.63a4.706 4.706 0 01-1.75-1.778c-.42-.765-.63-1.629-.63-2.59 0-.961.21-1.82.63-2.576a4.581 4.581 0 011.75-1.778c.737-.429 1.559-.644 2.464-.644 1.045 0 1.96.261 2.744.784.784.523 1.353 1.251 1.708 2.184H8.82zm6.597 7.042c-.719 0-1.367-.159-1.946-.476a3.62 3.62 0 01-1.358-1.372c-.326-.597-.49-1.293-.49-2.086 0-.793.168-1.484.504-2.072a3.464 3.464 0 011.372-1.372c.579-.327 1.227-.49 1.946-.49.719 0 1.367.163 1.946.49a3.35 3.35 0 011.372 1.372c.336.588.504 1.279.504 2.072 0 .784-.168 1.475-.504 2.072a3.539 3.539 0 01-1.386 1.386 4.064 4.064 0 01-1.96.476zm0-.854c.504 0 .97-.112 1.4-.336.43-.233.775-.579 1.036-1.036.27-.467.406-1.036.406-1.708 0-.672-.13-1.237-.392-1.694-.261-.467-.607-.812-1.036-1.036a2.889 2.889 0 00-1.4-.35c-.504 0-.97.117-1.4.35-.43.224-.774.569-1.036 1.036-.252.457-.378 1.022-.378 1.694 0 .672.126 1.241.378 1.708a2.66 2.66 0 001.022 1.036c.43.224.896.336 1.4.336zm10.458-9.618V139h-.98v-10.36h.98zm5.566 10.472a3.983 3.983 0 01-1.946-.476 3.62 3.62 0 01-1.358-1.372c-.327-.597-.49-1.293-.49-2.086 0-.793.168-1.484.504-2.072a3.464 3.464 0 011.372-1.372c.578-.327 1.227-.49 1.946-.49.718 0 1.367.163 1.946.49a3.35 3.35 0 011.372 1.372c.336.588.504 1.279.504 2.072 0 .784-.168 1.475-.504 2.072a3.539 3.539 0 01-1.386 1.386 4.064 4.064 0 01-1.96.476zm0-.854c.504 0 .97-.112 1.4-.336.429-.233.774-.579 1.036-1.036.27-.467.406-1.036.406-1.708 0-.672-.131-1.237-.392-1.694-.262-.467-.607-.812-1.036-1.036a2.889 2.889 0 00-1.4-.35c-.504 0-.971.117-1.4.35-.43.224-.775.569-1.036 1.036-.252.457-.378 1.022-.378 1.694 0 .672.126 1.241.378 1.708a2.66 2.66 0 001.022 1.036c.429.224.896.336 1.4.336zm9.22-7.042c.915 0 1.661.285 2.24.854.579.56.868 1.377.868 2.45V139h-.966v-4.368c0-.831-.21-1.465-.63-1.904-.41-.439-.975-.658-1.694-.658-.737 0-1.325.233-1.764.7-.439.467-.658 1.153-.658 2.058V139h-.98v-7.644h.98v1.302a2.46 2.46 0 011.05-1.064 3.166 3.166 0 011.554-.378zm8.481.028c.72 0 1.344.168 1.876.504.532.336.915.761 1.148 1.274v-1.666h.98v7.84c0 .7-.154 1.321-.462 1.862a3.058 3.058 0 01-1.26 1.246c-.54.299-1.157.448-1.848.448-.98 0-1.796-.233-2.45-.7-.644-.467-1.045-1.101-1.204-1.904h.966c.168.532.486.957.952 1.274.476.317 1.055.476 1.736.476a2.72 2.72 0 001.33-.322c.392-.205.7-.513.924-.924.224-.411.336-.896.336-1.456v-1.89c-.242.523-.63.957-1.162 1.302-.522.336-1.143.504-1.862.504-.7 0-1.33-.163-1.89-.49a3.462 3.462 0 01-1.302-1.386c-.308-.597-.462-1.288-.462-2.072s.154-1.47.462-2.058a3.36 3.36 0 011.302-1.372c.56-.327 1.19-.49 1.89-.49zm3.024 3.934c0-.616-.126-1.157-.378-1.624a2.68 2.68 0 00-1.036-1.078 2.769 2.769 0 00-1.428-.378c-.54 0-1.026.121-1.456.364-.429.243-.77.597-1.022 1.064-.242.457-.364 1.003-.364 1.638 0 .625.122 1.176.364 1.652a2.71 2.71 0 001.022 1.078c.43.243.915.364 1.456.364.523 0 1-.126 1.428-.378a2.68 2.68 0 001.036-1.078c.252-.467.378-1.008.378-1.624zm10.406 3.934c-.72 0-1.368-.159-1.947-.476a3.62 3.62 0 01-1.358-1.372c-.326-.597-.49-1.293-.49-2.086 0-.793.169-1.484.505-2.072a3.464 3.464 0 011.372-1.372c.578-.327 1.227-.49 1.945-.49.72 0 1.368.163 1.947.49a3.35 3.35 0 011.371 1.372c.337.588.504 1.279.504 2.072 0 .784-.168 1.475-.504 2.072a3.539 3.539 0 01-1.386 1.386 4.064 4.064 0 01-1.96.476zm0-.854c.503 0 .97-.112 1.4-.336.429-.233.774-.579 1.035-1.036.271-.467.406-1.036.406-1.708 0-.672-.13-1.237-.391-1.694-.262-.467-.607-.812-1.037-1.036a2.889 2.889 0 00-1.4-.35c-.504 0-.97.117-1.4.35-.429.224-.774.569-1.035 1.036-.252.457-.378 1.022-.378 1.694 0 .672.126 1.241.378 1.708a2.66 2.66 0 001.022 1.036c.429.224.896.336 1.4.336zm6.616-5.544c.215-.476.541-.845.98-1.106.448-.261.994-.392 1.638-.392v1.022h-.266c-.71 0-1.279.191-1.708.574-.43.383-.644 1.022-.644 1.918V139h-.98v-7.644h.98v1.358zm10.566 6.398c-.877 0-1.596-.201-2.156-.602-.55-.411-.859-.966-.924-1.666h1.008c.047.429.247.779.602 1.05.364.261.85.392 1.456.392.532 0 .947-.126 1.246-.378.308-.252.462-.565.462-.938a.873.873 0 00-.252-.644 1.701 1.701 0 00-.644-.392 8.263 8.263 0 00-1.036-.322 10.6 10.6 0 01-1.386-.448 2.454 2.454 0 01-.91-.658c-.243-.299-.364-.695-.364-1.19 0-.373.112-.719.336-1.036.224-.317.541-.569.952-.756.41-.187.877-.28 1.4-.28.821 0 1.484.21 1.988.63.504.411.775.98.812 1.708h-.98c-.028-.448-.205-.807-.532-1.078-.317-.28-.756-.42-1.316-.42-.495 0-.896.117-1.204.35-.308.233-.462.523-.462.868 0 .299.089.546.266.742.187.187.415.336.686.448.27.103.635.219 1.092.35.55.149.99.294 1.316.434.327.14.607.345.84.616.233.271.355.63.364 1.078 0 .411-.112.779-.336 1.106a2.314 2.314 0 01-.938.756c-.401.187-.863.28-1.386.28zm8.145-7.896a3.26 3.26 0 011.554.364c.466.243.83.616 1.092 1.12.27.495.406 1.101.406 1.82V139h-.966v-4.368c0-.831-.21-1.465-.63-1.904-.411-.439-.976-.658-1.694-.658-.738 0-1.326.233-1.764.7-.439.467-.658 1.153-.658 2.058V139h-.98v-10.36h.98v4.018a2.544 2.544 0 011.064-1.064 3.358 3.358 0 011.596-.378zm8.565 7.896a3.983 3.983 0 01-1.946-.476 3.62 3.62 0 01-1.358-1.372c-.327-.597-.49-1.293-.49-2.086 0-.793.168-1.484.504-2.072a3.465 3.465 0 011.372-1.372c.579-.327 1.227-.49 1.946-.49.719 0 1.367.163 1.946.49a3.35 3.35 0 011.372 1.372c.336.588.504 1.279.504 2.072 0 .784-.168 1.475-.504 2.072a3.539 3.539 0 01-1.386 1.386 4.064 4.064 0 01-1.96.476zm0-.854c.504 0 .97-.112 1.4-.336.43-.233.775-.579 1.036-1.036.27-.467.406-1.036.406-1.708 0-.672-.13-1.237-.392-1.694-.261-.467-.607-.812-1.036-1.036a2.889 2.889 0 00-1.4-.35c-.504 0-.97.117-1.4.35-.43.224-.775.569-1.036 1.036-.252.457-.378 1.022-.378 1.694 0 .672.126 1.241.378 1.708.261.457.602.803 1.022 1.036.43.224.896.336 1.4.336zm6.616-5.544a2.41 2.41 0 01.98-1.106c.448-.261.994-.392 1.638-.392v1.022h-.266c-.709 0-1.278.191-1.708.574-.429.383-.644 1.022-.644 1.918V139h-.98v-7.644h.98v1.358zm5.367-.532v4.746c0 .467.088.789.266.966.177.177.49.266.938.266h.896v.84h-1.05c-.691 0-1.204-.159-1.54-.476-.336-.327-.504-.859-.504-1.596v-4.746h-1.064v-.826h1.064v-1.918h.994v1.918h2.1v.826h-2.1zm10.904 6.93c-.719 0-1.368-.159-1.946-.476a3.615 3.615 0 01-1.358-1.372c-.327-.597-.49-1.293-.49-2.086 0-.793.168-1.484.504-2.072a3.462 3.462 0 011.372-1.372c.578-.327 1.227-.49 1.946-.49.718 0 1.367.163 1.946.49a3.352 3.352 0 011.372 1.372c.336.588.504 1.279.504 2.072 0 .784-.168 1.475-.504 2.072a3.539 3.539 0 01-1.386 1.386 4.066 4.066 0 01-1.96.476zm0-.854c.504 0 .97-.112 1.4-.336a2.639 2.639 0 001.036-1.036c.27-.467.406-1.036.406-1.708 0-.672-.131-1.237-.392-1.694-.262-.467-.607-.812-1.036-1.036a2.89 2.89 0 00-1.4-.35c-.504 0-.971.117-1.4.35-.43.224-.775.569-1.036 1.036-.252.457-.378 1.022-.378 1.694 0 .672.126 1.241.378 1.708.261.457.602.803 1.022 1.036a2.98 2.98 0 001.4.336zm9.22-7.042c.915 0 1.662.285 2.24.854.579.56.868 1.377.868 2.45V139h-.966v-4.368c0-.831-.21-1.465-.63-1.904-.41-.439-.975-.658-1.694-.658-.737 0-1.325.233-1.764.7-.438.467-.658 1.153-.658 2.058V139h-.98v-7.644h.98v1.302a2.463 2.463 0 011.05-1.064 3.17 3.17 0 011.554-.378zM2.394 152.182v4.746c0 .467.089.789.266.966.177.177.49.266.938.266h.896v.84h-1.05c-.69 0-1.204-.159-1.54-.476-.336-.327-.504-.859-.504-1.596v-4.746H.336v-.826H1.4v-1.918h.994v1.918h2.1v.826h-2.1zm7.356-.966c.579 0 1.097.121 1.554.364.467.243.83.616 1.092 1.12.27.495.406 1.101.406 1.82V159h-.966v-4.368c0-.831-.21-1.465-.63-1.904-.41-.439-.975-.658-1.694-.658-.737 0-1.325.233-1.764.7-.438.467-.658 1.153-.658 2.058V159h-.98v-10.36h.98v4.018a2.545 2.545 0 011.064-1.064 3.358 3.358 0 011.596-.378zm12.136 3.57c0 .336-.01.593-.028.77h-6.342c.028.579.168 1.073.42 1.484.252.411.583.723.994.938.41.205.858.308 1.344.308.634 0 1.166-.154 1.596-.462.438-.308.728-.723.868-1.246h1.036a3.256 3.256 0 01-1.204 1.834c-.607.467-1.372.7-2.296.7-.72 0-1.363-.159-1.932-.476a3.521 3.521 0 01-1.344-1.372c-.318-.597-.476-1.293-.476-2.086 0-.793.158-1.489.476-2.086a3.309 3.309 0 011.33-1.372c.569-.317 1.218-.476 1.946-.476s1.362.159 1.904.476c.55.317.97.747 1.26 1.288a3.57 3.57 0 01.448 1.778zm-.994-.028c.009-.569-.108-1.055-.35-1.456a2.27 2.27 0 00-.966-.91 2.967 2.967 0 00-1.344-.308c-.728 0-1.35.233-1.862.7-.514.467-.798 1.125-.854 1.974h5.376zm7.566-5.544v6.16c0 .971.23 1.689.686 2.156.467.467 1.102.7 1.904.7.803 0 1.428-.229 1.876-.686.458-.467.686-1.19.686-2.17v-6.16h.98v6.146c0 1.241-.33 2.175-.994 2.8-.653.625-1.507.938-2.562.938-1.054 0-1.913-.313-2.576-.938-.653-.625-.98-1.559-.98-2.8v-6.146h.98zm11.286 9.884c-.644 0-1.213-.112-1.708-.336a2.792 2.792 0 01-1.148-.938 2.461 2.461 0 01-.448-1.344h1.036c.047.476.257.896.63 1.26.374.355.92.532 1.638.532.663 0 1.186-.168 1.568-.504a1.66 1.66 0 00.588-1.302c0-.42-.107-.756-.322-1.008a1.888 1.888 0 00-.798-.574 11.061 11.061 0 00-1.316-.42c-.653-.177-1.171-.35-1.554-.518a2.47 2.47 0 01-.98-.784c-.27-.355-.406-.835-.406-1.442 0-.504.13-.952.392-1.344a2.61 2.61 0 011.106-.938c.476-.224 1.022-.336 1.638-.336.906 0 1.634.224 2.184.672.56.439.882 1.008.966 1.708h-1.064c-.065-.401-.284-.756-.658-1.064-.373-.317-.877-.476-1.512-.476-.588 0-1.078.159-1.47.476-.392.308-.588.733-.588 1.274 0 .411.108.742.322.994.215.252.48.443.798.574.327.131.766.271 1.316.42.635.177 1.148.355 1.54.532.392.168.724.429.994.784.27.355.406.831.406 1.428 0 .457-.121.891-.364 1.302-.242.411-.602.742-1.078.994-.476.252-1.045.378-1.708.378zm9.852-6.048c.252-.532.64-.966 1.162-1.302.532-.336 1.157-.504 1.876-.504.7 0 1.325.163 1.876.49.55.317.98.775 1.288 1.372.317.588.476 1.274.476 2.058 0 .784-.159 1.475-.476 2.072a3.34 3.34 0 01-1.302 1.386c-.55.327-1.172.49-1.862.49-.728 0-1.358-.163-1.89-.49a3.02 3.02 0 01-1.148-1.302V159h-.966v-10.36h.966v4.41zm5.684 2.114c0-.635-.126-1.181-.378-1.638a2.527 2.527 0 00-1.008-1.064 2.904 2.904 0 00-1.456-.364c-.523 0-1.004.126-1.442.378a2.71 2.71 0 00-1.022 1.078c-.252.467-.378 1.008-.378 1.624 0 .616.126 1.157.378 1.624a2.71 2.71 0 001.022 1.078c.438.252.92.378 1.442.378.541 0 1.026-.121 1.456-.364.43-.252.765-.611 1.008-1.078.252-.476.378-1.027.378-1.652zm9.713-.378c0 .336-.01.593-.028.77h-6.342c.028.579.168 1.073.42 1.484.252.411.583.723.994.938.41.205.859.308 1.344.308.635 0 1.167-.154 1.596-.462.439-.308.728-.723.868-1.246h1.036a3.255 3.255 0 01-1.204 1.834c-.607.467-1.372.7-2.296.7-.719 0-1.363-.159-1.932-.476a3.521 3.521 0 01-1.344-1.372c-.317-.597-.476-1.293-.476-2.086 0-.793.159-1.489.476-2.086a3.31 3.31 0 011.33-1.372c.57-.317 1.218-.476 1.946-.476s1.363.159 1.904.476c.55.317.97.747 1.26 1.288a3.57 3.57 0 01.448 1.778zm-.994-.028c.01-.569-.107-1.055-.35-1.456a2.27 2.27 0 00-.966-.91 2.967 2.967 0 00-1.344-.308c-.728 0-1.349.233-1.862.7-.513.467-.798 1.125-.854 1.974h5.376zm6.371-3.542c.915 0 1.661.285 2.24.854.579.56.868 1.377.868 2.45V159h-.966v-4.368c0-.831-.21-1.465-.63-1.904-.41-.439-.975-.658-1.694-.658-.737 0-1.325.233-1.764.7-.439.467-.658 1.153-.658 2.058V159h-.98v-7.644h.98v1.302a2.46 2.46 0 011.05-1.064 3.166 3.166 0 011.554-.378zm4.827 3.962c0-.793.16-1.484.476-2.072a3.334 3.334 0 011.316-1.372c.56-.327 1.2-.49 1.918-.49.943 0 1.718.233 2.324.7.616.467 1.013 1.101 1.19 1.904h-1.05c-.13-.551-.415-.98-.854-1.288-.429-.317-.966-.476-1.61-.476a2.76 2.76 0 00-1.386.35c-.41.233-.737.583-.98 1.05-.233.457-.35 1.022-.35 1.694 0 .672.117 1.241.35 1.708.243.467.57.817.98 1.05.411.233.873.35 1.386.35.644 0 1.181-.154 1.61-.462.44-.317.724-.756.854-1.316h1.05a3.206 3.206 0 01-1.19 1.89c-.616.476-1.39.714-2.324.714-.718 0-1.358-.159-1.918-.476a3.452 3.452 0 01-1.316-1.372c-.317-.597-.476-1.293-.476-2.086zm12.674-3.962c.579 0 1.097.121 1.554.364.467.243.831.616 1.092 1.12.271.495.406 1.101.406 1.82V159h-.966v-4.368c0-.831-.21-1.465-.63-1.904-.41-.439-.975-.658-1.694-.658-.737 0-1.325.233-1.764.7-.438.467-.658 1.153-.658 2.058V159h-.98v-10.36h.98v4.018a2.545 2.545 0 011.064-1.064 3.358 3.358 0 011.596-.378zm14.32 0c.896 0 1.624.285 2.184.854.569.56.854 1.377.854 2.45V159h-.966v-4.368c0-.831-.201-1.465-.602-1.904-.402-.439-.948-.658-1.638-.658-.719 0-1.293.238-1.722.714-.43.476-.644 1.167-.644 2.072V159h-.966v-4.368c0-.831-.201-1.465-.602-1.904-.402-.439-.952-.658-1.652-.658-.719 0-1.293.238-1.722.714-.43.476-.644 1.167-.644 2.072V159h-.98v-7.644h.98v1.316a2.465 2.465 0 011.036-1.078 3.002 3.002 0 011.498-.378c.662 0 1.241.159 1.736.476.504.317.868.784 1.092 1.4.205-.607.555-1.069 1.05-1.386a3.068 3.068 0 011.708-.49zm4.766 3.948c0-.784.154-1.47.462-2.058a3.357 3.357 0 011.302-1.372c.56-.327 1.19-.49 1.89-.49.728 0 1.353.168 1.876.504.532.336.915.765 1.148 1.288v-1.68h.98V159h-.98v-1.694c-.243.523-.63.957-1.162 1.302-.523.336-1.148.504-1.876.504a3.65 3.65 0 01-1.876-.49 3.458 3.458 0 01-1.302-1.386c-.308-.597-.462-1.288-.462-2.072zm6.678.014c0-.616-.126-1.157-.378-1.624a2.678 2.678 0 00-1.036-1.078 2.767 2.767 0 00-1.428-.378c-.541 0-1.027.121-1.456.364-.429.243-.77.597-1.022 1.064-.243.457-.364 1.003-.364 1.638 0 .625.121 1.176.364 1.652.252.467.593.826 1.022 1.078.429.243.915.364 1.456.364.523 0 .999-.126 1.428-.378a2.678 2.678 0 001.036-1.078c.252-.467.378-1.008.378-1.624zm4.197-2.464a2.41 2.41 0 01.98-1.106c.448-.261.994-.392 1.638-.392v1.022h-.266c-.709 0-1.278.191-1.708.574-.429.383-.644 1.022-.644 1.918V159h-.98v-7.644h.98v1.358zm8.223 6.286l-3.15-3.43V159h-.98v-10.36h.98v6.132l3.08-3.416h1.372l-3.626 3.808 3.654 3.836h-1.33zM4.466 179.112a3.983 3.983 0 01-1.946-.476 3.62 3.62 0 01-1.358-1.372c-.327-.597-.49-1.293-.49-2.086 0-.793.168-1.484.504-2.072a3.464 3.464 0 011.372-1.372c.579-.327 1.227-.49 1.946-.49.719 0 1.367.163 1.946.49a3.35 3.35 0 011.372 1.372c.336.588.504 1.279.504 2.072 0 .784-.168 1.475-.504 2.072a3.539 3.539 0 01-1.386 1.386 4.064 4.064 0 01-1.96.476zm0-.854c.504 0 .97-.112 1.4-.336.43-.233.775-.579 1.036-1.036.27-.467.406-1.036.406-1.708 0-.672-.13-1.237-.392-1.694-.261-.467-.607-.812-1.036-1.036a2.889 2.889 0 00-1.4-.35c-.504 0-.97.117-1.4.35-.43.224-.775.569-1.036 1.036-.252.457-.378 1.022-.378 1.694 0 .672.126 1.241.378 1.708.261.457.602.803 1.022 1.036.43.224.896.336 1.4.336zm9.22-7.042c.915 0 1.662.285 2.24.854.58.56.868 1.377.868 2.45V179h-.966v-4.368c0-.831-.21-1.465-.63-1.904-.41-.439-.975-.658-1.694-.658-.737 0-1.325.233-1.764.7-.438.467-.658 1.153-.658 2.058V179h-.98v-7.644h.98v1.302a2.46 2.46 0 011.05-1.064 3.166 3.166 0 011.554-.378zm8.67 3.948c0-.784.154-1.47.462-2.058a3.36 3.36 0 011.302-1.372c.56-.327 1.19-.49 1.89-.49.728 0 1.353.168 1.876.504.532.336.914.765 1.148 1.288v-1.68h.98V179h-.98v-1.694c-.243.523-.63.957-1.162 1.302-.523.336-1.148.504-1.876.504-.691 0-1.316-.163-1.876-.49a3.462 3.462 0 01-1.302-1.386c-.308-.597-.462-1.288-.462-2.072zm6.678.014c0-.616-.126-1.157-.378-1.624a2.68 2.68 0 00-1.036-1.078 2.769 2.769 0 00-1.428-.378c-.542 0-1.027.121-1.456.364-.43.243-.77.597-1.022 1.064-.243.457-.364 1.003-.364 1.638 0 .625.12 1.176.364 1.652a2.71 2.71 0 001.022 1.078c.429.243.914.364 1.456.364.522 0 .998-.126 1.428-.378a2.68 2.68 0 001.036-1.078c.252-.467.378-1.008.378-1.624zm6.8-3.962c.915 0 1.662.285 2.24.854.58.56.869 1.377.869 2.45V179h-.966v-4.368c0-.831-.21-1.465-.63-1.904-.41-.439-.976-.658-1.694-.658-.737 0-1.325.233-1.764.7-.439.467-.658 1.153-.658 2.058V179h-.98v-7.644h.98v1.302a2.46 2.46 0 011.05-1.064 3.166 3.166 0 011.554-.378zm8.67 3.948c0-.784.154-1.47.462-2.058a3.362 3.362 0 011.302-1.372c.56-.327 1.19-.49 1.89-.49.728 0 1.353.168 1.876.504.532.336.915.765 1.148 1.288v-1.68h.98V179h-.98v-1.694c-.243.523-.63.957-1.162 1.302-.523.336-1.148.504-1.876.504-.69 0-1.316-.163-1.876-.49a3.463 3.463 0 01-1.302-1.386c-.308-.597-.462-1.288-.462-2.072zm6.678.014c0-.616-.126-1.157-.378-1.624a2.68 2.68 0 00-1.036-1.078 2.769 2.769 0 00-1.428-.378c-.541 0-1.027.121-1.456.364-.43.243-.77.597-1.022 1.064-.243.457-.364 1.003-.364 1.638 0 .625.121 1.176.364 1.652a2.71 2.71 0 001.022 1.078c.43.243.915.364 1.456.364.523 0 .999-.126 1.428-.378a2.68 2.68 0 001.036-1.078c.252-.467.378-1.008.378-1.624zm13.297-3.822L62.085 179h-.98l-2.114-6.412L56.877 179h-.994l-2.394-7.644h.994l1.904 6.65 2.142-6.65h.98l2.114 6.664 1.89-6.664h.966zm.888 3.808c0-.784.154-1.47.462-2.058a3.36 3.36 0 011.302-1.372c.56-.327 1.19-.49 1.89-.49.728 0 1.354.168 1.876.504.532.336.915.765 1.148 1.288v-1.68h.98V179h-.98v-1.694c-.242.523-.63.957-1.162 1.302-.522.336-1.148.504-1.876.504-.69 0-1.316-.163-1.876-.49a3.462 3.462 0 01-1.302-1.386c-.308-.597-.462-1.288-.462-2.072zm6.678.014c0-.616-.126-1.157-.378-1.624a2.68 2.68 0 00-1.036-1.078 2.769 2.769 0 00-1.428-.378c-.541 0-1.026.121-1.456.364-.429.243-.77.597-1.022 1.064-.242.457-.364 1.003-.364 1.638 0 .625.122 1.176.364 1.652a2.71 2.71 0 001.022 1.078c.43.243.915.364 1.456.364.523 0 .999-.126 1.428-.378a2.68 2.68 0 001.036-1.078c.252-.467.378-1.008.378-1.624zm4.198-2.464c.214-.476.54-.845.98-1.106.448-.261.994-.392 1.638-.392v1.022h-.266c-.71 0-1.28.191-1.708.574-.43.383-.644 1.022-.644 1.918V179h-.98v-7.644h.98v1.358zm3.644 2.45c0-.784.159-1.47.476-2.058a3.362 3.362 0 011.302-1.372c.56-.327 1.19-.49 1.89-.49a3.45 3.45 0 011.82.49c.541.327.938.751 1.19 1.274v-4.368h.98V179h-.98v-1.708c-.233.532-.616.971-1.148 1.316-.532.336-1.157.504-1.876.504-.7 0-1.33-.163-1.89-.49a3.463 3.463 0 01-1.302-1.386c-.308-.597-.462-1.288-.462-2.072zm6.678.014c0-.616-.126-1.157-.378-1.624a2.68 2.68 0 00-1.036-1.078 2.769 2.769 0 00-1.428-.378c-.541 0-1.027.121-1.456.364-.43.243-.77.597-1.022 1.064-.243.457-.364 1.003-.364 1.638 0 .625.121 1.176.364 1.652a2.71 2.71 0 001.022 1.078c.43.243.915.364 1.456.364.523 0 .999-.126 1.428-.378a2.68 2.68 0 001.036-1.078c.252-.467.378-1.008.378-1.624zm7.963-1.778v.826h-5.446v-.826h5.446zM11.2 191.356L8.806 199h-.98l-2.114-6.412L3.598 199h-.994L.21 191.356h.994l1.904 6.65 2.142-6.65h.98l2.114 6.664 1.89-6.664h.966zm1.826-1.442a.687.687 0 01-.504-.21.704.704 0 01-.21-.518.66.66 0 01.21-.504c.14-.14.308-.21.504-.21s.364.07.504.21a.66.66 0 01.21.504c0 .205-.07.378-.21.518a.687.687 0 01-.504.21zm.49 1.442V199h-.98v-7.644h.98zm5.803-.14c.915 0 1.662.285 2.24.854.579.56.868 1.377.868 2.45V199h-.966v-4.368c0-.831-.21-1.465-.63-1.904-.41-.439-.975-.658-1.694-.658-.737 0-1.325.233-1.764.7-.438.467-.658 1.153-.658 2.058V199h-.98v-7.644h.98v1.302a2.46 2.46 0 011.05-1.064 3.166 3.166 0 011.554-.378zm8.86 0c.914 0 1.66.285 2.24.854.578.56.868 1.377.868 2.45V199h-.966v-4.368c0-.831-.21-1.465-.63-1.904-.411-.439-.976-.658-1.694-.658-.738 0-1.326.233-1.764.7-.44.467-.658 1.153-.658 2.058V199h-.98v-7.644h.98v1.302a2.46 2.46 0 011.05-1.064 3.166 3.166 0 011.554-.378zm5.765-1.302a.687.687 0 01-.504-.21.704.704 0 01-.21-.518.66.66 0 01.21-.504c.14-.14.308-.21.504-.21s.364.07.504.21a.66.66 0 01.21.504c0 .205-.07.378-.21.518a.687.687 0 01-.504.21zm.49 1.442V199h-.98v-7.644h.98zm5.803-.14c.915 0 1.661.285 2.24.854.579.56.868 1.377.868 2.45V199h-.966v-4.368c0-.831-.21-1.465-.63-1.904-.41-.439-.975-.658-1.694-.658-.737 0-1.325.233-1.764.7-.438.467-.658 1.153-.658 2.058V199h-.98v-7.644h.98v1.302a2.46 2.46 0 011.05-1.064 3.166 3.166 0 011.554-.378zm8.482.028c.718 0 1.344.168 1.876.504.532.336.914.761 1.148 1.274v-1.666h.98v7.84c0 .7-.154 1.321-.462 1.862a3.058 3.058 0 01-1.26 1.246c-.542.299-1.158.448-1.848.448-.98 0-1.797-.233-2.45-.7-.644-.467-1.046-1.101-1.204-1.904h.966c.168.532.485.957.952 1.274.476.317 1.054.476 1.736.476a2.72 2.72 0 001.33-.322c.392-.205.7-.513.924-.924.224-.411.336-.896.336-1.456v-1.89c-.243.523-.63.957-1.162 1.302-.523.336-1.144.504-1.862.504-.7 0-1.33-.163-1.89-.49a3.462 3.462 0 01-1.302-1.386c-.308-.597-.462-1.288-.462-2.072s.154-1.47.462-2.058a3.36 3.36 0 011.302-1.372c.56-.327 1.19-.49 1.89-.49zm3.024 3.934c0-.616-.126-1.157-.378-1.624a2.68 2.68 0 00-1.036-1.078 2.77 2.77 0 00-1.428-.378c-.542 0-1.027.121-1.456.364-.43.243-.77.597-1.022 1.064-.243.457-.364 1.003-.364 1.638 0 .625.12 1.176.364 1.652a2.71 2.71 0 001.022 1.078c.429.243.914.364 1.456.364a2.77 2.77 0 001.428-.378 2.68 2.68 0 001.036-1.078c.252-.467.378-1.008.378-1.624zm8.025-2.142c.242-.513.625-.938 1.148-1.274.532-.345 1.162-.518 1.89-.518.69 0 1.311.163 1.862.49.56.317.994.775 1.302 1.372.317.588.476 1.274.476 2.058 0 .784-.159 1.475-.476 2.072a3.34 3.34 0 01-1.302 1.386c-.551.327-1.172.49-1.862.49-.719 0-1.344-.168-1.876-.504-.532-.345-.92-.775-1.162-1.288v5.292h-.966v-11.256h.966v1.68zm5.684 2.128c0-.635-.126-1.181-.378-1.638a2.526 2.526 0 00-1.008-1.064 2.903 2.903 0 00-1.456-.364c-.523 0-1.004.126-1.442.378a2.71 2.71 0 00-1.022 1.078c-.252.467-.378 1.008-.378 1.624 0 .616.126 1.157.378 1.624a2.71 2.71 0 001.022 1.078c.438.252.919.378 1.442.378.541 0 1.026-.121 1.456-.364.429-.252.765-.611 1.008-1.078.252-.476.378-1.027.378-1.652zm3.777-6.524V199h-.98v-10.36h.98zM71 195.164c0-.784.154-1.47.462-2.058a3.362 3.362 0 011.302-1.372c.56-.327 1.19-.49 1.89-.49.728 0 1.353.168 1.876.504.532.336.915.765 1.148 1.288v-1.68h.98V199h-.98v-1.694c-.242.523-.63.957-1.162 1.302-.523.336-1.148.504-1.876.504-.69 0-1.316-.163-1.876-.49a3.463 3.463 0 01-1.302-1.386c-.308-.597-.462-1.288-.462-2.072zm6.678.014c0-.616-.126-1.157-.378-1.624a2.68 2.68 0 00-1.036-1.078 2.769 2.769 0 00-1.428-.378c-.541 0-1.026.121-1.456.364-.43.243-.77.597-1.022 1.064-.243.457-.364 1.003-.364 1.638 0 .625.121 1.176.364 1.652a2.71 2.71 0 001.022 1.078c.43.243.915.364 1.456.364.523 0 .999-.126 1.428-.378a2.68 2.68 0 001.036-1.078c.252-.467.378-1.008.378-1.624zm4.491-2.996v4.746c0 .467.09.789.266.966.178.177.49.266.938.266h.896v.84h-1.05c-.69 0-1.204-.159-1.54-.476-.336-.327-.504-.859-.504-1.596v-4.746h-1.064v-.826h1.064v-1.918h.994v1.918h2.1v.826h-2.1zm6.727 0h-1.778V199h-.98v-6.818h-1.064v-.826h1.064v-.532c0-.831.21-1.442.63-1.834.429-.392 1.12-.588 2.072-.588v.84c-.635 0-1.083.121-1.344.364-.252.243-.378.649-.378 1.218v.532h1.778v.826zm4.888 6.93c-.718 0-1.367-.159-1.946-.476a3.62 3.62 0 01-1.358-1.372c-.326-.597-.49-1.293-.49-2.086 0-.793.168-1.484.504-2.072a3.464 3.464 0 011.372-1.372c.579-.327 1.228-.49 1.946-.49.719 0 1.368.163 1.946.49a3.35 3.35 0 011.372 1.372c.336.588.504 1.279.504 2.072 0 .784-.168 1.475-.504 2.072a3.539 3.539 0 01-1.386 1.386 4.064 4.064 0 01-1.96.476zm0-.854c.504 0 .971-.112 1.4-.336.43-.233.775-.579 1.036-1.036.271-.467.406-1.036.406-1.708 0-.672-.13-1.237-.392-1.694-.261-.467-.606-.812-1.036-1.036a2.889 2.889 0 00-1.4-.35c-.504 0-.97.117-1.4.35-.429.224-.774.569-1.036 1.036-.252.457-.378 1.022-.378 1.694 0 .672.126 1.241.378 1.708a2.66 2.66 0 001.022 1.036c.43.224.896.336 1.4.336zm6.617-5.544c.214-.476.541-.845.98-1.106.448-.261.994-.392 1.638-.392v1.022h-.266c-.71 0-1.279.191-1.708.574-.43.383-.644 1.022-.644 1.918V199h-.98v-7.644h.98v1.358zm13.192-1.498c.896 0 1.624.285 2.184.854.569.56.854 1.377.854 2.45V199h-.966v-4.368c0-.831-.201-1.465-.602-1.904-.401-.439-.947-.658-1.638-.658-.719 0-1.293.238-1.722.714-.429.476-.644 1.167-.644 2.072V199h-.966v-4.368c0-.831-.201-1.465-.602-1.904-.401-.439-.952-.658-1.652-.658-.719 0-1.293.238-1.722.714-.429.476-.644 1.167-.644 2.072V199h-.98v-7.644h.98v1.316a2.467 2.467 0 011.036-1.078 3.001 3.001 0 011.498-.378c.663 0 1.241.159 1.736.476.504.317.868.784 1.092 1.4.205-.607.555-1.069 1.05-1.386a3.068 3.068 0 011.708-.49z" fill="#fff"/><rect y="216" width="115" height="25" rx="12.5" fill="#14964F"/><path d="M13.305 224.355V232h3.838v-1.012h-2.585v-6.633h-1.253zm10.662 4.609c0-1.903-1.364-3.124-3.09-3.124-1.728 0-3.092 1.221-3.092 3.124s1.31 3.135 3.036 3.135c1.738 0 3.146-1.232 3.146-3.135zm-4.906 0c0-1.375.847-2.035 1.793-2.035.935 0 1.826.66 1.826 2.035s-.924 2.046-1.859 2.046c-.946 0-1.76-.671-1.76-2.046zm5.728-.022c0 1.87 1.265 3.157 2.86 3.157.99 0 1.716-.495 2.1-1.012v1.012c0 1.21-.725 1.804-1.693 1.804-.87 0-1.54-.429-1.727-1.056h-1.243c.154 1.342 1.353 2.145 2.97 2.145 1.892 0 2.959-1.243 2.959-2.893v-6.16H29.75v.88c-.374-.517-1.111-.979-2.101-.979-1.595 0-2.86 1.232-2.86 3.102zm4.96.022c0 1.309-.89 2.046-1.836 2.046-.935 0-1.837-.759-1.837-2.068 0-1.309.902-2.013 1.837-2.013.946 0 1.837.737 1.837 2.035zM35.52 232h1.254v-6.061H35.52V232zm.638-6.864c.44 0 .792-.352.792-.803a.791.791 0 00-.792-.803.794.794 0 00-.803.803c0 .451.352.803.803.803zM42.721 232h1.243v-3.575c0-1.694-1.067-2.585-2.486-2.585-.726 0-1.397.297-1.804.792v-.693H38.42V232h1.254v-3.388c0-1.111.605-1.683 1.529-1.683.913 0 1.518.572 1.518 1.683V232zm5.282-3.058c0 1.87 1.265 3.157 2.838 3.157 1.012 0 1.738-.484 2.123-1.001V232h1.265v-6.061h-1.265v.88c-.374-.495-1.078-.979-2.101-.979-1.595 0-2.86 1.232-2.86 3.102zm4.96.022c0 1.309-.89 2.046-1.836 2.046-.935 0-1.837-.759-1.837-2.068 0-1.309.902-2.013 1.837-2.013.946 0 1.837.737 1.837 2.035zM60.178 232h1.243v-3.575c0-1.694-1.067-2.585-2.486-2.585-.726 0-1.397.297-1.804.792v-.693h-1.254V232h1.254v-3.388c0-1.111.605-1.683 1.529-1.683.913 0 1.518.572 1.518 1.683V232zm2.424-3.058c0 1.87 1.265 3.157 2.86 3.157.99 0 1.716-.462 2.101-1.012V232h1.265v-8.14h-1.265v2.926c-.462-.572-1.298-.946-2.09-.946-1.606 0-2.87 1.232-2.87 3.102zm4.961.022c0 1.309-.89 2.046-1.837 2.046-.935 0-1.837-.759-1.837-2.068 0-1.309.902-2.013 1.837-2.013.946 0 1.837.737 1.837 2.035zm5.968 1.353c0 1.232.67 1.683 1.749 1.683h.99v-1.045h-.77c-.528 0-.704-.187-.704-.638v-3.355h1.474v-1.023h-1.474v-1.507H73.53v1.507h-.715v1.023h.715v3.355zm5.149-1.507c0-1.287.572-1.672 1.496-1.672h.319v-1.298c-.858 0-1.463.374-1.815.979v-.88h-1.254V232h1.254v-3.19zm2.55.132c0 1.87 1.264 3.157 2.837 3.157 1.012 0 1.738-.484 2.123-1.001V232h1.265v-6.061H86.19v.88c-.374-.495-1.078-.979-2.1-.979-1.596 0-2.86 1.232-2.86 3.102zm4.96.022c0 1.309-.89 2.046-1.837 2.046-.935 0-1.837-.759-1.837-2.068 0-1.309.902-2.013 1.837-2.013.946 0 1.837.737 1.837 2.035zm2.494-.022c0 1.87 1.265 3.157 2.86 3.157.99 0 1.716-.462 2.101-1.012V232h1.265v-8.14h-1.265v2.926c-.462-.572-1.298-.946-2.09-.946-1.606 0-2.87 1.232-2.87 3.102zm4.961.022c0 1.309-.89 2.046-1.837 2.046-.935 0-1.837-.759-1.837-2.068 0-1.309.902-2.013 1.837-2.013.946 0 1.837.737 1.837 2.035zm5.464-2.068c.935 0 1.672.594 1.694 1.529h-3.355c.132-.957.814-1.529 1.661-1.529zm2.838 3.3h-1.353c-.231.473-.66.847-1.43.847-.924 0-1.639-.605-1.727-1.606h4.631c.033-.209.044-.407.044-.616 0-1.782-1.221-2.981-2.948-2.981-1.793 0-3.025 1.221-3.025 3.124s1.287 3.135 3.025 3.135c1.485 0 2.442-.847 2.783-1.903z" fill="#fff"/></svg>