<svg width="260" height="22" viewBox="0 0 260 22" fill="none" xmlns="http://www.w3.org/2000/svg"><path d="M9.614.956C5.05.984 1.466 2.972 1.466 7.368c0 3.836 3.192 4.872 7.644 5.936 3.22.812 3.78.924 3.78 2.044 0 .896-.952 1.288-2.043 1.288-2.493 0-5.32-.728-7.869-2.156L.626 18.4c2.688 1.792 5.992 2.744 9.633 2.744 5.04 0 8.203-2.296 8.203-6.468 0-4.004-3.275-5.124-7.867-6.356-3.053-.756-3.417-1.008-3.417-1.624 0-.896.868-1.288 1.876-1.288 1.932 0 4.564.672 6.804 1.82l2.212-4.06C15.774 1.768 12.75.956 9.614.956zm21.84.028c-5.796 0-10.5 4.508-10.5 10.08 0 5.544 4.704 10.052 10.5 10.052s10.5-4.508 10.5-10.052c0-5.572-4.704-10.08-10.5-10.08zm0 4.928c2.94 0 5.012 2.296 5.012 5.152 0 2.828-2.072 5.124-5.012 5.124-2.94 0-4.984-2.296-4.984-5.124 0-2.856 2.044-5.152 4.984-5.152zM55.239.984c-5.712 0-10.332 4.508-10.332 10.08 0 5.544 4.62 10.052 10.332 10.052 3.5 0 6.58-1.68 8.428-4.284l-4.564-2.576a4.68 4.68 0 01-3.836 1.932c-2.856 0-4.844-2.296-4.844-5.124 0-2.856 1.988-5.152 4.844-5.152a4.68 4.68 0 013.836 1.932l4.564-2.576C61.82 2.664 58.74.984 55.24.984zm16.71 19.852V1.264h-5.264v19.572h5.264zm25.146 0l-7.812-19.6h-6.916l-7.728 19.6h6.3l1.26-3.416h7.336l1.26 3.416h6.3zM83.57 13.22l2.268-6.104 2.268 6.104H83.57zm21.437 2.884V1.236h-5.264v19.6h14.868v-4.732h-9.604zm34.607-10.36V1.236h-16.66v4.508h5.684v15.092h5.292V5.744h5.684zm2.648-4.48v19.572h5.264v-5.964H150.663l3.808 5.964h6.076l-4.396-6.664c2.716-.924 3.864-2.912 3.864-6.104 0-4.788-2.548-6.804-8.932-6.804h-8.82zm5.264 4.732h3.808c2.324 0 3.192.728 3.192 2.408 0 1.708-.868 2.408-3.192 2.408h-3.808V5.996zm36.822 14.84l-7.812-19.6h-6.916l-7.728 19.6h6.3l1.26-3.416h7.336l1.26 3.416h6.3zm-13.524-7.616l2.268-6.104 2.268 6.104h-4.536zm16.173-11.956v19.572h8.4c5.796 0 10.5-4.228 10.5-9.772 0-5.572-4.704-9.828-10.5-9.828l-8.4.028zm5.264 4.704h2.94c2.912 0 5.292 2.184 5.292 5.068 0 2.912-2.38 5.096-5.292 5.096h-2.94V5.968zm22.367 14.868V1.264h-5.264v19.572h5.264zm22.373 0v-19.6h-5.18v10.948l-7.896-10.948h-5.46v19.6h5.18V9.916l7.896 10.92h5.46zm14.14-19.88c-5.572-.028-10.836 3.64-10.836 10.108 0 5.544 4.704 10.052 10.5 10.052 3.304 0 6.356-1.092 8.708-2.968V9.58h-8.372v3.752h3.36v1.876a7.271 7.271 0 01-3.696.98c-2.94 0-4.984-2.296-4.984-5.124 0-3.276 2.492-5.236 5.32-5.236 1.512 0 3.052.532 4.284 1.596l3.444-3.612c-2.184-1.876-4.956-2.828-7.728-2.856z" fill="#09B45B"/></svg>