<svg width="190" height="13" viewBox="0 0 190 13" fill="none" xmlns="http://www.w3.org/2000/svg"><path d="M.832 11.5h6.097v-1.326H2.327V7.535h3.666V6.248H2.327V3.726h4.446V2.4H.832v9.1zm13.076-1.222c-.286 0-.43-.091-.43-.429V7.184c0-1.573-1.013-2.418-2.781-2.418-1.677 0-2.795.806-2.938 2.106h1.378c.104-.585.663-.975 1.495-.975.923 0 1.456.455 1.456 1.196v.403H10.41c-1.86 0-2.847.767-2.847 2.132 0 1.235 1.014 1.95 2.47 1.95 1.079 0 1.755-.468 2.197-1.144 0 .663.312 1.066 1.222 1.066h.74v-1.222h-.285zm-1.82-1.508c-.013 1.027-.69 1.716-1.86 1.716-.766 0-1.234-.39-1.234-.949 0-.676.48-1.001 1.352-1.001h1.742v.234zm6.238-3.926c-1.093 0-1.625.442-1.963 1.001l-.157-1.001H14.96V11.5h1.404V8.159c0-1.027.402-2.002 1.65-2.002h.624V4.844h-.311zm4.688-.078c-1.08 0-1.716.429-2.133.949l-.155-.871h-1.223V11.5h1.404V8.146c0-1.352.663-2.171 1.782-2.171 1.052 0 1.585.676 1.585 1.937V11.5h1.418V7.795c0-2.223-1.21-3.029-2.678-3.029zm11.142 1.495c-1.43-.247-2.366-.442-2.366-1.378 0-.858.715-1.3 1.742-1.3 1.105 0 1.833.624 1.95 1.547h1.495c-.052-1.469-1.053-2.509-2.691-2.756V.996h-1.261v1.352c-1.651.169-2.73 1.196-2.73 2.639 0 1.807 1.43 2.288 2.938 2.548 1.443.26 2.392.468 2.392 1.43 0 .871-.78 1.352-1.86 1.352-1.273 0-2.105-.715-2.184-1.781l-1.508-.026c.052 1.612 1.131 2.782 2.952 3.016v1.365h1.26v-1.339c1.704-.182 2.835-1.261 2.835-2.743.013-1.794-1.456-2.275-2.964-2.548zm3.733 5.239h6.448v-1.261H39.93l2.419-2.015c1.105-.923 1.924-1.768 1.924-3.12 0-1.664-1.145-2.782-3.186-2.782-1.937 0-3.184 1.261-3.184 2.99v.234h1.443V5.39c0-1.131.702-1.833 1.742-1.833s1.728.572 1.728 1.612c0 .871-.61 1.508-1.43 2.197l-3.497 2.977V11.5zm7.33-4.342c0 2.743 1.47 4.42 3.589 4.42 2.119 0 3.588-1.677 3.588-4.42v-.416c0-2.639-1.47-4.42-3.588-4.42-2.12 0-3.588 1.781-3.588 4.42v.416zm5.72-.052c0 2.041-.857 3.211-2.131 3.211-1.274 0-2.132-1.17-2.132-3.211v-.312c0-2.028.858-3.211 2.132-3.211s2.132 1.183 2.132 3.211v.312zm2.47.052c0 2.743 1.468 4.42 3.587 4.42 2.12 0 3.588-1.677 3.588-4.42v-.416c0-2.639-1.469-4.42-3.588-4.42-2.119 0-3.588 1.781-3.588 4.42v.416zm5.72-.052c0 2.041-.859 3.211-2.133 3.211s-2.132-1.17-2.132-3.211v-.312c0-2.028.858-3.211 2.132-3.211s2.132 1.183 2.132 3.211v.312zm7.51 4.394h1.521l1.456-4.524L71.02 11.5h1.508l2.21-6.656h-1.43L71.735 9.94l-1.456-5.096h-1.287L67.471 9.94 65.95 4.844h-1.482l2.171 6.656zm9.553-7.592c.481 0 .858-.351.858-.845s-.377-.845-.858-.845c-.48 0-.858.351-.858.845s.377.845.858.845zm-.715 7.592h1.404V4.844h-1.404V11.5zm3.261-1.807c0 1.209.546 1.807 1.82 1.807h1.3v-1.235h-.988c-.533 0-.715-.195-.715-.715V6.079h1.625V4.844h-1.625V2.985h-1.417v1.859h-1.157v1.235h1.157v3.614zm7.51-4.927c-1.04 0-1.677.468-2.093 1.04V2.4h-1.404v9.1h1.404V8.133c0-1.339.677-2.158 1.781-2.158 1.04 0 1.6.676 1.6 1.937V11.5h1.403V7.795c0-2.223-1.208-3.029-2.69-3.029zm13.378 5.512c-.285 0-.428-.091-.428-.429V7.184c0-1.573-1.014-2.418-2.782-2.418-1.677 0-2.795.806-2.938 2.106h1.378c.104-.585.663-.975 1.495-.975.922 0 1.456.455 1.456 1.196v.403h-1.678c-1.859 0-2.847.767-2.847 2.132 0 1.235 1.014 1.95 2.47 1.95 1.08 0 1.755-.468 2.198-1.144 0 .663.311 1.066 1.221 1.066h.741v-1.222h-.286zm-1.82-1.508c-.013 1.027-.688 1.716-1.858 1.716-.767 0-1.235-.39-1.235-.949 0-.676.48-1.001 1.352-1.001h1.742v.234zm6.197 2.73h1.404V9.81l1.196-1.248 1.963 2.938h1.664l-2.665-3.965 2.509-2.691h-1.651l-3.016 3.224V2.4h-1.404v9.1zm10.417-6.734c-1.079 0-1.716.429-2.132.949l-.156-.871h-1.222V11.5h1.404V8.146c0-1.352.663-2.171 1.781-2.171 1.053 0 1.586.676 1.586 1.937V11.5h1.417V7.795c0-2.223-1.209-3.029-2.678-3.029zm7.05 6.812c2.028 0 3.393-1.365 3.393-3.406 0-2.028-1.365-3.406-3.393-3.406-2.028 0-3.393 1.378-3.393 3.406 0 2.041 1.365 3.406 3.393 3.406zm0-1.196c-1.183 0-1.95-.923-1.95-2.21s.767-2.21 1.95-2.21c1.183 0 1.963.923 1.963 2.21s-.78 2.21-1.963 2.21zm7.577 1.196c1.703 0 2.834-.949 3.094-2.457h-1.482c-.169.767-.741 1.261-1.599 1.261-1.131 0-1.872-.897-1.872-2.197 0-1.313.741-2.223 1.872-2.223.871 0 1.43.481 1.612 1.261h1.469c-.273-1.508-1.339-2.457-3.055-2.457-2.015 0-3.341 1.365-3.341 3.419 0 2.08 1.287 3.393 3.302 3.393zm4.168-.078h1.404V9.81l1.196-1.248 1.963 2.938h1.664l-2.665-3.965 2.509-2.691h-1.651l-3.016 3.224V2.4h-1.404v9.1zm9.634.078c2.028 0 3.393-1.365 3.393-3.406 0-2.028-1.365-3.406-3.393-3.406-2.028 0-3.393 1.378-3.393 3.406 0 2.041 1.365 3.406 3.393 3.406zm0-1.196c-1.183 0-1.95-.923-1.95-2.21s.767-2.21 1.95-2.21c1.183 0 1.963.923 1.963 2.21s-.78 2.21-1.963 2.21zm9.085-2.21c0 1.378-.65 2.184-1.716 2.184-1.027 0-1.547-.663-1.547-1.963V4.844h-1.404v3.705c0 2.275 1.209 3.029 2.626 3.029 1.027 0 1.638-.416 2.054-.923l.156.845h1.235V4.844h-1.404v3.328zm3.306 1.521c0 1.209.546 1.807 1.82 1.807h1.3v-1.235h-.988c-.533 0-.715-.195-.715-.715V6.079h1.625V4.844h-1.625V2.985h-1.417v1.859h-1.157v1.235h1.157v3.614zm10.486 1.885c2.028 0 3.393-1.365 3.393-3.406 0-2.028-1.365-3.406-3.393-3.406-2.028 0-3.393 1.378-3.393 3.406 0 2.041 1.365 3.406 3.393 3.406zm0-1.196c-1.183 0-1.95-.923-1.95-2.21s.767-2.21 1.95-2.21c1.183 0 1.963.923 1.963 2.21s-.78 2.21-1.963 2.21zm12.011-6.747V2.4h-1.339c-1.287 0-1.859.611-1.859 1.781v.663h-2.444v-.559c0-.455.182-.65.637-.65h.988V2.4h-1.183c-1.287 0-1.859.611-1.859 1.781v.663h-1.157v1.235h1.157V11.5h1.417V6.079h2.444V11.5h1.404V6.079h1.794V4.844h-1.794v-.559c0-.455.195-.65.65-.65h1.144zm3.617 7.943c1.651 0 2.769-1.001 3.003-2.314h-1.404c-.195.741-.819 1.17-1.677 1.17-1.105 0-1.82-.741-1.859-1.872v-.091h5.018c.026-.182.039-.364.039-.533-.039-1.95-1.326-3.172-3.25-3.172-1.963 0-3.276 1.365-3.276 3.419 0 2.041 1.313 3.393 3.406 3.393zm-1.885-4.134c.104-.949.871-1.547 1.768-1.547.975 0 1.664.559 1.781 1.547h-3.549zm9.507-2.6c-1.092 0-1.625.442-1.963 1.001l-.156-1.001h-1.248V11.5h1.404V8.159c0-1.027.403-2.002 1.651-2.002h.624V4.844h-.312z" fill="#000"/></svg>