<svg width="223" height="62" viewBox="0 0 223 62" fill="none" xmlns="http://www.w3.org/2000/svg"><path d="M1.92 25h14.07v-3.06H5.37v-6.09h8.46v-2.97H5.37V7.06h10.26V4H1.92v21zm30.175-2.82c-.66 0-.99-.21-.99-.99v-6.15c0-3.63-2.34-5.58-6.42-5.58-3.87 0-6.45 1.86-6.78 4.86h3.18c.24-1.35 1.53-2.25 3.45-2.25 2.13 0 3.36 1.05 3.36 2.76v.93h-3.87c-4.29 0-6.57 1.77-6.57 4.92 0 2.85 2.34 4.5 5.7 4.5 2.49 0 4.05-1.08 5.07-2.64 0 1.53.72 2.46 2.82 2.46h1.71v-2.82h-.66zm-4.2-3.48c-.03 2.37-1.59 3.96-4.29 3.96-1.77 0-2.85-.9-2.85-2.19 0-1.56 1.11-2.31 3.12-2.31h4.02v.54zM42.29 9.64c-2.52 0-3.75 1.02-4.53 2.31l-.36-2.31h-2.88V25h3.24v-7.71c0-2.37.93-4.62 3.81-4.62h1.44V9.64h-.72zm10.818-.18c-2.49 0-3.96.99-4.92 2.19l-.36-2.01h-2.82V25h3.24v-7.74c0-3.12 1.53-5.01 4.11-5.01 2.43 0 3.66 1.56 3.66 4.47V25h3.27v-8.55c0-5.13-2.79-6.99-6.18-6.99zm25.712 3.45c-3.3-.57-5.46-1.02-5.46-3.18 0-1.98 1.65-3 4.02-3 2.55 0 4.23 1.44 4.5 3.57h3.45c-.12-3.39-2.43-5.79-6.21-6.36V.76h-2.91v3.12c-3.81.39-6.3 2.76-6.3 6.09 0 4.17 3.3 5.28 6.78 5.88 3.33.6 5.52 1.08 5.52 3.3 0 2.01-1.8 3.12-4.29 3.12-2.94 0-4.86-1.65-5.04-4.11l-3.48-.06c.12 3.72 2.61 6.42 6.81 6.96v3.15h2.91v-3.09c3.93-.42 6.54-2.91 6.54-6.33.03-4.14-3.36-5.25-6.84-5.88zM87.437 25h14.88v-2.91h-10.17l5.58-4.65c2.55-2.13 4.44-4.08 4.44-7.2 0-3.84-2.64-6.42-7.35-6.42-4.47 0-7.35 2.91-7.35 6.9v.54h3.33v-.36c0-2.61 1.62-4.23 4.02-4.23 2.4 0 3.99 1.32 3.99 3.72 0 2.01-1.41 3.48-3.3 5.07l-8.07 6.87V25zm16.917-10.02c0 6.33 3.39 10.2 8.28 10.2 4.89 0 8.28-3.87 8.28-10.2v-.96c0-6.09-3.39-10.2-8.28-10.2-4.89 0-8.28 4.11-8.28 10.2v.96zm13.2-.12c0 4.71-1.98 7.41-4.92 7.41s-4.92-2.7-4.92-7.41v-.72c0-4.68 1.98-7.41 4.92-7.41s4.92 2.73 4.92 7.41v.72zm5.696.12c0 6.33 3.39 10.2 8.28 10.2 4.89 0 8.28-3.87 8.28-10.2v-.96c0-6.09-3.39-10.2-8.28-10.2-4.89 0-8.28 4.11-8.28 10.2v.96zm13.2-.12c0 4.71-1.98 7.41-4.92 7.41s-4.92-2.7-4.92-7.41v-.72c0-4.68 1.98-7.41 4.92-7.41s4.92 2.73 4.92 7.41v.72zM153.782 25h3.51l3.36-10.44 3.24 10.44h3.48l5.1-15.36h-3.3l-3.63 11.76-3.36-11.76h-2.97l-3.51 11.76-3.51-11.76h-3.42l5.01 15.36zm22.046-17.52c1.11 0 1.98-.81 1.98-1.95s-.87-1.95-1.98-1.95c-1.11 0-1.98.81-1.98 1.95s.87 1.95 1.98 1.95zM174.178 25h3.24V9.64h-3.24V25zm7.526-4.17c0 2.79 1.26 4.17 4.2 4.17h3v-2.85h-2.28c-1.23 0-1.65-.45-1.65-1.65v-8.01h3.75V9.64h-3.75V5.35h-3.27v4.29h-2.67v2.85h2.67v8.34zm17.331-11.37c-2.4 0-3.87 1.08-4.83 2.4V4h-3.24v21h3.24v-7.77c0-3.09 1.56-4.98 4.11-4.98 2.4 0 3.69 1.56 3.69 4.47V25h3.24v-8.55c0-5.13-2.79-6.99-6.21-6.99zM15.63 58.18c-.66 0-.99-.21-.99-.99v-6.15c0-3.63-2.34-5.58-6.42-5.58-3.87 0-6.45 1.86-6.78 4.86h3.18c.24-1.35 1.53-2.25 3.45-2.25 2.13 0 3.36 1.05 3.36 2.76v.93H7.56c-4.29 0-6.57 1.77-6.57 4.92 0 2.85 2.34 4.5 5.7 4.5 2.49 0 4.05-1.08 5.07-2.64 0 1.53.72 2.46 2.82 2.46h1.71v-2.82h-.66zm-4.2-3.48c-.03 2.37-1.59 3.96-4.29 3.96-1.77 0-2.85-.9-2.85-2.19 0-1.56 1.11-2.31 3.12-2.31h4.02v.54zm14.3 6.3h3.24v-3.9l2.76-2.88L36.26 61h3.84l-6.15-9.15 5.79-6.21h-3.81l-6.96 7.44V40h-3.24v21zm24.038-15.54c-2.49 0-3.96.99-4.92 2.19l-.36-2.01h-2.82V61h3.24v-7.74c0-3.12 1.53-5.01 4.11-5.01 2.43 0 3.66 1.56 3.66 4.47V61h3.27v-8.55c0-5.13-2.79-6.99-6.18-6.99zm16.27 15.72c4.68 0 7.83-3.15 7.83-7.86 0-4.68-3.15-7.86-7.83-7.86s-7.83 3.18-7.83 7.86c0 4.71 3.15 7.86 7.83 7.86zm0-2.76c-2.73 0-4.5-2.13-4.5-5.1 0-2.97 1.77-5.1 4.5-5.1s4.53 2.13 4.53 5.1c0 2.97-1.8 5.1-4.53 5.1zm17.485 2.76c3.93 0 6.54-2.19 7.14-5.67h-3.42c-.39 1.77-1.71 2.91-3.69 2.91-2.61 0-4.32-2.07-4.32-5.07 0-3.03 1.71-5.13 4.32-5.13 2.01 0 3.3 1.11 3.72 2.91h3.39c-.63-3.48-3.09-5.67-7.05-5.67-4.65 0-7.71 3.15-7.71 7.89 0 4.8 2.97 7.83 7.62 7.83zm9.62-.18h3.24v-3.9l2.76-2.88 4.53 6.78h3.84l-6.15-9.15 5.79-6.21h-3.81l-6.96 7.44V40h-3.24v21zm22.23.18c4.68 0 7.83-3.15 7.83-7.86 0-4.68-3.15-7.86-7.83-7.86s-7.83 3.18-7.83 7.86c0 4.71 3.15 7.86 7.83 7.86zm0-2.76c-2.73 0-4.5-2.13-4.5-5.1 0-2.97 1.77-5.1 4.5-5.1s4.53 2.13 4.53 5.1c0 2.97-1.8 5.1-4.53 5.1zm20.966-5.1c0 3.18-1.5 5.04-3.96 5.04-2.37 0-3.57-1.53-3.57-4.53v-8.19h-3.24v8.55c0 5.25 2.79 6.99 6.06 6.99 2.37 0 3.78-.96 4.74-2.13l.36 1.95h2.85V45.64h-3.24v7.68zm7.631 3.51c0 2.79 1.26 4.17 4.2 4.17h3v-2.85h-2.28c-1.23 0-1.65-.45-1.65-1.65v-8.01h3.75v-2.85h-3.75v-4.29h-3.27v4.29h-2.67v2.85h2.67v8.34zm24.196 4.35c4.68 0 7.83-3.15 7.83-7.86 0-4.68-3.15-7.86-7.83-7.86s-7.83 3.18-7.83 7.86c0 4.71 3.15 7.86 7.83 7.86zm0-2.76c-2.73 0-4.5-2.13-4.5-5.1 0-2.97 1.77-5.1 4.5-5.1s4.53 2.13 4.53 5.1c0 2.97-1.8 5.1-4.53 5.1zm27.719-15.57V40h-3.09c-2.97 0-4.29 1.41-4.29 4.11v1.53h-5.64v-1.29c0-1.05.42-1.5 1.47-1.5h2.28V40h-2.73c-2.97 0-4.29 1.41-4.29 4.11v1.53h-2.67v2.85h2.67V61h3.27V48.49h5.64V61h3.24V48.49h4.14v-2.85h-4.14v-1.29c0-1.05.45-1.5 1.5-1.5h2.64zm8.347 18.33c3.81 0 6.39-2.31 6.93-5.34h-3.24c-.45 1.71-1.89 2.7-3.87 2.7-2.55 0-4.2-1.71-4.29-4.32v-.21h11.58c.06-.42.09-.84.09-1.23-.09-4.5-3.06-7.32-7.5-7.32-4.53 0-7.56 3.15-7.56 7.89 0 4.71 3.03 7.83 7.86 7.83zm-4.35-9.54c.24-2.19 2.01-3.57 4.08-3.57 2.25 0 3.84 1.29 4.11 3.57h-8.19zm21.939-6c-2.52 0-3.75 1.02-4.53 2.31l-.36-2.31h-2.88V61h3.24v-7.71c0-2.37.93-4.62 3.81-4.62h1.44v-3.03h-.72z" fill="#000"/></svg>