<svg width="200" height="40" viewBox="0 0 200 40" fill="none" xmlns="http://www.w3.org/2000/svg"><rect width="200" height="40" rx="20" fill="#fff"/><path d="M36.273 26.102c2.686 0 4.658-1.53 5.1-3.995h-1.564c-.442 1.666-1.717 2.635-3.553 2.635-2.499 0-4.029-1.955-4.029-4.692 0-2.754 1.598-4.692 4.097-4.692 1.785 0 3.043.986 3.502 2.635h1.564c-.442-2.465-2.363-3.995-4.998-3.995-3.451 0-5.678 2.448-5.678 6.052 0 3.638 2.142 6.052 5.559 6.052zM42.955 26h1.394V14.1h-1.394V26zm10.97-1.275c-.39 0-.56-.119-.56-.578v-3.791c0-2.023-1.275-3.128-3.485-3.128-2.091 0-3.468 1.003-3.672 2.703h1.394c.17-.884.986-1.462 2.21-1.462 1.36 0 2.159.68 2.159 1.802v.595h-2.55c-2.278 0-3.485.969-3.485 2.703 0 1.581 1.292 2.533 3.196 2.533 1.496 0 2.363-.663 2.907-1.445.017.85.408 1.343 1.564 1.343h.765v-1.275h-.442zm-1.954-2.261c0 1.445-1.003 2.448-2.737 2.448-1.156 0-1.887-.578-1.887-1.428 0-.986.697-1.445 1.938-1.445h2.686v.425zm4.182-6.596c.51 0 .901-.374.901-.901a.876.876 0 00-.9-.901.876.876 0 00-.902.901c0 .527.391.901.901.901zM55.44 26h1.394v-8.67H55.44V26zm12.977-8.772c-1.547 0-2.482.714-3.009 1.649-.493-1.105-1.53-1.649-2.737-1.649-1.343 0-2.074.663-2.533 1.292l-.187-1.19h-1.207V26h1.394v-4.573c0-1.734.867-2.924 2.295-2.924 1.326 0 2.091.884 2.091 2.584V26h1.394v-4.641c0-1.768.884-2.856 2.329-2.856 1.309 0 2.057.884 2.057 2.584V26h1.394v-4.998c0-2.737-1.479-3.774-3.281-3.774zM86.587 22.6c0-2.312-1.989-2.958-3.927-3.281-1.785-.306-3.23-.595-3.23-2.023 0-1.275 1.037-1.955 2.584-1.955 1.615 0 2.72.901 2.89 2.278h1.53c-.119-1.904-1.41-3.281-3.553-3.57v-1.785H81.59v1.751c-2.176.153-3.638 1.462-3.638 3.366 0 2.312 1.972 2.941 3.893 3.264 1.802.306 3.264.612 3.264 2.091 0 1.292-1.139 2.023-2.737 2.023-1.819 0-3.06-1.054-3.179-2.652h-1.53c.085 2.125 1.496 3.689 3.927 3.961v1.751h1.292v-1.734c2.21-.187 3.706-1.581 3.706-3.485zm1.096 3.4h8.194v-1.309h-6.222l3.57-3.026c1.41-1.207 2.567-2.329 2.567-4.114 0-2.142-1.496-3.553-4.063-3.553-2.397 0-3.978 1.598-3.978 3.842v.306h1.428v-.221c0-1.632 1.02-2.652 2.55-2.652 1.58 0 2.6.85 2.6 2.346 0 1.292-.917 2.21-2.022 3.162l-4.624 4.012V26zm9.454-5.678c0 3.553 1.836 5.78 4.522 5.78 2.669 0 4.505-2.227 4.505-5.78v-.544c0-3.383-1.836-5.78-4.505-5.78-2.686 0-4.522 2.397-4.522 5.78v.544zm7.582-.051c0 2.822-1.224 4.522-3.06 4.522-1.853 0-3.077-1.7-3.077-4.522v-.442c0-2.822 1.224-4.522 3.077-4.522 1.836 0 3.06 1.7 3.06 4.522v.442zm2.91.051c0 3.553 1.836 5.78 4.522 5.78 2.669 0 4.505-2.227 4.505-5.78v-.544c0-3.383-1.836-5.78-4.505-5.78-2.686 0-4.522 2.397-4.522 5.78v.544zm7.582-.051c0 2.822-1.224 4.522-3.06 4.522-1.853 0-3.077-1.7-3.077-4.522v-.442c0-2.822 1.224-4.522 3.077-4.522 1.836 0 3.06 1.7 3.06 4.522v.442zm11.95-3.043c-1.462 0-2.397.697-2.975 1.496V14.1h-1.394V26h1.207l.187-1.326c.527.833 1.513 1.428 2.975 1.428 2.397 0 4.165-1.785 4.165-4.437 0-2.822-1.768-4.437-4.165-4.437zm-.136 7.633c-1.7 0-2.856-1.326-2.856-3.23 0-1.853 1.156-3.162 2.856-3.162 1.717 0 2.873 1.309 2.873 3.196 0 1.887-1.156 3.196-2.873 3.196zm9.889 1.241c2.533 0 4.301-1.802 4.301-4.437 0-2.635-1.768-4.437-4.301-4.437-2.533 0-4.301 1.802-4.301 4.437 0 2.635 1.768 4.437 4.301 4.437zm0-1.241c-1.717 0-2.873-1.343-2.873-3.196 0-1.853 1.156-3.196 2.873-3.196 1.717 0 2.873 1.343 2.873 3.196 0 1.853-1.156 3.196-2.873 3.196zm10.149-7.633c-1.462 0-2.346.612-2.856 1.275l-.187-1.173h-1.207V26h1.394v-4.335c0-1.955.986-3.162 2.618-3.162 1.513 0 2.346.952 2.346 2.754V26h1.394v-4.828c0-2.873-1.547-3.944-3.502-3.944zm11.349 4.437c0 1.955-.952 3.162-2.533 3.162-1.445 0-2.261-.952-2.261-2.754V17.33h-1.394v4.828c0 2.873 1.513 3.944 3.417 3.944 1.428 0 2.261-.612 2.771-1.258l.187 1.156h1.207v-8.67h-1.394v4.335zm2.937 1.479c.034 1.904 1.581 2.958 3.825 2.958 1.921 0 3.468-1.003 3.468-2.618 0-1.921-1.581-2.295-3.553-2.533-1.258-.153-2.176-.272-2.176-1.224 0-.799.816-1.309 2.023-1.309 1.19 0 2.006.663 2.108 1.547h1.428c-.136-1.802-1.564-2.72-3.536-2.737-1.955-.017-3.4 1.02-3.4 2.601 0 1.802 1.547 2.193 3.485 2.431 1.292.153 2.244.238 2.244 1.326 0 .799-.867 1.326-2.091 1.326-1.445 0-2.346-.748-2.397-1.768h-1.428z" fill="#000"/></svg>