<svg width="133" height="23" viewBox="0 0 133 23" fill="none" xmlns="http://www.w3.org/2000/svg"><path d="M7.835 2.724V.71H.397v2.013h2.538V9.46h2.362V2.724h2.538zm1.182-2V9.46h2.35V6.8h1.4l1.7 2.662h2.713l-1.963-2.975c1.213-.412 1.725-1.3 1.725-2.725 0-2.137-1.137-3.037-3.987-3.037H9.017zm2.35 2.112h1.7c1.038 0 1.425.325 1.425 1.075 0 .763-.387 1.075-1.425 1.075h-1.7v-2.15zm9.35 6.625V.724h-2.35V9.46h2.35zm8.951-6.637V.71h-7.162v8.75h7.237V7.35h-4.887V6.036h4.475v-2h-4.475V2.824h4.812zm1.407-2.1V9.46h3.75c2.588 0 4.688-1.887 4.688-4.362 0-2.488-2.1-4.388-4.688-4.388l-3.75.013zm2.35 2.1h1.313c1.3 0 2.362.975 2.362 2.262 0 1.3-1.062 2.275-2.362 2.275h-1.313V2.824zm11.486 4.312V5.311h-4.338v1.825h4.337zm10.75 2.325L52.175.711h-3.087l-3.45 8.75h2.812l.563-1.525h3.275l.562 1.525h2.813zm-6.037-3.4l1.013-2.725 1.012 2.725h-2.025zm15.42 3.4V.711h-2.312V5.6L59.207.71h-2.438v8.75h2.313V4.586l3.525 4.875h2.437zM66.756.724V9.46h3.75c2.588 0 4.688-1.887 4.688-4.362 0-2.488-2.1-4.388-4.688-4.388l-3.75.013zm2.35 2.1h1.313c1.3 0 2.362.975 2.362 2.262 0 1.3-1.062 2.275-2.362 2.275h-1.313V2.824zm11.486 4.312V5.311h-4.338v1.825h4.338zm8.163-4.412V.71h-7.437v2.013h2.537V9.46h2.363V2.724h2.537zm8.345.1V.71h-7.162v8.75h7.237V7.35h-4.888V6.036h4.475v-2h-4.475V2.824H97.1zm4.969-2.238c-2.037.013-3.637.9-3.637 2.863 0 1.712 1.425 2.175 3.412 2.65 1.438.362 1.688.412 1.688.912 0 .4-.425.575-.913.575-1.112 0-2.375-.325-3.512-.962l-1.05 1.75c1.2.8 2.675 1.225 4.3 1.225 2.25 0 3.662-1.025 3.662-2.888 0-1.787-1.462-2.287-3.512-2.837-1.363-.338-1.525-.45-1.525-.725 0-.4.387-.575.837-.575.863 0 2.038.3 3.038.812l.987-1.812c-1.025-.625-2.375-.988-3.775-.988zm12.15 2.138V.71h-7.437v2.013h2.537V9.46h2.363V2.724h2.537zm8.345.1V.71h-7.163v8.75h7.238V7.35h-4.888V6.036h4.475v-2h-4.475V2.824h4.813zm1.407-2.1V9.46h3.75c2.587 0 4.687-1.887 4.687-4.362 0-2.488-2.1-4.388-4.687-4.388l-3.75.013zm2.35 2.1h1.312c1.3 0 2.363.975 2.363 2.262 0 1.3-1.063 2.275-2.363 2.275h-1.312V2.824zm-83.043 12.9V13.71H35.84v2.013h2.538v6.737h2.362v-6.737h2.538zm1.182-2v8.737h2.35V19.8h1.4l1.7 2.662h2.713l-1.963-2.975c1.213-.412 1.725-1.3 1.725-2.725 0-2.137-1.137-3.037-3.987-3.037H44.46zm2.35 2.112h1.7c1.038 0 1.425.325 1.425 1.075 0 .763-.387 1.075-1.425 1.075h-1.7v-2.15zm16.438 6.625l-3.487-8.75h-3.088l-3.45 8.75h2.813l.562-1.525h3.275l.563 1.525h2.812zm-6.037-3.4l1.012-2.725 1.013 2.725H57.21zm7.22-5.337v8.737h3.75c2.587 0 4.687-1.887 4.687-4.362 0-2.488-2.1-4.388-4.687-4.388l-3.75.013zm2.35 2.1h1.312c1.3 0 2.363.975 2.363 2.262 0 1.3-1.063 2.275-2.363 2.275h-1.312v-4.537zm9.985 6.637v-8.737h-2.35v8.737h2.35zm9.988 0v-8.75h-2.312V18.6l-3.525-4.888h-2.438v8.75h2.313v-4.875l3.525 4.875h2.437zm6.313-8.875c-2.488-.012-4.838 1.625-4.838 4.513 0 2.475 2.1 4.487 4.688 4.487 1.474 0 2.837-.487 3.887-1.325v-3.825h-3.737v1.675h1.5v.838a3.246 3.246 0 01-1.65.437c-1.313 0-2.225-1.025-2.225-2.287 0-1.463 1.112-2.338 2.375-2.338.675 0 1.362.238 1.912.713l1.537-1.613a5.376 5.376 0 00-3.45-1.275z" fill="#09B45B"/></svg>