<svg width="49" height="18" viewBox="0 0 49 18" fill="none" xmlns="http://www.w3.org/2000/svg"><path d="M33.15 6.992h-2.497C29.97 2.953 27.104.5 22.773.5c-4.87 0-8.017 3.36-8.017 8.55 0 5.192 3.05 8.476 8.017 8.45 4.049 0 6.92-2.306 7.775-6.083h1.69l.517-1.477h-1.983a12.456 12.456 0 00.03-1.477h1.855l.493-1.476v.005zm-6.98 2.953h-2.66l-.516 1.477h3.034c-.341 2.21-1.259 3.74-3.157 3.74-2.508 0-3.491-2.75-3.491-6.157 0-3.408.787-6.134 3.32-6.158 1.992 0 3.022 1.718 3.363 4.147h-2.158l-.493 1.477h2.77a19.886 19.886 0 01-.012 1.476v-.002zM.986 17.094H5.34v-5.776h7.402V7.576H5.339v-2.75h8.189V.882H.986v16.212zM45.25 11.443c1.943-.865 3.22-2.52 3.22-4.988v-.05c0-1.579-.467-2.85-1.378-3.769C46.037 1.542 44.362.882 41.98.882h-7.426v16.212h4.353V12.18h1.917l3.147 4.914h5.016l-3.738-5.65h.002zm-1.133-4.71c0 1.196-.859 1.933-2.335 1.933h-2.879V4.75h2.854c1.476 0 2.36.662 2.36 1.933v.05z" fill="#fff"/></svg>