<svg width="108" height="19" viewBox="0 0 108 19" fill="none" xmlns="http://www.w3.org/2000/svg"><path d="M4.899 18.5V1.025h-4.7V18.5h4.7zm19.976 0V1H20.25v9.775L13.2 1H8.325v17.5h4.625V8.75L20 18.5h4.875zm3.424-17.475V18.5h7.5c5.175 0 9.375-3.775 9.375-8.725C45.174 4.8 40.974 1 35.8 1l-7.5.025zm4.7 4.2h2.625c2.6 0 4.725 1.95 4.725 4.525 0 2.6-2.125 4.55-4.725 4.55H33V5.225zM52.97 18.5V1.025h-4.7V18.5h4.7zM65.297.775c-5.1 0-9.225 4.025-9.225 9 0 4.95 4.125 8.975 9.225 8.975 3.125 0 5.875-1.5 7.525-3.825l-4.075-2.3a4.18 4.18 0 01-3.425 1.725c-2.55 0-4.325-2.05-4.325-4.575 0-2.55 1.775-4.6 4.325-4.6 1.45 0 2.65.675 3.425 1.725l4.075-2.3c-1.65-2.325-4.4-3.825-7.525-3.825zm24.545 4.45V1H75.516v17.5H89.99v-4.225h-9.775V11.65h8.95v-4h-8.95V5.225h9.625zM99.78.75c-4.075.025-7.275 1.8-7.275 5.725 0 3.425 2.85 4.35 6.825 5.3 2.875.725 3.375.825 3.375 1.825 0 .8-.85 1.15-1.825 1.15-2.225 0-4.75-.65-7.025-1.925l-2.1 3.5c2.4 1.6 5.35 2.45 8.6 2.45 4.5 0 7.325-2.05 7.325-5.775 0-3.575-2.925-4.575-7.025-5.675-2.725-.675-3.05-.9-3.05-1.45 0-.8.775-1.15 1.675-1.15 1.725 0 4.075.6 6.075 1.625l1.975-3.625C105.28 1.475 102.58.75 99.78.75z" fill="#09B45B"/></svg>