<svg width="28" height="10" viewBox="0 0 28 10" fill="none" xmlns="http://www.w3.org/2000/svg"><path d="M19.171 3.894h-1.42C17.364 1.764 15.734.47 13.272.47c-2.769 0-4.559 1.772-4.559 4.51 0 2.738 1.734 4.47 4.559 4.456 2.302 0 3.935-1.216 4.421-3.209h.961l.294-.778H17.82a6.102 6.102 0 00.017-.78h1.054l.28-.778v.003zM15.202 5.45H13.69l-.293.779h1.724c-.193 1.166-.715 1.973-1.795 1.973-1.426 0-1.985-1.45-1.985-3.248 0-1.797.448-3.235 1.888-3.248 1.133 0 1.719.907 1.912 2.188h-1.226l-.28.779h1.574a10.074 10.074 0 01-.007.779V5.45zM.883 9.436h2.474v-3.26h4.21V4.201h-4.21v-1.45h4.657V.671H.883v8.764zM26.052 6.242c1.104-.457 1.83-1.33 1.83-2.631v-.027c0-.833-.265-1.503-.783-1.987-.6-.578-1.552-.926-2.908-.926H19.97v8.765h2.475V6.63h1.09l1.343 2.84h2.852L26.05 6.242h.002zm-.644-2.485c0 .631-.489 1.02-1.328 1.02h-1.637V2.71h1.622c.84 0 1.343.349 1.343 1.02v.026z" fill="#fff"/></svg>