<svg width="192" height="29" viewBox="0 0 192 29" fill="none" xmlns="http://www.w3.org/2000/svg"><path d="M15.474.428C7.912.39.768 5.368.768 14.146c0 7.524 6.384 13.642 14.25 13.642 4.484 0 8.626-1.482 11.818-4.028V12.132H15.474v5.092h4.56v2.546c-1.444.836-3.116 1.33-5.016 1.33-3.99 0-6.764-3.116-6.764-6.954 0-4.446 3.382-7.106 7.22-7.106 2.052 0 4.142.722 5.814 2.166l4.674-4.902C22.998 1.758 19.236.466 15.474.428zm16.557.418v26.562h14.972c6.916 0 9.12-3.61 9.12-7.258 0-2.774-1.254-5.548-4.978-6.688 2.508-1.026 3.914-3.002 3.914-5.89 0-4.446-3.23-6.764-8.702-6.764L32.031.846zm7.144 10.716V6.66h5.092c2.128 0 3.306.836 3.306 2.47 0 1.596-1.216 2.432-3.306 2.432h-5.092zm0 10.032v-5.282h6.042c2.622 0 3.458 1.33 3.458 2.66s-.836 2.622-3.458 2.622h-6.042zM60.235.846v26.562h7.143v-7.562h4.56c7.904 0 11.666-2.926 11.666-9.424 0-6.498-3.572-9.576-11.742-9.576H60.234zm7.143 6.156h4.218c3.192 0 4.56 1.178 4.56 3.686 0 2.546-1.406 3.648-4.56 3.648h-4.218V7.002zm24.754 21.052l13.3-27.892L99.504.2l-13.3 27.854h5.928zM133.393.808h-7.182V15.21c0 4.256-1.938 6.042-5.054 6.042-3.078 0-5.016-1.786-5.054-6.042V.846h-7.144V15.21c0 8.702 4.712 12.578 12.198 12.578 7.486 0 12.236-3.876 12.236-12.578V.808zm16.046-.38c-6.194.038-11.058 2.736-11.058 8.702 0 5.206 4.332 6.612 10.374 8.056 4.37 1.102 5.13 1.254 5.13 2.774 0 1.216-1.292 1.748-2.774 1.748-3.382 0-7.22-.988-10.678-2.926l-3.192 5.32c3.648 2.432 8.132 3.724 13.072 3.724 6.84 0 11.134-3.116 11.134-8.778 0-5.434-4.446-6.954-10.678-8.626-4.142-1.026-4.636-1.368-4.636-2.204 0-1.216 1.178-1.748 2.546-1.748 2.622 0 6.194.912 9.234 2.47l3.002-5.51c-3.116-1.9-7.22-3.002-11.476-3.002zm16.112.418v26.562h11.4c7.866 0 14.25-5.738 14.25-13.262 0-7.562-6.384-13.338-14.25-13.338l-11.4.038zm7.144 6.384h3.99c3.952 0 7.182 2.964 7.182 6.878 0 3.952-3.23 6.916-7.182 6.916h-3.99V7.23z" fill="#09B45B"/></svg>