<svg width="248" height="76" viewBox="0 0 248 76" fill="none" xmlns="http://www.w3.org/2000/svg"><path d="M.76 4.276h8.208V27h4.37V4.276h8.208V.4H.76v3.876zm31.58 3.268c-3.192 0-4.75 1.292-5.738 2.926l-.456-2.926h-3.648V27h4.104v-9.766c0-3.002 1.178-5.852 4.826-5.852h1.824V7.544h-.912zm20.634 15.884c-.836 0-1.254-.266-1.254-1.254v-7.79c0-4.598-2.964-7.068-8.132-7.068-4.902 0-8.17 2.356-8.588 6.156h4.028c.304-1.71 1.938-2.85 4.37-2.85 2.698 0 4.256 1.33 4.256 3.496v1.178h-4.902c-5.434 0-8.322 2.242-8.322 6.232 0 3.61 2.964 5.7 7.22 5.7 3.154 0 5.13-1.368 6.422-3.344 0 1.938.912 3.116 3.572 3.116h2.166v-3.572h-.836zm-5.32-4.408c-.038 3.002-2.014 5.016-5.434 5.016-2.242 0-3.61-1.14-3.61-2.774 0-1.976 1.406-2.926 3.952-2.926h5.092v.684zm23.025-8.778c-1.254-1.71-3.344-2.926-6.308-2.926-5.282 0-9.196 3.952-9.196 9.956 0 6.232 3.914 9.956 9.196 9.956 3.078 0 5.092-1.444 6.346-3.154L71.21 27h3.572V.4h-4.104v9.842zM65.055 23.77c-3.42 0-5.662-2.66-5.662-6.498 0-3.8 2.242-6.46 5.662-6.46s5.662 2.66 5.662 6.536c0 3.762-2.242 6.422-5.662 6.422zm22.972 3.458c4.826 0 8.094-2.926 8.778-6.764h-4.104c-.57 2.166-2.394 3.42-4.902 3.42-3.23 0-5.32-2.166-5.434-5.472v-.266h14.668c.076-.532.114-1.064.114-1.558-.114-5.7-3.876-9.272-9.5-9.272-5.738 0-9.576 3.99-9.576 9.994 0 5.966 3.838 9.918 9.956 9.918zm-5.51-12.084c.304-2.774 2.546-4.522 5.168-4.522 2.85 0 4.864 1.634 5.206 4.522H82.517zm36.867 12.084c5.928 0 9.918-3.99 9.918-9.956 0-5.928-3.99-9.956-9.918-9.956-5.928 0-9.918 4.028-9.918 9.956 0 5.966 3.99 9.956 9.918 9.956zm0-3.496c-3.458 0-5.7-2.698-5.7-6.46s2.242-6.46 5.7-6.46 5.738 2.698 5.738 6.46-2.28 6.46-5.738 6.46zm23.478-16.416c-3.154 0-5.016 1.254-6.232 2.774l-.456-2.546h-3.572V27h4.104v-9.804c0-3.952 1.938-6.346 5.206-6.346 3.078 0 4.636 1.976 4.636 5.662V27h4.142V16.17c0-6.498-3.534-8.854-7.828-8.854zM7.258 68h5.016l7.182-19.456h-4.332L9.842 63.592 4.484 48.544H.076L7.258 68zm22.58.228c5.929 0 9.919-3.99 9.919-9.956 0-5.928-3.99-9.956-9.918-9.956-5.928 0-9.918 4.028-9.918 9.956 0 5.966 3.99 9.956 9.918 9.956zm0-3.496c-3.457 0-5.7-2.698-5.7-6.46s2.243-6.46 5.7-6.46c3.459 0 5.739 2.698 5.739 6.46s-2.28 6.46-5.738 6.46zM43.058 68h4.104V41.4h-4.104V68zm25.91-3.572c-.835 0-1.253-.266-1.253-1.254v-7.79c0-4.598-2.964-7.068-8.132-7.068-4.902 0-8.17 2.356-8.588 6.156h4.028c.304-1.71 1.938-2.85 4.37-2.85 2.698 0 4.256 1.33 4.256 3.496v1.178h-4.902c-5.434 0-8.322 2.242-8.322 6.232 0 3.61 2.964 5.7 7.22 5.7 3.154 0 5.13-1.368 6.422-3.344 0 1.938.912 3.116 3.572 3.116h2.166v-3.572h-.836zm-5.32-4.408c-.037 3.002-2.013 5.016-5.433 5.016-2.242 0-3.61-1.14-3.61-2.774 0-1.976 1.406-2.926 3.952-2.926h5.092v.684zm9.798 2.698c0 3.534 1.596 5.282 5.32 5.282h3.8v-3.61h-2.888c-1.558 0-2.09-.57-2.09-2.09V52.154h4.75v-3.61h-4.75V43.11h-4.142v5.434h-3.382v3.61h3.382v10.564zm13.821-16.91c1.406 0 2.508-1.026 2.508-2.47 0-1.444-1.102-2.47-2.508-2.47s-2.508 1.026-2.508 2.47c0 1.444 1.102 2.47 2.508 2.47zM85.176 68h4.104V48.544h-4.104V68zm8.127 0h4.104V41.4h-4.104V68zm10.217-22.192c1.406 0 2.508-1.026 2.508-2.47 0-1.444-1.102-2.47-2.508-2.47s-2.508 1.026-2.508 2.47c0 1.444 1.102 2.47 2.508 2.47zM101.43 68h4.104V48.544h-4.104V68zm9.533-5.282c0 3.534 1.596 5.282 5.32 5.282h3.8v-3.61h-2.888c-1.558 0-2.09-.57-2.09-2.09V52.154h4.75v-3.61h-4.75V43.11h-4.142v5.434h-3.382v3.61h3.382v10.564zm17.355 5.396l-.76 1.9c-.608 1.596-.988 1.976-2.584 1.976h-2.888v3.61h4.408c2.85 0 3.686-1.406 4.902-4.56l8.816-22.496h-4.37l-5.282 14.782-5.434-14.782h-4.37l7.562 19.57zm25.098-5.396c0 3.534 1.596 5.282 5.32 5.282h3.8v-3.61h-2.888c-1.558 0-2.09-.57-2.09-2.09V52.154h4.75v-3.61h-4.75V43.11h-4.142v5.434h-3.382v3.61h3.382v10.564zm20.519 5.51c5.928 0 9.918-3.99 9.918-9.956 0-5.928-3.99-9.956-9.918-9.956-5.928 0-9.918 4.028-9.918 9.956 0 5.966 3.99 9.956 9.918 9.956zm0-3.496c-3.458 0-5.7-2.698-5.7-6.46s2.242-6.46 5.7-6.46 5.738 2.698 5.738 6.46-2.28 6.46-5.738 6.46zm28-13.49c-1.254-1.71-3.344-2.926-6.308-2.926-5.282 0-9.196 3.952-9.196 9.956 0 6.232 3.914 9.956 9.196 9.956 3.078 0 5.092-1.444 6.346-3.154l.494 2.926h3.572V41.4h-4.104v9.842zm-5.624 13.528c-3.42 0-5.662-2.66-5.662-6.498 0-3.8 2.242-6.46 5.662-6.46s5.662 2.66 5.662 6.536c0 3.762-2.242 6.422-5.662 6.422zm31.522-.342c-.836 0-1.254-.266-1.254-1.254v-7.79c0-4.598-2.964-7.068-8.132-7.068-4.902 0-8.17 2.356-8.588 6.156h4.028c.304-1.71 1.938-2.85 4.37-2.85 2.698 0 4.256 1.33 4.256 3.496v1.178h-4.902c-5.434 0-8.322 2.242-8.322 6.232 0 3.61 2.964 5.7 7.22 5.7 3.154 0 5.13-1.368 6.422-3.344 0 1.938.912 3.116 3.572 3.116h2.166v-3.572h-.836zm-5.32-4.408c-.038 3.002-2.014 5.016-5.434 5.016-2.242 0-3.61-1.14-3.61-2.774 0-1.976 1.406-2.926 3.952-2.926h5.092v.684zm13.199 8.094l-.76 1.9c-.608 1.596-.988 1.976-2.584 1.976h-2.888v3.61h4.408c2.85 0 3.686-1.406 4.902-4.56l8.816-22.496h-4.37l-5.282 14.782-5.434-14.782h-4.37l7.562 19.57z" fill="#000"/></svg>