<svg width="144" height="18" viewBox="0 0 144 18" fill="none" xmlns="http://www.w3.org/2000/svg"><path d="M1.982 9.512c-.501 0-.933-.176-1.296-.528a1.788 1.788 0 01-.544-1.312c0-.523.182-.96.544-1.312a1.77 1.77 0 011.296-.544c.523 0 .96.181 1.312.544.363.352.544.79.544 1.312 0 .512-.181.95-.544 1.312-.352.352-.789.528-1.312.528zm18.322 3.6c-1.035 0-1.973-.24-2.816-.72a5.38 5.38 0 01-2-2.032c-.48-.875-.72-1.861-.72-2.96s.24-2.08.72-2.944a5.233 5.233 0 012-2.032c.843-.49 1.781-.736 2.816-.736 1.045 0 1.99.245 2.832.736a5.123 5.123 0 011.984 2.032c.48.864.72 1.845.72 2.944s-.24 2.085-.72 2.96a5.265 5.265 0 01-1.984 2.032c-.843.48-1.787.72-2.832.72zm0-.976c.832 0 1.579-.192 2.24-.576a4.101 4.101 0 001.568-1.648c.384-.725.576-1.563.576-2.512 0-.95-.192-1.781-.576-2.496a4.102 4.102 0 00-1.568-1.648c-.661-.384-1.408-.576-2.24-.576-.832 0-1.579.192-2.24.576a4.102 4.102 0 00-1.568 1.648c-.384.715-.576 1.547-.576 2.496 0 .95.192 1.787.576 2.512a4.101 4.101 0 001.568 1.648c.661.384 1.408.576 2.24.576zm11.681-8.032c1.046 0 1.899.325 2.56.976.662.64.992 1.573.992 2.8V13h-1.104V8.008c0-.95-.24-1.675-.72-2.176-.469-.501-1.114-.752-1.936-.752-.842 0-1.514.267-2.016.8-.501.533-.752 1.317-.752 2.352V13h-1.12V4.264h1.12v1.488a2.81 2.81 0 011.2-1.216c.523-.288 1.115-.432 1.776-.432zm13.933 4.08c0 .384-.01.677-.032.88h-7.248c.032.661.192 1.227.48 1.696.288.47.667.827 1.136 1.072.47.235.982.352 1.536.352.726 0 1.334-.176 1.824-.528.502-.352.832-.827.992-1.424h1.184a3.723 3.723 0 01-1.376 2.096c-.693.533-1.568.8-2.624.8-.821 0-1.557-.181-2.208-.544a4.02 4.02 0 01-1.536-1.568c-.362-.683-.544-1.477-.544-2.384 0-.907.182-1.701.544-2.384a3.78 3.78 0 011.52-1.568c.651-.363 1.392-.544 2.224-.544.832 0 1.558.181 2.176.544.63.363 1.11.853 1.44 1.472a4.08 4.08 0 01.512 2.032zm-1.136-.032c.011-.65-.122-1.205-.4-1.664a2.596 2.596 0 00-1.104-1.04 3.386 3.386 0 00-1.536-.352c-.832 0-1.541.267-2.128.8-.586.533-.912 1.285-.976 2.256h6.144zm8.61-1.552v.944h-6.225V6.6h6.224zm4.328-1.392v5.424c0 .533.102.901.304 1.104.203.203.56.304 1.072.304h1.024V13h-1.2c-.789 0-1.376-.181-1.76-.544-.384-.373-.576-.981-.576-1.824V5.208h-1.216v-.944h1.216V2.072h1.136v2.192h2.4v.944h-2.4zm3.736 3.408c0-.896.175-1.68.527-2.352.363-.683.86-1.205 1.489-1.568.64-.373 1.36-.56 2.16-.56.831 0 1.546.192 2.143.576.608.384 1.046.875 1.313 1.472v-1.92h1.12V13h-1.12v-1.936c-.278.597-.72 1.093-1.328 1.488-.598.384-1.313.576-2.145.576-.789 0-1.503-.187-2.143-.56a3.952 3.952 0 01-1.489-1.584c-.351-.683-.527-1.472-.527-2.368zm7.632.016c0-.704-.144-1.323-.432-1.856a3.066 3.066 0 00-1.184-1.232 3.165 3.165 0 00-1.632-.432c-.62 0-1.174.139-1.665.416-.49.277-.88.683-1.167 1.216-.278.523-.416 1.147-.416 1.872 0 .715.138 1.344.416 1.888a3.1 3.1 0 001.167 1.232c.491.277 1.046.416 1.665.416.597 0 1.14-.144 1.632-.432a3.066 3.066 0 001.184-1.232c.287-.533.431-1.152.431-1.856zm4.78-2.448c.278-.587.715-1.072 1.312-1.456.608-.395 1.328-.592 2.16-.592.79 0 1.499.187 2.128.56a3.71 3.71 0 011.488 1.568c.363.672.544 1.456.544 2.352 0 .896-.181 1.685-.544 2.368a3.812 3.812 0 01-1.488 1.584c-.629.373-1.338.56-2.128.56-.821 0-1.536-.192-2.144-.576-.608-.395-1.05-.885-1.328-1.472v6.048h-1.104V4.264h1.104v1.92zm6.496 2.432c0-.725-.144-1.35-.432-1.872a2.888 2.888 0 00-1.152-1.216 3.322 3.322 0 00-1.664-.416 3.25 3.25 0 00-1.648.432A3.1 3.1 0 0074.3 6.776c-.288.533-.432 1.152-.432 1.856 0 .704.144 1.323.432 1.856a3.1 3.1 0 001.168 1.232 3.25 3.25 0 001.648.432c.619 0 1.174-.139 1.664-.416.491-.288.875-.699 1.152-1.232.288-.544.432-1.173.432-1.888zm9.044-3.408v5.424c0 .533.101.901.304 1.104.203.203.56.304 1.072.304h1.024V13h-1.2c-.79 0-1.376-.181-1.76-.544-.384-.373-.576-.981-.576-1.824V5.208h-1.216v-.944h1.216V2.072h1.136v2.192h2.4v.944h-2.4zm5.367.608a2.75 2.75 0 011.12-1.264c.512-.299 1.136-.448 1.872-.448v1.168h-.304c-.81 0-1.461.219-1.952.656-.49.437-.736 1.168-.736 2.192V13h-1.12V4.264h1.12v1.552zm4.165 2.8c0-.896.176-1.68.528-2.352a3.843 3.843 0 011.488-1.568c.64-.373 1.36-.56 2.16-.56.832 0 1.547.192 2.144.576.608.384 1.045.875 1.312 1.472v-1.92h1.12V13h-1.12v-1.936c-.277.597-.72 1.093-1.328 1.488-.597.384-1.312.576-2.144.576a4.178 4.178 0 01-2.144-.56 3.953 3.953 0 01-1.488-1.584c-.352-.683-.528-1.472-.528-2.368zm7.632.016c0-.704-.144-1.323-.432-1.856a3.068 3.068 0 00-1.184-1.232 3.166 3.166 0 00-1.632-.432c-.619 0-1.173.139-1.664.416-.491.277-.88.683-1.168 1.216-.277.523-.416 1.147-.416 1.872 0 .715.139 1.344.416 1.888.288.533.677.944 1.168 1.232a3.322 3.322 0 001.664.416c.597 0 1.141-.144 1.632-.432a3.068 3.068 0 001.184-1.232c.288-.533.432-1.152.432-1.856zm3.165-.016c0-.896.181-1.68.544-2.352a3.833 3.833 0 011.488-1.568c.64-.373 1.36-.56 2.16-.56.768 0 1.461.187 2.08.56.618.373 1.072.859 1.36 1.456V1.16h1.12V13h-1.12v-1.952c-.267.608-.704 1.11-1.312 1.504-.608.384-1.323.576-2.144.576-.8 0-1.52-.187-2.16-.56a3.942 3.942 0 01-1.488-1.584c-.352-.683-.528-1.472-.528-2.368zm7.632.016c0-.704-.144-1.323-.432-1.856a3.068 3.068 0 00-1.184-1.232 3.166 3.166 0 00-1.632-.432 3.32 3.32 0 00-1.664.416c-.491.277-.88.683-1.168 1.216-.278.523-.416 1.147-.416 1.872 0 .715.138 1.344.416 1.888.288.533.677.944 1.168 1.232a3.32 3.32 0 001.664.416c.597 0 1.141-.144 1.632-.432a3.068 3.068 0 001.184-1.232c.288-.533.432-1.152.432-1.856zm4.237-6.016a.786.786 0 01-.576-.24.804.804 0 01-.24-.592c0-.235.08-.427.24-.576.16-.16.352-.24.576-.24.224 0 .416.08.576.24.16.15.24.341.24.576 0 .235-.08.432-.24.592a.786.786 0 01-.576.24zm.56 1.648V13h-1.12V4.264h1.12zm6.632-.16c1.045 0 1.899.325 2.56.976.661.64.992 1.573.992 2.8V13h-1.104V8.008c0-.95-.24-1.675-.72-2.176-.469-.501-1.115-.752-1.936-.752-.843 0-1.515.267-2.016.8-.501.533-.752 1.317-.752 2.352V13h-1.12V4.264h1.12v1.488a2.808 2.808 0 011.2-1.216c.523-.288 1.115-.432 1.776-.432zm9.693.032c.821 0 1.536.192 2.144.576.608.384 1.045.87 1.312 1.456V4.264h1.12v8.96c0 .8-.176 1.51-.528 2.128a3.49 3.49 0 01-1.44 1.424c-.619.341-1.323.512-2.112.512-1.12 0-2.053-.267-2.8-.8-.736-.533-1.195-1.259-1.376-2.176h1.104a2.7 2.7 0 001.088 1.456c.544.363 1.205.544 1.984.544.565 0 1.072-.123 1.52-.368a2.52 2.52 0 001.056-1.056c.256-.47.384-1.024.384-1.664v-2.16c-.277.597-.72 1.093-1.328 1.488-.597.384-1.307.576-2.128.576-.8 0-1.52-.187-2.16-.56a3.956 3.956 0 01-1.488-1.584c-.352-.683-.528-1.472-.528-2.368 0-.896.176-1.68.528-2.352.363-.683.859-1.205 1.488-1.568.64-.373 1.36-.56 2.16-.56zm3.456 4.496c0-.704-.144-1.323-.432-1.856a3.068 3.068 0 00-1.184-1.232 3.166 3.166 0 00-1.632-.432c-.619 0-1.173.139-1.664.416-.491.277-.88.683-1.168 1.216-.277.523-.416 1.147-.416 1.872 0 .715.139 1.344.416 1.888.288.533.677.944 1.168 1.232a3.322 3.322 0 001.664.416c.597 0 1.141-.144 1.632-.432a3.068 3.068 0 001.184-1.232c.288-.533.432-1.152.432-1.856z" fill="#fff"/></svg>