<svg width="174" height="13" viewBox="0 0 174 13" fill="none" xmlns="http://www.w3.org/2000/svg"><path d="M7.824.816v.928H4.72V12H3.6V1.744H.48V.816h7.344zm2.889 4a2.75 2.75 0 011.12-1.264c.511-.299 1.136-.448 1.871-.448v1.168H13.4c-.81 0-1.46.219-1.952.656-.49.437-.736 1.168-.736 2.192V12h-1.12V3.264h1.12v1.552zm4.164 2.8c0-.896.176-1.68.528-2.352.363-.683.859-1.205 1.488-1.568.64-.373 1.36-.56 2.16-.56.832 0 1.547.192 2.144.576.608.384 1.046.875 1.312 1.472v-1.92h1.12V12h-1.12v-1.936c-.277.597-.72 1.093-1.328 1.488-.597.384-1.312.576-2.144.576-.789 0-1.504-.187-2.144-.56a3.95 3.95 0 01-1.488-1.584c-.352-.683-.528-1.472-.528-2.368zm7.632.016c0-.704-.144-1.323-.432-1.856a3.066 3.066 0 00-1.184-1.232 3.165 3.165 0 00-1.632-.432c-.618 0-1.173.139-1.664.416-.49.277-.88.683-1.168 1.216-.277.523-.416 1.147-.416 1.872 0 .715.139 1.344.416 1.888a3.1 3.1 0 001.168 1.232c.491.277 1.046.416 1.664.416.598 0 1.142-.144 1.632-.432a3.066 3.066 0 001.184-1.232c.288-.533.432-1.152.432-1.856zm3.165-.016c0-.896.182-1.68.544-2.352.363-.683.859-1.205 1.488-1.568.64-.373 1.36-.56 2.16-.56.768 0 1.462.187 2.08.56.619.373 1.072.859 1.36 1.456V.16h1.12V12h-1.12v-1.952c-.266.608-.704 1.11-1.312 1.504-.608.384-1.322.576-2.144.576-.8 0-1.52-.187-2.16-.56a3.95 3.95 0 01-1.488-1.584c-.352-.683-.528-1.472-.528-2.368zm7.632.016c0-.704-.144-1.323-.432-1.856a3.066 3.066 0 00-1.184-1.232 3.165 3.165 0 00-1.632-.432c-.618 0-1.173.139-1.664.416-.49.277-.88.683-1.168 1.216-.277.523-.416 1.147-.416 1.872 0 .715.139 1.344.416 1.888a3.1 3.1 0 001.168 1.232c.49.277 1.046.416 1.664.416.598 0 1.142-.144 1.632-.432a3.066 3.066 0 001.184-1.232c.288-.533.432-1.152.432-1.856zm11.581-.448c0 .384-.01.677-.032.88h-7.248c.032.661.192 1.227.48 1.696.288.47.667.827 1.136 1.072.47.235.982.352 1.536.352.725 0 1.334-.176 1.824-.528.502-.352.832-.827.992-1.424h1.184a3.722 3.722 0 01-1.376 2.096c-.693.533-1.568.8-2.624.8-.821 0-1.557-.181-2.208-.544a4.022 4.022 0 01-1.536-1.568c-.362-.683-.544-1.477-.544-2.384 0-.907.182-1.701.544-2.384a3.782 3.782 0 011.52-1.568c.65-.363 1.392-.544 2.224-.544.832 0 1.557.181 2.176.544.63.363 1.11.853 1.44 1.472.342.608.512 1.285.512 2.032zm-1.136-.032c.01-.65-.122-1.205-.4-1.664a2.595 2.595 0 00-1.104-1.04 3.386 3.386 0 00-1.536-.352c-.832 0-1.541.267-2.128.8-.587.533-.912 1.285-.976 2.256h6.144zm9.032-2.944v5.424c0 .533.101.901.304 1.104.202.203.56.304 1.072.304h1.024V12h-1.2c-.79 0-1.376-.181-1.76-.544-.384-.373-.576-.981-.576-1.824V4.208H50.43v-.944h1.216V1.072h1.136v2.192h2.4v.944h-2.4zm8.407-1.104c.661 0 1.253.139 1.776.416.533.277.95.704 1.248 1.28.31.565.464 1.259.464 2.08V12h-1.104V7.008c0-.95-.24-1.675-.72-2.176-.47-.501-1.115-.752-1.936-.752-.843 0-1.515.267-2.016.8-.501.533-.752 1.317-.752 2.352V12h-1.12V.16h1.12v4.592a2.906 2.906 0 011.216-1.216 3.837 3.837 0 011.824-.432zm13.869 4.08c0 .384-.01.677-.032.88h-7.248c.032.661.192 1.227.48 1.696.288.47.667.827 1.136 1.072.47.235.981.352 1.536.352.725 0 1.333-.176 1.824-.528.501-.352.832-.827.992-1.424h1.184a3.722 3.722 0 01-1.376 2.096c-.693.533-1.568.8-2.624.8-.821 0-1.557-.181-2.208-.544a4.02 4.02 0 01-1.536-1.568c-.363-.683-.544-1.477-.544-2.384 0-.907.181-1.701.544-2.384a3.781 3.781 0 011.52-1.568c.65-.363 1.392-.544 2.224-.544.832 0 1.557.181 2.176.544.63.363 1.11.853 1.44 1.472a4.08 4.08 0 01.512 2.032zm-1.136-.032c.01-.65-.123-1.205-.4-1.664a2.596 2.596 0 00-1.104-1.04 3.386 3.386 0 00-1.536-.352c-.832 0-1.541.267-2.128.8-.587.533-.912 1.285-.976 2.256h6.144zM82.571.816v7.04c0 1.11.261 1.93.784 2.464.533.533 1.258.8 2.176.8.917 0 1.632-.261 2.144-.784.522-.533.784-1.36.784-2.48V.816h1.12V7.84c0 1.419-.379 2.485-1.136 3.2-.747.715-1.723 1.072-2.928 1.072-1.206 0-2.187-.357-2.944-1.072-.747-.715-1.12-1.781-1.12-3.2V.816h1.12zm12.898 11.296c-.736 0-1.387-.128-1.952-.384a3.188 3.188 0 01-1.312-1.072c-.32-.459-.49-.97-.512-1.536h1.184c.053.544.293 1.024.72 1.44.427.405 1.05.608 1.872.608.757 0 1.355-.192 1.792-.576a1.9 1.9 0 00.672-1.488c0-.48-.123-.864-.368-1.152a2.158 2.158 0 00-.912-.656c-.363-.15-.864-.31-1.504-.48-.747-.203-1.339-.4-1.776-.592a2.826 2.826 0 01-1.12-.896c-.31-.405-.464-.955-.464-1.648 0-.576.15-1.088.448-1.536.299-.459.72-.816 1.264-1.072.544-.256 1.168-.384 1.872-.384 1.034 0 1.867.256 2.496.768a2.818 2.818 0 011.104 1.952h-1.216c-.075-.459-.326-.864-.752-1.216-.427-.363-1.003-.544-1.728-.544-.672 0-1.232.181-1.68.544-.448.352-.672.837-.672 1.456 0 .47.123.848.368 1.136.245.288.55.507.912.656.373.15.874.31 1.504.48.725.203 1.312.405 1.76.608.448.192.827.49 1.136.896.31.405.464.95.464 1.632a2.88 2.88 0 01-.416 1.488c-.278.47-.688.848-1.232 1.136-.544.288-1.195.432-1.952.432zM112.168.816v.928h-3.104V12h-1.12V1.744h-3.12V.816h7.344zm9.672 6.368c0 .384-.01.677-.032.88h-7.248c.032.661.192 1.227.48 1.696.288.47.667.827 1.136 1.072.47.235.982.352 1.536.352.726 0 1.334-.176 1.824-.528.502-.352.832-.827.992-1.424h1.184a3.72 3.72 0 01-1.376 2.096c-.693.533-1.568.8-2.624.8-.821 0-1.557-.181-2.208-.544a4.03 4.03 0 01-1.536-1.568c-.362-.683-.544-1.477-.544-2.384 0-.907.182-1.701.544-2.384a3.787 3.787 0 011.52-1.568c.651-.363 1.392-.544 2.224-.544.832 0 1.558.181 2.176.544.63.363 1.11.853 1.44 1.472.342.608.512 1.285.512 2.032zm-1.136-.032c.011-.65-.122-1.205-.4-1.664a2.588 2.588 0 00-1.104-1.04 3.384 3.384 0 00-1.536-.352c-.832 0-1.541.267-2.128.8-.586.533-.912 1.285-.976 2.256h6.144zm2.673.48c0-.907.182-1.696.544-2.368a3.812 3.812 0 011.504-1.568c.64-.373 1.371-.56 2.192-.56 1.078 0 1.963.267 2.656.8.704.533 1.158 1.259 1.36 2.176h-1.2c-.149-.63-.474-1.12-.976-1.472-.49-.363-1.104-.544-1.84-.544-.586 0-1.114.133-1.584.4-.469.267-.842.667-1.12 1.2-.266.523-.4 1.168-.4 1.936s.134 1.419.4 1.952c.278.533.651.933 1.12 1.2.47.267.998.4 1.584.4.736 0 1.35-.176 1.84-.528.502-.363.827-.864.976-1.504h1.2c-.202.896-.656 1.616-1.36 2.16-.704.544-1.589.816-2.656.816-.821 0-1.552-.181-2.192-.544a3.945 3.945 0 01-1.504-1.568c-.362-.683-.544-1.477-.544-2.384zm14.485-4.528c.661 0 1.253.139 1.776.416.533.277.949.704 1.248 1.28.309.565.464 1.259.464 2.08V12h-1.104V7.008c0-.95-.24-1.675-.72-2.176-.469-.501-1.115-.752-1.936-.752-.843 0-1.515.267-2.016.8-.501.533-.752 1.317-.752 2.352V12h-1.12V.16h1.12v4.592a2.906 2.906 0 011.216-1.216 3.837 3.837 0 011.824-.432zm9.572-1.568V.528h2.72V12h-1.136V1.536h-1.584zm5.215 4.624c0-1.835.283-3.259.848-4.272.566-1.013 1.579-1.52 3.04-1.52 1.462 0 2.475.507 3.04 1.52.566 1.013.848 2.437.848 4.272 0 1.867-.282 3.312-.848 4.336-.565 1.024-1.578 1.536-3.04 1.536-1.472 0-2.49-.512-3.056-1.536-.554-1.024-.832-2.47-.832-4.336zm6.672 0c0-.992-.069-1.83-.208-2.512-.138-.683-.41-1.232-.816-1.648-.405-.416-.992-.624-1.76-.624s-1.354.208-1.76.624c-.405.416-.677.965-.816 1.648-.138.683-.208 1.52-.208 2.512 0 1.024.07 1.883.208 2.576.139.683.411 1.232.816 1.648.406.416.992.624 1.76.624s1.355-.208 1.76-.624c.406-.416.678-.965.816-1.648.139-.693.208-1.552.208-2.576zm3.188 0c0-1.835.282-3.259.848-4.272.565-1.013 1.578-1.52 3.04-1.52 1.461 0 2.474.507 3.04 1.52.565 1.013.848 2.437.848 4.272 0 1.867-.283 3.312-.848 4.336-.566 1.024-1.579 1.536-3.04 1.536-1.472 0-2.491-.512-3.056-1.536-.555-1.024-.832-2.47-.832-4.336zm6.672 0c0-.992-.07-1.83-.208-2.512-.139-.683-.411-1.232-.816-1.648-.406-.416-.992-.624-1.76-.624s-1.355.208-1.76.624c-.406.416-.678.965-.816 1.648-.139.683-.208 1.52-.208 2.512 0 1.024.069 1.883.208 2.576.138.683.41 1.232.816 1.648.405.416.992.624 1.76.624s1.354-.208 1.76-.624c.405-.416.677-.965.816-1.648.138-.693.208-1.552.208-2.576zm3.619 5.92a.804.804 0 01-.592-.24.836.836 0 01-.224-.592.78.78 0 01.224-.576c.16-.16.357-.24.592-.24.224 0 .411.08.56.24.16.15.24.341.24.576 0 .235-.08.432-.24.592a.734.734 0 01-.56.24zm0-6.96a.804.804 0 01-.592-.24.836.836 0 01-.224-.592c0-.235.075-.427.224-.576.16-.16.357-.24.592-.24.224 0 .411.08.56.24.16.15.24.341.24.576 0 .235-.08.432-.24.592a.734.734 0 01-.56.24z" fill="#fff"/></svg>