<svg width="255" height="68" viewBox="0 0 255 68" fill="none" xmlns="http://www.w3.org/2000/svg"><path d="M.17 5.94h5.58V24h3.42V5.94h5.55V3.15H.17v2.79zm16.874 9.72c0 5.1 3.45 8.61 7.74 8.61 2.76 0 4.74-1.32 5.79-2.73V24h3.45V7.47h-3.45v2.4c-1.02-1.35-2.94-2.67-5.73-2.67-4.35 0-7.8 3.36-7.8 8.46zm13.53.06c0 3.57-2.43 5.58-5.01 5.58-2.55 0-5.01-2.07-5.01-5.64s2.46-5.49 5.01-5.49c2.58 0 5.01 2.01 5.01 5.55zM41.936 9.9V7.47h-3.42v24.39h3.42V21.6a7.473 7.473 0 005.76 2.67c4.35 0 7.77-3.51 7.77-8.61s-3.42-8.46-7.77-8.46c-2.7 0-4.71 1.32-5.76 2.7zm10.05 5.76c0 3.57-2.46 5.64-5.04 5.64-2.55 0-5.01-2.01-5.01-5.58 0-3.54 2.46-5.55 5.01-5.55 2.58 0 5.04 1.92 5.04 5.49zM66.64 24h3.42V7.47h-3.42V24zm1.74-18.72c1.2 0 2.16-.96 2.16-2.19S69.58.9 68.38.9c-1.23 0-2.19.96-2.19 2.19s.96 2.19 2.19 2.19zM86.28 24h3.39v-9.75c0-4.62-2.91-7.05-6.78-7.05-1.98 0-3.81.81-4.92 2.16V7.47h-3.42V24h3.42v-9.24c0-3.03 1.65-4.59 4.17-4.59 2.49 0 4.14 1.56 4.14 4.59V24zm8.292-4.59c0 3.36 1.83 4.59 4.77 4.59h2.7v-2.85h-2.1c-1.44 0-1.92-.51-1.92-1.74v-9.15h4.02V7.47h-4.02V3.36h-3.45v4.11h-1.95v2.79h1.95v9.15zm26.372-3.69c0-5.19-3.72-8.52-8.43-8.52-4.71 0-8.43 3.33-8.43 8.52 0 5.19 3.57 8.55 8.28 8.55 4.74 0 8.58-3.36 8.58-8.55zm-13.38 0c0-3.75 2.31-5.55 4.89-5.55 2.55 0 4.98 1.8 4.98 5.55s-2.52 5.58-5.07 5.58c-2.58 0-4.8-1.83-4.8-5.58zm25.094 3.69c0 3.36 1.83 4.59 4.77 4.59h2.7v-2.85h-2.1c-1.44 0-1.92-.51-1.92-1.74v-9.15h4.02V7.47h-4.02V3.36h-3.45v4.11h-1.95v2.79h1.95v9.15zm17.582-9.33c2.55 0 4.56 1.62 4.62 4.17h-9.15c.36-2.61 2.22-4.17 4.53-4.17zm7.74 9h-3.69c-.63 1.29-1.8 2.31-3.9 2.31-2.52 0-4.47-1.65-4.71-4.38h12.63c.09-.57.12-1.11.12-1.68 0-4.86-3.33-8.13-8.04-8.13-4.89 0-8.25 3.33-8.25 8.52 0 5.19 3.51 8.55 8.25 8.55 4.05 0 6.66-2.31 7.59-5.19zm2.676-3.36c0 5.19 3.36 8.55 8.1 8.55 4.05 0 6.69-2.25 7.62-5.49h-3.69c-.63 1.71-1.89 2.61-3.93 2.61-2.76 0-4.59-2.04-4.59-5.67 0-3.6 1.83-5.64 4.59-5.64 2.04 0 3.36 1.02 3.93 2.61h3.69c-.93-3.48-3.57-5.49-7.62-5.49-4.74 0-8.1 3.36-8.1 8.52zM179.785 24h3.42v-9.24c0-3.03 1.65-4.59 4.17-4.59 2.49 0 4.14 1.56 4.14 4.59V24h3.39v-9.75c0-4.62-2.88-7.05-6.57-7.05-2.13 0-3.99.81-5.13 2.19V1.8h-3.42V24zM13.58 55.38c-.18-5.97-9.51-4.11-9.51-7.44 0-1.11.96-1.86 2.79-1.86 1.86 0 2.97.99 3.09 2.43h3.42c-.18-3.3-2.64-5.31-6.39-5.31-3.9 0-6.36 2.13-6.36 4.77 0 6.06 9.6 4.2 9.6 7.44 0 1.14-1.05 1.98-3.03 1.98-1.89 0-3.18-1.11-3.3-2.46H.35c.15 3 2.94 5.34 6.9 5.34 3.9 0 6.33-2.1 6.33-4.89zm4.235.03c0 3.36 1.83 4.59 4.77 4.59h2.7v-2.85h-2.1c-1.44 0-1.92-.51-1.92-1.74v-9.15h4.02v-2.79h-4.02v-4.11h-3.45v4.11h-1.95v2.79h1.95v9.15zm26.372-3.69c0-5.19-3.72-8.52-8.43-8.52-4.71 0-8.43 3.33-8.43 8.52 0 5.19 3.57 8.55 8.28 8.55 4.74 0 8.58-3.36 8.58-8.55zm-13.38 0c0-3.75 2.31-5.55 4.89-5.55 2.55 0 4.98 1.8 4.98 5.55s-2.52 5.58-5.07 5.58c-2.58 0-4.8-1.83-4.8-5.58zm15.621 0c0 5.19 3.36 8.55 8.1 8.55 4.05 0 6.69-2.25 7.62-5.49h-3.69c-.63 1.71-1.89 2.61-3.93 2.61-2.76 0-4.59-2.04-4.59-5.67 0-3.6 1.83-5.64 4.59-5.64 2.04 0 3.36 1.02 3.93 2.61h3.69c-.93-3.48-3.57-5.49-7.62-5.49-4.74 0-8.1 3.36-8.1 8.52zM65.557 60h3.42v-7.11l6.12 7.11h4.62l-7.62-8.25 7.62-8.28h-4.74l-6 7.23V37.8h-3.42V60zm28.941-4.62c-.18-5.97-9.51-4.11-9.51-7.44 0-1.11.96-1.86 2.79-1.86 1.86 0 2.97.99 3.09 2.43h3.42c-.18-3.3-2.64-5.31-6.39-5.31-3.9 0-6.36 2.13-6.36 4.77 0 6.06 9.6 4.2 9.6 7.44 0 1.14-1.05 1.98-3.03 1.98-1.89 0-3.18-1.11-3.3-2.46h-3.54c.15 3 2.94 5.34 6.9 5.34 3.9 0 6.33-2.1 6.33-4.89zM106.406 60h3.45V46.26h3.06v-2.79h-3.06V42.3c0-1.89.72-2.61 2.82-2.61v-2.85c-4.32 0-6.27 1.65-6.27 5.46v1.17h-1.95v2.79h1.95V60zm12.961-8.7c0-3.51 1.56-4.56 4.08-4.56h.87V43.2c-2.34 0-3.99 1.02-4.95 2.67v-2.4h-3.42V60h3.42v-8.7zm23.844.42c0-5.19-3.72-8.52-8.43-8.52-4.71 0-8.43 3.33-8.43 8.52 0 5.19 3.57 8.55 8.28 8.55 4.74 0 8.58-3.36 8.58-8.55zm-13.38 0c0-3.75 2.31-5.55 4.89-5.55 2.55 0 4.98 1.8 4.98 5.55s-2.52 5.58-5.07 5.58c-2.58 0-4.8-1.83-4.8-5.58zM170.022 60h3.39v-9.75c0-4.62-2.94-7.05-6.81-7.05-2.4 0-4.74 1.26-5.76 3.27-1.14-2.16-3.33-3.27-5.94-3.27-1.98 0-3.78.81-4.89 2.16v-1.89h-3.42V60h3.42v-9.24c0-3.03 1.65-4.59 4.17-4.59 2.49 0 4.14 1.56 4.14 4.59V60h3.39v-9.24c0-3.03 1.65-4.59 4.17-4.59 2.49 0 4.14 1.56 4.14 4.59V60zm15.025-16.47h3.33c.21-1.53 1.32-2.97 3.72-2.97 2.34 0 3.57 1.26 3.57 3.15 0 2.34-1.89 3.24-4.98 3.27h-.81v2.82h.78c3.57 0 5.43.99 5.43 3.87 0 2.04-1.26 3.6-3.81 3.6-2.58 0-4.08-1.56-4.23-3.6h-3.3c.21 4.29 3.42 6.45 7.56 6.45 4.56 0 7.02-2.64 7.02-6.12 0-3.03-1.47-4.92-3.75-5.61v-.12c1.71-.57 3.36-2.34 3.36-4.95 0-3.18-2.37-5.7-6.72-5.7-3.99 0-6.93 2.13-7.17 5.91zm29.535 2.37v-2.43h-3.42v24.39h3.42V57.6a7.473 7.473 0 005.76 2.67c4.35 0 7.77-3.51 7.77-8.61s-3.42-8.46-7.77-8.46c-2.7 0-4.71 1.32-5.76 2.7zm10.05 5.76c0 3.57-2.46 5.64-5.04 5.64-2.55 0-5.01-2.01-5.01-5.58 0-3.54 2.46-5.55 5.01-5.55 2.58 0 5.04 1.92 5.04 5.49zm7.402 3.75c0 3.36 1.83 4.59 4.77 4.59h2.7v-2.85h-2.1c-1.44 0-1.92-.51-1.92-1.74v-9.15h4.02v-2.79h-4.02v-4.11h-3.45v4.11h-1.95v2.79h1.95v9.15zm22.952-.03c-.18-5.97-9.51-4.11-9.51-7.44 0-1.11.96-1.86 2.79-1.86 1.86 0 2.97.99 3.09 2.43h3.42c-.18-3.3-2.64-5.31-6.39-5.31-3.9 0-6.36 2.13-6.36 4.77 0 6.06 9.6 4.2 9.6 7.44 0 1.14-1.05 1.98-3.03 1.98-1.89 0-3.18-1.11-3.3-2.46h-3.54c.15 3 2.94 5.34 6.9 5.34 3.9 0 6.33-2.1 6.33-4.89z" fill="#fff"/></svg>