<svg width="239" height="40" viewBox="0 0 239 40" fill="none" xmlns="http://www.w3.org/2000/svg"><path d="M1.982 9.512c-.501 0-.933-.176-1.296-.528a1.788 1.788 0 01-.544-1.312c0-.523.182-.96.544-1.312a1.77 1.77 0 011.296-.544c.523 0 .96.181 1.312.544.363.352.544.79.544 1.312 0 .512-.181.95-.544 1.312-.352.352-.789.528-1.312.528zm12.834 2.608c1.963-1.472 3.477-2.79 4.544-3.952 1.077-1.173 1.616-2.32 1.616-3.44 0-.736-.187-1.323-.56-1.76-.363-.448-.96-.672-1.792-.672-.81 0-1.44.256-1.888.768-.437.501-.683 1.173-.736 2.016h-1.088c.064-1.184.427-2.101 1.088-2.752.672-.661 1.547-.992 2.624-.992 1.035 0 1.872.293 2.512.88.64.576.96 1.397.96 2.464 0 1.29-.539 2.544-1.616 3.76-1.067 1.205-2.384 2.384-3.952 3.536h5.92v.944h-7.632v-.8zm9.38-4.96c0-1.835.283-3.259.848-4.272.566-1.013 1.579-1.52 3.04-1.52 1.462 0 2.475.507 3.04 1.52.566 1.013.848 2.437.848 4.272 0 1.867-.282 3.312-.848 4.336-.565 1.024-1.578 1.536-3.04 1.536-1.472 0-2.49-.512-3.056-1.536-.554-1.024-.832-2.47-.832-4.336zm6.672 0c0-.992-.07-1.83-.208-2.512-.138-.683-.41-1.232-.816-1.648-.405-.416-.992-.624-1.76-.624s-1.354.208-1.76.624c-.405.416-.677.965-.816 1.648-.138.683-.208 1.52-.208 2.512 0 1.024.07 1.883.208 2.576.139.683.41 1.232.816 1.648.406.416.992.624 1.76.624s1.355-.208 1.76-.624c.406-.416.678-.965.816-1.648.139-.693.208-1.552.208-2.576zm15.018-2.896l-5.184 12.848h-1.168l1.696-4.16-3.584-8.688h1.232l2.976 7.456 2.88-7.456h1.152zm9.423 3.92c0 .384-.01.677-.032.88h-7.248c.032.661.192 1.227.48 1.696.288.47.667.827 1.136 1.072.47.235.981.352 1.536.352.725 0 1.333-.176 1.824-.528.501-.352.832-.827.992-1.424h1.184a3.722 3.722 0 01-1.376 2.096c-.693.533-1.568.8-2.624.8-.821 0-1.557-.181-2.208-.544a4.02 4.02 0 01-1.536-1.568c-.363-.683-.544-1.477-.544-2.384 0-.907.181-1.701.544-2.384a3.781 3.781 0 011.52-1.568c.65-.363 1.392-.544 2.224-.544.832 0 1.557.181 2.176.544.63.363 1.11.853 1.44 1.472a4.08 4.08 0 01.512 2.032zm-1.136-.032c.01-.65-.123-1.205-.4-1.664a2.596 2.596 0 00-1.104-1.04 3.386 3.386 0 00-1.536-.352c-.832 0-1.541.267-2.128.8-.587.533-.912 1.285-.976 2.256h6.144zm2.673.464c0-.896.176-1.68.528-2.352.363-.683.859-1.205 1.488-1.568.64-.373 1.36-.56 2.16-.56.832 0 1.547.192 2.144.576.608.384 1.046.875 1.312 1.472v-1.92h1.12V13h-1.12v-1.936c-.277.597-.72 1.093-1.328 1.488-.597.384-1.312.576-2.144.576-.79 0-1.504-.187-2.144-.56a3.952 3.952 0 01-1.488-1.584c-.352-.683-.528-1.472-.528-2.368zm7.632.016c0-.704-.144-1.323-.432-1.856a3.065 3.065 0 00-1.184-1.232 3.164 3.164 0 00-1.632-.432c-.618 0-1.173.139-1.664.416a2.99 2.99 0 00-1.168 1.216c-.277.523-.416 1.147-.416 1.872 0 .715.139 1.344.416 1.888a3.1 3.1 0 001.168 1.232c.49.277 1.045.416 1.664.416.598 0 1.142-.144 1.632-.432a3.066 3.066 0 001.184-1.232c.288-.533.432-1.152.432-1.856zm4.797-2.816a2.75 2.75 0 011.12-1.264c.512-.299 1.136-.448 1.872-.448v1.168h-.304c-.81 0-1.461.219-1.952.656-.49.437-.736 1.168-.736 2.192V13h-1.12V4.264h1.12v1.552zm7.685 7.312c-1.003 0-1.824-.23-2.464-.688-.63-.47-.981-1.104-1.056-1.904h1.152c.053.49.282.89.688 1.2.416.299.97.448 1.664.448.608 0 1.082-.144 1.424-.432.352-.288.528-.645.528-1.072a.997.997 0 00-.288-.736 1.95 1.95 0 00-.736-.448 9.506 9.506 0 00-1.184-.368c-.65-.17-1.179-.341-1.584-.512a2.804 2.804 0 01-1.04-.752c-.277-.341-.416-.795-.416-1.36 0-.427.128-.821.384-1.184s.618-.65 1.088-.864c.47-.213 1.002-.32 1.6-.32.939 0 1.696.24 2.272.72.576.47.885 1.12.928 1.952H78.8c-.032-.512-.235-.923-.608-1.232-.363-.32-.864-.48-1.504-.48-.566 0-1.024.133-1.376.4-.352.267-.528.597-.528.992 0 .341.101.624.304.848.213.213.475.384.784.512.31.117.725.25 1.248.4.63.17 1.13.336 1.504.496.373.16.693.395.96.704.266.31.405.72.416 1.232 0 .47-.128.89-.384 1.264-.256.363-.614.65-1.072.864-.459.213-.987.32-1.584.32zm17.443-4.944c0 .384-.01.677-.032.88h-7.248c.032.661.192 1.227.48 1.696.288.47.666.827 1.136 1.072.47.235.981.352 1.536.352.725 0 1.333-.176 1.824-.528.501-.352.832-.827.992-1.424h1.184a3.723 3.723 0 01-1.376 2.096c-.694.533-1.568.8-2.624.8-.822 0-1.558-.181-2.208-.544a4.02 4.02 0 01-1.536-1.568c-.363-.683-.544-1.477-.544-2.384 0-.907.181-1.701.544-2.384a3.78 3.78 0 011.52-1.568c.65-.363 1.392-.544 2.224-.544.832 0 1.557.181 2.176.544.63.363 1.11.853 1.44 1.472a4.08 4.08 0 01.512 2.032zm-1.136-.032c.01-.65-.123-1.205-.4-1.664a2.596 2.596 0 00-1.104-1.04 3.386 3.386 0 00-1.536-.352c-.832 0-1.542.267-2.128.8-.587.533-.912 1.285-.976 2.256h6.144zM101.028 13l-2.256-3.52L96.596 13h-1.184l2.816-4.368-2.784-4.368h1.264l2.224 3.472 2.16-3.472h1.168l-2.784 4.32L102.292 13h-1.264zm3.887-6.816c.278-.587.715-1.072 1.312-1.456.608-.395 1.328-.592 2.16-.592.79 0 1.499.187 2.128.56a3.71 3.71 0 011.488 1.568c.363.672.544 1.456.544 2.352 0 .896-.181 1.685-.544 2.368a3.812 3.812 0 01-1.488 1.584c-.629.373-1.338.56-2.128.56-.821 0-1.536-.192-2.144-.576-.608-.395-1.05-.885-1.328-1.472v6.048h-1.104V4.264h1.104v1.92zm6.496 2.432c0-.725-.144-1.35-.432-1.872a2.883 2.883 0 00-1.152-1.216 3.32 3.32 0 00-1.664-.416c-.597 0-1.146.144-1.648.432-.49.288-.88.699-1.168 1.232-.288.533-.432 1.152-.432 1.856 0 .704.144 1.323.432 1.856.288.533.678.944 1.168 1.232a3.253 3.253 0 001.648.432 3.32 3.32 0 001.664-.416 2.988 2.988 0 001.152-1.232c.288-.544.432-1.173.432-1.888zm11.101-.432c0 .384-.011.677-.032.88h-7.248c.032.661.192 1.227.48 1.696.288.47.667.827 1.136 1.072.469.235.981.352 1.536.352.725 0 1.333-.176 1.824-.528.501-.352.832-.827.992-1.424h1.184a3.72 3.72 0 01-1.376 2.096c-.693.533-1.568.8-2.624.8-.821 0-1.557-.181-2.208-.544a4.016 4.016 0 01-1.536-1.568c-.363-.683-.544-1.477-.544-2.384 0-.907.181-1.701.544-2.384a3.781 3.781 0 011.52-1.568c.651-.363 1.392-.544 2.224-.544.832 0 1.557.181 2.176.544A3.679 3.679 0 01122 6.152c.341.608.512 1.285.512 2.032zm-1.136-.032c.011-.65-.123-1.205-.4-1.664a2.6 2.6 0 00-1.104-1.04 3.384 3.384 0 00-1.536-.352c-.832 0-1.541.267-2.128.8-.587.533-.912 1.285-.976 2.256h6.144zm4.305-2.336a2.755 2.755 0 011.12-1.264c.512-.299 1.136-.448 1.872-.448v1.168h-.304c-.81 0-1.461.219-1.952.656-.49.437-.736 1.168-.736 2.192V13h-1.12V4.264h1.12v1.552zm5.237-3.2a.786.786 0 01-.576-.24.804.804 0 01-.24-.592c0-.235.08-.427.24-.576.16-.16.352-.24.576-.24.224 0 .416.08.576.24.16.15.24.341.24.576 0 .235-.08.432-.24.592a.786.786 0 01-.576.24zm.56 1.648V13h-1.12V4.264h1.12zm10.44 3.92c0 .384-.01.677-.032.88h-7.248c.032.661.192 1.227.48 1.696.288.47.667.827 1.136 1.072.47.235.982.352 1.536.352.726 0 1.334-.176 1.824-.528.502-.352.832-.827.992-1.424h1.184a3.72 3.72 0 01-1.376 2.096c-.693.533-1.568.8-2.624.8-.821 0-1.557-.181-2.208-.544a4.03 4.03 0 01-1.536-1.568c-.362-.683-.544-1.477-.544-2.384 0-.907.182-1.701.544-2.384a3.787 3.787 0 011.52-1.568c.651-.363 1.392-.544 2.224-.544.832 0 1.558.181 2.176.544.63.363 1.11.853 1.44 1.472.342.608.512 1.285.512 2.032zm-1.136-.032c.011-.65-.122-1.205-.4-1.664a2.588 2.588 0 00-1.104-1.04 3.384 3.384 0 00-1.536-.352c-.832 0-1.541.267-2.128.8-.586.533-.912 1.285-.976 2.256h6.144zm7.282-4.048c1.045 0 1.898.325 2.56.976.661.64.992 1.573.992 2.8V13h-1.104V8.008c0-.95-.24-1.675-.72-2.176-.47-.501-1.115-.752-1.936-.752-.843 0-1.515.267-2.016.8-.502.533-.752 1.317-.752 2.352V13h-1.12V4.264h1.12v1.488a2.808 2.808 0 011.2-1.216c.522-.288 1.114-.432 1.776-.432zm5.517 4.528c0-.907.181-1.696.544-2.368a3.806 3.806 0 011.504-1.568c.64-.373 1.37-.56 2.192-.56 1.077 0 1.962.267 2.656.8.704.533 1.157 1.259 1.36 2.176h-1.2c-.15-.63-.475-1.12-.976-1.472-.491-.363-1.104-.544-1.84-.544-.587 0-1.115.133-1.584.4-.47.267-.843.667-1.12 1.2-.267.523-.4 1.168-.4 1.936s.133 1.419.4 1.952c.277.533.65.933 1.12 1.2.469.267.997.4 1.584.4.736 0 1.349-.176 1.84-.528.501-.363.826-.864.976-1.504h1.2c-.203.896-.656 1.616-1.36 2.16-.704.544-1.59.816-2.656.816-.822 0-1.552-.181-2.192-.544a3.939 3.939 0 01-1.504-1.568c-.363-.683-.544-1.477-.544-2.384zm18.228-.448c0 .384-.011.677-.032.88h-7.248c.032.661.192 1.227.48 1.696.288.47.667.827 1.136 1.072.469.235.981.352 1.536.352.725 0 1.333-.176 1.824-.528.501-.352.832-.827.992-1.424h1.184a3.72 3.72 0 01-1.376 2.096c-.693.533-1.568.8-2.624.8-.821 0-1.557-.181-2.208-.544a4.016 4.016 0 01-1.536-1.568c-.363-.683-.544-1.477-.544-2.384 0-.907.181-1.701.544-2.384a3.781 3.781 0 011.52-1.568c.651-.363 1.392-.544 2.224-.544.832 0 1.557.181 2.176.544a3.679 3.679 0 011.44 1.472c.341.608.512 1.285.512 2.032zm-1.136-.032c.011-.65-.123-1.205-.4-1.664a2.6 2.6 0 00-1.104-1.04 3.384 3.384 0 00-1.536-.352c-.832 0-1.541.267-2.128.8-.587.533-.912 1.285-.976 2.256h6.144zm4.209 2.992l-1.664 4.192h-.768l1.184-4.192h1.248zm7.236-4.944a3.563 3.563 0 011.328-1.488c.608-.384 1.323-.576 2.144-.576.8 0 1.515.187 2.144.56.63.363 1.12.885 1.472 1.568.363.672.544 1.456.544 2.352 0 .896-.181 1.685-.544 2.368a3.812 3.812 0 01-1.488 1.584c-.629.373-1.338.56-2.128.56-.832 0-1.552-.187-2.16-.56a3.458 3.458 0 01-1.312-1.488V13h-1.104V1.16h1.104V6.2zm6.496 2.416c0-.725-.144-1.35-.432-1.872a2.883 2.883 0 00-1.152-1.216 3.32 3.32 0 00-1.664-.416c-.597 0-1.146.144-1.648.432-.49.288-.88.699-1.168 1.232-.288.533-.432 1.152-.432 1.856 0 .704.144 1.323.432 1.856.288.533.678.944 1.168 1.232a3.253 3.253 0 001.648.432 3.32 3.32 0 001.664-.416 2.988 2.988 0 001.152-1.232c.288-.544.432-1.173.432-1.888zm2.685 0c0-.896.176-1.68.528-2.352.363-.683.859-1.205 1.488-1.568.64-.373 1.36-.56 2.16-.56.832 0 1.547.192 2.144.576.608.384 1.046.875 1.312 1.472v-1.92h1.12V13h-1.12v-1.936c-.277.597-.72 1.093-1.328 1.488-.597.384-1.312.576-2.144.576a4.178 4.178 0 01-2.144-.56 3.956 3.956 0 01-1.488-1.584c-.352-.683-.528-1.472-.528-2.368zm7.632.016c0-.704-.144-1.323-.432-1.856a3.061 3.061 0 00-1.184-1.232 3.161 3.161 0 00-1.632-.432c-.618 0-1.173.139-1.664.416-.49.277-.88.683-1.168 1.216-.277.523-.416 1.147-.416 1.872 0 .715.139 1.344.416 1.888.288.533.678.944 1.168 1.232a3.325 3.325 0 001.664.416c.598 0 1.142-.144 1.632-.432a3.062 3.062 0 001.184-1.232c.288-.533.432-1.152.432-1.856zm3.165 0c0-.907.181-1.696.544-2.368a3.812 3.812 0 011.504-1.568c.64-.373 1.371-.56 2.192-.56 1.077 0 1.963.267 2.656.8.704.533 1.157 1.259 1.36 2.176h-1.2c-.149-.63-.475-1.12-.976-1.472-.491-.363-1.104-.544-1.84-.544-.587 0-1.115.133-1.584.4-.469.267-.843.667-1.12 1.2-.267.523-.4 1.168-.4 1.936s.133 1.419.4 1.952c.277.533.651.933 1.12 1.2.469.267.997.4 1.584.4.736 0 1.349-.176 1.84-.528.501-.363.827-.864.976-1.504h1.2c-.203.896-.656 1.616-1.36 2.16-.704.544-1.589.816-2.656.816-.821 0-1.552-.181-2.192-.544a3.945 3.945 0 01-1.504-1.568c-.363-.683-.544-1.477-.544-2.384zM217.141 13l-3.6-3.92V13h-1.12V1.16h1.12v7.008l3.52-3.904h1.568l-4.144 4.352L218.661 13h-1.52zm10.871-4.816c0 .384-.011.677-.032.88h-7.248c.032.661.192 1.227.48 1.696.288.47.667.827 1.136 1.072.469.235.981.352 1.536.352.725 0 1.333-.176 1.824-.528.501-.352.832-.827.992-1.424h1.184a3.72 3.72 0 01-1.376 2.096c-.693.533-1.568.8-2.624.8-.821 0-1.557-.181-2.208-.544a4.016 4.016 0 01-1.536-1.568c-.363-.683-.544-1.477-.544-2.384 0-.907.181-1.701.544-2.384a3.781 3.781 0 011.52-1.568c.651-.363 1.392-.544 2.224-.544.832 0 1.557.181 2.176.544a3.679 3.679 0 011.44 1.472c.341.608.512 1.285.512 2.032zm-1.136-.032c.011-.65-.123-1.205-.4-1.664a2.6 2.6 0 00-1.104-1.04 3.384 3.384 0 00-1.536-.352c-.832 0-1.541.267-2.128.8-.587.533-.912 1.285-.976 2.256h6.144zm2.673.464c0-.896.182-1.68.544-2.352.363-.683.859-1.205 1.488-1.568.64-.373 1.36-.56 2.16-.56.768 0 1.462.187 2.08.56.619.373 1.072.859 1.36 1.456V1.16h1.12V13h-1.12v-1.952c-.266.608-.704 1.11-1.312 1.504-.608.384-1.322.576-2.144.576-.8 0-1.52-.187-2.16-.56a3.956 3.956 0 01-1.488-1.584c-.352-.683-.528-1.472-.528-2.368zm7.632.016c0-.704-.144-1.323-.432-1.856a3.061 3.061 0 00-1.184-1.232 3.161 3.161 0 00-1.632-.432c-.618 0-1.173.139-1.664.416-.49.277-.88.683-1.168 1.216-.277.523-.416 1.147-.416 1.872 0 .715.139 1.344.416 1.888.288.533.678.944 1.168 1.232a3.325 3.325 0 001.664.416c.598 0 1.142-.144 1.632-.432a3.062 3.062 0 001.184-1.232c.288-.533.432-1.152.432-1.856zM16.384 28.2a3.56 3.56 0 011.328-1.488c.608-.384 1.323-.576 2.144-.576.8 0 1.515.187 2.144.56.63.363 1.12.885 1.472 1.568.363.672.544 1.456.544 2.352 0 .896-.181 1.685-.544 2.368a3.812 3.812 0 01-1.488 1.584c-.63.373-1.339.56-2.128.56-.832 0-1.552-.187-2.16-.56a3.451 3.451 0 01-1.312-1.488V35H15.28V23.16h1.104v5.04zm6.496 2.416c0-.725-.144-1.35-.432-1.872a2.887 2.887 0 00-1.152-1.216 3.322 3.322 0 00-1.664-.416 3.25 3.25 0 00-1.648.432 3.1 3.1 0 00-1.168 1.232c-.288.533-.432 1.152-.432 1.856 0 .704.144 1.323.432 1.856a3.1 3.1 0 001.168 1.232 3.25 3.25 0 001.648.432c.619 0 1.173-.139 1.664-.416.49-.288.875-.699 1.152-1.232.288-.544.432-1.173.432-1.888zm10.397-4.352l-5.184 12.848h-1.168l1.696-4.16-3.584-8.688h1.232l2.976 7.456 2.88-7.456h1.152zm9.301 8.848c-.736 0-1.386-.128-1.952-.384a3.188 3.188 0 01-1.312-1.072c-.32-.459-.49-.97-.512-1.536h1.184c.054.544.294 1.024.72 1.44.427.405 1.05.608 1.872.608.758 0 1.355-.192 1.792-.576a1.9 1.9 0 00.672-1.488c0-.48-.122-.864-.368-1.152a2.158 2.158 0 00-.912-.656c-.362-.15-.864-.31-1.504-.48-.746-.203-1.338-.4-1.776-.592a2.826 2.826 0 01-1.12-.896c-.31-.405-.464-.955-.464-1.648 0-.576.15-1.088.448-1.536.299-.459.72-.816 1.264-1.072.544-.256 1.168-.384 1.872-.384 1.035 0 1.867.256 2.496.768a2.818 2.818 0 011.104 1.952h-1.216c-.074-.459-.325-.864-.752-1.216-.426-.363-1.002-.544-1.728-.544-.672 0-1.232.181-1.68.544-.448.352-.672.837-.672 1.456 0 .47.123.848.368 1.136.246.288.55.507.912.656.374.15.875.31 1.504.48.726.203 1.312.405 1.76.608.448.192.827.49 1.136.896.31.405.464.95.464 1.632a2.88 2.88 0 01-.416 1.488c-.277.47-.688.848-1.232 1.136-.544.288-1.194.432-1.952.432zm7.22-7.904v5.424c0 .533.102.901.304 1.104.203.203.56.304 1.073.304h1.024V35h-1.2c-.79 0-1.377-.181-1.76-.544-.384-.373-.576-.981-.576-1.824v-5.424h-1.216v-.944h1.215v-2.192h1.136v2.192h2.4v.944h-2.4zm8.072 7.92c-.822 0-1.563-.181-2.224-.544a4.135 4.135 0 01-1.552-1.568c-.374-.683-.56-1.477-.56-2.384 0-.907.192-1.696.576-2.368a3.96 3.96 0 011.568-1.568c.661-.373 1.402-.56 2.224-.56.821 0 1.562.187 2.224.56a3.829 3.829 0 011.568 1.568c.384.672.576 1.461.576 2.368 0 .896-.192 1.685-.576 2.368a4.039 4.039 0 01-1.584 1.584c-.672.363-1.419.544-2.24.544zm0-.976c.576 0 1.109-.128 1.6-.384.49-.267.885-.661 1.184-1.184.309-.533.464-1.184.464-1.952s-.15-1.413-.448-1.936c-.299-.533-.694-.928-1.184-1.184a3.297 3.297 0 00-1.6-.4c-.576 0-1.11.133-1.6.4-.491.256-.886.65-1.184 1.184-.288.523-.432 1.168-.432 1.936s.144 1.419.432 1.952c.298.523.688.917 1.168 1.184.49.256 1.024.384 1.6.384zm10.537-8.048c1.046 0 1.899.325 2.56.976.662.64.992 1.573.992 2.8V35h-1.104v-4.992c0-.95-.24-1.675-.72-2.176-.47-.501-1.114-.752-1.936-.752-.842 0-1.514.267-2.016.8-.501.533-.752 1.317-.752 2.352V35h-1.12v-8.736h1.12v1.488a2.81 2.81 0 011.2-1.216c.523-.288 1.115-.432 1.776-.432zm13.933 4.08c0 .384-.01.677-.032.88H75.06c.032.661.192 1.227.48 1.696.288.47.667.827 1.136 1.072.47.235.982.352 1.536.352.726 0 1.334-.176 1.824-.528.502-.352.832-.827.992-1.424h1.184a3.723 3.723 0 01-1.376 2.096c-.693.533-1.568.8-2.624.8-.821 0-1.557-.181-2.208-.544a4.02 4.02 0 01-1.536-1.568c-.362-.683-.544-1.477-.544-2.384 0-.907.182-1.701.544-2.384a3.78 3.78 0 011.52-1.568c.65-.363 1.392-.544 2.224-.544.832 0 1.558.181 2.176.544.63.363 1.11.853 1.44 1.472.342.608.512 1.285.512 2.032zm-1.136-.032c.01-.65-.122-1.205-.4-1.664a2.596 2.596 0 00-1.104-1.04 3.386 3.386 0 00-1.536-.352c-.832 0-1.541.267-2.128.8-.586.533-.912 1.285-.976 2.256h6.144zm7.217-.736L91.813 35h-1.248l-2.848-4.672L85.013 35h-1.248l3.376-5.632-3.376-5.552h1.248l2.832 4.656 2.736-4.656h1.248l-3.408 5.6z" fill="#fff"/></svg>