<svg width="113" height="34" viewBox="0 0 113 34" fill="none" xmlns="http://www.w3.org/2000/svg"><rect width="113" height="34" rx="17" fill="#14964F"/><path d="M14.78 13.368h2.976V23h1.824v-9.632h2.96V11.88h-7.76v1.488zm11.432 4.992c0-1.872.832-2.432 2.175-2.432h.465V14.04c-1.248 0-2.128.544-2.64 1.424v-1.28h-1.825V23h1.825v-4.64zm3.708.192c0 2.72 1.84 4.592 4.128 4.592 1.472 0 2.528-.704 3.088-1.456V23h1.84v-8.816h-1.84v1.28c-.544-.72-1.568-1.424-3.056-1.424-2.32 0-4.16 1.792-4.16 4.512zm7.216.032c0 1.904-1.296 2.976-2.672 2.976-1.36 0-2.672-1.104-2.672-3.008s1.312-2.928 2.672-2.928c1.376 0 2.672 1.072 2.672 2.96zm3.628-.032c0 2.72 1.84 4.592 4.16 4.592 1.44 0 2.496-.672 3.056-1.472V23h1.84V11.16h-1.84v4.256c-.672-.832-1.888-1.376-3.04-1.376-2.336 0-4.176 1.792-4.176 4.512zm7.216.032c0 1.904-1.296 2.976-2.672 2.976-1.36 0-2.672-1.104-2.672-3.008s1.312-2.928 2.672-2.928c1.376 0 2.672 1.072 2.672 2.96zm7.948-3.008c1.36 0 2.432.864 2.464 2.224h-4.88c.192-1.392 1.184-2.224 2.416-2.224zm4.128 4.8h-1.968c-.336.688-.96 1.232-2.08 1.232-1.344 0-2.384-.88-2.512-2.336h6.736c.048-.304.064-.592.064-.896 0-2.592-1.776-4.336-4.288-4.336-2.608 0-4.4 1.776-4.4 4.544s1.872 4.56 4.4 4.56c2.16 0 3.552-1.232 4.048-2.768zM72.503 23h1.808v-5.2c0-2.464-1.552-3.76-3.616-3.76-1.056 0-2.032.432-2.624 1.152v-1.008h-1.824V23h1.824v-4.928c0-1.616.88-2.448 2.224-2.448 1.328 0 2.208.832 2.208 2.448V23zm12.534-4.416c0-2.768-1.984-4.544-4.496-4.544-2.511 0-4.495 1.776-4.495 4.544s1.903 4.56 4.415 4.56c2.529 0 4.576-1.792 4.576-4.56zm-7.136 0c0-2 1.233-2.96 2.609-2.96 1.36 0 2.655.96 2.655 2.96s-1.344 2.976-2.704 2.976c-1.376 0-2.56-.976-2.56-2.976zM88.553 23h1.92l1.776-6.512L94.025 23h1.92l2.736-8.816h-1.792l-1.824 7.056-1.792-7.056h-1.904l-1.872 7.088-1.84-7.088H85.8L88.553 23z" fill="#fff"/></svg>