<svg width="215" height="18" viewBox="0 0 215 18" fill="none" xmlns="http://www.w3.org/2000/svg"><path d="M1.982 9.512c-.501 0-.933-.176-1.296-.528a1.788 1.788 0 01-.544-1.312c0-.523.182-.96.544-1.312a1.77 1.77 0 011.296-.544c.523 0 .96.181 1.312.544.363.352.544.79.544 1.312 0 .512-.181.95-.544 1.312-.352.352-.789.528-1.312.528zm19.778.832h-5.088L15.696 13h-1.184l4.08-11.04h1.264L23.92 13h-1.184l-.976-2.656zm-.336-.928l-2.208-6.048-2.208 6.048h4.416zm15.813-5.152L34.502 13h-1.12l-2.416-7.328L28.55 13h-1.136l-2.736-8.736h1.137l2.175 7.6 2.448-7.6h1.12l2.417 7.616 2.16-7.616h1.103zm1.015 4.352c0-.896.176-1.68.528-2.352.363-.683.859-1.205 1.488-1.568.64-.373 1.36-.56 2.16-.56.832 0 1.547.192 2.144.576.608.384 1.046.875 1.312 1.472v-1.92h1.12V13h-1.12v-1.936c-.277.597-.72 1.093-1.328 1.488-.597.384-1.312.576-2.144.576-.789 0-1.504-.187-2.144-.56a3.95 3.95 0 01-1.488-1.584c-.352-.683-.528-1.472-.528-2.368zm7.632.016c0-.704-.144-1.323-.432-1.856a3.066 3.066 0 00-1.184-1.232 3.165 3.165 0 00-1.632-.432c-.618 0-1.173.139-1.664.416-.49.277-.88.683-1.168 1.216-.277.523-.416 1.147-.416 1.872 0 .715.139 1.344.416 1.888a3.1 3.1 0 001.168 1.232c.491.277 1.046.416 1.664.416.598 0 1.142-.144 1.632-.432a3.066 3.066 0 001.184-1.232c.288-.533.432-1.152.432-1.856zm4.797-2.816a2.75 2.75 0 011.12-1.264c.512-.299 1.136-.448 1.872-.448v1.168h-.304c-.81 0-1.461.219-1.952.656-.49.437-.736 1.168-.736 2.192V13h-1.12V4.264h1.12v1.552zm4.165 2.8c0-.896.182-1.68.544-2.352.363-.683.859-1.205 1.488-1.568.64-.373 1.36-.56 2.16-.56.768 0 1.462.187 2.08.56.619.373 1.072.859 1.36 1.456V1.16h1.12V13h-1.12v-1.952c-.267.608-.704 1.11-1.312 1.504-.608.384-1.322.576-2.144.576-.8 0-1.52-.187-2.16-.56a3.952 3.952 0 01-1.488-1.584c-.352-.683-.528-1.472-.528-2.368zm7.632.016c0-.704-.144-1.323-.432-1.856a3.065 3.065 0 00-1.184-1.232 3.164 3.164 0 00-1.632-.432c-.618 0-1.173.139-1.664.416a2.99 2.99 0 00-1.168 1.216c-.277.523-.416 1.147-.416 1.872 0 .715.139 1.344.416 1.888a3.1 3.1 0 001.168 1.232c.49.277 1.045.416 1.664.416.598 0 1.142-.144 1.632-.432a3.066 3.066 0 001.184-1.232c.288-.533.432-1.152.432-1.856zM71.58 6.6v.944h-6.224V6.6h6.224zm14.393-2.336L83.236 13h-1.12L79.7 5.672 77.284 13h-1.136l-2.736-8.736h1.136l2.176 7.6 2.448-7.6h1.12l2.416 7.616 2.16-7.616h1.104zm2.087-1.648a.786.786 0 01-.576-.24.804.804 0 01-.24-.592c0-.235.08-.427.24-.576.16-.16.352-.24.576-.24.224 0 .416.08.576.24.16.15.24.341.24.576 0 .235-.08.432-.24.592a.786.786 0 01-.576.24zm.56 1.648V13h-1.12V4.264h1.12zm6.632-.16c1.045 0 1.899.325 2.56.976.661.64.992 1.573.992 2.8V13h-1.104V8.008c0-.95-.24-1.675-.72-2.176-.47-.501-1.115-.752-1.936-.752-.843 0-1.515.267-2.016.8-.501.533-.752 1.317-.752 2.352V13h-1.12V4.264h1.12v1.488a2.81 2.81 0 011.2-1.216c.523-.288 1.115-.432 1.776-.432zm10.125 0c1.045 0 1.899.325 2.56.976.661.64.992 1.573.992 2.8V13h-1.104V8.008c0-.95-.24-1.675-.72-2.176-.469-.501-1.115-.752-1.936-.752-.843 0-1.515.267-2.016.8-.501.533-.752 1.317-.752 2.352V13h-1.12V4.264h1.12v1.488a2.808 2.808 0 011.2-1.216c.523-.288 1.115-.432 1.776-.432zm6.589-1.488a.786.786 0 01-.576-.24.804.804 0 01-.24-.592c0-.235.08-.427.24-.576.16-.16.352-.24.576-.24.224 0 .416.08.576.24.16.15.24.341.24.576 0 .235-.08.432-.24.592a.786.786 0 01-.576.24zm.56 1.648V13h-1.12V4.264h1.12zm6.632-.16c1.046 0 1.899.325 2.56.976.662.64.992 1.573.992 2.8V13h-1.104V8.008c0-.95-.24-1.675-.72-2.176-.469-.501-1.114-.752-1.936-.752-.842 0-1.514.267-2.016.8-.501.533-.752 1.317-.752 2.352V13h-1.12V4.264h1.12v1.488a2.818 2.818 0 011.2-1.216c.523-.288 1.115-.432 1.776-.432zm9.693.032c.822 0 1.536.192 2.144.576.608.384 1.046.87 1.312 1.456V4.264h1.12v8.96c0 .8-.176 1.51-.528 2.128a3.49 3.49 0 01-1.44 1.424c-.618.341-1.322.512-2.112.512-1.12 0-2.053-.267-2.8-.8-.736-.533-1.194-1.259-1.376-2.176h1.104a2.7 2.7 0 001.088 1.456c.544.363 1.206.544 1.984.544a3.11 3.11 0 001.52-.368 2.52 2.52 0 001.056-1.056c.256-.47.384-1.024.384-1.664v-2.16c-.277.597-.72 1.093-1.328 1.488-.597.384-1.306.576-2.128.576-.8 0-1.52-.187-2.16-.56a3.956 3.956 0 01-1.488-1.584c-.352-.683-.528-1.472-.528-2.368 0-.896.176-1.68.528-2.352.363-.683.859-1.205 1.488-1.568.64-.373 1.36-.56 2.16-.56zm3.456 4.496c0-.704-.144-1.323-.432-1.856a3.061 3.061 0 00-1.184-1.232 3.161 3.161 0 00-1.632-.432c-.618 0-1.173.139-1.664.416-.49.277-.88.683-1.168 1.216-.277.523-.416 1.147-.416 1.872 0 .715.139 1.344.416 1.888.288.533.678.944 1.168 1.232a3.325 3.325 0 001.664.416c.598 0 1.142-.144 1.632-.432a3.062 3.062 0 001.184-1.232c.288-.533.432-1.152.432-1.856zm9.172-2.448c.277-.587.714-1.072 1.312-1.456.608-.395 1.328-.592 2.16-.592.789 0 1.498.187 2.128.56a3.71 3.71 0 011.488 1.568c.362.672.544 1.456.544 2.352 0 .896-.182 1.685-.544 2.368a3.812 3.812 0 01-1.488 1.584c-.63.373-1.339.56-2.128.56-.822 0-1.536-.192-2.144-.576-.608-.395-1.051-.885-1.328-1.472v6.048h-1.104V4.264h1.104v1.92zm6.496 2.432c0-.725-.144-1.35-.432-1.872a2.895 2.895 0 00-1.152-1.216 3.325 3.325 0 00-1.664-.416c-.598 0-1.147.144-1.648.432-.491.288-.88.699-1.168 1.232-.288.533-.432 1.152-.432 1.856 0 .704.144 1.323.432 1.856.288.533.677.944 1.168 1.232.501.288 1.05.432 1.648.432.618 0 1.173-.139 1.664-.416.49-.288.874-.699 1.152-1.232.288-.544.432-1.173.432-1.888zm4.317-7.456V13h-1.12V1.16h1.12zm2.024 7.456c0-.896.176-1.68.528-2.352.363-.683.859-1.205 1.488-1.568.64-.373 1.36-.56 2.16-.56.832 0 1.547.192 2.144.576.608.384 1.045.875 1.312 1.472v-1.92h1.12V13h-1.12v-1.936c-.277.597-.72 1.093-1.328 1.488-.597.384-1.312.576-2.144.576a4.178 4.178 0 01-2.144-.56 3.956 3.956 0 01-1.488-1.584c-.352-.683-.528-1.472-.528-2.368zm7.632.016c0-.704-.144-1.323-.432-1.856a3.068 3.068 0 00-1.184-1.232 3.166 3.166 0 00-1.632-.432c-.619 0-1.173.139-1.664.416-.491.277-.88.683-1.168 1.216-.277.523-.416 1.147-.416 1.872 0 .715.139 1.344.416 1.888.288.533.677.944 1.168 1.232a3.322 3.322 0 001.664.416c.597 0 1.141-.144 1.632-.432a3.068 3.068 0 001.184-1.232c.288-.533.432-1.152.432-1.856zm5.133-3.424v5.424c0 .533.101.901.304 1.104.202.203.56.304 1.072.304h1.024V13h-1.2c-.79 0-1.376-.181-1.76-.544-.384-.373-.576-.981-.576-1.824V5.208h-1.216v-.944h1.216V2.072h1.136v2.192h2.4v.944h-2.4zm7.687 0h-2.032V13h-1.12V5.208h-1.216v-.944h1.216v-.608c0-.95.24-1.648.72-2.096.491-.448 1.28-.672 2.368-.672v.96c-.725 0-1.237.139-1.536.416-.288.277-.432.741-.432 1.392v.608h2.032v.944zm5.587 7.92c-.821 0-1.563-.181-2.224-.544a4.132 4.132 0 01-1.552-1.568c-.373-.683-.56-1.477-.56-2.384 0-.907.192-1.696.576-2.368a3.962 3.962 0 011.568-1.568c.661-.373 1.403-.56 2.224-.56.821 0 1.563.187 2.224.56a3.827 3.827 0 011.568 1.568c.384.672.576 1.461.576 2.368 0 .896-.192 1.685-.576 2.368a4.039 4.039 0 01-1.584 1.584c-.672.363-1.419.544-2.24.544zm0-.976c.576 0 1.109-.128 1.6-.384a3.008 3.008 0 001.184-1.184c.309-.533.464-1.184.464-1.952s-.149-1.413-.448-1.936c-.299-.533-.693-.928-1.184-1.184a3.298 3.298 0 00-1.6-.4c-.576 0-1.109.133-1.6.4-.491.256-.885.65-1.184 1.184-.288.523-.432 1.168-.432 1.936s.144 1.419.432 1.952c.299.523.688.917 1.168 1.184a3.408 3.408 0 001.6.384zm7.562-6.336a2.744 2.744 0 011.12-1.264c.512-.299 1.136-.448 1.872-.448v1.168h-.304c-.811 0-1.462.219-1.952.656-.491.437-.736 1.168-.736 2.192V13h-1.12V4.264h1.12v1.552zm15.077-1.712c1.024 0 1.856.325 2.496.976.65.64.976 1.573.976 2.8V13h-1.104V8.008c0-.95-.23-1.675-.688-2.176-.459-.501-1.083-.752-1.872-.752-.822 0-1.478.272-1.968.816-.491.544-.736 1.333-.736 2.368V13h-1.104V8.008c0-.95-.23-1.675-.688-2.176-.459-.501-1.088-.752-1.888-.752-.822 0-1.478.272-1.968.816-.491.544-.736 1.333-.736 2.368V13h-1.12V4.264h1.12v1.504a2.814 2.814 0 011.184-1.232 3.43 3.43 0 011.712-.432c.757 0 1.418.181 1.984.544.576.363.992.896 1.248 1.6.234-.693.634-1.221 1.2-1.584a3.509 3.509 0 011.952-.56zm8.967 9.024c-1.003 0-1.824-.23-2.464-.688-.629-.47-.981-1.104-1.056-1.904h1.152c.053.49.283.89.688 1.2.416.299.971.448 1.664.448.608 0 1.083-.144 1.424-.432.352-.288.528-.645.528-1.072a.997.997 0 00-.288-.736 1.946 1.946 0 00-.736-.448 9.522 9.522 0 00-1.184-.368 12.088 12.088 0 01-1.584-.512 2.807 2.807 0 01-1.04-.752c-.277-.341-.416-.795-.416-1.36 0-.427.128-.821.384-1.184s.619-.65 1.088-.864c.469-.213 1.003-.32 1.6-.32.939 0 1.696.24 2.272.72.576.47.885 1.12.928 1.952h-1.12c-.032-.512-.235-.923-.608-1.232-.363-.32-.864-.48-1.504-.48-.565 0-1.024.133-1.376.4-.352.267-.528.597-.528.992 0 .341.101.624.304.848.213.213.475.384.784.512.309.117.725.25 1.248.4.629.17 1.131.336 1.504.496.373.16.693.395.96.704.267.31.405.72.416 1.232 0 .47-.128.89-.384 1.264-.256.363-.613.65-1.072.864-.459.213-.987.32-1.584.32z" fill="#fff"/></svg>