<svg width="104" height="225" viewBox="0 0 104 225" fill="none" xmlns="http://www.w3.org/2000/svg"><path d="M3.456 15.016L5.504 15l2.48-8.416L10.32 15h2.064L15.68 3.88h-1.952l-2.32 9.008-2.32-9.008H7.04l-2.496 9.056L2.24 3.88H.304l3.152 11.136zM17.184 15h1.824v-4.928c0-1.616.88-2.448 2.224-2.448 1.328 0 2.208.832 2.208 2.448V15h1.808V9.8c0-2.464-1.536-3.76-3.504-3.76-1.136 0-2.128.432-2.736 1.168V3.16h-1.824V15zm10.391 0h1.824V6.184h-1.824V15zm.928-9.984a1.15 1.15 0 001.152-1.168 1.15 1.15 0 00-1.152-1.168c-.656 0-1.168.512-1.168 1.168 0 .656.512 1.168 1.168 1.168zm2.683 5.568c0 2.768 1.792 4.56 4.32 4.56 2.16 0 3.568-1.2 4.064-2.928h-1.968c-.336.912-1.008 1.392-2.096 1.392-1.472 0-2.448-1.088-2.448-3.024 0-1.92.976-3.008 2.448-3.008 1.088 0 1.792.544 2.096 1.392h1.968c-.496-1.856-1.904-2.928-4.064-2.928-2.528 0-4.32 1.792-4.32 4.544zM41.388 15h1.824v-4.928c0-1.616.88-2.448 2.223-2.448 1.328 0 2.209.832 2.209 2.448V15h1.808V9.8c0-2.464-1.536-3.76-3.505-3.76-1.136 0-2.128.432-2.736 1.168V3.16h-1.823V15zm21.122-2.464c-.096-3.184-5.072-2.192-5.072-3.968 0-.592.512-.992 1.488-.992.992 0 1.584.528 1.648 1.296h1.824c-.096-1.76-1.408-2.832-3.408-2.832-2.08 0-3.392 1.136-3.392 2.544 0 3.232 5.12 2.24 5.12 3.968 0 .608-.56 1.056-1.616 1.056-1.008 0-1.696-.592-1.76-1.312h-1.888c.08 1.6 1.568 2.848 3.68 2.848 2.08 0 3.376-1.12 3.376-2.608zM64.481 15h1.824V6.184h-1.824V15zm.928-9.984a1.15 1.15 0 001.152-1.168A1.15 1.15 0 0065.41 2.68c-.656 0-1.168.512-1.168 1.168 0 .656.512 1.168 1.168 1.168zm2.683 5.536c0 2.72 1.84 4.592 4.16 4.592 1.44 0 2.496-.672 3.056-1.472V15h1.84V3.16h-1.84v4.256c-.672-.832-1.888-1.376-3.04-1.376-2.336 0-4.176 1.792-4.176 4.512zm7.216.032c0 1.904-1.296 2.976-2.672 2.976-1.36 0-2.672-1.104-2.672-3.008s1.312-2.928 2.672-2.928c1.376 0 2.672 1.072 2.672 2.96zm7.948-3.008c1.36 0 2.432.864 2.464 2.224h-4.88c.192-1.392 1.184-2.224 2.416-2.224zm4.128 4.8h-1.968c-.336.688-.96 1.232-2.08 1.232-1.344 0-2.384-.88-2.512-2.336h6.736c.048-.304.064-.592.064-.896 0-2.592-1.776-4.336-4.288-4.336-2.608 0-4.4 1.776-4.4 4.544s1.872 4.56 4.4 4.56c2.16 0 3.552-1.232 4.048-2.768zM9.6 29.584c0-2.768-1.984-4.544-4.496-4.544-2.512 0-4.496 1.776-4.496 4.544s1.904 4.56 4.416 4.56c2.528 0 4.576-1.792 4.576-4.56zm-7.136 0c0-2 1.232-2.96 2.608-2.96 1.36 0 2.656.96 2.656 2.96S6.384 32.56 5.024 32.56c-1.376 0-2.56-.976-2.56-2.976zM11.627 34h1.84v-7.328H15.1v-1.488h-1.632v-.624c0-1.008.384-1.392 1.504-1.392v-1.52c-2.304 0-3.344.88-3.344 2.912v.624h-1.04v1.488h1.04V34zm11.5.016L25.177 34l2.48-8.416L29.992 34h2.064l3.296-11.12H33.4l-2.32 9.008-2.32-9.008h-2.048l-2.496 9.056-2.304-9.056h-1.936l3.152 11.136zm13.121-4.464c0 2.72 1.84 4.592 4.128 4.592 1.472 0 2.528-.704 3.088-1.456V34h1.84v-8.816h-1.84v1.28c-.544-.72-1.568-1.424-3.056-1.424-2.32 0-4.16 1.792-4.16 4.512zm7.216.032c0 1.904-1.296 2.976-2.672 2.976-1.36 0-2.672-1.104-2.672-3.008s1.312-2.928 2.672-2.928c1.376 0 2.672 1.072 2.672 2.96zM47.7 34h1.824V22.16H47.7V34zm4.219 0h1.824V22.16h-1.824V34zM8.704 49.848c0-4.064-5.888-2.496-5.888-5.008 0-1.072.816-1.584 1.872-1.552 1.152.032 1.808.72 1.872 1.472h2.016c-.16-1.904-1.664-3.024-3.792-3.024-2.272 0-3.824 1.216-3.824 3.168 0 4.096 5.904 2.352 5.904 5.04 0 .944-.72 1.632-2 1.632-1.264 0-1.904-.736-1.984-1.648H.928c0 1.968 1.712 3.184 3.936 3.184 2.48 0 3.84-1.6 3.84-3.264zm2.44.704c0 1.792.976 2.448 2.544 2.448h1.44v-1.52h-1.12c-.768 0-1.024-.272-1.024-.928v-4.88h2.144v-1.488h-2.144v-2.192h-1.84v2.192h-1.04v1.488h1.04v4.88zm7.49-2.192c0-1.872.831-2.432 2.175-2.432h.464V44.04c-1.248 0-2.128.544-2.64 1.424v-1.28H16.81V53h1.824v-4.64zm8.028-2.784c1.36 0 2.432.864 2.464 2.224h-4.88c.192-1.392 1.184-2.224 2.416-2.224zm4.128 4.8h-1.968c-.336.688-.96 1.232-2.08 1.232-1.344 0-2.384-.88-2.512-2.336h6.736c.048-.304.064-.592.064-.896 0-2.592-1.776-4.336-4.288-4.336-2.608 0-4.4 1.776-4.4 4.544s1.872 4.56 4.4 4.56c2.16 0 3.552-1.232 4.048-2.768zm5.747-4.8c1.36 0 2.432.864 2.464 2.224h-4.88c.192-1.392 1.184-2.224 2.416-2.224zm4.128 4.8h-1.968c-.336.688-.96 1.232-2.08 1.232-1.344 0-2.384-.88-2.512-2.336h6.736c.048-.304.064-.592.064-.896 0-2.592-1.776-4.336-4.288-4.336-2.608 0-4.4 1.776-4.4 4.544s1.872 4.56 4.4 4.56c2.16 0 3.552-1.232 4.048-2.768zm2.323.176c0 1.792.976 2.448 2.544 2.448h1.44v-1.52h-1.12c-.768 0-1.024-.272-1.024-.928v-4.88h2.144v-1.488h-2.144v-2.192h-1.84v2.192h-1.04v1.488h1.04v4.88zM54.521 53h1.92l1.776-6.512L59.993 53h1.92l2.736-8.816h-1.792l-1.824 7.056-1.792-7.056h-1.904l-1.872 7.088-1.84-7.088H51.77L54.521 53zm11.492 0h1.823v-8.816h-1.823V53zm.927-9.984a1.15 1.15 0 001.153-1.168 1.15 1.15 0 00-1.153-1.168c-.656 0-1.168.512-1.168 1.168 0 .656.512 1.168 1.168 1.168zM70.231 53h1.824V41.16h-1.824V53zm4.219 0h1.824V41.16H74.45V53zM4.672 69.904l-2.48-6.72H.16l3.472 8.672-1.792 4.288h1.888l5.408-12.96H7.248l-2.576 6.72zm14.24-2.32c0-2.768-1.983-4.544-4.495-4.544S9.92 64.816 9.92 67.584s1.904 4.56 4.415 4.56c2.528 0 4.577-1.792 4.577-4.56zm-7.135 0c0-2 1.232-2.96 2.607-2.96 1.36 0 2.657.96 2.657 2.96s-1.345 2.976-2.705 2.976c-1.376 0-2.56-.976-2.56-2.976zm16.923-4.4h-1.824v4.912c0 1.616-.88 2.448-2.224 2.448-1.328 0-2.208-.832-2.208-2.448v-4.912h-1.808v5.184c0 2.464 1.568 3.76 3.632 3.76 1.04 0 2.032-.432 2.608-1.184V72H28.7v-8.816zm6.85 6.368c0 1.792.977 2.448 2.544 2.448h1.44v-1.52h-1.12c-.767 0-1.023-.272-1.023-.928v-4.88h2.144v-1.488H37.39v-2.192h-1.84v2.192h-1.04v1.488h1.04v4.88zm5.058-2c0 2.72 1.84 4.592 4.128 4.592 1.472 0 2.528-.704 3.088-1.456V72h1.84v-8.816h-1.84v1.28c-.544-.72-1.568-1.424-3.056-1.424-2.32 0-4.16 1.792-4.16 4.512zm7.216.032c0 1.904-1.296 2.976-2.672 2.976-1.36 0-2.672-1.104-2.672-3.008s1.312-2.928 2.672-2.928c1.376 0 2.672 1.072 2.672 2.96zM52.059 72h1.824v-3.792L57.147 72h2.464l-4.064-4.4 4.064-4.416h-2.528l-3.2 3.856v-6.88H52.06V72zm12.572-7.424c1.36 0 2.432.864 2.464 2.224h-4.88c.192-1.392 1.184-2.224 2.416-2.224zm4.128 4.8H66.79c-.336.688-.96 1.232-2.08 1.232-1.344 0-2.384-.88-2.512-2.336h6.736c.048-.304.064-.592.064-.896 0-2.592-1.776-4.336-4.288-4.336-2.608 0-4.4 1.776-4.4 4.544s1.872 4.56 4.4 4.56c2.16 0 3.552-1.232 4.048-2.768zm1.475-5.36h1.712c0-1.12.72-1.76 1.856-1.76 1.152 0 1.84.688 1.84 1.808 0 1.68-1.392 2-3.2 2h-.528l.08 2.512h1.584l.064-1.264c2.144 0 3.744-.992 3.744-3.248 0-2.08-1.456-3.344-3.6-3.344-2.176 0-3.568 1.36-3.552 3.296zm3.68 6.928a1.15 1.15 0 00-1.152-1.168c-.656 0-1.168.512-1.168 1.168 0 .656.512 1.168 1.168 1.168a1.15 1.15 0 001.152-1.168zM7.56 95.06a2.822 2.822 0 00-1.104-1.296c-.488-.32-1.064-.48-1.728-.48-.624 0-1.184.144-1.68.432-.496.288-.888.7-1.176 1.236-.288.528-.432 1.144-.432 1.848 0 .704.144 1.324.432 1.86.288.536.68.948 1.176 1.236a3.284 3.284 0 001.68.432c.584 0 1.108-.124 1.572-.372a2.925 2.925 0 001.128-1.08c.288-.472.452-1.02.492-1.644H4.392v-.684h4.416v.612a4.285 4.285 0 01-.6 2.004 3.944 3.944 0 01-1.452 1.404c-.6.344-1.276.516-2.028.516-.776 0-1.48-.18-2.112-.54a4.035 4.035 0 01-1.5-1.524c-.36-.656-.54-1.396-.54-2.22 0-.824.18-1.56.54-2.208a3.925 3.925 0 011.5-1.524 4.12 4.12 0 012.112-.552c.896 0 1.68.224 2.352.672.672.448 1.16 1.072 1.464 1.872H7.56zm5.655 6.036a3.411 3.411 0 01-1.668-.408 3.1 3.1 0 01-1.164-1.176c-.28-.512-.42-1.108-.42-1.788 0-.68.144-1.272.432-1.776a2.97 2.97 0 011.176-1.176 3.333 3.333 0 011.668-.42c.616 0 1.172.14 1.668.42.504.272.896.664 1.176 1.176.288.504.432 1.096.432 1.776 0 .672-.144 1.264-.432 1.776a3.03 3.03 0 01-1.188 1.188 3.48 3.48 0 01-1.68.408zm0-.732c.432 0 .832-.096 1.2-.288.368-.2.664-.496.888-.888.232-.4.348-.888.348-1.464s-.112-1.06-.336-1.452c-.224-.4-.52-.696-.888-.888-.368-.2-.768-.3-1.2-.3-.432 0-.832.1-1.2.3a2.157 2.157 0 00-.888.888c-.216.392-.324.876-.324 1.452s.108 1.064.324 1.464c.224.392.516.688.876.888.368.192.768.288 1.2.288zm8.964-8.244V101h-.84v-8.88h.84zm4.77 8.976a3.411 3.411 0 01-1.668-.408 3.1 3.1 0 01-1.164-1.176c-.28-.512-.42-1.108-.42-1.788 0-.68.144-1.272.432-1.776a2.97 2.97 0 011.176-1.176 3.333 3.333 0 011.668-.42c.616 0 1.172.14 1.668.42.504.272.896.664 1.176 1.176.288.504.432 1.096.432 1.776 0 .672-.144 1.264-.432 1.776a3.03 3.03 0 01-1.188 1.188 3.48 3.48 0 01-1.68.408zm0-.732c.432 0 .832-.096 1.2-.288.368-.2.664-.496.888-.888.232-.4.348-.888.348-1.464s-.112-1.06-.336-1.452c-.224-.4-.52-.696-.888-.888-.368-.2-.768-.3-1.2-.3-.432 0-.832.1-1.2.3a2.157 2.157 0 00-.888.888c-.216.392-.324.876-.324 1.452s.108 1.064.324 1.464c.224.392.516.688.876.888.368.192.768.288 1.2.288zm7.903-6.036c.784 0 1.424.244 1.92.732.496.48.744 1.18.744 2.1V101h-.828v-3.744c0-.712-.18-1.256-.54-1.632-.352-.376-.836-.564-1.452-.564-.632 0-1.136.2-1.512.6-.376.4-.564.988-.564 1.764V101h-.84v-6.552h.84v1.116c.208-.4.508-.704.9-.912a2.714 2.714 0 011.332-.324zm7.27.024c.616 0 1.152.144 1.608.432.456.288.784.652.984 1.092v-1.428h.84v6.72c0 .6-.132 1.132-.396 1.596a2.62 2.62 0 01-1.08 1.068c-.464.256-.992.384-1.584.384-.84 0-1.54-.2-2.1-.6a2.553 2.553 0 01-1.032-1.632h.828c.144.456.416.82.816 1.092.408.272.904.408 1.488.408.424 0 .804-.092 1.14-.276.336-.176.6-.44.792-.792.192-.352.288-.768.288-1.248v-1.62c-.208.448-.54.82-.996 1.116-.448.288-.98.432-1.596.432-.6 0-1.14-.14-1.62-.42a2.964 2.964 0 01-1.116-1.188c-.264-.512-.396-1.104-.396-1.776 0-.672.132-1.26.396-1.764a2.881 2.881 0 011.116-1.176c.48-.28 1.02-.42 1.62-.42zm2.592 3.372c0-.528-.108-.992-.324-1.392a2.3 2.3 0 00-.888-.924 2.373 2.373 0 00-1.224-.324c-.464 0-.88.104-1.248.312-.368.208-.66.512-.876.912-.208.392-.312.86-.312 1.404 0 .536.104 1.008.312 1.416.216.4.508.708.876.924.368.208.784.312 1.248.312.448 0 .856-.108 1.224-.324a2.3 2.3 0 00.888-.924c.216-.4.324-.864.324-1.392zm8.919 3.372a3.411 3.411 0 01-1.668-.408 3.1 3.1 0 01-1.164-1.176c-.28-.512-.42-1.108-.42-1.788 0-.68.144-1.272.432-1.776a2.97 2.97 0 011.176-1.176 3.333 3.333 0 011.668-.42c.616 0 1.172.14 1.668.42.504.272.896.664 1.176 1.176.288.504.432 1.096.432 1.776 0 .672-.144 1.264-.432 1.776a3.03 3.03 0 01-1.188 1.188 3.48 3.48 0 01-1.68.408zm0-.732c.432 0 .832-.096 1.2-.288.368-.2.664-.496.888-.888.232-.4.348-.888.348-1.464s-.112-1.06-.336-1.452c-.224-.4-.52-.696-.888-.888-.368-.2-.768-.3-1.2-.3-.432 0-.832.1-1.2.3a2.157 2.157 0 00-.888.888c-.216.392-.324.876-.324 1.452s.108 1.064.324 1.464c.224.392.516.688.876.888.368.192.768.288 1.2.288zm5.67-4.752c.185-.408.465-.724.84-.948.385-.224.853-.336 1.405-.336v.876h-.228c-.608 0-1.096.164-1.464.492-.368.328-.552.876-.552 1.644V101h-.84v-6.552h.84v1.164zM3.217 118.096c-.752 0-1.368-.172-1.848-.516-.472-.352-.736-.828-.792-1.428h.864c.04.368.212.668.516.9.312.224.728.336 1.248.336.456 0 .812-.108 1.068-.324.264-.216.396-.484.396-.804a.748.748 0 00-.216-.552 1.462 1.462 0 00-.552-.336 7.128 7.128 0 00-.888-.276 9.09 9.09 0 01-1.188-.384 2.103 2.103 0 01-.78-.564c-.208-.256-.312-.596-.312-1.02 0-.32.096-.616.288-.888.192-.272.464-.488.816-.648a2.87 2.87 0 011.2-.24c.704 0 1.272.18 1.704.54.432.352.664.84.696 1.464h-.84a1.248 1.248 0 00-.456-.924c-.272-.24-.648-.36-1.128-.36-.424 0-.768.1-1.032.3-.264.2-.396.448-.396.744 0 .256.076.468.228.636.16.16.356.288.588.384.232.088.544.188.936.3a8.84 8.84 0 011.128.372c.28.12.52.296.72.528.2.232.304.54.312.924 0 .352-.096.668-.288.948-.192.272-.46.488-.804.648-.344.16-.74.24-1.188.24zm6.981-6.768c.496 0 .94.104 1.332.312.4.208.712.528.936.96.232.424.348.944.348 1.56V118h-.828v-3.744c0-.712-.18-1.256-.54-1.632-.352-.376-.836-.564-1.452-.564-.632 0-1.136.2-1.512.6-.376.4-.564.988-.564 1.764V118h-.84v-8.88h.84v3.444a2.18 2.18 0 01.912-.912 2.878 2.878 0 011.368-.324zm7.342 6.768a3.411 3.411 0 01-1.668-.408 3.1 3.1 0 01-1.164-1.176c-.28-.512-.42-1.108-.42-1.788 0-.68.144-1.272.432-1.776a2.97 2.97 0 011.176-1.176 3.333 3.333 0 011.668-.42c.616 0 1.172.14 1.668.42.504.272.896.664 1.176 1.176.288.504.432 1.096.432 1.776 0 .672-.144 1.264-.432 1.776a3.03 3.03 0 01-1.188 1.188 3.48 3.48 0 01-1.68.408zm0-.732c.432 0 .832-.096 1.2-.288.368-.2.664-.496.888-.888.232-.4.348-.888.348-1.464s-.112-1.06-.336-1.452c-.224-.4-.52-.696-.888-.888-.368-.2-.768-.3-1.2-.3-.432 0-.832.1-1.2.3a2.157 2.157 0 00-.888.888c-.216.392-.324.876-.324 1.452s.108 1.064.324 1.464c.224.392.516.688.876.888.368.192.768.288 1.2.288zm5.671-4.752c.184-.408.464-.724.84-.948.384-.224.852-.336 1.404-.336v.876h-.228c-.608 0-1.096.164-1.464.492-.368.328-.552.876-.552 1.644V118h-.84v-6.552h.84v1.164zm4.6-.456v4.068c0 .4.076.676.228.828.152.152.42.228.804.228h.768v.72h-.9c-.592 0-1.032-.136-1.32-.408-.288-.28-.432-.736-.432-1.368v-4.068h-.912v-.708h.912v-1.644h.852v1.644h1.8v.708h-1.8zm9.346 5.94a3.411 3.411 0 01-1.668-.408 3.1 3.1 0 01-1.164-1.176c-.28-.512-.42-1.108-.42-1.788 0-.68.144-1.272.432-1.776a2.97 2.97 0 011.176-1.176 3.333 3.333 0 011.668-.42c.616 0 1.172.14 1.668.42.504.272.896.664 1.176 1.176.288.504.432 1.096.432 1.776 0 .672-.144 1.264-.432 1.776a3.03 3.03 0 01-1.188 1.188 3.48 3.48 0 01-1.68.408zm0-.732c.432 0 .832-.096 1.2-.288.368-.2.664-.496.888-.888.232-.4.348-.888.348-1.464s-.112-1.06-.336-1.452c-.224-.4-.52-.696-.888-.888-.368-.2-.768-.3-1.2-.3-.432 0-.832.1-1.2.3a2.157 2.157 0 00-.888.888c-.216.392-.324.876-.324 1.452s.108 1.064.324 1.464c.224.392.516.688.876.888.368.192.768.288 1.2.288zm7.903-6.036c.784 0 1.424.244 1.92.732.496.48.744 1.18.744 2.1V118h-.828v-3.744c0-.712-.18-1.256-.54-1.632-.352-.376-.836-.564-1.452-.564-.632 0-1.136.2-1.512.6-.376.4-.564.988-.564 1.764V118h-.84v-6.552h.84v1.116c.208-.4.508-.704.9-.912a2.714 2.714 0 011.332-.324zm8.907.828v4.068c0 .4.076.676.228.828.152.152.42.228.804.228h.768v.72h-.9c-.592 0-1.032-.136-1.32-.408-.288-.28-.432-.736-.432-1.368v-4.068h-.912v-.708h.912v-1.644h.852v1.644h1.8v.708h-1.8zm6.305-.828c.496 0 .94.104 1.332.312.4.208.712.528.936.96.232.424.348.944.348 1.56V118h-.828v-3.744c0-.712-.18-1.256-.54-1.632-.352-.376-.836-.564-1.452-.564-.632 0-1.136.2-1.512.6-.376.4-.564.988-.564 1.764V118h-.84v-8.88h.84v3.444a2.18 2.18 0 01.912-.912 2.878 2.878 0 011.368-.324zm10.402 3.06c0 .288-.008.508-.024.66h-5.436c.024.496.144.92.36 1.272s.5.62.852.804a2.54 2.54 0 001.152.264c.544 0 1-.132 1.368-.396a1.85 1.85 0 00.744-1.068h.888a2.792 2.792 0 01-1.032 1.572c-.52.4-1.176.6-1.968.6a3.343 3.343 0 01-1.656-.408 3.016 3.016 0 01-1.152-1.176c-.272-.512-.408-1.108-.408-1.788 0-.68.136-1.276.408-1.788a2.836 2.836 0 011.14-1.176c.488-.272 1.044-.408 1.668-.408.624 0 1.168.136 1.632.408.472.272.832.64 1.08 1.104.256.456.384.964.384 1.524zm-.852-.024c.008-.488-.092-.904-.3-1.248a1.947 1.947 0 00-.828-.78 2.54 2.54 0 00-1.152-.264c-.624 0-1.156.2-1.596.6-.44.4-.684.964-.732 1.692h4.608zm6.486-4.752v5.28c0 .832.196 1.448.588 1.848.4.4.944.6 1.632.6s1.224-.196 1.608-.588c.392-.4.588-1.02.588-1.86v-5.28h.84v5.268c0 1.064-.284 1.864-.852 2.4-.56.536-1.292.804-2.196.804-.904 0-1.64-.268-2.208-.804-.56-.536-.84-1.336-.84-2.4v-5.268h.84zm9.674 8.472c-.552 0-1.04-.096-1.464-.288a2.391 2.391 0 01-.984-.804 2.111 2.111 0 01-.384-1.152h.888c.04.408.22.768.54 1.08.32.304.788.456 1.404.456.568 0 1.016-.144 1.344-.432.336-.296.504-.668.504-1.116 0-.36-.092-.648-.276-.864a1.618 1.618 0 00-.684-.492 9.585 9.585 0 00-1.128-.36 9.862 9.862 0 01-1.332-.444 2.12 2.12 0 01-.84-.672c-.232-.304-.348-.716-.348-1.236 0-.432.112-.816.336-1.152.224-.344.54-.612.948-.804.408-.192.876-.288 1.404-.288.776 0 1.4.192 1.872.576.48.376.756.864.828 1.464h-.912c-.056-.344-.244-.648-.564-.912-.32-.272-.752-.408-1.296-.408-.504 0-.924.136-1.26.408-.336.264-.504.628-.504 1.092 0 .352.092.636.276.852.184.216.412.38.684.492.28.112.656.232 1.128.36.544.152.984.304 1.32.456a2.1 2.1 0 01.852.672c.232.304.348.712.348 1.224 0 .392-.104.764-.312 1.116a2.277 2.277 0 01-.924.852c-.408.216-.896.324-1.464.324zM1.788 129.9a2.67 2.67 0 01.996-1.116c.456-.288.992-.432 1.608-.432.6 0 1.136.14 1.608.42.472.272.84.664 1.104 1.176.272.504.408 1.092.408 1.764 0 .672-.136 1.264-.408 1.776a2.86 2.86 0 01-1.116 1.188c-.472.28-1.004.42-1.596.42-.624 0-1.164-.14-1.62-.42a2.589 2.589 0 01-.984-1.116V135H.96v-8.88h.828v3.78zm4.872 1.812c0-.544-.108-1.012-.324-1.404a2.166 2.166 0 00-.864-.912 2.492 2.492 0 00-1.248-.312c-.448 0-.86.108-1.236.324-.368.216-.66.524-.876.924-.216.4-.324.864-.324 1.392 0 .528.108.992.324 1.392.216.4.508.708.876.924.376.216.788.324 1.236.324.464 0 .88-.104 1.248-.312.368-.216.656-.524.864-.924.216-.408.324-.88.324-1.416zm8.326-.324c0 .288-.008.508-.024.66H9.526c.024.496.144.92.36 1.272s.5.62.852.804a2.54 2.54 0 001.152.264c.544 0 1-.132 1.368-.396a1.85 1.85 0 00.744-1.068h.888a2.792 2.792 0 01-1.032 1.572c-.52.4-1.176.6-1.968.6a3.343 3.343 0 01-1.656-.408 3.016 3.016 0 01-1.152-1.176c-.272-.512-.408-1.108-.408-1.788 0-.68.136-1.276.408-1.788a2.836 2.836 0 011.14-1.176c.488-.272 1.044-.408 1.668-.408.624 0 1.168.136 1.632.408.472.272.832.64 1.08 1.104.256.456.384.964.384 1.524zm-.852-.024c.008-.488-.092-.904-.3-1.248a1.947 1.947 0 00-.828-.78 2.54 2.54 0 00-1.152-.264c-.624 0-1.156.2-1.596.6-.44.4-.684.964-.732 1.692h4.608zm5.46-3.036c.784 0 1.424.244 1.92.732.497.48.745 1.18.745 2.1V135h-.829v-3.744c0-.712-.18-1.256-.54-1.632-.352-.376-.835-.564-1.451-.564-.633 0-1.137.2-1.512.6-.377.4-.564.988-.564 1.764V135h-.84v-6.552h.84v1.116c.207-.4.508-.704.9-.912a2.714 2.714 0 011.331-.324zm4.138 3.396c0-.68.136-1.272.408-1.776a2.858 2.858 0 011.128-1.176c.48-.28 1.028-.42 1.644-.42.808 0 1.472.2 1.992.6.528.4.868.944 1.02 1.632h-.9a1.808 1.808 0 00-.732-1.104c-.368-.272-.828-.408-1.38-.408-.44 0-.836.1-1.188.3-.352.2-.632.5-.84.9-.2.392-.3.876-.3 1.452s.1 1.064.3 1.464c.208.4.488.7.84.9.352.2.748.3 1.188.3.552 0 1.012-.132 1.38-.396.376-.272.62-.648.732-1.128h.9a2.748 2.748 0 01-1.02 1.62c-.528.408-1.192.612-1.992.612-.616 0-1.164-.136-1.644-.408a2.957 2.957 0 01-1.128-1.176c-.272-.512-.408-1.108-.408-1.788zm10.864-3.396c.496 0 .94.104 1.332.312.4.208.712.528.936.96.232.424.348.944.348 1.56V135h-.828v-3.744c0-.712-.18-1.256-.54-1.632-.352-.376-.836-.564-1.452-.564-.632 0-1.136.2-1.512.6-.376.4-.564.988-.564 1.764V135h-.84v-8.88h.84v3.444a2.18 2.18 0 01.912-.912 2.878 2.878 0 011.368-.324zm12.273 0c.768 0 1.392.244 1.872.732.488.48.732 1.18.732 2.1V135h-.828v-3.744c0-.712-.172-1.256-.516-1.632-.344-.376-.812-.564-1.404-.564-.616 0-1.108.204-1.476.612-.368.408-.552 1-.552 1.776V135h-.828v-3.744c0-.712-.172-1.256-.516-1.632-.344-.376-.816-.564-1.416-.564-.616 0-1.108.204-1.476.612-.368.408-.552 1-.552 1.776V135h-.84v-6.552h.84v1.128c.208-.408.504-.716.888-.924a2.573 2.573 0 011.284-.324c.568 0 1.064.136 1.488.408.432.272.744.672.936 1.2.176-.52.476-.916.9-1.188.432-.28.92-.42 1.464-.42zm4.086 3.384c0-.672.132-1.26.396-1.764a2.881 2.881 0 011.116-1.176c.48-.28 1.02-.42 1.62-.42.624 0 1.16.144 1.608.432.456.288.784.656.984 1.104v-1.44h.84V135h-.84v-1.452c-.208.448-.54.82-.996 1.116-.448.288-.984.432-1.608.432-.592 0-1.128-.14-1.608-.42a2.964 2.964 0 01-1.116-1.188c-.264-.512-.396-1.104-.396-1.776zm5.724.012c0-.528-.108-.992-.324-1.392a2.3 2.3 0 00-.888-.924 2.373 2.373 0 00-1.224-.324c-.464 0-.88.104-1.248.312-.368.208-.66.512-.876.912-.208.392-.312.86-.312 1.404 0 .536.104 1.008.312 1.416.216.4.508.708.876.924.368.208.784.312 1.248.312.448 0 .856-.108 1.224-.324a2.3 2.3 0 00.888-.924c.216-.4.324-.864.324-1.392zm3.598-2.112c.184-.408.464-.724.84-.948.384-.224.852-.336 1.404-.336v.876h-.228c-.608 0-1.096.164-1.464.492-.368.328-.552.876-.552 1.644V135h-.84v-6.552h.84v1.164zM67.324 135l-2.7-2.94V135h-.84v-8.88h.84v5.256l2.64-2.928h1.176l-3.108 3.264L68.464 135h-1.14zm8.387.096a3.411 3.411 0 01-1.668-.408 3.1 3.1 0 01-1.164-1.176c-.28-.512-.42-1.108-.42-1.788 0-.68.144-1.272.432-1.776a2.97 2.97 0 011.176-1.176 3.333 3.333 0 011.668-.42c.616 0 1.172.14 1.668.42.504.272.896.664 1.176 1.176.288.504.432 1.096.432 1.776 0 .672-.144 1.264-.432 1.776a3.03 3.03 0 01-1.188 1.188 3.48 3.48 0 01-1.68.408zm0-.732c.432 0 .832-.096 1.2-.288.368-.2.664-.496.888-.888.232-.4.348-.888.348-1.464s-.112-1.06-.336-1.452c-.224-.4-.52-.696-.888-.888-.368-.2-.768-.3-1.2-.3-.432 0-.832.1-1.2.3a2.157 2.157 0 00-.888.888c-.216.392-.324.876-.324 1.452s.108 1.064.324 1.464c.224.392.516.688.876.888.368.192.768.288 1.2.288zm7.903-6.036c.784 0 1.424.244 1.92.732.496.48.744 1.18.744 2.1V135h-.828v-3.744c0-.712-.18-1.256-.54-1.632-.352-.376-.836-.564-1.452-.564-.632 0-1.136.2-1.512.6-.376.4-.564.988-.564 1.764V135h-.84v-6.552h.84v1.116c.208-.4.508-.704.9-.912a2.714 2.714 0 011.332-.324zM.576 148.712c0-.672.132-1.26.396-1.764a2.881 2.881 0 011.116-1.176c.48-.28 1.02-.42 1.62-.42.624 0 1.16.144 1.608.432.456.288.784.656.984 1.104v-1.44h.84V152H6.3v-1.452c-.208.448-.54.82-.996 1.116-.448.288-.984.432-1.608.432-.592 0-1.128-.14-1.608-.42a2.964 2.964 0 01-1.116-1.188c-.264-.512-.396-1.104-.396-1.776zm5.724.012c0-.528-.108-.992-.324-1.392a2.3 2.3 0 00-.888-.924 2.373 2.373 0 00-1.224-.324c-.464 0-.88.104-1.248.312-.368.208-.66.512-.876.912-.208.392-.312.86-.312 1.404 0 .536.104 1.008.312 1.416.216.4.508.708.876.924.368.208.784.312 1.248.312.448 0 .856-.108 1.224-.324a2.3 2.3 0 00.888-.924c.216-.4.324-.864.324-1.392zm5.83-3.396c.784 0 1.424.244 1.92.732.496.48.744 1.18.744 2.1V152h-.828v-3.744c0-.712-.18-1.256-.54-1.632-.352-.376-.836-.564-1.452-.564-.632 0-1.136.2-1.512.6-.376.4-.564.988-.564 1.764V152h-.84v-6.552h.84v1.116c.208-.4.508-.704.9-.912a2.714 2.714 0 011.332-.324zm7.43 3.384c0-.672.132-1.26.396-1.764a2.881 2.881 0 011.116-1.176c.48-.28 1.02-.42 1.62-.42.624 0 1.16.144 1.608.432.456.288.784.656.984 1.104v-1.44h.84V152h-.84v-1.452c-.208.448-.54.82-.996 1.116-.448.288-.984.432-1.608.432-.592 0-1.128-.14-1.608-.42a2.964 2.964 0 01-1.116-1.188c-.264-.512-.396-1.104-.396-1.776zm5.724.012c0-.528-.108-.992-.324-1.392a2.3 2.3 0 00-.888-.924 2.373 2.373 0 00-1.224-.324c-.464 0-.88.104-1.248.312-.368.208-.66.512-.876.912-.208.392-.312.86-.312 1.404 0 .536.104 1.008.312 1.416.216.4.508.708.876.924.368.208.784.312 1.248.312.448 0 .856-.108 1.224-.324a2.3 2.3 0 00.888-.924c.216-.4.324-.864.324-1.392zm11.398-3.276L34.63 152h-.84l-1.812-5.496L30.166 152h-.852l-2.052-6.552h.852l1.632 5.7 1.836-5.7h.84l1.812 5.712 1.62-5.712h.828zm.761 3.264c0-.672.132-1.26.396-1.764a2.881 2.881 0 011.116-1.176c.48-.28 1.02-.42 1.62-.42.624 0 1.16.144 1.608.432.456.288.784.656.984 1.104v-1.44h.84V152h-.84v-1.452c-.208.448-.54.82-.996 1.116-.448.288-.984.432-1.608.432-.592 0-1.128-.14-1.608-.42a2.964 2.964 0 01-1.116-1.188c-.264-.512-.396-1.104-.396-1.776zm5.724.012c0-.528-.108-.992-.324-1.392a2.3 2.3 0 00-.888-.924 2.373 2.373 0 00-1.224-.324c-.464 0-.88.104-1.248.312-.368.208-.66.512-.876.912-.208.392-.312.86-.312 1.404 0 .536.104 1.008.312 1.416.216.4.508.708.876.924.368.208.784.312 1.248.312.448 0 .856-.108 1.224-.324a2.3 2.3 0 00.888-.924c.216-.4.324-.864.324-1.392zm3.598-2.112c.184-.408.464-.724.84-.948.384-.224.852-.336 1.404-.336v.876h-.228c-.608 0-1.096.164-1.464.492-.368.328-.552.876-.552 1.644V152h-.84v-6.552h.84v1.164zm3.123 2.1c0-.672.137-1.26.409-1.764a2.881 2.881 0 011.116-1.176c.48-.28 1.02-.42 1.62-.42.575 0 1.096.14 1.56.42.463.28.803.644 1.02 1.092v-3.744h.84V152h-.84v-1.464a2.56 2.56 0 01-.984 1.128c-.456.288-.992.432-1.608.432-.6 0-1.14-.14-1.62-.42a2.964 2.964 0 01-1.117-1.188c-.264-.512-.395-1.104-.395-1.776zm5.724.012c0-.528-.108-.992-.324-1.392a2.3 2.3 0 00-.887-.924 2.373 2.373 0 00-1.225-.324c-.464 0-.88.104-1.248.312-.367.208-.66.512-.875.912-.209.392-.313.86-.313 1.404 0 .536.104 1.008.313 1.416.216.4.508.708.876.924.367.208.783.312 1.247.312.448 0 .856-.108 1.224-.324a2.3 2.3 0 00.889-.924c.215-.4.323-.864.323-1.392zm6.826-1.524v.708H57.77v-.708h4.668zM9.6 162.448L7.548 169h-.84l-1.812-5.496L3.084 169h-.852L.18 162.448h.852l1.632 5.7 1.836-5.7h.84l1.812 5.712 1.62-5.712H9.6zm1.565-1.236a.59.59 0 01-.432-.18.603.603 0 01-.18-.444c0-.176.06-.32.18-.432a.59.59 0 01.432-.18.59.59 0 01.432.18c.12.112.18.256.18.432s-.06.324-.18.444a.59.59 0 01-.432.18zm.42 1.236V169h-.84v-6.552h.84zm4.974-.12c.784 0 1.424.244 1.92.732.496.48.744 1.18.744 2.1V169h-.828v-3.744c0-.712-.18-1.256-.54-1.632-.352-.376-.836-.564-1.452-.564-.632 0-1.136.2-1.512.6-.376.4-.564.988-.564 1.764V169h-.84v-6.552h.84v1.116c.208-.4.508-.704.9-.912a2.714 2.714 0 011.332-.324zm7.594 0c.784 0 1.424.244 1.92.732.496.48.744 1.18.744 2.1V169h-.828v-3.744c0-.712-.18-1.256-.54-1.632-.352-.376-.836-.564-1.452-.564-.632 0-1.136.2-1.512.6-.376.4-.564.988-.564 1.764V169h-.84v-6.552h.84v1.116c.208-.4.508-.704.9-.912a2.714 2.714 0 011.332-.324zm4.942-1.116a.59.59 0 01-.432-.18.603.603 0 01-.18-.444c0-.176.06-.32.18-.432a.59.59 0 01.432-.18.59.59 0 01.432.18c.12.112.18.256.18.432s-.06.324-.18.444a.59.59 0 01-.432.18zm.42 1.236V169h-.84v-6.552h.84zm4.974-.12c.784 0 1.424.244 1.92.732.496.48.744 1.18.744 2.1V169h-.828v-3.744c0-.712-.18-1.256-.54-1.632-.352-.376-.836-.564-1.452-.564-.632 0-1.136.2-1.512.6-.376.4-.564.988-.564 1.764V169h-.84v-6.552h.84v1.116c.208-.4.508-.704.9-.912a2.714 2.714 0 011.332-.324zm7.27.024c.616 0 1.152.144 1.608.432.456.288.784.652.984 1.092v-1.428h.84v6.72c0 .6-.132 1.132-.396 1.596a2.62 2.62 0 01-1.08 1.068c-.464.256-.992.384-1.584.384-.84 0-1.54-.2-2.1-.6a2.553 2.553 0 01-1.032-1.632h.828c.144.456.416.82.816 1.092.408.272.904.408 1.488.408.424 0 .804-.092 1.14-.276.336-.176.6-.44.792-.792.192-.352.288-.768.288-1.248v-1.62c-.208.448-.54.82-.996 1.116-.448.288-.98.432-1.596.432-.6 0-1.14-.14-1.62-.42a2.964 2.964 0 01-1.116-1.188c-.264-.512-.396-1.104-.396-1.776 0-.672.132-1.26.396-1.764a2.881 2.881 0 011.116-1.176c.48-.28 1.02-.42 1.62-.42zm2.592 3.372c0-.528-.108-.992-.324-1.392a2.3 2.3 0 00-.888-.924 2.373 2.373 0 00-1.224-.324c-.464 0-.88.104-1.248.312-.368.208-.66.512-.876.912-.208.392-.312.86-.312 1.404 0 .536.104 1.008.312 1.416.216.4.508.708.876.924.368.208.784.312 1.248.312.448 0 .856-.108 1.224-.324a2.3 2.3 0 00.888-.924c.216-.4.324-.864.324-1.392zM1.788 180.888c.208-.44.536-.804.984-1.092.456-.296.996-.444 1.62-.444.592 0 1.124.14 1.596.42.48.272.852.664 1.116 1.176.272.504.408 1.092.408 1.764 0 .672-.136 1.264-.408 1.776a2.86 2.86 0 01-1.116 1.188c-.472.28-1.004.42-1.596.42-.616 0-1.152-.144-1.608-.432-.456-.296-.788-.664-.996-1.104v4.536H.96v-9.648h.828v1.44zm4.872 1.824c0-.544-.108-1.012-.324-1.404a2.166 2.166 0 00-.864-.912 2.492 2.492 0 00-1.248-.312c-.448 0-.86.108-1.236.324-.368.216-.66.524-.876.924-.216.4-.324.864-.324 1.392 0 .528.108.992.324 1.392.216.4.508.708.876.924.376.216.788.324 1.236.324.464 0 .88-.104 1.248-.312.368-.216.656-.524.864-.924.216-.408.324-.88.324-1.416zm3.238-5.592V186h-.84v-8.88h.84zm1.518 5.592c0-.672.132-1.26.396-1.764a2.881 2.881 0 011.116-1.176c.48-.28 1.02-.42 1.62-.42.624 0 1.16.144 1.608.432.456.288.784.656.984 1.104v-1.44h.84V186h-.84v-1.452c-.208.448-.54.82-.996 1.116-.448.288-.984.432-1.608.432-.592 0-1.128-.14-1.608-.42a2.964 2.964 0 01-1.116-1.188c-.264-.512-.396-1.104-.396-1.776zm5.724.012c0-.528-.108-.992-.324-1.392a2.3 2.3 0 00-.888-.924 2.373 2.373 0 00-1.224-.324c-.464 0-.88.104-1.248.312-.368.208-.66.512-.876.912-.208.392-.312.86-.312 1.404 0 .536.104 1.008.312 1.416.216.4.508.708.876.924.368.208.784.312 1.248.312.448 0 .856-.108 1.224-.324a2.3 2.3 0 00.888-.924c.216-.4.324-.864.324-1.392zm3.85-2.568v4.068c0 .4.076.676.228.828.151.152.42.228.803.228h.768v.72h-.9c-.591 0-1.031-.136-1.32-.408-.287-.28-.431-.736-.431-1.368v-4.068h-.913v-.708h.912v-1.644h.852v1.644h1.8v.708h-1.8zm5.765 0H25.23V186h-.84v-5.844h-.912v-.708h.912v-.456c0-.712.18-1.236.54-1.572.368-.336.96-.504 1.776-.504v.72c-.544 0-.928.104-1.152.312-.216.208-.324.556-.324 1.044v.456h1.524v.708zm4.19 5.94a3.411 3.411 0 01-1.668-.408 3.1 3.1 0 01-1.164-1.176c-.28-.512-.42-1.108-.42-1.788 0-.68.144-1.272.432-1.776a2.97 2.97 0 011.176-1.176 3.333 3.333 0 011.668-.42c.616 0 1.172.14 1.668.42.504.272.896.664 1.176 1.176.288.504.432 1.096.432 1.776 0 .672-.144 1.264-.432 1.776a3.03 3.03 0 01-1.188 1.188 3.48 3.48 0 01-1.68.408zm0-.732c.432 0 .832-.096 1.2-.288.368-.2.664-.496.888-.888.232-.4.348-.888.348-1.464s-.112-1.06-.336-1.452c-.224-.4-.52-.696-.888-.888-.368-.2-.768-.3-1.2-.3-.432 0-.832.1-1.2.3a2.157 2.157 0 00-.888.888c-.216.392-.324.876-.324 1.452s.108 1.064.324 1.464c.224.392.516.688.876.888.368.192.768.288 1.2.288zm5.671-4.752c.184-.408.464-.724.84-.948.384-.224.852-.336 1.404-.336v.876h-.228c-.608 0-1.096.164-1.464.492-.368.328-.552.876-.552 1.644V186h-.84v-6.552h.84v1.164zm11.308-1.284c.768 0 1.392.244 1.872.732.488.48.732 1.18.732 2.1V186H49.7v-3.744c0-.712-.172-1.256-.516-1.632-.344-.376-.812-.564-1.404-.564-.616 0-1.108.204-1.476.612-.368.408-.552 1-.552 1.776V186h-.828v-3.744c0-.712-.172-1.256-.516-1.632-.344-.376-.816-.564-1.416-.564-.616 0-1.108.204-1.476.612-.368.408-.552 1-.552 1.776V186h-.84v-6.552h.84v1.128c.208-.408.504-.716.888-.924a2.573 2.573 0 011.284-.324c.568 0 1.064.136 1.488.408.432.272.744.672.936 1.2.176-.52.476-.916.9-1.188.432-.28.92-.42 1.464-.42z" fill="#fff"/><rect y="202" width="104" height="23" rx="11.5" fill="#14964F"/><path d="M11.822 210.05V217h3.49v-.92h-2.35v-6.03h-1.14zm9.694 4.19c0-1.73-1.24-2.84-2.81-2.84s-2.81 1.11-2.81 2.84c0 1.73 1.19 2.85 2.76 2.85 1.58 0 2.86-1.12 2.86-2.85zm-4.46 0c0-1.25.77-1.85 1.63-1.85.85 0 1.66.6 1.66 1.85s-.84 1.86-1.69 1.86c-.86 0-1.6-.61-1.6-1.86zm5.207-.02c0 1.7 1.15 2.87 2.6 2.87.9 0 1.56-.45 1.91-.92v.92c0 1.1-.66 1.64-1.54 1.64-.79 0-1.4-.39-1.57-.96h-1.13c.14 1.22 1.23 1.95 2.7 1.95 1.72 0 2.69-1.13 2.69-2.63v-5.6h-1.15v.8c-.34-.47-1.01-.89-1.91-.89-1.45 0-2.6 1.12-2.6 2.82zm4.51.02c0 1.19-.81 1.86-1.67 1.86-.85 0-1.67-.69-1.67-1.88s.82-1.83 1.67-1.83c.86 0 1.67.67 1.67 1.85zm5.245 2.76h1.14v-5.51h-1.14V217zm.58-6.24c.4 0 .72-.32.72-.73a.72.72 0 00-.72-.73c-.41 0-.73.32-.73.73s.32.73.73.73zm5.966 6.24h1.13v-3.25c0-1.54-.97-2.35-2.26-2.35-.66 0-1.27.27-1.64.72v-.63h-1.14V217h1.14v-3.08c0-1.01.55-1.53 1.39-1.53.83 0 1.38.52 1.38 1.53V217zm4.802-2.78c0 1.7 1.15 2.87 2.58 2.87.92 0 1.58-.44 1.93-.91v.82h1.15v-5.51h-1.15v.8c-.34-.45-.98-.89-1.91-.89-1.45 0-2.6 1.12-2.6 2.82zm4.51.02c0 1.19-.81 1.86-1.67 1.86-.85 0-1.67-.69-1.67-1.88s.82-1.83 1.67-1.83c.86 0 1.67.67 1.67 1.85zm6.557 2.76h1.13v-3.25c0-1.54-.97-2.35-2.26-2.35-.66 0-1.27.27-1.64.72v-.63h-1.14V217h1.14v-3.08c0-1.01.55-1.53 1.39-1.53.83 0 1.38.52 1.38 1.53V217zm2.205-2.78c0 1.7 1.15 2.87 2.6 2.87.9 0 1.56-.42 1.91-.92v.83h1.15v-7.4h-1.15v2.66c-.42-.52-1.18-.86-1.9-.86-1.46 0-2.61 1.12-2.61 2.82zm4.51.02c0 1.19-.81 1.86-1.67 1.86-.85 0-1.67-.69-1.67-1.88s.82-1.83 1.67-1.83c.86 0 1.67.67 1.67 1.85zm5.425 1.23c0 1.12.61 1.53 1.59 1.53h.9v-.95h-.7c-.48 0-.64-.17-.64-.58v-3.05h1.34v-.93h-1.34v-1.37h-1.15v1.37h-.65v.93h.65v3.05zm4.68-1.37c0-1.17.52-1.52 1.36-1.52h.29v-1.18c-.78 0-1.33.34-1.65.89v-.8h-1.14V217h1.14v-2.9zm2.318.12c0 1.7 1.15 2.87 2.58 2.87.92 0 1.58-.44 1.93-.91v.82h1.15v-5.51h-1.15v.8c-.34-.45-.98-.89-1.91-.89-1.45 0-2.6 1.12-2.6 2.82zm4.51.02c0 1.19-.81 1.86-1.67 1.86-.85 0-1.67-.69-1.67-1.88s.82-1.83 1.67-1.83c.86 0 1.67.67 1.67 1.85zm2.267-.02c0 1.7 1.15 2.87 2.6 2.87.9 0 1.56-.42 1.91-.92v.83h1.15v-7.4h-1.15v2.66c-.42-.52-1.18-.86-1.9-.86-1.46 0-2.61 1.12-2.61 2.82zm4.51.02c0 1.19-.81 1.86-1.67 1.86-.85 0-1.67-.69-1.67-1.88s.82-1.83 1.67-1.83c.86 0 1.67.67 1.67 1.85zm4.968-1.88c.85 0 1.52.54 1.54 1.39h-3.05c.12-.87.74-1.39 1.51-1.39zm2.58 3h-1.23c-.21.43-.6.77-1.3.77-.84 0-1.49-.55-1.57-1.46h4.21c.03-.19.04-.37.04-.56 0-1.62-1.11-2.71-2.68-2.71-1.63 0-2.75 1.11-2.75 2.84 0 1.73 1.17 2.85 2.75 2.85 1.35 0 2.22-.77 2.53-1.73z" fill="#fff"/></svg>