<svg width="540" height="71" viewBox="0 0 540 71" fill="none" xmlns="http://www.w3.org/2000/svg"><path d="M.64 9.864h6.912V29h3.68V9.864h6.912V6.6H.64v3.264zm26.594 2.752c-2.688 0-4 1.088-4.832 2.464l-.384-2.464h-3.072V29h3.456v-8.224c0-2.528.992-4.928 4.064-4.928h1.536v-3.232h-.768zm17.375 13.376c-.703 0-1.056-.224-1.056-1.056v-6.56c0-3.872-2.495-5.952-6.847-5.952-4.129 0-6.88 1.984-7.233 5.184h3.392c.256-1.44 1.633-2.4 3.68-2.4 2.273 0 3.584 1.12 3.584 2.944v.992h-4.127c-4.577 0-7.009 1.888-7.009 5.248 0 3.04 2.497 4.8 6.08 4.8 2.657 0 4.32-1.152 5.408-2.816 0 1.632.768 2.624 3.008 2.624h1.825v-3.008h-.705zm-4.48-3.712c-.032 2.528-1.695 4.224-4.575 4.224-1.889 0-3.04-.96-3.04-2.336 0-1.664 1.183-2.464 3.328-2.464h4.288v.576zm19.39-7.392c-1.056-1.44-2.816-2.464-5.312-2.464-4.448 0-7.744 3.328-7.744 8.384 0 5.248 3.296 8.384 7.744 8.384 2.592 0 4.288-1.216 5.344-2.656L59.967 29h3.008V6.6h-3.456v8.288zM54.783 26.28c-2.88 0-4.768-2.24-4.768-5.472 0-3.2 1.888-5.44 4.768-5.44s4.768 2.24 4.768 5.504c0 3.168-1.888 5.408-4.768 5.408zm19.345 2.912c4.064 0 6.816-2.464 7.392-5.696h-3.456c-.48 1.824-2.016 2.88-4.128 2.88-2.72 0-4.48-1.824-4.576-4.608v-.224h12.352c.064-.448.096-.896.096-1.312-.096-4.8-3.264-7.808-8-7.808-4.832 0-8.064 3.36-8.064 8.416 0 5.024 3.232 8.352 8.384 8.352zm-4.64-10.176c.256-2.336 2.144-3.808 4.352-3.808 2.4 0 4.096 1.376 4.384 3.808h-8.736zM97.206 29h4.224l6.048-16.384h-3.648l-4.448 12.672-4.512-12.672h-3.712L97.206 29zm19.015.192c4.992 0 8.352-3.36 8.352-8.384 0-4.992-3.36-8.384-8.352-8.384-4.992 0-8.352 3.392-8.352 8.384 0 5.024 3.36 8.384 8.352 8.384zm0-2.944c-2.912 0-4.8-2.272-4.8-5.44 0-3.168 1.888-5.44 4.8-5.44s4.832 2.272 4.832 5.44c0 3.168-1.92 5.44-4.832 5.44zM127.352 29h3.456V6.6h-3.456V29zm21.82-3.008c-.704 0-1.056-.224-1.056-1.056v-6.56c0-3.872-2.496-5.952-6.848-5.952-4.128 0-6.88 1.984-7.232 5.184h3.392c.256-1.44 1.632-2.4 3.68-2.4 2.272 0 3.584 1.12 3.584 2.944v.992h-4.128c-4.576 0-7.008 1.888-7.008 5.248 0 3.04 2.496 4.8 6.08 4.8 2.656 0 4.32-1.152 5.408-2.816 0 1.632.768 2.624 3.008 2.624h1.824v-3.008h-.704zm-4.48-3.712c-.032 2.528-1.696 4.224-4.576 4.224-1.888 0-3.04-.96-3.04-2.336 0-1.664 1.184-2.464 3.328-2.464h4.288v.576zm8.251 2.272c0 2.976 1.343 4.448 4.48 4.448h3.2v-3.04h-2.432c-1.312 0-1.76-.48-1.76-1.76v-8.544h4v-3.04h-4V8.04h-3.488v4.576h-2.848v3.04h2.848v8.896zm11.638-14.24c1.184 0 2.112-.864 2.112-2.08 0-1.216-.928-2.08-2.112-2.08-1.184 0-2.112.864-2.112 2.08 0 1.216.928 2.08 2.112 2.08zM162.821 29h3.456V12.616h-3.456V29zm6.844 0h3.456V6.6h-3.456V29zm8.604-18.688c1.184 0 2.112-.864 2.112-2.08 0-1.216-.928-2.08-2.112-2.08-1.184 0-2.112.864-2.112 2.08 0 1.216.928 2.08 2.112 2.08zM176.509 29h3.456V12.616h-3.456V29zm8.027-4.448c0 2.976 1.344 4.448 4.48 4.448h3.2v-3.04h-2.432c-1.312 0-1.76-.48-1.76-1.76v-8.544h4v-3.04h-4V8.04h-3.488v4.576h-2.848v3.04h2.848v8.896zm14.615 4.544l-.64 1.6c-.512 1.344-.832 1.664-2.176 1.664h-2.432v3.04h3.712c2.4 0 3.104-1.184 4.128-3.84l7.424-18.944h-3.68l-4.448 12.448-4.576-12.448h-3.68l6.368 16.48zm27.695.096c4.992 0 8.352-3.36 8.352-8.384 0-4.992-3.36-8.384-8.352-8.384-4.992 0-8.352 3.392-8.352 8.384 0 5.024 3.36 8.384 8.352 8.384zm0-2.944c-2.912 0-4.8-2.272-4.8-5.44 0-3.168 1.888-5.44 4.8-5.44s4.832 2.272 4.832 5.44c0 3.168-1.92 5.44-4.832 5.44zm19.771-13.824c-2.656 0-4.224 1.056-5.248 2.336l-.384-2.144h-3.008V29h3.456v-8.256c0-3.328 1.632-5.344 4.384-5.344 2.592 0 3.904 1.664 3.904 4.768V29h3.488v-9.12c0-5.472-2.976-7.456-6.592-7.456zm19.107 12.128c0 2.976 1.344 4.448 4.48 4.448h3.2v-3.04h-2.432c-1.312 0-1.76-.48-1.76-1.76v-8.544h4v-3.04h-4V8.04h-3.488v4.576h-2.848v3.04h2.848v8.896zm18.486-12.128c-2.56 0-4.128 1.152-5.152 2.56V6.6h-3.456V29h3.456v-8.288c0-3.296 1.664-5.312 4.384-5.312 2.56 0 3.936 1.664 3.936 4.768V29h3.456v-9.12c0-5.472-2.976-7.456-6.624-7.456zm17.418 16.768c4.064 0 6.816-2.464 7.392-5.696h-3.456c-.48 1.824-2.016 2.88-4.128 2.88-2.72 0-4.48-1.824-4.576-4.608v-.224h12.352c.064-.448.096-.896.096-1.312-.096-4.8-3.264-7.808-8-7.808-4.832 0-8.064 3.36-8.064 8.416 0 5.024 3.232 8.352 8.384 8.352zm-4.64-10.176c.256-2.336 2.144-3.808 4.352-3.808 2.4 0 4.096 1.376 4.384 3.808h-8.736zM4.064 64l2.08-5.536h9.184L17.44 64h3.936l-8.352-22.4H8.64L.256 64h3.808zm6.656-18.432l3.584 9.76H7.168l3.552-9.76zm23.27 10.24c0 3.392-1.6 5.376-4.224 5.376-2.527 0-3.807-1.632-3.807-4.832v-8.736h-3.456v9.12c0 5.6 2.976 7.456 6.463 7.456 2.528 0 4.032-1.024 5.056-2.272l.385 2.08h3.04V47.616H33.99v8.192zm6.158 2.784c.096 3.552 3.104 5.6 7.488 5.6 3.968 0 6.944-1.984 6.944-5.12 0-3.648-3.04-4.416-6.784-4.864-2.368-.256-3.936-.448-3.936-1.984 0-1.312 1.344-2.144 3.392-2.144s3.456 1.056 3.648 2.56h3.392c-.224-3.36-3.072-5.216-7.104-5.216-3.936-.032-6.72 1.984-6.72 5.088 0 3.392 2.944 4.192 6.688 4.64 2.528.32 4.032.448 4.032 2.208 0 1.312-1.408 2.144-3.552 2.144-2.496 0-3.968-1.216-4.096-2.912h-3.392zm18.294.96c0 2.976 1.344 4.448 4.48 4.448h3.2v-3.04h-2.431c-1.313 0-1.76-.48-1.76-1.76v-8.544h4v-3.04h-4V43.04h-3.488v4.576h-2.849v3.04h2.849v8.896zM76.61 47.616c-2.688 0-4 1.088-4.832 2.464l-.384-2.464h-3.072V64h3.456v-8.224c0-2.528.992-4.928 4.064-4.928h1.536v-3.232h-.768zm17.376 13.376c-.704 0-1.056-.224-1.056-1.056v-6.56c0-3.872-2.496-5.952-6.849-5.952-4.127 0-6.88 1.984-7.231 5.184h3.391c.257-1.44 1.633-2.4 3.68-2.4 2.272 0 3.584 1.12 3.584 2.944v.992h-4.128c-4.576 0-7.008 1.888-7.008 5.248 0 3.04 2.497 4.8 6.08 4.8 2.657 0 4.32-1.152 5.409-2.816 0 1.632.767 2.624 3.008 2.624h1.824v-3.008h-.704zm-4.48-3.712c-.032 2.528-1.697 4.224-4.576 4.224-1.889 0-3.04-.96-3.04-2.336 0-1.664 1.184-2.464 3.328-2.464h4.287v.576zM96.57 64h3.456V41.6h-3.456V64zm8.604-18.688c1.184 0 2.112-.864 2.112-2.08 0-1.216-.928-2.08-2.112-2.08-1.184 0-2.112.864-2.112 2.08 0 1.216.928 2.08 2.112 2.08zM103.415 64h3.456V47.616h-3.456V64zm21.82-3.008c-.704 0-1.056-.224-1.056-1.056v-6.56c0-3.872-2.496-5.952-6.848-5.952-4.128 0-6.88 1.984-7.232 5.184h3.392c.256-1.44 1.632-2.4 3.68-2.4 2.272 0 3.584 1.12 3.584 2.944v.992h-4.128c-4.576 0-7.009 1.888-7.009 5.248 0 3.04 2.497 4.8 6.081 4.8 2.656 0 4.32-1.152 5.408-2.816 0 1.632.768 2.624 3.008 2.624h1.824v-3.008h-.704zm-4.48-3.712c-.032 2.528-1.696 4.224-4.576 4.224-1.888 0-3.04-.96-3.04-2.336 0-1.664 1.184-2.464 3.328-2.464h4.288v.576zM135.017 64h15.872v-3.104h-10.848l5.952-4.96c2.72-2.272 4.736-4.352 4.736-7.68 0-4.096-2.816-6.848-7.84-6.848-4.768 0-7.84 3.104-7.84 7.36v.576h3.552v-.384c0-2.784 1.728-4.512 4.288-4.512 2.56 0 4.256 1.408 4.256 3.968 0 2.144-1.504 3.712-3.52 5.408l-8.608 7.328V64zm18.044-10.688c0 6.752 3.616 10.88 8.832 10.88 5.216 0 8.832-4.128 8.832-10.88v-1.024c0-6.496-3.616-10.88-8.832-10.88-5.216 0-8.832 4.384-8.832 10.88v1.024zm14.08-.128c0 5.024-2.112 7.904-5.248 7.904s-5.248-2.88-5.248-7.904v-.768c0-4.992 2.112-7.904 5.248-7.904s5.248 2.912 5.248 7.904v.768zm6.076.128c0 6.752 3.616 10.88 8.832 10.88 5.216 0 8.832-4.128 8.832-10.88v-1.024c0-6.496-3.616-10.88-8.832-10.88-5.216 0-8.832 4.384-8.832 10.88v1.024zm14.08-.128c0 5.024-2.112 7.904-5.248 7.904s-5.248-2.88-5.248-7.904v-.768c0-4.992 2.112-7.904 5.248-7.904s5.248 2.912 5.248 7.904v.768zm15.896 6.368c0 2.976 1.343 4.448 4.48 4.448h3.2v-3.04h-2.432c-1.312 0-1.76-.48-1.76-1.76v-8.544h4v-3.04h-4V43.04h-3.488v4.576h-2.848v3.04h2.848v8.896zm17.278 4.64c4.992 0 8.352-3.36 8.352-8.384 0-4.992-3.36-8.384-8.352-8.384-4.992 0-8.352 3.392-8.352 8.384 0 5.024 3.36 8.384 8.352 8.384zm0-2.944c-2.912 0-4.8-2.272-4.8-5.44 0-3.168 1.888-5.44 4.8-5.44s4.832 2.272 4.832 5.44c0 3.168-1.92 5.44-4.832 5.44zm23.579-11.36c-1.056-1.44-2.816-2.464-5.312-2.464-4.448 0-7.744 3.328-7.744 8.384 0 5.248 3.296 8.384 7.744 8.384 2.592 0 4.288-1.216 5.344-2.656l.416 2.464h3.008V41.6h-3.456v8.288zm-4.736 11.392c-2.88 0-4.768-2.24-4.768-5.472 0-3.2 1.888-5.44 4.768-5.44s4.768 2.24 4.768 5.504c0 3.168-1.888 5.408-4.768 5.408zm26.546-.288c-.704 0-1.056-.224-1.056-1.056v-6.56c0-3.872-2.496-5.952-6.848-5.952-4.128 0-6.88 1.984-7.232 5.184h3.392c.256-1.44 1.632-2.4 3.68-2.4 2.272 0 3.584 1.12 3.584 2.944v.992h-4.128c-4.576 0-7.009 1.888-7.009 5.248 0 3.04 2.497 4.8 6.081 4.8 2.656 0 4.32-1.152 5.408-2.816 0 1.632.768 2.624 3.008 2.624h1.824v-3.008h-.704zm-4.48-3.712c-.032 2.528-1.696 4.224-4.576 4.224-1.888 0-3.04-.96-3.04-2.336 0-1.664 1.184-2.464 3.328-2.464h4.288v.576zm11.115 6.816l-.64 1.6c-.512 1.344-.832 1.664-2.176 1.664h-2.432v3.04h3.712c2.4 0 3.103-1.184 4.128-3.84l7.423-18.944h-3.679l-4.448 12.448-4.576-12.448h-3.68l6.368 16.48z" fill="#000"/></svg>