<svg width="136" height="23" viewBox="0 0 136 23" fill="none" xmlns="http://www.w3.org/2000/svg"><path d="M11.444.482C5.12.482.005 5.473.005 11.642c0 6.138 5.115 11.13 11.439 11.13 3.875 0 7.285-1.86 9.331-4.744l-5.053-2.852a5.182 5.182 0 01-4.247 2.14c-3.162 0-5.363-2.543-5.363-5.674 0-3.162 2.201-5.704 5.363-5.704 1.798 0 3.286.837 4.247 2.14l5.053-2.853C18.729 2.342 15.319.482 11.444.482zm12.672.31v21.67h5.829v-6.604H33.416l4.215 6.603h6.727l-4.867-7.378c3.008-1.023 4.279-3.224 4.279-6.758 0-5.3-2.822-7.533-9.89-7.533h-9.765zm5.829 5.24h4.215c2.574 0 3.535.805 3.535 2.665 0 1.891-.962 2.666-3.535 2.666h-4.215V6.031zm29.502 8.99l8.65-14.26h-6.914l-4.619 8.09-4.588-8.09h-6.975l8.618 14.321v7.378h5.828v-7.44zM71.04.791v21.67h5.828v-6.17h3.72c6.448 0 9.517-2.387 9.517-7.688 0-5.3-2.914-7.812-9.579-7.812H71.04zm5.828 5.022h3.441c2.604 0 3.72.961 3.72 3.007 0 2.077-1.147 2.976-3.72 2.976h-3.44V5.814zm33.865-.062V.762H92.288v4.99h6.293v16.71h5.859V5.751h6.293zM123.49.482c-6.417 0-11.625 4.991-11.625 11.16 0 6.138 5.208 11.13 11.625 11.13s11.625-4.992 11.625-11.13c0-6.169-5.208-11.16-11.625-11.16zm0 5.456c3.255 0 5.549 2.542 5.549 5.704 0 3.131-2.294 5.673-5.549 5.673-3.255 0-5.518-2.542-5.518-5.673 0-3.162 2.263-5.704 5.518-5.704z" fill="#09B45B"/></svg>