<svg width="120" height="23" viewBox="0 0 120 23" fill="none" xmlns="http://www.w3.org/2000/svg"><path d="M.51.222v22.24h5.981v-6.777h3.564l4.327 6.776h6.904L16.29 14.89c3.086-1.05 4.39-3.308 4.39-6.935 0-5.44-2.895-7.732-10.15-7.732H.512zM6.491 5.6h4.327c2.641 0 3.627.827 3.627 2.736 0 1.941-.986 2.736-3.627 2.736H6.491V5.6zm23.8 16.862V.222h-5.982v22.24h5.982zM34.842.222v22.24h5.982V16.13h3.817c6.618 0 9.768-2.45 9.768-7.89 0-5.44-2.99-8.018-9.831-8.018h-9.736zm5.982 5.154h3.531c2.673 0 3.818.987 3.818 3.087 0 2.131-1.177 3.054-3.818 3.054h-3.531v-6.14zM58.144.222v22.24h5.982V16.13h3.818c6.617 0 9.767-2.45 9.767-7.89 0-5.44-2.99-8.018-9.83-8.018h-9.736zm5.982 5.154h3.531c2.673 0 3.818.987 3.818 3.087 0 2.131-1.177 3.054-3.818 3.054h-3.531v-6.14zm23.302 11.708V.191h-5.981v22.27H98.34v-5.377H87.428zm32.165-11.517V.191h-18.23v22.27h18.421v-5.377h-12.44v-3.34h11.39v-5.09h-11.39V5.566h12.249z" fill="#09B45B"/></svg>