<svg width="111" height="23" viewBox="0 0 111 23" fill="none" xmlns="http://www.w3.org/2000/svg"><path d="M18.339 5.567V.191H.109v22.27h18.42v-5.377H6.09v-3.34h11.39v-5.09H6.09V5.566h12.25zm21.015-.254V.19h-18.93v5.122h6.459V22.46h6.013V5.313h6.458zM63.425 22.46V.191h-6.013V8.59h-9.067V.19h-5.982v22.271h5.982v-8.494h9.067v8.494h6.013zm22.77-16.894V.191h-18.23v22.27h18.421v-5.377h-12.44v-3.34h11.39v-5.09h-11.39V5.566h12.25zm3.58-5.345v22.24h5.982v-6.777H99.32l4.327 6.776h6.904l-4.995-7.572c3.086-1.05 4.391-3.308 4.391-6.935 0-5.44-2.895-7.732-10.15-7.732H89.777zM95.758 5.6h4.327c2.641 0 3.627.827 3.627 2.736 0 1.941-.986 2.736-3.627 2.736h-4.327V5.6z" fill="#09B45B"/></svg>