<svg width="137" height="24" viewBox="0 0 137 24" fill="none" xmlns="http://www.w3.org/2000/svg"><path d="M.81 1.222v22.24h12.536c5.79 0 7.636-3.023 7.636-6.077 0-2.323-1.05-4.646-4.168-5.6 2.1-.859 3.277-2.513 3.277-4.931 0-3.723-2.705-5.663-7.286-5.663L.811 1.222zm5.982 8.972V6.09h4.263c1.782 0 2.768.7 2.768 2.068 0 1.336-1.018 2.036-2.768 2.036H6.792zm0 8.4V14.17h5.059c2.195 0 2.895 1.114 2.895 2.227 0 1.114-.7 2.196-2.896 2.196H6.793zm23.613 4.867V1.222h-5.981v22.24h5.98zM52.39 6.313V1.19h-18.93v5.122h6.458V23.46h6.014V6.313h6.458zM65.293.904c-6.49 0-11.74 5.122-11.74 11.454 0 6.3 5.25 11.421 11.74 11.421 3.977 0 7.476-1.908 9.576-4.867l-5.186-2.927a5.319 5.319 0 01-4.358 2.195c-3.246 0-5.505-2.609-5.505-5.822 0-3.245 2.26-5.854 5.505-5.854 1.845 0 3.372.859 4.358 2.195l5.186-2.927c-2.1-2.959-5.6-4.868-9.576-4.868zm23.928 0c-6.586 0-11.93 5.122-11.93 11.454 0 6.3 5.344 11.421 11.93 11.421 6.586 0 11.931-5.122 11.931-11.421 0-6.332-5.345-11.454-11.931-11.454zm0 5.6c3.34 0 5.695 2.609 5.695 5.854 0 3.213-2.354 5.822-5.695 5.822-3.34 0-5.663-2.609-5.663-5.822 0-3.245 2.322-5.854 5.663-5.854zm21.872 16.957V1.222h-5.981v22.24h5.981zm25.422 0V1.191h-5.885v12.44l-8.972-12.44h-6.204v22.27h5.885V11.053l8.972 12.408h6.204z" fill="#09B45B"/></svg>