<svg width="320" height="50" viewBox="0 0 320 50" fill="none" xmlns="http://www.w3.org/2000/svg"><path fill="url(#paint0_linear_14_841)" d="M0 0h320v50H0z"/><rect x="186" y="14" width="124" height="22" rx="11" fill="#14964F"/><path d="M199.133 28h1.08l-2.241-6.264h-1.188L194.543 28h1.071l.45-1.278h2.619l.45 1.278zm-.738-2.115h-2.043l1.026-2.907 1.017 2.907zM204.707 28h1.017v-2.925c0-1.386-.873-2.115-2.034-2.115-.594 0-1.143.243-1.476.648v-.567h-1.026V28h1.026v-2.772c0-.909.495-1.377 1.251-1.377.747 0 1.242.468 1.242 1.377V28zm9.354 0h1.017v-2.925c0-1.386-.882-2.115-2.043-2.115-.72 0-1.422.378-1.728.981-.342-.648-.999-.981-1.782-.981-.594 0-1.134.243-1.467.648v-.567h-1.026V28h1.026v-2.772c0-.909.495-1.377 1.251-1.377.747 0 1.242.468 1.242 1.377V28h1.017v-2.772c0-.909.495-1.377 1.251-1.377.747 0 1.242.468 1.242 1.377V28zm4.411-4.176c.765 0 1.368.486 1.386 1.251h-2.745c.108-.783.666-1.251 1.359-1.251zm2.322 2.7h-1.107c-.189.387-.54.693-1.17.693-.756 0-1.341-.495-1.413-1.314h3.789c.027-.171.036-.333.036-.504 0-1.458-.999-2.439-2.412-2.439-1.467 0-2.475.999-2.475 2.556s1.053 2.565 2.475 2.565c1.215 0 1.998-.693 2.277-1.557zM221.939 28h1.026v-6.66h-1.026V28zm2.031-2.502c0 1.53 1.035 2.583 2.34 2.583.81 0 1.404-.378 1.719-.828V28h1.035v-6.66h-1.035v2.394c-.378-.468-1.062-.774-1.71-.774-1.314 0-2.349 1.008-2.349 2.538zm4.059.018c0 1.071-.729 1.674-1.503 1.674-.765 0-1.503-.621-1.503-1.692s.738-1.647 1.503-1.647c.774 0 1.503.603 1.503 1.665zm4.47-1.692c.765 0 1.368.486 1.386 1.251h-2.745c.108-.783.666-1.251 1.359-1.251zm2.322 2.7h-1.107c-.189.387-.54.693-1.17.693-.756 0-1.341-.495-1.413-1.314h3.789c.027-.171.036-.333.036-.504 0-1.458-.999-2.439-2.412-2.439-1.467 0-2.475.999-2.475 2.556s1.053 2.565 2.475 2.565c1.215 0 1.998-.693 2.277-1.557zM239.485 28h1.017v-2.925c0-1.386-.873-2.115-2.034-2.115-.594 0-1.143.243-1.476.648v-.567h-1.026V28h1.026v-2.772c0-.909.495-1.377 1.251-1.377.747 0 1.242.468 1.242 1.377V28zm9.155-4.959h-1.026v2.763c0 .909-.495 1.377-1.251 1.377-.747 0-1.242-.468-1.242-1.377v-2.763h-1.017v2.916c0 1.386.882 2.115 2.043 2.115.585 0 1.143-.243 1.467-.666V28h1.026v-4.959zM253.512 28h1.017v-2.925c0-1.386-.873-2.115-2.034-2.115-.594 0-1.143.243-1.476.648v-.567h-1.026V28h1.026v-2.772c0-.909.495-1.377 1.251-1.377.747 0 1.242.468 1.242 1.377V28zm1.984-2.502c0 1.53 1.035 2.583 2.34 2.583.81 0 1.404-.378 1.719-.828V28h1.035v-6.66h-1.035v2.394c-.378-.468-1.062-.774-1.71-.774-1.314 0-2.349 1.008-2.349 2.538zm4.059.018c0 1.071-.729 1.674-1.503 1.674-.765 0-1.503-.621-1.503-1.692s.738-1.647 1.503-1.647c.774 0 1.503.603 1.503 1.665zm8.69 2.484h1.026v-6.255h-1.026v2.682h-2.943v-2.682h-1.026V28h1.026v-2.736h2.943V28zm2.034-2.502c0 1.53 1.035 2.583 2.322 2.583.828 0 1.422-.396 1.737-.819V28h1.035v-4.959h-1.035v.72c-.306-.405-.882-.801-1.719-.801-1.305 0-2.34 1.008-2.34 2.538zm4.059.018c0 1.071-.729 1.674-1.503 1.674-.765 0-1.503-.621-1.503-1.692s.738-1.647 1.503-1.647c.774 0 1.503.603 1.503 1.665zM280.24 28h1.017v-2.925c0-1.386-.873-2.115-2.034-2.115-.594 0-1.143.243-1.476.648v-.567h-1.026V28h1.026v-2.772c0-.909.495-1.377 1.251-1.377.747 0 1.242.468 1.242 1.377V28zm1.984-2.502c0 1.53 1.035 2.583 2.34 2.583.81 0 1.404-.378 1.719-.828V28h1.035v-6.66h-1.035v2.394c-.378-.468-1.062-.774-1.71-.774-1.314 0-2.349 1.008-2.349 2.538zm4.059.018c0 1.071-.729 1.674-1.503 1.674-.765 0-1.503-.621-1.503-1.692s.738-1.647 1.503-1.647c.774 0 1.503.603 1.503 1.665zm4.47-1.692c.765 0 1.368.486 1.386 1.251h-2.745c.108-.783.666-1.251 1.359-1.251zm2.322 2.7h-1.107c-.189.387-.54.693-1.17.693-.756 0-1.341-.495-1.413-1.314h3.789c.027-.171.036-.333.036-.504 0-1.458-.999-2.439-2.412-2.439-1.467 0-2.475.999-2.475 2.556s1.053 2.565 2.475 2.565c1.215 0 1.998-.693 2.277-1.557zM294.22 28h1.026v-6.66h-1.026V28zm5.892 0h1.017v-2.925c0-1.386-.873-2.115-2.034-2.115-.594 0-1.143.243-1.476.648v-.567h-1.026V28h1.026v-2.772c0-.909.495-1.377 1.251-1.377.747 0 1.242.468 1.242 1.377V28zM58 17.37h12.547v3.818h-8.193v2.66h7.405v3.622h-7.405v5.593H58V17.37z" fill="#fff"/><path fill-rule="evenodd" clip-rule="evenodd" d="M92.069 17.37h7.507c2.419 0 4.115.64 5.187 1.7.923.886 1.397 2.118 1.397 3.646v.049c0 2.39-1.297 3.991-3.267 4.828l3.791 5.47h-5.088l-3.193-4.755h-1.945v4.755h-4.414V17.37h.025zm7.307 7.538c1.496 0 2.369-.714 2.369-1.872v-.05c0-1.231-.898-1.872-2.394-1.872h-2.893v3.77h2.918v.024z" fill="#fff"/><path d="M108.219 17.37h12.62v3.695h-8.315v2.39h7.528v3.424h-7.528v2.488h8.414v3.696h-12.719V17.37zM127.752 25.08l-5.166-7.71h4.994l2.78 4.41 2.804-4.41h4.871l-5.141 7.661 5.387 8.032h-4.994l-3.001-4.73-3.026 4.73h-4.895l5.387-7.982zM142.537 25.622c0-1.798 1.378-3.3 3.346-3.3 1.279 0 2.14.566 2.682 1.404l-1.501 1.108c-.295-.419-.64-.665-1.156-.665-.714 0-1.23.616-1.23 1.38v.024c0 .813.516 1.43 1.254 1.43.517 0 .861-.247 1.206-.642l1.476 1.06c-.591.862-1.402 1.429-2.78 1.429-1.919.024-3.297-1.454-3.297-3.228" fill="#fff"/><path fill-rule="evenodd" clip-rule="evenodd" d="M149.931 25.622c0-1.798 1.471-3.3 3.516-3.3 2.021 0 3.492 1.477 3.492 3.251v.025c0 1.774-1.471 3.277-3.516 3.277-2.021 0-3.492-1.479-3.492-3.253m4.838 0c0-.788-.573-1.428-1.346-1.428-.798 0-1.322.64-1.322 1.38v.024c0 .764.573 1.404 1.346 1.404.824 0 1.322-.64 1.322-1.38" fill="#fff"/><path d="M158.126 22.444h2.189v.863c.394-.518.984-.986 1.87-.986.836 0 1.476.37 1.796 1.01.541-.616 1.181-1.01 2.091-1.01 1.328 0 2.14.838 2.14 2.291v4.115h-2.189v-3.425c0-.69-.345-1.035-.861-1.035-.517 0-.91.37-.91 1.035v3.4h-2.165v-3.4c0-.69-.345-1.035-.861-1.035-.517 0-.886.37-.886 1.035v3.4h-2.19v-6.258h-.024z" fill="#fff"/><path fill-rule="evenodd" clip-rule="evenodd" d="M88.253 25.18c0-.159-.003-.315-.01-.469h1.88l.5-1.429H88.09C87.396 19.373 84.489 17 80.097 17c-4.938 0-8.13 3.252-8.13 8.278 0 5.075 3.092 8.203 8.13 8.179 4.106 0 7.02-2.233 7.887-5.888h1.715l.524-1.429h-2.011c.026-.313.04-.633.04-.96zm-8.056 6.01c-2.544 0-3.542-2.66-3.542-5.962 0-3.3.799-5.937 3.367-5.962 2.021 0 3.066 1.665 3.41 4.016h-2.188l-.498 1.429h2.809a18.332 18.332 0 01-.013 1.429h-2.697l-.523 1.429h3.076c-.346 2.141-1.276 3.621-3.201 3.621z" fill="#14964F"/><path d="M139.487 27.544c0-.32.123-.567.345-.813.221-.222.492-.345.812-.345.319 0 .59.123.811.345.222.222.345.493.345.813 0 .32-.123.591-.345.813-.221.222-.492.32-.811.32-.32 0-.591-.098-.812-.32-.246-.197-.345-.468-.345-.813" fill="#fff"/><defs><linearGradient id="paint0_linear_14_841" x1="130" y1="36" x2="358" y2="36" gradientUnits="userSpaceOnUse"><stop stop-color="#12225C"/><stop offset="1" stop-color="#0954B5"/></linearGradient></defs></svg>