<svg width="94" height="17" viewBox="0 0 94 17" fill="none" xmlns="http://www.w3.org/2000/svg"><rect width="94" height="17" rx="8.5" fill="#14964F"/><path d="M8.993 11h.84L8.09 6.128h-.924L5.423 11h.833l.35-.994h2.037l.35.994zm-.574-1.645h-1.59l.799-2.261.79 2.261zM13.327 11h.791V8.725c0-1.078-.679-1.645-1.582-1.645-.462 0-.889.189-1.148.504v-.441h-.798V11h.798V8.844c0-.707.385-1.071.973-1.071.581 0 .966.364.966 1.071V11zm7.276 0h.791V8.725c0-1.078-.686-1.645-1.589-1.645-.56 0-1.106.294-1.344.763-.266-.504-.777-.763-1.386-.763-.462 0-.882.189-1.14.504v-.441h-.799V11h.798V8.844c0-.707.385-1.071.973-1.071.581 0 .966.364.966 1.071V11h.791V8.844c0-.707.385-1.071.973-1.071.581 0 .966.364.966 1.071V11zm3.43-3.248c.596 0 1.065.378 1.079.973h-2.135c.084-.609.518-.973 1.057-.973zm1.807 2.1h-.861c-.147.301-.42.539-.91.539-.588 0-1.043-.385-1.1-1.022h2.948c.02-.133.028-.259.028-.392 0-1.134-.777-1.897-1.876-1.897-1.141 0-1.925.777-1.925 1.988 0 1.211.819 1.995 1.925 1.995.945 0 1.554-.539 1.77-1.211zM26.73 11h.798V5.82h-.798V11zm1.58-1.946c0 1.19.805 2.009 1.82 2.009.63 0 1.092-.294 1.337-.644V11h.805V5.82h-.805v1.862c-.294-.364-.826-.602-1.33-.602-1.022 0-1.827.784-1.827 1.974zm3.157.014c0 .833-.567 1.302-1.17 1.302-.594 0-1.168-.483-1.168-1.316 0-.833.574-1.281 1.169-1.281.602 0 1.169.469 1.169 1.295zm3.477-1.316c.595 0 1.064.378 1.078.973h-2.135c.084-.609.518-.973 1.057-.973zm1.806 2.1h-.861c-.147.301-.42.539-.91.539-.588 0-1.043-.385-1.1-1.022h2.948c.02-.133.028-.259.028-.392 0-1.134-.777-1.897-1.876-1.897-1.141 0-1.925.777-1.925 1.988 0 1.211.819 1.995 1.925 1.995.945 0 1.554-.539 1.77-1.211zM40.377 11h.791V8.725c0-1.078-.679-1.645-1.582-1.645-.462 0-.889.189-1.148.504v-.441h-.798V11h.798V8.844c0-.707.385-1.071.973-1.071.581 0 .966.364.966 1.071V11zm7.12-3.857H46.7v2.149c0 .707-.386 1.071-.974 1.071-.58 0-.965-.364-.965-1.071V7.143h-.792v2.268c0 1.078.687 1.645 1.59 1.645.455 0 .889-.189 1.14-.518V11h.799V7.143zM51.288 11h.791V8.725c0-1.078-.679-1.645-1.582-1.645-.462 0-.889.189-1.148.504v-.441h-.798V11h.798V8.844c0-.707.385-1.071.973-1.071.581 0 .966.364.966 1.071V11zm1.543-1.946c0 1.19.805 2.009 1.82 2.009.63 0 1.092-.294 1.337-.644V11h.805V5.82h-.805v1.862c-.294-.364-.826-.602-1.33-.602-1.022 0-1.827.784-1.827 1.974zm3.157.014c0 .833-.567 1.302-1.169 1.302-.595 0-1.169-.483-1.169-1.316 0-.833.574-1.281 1.17-1.281.601 0 1.168.469 1.168 1.295zM62.746 11h.798V6.135h-.798v2.086h-2.29V6.135h-.797V11h.798V8.872h2.289V11zm1.582-1.946c0 1.19.805 2.009 1.806 2.009.644 0 1.106-.308 1.351-.637V11h.805V7.143h-.805v.56c-.238-.315-.686-.623-1.337-.623-1.015 0-1.82.784-1.82 1.974zm3.157.014c0 .833-.567 1.302-1.169 1.302-.595 0-1.169-.483-1.169-1.316 0-.833.574-1.281 1.17-1.281.601 0 1.168.469 1.168 1.295zM72.075 11h.791V8.725c0-1.078-.678-1.645-1.582-1.645-.462 0-.889.189-1.148.504v-.441h-.797V11h.797V8.844c0-.707.386-1.071.974-1.071.58 0 .966.364.966 1.071V11zm1.543-1.946c0 1.19.805 2.009 1.82 2.009.63 0 1.092-.294 1.337-.644V11h.805V5.82h-.805v1.862c-.294-.364-.826-.602-1.33-.602-1.022 0-1.827.784-1.827 1.974zm3.157.014c0 .833-.567 1.302-1.169 1.302-.595 0-1.169-.483-1.169-1.316 0-.833.574-1.281 1.17-1.281.601 0 1.168.469 1.168 1.295zm3.477-1.316c.596 0 1.065.378 1.079.973h-2.136c.085-.609.519-.973 1.058-.973zm1.806 2.1h-.86c-.147.301-.42.539-.91.539-.588 0-1.043-.385-1.1-1.022h2.947c.021-.133.028-.259.028-.392 0-1.134-.776-1.897-1.876-1.897-1.14 0-1.925.777-1.925 1.988 0 1.211.82 1.995 1.925 1.995.945 0 1.554-.539 1.771-1.211zm.89 1.148h.799V5.82h-.798V11zm4.584 0h.79V8.725c0-1.078-.678-1.645-1.582-1.645-.462 0-.888.189-1.147.504v-.441h-.799V11h.799V8.844c0-.707.385-1.071.972-1.071.582 0 .966.364.966 1.071V11z" fill="#fff"/></svg>