<svg width="77" height="50" viewBox="0 0 77 50" fill="none" xmlns="http://www.w3.org/2000/svg"><path fill="#fff" d="M0 0h77v50H0z"/><path d="M5.314 5.445v.39L4.191 9H3.47l1.128-2.986H3.166v-.569h2.148zm1.963-.007V9h-.683V6.278l-.679.261v-.571l1.29-.53h.072zM8.37 8.651c0-.108.035-.197.107-.269a.388.388 0 01.29-.11c.123 0 .22.037.291.11a.364.364 0 01.108.269.364.364 0 01-.108.268.393.393 0 01-.29.108.393.393 0 01-.29-.108.364.364 0 01-.108-.268zM11.3 5.406h.09v.581h-.032a.953.953 0 00-.405.08.74.74 0 00-.286.23c-.074.1-.13.22-.168.362-.037.14-.056.297-.056.47v.599c0 .124.008.233.024.327a.883.883 0 00.076.237.407.407 0 00.117.14.26.26 0 00.3-.003.413.413 0 00.118-.135.724.724 0 00.073-.205c.018-.078.027-.163.027-.256 0-.094-.01-.18-.027-.259a.742.742 0 00-.076-.202.373.373 0 00-.12-.135.258.258 0 00-.153-.049.314.314 0 00-.213.076.465.465 0 00-.134.19.71.71 0 00-.051.242L10.2 7.55c.006-.124.029-.24.068-.35.04-.11.096-.21.166-.297a.744.744 0 01.252-.205.708.708 0 01.33-.076c.14 0 .264.032.37.095.106.064.194.15.264.262.072.11.124.239.159.385.035.145.053.3.053.464 0 .173-.024.333-.073.481a1.216 1.216 0 01-.207.388.939.939 0 01-.757.352.945.945 0 01-.442-.103 1.004 1.004 0 01-.337-.29 1.4 1.4 0 01-.212-.45 2.094 2.094 0 01-.074-.57v-.277c0-.286.034-.548.1-.786.067-.239.166-.446.296-.62.132-.174.293-.308.483-.403a1.46 1.46 0 01.662-.144zm2.134.91V6.13c0-.135.024-.258.073-.369.05-.11.124-.2.222-.266.1-.067.222-.1.369-.1a.595.595 0 01.59.366c.05.11.074.234.074.369v.188a.892.892 0 01-.073.364.612.612 0 01-.223.266.634.634 0 01-.366.1.646.646 0 01-.369-.1.628.628 0 01-.224-.266.892.892 0 01-.073-.364zm.446-.187v.188c0 .055.008.108.025.159.016.048.04.088.073.12.033.029.073.043.122.043a.167.167 0 00.12-.044.28.28 0 00.068-.12.516.516 0 00.024-.158v-.188a.51.51 0 00-.024-.161.251.251 0 00-.07-.12.17.17 0 00-.123-.046.17.17 0 00-.122.046.28.28 0 00-.07.12.56.56 0 00-.023.16zm.957 2.19v-.19c0-.134.026-.256.076-.367.05-.11.125-.2.222-.266.1-.067.222-.1.366-.1.15 0 .274.033.371.1.098.067.171.156.22.266.05.11.076.233.076.366v.19a.898.898 0 01-.073.367.614.614 0 01-.223.264.634.634 0 01-.366.1.658.658 0 01-.37-.1.628.628 0 01-.225-.266.892.892 0 01-.074-.364zm.447-.19v.187c0 .057.01.111.03.162.019.048.045.088.078.12.034.028.072.043.114.043.059 0 .104-.015.135-.044.03-.03.05-.07.06-.12a.73.73 0 00.018-.16V8.13a.506.506 0 00-.025-.161.25.25 0 00-.07-.12.162.162 0 00-.12-.046.173.173 0 00-.125.046.267.267 0 00-.073.12.552.552 0 00-.022.158zm.398-2.173l-1.457 2.778-.328-.186 1.458-2.778.327.186zm3.391 2.46V5.25h.686V9l-.62.002-.066-.586zm-1.37-.644v-.176c0-.215.018-.403.054-.564.038-.16.093-.295.166-.403a.697.697 0 01.269-.239.813.813 0 01.368-.08c.126 0 .236.031.33.095a.773.773 0 01.244.261c.067.112.12.245.161.398.041.153.07.32.086.503v.254c-.02.172-.05.333-.09.483-.04.15-.093.28-.162.39a.816.816 0 01-.241.262.588.588 0 01-.33.093.794.794 0 01-.369-.083.737.737 0 01-.268-.244 1.25 1.25 0 01-.164-.4 2.523 2.523 0 01-.053-.55zm.684-.176v.176c0 .124.006.23.017.32.013.088.034.16.061.217.03.055.068.097.115.125a.36.36 0 00.176.039.345.345 0 00.222-.069.418.418 0 00.127-.193.944.944 0 00.049-.285v-.462a1.172 1.172 0 00-.032-.241.609.609 0 00-.076-.183.35.35 0 00-.122-.118.322.322 0 00-.166-.041.351.351 0 00-.175.041.286.286 0 00-.113.13.81.81 0 00-.063.222c-.013.09-.02.197-.02.322zM21.34 9.05a1.3 1.3 0 01-.481-.083.951.951 0 01-.352-.24 1.072 1.072 0 01-.22-.383c-.05-.15-.075-.32-.075-.512v-.218c0-.215.024-.403.073-.564.049-.162.118-.3.208-.41a.82.82 0 01.33-.246c.131-.056.28-.083.446-.083.166 0 .312.027.437.083a.762.762 0 01.315.244c.083.107.146.24.188.4.042.16.064.345.064.557v.312h-1.77v-.48H21.6v-.062a.898.898 0 00-.034-.268.309.309 0 00-.108-.164.323.323 0 00-.195-.054.338.338 0 00-.173.042.286.286 0 00-.113.13.8.8 0 00-.06.229c-.014.093-.02.204-.02.334v.218c0 .122.01.224.032.307a.543.543 0 00.093.2c.042.05.093.087.153.11a.797.797 0 00.535-.032.749.749 0 00.249-.178l.273.415a1.066 1.066 0 01-.493.337 1.25 1.25 0 01-.4.059zm2.012-2.102V9h-.684V6.358h.645l.039.589zm.622-.608l-.01.681a.47.47 0 00-.42.017.326.326 0 00-.134.105.488.488 0 00-.078.171 1.076 1.076 0 00-.032.232l-.13-.049c0-.172.014-.33.04-.474.028-.144.068-.27.122-.376a.715.715 0 01.193-.249.415.415 0 01.259-.087c.032 0 .066.003.102.01a.396.396 0 01.088.019zm2.251-.894V9h-.715V5.445h.715zm1.765 0L26.838 7.21l-.706.88-.136-.716.456-.762.67-1.167h.868zM27.165 9l-.776-1.633.525-.464L28.007 9h-.842zm1.797-3.75V9h-.686V5.25h.686zm1.606 3.799c-.18 0-.34-.028-.48-.083a.952.952 0 01-.352-.24 1.072 1.072 0 01-.22-.383c-.05-.15-.076-.32-.076-.512v-.218c0-.215.025-.403.074-.564.049-.162.118-.3.207-.41a.82.82 0 01.33-.246c.132-.056.28-.083.447-.083.166 0 .311.027.437.083a.762.762 0 01.315.244c.082.107.145.24.188.4.042.16.063.345.063.557v.312h-1.77v-.48h1.099v-.062a.898.898 0 00-.035-.268.309.309 0 00-.107-.164.323.323 0 00-.195-.054.338.338 0 00-.174.042.286.286 0 00-.112.13.803.803 0 00-.061.229c-.013.093-.02.204-.02.334v.218c0 .122.011.224.032.307a.544.544 0 00.093.2c.042.05.094.087.154.11a.798.798 0 00.535-.032.75.75 0 00.249-.178l.273.415a1.066 1.066 0 01-.493.337 1.25 1.25 0 01-.4.059zm2.046-2.69V9h-.686V6.358h.686zm-.717-.684c0-.106.033-.193.1-.261a.365.365 0 01.273-.105.36.36 0 01.273.105c.067.068.1.155.1.26a.359.359 0 01-.102.262.358.358 0 01-.268.103.373.373 0 01-.276-.103.364.364 0 01-.1-.261zm1.93 1.247V9h-.685V6.358h.642l.044.564zm-.102.667l-.183.005a2.015 2.015 0 01.056-.535c.043-.158.102-.292.178-.403a.815.815 0 01.279-.256.74.74 0 01.364-.09c.102 0 .196.017.28.053a.55.55 0 01.222.171c.062.078.11.182.144.313.035.128.052.286.052.473V9h-.686V7.315a.794.794 0 00-.034-.263.228.228 0 00-.103-.132.34.34 0 00-.171-.04.283.283 0 00-.173.057.425.425 0 00-.127.149.884.884 0 00-.076.225 1.379 1.379 0 00-.022.278zm3.057.803v-1.22c0-.08-.01-.144-.03-.191a.19.19 0 00-.083-.103.24.24 0 00-.131-.034.272.272 0 00-.147.037.225.225 0 00-.088.105.447.447 0 00-.027.163h-.686a.8.8 0 01.26-.59.937.937 0 01.307-.184c.119-.043.252-.065.4-.065.176 0 .332.03.469.09a.698.698 0 01.325.28c.08.13.12.296.12.501v1.177c0 .148.007.268.021.361a.97.97 0 00.071.24V9h-.689a1.147 1.147 0 01-.07-.273 2.555 2.555 0 01-.022-.335zm.083-1.006l.002.41h-.251a.427.427 0 00-.171.032.37.37 0 00-.193.222.573.573 0 00.005.323.207.207 0 00.207.134c.075 0 .14-.016.196-.047a.316.316 0 00.122-.112c.027-.044.036-.084.027-.122l.156.266c-.02.06-.047.123-.08.188a.798.798 0 01-.125.18.604.604 0 01-.188.138.613.613 0 01-.262.05.785.785 0 01-.388-.097.725.725 0 01-.278-.273.83.83 0 01-.1-.418c0-.133.021-.254.063-.361a.713.713 0 01.196-.276.874.874 0 01.327-.176c.132-.04.286-.06.464-.06h.27zm1.782-.464V9h-.686V6.358h.642l.044.564zm-.103.667l-.183.005a2.015 2.015 0 01.056-.535 1.29 1.29 0 01.179-.403.815.815 0 01.278-.256.74.74 0 01.364-.09c.102 0 .196.017.28.053a.55.55 0 01.223.171c.062.078.11.182.144.313.034.128.051.286.051.473V9h-.686V7.315a.794.794 0 00-.034-.263.228.228 0 00-.103-.132.34.34 0 00-.17-.04.284.284 0 00-.174.057.426.426 0 00-.127.149.884.884 0 00-.076.225 1.379 1.379 0 00-.022.278zm2.61-2.339V9h-.686V5.25h.686zm1.607 3.799a1.3 1.3 0 01-.481-.083.951.951 0 01-.352-.24 1.072 1.072 0 01-.22-.383c-.05-.15-.075-.32-.075-.512v-.218c0-.215.024-.403.073-.564.049-.162.118-.3.208-.41a.82.82 0 01.33-.246c.131-.056.28-.083.446-.083.166 0 .312.027.437.083a.762.762 0 01.315.244c.083.107.146.24.188.4.042.16.063.345.063.557v.312h-1.77v-.48h1.099v-.062a.898.898 0 00-.034-.268.309.309 0 00-.108-.164.323.323 0 00-.195-.054.338.338 0 00-.173.042.286.286 0 00-.113.13.8.8 0 00-.06.229c-.014.093-.02.204-.02.334v.218c0 .122.01.224.032.307a.543.543 0 00.092.2c.043.05.094.087.154.11a.797.797 0 00.535-.032.749.749 0 00.249-.178l.273.415a1.066 1.066 0 01-.493.337 1.25 1.25 0 01-.4.059zm2.717-2.69h.62V9c0 .24-.046.438-.139.59a.81.81 0 01-.383.34 1.382 1.382 0 01-1.15-.03.788.788 0 01-.237-.165l.232-.474a.785.785 0 00.249.161.742.742 0 00.303.069.545.545 0 00.239-.047.29.29 0 00.146-.151.676.676 0 00.052-.288V6.97l.068-.613zm-1.475 1.413v-.176c0-.215.02-.403.062-.564.04-.16.099-.295.175-.403a.717.717 0 01.281-.239.86.86 0 01.376-.08c.145 0 .266.031.364.095a.684.684 0 01.237.261c.061.112.109.245.141.398.034.153.06.32.078.503v.254a3.038 3.038 0 01-.088.483c-.039.15-.09.28-.156.39a.791.791 0 01-.24.262.61.61 0 01-.34.093.818.818 0 01-.372-.083.785.785 0 01-.28-.244 1.22 1.22 0 01-.176-.4 2.231 2.231 0 01-.062-.55zm.687-.176v.176c0 .124.007.23.021.32.017.088.041.16.074.217a.326.326 0 00.124.125c.052.026.113.039.183.039.1 0 .178-.023.237-.069a.402.402 0 00.132-.193.944.944 0 00.049-.285v-.462a.988.988 0 00-.032-.241.606.606 0 00-.076-.183.337.337 0 00-.127-.118.365.365 0 00-.178-.041.37.37 0 00-.18.041.334.334 0 00-.127.13.735.735 0 00-.076.222c-.016.09-.024.197-.024.322zm2.983 1.453c-.18 0-.341-.028-.481-.083a.951.951 0 01-.352-.24 1.072 1.072 0 01-.22-.383c-.05-.15-.075-.32-.075-.512v-.218c0-.215.024-.403.073-.564.049-.162.118-.3.208-.41a.82.82 0 01.33-.246c.131-.056.28-.083.446-.083.166 0 .312.027.437.083a.762.762 0 01.315.244c.083.107.146.24.188.4.042.16.063.345.063.557v.312h-1.77v-.48h1.1v-.062a.898.898 0 00-.035-.268.309.309 0 00-.108-.164.323.323 0 00-.195-.054.338.338 0 00-.173.042.286.286 0 00-.112.13.803.803 0 00-.061.229c-.014.093-.02.204-.02.334v.218c0 .122.01.224.032.307a.544.544 0 00.093.2c.042.05.093.087.153.11a.797.797 0 00.535-.032.749.749 0 00.249-.178l.273.415a1.066 1.066 0 01-.493.337c-.115.04-.249.059-.4.059zm2.012-2.102V9H49V6.358h.645l.039.589zm.622-.608l-.01.681a.47.47 0 00-.42.017.326.326 0 00-.134.105.488.488 0 00-.078.171 1.082 1.082 0 00-.032.232l-.13-.049c0-.172.014-.33.04-.474.028-.144.068-.27.122-.376a.716.716 0 01.193-.249.415.415 0 01.259-.087c.032 0 .066.003.102.01a.396.396 0 01.088.019zm1.033-1.091V9h-.684V5.248h.684zm1.389 1.11l-.93 1.314-.56.627-.241-.52.43-.627.486-.794h.815zM52.016 9l-.576-1.213.471-.435L52.8 9h-.784zm.955-1.23V7.59c0-.206.024-.39.073-.549.05-.16.122-.293.215-.4a.892.892 0 01.334-.247c.132-.057.28-.085.442-.085.165 0 .312.028.442.085a.888.888 0 01.337.247 1.1 1.1 0 01.217.4c.05.16.076.343.076.55v.178c0 .205-.025.387-.076.546-.05.16-.123.294-.217.403a.892.892 0 01-.334.247c-.13.055-.277.083-.44.083-.163 0-.31-.028-.442-.083a.913.913 0 01-.337-.247 1.126 1.126 0 01-.217-.403 1.87 1.87 0 01-.073-.546zm.683-.179v.179c0 .122.008.227.025.317.018.09.043.163.075.222a.349.349 0 00.123.13.317.317 0 00.163.041.331.331 0 00.166-.042.309.309 0 00.12-.129.689.689 0 00.07-.222c.017-.09.025-.195.025-.317V7.59c0-.119-.01-.223-.027-.312a.738.738 0 00-.076-.222.344.344 0 00-.122-.132.287.287 0 00-.16-.047.287.287 0 00-.162.047.38.38 0 00-.12.132.735.735 0 00-.075.222c-.017.09-.025.193-.025.312zm2.556-.669V9h-.686V6.358h.642l.044.564zm-.102.667l-.183.005a2.01 2.01 0 01.056-.535 1.29 1.29 0 01.178-.403.815.815 0 01.279-.256.74.74 0 01.363-.09c.103 0 .196.017.281.053a.55.55 0 01.222.171c.062.078.11.182.144.313.034.128.051.286.051.473V9h-.686V7.315a.794.794 0 00-.034-.263.229.229 0 00-.102-.132.34.34 0 00-.171-.04.284.284 0 00-.173.057.425.425 0 00-.127.149.884.884 0 00-.076.225 1.379 1.379 0 00-.022.278zm3.044-1.23v.515h-1.347v-.516h1.347zm-1.037-.652h.68v2.487a.5.5 0 00.023.169.15.15 0 00.066.083c.03.014.071.022.122.022a.468.468 0 00.161-.02v.535a.944.944 0 01-.38.066.767.767 0 01-.357-.078.532.532 0 01-.232-.25 1.057 1.057 0 01-.083-.453V5.707zm2.483 3.342c-.181 0-.341-.028-.481-.083a.952.952 0 01-.352-.24 1.072 1.072 0 01-.22-.383c-.05-.15-.075-.32-.075-.512v-.218c0-.215.024-.403.073-.564.049-.162.118-.3.208-.41a.82.82 0 01.33-.246c.13-.056.28-.083.446-.083.166 0 .312.027.437.083a.762.762 0 01.315.244c.083.107.145.24.188.4.042.16.063.345.063.557v.312h-1.77v-.48h1.099v-.062a.898.898 0 00-.034-.268.309.309 0 00-.108-.164.323.323 0 00-.195-.054.338.338 0 00-.173.042.286.286 0 00-.113.13.803.803 0 00-.06.229c-.014.093-.02.204-.02.334v.218c0 .122.01.224.032.307a.544.544 0 00.092.2c.043.05.094.087.154.11a.798.798 0 00.535-.032.75.75 0 00.249-.178l.273.415a1.066 1.066 0 01-.493.337c-.115.04-.249.059-.4.059zm2-2.127V9h-.687V6.358h.642l.044.564zm-.103.667l-.183.005a2.015 2.015 0 01.056-.535 1.29 1.29 0 01.178-.403.815.815 0 01.278-.256.74.74 0 01.364-.09c.102 0 .196.017.28.053a.55.55 0 01.223.171c.062.078.11.182.144.313.034.128.051.286.051.473V9H63.2V7.315a.794.794 0 00-.034-.263.229.229 0 00-.102-.132.34.34 0 00-.171-.04.284.284 0 00-.174.057.426.426 0 00-.127.149.884.884 0 00-.075.225 1.379 1.379 0 00-.022.278zM4.033 14.473l.425-2.115h.712L4.445 15h-.427l.015-.527zm-.252-2.115l.432 2.117.008.525h-.43l-.725-2.642h.715zm2.75 2.69a1.3 1.3 0 01-.482-.082.951.951 0 01-.351-.24 1.071 1.071 0 01-.22-.383c-.05-.15-.076-.32-.076-.512v-.218c0-.215.025-.403.074-.564.048-.162.118-.3.207-.41a.82.82 0 01.33-.246c.132-.056.28-.083.446-.083.166 0 .312.027.437.083a.763.763 0 01.315.244c.083.107.146.24.188.4.043.16.064.345.064.557v.312h-1.77v-.48h1.099v-.062a.898.898 0 00-.035-.268.309.309 0 00-.107-.164.323.323 0 00-.195-.054.338.338 0 00-.174.042.285.285 0 00-.112.13.802.802 0 00-.061.229c-.013.093-.02.204-.02.334v.218c0 .122.011.224.032.307a.544.544 0 00.093.2c.042.05.093.088.154.11a.798.798 0 00.535-.032.747.747 0 00.248-.178l.274.415a1.066 1.066 0 01-.493.337c-.116.04-.25.059-.4.059zm2.011-2.101V15h-.684v-2.642h.645l.039.589zm.623-.608l-.01.681a.47.47 0 00-.42.017.326.326 0 00-.134.105.488.488 0 00-.079.171 1.079 1.079 0 00-.031.232l-.13-.049c0-.172.013-.33.04-.473.027-.145.068-.27.121-.377a.716.716 0 01.193-.248.415.415 0 01.26-.088c.032 0 .066.003.102.01a.395.395 0 01.088.019zm1.066-1.089V15h-.686v-3.75h.686zm1.26 1.108V15h-.686v-2.642h.686zm-.718-.683c0-.106.034-.193.1-.261a.365.365 0 01.274-.105.36.36 0 01.273.105c.067.068.1.155.1.26a.36.36 0 01-.102.262.358.358 0 01-.269.103.373.373 0 01-.275-.103.364.364 0 01-.1-.261zm2.325 3.374a1.3 1.3 0 01-.481-.083.952.952 0 01-.352-.24 1.072 1.072 0 01-.22-.383c-.05-.15-.075-.32-.075-.512v-.218c0-.215.024-.403.073-.564.049-.162.118-.3.208-.41a.82.82 0 01.33-.246c.13-.056.28-.083.446-.083.166 0 .312.027.437.083a.763.763 0 01.315.244c.083.107.146.24.188.4.042.16.063.345.063.557v.312h-1.77v-.48h1.099v-.062a.898.898 0 00-.034-.268.309.309 0 00-.108-.164.323.323 0 00-.195-.054.338.338 0 00-.173.042.286.286 0 00-.113.13.803.803 0 00-.06.229c-.014.093-.02.204-.02.334v.218c0 .122.01.224.031.307a.544.544 0 00.093.2c.043.05.094.088.154.11a.798.798 0 00.535-.032.748.748 0 00.249-.178l.273.415a1.065 1.065 0 01-.493.337c-.115.04-.249.059-.4.059zm2.011-2.102V15h-.683v-2.642h.644l.04.589zm.623-.608l-.01.681a.471.471 0 00-.42.017.326.326 0 00-.134.105.487.487 0 00-.078.171 1.082 1.082 0 00-.032.232l-.13-.049c0-.172.014-.33.04-.473.027-.145.068-.27.122-.377a.716.716 0 01.193-.248.415.415 0 01.258-.088c.033 0 .067.003.103.01a.393.393 0 01.088.019zm1.365 2.71a1.3 1.3 0 01-.481-.083.951.951 0 01-.352-.24 1.07 1.07 0 01-.22-.383c-.05-.15-.075-.32-.075-.512v-.218c0-.215.024-.403.073-.564.049-.162.118-.3.207-.41a.82.82 0 01.33-.246c.132-.056.28-.083.447-.083.166 0 .312.027.437.083a.763.763 0 01.315.244c.083.107.146.24.188.4.042.16.063.345.063.557v.312h-1.77v-.48h1.099v-.062a.898.898 0 00-.034-.268.309.309 0 00-.108-.164.323.323 0 00-.195-.054.338.338 0 00-.173.042.285.285 0 00-.113.13.8.8 0 00-.06.229c-.014.093-.02.204-.02.334v.218c0 .122.01.224.031.307a.544.544 0 00.093.2c.043.05.094.088.154.11a.798.798 0 00.535-.032.748.748 0 00.249-.178l.273.415a1.066 1.066 0 01-.493.337 1.25 1.25 0 01-.4.059zm2-2.127V15h-.687v-2.642h.642l.044.564zm-.103.667l-.183.005a2.015 2.015 0 01.056-.535 1.29 1.29 0 01.178-.403.814.814 0 01.278-.256.74.74 0 01.364-.09c.103 0 .196.018.28.053a.55.55 0 01.223.171c.062.078.11.182.144.313.034.128.051.286.051.473V15H19.7v-1.685a.794.794 0 00-.034-.263.228.228 0 00-.102-.132.34.34 0 00-.171-.04.283.283 0 00-.174.057.426.426 0 00-.127.149.89.89 0 00-.075.224c-.017.087-.024.18-.022.279zm5.493-.457v1.465a1.438 1.438 0 01-.6.373 1.788 1.788 0 01-.567.079 1.49 1.49 0 01-.537-.093 1.091 1.091 0 01-.413-.28 1.281 1.281 0 01-.261-.474c-.06-.19-.09-.416-.09-.677v-.605c0-.257.028-.481.085-.671a1.29 1.29 0 01.254-.479c.11-.127.242-.221.395-.283.155-.062.33-.093.523-.093.267 0 .486.045.657.134a.88.88 0 01.39.398c.09.176.143.392.161.647h-.69a1.052 1.052 0 00-.076-.351.357.357 0 00-.159-.181.552.552 0 00-.266-.056.557.557 0 00-.247.051.415.415 0 00-.175.161.84.84 0 00-.105.288c-.023.117-.035.26-.035.43v.61c0 .168.013.311.04.43a.838.838 0 00.114.29.46.46 0 00.196.164.74.74 0 00.28.049.655.655 0 00.208-.027.616.616 0 00.124-.056 1.18 1.18 0 01.08-.049v-.654h-.51v-.54h1.224zm1.545 1.917a1.3 1.3 0 01-.48-.083.95.95 0 01-.352-.24 1.07 1.07 0 01-.22-.383c-.05-.15-.076-.32-.076-.512v-.218c0-.215.025-.403.073-.564.05-.162.119-.3.208-.41a.82.82 0 01.33-.246c.131-.056.28-.083.446-.083.166 0 .312.027.437.083a.762.762 0 01.315.244c.083.107.146.24.188.4.043.16.064.345.064.557v.312h-1.77v-.48h1.099v-.062a.898.898 0 00-.035-.268.309.309 0 00-.107-.164.323.323 0 00-.196-.054.338.338 0 00-.173.042.286.286 0 00-.112.13.8.8 0 00-.061.229c-.013.093-.02.204-.02.334v.218c0 .122.01.224.032.307a.544.544 0 00.093.2c.042.05.093.088.154.11a.797.797 0 00.535-.032.746.746 0 00.248-.178l.274.415a1.065 1.065 0 01-.493.337c-.116.04-.25.059-.4.059zm2.046-3.799V15h-.686v-3.75h.686zm1.821 3.166V11.25h.686V15l-.62.002-.066-.586zm-1.37-.644v-.176c0-.215.019-.403.055-.564.037-.16.092-.295.166-.403a.697.697 0 01.268-.239.813.813 0 01.369-.08c.125 0 .235.031.33.095a.772.772 0 01.243.261c.067.112.12.245.162.398.04.153.069.32.085.503v.254c-.02.172-.05.334-.09.483-.04.15-.093.28-.161.39a.816.816 0 01-.242.262.588.588 0 01-.33.093.793.793 0 01-.368-.083.737.737 0 01-.269-.244 1.25 1.25 0 01-.163-.4 2.523 2.523 0 01-.054-.55zm.684-.176v.176c0 .124.006.23.017.32.014.088.034.16.061.217.03.055.068.097.115.125a.36.36 0 00.176.039.345.345 0 00.222-.069.418.418 0 00.127-.193.947.947 0 00.049-.285v-.462a1.178 1.178 0 00-.032-.241.607.607 0 00-.075-.183.35.35 0 00-.123-.118.322.322 0 00-.166-.041.35.35 0 00-.175.041.285.285 0 00-.113.13.809.809 0 00-.063.222c-.013.09-.02.197-.02.322zm3.042-2.346h.681v3.137l-.048.613h-.633v-3.75zm2.054 2.341v.174c0 .214-.017.402-.052.561-.032.16-.084.293-.154.4a.658.658 0 01-.263.242.842.842 0 01-.381.08.606.606 0 01-.34-.092.791.791 0 01-.239-.261 1.706 1.706 0 01-.156-.393 3.31 3.31 0 01-.085-.496v-.256c.016-.176.044-.34.083-.49.04-.152.093-.283.156-.394a.74.74 0 01.237-.261.601.601 0 01.34-.095c.149 0 .277.027.385.083a.658.658 0 01.263.241c.07.108.122.242.154.403.035.16.052.344.052.554zm-.682.174v-.174c0-.122-.004-.227-.014-.315a.751.751 0 00-.054-.22.282.282 0 00-.112-.131.353.353 0 00-.188-.044.342.342 0 00-.176.041.348.348 0 00-.122.118.569.569 0 00-.073.18 1.193 1.193 0 00-.025.227v.462c.002.112.016.211.042.297a.402.402 0 00.124.2c.059.048.137.071.235.071a.383.383 0 00.185-.039.26.26 0 00.11-.124.637.637 0 00.054-.22c.01-.09.014-.2.014-.33zm2.166 1.284a1.3 1.3 0 01-.481-.083.952.952 0 01-.352-.24 1.072 1.072 0 01-.22-.383c-.05-.15-.075-.32-.075-.512v-.218c0-.215.025-.403.073-.564.05-.162.118-.3.208-.41a.82.82 0 01.33-.246c.131-.056.28-.083.446-.083.166 0 .312.027.437.083a.763.763 0 01.315.244c.083.107.146.24.188.4.042.16.064.345.064.557v.312h-1.77v-.48h1.098v-.062a.898.898 0 00-.034-.268.309.309 0 00-.107-.164.323.323 0 00-.196-.054.338.338 0 00-.173.042.286.286 0 00-.112.13.803.803 0 00-.061.229c-.013.093-.02.204-.02.334v.218c0 .122.01.224.032.307a.544.544 0 00.093.2c.042.05.093.088.153.11a.798.798 0 00.535-.032.748.748 0 00.25-.178l.273.415a1.066 1.066 0 01-.493.337 1.25 1.25 0 01-.401.059zm2.046-2.69V15h-.686v-2.642h.686zm-.718-.684c0-.106.033-.193.1-.261a.365.365 0 01.274-.105.36.36 0 01.273.105c.067.068.1.155.1.26a.359.359 0 01-.102.262.358.358 0 01-.269.103.373.373 0 01-.276-.103.364.364 0 01-.1-.261zm1.948 1.23V15h-.686v-2.642h.645l.041.547zm-.097.684l-.188.005a2.125 2.125 0 01.049-.513c.035-.156.089-.292.16-.408a.791.791 0 01.276-.268.767.767 0 01.655-.042.539.539 0 01.212.164c.06.073.107.17.14.288.032.117.048.258.048.422V15h-.683v-1.68a.813.813 0 00-.035-.268.236.236 0 00-.097-.132.293.293 0 00-.157-.04.281.281 0 00-.17.055.39.39 0 00-.12.15.96.96 0 00-.068.225 1.66 1.66 0 00-.022.279zm1.286-.069l-.246.032a2.013 2.013 0 01.046-.486c.034-.151.087-.283.159-.395a.791.791 0 01.268-.266.738.738 0 01.379-.095.77.77 0 01.293.053.538.538 0 01.224.174.796.796 0 01.144.31c.035.128.052.285.052.468V15h-.686v-1.682a.847.847 0 00-.035-.274c-.022-.063-.055-.106-.097-.129a.316.316 0 00-.152-.034.251.251 0 00-.153.049.386.386 0 00-.108.136.74.74 0 00-.066.203c-.014.076-.022.16-.022.252zm4.715.296h.71c-.01.267-.063.492-.161.676a.978.978 0 01-.417.415 1.377 1.377 0 01-.65.142 1.33 1.33 0 01-.525-.098 1.05 1.05 0 01-.39-.293 1.303 1.303 0 01-.245-.476c-.053-.19-.08-.41-.08-.657v-.603c0-.247.028-.466.085-.656.059-.19.142-.35.25-.479.108-.13.24-.228.392-.293.155-.067.33-.1.523-.1.259 0 .475.049.65.146.173.098.308.24.402.428.096.185.154.412.173.68h-.712a1.342 1.342 0 00-.06-.397.344.344 0 00-.155-.205.607.607 0 00-.298-.061.541.541 0 00-.244.051.394.394 0 00-.169.159.852.852 0 00-.097.288c-.02.119-.03.264-.03.434v.608c0 .168.01.311.027.43a.932.932 0 00.086.288c.039.075.092.13.158.164a.576.576 0 00.26.051c.12 0 .216-.018.29-.054.075-.036.13-.1.166-.193.035-.092.056-.224.06-.395zm1.872-2.37V15h-.715v-3.555h.715zm1.114 1.51v.591h-1.294v-.59h1.294zm.136-1.51v.593h-1.43v-.594h1.43zM49.44 15h-.627l.005-.59h.622c.173 0 .307-.032.403-.094a.498.498 0 00.203-.293c.04-.133.06-.308.06-.524v-.555c0-.164-.01-.303-.03-.417a.684.684 0 00-.108-.278.447.447 0 00-.203-.16.846.846 0 00-.315-.05h-.65v-.594h.65a1.5 1.5 0 01.56.1c.167.067.311.165.431.293.12.127.214.284.279.472.065.187.097.4.097.64v.549c0 .24-.032.454-.097.64a1.317 1.317 0 01-.279.47 1.172 1.172 0 01-.432.29c-.169.068-.359.101-.569.101zm-.212-3.555V15h-.715v-3.555h.715zm3.308 1.746v.569h-1.189v-.57h1.19zm2.58-.305v.59H53.66v-.59h1.458zm-1.254-1.44V15h-.715v-3.555h.715zm1.772 0V15h-.708v-3.555h.708zm1.714 2.946v-1.22c0-.08-.01-.144-.03-.191a.19.19 0 00-.082-.103.24.24 0 00-.132-.034.271.271 0 00-.146.037.225.225 0 00-.088.105.448.448 0 00-.027.163h-.686a.798.798 0 01.259-.59.937.937 0 01.307-.183c.119-.044.252-.066.4-.066.176 0 .333.03.47.09a.698.698 0 01.324.28c.08.13.12.296.12.501v1.177c0 .148.007.268.022.361a.97.97 0 00.07.24V15h-.688a1.147 1.147 0 01-.07-.273 2.556 2.556 0 01-.023-.335zm.083-1.006l.003.41h-.252a.428.428 0 00-.17.032.37.37 0 00-.193.222.573.573 0 00.004.323.208.208 0 00.208.134c.075 0 .14-.016.195-.047a.315.315 0 00.122-.112c.028-.044.037-.085.027-.122l.156.266c-.02.06-.046.123-.08.188a.797.797 0 01-.125.18.602.602 0 01-.188.138.614.614 0 01-.261.05.786.786 0 01-.388-.097.725.725 0 01-.279-.273.83.83 0 01-.1-.418.98.98 0 01.064-.361.714.714 0 01.195-.276.875.875 0 01.327-.176c.132-.04.287-.06.464-.06h.271zm1.782-.464V15h-.686v-2.642h.642l.044.564zm-.102.667l-.183.005a2.015 2.015 0 01.056-.535 1.29 1.29 0 01.178-.403.814.814 0 01.278-.256.74.74 0 01.364-.09c.103 0 .196.018.281.053a.55.55 0 01.222.171c.062.078.11.182.144.313.034.128.051.286.051.473V15h-.686v-1.685a.794.794 0 00-.034-.263.228.228 0 00-.102-.132.341.341 0 00-.171-.04.284.284 0 00-.174.057.427.427 0 00-.127.149.886.886 0 00-.075.224 1.38 1.38 0 00-.022.279zm3.171.827V11.25h.686V15l-.62.002-.066-.586zm-1.37-.644v-.176c0-.215.019-.403.054-.564.038-.16.093-.295.166-.403a.697.697 0 01.269-.239.813.813 0 01.368-.08c.126 0 .236.031.33.095a.773.773 0 01.244.261c.067.112.12.245.161.398.041.153.07.32.086.503v.254c-.02.172-.05.334-.09.483-.04.15-.093.28-.162.39a.816.816 0 01-.241.262.588.588 0 01-.33.093.793.793 0 01-.369-.083.737.737 0 01-.268-.244 1.25 1.25 0 01-.164-.4 2.523 2.523 0 01-.053-.55zm.684-.176v.176c0 .124.006.23.017.32.013.088.034.16.061.217.03.055.068.097.115.125a.36.36 0 00.176.039.345.345 0 00.222-.069.418.418 0 00.127-.193.944.944 0 00.049-.285v-.462a1.178 1.178 0 00-.032-.241.607.607 0 00-.076-.183.35.35 0 00-.122-.118.322.322 0 00-.166-.041.35.35 0 00-.175.041.285.285 0 00-.113.13.809.809 0 00-.063.222c-.013.09-.02.197-.02.322zm2.952 1.453a1.3 1.3 0 01-.481-.083.952.952 0 01-.352-.24 1.072 1.072 0 01-.22-.383c-.05-.15-.075-.32-.075-.512v-.218c0-.215.024-.403.073-.564.049-.162.118-.3.208-.41a.82.82 0 01.33-.246c.131-.056.28-.083.446-.083.166 0 .312.027.437.083a.763.763 0 01.315.244c.083.107.146.24.188.4.042.16.064.345.064.557v.312h-1.77v-.48h1.098v-.062a.898.898 0 00-.034-.268.309.309 0 00-.108-.164.323.323 0 00-.195-.054.338.338 0 00-.173.042.286.286 0 00-.113.13.803.803 0 00-.06.229c-.014.093-.02.204-.02.334v.218c0 .122.01.224.032.307a.544.544 0 00.093.2c.042.05.093.088.153.11a.797.797 0 00.535-.032.748.748 0 00.249-.178l.273.415a1.065 1.065 0 01-.493.337c-.115.04-.249.059-.4.059zm2.046-3.799V15h-.686v-3.75h.686zm2.383 1.655V15h-.687v-2.642h.645l.042.547zm-.098.684l-.188.005a2.13 2.13 0 01.049-.513c.036-.156.09-.292.16-.408a.79.79 0 01.277-.268.766.766 0 01.654-.042.54.54 0 01.212.164c.06.073.107.17.14.288.032.117.048.258.048.422V15h-.683v-1.68a.813.813 0 00-.034-.268.236.236 0 00-.098-.132.293.293 0 00-.156-.04.281.281 0 00-.171.055.39.39 0 00-.12.15.965.965 0 00-.068.225 1.66 1.66 0 00-.022.279zm1.286-.069l-.246.032a2.018 2.018 0 01.046-.486c.034-.151.087-.283.159-.395a.792.792 0 01.269-.266.738.738 0 01.378-.095.77.77 0 01.293.053.54.54 0 01.225.174.794.794 0 01.144.31c.034.128.05.285.05.468V15h-.685v-1.682a.847.847 0 00-.034-.274c-.023-.063-.056-.106-.098-.129a.316.316 0 00-.151-.034.251.251 0 00-.154.049.386.386 0 00-.108.136.74.74 0 00-.066.203c-.014.076-.022.16-.022.252zm2.552-1.162V15h-.686v-2.642h.686zm-.718-.683c0-.106.033-.193.1-.261a.365.365 0 01.274-.105.36.36 0 01.273.105c.067.068.1.155.1.26a.36.36 0 01-.102.262.358.358 0 01-.269.103.373.373 0 01-.276-.103.364.364 0 01-.1-.261zm2.412.683v.515h-1.347v-.515h1.347zm-1.037-.652h.68v2.488a.5.5 0 00.023.169.15.15 0 00.066.083c.03.014.071.022.122.022a.467.467 0 00.161-.02v.535a.941.941 0 01-.381.066.767.767 0 01-.356-.078.533.533 0 01-.232-.25 1.059 1.059 0 01-.083-.453v-2.562zm-68.84 8.71V17.25h.685V21l-.62.002-.066-.585zm-1.37-.644v-.176c0-.215.017-.403.053-.564.038-.16.093-.295.166-.403a.697.697 0 01.269-.239.814.814 0 01.369-.08c.125 0 .235.031.33.095a.772.772 0 01.243.261c.067.112.12.245.161.398.041.153.07.32.086.503v.254c-.02.172-.05.333-.09.483-.04.15-.093.28-.162.39a.816.816 0 01-.241.262.588.588 0 01-.33.093.793.793 0 01-.369-.083.737.737 0 01-.268-.244 1.25 1.25 0 01-.164-.4 2.522 2.522 0 01-.053-.55zm.683-.176v.176c0 .124.006.23.017.32.013.088.034.16.061.217.03.055.068.097.115.125a.36.36 0 00.176.039.345.345 0 00.222-.069.418.418 0 00.127-.193.943.943 0 00.049-.285v-.462a1.175 1.175 0 00-.032-.241.606.606 0 00-.076-.183.349.349 0 00-.122-.118.322.322 0 00-.166-.041.35.35 0 00-.176.041.285.285 0 00-.112.13.808.808 0 00-.063.222 2.28 2.28 0 00-.02.322zm2.605-1.238V21h-.686v-2.642h.686zm-.718-.683c0-.106.034-.193.1-.261a.365.365 0 01.274-.105.36.36 0 01.273.105c.067.068.1.155.1.26a.359.359 0 01-.102.262.358.358 0 01-.269.103.373.373 0 01-.276-.103.364.364 0 01-.1-.261zm2.325 3.374a1.3 1.3 0 01-.481-.083.951.951 0 01-.352-.24 1.071 1.071 0 01-.22-.383c-.05-.15-.075-.32-.075-.512v-.218c0-.215.024-.403.073-.564.049-.162.118-.3.207-.41a.82.82 0 01.33-.246c.132-.056.28-.083.447-.083.166 0 .311.027.437.083a.763.763 0 01.315.244c.083.107.145.24.188.4.042.16.063.345.063.557v.312h-1.77v-.48H8.32v-.062a.898.898 0 00-.034-.268.309.309 0 00-.108-.164.323.323 0 00-.195-.054.338.338 0 00-.173.042.285.285 0 00-.113.13.802.802 0 00-.06.229c-.014.093-.02.204-.02.334v.218c0 .122.01.224.031.307a.544.544 0 00.093.2c.043.05.094.087.154.11a.798.798 0 00.535-.032.747.747 0 00.249-.178l.273.415a1.066 1.066 0 01-.493.337c-.116.04-.249.059-.4.059zm2.5-.762a.182.182 0 00-.047-.122.547.547 0 00-.146-.11 2.414 2.414 0 00-.266-.13c-.12-.048-.227-.099-.32-.15a1.127 1.127 0 01-.237-.174.642.642 0 01-.144-.217.745.745 0 01-.049-.279.747.747 0 01.242-.562.82.82 0 01.285-.17c.114-.042.242-.063.384-.063.198 0 .368.035.51.105a.762.762 0 01.33.288.805.805 0 01.114.432h-.683a.425.425 0 00-.027-.157.218.218 0 00-.088-.11.282.282 0 00-.159-.038.253.253 0 00-.222.117.228.228 0 00-.032.122.2.2 0 00.022.095.288.288 0 00.076.08c.034.027.08.054.137.084.058.027.13.058.215.092.175.065.32.135.432.21a.75.75 0 01.254.264c.055.1.083.222.083.369a.736.736 0 01-.069.32.695.695 0 01-.193.248.895.895 0 01-.305.162 1.289 1.289 0 01-.393.056c-.213 0-.393-.043-.54-.127a.873.873 0 01-.331-.325.838.838 0 01-.113-.415h.65c.003.088.02.157.049.208a.247.247 0 00.124.102c.052.02.11.03.173.03a.426.426 0 00.157-.025.195.195 0 00.095-.08.259.259 0 00.032-.13zm2.163.762a1.3 1.3 0 01-.481-.083.951.951 0 01-.352-.24 1.07 1.07 0 01-.22-.383c-.05-.15-.075-.32-.075-.512v-.218c0-.215.024-.403.073-.564.049-.162.118-.3.207-.41a.82.82 0 01.33-.246c.132-.056.28-.083.447-.083.166 0 .312.027.437.083a.763.763 0 01.315.244c.083.107.146.24.188.4.042.16.063.345.063.557v.312h-1.77v-.48h1.099v-.062a.898.898 0 00-.034-.268.309.309 0 00-.108-.164.323.323 0 00-.195-.054.338.338 0 00-.173.042.285.285 0 00-.113.13.8.8 0 00-.06.229c-.014.093-.02.204-.02.334v.218c0 .122.01.224.032.307a.544.544 0 00.092.2c.043.05.094.087.154.11a.798.798 0 00.535-.032.748.748 0 00.249-.178l.273.415a1.066 1.066 0 01-.493.337 1.25 1.25 0 01-.4.059zm2.016-2.144V21h-.686v-2.642h.645l.041.547zm-.097.684l-.188.005a2.13 2.13 0 01.049-.513c.035-.156.089-.292.16-.408a.79.79 0 01.276-.268.766.766 0 01.655-.042.539.539 0 01.212.164c.06.073.107.17.14.288.032.117.048.258.048.422V21h-.683v-1.68a.813.813 0 00-.035-.268.236.236 0 00-.097-.132.293.293 0 00-.157-.04.281.281 0 00-.17.055.39.39 0 00-.12.15.965.965 0 00-.068.226 1.66 1.66 0 00-.022.278zm1.286-.069l-.246.032a2.008 2.008 0 01.046-.486c.034-.151.087-.283.159-.395a.793.793 0 01.268-.266.738.738 0 01.379-.095.77.77 0 01.293.053.54.54 0 01.224.174.794.794 0 01.144.31c.035.128.052.284.052.468V21h-.686v-1.682a.847.847 0 00-.035-.274c-.022-.063-.055-.106-.097-.129a.316.316 0 00-.152-.034.25.25 0 00-.153.049.385.385 0 00-.108.136.743.743 0 00-.066.203c-.014.077-.022.16-.022.252zm4.307-1.44L19.47 21h-.755l1.111-3.555h.471l-.063.635zm.603 2.92l-.77-2.92-.07-.635h.479L21.596 21h-.76zm.027-1.326v.594H19.26v-.594h1.604zm1.592-.752V21h-.686v-2.642h.642l.044.564zm-.103.667l-.183.005a2.015 2.015 0 01.056-.535 1.29 1.29 0 01.178-.403.814.814 0 01.279-.256.74.74 0 01.363-.09c.103 0 .197.018.281.053a.55.55 0 01.222.171c.062.078.11.183.144.313.034.128.052.286.052.473V21h-.686v-1.685a.794.794 0 00-.035-.263.229.229 0 00-.102-.132.341.341 0 00-.171-.04.284.284 0 00-.173.057.427.427 0 00-.127.149.886.886 0 00-.076.225 1.38 1.38 0 00-.022.278zm1.895-2.339h.68v3.137L24.88 21h-.632v-3.75zm2.053 2.341v.174c0 .215-.017.402-.051.561-.033.16-.084.293-.154.4a.658.658 0 01-.264.242.842.842 0 01-.38.08.606.606 0 01-.34-.092.791.791 0 01-.24-.261 1.706 1.706 0 01-.156-.393 3.297 3.297 0 01-.085-.496v-.256c.016-.176.044-.34.083-.49a1.65 1.65 0 01.156-.394.74.74 0 01.237-.261.601.601 0 01.34-.095c.149 0 .278.027.385.083a.658.658 0 01.264.241c.07.108.121.242.154.403.034.16.05.344.05.554zm-.681.174v-.174c0-.122-.005-.227-.015-.315a.751.751 0 00-.054-.22.282.282 0 00-.112-.131.353.353 0 00-.188-.044.342.342 0 00-.176.041.348.348 0 00-.122.118.569.569 0 00-.073.18 1.193 1.193 0 00-.024.227v.462c.001.112.015.211.041.297a.402.402 0 00.125.2c.058.048.136.072.234.072a.383.383 0 00.185-.04.26.26 0 00.11-.124.642.642 0 00.054-.22c.01-.09.015-.2.015-.33zm1.819-1.407V21h-.687v-2.642h.687zm-.718-.683c0-.106.033-.193.1-.261a.365.365 0 01.273-.105.36.36 0 01.274.105c.066.068.1.155.1.26a.359.359 0 01-.103.262.358.358 0 01-.268.103.373.373 0 01-.276-.103.364.364 0 01-.1-.261zm2.324 3.374a1.3 1.3 0 01-.481-.083.95.95 0 01-.352-.24 1.07 1.07 0 01-.22-.383c-.05-.15-.075-.32-.075-.512v-.218c0-.215.024-.403.073-.564.05-.162.118-.3.208-.41a.82.82 0 01.33-.246c.131-.056.28-.083.446-.083.166 0 .312.027.437.083a.762.762 0 01.315.244c.083.107.146.24.188.4.042.16.063.345.063.557v.312h-1.77v-.48h1.1v-.062a.898.898 0 00-.035-.268.309.309 0 00-.107-.164.323.323 0 00-.196-.054.338.338 0 00-.173.042.286.286 0 00-.112.13.8.8 0 00-.061.229c-.014.093-.02.204-.02.334v.218c0 .122.01.224.032.307a.543.543 0 00.092.2c.043.05.094.087.154.11a.797.797 0 00.535-.032.746.746 0 00.249-.178l.274.415a1.065 1.065 0 01-.493.337c-.116.04-.25.059-.401.059zm2.48-2.69v.514h-1.347v-.515h1.347zm-1.037-.653h.68v2.488c0 .074.008.13.023.169a.15.15 0 00.066.083.289.289 0 00.122.022.463.463 0 00.161-.02v.535a.939.939 0 01-.38.066.767.767 0 01-.357-.078.533.533 0 01-.232-.25 1.059 1.059 0 01-.083-.453v-2.562zm2.483 3.343a1.3 1.3 0 01-.481-.083.951.951 0 01-.352-.24 1.07 1.07 0 01-.22-.383c-.05-.15-.075-.32-.075-.512v-.218c0-.215.024-.403.073-.564.049-.162.118-.3.207-.41a.82.82 0 01.33-.246c.132-.056.28-.083.447-.083.166 0 .312.027.437.083a.763.763 0 01.315.244c.083.107.145.24.188.4.042.16.063.345.063.557v.312h-1.77v-.48h1.099v-.062a.901.901 0 00-.034-.268.308.308 0 00-.108-.164.323.323 0 00-.195-.054.338.338 0 00-.173.042.285.285 0 00-.113.13.803.803 0 00-.06.229c-.014.093-.02.204-.02.334v.218c0 .122.01.224.031.307a.544.544 0 00.093.2c.043.05.094.087.154.11a.797.797 0 00.535-.032.746.746 0 00.249-.178l.273.415a1.065 1.065 0 01-.493.337c-.115.04-.249.059-.4.059zm2.011-2.102V21H34.3v-2.642h.644l.04.589zm.623-.608l-.01.681a.47.47 0 00-.42.017.326.326 0 00-.134.105.487.487 0 00-.078.171 1.075 1.075 0 00-.032.232l-.13-.049c0-.172.014-.33.04-.473.027-.145.068-.27.122-.377a.715.715 0 01.193-.248.415.415 0 01.259-.088c.032 0 .066.003.102.01a.396.396 0 01.088.019zm-.015 2.312c0-.107.036-.197.108-.269a.388.388 0 01.29-.11c.122 0 .22.037.29.11a.365.365 0 01.108.269.364.364 0 01-.107.268.393.393 0 01-.29.108.393.393 0 01-.291-.108.364.364 0 01-.108-.268zm4.234-.55c0-.177-.048-.313-.144-.407-.096-.095-.27-.186-.52-.276a2.31 2.31 0 01-.576-.28 1.034 1.034 0 01-.298-.338.939.939 0 01-.098-.434.93.93 0 01.28-.696c.19-.182.436-.274.74-.274.209 0 .394.048.557.142a.95.95 0 01.376.388c.088.166.132.349.132.547h-.45c0-.22-.052-.39-.158-.51-.106-.12-.258-.18-.456-.18-.181 0-.321.05-.42.15-.1.102-.15.243-.15.425 0 .15.054.276.162.376.107.101.273.192.498.271.35.116.6.258.75.428.15.169.226.39.226.664 0 .288-.093.519-.28.693-.188.173-.442.259-.764.259-.207 0-.398-.045-.574-.134a1.048 1.048 0 01-.413-.381 1.07 1.07 0 01-.149-.564h.45c0 .22.06.39.182.512.124.123.292.184.504.184.196 0 .344-.05.444-.152a.563.563 0 00.149-.412zm1.445.899h-.432v-2.642h.432V21zm.034-3.342c0 .073-.02.134-.06.183-.041.049-.103.073-.186.073-.082 0-.143-.024-.184-.073a.276.276 0 01-.06-.183c0-.074.02-.135.06-.186.041-.05.102-.076.184-.076.081 0 .142.026.183.079.042.05.063.111.063.183zm1.592 3.39c-.329 0-.581-.097-.757-.292-.176-.197-.265-.485-.268-.864v-.32c0-.394.085-.703.256-.925.172-.225.413-.337.72-.337.31 0 .54.098.694.295.153.197.23.504.234.92v.284h-1.475v.06c0 .284.053.49.159.618.107.129.261.193.461.193a.75.75 0 00.335-.07.845.845 0 00.273-.23l.225.273c-.187.264-.473.396-.857.396zm-.049-2.367c-.179 0-.311.061-.398.185-.086.122-.135.313-.146.572h1.04v-.06c-.012-.25-.057-.429-.137-.536-.078-.108-.198-.161-.359-.161zm3.88 1.643a.32.32 0 00-.105-.24c-.07-.066-.206-.144-.406-.234a2.693 2.693 0 01-.493-.247.71.71 0 01-.212-.231.652.652 0 01-.071-.313.69.69 0 01.234-.535.863.863 0 01.603-.214c.257 0 .464.074.62.224.157.15.235.342.235.576h-.43a.42.42 0 00-.425-.43.429.429 0 00-.3.1.339.339 0 00-.107.264c0 .088.026.16.078.213.053.053.181.124.383.212.32.126.539.248.654.369.116.119.174.27.174.454 0 .23-.08.413-.237.552-.158.136-.37.205-.635.205-.275 0-.498-.08-.669-.237a.782.782 0 01-.256-.6h.434c.005.146.05.26.135.344a.487.487 0 00.356.124c.143 0 .252-.032.327-.095a.329.329 0 00.113-.261zm.905-.767c0-.384.093-.688.279-.91a.916.916 0 01.74-.337.92.92 0 01.737.327c.187.218.283.515.288.89v.28c0 .382-.093.684-.278.907a.917.917 0 01-.743.335.923.923 0 01-.737-.325c-.184-.216-.28-.51-.286-.879v-.288zm.432.25c0 .271.053.485.16.641a.5.5 0 00.431.232c.381 0 .577-.275.589-.825v-.298c0-.27-.054-.483-.162-.64a.498.498 0 00-.432-.236.494.494 0 00-.427.236c-.106.157-.159.37-.159.638v.251zM50.698 21h-.432v-3.75h.432V21zm1.147 0h-.432v-3.75h.432V21zm1.248-3.281v.64h.398v.348h-.398v1.639c0 .104.017.183.051.236.034.054.093.081.176.081.057 0 .115-.01.173-.03l-.005.367a.943.943 0 01-.3.049.454.454 0 01-.39-.183c-.09-.122-.135-.295-.135-.518v-1.64h-.403v-.35h.403v-.64h.43zm1.858 3.33c-.33 0-.581-.098-.757-.293-.176-.197-.266-.485-.269-.864v-.32c0-.394.086-.703.257-.925.172-.225.412-.337.72-.337.31 0 .54.098.693.295.153.197.231.504.235.92v.284h-1.475v.06c0 .284.053.49.159.618.107.129.26.193.461.193a.75.75 0 00.335-.07.846.846 0 00.273-.23l.225.273c-.188.264-.473.396-.857.396zm-.05-2.368c-.178 0-.31.061-.397.185-.086.122-.135.313-.147.572h1.04v-.06c-.01-.25-.056-.429-.136-.536-.078-.108-.198-.161-.36-.161zm1.856-.323l.013.286a.771.771 0 01.642-.334c.467 0 .704.311.71.935V21h-.43v-1.736c0-.206-.035-.353-.105-.44-.068-.087-.171-.131-.31-.131a.443.443 0 00-.29.107.781.781 0 00-.205.281V21h-.432v-2.642h.407zM4.67 26.768c-.143.187-.352.28-.628.28-.239 0-.42-.081-.542-.246-.122-.166-.183-.407-.185-.722v-1.722h.43v1.69c0 .412.123.618.37.618.263 0 .443-.118.543-.352v-1.956h.432V27h-.41l-.01-.232zm-1.25-3.115c0-.073.022-.134.066-.183.045-.05.112-.076.2-.076.088 0 .155.025.2.076.046.049.069.11.069.183a.258.258 0 01-.069.183c-.045.049-.112.073-.2.073-.088 0-.155-.024-.2-.073a.263.263 0 01-.066-.183zm1.05.005c0-.074.022-.135.066-.186.045-.05.112-.076.2-.076.088 0 .154.026.2.076.046.05.068.112.068.186a.258.258 0 01-.068.183c-.046.049-.112.073-.2.073-.088 0-.155-.024-.2-.073a.263.263 0 01-.066-.183zm3.183 2.148c0 .412-.074.722-.222.93-.148.209-.363.313-.644.313-.28 0-.49-.12-.63-.361L6.135 27h-.393v-3.75h.43v1.399a.679.679 0 01.61-.34c.29 0 .507.103.652.308.144.205.218.514.22.928v.261zm-.43-.246c0-.313-.043-.535-.131-.667-.086-.133-.227-.2-.423-.2-.223 0-.389.12-.498.361v1.258c.108.237.275.356.503.356.196 0 .336-.068.42-.205.085-.137.128-.35.13-.637v-.266zm1.927 1.489c-.329 0-.581-.098-.757-.293-.176-.197-.265-.485-.268-.864v-.32c0-.394.085-.703.256-.925.172-.225.412-.337.72-.337.31 0 .54.098.693.295.153.197.232.504.235.92v.284H8.554v.06c0 .284.053.49.159.618.107.129.261.193.461.193a.75.75 0 00.335-.07.846.846 0 00.273-.23l.225.273c-.187.264-.473.396-.857.396zM9.1 24.68c-.179 0-.312.061-.398.185-.086.122-.135.313-.146.572h1.04v-.06c-.012-.25-.057-.429-.137-.536-.078-.108-.198-.161-.359-.161zm2.54.083a1.05 1.05 0 00-.196-.017c-.222 0-.376.12-.464.363V27h-.432v-2.642h.42l.007.269c.116-.212.28-.317.49-.317a.38.38 0 01.172.034l.002.42zM12.538 27h-.433v-3.75h.433V27zm1.626.049c-.33 0-.581-.098-.757-.293-.176-.197-.266-.485-.269-.864v-.32c0-.394.086-.703.257-.925.172-.225.412-.337.72-.337.309 0 .54.098.693.295.153.197.231.504.235.92v.284h-1.475v.06c0 .284.053.49.158.618.108.129.262.193.462.193a.75.75 0 00.334-.07.846.846 0 00.274-.23l.224.273c-.187.264-.472.396-.856.396zm-.05-2.368c-.178 0-.311.061-.397.185-.086.122-.135.313-.147.572h1.04v-.06c-.011-.25-.057-.429-.136-.536-.079-.108-.198-.161-.36-.161zm1.363.879c0-.412.075-.723.225-.933.15-.212.368-.317.656-.317.269 0 .473.114.613.344l.022-.296h.39v2.666c0 .328-.083.578-.25.752-.168.176-.402.264-.701.264-.13 0-.277-.032-.44-.098a.911.911 0 01-.364-.236l.176-.298c.18.175.377.263.593.263.36 0 .545-.196.555-.588v-.344a.677.677 0 01-.596.31.753.753 0 01-.64-.308c-.153-.206-.232-.503-.239-.889v-.292zm.432.246c0 .296.043.514.13.654.087.139.23.208.43.208.214 0 .375-.11.483-.33v-1.32c-.113-.217-.272-.325-.479-.325-.198 0-.342.07-.43.21-.088.138-.132.351-.134.64v.263zm3.064 1.243c-.329 0-.58-.098-.757-.293-.175-.197-.265-.485-.268-.864v-.32c0-.394.085-.703.256-.925.173-.225.413-.337.72-.337.31 0 .54.098.694.295.153.197.23.504.234.92v.284h-1.475v.06c0 .284.053.49.16.618.107.129.26.193.46.193a.75.75 0 00.335-.07.845.845 0 00.273-.23l.225.273c-.187.264-.473.396-.857.396zm-.049-2.368c-.179 0-.311.061-.398.185-.086.122-.135.313-.146.572h1.04v-.06c-.011-.25-.057-.429-.137-.536-.078-.108-.198-.161-.359-.161zm1.856-.323l.012.286a.77.77 0 01.642-.334c.467 0 .704.311.71.935V27h-.43v-1.736c0-.206-.034-.353-.104-.44-.069-.087-.172-.131-.31-.131a.443.443 0 00-.29.107.78.78 0 00-.206.281V27h-.432v-2.642h.408zm2.019 3.35l-.256-.176c.152-.213.232-.433.239-.659v-.408h.442v.354c0 .165-.041.33-.123.494-.08.164-.18.296-.302.395zm2.034-2.15c0-.385.092-.689.278-.912a.916.916 0 01.74-.336.92.92 0 01.737.327c.187.218.283.515.288.89v.28c0 .382-.093.684-.278.907a.917.917 0 01-.743.335.923.923 0 01-.737-.325c-.184-.216-.279-.51-.285-.879v-.288zm.432.248c0 .272.053.486.158.642a.501.501 0 00.432.232c.381 0 .577-.275.589-.825v-.298c0-.27-.054-.483-.161-.64a.498.498 0 00-.432-.236.494.494 0 00-.428.236c-.105.157-.158.37-.158.638v.251zm4.082 0c0 .412-.074.722-.223.93-.148.209-.363.313-.644.313-.28 0-.49-.12-.63-.361L27.83 27h-.393v-3.75h.43v1.399a.679.679 0 01.61-.34c.29 0 .507.103.652.308.145.205.218.514.22.928v.261zm-.43-.246c0-.313-.044-.535-.132-.667-.086-.133-.227-.2-.422-.2-.223 0-.39.12-.498.361v1.258c.107.237.275.356.503.356.195 0 .335-.068.42-.205.084-.137.127-.35.129-.637v-.266zm3.743.542c0-.178-.048-.314-.144-.408-.096-.095-.27-.186-.52-.276a2.31 2.31 0 01-.577-.28 1.032 1.032 0 01-.297-.338.94.94 0 01-.098-.434.93.93 0 01.28-.696c.19-.182.436-.274.74-.274.209 0 .394.048.557.142a.95.95 0 01.376.388c.088.166.132.349.132.547h-.45c0-.22-.052-.39-.158-.51-.106-.12-.258-.18-.457-.18-.18 0-.32.05-.42.15-.099.102-.148.243-.148.425 0 .15.053.276.16.376.108.101.274.192.499.271.35.116.6.258.75.428.15.169.226.39.226.664 0 .288-.093.519-.28.693-.188.173-.442.259-.765.259-.206 0-.398-.045-.573-.134a1.046 1.046 0 01-.413-.381 1.07 1.07 0 01-.149-.564h.45c0 .22.06.39.182.512.124.123.292.184.503.184.197 0 .345-.05.445-.152a.563.563 0 00.149-.412zm1.445.898h-.432v-2.642h.432V27zm.034-3.342c0 .073-.02.134-.06.183-.042.049-.103.073-.186.073-.082 0-.143-.024-.184-.073a.277.277 0 01-.06-.183c0-.074.02-.135.06-.186.041-.05.102-.076.184-.076.08 0 .142.026.183.079.042.05.063.111.063.183zm1.592 3.39c-.329 0-.581-.097-.757-.292-.176-.197-.265-.485-.269-.864v-.32c0-.394.086-.703.257-.925.172-.225.413-.337.72-.337.31 0 .54.098.694.295.152.197.23.504.234.92v.284h-1.475v.06c0 .284.053.49.159.618.107.129.261.193.461.193a.75.75 0 00.335-.07.846.846 0 00.273-.23l.225.273c-.187.264-.473.396-.857.396zm-.049-2.367c-.179 0-.312.061-.398.185-.086.122-.135.313-.146.572h1.04v-.06c-.012-.25-.057-.429-.137-.536-.078-.108-.198-.161-.359-.161zm3.345 1.662l.5-1.985h.44L39.184 27h-.322l-.794-2.642h.44l.52 1.985zm2.334.706c-.329 0-.581-.098-.757-.293-.176-.197-.265-.485-.269-.864v-.32c0-.394.086-.703.257-.925.172-.225.412-.337.72-.337.31 0 .54.098.693.295.153.197.231.504.235.92v.284h-1.475v.06c0 .284.053.49.159.618.107.129.261.193.461.193a.75.75 0 00.335-.07.845.845 0 00.273-.23l.225.273c-.187.264-.473.396-.857.396zm-.049-2.368c-.179 0-.312.061-.398.185-.086.122-.135.313-.146.572h1.04v-.06c-.012-.25-.057-.429-.137-.536-.078-.108-.198-.161-.359-.161zm2.54.083a1.052 1.052 0 00-.196-.017c-.222 0-.376.12-.464.363V27h-.432v-2.642h.42l.007.269c.115-.212.28-.317.49-.317a.38.38 0 01.172.034l.002.42zm1.715 1.56a.32.32 0 00-.105-.24c-.07-.066-.205-.144-.405-.234a2.698 2.698 0 01-.493-.247.71.71 0 01-.212-.231.652.652 0 01-.071-.313c0-.215.078-.393.234-.535a.863.863 0 01.603-.214c.257 0 .464.074.62.224.157.15.235.342.235.576h-.43a.42.42 0 00-.425-.43.429.429 0 00-.3.1.339.339 0 00-.108.264c0 .088.026.16.079.213.053.053.181.124.383.212.32.126.539.248.654.369.116.119.174.27.174.454 0 .23-.08.413-.237.552-.158.136-.37.205-.635.205-.275 0-.498-.08-.669-.237a.782.782 0 01-.256-.6h.434c.005.146.05.26.135.344a.487.487 0 00.356.124c.143 0 .252-.032.327-.095a.33.33 0 00.112-.261zm1.563-2.605v.64h.398v.348h-.398v1.639c0 .104.017.183.051.236.034.054.093.081.176.081.057 0 .115-.01.173-.03l-.005.367a.943.943 0 01-.3.049.454.454 0 01-.39-.183c-.09-.122-.135-.295-.135-.518v-1.64h-.403v-.35h.403v-.64h.43zm1.858 3.33c-.329 0-.581-.098-.757-.293-.176-.197-.265-.485-.269-.864v-.32c0-.394.086-.703.257-.925.172-.225.412-.337.72-.337.31 0 .54.098.693.295.153.197.231.504.235.92v.284h-1.475v.06c0 .284.053.49.159.618.107.129.261.193.461.193a.75.75 0 00.335-.07.846.846 0 00.273-.23l.225.273c-.188.264-.473.396-.857.396zm-.05-2.368c-.178 0-.31.061-.397.185-.086.122-.135.313-.147.572h1.04v-.06c-.01-.25-.056-.429-.136-.536-.078-.108-.198-.161-.36-.161zm1.88-.052a.762.762 0 01.63-.32c.468 0 .705.312.711.936V27h-.43v-1.736c0-.206-.034-.353-.104-.44-.069-.087-.172-.131-.31-.131a.443.443 0 00-.291.107.781.781 0 00-.205.281V27h-.432v-3.75h.432v1.38zm2.93 2.42c-.328 0-.58-.098-.756-.293-.176-.197-.266-.485-.269-.864v-.32c0-.394.086-.703.257-.925.172-.225.412-.337.72-.337.309 0 .54.098.693.295.153.197.231.504.234.92v.284h-1.474v.06c0 .284.053.49.158.618.108.129.262.193.462.193a.75.75 0 00.334-.07.845.845 0 00.274-.23l.224.273c-.187.264-.472.396-.857.396zm-.048-2.368c-.18 0-.312.061-.398.185-.086.122-.135.313-.147.572h1.04v-.06c-.011-.25-.057-.429-.136-.536-.079-.108-.198-.161-.36-.161zm1.855-.323l.012.286a.77.77 0 01.642-.334c.468 0 .704.311.71.935V27h-.429v-1.736c0-.206-.035-.353-.105-.44-.068-.087-.172-.131-.31-.131a.444.444 0 00-.29.107.78.78 0 00-.205.281V27h-.433v-2.642h.408zm2.02 3.35l-.257-.176c.153-.213.233-.433.24-.659v-.408H58v.354c0 .165-.04.33-.122.494-.08.164-.18.296-.303.395zm4.093-1.467l.4-1.883h.428L61.85 27h-.344l-.515-1.89-.503 1.89h-.347l-.642-2.642h.425l.41 1.836.49-1.836h.343l.502 1.883zm1.748.759h-.432v-2.642h.432V27zm.035-3.342c0 .073-.02.134-.061.183-.041.049-.103.073-.186.073-.081 0-.142-.024-.183-.073a.276.276 0 01-.061-.183c0-.074.02-.135.061-.186.04-.05.102-.076.183-.076s.142.026.183.079c.043.05.064.111.064.183zm1.591 3.39c-.328 0-.58-.097-.756-.292-.176-.197-.266-.485-.269-.864v-.32c0-.394.085-.703.256-.925.173-.225.413-.337.72-.337.31 0 .541.098.694.295.153.197.231.504.234.92v.284h-1.474v.06c0 .284.053.49.158.618.108.129.262.193.462.193a.75.75 0 00.334-.07.846.846 0 00.274-.23l.224.273c-.187.264-.472.396-.857.396zm-.048-2.367c-.18 0-.312.061-.398.185-.087.122-.135.313-.147.572h1.04v-.06c-.011-.25-.057-.429-.136-.536-.079-.108-.198-.161-.36-.161zM5.612 31.872c-.02.38-.127.672-.322.874-.194.202-.468.303-.823.303a1.02 1.02 0 01-.85-.405c-.21-.272-.314-.64-.314-1.104v-.645c0-.462.107-.827.322-1.096.216-.268.511-.402.884-.402.343 0 .609.103.796.31.188.205.291.498.307.88h-.451c-.02-.289-.08-.495-.183-.62-.103-.123-.26-.185-.47-.185a.637.637 0 00-.558.286c-.13.189-.196.466-.196.832v.652c0 .36.06.636.181.828.122.192.3.288.532.288.233 0 .4-.058.503-.173.103-.116.166-.323.19-.623h.452zm2.256-.442H6.667V33H6.22v-3.555h1.85v.386H6.668v1.216h1.201v.383zM8.623 33v-3.555h.847c.415 0 .737.13.966.39.23.26.345.624.345 1.095v.595c0 .47-.117.834-.35 1.092-.232.255-.57.383-1.013.383h-.795zm.446-3.169v2.786h.36c.313 0 .543-.09.688-.269.145-.18.219-.447.222-.8v-.63c0-.375-.073-.65-.217-.823-.144-.176-.36-.264-.652-.264h-.4zm3.633 2.493a.319.319 0 00-.105-.24c-.07-.066-.205-.144-.405-.234a2.695 2.695 0 01-.493-.247.71.71 0 01-.213-.231.652.652 0 01-.07-.313c0-.215.078-.393.234-.535a.863.863 0 01.603-.214c.257 0 .464.074.62.224.156.15.234.342.234.576h-.43a.42.42 0 00-.424-.43.429.429 0 00-.3.1.339.339 0 00-.108.264c0 .088.026.16.078.213.054.053.182.124.384.212.32.126.538.248.654.369.115.119.173.27.173.454 0 .23-.079.413-.236.552-.158.136-.37.205-.635.205-.275 0-.498-.08-.67-.237a.782.782 0 01-.256-.6h.435c.005.146.05.26.134.344a.488.488 0 00.357.124c.143 0 .252-.032.327-.095a.329.329 0 00.112-.261zm2.334.676v-2.293h-.344v-.349h.344v-.305c.005-.268.073-.477.203-.627.132-.152.317-.227.556-.227.087 0 .174.014.262.041l-.022.366a.86.86 0 00-.198-.022c-.246 0-.369.175-.369.525v.25h.452v.348h-.452V33h-.432zm2.74-.232c-.144.187-.353.28-.628.28-.24 0-.42-.081-.542-.246-.122-.166-.184-.407-.186-.722v-1.722h.43v1.69c0 .412.124.617.371.617.262 0 .443-.117.542-.351v-1.956h.432V33h-.41l-.01-.232zm1.476-2.41l.013.286a.771.771 0 01.642-.334c.467 0 .704.311.71.935V33h-.43v-1.736c0-.206-.035-.353-.105-.44-.068-.087-.171-.131-.31-.131a.443.443 0 00-.29.107.78.78 0 00-.205.281V33h-.432v-2.642h.407zm2.679 1.433l-.23.264V33h-.432v-3.75h.432v2.244l.823-1.136h.517l-.84 1.104.95 1.538h-.503l-.717-1.209zm2.158-2.072v.64h.398v.348h-.398v1.639c0 .104.017.183.051.237.034.053.093.08.176.08.057 0 .115-.01.173-.03l-.005.367a.943.943 0 01-.3.049.454.454 0 01-.39-.183c-.09-.122-.135-.295-.135-.518v-1.64h-.403v-.35h.403v-.64h.43zM25.469 33h-.433v-2.642h.432V33zm.033-3.342c0 .073-.02.134-.06.183-.041.049-.103.073-.186.073-.082 0-.143-.024-.183-.073a.276.276 0 01-.061-.183c0-.074.02-.135.06-.186.041-.05.102-.076.184-.076.081 0 .142.026.183.079.042.05.063.111.063.183zm.557 1.9c0-.385.093-.689.278-.912a.916.916 0 01.74-.336.92.92 0 01.737.327c.188.218.284.515.288.89v.28c0 .382-.092.684-.278.907a.917.917 0 01-.742.335.923.923 0 01-.737-.325c-.184-.216-.28-.51-.286-.879v-.288zm.432.248c0 .272.053.486.159.642a.501.501 0 00.432.232c.38 0 .577-.275.588-.825v-.298c0-.27-.053-.483-.16-.64a.499.499 0 00-.433-.236.494.494 0 00-.427.236c-.106.157-.159.37-.159.638v.251zm2.576-1.448l.012.286a.771.771 0 01.642-.334c.467 0 .704.311.71.935V33h-.429v-1.736c0-.206-.035-.353-.105-.44-.068-.087-.172-.131-.31-.131a.443.443 0 00-.29.107.781.781 0 00-.206.281V33h-.432v-2.642h.408zM31.547 33h-.432v-2.642h.432V33zm.034-3.342c0 .073-.02.134-.06.183-.041.049-.103.073-.186.073-.081 0-.143-.024-.183-.073a.276.276 0 01-.061-.183c0-.074.02-.135.06-.186.041-.05.103-.076.184-.076s.142.026.183.079c.042.05.063.111.063.183zm1.592 3.39c-.328 0-.58-.097-.757-.292-.175-.197-.265-.485-.268-.864v-.32c0-.394.085-.703.256-.925.173-.225.413-.337.72-.337.31 0 .54.098.694.295.153.197.231.504.234.92v.284h-1.474v.06c0 .284.052.49.158.618.108.129.262.193.462.193a.75.75 0 00.334-.07.846.846 0 00.274-.23l.224.273c-.187.264-.473.396-.857.396zm-.049-2.367c-.178 0-.311.061-.397.185-.087.122-.135.313-.147.572h1.04v-.06c-.011-.25-.057-.429-.137-.536-.078-.108-.197-.161-.358-.161zm2.54.083a1.051 1.051 0 00-.196-.017c-.221 0-.376.12-.464.363V33h-.432v-2.642h.42l.008.269c.115-.212.279-.317.49-.317a.38.38 0 01.171.034l.003.42zm1.377 2.285c-.33 0-.581-.098-.757-.293-.176-.197-.266-.485-.269-.864v-.32c0-.394.086-.703.257-.925.172-.225.412-.337.72-.337.309 0 .54.098.693.295.153.197.231.504.234.92v.284h-1.474v.06c0 .284.053.49.158.618.108.129.262.193.462.193a.75.75 0 00.334-.07.846.846 0 00.274-.23l.224.273c-.187.264-.472.396-.856.396zm-.05-2.368c-.178 0-.311.061-.397.185-.087.122-.135.313-.147.572h1.04v-.06c-.011-.25-.057-.429-.136-.536-.078-.108-.198-.161-.36-.161zm1.856-.323l.012.286a.77.77 0 01.642-.334c.468 0 .704.311.71.935V33h-.429v-1.736c0-.206-.035-.353-.105-.44-.068-.087-.172-.131-.31-.131a.443.443 0 00-.29.107.78.78 0 00-.205.281V33h-.432v-2.642h.407zm2.02 3.35l-.257-.176c.153-.213.233-.433.24-.659v-.408h.441v.354c0 .165-.04.33-.122.493-.08.165-.18.297-.303.396zm3.47-.94c-.142.187-.352.28-.627.28-.239 0-.42-.081-.541-.246-.123-.166-.184-.407-.186-.722v-1.722h.43v1.69c0 .412.123.617.37.617.263 0 .443-.117.543-.351v-1.956h.432V33h-.41l-.01-.232zm1.478-2.41l.012.286a.771.771 0 01.642-.334c.467 0 .704.311.71.935V33h-.429v-1.736c0-.206-.035-.353-.105-.44-.068-.087-.172-.131-.31-.131a.443.443 0 00-.29.107.78.78 0 00-.206.281V33h-.432v-2.642h.408zm1.924 1.202c0-.407.076-.717.227-.93.153-.214.372-.32.657-.32.252 0 .449.102.59.307V29.25h.432V33h-.395l-.022-.283a.68.68 0 01-.608.332.757.757 0 01-.644-.318c-.155-.213-.234-.513-.237-.9v-.271zm.432.246c0 .296.044.515.132.654.088.139.23.208.43.208.214 0 .375-.108.48-.325V31.01c-.11-.211-.27-.317-.478-.317-.199 0-.342.07-.43.21-.088.138-.133.351-.134.64v.263zm3.196-.249c0-.384.093-.688.278-.91a.916.916 0 01.74-.337.92.92 0 01.737.327c.187.218.283.515.288.89v.28c0 .382-.093.684-.278.907a.917.917 0 01-.742.335.923.923 0 01-.738-.325c-.184-.216-.279-.51-.285-.879v-.288zm.432.25c0 .271.053.485.159.641a.501.501 0 00.432.232c.38 0 .577-.275.588-.825v-.298c0-.27-.054-.483-.161-.64a.498.498 0 00-.432-.236.494.494 0 00-.427.236c-.106.157-.16.37-.16.638v.251zm4.082 0c0 .41-.074.721-.222.93-.148.208-.363.312-.645.312-.28 0-.49-.12-.63-.361l-.022.312h-.393v-3.75h.43v1.399a.679.679 0 01.61-.34c.29 0 .507.103.652.308.145.205.218.514.22.928v.261zm-.43-.247c0-.313-.044-.535-.132-.667-.086-.133-.227-.2-.422-.2-.223 0-.389.12-.498.361v1.258c.107.237.275.356.503.356.195 0 .335-.068.42-.205.084-.137.127-.35.13-.637v-.266zm3.743.542c0-.178-.048-.314-.144-.408-.096-.095-.27-.186-.52-.276a2.31 2.31 0 01-.576-.28 1.032 1.032 0 01-.298-.338.94.94 0 01-.098-.434.93.93 0 01.28-.696c.19-.182.436-.274.74-.274.209 0 .394.048.557.142a.95.95 0 01.376.388c.088.166.132.349.132.547h-.45c0-.22-.052-.39-.158-.51-.106-.12-.258-.18-.456-.18-.181 0-.321.05-.42.15-.1.102-.15.243-.15.425 0 .15.054.276.162.376.107.101.273.192.498.271.35.116.6.258.75.428.15.169.227.39.227.664 0 .288-.094.519-.281.693-.187.173-.442.259-.764.259-.207 0-.398-.045-.574-.134a1.046 1.046 0 01-.413-.381 1.07 1.07 0 01-.149-.564h.45c0 .22.06.39.183.512.123.123.291.184.503.184.197 0 .345-.05.444-.152a.563.563 0 00.149-.412zm1.445.898h-.432v-2.642h.432V33zm.034-3.342c0 .073-.02.134-.06.183-.041.049-.103.073-.186.073-.082 0-.143-.024-.183-.073a.276.276 0 01-.061-.183c0-.074.02-.135.06-.186.041-.05.102-.076.184-.076.081 0 .142.026.183.079.042.05.063.111.063.183zm1.592 3.39c-.329 0-.58-.097-.757-.292-.175-.197-.265-.485-.268-.864v-.32c0-.394.085-.703.256-.925.173-.225.413-.337.72-.337.31 0 .54.098.694.295.153.197.23.504.234.92v.284h-1.475v.06c0 .284.053.49.16.618.106.129.26.193.46.193a.75.75 0 00.335-.07.846.846 0 00.273-.23l.225.273c-.187.264-.473.396-.857.396zm-.049-2.367c-.179 0-.311.061-.398.185-.086.122-.135.313-.146.572h1.04v-.06c-.012-.25-.057-.429-.137-.536-.078-.108-.198-.161-.359-.161zm3.54 2.368c-.328 0-.58-.098-.757-.293-.175-.197-.265-.485-.268-.864v-.32c0-.394.085-.703.256-.925.173-.225.413-.337.72-.337.31 0 .54.098.694.295.153.197.231.504.234.92v.284h-1.474v.06c0 .284.052.49.158.618.108.129.262.193.462.193a.75.75 0 00.334-.07.846.846 0 00.274-.23l.224.273c-.187.264-.472.396-.857.396zm-.049-2.368c-.178 0-.311.061-.397.185-.087.122-.136.313-.147.572h1.04v-.06c-.011-.25-.057-.429-.137-.536-.078-.108-.197-.161-.359-.161zm2.733 1.643a.32.32 0 00-.105-.24c-.07-.066-.206-.144-.406-.234a2.698 2.698 0 01-.493-.247.71.71 0 01-.212-.231.652.652 0 01-.071-.313c0-.215.078-.393.234-.535a.863.863 0 01.603-.214c.257 0 .464.074.62.224.157.15.235.342.235.576h-.43a.42.42 0 00-.425-.43.429.429 0 00-.3.1.339.339 0 00-.108.264c0 .088.027.16.079.213.053.053.181.124.383.212.32.126.539.248.654.369.116.119.174.27.174.454 0 .23-.08.413-.237.552-.158.136-.37.205-.635.205-.275 0-.498-.08-.669-.237a.782.782 0 01-.256-.6h.434c.005.146.05.26.135.344a.487.487 0 00.356.124c.143 0 .252-.032.327-.095a.329.329 0 00.112-.261zm-63.834 6a.32.32 0 00-.105-.24c-.07-.066-.205-.144-.405-.234a2.693 2.693 0 01-.493-.247.71.71 0 01-.212-.231.652.652 0 01-.071-.313.69.69 0 01.234-.535.863.863 0 01.603-.214c.257 0 .464.074.62.224.157.15.235.342.235.576h-.43a.42.42 0 00-.425-.43.429.429 0 00-.3.1.339.339 0 00-.107.264c0 .088.026.16.078.213.053.053.181.124.383.212.32.126.539.248.654.369.116.119.174.27.174.454 0 .23-.08.413-.237.552-.158.136-.37.205-.635.205-.275 0-.498-.08-.669-.237a.782.782 0 01-.256-.6h.434c.005.146.05.26.135.344a.487.487 0 00.356.124c.143 0 .252-.032.327-.095a.329.329 0 00.112-.261zM6.07 39h-.432v-2.642h.432V39zm.034-3.342c0 .073-.02.134-.061.183-.04.049-.103.073-.186.073-.08 0-.142-.024-.183-.073a.276.276 0 01-.06-.183c0-.074.02-.135.06-.186.041-.05.102-.075.183-.075.082 0 .143.026.184.078.042.05.063.111.063.183zm1.565 3.022a.46.46 0 00.344-.132.57.57 0 00.142-.38h.408a.9.9 0 01-.271.632.855.855 0 01-.623.249c-.327 0-.577-.103-.75-.308-.17-.206-.256-.513-.256-.92v-.29c0-.4.086-.702.256-.909.171-.208.42-.312.748-.312.27 0 .484.085.642.256.16.17.244.404.254.7h-.408c-.01-.195-.057-.341-.142-.439a.43.43 0 00-.346-.146c-.193 0-.335.063-.428.19-.092.125-.14.332-.144.62v.337c0 .311.046.53.137.66.093.128.238.192.437.192zm1.824-2.05a.762.762 0 01.63-.32c.467 0 .704.311.71.935V39h-.43v-1.736c0-.207-.035-.353-.105-.44-.068-.087-.171-.131-.31-.131a.443.443 0 00-.29.107.78.78 0 00-.205.281V39H9.06v-3.75h.432v1.38zM13.09 39h-.432v-3.75h.432V39zm1.626.049c-.329 0-.58-.098-.756-.293-.176-.197-.266-.485-.27-.864v-.32c0-.394.086-.703.257-.925.173-.225.413-.337.72-.337.31 0 .54.098.694.295.153.197.231.504.234.92v.284h-1.474v.06c0 .284.053.49.158.618.108.129.261.193.462.193a.75.75 0 00.334-.07.845.845 0 00.274-.23l.224.273c-.187.264-.473.396-.857.396zm-.048-2.368c-.18 0-.312.062-.398.185-.087.122-.136.313-.147.572h1.04v-.06c-.011-.25-.057-.429-.137-.536-.078-.108-.197-.161-.358-.161zM16.58 39h-.432v-2.642h.432V39zm.035-3.342c0 .073-.02.134-.061.183-.041.049-.103.073-.186.073-.081 0-.142-.024-.183-.073a.276.276 0 01-.061-.183c0-.074.02-.135.061-.186.04-.05.102-.075.183-.075.082 0 .143.026.183.078.043.05.064.111.064.183zm1.93 2.666a.32.32 0 00-.104-.24c-.07-.066-.205-.144-.405-.234a2.693 2.693 0 01-.493-.247.71.71 0 01-.213-.231.652.652 0 01-.07-.313.69.69 0 01.234-.535.863.863 0 01.603-.214c.257 0 .463.074.62.224.156.15.234.342.234.576h-.43a.42.42 0 00-.424-.43.429.429 0 00-.3.1.338.338 0 00-.108.264c0 .088.026.16.078.213.054.053.181.124.383.212.321.126.54.248.655.369.115.119.173.27.173.454 0 .23-.079.413-.237.552-.158.136-.37.205-.635.205-.275 0-.498-.08-.668-.237a.782.782 0 01-.257-.6h.435c.005.146.05.26.134.344a.487.487 0 00.356.124c.144 0 .253-.032.328-.095a.33.33 0 00.112-.261zm1.563-2.605v.64h.398v.349h-.398v1.638c0 .104.017.183.052.237.034.053.092.08.175.08.057 0 .115-.01.174-.03l-.005.367a.943.943 0 01-.3.049.454.454 0 01-.391-.183c-.09-.122-.134-.295-.134-.518v-1.64h-.403v-.35h.403v-.64h.43zm1.858 3.33c-.328 0-.58-.098-.757-.293-.175-.197-.265-.485-.268-.864v-.32c0-.394.085-.703.256-.925.173-.225.413-.337.72-.337.31 0 .54.098.694.295.153.197.23.504.234.92v.284h-1.474v.06c0 .284.052.49.158.618.108.129.261.193.462.193a.75.75 0 00.334-.07.846.846 0 00.274-.23l.224.273c-.187.264-.473.396-.857.396zm-.048-2.368c-.18 0-.312.062-.399.185-.086.122-.135.313-.146.572h1.04v-.06c-.011-.25-.057-.429-.137-.536-.078-.108-.197-.161-.358-.161zm1.855-.323l.012.286a.771.771 0 01.642-.334c.467 0 .704.311.71.935V39h-.429v-1.736c0-.207-.035-.353-.105-.44-.068-.087-.172-.131-.31-.131a.443.443 0 00-.29.107.781.781 0 00-.206.281V39h-.432v-2.642h.408zm3.826 1.434l-.23.263V39h-.432v-3.75h.432v2.244l.823-1.136h.517l-.84 1.104.95 1.538h-.503l-.717-1.209zm1.501-.235c0-.384.093-.688.278-.91a.916.916 0 01.74-.337.92.92 0 01.737.327c.188.218.284.515.288.89v.28c0 .382-.092.684-.278.907a.917.917 0 01-.742.335.923.923 0 01-.737-.325c-.184-.216-.28-.51-.286-.879v-.288zm.432.25c0 .271.053.485.159.641a.501.501 0 00.432.232c.38 0 .577-.275.588-.825v-.298c0-.27-.053-.483-.16-.64a.499.499 0 00-.433-.236.494.494 0 00-.427.236c-.106.157-.159.37-.159.638v.251zm-.22-2.154c0-.073.022-.134.066-.183.046-.05.113-.076.2-.076.088 0 .155.025.2.076.046.049.07.11.07.183a.258.258 0 01-.07.183c-.045.049-.111.073-.2.073-.087 0-.154-.024-.2-.073a.263.263 0 01-.066-.183zm1.05.005c0-.074.022-.135.066-.186.046-.05.113-.075.2-.075.088 0 .155.025.2.075.046.05.069.112.069.186a.258.258 0 01-.068.183c-.046.049-.113.073-.2.073-.088 0-.155-.024-.2-.073a.264.264 0 01-.067-.183zm1.746.7l.012.286a.771.771 0 01.642-.334c.467 0 .704.311.71.935V39h-.43v-1.736c0-.207-.034-.353-.104-.44-.068-.087-.172-.131-.31-.131a.443.443 0 00-.29.107.78.78 0 00-.206.281V39h-.432v-2.642h.408zm2.422 0l.012.286a.77.77 0 01.642-.334c.467 0 .704.311.71.935V39h-.43v-1.736c0-.207-.034-.353-.104-.44-.069-.087-.172-.131-.31-.131a.443.443 0 00-.29.107.78.78 0 00-.206.281V39h-.432v-2.642h.408zm2.959 2.69c-.329 0-.581-.097-.757-.292-.176-.197-.265-.485-.269-.864v-.32c0-.394.086-.703.257-.925.172-.225.412-.337.72-.337.31 0 .54.098.693.295.153.197.231.504.235.92v.284h-1.475v.06c0 .284.053.49.159.618.107.129.261.193.461.193a.75.75 0 00.335-.07.846.846 0 00.273-.23l.225.273c-.188.264-.473.396-.857.396zm-.05-2.367c-.178 0-.31.062-.397.185-.086.122-.135.313-.146.572h1.04v-.06c-.012-.25-.057-.429-.137-.536-.078-.108-.198-.161-.36-.161zm1.856-.323l.013.286a.771.771 0 01.642-.334c.467 0 .704.311.71.935V39h-.43v-1.736c0-.207-.035-.353-.105-.44-.068-.087-.171-.131-.31-.131a.443.443 0 00-.29.107.78.78 0 00-.205.281V39h-.432v-2.642h.407zm2.02 3.35l-.257-.176c.153-.213.233-.433.24-.659v-.408h.441v.354c0 .165-.04.33-.122.493-.08.165-.18.297-.303.396zm2.033-2.148c0-.407.076-.717.227-.93.153-.214.372-.32.657-.32.252 0 .45.102.59.307V35.25h.433V39h-.396l-.022-.283a.68.68 0 01-.608.332.757.757 0 01-.644-.318c-.155-.213-.234-.513-.237-.9v-.271zm.432.246c0 .296.044.515.132.654.088.139.231.208.43.208.215 0 .375-.108.48-.325V37.01c-.11-.211-.27-.317-.478-.317-.198 0-.342.07-.43.21-.087.138-.132.351-.134.64v.263zM47.28 39a.949.949 0 01-.056-.288c-.153.224-.349.337-.586.337-.24 0-.427-.067-.562-.2-.133-.135-.2-.325-.2-.57 0-.268.091-.481.273-.639.183-.158.432-.238.75-.242h.317v-.28c0-.158-.035-.27-.105-.337-.07-.067-.176-.1-.32-.1a.439.439 0 00-.317.117.384.384 0 00-.122.293h-.432c0-.135.04-.264.12-.386a.829.829 0 01.322-.29.967.967 0 01.451-.105c.27 0 .476.067.616.202.141.134.214.329.217.586v1.333c.002.204.03.38.083.53V39h-.45zm-.576-.344c.105 0 .206-.03.302-.088a.541.541 0 00.21-.22v-.63h-.244c-.205.003-.367.05-.486.14a.435.435 0 00-.178.37c0 .15.03.26.09.328.06.066.162.1.306.1zm2.898-.332a.32.32 0 00-.105-.24c-.07-.066-.206-.144-.406-.234a2.698 2.698 0 01-.493-.247.71.71 0 01-.212-.231.652.652 0 01-.071-.313c0-.215.078-.393.234-.535a.863.863 0 01.603-.214c.258 0 .464.074.62.224.157.15.235.342.235.576h-.43a.42.42 0 00-.425-.43.429.429 0 00-.3.1.338.338 0 00-.107.264c0 .088.026.16.078.213.053.053.181.124.383.212.32.126.539.248.654.369.116.119.174.27.174.454 0 .23-.08.413-.237.552-.158.136-.37.205-.635.205-.275 0-.498-.08-.669-.237a.782.782 0 01-.256-.6h.434c.005.146.05.26.135.344a.487.487 0 00.356.124c.143 0 .252-.032.327-.095a.33.33 0 00.113-.261zm2.575-1.695a.762.762 0 01.63-.32c.467 0 .704.312.71.936V39h-.43v-1.736c0-.207-.034-.353-.104-.44-.068-.087-.172-.131-.31-.131a.443.443 0 00-.29.107.781.781 0 00-.206.281V39h-.432v-3.75h.432v1.38zm1.895.928c0-.384.093-.688.278-.91a.916.916 0 01.74-.337.92.92 0 01.737.327c.187.218.283.515.288.89v.28c0 .382-.093.684-.278.907a.917.917 0 01-.742.335.923.923 0 01-.738-.325c-.184-.216-.279-.51-.285-.879v-.288zm.432.25c0 .271.053.485.159.641a.501.501 0 00.432.232c.38 0 .577-.275.588-.825v-.298c0-.27-.054-.483-.161-.64a.499.499 0 00-.432-.236.494.494 0 00-.427.236c-.106.157-.16.37-.16.638v.251zm2.6-1.178a.762.762 0 01.63-.32c.467 0 .704.312.71.936V39h-.43v-1.736c0-.207-.034-.353-.104-.44-.069-.087-.172-.131-.31-.131a.443.443 0 00-.29.107.78.78 0 00-.206.281V39h-.432v-3.75h.432v1.38zm2.93 2.42c-.33 0-.581-.098-.757-.293-.176-.197-.265-.485-.269-.864v-.32c0-.394.086-.703.257-.925.172-.225.412-.337.72-.337.31 0 .54.098.693.295.153.197.231.504.235.92v.284h-1.475v.06c0 .284.053.49.159.618.107.129.26.193.461.193a.75.75 0 00.335-.07.846.846 0 00.273-.23l.225.273c-.188.264-.473.396-.857.396zm-.05-2.368c-.178 0-.31.062-.397.185-.086.122-.135.313-.147.572h1.04v-.06c-.01-.25-.056-.429-.136-.536-.078-.108-.198-.161-.36-.161zm3.731.881h-.625V39h-.449v-3.555h.996c.349 0 .612.091.791.274.18.18.269.446.269.796 0 .22-.05.411-.147.576a.913.913 0 01-.41.368l.689 1.512V39h-.481l-.633-1.438zm-.625-.383h.542c.188 0 .336-.06.447-.181a.68.68 0 00.169-.483c0-.456-.207-.684-.62-.684h-.538v1.348zM65.703 39h-.433v-2.642h.433V39zm.034-3.342c0 .073-.02.134-.061.183-.04.049-.103.073-.186.073-.081 0-.142-.024-.183-.073a.276.276 0 01-.06-.183c0-.074.02-.135.06-.186.04-.05.102-.075.183-.075.082 0 .143.026.183.078.043.05.064.111.064.183zm1.931 2.666a.32.32 0 00-.105-.24c-.07-.066-.205-.144-.405-.234a2.693 2.693 0 01-.493-.247.71.71 0 01-.213-.231.652.652 0 01-.07-.313c0-.215.078-.393.234-.535a.863.863 0 01.603-.214c.257 0 .464.074.62.224.156.15.234.342.234.576h-.43a.42.42 0 00-.424-.43.429.429 0 00-.3.1.338.338 0 00-.108.264c0 .088.026.16.078.213.054.053.182.124.383.212.321.126.54.248.655.369.115.119.173.27.173.454 0 .23-.079.413-.237.552-.158.136-.37.205-.635.205-.274 0-.497-.08-.668-.237a.782.782 0 01-.257-.6h.435c.005.146.05.26.134.344a.487.487 0 00.356.124c.144 0 .253-.032.328-.095a.33.33 0 00.112-.261zM69.13 39h-.432v-2.642h.432V39zm.035-3.342c0 .073-.02.134-.062.183-.04.049-.102.073-.185.073-.081 0-.142-.024-.183-.073a.276.276 0 01-.061-.183c0-.074.02-.135.06-.186.042-.05.103-.075.184-.075s.142.026.183.078c.042.05.064.111.064.183zm1.31 2.133l-.229.264V39h-.432v-3.75h.432v2.244l.823-1.136h.517l-.84 1.104.95 1.538h-.503l-.717-1.209zm1.502-.234c0-.384.093-.688.278-.91a.916.916 0 01.74-.337.92.92 0 01.737.327c.188.218.284.515.288.89v.28c0 .382-.092.684-.278.907a.917.917 0 01-.742.335.923.923 0 01-.737-.325c-.184-.216-.28-.51-.286-.879v-.288zm.432.25c0 .271.053.485.159.641a.5.5 0 00.432.232c.38 0 .577-.275.588-.825v-.298c0-.27-.053-.483-.16-.64a.498.498 0 00-.433-.236.494.494 0 00-.427.236c-.106.157-.159.37-.159.638v.251zM4.267 45.048c-.329 0-.581-.098-.757-.293-.176-.197-.265-.485-.268-.864v-.32c0-.394.085-.703.256-.925.173-.225.413-.337.72-.337.31 0 .54.098.694.295.153.197.23.504.234.92v.284H3.671v.06c0 .284.053.49.16.618.107.129.26.193.46.193a.75.75 0 00.335-.07.846.846 0 00.273-.23l.225.273c-.187.264-.473.396-.857.396zm-.049-2.368c-.179 0-.311.062-.398.185-.086.122-.135.313-.146.572h1.04v-.06c-.012-.25-.057-.429-.137-.536-.078-.108-.198-.161-.359-.161zM6.132 45H5.7v-2.642h.432V45zm.035-3.342c0 .073-.02.134-.062.183-.04.049-.102.073-.185.073-.081 0-.142-.024-.183-.073a.276.276 0 01-.061-.183c0-.074.02-.135.06-.186.042-.05.103-.075.184-.075s.142.026.183.078c.042.05.064.111.064.183zm1.054.7l.012.286a.771.771 0 01.642-.334c.468 0 .704.311.71.935V45h-.429v-1.736c0-.207-.035-.353-.105-.44-.068-.087-.171-.131-.31-.131a.443.443 0 00-.29.107.78.78 0 00-.205.281V45h-.433v-2.642h.408zm2.415 2.273h1.274V45H9.143v-.332l1.21-1.936h-1.2v-.374h1.708v.32l-1.225 1.953zm3.144.137c-.143.187-.352.28-.627.28-.24 0-.42-.081-.542-.246-.122-.166-.184-.407-.186-.722v-1.722h.43v1.69c0 .412.124.617.371.617.262 0 .443-.117.542-.351v-1.956h.432V45h-.41l-.01-.232zm.984-1.208c0-.412.075-.723.225-.933.15-.212.368-.317.656-.317.27 0 .473.114.613.344l.022-.296h.39v2.666c0 .328-.083.578-.25.752-.168.176-.402.264-.701.264a1.2 1.2 0 01-.44-.098.912.912 0 01-.364-.236l.176-.298c.18.175.377.263.594.263.36 0 .544-.196.554-.588v-.344a.678.678 0 01-.596.31.753.753 0 01-.64-.308c-.153-.206-.232-.503-.239-.889v-.292zm.432.246c0 .296.043.515.13.654.088.139.23.208.43.208.214 0 .375-.11.483-.33v-1.32c-.113-.217-.272-.325-.479-.325-.198 0-.341.07-.43.21-.087.138-.132.351-.134.64v.263zm3.064 1.243c-.329 0-.58-.098-.757-.293-.175-.197-.265-.485-.268-.864v-.32c0-.394.085-.703.256-.925.173-.225.413-.337.72-.337.31 0 .54.098.694.295.153.197.23.504.234.92v.284h-1.474v.06c0 .284.052.49.158.618.108.129.261.193.462.193a.75.75 0 00.334-.07.846.846 0 00.274-.23l.224.273c-.187.264-.473.396-.857.396zm-.049-2.368c-.179 0-.311.062-.397.185-.087.122-.136.313-.147.572h1.04v-.06c-.011-.25-.057-.429-.137-.536-.078-.108-.197-.161-.359-.161zm1.88-.052a.762.762 0 01.63-.32c.467 0 .704.312.71.936V45h-.429v-1.736c0-.207-.035-.353-.105-.44-.068-.087-.172-.131-.31-.131a.443.443 0 00-.29.107.781.781 0 00-.206.281V45h-.432v-3.75h.432v1.38zm2.93 2.42c-.329 0-.581-.098-.757-.293-.176-.197-.265-.485-.268-.864v-.32c0-.394.085-.703.256-.925.172-.225.413-.337.72-.337.31 0 .54.098.694.295.152.197.23.504.234.92v.284h-1.475v.06c0 .284.053.49.159.618.107.129.261.193.461.193a.75.75 0 00.335-.07.846.846 0 00.273-.23l.225.273c-.187.264-.473.396-.857.396zm-.049-2.368c-.179 0-.312.062-.398.185-.086.122-.135.313-.146.572h1.04v-.06c-.012-.25-.057-.429-.137-.536-.078-.108-.198-.161-.359-.161zm1.856-.323l.012.286a.771.771 0 01.642-.334c.467 0 .704.311.71.935V45h-.43v-1.736c0-.207-.034-.353-.104-.44-.069-.087-.172-.131-.31-.131a.443.443 0 00-.29.107.78.78 0 00-.206.281V45h-.432v-2.642h.408zm2.019 3.35l-.257-.176c.153-.213.233-.433.24-.659v-.408h.442v.354c0 .165-.041.33-.123.493-.08.165-.18.297-.302.396zM28.498 45h-.447v-3.555h.447V45zm1.155-2.37a.762.762 0 01.63-.32c.467 0 .704.311.71.935V45h-.43v-1.736c0-.207-.034-.353-.104-.44-.069-.087-.172-.131-.31-.131a.443.443 0 00-.291.107.781.781 0 00-.205.281V45h-.432v-3.75h.432v1.38zm3.076.134a1.05 1.05 0 00-.195-.017c-.222 0-.376.12-.464.363V45h-.432v-2.642h.42l.007.269c.116-.212.28-.317.49-.317a.38.38 0 01.172.034l.002.42zm3.865 1.794l-.078.098c-.225.262-.554.393-.987.393-.384 0-.686-.127-.906-.381-.218-.256-.33-.616-.334-1.082v-.698c0-.498.1-.87.298-1.118.2-.249.499-.373.896-.373.339 0 .603.094.793.283.192.188.298.458.318.808h-.447c-.018-.222-.08-.394-.186-.518-.104-.125-.262-.188-.476-.188-.255 0-.442.084-.561.252-.119.166-.18.432-.186.798v.725c0 .358.069.633.205.825.137.19.333.286.589.286.24 0 .424-.059.55-.176l.065-.06v-.821h-.65v-.381h1.097v1.328zm1.614.49c-.33 0-.581-.097-.757-.292-.176-.197-.266-.485-.269-.864v-.32c0-.394.086-.703.256-.925.173-.225.413-.337.72-.337.31 0 .541.098.694.295.153.197.231.504.234.92v.284h-1.474v.06c0 .284.053.49.158.618.108.129.262.193.462.193a.75.75 0 00.334-.07.845.845 0 00.274-.23l.224.273c-.187.264-.472.396-.856.396zm-.05-2.367c-.178 0-.311.062-.397.185-.087.122-.135.313-.147.572h1.04v-.06c-.011-.25-.057-.429-.136-.536-.078-.108-.198-.161-.36-.161zM40.074 45h-.432v-3.75h.432V45zm.59-1.44c0-.407.076-.717.228-.93.153-.214.372-.32.656-.32.253 0 .45.102.591.307V41.25h.432V45h-.395l-.022-.283a.68.68 0 01-.608.332.757.757 0 01-.645-.318c-.154-.213-.233-.513-.236-.9v-.271zm.433.246c0 .296.044.515.132.654.087.139.23.208.43.208.214 0 .374-.108.48-.325V43.01c-.11-.211-.27-.317-.478-.317-.199 0-.342.07-.43.21-.088.138-.133.351-.134.64v.263zm3.686.825h1.275V45h-1.768v-.332l1.211-1.936h-1.201v-.374h1.709v.32l-1.226 1.953zm3.145.137c-.144.187-.353.28-.628.28-.239 0-.42-.081-.542-.246-.122-.166-.184-.407-.185-.722v-1.722h.43v1.69c0 .412.123.617.37.617.263 0 .443-.117.543-.351v-1.956h.432V45h-.41l-.01-.232zm2.966-.425l.5-1.985h.44L51.049 45h-.322l-.793-2.642h.439l.52 1.985zm2.334.706c-.329 0-.581-.098-.757-.293-.176-.197-.265-.485-.268-.864v-.32c0-.394.085-.703.256-.925.172-.225.413-.337.72-.337.31 0 .54.098.694.295.153.197.23.504.234.92v.284h-1.475v.06c0 .284.053.49.159.618.108.129.261.193.462.193a.75.75 0 00.334-.07.846.846 0 00.273-.23l.225.273c-.187.264-.473.396-.857.396zm-.049-2.368c-.179 0-.311.062-.398.185-.086.122-.135.313-.146.572h1.04v-.06c-.012-.25-.057-.429-.137-.536-.078-.108-.198-.161-.359-.161zm2.54.083a1.05 1.05 0 00-.196-.017c-.221 0-.376.12-.464.363V45h-.432v-2.642h.42l.007.269c.116-.212.28-.317.49-.317a.38.38 0 01.172.034l.002.42zM56.615 45h-.432v-3.75h.432V45zm1.147 0h-.432v-2.642h.432V45zm.034-3.342c0 .073-.02.134-.06.183-.041.049-.103.073-.186.073-.082 0-.143-.024-.183-.073a.276.276 0 01-.061-.183c0-.074.02-.135.06-.186.041-.05.102-.075.184-.075.081 0 .142.026.183.078.042.05.063.111.063.183zm1.592 3.39c-.329 0-.58-.097-.757-.292-.175-.197-.265-.485-.268-.864v-.32c0-.394.085-.703.256-.925.173-.225.413-.337.72-.337.31 0 .54.098.694.295.153.197.23.504.234.92v.284h-1.474v.06c0 .284.052.49.158.618.108.129.261.193.462.193a.75.75 0 00.334-.07.846.846 0 00.274-.23l.224.273c-.187.264-.473.396-.857.396zm-.049-2.367c-.179 0-.311.062-.398.185-.086.122-.135.313-.146.572h1.04v-.06c-.011-.25-.057-.429-.137-.536-.078-.108-.197-.161-.359-.161zm2.54.083a1.05 1.05 0 00-.196-.017c-.221 0-.376.12-.464.363V45h-.432v-2.642h.42l.007.269c.116-.212.28-.317.491-.317a.38.38 0 01.171.034l.002.42zm1.376 2.285c-.328 0-.58-.098-.757-.293-.175-.197-.265-.485-.268-.864v-.32c0-.394.085-.703.256-.925.173-.225.413-.337.72-.337.31 0 .54.098.694.295.153.197.231.504.234.92v.284h-1.474v.06c0 .284.053.49.158.618.108.129.262.193.462.193a.75.75 0 00.334-.07.846.846 0 00.274-.23l.224.273c-.187.264-.472.396-.857.396zm-.048-2.368c-.18 0-.312.062-.398.185-.087.122-.136.313-.147.572h1.04v-.06c-.011-.25-.057-.429-.137-.536-.078-.108-.197-.161-.358-.161zm1.855-.323l.012.286a.771.771 0 01.642-.334c.467 0 .704.311.71.935V45h-.429v-1.736c0-.207-.035-.353-.105-.44-.068-.087-.172-.131-.31-.131a.443.443 0 00-.29.107.78.78 0 00-.206.281V45h-.432v-2.642h.408zm2.043 2.405c0-.078.023-.143.069-.195.047-.052.117-.078.21-.078.093 0 .162.026.21.078a.274.274 0 01.073.195.26.26 0 01-.073.188c-.047.05-.117.076-.21.076-.093 0-.163-.025-.21-.076a.27.27 0 01-.069-.188z" fill="#000"/></svg>