<svg width="67" height="50" viewBox="0 0 67 50" fill="none" xmlns="http://www.w3.org/2000/svg"><path fill="#fff" d="M0 0h67v50H0z"/><path d="M7 21.173h6.064v1.792h-3.96v1.248h3.58v1.699h-3.58v2.623H7v-7.362z" fill="#12225C"/><path fill-rule="evenodd" clip-rule="evenodd" d="M23.466 21.173h3.628c1.17 0 1.99.3 2.508.798.446.416.675.994.675 1.71v.023c0 1.121-.627 1.872-1.58 2.265l1.833 2.566h-2.46l-1.542-2.23H25.588v2.23h-2.134v-7.362h.012zm3.532 3.537c.723 0 1.145-.335 1.145-.879v-.023c0-.578-.434-.878-1.157-.878h-1.398v1.768h1.41v.012z" fill="#12225C"/><path d="M31.272 21.173h6.1v1.734h-4.02v1.12h3.64v1.607h-3.64v1.168h4.067v1.733h-6.147v-7.362zM40.713 24.79l-2.497-3.617h2.413l1.344 2.069 1.355-2.069h2.355l-2.485 3.595 2.604 3.767h-2.414l-1.45-2.219-1.463 2.219h-2.366l2.604-3.744zM47.859 25.045c0-.844.666-1.549 1.617-1.549.618 0 1.034.266 1.296.659l-.725.52c-.143-.197-.31-.312-.56-.312-.344 0-.594.289-.594.647v.012c0 .381.25.67.607.67.25 0 .416-.116.582-.3l.714.496c-.286.405-.678.67-1.344.67-.927.012-1.593-.681-1.593-1.513" fill="#12225C"/><path fill-rule="evenodd" clip-rule="evenodd" d="M51.432 25.045c0-.844.712-1.549 1.7-1.549.976 0 1.688.694 1.688 1.526v.011c0 .832-.712 1.537-1.7 1.537-.976 0-1.688-.693-1.688-1.525m2.339 0c0-.37-.277-.67-.651-.67a.63.63 0 00-.639.647v.011a.65.65 0 00.65.659c.399 0 .64-.3.64-.647" fill="#12225C"/><path d="M55.393 23.554h1.058v.404c.19-.242.476-.462.904-.462.404 0 .713.174.868.474.261-.289.57-.474 1.01-.474.643 0 1.035.393 1.035 1.075v1.93H59.21v-1.607c0-.323-.167-.485-.416-.485-.25 0-.44.174-.44.486v1.594h-1.047v-1.595c0-.323-.166-.485-.416-.485-.25 0-.428.174-.428.486v1.594h-1.058v-2.935h-.012z" fill="#12225C"/><path fill-rule="evenodd" clip-rule="evenodd" d="M21.622 24.837c0-.074-.002-.147-.005-.22h.909l.24-.67h-1.223C21.208 22.113 19.803 21 17.68 21c-2.387 0-3.93 1.526-3.93 3.883 0 2.38 1.495 3.849 3.93 3.837 1.985 0 3.393-1.047 3.812-2.762h.829l.253-.67h-.972c.013-.147.02-.297.02-.451zm-3.894 2.82c-1.23 0-1.712-1.248-1.712-2.797 0-1.549.386-2.785 1.628-2.797.977 0 1.481.781 1.648 1.884h-1.057l-.241.67h1.357a6.93 6.93 0 01-.006.67h-1.303l-.254.67h1.487c-.167 1.005-.616 1.7-1.547 1.7z" fill="#14964F"/><path d="M46.385 25.946c0-.15.059-.266.166-.381a.547.547 0 01.392-.162c.155 0 .286.058.393.162a.517.517 0 010 .763.537.537 0 01-.393.15.537.537 0 01-.392-.15c-.119-.093-.166-.22-.166-.382" fill="#12225C"/></svg>