<svg width="120" height="40" viewBox="0 0 120 40" fill="none" xmlns="http://www.w3.org/2000/svg"><path fill="#fff" d="M0 0h120v40H0z"/><path d="M12 13.326h10.821v3.364h-7.065v2.344h6.386v3.191h-6.386v4.928H12V13.326z" fill="#12225C"/><path fill-rule="evenodd" clip-rule="evenodd" d="M41.383 13.326h6.475c2.087 0 3.55.564 4.475 1.497.795.782 1.204 1.867 1.204 3.213v.043c0 2.106-1.119 3.517-2.818 4.255l3.27 4.819H49.6l-2.753-4.19H45.17v4.19h-3.807V13.326h.021zm6.303 6.642c1.29 0 2.044-.63 2.044-1.65v-.043c0-1.086-.775-1.65-2.065-1.65h-2.496v3.321h2.517v.022z" fill="#12225C"/><path d="M55.313 13.326h10.884v3.255h-7.171v2.106h6.492v3.017h-6.492v2.193h7.256v3.256h-10.97V13.326zM72.16 20.12l-4.456-6.794h4.307l2.398 3.885 2.418-3.885h4.202l-4.435 6.75 4.647 7.077h-4.307l-2.589-4.168-2.61 4.168h-4.222l4.647-7.033zM84.912 20.597c0-1.585 1.188-2.909 2.885-2.909 1.103 0 1.846.5 2.313 1.238l-1.294.977c-.255-.37-.552-.587-.998-.587-.615 0-1.06.543-1.06 1.216v.022c0 .716.445 1.259 1.082 1.259.445 0 .742-.217 1.04-.565l1.272.934c-.509.76-1.209 1.259-2.397 1.259-1.655.021-2.843-1.281-2.843-2.844" fill="#12225C"/><path fill-rule="evenodd" clip-rule="evenodd" d="M91.288 20.597c0-1.585 1.27-2.909 3.033-2.909 1.743 0 3.012 1.303 3.012 2.866v.021c0 1.563-1.27 2.887-3.033 2.887-1.742 0-3.011-1.302-3.011-2.865m4.172 0c0-.695-.494-1.259-1.161-1.259-.688 0-1.14.565-1.14 1.216v.021c0 .673.495 1.238 1.161 1.238.71 0 1.14-.565 1.14-1.216" fill="#12225C"/><path d="M98.356 17.797h1.889v.76c.339-.456.848-.869 1.612-.869.722 0 1.273.326 1.549.89.467-.542 1.019-.89 1.804-.89 1.145 0 1.846.739 1.846 2.02v3.624h-1.889v-3.017c0-.608-.297-.912-.742-.912-.446 0-.785.326-.785.912v2.995h-1.868v-2.995c0-.608-.297-.912-.742-.912-.446 0-.764.326-.764.912v2.995h-1.889v-5.513h-.02z" fill="#12225C"/><path fill-rule="evenodd" clip-rule="evenodd" d="M38.092 20.207c0-.14-.002-.277-.008-.413h1.622l.43-1.259h-2.184C37.353 15.091 34.846 13 31.058 13c-4.259 0-7.012 2.865-7.012 7.293 0 4.472 2.667 7.229 7.012 7.207 3.542 0 6.055-1.967 6.802-5.188h1.48l.452-1.259h-1.735c.023-.275.035-.557.035-.846zm-6.948 5.296c-2.194 0-3.054-2.344-3.054-5.253 0-2.909.688-5.231 2.904-5.253 1.743 0 2.643 1.466 2.94 3.538h-1.886l-.43 1.26h2.423a16.579 16.579 0 01-.011 1.259h-2.326l-.452 1.258h2.653c-.298 1.887-1.1 3.19-2.76 3.19z" fill="#14964F"/><path d="M82.28 22.29c0-.282.107-.499.298-.716a.952.952 0 01.7-.304c.276 0 .51.109.7.304a.995.995 0 01.297.716.995.995 0 01-.297.716.932.932 0 01-.7.283.932.932 0 01-.7-.283c-.212-.173-.297-.412-.297-.716" fill="#12225C"/></svg>