<svg width="84" height="25" viewBox="0 0 84 25" fill="none" xmlns="http://www.w3.org/2000/svg"><path d="M1.489 5.82c-.313 0-.583-.11-.81-.33-.227-.227-.34-.5-.34-.82 0-.327.113-.6.34-.82.227-.227.497-.34.81-.34.327 0 .6.113.82.34.227.22.34.493.34.82 0 .32-.113.593-.34.82-.22.22-.493.33-.82.33zm12.361.52h-3.18L10.06 8h-.74l2.55-6.9h.79L15.2 8h-.74l-.61-1.66zm-.21-.58l-1.38-3.78-1.38 3.78h2.76zm9.883-3.22L21.813 8h-.7l-1.51-4.58L18.093 8h-.71l-1.71-5.46h.71l1.36 4.75 1.53-4.75h.7l1.51 4.76 1.35-4.76h.69zm.635 2.72c0-.56.11-1.05.33-1.47.226-.427.536-.753.93-.98.4-.233.85-.35 1.35-.35.52 0 .966.12 1.34.36.38.24.653.547.82.92v-1.2h.7V8h-.7V6.79c-.174.373-.45.683-.83.93-.374.24-.82.36-1.34.36a2.61 2.61 0 01-1.34-.35 2.47 2.47 0 01-.93-.99c-.22-.427-.33-.92-.33-1.48zm4.77.01c0-.44-.09-.827-.27-1.16a1.916 1.916 0 00-.74-.77 1.977 1.977 0 00-1.02-.27c-.387 0-.734.087-1.04.26-.307.173-.55.427-.73.76-.174.327-.26.717-.26 1.17 0 .447.086.84.26 1.18.18.333.423.59.73.77.306.173.653.26 1.04.26.373 0 .713-.09 1.02-.27.313-.18.56-.437.74-.77.18-.333.27-.72.27-1.16zm2.998-1.76c.153-.34.386-.603.7-.79.32-.187.71-.28 1.17-.28v.73h-.19c-.507 0-.914.137-1.22.41-.307.273-.46.73-.46 1.37V8h-.7V2.54h.7v.97zm2.603 1.75c0-.56.113-1.05.34-1.47.227-.427.537-.753.93-.98.4-.233.85-.35 1.35-.35.48 0 .913.117 1.3.35.387.233.67.537.85.91V.6h.7V8h-.7V6.78c-.167.38-.44.693-.82.94-.38.24-.827.36-1.34.36-.5 0-.95-.117-1.35-.35a2.47 2.47 0 01-.93-.99c-.22-.427-.33-.92-.33-1.48zm4.77.01c0-.44-.09-.827-.27-1.16a1.916 1.916 0 00-.74-.77 1.977 1.977 0 00-1.02-.27c-.387 0-.733.087-1.04.26-.307.173-.55.427-.73.76-.174.327-.26.717-.26 1.17 0 .447.087.84.26 1.18.18.333.423.59.73.77.306.173.653.26 1.04.26.373 0 .713-.09 1.02-.27.313-.18.56-.437.74-.77.18-.333.27-.72.27-1.16zM44.987 4v.59h-3.89V4h3.89zm8.995-1.46L52.272 8h-.7l-1.51-4.58L48.552 8h-.71l-1.71-5.46h.71l1.36 4.75 1.53-4.75h.7l1.51 4.76 1.35-4.76h.69zm1.305-1.03c-.14 0-.26-.05-.36-.15a.503.503 0 01-.15-.37.47.47 0 01.15-.36c.1-.1.22-.15.36-.15.14 0 .26.05.36.15.1.093.15.213.15.36s-.05.27-.15.37c-.1.1-.22.15-.36.15zm.35 1.03V8h-.7V2.54h.7zm4.145-.1c.653 0 1.187.203 1.6.61.413.4.62.983.62 1.75V8h-.69V4.88c0-.593-.15-1.047-.45-1.36-.294-.313-.697-.47-1.21-.47-.527 0-.947.167-1.26.5-.314.333-.47.823-.47 1.47V8h-.7V2.54h.7v.93c.173-.333.423-.587.75-.76.327-.18.697-.27 1.11-.27zm6.328 0c.653 0 1.187.203 1.6.61.413.4.62.983.62 1.75V8h-.69V4.88c0-.593-.15-1.047-.45-1.36-.293-.313-.697-.47-1.21-.47-.527 0-.947.167-1.26.5-.313.333-.47.823-.47 1.47V8h-.7V2.54h.7v.93c.173-.333.423-.587.75-.76.327-.18.697-.27 1.11-.27zm4.118-.93c-.14 0-.26-.05-.36-.15a.503.503 0 01-.15-.37.47.47 0 01.15-.36c.1-.1.22-.15.36-.15.14 0 .26.05.36.15.1.093.15.213.15.36s-.05.27-.15.37c-.1.1-.22.15-.36.15zm.35 1.03V8h-.7V2.54h.7zm4.145-.1c.654 0 1.187.203 1.6.61.414.4.62.983.62 1.75V8h-.69V4.88c0-.593-.15-1.047-.45-1.36-.293-.313-.696-.47-1.21-.47-.526 0-.946.167-1.26.5-.313.333-.47.823-.47 1.47V8h-.7V2.54h.7v.93c.174-.333.424-.587.75-.76.327-.18.697-.27 1.11-.27zm6.058.02c.514 0 .96.12 1.34.36.38.24.654.543.82.91V2.54h.7v5.6c0 .5-.11.943-.33 1.33a2.184 2.184 0 01-.9.89c-.386.213-.826.32-1.32.32-.7 0-1.283-.167-1.75-.5a2.127 2.127 0 01-.86-1.36h.69c.12.38.347.683.68.91.34.227.754.34 1.24.34.354 0 .67-.077.95-.23.28-.147.5-.367.66-.66.16-.293.24-.64.24-1.04V6.79c-.173.373-.45.683-.83.93-.373.24-.816.36-1.33.36-.5 0-.95-.117-1.35-.35a2.47 2.47 0 01-.93-.99c-.22-.427-.33-.92-.33-1.48 0-.56.11-1.05.33-1.47.227-.427.537-.753.93-.98.4-.233.85-.35 1.35-.35zm2.16 2.81c0-.44-.09-.827-.27-1.16a1.916 1.916 0 00-.74-.77 1.978 1.978 0 00-1.02-.27c-.386 0-.733.087-1.04.26-.306.173-.55.427-.73.76-.173.327-.26.717-.26 1.17 0 .447.087.84.26 1.18.18.333.424.59.73.77.307.173.654.26 1.04.26.374 0 .714-.09 1.02-.27.314-.18.56-.437.74-.77.18-.333.27-.72.27-1.16zM10.49 17.74c.173-.367.447-.67.82-.91.38-.247.83-.37 1.35-.37.493 0 .937.117 1.33.35.4.227.71.553.93.98.227.42.34.91.34 1.47 0 .56-.113 1.053-.34 1.48-.22.427-.53.757-.93.99-.393.233-.837.35-1.33.35-.513 0-.96-.12-1.34-.36a2.23 2.23 0 01-.83-.92v3.78H9.8v-8.04h.69v1.2zm4.06 1.52c0-.453-.09-.843-.27-1.17a1.804 1.804 0 00-.72-.76 2.077 2.077 0 00-1.04-.26c-.373 0-.717.09-1.03.27-.307.18-.55.437-.73.77-.18.333-.27.72-.27 1.16 0 .44.09.827.27 1.16.18.333.423.59.73.77.313.18.657.27 1.03.27.387 0 .733-.087 1.04-.26a1.87 1.87 0 00.72-.77c.18-.34.27-.733.27-1.18zm2.698-4.66V22h-.7v-7.4h.7zm1.265 4.66c0-.56.11-1.05.33-1.47.227-.427.537-.753.93-.98.4-.233.85-.35 1.35-.35.52 0 .967.12 1.34.36.38.24.653.547.82.92v-1.2h.7V22h-.7v-1.21c-.173.373-.45.683-.83.93-.373.24-.82.36-1.34.36a2.61 2.61 0 01-1.34-.35 2.47 2.47 0 01-.93-.99c-.22-.427-.33-.92-.33-1.48zm4.77.01c0-.44-.09-.827-.27-1.16a1.917 1.917 0 00-.74-.77 1.978 1.978 0 00-1.02-.27c-.387 0-.733.087-1.04.26-.306.173-.55.427-.73.76-.173.327-.26.717-.26 1.17 0 .447.087.84.26 1.18.18.333.424.59.73.77.307.173.653.26 1.04.26.373 0 .713-.09 1.02-.27.314-.18.56-.437.74-.77.18-.333.27-.72.27-1.16zm3.208-2.14v3.39c0 .333.064.563.19.69.127.127.35.19.67.19h.64v.6h-.75c-.493 0-.86-.113-1.1-.34-.24-.233-.36-.613-.36-1.14v-3.39h-.76v-.59h.76v-1.37h.71v1.37h1.5v.59h-1.5zm4.805 0h-1.27V22h-.7v-4.87h-.76v-.59h.76v-.38c0-.593.15-1.03.45-1.31.306-.28.8-.42 1.48-.42v.6c-.454 0-.774.087-.96.26-.18.173-.27.463-.27.87v.38h1.27v.59zm3.492 4.95c-.514 0-.977-.113-1.39-.34a2.584 2.584 0 01-.97-.98c-.234-.427-.35-.923-.35-1.49s.12-1.06.36-1.48c.24-.427.566-.753.98-.98.413-.233.876-.35 1.39-.35.513 0 .976.117 1.39.35.42.227.746.553.98.98.24.42.36.913.36 1.48 0 .56-.12 1.053-.36 1.48-.24.427-.57.757-.99.99a2.9 2.9 0 01-1.4.34zm0-.61c.36 0 .693-.08 1-.24a1.88 1.88 0 00.74-.74c.193-.333.29-.74.29-1.22s-.094-.883-.28-1.21a1.798 1.798 0 00-.74-.74 2.06 2.06 0 00-1-.25c-.36 0-.694.083-1 .25-.307.16-.554.407-.74.74-.18.327-.27.73-.27 1.21s.09.887.27 1.22a1.9 1.9 0 00.73.74c.306.16.64.24 1 .24zm4.726-3.96c.153-.34.386-.603.7-.79.32-.187.71-.28 1.17-.28v.73h-.19c-.507 0-.914.137-1.22.41-.307.273-.46.73-.46 1.37V22h-.7v-5.46h.7v.97zm9.423-1.07c.64 0 1.16.203 1.56.61.406.4.61.983.61 1.75V22h-.69v-3.12c0-.593-.144-1.047-.43-1.36-.287-.313-.677-.47-1.17-.47-.514 0-.924.17-1.23.51-.307.34-.46.833-.46 1.48V22h-.69v-3.12c0-.593-.144-1.047-.43-1.36-.287-.313-.68-.47-1.18-.47-.514 0-.924.17-1.23.51-.307.34-.46.833-.46 1.48V22h-.7v-5.46h.7v.94c.173-.34.42-.597.74-.77.32-.18.676-.27 1.07-.27.473 0 .886.113 1.24.34.36.227.62.56.78 1 .146-.433.396-.763.75-.99.36-.233.766-.35 1.22-.35zm5.604 5.64c-.626 0-1.14-.143-1.54-.43a1.606 1.606 0 01-.66-1.19h.72c.034.307.177.557.43.75.26.187.607.28 1.04.28.38 0 .677-.09.89-.27.22-.18.33-.403.33-.67 0-.187-.06-.34-.18-.46a1.218 1.218 0 00-.46-.28 5.942 5.942 0 00-.74-.23 7.582 7.582 0 01-.99-.32 1.753 1.753 0 01-.65-.47c-.173-.213-.26-.497-.26-.85 0-.267.08-.513.24-.74.16-.227.387-.407.68-.54.294-.133.627-.2 1-.2.587 0 1.06.15 1.42.45.36.293.554.7.58 1.22h-.7a1.04 1.04 0 00-.38-.77c-.226-.2-.54-.3-.94-.3-.353 0-.64.083-.86.25-.22.167-.33.373-.33.62 0 .213.064.39.19.53.134.133.297.24.49.32.194.073.454.157.78.25.394.107.707.21.94.31.234.1.434.247.6.44.167.193.254.45.26.77 0 .293-.08.557-.24.79-.16.227-.383.407-.67.54-.286.133-.616.2-.99.2z" fill="#fff"/></svg>