<svg width="98" height="39" viewBox="0 0 98 39" fill="none" xmlns="http://www.w3.org/2000/svg"><path d="M1.489 5.82c-.313 0-.583-.11-.81-.33-.227-.227-.34-.5-.34-.82 0-.327.113-.6.34-.82.227-.227.497-.34.81-.34.327 0 .6.113.82.34.227.22.34.493.34.82 0 .32-.113.593-.34.82-.22.22-.493.33-.82.33zM9.51 7.45c1.227-.92 2.173-1.743 2.84-2.47.673-.733 1.01-1.45 1.01-2.15 0-.46-.117-.827-.35-1.1-.227-.28-.6-.42-1.12-.42-.507 0-.9.16-1.18.48-.273.313-.427.733-.46 1.26h-.68c.04-.74.267-1.313.68-1.72.42-.413.967-.62 1.64-.62.647 0 1.17.183 1.57.55.4.36.6.873.6 1.54 0 .807-.337 1.59-1.01 2.35-.667.753-1.49 1.49-2.47 2.21h3.7v.59H9.51v-.5zm5.863-3.1c0-1.147.176-2.037.53-2.67.353-.633.986-.95 1.9-.95.913 0 1.546.317 1.9.95.353.633.53 1.523.53 2.67 0 1.167-.177 2.07-.53 2.71-.354.64-.987.96-1.9.96-.92 0-1.557-.32-1.91-.96-.347-.64-.52-1.543-.52-2.71zm4.17 0c0-.62-.044-1.143-.13-1.57-.087-.427-.257-.77-.51-1.03-.254-.26-.62-.39-1.1-.39-.48 0-.847.13-1.1.39-.254.26-.424.603-.51 1.03-.087.427-.13.95-.13 1.57 0 .64.043 1.177.13 1.61.086.427.256.77.51 1.03.253.26.62.39 1.1.39.48 0 .846-.13 1.1-.39.253-.26.423-.603.51-1.03.086-.433.13-.97.13-1.61zm9.386-1.81l-3.24 8.03h-.73l1.06-2.6-2.24-5.43h.77l1.86 4.66 1.8-4.66h.72zm5.89 2.45c0 .24-.008.423-.02.55h-4.53c.02.413.12.767.3 1.06.18.293.416.517.71.67.293.147.613.22.96.22.453 0 .833-.11 1.14-.33.313-.22.52-.517.62-.89h.74c-.134.533-.42.97-.86 1.31-.434.333-.98.5-1.64.5-.514 0-.974-.113-1.38-.34a2.514 2.514 0 01-.96-.98c-.227-.427-.34-.923-.34-1.49s.113-1.063.34-1.49c.226-.427.543-.753.95-.98.406-.227.87-.34 1.39-.34.52 0 .973.113 1.36.34.393.227.693.533.9.92.212.38.32.803.32 1.27zm-.71-.02c.006-.407-.078-.753-.25-1.04a1.621 1.621 0 00-.69-.65 2.116 2.116 0 00-.96-.22c-.52 0-.964.167-1.33.5-.367.333-.57.803-.61 1.41h3.84zm1.67.29c0-.56.11-1.05.33-1.47.227-.427.536-.753.93-.98.4-.233.85-.35 1.35-.35.52 0 .966.12 1.34.36.38.24.653.547.82.92v-1.2h.7V8h-.7V6.79c-.173.373-.45.683-.83.93-.373.24-.82.36-1.34.36a2.61 2.61 0 01-1.34-.35 2.47 2.47 0 01-.93-.99c-.22-.427-.33-.92-.33-1.48zm4.77.01c0-.44-.09-.827-.27-1.16a1.916 1.916 0 00-.74-.77 1.977 1.977 0 00-1.02-.27c-.387 0-.733.087-1.04.26-.307.173-.55.427-.73.76-.174.327-.26.717-.26 1.17 0 .447.087.84.26 1.18.18.333.423.59.73.77.306.173.653.26 1.04.26.373 0 .713-.09 1.02-.27.313-.18.56-.437.74-.77.18-.333.27-.72.27-1.16zm2.998-1.76c.153-.34.387-.603.7-.79.32-.187.71-.28 1.17-.28v.73h-.19c-.507 0-.913.137-1.22.41-.307.273-.46.73-.46 1.37V8h-.7V2.54h.7v.97zm4.803 4.57c-.627 0-1.14-.143-1.54-.43a1.606 1.606 0 01-.66-1.19h.72c.033.307.177.557.43.75.26.187.607.28 1.04.28.38 0 .677-.09.89-.27.22-.18.33-.403.33-.67 0-.187-.06-.34-.18-.46a1.218 1.218 0 00-.46-.28 5.937 5.937 0 00-.74-.23 7.582 7.582 0 01-.99-.32 1.753 1.753 0 01-.65-.47c-.173-.213-.26-.497-.26-.85 0-.267.08-.513.24-.74.16-.227.387-.407.68-.54.293-.133.627-.2 1-.2.587 0 1.06.15 1.42.45.36.293.553.7.58 1.22h-.7a1.04 1.04 0 00-.38-.77c-.227-.2-.54-.3-.94-.3-.353 0-.64.083-.86.25-.22.167-.33.373-.33.62 0 .213.063.39.19.53.133.133.297.24.49.32.193.073.453.157.78.25.393.107.707.21.94.31.233.1.433.247.6.44.167.193.253.45.26.77 0 .293-.08.557-.24.79-.16.227-.383.407-.67.54-.287.133-.617.2-.99.2zM14.74 18.99c0 .24-.007.423-.02.55h-4.53c.02.413.12.767.3 1.06.18.293.417.517.71.67.293.147.613.22.96.22.453 0 .833-.11 1.14-.33.313-.22.52-.517.62-.89h.74c-.133.533-.42.97-.86 1.31-.433.333-.98.5-1.64.5-.513 0-.973-.113-1.38-.34a2.512 2.512 0 01-.96-.98c-.227-.427-.34-.923-.34-1.49s.113-1.063.34-1.49c.227-.427.543-.753.95-.98.407-.227.87-.34 1.39-.34.52 0 .973.113 1.36.34.393.227.693.533.9.92.213.38.32.803.32 1.27zm-.71-.02c.007-.407-.077-.753-.25-1.04a1.623 1.623 0 00-.69-.65 2.116 2.116 0 00-.96-.22c-.52 0-.963.167-1.33.5-.367.333-.57.803-.61 1.41h3.84zM18.88 22l-1.41-2.2-1.36 2.2h-.74l1.76-2.73-1.74-2.73h.79l1.39 2.17 1.35-2.17h.73l-1.74 2.7L19.67 22h-.79zm2.43-4.26c.174-.367.447-.67.82-.91.38-.247.83-.37 1.35-.37.494 0 .937.117 1.33.35.4.227.71.553.93.98.227.42.34.91.34 1.47 0 .56-.113 1.053-.34 1.48-.22.427-.53.757-.93.99-.393.233-.836.35-1.33.35-.513 0-.96-.12-1.34-.36a2.23 2.23 0 01-.83-.92v3.78h-.69v-8.04h.69v1.2zm4.06 1.52c0-.453-.09-.843-.27-1.17a1.804 1.804 0 00-.72-.76 2.077 2.077 0 00-1.04-.26c-.373 0-.716.09-1.03.27-.306.18-.55.437-.73.77-.18.333-.27.72-.27 1.16 0 .44.09.827.27 1.16.18.333.424.59.73.77.314.18.657.27 1.03.27.387 0 .734-.087 1.04-.26a1.87 1.87 0 00.72-.77c.18-.34.27-.733.27-1.18zm6.938-.27c0 .24-.006.423-.02.55h-4.53c.02.413.12.767.3 1.06.18.293.417.517.71.67.294.147.614.22.96.22.454 0 .834-.11 1.14-.33.314-.22.52-.517.62-.89h.74c-.133.533-.42.97-.86 1.31-.433.333-.98.5-1.64.5-.513 0-.973-.113-1.38-.34a2.512 2.512 0 01-.96-.98c-.226-.427-.34-.923-.34-1.49s.114-1.063.34-1.49c.227-.427.544-.753.95-.98.407-.227.87-.34 1.39-.34.52 0 .974.113 1.36.34.394.227.694.533.9.92.214.38.32.803.32 1.27zm-.71-.02c.007-.407-.076-.753-.25-1.04a1.623 1.623 0 00-.69-.65 2.116 2.116 0 00-.96-.22c-.52 0-.963.167-1.33.5-.366.333-.57.803-.61 1.41h3.84zm2.691-1.46c.153-.34.387-.603.7-.79.32-.187.71-.28 1.17-.28v.73h-.19c-.507 0-.913.137-1.22.41-.307.273-.46.73-.46 1.37V22h-.7v-5.46h.7v.97zm3.273-2c-.14 0-.26-.05-.36-.15a.503.503 0 01-.15-.37.47.47 0 01.15-.36c.1-.1.22-.15.36-.15.14 0 .26.05.36.15.1.093.15.213.15.36s-.05.27-.15.37c-.1.1-.22.15-.36.15zm.35 1.03V22h-.7v-5.46h.7zm6.525 2.45c0 .24-.006.423-.02.55h-4.53c.02.413.12.767.3 1.06.18.293.417.517.71.67.294.147.614.22.96.22.454 0 .834-.11 1.14-.33.314-.22.52-.517.62-.89h.74c-.133.533-.42.97-.86 1.31-.433.333-.98.5-1.64.5-.513 0-.973-.113-1.38-.34a2.512 2.512 0 01-.96-.98c-.226-.427-.34-.923-.34-1.49s.114-1.063.34-1.49c.227-.427.544-.753.95-.98.407-.227.87-.34 1.39-.34.52 0 .974.113 1.36.34.394.227.694.533.9.92.214.38.32.803.32 1.27zm-.71-.02c.007-.407-.076-.753-.25-1.04a1.623 1.623 0 00-.69-.65 2.116 2.116 0 00-.96-.22c-.52 0-.963.167-1.33.5-.366.333-.57.803-.61 1.41h3.84zm4.551-2.53c.653 0 1.187.203 1.6.61.413.4.62.983.62 1.75V22h-.69v-3.12c0-.593-.15-1.047-.45-1.36-.293-.313-.697-.47-1.21-.47-.527 0-.947.167-1.26.5-.313.333-.47.823-.47 1.47V22h-.7v-5.46h.7v.93c.173-.333.423-.587.75-.76.327-.18.697-.27 1.11-.27zm3.448 2.83c0-.567.113-1.06.34-1.48.227-.427.54-.753.94-.98.4-.233.857-.35 1.37-.35.673 0 1.227.167 1.66.5.44.333.723.787.85 1.36h-.75a1.507 1.507 0 00-.61-.92c-.307-.227-.69-.34-1.15-.34-.367 0-.697.083-.99.25a1.778 1.778 0 00-.7.75c-.167.327-.25.73-.25 1.21s.083.887.25 1.22c.173.333.407.583.7.75.293.167.623.25.99.25.46 0 .843-.11 1.15-.33.313-.227.517-.54.61-.94h.75a2.29 2.29 0 01-.85 1.35c-.44.34-.993.51-1.66.51a2.73 2.73 0 01-1.37-.34c-.4-.233-.713-.56-.94-.98-.227-.427-.34-.923-.34-1.49zm11.393-.28c0 .24-.007.423-.02.55h-4.53c.02.413.12.767.3 1.06.18.293.417.517.71.67.293.147.613.22.96.22.453 0 .833-.11 1.14-.33.313-.22.52-.517.62-.89h.74c-.133.533-.42.97-.86 1.31-.433.333-.98.5-1.64.5-.513 0-.973-.113-1.38-.34a2.512 2.512 0 01-.96-.98c-.227-.427-.34-.923-.34-1.49s.113-1.063.34-1.49c.227-.427.543-.753.95-.98.407-.227.87-.34 1.39-.34.52 0 .973.113 1.36.34.393.227.693.533.9.92.213.38.32.803.32 1.27zm-.71-.02c.007-.407-.077-.753-.25-1.04a1.623 1.623 0 00-.69-.65 2.116 2.116 0 00-.96-.22c-.52 0-.963.167-1.33.5-.367.333-.57.803-.61 1.41h3.84zm2.63 1.87L64 23.46h-.48l.74-2.62h.78zM10.49 31.75c.18-.38.457-.69.83-.93.38-.24.827-.36 1.34-.36.5 0 .947.117 1.34.35.393.227.7.553.92.98.227.42.34.91.34 1.47 0 .56-.113 1.053-.34 1.48-.22.427-.53.757-.93.99-.393.233-.837.35-1.33.35-.52 0-.97-.117-1.35-.35a2.157 2.157 0 01-.82-.93V36H9.8v-7.4h.69v3.15zm4.06 1.51c0-.453-.09-.843-.27-1.17a1.804 1.804 0 00-.72-.76 2.077 2.077 0 00-1.04-.26c-.373 0-.717.09-1.03.27-.307.18-.55.437-.73.77-.18.333-.27.72-.27 1.16 0 .44.09.827.27 1.16.18.333.423.59.73.77.313.18.657.27 1.03.27.387 0 .733-.087 1.04-.26a1.87 1.87 0 00.72-.77c.18-.34.27-.733.27-1.18zm1.678 0c0-.56.11-1.05.33-1.47.227-.427.537-.753.93-.98.4-.233.85-.35 1.35-.35.52 0 .967.12 1.34.36.38.24.653.547.82.92v-1.2h.7V36h-.7v-1.21c-.173.373-.45.683-.83.93-.373.24-.82.36-1.34.36a2.61 2.61 0 01-1.34-.35 2.47 2.47 0 01-.93-.99c-.22-.427-.33-.92-.33-1.48zm4.77.01c0-.44-.09-.827-.27-1.16a1.916 1.916 0 00-.74-.77 1.977 1.977 0 00-1.02-.27c-.387 0-.733.087-1.04.26-.307.173-.55.427-.73.76-.173.327-.26.717-.26 1.17 0 .447.087.84.26 1.18.18.333.423.59.73.77.307.173.653.26 1.04.26.373 0 .713-.09 1.02-.27.313-.18.56-.437.74-.77.18-.333.27-.72.27-1.16zm1.978 0c0-.567.113-1.06.34-1.48.227-.427.54-.753.94-.98.4-.233.857-.35 1.37-.35.673 0 1.227.167 1.66.5.44.333.723.787.85 1.36h-.75a1.507 1.507 0 00-.61-.92c-.307-.227-.69-.34-1.15-.34-.367 0-.697.083-.99.25a1.778 1.778 0 00-.7.75c-.167.327-.25.73-.25 1.21s.083.887.25 1.22c.173.333.407.583.7.75.293.167.623.25.99.25.46 0 .843-.11 1.15-.33.313-.227.517-.54.61-.94h.75a2.29 2.29 0 01-.85 1.35c-.44.34-.993.51-1.66.51a2.73 2.73 0 01-1.37-.34c-.4-.233-.713-.56-.94-.98-.227-.427-.34-.923-.34-1.49zM32.38 36l-2.25-2.45V36h-.7v-7.4h.7v4.38l2.2-2.44h.98l-2.59 2.72 2.61 2.74h-.95zm6.795-3.01c0 .24-.007.423-.02.55h-4.53c.02.413.12.767.3 1.06.18.293.416.517.71.67.293.147.613.22.96.22.453 0 .833-.11 1.14-.33.313-.22.52-.517.62-.89h.74c-.134.533-.42.97-.86 1.31-.434.333-.98.5-1.64.5-.514 0-.974-.113-1.38-.34a2.512 2.512 0 01-.96-.98c-.227-.427-.34-.923-.34-1.49s.113-1.063.34-1.49c.226-.427.543-.753.95-.98.406-.227.87-.34 1.39-.34.52 0 .973.113 1.36.34.393.227.693.533.9.92.213.38.32.803.32 1.27zm-.71-.02c.006-.407-.077-.753-.25-1.04a1.623 1.623 0 00-.69-.65 2.116 2.116 0 00-.96-.22c-.52 0-.964.167-1.33.5-.367.333-.57.803-.61 1.41h3.84zm1.67.29c0-.56.114-1.05.34-1.47.227-.427.537-.753.93-.98.4-.233.85-.35 1.35-.35.48 0 .914.117 1.3.35.387.233.67.537.85.91V28.6h.7V36h-.7v-1.22c-.166.38-.44.693-.82.94-.38.24-.826.36-1.34.36-.5 0-.95-.117-1.35-.35a2.47 2.47 0 01-.93-.99c-.22-.427-.33-.92-.33-1.48zm4.77.01c0-.44-.09-.827-.27-1.16a1.917 1.917 0 00-.74-.77 1.978 1.978 0 00-1.02-.27c-.386 0-.733.087-1.04.26-.306.173-.55.427-.73.76-.173.327-.26.717-.26 1.17 0 .447.087.84.26 1.18.18.333.424.59.73.77.307.173.654.26 1.04.26.374 0 .714-.09 1.02-.27.314-.18.56-.437.74-.77.18-.333.27-.72.27-1.16zm5.732-1.52c.18-.38.457-.69.83-.93.38-.24.827-.36 1.34-.36.5 0 .947.117 1.34.35.394.227.7.553.92.98.227.42.34.91.34 1.47 0 .56-.113 1.053-.34 1.48-.22.427-.53.757-.93.99-.393.233-.836.35-1.33.35-.52 0-.97-.117-1.35-.35a2.157 2.157 0 01-.82-.93V36h-.69v-7.4h.69v3.15zm4.06 1.51c0-.453-.09-.843-.27-1.17a1.804 1.804 0 00-.72-.76 2.077 2.077 0 00-1.04-.26c-.373 0-.716.09-1.03.27-.306.18-.55.437-.73.77-.18.333-.27.72-.27 1.16 0 .44.09.827.27 1.16.18.333.424.59.73.77.314.18.657.27 1.03.27.387 0 .734-.087 1.04-.26a1.87 1.87 0 00.72-.77c.18-.34.27-.733.27-1.18zm6.498-2.72l-3.24 8.03h-.73l1.06-2.6-2.24-5.43h.77l1.86 4.66 1.8-4.66h.72zm5.814 5.53c-.46 0-.867-.08-1.22-.24a1.992 1.992 0 01-.82-.67 1.76 1.76 0 01-.32-.96h.74c.033.34.183.64.45.9.267.253.657.38 1.17.38.473 0 .847-.12 1.12-.36.28-.247.42-.557.42-.93 0-.3-.077-.54-.23-.72a1.348 1.348 0 00-.57-.41 8.002 8.002 0 00-.94-.3 8.22 8.22 0 01-1.11-.37 1.767 1.767 0 01-.7-.56c-.193-.253-.29-.597-.29-1.03 0-.36.093-.68.28-.96.187-.287.45-.51.79-.67.34-.16.73-.24 1.17-.24.647 0 1.167.16 1.56.48.4.313.63.72.69 1.22h-.76c-.047-.287-.203-.54-.47-.76-.267-.227-.627-.34-1.08-.34-.42 0-.77.113-1.05.34-.28.22-.42.523-.42.91 0 .293.077.53.23.71.153.18.343.317.57.41.233.093.547.193.94.3a7.9 7.9 0 011.1.38c.28.12.517.307.71.56.193.253.29.593.29 1.02a1.8 1.8 0 01-.26.93c-.173.293-.43.53-.77.71-.34.18-.747.27-1.22.27zm4.513-4.94v3.39c0 .333.063.563.19.69.126.127.35.19.67.19h.64v.6h-.75c-.494 0-.86-.113-1.1-.34-.24-.233-.36-.613-.36-1.14v-3.39h-.76v-.59h.76v-1.37h.71v1.37h1.5v.59h-1.5zm5.044 4.95c-.513 0-.977-.113-1.39-.34a2.584 2.584 0 01-.97-.98c-.233-.427-.35-.923-.35-1.49s.12-1.06.36-1.48c.24-.427.567-.753.98-.98.413-.233.877-.35 1.39-.35.513 0 .977.117 1.39.35.42.227.747.553.98.98.24.42.36.913.36 1.48 0 .56-.12 1.053-.36 1.48-.24.427-.57.757-.99.99a2.9 2.9 0 01-1.4.34zm0-.61c.36 0 .693-.08 1-.24a1.88 1.88 0 00.74-.74c.193-.333.29-.74.29-1.22s-.093-.883-.28-1.21a1.798 1.798 0 00-.74-.74 2.06 2.06 0 00-1-.25c-.36 0-.693.083-1 .25-.307.16-.553.407-.74.74-.18.327-.27.73-.27 1.21s.09.887.27 1.22c.187.327.43.573.73.74.307.16.64.24 1 .24zm6.586-5.03c.653 0 1.187.203 1.6.61.413.4.62.983.62 1.75V36h-.69v-3.12c0-.593-.15-1.047-.45-1.36-.293-.313-.697-.47-1.21-.47-.527 0-.947.167-1.26.5-.313.333-.47.823-.47 1.47V36h-.7v-5.46h.7v.93c.173-.333.423-.587.75-.76.327-.18.697-.27 1.11-.27zm8.708 2.55c0 .24-.006.423-.02.55h-4.53c.02.413.12.767.3 1.06.18.293.417.517.71.67.293.147.614.22.96.22.454 0 .834-.11 1.14-.33.314-.22.52-.517.62-.89h.74c-.133.533-.42.97-.86 1.31-.433.333-.98.5-1.64.5-.513 0-.973-.113-1.38-.34a2.514 2.514 0 01-.96-.98c-.226-.427-.34-.923-.34-1.49s.114-1.063.34-1.49c.227-.427.544-.753.95-.98.407-.227.87-.34 1.39-.34.52 0 .974.113 1.36.34.394.227.694.533.9.92.213.38.32.803.32 1.27zm-.71-.02c.007-.407-.076-.753-.25-1.04a1.621 1.621 0 00-.69-.65 2.116 2.116 0 00-.96-.22c-.52 0-.963.167-1.33.5-.367.333-.57.803-.61 1.41h3.84zm4.51-.46L97.78 36H97l-1.78-2.92L93.53 36h-.78l2.11-3.52-2.11-3.47h.78l1.77 2.91 1.71-2.91h.78l-2.13 3.5z" fill="#fff"/></svg>