<svg width="120" height="600" viewBox="0 0 120 600" fill="none" xmlns="http://www.w3.org/2000/svg"><path fill="url(#paint0_linear_23_1499)" d="M0 0h120v600H0z"/><rect x="24" y="301" width="73" height="23" rx="11.5" fill="#14964F"/><path d="M34.425 309.98h1.86V316h1.14v-6.02h1.85v-.93h-4.85v.93zm7.145 3.12c0-1.17.52-1.52 1.36-1.52h.29v-1.18c-.78 0-1.33.34-1.65.89v-.8h-1.14V316h1.14v-2.9zm2.318.12c0 1.7 1.15 2.87 2.58 2.87.92 0 1.58-.44 1.93-.91v.82h1.15v-5.51h-1.15v.8c-.34-.45-.98-.89-1.91-.89-1.45 0-2.6 1.12-2.6 2.82zm4.51.02c0 1.19-.81 1.86-1.67 1.86-.85 0-1.67-.69-1.67-1.88s.82-1.83 1.67-1.83c.86 0 1.67.67 1.67 1.85zm2.267-.02c0 1.7 1.15 2.87 2.6 2.87.9 0 1.56-.42 1.91-.92v.83h1.15v-7.4h-1.15v2.66c-.42-.52-1.18-.86-1.9-.86-1.46 0-2.61 1.12-2.61 2.82zm4.51.02c0 1.19-.81 1.86-1.67 1.86-.85 0-1.67-.69-1.67-1.88s.82-1.83 1.67-1.83c.86 0 1.67.67 1.67 1.85zm4.967-1.88c.85 0 1.52.54 1.54 1.39h-3.05c.12-.87.74-1.39 1.51-1.39zm2.58 3h-1.23c-.21.43-.6.77-1.3.77-.84 0-1.49-.55-1.57-1.46h4.21c.03-.19.04-.37.04-.56 0-1.62-1.11-2.71-2.68-2.71-1.63 0-2.75 1.11-2.75 2.84 0 1.73 1.17 2.85 2.75 2.85 1.35 0 2.22-.77 2.53-1.73zm7.78 1.64h1.13v-3.25c0-1.54-.97-2.35-2.26-2.35-.66 0-1.27.27-1.64.72v-.63h-1.14V316h1.14v-3.08c0-1.01.55-1.53 1.39-1.53.83 0 1.38.52 1.38 1.53V316zm7.834-2.76c0-1.73-1.24-2.84-2.81-2.84s-2.81 1.11-2.81 2.84c0 1.73 1.19 2.85 2.76 2.85 1.58 0 2.86-1.12 2.86-2.85zm-4.46 0c0-1.25.77-1.85 1.63-1.85.85 0 1.66.6 1.66 1.85s-.84 1.86-1.69 1.86c-.86 0-1.6-.61-1.6-1.86zm6.657 2.76h1.2l1.11-4.07 1.11 4.07h1.2l1.71-5.51h-1.12l-1.14 4.41-1.12-4.41h-1.19l-1.17 4.43-1.15-4.43h-1.16l1.72 5.51zM13 269.319h10.815v3.291h-7.062v2.294h6.383v3.121h-6.383v4.821H13v-13.527z" fill="#fff"/><path fill-rule="evenodd" clip-rule="evenodd" d="M42.366 269.319h6.471c2.085 0 3.547.552 4.472 1.465.795.764 1.204 1.826 1.204 3.143v.042c0 2.06-1.118 3.44-2.816 4.162l3.267 4.715h-4.386l-2.751-4.099H46.15v4.099h-3.805v-13.527h.021zm6.299 6.498c1.29 0 2.042-.616 2.042-1.614v-.043c0-1.061-.774-1.614-2.063-1.614H46.15v3.249h2.515v.022z" fill="#fff"/><path d="M56.287 269.319h10.879v3.185h-7.168v2.06h6.49v2.952h-6.49v2.144h7.253v3.186H56.287v-13.527zM73.125 275.965l-4.454-6.646h4.305l2.396 3.801 2.418-3.801h4.198l-4.431 6.604 4.644 6.923h-4.305l-2.587-4.078-2.609 4.078h-4.22l4.645-6.881zM85.87 276.432c0-1.55 1.187-2.845 2.883-2.845 1.103 0 1.845.488 2.311 1.21l-1.293.956c-.255-.361-.552-.574-.997-.574-.615 0-1.06.531-1.06 1.19v.021c0 .701.445 1.232 1.081 1.232.446 0 .743-.213 1.04-.553l1.272.914c-.51.743-1.209 1.231-2.396 1.231-1.654.021-2.842-1.253-2.842-2.782" fill="#fff"/><path fill-rule="evenodd" clip-rule="evenodd" d="M92.242 276.432c0-1.55 1.268-2.845 3.031-2.845 1.742 0 3.01 1.274 3.01 2.803v.021c0 1.529-1.268 2.824-3.031 2.824-1.742 0-3.01-1.274-3.01-2.803m4.17 0c0-.679-.494-1.231-1.16-1.231-.688 0-1.14.552-1.14 1.189v.021c0 .658.495 1.211 1.161 1.211.71 0 1.14-.553 1.14-1.19" fill="#fff"/><path d="M99.306 273.693h1.887v.743c.339-.446.848-.849 1.612-.849.721 0 1.272.318 1.548.87.466-.53 1.018-.87 1.802-.87 1.145 0 1.845.722 1.845 1.975v3.546h-1.887v-2.952c0-.594-.297-.892-.742-.892-.446 0-.785.319-.785.892v2.931h-1.866v-2.931c0-.594-.297-.892-.742-.892-.446 0-.764.319-.764.892v2.931h-1.887v-5.394h-.021z" fill="#fff"/><path fill-rule="evenodd" clip-rule="evenodd" d="M39.077 276.05c0-.136-.003-.27-.008-.403h1.62l.43-1.232h-2.182c-.598-3.369-3.105-5.415-6.89-5.415-4.256 0-7.008 2.803-7.008 7.135 0 4.375 2.666 7.072 7.008 7.05 3.54 0 6.052-1.924 6.798-5.075h1.479l.452-1.232h-1.734c.023-.269.035-.545.035-.828zm-6.944 5.182c-2.193 0-3.053-2.294-3.053-5.139 0-2.846.688-5.118 2.903-5.139 1.742 0 2.642 1.434 2.939 3.461h-1.886l-.43 1.232h2.422a15.832 15.832 0 01-.01 1.231H32.69l-.451 1.232h2.651c-.298 1.846-1.1 3.122-2.759 3.122z" fill="#14964F"/><path d="M83.24 278.089c0-.276.106-.489.297-.701a.96.96 0 01.7-.297.96.96 0 01.7.297c.19.191.296.425.296.701a.965.965 0 01-.297.701.942.942 0 01-.7.276.942.942 0 01-.7-.276c-.211-.17-.296-.404-.296-.701" fill="#fff"/><defs><linearGradient id="paint0_linear_23_1499" x1="60" y1="300" x2="60" y2="600" gradientUnits="userSpaceOnUse"><stop stop-color="#12225C"/><stop offset="1" stop-color="#0954B5"/></linearGradient></defs></svg>