<svg width="109" height="9" viewBox="0 0 109 9" fill="none" xmlns="http://www.w3.org/2000/svg"><path d="M4.89 1.01v.58H2.95V8h-.7V1.59H.3v-.58h4.59zm1.805 2.5c.154-.34.387-.603.7-.79.32-.187.71-.28 1.17-.28v.73h-.19c-.506 0-.913.137-1.22.41-.306.273-.46.73-.46 1.37V8h-.7V2.54h.7v.97zm2.603 1.75c0-.56.11-1.05.33-1.47a2.4 2.4 0 01.93-.98c.4-.233.85-.35 1.35-.35.52 0 .967.12 1.34.36.38.24.654.547.82.92v-1.2h.7V8h-.7V6.79c-.173.373-.45.683-.83.93-.373.24-.82.36-1.34.36a2.61 2.61 0 01-1.34-.35 2.47 2.47 0 01-.93-.99c-.22-.427-.33-.92-.33-1.48zm4.77.01c0-.44-.09-.827-.27-1.16a1.916 1.916 0 00-.74-.77 1.978 1.978 0 00-1.02-.27c-.386 0-.733.087-1.04.26-.306.173-.55.427-.73.76-.173.327-.26.717-.26 1.17 0 .447.087.84.26 1.18.18.333.424.59.73.77.307.173.654.26 1.04.26.374 0 .714-.09 1.02-.27.314-.18.56-.437.74-.77.18-.333.27-.72.27-1.16zm1.978-.01c0-.56.114-1.05.34-1.47.227-.427.537-.753.93-.98.4-.233.85-.35 1.35-.35.48 0 .914.117 1.3.35.387.233.67.537.85.91V.6h.7V8h-.7V6.78c-.166.38-.44.693-.82.94-.38.24-.826.36-1.34.36-.5 0-.95-.117-1.35-.35a2.47 2.47 0 01-.93-.99c-.22-.427-.33-.92-.33-1.48zm4.77.01c0-.44-.09-.827-.27-1.16a1.916 1.916 0 00-.74-.77 1.978 1.978 0 00-1.02-.27c-.386 0-.733.087-1.04.26-.306.173-.55.427-.73.76-.173.327-.26.717-.26 1.17 0 .447.087.84.26 1.18.18.333.424.59.73.77.307.173.654.26 1.04.26.374 0 .714-.09 1.02-.27.314-.18.56-.437.74-.77.18-.333.27-.72.27-1.16zm7.239-.28c0 .24-.007.423-.02.55h-4.53c.02.413.12.767.3 1.06.18.293.416.517.71.67.293.147.613.22.96.22.453 0 .833-.11 1.14-.33.313-.22.52-.517.62-.89h.74c-.134.533-.42.97-.86 1.31-.434.333-.98.5-1.64.5-.514 0-.974-.113-1.38-.34a2.513 2.513 0 01-.96-.98c-.227-.427-.34-.923-.34-1.49s.113-1.063.34-1.49c.226-.427.543-.753.95-.98.406-.227.87-.34 1.39-.34.52 0 .973.113 1.36.34.393.227.693.533.9.92.213.38.32.803.32 1.27zm-.71-.02c.006-.407-.077-.753-.25-1.04a1.623 1.623 0 00-.69-.65 2.117 2.117 0 00-.96-.22c-.52 0-.964.167-1.33.5-.367.333-.57.803-.61 1.41h3.84zm5.644-1.84v3.39c0 .333.064.563.19.69.127.127.35.19.67.19h.64V8h-.75c-.493 0-.86-.113-1.1-.34-.24-.233-.36-.613-.36-1.14V3.13h-.76v-.59h.76V1.17h.71v1.37h1.5v.59h-1.5zm5.255-.69c.413 0 .783.087 1.11.26.333.173.593.44.78.8.193.353.29.787.29 1.3V8h-.69V4.88c0-.593-.15-1.047-.45-1.36-.294-.313-.697-.47-1.21-.47-.527 0-.947.167-1.26.5-.314.333-.47.823-.47 1.47V8h-.7V.6h.7v2.87c.173-.327.426-.58.76-.76.34-.18.72-.27 1.14-.27zm8.668 2.55c0 .24-.007.423-.02.55h-4.53c.02.413.12.767.3 1.06.18.293.416.517.71.67.293.147.613.22.96.22.453 0 .833-.11 1.14-.33.313-.22.52-.517.62-.89h.74c-.133.533-.42.97-.86 1.31-.434.333-.98.5-1.64.5-.514 0-.974-.113-1.38-.34a2.513 2.513 0 01-.96-.98c-.227-.427-.34-.923-.34-1.49s.113-1.063.34-1.49c.227-.427.543-.753.95-.98.407-.227.87-.34 1.39-.34.52 0 .973.113 1.36.34.393.227.693.533.9.92.213.38.32.803.32 1.27zm-.71-.02c.007-.407-.077-.753-.25-1.04a1.623 1.623 0 00-.69-.65 2.117 2.117 0 00-.96-.22c-.52 0-.963.167-1.33.5-.367.333-.57.803-.61 1.41h3.84zm5.405-3.96v4.4c0 .693.163 1.207.49 1.54.333.333.786.5 1.36.5.573 0 1.02-.163 1.34-.49.326-.333.49-.85.49-1.55v-4.4h.7V5.4c0 .887-.237 1.553-.71 2-.467.447-1.077.67-1.83.67-.754 0-1.367-.223-1.84-.67-.467-.447-.7-1.113-.7-2V1.01h.7zm8.061 7.06c-.46 0-.867-.08-1.22-.24a1.993 1.993 0 01-.82-.67 1.76 1.76 0 01-.32-.96h.74c.033.34.183.64.45.9.267.253.657.38 1.17.38.473 0 .847-.12 1.12-.36.28-.247.42-.557.42-.93 0-.3-.077-.54-.23-.72a1.348 1.348 0 00-.57-.41 7.984 7.984 0 00-.94-.3 8.225 8.225 0 01-1.11-.37 1.767 1.767 0 01-.7-.56c-.193-.253-.29-.597-.29-1.03 0-.36.093-.68.28-.96.187-.287.45-.51.79-.67.34-.16.73-.24 1.17-.24.647 0 1.167.16 1.56.48.4.313.63.72.69 1.22h-.76c-.047-.287-.203-.54-.47-.76-.267-.227-.627-.34-1.08-.34-.42 0-.77.113-1.05.34-.28.22-.42.523-.42.91 0 .293.077.53.23.71.153.18.343.317.57.41.233.093.547.193.94.3.453.127.82.253 1.1.38.28.12.517.307.71.56.193.253.29.593.29 1.02a1.8 1.8 0 01-.26.93c-.173.293-.43.53-.77.71-.34.18-.747.27-1.22.27zm10.437-7.06v.58h-1.94V8h-.7V1.59h-1.95v-.58h4.59zm6.045 3.98c0 .24-.007.423-.02.55H71.6c.02.413.12.767.3 1.06.18.293.417.517.71.67.293.147.614.22.96.22.454 0 .834-.11 1.14-.33.314-.22.52-.517.62-.89h.74c-.133.533-.42.97-.86 1.31-.433.333-.98.5-1.64.5-.513 0-.973-.113-1.38-.34a2.513 2.513 0 01-.96-.98c-.227-.427-.34-.923-.34-1.49s.114-1.063.34-1.49c.227-.427.543-.753.95-.98.407-.227.87-.34 1.39-.34.52 0 .974.113 1.36.34.393.227.694.533.9.92.213.38.32.803.32 1.27zm-.71-.02c.007-.407-.076-.753-.25-1.04a1.623 1.623 0 00-.69-.65 2.117 2.117 0 00-.96-.22c-.52 0-.963.167-1.33.5-.366.333-.57.803-.61 1.41h3.84zm1.67.3c0-.567.114-1.06.34-1.48.227-.427.54-.753.94-.98.4-.233.858-.35 1.37-.35.674 0 1.227.167 1.66.5.44.333.724.787.85 1.36h-.75a1.507 1.507 0 00-.61-.92c-.306-.227-.69-.34-1.15-.34-.366 0-.696.083-.99.25a1.777 1.777 0 00-.7.75c-.166.327-.25.73-.25 1.21s.084.887.25 1.22c.174.333.408.583.7.75.294.167.624.25.99.25.46 0 .844-.11 1.15-.33.314-.227.517-.54.61-.94h.75a2.29 2.29 0 01-.85 1.35c-.44.34-.993.51-1.66.51a2.73 2.73 0 01-1.37-.34c-.4-.233-.713-.56-.94-.98-.226-.427-.34-.923-.34-1.49zm9.054-2.83c.413 0 .783.087 1.11.26.333.173.593.44.78.8.193.353.29.787.29 1.3V8h-.69V4.88c0-.593-.15-1.047-.45-1.36-.294-.313-.697-.47-1.21-.47-.527 0-.947.167-1.26.5-.314.333-.47.823-.47 1.47V8h-.7V.6h.7v2.87c.173-.327.426-.58.76-.76.34-.18.72-.27 1.14-.27zm5.982-.98V.83h1.7V8h-.71V1.46h-.99zm3.26 2.89c0-1.147.176-2.037.53-2.67.353-.633.986-.95 1.9-.95.913 0 1.546.317 1.9.95.353.633.53 1.523.53 2.67 0 1.167-.177 2.07-.53 2.71-.354.64-.987.96-1.9.96-.92 0-1.557-.32-1.91-.96-.347-.64-.52-1.543-.52-2.71zm4.17 0c0-.62-.043-1.143-.13-1.57-.087-.427-.257-.77-.51-1.03-.254-.26-.62-.39-1.1-.39-.48 0-.847.13-1.1.39-.254.26-.424.603-.51 1.03-.087.427-.13.95-.13 1.57 0 .64.043 1.177.13 1.61.087.427.257.77.51 1.03s.62.39 1.1.39c.48 0 .847-.13 1.1-.39.253-.26.423-.603.51-1.03.087-.433.13-.97.13-1.61zm1.992 0c0-1.147.177-2.037.53-2.67.353-.633.987-.95 1.9-.95.913 0 1.547.317 1.9.95s.53 1.523.53 2.67c0 1.167-.177 2.07-.53 2.71-.353.64-.987.96-1.9.96-.92 0-1.557-.32-1.91-.96-.347-.64-.52-1.543-.52-2.71zm4.17 0c0-.62-.043-1.143-.13-1.57-.087-.427-.257-.77-.51-1.03s-.62-.39-1.1-.39c-.48 0-.847.13-1.1.39-.253.26-.423.603-.51 1.03-.087.427-.13.95-.13 1.57 0 .64.043 1.177.13 1.61.087.427.257.77.51 1.03s.62.39 1.1.39c.48 0 .847-.13 1.1-.39.253-.26.423-.603.51-1.03.087-.433.13-.97.13-1.61zM108 8.05a.502.502 0 01-.37-.15.523.523 0 01-.14-.37c0-.147.047-.267.14-.36.1-.1.223-.15.37-.15.14 0 .257.05.35.15.1.093.15.213.15.36s-.05.27-.15.37c-.093.1-.21.15-.35.15zm0-4.35a.502.502 0 01-.37-.15.523.523 0 01-.14-.37c0-.147.047-.267.14-.36.1-.1.223-.15.37-.15.14 0 .257.05.35.15.1.093.15.213.15.36s-.05.27-.15.37c-.093.1-.21.15-.35.15z" fill="#fff"/></svg>