<svg width="154" height="11" viewBox="0 0 154 11" fill="none" xmlns="http://www.w3.org/2000/svg"><path d="M.759 4.821c0 2.145.913 3.245 2.805 3.245 1.903 0 2.827-1.1 2.827-3.245V.3h-.594v4.554c0 1.771-.682 2.662-2.233 2.662-1.529 0-2.211-.891-2.211-2.662V.3H.759v4.521zm9.75-2.464c-1.045 0-1.77.561-2.123 1.342l-.088-1.276h-.484V10.2h.561V6.713c.32.814 1.078 1.353 2.134 1.353 1.53 0 2.63-1.166 2.63-2.86 0-1.749-1.1-2.849-2.63-2.849zm-.044 5.203c-1.243 0-2.1-.968-2.1-2.365 0-1.364.857-2.343 2.1-2.343s2.101.979 2.101 2.354c0 1.386-.858 2.354-2.1 2.354zm8.327-3.839c-.341-.825-1.09-1.364-2.123-1.364-1.53 0-2.63 1.155-2.63 2.849 0 1.76 1.1 2.86 2.63 2.86 1.045 0 1.782-.55 2.134-1.419v.99c0 1.485-.704 2.123-2.046 2.123-1.045 0-1.771-.473-1.947-1.32h-.583c.176 1.188 1.133 1.826 2.486 1.826 1.804 0 2.65-.858 2.65-2.607V2.423h-.483l-.088 1.298zm-2.08 3.839c-1.242 0-2.1-.968-2.1-2.354 0-1.386.858-2.354 2.1-2.354 1.244 0 2.102.968 2.102 2.365 0 1.375-.858 2.343-2.101 2.343zm6.248-5.137c-1.034 0-1.474.495-1.705 1.111l-.088-1.111h-.484V8h.561V5.173c0-1.133.297-2.211 1.606-2.211h.407v-.539h-.297zm5.798 5.06c-.33 0-.495-.11-.495-.539V4.348c0-1.276-.78-1.991-2.178-1.991-1.276 0-2.123.616-2.266 1.628h.561c.143-.682.737-1.133 1.683-1.133 1.045 0 1.64.55 1.64 1.474v.484H25.81c-1.43 0-2.2.616-2.2 1.661 0 .99.781 1.595 1.97 1.595 1.132 0 1.803-.517 2.144-1.21v.198c-.022.66.253.946.913.946h.33v-.517h-.209zm-1.056-1.738c0 1.067-.759 1.837-2.079 1.837-.89 0-1.44-.451-1.44-1.144 0-.737.55-1.144 1.583-1.144h1.936v.451zm6.484-2.068c-.341-.792-1.09-1.32-2.134-1.32-1.53 0-2.63 1.166-2.63 2.849 0 1.76 1.1 2.86 2.63 2.86 1.045 0 1.77-.561 2.123-1.342L34.263 8h.484V.3h-.561v3.377zm-2.09 3.883c-1.243 0-2.101-.968-2.101-2.354 0-1.375.858-2.354 2.1-2.354 1.244 0 2.102.979 2.102 2.365 0 1.375-.858 2.343-2.101 2.343zm6.434.506c1.221 0 2.156-.792 2.398-1.914h-.572c-.22.869-.957 1.408-1.87 1.408-1.243 0-2.024-.946-2.046-2.244v-.099h4.554c0-.077.011-.165.011-.231-.055-1.661-1.078-2.629-2.574-2.629-1.529 0-2.574 1.166-2.574 2.816 0 1.749 1.09 2.893 2.673 2.893zm-2.046-3.322c.088-1.133.935-1.892 1.958-1.892 1.09 0 1.87.671 1.958 1.892h-3.916zm9.013 1.958c0 .891.363 1.298 1.309 1.298h.814v-.517h-.77c-.583 0-.792-.22-.792-.792V2.94h1.507v-.517h-1.507V.861h-.561v1.562H44.44v.517h1.056v3.762zm5.269 1.364c1.573 0 2.684-1.166 2.684-2.86 0-1.683-1.111-2.849-2.684-2.849-1.573 0-2.673 1.166-2.673 2.849 0 1.694 1.1 2.86 2.673 2.86zm0-.506c-1.243 0-2.101-.968-2.101-2.354 0-1.375.858-2.354 2.1-2.354 1.244 0 2.102.979 2.102 2.354 0 1.386-.858 2.354-2.101 2.354zm11.67-.077c-.33 0-.496-.11-.496-.539V4.348c0-1.276-.78-1.991-2.178-1.991-1.276 0-2.123.616-2.266 1.628h.561c.143-.682.737-1.133 1.683-1.133 1.045 0 1.64.55 1.64 1.474v.484h-1.893c-1.43 0-2.2.616-2.2 1.661 0 .99.781 1.595 1.97 1.595 1.132 0 1.803-.517 2.144-1.21v.198c-.022.66.253.946.913.946h.33v-.517h-.209zm-1.057-1.738c0 1.067-.759 1.837-2.079 1.837-.89 0-1.44-.451-1.44-1.144 0-.737.55-1.144 1.583-1.144h1.936v.451zM66.36 8h.561V.3h-.56V8zm2.166-6.754c.22 0 .396-.165.396-.396a.388.388 0 00-.396-.396.388.388 0 00-.396.396c0 .231.176.396.396.396zM68.24 8h.561V2.423h-.56V8zm3.497 0h.671l2.178-5.577h-.583l-1.914 4.928-1.925-4.928h-.605L71.736 8zm5.842.066c1.221 0 2.156-.792 2.398-1.914h-.572c-.22.869-.957 1.408-1.87 1.408-1.243 0-2.024-.946-2.046-2.244v-.099h4.554c0-.077.011-.165.011-.231-.055-1.661-1.078-2.629-2.574-2.629-1.529 0-2.574 1.166-2.574 2.816 0 1.749 1.09 2.893 2.673 2.893zm-2.046-3.322c.088-1.133.935-1.892 1.958-1.892 1.09 0 1.87.671 1.958 1.892h-3.916zm13.5 2.739c-.33 0-.494-.11-.494-.539V4.348c0-1.276-.781-1.991-2.178-1.991-1.276 0-2.123.616-2.266 1.628h.56c.144-.682.738-1.133 1.684-1.133 1.045 0 1.639.55 1.639 1.474v.484h-1.892c-1.43 0-2.2.616-2.2 1.661 0 .99.78 1.595 1.969 1.595 1.133 0 1.804-.517 2.145-1.21v.198c-.022.66.253.946.913.946h.33v-.517h-.21zm-1.055-1.738c0 1.067-.76 1.837-2.08 1.837-.89 0-1.44-.451-1.44-1.144 0-.737.55-1.144 1.584-1.144h1.936v.451zm4.36 2.321c1.265 0 2.156-.726 2.376-1.859h-.594c-.187.825-.858 1.353-1.782 1.353-1.22 0-2.068-.957-2.068-2.343 0-1.386.836-2.365 2.068-2.365.935 0 1.595.528 1.793 1.364h.583c-.23-1.155-1.1-1.859-2.365-1.859-1.573 0-2.65 1.166-2.65 2.86 0 1.716 1.066 2.849 2.64 2.849zm5.898 0c1.265 0 2.156-.726 2.376-1.859h-.594c-.187.825-.858 1.353-1.782 1.353-1.221 0-2.068-.957-2.068-2.343 0-1.386.836-2.365 2.068-2.365.935 0 1.595.528 1.793 1.364h.583c-.231-1.155-1.1-1.859-2.365-1.859-1.573 0-2.651 1.166-2.651 2.86 0 1.716 1.067 2.849 2.64 2.849zm5.93 0c1.573 0 2.684-1.166 2.684-2.86 0-1.683-1.111-2.849-2.684-2.849-1.573 0-2.673 1.166-2.673 2.849 0 1.694 1.1 2.86 2.673 2.86zm0-.506c-1.243 0-2.101-.968-2.101-2.354 0-1.375.858-2.354 2.101-2.354 1.243 0 2.101.979 2.101 2.354 0 1.386-.858 2.354-2.101 2.354zm7.847-2.398c0 1.463-.726 2.387-1.881 2.387-1.034 0-1.672-.704-1.672-2.035V2.423h-.561v3.124c0 1.749.913 2.519 2.145 2.519.99 0 1.639-.528 1.958-1.243L112.078 8h.495V2.423h-.561v2.739zm4.455-2.805c-1.023 0-1.683.528-2.002 1.254l-.088-1.188h-.484V8h.561V5.25c0-1.452.737-2.376 1.925-2.376 1.078 0 1.727.704 1.727 2.024V8h.561V4.876c0-1.76-.935-2.519-2.2-2.519zm3.86 4.345c0 .891.363 1.298 1.309 1.298h.814v-.517h-.77c-.583 0-.792-.22-.792-.792V2.94h1.507v-.517h-1.507V.861h-.561v1.562h-1.056v.517h1.056v3.762zm6.359 0c0 .891.363 1.298 1.309 1.298h.814v-.517h-.77c-.583 0-.792-.22-.792-.792V2.94h1.507v-.517h-1.507V.861h-.561v1.562h-1.056v.517h1.056v3.762zm5.269 1.364c1.573 0 2.684-1.166 2.684-2.86 0-1.683-1.111-2.849-2.684-2.849-1.573 0-2.673 1.166-2.673 2.849 0 1.694 1.1 2.86 2.673 2.86zm0-.506c-1.243 0-2.101-.968-2.101-2.354 0-1.375.858-2.354 2.101-2.354 1.243 0 2.101.979 2.101 2.354 0 1.386-.858 2.354-2.101 2.354zm8.353-3.883c-.341-.792-1.089-1.32-2.134-1.32-1.529 0-2.629 1.166-2.629 2.849 0 1.76 1.1 2.86 2.629 2.86 1.045 0 1.771-.561 2.123-1.342L140.385 8h.484V.3h-.561v3.377zm-2.09 3.883c-1.243 0-2.101-.968-2.101-2.354 0-1.375.858-2.354 2.101-2.354 1.243 0 2.101.979 2.101 2.365 0 1.375-.858 2.343-2.101 2.343zm8.876-.077c-.33 0-.495-.11-.495-.539V4.348c0-1.276-.781-1.991-2.178-1.991-1.276 0-2.123.616-2.266 1.628h.561c.143-.682.737-1.133 1.683-1.133 1.045 0 1.639.55 1.639 1.474v.484h-1.892c-1.43 0-2.2.616-2.2 1.661 0 .99.781 1.595 1.969 1.595 1.133 0 1.804-.517 2.145-1.21v.198c-.022.66.253.946.913.946h.33v-.517h-.209zm-1.056-1.738c0 1.067-.759 1.837-2.079 1.837-.891 0-1.441-.451-1.441-1.144 0-.737.55-1.144 1.584-1.144h1.936v.451zM149.543 8l-.363.902c-.253.616-.352.781-.924.781h-.704v.517h.858c.748 0 .924-.286 1.276-1.166l2.673-6.611h-.605l-1.903 4.851-1.936-4.851h-.605L149.543 8zm3.064-.363c0 .253.176.418.418.418a.398.398 0 00.418-.418c0-.253-.176-.407-.418-.407s-.418.154-.418.407z" fill="#000"/></svg>