<svg width="256" height="112" viewBox="0 0 256 112" fill="none" xmlns="http://www.w3.org/2000/svg"><path d="M.72 4.472h7.776V26h4.14V4.472h7.776V.8H.72v3.672zm29.918 3.096c-3.024 0-4.5 1.224-5.436 2.772l-.432-2.772h-3.456V26h3.888v-9.252c0-2.844 1.116-5.544 4.572-5.544h1.728V7.568h-.864zm19.548 15.048c-.792 0-1.188-.252-1.188-1.188v-7.38c0-4.356-2.808-6.696-7.704-6.696-4.644 0-7.74 2.232-8.136 5.832h3.816c.288-1.62 1.836-2.7 4.14-2.7 2.556 0 4.032 1.26 4.032 3.312v1.116h-4.644c-5.148 0-7.884 2.124-7.884 5.904 0 3.42 2.808 5.4 6.84 5.4 2.988 0 4.86-1.296 6.084-3.168 0 1.836.864 2.952 3.384 2.952h2.052v-3.384h-.792zm-5.04-4.176c-.036 2.844-1.908 4.752-5.148 4.752-2.124 0-3.42-1.08-3.42-2.628 0-1.872 1.332-2.772 3.744-2.772h4.824v.648zm21.813-8.316c-1.188-1.62-3.168-2.772-5.976-2.772-5.004 0-8.712 3.744-8.712 9.432 0 5.904 3.708 9.432 8.712 9.432 2.916 0 4.824-1.368 6.012-2.988L67.463 26h3.384V.8h-3.888v9.324zM61.63 22.94c-3.24 0-5.364-2.52-5.364-6.156 0-3.6 2.124-6.12 5.364-6.12 3.24 0 5.364 2.52 5.364 6.192 0 3.564-2.124 6.084-5.364 6.084zm21.763 3.276c4.572 0 7.668-2.772 8.316-6.408h-3.888c-.54 2.052-2.268 3.24-4.644 3.24-3.06 0-5.04-2.052-5.148-5.184v-.252h13.896c.072-.504.108-1.008.108-1.476-.108-5.4-3.672-8.784-9-8.784-5.436 0-9.072 3.78-9.072 9.468 0 5.652 3.636 9.396 9.432 9.396zm-5.22-11.448c.288-2.628 2.412-4.284 4.896-4.284 2.7 0 4.608 1.548 4.932 4.284h-9.828zM109.356 26h4.752l6.804-18.432h-4.104l-5.004 14.256-5.076-14.256h-4.176L109.356 26zm21.393.216c5.616 0 9.396-3.78 9.396-9.432 0-5.616-3.78-9.432-9.396-9.432-5.616 0-9.396 3.816-9.396 9.432 0 5.652 3.78 9.432 9.396 9.432zm0-3.312c-3.276 0-5.4-2.556-5.4-6.12s2.124-6.12 5.4-6.12c3.276 0 5.436 2.556 5.436 6.12s-2.16 6.12-5.436 6.12zM143.271 26h3.888V.8h-3.888V26zm24.548-3.384c-.792 0-1.188-.252-1.188-1.188v-7.38c0-4.356-2.808-6.696-7.704-6.696-4.644 0-7.74 2.232-8.136 5.832h3.816c.288-1.62 1.836-2.7 4.14-2.7 2.556 0 4.032 1.26 4.032 3.312v1.116h-4.644c-5.148 0-7.885 2.124-7.885 5.904 0 3.42 2.809 5.4 6.841 5.4 2.988 0 4.86-1.296 6.084-3.168 0 1.836.864 2.952 3.384 2.952h2.052v-3.384h-.792zm-5.04-4.176c-.036 2.844-1.908 4.752-5.148 4.752-2.124 0-3.42-1.08-3.42-2.628 0-1.872 1.332-2.772 3.744-2.772h4.824v.648zm9.281 2.556c0 3.348 1.512 5.004 5.04 5.004h3.6v-3.42h-2.736c-1.476 0-1.98-.54-1.98-1.98v-9.612h4.5v-3.42h-4.5V2.42h-3.924v5.148h-3.204v3.42h3.204v10.008zm13.094-16.02c1.332 0 2.376-.972 2.376-2.34 0-1.368-1.044-2.34-2.376-2.34-1.332 0-2.376.972-2.376 2.34 0 1.368 1.044 2.34 2.376 2.34zM183.174 26h3.888V7.568h-3.888V26zm7.699 0h3.888V.8h-3.888V26zm9.679-21.024c1.332 0 2.376-.972 2.376-2.34 0-1.368-1.044-2.34-2.376-2.34-1.332 0-2.376.972-2.376 2.34 0 1.368 1.044 2.34 2.376 2.34zM198.572 26h3.888V7.568h-3.888V26zm9.031-5.004c0 3.348 1.512 5.004 5.04 5.004h3.6v-3.42h-2.736c-1.476 0-1.98-.54-1.98-1.98v-9.612h4.5v-3.42h-4.5V2.42h-3.924v5.148h-3.204v3.42h3.204v10.008zm16.442 5.112l-.72 1.8c-.576 1.512-.936 1.872-2.448 1.872h-2.736v3.42h4.176c2.7 0 3.492-1.332 4.644-4.32l8.352-21.312h-4.14l-5.004 14.004-5.148-14.004h-4.14l7.164 18.54zM10.62 65.216c5.616 0 9.396-3.78 9.396-9.432 0-5.616-3.78-9.432-9.396-9.432-5.616 0-9.396 3.816-9.396 9.432 0 5.652 3.78 9.432 9.396 9.432zm0-3.312c-3.276 0-5.4-2.556-5.4-6.12s2.124-6.12 5.4-6.12c3.276 0 5.436 2.556 5.436 6.12s-2.16 6.12-5.436 6.12zm22.242-15.552c-2.988 0-4.752 1.188-5.904 2.628l-.432-2.412h-3.384V65h3.888v-9.288c0-3.744 1.836-6.012 4.932-6.012 2.916 0 4.392 1.872 4.392 5.364V65h3.924V54.74c0-6.156-3.348-8.388-7.416-8.388zm21.495 13.644c0 3.348 1.512 5.004 5.04 5.004h3.6v-3.42h-2.736c-1.476 0-1.98-.54-1.98-1.98v-9.612h4.5v-3.42h-4.5V41.42h-3.924v5.148h-3.204v3.42h3.204v10.008zm20.797-13.644c-2.88 0-4.644 1.296-5.795 2.88V39.8H65.47V65h3.888v-9.324c0-3.708 1.872-5.976 4.931-5.976 2.88 0 4.428 1.872 4.428 5.364V65h3.888V54.74c0-6.156-3.347-8.388-7.451-8.388zM94.75 65.216c4.572 0 7.668-2.772 8.316-6.408h-3.888c-.54 2.052-2.268 3.24-4.644 3.24-3.06 0-5.04-2.052-5.148-5.184v-.252h13.896c.072-.504.108-1.008.108-1.476-.108-5.4-3.672-8.784-9-8.784-5.436 0-9.072 3.78-9.072 9.468 0 5.652 3.636 9.396 9.432 9.396zm-5.22-11.448c.288-2.628 2.412-4.284 4.896-4.284 2.7 0 4.608 1.548 4.932 4.284H89.53zM118.408 65l2.34-6.228h10.332L133.456 65h4.428l-9.396-25.2h-4.932L114.124 65h4.284zm7.488-20.736l4.032 10.98H121.9l3.996-10.98zm26.179 11.52c0 3.816-1.8 6.048-4.752 6.048-2.844 0-4.284-1.836-4.284-5.436v-9.828h-3.888v10.26c0 6.3 3.348 8.388 7.272 8.388 2.844 0 4.536-1.152 5.688-2.556l.432 2.34h3.42V46.568h-3.888v9.216zm6.928 3.132c.108 3.996 3.492 6.3 8.424 6.3 4.464 0 7.812-2.232 7.812-5.76 0-4.104-3.42-4.968-7.632-5.472-2.664-.288-4.428-.504-4.428-2.232 0-1.476 1.512-2.412 3.816-2.412s3.888 1.188 4.104 2.88h3.816c-.252-3.78-3.456-5.868-7.992-5.868-4.428-.036-7.56 2.232-7.56 5.724 0 3.816 3.312 4.716 7.524 5.22 2.844.36 4.536.504 4.536 2.484 0 1.476-1.584 2.412-3.996 2.412-2.808 0-4.464-1.368-4.608-3.276h-3.816zm20.581 1.08c0 3.348 1.512 5.004 5.04 5.004h3.6v-3.42h-2.736c-1.476 0-1.98-.54-1.98-1.98v-9.612h4.5v-3.42h-4.5V41.42h-3.924v5.148h-3.204v3.42h3.204v10.008zm20.437-13.428c-3.024 0-4.5 1.224-5.436 2.772l-.432-2.772h-3.456V65h3.888v-9.252c0-2.844 1.116-5.544 4.572-5.544h1.728v-3.636h-.864zm19.548 15.048c-.792 0-1.188-.252-1.188-1.188v-7.38c0-4.356-2.808-6.696-7.704-6.696-4.644 0-7.74 2.232-8.136 5.832h3.816c.288-1.62 1.836-2.7 4.14-2.7 2.556 0 4.032 1.26 4.032 3.312v1.116h-4.644c-5.148 0-7.885 2.124-7.885 5.904 0 3.42 2.809 5.4 6.841 5.4 2.988 0 4.86-1.296 6.084-3.168 0 1.836.864 2.952 3.384 2.952h2.052v-3.384h-.792zm-5.04-4.176c-.036 2.844-1.908 4.752-5.148 4.752-2.124 0-3.42-1.08-3.42-2.628 0-1.872 1.332-2.772 3.744-2.772h4.824v.648zm7.949 7.56h3.888V39.8h-3.888V65zm9.68-21.024c1.332 0 2.376-.972 2.376-2.34 0-1.368-1.044-2.34-2.376-2.34-1.332 0-2.376.972-2.376 2.34 0 1.368 1.044 2.34 2.376 2.34zM230.178 65h3.888V46.568h-3.888V65zm24.547-3.384c-.792 0-1.188-.252-1.188-1.188v-7.38c0-4.356-2.808-6.696-7.704-6.696-4.644 0-7.74 2.232-8.136 5.832h3.816c.288-1.62 1.836-2.7 4.14-2.7 2.556 0 4.032 1.26 4.032 3.312v1.116h-4.644c-5.148 0-7.884 2.124-7.884 5.904 0 3.42 2.808 5.4 6.84 5.4 2.988 0 4.86-1.296 6.084-3.168 0 1.836.864 2.952 3.384 2.952h2.052v-3.384h-.792zm-5.04-4.176c-.036 2.844-1.908 4.752-5.148 4.752-2.124 0-3.42-1.08-3.42-2.628 0-1.872 1.332-2.772 3.744-2.772h4.824v.648zM.792 104h17.856v-3.492H6.444l6.696-5.58c3.06-2.556 5.328-4.896 5.328-8.64 0-4.608-3.168-7.704-8.82-7.704-5.364 0-8.82 3.492-8.82 8.28v.648h3.996v-.432c0-3.132 1.944-5.076 4.824-5.076s4.788 1.584 4.788 4.464c0 2.412-1.692 4.176-3.96 6.084l-9.684 8.244V104zm20.3-12.024c0 7.596 4.068 12.24 9.936 12.24 5.867 0 9.936-4.644 9.936-12.24v-1.152c0-7.308-4.069-12.24-9.936-12.24-5.868 0-9.936 4.932-9.936 12.24v1.152zm15.84-.144c0 5.652-2.377 8.892-5.905 8.892-3.527 0-5.904-3.24-5.904-8.892v-.864c0-5.616 2.377-8.892 5.904-8.892 3.529 0 5.904 3.276 5.904 8.892v.864zm6.835.144c0 7.596 4.068 12.24 9.936 12.24s9.936-4.644 9.936-12.24v-1.152c0-7.308-4.068-12.24-9.936-12.24s-9.936 4.932-9.936 12.24v1.152zm15.84-.144c0 5.652-2.376 8.892-5.904 8.892s-5.904-3.24-5.904-8.892v-.864c0-5.616 2.376-8.892 5.904-8.892s5.904 3.276 5.904 8.892v.864zm17.883 7.164c0 3.348 1.512 5.004 5.04 5.004h3.6v-3.42h-2.736c-1.476 0-1.98-.54-1.98-1.98v-9.612h4.5v-3.42h-4.5V80.42H77.49v5.148h-3.204v3.42h3.204v10.008zm19.439 5.22c5.616 0 9.396-3.78 9.396-9.432 0-5.616-3.78-9.432-9.396-9.432-5.616 0-9.396 3.816-9.396 9.432 0 5.652 3.78 9.432 9.396 9.432zm0-3.312c-3.276 0-5.4-2.556-5.4-6.12s2.124-6.12 5.4-6.12c3.276 0 5.436 2.556 5.436 6.12s-2.16 6.12-5.436 6.12zm26.526-12.78c-1.188-1.62-3.168-2.772-5.976-2.772-5.004 0-8.712 3.744-8.712 9.432 0 5.904 3.708 9.432 8.712 9.432 2.916 0 4.824-1.368 6.012-2.988l.468 2.772h3.384V78.8h-3.888v9.324zm-5.328 12.816c-3.24 0-5.364-2.52-5.364-6.156 0-3.6 2.124-6.12 5.364-6.12 3.24 0 5.364 2.52 5.364 6.192 0 3.564-2.124 6.084-5.364 6.084zm29.863-.324c-.792 0-1.188-.252-1.188-1.188v-7.38c0-4.356-2.808-6.696-7.704-6.696-4.644 0-7.74 2.232-8.136 5.832h3.816c.288-1.62 1.836-2.7 4.14-2.7 2.556 0 4.032 1.26 4.032 3.312v1.116h-4.644c-5.148 0-7.884 2.124-7.884 5.904 0 3.42 2.808 5.4 6.84 5.4 2.988 0 4.86-1.296 6.084-3.168 0 1.836.864 2.952 3.384 2.952h2.052v-3.384h-.792zm-5.04-4.176c-.036 2.844-1.908 4.752-5.148 4.752-2.124 0-3.42-1.08-3.42-2.628 0-1.872 1.332-2.772 3.744-2.772h4.824v.648zm12.505 7.668l-.72 1.8c-.576 1.512-.936 1.872-2.448 1.872h-2.736v3.42h4.176c2.7 0 3.492-1.332 4.644-4.32l8.352-21.312h-4.14l-5.004 14.004-5.148-14.004h-4.14l7.164 18.54z" fill="#000"/></svg>