<svg width="220" height="40" viewBox="0 0 220 40" fill="none" xmlns="http://www.w3.org/2000/svg"><path d="M1.982 9.512c-.501 0-.933-.176-1.296-.528a1.788 1.788 0 01-.544-1.312c0-.523.182-.96.544-1.312a1.77 1.77 0 011.296-.544c.523 0 .96.181 1.312.544.363.352.544.79.544 1.312 0 .512-.181.95-.544 1.312-.352.352-.789.528-1.312.528zM16.4 1.816V13h-1.12V1.816h1.12zm6.632 2.288c1.046 0 1.899.325 2.56.976.662.64.992 1.573.992 2.8V13H25.48V8.008c0-.95-.24-1.675-.72-2.176-.47-.501-1.114-.752-1.936-.752-.842 0-1.514.267-2.016.8-.501.533-.752 1.317-.752 2.352V13h-1.12V4.264h1.12v1.488a2.81 2.81 0 011.2-1.216c.523-.288 1.115-.432 1.776-.432zm9.037 9.024c-1.002 0-1.824-.23-2.464-.688-.63-.47-.981-1.104-1.056-1.904h1.152c.054.49.283.89.688 1.2.416.299.97.448 1.664.448.608 0 1.083-.144 1.424-.432.352-.288.528-.645.528-1.072a.997.997 0 00-.288-.736 1.95 1.95 0 00-.736-.448 9.506 9.506 0 00-1.184-.368c-.65-.17-1.178-.341-1.584-.512a2.804 2.804 0 01-1.04-.752c-.277-.341-.416-.795-.416-1.36 0-.427.128-.821.384-1.184s.619-.65 1.088-.864c.47-.213 1.003-.32 1.6-.32.939 0 1.696.24 2.272.72.576.47.886 1.12.928 1.952h-1.12c-.032-.512-.234-.923-.608-1.232-.362-.32-.864-.48-1.504-.48-.565 0-1.024.133-1.376.4-.352.267-.528.597-.528.992 0 .341.102.624.304.848.214.213.475.384.784.512.31.117.726.25 1.248.4.63.17 1.13.336 1.504.496.374.16.694.395.96.704.267.31.406.72.416 1.232 0 .47-.128.89-.384 1.264-.256.363-.613.65-1.072.864-.458.213-.986.32-1.584.32zm6.604-7.92v5.424c0 .533.102.901.304 1.104.203.203.56.304 1.073.304h1.024V13h-1.2c-.79 0-1.377-.181-1.76-.544-.384-.373-.576-.981-.576-1.824V5.208h-1.216v-.944h1.215V2.072h1.136v2.192h2.4v.944h-2.4zm4.808-2.592a.786.786 0 01-.576-.24.804.804 0 01-.24-.592c0-.235.08-.427.24-.576.16-.16.352-.24.576-.24.224 0 .416.08.576.24.16.15.24.341.24.576 0 .235-.08.432-.24.592a.786.786 0 01-.576.24zm.56 1.648V13h-1.12V4.264h1.12zm3.992.944v5.424c0 .533.101.901.304 1.104.202.203.56.304 1.072.304h1.024V13h-1.2c-.79 0-1.376-.181-1.76-.544-.384-.373-.576-.981-.576-1.824V5.208H45.68v-.944h1.216V2.072h1.136v2.192h2.4v.944h-2.4zm11.815-.944V13h-1.12v-1.536c-.256.544-.65.96-1.184 1.248a3.71 3.71 0 01-1.792.432c-1.045 0-1.899-.32-2.56-.96-.661-.65-.992-1.59-.992-2.816V4.264h1.104V9.24c0 .95.235 1.675.704 2.176.48.501 1.13.752 1.952.752.843 0 1.515-.267 2.016-.8.501-.533.752-1.317.752-2.352V4.264h1.12zm4.013.944v5.424c0 .533.101.901.304 1.104.203.203.56.304 1.072.304h1.024V13h-1.2c-.79 0-1.376-.181-1.76-.544-.384-.373-.576-.981-.576-1.824V5.208h-1.216v-.944h1.216V2.072h1.136v2.192h2.4v.944h-2.4zm4.807-2.592a.786.786 0 01-.576-.24.804.804 0 01-.24-.592c0-.235.08-.427.24-.576.16-.16.352-.24.576-.24.224 0 .416.08.576.24.16.15.24.341.24.576 0 .235-.08.432-.24.592a.786.786 0 01-.576.24zm.56 1.648V13h-1.12V4.264h1.12zm6.36 8.864c-.821 0-1.562-.181-2.224-.544a4.134 4.134 0 01-1.552-1.568c-.373-.683-.56-1.477-.56-2.384 0-.907.192-1.696.576-2.368a3.959 3.959 0 011.568-1.568c.662-.373 1.403-.56 2.224-.56.822 0 1.563.187 2.224.56a3.83 3.83 0 011.568 1.568c.384.672.576 1.461.576 2.368 0 .896-.192 1.685-.576 2.368a4.039 4.039 0 01-1.584 1.584c-.672.363-1.418.544-2.24.544zm0-.976c.576 0 1.11-.128 1.6-.384a3.01 3.01 0 001.184-1.184c.31-.533.464-1.184.464-1.952s-.149-1.413-.448-1.936c-.298-.533-.693-.928-1.184-1.184a3.297 3.297 0 00-1.6-.4c-.576 0-1.109.133-1.6.4-.49.256-.885.65-1.184 1.184-.288.523-.432 1.168-.432 1.936s.144 1.419.432 1.952c.299.523.688.917 1.168 1.184.491.256 1.024.384 1.6.384zm10.538-8.048c1.045 0 1.899.325 2.56.976.661.64.992 1.573.992 2.8V13h-1.104V8.008c0-.95-.24-1.675-.72-2.176-.47-.501-1.115-.752-1.936-.752-.843 0-1.515.267-2.016.8-.501.533-.752 1.317-.752 2.352V13h-1.12V4.264h1.12v1.488a2.81 2.81 0 011.2-1.216c.523-.288 1.115-.432 1.776-.432zm5.517 4.512c0-.896.176-1.68.528-2.352.363-.683.859-1.205 1.488-1.568.64-.373 1.36-.56 2.16-.56.832 0 1.547.192 2.144.576.608.384 1.045.875 1.312 1.472v-1.92h1.12V13h-1.12v-1.936c-.277.597-.72 1.093-1.328 1.488-.597.384-1.312.576-2.144.576-.79 0-1.504-.187-2.144-.56a3.952 3.952 0 01-1.488-1.584c-.352-.683-.528-1.472-.528-2.368zm7.632.016c0-.704-.144-1.323-.432-1.856a3.066 3.066 0 00-1.184-1.232 3.165 3.165 0 00-1.632-.432c-.619 0-1.173.139-1.664.416-.49.277-.88.683-1.168 1.216-.277.523-.416 1.147-.416 1.872 0 .715.139 1.344.416 1.888a3.1 3.1 0 001.168 1.232c.49.277 1.045.416 1.664.416.597 0 1.141-.144 1.632-.432a3.066 3.066 0 001.184-1.232c.288-.533.432-1.152.432-1.856zm4.797-7.472V13h-1.12V1.16h1.12zm7.96 5.44v.944h-6.224V6.6h6.224zm6.537-2.464c.821 0 1.536.192 2.144.576.608.384 1.045.87 1.312 1.456V4.264h1.12v8.96c0 .8-.176 1.51-.528 2.128a3.49 3.49 0 01-1.44 1.424c-.619.341-1.323.512-2.112.512-1.12 0-2.053-.267-2.8-.8-.736-.533-1.195-1.259-1.376-2.176h1.104a2.7 2.7 0 001.088 1.456c.544.363 1.205.544 1.984.544.565 0 1.072-.123 1.52-.368a2.52 2.52 0 001.056-1.056c.256-.47.384-1.024.384-1.664v-2.16c-.277.597-.72 1.093-1.328 1.488-.597.384-1.307.576-2.128.576-.8 0-1.52-.187-2.16-.56a3.956 3.956 0 01-1.488-1.584c-.352-.683-.528-1.472-.528-2.368 0-.896.176-1.68.528-2.352.363-.683.859-1.205 1.488-1.568.64-.373 1.36-.56 2.16-.56zm3.456 4.496c0-.704-.144-1.323-.432-1.856a3.068 3.068 0 00-1.184-1.232 3.166 3.166 0 00-1.632-.432c-.619 0-1.173.139-1.664.416-.491.277-.88.683-1.168 1.216-.277.523-.416 1.147-.416 1.872 0 .715.139 1.344.416 1.888.288.533.677.944 1.168 1.232a3.322 3.322 0 001.664.416c.597 0 1.141-.144 1.632-.432a3.068 3.068 0 001.184-1.232c.288-.533.432-1.152.432-1.856zm4.797-2.816a2.75 2.75 0 011.12-1.264c.512-.299 1.136-.448 1.872-.448v1.168h-.304c-.811 0-1.461.219-1.952.656-.491.437-.736 1.168-.736 2.192V13h-1.12V4.264h1.12v1.552zm4.165 2.8c0-.896.176-1.68.528-2.352a3.833 3.833 0 011.488-1.568c.64-.373 1.36-.56 2.16-.56.832 0 1.546.192 2.144.576.608.384 1.045.875 1.312 1.472v-1.92h1.12V13h-1.12v-1.936c-.278.597-.72 1.093-1.328 1.488-.598.384-1.312.576-2.144.576-.79 0-1.504-.187-2.144-.56a3.942 3.942 0 01-1.488-1.584c-.352-.683-.528-1.472-.528-2.368zm7.632.016c0-.704-.144-1.323-.432-1.856a3.068 3.068 0 00-1.184-1.232 3.166 3.166 0 00-1.632-.432 3.32 3.32 0 00-1.664.416c-.491.277-.88.683-1.168 1.216-.278.523-.416 1.147-.416 1.872 0 .715.138 1.344.416 1.888.288.533.677.944 1.168 1.232a3.32 3.32 0 001.664.416c.597 0 1.141-.144 1.632-.432a3.068 3.068 0 001.184-1.232c.288-.533.432-1.152.432-1.856zm3.165-.016c0-.896.181-1.68.544-2.352a3.833 3.833 0 011.488-1.568c.64-.373 1.36-.56 2.16-.56.768 0 1.461.187 2.08.56.618.373 1.072.859 1.36 1.456V1.16h1.12V13h-1.12v-1.952c-.267.608-.704 1.11-1.312 1.504-.608.384-1.323.576-2.144.576-.8 0-1.52-.187-2.16-.56a3.942 3.942 0 01-1.488-1.584c-.352-.683-.528-1.472-.528-2.368zm7.632.016c0-.704-.144-1.323-.432-1.856a3.068 3.068 0 00-1.184-1.232 3.166 3.166 0 00-1.632-.432 3.32 3.32 0 00-1.664.416c-.491.277-.88.683-1.168 1.216-.278.523-.416 1.147-.416 1.872 0 .715.138 1.344.416 1.888.288.533.677.944 1.168 1.232a3.32 3.32 0 001.664.416c.597 0 1.141-.144 1.632-.432a3.068 3.068 0 001.184-1.232c.288-.533.432-1.152.432-1.856zm11.581-.448c0 .384-.011.677-.032.88h-7.248c.032.661.192 1.227.48 1.696.288.47.666.827 1.136 1.072.469.235.981.352 1.536.352.725 0 1.333-.176 1.824-.528.501-.352.832-.827.992-1.424h1.184a3.726 3.726 0 01-1.376 2.096c-.694.533-1.568.8-2.624.8-.822 0-1.558-.181-2.208-.544a4.016 4.016 0 01-1.536-1.568c-.363-.683-.544-1.477-.544-2.384 0-.907.181-1.701.544-2.384a3.775 3.775 0 011.52-1.568c.65-.363 1.392-.544 2.224-.544.832 0 1.557.181 2.176.544a3.679 3.679 0 011.44 1.472c.341.608.512 1.285.512 2.032zm-1.136-.032c.01-.65-.123-1.205-.4-1.664a2.6 2.6 0 00-1.104-1.04 3.39 3.39 0 00-1.536-.352c-.832 0-1.542.267-2.128.8-.587.533-.912 1.285-.976 2.256h6.144zm8.679-1.968c.278-.587.715-1.072 1.312-1.456.608-.395 1.328-.592 2.16-.592.79 0 1.499.187 2.128.56a3.71 3.71 0 011.488 1.568c.363.672.544 1.456.544 2.352 0 .896-.181 1.685-.544 2.368a3.812 3.812 0 01-1.488 1.584c-.629.373-1.338.56-2.128.56-.821 0-1.536-.192-2.144-.576-.608-.395-1.05-.885-1.328-1.472v6.048h-1.104V4.264h1.104v1.92zm6.496 2.432c0-.725-.144-1.35-.432-1.872a2.883 2.883 0 00-1.152-1.216 3.32 3.32 0 00-1.664-.416c-.597 0-1.146.144-1.648.432-.49.288-.88.699-1.168 1.232-.288.533-.432 1.152-.432 1.856 0 .704.144 1.323.432 1.856.288.533.678.944 1.168 1.232a3.253 3.253 0 001.648.432 3.32 3.32 0 001.664-.416 2.988 2.988 0 001.152-1.232c.288-.544.432-1.173.432-1.888zm4.317-2.8a2.75 2.75 0 011.12-1.264c.512-.299 1.136-.448 1.872-.448v1.168h-.304c-.811 0-1.461.219-1.952.656-.491.437-.736 1.168-.736 2.192V13h-1.12V4.264h1.12v1.552zm5.237-3.2a.786.786 0 01-.576-.24.804.804 0 01-.24-.592c0-.235.08-.427.24-.576.16-.16.352-.24.576-.24.224 0 .416.08.576.24.16.15.24.341.24.576 0 .235-.08.432-.24.592a.786.786 0 01-.576.24zm.56 1.648V13h-1.12V4.264h1.12zm2.024 4.368c0-.907.182-1.696.544-2.368a3.812 3.812 0 011.504-1.568c.64-.373 1.371-.56 2.192-.56 1.078 0 1.963.267 2.656.8.704.533 1.158 1.259 1.36 2.176h-1.2c-.149-.63-.474-1.12-.976-1.472-.49-.363-1.104-.544-1.84-.544-.586 0-1.114.133-1.584.4-.469.267-.842.667-1.12 1.2-.266.523-.4 1.168-.4 1.936s.134 1.419.4 1.952c.278.533.651.933 1.12 1.2.47.267.998.4 1.584.4.736 0 1.35-.176 1.84-.528.502-.363.827-.864.976-1.504h1.2c-.202.896-.656 1.616-1.36 2.16-.704.544-1.589.816-2.656.816-.821 0-1.552-.181-2.192-.544a3.945 3.945 0 01-1.504-1.568c-.362-.683-.544-1.477-.544-2.384zm10.885-6.016a.786.786 0 01-.576-.24.804.804 0 01-.24-.592c0-.235.08-.427.24-.576.16-.16.352-.24.576-.24.224 0 .416.08.576.24.16.15.24.341.24.576 0 .235-.08.432-.24.592a.786.786 0 01-.576.24zm.56 1.648V13h-1.12V4.264h1.12zm6.632-.16c1.045 0 1.899.325 2.56.976.661.64.992 1.573.992 2.8V13h-1.104V8.008c0-.95-.24-1.675-.72-2.176-.469-.501-1.115-.752-1.936-.752-.843 0-1.515.267-2.016.8-.501.533-.752 1.317-.752 2.352V13h-1.12V4.264h1.12v1.488a2.808 2.808 0 011.2-1.216c.523-.288 1.115-.432 1.776-.432zm9.693.032c.821 0 1.536.192 2.144.576.608.384 1.045.87 1.312 1.456V4.264h1.12v8.96c0 .8-.176 1.51-.528 2.128a3.49 3.49 0 01-1.44 1.424c-.619.341-1.323.512-2.112.512-1.12 0-2.053-.267-2.8-.8-.736-.533-1.195-1.259-1.376-2.176h1.104a2.7 2.7 0 001.088 1.456c.544.363 1.205.544 1.984.544.565 0 1.072-.123 1.52-.368a2.52 2.52 0 001.056-1.056c.256-.47.384-1.024.384-1.664v-2.16c-.277.597-.72 1.093-1.328 1.488-.597.384-1.307.576-2.128.576-.8 0-1.52-.187-2.16-.56a3.956 3.956 0 01-1.488-1.584c-.352-.683-.528-1.472-.528-2.368 0-.896.176-1.68.528-2.352.363-.683.859-1.205 1.488-1.568.64-.373 1.36-.56 2.16-.56zm3.456 4.496c0-.704-.144-1.323-.432-1.856a3.068 3.068 0 00-1.184-1.232 3.166 3.166 0 00-1.632-.432c-.619 0-1.173.139-1.664.416-.491.277-.88.683-1.168 1.216-.277.523-.416 1.147-.416 1.872 0 .715.139 1.344.416 1.888.288.533.677.944 1.168 1.232a3.322 3.322 0 001.664.416c.597 0 1.141-.144 1.632-.432a3.068 3.068 0 001.184-1.232c.288-.533.432-1.152.432-1.856zM14.768 30.616c0-.896.176-1.68.528-2.352.363-.683.859-1.205 1.488-1.568.64-.373 1.36-.56 2.16-.56.832 0 1.547.192 2.144.576.608.384 1.045.875 1.312 1.472v-1.92h1.12V35H22.4v-1.936c-.277.597-.72 1.093-1.328 1.488-.597.384-1.312.576-2.144.576-.79 0-1.504-.187-2.144-.56a3.952 3.952 0 01-1.488-1.584c-.352-.683-.528-1.472-.528-2.368zm7.632.016c0-.704-.144-1.323-.432-1.856a3.066 3.066 0 00-1.184-1.232 3.165 3.165 0 00-1.632-.432c-.619 0-1.173.139-1.664.416-.49.277-.88.683-1.168 1.216-.277.523-.416 1.147-.416 1.872 0 .715.139 1.344.416 1.888a3.1 3.1 0 001.168 1.232c.49.277 1.045.416 1.664.416.597 0 1.141-.144 1.632-.432a3.066 3.066 0 001.184-1.232c.288-.533.432-1.152.432-1.856zm7.773-4.528c1.045 0 1.899.325 2.56.976.661.64.992 1.573.992 2.8V35H32.62v-4.992c0-.95-.24-1.675-.72-2.176-.47-.501-1.115-.752-1.936-.752-.843 0-1.515.267-2.016.8-.502.533-.752 1.317-.752 2.352V35h-1.12v-8.736h1.12v1.488a2.81 2.81 0 011.2-1.216c.523-.288 1.115-.432 1.776-.432zm5.517 4.512c0-.896.181-1.68.544-2.352.362-.683.858-1.205 1.488-1.568.64-.373 1.36-.56 2.16-.56.768 0 1.461.187 2.08.56.618.373 1.072.859 1.36 1.456V23.16h1.12V35h-1.12v-1.952c-.267.608-.704 1.11-1.312 1.504-.608.384-1.323.576-2.144.576-.8 0-1.52-.187-2.16-.56a3.95 3.95 0 01-1.488-1.584c-.352-.683-.528-1.472-.528-2.368zm7.632.016c0-.704-.144-1.323-.432-1.856a3.066 3.066 0 00-1.184-1.232 3.165 3.165 0 00-1.632-.432c-.619 0-1.173.139-1.664.416-.49.277-.88.683-1.168 1.216-.277.523-.416 1.147-.416 1.872 0 .715.139 1.344.416 1.888a3.1 3.1 0 001.168 1.232c.49.277 1.045.416 1.664.416.597 0 1.141-.144 1.632-.432a3.066 3.066 0 001.184-1.232c.288-.533.432-1.152.432-1.856zm9.187-7.472V35h-1.12V23.16h1.12zm3.097 1.456a.786.786 0 01-.576-.24.804.804 0 01-.24-.592c0-.235.08-.427.24-.576.16-.16.352-.24.576-.24.224 0 .416.08.576.24.16.15.24.341.24.576 0 .235-.08.432-.24.592a.786.786 0 01-.576.24zm.56 1.648V35h-1.12v-8.736h1.12zm2.024 4.352c0-.896.181-1.68.544-2.352.362-.683.858-1.205 1.488-1.568.64-.373 1.36-.56 2.16-.56.821 0 1.536.197 2.144.592.608.384 1.04.87 1.296 1.456v-1.92h1.12v12.864h-1.12V33.08c-.256.587-.694 1.077-1.312 1.472-.608.384-1.328.576-2.16.576-.79 0-1.504-.187-2.144-.56a3.95 3.95 0 01-1.488-1.584c-.352-.683-.528-1.472-.528-2.368zm7.632.016c0-.704-.144-1.323-.432-1.856a3.066 3.066 0 00-1.184-1.232 3.165 3.165 0 00-1.632-.432c-.619 0-1.173.139-1.664.416-.49.277-.88.683-1.168 1.216-.277.523-.416 1.147-.416 1.872 0 .715.139 1.344.416 1.888a3.1 3.1 0 001.168 1.232c.49.277 1.045.416 1.664.416.597 0 1.141-.144 1.632-.432a3.066 3.066 0 001.184-1.232c.288-.533.432-1.152.432-1.856zm11.245-4.368V35h-1.12v-1.536c-.256.544-.65.96-1.184 1.248a3.71 3.71 0 01-1.792.432c-1.046 0-1.899-.32-2.56-.96-.662-.65-.992-1.59-.992-2.816v-5.104h1.104v4.976c0 .95.234 1.675.704 2.176.48.501 1.13.752 1.952.752.842 0 1.514-.267 2.016-.8.501-.533.752-1.317.752-2.352v-4.752h1.12zm3.117-1.648a.786.786 0 01-.576-.24.804.804 0 01-.24-.592c0-.235.08-.427.24-.576.16-.16.352-.24.576-.24.224 0 .416.08.576.24.16.15.24.341.24.576 0 .235-.08.432-.24.592a.786.786 0 01-.576.24zm.56 1.648V35h-1.12v-8.736h1.12zm2.024 4.352c0-.896.181-1.68.544-2.352.363-.683.859-1.205 1.488-1.568.64-.373 1.36-.56 2.16-.56.768 0 1.461.187 2.08.56.619.373 1.072.859 1.36 1.456V23.16h1.12V35H90.4v-1.952c-.267.608-.704 1.11-1.312 1.504-.608.384-1.323.576-2.144.576-.8 0-1.52-.187-2.16-.56a3.952 3.952 0 01-1.488-1.584c-.352-.683-.528-1.472-.528-2.368zm7.632.016c0-.704-.144-1.323-.432-1.856a3.066 3.066 0 00-1.184-1.232 3.165 3.165 0 00-1.632-.432c-.619 0-1.173.139-1.664.416-.49.277-.88.683-1.168 1.216-.277.523-.416 1.147-.416 1.872 0 .715.139 1.344.416 1.888a3.1 3.1 0 001.168 1.232c.49.277 1.045.416 1.664.416.597 0 1.141-.144 1.632-.432a3.066 3.066 0 001.184-1.232c.288-.533.432-1.152.432-1.856zm4.237-6.016a.786.786 0 01-.576-.24.804.804 0 01-.24-.592c0-.235.08-.427.24-.576.16-.16.352-.24.576-.24.224 0 .416.08.576.24.16.15.24.341.24.576 0 .235-.08.432-.24.592a.786.786 0 01-.576.24zm.56 1.648V35h-1.12v-8.736h1.12zm3.992.944v5.424c0 .533.102.901.304 1.104.203.203.56.304 1.072.304h1.024V35h-1.2c-.79 0-1.376-.181-1.76-.544-.384-.373-.576-.981-.576-1.824v-5.424h-1.216v-.944h1.216v-2.192h1.136v2.192h2.4v.944h-2.4zm11.447-.944l-5.184 12.848h-1.168l1.696-4.16-3.584-8.688h1.232l2.976 7.456 2.88-7.456h1.152z" fill="#fff"/></svg>