<svg width="143" height="31" viewBox="0 0 143 31" fill="none" xmlns="http://www.w3.org/2000/svg"><rect width="143" height="31" rx="15.5" fill="#14964F"/><path d="M15.251 10.27V20h4.886v-1.288h-3.29V10.27h-1.596zm13.57 5.866c0-2.422-1.735-3.976-3.933-3.976-2.198 0-3.934 1.554-3.934 3.976 0 2.422 1.666 3.99 3.864 3.99 2.212 0 4.004-1.568 4.004-3.99zm-6.243 0c0-1.75 1.078-2.59 2.282-2.59 1.19 0 2.324.84 2.324 2.59s-1.176 2.604-2.366 2.604c-1.204 0-2.24-.854-2.24-2.604zm7.29-.028c0 2.38 1.61 4.018 3.64 4.018 1.26 0 2.184-.63 2.674-1.288v1.288c0 1.54-.924 2.296-2.156 2.296-1.106 0-1.96-.546-2.198-1.344h-1.582c.196 1.708 1.722 2.73 3.78 2.73 2.408 0 3.766-1.582 3.766-3.682v-7.84h-1.61v1.12c-.476-.658-1.414-1.246-2.674-1.246-2.03 0-3.64 1.568-3.64 3.948zm6.314.028c0 1.666-1.134 2.604-2.338 2.604-1.19 0-2.338-.966-2.338-2.632 0-1.666 1.148-2.562 2.338-2.562 1.204 0 2.338.938 2.338 2.59zM43.525 20h1.596v-7.714h-1.596V20zm.812-8.736c.56 0 1.008-.448 1.008-1.022 0-.574-.448-1.022-1.008-1.022a1.01 1.01 0 00-1.022 1.022 1.01 1.01 0 001.022 1.022zM52.69 20h1.582v-4.55c0-2.156-1.358-3.29-3.164-3.29-.924 0-1.778.378-2.296 1.008v-.882h-1.596V20h1.596v-4.312c0-1.414.77-2.142 1.946-2.142 1.162 0 1.932.728 1.932 2.142V20zm6.723-3.892c0 2.38 1.61 4.018 3.612 4.018 1.288 0 2.212-.616 2.702-1.274V20h1.61v-7.714h-1.61v1.12c-.477-.63-1.373-1.246-2.675-1.246-2.03 0-3.64 1.568-3.64 3.948zm6.314.028c0 1.666-1.135 2.604-2.339 2.604-1.19 0-2.337-.966-2.337-2.632 0-1.666 1.148-2.562 2.337-2.562 1.205 0 2.339.938 2.339 2.59zM74.906 20h1.582v-4.55c0-2.156-1.358-3.29-3.164-3.29-.924 0-1.778.378-2.296 1.008v-.882h-1.596V20h1.596v-4.312c0-1.414.77-2.142 1.946-2.142 1.162 0 1.932.728 1.932 2.142V20zm3.086-3.892c0 2.38 1.61 4.018 3.64 4.018 1.26 0 2.184-.588 2.674-1.288V20h1.61V9.64h-1.61v3.724c-.588-.728-1.652-1.204-2.66-1.204-2.044 0-3.654 1.568-3.654 3.948zm6.314.028c0 1.666-1.134 2.604-2.338 2.604-1.19 0-2.338-.966-2.338-2.632 0-1.666 1.148-2.562 2.338-2.562 1.204 0 2.338.938 2.338 2.59zm7.595 1.722c0 1.568.854 2.142 2.226 2.142h1.26v-1.33h-.98c-.672 0-.896-.238-.896-.812v-4.27h1.876v-1.302h-1.876v-1.918h-1.61v1.918h-.91v1.302h.91v4.27zm6.553-1.918c0-1.638.728-2.128 1.904-2.128h.406V12.16c-1.092 0-1.862.476-2.31 1.246v-1.12h-1.596V20h1.596v-4.06zm3.245.168c0 2.38 1.61 4.018 3.612 4.018 1.288 0 2.212-.616 2.702-1.274V20h1.61v-7.714h-1.61v1.12c-.476-.63-1.372-1.246-2.674-1.246-2.03 0-3.64 1.568-3.64 3.948zm6.314.028c0 1.666-1.134 2.604-2.338 2.604-1.19 0-2.338-.966-2.338-2.632 0-1.666 1.148-2.562 2.338-2.562 1.204 0 2.338.938 2.338 2.59zm3.174-.028c0 2.38 1.61 4.018 3.64 4.018 1.26 0 2.184-.588 2.674-1.288V20h1.61V9.64h-1.61v3.724c-.588-.728-1.652-1.204-2.66-1.204-2.044 0-3.654 1.568-3.654 3.948zm6.314.028c0 1.666-1.134 2.604-2.338 2.604-1.19 0-2.338-.966-2.338-2.632 0-1.666 1.148-2.562 2.338-2.562 1.204 0 2.338.938 2.338 2.59zm6.954-2.632c1.19 0 2.128.756 2.156 1.946h-4.27c.168-1.218 1.036-1.946 2.114-1.946zm3.612 4.2h-1.722c-.294.602-.84 1.078-1.82 1.078-1.176 0-2.086-.77-2.198-2.044h5.894c.042-.266.056-.518.056-.784 0-2.268-1.554-3.794-3.752-3.794-2.282 0-3.85 1.554-3.85 3.976 0 2.422 1.638 3.99 3.85 3.99 1.89 0 3.108-1.078 3.542-2.422z" fill="#fff"/></svg>