<svg width="253" height="85" viewBox="0 0 253 85" fill="none" xmlns="http://www.w3.org/2000/svg"><path d="M.975 8.95h4.65V24h2.85V8.95H13.1V6.625H.975V8.95zm17.861 7.8c0-2.925 1.3-3.8 3.4-3.8h.725V10c-1.95 0-3.325.85-4.125 2.225v-2h-2.85V24h2.85v-7.25zm5.795.3c0 4.25 2.875 7.175 6.45 7.175 2.3 0 3.95-1.1 4.825-2.275V24h2.875V10.225h-2.875v2C35.056 11.1 33.456 10 31.131 10c-3.625 0-6.5 2.8-6.5 7.05zm11.275.05c0 2.975-2.025 4.65-4.175 4.65-2.125 0-4.175-1.725-4.175-4.7s2.05-4.575 4.175-4.575c2.15 0 4.175 1.675 4.175 4.625zm5.668-.05c0 4.25 2.875 7.175 6.5 7.175 2.25 0 3.9-1.05 4.775-2.3V24h2.875V5.5H52.85v6.65C51.8 10.85 49.9 10 48.1 10c-3.65 0-6.525 2.8-6.525 7.05zm11.275.05c0 2.975-2.025 4.65-4.175 4.65-2.125 0-4.175-1.725-4.175-4.7s2.05-4.575 4.175-4.575c2.15 0 4.175 1.675 4.175 4.625zm12.419-4.7c2.125 0 3.8 1.35 3.85 3.475h-7.625c.3-2.175 1.85-3.475 3.775-3.475zm6.45 7.5h-3.075c-.525 1.075-1.5 1.925-3.25 1.925-2.1 0-3.725-1.375-3.925-3.65h10.525c.075-.475.1-.925.1-1.4 0-4.05-2.775-6.775-6.7-6.775-4.075 0-6.875 2.775-6.875 7.1 0 4.325 2.925 7.125 6.875 7.125 3.375 0 5.55-1.925 6.325-4.325zM90.992 6.6h-9.6V24h9.6v-2.325h-6.75V16.35h6v-2.325h-6v-5.1h6.75V6.6zm3.485 11.05c0 4.425 3.1 6.525 6.75 6.525 3.625 0 6.825-2.1 6.825-6.525V6.625h-2.85V17.7c0 2.7-1.525 3.975-3.95 3.975-2.4 0-3.925-1.275-3.925-3.975V6.625h-2.85V17.65zm26.511-5.825c0 1.725-1 2.95-3.225 2.95h-3.15V8.95h3.15c2.225 0 3.225 1.125 3.225 2.875zm-9.225-5.2V24h2.85v-6.95h2.175l4 6.95h3.4l-4.3-7.2c2.925-.725 4.025-2.925 4.025-4.975 0-2.825-2.025-5.2-6.15-5.2h-6zm15.446 21.75h2.8L136.809.4h-2.825l-6.775 27.975zm13.166-10.725c0 4.425 3.1 6.525 6.75 6.525 3.625 0 6.825-2.1 6.825-6.525V6.625h-2.85V17.7c0 2.7-1.525 3.975-3.95 3.975-2.4 0-3.925-1.275-3.925-3.975V6.625h-2.85V17.65zm29.011 1.425c0-6.35-9.2-3.9-9.2-7.825 0-1.675 1.275-2.475 2.925-2.425 1.8.05 2.825 1.125 2.925 2.3h3.15c-.25-2.975-2.6-4.725-5.925-4.725-3.55 0-5.975 1.9-5.975 4.95 0 6.4 9.225 3.675 9.225 7.875 0 1.475-1.125 2.55-3.125 2.55-1.975 0-2.975-1.15-3.1-2.575h-3.05c0 3.075 2.675 4.975 6.15 4.975 3.875 0 6-2.5 6-5.1zm9.038-12.45h-5.675V24h5.675c5.575 0 9.225-3.275 9.225-8.625 0-5.375-3.65-8.75-9.225-8.75zm-2.825 15.05V8.95h2.825c4.1 0 6.3 2.45 6.3 6.425 0 3.95-2.2 6.3-6.3 6.3h-2.825zM4.55 54h3l2.775-10.175L13.1 54h3l4.275-13.775h-2.8l-2.85 11.025-2.8-11.025H8.95L6.025 51.3 3.15 40.225H.25L4.55 54zm17.955 0h2.85V40.225h-2.85V54zm1.45-15.6c1 0 1.8-.8 1.8-1.825s-.8-1.825-1.8-1.825c-1.025 0-1.825.8-1.825 1.825s.8 1.825 1.825 1.825zm5.592 11.775c0 2.8 1.525 3.825 3.975 3.825h2.25v-2.375h-1.75c-1.2 0-1.6-.425-1.6-1.45V42.55h3.35v-2.325h-3.35V36.8h-2.875v3.425h-1.625v2.325h1.625v7.625zM38.398 54h2.85v-7.7c0-2.525 1.375-3.825 3.475-3.825 2.075 0 3.45 1.3 3.45 3.825V54h2.825v-8.125c0-3.85-2.4-5.875-5.475-5.875-1.775 0-3.325.675-4.275 1.825V35.5h-2.85V54zm22.73 0h2.85V35.5h-2.85V54zm19.717-6.9c0-4.325-3.1-7.1-7.025-7.1-3.925 0-7.025 2.775-7.025 7.1 0 4.325 2.975 7.125 6.9 7.125 3.95 0 7.15-2.8 7.15-7.125zm-11.15 0c0-3.125 1.925-4.625 4.075-4.625 2.125 0 4.15 1.5 4.15 4.625s-2.1 4.65-4.225 4.65c-2.15 0-4-1.525-4-4.65zM86.337 54h3l2.775-10.175L94.887 54h3l4.275-13.775h-2.8l-2.85 11.025-2.8-11.025h-2.975L87.812 51.3l-2.875-11.075h-2.9L86.337 54zm34.724-3.85c-.15-4.975-7.925-3.425-7.925-6.2 0-.925.8-1.55 2.325-1.55 1.55 0 2.475.825 2.575 2.025h2.85c-.15-2.75-2.2-4.425-5.325-4.425-3.25 0-5.3 1.775-5.3 3.975 0 5.05 8 3.5 8 6.2 0 .95-.875 1.65-2.525 1.65-1.575 0-2.65-.925-2.75-2.05h-2.95c.125 2.5 2.45 4.45 5.75 4.45 3.25 0 5.275-1.75 5.275-4.075zm5.93-7.9v-2.025h-2.85V60.55h2.85V52a6.228 6.228 0 004.8 2.225c3.625 0 6.475-2.925 6.475-7.175s-2.85-7.05-6.475-7.05c-2.25 0-3.925 1.1-4.8 2.25zm8.375 4.8c0 2.975-2.05 4.7-4.2 4.7-2.125 0-4.175-1.675-4.175-4.65 0-2.95 2.05-4.625 4.175-4.625 2.15 0 4.2 1.6 4.2 4.575zm8.568-.3c0-2.925 1.3-3.8 3.4-3.8h.725V40c-1.95 0-3.325.85-4.125 2.225v-2h-2.85V54h2.85v-7.25zm12.545-4.35c2.125 0 3.8 1.35 3.85 3.475h-7.625c.3-2.175 1.85-3.475 3.775-3.475zm6.45 7.5h-3.075c-.525 1.075-1.5 1.925-3.25 1.925-2.1 0-3.725-1.375-3.925-3.65h10.525c.075-.475.1-.925.1-1.4 0-4.05-2.775-6.775-6.7-6.775-4.075 0-6.875 2.775-6.875 7.1 0 4.325 2.925 7.125 6.875 7.125 3.375 0 5.55-1.925 6.325-4.325zm2.229-2.85c0 4.25 2.875 7.175 6.45 7.175 2.3 0 3.95-1.1 4.825-2.275V54h2.875V40.225h-2.875v2c-.85-1.125-2.45-2.225-4.775-2.225-3.625 0-6.5 2.8-6.5 7.05zm11.275.05c0 2.975-2.025 4.65-4.175 4.65-2.125 0-4.175-1.725-4.175-4.7s2.05-4.575 4.175-4.575c2.15 0 4.175 1.675 4.175 4.625zm5.669-.05c0 4.25 2.875 7.175 6.5 7.175 2.25 0 3.9-1.05 4.775-2.3V54h2.875V35.5h-2.875v6.65c-1.05-1.3-2.95-2.15-4.75-2.15-3.65 0-6.525 2.8-6.525 7.05zm11.275.05c0 2.975-2.025 4.65-4.175 4.65-2.125 0-4.175-1.725-4.175-4.7s2.05-4.575 4.175-4.575c2.15 0 4.175 1.675 4.175 4.625zm16.893 3.05c-.15-4.975-7.925-3.425-7.925-6.2 0-.925.8-1.55 2.325-1.55 1.55 0 2.475.825 2.575 2.025h2.85c-.15-2.75-2.2-4.425-5.325-4.425-3.25 0-5.3 1.775-5.3 3.975 0 5.05 8 3.5 8 6.2 0 .95-.875 1.65-2.525 1.65-1.575 0-2.65-.925-2.75-2.05h-2.95c.125 2.5 2.45 4.45 5.75 4.45 3.25 0 5.275-1.75 5.275-4.075zM.925 77.05c0 4.25 2.875 7.175 6.45 7.175 2.3 0 3.95-1.1 4.825-2.275V84h2.875V70.225H12.2v2C11.35 71.1 9.75 70 7.425 70c-3.625 0-6.5 2.8-6.5 7.05zm11.275.05c0 2.975-2.025 4.65-4.175 4.65-2.125 0-4.175-1.725-4.175-4.7s2.05-4.575 4.175-4.575c2.15 0 4.175 1.675 4.175 4.625zM28.593 84h2.825v-8.125c0-3.85-2.425-5.875-5.65-5.875-1.65 0-3.175.675-4.1 1.8v-1.575h-2.85V84h2.85v-7.7c0-2.525 1.375-3.825 3.475-3.825 2.075 0 3.45 1.3 3.45 3.825V84zm5.51-6.95c0 4.25 2.876 7.175 6.5 7.175 2.25 0 3.9-1.05 4.776-2.3V84h2.875V65.5h-2.875v6.65c-1.05-1.3-2.95-2.15-4.75-2.15-3.65 0-6.525 2.8-6.525 7.05zm11.276.05c0 2.975-2.025 4.65-4.175 4.65-2.125 0-4.175-1.725-4.175-4.7s2.05-4.575 4.175-4.575c2.15 0 4.175 1.675 4.175 4.625zm12.737-2.45c0 5.3 1.4 9.3 6.5 9.3s6.5-4 6.5-9.3c0-5.2-1.4-9.2-6.5-9.2s-6.5 4-6.5 9.2zm10.2 0c0 3.575-.375 6.7-3.7 6.7s-3.7-3.125-3.7-6.7c0-3.4.375-6.6 3.7-6.6s3.7 3.2 3.7 6.6zm5.366-4.475c0 2.5 1.625 3.925 3.8 3.925s3.8-1.425 3.8-3.925c0-2.475-1.625-3.9-3.8-3.9s-3.8 1.425-3.8 3.9zm3.8-2.175c.95 0 1.575.625 1.575 2.175 0 1.55-.625 2.2-1.575 2.2-.975 0-1.575-.65-1.575-2.2 0-1.55.6-2.175 1.575-2.175zm-1.325 16h2.8l9.975-17.4h-2.8L76.157 84zm7.7-3.6c0 2.5 1.625 3.925 3.8 3.925 2.15 0 3.775-1.425 3.775-3.925s-1.625-3.9-3.775-3.9c-2.175 0-3.8 1.4-3.8 3.9zm3.775-2.175c.95 0 1.575.625 1.575 2.175 0 1.55-.625 2.175-1.575 2.175s-1.575-.625-1.575-2.175c0-1.55.625-2.175 1.575-2.175zM99.9 77.1c0 4.325 2.8 7.125 6.75 7.125 3.375 0 5.575-1.875 6.35-4.575h-3.075c-.525 1.425-1.575 2.175-3.275 2.175-2.3 0-3.825-1.7-3.825-4.725 0-3 1.525-4.7 3.825-4.7 1.7 0 2.8.85 3.275 2.175H113c-.775-2.9-2.975-4.575-6.35-4.575-3.95 0-6.75 2.8-6.75 7.1zm29.065 0c0-4.325-3.1-7.1-7.025-7.1-3.925 0-7.025 2.775-7.025 7.1 0 4.325 2.975 7.125 6.9 7.125 3.95 0 7.15-2.8 7.15-7.125zm-11.15 0c0-3.125 1.925-4.625 4.075-4.625 2.125 0 4.15 1.5 4.15 4.625s-2.1 4.65-4.225 4.65c-2.15 0-4-1.525-4-4.65zm33.492 6.9h2.825v-8.125c0-3.85-2.45-5.875-5.675-5.875-2 0-3.95 1.05-4.8 2.725-.95-1.8-2.775-2.725-4.95-2.725-1.65 0-3.15.675-4.075 1.8v-1.575h-2.85V84h2.85v-7.7c0-2.525 1.375-3.825 3.475-3.825 2.075 0 3.45 1.3 3.45 3.825V84h2.825v-7.7c0-2.525 1.375-3.825 3.475-3.825 2.075 0 3.45 1.3 3.45 3.825V84zm25.977 0h2.825v-8.125c0-3.85-2.45-5.875-5.675-5.875-2 0-3.95 1.05-4.8 2.725-.95-1.8-2.775-2.725-4.95-2.725-1.65 0-3.15.675-4.075 1.8v-1.575h-2.85V84h2.85v-7.7c0-2.525 1.375-3.825 3.475-3.825 2.075 0 3.45 1.3 3.45 3.825V84h2.825v-7.7c0-2.525 1.375-3.825 3.475-3.825 2.075 0 3.45 1.3 3.45 3.825V84zm6.451 0h2.85V70.225h-2.85V84zm1.45-15.6c1 0 1.8-.8 1.8-1.825s-.8-1.825-1.8-1.825c-1.025 0-1.825.8-1.825 1.825s.8 1.825 1.825 1.825zm15.417 11.75c-.15-4.975-7.925-3.425-7.925-6.2 0-.925.8-1.55 2.325-1.55 1.55 0 2.475.825 2.575 2.025h2.85c-.15-2.75-2.2-4.425-5.325-4.425-3.25 0-5.3 1.775-5.3 3.975 0 5.05 8 3.5 8 6.2 0 .95-.875 1.65-2.525 1.65-1.575 0-2.65-.925-2.75-2.05h-2.95c.125 2.5 2.45 4.45 5.75 4.45 3.25 0 5.275-1.75 5.275-4.075zm13.355 0c-.15-4.975-7.925-3.425-7.925-6.2 0-.925.8-1.55 2.325-1.55 1.55 0 2.475.825 2.575 2.025h2.85c-.15-2.75-2.2-4.425-5.325-4.425-3.25 0-5.3 1.775-5.3 3.975 0 5.05 8 3.5 8 6.2 0 .95-.875 1.65-2.525 1.65-1.575 0-2.65-.925-2.75-2.05h-2.95c.125 2.5 2.45 4.45 5.75 4.45 3.25 0 5.275-1.75 5.275-4.075zm3.079 3.85h2.85V70.225h-2.85V84zm1.45-15.6c1 0 1.8-.8 1.8-1.825s-.8-1.825-1.8-1.825c-1.025 0-1.825.8-1.825 1.825s.8 1.825 1.825 1.825zm18.267 8.7c0-4.325-3.1-7.1-7.025-7.1-3.925 0-7.025 2.775-7.025 7.1 0 4.325 2.975 7.125 6.9 7.125 3.95 0 7.15-2.8 7.15-7.125zm-11.15 0c0-3.125 1.925-4.625 4.075-4.625 2.125 0 4.15 1.5 4.15 4.625s-2.1 4.65-4.225 4.65c-2.15 0-4-1.525-4-4.65zm23.742 6.9h2.825v-8.125c0-3.85-2.425-5.875-5.65-5.875-1.65 0-3.175.675-4.1 1.8v-1.575h-2.85V84h2.85v-7.7c0-2.525 1.375-3.825 3.475-3.825 2.075 0 3.45 1.3 3.45 3.825V84z" fill="#fff"/></svg>