<svg width="188" height="18" viewBox="0 0 188 18" fill="none" xmlns="http://www.w3.org/2000/svg"><path d="M1.982 9.512c-.501 0-.933-.176-1.296-.528a1.788 1.788 0 01-.544-1.312c0-.523.182-.96.544-1.312a1.77 1.77 0 011.296-.544c.523 0 .96.181 1.312.544.363.352.544.79.544 1.312 0 .512-.181.95-.544 1.312-.352.352-.789.528-1.312.528zM16.4 2.728v4.176h4.24v.928H16.4v4.24h4.72V13h-5.84V1.8h5.84v.928H16.4zM27.903 13l-2.256-3.52L23.47 13h-1.184l2.816-4.368-2.784-4.368h1.264l2.224 3.472 2.16-3.472h1.168l-2.784 4.32L29.167 13h-1.264zm2.271-4.368c0-.907.182-1.696.544-2.368a3.81 3.81 0 011.504-1.568c.64-.373 1.37-.56 2.192-.56 1.078 0 1.963.267 2.656.8.704.533 1.158 1.259 1.36 2.176h-1.2c-.15-.63-.474-1.12-.976-1.472-.49-.363-1.104-.544-1.84-.544a3.15 3.15 0 00-1.584.4c-.47.267-.842.667-1.12 1.2-.266.523-.4 1.168-.4 1.936s.134 1.419.4 1.952c.278.533.65.933 1.12 1.2.47.267.998.4 1.584.4.736 0 1.35-.176 1.84-.528.502-.363.827-.864.976-1.504h1.2c-.202.896-.656 1.616-1.36 2.16-.704.544-1.59.816-2.656.816-.821 0-1.552-.181-2.192-.544a3.943 3.943 0 01-1.504-1.568c-.362-.683-.544-1.477-.544-2.384zM41.62 1.16V13h-1.12V1.16h1.12zm10.104 3.104V13h-1.12v-1.536c-.256.544-.65.96-1.184 1.248a3.71 3.71 0 01-1.792.432c-1.045 0-1.899-.32-2.56-.96-.661-.65-.992-1.59-.992-2.816V4.264h1.104V9.24c0 .95.235 1.675.704 2.176.48.501 1.13.752 1.952.752.843 0 1.515-.267 2.016-.8.501-.533.752-1.317.752-2.352V4.264h1.12zm5.565 8.864c-1.003 0-1.824-.23-2.464-.688-.63-.47-.981-1.104-1.056-1.904h1.152c.053.49.283.89.688 1.2.416.299.97.448 1.664.448.608 0 1.083-.144 1.424-.432.352-.288.528-.645.528-1.072a.997.997 0 00-.288-.736 1.949 1.949 0 00-.736-.448 9.506 9.506 0 00-1.184-.368c-.65-.17-1.179-.341-1.584-.512a2.805 2.805 0 01-1.04-.752c-.277-.341-.416-.795-.416-1.36 0-.427.128-.821.384-1.184s.619-.65 1.088-.864c.47-.213 1.003-.32 1.6-.32.939 0 1.696.24 2.272.72.576.47.885 1.12.928 1.952h-1.12c-.032-.512-.235-.923-.608-1.232-.363-.32-.864-.48-1.504-.48-.565 0-1.024.133-1.376.4-.352.267-.528.597-.528.992 0 .341.101.624.304.848.213.213.475.384.784.512.31.117.725.25 1.248.4.63.17 1.13.336 1.504.496.373.16.693.395.96.704.267.31.405.72.416 1.232 0 .47-.128.89-.384 1.264-.256.363-.613.65-1.072.864-.459.213-.987.32-1.584.32zm5.708-10.512a.786.786 0 01-.576-.24.804.804 0 01-.24-.592c0-.235.08-.427.24-.576.16-.16.352-.24.576-.24.224 0 .416.08.576.24.16.15.24.341.24.576 0 .235-.08.432-.24.592a.786.786 0 01-.576.24zm.56 1.648V13h-1.12V4.264h1.12zm5.64 7.648l2.945-7.648h1.183L69.82 13h-1.263l-3.505-8.736h1.2l2.945 7.648zm13.55-3.728c0 .384-.01.677-.031.88h-7.249c.033.661.193 1.227.48 1.696.288.47.667.827 1.136 1.072.47.235.982.352 1.537.352.725 0 1.333-.176 1.823-.528.502-.352.833-.827.993-1.424h1.183a3.722 3.722 0 01-1.375 2.096c-.694.533-1.569.8-2.624.8-.822 0-1.558-.181-2.209-.544a4.02 4.02 0 01-1.535-1.568c-.363-.683-.544-1.477-.544-2.384 0-.907.18-1.701.543-2.384a3.781 3.781 0 011.52-1.568c.651-.363 1.392-.544 2.224-.544.833 0 1.558.181 2.177.544.629.363 1.109.853 1.44 1.472a4.08 4.08 0 01.511 2.032zm-1.135-.032c.01-.65-.123-1.205-.4-1.664a2.596 2.596 0 00-1.105-1.04 3.386 3.386 0 00-1.535-.352c-.832 0-1.542.267-2.129.8-.586.533-.911 1.285-.975 2.256h6.144zm9.031-2.944v5.424c0 .533.102.901.304 1.104.203.203.56.304 1.072.304h1.024V13h-1.2c-.79 0-1.376-.181-1.76-.544-.384-.373-.576-.981-.576-1.824V5.208H88.29v-.944h1.216V2.072h1.136v2.192h2.4v.944h-2.4zm5.367.608a2.75 2.75 0 011.12-1.264c.512-.299 1.136-.448 1.872-.448v1.168h-.304c-.81 0-1.461.219-1.952.656-.49.437-.736 1.168-.736 2.192V13h-1.12V4.264h1.12v1.552zm4.165 2.8c0-.896.176-1.68.528-2.352.363-.683.859-1.205 1.488-1.568.64-.373 1.36-.56 2.16-.56.832 0 1.547.192 2.144.576.608.384 1.046.875 1.312 1.472v-1.92h1.12V13h-1.12v-1.936c-.277.597-.72 1.093-1.328 1.488-.597.384-1.312.576-2.144.576a4.178 4.178 0 01-2.144-.56 3.956 3.956 0 01-1.488-1.584c-.352-.683-.528-1.472-.528-2.368zm7.632.016c0-.704-.144-1.323-.432-1.856a3.061 3.061 0 00-1.184-1.232 3.161 3.161 0 00-1.632-.432c-.618 0-1.173.139-1.664.416-.49.277-.88.683-1.168 1.216-.277.523-.416 1.147-.416 1.872 0 .715.139 1.344.416 1.888.288.533.678.944 1.168 1.232a3.325 3.325 0 001.664.416c.598 0 1.142-.144 1.632-.432a3.062 3.062 0 001.184-1.232c.288-.533.432-1.152.432-1.856zm3.165-.016c0-.896.181-1.68.544-2.352.363-.683.859-1.205 1.488-1.568.64-.373 1.36-.56 2.16-.56.768 0 1.461.187 2.08.56.619.373 1.072.859 1.36 1.456V1.16h1.12V13h-1.12v-1.952c-.267.608-.704 1.11-1.312 1.504-.608.384-1.323.576-2.144.576-.8 0-1.52-.187-2.16-.56a3.956 3.956 0 01-1.488-1.584c-.352-.683-.528-1.472-.528-2.368zm7.632.016c0-.704-.144-1.323-.432-1.856a3.068 3.068 0 00-1.184-1.232 3.166 3.166 0 00-1.632-.432c-.619 0-1.173.139-1.664.416-.491.277-.88.683-1.168 1.216-.277.523-.416 1.147-.416 1.872 0 .715.139 1.344.416 1.888.288.533.677.944 1.168 1.232a3.322 3.322 0 001.664.416c.597 0 1.141-.144 1.632-.432a3.068 3.068 0 001.184-1.232c.288-.533.432-1.152.432-1.856zm4.237-6.016a.786.786 0 01-.576-.24.804.804 0 01-.24-.592c0-.235.08-.427.24-.576.16-.16.352-.24.576-.24.224 0 .416.08.576.24.16.15.24.341.24.576 0 .235-.08.432-.24.592a.786.786 0 01-.576.24zm.56 1.648V13h-1.12V4.264h1.12zm6.632-.16c1.046 0 1.899.325 2.56.976.662.64.992 1.573.992 2.8V13h-1.104V8.008c0-.95-.24-1.675-.72-2.176-.469-.501-1.114-.752-1.936-.752-.842 0-1.514.267-2.016.8-.501.533-.752 1.317-.752 2.352V13h-1.12V4.264h1.12v1.488a2.818 2.818 0 011.2-1.216c.523-.288 1.115-.432 1.776-.432zm9.693.032c.822 0 1.536.192 2.144.576.608.384 1.046.87 1.312 1.456V4.264h1.12v8.96c0 .8-.176 1.51-.528 2.128a3.49 3.49 0 01-1.44 1.424c-.618.341-1.322.512-2.112.512-1.12 0-2.053-.267-2.8-.8-.736-.533-1.194-1.259-1.376-2.176h1.104a2.7 2.7 0 001.088 1.456c.544.363 1.206.544 1.984.544a3.11 3.11 0 001.52-.368 2.52 2.52 0 001.056-1.056c.256-.47.384-1.024.384-1.664v-2.16c-.277.597-.72 1.093-1.328 1.488-.597.384-1.306.576-2.128.576-.8 0-1.52-.187-2.16-.56a3.956 3.956 0 01-1.488-1.584c-.352-.683-.528-1.472-.528-2.368 0-.896.176-1.68.528-2.352.363-.683.859-1.205 1.488-1.568.64-.373 1.36-.56 2.16-.56zm3.456 4.496c0-.704-.144-1.323-.432-1.856a3.061 3.061 0 00-1.184-1.232 3.161 3.161 0 00-1.632-.432c-.618 0-1.173.139-1.664.416-.49.277-.88.683-1.168 1.216-.277.523-.416 1.147-.416 1.872 0 .715.139 1.344.416 1.888.288.533.678.944 1.168 1.232a3.325 3.325 0 001.664.416c.598 0 1.142-.144 1.632-.432a3.062 3.062 0 001.184-1.232c.288-.533.432-1.152.432-1.856zm9.524-3.424v5.424c0 .533.101.901.304 1.104.202.203.56.304 1.072.304h1.024V13h-1.2c-.79 0-1.376-.181-1.76-.544-.384-.373-.576-.981-.576-1.824V5.208h-1.216v-.944h1.216V2.072h1.136v2.192h2.4v.944h-2.4zm8.071 7.92c-.821 0-1.563-.181-2.224-.544A4.132 4.132 0 01157 11.016c-.373-.683-.56-1.477-.56-2.384 0-.907.192-1.696.576-2.368a3.962 3.962 0 011.568-1.568c.661-.373 1.403-.56 2.224-.56.821 0 1.563.187 2.224.56a3.827 3.827 0 011.568 1.568c.384.672.576 1.461.576 2.368 0 .896-.192 1.685-.576 2.368a4.039 4.039 0 01-1.584 1.584c-.672.363-1.419.544-2.24.544zm0-.976c.576 0 1.109-.128 1.6-.384a3.008 3.008 0 001.184-1.184c.309-.533.464-1.184.464-1.952s-.149-1.413-.448-1.936c-.299-.533-.693-.928-1.184-1.184a3.298 3.298 0 00-1.6-.4c-.576 0-1.109.133-1.6.4-.491.256-.885.65-1.184 1.184-.288.523-.432 1.168-.432 1.936s.144 1.419.432 1.952c.299.523.688.917 1.168 1.184a3.408 3.408 0 001.6.384zm10.266.976c-.822 0-1.563-.181-2.224-.544a4.132 4.132 0 01-1.552-1.568c-.374-.683-.56-1.477-.56-2.384 0-.907.192-1.696.576-2.368a3.955 3.955 0 011.568-1.568c.661-.373 1.402-.56 2.224-.56.821 0 1.562.187 2.224.56a3.833 3.833 0 011.568 1.568c.384.672.576 1.461.576 2.368 0 .896-.192 1.685-.576 2.368a4.039 4.039 0 01-1.584 1.584c-.672.363-1.419.544-2.24.544zm0-.976c.576 0 1.109-.128 1.6-.384.49-.267.885-.661 1.184-1.184.309-.533.464-1.184.464-1.952s-.15-1.413-.448-1.936c-.299-.533-.694-.928-1.184-1.184a3.298 3.298 0 00-1.6-.4c-.576 0-1.11.133-1.6.4-.491.256-.886.65-1.184 1.184-.288.523-.432 1.168-.432 1.936s.144 1.419.432 1.952c.298.523.688.917 1.168 1.184.49.256 1.024.384 1.6.384zm7.561-10.992V13h-1.12V1.16h1.12zm5.544 11.968c-1.002 0-1.824-.23-2.464-.688-.629-.47-.981-1.104-1.056-1.904h1.152c.054.49.283.89.688 1.2.416.299.971.448 1.664.448.608 0 1.083-.144 1.424-.432.352-.288.528-.645.528-1.072a.997.997 0 00-.288-.736 1.946 1.946 0 00-.736-.448 9.468 9.468 0 00-1.184-.368c-.65-.17-1.178-.341-1.584-.512a2.807 2.807 0 01-1.04-.752c-.277-.341-.416-.795-.416-1.36 0-.427.128-.821.384-1.184s.619-.65 1.088-.864c.47-.213 1.003-.32 1.6-.32.939 0 1.696.24 2.272.72.576.47.886 1.12.928 1.952h-1.12c-.032-.512-.234-.923-.608-1.232-.362-.32-.864-.48-1.504-.48-.565 0-1.024.133-1.376.4-.352.267-.528.597-.528.992 0 .341.102.624.304.848.214.213.475.384.784.512.31.117.726.25 1.248.4.63.17 1.131.336 1.504.496.374.16.694.395.96.704.267.31.406.72.416 1.232 0 .47-.128.89-.384 1.264-.256.363-.613.65-1.072.864-.458.213-.986.32-1.584.32z" fill="#fff"/></svg>