<svg width="225" height="35" viewBox="0 0 225 35" fill="none" xmlns="http://www.w3.org/2000/svg"><path d="M2.485 7.948c-.44 0-.817-.154-1.134-.462a1.565 1.565 0 01-.476-1.148c0-.457.158-.84.476-1.148a1.548 1.548 0 011.134-.476c.457 0 .84.159 1.148.476.317.308.476.69.476 1.148 0 .448-.16.83-.476 1.148-.308.308-.691.462-1.148.462zM15.1 1.214V11h-.98V1.214h.98zm5.803 2.002c.915 0 1.662.285 2.24.854.579.56.868 1.377.868 2.45V11h-.966V6.632c0-.83-.21-1.465-.63-1.904-.41-.439-.975-.658-1.694-.658-.737 0-1.325.233-1.764.7-.438.467-.658 1.153-.658 2.058V11h-.98V3.356h.98v1.302a2.46 2.46 0 011.05-1.064 3.166 3.166 0 011.554-.378zm7.908 7.896c-.878 0-1.596-.2-2.156-.602-.551-.41-.86-.966-.924-1.666h1.008c.046.43.247.78.602 1.05.364.261.849.392 1.456.392.532 0 .947-.126 1.246-.378.308-.252.462-.565.462-.938a.872.872 0 00-.252-.644 1.706 1.706 0 00-.644-.392 8.313 8.313 0 00-1.036-.322 10.61 10.61 0 01-1.386-.448 2.454 2.454 0 01-.91-.658c-.243-.299-.364-.695-.364-1.19 0-.373.112-.719.336-1.036.224-.317.54-.57.952-.756.41-.187.877-.28 1.4-.28.82 0 1.484.21 1.988.63.504.41.774.98.812 1.708h-.98c-.028-.448-.206-.807-.532-1.078-.318-.28-.756-.42-1.316-.42-.495 0-.896.117-1.204.35-.308.233-.462.523-.462.868 0 .299.088.546.266.742.186.187.415.336.686.448.27.103.634.22 1.092.35.55.15.989.294 1.316.434.326.14.606.345.84.616.233.27.354.63.364 1.078 0 .41-.112.78-.336 1.106a2.31 2.31 0 01-.938.756c-.402.187-.864.28-1.386.28zm5.778-6.93v4.746c0 .467.089.789.266.966.178.177.49.266.938.266h.896V11h-1.05c-.69 0-1.204-.159-1.54-.476-.336-.327-.504-.859-.504-1.596V4.182h-1.064v-.826h1.064V1.438h.994v1.918h2.1v.826h-2.1zm4.206-2.268a.687.687 0 01-.504-.21.704.704 0 01-.21-.518c0-.205.07-.373.21-.504.14-.14.309-.21.505-.21s.364.07.504.21c.14.13.21.299.21.504 0 .205-.07.378-.21.518a.687.687 0 01-.505.21zm.49 1.442V11h-.98V3.356h.98zm3.494.826v4.746c0 .467.088.789.266.966.177.177.49.266.938.266h.896V11h-1.05c-.69 0-1.204-.159-1.54-.476-.336-.327-.504-.859-.504-1.596V4.182H40.72v-.826h1.064V1.438h.994v1.918h2.1v.826h-2.1zm10.338-.826V11h-.98V9.656c-.224.476-.57.84-1.036 1.092-.467.252-.99.378-1.568.378-.915 0-1.661-.28-2.24-.84-.579-.57-.868-1.39-.868-2.464V3.356h.966V7.71c0 .83.205 1.465.616 1.904.42.439.99.658 1.708.658.737 0 1.325-.233 1.764-.7.439-.467.658-1.153.658-2.058V3.356h.98zm3.511.826v4.746c0 .467.089.789.266.966.178.177.49.266.938.266h.896V11h-1.05c-.69 0-1.204-.159-1.54-.476-.336-.327-.504-.859-.504-1.596V4.182H54.57v-.826h1.064V1.438h.994v1.918h2.1v.826h-2.1zm4.207-2.268a.687.687 0 01-.504-.21.704.704 0 01-.21-.518c0-.205.07-.373.21-.504.14-.14.308-.21.504-.21s.364.07.504.21c.14.13.21.299.21.504 0 .205-.07.378-.21.518a.687.687 0 01-.504.21zm.49 1.442V11h-.98V3.356h.98zm5.565 7.756c-.719 0-1.368-.159-1.946-.476a3.618 3.618 0 01-1.358-1.372c-.327-.597-.49-1.293-.49-2.086 0-.793.168-1.484.504-2.072a3.465 3.465 0 011.372-1.372 3.89 3.89 0 011.946-.49c.718 0 1.367.163 1.946.49a3.35 3.35 0 011.372 1.372c.336.588.504 1.279.504 2.072 0 .784-.168 1.475-.504 2.072a3.535 3.535 0 01-1.386 1.386 4.06 4.06 0 01-1.96.476zm0-.854c.504 0 .97-.112 1.4-.336.43-.233.774-.579 1.036-1.036.27-.467.406-1.036.406-1.708 0-.672-.13-1.237-.392-1.694-.261-.467-.607-.812-1.036-1.036a2.885 2.885 0 00-1.4-.35c-.504 0-.97.117-1.4.35-.43.224-.775.57-1.036 1.036-.252.457-.378 1.022-.378 1.694 0 .672.126 1.241.378 1.708.261.457.602.803 1.022 1.036.43.224.896.336 1.4.336zm9.22-7.042c.915 0 1.662.285 2.24.854.579.56.868 1.377.868 2.45V11h-.966V6.632c0-.83-.21-1.465-.63-1.904-.41-.439-.975-.658-1.694-.658-.737 0-1.325.233-1.764.7-.438.467-.658 1.153-.658 2.058V11h-.98V3.356h.98v1.302a2.46 2.46 0 011.05-1.064 3.166 3.166 0 011.554-.378zm4.828 3.948c0-.784.154-1.47.462-2.058a3.362 3.362 0 011.302-1.372c.56-.327 1.19-.49 1.89-.49.728 0 1.353.168 1.876.504.532.336.914.765 1.148 1.288v-1.68h.98V11h-.98V9.306c-.243.523-.63.957-1.162 1.302-.523.336-1.148.504-1.876.504-.691 0-1.316-.163-1.876-.49A3.459 3.459 0 0181.4 9.236c-.308-.597-.462-1.288-.462-2.072zm6.678.014c0-.616-.126-1.157-.378-1.624a2.682 2.682 0 00-1.036-1.078 2.769 2.769 0 00-1.428-.378c-.542 0-1.027.121-1.456.364-.43.243-.77.597-1.022 1.064-.243.457-.364 1.003-.364 1.638 0 .625.121 1.176.364 1.652.252.467.592.826 1.022 1.078.429.243.914.364 1.456.364.522 0 .998-.126 1.428-.378a2.682 2.682 0 001.036-1.078c.252-.467.378-1.008.378-1.624zM91.813.64V11h-.98V.64h.98zm6.965 4.76v.826h-5.446V5.4h5.446zm5.72-2.156c.719 0 1.344.168 1.876.504.532.336.915.76 1.148 1.274V3.356h.98v7.84c0 .7-.154 1.32-.462 1.862a3.062 3.062 0 01-1.26 1.246c-.541.299-1.157.448-1.848.448-.98 0-1.797-.233-2.45-.7-.644-.467-1.045-1.101-1.204-1.904h.966c.168.532.485.957.952 1.274.476.317 1.055.476 1.736.476.495 0 .938-.107 1.33-.322.392-.205.7-.513.924-.924.224-.41.336-.896.336-1.456v-1.89c-.243.523-.63.957-1.162 1.302-.523.336-1.143.504-1.862.504-.7 0-1.33-.163-1.89-.49a3.453 3.453 0 01-1.302-1.386c-.308-.597-.462-1.288-.462-2.072s.154-1.47.462-2.058a3.357 3.357 0 011.302-1.372c.56-.327 1.19-.49 1.89-.49zm3.024 3.934c0-.616-.126-1.157-.378-1.624a2.68 2.68 0 00-1.036-1.078 2.767 2.767 0 00-1.428-.378c-.541 0-1.027.121-1.456.364-.429.243-.77.597-1.022 1.064-.243.457-.364 1.003-.364 1.638 0 .625.121 1.176.364 1.652.252.467.593.826 1.022 1.078.429.243.915.364 1.456.364.523 0 .999-.126 1.428-.378a2.68 2.68 0 001.036-1.078c.252-.467.378-1.008.378-1.624zm4.197-2.464c.215-.476.541-.845.98-1.106.448-.261.994-.392 1.638-.392v1.022h-.266c-.709 0-1.279.191-1.708.574-.429.383-.644 1.022-.644 1.918V11h-.98V3.356h.98v1.358zm3.644 2.45c0-.784.154-1.47.462-2.058a3.37 3.37 0 011.302-1.372c.56-.327 1.19-.49 1.89-.49.728 0 1.354.168 1.876.504.532.336.915.765 1.148 1.288v-1.68h.98V11h-.98V9.306c-.242.523-.63.957-1.162 1.302-.522.336-1.148.504-1.876.504-.69 0-1.316-.163-1.876-.49a3.467 3.467 0 01-1.302-1.386c-.308-.597-.462-1.288-.462-2.072zm6.678.014c0-.616-.126-1.157-.378-1.624a2.68 2.68 0 00-1.036-1.078 2.767 2.767 0 00-1.428-.378 2.91 2.91 0 00-1.456.364c-.429.243-.77.597-1.022 1.064-.242.457-.364 1.003-.364 1.638 0 .625.122 1.176.364 1.652.252.467.593.826 1.022 1.078.43.243.915.364 1.456.364.523 0 .999-.126 1.428-.378a2.68 2.68 0 001.036-1.078c.252-.467.378-1.008.378-1.624zm2.77-.014c0-.784.158-1.47.476-2.058a3.357 3.357 0 011.302-1.372c.56-.327 1.19-.49 1.89-.49.672 0 1.278.163 1.82.49.541.327.938.751 1.19 1.274V.64h.98V11h-.98V9.292c-.234.532-.616.97-1.148 1.316-.532.336-1.158.504-1.876.504-.7 0-1.33-.163-1.89-.49a3.453 3.453 0 01-1.302-1.386c-.308-.597-.462-1.288-.462-2.072zm6.678.014c0-.616-.126-1.157-.378-1.624a2.687 2.687 0 00-1.036-1.078 2.772 2.772 0 00-1.428-.378c-.542 0-1.027.121-1.456.364-.43.243-.77.597-1.022 1.064-.243.457-.364 1.003-.364 1.638 0 .625.121 1.176.364 1.652.252.467.592.826 1.022 1.078.429.243.914.364 1.456.364.522 0 .998-.126 1.428-.378a2.687 2.687 0 001.036-1.078c.252-.467.378-1.008.378-1.624zm10.133-.392c0 .336-.009.593-.028.77h-6.342c.028.579.168 1.073.42 1.484.252.41.583.723.994.938.411.205.859.308 1.344.308.635 0 1.167-.154 1.596-.462.439-.308.728-.723.868-1.246h1.036a3.258 3.258 0 01-1.204 1.834c-.607.467-1.372.7-2.296.7-.719 0-1.363-.159-1.932-.476a3.523 3.523 0 01-1.344-1.372c-.317-.597-.476-1.293-.476-2.086 0-.793.159-1.489.476-2.086a3.309 3.309 0 011.33-1.372c.569-.317 1.218-.476 1.946-.476s1.363.159 1.904.476a3.21 3.21 0 011.26 1.288c.299.532.448 1.125.448 1.778zm-.994-.028c.009-.57-.107-1.055-.35-1.456a2.267 2.267 0 00-.966-.91 2.965 2.965 0 00-1.344-.308c-.728 0-1.349.233-1.862.7-.513.467-.798 1.125-.854 1.974h5.376zm7.595-1.722c.242-.513.625-.938 1.148-1.274.532-.345 1.162-.518 1.89-.518.69 0 1.311.163 1.862.49.56.317.994.775 1.302 1.372.317.588.476 1.274.476 2.058 0 .784-.159 1.475-.476 2.072a3.336 3.336 0 01-1.302 1.386 3.582 3.582 0 01-1.862.49c-.719 0-1.344-.168-1.876-.504-.532-.345-.92-.775-1.162-1.288v5.292h-.966V3.356h.966v1.68zm5.684 2.128c0-.635-.126-1.18-.378-1.638a2.53 2.53 0 00-1.008-1.064 2.91 2.91 0 00-1.456-.364c-.523 0-1.004.126-1.442.378-.43.252-.77.611-1.022 1.078-.252.467-.378 1.008-.378 1.624 0 .616.126 1.157.378 1.624.252.467.592.826 1.022 1.078.438.252.919.378 1.442.378a2.91 2.91 0 001.456-.364 2.623 2.623 0 001.008-1.078c.252-.476.378-1.027.378-1.652zm3.777-2.45c.215-.476.541-.845.98-1.106.448-.261.994-.392 1.638-.392v1.022h-.266c-.709 0-1.279.191-1.708.574-.429.383-.644 1.022-.644 1.918V11h-.98V3.356h.98v1.358zm4.582-2.8a.687.687 0 01-.504-.21.704.704 0 01-.21-.518c0-.205.07-.373.21-.504.14-.14.308-.21.504-.21s.364.07.504.21c.14.13.21.299.21.504 0 .205-.07.378-.21.518a.687.687 0 01-.504.21zm.49 1.442V11h-.98V3.356h.98zm1.771 3.822c0-.793.159-1.484.476-2.072a3.338 3.338 0 011.316-1.372c.56-.327 1.2-.49 1.918-.49.943 0 1.718.233 2.324.7.616.467 1.013 1.101 1.19 1.904h-1.05c-.13-.55-.415-.98-.854-1.288-.429-.317-.966-.476-1.61-.476-.513 0-.975.117-1.386.35-.41.233-.737.583-.98 1.05-.233.457-.35 1.022-.35 1.694 0 .672.117 1.241.35 1.708.243.467.57.817.98 1.05.411.233.873.35 1.386.35.644 0 1.181-.154 1.61-.462.439-.317.724-.756.854-1.316h1.05a3.205 3.205 0 01-1.19 1.89c-.616.476-1.39.714-2.324.714-.718 0-1.358-.159-1.918-.476a3.455 3.455 0 01-1.316-1.372c-.317-.597-.476-1.293-.476-2.086zm9.524-5.264a.687.687 0 01-.504-.21.704.704 0 01-.21-.518c0-.205.07-.373.21-.504.14-.14.308-.21.504-.21s.364.07.504.21c.14.13.21.299.21.504 0 .205-.07.378-.21.518a.687.687 0 01-.504.21zm.49 1.442V11h-.98V3.356h.98zm5.804-.14c.914 0 1.661.285 2.24.854.578.56.868 1.377.868 2.45V11h-.966V6.632c0-.83-.21-1.465-.63-1.904-.411-.439-.976-.658-1.694-.658-.738 0-1.326.233-1.764.7-.439.467-.658 1.153-.658 2.058V11h-.98V3.356h.98v1.302a2.453 2.453 0 011.05-1.064 3.164 3.164 0 011.554-.378zm8.481.028c.719 0 1.344.168 1.876.504.532.336.915.76 1.148 1.274V3.356h.98v7.84c0 .7-.154 1.32-.462 1.862a3.062 3.062 0 01-1.26 1.246c-.541.299-1.157.448-1.848.448-.98 0-1.797-.233-2.45-.7-.644-.467-1.045-1.101-1.204-1.904h.966c.168.532.485.957.952 1.274.476.317 1.055.476 1.736.476.495 0 .938-.107 1.33-.322.392-.205.7-.513.924-.924.224-.41.336-.896.336-1.456v-1.89c-.243.523-.63.957-1.162 1.302-.523.336-1.143.504-1.862.504-.7 0-1.33-.163-1.89-.49a3.453 3.453 0 01-1.302-1.386c-.308-.597-.462-1.288-.462-2.072s.154-1.47.462-2.058a3.357 3.357 0 011.302-1.372c.56-.327 1.19-.49 1.89-.49zm3.024 3.934c0-.616-.126-1.157-.378-1.624a2.68 2.68 0 00-1.036-1.078 2.767 2.767 0 00-1.428-.378c-.541 0-1.027.121-1.456.364-.429.243-.77.597-1.022 1.064-.243.457-.364 1.003-.364 1.638 0 .625.121 1.176.364 1.652.252.467.593.826 1.022 1.078.429.243.915.364 1.456.364.523 0 .999-.126 1.428-.378a2.68 2.68 0 001.036-1.078c.252-.467.378-1.008.378-1.624zm6.611-.014c0-.784.154-1.47.462-2.058a3.357 3.357 0 011.302-1.372c.56-.327 1.19-.49 1.89-.49.728 0 1.353.168 1.876.504.532.336.915.765 1.148 1.288v-1.68h.98V11h-.98V9.306c-.243.523-.63.957-1.162 1.302-.523.336-1.148.504-1.876.504a3.653 3.653 0 01-1.876-.49 3.453 3.453 0 01-1.302-1.386c-.308-.597-.462-1.288-.462-2.072zm6.678.014c0-.616-.126-1.157-.378-1.624a2.68 2.68 0 00-1.036-1.078 2.767 2.767 0 00-1.428-.378c-.541 0-1.027.121-1.456.364-.429.243-.77.597-1.022 1.064-.243.457-.364 1.003-.364 1.638 0 .625.121 1.176.364 1.652.252.467.593.826 1.022 1.078.429.243.915.364 1.456.364.523 0 .999-.126 1.428-.378a2.68 2.68 0 001.036-1.078c.252-.467.378-1.008.378-1.624zm6.801-3.962c.915 0 1.662.285 2.24.854.579.56.868 1.377.868 2.45V11h-.966V6.632c0-.83-.21-1.465-.63-1.904-.41-.439-.975-.658-1.694-.658-.737 0-1.325.233-1.764.7-.438.467-.658 1.153-.658 2.058V11h-.98V3.356h.98v1.302a2.463 2.463 0 011.05-1.064 3.17 3.17 0 011.554-.378zm4.828 3.948c0-.784.158-1.47.476-2.058a3.357 3.357 0 011.302-1.372c.56-.327 1.19-.49 1.89-.49.672 0 1.278.163 1.82.49.541.327.938.751 1.19 1.274V.64h.98V11h-.98V9.292c-.234.532-.616.97-1.148 1.316-.532.336-1.158.504-1.876.504-.7 0-1.33-.163-1.89-.49a3.453 3.453 0 01-1.302-1.386c-.308-.597-.462-1.288-.462-2.072zm6.678.014c0-.616-.126-1.157-.378-1.624a2.687 2.687 0 00-1.036-1.078 2.772 2.772 0 00-1.428-.378c-.542 0-1.027.121-1.456.364-.43.243-.77.597-1.022 1.064-.243.457-.364 1.003-.364 1.638 0 .625.121 1.176.364 1.652.252.467.592.826 1.022 1.078.429.243.914.364 1.456.364.522 0 .998-.126 1.428-.378a2.687 2.687 0 001.036-1.078c.252-.467.378-1.008.378-1.624zM15.1 20.64V31h-.98V20.64h.98zm2.71 1.274a.687.687 0 01-.505-.21.704.704 0 01-.21-.518c0-.205.07-.373.21-.504.14-.14.308-.21.504-.21s.364.07.504.21c.14.13.21.299.21.504 0 .205-.07.378-.21.518a.687.687 0 01-.504.21zm.49 1.442V31h-.98v-7.644h.98zm1.77 3.808c0-.784.16-1.47.476-2.058a3.362 3.362 0 011.302-1.372 3.68 3.68 0 011.89-.49c.72 0 1.344.173 1.876.518.532.336.91.76 1.134 1.274v-1.68h.98v11.256h-.98V29.32c-.224.513-.606.943-1.148 1.288-.532.336-1.162.504-1.89.504-.69 0-1.316-.163-1.876-.49a3.46 3.46 0 01-1.302-1.386c-.308-.597-.462-1.288-.462-2.072zm6.678.014c0-.616-.126-1.157-.378-1.624a2.682 2.682 0 00-1.036-1.078 2.769 2.769 0 00-1.428-.378c-.54 0-1.026.121-1.456.364-.429.243-.77.597-1.022 1.064-.242.457-.364 1.003-.364 1.638 0 .625.122 1.176.364 1.652.252.467.593.826 1.022 1.078.43.243.915.364 1.456.364.523 0 1-.126 1.428-.378a2.682 2.682 0 001.036-1.078c.252-.467.378-1.008.378-1.624zm9.84-3.822V31h-.98v-1.344c-.224.476-.57.84-1.036 1.092-.467.252-.99.378-1.568.378-.915 0-1.662-.28-2.24-.84-.579-.57-.868-1.39-.868-2.464v-4.466h.966v4.354c0 .83.205 1.465.616 1.904.42.439.989.658 1.708.658.737 0 1.325-.233 1.764-.7.438-.467.658-1.153.658-2.058v-4.158h.98zm2.727-1.442a.687.687 0 01-.504-.21.704.704 0 01-.21-.518c0-.205.07-.373.21-.504.14-.14.308-.21.504-.21s.364.07.504.21c.14.13.21.299.21.504 0 .205-.07.378-.21.518a.687.687 0 01-.504.21zm.49 1.442V31h-.98v-7.644h.98zm1.771 3.808c0-.784.159-1.47.476-2.058a3.36 3.36 0 011.302-1.372 3.68 3.68 0 011.89-.49c.672 0 1.279.163 1.82.49.542.327.938.751 1.19 1.274V20.64h.98V31h-.98v-1.708c-.233.532-.616.97-1.148 1.316-.532.336-1.157.504-1.876.504-.7 0-1.33-.163-1.89-.49a3.458 3.458 0 01-1.302-1.386c-.308-.597-.462-1.288-.462-2.072zm6.678.014c0-.616-.126-1.157-.378-1.624a2.682 2.682 0 00-1.036-1.078 2.769 2.769 0 00-1.428-.378c-.541 0-1.026.121-1.456.364-.429.243-.77.597-1.022 1.064-.242.457-.364 1.003-.364 1.638 0 .625.122 1.176.364 1.652.252.467.593.826 1.022 1.078.43.243.915.364 1.456.364.523 0 .999-.126 1.428-.378a2.682 2.682 0 001.036-1.078c.252-.467.378-1.008.378-1.624zm3.708-5.264a.687.687 0 01-.504-.21.704.704 0 01-.21-.518c0-.205.07-.373.21-.504.14-.14.308-.21.504-.21s.364.07.504.21c.14.13.21.299.21.504 0 .205-.07.378-.21.518a.687.687 0 01-.504.21zm.49 1.442V31h-.98v-7.644h.98zm3.493.826v4.746c0 .467.088.789.266.966.177.177.49.266.938.266h.896V31h-1.05c-.69 0-1.204-.159-1.54-.476-.336-.327-.504-.859-.504-1.596v-4.746h-1.064v-.826h1.064v-1.918h.994v1.918h2.1v.826h-2.1zm10.016-.826l-4.536 11.242h-1.022l1.484-3.64-3.136-7.602h1.078l2.604 6.524 2.52-6.524h1.008z" fill="#fff"/></svg>