<svg width="177" height="36" viewBox="0 0 177 36" fill="none" xmlns="http://www.w3.org/2000/svg"><path d="M27.546 8.925V.74H.856v33.907h9.107v-11.77h16.033v-7.75H9.963v-6.2h17.583zM49.794.303c-10.027 0-18.165 7.799-18.165 17.438 0 9.591 8.138 17.39 18.165 17.39s18.165-7.799 18.165-17.39c0-9.64-8.138-17.438-18.165-17.438zm0 8.525c5.086 0 8.67 3.973 8.67 8.913 0 4.893-3.584 8.864-8.67 8.864s-8.622-3.971-8.622-8.864c0-4.94 3.536-8.913 8.622-8.913zM73.988.788v33.858h9.106V24.33h5.425l6.588 10.317h10.511l-7.605-11.528c4.699-1.599 6.685-5.038 6.685-10.56 0-8.283-4.408-11.77-15.452-11.77H73.988zm9.106 8.186h6.588c4.02 0 5.522 1.26 5.522 4.165 0 2.955-1.502 4.166-5.522 4.166h-6.588V8.974zm54.883-.049V.74h-27.755v33.907h28.046V26.46h-18.939v-5.086h17.341v-7.75h-17.341V8.925h18.648zm26.717 8.429L176.125.739h-10.947l-6.2 9.252-6.152-9.252h-11.189l11.431 16.663-11.916 17.244H152.1l6.684-9.93 6.685 9.93h11.141l-11.916-17.292z" fill="#09B45B"/></svg>