<svg width="364" height="24" viewBox="0 0 364 24" fill="none" xmlns="http://www.w3.org/2000/svg"><path d="M.6 21h11.725v-2.55h-8.85v-5.075h7.05V10.9h-7.05V6.05h8.55V3.5H.6V21zm25.146-2.35c-.55 0-.825-.175-.825-.825V12.7c0-3.025-1.95-4.65-5.35-4.65-3.225 0-5.375 1.55-5.65 4.05h2.65c.2-1.125 1.275-1.875 2.875-1.875 1.775 0 2.8.875 2.8 2.3v.775H19.02c-3.575 0-5.475 1.475-5.475 4.1 0 2.375 1.95 3.75 4.75 3.75 2.075 0 3.375-.9 4.225-2.2 0 1.275.6 2.05 2.35 2.05h1.425v-2.35h-.55zm-3.5-2.9c-.025 1.975-1.325 3.3-3.575 3.3-1.475 0-2.375-.75-2.375-1.825 0-1.3.925-1.925 2.6-1.925h3.35v.45zM34.24 8.2c-2.1 0-3.125.85-3.775 1.925l-.3-1.925h-2.4V21h2.7v-6.425c0-1.975.775-3.85 3.175-3.85h1.2V8.2h-.6zm9.016-.15c-2.075 0-3.3.825-4.1 1.825l-.3-1.675h-2.35V21h2.7v-6.45c0-2.6 1.275-4.175 3.425-4.175 2.025 0 3.05 1.3 3.05 3.725V21h2.725v-7.125c0-4.275-2.325-5.825-5.15-5.825zm21.427 2.875c-2.75-.475-4.55-.85-4.55-2.65 0-1.65 1.375-2.5 3.35-2.5 2.125 0 3.525 1.2 3.75 2.975h2.875c-.1-2.825-2.025-4.825-5.175-5.3V.8h-2.425v2.6c-3.175.325-5.25 2.3-5.25 5.075 0 3.475 2.75 4.4 5.65 4.9 2.775.5 4.6.9 4.6 2.75 0 1.675-1.5 2.6-3.575 2.6-2.45 0-4.05-1.375-4.2-3.425l-2.9-.05c.1 3.1 2.175 5.35 5.675 5.8v2.625h2.425V21.1c3.275-.35 5.45-2.425 5.45-5.275.025-3.45-2.8-4.375-5.7-4.9zM71.864 21h12.4v-2.425H75.79l4.65-3.875c2.124-1.775 3.7-3.4 3.7-6 0-3.2-2.2-5.35-6.126-5.35-3.724 0-6.124 2.425-6.124 5.75v.45h2.775v-.3c0-2.175 1.35-3.525 3.35-3.525s3.325 1.1 3.325 3.1c0 1.675-1.175 2.9-2.75 4.225l-6.725 5.725V21zm14.097-8.35c0 5.275 2.825 8.5 6.9 8.5s6.9-3.225 6.9-8.5v-.8c0-5.075-2.825-8.5-6.9-8.5s-6.9 3.425-6.9 8.5v.8zm11-.1c0 3.925-1.65 6.175-4.1 6.175-2.45 0-4.1-2.25-4.1-6.175v-.6c0-3.9 1.65-6.175 4.1-6.175 2.45 0 4.1 2.275 4.1 6.175v.6zm4.747.1c0 5.275 2.825 8.5 6.9 8.5s6.9-3.225 6.9-8.5v-.8c0-5.075-2.825-8.5-6.9-8.5s-6.9 3.425-6.9 8.5v.8zm11-.1c0 3.925-1.65 6.175-4.1 6.175-2.45 0-4.1-2.25-4.1-6.175v-.6c0-3.9 1.65-6.175 4.1-6.175 2.45 0 4.1 2.275 4.1 6.175v.6zM127.152 21h2.925l2.8-8.7 2.7 8.7h2.9l4.25-12.8h-2.75l-3.025 9.8-2.8-9.8h-2.475l-2.925 9.8-2.925-9.8h-2.85l4.175 12.8zm18.371-14.6c.925 0 1.65-.675 1.65-1.625s-.725-1.625-1.65-1.625c-.925 0-1.65.675-1.65 1.625s.725 1.625 1.65 1.625zM144.148 21h2.7V8.2h-2.7V21zm6.272-3.475c0 2.325 1.05 3.475 3.5 3.475h2.5v-2.375h-1.9c-1.025 0-1.375-.375-1.375-1.375v-6.675h3.125V8.2h-3.125V4.625h-2.725V8.2h-2.225v2.375h2.225v6.95zm14.443-9.475c-2 0-3.225.9-4.025 2V3.5h-2.7V21h2.7v-6.475c0-2.575 1.3-4.15 3.425-4.15 2 0 3.075 1.3 3.075 3.725V21h2.7v-7.125c0-4.275-2.325-5.825-5.175-5.825zm25.726 10.6c-.55 0-.825-.175-.825-.825V12.7c0-3.025-1.95-4.65-5.35-4.65-3.225 0-5.375 1.55-5.65 4.05h2.65c.2-1.125 1.275-1.875 2.875-1.875 1.775 0 2.8.875 2.8 2.3v.775h-3.225c-3.575 0-5.475 1.475-5.475 4.1 0 2.375 1.95 3.75 4.75 3.75 2.075 0 3.375-.9 4.225-2.2 0 1.275.6 2.05 2.35 2.05h1.425v-2.35h-.55zm-3.5-2.9c-.025 1.975-1.325 3.3-3.575 3.3-1.475 0-2.375-.75-2.375-1.825 0-1.3.925-1.925 2.6-1.925h3.35v.45zM199.007 21h2.7v-3.25l2.3-2.4 3.775 5.65h3.2l-5.125-7.625 4.825-5.175h-3.175l-5.8 6.2V3.5h-2.7V21zm20.031-12.95c-2.075 0-3.3.825-4.1 1.825l-.3-1.675h-2.35V21h2.7v-6.45c0-2.6 1.275-4.175 3.425-4.175 2.025 0 3.05 1.3 3.05 3.725V21h2.725v-7.125c0-4.275-2.325-5.825-5.15-5.825zm13.558 13.1c3.9 0 6.525-2.625 6.525-6.55 0-3.9-2.625-6.55-6.525-6.55-3.9 0-6.525 2.65-6.525 6.55 0 3.925 2.625 6.55 6.525 6.55zm0-2.3c-2.275 0-3.75-1.775-3.75-4.25s1.475-4.25 3.75-4.25 3.775 1.775 3.775 4.25-1.5 4.25-3.775 4.25zm14.571 2.3c3.275 0 5.45-1.825 5.95-4.725h-2.85c-.325 1.475-1.425 2.425-3.075 2.425-2.175 0-3.6-1.725-3.6-4.225 0-2.525 1.425-4.275 3.6-4.275 1.675 0 2.75.925 3.1 2.425h2.825c-.525-2.9-2.575-4.725-5.875-4.725-3.875 0-6.425 2.625-6.425 6.575 0 4 2.475 6.525 6.35 6.525zm8.016-.15h2.7v-3.25l2.3-2.4 3.775 5.65h3.2l-5.125-7.625 4.825-5.175h-3.175l-5.8 6.2V3.5h-2.7V21zm18.526.15c3.9 0 6.525-2.625 6.525-6.55 0-3.9-2.625-6.55-6.525-6.55-3.9 0-6.525 2.65-6.525 6.55 0 3.925 2.625 6.55 6.525 6.55zm0-2.3c-2.275 0-3.75-1.775-3.75-4.25s1.475-4.25 3.75-4.25 3.775 1.775 3.775 4.25-1.5 4.25-3.775 4.25zm17.471-4.25c0 2.65-1.25 4.2-3.3 4.2-1.975 0-2.975-1.275-2.975-3.775V8.2h-2.7v7.125c0 4.375 2.325 5.825 5.05 5.825 1.975 0 3.15-.8 3.95-1.775l.3 1.625h2.375V8.2h-2.7v6.4zm6.359 2.925c0 2.325 1.05 3.475 3.5 3.475h2.5v-2.375h-1.9c-1.025 0-1.375-.375-1.375-1.375v-6.675h3.125V8.2h-3.125V4.625h-2.725V8.2h-2.225v2.375h2.225v6.95zm20.164 3.625c3.9 0 6.525-2.625 6.525-6.55 0-3.9-2.625-6.55-6.525-6.55-3.9 0-6.525 2.65-6.525 6.55 0 3.925 2.625 6.55 6.525 6.55zm0-2.3c-2.275 0-3.75-1.775-3.75-4.25s1.475-4.25 3.75-4.25 3.775 1.775 3.775 4.25-1.5 4.25-3.775 4.25zm23.099-12.975V3.5h-2.575c-2.475 0-3.575 1.175-3.575 3.425V8.2h-4.7V7.125c0-.875.35-1.25 1.225-1.25h1.9V3.5h-2.275c-2.475 0-3.575 1.175-3.575 3.425V8.2h-2.225v2.375h2.225V21h2.725V10.575h4.7V21h2.7V10.575h3.45V8.2h-3.45V7.125c0-.875.375-1.25 1.25-1.25h2.2zm6.955 15.275c3.175 0 5.325-1.925 5.775-4.45h-2.7c-.375 1.425-1.575 2.25-3.225 2.25-2.125 0-3.5-1.425-3.575-3.6v-.175h9.65c.05-.35.075-.7.075-1.025-.075-3.75-2.55-6.1-6.25-6.1-3.775 0-6.3 2.625-6.3 6.575 0 3.925 2.525 6.525 6.55 6.525zm-3.625-7.95c.2-1.825 1.675-2.975 3.4-2.975 1.875 0 3.2 1.075 3.425 2.975h-6.825zm18.283-5c-2.1 0-3.125.85-3.775 1.925l-.3-1.925h-2.4V21h2.7v-6.425c0-1.975.775-3.85 3.175-3.85h1.2V8.2h-.6z" fill="#000"/></svg>