<svg width="129" height="32" viewBox="0 0 129 32" fill="none" xmlns="http://www.w3.org/2000/svg"><path d="M15.114 13.375L10.092.775H5.646l-4.968 12.6h4.05l.81-2.196h4.716l.81 2.196h4.05zM6.42 8.479l1.458-3.924 1.458 3.924H6.42zm13.781 4.896V.793h-3.384v12.582h3.384zm8.119-3.348V7.399h-6.246v2.628h6.246zM30.212.793v12.582h3.384V9.793h2.16c3.743 0 5.526-1.386 5.526-4.464 0-3.078-1.692-4.536-5.563-4.536h-5.508zm3.384 2.916h1.998c1.511 0 2.16.558 2.16 1.746 0 1.206-.666 1.728-2.16 1.728h-1.998V3.709zM49.803.613c-3.726 0-6.75 2.898-6.75 6.48 0 3.564 3.024 6.462 6.75 6.462s6.75-2.898 6.75-6.462c0-3.582-3.024-6.48-6.75-6.48zm0 3.168c1.89 0 3.222 1.476 3.222 3.312 0 1.818-1.332 3.294-3.222 3.294S46.6 8.91 46.6 7.093c0-1.836 1.314-3.312 3.204-3.312zm22.995 9.594L76.938.793h-3.78l-2.25 7.29L68.712.775H65.4l-2.196 7.308-2.25-7.29h-3.78l4.14 12.582h3.474l2.268-7.236 2.268 7.236h3.474zm16.19-9.558V.775H78.674v12.6h10.422v-3.042h-7.038v-1.89h6.444v-2.88h-6.444V3.817h6.93zM91.014.793v12.582h3.384V9.54h2.016l2.448 3.834h3.906L99.942 9.09c1.746-.594 2.484-1.872 2.484-3.924 0-3.078-1.638-4.374-5.742-4.374h-5.67zm3.384 3.042h2.448c1.494 0 2.052.468 2.052 1.548 0 1.098-.558 1.548-2.052 1.548h-2.448V3.835zm20.395-.018V.775h-10.314v12.6h10.422v-3.042h-7.038v-1.89h6.444v-2.88h-6.444V3.817h6.93zm2.026-3.024v12.582h5.4c3.726 0 6.75-2.718 6.75-6.282 0-3.582-3.024-6.318-6.75-6.318l-5.4.018zm3.384 3.024h1.89c1.872 0 3.402 1.404 3.402 3.258 0 1.872-1.53 3.276-3.402 3.276h-1.89V3.817zm-88.68 17.856v-2.898h-10.71v2.898h3.655v9.702h3.402v-9.702h3.654zm1.703-2.88v12.582h3.384V27.54h2.016l2.448 3.834h3.906l-2.826-4.284c1.746-.594 2.484-1.872 2.484-3.924 0-3.078-1.638-4.374-5.742-4.374h-5.67zm3.384 3.042h2.448c1.494 0 2.052.468 2.052 1.548 0 1.098-.558 1.548-2.052 1.548H36.61v-3.096zm23.671 9.54l-5.022-12.6h-4.446l-4.968 12.6h4.05l.81-2.196h4.716l.81 2.196h4.05zm-8.694-4.896l1.458-3.924 1.458 3.924h-2.916zm10.397-7.686v12.582h5.4c3.726 0 6.75-2.718 6.75-6.282 0-3.582-3.024-6.318-6.75-6.318l-5.4.018zm3.384 3.024h1.89c1.872 0 3.402 1.404 3.402 3.258 0 1.872-1.53 3.276-3.402 3.276h-1.89v-6.534zm14.379 9.558V18.793h-3.384v12.582h3.384zm14.383 0v-12.6H90.8v7.038l-5.076-7.038h-3.51v12.6h3.33v-7.02l5.076 7.02h3.51zm9.089-12.78c-3.582-.018-6.966 2.34-6.966 6.498 0 3.564 3.024 6.462 6.75 6.462 2.124 0 4.086-.702 5.598-1.908v-5.508h-5.382v2.412h2.16v1.206a4.674 4.674 0 01-2.376.63c-1.89 0-3.204-1.476-3.204-3.294 0-2.106 1.602-3.366 3.42-3.366.972 0 1.962.342 2.754 1.026l2.214-2.322c-1.404-1.206-3.186-1.818-4.968-1.836z" fill="#09B45B"/></svg>