<svg width="300" height="250" viewBox="0 0 300 250" fill="none" xmlns="http://www.w3.org/2000/svg"><path fill="url(#paint0_linear_14_700)" d="M0 0h300v250H0z"/><rect x="71.5" y="134" width="156" height="25" rx="12.5" fill="#14964F"/><path d="M89.774 150h1.32l-2.739-7.656h-1.452L84.164 150h1.309l.55-1.562h3.201l.55 1.562zm-.902-2.585h-2.497l1.254-3.553 1.243 3.553zM96.586 150h1.243v-3.575c0-1.694-1.067-2.585-2.486-2.585-.726 0-1.397.297-1.804.792v-.693h-1.254V150h1.254v-3.388c0-1.111.605-1.683 1.529-1.683.913 0 1.518.572 1.518 1.683V150zm11.434 0h1.243v-3.575c0-1.694-1.078-2.585-2.497-2.585-.88 0-1.738.462-2.112 1.199-.418-.792-1.221-1.199-2.178-1.199-.726 0-1.386.297-1.793.792v-.693h-1.255V150h1.255v-3.388c0-1.111.605-1.683 1.529-1.683.913 0 1.518.572 1.518 1.683V150h1.243v-3.388c0-1.111.605-1.683 1.529-1.683.913 0 1.518.572 1.518 1.683V150zm5.39-5.104c.935 0 1.672.594 1.694 1.529h-3.355c.132-.957.814-1.529 1.661-1.529zm2.838 3.3h-1.353c-.231.473-.66.847-1.43.847-.924 0-1.639-.605-1.727-1.606h4.631c.033-.209.044-.407.044-.616 0-1.782-1.221-2.981-2.948-2.981-1.793 0-3.025 1.221-3.025 3.124s1.287 3.135 3.025 3.135c1.485 0 2.442-.847 2.783-1.903zm1.399 1.804h1.254v-8.14h-1.254V150zm2.483-3.058c0 1.87 1.265 3.157 2.86 3.157.99 0 1.716-.462 2.101-1.012V150h1.265v-8.14h-1.265v2.926c-.462-.572-1.298-.946-2.09-.946-1.606 0-2.871 1.232-2.871 3.102zm4.961.022c0 1.309-.891 2.046-1.837 2.046-.935 0-1.837-.759-1.837-2.068 0-1.309.902-2.013 1.837-2.013.946 0 1.837.737 1.837 2.035zm5.464-2.068c.935 0 1.672.594 1.694 1.529h-3.355c.132-.957.814-1.529 1.661-1.529zm2.838 3.3h-1.353c-.231.473-.66.847-1.43.847-.924 0-1.639-.605-1.727-1.606h4.631c.033-.209.044-.407.044-.616 0-1.782-1.221-2.981-2.948-2.981-1.793 0-3.025 1.221-3.025 3.124s1.287 3.135 3.025 3.135c1.485 0 2.442-.847 2.783-1.903zm5.7 1.804h1.243v-3.575c0-1.694-1.067-2.585-2.486-2.585-.726 0-1.397.297-1.804.792v-.693h-1.254V150h1.254v-3.388c0-1.111.605-1.683 1.529-1.683.913 0 1.518.572 1.518 1.683V150zm11.189-6.061h-1.254v3.377c0 1.111-.605 1.683-1.529 1.683-.913 0-1.518-.572-1.518-1.683v-3.377h-1.243v3.564c0 1.694 1.078 2.585 2.497 2.585.715 0 1.397-.297 1.793-.814V150h1.254v-6.061zm5.955 6.061h1.243v-3.575c0-1.694-1.067-2.585-2.486-2.585-.726 0-1.397.297-1.804.792v-.693h-1.254V150h1.254v-3.388c0-1.111.605-1.683 1.529-1.683.913 0 1.518.572 1.518 1.683V150zm2.425-3.058c0 1.87 1.265 3.157 2.86 3.157.99 0 1.716-.462 2.101-1.012V150h1.265v-8.14h-1.265v2.926c-.462-.572-1.298-.946-2.09-.946-1.606 0-2.871 1.232-2.871 3.102zm4.961.022c0 1.309-.891 2.046-1.837 2.046-.935 0-1.837-.759-1.837-2.068 0-1.309.902-2.013 1.837-2.013.946 0 1.837.737 1.837 2.035zm10.62 3.036h1.254v-7.645h-1.254v3.278h-3.597v-3.278h-1.254V150h1.254v-3.344h3.597V150zm2.487-3.058c0 1.87 1.265 3.157 2.838 3.157 1.012 0 1.738-.484 2.123-1.001V150h1.265v-6.061h-1.265v.88c-.374-.495-1.078-.979-2.101-.979-1.595 0-2.86 1.232-2.86 3.102zm4.961.022c0 1.309-.891 2.046-1.837 2.046-.935 0-1.837-.759-1.837-2.068 0-1.309.902-2.013 1.837-2.013.946 0 1.837.737 1.837 2.035zm7.213 3.036h1.243v-3.575c0-1.694-1.067-2.585-2.486-2.585-.726 0-1.397.297-1.804.792v-.693h-1.254V150h1.254v-3.388c0-1.111.605-1.683 1.529-1.683.913 0 1.518.572 1.518 1.683V150zm2.425-3.058c0 1.87 1.265 3.157 2.86 3.157.99 0 1.716-.462 2.101-1.012V150h1.265v-8.14h-1.265v2.926c-.462-.572-1.298-.946-2.09-.946-1.606 0-2.871 1.232-2.871 3.102zm4.961.022c0 1.309-.891 2.046-1.837 2.046-.935 0-1.837-.759-1.837-2.068 0-1.309.902-2.013 1.837-2.013.946 0 1.837.737 1.837 2.035zm5.464-2.068c.935 0 1.672.594 1.694 1.529h-3.355c.132-.957.814-1.529 1.661-1.529zm2.838 3.3h-1.353c-.231.473-.66.847-1.43.847-.924 0-1.639-.605-1.727-1.606h4.631c.033-.209.044-.407.044-.616 0-1.782-1.221-2.981-2.948-2.981-1.793 0-3.025 1.221-3.025 3.124s1.287 3.135 3.025 3.135c1.485 0 2.442-.847 2.783-1.903zm1.399 1.804h1.254v-8.14h-1.254V150zm7.201 0h1.243v-3.575c0-1.694-1.067-2.585-2.486-2.585-.726 0-1.397.297-1.804.792v-.693h-1.254V150h1.254v-3.388c0-1.111.605-1.683 1.529-1.683.913 0 1.518.572 1.518 1.683V150zM71 91.532h18.076v5.502H77.274v3.834h10.668v5.217H77.274v8.057H71v-22.61z" fill="#fff"/><path fill-rule="evenodd" clip-rule="evenodd" d="M120.084 91.532H130.9c3.486 0 5.929.923 7.474 2.45 1.33 1.277 2.012 3.052 2.012 5.253v.07c0 3.444-1.868 5.751-4.707 6.958l5.462 7.879h-7.33l-4.6-6.85h-2.803v6.85h-6.36v-22.61h.036zm10.528 10.862c2.156 0 3.414-1.03 3.414-2.698v-.07c0-1.776-1.294-2.698-3.45-2.698h-4.168v5.43h4.204v.036z" fill="#fff"/><path d="M143.353 91.532h18.183v5.325h-11.981v3.443h10.846v4.933h-10.846v3.585h12.122v5.324h-18.324v-22.61zM171.495 102.642l-7.443-11.11h7.195l4.005 6.354 4.041-6.353h7.018l-7.408 11.038 7.762 11.571h-7.195l-4.324-6.815-4.36 6.815h-7.053l7.762-11.5zM192.797 103.423c0-2.591 1.985-4.757 4.82-4.757 1.843 0 3.084.817 3.864 2.024l-2.162 1.597c-.426-.604-.922-.958-1.666-.958-1.028 0-1.772.887-1.772 1.987v.036c0 1.171.744 2.058 1.807 2.058.745 0 1.241-.354 1.737-.922l2.127 1.526c-.851 1.242-2.021 2.058-4.005 2.058-2.765.036-4.75-2.094-4.75-4.649" fill="#fff"/><path fill-rule="evenodd" clip-rule="evenodd" d="M203.449 103.423c0-2.591 2.12-4.757 5.067-4.757 2.91 0 5.03 2.13 5.03 4.686v.035c0 2.556-2.12 4.721-5.066 4.721-2.911 0-5.031-2.13-5.031-4.685m6.971 0c0-1.136-.826-2.059-1.94-2.059-1.15 0-1.905.923-1.905 1.988v.035c0 1.101.827 2.023 1.941 2.023 1.185 0 1.904-.922 1.904-1.987" fill="#fff"/><path d="M215.256 98.844h3.154v1.242c.567-.745 1.418-1.42 2.694-1.42 1.205 0 2.127.533 2.588 1.456.779-.888 1.701-1.456 3.012-1.456 1.914 0 3.084 1.207 3.084 3.302v5.927h-3.155v-4.934c0-.993-.496-1.49-1.24-1.49-.745 0-1.312.532-1.312 1.49v4.899h-3.119v-4.899c0-.993-.496-1.49-1.24-1.49-.745 0-1.276.532-1.276 1.49v4.899h-3.155v-9.016h-.035z" fill="#fff"/><path fill-rule="evenodd" clip-rule="evenodd" d="M114.587 102.784c0-.227-.005-.452-.014-.674h2.709l.718-2.059h-3.647c-1.001-5.632-5.19-9.051-11.517-9.051-7.114 0-11.714 4.685-11.714 11.926 0 7.312 4.456 11.82 11.714 11.784 5.916 0 10.115-3.217 11.363-8.483h2.472l.754-2.059h-2.897c.038-.45.059-.911.059-1.384zm-11.607 8.661c-3.665 0-5.102-3.834-5.102-8.59s1.15-8.554 4.851-8.59c2.911 0 4.416 2.398 4.912 5.786h-3.152l-.718 2.059h4.047a26.786 26.786 0 01-.018 2.058h-3.886l-.754 2.059h4.432c-.498 3.085-1.839 5.218-4.612 5.218z" fill="#14964F"/><path d="M188.402 106.191c0-.461.178-.816.497-1.171a1.606 1.606 0 011.169-.497c.461 0 .851.178 1.17.497.319.319.496.71.496 1.171 0 .462-.177.852-.496 1.172-.319.319-.709.461-1.17.461-.461 0-.85-.142-1.169-.461-.355-.284-.497-.675-.497-1.172" fill="#fff"/><defs><linearGradient id="paint0_linear_14_700" x1="150" y1="102" x2="150" y2="321" gradientUnits="userSpaceOnUse"><stop stop-color="#12225C"/><stop offset="1" stop-color="#0954B5"/></linearGradient></defs></svg>