<svg width="161" height="55" viewBox="0 0 161 55" fill="none" xmlns="http://www.w3.org/2000/svg"><path d="M7.256 16H9.08V4.88H7.256v4.768H2.024V4.88H.2V16h1.824v-4.864h5.232V16zm3.617-4.448c0 2.72 1.84 4.592 4.128 4.592 1.472 0 2.528-.704 3.088-1.456V16h1.84V7.184h-1.84v1.28c-.544-.72-1.568-1.424-3.056-1.424-2.32 0-4.16 1.792-4.16 4.512zm7.216.032c0 1.904-1.296 2.976-2.672 2.976-1.36 0-2.672-1.104-2.672-3.008s1.312-2.928 2.672-2.928c1.376 0 2.672 1.072 2.672 2.96zM28.581 16h1.808v-5.2c0-2.464-1.552-3.76-3.616-3.76-1.056 0-2.032.432-2.624 1.152V7.184h-1.824V16h1.824v-4.928c0-1.616.88-2.448 2.224-2.448 1.328 0 2.208.832 2.208 2.448V16zm3.527-4.448c0 2.72 1.84 4.592 4.16 4.592 1.44 0 2.496-.672 3.056-1.472V16h1.84V4.16h-1.84v4.256c-.672-.832-1.888-1.376-3.04-1.376-2.336 0-4.176 1.792-4.176 4.512zm7.216.032c0 1.904-1.296 2.976-2.672 2.976-1.36 0-2.672-1.104-2.672-3.008s1.312-2.928 2.672-2.928c1.376 0 2.672 1.072 2.672 2.96zm7.947-3.008c1.36 0 2.432.864 2.464 2.224h-4.88c.192-1.392 1.184-2.224 2.416-2.224zm4.128 4.8h-1.968c-.336.688-.96 1.232-2.08 1.232-1.344 0-2.384-.88-2.512-2.336h6.736c.048-.304.064-.592.064-.896 0-2.592-1.776-4.336-4.288-4.336-2.608 0-4.4 1.776-4.4 4.544s1.872 4.56 4.4 4.56c2.16 0 3.552-1.232 4.048-2.768zM53.434 16h1.824V4.16h-1.824V16zm14.52-11.136h-6.145V16h6.144v-1.488h-4.32v-3.408h3.84V9.616h-3.84V6.352h4.32V4.864zm2.23 7.072c0 2.832 1.984 4.176 4.32 4.176 2.32 0 4.368-1.344 4.368-4.176V4.88h-1.824v7.088c0 1.728-.976 2.544-2.528 2.544-1.536 0-2.512-.816-2.512-2.544V4.88h-1.824v7.056zm16.967-3.728c0 1.104-.64 1.888-2.064 1.888H83.07V6.368h2.016c1.424 0 2.064.72 2.064 1.84zM81.247 4.88V16h1.824v-4.448h1.392L87.023 16h2.176l-2.752-4.608c1.872-.464 2.576-1.872 2.576-3.184 0-1.808-1.296-3.328-3.936-3.328h-3.84zm9.885 13.92h1.792L97.276.896h-1.808L91.132 18.8zm8.427-6.864c0 2.832 1.984 4.176 4.32 4.176 2.32 0 4.368-1.344 4.368-4.176V4.88h-1.824v7.088c0 1.728-.976 2.544-2.528 2.544-1.536 0-2.512-.816-2.512-2.544V4.88h-1.824v7.056zm18.567.912c0-4.064-5.888-2.496-5.888-5.008 0-1.072.816-1.584 1.872-1.552 1.152.032 1.808.72 1.872 1.472h2.016c-.16-1.904-1.664-3.024-3.792-3.024-2.272 0-3.824 1.216-3.824 3.168 0 4.096 5.904 2.352 5.904 5.04 0 .944-.72 1.632-2 1.632-1.264 0-1.904-.736-1.984-1.648h-1.952c0 1.968 1.712 3.184 3.936 3.184 2.48 0 3.84-1.6 3.84-3.264zm5.784-7.968h-3.632V16h3.632c3.568 0 5.904-2.096 5.904-5.52 0-3.44-2.336-5.6-5.904-5.6zm-1.808 9.632V6.368h1.808c2.624 0 4.032 1.568 4.032 4.112 0 2.528-1.408 4.032-4.032 4.032h-1.808zM148.274 16h1.808v-5.2c0-2.464-1.568-3.76-3.632-3.76-1.28 0-2.528.672-3.072 1.744-.608-1.152-1.776-1.744-3.168-1.744-1.056 0-2.016.432-2.608 1.152V7.184h-1.824V16h1.824v-4.928c0-1.616.88-2.448 2.224-2.448 1.328 0 2.208.832 2.208 2.448V16h1.808v-4.928c0-1.616.88-2.448 2.224-2.448 1.328 0 2.208.832 2.208 2.448V16zm4.129 0h1.824V7.184h-1.824V16zm.928-9.984a1.15 1.15 0 001.152-1.168 1.15 1.15 0 00-1.152-1.168c-.656 0-1.168.512-1.168 1.168 0 .656.512 1.168 1.168 1.168zm3.579 7.536c0 1.792.976 2.448 2.544 2.448h1.44v-1.52h-1.12c-.768 0-1.024-.272-1.024-.928v-4.88h2.144V7.184h-2.144V4.992h-1.84v2.192h-1.04v1.488h1.04v4.88zM6.456 35h1.808v-5.2c0-2.464-1.552-3.76-3.616-3.76-1.056 0-2.032.432-2.624 1.152v-1.008H.2V35h1.824v-4.928c0-1.616.88-2.448 2.224-2.448 1.328 0 2.208.832 2.208 2.448V35zm4.135 0h1.824v-8.816H10.59V35zm.928-9.984a1.15 1.15 0 001.152-1.168 1.15 1.15 0 00-1.152-1.168c-.656 0-1.168.512-1.168 1.168 0 .656.512 1.168 1.168 1.168zm7.002 2.56c1.36 0 2.432.864 2.464 2.224h-4.88c.192-1.392 1.184-2.224 2.416-2.224zm4.128 4.8h-1.968c-.336.688-.96 1.232-2.08 1.232-1.344 0-2.384-.88-2.512-2.336h6.736c.048-.304.064-.592.064-.896 0-2.592-1.776-4.336-4.288-4.336-2.608 0-4.4 1.776-4.4 4.544s1.872 4.56 4.4 4.56c2.16 0 3.552-1.232 4.048-2.768zm1.427-1.824c0 2.72 1.84 4.592 4.16 4.592 1.44 0 2.496-.672 3.056-1.472V35h1.84V23.16h-1.84v4.256c-.672-.832-1.888-1.376-3.04-1.376-2.336 0-4.176 1.792-4.176 4.512zm7.216.032c0 1.904-1.296 2.976-2.672 2.976-1.36 0-2.672-1.104-2.672-3.008s1.312-2.928 2.672-2.928c1.376 0 2.672 1.072 2.672 2.96zm6.06-.224c0-1.872.832-2.432 2.176-2.432h.464V26.04c-1.248 0-2.128.544-2.64 1.424v-1.28h-1.824V35h1.824v-4.64zM41.67 35h1.824v-8.816h-1.824V35zm.928-9.984a1.15 1.15 0 001.152-1.168 1.15 1.15 0 00-1.152-1.168c-.656 0-1.168.512-1.168 1.168 0 .656.512 1.168 1.168 1.168zm2.682 5.536c0 2.72 1.84 4.592 4.16 4.592 1.44 0 2.496-.72 3.056-1.472v1.472c0 1.76-1.055 2.624-2.463 2.624-1.264 0-2.24-.624-2.512-1.536H45.71c.224 1.952 1.968 3.12 4.32 3.12 2.752 0 4.305-1.808 4.305-4.208v-8.96h-1.84v1.28c-.544-.752-1.617-1.424-3.056-1.424-2.32 0-4.16 1.792-4.16 4.512zm7.216.032c0 1.904-1.295 2.976-2.671 2.976-1.36 0-2.672-1.104-2.672-3.008s1.312-2.928 2.672-2.928c1.376 0 2.672 1.072 2.672 2.96zm7.948-3.008c1.36 0 2.432.864 2.464 2.224h-4.88c.192-1.392 1.184-2.224 2.416-2.224zm4.128 4.8h-1.968c-.336.688-.96 1.232-2.08 1.232-1.344 0-2.384-.88-2.512-2.336h6.736c.048-.304.064-.592.064-.896 0-2.592-1.776-4.336-4.288-4.336-2.608 0-4.4 1.776-4.4 4.544s1.872 4.56 4.4 4.56c2.16 0 3.552-1.232 4.048-2.768zM72.862 35h1.808v-5.2c0-2.464-1.552-3.76-3.616-3.76-1.056 0-2.032.432-2.624 1.152v-1.008h-1.824V35h1.824v-4.928c0-1.616.88-2.448 2.224-2.448 1.328 0 2.208.832 2.208 2.448V35zm15.795-3.152c0-4.064-5.888-2.496-5.888-5.008 0-1.072.816-1.584 1.872-1.552 1.152.032 1.808.72 1.872 1.472h2.016c-.16-1.904-1.664-3.024-3.792-3.024-2.272 0-3.824 1.216-3.824 3.168 0 4.096 5.904 2.352 5.904 5.04 0 .944-.72 1.632-2 1.632-1.264 0-1.904-.736-1.984-1.648h-1.952c0 1.968 1.712 3.184 3.936 3.184 2.48 0 3.84-1.6 3.84-3.264zm3.976-4.368v-1.296H90.81v13.008h1.824V33.72a3.986 3.986 0 003.072 1.424c2.32 0 4.144-1.872 4.144-4.592 0-2.72-1.824-4.512-4.144-4.512-1.44 0-2.512.704-3.072 1.44zm5.36 3.072c0 1.904-1.312 3.008-2.688 3.008-1.36 0-2.672-1.072-2.672-2.976 0-1.888 1.312-2.96 2.672-2.96 1.376 0 2.688 1.024 2.688 2.928zm5.484-.192c0-1.872.832-2.432 2.176-2.432h.464V26.04c-1.248 0-2.128.544-2.64 1.424v-1.28h-1.824V35h1.824v-4.64zm8.029-2.784c1.36 0 2.432.864 2.464 2.224h-4.88c.192-1.392 1.184-2.224 2.416-2.224zm4.128 4.8h-1.968c-.336.688-.96 1.232-2.08 1.232-1.344 0-2.384-.88-2.512-2.336h6.736c.048-.304.064-.592.064-.896 0-2.592-1.776-4.336-4.288-4.336-2.608 0-4.4 1.776-4.4 4.544s1.872 4.56 4.4 4.56c2.16 0 3.552-1.232 4.048-2.768zm1.427-1.824c0 2.72 1.84 4.592 4.128 4.592 1.472 0 2.528-.704 3.088-1.456V35h1.84v-8.816h-1.84v1.28c-.544-.72-1.568-1.424-3.056-1.424-2.32 0-4.16 1.792-4.16 4.512zm7.216.032c0 1.904-1.296 2.976-2.672 2.976-1.36 0-2.672-1.104-2.672-3.008s1.312-2.928 2.672-2.928c1.376 0 2.672 1.072 2.672 2.96zm3.628-.032c0 2.72 1.84 4.592 4.16 4.592 1.44 0 2.496-.672 3.056-1.472V35h1.84V23.16h-1.84v4.256c-.672-.832-1.888-1.376-3.04-1.376-2.336 0-4.176 1.792-4.176 4.512zm7.216.032c0 1.904-1.296 2.976-2.672 2.976-1.36 0-2.672-1.104-2.672-3.008s1.312-2.928 2.672-2.928c1.376 0 2.672 1.072 2.672 2.96zm10.811 1.952c-.096-3.184-5.072-2.192-5.072-3.968 0-.592.512-.992 1.488-.992.992 0 1.584.528 1.648 1.296h1.824c-.096-1.76-1.408-2.832-3.408-2.832-2.08 0-3.392 1.136-3.392 2.544 0 3.232 5.12 2.24 5.12 3.968 0 .608-.56 1.056-1.616 1.056-1.008 0-1.696-.592-1.76-1.312h-1.888c.08 1.6 1.568 2.848 3.68 2.848 2.08 0 3.376-1.12 3.376-2.608zM8.184 45.184H6.36v4.912c0 1.616-.88 2.448-2.224 2.448-1.328 0-2.208-.832-2.208-2.448v-4.912H.12v5.184c0 2.464 1.568 3.76 3.632 3.76 1.04 0 2.032-.432 2.608-1.184V54h1.824v-8.816zM16.847 54h1.808v-5.2c0-2.464-1.552-3.76-3.616-3.76-1.056 0-2.032.432-2.624 1.152v-1.008H10.59V54h1.824v-4.928c0-1.616.88-2.448 2.224-2.448 1.328 0 2.208.832 2.208 2.448V54zm3.526-4.448c0 2.72 1.84 4.592 4.16 4.592 1.44 0 2.496-.672 3.056-1.472V54h1.84V42.16h-1.84v4.256c-.672-.832-1.888-1.376-3.04-1.376-2.336 0-4.176 1.792-4.176 4.512zm7.216.032c0 1.904-1.296 2.976-2.672 2.976-1.36 0-2.672-1.104-2.672-3.008s1.312-2.928 2.672-2.928c1.376 0 2.672 1.072 2.672 2.96zm8.152-1.568c0 3.392.896 5.952 4.16 5.952 3.264 0 4.16-2.56 4.16-5.952 0-3.328-.896-5.888-4.16-5.888-3.264 0-4.16 2.56-4.16 5.888zm6.528 0c0 2.288-.24 4.288-2.368 4.288s-2.368-2-2.368-4.288c0-2.176.24-4.224 2.368-4.224s2.368 2.048 2.368 4.224zm3.434-2.864c0 1.6 1.04 2.512 2.432 2.512s2.432-.912 2.432-2.512c0-1.584-1.04-2.496-2.432-2.496s-2.432.912-2.432 2.496zm2.432-1.392c.608 0 1.008.4 1.008 1.392 0 .992-.4 1.408-1.008 1.408-.624 0-1.008-.416-1.008-1.408s.384-1.392 1.008-1.392zM47.287 54h1.792l6.384-11.136h-1.792L47.287 54zm4.928-2.304c0 1.6 1.04 2.512 2.432 2.512 1.376 0 2.416-.912 2.416-2.512s-1.04-2.496-2.416-2.496c-1.392 0-2.432.896-2.432 2.496zm2.416-1.392c.608 0 1.008.4 1.008 1.392 0 .992-.4 1.392-1.008 1.392s-1.008-.4-1.008-1.392c0-.992.4-1.392 1.008-1.392zM69.22 54h2.384l-4.912-5.552 4.832-5.568h-2.288l-4.32 5.072V42.88H63.09V54h1.824v-4.976L69.219 54zm12.397-4.416c0-2.768-1.984-4.544-4.496-4.544-2.512 0-4.496 1.776-4.496 4.544s1.904 4.56 4.416 4.56c2.528 0 4.576-1.792 4.576-4.56zm-7.136 0c0-2 1.232-2.96 2.608-2.96 1.36 0 2.656.96 2.656 2.96S78.4 52.56 77.04 52.56c-1.376 0-2.56-.976-2.56-2.976zM95.915 54h1.808v-5.2c0-2.464-1.568-3.76-3.632-3.76-1.28 0-2.528.672-3.072 1.744-.608-1.152-1.776-1.744-3.168-1.744-1.056 0-2.016.432-2.608 1.152v-1.008h-1.824V54h1.824v-4.928c0-1.616.88-2.448 2.224-2.448 1.328 0 2.208.832 2.208 2.448V54h1.808v-4.928c0-1.616.88-2.448 2.224-2.448 1.328 0 2.208.832 2.208 2.448V54zm16.625 0h1.808v-5.2c0-2.464-1.568-3.76-3.632-3.76-1.28 0-2.528.672-3.072 1.744-.608-1.152-1.776-1.744-3.168-1.744-1.056 0-2.016.432-2.608 1.152v-1.008h-1.824V54h1.824v-4.928c0-1.616.88-2.448 2.224-2.448 1.328 0 2.208.832 2.208 2.448V54h1.808v-4.928c0-1.616.88-2.448 2.224-2.448 1.328 0 2.208.832 2.208 2.448V54zm4.129 0h1.824v-8.816h-1.824V54zm.928-9.984a1.15 1.15 0 001.152-1.168 1.15 1.15 0 00-1.152-1.168c-.656 0-1.168.512-1.168 1.168 0 .656.512 1.168 1.168 1.168zm9.867 7.52c-.096-3.184-5.072-2.192-5.072-3.968 0-.592.512-.992 1.488-.992.992 0 1.584.528 1.648 1.296h1.824c-.096-1.76-1.408-2.832-3.408-2.832-2.08 0-3.392 1.136-3.392 2.544 0 3.232 5.12 2.24 5.12 3.968 0 .608-.56 1.056-1.616 1.056-1.008 0-1.696-.592-1.76-1.312h-1.888c.08 1.6 1.568 2.848 3.68 2.848 2.08 0 3.376-1.12 3.376-2.608zm8.546 0c-.096-3.184-5.072-2.192-5.072-3.968 0-.592.512-.992 1.488-.992.992 0 1.584.528 1.648 1.296h1.824c-.096-1.76-1.408-2.832-3.408-2.832-2.08 0-3.392 1.136-3.392 2.544 0 3.232 5.12 2.24 5.12 3.968 0 .608-.56 1.056-1.616 1.056-1.008 0-1.696-.592-1.76-1.312h-1.888c.08 1.6 1.568 2.848 3.68 2.848 2.08 0 3.376-1.12 3.376-2.608zM137.981 54h1.824v-8.816h-1.824V54zm.928-9.984a1.15 1.15 0 001.152-1.168 1.15 1.15 0 00-1.152-1.168c-.656 0-1.168.512-1.168 1.168 0 .656.512 1.168 1.168 1.168zm11.691 5.568c0-2.768-1.984-4.544-4.496-4.544-2.512 0-4.496 1.776-4.496 4.544s1.904 4.56 4.416 4.56c2.528 0 4.576-1.792 4.576-4.56zm-7.136 0c0-2 1.232-2.96 2.608-2.96 1.36 0 2.656.96 2.656 2.96s-1.344 2.976-2.704 2.976c-1.376 0-2.56-.976-2.56-2.976zM158.659 54h1.808v-5.2c0-2.464-1.552-3.76-3.616-3.76-1.056 0-2.032.432-2.624 1.152v-1.008h-1.824V54h1.824v-4.928c0-1.616.88-2.448 2.224-2.448 1.328 0 2.208.832 2.208 2.448V54z" fill="#fff"/></svg>