<svg width="300" height="40" viewBox="0 0 300 40" fill="none" xmlns="http://www.w3.org/2000/svg"><path fill="#fff" d="M0 0h300v40H0z"/><path d="M15.166 6.602v.703L13.145 13h-1.301l2.03-5.375h-2.575V6.602h3.867zm3.533-.014V13h-1.23V8.1l-1.222.47V7.542l2.32-.954h.132zm1.965 5.784c0-.194.064-.355.193-.484.129-.132.303-.198.523-.198.22 0 .394.066.523.198.129.13.193.29.193.484a.656.656 0 01-.193.483c-.13.129-.303.193-.523.193-.22 0-.394-.064-.523-.193a.656.656 0 01-.193-.483zm5.277-5.84h.163v1.045h-.057c-.278 0-.522.048-.73.145a1.33 1.33 0 00-.514.413 1.856 1.856 0 00-.303.65 3.284 3.284 0 00-.101.849v1.076c0 .223.015.42.044.59.032.17.077.311.136.426a.731.731 0 00.211.25.468.468 0 00.54-.004.745.745 0 00.212-.242c.058-.106.102-.229.131-.37a2.06 2.06 0 00.049-.46c0-.17-.016-.326-.049-.466a1.333 1.333 0 00-.136-.365.67.67 0 00-.215-.242.465.465 0 00-.277-.088.566.566 0 00-.382.136.837.837 0 00-.242.343 1.283 1.283 0 00-.092.435l-.37-.263c.012-.223.053-.432.123-.629.074-.199.173-.378.3-.536.125-.158.276-.281.452-.369.176-.09.373-.136.593-.136.255 0 .478.057.668.171.19.114.349.271.475.47.129.2.224.431.285.695.065.26.097.539.097.835 0 .31-.044.599-.132.865a2.19 2.19 0 01-.373.7 1.69 1.69 0 01-.59.465 1.743 1.743 0 01-.773.167c-.293 0-.558-.062-.795-.185a1.806 1.806 0 01-.606-.523 2.52 2.52 0 01-.383-.808 3.769 3.769 0 01-.131-1.028v-.497c0-.516.06-.987.18-1.415.12-.43.297-.803.531-1.116.238-.314.528-.556.87-.725.346-.173.743-.26 1.191-.26zm3.841 1.638v-.338c0-.243.044-.464.132-.664.09-.199.224-.358.4-.479.179-.12.4-.18.663-.18.267 0 .49.06.668.18.18.12.311.28.396.48.088.199.132.42.132.663v.338c0 .238-.044.456-.132.655a1.1 1.1 0 01-.4.48c-.176.12-.395.18-.66.18-.263 0-.484-.06-.663-.18a1.13 1.13 0 01-.404-.48 1.604 1.604 0 01-.132-.655zm.804-.338v.338c0 .1.015.195.044.286.03.088.074.16.132.215.059.053.132.08.22.08a.3.3 0 00.215-.08.503.503 0 00.123-.215.925.925 0 00.044-.286v-.338a.913.913 0 00-.044-.29.45.45 0 00-.127-.215.307.307 0 00-.22-.084.307.307 0 00-.22.084.503.503 0 00-.127.215c-.026.088-.04.185-.04.29zm1.723 3.942v-.343c0-.24.046-.46.136-.659.091-.2.224-.359.4-.479.179-.12.399-.18.66-.18.269 0 .492.06.667.18.176.12.308.28.396.479.09.2.136.419.136.66v.342c0 .24-.044.46-.132.66a1.105 1.105 0 01-.4.474c-.175.12-.395.18-.659.18s-.486-.06-.668-.18a1.13 1.13 0 01-.404-.48 1.604 1.604 0 01-.132-.654zm.804-.343v.339c0 .102.018.199.053.29.035.088.082.16.14.215a.31.31 0 00.207.079c.106 0 .186-.026.242-.08a.41.41 0 00.11-.214c.02-.091.03-.188.03-.29v-.335a.913.913 0 00-.043-.29.45.45 0 00-.128-.215.291.291 0 00-.215-.083.312.312 0 00-.224.083.48.48 0 00-.132.216.992.992 0 00-.04.285zm.717-3.911l-2.624 5.001-.589-.334 2.624-5.001.589.334zm6.104 4.43v-5.7h1.235V13l-1.117.004-.118-1.054zm-2.466-1.16v-.317c0-.387.032-.725.097-1.015.067-.29.167-.532.299-.725.132-.193.293-.337.483-.43.194-.097.415-.146.664-.146.225 0 .423.057.593.172.173.11.32.268.44.47.12.202.216.44.29.716.073.276.124.577.153.905v.457c-.035.311-.09.601-.162.87-.07.27-.167.505-.29.704-.12.199-.265.356-.435.47-.17.111-.368.167-.594.167-.249 0-.47-.05-.663-.15-.19-.1-.352-.246-.484-.439a2.25 2.25 0 01-.294-.72 4.544 4.544 0 01-.097-.99zm1.23-.317v.317c0 .222.011.414.032.575.023.158.06.289.11.391.052.1.12.175.206.224.085.047.19.07.316.07a.62.62 0 00.4-.122.752.752 0 00.229-.347c.053-.15.082-.321.088-.515v-.83a2.114 2.114 0 00-.057-.435 1.095 1.095 0 00-.137-.33.63.63 0 00-.22-.21.58.58 0 00-.298-.075.632.632 0 00-.317.074.514.514 0 00-.202.233c-.05.103-.088.236-.114.4a4.093 4.093 0 00-.035.58zm5.314 2.615c-.325 0-.614-.05-.866-.15-.249-.1-.46-.243-.633-.43a1.926 1.926 0 01-.395-.69 2.886 2.886 0 01-.137-.923v-.391c0-.387.044-.725.132-1.015.088-.293.213-.54.374-.739.16-.199.359-.347.593-.443.237-.1.505-.15.804-.15.3 0 .561.05.787.15.228.096.417.243.567.44.15.192.262.433.338.72.076.287.114.62.114 1.002v.562h-3.186v-.866h1.978v-.11c0-.193-.02-.354-.062-.483a.555.555 0 00-.193-.294.582.582 0 00-.351-.097.607.607 0 00-.313.075.514.514 0 00-.202.233c-.05.105-.086.243-.11.413a4.4 4.4 0 00-.035.602v.391c0 .22.02.404.057.554a.98.98 0 00.167.36c.077.09.169.157.277.198.109.038.235.057.378.057a1.346 1.346 0 001.033-.435l.492.747a1.766 1.766 0 01-.351.334 1.92 1.92 0 01-.537.272 2.25 2.25 0 01-.72.106zm3.62-3.784V13h-1.23V8.245h1.16l.07 1.06zm1.121-1.094l-.017 1.226a2.672 2.672 0 00-.404-.035.846.846 0 00-.352.066.586.586 0 00-.242.189.878.878 0 00-.14.307 1.94 1.94 0 00-.057.418l-.233-.088c0-.31.023-.595.07-.853.05-.26.123-.486.22-.676.096-.194.212-.343.347-.449a.747.747 0 01.466-.158c.058 0 .12.006.184.018.068.009.12.02.158.035zm4.052-1.608V13h-1.287V6.602h1.287zm3.177 0l-2.074 3.177-1.27 1.582-.246-1.288.822-1.37 1.204-2.101h1.564zM54.497 13L53.1 10.06l.944-.835L56.014 13h-1.517zm3.234-6.75V13h-1.234V6.25h1.234zm2.892 6.838c-.325 0-.614-.05-.866-.15-.249-.1-.46-.243-.633-.43a1.927 1.927 0 01-.395-.69 2.886 2.886 0 01-.136-.923v-.391c0-.387.044-.725.132-1.015.087-.293.212-.54.373-.739.161-.199.359-.347.593-.443.238-.1.506-.15.805-.15.298 0 .56.05.786.15.229.096.418.243.567.44.15.192.262.433.339.72.076.287.114.62.114 1.002v.562h-3.186v-.866h1.977v-.11c0-.193-.02-.354-.061-.483a.555.555 0 00-.194-.294.582.582 0 00-.351-.097.608.608 0 00-.312.075.513.513 0 00-.202.233c-.05.105-.087.243-.11.413a4.416 4.416 0 00-.035.602v.391c0 .22.019.404.057.554a.979.979 0 00.167.36c.076.09.168.157.277.198.108.038.234.057.377.057a1.347 1.347 0 001.033-.435l.492.747a1.766 1.766 0 01-.351.334c-.15.111-.328.202-.536.272a2.25 2.25 0 01-.721.106zm3.683-4.843V13H63.07V8.245h1.235zm-1.292-1.23c0-.19.06-.348.18-.47a.657.657 0 01.492-.19c.208 0 .372.063.492.19.12.122.18.28.18.47a.646.646 0 01-.184.47.645.645 0 01-.484.184.671.671 0 01-.496-.184.655.655 0 01-.18-.47zM66.49 9.26V13h-1.235V8.245h1.156l.079 1.015zm-.185 1.2l-.33.009a3.62 3.62 0 01.102-.963c.076-.284.183-.526.32-.725.141-.202.308-.356.501-.461.197-.109.415-.163.655-.163.185 0 .353.032.506.097a.99.99 0 01.4.308c.11.14.197.328.259.562.061.231.092.516.092.853V13h-1.235V9.968c0-.205-.02-.364-.061-.475a.41.41 0 00-.185-.237.613.613 0 00-.307-.07.51.51 0 00-.313.1.766.766 0 00-.228.269 1.598 1.598 0 00-.136.404c-.03.155-.043.322-.04.501zm5.502 1.446V9.709a.914.914 0 00-.053-.343.34.34 0 00-.149-.185.434.434 0 00-.237-.061.489.489 0 00-.264.066.404.404 0 00-.158.189.806.806 0 00-.049.294h-1.234c0-.205.04-.398.118-.58.08-.185.195-.346.347-.484.156-.14.34-.25.554-.33.214-.078.454-.118.72-.118.317 0 .599.054.845.163.246.105.44.274.584.505.144.232.215.532.215.901v2.118c0 .267.014.484.04.65.03.168.072.311.127.431V13h-1.239a2.064 2.064 0 01-.127-.492c-.027-.2-.04-.4-.04-.602zm.15-1.81l.004.738h-.453a.768.768 0 00-.307.057.59.59 0 00-.216.162.671.671 0 00-.132.237c-.026.091-.039.188-.039.29 0 .115.016.211.048.29a.373.373 0 00.374.242.709.709 0 00.351-.083.569.569 0 00.22-.202c.05-.08.066-.153.049-.22l.28.479a2.173 2.173 0 01-.144.338 1.431 1.431 0 01-.224.325c-.091.1-.204.182-.339.247a1.104 1.104 0 01-.47.092c-.255 0-.488-.059-.699-.176a1.303 1.303 0 01-.5-.492c-.12-.211-.18-.461-.18-.752 0-.24.037-.457.113-.65a1.28 1.28 0 01.352-.497c.155-.137.352-.243.589-.316a2.84 2.84 0 01.835-.11h.488zm3.208-.836V13H73.93V8.245h1.155l.08 1.015zm-.185 1.2l-.33.009a3.62 3.62 0 01.101-.963c.077-.284.184-.526.321-.725.14-.202.308-.356.501-.461.197-.109.415-.163.655-.163.185 0 .353.032.505.097a.99.99 0 01.4.308c.112.14.198.328.26.562.061.231.092.516.092.853V13H76.25V9.968c0-.205-.02-.364-.061-.475a.41.41 0 00-.185-.237.613.613 0 00-.308-.07.51.51 0 00-.312.1.766.766 0 00-.228.269 1.598 1.598 0 00-.137.404c-.029.155-.042.322-.039.501zm4.698-4.21V13h-1.235V6.25h1.235zm2.891 6.838c-.325 0-.613-.05-.865-.15-.25-.1-.46-.243-.633-.43a1.926 1.926 0 01-.396-.69 2.886 2.886 0 01-.136-.923v-.391c0-.387.044-.725.132-1.015.088-.293.212-.54.373-.739.162-.199.36-.347.594-.443.237-.1.505-.15.804-.15.299 0 .56.05.787.15.228.096.417.243.566.44.15.192.263.433.339.72.076.287.114.62.114 1.002v.562h-3.186v-.866h1.978v-.11c0-.193-.021-.354-.062-.483a.555.555 0 00-.193-.294.582.582 0 00-.352-.097.608.608 0 00-.312.075.514.514 0 00-.202.233c-.05.105-.087.243-.11.413a4.4 4.4 0 00-.035.602v.391c0 .22.019.404.057.554a.979.979 0 00.167.36c.076.09.168.157.277.198.108.038.234.057.378.057a1.346 1.346 0 001.033-.435l.492.747a1.766 1.766 0 01-.352.334 1.92 1.92 0 01-.536.272 2.25 2.25 0 01-.72.106zm4.891-4.843h1.117V13c0 .434-.084.788-.25 1.063a1.458 1.458 0 01-.69.611 2.485 2.485 0 01-1.534.136 2.388 2.388 0 01-.537-.188 1.421 1.421 0 01-.426-.3l.418-.852c.114.114.263.211.448.29.184.082.366.123.545.123a.98.98 0 00.43-.083.521.521 0 00.264-.273c.062-.129.092-.301.092-.518v-3.66l.123-1.104zm-2.654 2.545v-.317c0-.387.037-.725.11-1.015.073-.29.179-.532.316-.725.138-.193.307-.337.506-.43.202-.097.427-.146.677-.146.26 0 .479.057.654.172.176.11.318.268.427.47.11.202.196.44.255.716.061.276.108.577.14.905v.457c-.032.311-.085.601-.158.87-.07.27-.164.505-.281.704-.117.199-.261.356-.431.47-.17.111-.375.167-.615.167-.246 0-.469-.05-.668-.15a1.413 1.413 0 01-.506-.439 2.202 2.202 0 01-.316-.72 4.019 4.019 0 01-.11-.99zm1.235-.317v.317c0 .222.013.414.04.575.029.158.073.289.131.391.059.1.134.175.224.224a.73.73 0 00.33.07c.179 0 .32-.04.426-.122a.724.724 0 00.238-.347 1.7 1.7 0 00.088-.515v-.83a1.78 1.78 0 00-.058-.435 1.093 1.093 0 00-.136-.33.607.607 0 00-.228-.21.657.657 0 00-.321-.075.667.667 0 00-.325.074.603.603 0 00-.229.233 1.325 1.325 0 00-.136.4c-.03.161-.044.355-.044.58zm5.37 2.615c-.325 0-.614-.05-.866-.15-.249-.1-.46-.243-.632-.43a1.926 1.926 0 01-.396-.69 2.886 2.886 0 01-.136-.923v-.391c0-.387.044-.725.132-1.015.088-.293.212-.54.373-.739.161-.199.36-.347.594-.443.237-.1.505-.15.804-.15.298 0 .56.05.786.15.229.096.418.243.567.44.15.192.262.433.339.72.076.287.114.62.114 1.002v.562h-3.186v-.866h1.977v-.11c0-.193-.02-.354-.061-.483a.555.555 0 00-.194-.294.582.582 0 00-.351-.097.608.608 0 00-.312.075.514.514 0 00-.202.233c-.05.105-.087.243-.11.413a4.4 4.4 0 00-.035.602v.391c0 .22.019.404.057.554a.979.979 0 00.167.36c.076.09.168.157.277.198.108.038.234.057.378.057a1.346 1.346 0 001.033-.435l.492.747a1.766 1.766 0 01-.352.334 1.92 1.92 0 01-.536.272 2.25 2.25 0 01-.72.106zm3.621-3.784V13h-1.23V8.245h1.16l.07 1.06zm1.12-1.094l-.017 1.226a2.67 2.67 0 00-.404-.035.846.846 0 00-.352.066.586.586 0 00-.241.189.878.878 0 00-.14.307 1.94 1.94 0 00-.058.418l-.233-.088c0-.31.024-.595.07-.853.05-.26.123-.486.22-.676.097-.194.213-.343.347-.449a.747.747 0 01.466-.158c.059 0 .12.006.185.018.067.009.12.02.158.035zm1.86-1.964V13h-1.23V6.246h1.23zm2.5 2l-1.674 2.363-1.006 1.13-.435-.936.773-1.13.874-1.428h1.468zM99.229 13l-1.037-2.184.848-.782 1.6 2.966h-1.411zm1.718-2.215v-.32c0-.373.044-.702.132-.99.091-.287.22-.527.387-.72a1.6 1.6 0 01.602-.444c.237-.102.502-.154.795-.154.296 0 .561.052.796.154.237.1.439.248.606.444.17.193.3.433.391.72.091.288.136.617.136.99v.32c0 .37-.045.697-.136.985a2.027 2.027 0 01-.391.725 1.608 1.608 0 01-.602.444c-.234.1-.498.149-.791.149-.293 0-.558-.05-.795-.15a1.64 1.64 0 01-.607-.443c-.17-.197-.3-.438-.391-.725a3.36 3.36 0 01-.132-.985zm1.231-.32v.32c0 .22.014.41.044.571.032.162.077.295.136.4a.623.623 0 00.22.233.57.57 0 00.294.075.597.597 0 00.299-.075.55.55 0 00.215-.233 1.24 1.24 0 00.128-.4c.029-.16.044-.351.044-.57v-.322c0-.213-.016-.401-.049-.562a1.31 1.31 0 00-.136-.4.62.62 0 00-.22-.237.516.516 0 00-.29-.084.518.518 0 00-.29.084.678.678 0 00-.215.237 1.31 1.31 0 00-.136.4c-.03.161-.044.349-.044.562zm4.601-1.205V13h-1.235V8.245h1.156l.079 1.015zm-.185 1.2l-.329.009a3.587 3.587 0 01.101-.963c.076-.284.183-.526.321-.725.14-.202.307-.356.501-.461.196-.109.414-.163.654-.163.185 0 .353.032.506.097a.996.996 0 01.4.308c.111.14.197.328.259.562.061.231.092.516.092.853V13h-1.235V9.968c0-.205-.02-.364-.061-.475a.411.411 0 00-.185-.237.61.61 0 00-.307-.07.507.507 0 00-.312.1.77.77 0 00-.229.269 1.571 1.571 0 00-.136.404c-.03.155-.043.322-.04.501zm5.48-2.215v.927h-2.426v-.927h2.426zm-1.867-1.173h1.226v4.478c0 .132.013.233.039.303.027.07.066.12.119.15.055.026.129.039.22.039a.86.86 0 00.29-.035v.962c-.097.038-.2.068-.308.088-.105.02-.231.03-.378.03-.246 0-.46-.046-.642-.14a.964.964 0 01-.417-.448c-.1-.208-.149-.48-.149-.817v-4.61zm4.469 6.016c-.325 0-.614-.05-.866-.15-.249-.1-.46-.243-.633-.43a1.926 1.926 0 01-.395-.69 2.88 2.88 0 01-.136-.923v-.391c0-.387.043-.725.131-1.015a2.14 2.14 0 01.374-.739c.161-.199.359-.347.593-.443.237-.1.506-.15.804-.15.299 0 .561.05.787.15.228.096.417.243.567.44.149.192.262.433.338.72.076.287.114.62.114 1.002v.562h-3.186v-.866h1.978v-.11c0-.193-.021-.354-.062-.483a.554.554 0 00-.193-.294.58.58 0 00-.351-.097.605.605 0 00-.312.075.516.516 0 00-.203.233 1.457 1.457 0 00-.109.413 4.309 4.309 0 00-.036.602v.391c0 .22.019.404.058.554a.981.981 0 00.166.36.67.67 0 00.277.198c.109.038.235.057.378.057a1.343 1.343 0 001.033-.435l.492.747a1.776 1.776 0 01-.351.334c-.15.111-.329.202-.537.272-.208.07-.448.106-.72.106zm3.599-3.828V13h-1.235V8.245h1.156l.079 1.015zm-.185 1.2l-.329.009a3.628 3.628 0 01.101-.963c.076-.284.183-.526.321-.725.14-.202.307-.356.501-.461.196-.109.414-.163.654-.163.185 0 .353.032.506.097a.996.996 0 01.4.308c.111.14.197.328.259.562.061.231.092.516.092.853V13h-1.235V9.968c0-.205-.02-.364-.061-.475a.411.411 0 00-.185-.237.61.61 0 00-.307-.07.507.507 0 00-.312.1.77.77 0 00-.229.269 1.61 1.61 0 00-.136.404 2.498 2.498 0 00-.04.501zm6.882 1.59l.765-3.805h1.283L125.715 13h-.769l.026-.95zm-.452-3.805l.777 3.81.014.945h-.774l-1.305-4.755h1.288zm4.948 4.843c-.325 0-.614-.05-.866-.15-.249-.1-.46-.243-.633-.43a1.926 1.926 0 01-.395-.69 2.88 2.88 0 01-.136-.923v-.391c0-.387.043-.725.131-1.015a2.14 2.14 0 01.374-.739c.161-.199.359-.347.593-.443.237-.1.506-.15.804-.15.299 0 .561.05.787.15.228.096.417.243.567.44.149.192.262.433.338.72.076.287.114.62.114 1.002v.562h-3.186v-.866h1.978v-.11c0-.193-.021-.354-.062-.483a.554.554 0 00-.193-.294.58.58 0 00-.351-.097.603.603 0 00-.312.075.516.516 0 00-.203.233 1.457 1.457 0 00-.109.413 4.309 4.309 0 00-.036.602v.391c0 .22.019.404.057.554a.998.998 0 00.167.36.67.67 0 00.277.198c.109.038.235.057.378.057a1.343 1.343 0 001.033-.435l.492.747a1.776 1.776 0 01-.351.334c-.15.111-.329.202-.537.272-.208.07-.448.106-.72.106zm3.621-3.784V13h-1.231V8.245h1.161l.07 1.06zm1.12-1.094l-.017 1.226a2.675 2.675 0 00-.404-.035.848.848 0 00-.352.066.589.589 0 00-.242.189.883.883 0 00-.14.307 1.845 1.845 0 00-.057.418l-.233-.088c0-.31.023-.595.07-.853.05-.26.123-.486.22-.676.096-.194.212-.343.347-.449a.747.747 0 01.466-.158c.058 0 .12.006.184.018.068.009.12.02.158.035zm1.921-1.96V13h-1.235V6.25h1.235zm2.267 1.995V13h-1.234V8.245h1.234zm-1.292-1.23c0-.19.061-.348.181-.47a.656.656 0 01.492-.19c.208 0 .372.063.492.19.12.122.18.28.18.47a.646.646 0 01-.184.47.646.646 0 01-.484.184.67.67 0 01-.496-.184.656.656 0 01-.181-.47zm4.184 6.073c-.325 0-.614-.05-.866-.15-.249-.1-.46-.243-.632-.43a1.928 1.928 0 01-.396-.69 2.88 2.88 0 01-.136-.923v-.391c0-.387.044-.725.132-1.015.088-.293.212-.54.373-.739.161-.199.359-.347.593-.443.238-.1.506-.15.805-.15.298 0 .561.05.786.15.229.096.418.243.567.44.15.192.262.433.339.72.076.287.114.62.114 1.002v.562h-3.186v-.866h1.977v-.11c0-.193-.02-.354-.061-.483a.555.555 0 00-.194-.294.579.579 0 00-.351-.097.608.608 0 00-.312.075.509.509 0 00-.202.233c-.05.105-.087.243-.11.413a4.325 4.325 0 00-.035.602v.391c0 .22.019.404.057.554a.982.982 0 00.167.36c.076.09.168.157.277.198.108.038.234.057.378.057a1.343 1.343 0 001.032-.435l.492.747a1.776 1.776 0 01-.351.334c-.15.111-.328.202-.536.272a2.25 2.25 0 01-.721.106zm3.621-3.784V13h-1.23V8.245h1.16l.07 1.06zm1.121-1.094l-.018 1.226a2.675 2.675 0 00-.404-.035.848.848 0 00-.352.066.586.586 0 00-.241.189.866.866 0 00-.141.307 1.965 1.965 0 00-.057.418l-.233-.088c0-.31.023-.595.07-.853.05-.26.123-.486.22-.676.097-.194.212-.343.347-.449a.747.747 0 01.466-.158c.059 0 .12.006.185.018.067.009.12.02.158.035zm2.456 4.878c-.325 0-.613-.05-.865-.15-.249-.1-.46-.243-.633-.43a1.928 1.928 0 01-.396-.69 2.88 2.88 0 01-.136-.923v-.391c0-.387.044-.725.132-1.015.088-.293.212-.54.373-.739.162-.199.359-.347.594-.443.237-.1.505-.15.804-.15.299 0 .561.05.786.15.229.096.418.243.567.44.15.192.263.433.339.72.076.287.114.62.114 1.002v.562h-3.186v-.866h1.978v-.11c0-.193-.021-.354-.062-.483a.554.554 0 00-.193-.294.582.582 0 00-.352-.097.608.608 0 00-.312.075.514.514 0 00-.202.233c-.05.105-.087.243-.11.413a4.485 4.485 0 00-.035.602v.391c0 .22.019.404.057.554a.982.982 0 00.167.36c.076.09.168.157.277.198.108.038.234.057.378.057.217 0 .411-.038.584-.114.176-.08.325-.186.449-.321l.492.747a1.913 1.913 0 01-.888.606 2.25 2.25 0 01-.721.106zm3.599-3.828V13h-1.234V8.245h1.155l.079 1.015zm-.184 1.2l-.33.009a3.628 3.628 0 01.101-.963c.077-.284.183-.526.321-.725.141-.202.308-.356.501-.461.196-.109.415-.163.655-.163.184 0 .353.032.505.097a.983.983 0 01.4.308c.112.14.198.328.259.562.062.231.093.516.093.853V13h-1.235V9.968a1.43 1.43 0 00-.062-.475.41.41 0 00-.184-.237.614.614 0 00-.308-.07.51.51 0 00-.312.1.758.758 0 00-.228.269 1.61 1.61 0 00-.137.404 2.5 2.5 0 00-.039.501zm9.888-.822v2.637a2.585 2.585 0 01-1.082.672c-.278.094-.618.14-1.019.14-.355 0-.677-.055-.967-.166a1.971 1.971 0 01-.743-.505 2.315 2.315 0 01-.47-.853 4.07 4.07 0 01-.162-1.217v-1.09c0-.463.051-.866.153-1.209a2.32 2.32 0 01.458-.861c.199-.228.436-.398.711-.51.279-.111.592-.167.941-.167.48 0 .874.08 1.182.242.311.161.545.4.703.716.161.317.258.705.29 1.165h-1.243c-.021-.27-.066-.48-.137-.633a.64.64 0 00-.285-.325.994.994 0 00-.479-.101c-.17 0-.318.03-.444.092a.748.748 0 00-.317.29 1.51 1.51 0 00-.189.519c-.041.21-.061.468-.061.773v1.099c0 .302.023.56.07.773.047.214.116.388.207.523a.826.826 0 00.351.295c.144.058.312.087.506.087.155 0 .279-.016.373-.048a1.07 1.07 0 00.224-.101 2.27 2.27 0 01.145-.088V10.61h-.918v-.97h2.202zm2.781 3.45c-.325 0-.613-.05-.865-.15-.249-.1-.46-.243-.633-.43a1.928 1.928 0 01-.396-.69 2.88 2.88 0 01-.136-.923v-.391c0-.387.044-.725.132-1.015.088-.293.212-.54.373-.739.162-.199.359-.347.594-.443.237-.1.505-.15.804-.15.299 0 .561.05.786.15.229.096.418.243.567.44.15.192.263.433.339.72.076.287.114.62.114 1.002v.562h-3.186v-.866h1.978v-.11c0-.193-.021-.354-.062-.483a.554.554 0 00-.193-.294.582.582 0 00-.352-.097.608.608 0 00-.312.075.514.514 0 00-.202.233c-.05.105-.087.243-.11.413a4.485 4.485 0 00-.035.602v.391c0 .22.019.404.057.554a.982.982 0 00.167.36c.076.09.168.157.277.198.108.038.234.057.378.057.217 0 .411-.038.584-.114.176-.08.325-.186.449-.321l.492.747a1.913 1.913 0 01-.888.606 2.25 2.25 0 01-.721.106zm3.683-6.838V13h-1.235V6.25h1.235zm3.278 5.7v-5.7h1.235V13l-1.116.004-.119-1.054zm-2.465-1.16v-.317c0-.387.032-.725.097-1.015.067-.29.167-.532.298-.725.132-.193.293-.337.484-.43a1.46 1.46 0 01.663-.146c.226 0 .424.057.594.172.172.11.319.268.439.47.12.202.217.44.29.716.073.276.125.577.154.905v.457c-.035.311-.089.601-.163.87-.07.27-.167.505-.29.704-.12.199-.265.356-.435.47-.17.111-.367.167-.593.167-.249 0-.47-.05-.664-.15a1.33 1.33 0 01-.483-.439 2.239 2.239 0 01-.294-.72 4.506 4.506 0 01-.097-.99zm1.23-.317v.317c0 .222.011.414.031.575.024.158.06.289.11.391.053.1.122.175.207.224.084.047.19.07.316.07a.622.622 0 00.4-.122.75.75 0 00.228-.347c.053-.15.082-.321.088-.515v-.83a2.142 2.142 0 00-.057-.435 1.103 1.103 0 00-.136-.33.633.633 0 00-.22-.21.579.579 0 00-.299-.075.63.63 0 00-.316.074.514.514 0 00-.202.233c-.05.103-.088.236-.114.4a4.008 4.008 0 00-.036.58zm5.476-4.223h1.226v5.647L176.911 13h-1.138V6.25zm3.696 4.214v.312c0 .387-.031.724-.093 1.011-.058.287-.15.527-.276.72a1.188 1.188 0 01-.475.436 1.516 1.516 0 01-.686.145c-.237 0-.44-.056-.61-.167a1.423 1.423 0 01-.431-.47 3.074 3.074 0 01-.281-.708 5.828 5.828 0 01-.154-.892v-.461c.029-.317.079-.611.149-.884a2.97 2.97 0 01.282-.707c.114-.202.256-.36.426-.47.173-.115.376-.172.611-.172.269 0 .501.05.694.15.193.096.352.241.475.435.126.193.218.435.276.725.062.287.093.62.093.997zm-1.226.312v-.312c0-.22-.009-.408-.027-.567a1.327 1.327 0 00-.096-.395.509.509 0 00-.203-.237.631.631 0 00-.338-.08.615.615 0 00-.316.075.623.623 0 00-.22.211c-.059.091-.103.2-.132.325-.026.123-.041.26-.044.41v.83c.003.202.028.38.075.536a.722.722 0 00.224.36.652.652 0 00.422.128.69.69 0 00.334-.07.468.468 0 00.198-.225c.049-.102.082-.234.096-.395a5.55 5.55 0 00.027-.594zm3.898 2.312a2.34 2.34 0 01-.866-.15c-.249-.1-.46-.243-.633-.43a1.912 1.912 0 01-.395-.69 2.88 2.88 0 01-.137-.923v-.391c0-.387.044-.725.132-1.015a2.14 2.14 0 01.374-.739c.161-.199.359-.347.593-.443.237-.1.505-.15.804-.15.299 0 .561.05.787.15.228.096.417.243.567.44.149.192.262.433.338.72.076.287.114.62.114 1.002v.562h-3.186v-.866h1.978v-.11c0-.193-.021-.354-.062-.483a.554.554 0 00-.193-.294.582.582 0 00-.352-.097.608.608 0 00-.312.075.514.514 0 00-.202.233c-.05.105-.086.243-.11.413a4.485 4.485 0 00-.035.602v.391c0 .22.019.404.057.554a.982.982 0 00.167.36.67.67 0 00.277.198c.109.038.235.057.378.057.217 0 .412-.038.585-.114.175-.08.325-.186.448-.321l.492.747a1.913 1.913 0 01-.888.606c-.208.07-.448.106-.72.106zm3.682-4.843V13h-1.235V8.245h1.235zm-1.292-1.23c0-.19.06-.348.18-.47a.659.659 0 01.493-.19c.208 0 .372.063.492.19.12.122.18.28.18.47a.647.647 0 01-.185.47.644.644 0 01-.483.184.672.672 0 01-.497-.184.655.655 0 01-.18-.47zm3.507 2.214V13h-1.235V8.245h1.16l.075.984zm-.176 1.231l-.338.009a3.794 3.794 0 01.088-.923c.064-.281.161-.526.29-.734.132-.208.297-.37.496-.483.2-.115.433-.172.699-.172.173 0 .333.032.479.097.147.061.274.16.382.294.109.132.192.305.251.519.059.21.088.464.088.76V13h-1.231V9.977c0-.211-.02-.373-.061-.484a.426.426 0 00-.176-.237.527.527 0 00-.281-.07.508.508 0 00-.308.096.704.704 0 00-.215.273 1.707 1.707 0 00-.123.404c-.027.155-.04.322-.04.501zm2.316-.123l-.444.057a3.639 3.639 0 01.084-.874 2.21 2.21 0 01.286-.712 1.42 1.42 0 01.483-.48c.196-.114.423-.17.681-.17.193 0 .369.031.527.096a.97.97 0 01.405.312c.114.14.2.327.259.558.062.231.092.513.092.844V13h-1.235V9.972c0-.214-.02-.378-.061-.492-.041-.114-.1-.192-.176-.233a.566.566 0 00-.272-.061.452.452 0 00-.277.087.702.702 0 00-.194.247 1.346 1.346 0 00-.118.364c-.027.138-.04.289-.04.453zm8.486.532h1.279c-.018.48-.114.886-.29 1.217a1.759 1.759 0 01-.752.747c-.322.17-.712.255-1.169.255a2.39 2.39 0 01-.944-.176 1.891 1.891 0 01-.704-.527 2.359 2.359 0 01-.439-.857 4.353 4.353 0 01-.145-1.182V9.26c0-.445.051-.84.154-1.182.105-.343.255-.63.448-.861.196-.235.432-.41.708-.528.278-.12.591-.18.94-.18.466 0 .855.088 1.169.264.313.176.555.432.725.769.173.334.277.743.312 1.226h-1.283c-.009-.305-.044-.543-.106-.716a.616.616 0 00-.281-.37c-.129-.073-.307-.11-.536-.11a.97.97 0 00-.439.093.71.71 0 00-.304.286 1.535 1.535 0 00-.175.518 4.82 4.82 0 00-.053.782v1.095c0 .302.016.56.048.773.032.211.084.384.154.519.07.135.165.233.286.294.123.062.278.092.465.092.217 0 .392-.032.523-.096a.6.6 0 00.299-.347c.065-.167.101-.405.11-.712zm3.371-4.267V13h-1.288V6.602h1.288zm2.004 2.72v1.063h-2.33V9.322h2.33zm.246-2.72v1.067h-2.576V6.602h2.576zM206.706 13h-1.129l.008-1.063h1.121c.311 0 .552-.056.725-.167.173-.112.295-.288.365-.528.073-.24.11-.555.11-.945V9.3c0-.296-.019-.547-.057-.752a1.224 1.224 0 00-.194-.5.804.804 0 00-.364-.286 1.526 1.526 0 00-.567-.093h-1.169V6.602h1.169c.369 0 .704.06 1.006.18.302.12.561.296.778.527.217.229.384.511.501.848a3.5 3.5 0 01.176 1.152v.988c0 .434-.059.818-.176 1.152a2.364 2.364 0 01-.501.848 2.107 2.107 0 01-.778.523c-.305.12-.646.18-1.024.18zm-.382-6.398V13h-1.288V6.602h1.288zm5.954 3.142v1.024h-2.14V9.744h2.14zm4.645-.55v1.064H214.3V9.194h2.623zm-2.258-2.592V13h-1.288V6.602h1.288zm3.19 0V13h-1.274V6.602h1.274zm3.085 5.304V9.709a.917.917 0 00-.053-.343.34.34 0 00-.149-.185.437.437 0 00-.238-.061.487.487 0 00-.263.066.404.404 0 00-.158.189.788.788 0 00-.049.294h-1.235c0-.205.04-.398.119-.58.079-.185.195-.346.347-.484.156-.14.34-.25.554-.33.214-.078.454-.118.721-.118.316 0 .597.054.843.163.246.105.441.274.585.505.143.232.215.532.215.901v2.118c0 .267.013.484.04.65.029.168.072.311.127.431V13h-1.239a2.076 2.076 0 01-.128-.492c-.026-.2-.039-.4-.039-.602zm.149-1.81l.005.738h-.453a.771.771 0 00-.308.057.602.602 0 00-.215.162.692.692 0 00-.132.237 1.05 1.05 0 00-.039.29c0 .115.016.211.048.29a.374.374 0 00.374.242.707.707 0 00.351-.083.568.568 0 00.22-.202c.05-.08.066-.153.048-.22l.282.479a2.316 2.316 0 01-.145.338 1.442 1.442 0 01-.225.325c-.09.1-.203.182-.338.247a1.105 1.105 0 01-.47.092c-.255 0-.488-.059-.699-.176a1.303 1.303 0 01-.501-.492c-.12-.211-.18-.461-.18-.752 0-.24.038-.457.114-.65.079-.196.196-.362.352-.497.155-.137.351-.243.589-.316.237-.073.515-.11.835-.11h.487zm3.208-.836V13h-1.235V8.245h1.156l.079 1.015zm-.184 1.2l-.33.009a3.628 3.628 0 01.101-.963c.076-.284.183-.526.321-.725.141-.202.308-.356.501-.461.196-.109.415-.163.655-.163.184 0 .353.032.505.097a.99.99 0 01.4.308c.111.14.198.328.259.562.062.231.093.516.093.853V13h-1.235V9.968a1.43 1.43 0 00-.062-.475.41.41 0 00-.184-.237.614.614 0 00-.308-.07.51.51 0 00-.312.1.758.758 0 00-.228.269 1.61 1.61 0 00-.137.404 2.5 2.5 0 00-.039.501zm5.708 1.49v-5.7h1.235V13l-1.116.004-.119-1.054zm-2.465-1.16v-.317c0-.387.032-.725.097-1.015.067-.29.167-.532.298-.725.132-.193.293-.337.484-.43a1.46 1.46 0 01.663-.146c.226 0 .424.057.594.172.173.11.319.268.439.47.12.202.217.44.29.716.073.276.125.577.154.905v.457c-.035.311-.089.601-.163.87-.07.27-.167.505-.29.704-.12.199-.265.356-.435.47-.17.111-.367.167-.593.167-.249 0-.47-.05-.664-.15a1.33 1.33 0 01-.483-.439 2.239 2.239 0 01-.294-.72 4.506 4.506 0 01-.097-.99zm1.23-.317v.317c0 .222.011.414.031.575.024.158.06.289.11.391.053.1.122.175.207.224.085.047.19.07.316.07a.622.622 0 00.4-.122.75.75 0 00.228-.347c.053-.15.082-.321.088-.515v-.83a2.142 2.142 0 00-.057-.435 1.078 1.078 0 00-.136-.33.633.633 0 00-.22-.21.579.579 0 00-.299-.075.63.63 0 00-.316.074.514.514 0 00-.202.233c-.05.103-.088.236-.114.4a4.008 4.008 0 00-.036.58zm5.313 2.615c-.325 0-.613-.05-.865-.15-.249-.1-.46-.243-.633-.43a1.928 1.928 0 01-.396-.69 2.909 2.909 0 01-.136-.923v-.391c0-.387.044-.725.132-1.015.088-.293.212-.54.374-.739.161-.199.358-.347.593-.443.237-.1.505-.15.804-.15.299 0 .561.05.787.15.228.096.417.243.566.44.15.192.263.433.339.72.076.287.114.62.114 1.002v.562h-3.186v-.866h1.978v-.11c0-.193-.021-.354-.062-.483a.554.554 0 00-.193-.294.582.582 0 00-.352-.097.608.608 0 00-.312.075.514.514 0 00-.202.233c-.05.105-.086.243-.11.413a4.485 4.485 0 00-.035.602v.391c0 .22.019.404.057.554a.982.982 0 00.167.36c.076.09.169.157.277.198.108.038.234.057.378.057a1.347 1.347 0 001.033-.435l.492.747a1.913 1.913 0 01-.888.606 2.25 2.25 0 01-.721.106zm3.683-6.838V13h-1.235V6.25h1.235zm4.289 2.98V13h-1.235V8.245h1.16l.075.984zm-.176 1.23l-.338.009a3.794 3.794 0 01.088-.923c.064-.281.161-.526.29-.734.132-.208.297-.37.496-.483.2-.115.433-.172.699-.172.173 0 .333.032.479.097.147.061.274.16.383.294.108.132.191.305.25.519.059.21.088.464.088.76V13h-1.231V9.977c0-.211-.02-.373-.061-.484a.426.426 0 00-.176-.237.527.527 0 00-.281-.07.508.508 0 00-.308.096.704.704 0 00-.215.273 1.707 1.707 0 00-.123.404c-.027.155-.04.322-.04.501zm2.316-.123l-.444.057a3.639 3.639 0 01.084-.874 2.21 2.21 0 01.286-.712 1.42 1.42 0 01.483-.48c.196-.114.423-.17.681-.17.193 0 .369.031.527.096a.97.97 0 01.405.312c.114.14.2.327.259.558.062.231.092.513.092.844V13h-1.235V9.972c0-.214-.02-.378-.061-.492-.041-.114-.1-.192-.176-.233a.566.566 0 00-.272-.061.452.452 0 00-.277.087.702.702 0 00-.194.247 1.346 1.346 0 00-.118.364c-.027.138-.04.289-.04.453zm4.593-2.092V13h-1.235V8.245h1.235zm-1.292-1.23c0-.19.06-.348.18-.47a.656.656 0 01.492-.19c.208 0 .372.063.492.19.12.122.18.28.18.47a.646.646 0 01-.184.47.646.646 0 01-.484.184.67.67 0 01-.496-.184.655.655 0 01-.18-.47zm4.341 1.23v.927h-2.425v-.927h2.425zm-1.867-1.173h1.226v4.478c0 .132.013.233.039.303.027.07.066.12.119.15.056.026.129.039.22.039a.86.86 0 00.29-.035v.962c-.097.038-.2.068-.308.088-.105.02-.231.03-.378.03-.246 0-.46-.046-.641-.14a.96.96 0 01-.418-.448c-.1-.208-.149-.48-.149-.817v-4.61zm6.93 4.878v-5.7h1.235V13l-1.117.004-.118-1.054zm-2.466-1.16v-.317c0-.387.033-.725.097-1.015.068-.29.167-.532.299-.725.132-.193.293-.337.483-.43.194-.097.415-.146.664-.146.226 0 .423.057.593.172.173.11.32.268.44.47.12.202.216.44.29.716.073.276.124.577.154.905v.457c-.036.311-.09.601-.163.87-.07.27-.167.505-.29.704-.12.199-.265.356-.435.47-.17.111-.368.167-.593.167a1.43 1.43 0 01-.664-.15c-.19-.1-.352-.246-.483-.439a2.262 2.262 0 01-.295-.72 4.568 4.568 0 01-.097-.99zm1.231-.317v.317c0 .222.01.414.031.575.023.158.06.289.11.391.052.1.121.175.206.224.085.047.191.07.317.07a.617.617 0 00.399-.122.751.751 0 00.229-.347c.053-.15.082-.321.088-.515v-.83a2.142 2.142 0 00-.057-.435 1.104 1.104 0 00-.137-.33.621.621 0 00-.219-.21.582.582 0 00-.299-.075.628.628 0 00-.316.074.516.516 0 00-.203.233 1.472 1.472 0 00-.114.4 4.172 4.172 0 00-.035.58zm4.689-2.228V13h-1.235V8.245h1.235zm-1.292-1.23c0-.19.06-.348.18-.47a.656.656 0 01.492-.19c.208 0 .372.063.492.19.121.122.181.28.181.47a.647.647 0 01-.185.47.644.644 0 01-.483.184.672.672 0 01-.497-.184.655.655 0 01-.18-.47zm4.184 6.073a2.34 2.34 0 01-.866-.15c-.249-.1-.46-.243-.633-.43a1.928 1.928 0 01-.396-.69 2.909 2.909 0 01-.136-.923v-.391c0-.387.044-.725.132-1.015.088-.293.212-.54.374-.739.161-.199.359-.347.593-.443.237-.1.505-.15.804-.15.299 0 .561.05.787.15.228.096.417.243.567.44.149.192.262.433.338.72.076.287.114.62.114 1.002v.562h-3.186v-.866h1.978v-.11c0-.193-.021-.354-.062-.483a.554.554 0 00-.193-.294.582.582 0 00-.352-.097.608.608 0 00-.312.075.514.514 0 00-.202.233c-.05.105-.086.243-.11.413a4.485 4.485 0 00-.035.602v.391c0 .22.019.404.057.554a.982.982 0 00.167.36c.076.09.169.157.277.198.108.038.234.057.378.057a1.347 1.347 0 001.033-.435l.492.747a1.913 1.913 0 01-.888.606c-.208.07-.448.106-.72.106zm4.5-1.371a.326.326 0 00-.084-.22.998.998 0 00-.264-.198 4.297 4.297 0 00-.479-.233 5.121 5.121 0 01-.575-.272 2.052 2.052 0 01-.427-.312 1.164 1.164 0 01-.259-.391 1.352 1.352 0 01-.088-.501 1.4 1.4 0 01.11-.558c.076-.173.185-.324.325-.453a1.48 1.48 0 01.514-.308c.206-.076.436-.114.69-.114.358 0 .664.063.919.19.258.122.455.295.593.518.138.222.207.482.207.778h-1.231a.77.77 0 00-.048-.282.393.393 0 00-.158-.197.512.512 0 00-.286-.07.451.451 0 00-.4.21.41.41 0 00-.057.22c0 .064.013.122.04.171.029.05.074.098.136.145.061.047.143.097.246.15.105.05.234.105.387.167.316.117.575.243.777.378.205.134.358.293.457.474.1.179.15.4.15.664 0 .21-.041.403-.123.575a1.255 1.255 0 01-.347.449 1.619 1.619 0 01-.55.29 2.314 2.314 0 01-.707.1c-.384 0-.708-.075-.971-.228a1.572 1.572 0 01-.598-.584 1.505 1.505 0 01-.202-.747h1.169a.805.805 0 00.088.373.44.44 0 00.224.185.88.88 0 00.312.053.764.764 0 00.281-.044.35.35 0 00.171-.145.466.466 0 00.058-.233zm3.893 1.37c-.325 0-.614-.049-.866-.149-.249-.1-.46-.243-.632-.43a1.928 1.928 0 01-.396-.69 2.88 2.88 0 01-.136-.923v-.391c0-.387.044-.725.132-1.015.088-.293.212-.54.373-.739.161-.199.359-.347.593-.443.238-.1.506-.15.805-.15.298 0 .561.05.786.15.229.096.418.243.567.44.15.192.262.433.339.72.076.287.114.62.114 1.002v.562h-3.186v-.866h1.977v-.11c0-.193-.02-.354-.061-.483a.555.555 0 00-.194-.294.579.579 0 00-.351-.097.608.608 0 00-.312.075.509.509 0 00-.202.233c-.05.105-.087.243-.11.413a4.325 4.325 0 00-.035.602v.391c0 .22.019.404.057.554a.982.982 0 00.167.36c.076.09.168.157.277.198.108.038.234.057.378.057a1.343 1.343 0 001.032-.435l.492.747a1.748 1.748 0 01-.351.334c-.15.111-.328.202-.536.272a2.25 2.25 0 01-.721.106zm3.63-3.858V13h-1.235V8.245h1.16l.075.984zm-.176 1.231l-.338.009a3.794 3.794 0 01.088-.923c.064-.281.161-.526.29-.734.132-.208.297-.37.496-.483.2-.115.432-.172.699-.172.173 0 .333.032.479.097.147.061.274.16.382.294.109.132.192.305.251.519.058.21.088.464.088.76V13h-1.231V9.977c0-.211-.02-.373-.061-.484a.426.426 0 00-.176-.237.527.527 0 00-.281-.07.508.508 0 00-.308.096.695.695 0 00-.215.273 1.707 1.707 0 00-.123.404c-.027.155-.04.322-.04.501zm2.316-.123l-.444.057a3.589 3.589 0 01.084-.874 2.21 2.21 0 01.285-.712c.129-.205.29-.365.484-.48.196-.114.423-.17.681-.17.193 0 .369.031.527.096a.977.977 0 01.405.312c.114.14.2.327.259.558.061.231.092.513.092.844V13h-1.235V9.972c0-.214-.02-.378-.061-.492-.041-.114-.1-.192-.176-.233a.566.566 0 00-.272-.061.452.452 0 00-.277.087.69.69 0 00-.194.247 1.346 1.346 0 00-.118.364c-.027.138-.04.289-.04.453zm-263.39 7.407L12.458 23h-1.358l2-6.398h.848l-.114 1.142zM14.92 23l-1.384-5.256-.128-1.142h.862L16.287 23H14.92zm.048-2.386v1.068h-2.887v-1.068h2.887zm2.866-1.354V23h-1.235v-4.755h1.155l.08 1.015zm-.185 1.2l-.33.009a3.628 3.628 0 01.101-.963c.077-.284.183-.526.321-.725.14-.202.308-.356.501-.461.197-.109.415-.163.655-.163.184 0 .353.032.505.097a.99.99 0 01.4.307c.112.141.198.329.26.563.061.232.092.516.092.853V23h-1.235v-3.032c0-.205-.02-.363-.062-.475a.41.41 0 00-.184-.237.613.613 0 00-.308-.07.51.51 0 00-.312.1.767.767 0 00-.228.269 1.593 1.593 0 00-.136.404c-.03.155-.043.322-.04.501zm3.41-4.21h1.226v5.647L22.197 23H21.06v-6.75zm3.696 4.214v.312c0 .387-.03.724-.092 1.011-.059.287-.151.527-.277.72a1.185 1.185 0 01-.475.436 1.515 1.515 0 01-.685.145 1.09 1.09 0 01-.611-.167 1.425 1.425 0 01-.43-.47 3.074 3.074 0 01-.282-.708 5.941 5.941 0 01-.154-.892v-.461c.03-.317.08-.611.15-.884a2.97 2.97 0 01.28-.707 1.33 1.33 0 01.427-.47c.173-.115.376-.172.61-.172.27 0 .502.05.695.15.194.096.352.241.475.435.126.193.218.435.277.725a4.8 4.8 0 01.092.997zm-1.226.312v-.312c0-.22-.009-.408-.027-.566a1.347 1.347 0 00-.096-.396.508.508 0 00-.202-.237.636.636 0 00-.339-.08.616.616 0 00-.316.075.625.625 0 00-.22.211c-.059.091-.102.2-.132.325-.026.123-.04.26-.044.41v.83c.003.202.028.38.075.536a.725.725 0 00.224.36.653.653 0 00.422.128.69.69 0 00.334-.07.467.467 0 00.198-.225c.05-.102.082-.234.096-.395.018-.164.027-.362.027-.594zm3.274-2.53V23h-1.235v-4.755h1.235zm-1.292-1.231c0-.19.06-.348.18-.47a.657.657 0 01.492-.19c.208 0 .372.064.492.19.12.122.18.28.18.47a.647.647 0 01-.184.47.645.645 0 01-.483.184.671.671 0 01-.497-.184.655.655 0 01-.18-.47zm4.183 6.073c-.325 0-.613-.05-.865-.15-.25-.1-.46-.243-.633-.43a1.926 1.926 0 01-.396-.69 2.886 2.886 0 01-.136-.923v-.391c0-.387.044-.725.132-1.015.088-.293.212-.54.373-.739.162-.199.36-.347.594-.443.237-.1.505-.15.804-.15.299 0 .56.05.787.15.228.096.417.243.566.44.15.192.263.433.339.72.076.287.114.62.114 1.002v.562h-3.186v-.865h1.978v-.11c0-.194-.021-.355-.062-.484a.555.555 0 00-.193-.294.582.582 0 00-.352-.097.608.608 0 00-.312.075.514.514 0 00-.202.233 1.44 1.44 0 00-.11.413 4.4 4.4 0 00-.035.602v.391c0 .22.019.404.057.554a.979.979 0 00.167.36c.076.09.168.157.277.198.108.038.234.057.378.057a1.346 1.346 0 001.033-.435l.492.747a1.766 1.766 0 01-.352.334 1.92 1.92 0 01-.536.272 2.25 2.25 0 01-.72.106zm4.465-4.843v.927h-2.426v-.927h2.426zm-1.867-1.173h1.226v4.478c0 .132.013.233.04.303a.27.27 0 00.118.15c.055.026.129.039.22.039a.837.837 0 00.29-.035v.962c-.097.038-.2.068-.308.088-.105.02-.231.03-.378.03-.246 0-.46-.046-.642-.14a.96.96 0 01-.417-.448c-.1-.208-.15-.48-.15-.817v-4.61zm4.469 6.016c-.326 0-.614-.05-.866-.15-.249-.1-.46-.243-.633-.43a1.927 1.927 0 01-.395-.69 2.886 2.886 0 01-.136-.923v-.391c0-.387.043-.725.131-1.015.088-.293.213-.54.374-.739.161-.199.359-.347.593-.443.237-.1.505-.15.804-.15.3 0 .561.05.787.15.228.096.417.243.567.44.15.192.262.433.338.72.076.287.114.62.114 1.002v.562h-3.186v-.865h1.978v-.11c0-.194-.02-.355-.062-.484a.555.555 0 00-.193-.294.582.582 0 00-.352-.097.608.608 0 00-.312.075.513.513 0 00-.202.233c-.05.105-.086.243-.11.413a4.415 4.415 0 00-.035.602v.391c0 .22.02.404.057.554a.977.977 0 00.168.36c.076.09.168.157.276.198.109.038.235.057.378.057a1.347 1.347 0 001.033-.435l.492.747a1.766 1.766 0 01-.351.334c-.15.111-.328.202-.537.272a2.25 2.25 0 01-.72.106zm3.62-3.784V23h-1.23v-4.755h1.16l.07 1.06zm1.121-1.094l-.017 1.226a2.649 2.649 0 00-.404-.035.847.847 0 00-.352.066.586.586 0 00-.242.189.877.877 0 00-.14.307 1.94 1.94 0 00-.057.418l-.233-.088c0-.31.023-.595.07-.853.05-.26.123-.486.22-.676.096-.194.212-.343.347-.449a.747.747 0 01.466-.158c.058 0 .12.006.184.018.068.009.12.02.158.035zm-.026 4.162c0-.194.065-.355.193-.484.13-.132.304-.198.523-.198.22 0 .394.066.523.198.13.13.194.29.194.484a.656.656 0 01-.194.483c-.129.129-.303.193-.523.193-.22 0-.394-.064-.523-.193a.656.656 0 01-.193-.483zm7.62-.99c0-.319-.086-.563-.26-.733-.172-.17-.484-.335-.935-.497-.451-.16-.797-.33-1.037-.505a1.858 1.858 0 01-.536-.606 1.69 1.69 0 01-.176-.783c0-.506.168-.924.505-1.252.34-.328.784-.492 1.332-.492.375 0 .709.085 1.002.255.293.167.518.4.676.698.159.3.238.627.238.985h-.809c0-.396-.095-.702-.285-.919-.19-.217-.465-.325-.822-.325-.325 0-.577.09-.756.273-.179.181-.268.436-.268.764 0 .27.096.495.29.677.193.181.492.344.896.488.63.208 1.08.464 1.35.769.272.304.408.703.408 1.195 0 .519-.168.935-.505 1.248-.337.31-.796.466-1.376.466-.372 0-.716-.08-1.032-.242a1.884 1.884 0 01-.743-.685 1.924 1.924 0 01-.268-1.016h.809c0 .396.11.704.329.923.223.22.525.33.905.33.355 0 .621-.09.8-.273.179-.181.268-.429.268-.742zM51.698 23h-.778v-4.755h.778V23zm.061-6.016a.497.497 0 01-.11.33c-.073.087-.184.131-.334.131-.146 0-.256-.044-.33-.131a.498.498 0 01-.109-.33c0-.132.037-.243.11-.334.073-.09.183-.136.33-.136.146 0 .256.047.329.14.076.091.114.201.114.33zm2.865 6.104c-.591 0-1.045-.176-1.362-.527-.316-.355-.477-.873-.483-1.556v-.576c0-.709.154-1.264.461-1.665.31-.405.743-.607 1.297-.607.556 0 .972.177 1.248.532.275.355.416.907.422 1.657v.51h-2.655v.11c0 .51.096.88.286 1.111.193.232.47.347.83.347.229 0 .43-.042.602-.127.176-.088.34-.226.493-.413l.404.492c-.337.475-.851.712-1.543.712zm-.087-4.263c-.323 0-.561.111-.717.334-.155.22-.243.563-.263 1.029h1.872v-.106c-.02-.451-.103-.773-.246-.967-.141-.193-.356-.29-.646-.29zm6.983 2.958a.575.575 0 00-.19-.43c-.125-.121-.369-.262-.729-.423-.419-.173-.715-.32-.888-.444a1.278 1.278 0 01-.382-.417 1.172 1.172 0 01-.127-.563c0-.386.14-.707.422-.962.284-.258.646-.387 1.085-.387.463 0 .835.135 1.116.404.281.27.422.616.422 1.038h-.773a.758.758 0 00-.216-.545.722.722 0 00-.55-.229c-.228 0-.408.06-.54.18a.61.61 0 00-.193.475c0 .158.047.286.14.382.097.097.327.224.69.383.578.225.97.446 1.178.663.208.214.312.486.312.818 0 .413-.142.744-.426.993-.284.246-.665.369-1.143.369-.495 0-.896-.142-1.204-.426a1.408 1.408 0 01-.461-1.081h.782c.009.263.09.47.242.62.152.149.366.223.641.223.258 0 .455-.057.59-.171a.592.592 0 00.202-.47zm1.63-1.38c0-.692.167-1.238.5-1.64.338-.404.782-.606 1.332-.606.551 0 .994.197 1.328.59.337.392.51.926.518 1.603v.501c0 .689-.167 1.233-.5 1.635-.335.401-.78.602-1.337.602-.55 0-.993-.195-1.327-.585-.331-.39-.502-.917-.514-1.582v-.518zm.778.448c0 .49.095.875.285 1.156a.902.902 0 00.778.417c.686 0 1.039-.495 1.06-1.485v-.536c0-.486-.097-.87-.29-1.151-.194-.285-.453-.427-.779-.427-.319 0-.575.142-.769.427-.19.28-.285.663-.285 1.146v.453zM68.669 23h-.777v-6.75h.777V23zm2.066 0h-.778v-6.75h.778V23zm2.246-5.906v1.151h.716v.628h-.716v2.95c0 .187.03.329.092.425.061.097.167.146.316.146a.982.982 0 00.312-.053l-.009.659a1.698 1.698 0 01-.54.088c-.308 0-.542-.11-.703-.33-.161-.22-.242-.53-.242-.931v-2.954h-.725v-.628h.725v-1.151h.774zm3.344 5.994c-.592 0-1.046-.176-1.363-.527-.316-.355-.477-.873-.483-1.556v-.576c0-.709.154-1.264.461-1.665.311-.405.743-.607 1.297-.607.556 0 .973.177 1.248.532.275.355.416.907.422 1.657v.51h-2.655v.11c0 .51.096.88.286 1.111.193.232.47.347.83.347.23 0 .43-.042.603-.127a1.52 1.52 0 00.492-.413l.404.492c-.337.475-.85.712-1.542.712zm-.088-4.263c-.322 0-.561.111-.716.334-.156.22-.244.563-.264 1.029h1.872v-.106c-.02-.451-.103-.773-.246-.967-.14-.193-.356-.29-.646-.29zm3.34-.58l.022.514c.301-.401.687-.602 1.155-.602.841 0 1.267.561 1.28 1.683V23h-.774v-3.125c0-.372-.063-.635-.19-.79-.122-.159-.308-.238-.557-.238a.798.798 0 00-.523.194 1.406 1.406 0 00-.37.505V23h-.777v-4.755h.734zm8.116 4.337c-.257.337-.634.506-1.129.506-.43 0-.756-.148-.976-.444-.22-.299-.33-.732-.334-1.3v-3.099h.774v3.041c0 .741.222 1.112.668 1.112.472 0 .797-.211.975-.633v-3.52h.778V23h-.738l-.018-.418zm-2.25-5.607c0-.132.04-.242.119-.33.082-.09.202-.136.36-.136.159 0 .279.046.36.136a.465.465 0 01.124.33.465.465 0 01-.123.33c-.082.088-.202.131-.36.131-.159 0-.279-.043-.361-.131a.474.474 0 01-.119-.33zm1.89.009a.49.49 0 01.119-.334c.082-.09.202-.136.36-.136.158 0 .278.045.36.136a.48.48 0 01.123.334.465.465 0 01-.123.33c-.082.087-.202.131-.36.131-.158 0-.278-.044-.36-.131a.474.474 0 01-.119-.33zm5.73 3.867c0 .741-.133 1.3-.4 1.674-.266.375-.653.563-1.16.563-.504 0-.881-.217-1.133-.65l-.04.562h-.707v-6.75h.773v2.518c.255-.407.621-.61 1.099-.61.521 0 .912.184 1.173.553.26.37.392.926.395 1.67v.47zm-.773-.444c0-.562-.08-.962-.237-1.2-.156-.24-.409-.36-.76-.36-.402 0-.7.217-.897.65v2.264c.193.428.495.641.905.641.352 0 .604-.123.756-.369.153-.246.23-.628.233-1.147v-.479zm3.467 2.68c-.592 0-1.046-.175-1.362-.526-.316-.355-.477-.873-.483-1.556v-.576c0-.709.153-1.264.461-1.665.31-.405.743-.607 1.296-.607.557 0 .973.177 1.249.532.275.355.415.907.421 1.657v.51h-2.654v.11c0 .51.095.88.286 1.111.193.232.47.347.83.347.229 0 .43-.042.602-.127.176-.088.34-.226.492-.413l.405.492c-.337.475-.851.712-1.543.712zm-.088-4.262c-.322 0-.56.111-.716.334-.155.22-.243.563-.264 1.029h1.873v-.106c-.021-.451-.103-.773-.247-.967-.14-.193-.355-.29-.646-.29zm4.571.15a1.902 1.902 0 00-.352-.031c-.398 0-.677.218-.835.655V23h-.778v-4.755h.756l.013.483c.208-.38.503-.57.884-.57.123 0 .225.02.307.06l.005.757zM101.857 23h-.778v-6.75h.778V23zm2.927.088c-.592 0-1.046-.176-1.363-.527-.316-.355-.477-.873-.483-1.556v-.576c0-.709.154-1.264.461-1.665.311-.405.743-.607 1.297-.607.556 0 .972.177 1.248.532.275.355.416.907.422 1.657v.51h-2.655v.11c0 .51.096.88.286 1.111.193.232.47.347.831.347.228 0 .429-.042.602-.127.175-.088.34-.226.492-.413l.404.492c-.337.475-.851.712-1.542.712zm-.088-4.263c-.322 0-.561.111-.717.334-.155.22-.243.563-.263 1.029h1.872v-.106c-.021-.451-.103-.773-.246-.967-.141-.193-.356-.29-.646-.29zm2.452 1.582c0-.741.135-1.3.404-1.678.27-.381.664-.572 1.182-.572.484 0 .851.207 1.103.62l.04-.532h.703v4.799c0 .589-.151 1.04-.453 1.354-.301.316-.722.474-1.261.474a2.16 2.16 0 01-.791-.176c-.29-.114-.508-.256-.655-.426l.317-.536c.322.316.678.474 1.068.474.647 0 .98-.352.997-1.059v-.62c-.252.373-.609.559-1.072.559-.492 0-.876-.185-1.151-.554-.276-.372-.419-.905-.431-1.6v-.527zm.778.444c0 .533.077.926.233 1.178.158.249.416.373.773.373.387 0 .677-.197.87-.593v-2.377c-.202-.39-.489-.585-.861-.585-.358 0-.615.126-.774.378-.158.25-.238.633-.241 1.151v.475zm5.515 2.237c-.592 0-1.046-.176-1.362-.527-.317-.355-.478-.873-.484-1.556v-.576c0-.709.154-1.264.462-1.665.31-.405.742-.607 1.296-.607.557 0 .973.177 1.248.532.275.355.416.907.422 1.657v.51h-2.654v.11c0 .51.095.88.285 1.111.194.232.471.347.831.347.228 0 .429-.042.602-.127.176-.088.34-.226.492-.413l.404.492c-.337.475-.851.712-1.542.712zm-.088-4.263c-.322 0-.561.111-.716.334-.156.22-.243.563-.264 1.029h1.872v-.106c-.02-.451-.102-.773-.246-.967-.141-.193-.356-.29-.646-.29zm3.34-.58l.022.514c.302-.401.687-.602 1.156-.602.84 0 1.267.561 1.278 1.683V23h-.773v-3.125c0-.372-.063-.635-.189-.79-.123-.159-.309-.238-.558-.238a.798.798 0 00-.523.194 1.412 1.412 0 00-.369.505V23h-.778v-4.755h.734zm3.634 6.03l-.461-.317c.275-.384.419-.78.43-1.186v-.734h.796v.637c0 .296-.073.592-.22.887a2.046 2.046 0 01-.545.712zm3.661-3.872c0-.692.167-1.238.501-1.64.337-.404.781-.606 1.331-.606.551 0 .993.197 1.327.59.337.392.51.926.519 1.603v.501c0 .689-.167 1.233-.501 1.635-.334.401-.779.602-1.336.602-.551 0-.993-.195-1.327-.585-.331-.39-.502-.917-.514-1.582v-.518zm.778.448c0 .49.095.875.285 1.156.194.278.453.417.778.417.686 0 1.039-.495 1.059-1.485v-.536c0-.486-.096-.87-.29-1.151-.193-.285-.452-.427-.778-.427-.319 0-.575.142-.769.427-.19.28-.285.663-.285 1.146v.453zm7.347 0c0 .741-.133 1.3-.4 1.674-.266.375-.653.563-1.16.563-.504 0-.882-.217-1.134-.65l-.039.562h-.708v-6.75h.774v2.518c.255-.407.621-.61 1.098-.61.522 0 .913.184 1.174.553.261.37.392.926.395 1.67v.47zm-.773-.444c0-.562-.079-.962-.237-1.2-.156-.24-.409-.36-.761-.36-.401 0-.7.217-.896.65v2.264c.193.428.495.641.905.641.352 0 .604-.123.756-.369.152-.246.23-.628.233-1.147v-.479zm6.737.976c0-.32-.087-.564-.26-.734-.172-.17-.484-.335-.936-.497-.451-.16-.797-.33-1.037-.505a1.859 1.859 0 01-.536-.606 1.692 1.692 0 01-.176-.783c0-.506.169-.924.506-1.252.34-.328.783-.492 1.331-.492.375 0 .709.085 1.002.255.293.167.519.4.677.698.158.3.237.627.237.985h-.808c0-.396-.096-.702-.286-.919-.19-.217-.464-.325-.822-.325-.325 0-.577.09-.756.273-.178.181-.268.436-.268.764 0 .27.097.495.29.677.194.181.493.344.897.488.63.208 1.079.464 1.349.769.272.304.409.703.409 1.195 0 .519-.169.935-.506 1.248-.337.31-.795.466-1.375.466-.372 0-.717-.08-1.033-.242a1.89 1.89 0 01-.743-.685 1.93 1.93 0 01-.268-1.016h.809c0 .396.11.704.33.923.222.22.524.33.905.33.354 0 .621-.09.8-.273.178-.181.268-.429.268-.742zM140.678 23h-.778v-4.755h.778V23zm.062-6.016a.499.499 0 01-.11.33c-.073.087-.185.131-.334.131-.147 0-.256-.044-.33-.131a.499.499 0 01-.11-.33c0-.132.037-.243.11-.334.074-.09.183-.136.33-.136.146 0 .256.047.329.14.077.091.115.201.115.33zm2.865 6.104c-.592 0-1.046-.176-1.362-.527-.317-.355-.478-.873-.484-1.556v-.576c0-.709.154-1.264.462-1.665.31-.405.742-.607 1.296-.607.557 0 .973.177 1.248.532.276.355.416.907.422 1.657v.51h-2.654v.11c0 .51.095.88.285 1.111.194.232.471.347.831.347.228 0 .429-.042.602-.127.176-.088.34-.226.492-.413l.404.492c-.336.475-.851.712-1.542.712zm-.088-4.263c-.322 0-.561.111-.716.334-.155.22-.243.563-.264 1.029h1.872v-.106c-.02-.451-.102-.773-.246-.967-.141-.193-.356-.29-.646-.29zm6.021 2.993l.9-3.573h.791L149.819 23h-.58l-1.428-4.755h.791l.936 3.573zm4.201 1.27c-.592 0-1.046-.176-1.363-.527-.316-.355-.477-.873-.483-1.556v-.576c0-.709.154-1.264.461-1.665.311-.405.743-.607 1.297-.607.557 0 .973.177 1.248.532.275.355.416.907.422 1.657v.51h-2.654v.11c0 .51.095.88.285 1.111.194.232.47.347.831.347.228 0 .429-.042.602-.127.176-.088.34-.226.492-.413l.404.492c-.337.475-.851.712-1.542.712zm-.088-4.263c-.322 0-.561.111-.716.334-.156.22-.244.563-.264 1.029h1.872v-.106c-.021-.451-.103-.773-.246-.967-.141-.193-.356-.29-.646-.29zm4.57.15a1.883 1.883 0 00-.351-.031c-.399 0-.677.218-.835.655V23h-.778v-4.755h.756l.013.483c.208-.38.502-.57.883-.57.123 0 .226.02.308.06l.004.757zm3.09 2.808a.574.574 0 00-.189-.43c-.126-.121-.37-.262-.73-.423-.419-.173-.715-.32-.888-.444a1.276 1.276 0 01-.382-.417 1.172 1.172 0 01-.127-.563c0-.386.14-.707.422-.962.284-.258.645-.387 1.085-.387.463 0 .835.135 1.116.404.281.27.422.616.422 1.038h-.773a.756.756 0 00-.216-.545.72.72 0 00-.549-.229c-.229 0-.409.06-.541.18a.613.613 0 00-.193.475c0 .158.047.286.141.382.096.097.326.224.69.383.577.225.969.446 1.177.663.208.214.312.486.312.818 0 .413-.142.744-.426.993-.284.246-.665.369-1.142.369-.496 0-.897-.142-1.205-.426a1.41 1.41 0 01-.461-1.081h.782c.009.263.09.47.242.62.152.149.366.223.642.223.257 0 .454-.057.588-.171a.592.592 0 00.203-.47zm2.812-4.69v1.152h.716v.628h-.716v2.95c0 .187.031.329.092.425.062.097.167.146.317.146a.986.986 0 00.312-.053l-.009.659a1.7 1.7 0 01-.541.088c-.307 0-.542-.11-.703-.33-.161-.22-.241-.53-.241-.931v-2.954h-.725v-.628h.725v-1.151h.773zm3.344 5.995c-.592 0-1.046-.176-1.362-.527-.316-.355-.478-.873-.483-1.556v-.576c0-.709.153-1.264.461-1.665.311-.405.743-.607 1.296-.607.557 0 .973.177 1.248.532.276.355.416.907.422 1.657v.51h-2.654v.11c0 .51.095.88.286 1.111.193.232.47.347.83.347.229 0 .429-.042.602-.127.176-.088.34-.226.492-.413l.405.492c-.337.475-.851.712-1.543.712zm-.088-4.263c-.322 0-.561.111-.716.334-.155.22-.243.563-.264 1.029h1.872v-.106c-.02-.451-.102-.773-.246-.967-.14-.193-.356-.29-.646-.29zm3.384-.092c.296-.384.674-.576 1.134-.576.841 0 1.267.561 1.279 1.683V23h-.774v-3.125c0-.372-.063-.635-.189-.79-.123-.159-.309-.238-.558-.238a.8.8 0 00-.523.194 1.412 1.412 0 00-.369.505V23h-.778v-6.75h.778v2.483zm5.274 4.355c-.592 0-1.046-.176-1.363-.527-.316-.355-.477-.873-.483-1.556v-.576c0-.709.154-1.264.461-1.665.311-.405.743-.607 1.297-.607.556 0 .972.177 1.248.532.275.355.416.907.422 1.657v.51h-2.655v.11c0 .51.096.88.286 1.111.193.232.47.347.831.347.228 0 .429-.042.602-.127.175-.088.339-.226.492-.413l.404.492c-.337.475-.851.712-1.542.712zm-.088-4.263c-.323 0-.561.111-.717.334-.155.22-.243.563-.263 1.029h1.872v-.106c-.021-.451-.103-.773-.246-.967-.141-.193-.356-.29-.646-.29zm3.34-.58l.022.514c.301-.401.687-.602 1.155-.602.841 0 1.267.561 1.279 1.683V23h-.773v-3.125c0-.372-.063-.635-.189-.79-.123-.159-.309-.238-.558-.238a.796.796 0 00-.523.194 1.389 1.389 0 00-.369.505V23h-.778v-4.755h.734zm3.634 6.03l-.462-.317c.276-.384.419-.78.431-1.186v-.734h.796v.637c0 .296-.074.592-.22.887a2.058 2.058 0 01-.545.712zm7.369-2.642l.721-3.388h.769L190.618 23h-.62l-.927-3.401-.905 3.401h-.624l-1.156-4.755h.764l.739 3.305.883-3.305h.615l.905 3.388zM193.439 23h-.778v-4.755h.778V23zm.061-6.016a.498.498 0 01-.109.33c-.074.087-.185.131-.334.131-.147 0-.257-.044-.33-.131a.499.499 0 01-.11-.33c0-.132.037-.243.11-.334.073-.09.183-.136.33-.136.146 0 .256.047.329.14.076.091.114.201.114.33zm2.866 6.104c-.592 0-1.046-.176-1.363-.527-.316-.355-.477-.873-.483-1.556v-.576c0-.709.154-1.264.461-1.665.311-.405.743-.607 1.297-.607.556 0 .972.177 1.248.532.275.355.416.907.422 1.657v.51h-2.655v.11c0 .51.096.88.286 1.111.193.232.47.347.831.347.228 0 .429-.042.602-.127.176-.088.34-.226.492-.413l.404.492c-.337.475-.851.712-1.542.712zm-.088-4.263c-.322 0-.561.111-.716.334-.156.22-.244.563-.264 1.029h1.872v-.106c-.021-.451-.103-.773-.246-.967-.141-.193-.356-.29-.646-.29zm8.793 2.145c-.035.685-.228 1.21-.58 1.573-.348.363-.842.545-1.481.545-.641 0-1.151-.243-1.529-.73-.378-.489-.567-1.151-.567-1.986v-1.16c0-.832.193-1.49.58-1.973.39-.484.92-.725 1.591-.725.618 0 1.096.186 1.433.558.339.369.524.898.553 1.586h-.813c-.035-.521-.145-.893-.329-1.116-.185-.223-.466-.334-.844-.334-.437 0-.772.171-1.006.514-.235.34-.352.84-.352 1.499v1.173c0 .648.108 1.144.325 1.49.22.346.539.518.958.518.419 0 .721-.104.906-.312.184-.208.298-.581.342-1.12h.813zm4.061-.796h-2.162V23h-.804v-6.398h3.331v.694h-2.527v2.188h2.162v.69zM210.49 23v-6.398h1.525c.747 0 1.327.234 1.74.703.413.465.62 1.122.62 1.968v1.073c0 .846-.21 1.501-.629 1.964-.419.46-1.027.69-1.824.69h-1.432zm.804-5.704v5.014h.646c.565 0 .978-.161 1.239-.483.261-.326.394-.806.4-1.442v-1.134c0-.673-.13-1.167-.391-1.48-.258-.317-.649-.475-1.173-.475h-.721zm6.539 4.487a.574.574 0 00-.189-.43c-.126-.121-.369-.262-.729-.423-.419-.173-.715-.32-.888-.444a1.266 1.266 0 01-.382-.417 1.172 1.172 0 01-.128-.563c0-.386.141-.707.422-.962.284-.258.646-.387 1.085-.387.463 0 .835.135 1.117.404.281.27.421.616.421 1.038h-.773a.76.76 0 00-.215-.545.723.723 0 00-.55-.229c-.228 0-.408.06-.54.18a.61.61 0 00-.193.475c0 .158.046.286.14.382.097.097.327.224.69.383.577.225.97.446 1.178.663.208.214.312.486.312.818 0 .413-.142.744-.426.993-.285.246-.665.369-1.143.369-.495 0-.896-.142-1.204-.426a1.407 1.407 0 01-.462-1.081h.783c.008.263.089.47.241.62.153.149.367.223.642.223.258 0 .454-.057.589-.171a.591.591 0 00.202-.47zM222.034 23v-4.127h-.619v-.628h.619v-.55c.009-.483.131-.86.365-1.129.237-.272.571-.408 1.002-.408.155 0 .312.025.47.074l-.039.66a1.544 1.544 0 00-.356-.04c-.443 0-.664.315-.664.945v.448h.813v.628h-.813V23h-.778zm4.931-.418c-.258.337-.634.506-1.13.506-.43 0-.755-.148-.975-.444-.22-.299-.331-.732-.334-1.3v-3.099h.773v3.041c0 .741.223 1.112.668 1.112.472 0 .797-.211.976-.633v-3.52h.778V23h-.739l-.017-.418zm2.659-4.337l.022.514c.301-.401.687-.602 1.155-.602.841 0 1.267.561 1.279 1.683V23h-.773v-3.125c0-.372-.063-.635-.189-.79-.123-.159-.309-.238-.558-.238a.796.796 0 00-.523.194 1.402 1.402 0 00-.37.505V23h-.777v-4.755h.734zm4.82 2.58l-.413.474V23h-.778v-6.75h.778v4.039l1.481-2.044h.932l-1.512 1.986 1.71 2.769h-.906l-1.292-2.175zm3.885-3.731v1.151h.716v.628h-.716v2.95c0 .187.031.329.092.425.062.097.167.146.317.146a.986.986 0 00.312-.053l-.009.659a1.7 1.7 0 01-.541.088c-.307 0-.542-.11-.703-.33-.161-.22-.241-.53-.241-.931v-2.954h-.725v-.628h.725v-1.151h.773zM240.812 23h-.778v-4.755h.778V23zm.062-6.016a.499.499 0 01-.11.33c-.074.087-.185.131-.334.131-.147 0-.257-.044-.33-.131a.499.499 0 01-.11-.33c0-.132.037-.243.11-.334.073-.09.183-.136.33-.136.146 0 .256.047.329.14.076.091.115.201.115.33zm1.001 3.419c0-.692.167-1.238.501-1.64.337-.404.781-.606 1.332-.606s.993.197 1.327.59c.337.392.51.926.519 1.603v.501c0 .689-.167 1.233-.501 1.635-.334.401-.78.602-1.336.602-.551 0-.993-.195-1.327-.585-.331-.39-.503-.917-.515-1.582v-.518zm.778.448c0 .49.096.875.286 1.156a.902.902 0 00.778.417c.685 0 1.038-.495 1.059-1.485v-.536c0-.486-.097-.87-.29-1.151-.194-.285-.453-.427-.778-.427-.319 0-.576.142-.769.427-.19.28-.286.663-.286 1.146v.453zm4.637-2.606l.022.514c.301-.401.687-.602 1.155-.602.841 0 1.267.561 1.279 1.683V23h-.773v-3.125c0-.372-.063-.635-.189-.79-.123-.159-.309-.238-.558-.238a.796.796 0 00-.523.194 1.402 1.402 0 00-.37.505V23h-.777v-4.755h.734zM251.754 23h-.777v-4.755h.777V23zm.062-6.016a.499.499 0 01-.11.33c-.073.087-.185.131-.334.131-.146 0-.256-.044-.33-.131a.498.498 0 01-.109-.33c0-.132.036-.243.109-.334.074-.09.184-.136.33-.136.147 0 .256.047.33.14.076.091.114.201.114.33zm2.865 6.104c-.592 0-1.046-.176-1.362-.527-.317-.355-.478-.873-.484-1.556v-.576c0-.709.154-1.264.462-1.665.31-.405.743-.607 1.296-.607.557 0 .973.177 1.248.532.276.355.416.907.422 1.657v.51h-2.654v.11c0 .51.095.88.286 1.111.193.232.47.347.83.347.229 0 .429-.042.602-.127.176-.088.34-.226.492-.413l.405.492c-.337.475-.851.712-1.543.712zm-.088-4.263c-.322 0-.561.111-.716.334-.155.22-.243.563-.264 1.029h1.872v-.106c-.02-.451-.102-.773-.246-.967-.14-.193-.356-.29-.646-.29zm4.571.15a1.902 1.902 0 00-.352-.031c-.398 0-.677.218-.835.655V23h-.778v-4.755h.756l.013.483c.208-.38.503-.57.884-.57a.68.68 0 01.307.06l.005.757zm2.478 4.113c-.592 0-1.046-.176-1.362-.527-.317-.355-.478-.873-.484-1.556v-.576c0-.709.154-1.264.462-1.665.31-.405.742-.607 1.296-.607.557 0 .973.177 1.248.532.276.355.416.907.422 1.657v.51h-2.654v.11c0 .51.095.88.285 1.111.194.232.471.347.831.347.229 0 .429-.042.602-.127.176-.088.34-.226.492-.413l.405.492c-.337.475-.852.712-1.543.712zm-.088-4.263c-.322 0-.561.111-.716.334-.155.22-.243.563-.264 1.029h1.872v-.106c-.02-.451-.102-.773-.246-.967-.14-.193-.356-.29-.646-.29zm3.34-.58l.022.514c.302-.401.687-.602 1.156-.602.841 0 1.267.561 1.279 1.683V23h-.774v-3.125c0-.372-.063-.635-.189-.79-.123-.159-.309-.238-.558-.238a.798.798 0 00-.523.194 1.412 1.412 0 00-.369.505V23h-.778v-4.755h.734zm3.634 6.03l-.461-.317c.275-.384.419-.78.431-1.186v-.734h.795v.637c0 .296-.073.592-.22.887a2.046 2.046 0 01-.545.712zm6.249-1.692c-.257.336-.634.505-1.129.505-.431 0-.756-.148-.976-.444-.219-.299-.331-.732-.334-1.3v-3.099h.774v3.041c0 .741.222 1.112.668 1.112.471 0 .797-.211.975-.633v-3.52h.778V23h-.738l-.018-.418zm2.659-4.338l.022.514c.302-.401.687-.602 1.156-.602.841 0 1.267.561 1.279 1.683V23h-.774v-3.125c0-.372-.063-.635-.189-.79-.123-.159-.309-.238-.558-.238a.798.798 0 00-.523.194 1.412 1.412 0 00-.369.505V23h-.778v-4.755h.734zm3.463 2.162c0-.732.136-1.29.409-1.674.275-.384.669-.576 1.182-.576.454 0 .808.185 1.063.554V16.25h.778V23h-.712l-.039-.51c-.255.399-.62.598-1.095.598-.492 0-.879-.19-1.16-.571-.278-.384-.42-.925-.426-1.622v-.488zm.778.444c0 .533.079.926.237 1.178.158.249.416.373.774.373.386 0 .675-.195.865-.584v-2.4c-.199-.38-.486-.57-.861-.57-.358 0-.615.125-.774.377-.158.25-.238.633-.241 1.151v.475zm-270.26 9.552c0-.692.168-1.238.502-1.64.336-.404.78-.606 1.331-.606.55 0 .993.197 1.327.59.337.392.51.926.519 1.603v.501c0 .689-.167 1.233-.501 1.635-.334.401-.78.602-1.336.602-.551 0-.993-.195-1.327-.585-.331-.39-.503-.917-.514-1.582v-.518zm.778.448c0 .49.095.875.286 1.156a.902.902 0 00.778.417c.685 0 1.038-.495 1.059-1.485v-.536c0-.486-.097-.87-.29-1.151-.194-.285-.453-.427-.778-.427-.32 0-.576.142-.769.427-.19.28-.286.663-.286 1.146v.453zm7.348 0c0 .741-.133 1.3-.4 1.674-.267.375-.653.563-1.16.563-.504 0-.882-.217-1.134-.65l-.04.562h-.707v-6.75h.773v2.518c.255-.407.622-.61 1.1-.61.52 0 .912.184 1.172.553.261.37.393.926.396 1.67v.47zm-.773-.444c0-.562-.08-.962-.238-1.2-.155-.24-.409-.36-.76-.36-.401 0-.7.217-.896.65v2.264c.193.427.495.641.905.641.351 0 .603-.123.756-.369.152-.246.23-.628.233-1.147v-.479zm6.736.976c0-.32-.086-.564-.259-.734-.173-.17-.485-.335-.936-.497-.451-.16-.797-.33-1.037-.505a1.857 1.857 0 01-.536-.606 1.69 1.69 0 01-.176-.783c0-.506.168-.924.505-1.252.34-.328.784-.492 1.332-.492.375 0 .709.085 1.002.255.293.167.518.4.677.698.158.3.237.627.237.985h-.809c0-.396-.095-.702-.285-.919-.19-.217-.465-.325-.822-.325-.325 0-.577.09-.756.273-.179.181-.268.436-.268.764 0 .27.097.495.29.677.193.181.492.344.896.488.63.208 1.08.464 1.35.769.272.304.408.703.408 1.195 0 .519-.168.935-.505 1.248-.337.31-.795.466-1.375.466-.373 0-.717-.08-1.033-.242a1.883 1.883 0 01-.743-.685 1.925 1.925 0 01-.268-1.016h.809c0 .396.11.704.33.923.222.22.524.33.905.33.354 0 .62-.09.8-.273.178-.181.267-.429.267-.742zM28.108 33h-.778v-4.755h.778V33zm.061-6.016a.498.498 0 01-.11.33c-.073.087-.184.131-.333.131-.147 0-.257-.044-.33-.131a.498.498 0 01-.11-.33c0-.132.037-.243.11-.334.073-.09.183-.136.33-.136.146 0 .256.047.33.14.075.091.113.201.113.33zm2.866 6.104c-.592 0-1.046-.176-1.363-.528-.316-.354-.477-.873-.483-1.555v-.576c0-.709.154-1.264.461-1.665.31-.405.743-.607 1.297-.607.556 0 .972.177 1.248.532.275.355.416.907.422 1.657v.51h-2.655v.11c0 .51.096.88.286 1.111.193.232.47.347.83.347.23 0 .43-.042.603-.127a1.52 1.52 0 00.492-.413l.404.492c-.337.475-.85.712-1.542.712zm-.088-4.263c-.322 0-.561.111-.716.334-.156.22-.244.563-.264 1.029h1.872v-.106c-.02-.451-.103-.773-.246-.967-.14-.193-.356-.29-.646-.29zm6.372 4.263c-.592 0-1.046-.176-1.363-.528-.316-.354-.477-.873-.483-1.555v-.576c0-.709.154-1.264.462-1.665.31-.405.742-.607 1.296-.607.557 0 .973.177 1.248.532.275.355.416.907.422 1.657v.51h-2.654v.11c0 .51.095.88.285 1.111.194.232.47.347.83.347.23 0 .43-.042.603-.127.176-.088.34-.226.492-.413l.404.492c-.337.475-.85.712-1.542.712zm-.088-4.263c-.322 0-.561.111-.716.334-.156.22-.243.563-.264 1.029h1.872v-.106c-.02-.451-.102-.773-.246-.967-.14-.193-.356-.29-.646-.29zm4.917 2.958a.575.575 0 00-.189-.43c-.126-.121-.369-.262-.729-.423-.419-.173-.715-.32-.888-.444a1.278 1.278 0 01-.382-.417 1.172 1.172 0 01-.127-.563c0-.386.14-.707.421-.962.285-.258.646-.387 1.086-.387.463 0 .835.135 1.116.404.281.27.422.616.422 1.038h-.773a.758.758 0 00-.216-.545.722.722 0 00-.55-.229c-.228 0-.408.06-.54.18a.61.61 0 00-.193.475c0 .158.047.286.14.382.097.097.327.224.69.383.578.225.97.446 1.178.663.208.214.312.486.312.818 0 .413-.142.744-.426.993-.284.246-.665.369-1.143.369-.495 0-.896-.142-1.204-.426a1.408 1.408 0 01-.461-1.081h.782c.009.263.09.47.242.62.152.149.366.223.641.223.258 0 .455-.057.59-.171a.592.592 0 00.201-.47zm6.17 0a.574.574 0 00-.189-.43c-.126-.121-.369-.262-.73-.423-.418-.173-.714-.32-.887-.444a1.278 1.278 0 01-.382-.417 1.172 1.172 0 01-.128-.563c0-.386.141-.707.422-.962.285-.258.646-.387 1.086-.387.463 0 .835.135 1.116.404.281.27.422.616.422 1.038h-.774a.758.758 0 00-.215-.545.722.722 0 00-.55-.229c-.228 0-.408.06-.54.18a.61.61 0 00-.193.475c0 .158.047.286.14.382.097.097.327.224.69.383.578.225.97.446 1.178.663.208.214.312.486.312.818 0 .413-.142.744-.426.993-.284.246-.665.369-1.143.369-.495 0-.896-.142-1.204-.426a1.408 1.408 0 01-.461-1.081h.782c.009.263.09.47.242.62.152.149.366.223.641.223.258 0 .454-.057.59-.171a.592.592 0 00.201-.47zM50.951 33h-.778v-4.755h.778V33zm.061-6.016a.497.497 0 01-.11.33c-.073.087-.184.131-.334.131-.146 0-.256-.044-.33-.131a.497.497 0 01-.11-.33c0-.132.038-.243.11-.334.074-.09.184-.136.33-.136.147 0 .257.047.33.14.076.091.114.201.114.33zm2.817 5.44c.258 0 .465-.079.62-.237.155-.161.24-.39.255-.685h.733a1.62 1.62 0 01-.487 1.138 1.539 1.539 0 01-1.12.448c-.59 0-1.04-.185-1.35-.554-.308-.372-.461-.924-.461-1.657v-.522c0-.718.153-1.263.461-1.635.308-.375.756-.563 1.345-.563.486 0 .871.154 1.155.462.288.307.44.728.458 1.26h-.734c-.018-.35-.103-.614-.255-.79-.15-.176-.358-.264-.624-.264-.346 0-.602.114-.77.343-.166.226-.253.598-.259 1.116v.607c0 .56.082.955.246 1.186.167.232.43.347.787.347zm3.283-3.691c.296-.384.674-.576 1.134-.576.84 0 1.267.561 1.278 1.683V33h-.773v-3.125c0-.372-.063-.635-.189-.79-.123-.159-.31-.238-.558-.238a.797.797 0 00-.523.194 1.405 1.405 0 00-.37.505V33h-.777v-6.75h.778v2.483zM63.589 33h-.777v-6.75h.777V33zm2.927.088c-.592 0-1.046-.176-1.362-.528-.317-.354-.478-.873-.484-1.555v-.576c0-.709.154-1.264.462-1.665.31-.405.742-.607 1.296-.607.557 0 .973.177 1.248.532.276.355.416.907.422 1.657v.51h-2.654v.11c0 .51.095.88.285 1.111.194.232.47.347.831.347.229 0 .43-.042.602-.127.176-.088.34-.226.492-.413l.405.492c-.337.475-.852.712-1.543.712zm-.088-4.263c-.322 0-.56.111-.716.334-.155.22-.243.563-.264 1.029h1.872v-.106c-.02-.451-.102-.773-.246-.967-.14-.193-.356-.29-.646-.29zM69.874 33h-.778v-4.755h.778V33zm.061-6.016a.498.498 0 01-.11.33c-.073.087-.184.131-.334.131-.146 0-.256-.044-.33-.131a.498.498 0 01-.11-.33c0-.132.037-.243.11-.334.074-.09.184-.136.33-.136.147 0 .257.047.33.14.076.091.114.201.114.33zm3.476 4.799a.575.575 0 00-.189-.43c-.126-.121-.369-.262-.73-.423-.418-.173-.714-.32-.887-.444a1.278 1.278 0 01-.382-.417 1.172 1.172 0 01-.128-.563c0-.386.14-.707.422-.962.284-.258.646-.387 1.086-.387.462 0 .835.135 1.116.404.281.27.422.616.422 1.038h-.774a.758.758 0 00-.215-.545.722.722 0 00-.55-.229c-.228 0-.408.06-.54.18a.61.61 0 00-.193.475c0 .158.046.286.14.382.097.097.327.224.69.383.577.225.97.446 1.178.663.208.214.312.486.312.818 0 .413-.142.744-.426.993-.285.246-.665.369-1.143.369-.495 0-.896-.142-1.204-.426a1.408 1.408 0 01-.461-1.081h.782c.009.263.09.47.242.62.152.149.366.223.641.223.258 0 .454-.057.589-.171a.592.592 0 00.202-.47zm2.813-4.69v1.152h.716v.628h-.716v2.95c0 .187.03.329.092.425.061.097.167.146.316.146a.98.98 0 00.312-.053l-.008.659a1.698 1.698 0 01-.541.088c-.308 0-.542-.11-.703-.33-.161-.22-.242-.53-.242-.931v-2.954h-.725v-.628h.725v-1.151h.774zm3.344 5.995c-.592 0-1.046-.176-1.362-.528-.317-.354-.478-.873-.484-1.555v-.576c0-.709.154-1.264.462-1.665.31-.405.742-.607 1.296-.607.557 0 .973.177 1.248.532.275.355.416.907.422 1.657v.51h-2.654v.11c0 .51.095.88.285 1.111.194.232.47.347.83.347.23 0 .43-.042.603-.127a1.52 1.52 0 00.492-.413l.404.492c-.337.475-.85.712-1.542.712zm-.088-4.263c-.322 0-.561.111-.716.334-.156.22-.243.563-.264 1.029h1.872v-.106c-.02-.451-.103-.773-.246-.967-.14-.193-.356-.29-.646-.29zm3.34-.58l.022.514c.302-.401.687-.602 1.156-.602.84 0 1.267.561 1.278 1.683V33h-.773v-3.125c0-.372-.063-.635-.189-.79-.123-.159-.31-.238-.558-.238a.798.798 0 00-.523.194 1.405 1.405 0 00-.37.505V33h-.777v-4.755h.734zm6.886 2.58l-.413.474V33h-.778v-6.75h.778v4.039l1.48-2.044h.933l-1.512 1.986L91.904 33h-.906l-1.292-2.175zm2.703-.422c0-.692.167-1.238.5-1.64.338-.404.781-.606 1.332-.606s.993.197 1.327.59c.337.392.51.926.519 1.603v.501c0 .689-.167 1.233-.501 1.635-.334.401-.78.602-1.336.602-.55 0-.993-.195-1.327-.585-.331-.39-.503-.917-.514-1.582v-.518zm.777.448c0 .49.096.875.286 1.156a.902.902 0 00.778.417c.686 0 1.039-.495 1.06-1.485v-.536c0-.486-.098-.87-.291-1.151-.193-.285-.453-.427-.778-.427-.32 0-.576.142-.769.427-.19.28-.285.663-.285 1.146v.453zm-.395-3.876c0-.132.04-.242.119-.33.082-.09.202-.136.36-.136.158 0 .278.046.36.136a.465.465 0 01.123.33.465.465 0 01-.123.33c-.082.088-.202.131-.36.131-.158 0-.278-.043-.36-.131a.474.474 0 01-.119-.33zm1.89.009a.49.49 0 01.118-.334c.082-.09.202-.136.36-.136.159 0 .279.045.361.136a.48.48 0 01.123.334.464.464 0 01-.123.33c-.082.087-.202.131-.36.131-.159 0-.279-.044-.36-.131a.474.474 0 01-.12-.33zm3.142 1.261l.022.514c.302-.401.687-.602 1.156-.602.84 0 1.267.561 1.278 1.683V33h-.773v-3.125c0-.372-.063-.635-.19-.79-.122-.159-.308-.238-.557-.238a.798.798 0 00-.523.194 1.405 1.405 0 00-.37.505V33h-.777v-4.755h.734zm4.359 0l.022.514c.302-.401.687-.602 1.156-.602.841 0 1.267.561 1.279 1.683V33h-.774v-3.125c0-.372-.063-.635-.189-.79-.123-.159-.309-.238-.558-.238a.798.798 0 00-.523.194 1.412 1.412 0 00-.369.505V33h-.778v-4.755h.734zm5.326 4.843c-.591 0-1.046-.176-1.362-.528-.316-.354-.478-.873-.483-1.555v-.576c0-.709.153-1.264.461-1.665.311-.405.743-.607 1.296-.607.557 0 .973.177 1.248.532.276.355.416.907.422 1.657v.51h-2.654v.11c0 .51.095.88.286 1.111.193.232.47.347.83.347.229 0 .429-.042.602-.127.176-.088.34-.226.492-.413l.405.492c-.337.475-.851.712-1.543.712zm-.088-4.263c-.322 0-.561.111-.716.334-.155.22-.243.563-.264 1.029h1.872v-.106c-.02-.451-.102-.773-.246-.967-.14-.193-.356-.29-.646-.29zm3.34-.58l.022.514c.302-.401.687-.602 1.156-.602.841 0 1.267.561 1.279 1.683V33h-.774v-3.125c0-.372-.063-.635-.189-.79-.123-.159-.309-.238-.558-.238a.8.8 0 00-.523.194 1.412 1.412 0 00-.369.505V33h-.778v-4.755h.734zm3.635 6.03l-.462-.317c.275-.384.419-.78.431-1.186v-.734h.795v.637c0 .296-.073.592-.22.888a2.056 2.056 0 01-.544.711zm3.66-3.868c0-.732.136-1.29.409-1.674.275-.384.669-.576 1.182-.576.454 0 .809.185 1.063.554V26.25h.778V33h-.712l-.039-.51c-.255.399-.62.598-1.094.598-.493 0-.879-.19-1.161-.571-.278-.384-.42-.925-.426-1.622v-.488zm.778.444c0 .533.079.926.237 1.178.159.249.416.373.774.373.386 0 .675-.194.865-.584v-2.4c-.199-.38-.486-.57-.861-.57-.357 0-.615.125-.773.377-.158.25-.239.633-.242 1.151v.475zM125.13 33c-.047-.102-.08-.275-.101-.519-.275.405-.627.607-1.054.607-.431 0-.768-.12-1.011-.36-.24-.244-.36-.585-.36-1.024 0-.484.164-.868.492-1.152.328-.284.778-.429 1.349-.435h.571v-.505c0-.284-.063-.486-.189-.607-.126-.12-.318-.18-.576-.18a.791.791 0 00-.571.211.694.694 0 00-.22.527h-.777c0-.243.071-.474.215-.694.144-.223.337-.397.58-.523a1.74 1.74 0 01.813-.189c.486 0 .855.122 1.107.365.255.24.386.592.392 1.055v2.4c.002.365.052.683.149.953V33h-.809zm-1.037-.62c.191 0 .372-.052.545-.158a.974.974 0 00.378-.395v-1.134h-.439c-.369.006-.661.09-.875.25-.214.159-.321.381-.321.668 0 .27.055.466.163.59.108.12.291.18.549.18zm5.217-.597a.574.574 0 00-.189-.43c-.126-.121-.37-.262-.73-.423-.419-.173-.715-.32-.888-.444a1.276 1.276 0 01-.382-.417 1.172 1.172 0 01-.127-.563c0-.386.14-.707.422-.962.284-.258.646-.387 1.085-.387.463 0 .835.135 1.116.404.281.27.422.616.422 1.038h-.773a.756.756 0 00-.216-.545.72.72 0 00-.549-.229c-.229 0-.409.06-.541.18a.613.613 0 00-.193.475c0 .158.047.286.141.382.096.097.326.224.69.383.577.225.969.446 1.177.663.208.214.312.486.312.818 0 .413-.142.744-.426.993-.284.246-.665.369-1.142.369-.496 0-.897-.142-1.205-.426a1.41 1.41 0 01-.461-1.081h.782c.009.263.09.47.242.62.152.149.366.223.642.223.257 0 .454-.057.588-.171a.592.592 0 00.203-.47zm4.636-3.05c.296-.384.674-.576 1.134-.576.84 0 1.267.561 1.278 1.683V33h-.773v-3.125c0-.372-.063-.635-.189-.79-.123-.159-.309-.238-.558-.238a.798.798 0 00-.523.194 1.412 1.412 0 00-.369.505V33h-.778v-6.75h.778v2.483zm3.41 1.67c0-.692.167-1.238.501-1.64.337-.404.781-.606 1.331-.606.551 0 .994.197 1.328.59.337.392.509.926.518 1.603v.501c0 .689-.167 1.233-.501 1.635-.334.401-.779.602-1.336.602-.551 0-.993-.195-1.327-.585-.331-.39-.502-.917-.514-1.582v-.518zm.778.448c0 .49.095.875.285 1.156.194.278.453.417.778.417.686 0 1.039-.495 1.059-1.485v-.536c0-.486-.096-.87-.29-1.151-.193-.285-.452-.427-.778-.427-.319 0-.575.142-.769.427-.19.28-.285.663-.285 1.146v.453zm4.68-2.118c.296-.384.674-.576 1.134-.576.841 0 1.267.561 1.279 1.683V33h-.774v-3.125c0-.372-.063-.635-.189-.79-.123-.159-.309-.238-.558-.238a.798.798 0 00-.523.194 1.412 1.412 0 00-.369.505V33h-.778v-6.75h.778v2.483zm5.273 4.355c-.591 0-1.045-.176-1.362-.528-.316-.354-.477-.873-.483-1.555v-.576c0-.709.154-1.264.461-1.665.311-.405.743-.607 1.297-.607.556 0 .972.177 1.248.532.275.355.416.907.421 1.657v.51h-2.654v.11c0 .51.095.88.286 1.111.193.232.47.347.83.347.229 0 .43-.042.602-.127.176-.088.34-.226.493-.413l.404.492c-.337.475-.851.712-1.543.712zM148 28.825c-.323 0-.562.111-.717.334-.155.22-.243.563-.263 1.029h1.872v-.106c-.021-.451-.103-.773-.246-.967-.141-.193-.356-.29-.646-.29zm6.714 1.587h-1.125V33h-.808v-6.398h1.793c.627 0 1.101.164 1.424.492.322.325.483.802.483 1.432 0 .396-.088.742-.264 1.038a1.646 1.646 0 01-.738.663l1.239 2.72V33h-.865l-1.139-2.588zm-1.125-.69h.976c.337 0 .605-.109.804-.326.202-.216.303-.506.303-.87 0-.82-.372-1.23-1.116-1.23h-.967v2.426zM158.292 33h-.778v-4.755h.778V33zm.061-6.016a.499.499 0 01-.11.33c-.073.087-.184.131-.334.131-.146 0-.256-.044-.329-.131a.494.494 0 01-.11-.33c0-.132.036-.243.11-.334.073-.09.183-.136.329-.136.147 0 .257.047.33.14.076.091.114.201.114.33zm3.476 4.799a.574.574 0 00-.189-.43c-.126-.121-.369-.262-.729-.423-.419-.173-.715-.32-.888-.444a1.276 1.276 0 01-.382-.417 1.172 1.172 0 01-.128-.563c0-.386.141-.707.422-.962.284-.258.646-.387 1.086-.387.462 0 .834.135 1.116.404.281.27.422.616.422 1.038h-.774a.76.76 0 00-.215-.545.723.723 0 00-.549-.229c-.229 0-.409.06-.541.18a.61.61 0 00-.193.475c0 .158.046.286.14.382.097.097.327.224.69.383.577.225.97.446 1.178.663.208.214.312.486.312.818 0 .413-.142.744-.426.993-.285.246-.665.369-1.143.369-.495 0-.896-.142-1.204-.426a1.406 1.406 0 01-.461-1.081h.782c.009.263.089.47.241.62.153.149.367.223.642.223.258 0 .454-.057.589-.171a.591.591 0 00.202-.47zM164.461 33h-.777v-4.755h.777V33zm.062-6.016a.499.499 0 01-.11.33c-.073.087-.184.131-.334.131-.146 0-.256-.044-.329-.131a.494.494 0 01-.11-.33c0-.132.036-.243.11-.334.073-.09.183-.136.329-.136.147 0 .256.047.33.14.076.091.114.201.114.33zm2.36 3.84l-.413.475V33h-.778v-6.75h.778v4.039l1.481-2.044h.931l-1.511 1.986L169.08 33h-.905l-1.292-2.175zm2.702-.421c0-.692.167-1.238.501-1.64.337-.404.781-.606 1.332-.606s.993.197 1.327.59c.337.392.51.926.519 1.603v.501c0 .689-.167 1.233-.501 1.635-.334.401-.78.602-1.336.602-.551 0-.993-.195-1.327-.585-.331-.39-.503-.917-.515-1.582v-.518zm.778.448c0 .49.095.875.286 1.156a.902.902 0 00.778.417c.685 0 1.038-.495 1.059-1.485v-.536c0-.486-.097-.87-.29-1.151-.194-.285-.453-.427-.778-.427-.319 0-.576.142-.769.427-.191.28-.286.663-.286 1.146v.453zm7.669 2.237c-.592 0-1.046-.176-1.363-.528-.316-.354-.477-.873-.483-1.555v-.576c0-.709.154-1.264.461-1.665.311-.405.743-.607 1.297-.607.556 0 .973.177 1.248.532.275.355.416.907.422 1.657v.51h-2.655v.11c0 .51.096.88.286 1.111.193.232.47.347.831.347.228 0 .429-.042.602-.127.176-.088.34-.226.492-.413l.404.492c-.337.475-.851.712-1.542.712zm-.088-4.263c-.322 0-.561.111-.716.334-.156.22-.244.563-.264 1.029h1.872v-.106c-.021-.451-.103-.773-.246-.967-.141-.193-.356-.29-.646-.29zM181.389 33h-.778v-4.755h.778V33zm.062-6.016a.499.499 0 01-.11.33c-.073.087-.185.131-.334.131-.147 0-.257-.044-.33-.131a.499.499 0 01-.11-.33c0-.132.037-.243.11-.334.073-.09.183-.136.33-.136.146 0 .256.047.329.14.077.091.115.201.115.33zm1.898 1.261l.022.514c.302-.401.687-.602 1.156-.602.841 0 1.267.561 1.279 1.683V33h-.774v-3.125c0-.372-.063-.635-.189-.79-.123-.159-.309-.238-.558-.238a.798.798 0 00-.523.194 1.412 1.412 0 00-.369.505V33h-.778v-4.755h.734zm4.346 4.091h2.294V33h-3.181v-.598l2.179-3.485h-2.162v-.672h3.076v.576l-2.206 3.515zm5.66.247c-.257.336-.634.505-1.129.505-.431 0-.756-.148-.976-.444-.219-.299-.331-.732-.333-1.3v-3.099h.773v3.041c0 .741.223 1.112.668 1.112.472 0 .797-.211.975-.633v-3.52h.778V33h-.738l-.018-.417zm1.771-2.176c0-.741.135-1.3.405-1.678.269-.381.663-.572 1.182-.572.483 0 .851.207 1.103.62l.039-.532h.704v4.799c0 .589-.151 1.04-.453 1.354-.302.316-.722.474-1.261.474-.235 0-.498-.059-.791-.176-.29-.114-.509-.256-.655-.426l.316-.536c.323.316.679.474 1.068.474.648 0 .98-.352.998-1.059v-.62c-.252.373-.61.559-1.073.559-.492 0-.875-.185-1.151-.554-.275-.372-.419-.905-.431-1.6v-.527zm.778.444c0 .533.078.926.233 1.178.158.249.416.373.774.373.386 0 .676-.197.87-.593v-2.377c-.202-.39-.489-.585-.862-.585-.357 0-.615.126-.773.378-.158.25-.239.633-.242 1.151v.475zm5.515 2.237c-.591 0-1.045-.176-1.362-.528-.316-.354-.477-.873-.483-1.555v-.576c0-.709.154-1.264.461-1.665.311-.405.743-.607 1.297-.607.556 0 .972.177 1.248.532.275.355.416.907.421 1.657v.51h-2.654v.11c0 .51.095.88.286 1.111.193.232.47.347.83.347.229 0 .43-.042.602-.127.176-.088.34-.226.493-.413l.404.492c-.337.475-.851.712-1.543.712zm-.087-4.263c-.323 0-.561.111-.717.334-.155.22-.243.563-.263 1.029h1.872v-.106c-.021-.451-.103-.773-.246-.967-.141-.193-.356-.29-.646-.29zm3.383-.092c.296-.384.674-.576 1.134-.576.841 0 1.267.561 1.279 1.683V33h-.774v-3.125c0-.372-.062-.635-.188-.79-.124-.159-.31-.238-.559-.238a.8.8 0 00-.523.194 1.412 1.412 0 00-.369.505V33h-.777v-6.75h.777v2.483zm5.274 4.355c-.592 0-1.046-.176-1.363-.528-.316-.354-.477-.873-.483-1.555v-.576c0-.709.154-1.264.461-1.665.311-.405.743-.607 1.297-.607.557 0 .973.177 1.248.532.275.355.416.907.422 1.657v.51h-2.654v.11c0 .51.095.88.285 1.111.194.232.47.347.831.347.228 0 .429-.042.602-.127.176-.088.34-.226.492-.413l.404.492c-.337.475-.851.712-1.542.712zm-.088-4.263c-.322 0-.561.111-.716.334-.156.22-.244.563-.264 1.029h1.872v-.106c-.021-.451-.103-.773-.246-.967-.141-.193-.356-.29-.646-.29zm3.34-.58l.022.514c.301-.401.687-.602 1.155-.602.841 0 1.268.561 1.279 1.683V33h-.773v-3.125c0-.372-.063-.635-.189-.79-.123-.159-.309-.238-.558-.238a.796.796 0 00-.523.194 1.389 1.389 0 00-.369.505V33h-.778v-4.755h.734zm3.634 6.03l-.461-.317c.275-.384.419-.78.43-1.186v-.734h.796v.637c0 .296-.074.592-.22.888a2.058 2.058 0 01-.545.711zM221.647 33h-.804v-6.398h.804V33zm2.079-4.267c.296-.384.674-.576 1.134-.576.841 0 1.267.561 1.279 1.683V33h-.774v-3.125c0-.372-.063-.635-.189-.79-.123-.159-.309-.238-.558-.238a.798.798 0 00-.523.194 1.412 1.412 0 00-.369.505V33h-.778v-6.75h.778v2.483zm5.537.242a1.883 1.883 0 00-.351-.031c-.399 0-.677.218-.835.655V33h-.778v-4.755h.756l.013.483c.208-.38.502-.57.883-.57.123 0 .226.02.308.06l.004.757zm6.957 3.23l-.141.175c-.404.472-.996.708-1.775.708-.692 0-1.235-.229-1.631-.686-.392-.46-.593-1.108-.602-1.946v-1.257c0-.897.179-1.568.536-2.013.361-.448.898-.672 1.613-.672.61 0 1.086.17 1.428.51.346.34.537.824.572 1.454h-.804c-.033-.398-.144-.709-.334-.932-.188-.225-.474-.338-.857-.338-.46 0-.797.15-1.011.453-.214.298-.325.777-.334 1.437v1.305c0 .644.123 1.14.369 1.485.246.343.599.514 1.059.514.434 0 .763-.105.989-.316l.119-.11V30.5h-1.169v-.686h1.973v2.39zm2.905.883c-.592 0-1.046-.176-1.363-.528-.316-.354-.477-.873-.483-1.555v-.576c0-.709.154-1.264.461-1.665.311-.405.743-.607 1.297-.607.556 0 .972.177 1.248.532.275.355.416.907.422 1.657v.51h-2.655v.11c0 .51.095.88.286 1.111.193.232.47.347.83.347.229 0 .43-.042.603-.127.175-.088.339-.226.492-.413l.404.492c-.337.475-.851.712-1.542.712zm-.088-4.263c-.323 0-.561.111-.717.334-.155.22-.243.563-.263 1.029h1.872v-.106c-.021-.451-.103-.773-.246-.967-.141-.193-.356-.29-.646-.29zM242.482 33h-.778v-6.75h.778V33zm1.063-2.593c0-.732.137-1.29.409-1.674.275-.384.67-.576 1.182-.576.454 0 .809.185 1.064.554V26.25h.778V33h-.712l-.04-.51c-.255.399-.62.598-1.094.598-.492 0-.879-.19-1.16-.571-.279-.384-.421-.925-.427-1.622v-.488zm.778.444c0 .533.079.926.238 1.178.158.249.416.373.773.373.387 0 .675-.194.866-.584v-2.4c-.2-.38-.487-.57-.862-.57-.357 0-.615.125-.773.377-.158.25-.239.633-.242 1.151v.475zm6.636 1.485h2.294V33h-3.182v-.598l2.18-3.485h-2.162v-.672h3.076v.576l-2.206 3.515zm5.66.247c-.258.336-.634.505-1.129.505-.431 0-.756-.148-.976-.444-.22-.299-.331-.732-.334-1.3v-3.099h.774v3.041c0 .741.222 1.112.668 1.112.471 0 .796-.211.975-.633v-3.52h.778V33h-.738l-.018-.417zm5.339-.765l.901-3.573h.791L262.24 33h-.58l-1.429-4.755h.791l.936 3.573zm4.202 1.27c-.592 0-1.046-.176-1.363-.528-.316-.354-.477-.873-.483-1.555v-.576c0-.709.154-1.264.461-1.665.311-.405.743-.607 1.297-.607.556 0 .972.177 1.248.532.275.355.416.907.422 1.657v.51h-2.655v.11c0 .51.096.88.286 1.111.193.232.47.347.831.347.228 0 .429-.042.602-.127.175-.088.34-.226.492-.413l.404.492c-.337.475-.851.712-1.542.712zm-.088-4.263c-.322 0-.561.111-.717.334-.155.22-.243.563-.263 1.029h1.872v-.106c-.021-.451-.103-.773-.246-.967-.141-.193-.356-.29-.646-.29zm4.57.15a1.883 1.883 0 00-.351-.031c-.399 0-.677.218-.835.655V33h-.778v-4.755h.756l.013.483c.208-.38.502-.57.883-.57.123 0 .226.02.308.06l.004.757zM272.259 33h-.778v-6.75h.778V33zm2.066 0h-.778v-4.755h.778V33zm.061-6.016a.494.494 0 01-.11.33c-.073.087-.184.131-.334.131-.146 0-.256-.044-.329-.131a.499.499 0 01-.11-.33c0-.132.037-.243.11-.334.073-.09.183-.136.329-.136.147 0 .257.047.33.14.076.091.114.201.114.33zm2.865 6.104c-.591 0-1.045-.176-1.362-.528-.316-.354-.477-.873-.483-1.555v-.576c0-.709.154-1.264.461-1.665.311-.405.743-.607 1.297-.607.556 0 .972.177 1.248.532.275.355.416.907.421 1.657v.51h-2.654v.11c0 .51.095.88.286 1.111.193.232.47.347.83.347.229 0 .43-.042.602-.127.176-.088.34-.226.493-.413l.404.492c-.337.475-.851.712-1.543.712zm-.087-4.263c-.323 0-.561.111-.717.334-.155.22-.243.563-.263 1.029h1.872v-.106c-.021-.451-.103-.773-.246-.967-.141-.193-.356-.29-.646-.29zm4.57.15a1.902 1.902 0 00-.352-.031c-.398 0-.676.218-.835.655V33h-.777v-4.755h.755l.014.483c.208-.38.502-.57.883-.57a.68.68 0 01.307.06l.005.757zm2.478 4.113c-.591 0-1.045-.176-1.362-.528-.316-.354-.477-.873-.483-1.555v-.576c0-.709.154-1.264.461-1.665.311-.405.743-.607 1.297-.607.556 0 .972.177 1.248.532.275.355.416.907.421 1.657v.51h-2.654v.11c0 .51.095.88.286 1.111.193.232.47.347.83.347.229 0 .43-.042.602-.127.176-.088.34-.226.493-.413l.404.492c-.337.475-.851.712-1.543.712zm-.087-4.263c-.323 0-.562.111-.717.334-.155.22-.243.563-.263 1.029h1.872v-.106c-.021-.451-.103-.773-.246-.967-.141-.193-.356-.29-.646-.29zm3.339-.58l.022.514c.302-.401.687-.602 1.156-.602.841 0 1.267.561 1.279 1.683V33h-.774v-3.125c0-.372-.063-.635-.189-.79-.123-.159-.309-.238-.558-.238a.8.8 0 00-.523.194 1.412 1.412 0 00-.369.505V33h-.778v-4.755h.734zm3.679 4.329c0-.14.041-.258.123-.352.085-.094.211-.14.378-.14s.293.046.377.14c.088.094.132.211.132.352a.467.467 0 01-.132.338c-.084.09-.21.136-.377.136s-.293-.045-.378-.136a.486.486 0 01-.123-.338z" fill="#000"/></svg>