<svg width="152" height="25" viewBox="0 0 152 25" fill="none" xmlns="http://www.w3.org/2000/svg"><rect width="152" height="25" rx="12.5" fill="#14964F"/><path d="M16.274 16h1.32l-2.739-7.656h-1.452L10.664 16h1.309l.55-1.562h3.201l.55 1.562zm-.902-2.585h-2.497l1.254-3.553 1.243 3.553zM23.086 16h1.243v-3.575c0-1.694-1.067-2.585-2.486-2.585-.726 0-1.397.297-1.804.792v-.693h-1.254V16h1.254v-3.388c0-1.111.605-1.683 1.529-1.683.913 0 1.518.572 1.518 1.683V16zm11.434 0h1.242v-3.575c0-1.694-1.078-2.585-2.496-2.585-.88 0-1.738.462-2.112 1.199-.419-.792-1.221-1.199-2.178-1.199-.726 0-1.386.297-1.793.792v-.693h-1.255V16h1.255v-3.388c0-1.111.605-1.683 1.529-1.683.913 0 1.518.572 1.518 1.683V16h1.242v-3.388c0-1.111.605-1.683 1.53-1.683.912 0 1.517.572 1.517 1.683V16zm5.39-5.104c.935 0 1.672.594 1.694 1.529H38.25c.132-.957.814-1.529 1.661-1.529zm2.838 3.3h-1.353c-.23.473-.66.847-1.43.847-.924 0-1.639-.605-1.727-1.606h4.631c.033-.209.044-.407.044-.616 0-1.782-1.22-2.981-2.948-2.981-1.793 0-3.025 1.221-3.025 3.124s1.287 3.135 3.025 3.135c1.485 0 2.442-.847 2.783-1.903zm1.4 1.804H45.4V7.86h-1.254V16zm2.482-3.058c0 1.87 1.265 3.157 2.86 3.157.99 0 1.716-.462 2.1-1.012V16h1.266V7.86H51.59v2.926c-.462-.572-1.298-.946-2.09-.946-1.606 0-2.871 1.232-2.871 3.102zm4.96.022c0 1.309-.89 2.046-1.836 2.046-.935 0-1.837-.759-1.837-2.068 0-1.309.902-2.013 1.837-2.013.946 0 1.837.737 1.837 2.035zm5.465-2.068c.935 0 1.672.594 1.694 1.529h-3.355c.132-.957.814-1.529 1.66-1.529zm2.838 3.3H58.54c-.231.473-.66.847-1.43.847-.924 0-1.64-.605-1.727-1.606h4.63c.034-.209.045-.407.045-.616 0-1.782-1.221-2.981-2.948-2.981-1.793 0-3.025 1.221-3.025 3.124s1.287 3.135 3.025 3.135c1.485 0 2.442-.847 2.783-1.903zm5.7 1.804h1.243v-3.575c0-1.694-1.067-2.585-2.486-2.585-.726 0-1.397.297-1.804.792v-.693h-1.254V16h1.254v-3.388c0-1.111.605-1.683 1.529-1.683.913 0 1.518.572 1.518 1.683V16zm11.189-6.061h-1.254v3.377c0 1.111-.605 1.683-1.53 1.683-.912 0-1.517-.572-1.517-1.683V9.939h-1.243v3.564c0 1.694 1.078 2.585 2.497 2.585.715 0 1.397-.297 1.793-.814V16h1.254V9.939zM82.737 16h1.243v-3.575c0-1.694-1.067-2.585-2.486-2.585-.726 0-1.397.297-1.804.792v-.693h-1.254V16h1.254v-3.388c0-1.111.605-1.683 1.53-1.683.912 0 1.517.572 1.517 1.683V16zm2.425-3.058c0 1.87 1.265 3.157 2.86 3.157.99 0 1.716-.462 2.1-1.012V16h1.266V7.86h-1.265v2.926c-.462-.572-1.298-.946-2.09-.946-1.606 0-2.871 1.232-2.871 3.102zm4.96.022c0 1.309-.89 2.046-1.836 2.046-.935 0-1.837-.759-1.837-2.068 0-1.309.902-2.013 1.837-2.013.946 0 1.837.737 1.837 2.035zM100.744 16h1.254V8.355h-1.254v3.278h-3.597V8.355h-1.254V16h1.254v-3.344h3.597V16zm2.487-3.058c0 1.87 1.265 3.157 2.838 3.157 1.012 0 1.738-.484 2.123-1.001V16h1.265V9.939h-1.265v.88c-.374-.495-1.078-.979-2.101-.979-1.595 0-2.86 1.232-2.86 3.102zm4.961.022c0 1.309-.891 2.046-1.837 2.046-.935 0-1.837-.759-1.837-2.068 0-1.309.902-2.013 1.837-2.013.946 0 1.837.737 1.837 2.035zM115.404 16h1.243v-3.575c0-1.694-1.067-2.585-2.486-2.585-.726 0-1.397.297-1.804.792v-.693h-1.254V16h1.254v-3.388c0-1.111.605-1.683 1.529-1.683.913 0 1.518.572 1.518 1.683V16zm2.425-3.058c0 1.87 1.265 3.157 2.86 3.157.99 0 1.716-.462 2.101-1.012V16h1.265V7.86h-1.265v2.926c-.462-.572-1.298-.946-2.09-.946-1.606 0-2.871 1.232-2.871 3.102zm4.961.022c0 1.309-.891 2.046-1.837 2.046-.935 0-1.837-.759-1.837-2.068 0-1.309.902-2.013 1.837-2.013.946 0 1.837.737 1.837 2.035zm5.464-2.068c.935 0 1.672.594 1.694 1.529h-3.355c.132-.957.814-1.529 1.661-1.529zm2.838 3.3h-1.353c-.231.473-.66.847-1.43.847-.924 0-1.639-.605-1.727-1.606h4.631c.033-.209.044-.407.044-.616 0-1.782-1.221-2.981-2.948-2.981-1.793 0-3.025 1.221-3.025 3.124s1.287 3.135 3.025 3.135c1.485 0 2.442-.847 2.783-1.903zM132.491 16h1.254V7.86h-1.254V16zm7.201 0h1.243v-3.575c0-1.694-1.067-2.585-2.486-2.585-.726 0-1.397.297-1.804.792v-.693h-1.254V16h1.254v-3.388c0-1.111.605-1.683 1.529-1.683.913 0 1.518.572 1.518 1.683V16z" fill="#fff"/></svg>