<svg width="120" height="70" viewBox="0 0 120 70" fill="none" xmlns="http://www.w3.org/2000/svg"><path d="M.42 2.442h4.536V15h2.415V2.442h4.536V.3H.42v2.142zm18.667 1.68c-1.68 0-2.709.756-3.38 1.68V.3h-2.269V15h2.268V9.561c0-2.163 1.092-3.486 2.877-3.486 1.68 0 2.583 1.092 2.583 3.129V15h2.268V9.015c0-3.591-1.953-4.893-4.347-4.893zm11.43 11.004c2.668 0 4.474-1.617 4.852-3.738H33.1c-.315 1.197-1.323 1.89-2.71 1.89-1.784 0-2.94-1.197-3.002-3.024v-.147h8.106a6.16 6.16 0 00.063-.861c-.063-3.15-2.142-5.124-5.25-5.124-3.171 0-5.292 2.205-5.292 5.523 0 3.297 2.12 5.481 5.502 5.481zm-3.044-6.678c.168-1.533 1.407-2.499 2.856-2.499 1.575 0 2.688.903 2.877 2.499h-5.733zm21.045-4.326c-1.659 0-2.772.756-3.486 1.722V.3h-2.268V15h1.974l.273-1.554c.672.966 1.827 1.68 3.507 1.68 2.94 0 5.082-2.205 5.082-5.502 0-3.465-2.142-5.502-5.082-5.502zm-.378 9.093c-1.89 0-3.129-1.491-3.129-3.612 0-2.079 1.24-3.549 3.13-3.549s3.15 1.47 3.15 3.57c0 2.121-1.26 3.591-3.15 3.591zm8.433-10.479c.777 0 1.386-.567 1.386-1.365S57.349.006 56.573.006c-.777 0-1.386.567-1.386 1.365s.609 1.365 1.386 1.365zM55.418 15h2.268V4.248h-2.268V15zM68.12 5.928c-.693-1.071-1.848-1.806-3.528-1.806-2.92 0-5.082 2.163-5.082 5.46 0 3.423 2.163 5.46 5.082 5.46 1.68 0 2.793-.693 3.507-1.764v1.197c0 2.058-1.113 3.003-3.087 3.003-1.596 0-2.646-.693-2.92-1.89h-2.31c.21 2.415 2.206 3.738 5.062 3.738 3.864 0 5.502-1.848 5.502-4.767V4.248h-1.974l-.252 1.68zm-3.15 7.203c-1.89 0-3.13-1.449-3.13-3.549 0-2.079 1.24-3.549 3.13-3.549s3.129 1.47 3.129 3.591c0 2.058-1.24 3.507-3.13 3.507zm15.803-7.203c-.693-1.071-1.848-1.806-3.528-1.806-2.919 0-5.082 2.163-5.082 5.46 0 3.423 2.163 5.46 5.082 5.46 1.68 0 2.793-.693 3.507-1.764v1.197c0 2.058-1.113 3.003-3.087 3.003-1.596 0-2.646-.693-2.919-1.89h-2.31c.21 2.415 2.205 3.738 5.061 3.738 3.864 0 5.502-1.848 5.502-4.767V4.248h-1.974l-.252 1.68zm-3.15 7.203c-1.89 0-3.129-1.449-3.129-3.549 0-2.079 1.24-3.549 3.13-3.549s3.128 1.47 3.128 3.591c0 2.058-1.239 3.507-3.129 3.507zm12.695 1.995c2.668 0 4.474-1.617 4.852-3.738H92.9c-.314 1.197-1.322 1.89-2.709 1.89-1.784 0-2.94-1.197-3.002-3.024v-.147h8.106a6.16 6.16 0 00.063-.861c-.063-3.15-2.142-5.124-5.25-5.124-3.171 0-5.292 2.205-5.292 5.523 0 3.297 2.12 5.481 5.502 5.481zm-3.044-6.678c.168-1.533 1.406-2.499 2.855-2.499 1.575 0 2.688.903 2.877 2.499h-5.733zm9.395 3.003c.063 2.331 2.037 3.675 4.914 3.675 2.604 0 4.557-1.302 4.557-3.36 0-2.394-1.995-2.898-4.452-3.192-1.554-.168-2.583-.294-2.583-1.302 0-.861.882-1.407 2.226-1.407 1.344 0 2.268.693 2.394 1.68h2.226c-.147-2.205-2.016-3.423-4.662-3.423-2.583-.021-4.41 1.302-4.41 3.339 0 2.226 1.932 2.751 4.389 3.045 1.659.21 2.646.294 2.646 1.449 0 .861-.924 1.407-2.331 1.407-1.638 0-2.604-.798-2.688-1.911h-2.226zm12.005.63c0 1.953.882 2.919 2.94 2.919h2.1v-1.995h-1.596c-.861 0-1.155-.315-1.155-1.155V6.243h2.625V4.248h-2.625V1.245h-2.289v3.003h-1.869v1.995h1.869v5.838zM9.324 30.928c-.693-1.071-1.848-1.806-3.528-1.806-2.919 0-5.082 2.163-5.082 5.46 0 3.423 2.163 5.46 5.082 5.46 1.68 0 2.793-.693 3.507-1.764v1.197c0 2.058-1.113 3.003-3.087 3.003-1.596 0-2.646-.693-2.919-1.89H.987c.21 2.415 2.205 3.738 5.061 3.738 3.864 0 5.502-1.848 5.502-4.767V29.248H9.576l-.252 1.68zm-3.15 7.203c-1.89 0-3.129-1.449-3.129-3.549 0-2.079 1.239-3.549 3.129-3.549s3.129 1.47 3.129 3.591c0 2.058-1.239 3.507-3.129 3.507zm17.42-.105c-.462 0-.693-.147-.693-.693v-4.305c0-2.541-1.638-3.906-4.494-3.906-2.709 0-4.515 1.302-4.746 3.402h2.226c.168-.945 1.071-1.575 2.415-1.575 1.491 0 2.352.735 2.352 1.932v.651h-2.709c-3.003 0-4.599 1.239-4.599 3.444 0 1.995 1.638 3.15 3.99 3.15 1.743 0 2.835-.756 3.55-1.848 0 1.071.503 1.722 1.973 1.722h1.197v-1.974h-.462zm-2.94-2.436c-.02 1.659-1.113 2.772-3.003 2.772-1.239 0-1.995-.63-1.995-1.533 0-1.092.777-1.617 2.184-1.617h2.814v.378zm17.007-6.468c-1.764 0-2.982.777-3.675 1.953-.651-1.386-1.911-1.953-3.318-1.953-1.617.021-2.541.735-3.15 1.533l-.252-1.407h-1.974V40h2.268v-5.754c0-1.911.966-3.171 2.52-3.171 1.49 0 2.268.987 2.268 2.877V40h2.289v-5.817c0-1.932.987-3.108 2.54-3.108 1.47 0 2.248.987 2.248 2.877V40h2.268v-6.195c0-3.402-1.806-4.683-4.032-4.683zM48.77 40.126c2.667 0 4.473-1.617 4.85-3.738h-2.267c-.315 1.197-1.323 1.89-2.71 1.89-1.784 0-2.94-1.197-3.002-3.024v-.147h8.106a6.16 6.16 0 00.063-.861c-.063-3.15-2.142-5.124-5.25-5.124-3.171 0-5.292 2.205-5.292 5.523 0 3.297 2.12 5.481 5.502 5.481zm-3.045-6.678c.168-1.533 1.407-2.499 2.856-2.499 1.575 0 2.688.903 2.877 2.499h-5.733zm10.312 3.843c-.966 0-1.596.63-1.596 1.428 0 .903.546 1.344 1.239 1.344.252 0 .504-.063.693-.21.021.084.021.189.021.273 0 .735-.525 1.554-1.848 1.575v1.218c2.079-.021 3.381-1.176 3.381-3.213 0-1.344-.735-2.415-1.89-2.415zm10.174-9.555c.777 0 1.386-.567 1.386-1.365s-.609-1.365-1.386-1.365c-.777 0-1.386.567-1.386 1.365s.61 1.365 1.386 1.365zM65.056 40h2.268V29.248h-2.268V40zm10.162-10.878c-1.743 0-2.772.693-3.444 1.533l-.252-1.407h-1.974V40h2.268v-5.418c0-2.184 1.07-3.507 2.877-3.507 1.7 0 2.562 1.092 2.562 3.129V40h2.289v-5.985c0-3.591-1.953-4.893-4.326-4.893zm5.926 7.329c.063 2.331 2.037 3.675 4.914 3.675 2.604 0 4.557-1.302 4.557-3.36 0-2.394-1.995-2.898-4.452-3.192-1.554-.168-2.583-.294-2.583-1.302 0-.861.882-1.407 2.226-1.407 1.344 0 2.268.693 2.394 1.68h2.226c-.147-2.205-2.016-3.423-4.662-3.423-2.583-.021-4.41 1.302-4.41 3.339 0 2.226 1.932 2.751 4.39 3.045 1.658.21 2.645.294 2.645 1.449 0 .861-.924 1.407-2.33 1.407-1.639 0-2.605-.798-2.689-1.911h-2.226zm12.384-8.715c.777 0 1.386-.567 1.386-1.365s-.61-1.365-1.386-1.365c-.777 0-1.386.567-1.386 1.365s.609 1.365 1.386 1.365zM92.373 40h2.268V29.248h-2.268V40zm12.66-9.261c-.693-.945-1.848-1.617-3.486-1.617-2.919 0-5.082 2.184-5.082 5.502 0 3.444 2.163 5.502 5.082 5.502 1.701 0 2.814-.798 3.507-1.743l.273 1.617h1.974V25.3h-2.268v5.439zm-3.108 7.476c-1.89 0-3.129-1.47-3.129-3.591 0-2.1 1.239-3.57 3.129-3.57s3.129 1.47 3.129 3.612c0 2.079-1.239 3.549-3.129 3.549zm12.695 1.911c2.667 0 4.473-1.617 4.851-3.738h-2.268c-.315 1.197-1.323 1.89-2.709 1.89-1.785 0-2.94-1.197-3.003-3.024v-.147h8.106a6.16 6.16 0 00.063-.861c-.063-3.15-2.142-5.124-5.25-5.124-3.171 0-5.292 2.205-5.292 5.523 0 3.297 2.121 5.481 5.502 5.481zm-3.045-6.678c.168-1.533 1.407-2.499 2.856-2.499 1.575 0 2.688.903 2.877 2.499h-5.733zM4.221 65.063l-.42 1.05c-.336.882-.546 1.092-1.428 1.092H.777V69.2h2.436c1.575 0 2.037-.777 2.709-2.52l4.872-12.432H8.379L5.46 62.417l-3.003-8.169H.042l4.179 10.815zm12.31.063c3.276 0 5.48-2.205 5.48-5.502 0-3.276-2.204-5.502-5.48-5.502-3.276 0-5.481 2.226-5.481 5.502 0 3.297 2.205 5.502 5.48 5.502zm0-1.932c-1.911 0-3.15-1.491-3.15-3.57 0-2.079 1.239-3.57 3.15-3.57 1.91 0 3.17 1.491 3.17 3.57 0 2.079-1.26 3.57-3.17 3.57zm14.676-3.57c0 2.226-1.05 3.528-2.772 3.528-1.66 0-2.5-1.071-2.5-3.171v-5.733h-2.267v5.985c0 3.675 1.953 4.893 4.242 4.893 1.659 0 2.646-.672 3.318-1.491L31.48 65h1.995V54.248h-2.268v5.376zm9.942-5.376c-1.764 0-2.625.714-3.171 1.617l-.252-1.617H35.71V65h2.268v-5.397c0-1.659.65-3.234 2.667-3.234h1.008v-2.121h-.504zm12.925-.126c-1.68 0-2.71.756-3.381 1.68V50.3h-2.268V65h2.268v-5.439c0-2.163 1.092-3.486 2.877-3.486 1.68 0 2.583 1.092 2.583 3.129V65h2.267v-5.985c0-3.591-1.953-4.893-4.346-4.893zm11.43 11.004c2.667 0 4.473-1.617 4.851-3.738h-2.268c-.315 1.197-1.323 1.89-2.709 1.89-1.785 0-2.94-1.197-3.003-3.024v-.147h8.106a6.16 6.16 0 00.063-.861c-.063-3.15-2.142-5.124-5.25-5.124-3.17 0-5.292 2.205-5.292 5.523 0 3.297 2.121 5.481 5.502 5.481zm-3.045-6.678c.168-1.533 1.407-2.499 2.856-2.499 1.575 0 2.688.903 2.877 2.499H62.46zm19.747 4.578c-.462 0-.693-.147-.693-.693v-4.305c0-2.541-1.638-3.906-4.494-3.906-2.71 0-4.515 1.302-4.746 3.402h2.226c.168-.945 1.07-1.575 2.415-1.575 1.49 0 2.352.735 2.352 1.932v.651h-2.71c-3.002 0-4.598 1.239-4.598 3.444 0 1.995 1.638 3.15 3.99 3.15 1.743 0 2.835-.756 3.549-1.848C79.497 64.349 80 65 81.47 65h1.197v-1.974h-.462zm-2.94-2.436c-.021 1.659-1.113 2.772-3.003 2.772-1.24 0-1.995-.63-1.995-1.533 0-1.092.777-1.617 2.184-1.617h2.814v.378zm12.724-4.851c-.693-.945-1.848-1.617-3.486-1.617-2.919 0-5.082 2.184-5.082 5.502 0 3.444 2.163 5.502 5.082 5.502 1.701 0 2.814-.798 3.507-1.743L92.284 65h1.974V50.3H91.99v5.439zm-3.108 7.476c-1.89 0-3.129-1.47-3.129-3.591 0-2.1 1.239-3.57 3.129-3.57s3.129 1.47 3.129 3.612c0 2.079-1.239 3.549-3.129 3.549zm9.398-8.106c0-1.743 1.05-2.919 2.667-2.919 1.407 0 2.352.84 2.352 2.037 0 1.008-.546 1.68-1.491 2.31-1.26.819-2.247 1.512-2.247 3.213v.672h2.142v-.42c0-1.05.714-1.596 1.848-2.373 1.092-.777 2.1-1.701 2.1-3.633 0-2.205-1.806-3.822-4.725-3.822-3.129 0-4.956 2.205-4.956 4.935h2.31zm.966 8.61c0 .84.63 1.407 1.449 1.407.819 0 1.428-.567 1.428-1.407 0-.84-.609-1.407-1.428-1.407s-1.449.567-1.449 1.407z" fill="#000"/></svg>