<svg width="128" height="28" viewBox="0 0 128 28" fill="none" xmlns="http://www.w3.org/2000/svg"><path d="M.28 1.628h3.024V10h1.61V1.628h3.024V.2H.28v1.428zm11.635 1.204c-1.176 0-1.75.476-2.114 1.078l-.168-1.078H8.289V10H9.8V6.402c0-1.106.434-2.156 1.778-2.156h.672V2.832h-.336zm7.602 5.852c-.308 0-.462-.098-.462-.462v-2.87c0-1.694-1.092-2.604-2.996-2.604-1.806 0-3.01.868-3.164 2.268h1.484c.112-.63.714-1.05 1.61-1.05.994 0 1.568.49 1.568 1.288v.434H15.75c-2.002 0-3.066.826-3.066 2.296 0 1.33 1.092 2.1 2.66 2.1 1.162 0 1.89-.504 2.366-1.232 0 .714.336 1.148 1.316 1.148h.798V8.684h-.308zm-1.96-1.624c-.014 1.106-.742 1.848-2.002 1.848-.826 0-1.33-.42-1.33-1.022 0-.728.518-1.078 1.456-1.078h1.876v.252zm8.483-3.234c-.462-.63-1.232-1.078-2.324-1.078-1.946 0-3.388 1.456-3.388 3.668 0 2.296 1.442 3.668 3.388 3.668 1.134 0 1.876-.532 2.338-1.162L26.236 10h1.316V.2H26.04v3.626zM23.968 8.81c-1.26 0-2.086-.98-2.086-2.394 0-1.4.826-2.38 2.086-2.38 1.26 0 2.086.98 2.086 2.408 0 1.386-.826 2.366-2.086 2.366zm8.463 1.274c1.778 0 2.982-1.078 3.234-2.492h-1.512c-.21.798-.882 1.26-1.806 1.26-1.19 0-1.96-.798-2.002-2.016v-.098h5.404c.028-.196.042-.392.042-.574-.042-2.1-1.428-3.416-3.5-3.416-2.114 0-3.528 1.47-3.528 3.682 0 2.198 1.414 3.654 3.668 3.654zm-2.03-4.452c.112-1.022.938-1.666 1.904-1.666 1.05 0 1.792.602 1.918 1.666h-3.822zm16.747 3.052c-.309 0-.463-.098-.463-.462v-2.87c0-1.694-1.092-2.604-2.995-2.604-1.806 0-3.01.868-3.164 2.268h1.483c.112-.63.715-1.05 1.61-1.05.995 0 1.569.49 1.569 1.288v.434h-1.806c-2.002 0-3.066.826-3.066 2.296 0 1.33 1.091 2.1 2.66 2.1 1.162 0 1.89-.504 2.366-1.232 0 .714.336 1.148 1.316 1.148h.797V8.684h-.307zm-1.96-1.624c-.015 1.106-.742 1.848-2.003 1.848-.826 0-1.33-.42-1.33-1.022 0-.728.519-1.078 1.457-1.078h1.876v.252zm6.857-4.312c-1.12 0-1.806.504-2.254 1.12V.2H48.28V10h1.512V6.374c0-1.442.728-2.324 1.918-2.324 1.12 0 1.722.728 1.722 2.086V10h1.512V6.01c0-2.394-1.302-3.262-2.898-3.262zm7.62 7.336c1.779 0 2.983-1.078 3.235-2.492h-1.512c-.21.798-.883 1.26-1.806 1.26-1.19 0-1.96-.798-2.002-2.016v-.098h5.404c.027-.196.041-.392.041-.574-.041-2.1-1.428-3.416-3.5-3.416-2.114 0-3.527 1.47-3.527 3.682 0 2.198 1.413 3.654 3.668 3.654zm-2.03-4.452c.113-1.022.939-1.666 1.904-1.666 1.05 0 1.792.602 1.919 1.666h-3.822zM70.8 8.684c-.308 0-.462-.098-.462-.462v-2.87c0-1.694-1.092-2.604-2.996-2.604-1.806 0-3.01.868-3.164 2.268h1.484c.112-.63.714-1.05 1.61-1.05.994 0 1.568.49 1.568 1.288v.434h-1.806c-2.002 0-3.066.826-3.066 2.296 0 1.33 1.092 2.1 2.66 2.1 1.162 0 1.89-.504 2.366-1.232 0 .714.336 1.148 1.316 1.148h.798V8.684H70.8zM68.84 7.06c-.014 1.106-.742 1.848-2.002 1.848-.826 0-1.33-.42-1.33-1.022 0-.728.518-1.078 1.456-1.078h1.876v.252zm8.483-3.234c-.462-.63-1.232-1.078-2.324-1.078-1.946 0-3.388 1.456-3.388 3.668 0 2.296 1.442 3.668 3.388 3.668 1.134 0 1.876-.532 2.338-1.162L77.519 10h1.316V.2h-1.512v3.626zM75.25 8.81c-1.26 0-2.086-.98-2.086-2.394 0-1.4.826-2.38 2.086-2.38 1.26 0 2.086.98 2.086 2.408 0 1.386-.826 2.366-2.086 2.366zm12.031 1.274c2.184 0 3.654-1.47 3.654-3.668 0-2.184-1.47-3.668-3.654-3.668s-3.654 1.484-3.654 3.668c0 2.198 1.47 3.668 3.654 3.668zm0-1.288c-1.274 0-2.1-.994-2.1-2.38s.826-2.38 2.1-2.38 2.114.994 2.114 2.38-.84 2.38-2.114 2.38zm4.088-4.634h1.245V10h1.526V4.162h1.918v-1.33h-1.945V2.23c0-.49.21-.7.7-.7h1.246V.2h-1.442c-1.386 0-2.002.672-2.002 1.96v.672H91.37v1.33zm12.834-1.414c-1.162 0-1.848.462-2.296 1.022l-.168-.938h-1.316V10h1.512V6.388c0-1.456.714-2.338 1.918-2.338 1.134 0 1.708.728 1.708 2.086V10h1.526V6.01c0-2.394-1.302-3.262-2.884-3.262zm7.606 7.336c1.778 0 2.982-1.078 3.234-2.492h-1.512c-.21.798-.882 1.26-1.806 1.26-1.19 0-1.96-.798-2.002-2.016v-.098h5.404c.028-.196.042-.392.042-.574-.042-2.1-1.428-3.416-3.5-3.416-2.114 0-3.528 1.47-3.528 3.682 0 2.198 1.414 3.654 3.668 3.654zm-2.03-4.452c.112-1.022.938-1.666 1.904-1.666 1.05 0 1.792.602 1.918 1.666h-3.822zM115.322 10h1.666l1.89-2.604L120.754 10h1.764l-2.702-3.668 2.548-3.5h-1.666l-1.75 2.422-1.708-2.422h-1.764l2.534 3.5L115.322 10zm8.547-1.946c0 1.302.588 1.946 1.96 1.946h1.4V8.67h-1.064c-.574 0-.77-.21-.77-.77V4.162h1.75v-1.33h-1.75V.83h-1.526v2.002h-1.246v1.33h1.246v3.892zM2.394 27h1.638L5.6 22.128 7.112 27h1.624l2.38-7.168h-1.54L7.882 25.32l-1.568-5.488H4.928L3.29 25.32l-1.638-5.488H.056L2.394 27zm12.674.084c1.778 0 2.982-1.078 3.234-2.492H16.79c-.21.798-.882 1.26-1.806 1.26-1.19 0-1.96-.798-2.002-2.016v-.098h5.404c.028-.196.042-.392.042-.574-.042-2.1-1.428-3.416-3.5-3.416-2.114 0-3.528 1.47-3.528 3.682 0 2.198 1.414 3.654 3.668 3.654zm-2.03-4.452c.112-1.022.938-1.666 1.904-1.666 1.05 0 1.792.602 1.918 1.666h-3.822zm10.014 4.452c1.778 0 2.982-1.078 3.234-2.492h-1.512c-.21.798-.882 1.26-1.806 1.26-1.19 0-1.96-.798-2.002-2.016v-.098h5.404c.028-.196.042-.392.042-.574-.042-2.1-1.428-3.416-3.5-3.416-2.114 0-3.528 1.47-3.528 3.682 0 2.198 1.414 3.654 3.668 3.654zm-2.03-4.452c.112-1.022.938-1.666 1.904-1.666 1.05 0 1.792.602 1.918 1.666h-3.822zM27.635 27h1.512v-1.82l1.288-1.344L32.549 27h1.792l-2.87-4.27 2.702-2.898h-1.778l-3.248 3.472V17.2h-1.512V27zm8.096-9.884c-.644 0-1.064.42-1.064.952 0 .588.364.896.826.896a.764.764 0 00.462-.154c.014.07.014.126.014.196 0 .49-.35 1.036-1.232 1.036v.826c1.386-.014 2.254-.784 2.254-2.142 0-.91-.49-1.61-1.26-1.61zm1.89 7.518c.042 1.554 1.358 2.45 3.276 2.45 1.736 0 3.038-.868 3.038-2.24 0-1.596-1.33-1.932-2.968-2.128-1.035-.112-1.721-.196-1.721-.868 0-.574.587-.938 1.483-.938.897 0 1.513.462 1.596 1.12h1.484c-.097-1.47-1.343-2.282-3.107-2.282-1.722-.014-2.94.868-2.94 2.226 0 1.484 1.288 1.834 2.925 2.03 1.107.14 1.765.196 1.765.966 0 .574-.616.938-1.554.938-1.093 0-1.737-.532-1.793-1.274h-1.483zM48.843 27h1.61v-3.556h2.156L54.5 27h1.792l-2.072-3.906c1.148-.406 1.904-1.456 1.904-2.772 0-1.904-1.372-3.122-3.416-3.122h-3.864V27zm3.738-8.4c1.148 0 1.89.672 1.89 1.722 0 1.05-.742 1.722-1.89 1.722h-2.128V18.6h2.128zm4.985 8.4h3.724c2.366 0 3.64-1.064 3.64-2.8 0-1.4-.896-2.086-2.058-2.268 1.022-.28 1.68-.98 1.68-2.142 0-1.61-1.232-2.59-3.388-2.59h-3.598V27zm3.64-8.456c1.12 0 1.736.532 1.736 1.4 0 .882-.63 1.414-1.736 1.414h-2.03v-2.814h2.03zm.098 4.144c1.246 0 1.974.532 1.974 1.498 0 .91-.686 1.456-1.974 1.456h-2.128v-2.954h2.128zM66.897 27l.91-2.422h4.018L72.75 27h1.722l-3.654-9.8H68.9L65.231 27h1.666zm2.912-8.064l1.568 4.27h-3.122l1.554-4.27zm12.875.812c-1.162 0-1.848.462-2.296 1.022l-.168-.938h-1.316V27h1.512v-3.612c0-1.456.714-2.338 1.918-2.338 1.134 0 1.708.728 1.708 2.086V27h1.526v-3.99c0-2.394-1.302-3.262-2.884-3.262zm7.606 7.336c1.778 0 2.982-1.078 3.234-2.492h-1.511c-.21.798-.883 1.26-1.806 1.26-1.19 0-1.96-.798-2.002-2.016v-.098h5.404c.028-.196.041-.392.041-.574-.041-2.1-1.428-3.416-3.5-3.416-2.114 0-3.528 1.47-3.528 3.682 0 2.198 1.415 3.654 3.668 3.654zm-2.03-4.452c.112-1.022.938-1.666 1.904-1.666 1.05 0 1.793.602 1.918 1.666H88.26zM96.28 27h1.638l1.568-4.872L100.997 27h1.624l2.38-7.168h-1.54l-1.694 5.488-1.568-5.488h-1.386l-1.638 5.488-1.638-5.488H93.94L96.279 27zm9.059-2.366c.042 1.554 1.358 2.45 3.276 2.45 1.736 0 3.038-.868 3.038-2.24 0-1.596-1.33-1.932-2.968-2.128-1.036-.112-1.722-.196-1.722-.868 0-.574.588-.938 1.484-.938s1.512.462 1.596 1.12h1.484c-.098-1.47-1.344-2.282-3.108-2.282-1.722-.014-2.94.868-2.94 2.226 0 1.484 1.288 1.834 2.926 2.03 1.106.14 1.764.196 1.764.966 0 .574-.616.938-1.554.938-1.092 0-1.736-.532-1.792-1.274h-1.484z" fill="#000"/></svg>