<svg width="187" height="28" viewBox="0 0 187 28" fill="none" xmlns="http://www.w3.org/2000/svg"><path d="M24.257 1.14H17.37v13.81c0 4.08-1.858 5.793-4.846 5.793-2.952 0-4.81-1.712-4.847-5.793V1.176H.827V14.95c0 8.344 4.518 12.06 11.697 12.06 7.178 0 11.733-3.716 11.733-12.06V1.14zM39.644.774C33.704.81 29.04 3.398 29.04 9.119c0 4.992 4.154 6.34 9.948 7.725 4.19 1.057 4.92 1.203 4.92 2.66 0 1.166-1.24 1.676-2.66 1.676-3.244 0-6.924-.947-10.24-2.805l-3.06 5.101c3.497 2.332 7.797 3.571 12.534 3.571 6.56 0 10.677-2.988 10.677-8.417 0-5.21-4.264-6.668-10.24-8.272-3.971-.984-4.445-1.312-4.445-2.113 0-1.166 1.13-1.676 2.441-1.676 2.515 0 5.94.874 8.855 2.368l2.879-5.283C47.66 1.832 43.725.774 39.644.774zm15.45.4v25.471h10.931c7.543 0 13.665-5.502 13.665-12.717 0-7.251-6.122-12.79-13.665-12.79l-10.931.037zm6.85 6.122h3.826c3.79 0 6.887 2.843 6.887 6.596 0 3.79-3.097 6.632-6.887 6.632h-3.826V7.297zm26.157 19.969L100.854.52 95.17.556l-12.754 26.71h5.685zM116.99.81c-7.434 0-13.446 5.867-13.446 13.118 0 7.215 6.012 13.082 13.446 13.082 4.554 0 8.563-2.187 10.968-5.575l-5.94-3.353c-1.129 1.53-2.879 2.515-4.992 2.515-3.717 0-6.304-2.988-6.304-6.669 0-3.716 2.587-6.705 6.304-6.705 2.113 0 3.863.984 4.992 2.515l5.94-3.353C125.553 2.998 121.544.811 116.99.811zm41.802 25.835L148.625 1.14h-9l-10.057 25.507h8.199l1.639-4.445h9.547l1.64 4.445h8.199zm-17.6-9.911l2.951-7.944 2.952 7.944h-5.903zm21.047-15.56v25.471h10.932c7.543 0 13.664-5.502 13.664-12.717 0-7.251-6.121-12.79-13.664-12.79l-10.932.037zm6.851 6.122h3.826c3.789 0 6.887 2.843 6.887 6.596 0 3.79-3.098 6.632-6.887 6.632h-3.826V7.297z" fill="#09B45B"/></svg>