<svg width="167" height="14" viewBox="0 0 167 14" fill="none" xmlns="http://www.w3.org/2000/svg"><path d="M5.905.69C2.971.708.667 1.986.667 4.812c0 2.466 2.052 3.132 4.914 3.816 2.07.522 2.43.594 2.43 1.314 0 .576-.612.828-1.314.828-1.602 0-3.42-.468-5.058-1.386l-1.512 2.52c1.728 1.152 3.852 1.764 6.192 1.764 3.24 0 5.274-1.476 5.274-4.158 0-2.574-2.106-3.294-5.058-4.086C4.573 4.938 4.34 4.776 4.34 4.38c0-.576.558-.828 1.206-.828 1.242 0 2.934.432 4.374 1.17l1.422-2.61C9.865 1.212 7.921.69 5.905.69zm14.04.018c-3.726 0-6.75 2.898-6.75 6.48 0 3.564 3.024 6.462 6.75 6.462s6.75-2.898 6.75-6.462c0-3.582-3.024-6.48-6.75-6.48zm0 3.168c1.89 0 3.222 1.476 3.222 3.312 0 1.818-1.332 3.294-3.222 3.294s-3.204-1.476-3.204-3.294c0-1.836 1.314-3.312 3.204-3.312zM35.235.708c-3.671 0-6.642 2.898-6.642 6.48 0 3.564 2.97 6.462 6.643 6.462 2.25 0 4.23-1.08 5.418-2.754L37.718 9.24a3.01 3.01 0 01-2.465 1.242c-1.837 0-3.114-1.476-3.114-3.294 0-1.836 1.277-3.312 3.114-3.312a3.01 3.01 0 012.465 1.242l2.934-1.656C39.465 1.788 37.486.708 35.236.708zM45.979 13.47V.888h-3.384V13.47h3.384zm16.165 0L57.12.87h-4.446l-4.968 12.6h4.05l.81-2.196h4.716l.81 2.196h4.05zm-8.694-4.896l1.458-3.924 1.458 3.924h-2.916zm13.78 1.854V.87h-3.383v12.6h9.558v-3.042H67.23zm22.248-6.66V.87h-10.71v2.898h3.654v9.702h3.402V3.768h3.654zM91.18.888V13.47h3.384V9.636h2.016l2.448 3.834h3.906l-2.826-4.284c1.746-.594 2.484-1.872 2.484-3.924 0-3.078-1.638-4.374-5.742-4.374h-5.67zm3.384 3.042h2.448c1.494 0 2.052.468 2.052 1.548 0 1.098-.558 1.548-2.052 1.548h-2.448V3.93zm23.67 9.54L113.212.87h-4.446l-4.968 12.6h4.05l.81-2.196h4.716l.81 2.196h4.05zm-8.694-4.896l1.458-3.924 1.458 3.924h-2.916zM119.937.888V13.47h5.4c3.726 0 6.75-2.718 6.75-6.282 0-3.582-3.024-6.318-6.75-6.318l-5.4.018zm3.384 3.024h1.89c1.872 0 3.402 1.404 3.402 3.258 0 1.872-1.53 3.276-3.402 3.276h-1.89V3.912zM137.7 13.47V.888h-3.384V13.47h3.384zm14.383 0V.87h-3.33v7.038L143.677.87h-3.51v12.6h3.33V6.45l5.076 7.02h3.51zm9.09-12.78c-3.582-.018-6.966 2.34-6.966 6.498 0 3.564 3.024 6.462 6.75 6.462 2.124 0 4.086-.702 5.598-1.908V6.234h-5.382v2.412h2.16v1.206a4.674 4.674 0 01-2.376.63c-1.89 0-3.204-1.476-3.204-3.294 0-2.106 1.602-3.366 3.42-3.366.972 0 1.962.342 2.754 1.026l2.214-2.322C164.737 1.32 162.955.708 161.173.69z" fill="#09B45B"/></svg>