<svg width="132" height="47" viewBox="0 0 132 47" fill="none" xmlns="http://www.w3.org/2000/svg"><path d="M20.442.291c-4.401.027-7.857 1.944-7.857 6.183 0 3.7 3.077 4.698 7.37 5.724 3.106.783 3.646.891 3.646 1.971 0 .864-.918 1.242-1.971 1.242-2.403 0-5.13-.702-7.587-2.079l-2.268 3.78c2.591 1.728 5.777 2.646 9.287 2.646 4.86 0 7.912-2.214 7.912-6.237 0-3.86-3.16-4.94-7.587-6.129-2.944-.729-3.294-.972-3.294-1.566 0-.864.837-1.242 1.808-1.242 1.864 0 4.401.648 6.561 1.755l2.134-3.915C26.38 1.074 23.466.291 20.442.291zm21.06.027c-5.59 0-10.126 4.347-10.126 9.72 0 5.346 4.536 9.693 10.125 9.693 5.59 0 10.125-4.347 10.125-9.693 0-5.373-4.536-9.72-10.125-9.72zm0 4.752c2.834 0 4.832 2.214 4.832 4.968 0 2.727-1.998 4.941-4.833 4.941s-4.806-2.214-4.806-4.94c0-2.755 1.971-4.969 4.806-4.969zM64.436.318c-5.508 0-9.963 4.347-9.963 9.72 0 5.346 4.455 9.693 9.963 9.693 3.375 0 6.345-1.62 8.127-4.13l-4.401-2.485a4.514 4.514 0 01-3.7 1.863c-2.753 0-4.67-2.214-4.67-4.94 0-2.755 1.917-4.969 4.67-4.969 1.567 0 2.863.73 3.7 1.863l4.4-2.484C70.783 1.94 67.813.32 64.438.32zM80.55 19.461V.588h-5.076v18.873h5.076zm24.248 0L97.264.561h-6.668l-7.453 18.9h6.076l1.215-3.294h7.073l1.215 3.294h6.076zm-13.041-7.344l2.186-5.886 2.188 5.886h-4.374zm20.671 2.781V.561h-5.076v18.9h14.337v-4.563h-9.261zm-96.184 17.01v-4.347H.18v4.347H5.66v14.553h5.103V31.908h5.481zm2.554-4.32v18.873h5.076v-5.75h3.024l3.672 5.75h5.859l-4.24-6.426c2.62-.89 3.727-2.808 3.727-5.886 0-4.617-2.457-6.56-8.613-6.56h-8.505zm5.076 4.563h3.672c2.24 0 3.078.702 3.078 2.322 0 1.647-.837 2.322-3.078 2.322h-3.672v-4.644zm35.506 14.31l-7.533-18.9h-6.669l-7.452 18.9h6.075l1.215-3.294h7.074l1.215 3.294h6.075zm-13.04-7.344l2.186-5.886 2.187 5.886H46.34zm15.594-11.529v18.873h8.1c5.59 0 10.125-4.077 10.125-9.423 0-5.373-4.535-9.477-10.125-9.477l-8.1.027zm5.076 4.536h2.835c2.808 0 5.103 2.106 5.103 4.887 0 2.808-2.294 4.914-5.102 4.914H67.01v-9.8zM88.58 46.461V27.588h-5.076v18.873h5.076zm21.574 0v-18.9h-4.995v10.557l-7.614-10.557H92.28v18.9h4.995v-10.53l7.614 10.53h5.265zm13.635-19.17c-5.373-.027-10.449 3.51-10.449 9.747 0 5.346 4.536 9.693 10.125 9.693 3.186 0 6.129-1.053 8.397-2.862v-8.262h-8.073v3.618h3.24v1.81a7.012 7.012 0 01-3.564.944c-2.835 0-4.806-2.214-4.806-4.94 0-3.16 2.403-5.05 5.13-5.05 1.458 0 2.943.513 4.131 1.54l3.321-3.484c-2.106-1.809-4.779-2.727-7.452-2.754z" fill="#09B45B"/></svg>