<svg width="146" height="32" viewBox="0 0 146 32" fill="none" xmlns="http://www.w3.org/2000/svg"><path d="M.32 2.432h3.456V12h1.84V2.432h3.456V.8H.32v1.632zm13.297 1.376c-1.344 0-2 .544-2.416 1.232l-.192-1.232H9.473V12h1.728V7.888c0-1.264.496-2.464 2.032-2.464h.768V3.808h-.384zm8.688 6.688c-.352 0-.528-.112-.528-.528v-3.28c0-1.936-1.248-2.976-3.424-2.976-2.064 0-3.44.992-3.616 2.592h1.696c.128-.72.816-1.2 1.84-1.2 1.136 0 1.792.56 1.792 1.472v.496H18c-2.288 0-3.504.944-3.504 2.624 0 1.52 1.248 2.4 3.04 2.4 1.328 0 2.16-.576 2.704-1.408 0 .816.384 1.312 1.504 1.312h.912v-1.504h-.352zm-2.24-1.856c-.016 1.264-.848 2.112-2.288 2.112-.944 0-1.52-.48-1.52-1.168 0-.832.592-1.232 1.664-1.232h2.144v.288zm9.694-3.696c-.527-.72-1.407-1.232-2.655-1.232-2.224 0-3.872 1.664-3.872 4.192 0 2.624 1.648 4.192 3.872 4.192 1.296 0 2.143-.608 2.672-1.328L29.983 12h1.505V.8h-1.729v4.144zm-2.367 5.696c-1.44 0-2.384-1.12-2.384-2.736 0-1.6.944-2.72 2.384-2.72s2.384 1.12 2.384 2.752c0 1.584-.945 2.704-2.384 2.704zm9.672 1.456c2.032 0 3.408-1.232 3.696-2.848h-1.728c-.24.912-1.008 1.44-2.064 1.44-1.36 0-2.24-.912-2.288-2.304v-.112h6.176c.032-.224.048-.448.048-.656-.048-2.4-1.632-3.904-4-3.904-2.416 0-4.032 1.68-4.032 4.208 0 2.512 1.616 4.176 4.192 4.176zm-2.32-5.088c.128-1.168 1.072-1.904 2.176-1.904 1.2 0 2.048.688 2.192 1.904h-4.368zm19.139 3.488c-.352 0-.528-.112-.528-.528v-3.28c0-1.936-1.248-2.976-3.424-2.976-2.064 0-3.44.992-3.616 2.592h1.696c.128-.72.816-1.2 1.84-1.2 1.136 0 1.792.56 1.792 1.472v.496h-2.064c-2.288 0-3.504.944-3.504 2.624 0 1.52 1.248 2.4 3.04 2.4 1.328 0 2.16-.576 2.704-1.408 0 .816.384 1.312 1.504 1.312h.912v-1.504h-.352zm-2.24-1.856c-.016 1.264-.848 2.112-2.288 2.112-.944 0-1.52-.48-1.52-1.168 0-.832.592-1.232 1.664-1.232h2.144v.288zm7.837-4.928c-1.28 0-2.064.576-2.576 1.28V.8h-1.728V12h1.728V7.856c0-1.648.832-2.656 2.192-2.656 1.28 0 1.968.832 1.968 2.384V12h1.728V7.44c0-2.736-1.488-3.728-3.312-3.728zm8.71 8.384c2.031 0 3.407-1.232 3.695-2.848h-1.728c-.24.912-1.008 1.44-2.064 1.44-1.36 0-2.24-.912-2.288-2.304v-.112h6.176c.032-.224.048-.448.048-.656-.048-2.4-1.632-3.904-4-3.904-2.416 0-4.032 1.68-4.032 4.208 0 2.512 1.616 4.176 4.192 4.176zm-2.32-5.088c.127-1.168 1.071-1.904 2.175-1.904 1.2 0 2.048.688 2.192 1.904H65.87zm15.044 3.488c-.352 0-.528-.112-.528-.528v-3.28c0-1.936-1.248-2.976-3.424-2.976-2.064 0-3.44.992-3.616 2.592h1.696c.128-.72.816-1.2 1.84-1.2 1.136 0 1.792.56 1.792 1.472v.496H76.61c-2.288 0-3.504.944-3.504 2.624 0 1.52 1.248 2.4 3.04 2.4 1.328 0 2.16-.576 2.704-1.408 0 .816.384 1.312 1.504 1.312h.912v-1.504h-.352zm-2.24-1.856c-.016 1.264-.848 2.112-2.288 2.112-.944 0-1.52-.48-1.52-1.168 0-.832.592-1.232 1.664-1.232h2.144v.288zm9.695-3.696c-.528-.72-1.408-1.232-2.656-1.232-2.224 0-3.872 1.664-3.872 4.192 0 2.624 1.648 4.192 3.872 4.192 1.296 0 2.144-.608 2.672-1.328L88.593 12h1.504V.8h-1.728v4.144zM86 10.64c-1.44 0-2.384-1.12-2.384-2.736 0-1.6.944-2.72 2.384-2.72s2.384 1.12 2.384 2.752c0 1.584-.944 2.704-2.384 2.704zm13.75 1.456c2.496 0 4.176-1.68 4.176-4.192 0-2.496-1.68-4.192-4.176-4.192-2.496 0-4.176 1.696-4.176 4.192 0 2.512 1.68 4.192 4.176 4.192zm0-1.472c-1.456 0-2.4-1.136-2.4-2.72 0-1.584.944-2.72 2.4-2.72s2.416 1.136 2.416 2.72c0 1.584-.96 2.72-2.416 2.72zm4.671-5.296h1.424V12h1.744V5.328h2.192v-1.52h-2.224V3.12c0-.56.24-.8.8-.8h1.424V.8h-1.648c-1.584 0-2.288.768-2.288 2.24v.768h-1.424v1.52zm14.668-1.616c-1.328 0-2.112.528-2.624 1.168l-.192-1.072h-1.504V12h1.728V7.872c0-1.664.816-2.672 2.192-2.672 1.296 0 1.952.832 1.952 2.384V12h1.744V7.44c0-2.736-1.488-3.728-3.296-3.728zm8.693 8.384c2.032 0 3.408-1.232 3.696-2.848h-1.728c-.24.912-1.008 1.44-2.064 1.44-1.36 0-2.24-.912-2.288-2.304v-.112h6.176c.032-.224.048-.448.048-.656-.048-2.4-1.632-3.904-4-3.904-2.416 0-4.032 1.68-4.032 4.208 0 2.512 1.616 4.176 4.192 4.176zm-2.32-5.088c.128-1.168 1.072-1.904 2.176-1.904 1.2 0 2.048.688 2.192 1.904h-4.368zM131.797 12h1.904l2.16-2.976L138.005 12h2.016l-3.088-4.192 2.912-4h-1.904l-2 2.768-1.952-2.768h-2.016l2.896 4L131.797 12zm9.768-2.224c0 1.488.672 2.224 2.24 2.224h1.6v-1.52h-1.216c-.656 0-.88-.24-.88-.88V5.328h2v-1.52h-2V1.52h-1.744v2.288h-1.424v1.52h1.424v4.448zM2.736 31h1.872L6.4 25.432 8.128 31h1.856l2.72-8.192h-1.76L9.008 29.08l-1.792-6.272H5.632L3.76 29.08l-1.872-6.272H.064L2.736 31zm14.484.096c2.032 0 3.408-1.232 3.696-2.848h-1.728c-.24.912-1.008 1.44-2.064 1.44-1.36 0-2.24-.912-2.288-2.304v-.112h6.176c.032-.224.048-.448.048-.656-.048-2.4-1.632-3.904-4-3.904-2.416 0-4.032 1.68-4.032 4.208 0 2.512 1.616 4.176 4.192 4.176zm-2.32-5.088c.128-1.168 1.072-1.904 2.176-1.904 1.2 0 2.048.688 2.192 1.904H14.9zm11.445 5.088c2.032 0 3.408-1.232 3.696-2.848h-1.728c-.24.912-1.008 1.44-2.064 1.44-1.36 0-2.24-.912-2.288-2.304v-.112h6.176c.032-.224.048-.448.048-.656-.048-2.4-1.632-3.904-4-3.904-2.416 0-4.032 1.68-4.032 4.208 0 2.512 1.616 4.176 4.192 4.176zm-2.32-5.088c.128-1.168 1.072-1.904 2.176-1.904 1.2 0 2.048.688 2.192 1.904h-4.368zM31.582 31h1.728v-2.08l1.472-1.536L37.198 31h2.048l-3.28-4.88 3.088-3.312h-2.032l-3.712 3.968V19.8h-1.728V31zm9.254-11.296c-.736 0-1.216.48-1.216 1.088 0 .672.416 1.024.944 1.024a.873.873 0 00.528-.176c.016.08.016.144.016.224 0 .56-.4 1.184-1.408 1.184v.944c1.583-.016 2.575-.896 2.575-2.448 0-1.04-.56-1.84-1.44-1.84zm2.16 8.592c.048 1.776 1.552 2.8 3.744 2.8 1.984 0 3.472-.992 3.472-2.56 0-1.824-1.52-2.208-3.392-2.432-1.184-.128-1.968-.224-1.968-.992 0-.656.672-1.072 1.696-1.072s1.728.528 1.824 1.28h1.696c-.112-1.68-1.536-2.608-3.552-2.608-1.968-.016-3.36.992-3.36 2.544 0 1.696 1.472 2.096 3.344 2.32 1.264.16 2.016.224 2.016 1.104 0 .656-.704 1.072-1.776 1.072-1.248 0-1.984-.608-2.048-1.456h-1.696zM55.821 31h1.84v-4.064h2.464L62.285 31h2.048l-2.368-4.464c1.312-.464 2.176-1.664 2.176-3.168 0-2.176-1.568-3.568-3.904-3.568H55.82V31zm4.272-9.6c1.312 0 2.16.768 2.16 1.968s-.848 1.968-2.16 1.968H57.66V21.4h2.432zM65.79 31h4.256c2.704 0 4.16-1.216 4.16-3.2 0-1.6-1.024-2.384-2.352-2.592 1.168-.32 1.92-1.12 1.92-2.448 0-1.84-1.408-2.96-3.872-2.96H65.79V31zm4.16-9.664c1.28 0 1.984.608 1.984 1.6 0 1.008-.72 1.616-1.984 1.616h-2.32v-3.216h2.32zm.112 4.736c1.424 0 2.256.608 2.256 1.712 0 1.04-.784 1.664-2.256 1.664H67.63v-3.376h2.432zM76.454 31l1.04-2.768h4.592L83.142 31h1.968l-4.176-11.2h-2.192L74.55 31h1.904zm3.328-9.216l1.792 4.88h-3.568l1.776-4.88zm14.714.928c-1.328 0-2.112.528-2.624 1.168l-.192-1.072h-1.504V31h1.728v-4.128c0-1.664.816-2.672 2.192-2.672 1.296 0 1.952.832 1.952 2.384V31h1.744v-4.56c0-2.736-1.488-3.728-3.296-3.728zm8.693 8.384c2.032 0 3.408-1.232 3.696-2.848h-1.728c-.24.912-1.008 1.44-2.064 1.44-1.36 0-2.24-.912-2.288-2.304v-.112h6.176c.032-.224.048-.448.048-.656-.048-2.4-1.632-3.904-4-3.904-2.416 0-4.032 1.68-4.032 4.208 0 2.512 1.616 4.176 4.192 4.176zm-2.32-5.088c.128-1.168 1.072-1.904 2.176-1.904 1.2 0 2.048.688 2.192 1.904h-4.368zM110.033 31h1.872l1.792-5.568L115.425 31h1.856l2.72-8.192h-1.76l-1.936 6.272-1.792-6.272h-1.584l-1.872 6.272-1.872-6.272h-1.824L110.033 31zm10.354-2.704c.048 1.776 1.552 2.8 3.744 2.8 1.984 0 3.472-.992 3.472-2.56 0-1.824-1.52-2.208-3.392-2.432-1.184-.128-1.968-.224-1.968-.992 0-.656.672-1.072 1.696-1.072s1.728.528 1.824 1.28h1.696c-.112-1.68-1.536-2.608-3.552-2.608-1.968-.016-3.36.992-3.36 2.544 0 1.696 1.472 2.096 3.344 2.32 1.264.16 2.016.224 2.016 1.104 0 .656-.704 1.072-1.776 1.072-1.248 0-1.984-.608-2.048-1.456h-1.696z" fill="#000"/></svg>