<svg width="160" height="32" viewBox="0 0 160 32" fill="none" xmlns="http://www.w3.org/2000/svg"><path d="M.69 7.775c.105 1.98 1.545 3.315 3.9 3.315 2.205 0 3.66-1.2 3.66-2.97 0-1.995-1.77-2.505-3.51-2.805-1.605-.27-3-.54-3-2.04 0-1.365 1.065-2.13 2.715-2.13 1.575 0 2.655.885 2.835 2.25h.825C7.965 1.595 6.6.41 4.455.41 2.325.41.93 1.535.93 3.32c0 1.995 1.71 2.445 3.39 2.73 1.65.285 3.12.615 3.12 2.145 0 1.35-1.14 2.16-2.835 2.16-1.77 0-2.97-1.02-3.075-2.58H.69zm12.52 3.315c1.665 0 2.94-1.08 3.27-2.61h-.78c-.3 1.185-1.305 1.92-2.55 1.92-1.695 0-2.76-1.29-2.79-3.06v-.135h6.21c0-.105.015-.225.015-.315-.075-2.265-1.47-3.585-3.51-3.585-2.085 0-3.51 1.59-3.51 3.84 0 2.385 1.485 3.945 3.645 3.945zm-2.79-4.53c.12-1.545 1.275-2.58 2.67-2.58 1.485 0 2.55.915 2.67 2.58h-5.34zm8.067-4.77c.3 0 .54-.225.54-.54 0-.315-.24-.54-.54-.54-.3 0-.54.225-.54.54 0 .315.24.54.54.54zm-.39 9.21h.765V3.395h-.765V11zm2.204-6.9h4.89l-5.1 6.3v.6h6.33v-.705h-5.325L26.21 3.98v-.585H20.3V4.1zm10.253 6.99c1.665 0 2.94-1.08 3.27-2.61h-.78c-.3 1.185-1.305 1.92-2.55 1.92-1.695 0-2.76-1.29-2.79-3.06v-.135h6.21c0-.105.015-.225.015-.315-.075-2.265-1.47-3.585-3.51-3.585-2.085 0-3.51 1.59-3.51 3.84 0 2.385 1.485 3.945 3.645 3.945zm-2.79-4.53c.12-1.545 1.275-2.58 2.67-2.58 1.485 0 2.55.915 2.67 2.58h-5.34zm15.08 4.53c2.145 0 3.66-1.59 3.66-3.9 0-2.295-1.515-3.885-3.66-3.885-2.145 0-3.645 1.59-3.645 3.885 0 2.31 1.5 3.9 3.645 3.9zm0-.69c-1.695 0-2.865-1.32-2.865-3.21 0-1.875 1.17-3.21 2.865-3.21 1.695 0 2.865 1.335 2.865 3.21 0 1.89-1.17 3.21-2.865 3.21zm8.69-7.095c-1.395 0-2.295.72-2.73 1.71l-.12-1.62h-.66V11h.765V7.25c0-1.98 1.005-3.24 2.625-3.24 1.47 0 2.355.96 2.355 2.76V11h.765V6.74c0-2.4-1.275-3.435-3-3.435zM63.63 11.09c2.145 0 3.66-1.59 3.66-3.9 0-2.295-1.515-3.885-3.66-3.885-2.145 0-3.645 1.59-3.645 3.885 0 2.31 1.5 3.9 3.645 3.9zm0-.69c-1.695 0-2.865-1.32-2.865-3.21 0-1.875 1.17-3.21 2.865-3.21 1.695 0 2.865 1.335 2.865 3.21 0 1.89-1.17 3.21-2.865 3.21zm8.855-7.095c-1.425 0-2.415.765-2.895 1.83l-.12-1.74h-.66V14h.765V9.245c.435 1.11 1.47 1.845 2.91 1.845 2.085 0 3.585-1.59 3.585-3.9 0-2.385-1.5-3.885-3.585-3.885zm-.06 7.095c-1.695 0-2.865-1.32-2.865-3.225 0-1.86 1.17-3.195 2.865-3.195 1.695 0 2.865 1.335 2.865 3.21 0 1.89-1.17 3.21-2.865 3.21zm8.835-7.095c-1.425 0-2.415.765-2.895 1.83l-.12-1.74h-.66V14h.765V9.245c.435 1.11 1.47 1.845 2.91 1.845 2.085 0 3.585-1.59 3.585-3.9 0-2.385-1.5-3.885-3.585-3.885zM81.2 10.4c-1.695 0-2.865-1.32-2.865-3.225 0-1.86 1.17-3.195 2.865-3.195 1.695 0 2.865 1.335 2.865 3.21 0 1.89-1.17 3.21-2.865 3.21zm8.519.69c2.145 0 3.66-1.59 3.66-3.9 0-2.295-1.515-3.885-3.66-3.885-2.145 0-3.645 1.59-3.645 3.885 0 2.31 1.5 3.9 3.645 3.9zm0-.69c-1.695 0-2.865-1.32-2.865-3.21 0-1.875 1.17-3.21 2.865-3.21 1.695 0 2.865 1.335 2.865 3.21 0 1.89-1.17 3.21-2.865 3.21zm8.285-7.005c-1.41 0-2.01.675-2.325 1.515l-.12-1.515h-.66V11h.765V7.145c0-1.545.405-3.015 2.19-3.015h.555v-.735h-.405zm2.314 5.835c0 1.215.495 1.77 1.785 1.77h1.11v-.705h-1.05c-.795 0-1.08-.3-1.08-1.08V4.1h2.055v-.705h-2.055v-2.13h-.765v2.13h-1.44V4.1h1.44v5.13zm9.579-2.1c0 1.995-.99 3.255-2.565 3.255-1.41 0-2.28-.96-2.28-2.775V3.395h-.765v4.26c0 2.385 1.245 3.435 2.925 3.435 1.35 0 2.235-.72 2.67-1.695l.105 1.605h.675V3.395h-.765V7.13zm6.075-3.825c-1.394 0-2.294.72-2.729 1.71l-.12-1.62h-.66V11h.765V7.25c0-1.98 1.005-3.24 2.625-3.24 1.47 0 2.355.96 2.355 2.76V11h.765V6.74c0-2.4-1.275-3.435-3.001-3.435zm5.084-1.515c.3 0 .54-.225.54-.54 0-.315-.24-.54-.54-.54-.3 0-.54.225-.54.54 0 .315.24.54.54.54zm-.39 9.21h.765V3.395h-.765V11zm3.133-1.77c0 1.215.495 1.77 1.785 1.77h1.11v-.705h-1.05c-.795 0-1.08-.3-1.08-1.08V4.1h2.055v-.705h-2.055v-2.13h-.765v2.13h-1.44V4.1h1.44v5.13zm4.449-7.44c.3 0 .54-.225.54-.54 0-.315-.24-.54-.54-.54-.3 0-.54.225-.54.54 0 .315.24.54.54.54zm-.39 9.21h.765V3.395h-.765V11zm5.923.09c1.665 0 2.94-1.08 3.27-2.61h-.78c-.3 1.185-1.305 1.92-2.55 1.92-1.695 0-2.76-1.29-2.79-3.06v-.135h6.21c0-.105.015-.225.015-.315-.075-2.265-1.47-3.585-3.51-3.585-2.085 0-3.51 1.59-3.51 3.84 0 2.385 1.485 3.945 3.645 3.945zm-2.79-4.53c.12-1.545 1.275-2.58 2.67-2.58 1.485 0 2.55.915 2.67 2.58h-5.34zm7.318 2.1c.06 1.575 1.335 2.43 3.24 2.43 1.635 0 2.955-.825 2.955-2.175 0-1.605-1.41-1.92-3.045-2.145-1.185-.165-2.235-.3-2.235-1.365 0-.87.855-1.44 2.145-1.44 1.215 0 2.085.585 2.22 1.575h.78c-.135-1.485-1.35-2.235-3-2.235-1.695-.015-2.91.855-2.91 2.16 0 1.53 1.41 1.815 2.97 2.025 1.275.18 2.31.345 2.31 1.47 0 .9-.945 1.47-2.19 1.47-1.455 0-2.4-.675-2.46-1.77h-.78zm12.087-6.87c.3 0 .54-.225.54-.54 0-.315-.24-.54-.54-.54-.3 0-.54.225-.54.54 0 .315.24.54.54.54zm-.39 9.21h.765V3.395h-.765V11zm6.074-7.695c-1.395 0-2.295.72-2.73 1.71l-.12-1.62h-.66V11h.765V7.25c0-1.98 1.005-3.24 2.625-3.24 1.47 0 2.355.96 2.355 2.76V11h.765V6.74c0-2.4-1.275-3.435-3-3.435zM1.095 30l1.26-3.21h4.83L8.445 30h.87l-4.05-10.5H4.32L.255 30h.84zm3.675-9.6l2.175 5.64h-4.35L4.77 20.4zm5.318 5.265c0 2.925 1.245 4.425 3.825 4.425 2.595 0 3.855-1.5 3.855-4.425V19.5h-.81v6.21c0 2.415-.93 3.63-3.045 3.63-2.085 0-3.015-1.215-3.015-3.63V19.5h-.81v6.165zM22.948 30c3.33 0 5.28-2.07 5.28-5.25 0-3.195-1.95-5.25-5.28-5.25h-3.06V30h3.06zm-2.25-9.75h2.25c2.866 0 4.456 1.74 4.456 4.5 0 2.745-1.59 4.5-4.455 4.5h-2.25v-9zm8.505 11.7l4.245-12.9h-.765l-4.245 12.9h.765zm5.538-6.285c0 2.925 1.245 4.425 3.825 4.425 2.595 0 3.855-1.5 3.855-4.425V19.5h-.81v6.21c0 2.415-.93 3.63-3.045 3.63-2.085 0-3.015-1.215-3.015-3.63V19.5h-.81v6.165zm9.41 1.11c.106 1.98 1.546 3.315 3.9 3.315 2.206 0 3.66-1.2 3.66-2.97 0-1.995-1.77-2.505-3.51-2.805-1.604-.27-3-.54-3-2.04 0-1.365 1.066-2.13 2.716-2.13 1.575 0 2.655.885 2.835 2.25h.825c-.15-1.8-1.515-2.985-3.66-2.985-2.13 0-3.525 1.125-3.525 2.91 0 1.995 1.71 2.445 3.39 2.73 1.65.285 3.12.615 3.12 2.145 0 1.35-1.14 2.16-2.835 2.16-1.77 0-2.97-1.02-3.075-2.58h-.84zM56.553 30c3.33 0 5.28-2.07 5.28-5.25 0-3.195-1.95-5.25-5.28-5.25h-3.06V30h3.06zm-2.25-9.75h2.25c2.865 0 4.455 1.74 4.455 4.5 0 2.745-1.59 4.5-4.455 4.5h-2.25v-9z" fill="#000"/></svg>