<svg width="300" height="48" viewBox="0 0 300 48" fill="none" xmlns="http://www.w3.org/2000/svg"><path fill="#fff" d="M0 0h300v48H0z"/><path d="M76 13.494h16.734v5.105H81.808v3.557h9.876v4.84h-9.876v7.477H76V13.494z" fill="#12225C"/><path fill-rule="evenodd" clip-rule="evenodd" d="M121.44 13.494h10.013c3.227 0 5.489.856 6.92 2.273 1.23 1.185 1.863 2.832 1.863 4.874v.066c0 3.194-1.73 5.335-4.358 6.454l5.056 7.312h-6.786l-4.258-6.356h-2.595v6.356h-5.888V13.494h.033zm9.747 10.078c1.996 0 3.161-.955 3.161-2.503v-.066c0-1.647-1.198-2.503-3.194-2.503h-3.859v5.039h3.892v.033z" fill="#12225C"/><path d="M142.981 13.494h16.833v4.94h-11.09v3.195h10.04v4.577h-10.04v3.327h11.222v4.94h-16.965V13.494zM169.035 23.802l-6.891-10.308h6.661l3.708 5.895 3.74-5.895h6.497l-6.858 10.242 7.186 10.737h-6.661l-4.003-6.323-4.036 6.323h-6.529l7.186-10.67zM188.755 24.526c0-2.404 1.838-4.413 4.463-4.413 1.706 0 2.854.758 3.576 1.878l-2.001 1.482c-.394-.56-.854-.89-1.543-.89-.951 0-1.64.824-1.64 1.845v.033c0 1.087.689 1.91 1.673 1.91.689 0 1.149-.33 1.608-.856l1.969 1.416c-.788 1.152-1.87 1.91-3.708 1.91-2.559.033-4.397-1.943-4.397-4.315" fill="#12225C"/><path fill-rule="evenodd" clip-rule="evenodd" d="M198.617 24.526c0-2.404 1.962-4.413 4.69-4.413 2.695 0 4.657 1.977 4.657 4.348v.033c0 2.37-1.962 4.38-4.69 4.38-2.695 0-4.657-1.976-4.657-4.348m6.453 0c0-1.053-.765-1.91-1.796-1.91-1.065 0-1.763.857-1.763 1.845v.033c0 1.02.765 1.877 1.796 1.877 1.098 0 1.763-.856 1.763-1.844" fill="#12225C"/><path d="M209.547 20.278h2.92v1.153c.525-.692 1.313-1.318 2.494-1.318 1.116 0 1.969.494 2.395 1.35.722-.823 1.575-1.35 2.789-1.35 1.772 0 2.855 1.12 2.855 3.063v5.5h-2.92V24.1c0-.923-.46-1.384-1.149-1.384-.689 0-1.214.494-1.214 1.384v4.544h-2.887V24.1c0-.923-.46-1.384-1.149-1.384-.689 0-1.181.494-1.181 1.384v4.544h-2.92v-8.365h-.033z" fill="#12225C"/><path fill-rule="evenodd" clip-rule="evenodd" d="M116.351 23.934c0-.211-.004-.42-.012-.626h2.507l.665-1.91h-3.376C115.208 16.173 111.33 13 105.473 13c-6.587 0-10.844 4.347-10.844 11.066 0 6.784 4.124 10.967 10.844 10.934 5.477 0 9.364-2.985 10.519-7.871h2.288l.699-1.91h-2.683c.036-.418.055-.846.055-1.285zm-10.745 8.036c-3.393 0-4.724-3.557-4.724-7.97s1.065-7.937 4.491-7.97c2.696 0 4.088 2.225 4.548 5.368h-2.918l-.665 1.91h3.747a22.492 22.492 0 01-.017 1.91h-3.597l-.699 1.91h4.104c-.461 2.863-1.702 4.842-4.27 4.842z" fill="#14964F"/><path d="M184.687 27.096c0-.429.164-.758.459-1.087a1.485 1.485 0 011.083-.462c.426 0 .787.165 1.083.462.295.296.459.658.459 1.087 0 .428-.164.79-.459 1.086-.296.297-.657.428-1.083.428-.427 0-.788-.131-1.083-.428-.328-.263-.459-.625-.459-1.086" fill="#12225C"/></svg>