<svg width="251" height="225" viewBox="0 0 251 225" fill="none" xmlns="http://www.w3.org/2000/svg"><path d="M6.048 27.028L9.632 27l4.34-14.728L18.06 27h3.612L27.44 7.54h-3.416l-4.06 15.764-4.06-15.764H12.32L7.952 23.388 3.92 7.54H.532l5.516 19.488zM30.073 27h3.192v-8.624c0-2.828 1.54-4.284 3.892-4.284 2.324 0 3.864 1.456 3.864 4.284V27h3.164v-9.1c0-4.312-2.688-6.58-6.132-6.58-1.988 0-3.724.756-4.788 2.044V6.28h-3.192V27zm18.183 0h3.192V11.572h-3.192V27zM49.88 9.528c1.12 0 2.016-.896 2.016-2.044 0-1.148-.896-2.044-2.016-2.044a2.02 2.02 0 00-2.044 2.044 2.02 2.02 0 002.044 2.044zm4.695 9.744c0 4.844 3.136 7.98 7.56 7.98 3.78 0 6.244-2.1 7.112-5.124h-3.444c-.588 1.596-1.764 2.436-3.668 2.436-2.576 0-4.284-1.904-4.284-5.292 0-3.36 1.708-5.264 4.284-5.264 1.904 0 3.136.952 3.668 2.436h3.444c-.868-3.248-3.332-5.124-7.112-5.124-4.424 0-7.56 3.136-7.56 7.952zM72.428 27h3.192v-8.624c0-2.828 1.54-4.284 3.892-4.284 2.324 0 3.864 1.456 3.864 4.284V27h3.164v-9.1c0-4.312-2.688-6.58-6.132-6.58-1.988 0-3.724.756-4.788 2.044V6.28h-3.192V27zm36.965-4.312c-.168-5.572-8.876-3.836-8.876-6.944 0-1.036.896-1.736 2.604-1.736 1.736 0 2.772.924 2.884 2.268h3.192c-.168-3.08-2.464-4.956-5.964-4.956-3.64 0-5.936 1.988-5.936 4.452 0 5.656 8.96 3.92 8.96 6.944 0 1.064-.98 1.848-2.828 1.848-1.764 0-2.968-1.036-3.08-2.296h-3.304c.14 2.8 2.744 4.984 6.44 4.984 3.64 0 5.908-1.96 5.908-4.564zM112.842 27h3.192V11.572h-3.192V27zm1.624-17.472c1.12 0 2.016-.896 2.016-2.044 0-1.148-.896-2.044-2.016-2.044a2.02 2.02 0 00-2.044 2.044 2.02 2.02 0 002.044 2.044zm4.695 9.688c0 4.76 3.22 8.036 7.28 8.036 2.52 0 4.368-1.176 5.348-2.576V27h3.22V6.28h-3.22v7.448c-1.176-1.456-3.304-2.408-5.32-2.408-4.088 0-7.308 3.136-7.308 7.896zm12.628.056c0 3.332-2.268 5.208-4.676 5.208-2.38 0-4.676-1.932-4.676-5.264 0-3.332 2.296-5.124 4.676-5.124 2.408 0 4.676 1.876 4.676 5.18zm13.909-5.264c2.38 0 4.256 1.512 4.312 3.892h-8.54c.336-2.436 2.072-3.892 4.228-3.892zm7.224 8.4h-3.444c-.588 1.204-1.68 2.156-3.64 2.156-2.352 0-4.172-1.54-4.396-4.088h11.788a9.847 9.847 0 00.112-1.568c0-4.536-3.108-7.588-7.504-7.588-4.564 0-7.7 3.108-7.7 7.952 0 4.844 3.276 7.98 7.7 7.98 3.78 0 6.216-2.156 7.084-4.844zm25.534-3.136c0-4.844-3.472-7.952-7.868-7.952-4.396 0-7.868 3.108-7.868 7.952 0 4.844 3.332 7.98 7.728 7.98 4.424 0 8.008-3.136 8.008-7.98zm-12.488 0c0-3.5 2.156-5.18 4.564-5.18 2.38 0 4.648 1.68 4.648 5.18s-2.352 5.208-4.732 5.208c-2.408 0-4.48-1.708-4.48-5.208zM182.004 27h3.22V14.176h2.856v-2.604h-2.856V10.48c0-1.764.672-2.436 2.632-2.436v-2.66c-4.032 0-5.852 1.54-5.852 5.096v1.092h-1.82v2.604h1.82V27zM6.048 61.028L9.632 61l4.34-14.728L18.06 61h3.612l5.768-19.46h-3.416l-4.06 15.764-4.06-15.764H12.32L7.952 57.388 3.92 41.54H.532l5.516 19.488zm22.96-7.812c0 4.76 3.22 8.036 7.225 8.036 2.576 0 4.424-1.232 5.404-2.548V61h3.22V45.572h-3.22v2.24c-.952-1.26-2.744-2.492-5.348-2.492-4.06 0-7.28 3.136-7.28 7.896zm12.629.056c0 3.332-2.268 5.208-4.676 5.208-2.38 0-4.676-1.932-4.676-5.264 0-3.332 2.296-5.124 4.676-5.124 2.408 0 4.676 1.876 4.676 5.18zM49.049 61h3.192V40.28H49.05V61zm7.383 0h3.192V40.28h-3.192V61zm27.788-5.516c0-7.112-10.304-4.368-10.304-8.764 0-1.876 1.428-2.772 3.276-2.716 2.016.056 3.164 1.26 3.276 2.576h3.528c-.28-3.332-2.912-5.292-6.636-5.292-3.976 0-6.692 2.128-6.692 5.544C70.668 54 81 50.948 81 55.652c0 1.652-1.26 2.856-3.5 2.856-2.212 0-3.332-1.288-3.472-2.884h-3.416c0 3.444 2.996 5.572 6.888 5.572 4.34 0 6.72-2.8 6.72-5.712zm4.27 1.232C88.49 59.852 90.2 61 92.944 61h2.52v-2.66h-1.96c-1.344 0-1.792-.476-1.792-1.624v-8.54h3.752v-2.604H91.71v-3.836h-3.22v3.836h-1.82v2.604h1.82v8.54zm13.107-3.836c0-3.276 1.456-4.256 3.808-4.256h.812V45.32c-2.184 0-3.724.952-4.62 2.492v-2.24h-3.192V61h3.192v-8.12zm14.05-4.872c2.38 0 4.256 1.512 4.312 3.892h-8.54c.336-2.436 2.072-3.892 4.228-3.892zm7.224 8.4h-3.444c-.588 1.204-1.68 2.156-3.64 2.156-2.352 0-4.172-1.54-4.396-4.088h11.788a9.847 9.847 0 00.112-1.568c0-4.536-3.108-7.588-7.504-7.588-4.564 0-7.7 3.108-7.7 7.952 0 4.844 3.276 7.98 7.7 7.98 3.78 0 6.216-2.156 7.084-4.844zm10.057-8.4c2.38 0 4.256 1.512 4.312 3.892h-8.54c.336-2.436 2.072-3.892 4.228-3.892zm7.224 8.4h-3.444c-.588 1.204-1.68 2.156-3.64 2.156-2.352 0-4.172-1.54-4.396-4.088h11.788a9.847 9.847 0 00.112-1.568c0-4.536-3.108-7.588-7.504-7.588-4.564 0-7.7 3.108-7.7 7.952 0 4.844 3.276 7.98 7.7 7.98 3.78 0 6.216-2.156 7.084-4.844zm4.065.308c0 3.136 1.708 4.284 4.452 4.284h2.52v-2.66h-1.96c-1.344 0-1.792-.476-1.792-1.624v-8.54h3.752v-2.604h-3.752v-3.836h-3.22v3.836h-1.82v2.604h1.82v8.54zM164.401 61h3.36l3.108-11.396L173.977 61h3.36l4.788-15.428h-3.136l-3.192 12.348-3.136-12.348h-3.332l-3.276 12.404-3.22-12.404h-3.248L164.401 61zm20.109 0h3.192V45.572h-3.192V61zm1.624-17.472c1.12 0 2.016-.896 2.016-2.044 0-1.148-.896-2.044-2.016-2.044a2.02 2.02 0 00-2.044 2.044 2.02 2.02 0 002.044 2.044zM191.893 61h3.192V40.28h-3.192V61zm7.383 0h3.192V40.28h-3.192V61zM8.176 91.332l-4.34-11.76H.28l6.076 15.176-3.136 7.504h3.304l9.464-22.68h-3.304l-4.508 11.76zm24.92-4.06c0-4.844-3.471-7.952-7.867-7.952s-7.868 3.108-7.868 7.952c0 4.844 3.332 7.98 7.728 7.98 4.424 0 8.008-3.136 8.008-7.98zm-12.487 0c0-3.5 2.156-5.18 4.564-5.18 2.38 0 4.648 1.68 4.648 5.18s-2.352 5.208-4.732 5.208c-2.408 0-4.48-1.708-4.48-5.208zm29.615-7.7h-3.192v8.596c0 2.828-1.54 4.284-3.892 4.284-2.324 0-3.864-1.456-3.864-4.284v-8.596h-3.164v9.072c0 4.312 2.744 6.58 6.356 6.58 1.82 0 3.556-.756 4.564-2.072V95h3.192V79.572zm11.99 11.144c0 3.136 1.707 4.284 4.451 4.284h2.52v-2.66h-1.96c-1.344 0-1.792-.476-1.792-1.624v-8.54h3.752v-2.604h-3.752v-3.836h-3.22v3.836h-1.82v2.604h1.82v8.54zm8.85-3.5c0 4.76 3.22 8.036 7.223 8.036 2.576 0 4.424-1.232 5.404-2.548V95h3.22V79.572h-3.22v2.24c-.952-1.26-2.744-2.492-5.348-2.492-4.06 0-7.28 3.136-7.28 7.896zm12.627.056c0 3.332-2.268 5.208-4.676 5.208-2.38 0-4.676-1.932-4.676-5.264 0-3.332 2.296-5.124 4.676-5.124 2.408 0 4.676 1.876 4.676 5.18zM91.104 95h3.192v-6.636L100.008 95h4.312l-7.112-7.7 7.112-7.728h-4.424l-5.6 6.748V74.28h-3.192V95zm22-12.992c2.38 0 4.256 1.512 4.312 3.892h-8.54c.336-2.436 2.072-3.892 4.228-3.892zm7.224 8.4h-3.444c-.588 1.204-1.68 2.156-3.64 2.156-2.352 0-4.172-1.54-4.396-4.088h11.788a9.847 9.847 0 00.112-1.568c0-4.536-3.108-7.588-7.504-7.588-4.564 0-7.7 3.108-7.7 7.952 0 4.844 3.276 7.98 7.7 7.98 3.78 0 6.216-2.156 7.084-4.844zm2.581-9.38h2.996c0-1.96 1.26-3.08 3.248-3.08 2.016 0 3.22 1.204 3.22 3.164 0 2.94-2.436 3.5-5.6 3.5h-.924l.14 4.396h2.772l.112-2.212c3.752 0 6.552-1.736 6.552-5.684 0-3.64-2.548-5.852-6.3-5.852-3.808 0-6.244 2.38-6.216 5.768zm6.44 12.124c0-1.148-.896-2.044-2.016-2.044a2.02 2.02 0 00-2.044 2.044 2.02 2.02 0 002.044 2.044c1.12 0 2.016-.896 2.016-2.044zM10.08 121.08a3.763 3.763 0 00-1.472-1.728c-.65-.427-1.419-.64-2.304-.64-.832 0-1.579.192-2.24.576a4.1 4.1 0 00-1.568 1.648c-.384.704-.576 1.525-.576 2.464 0 .939.192 1.765.576 2.48a4.1 4.1 0 001.568 1.648c.661.384 1.408.576 2.24.576.779 0 1.477-.165 2.096-.496a3.896 3.896 0 001.504-1.44c.384-.629.603-1.36.656-2.192H5.856v-.912h5.888v.816a5.714 5.714 0 01-.8 2.672 5.263 5.263 0 01-1.936 1.872c-.8.459-1.701.688-2.704.688-1.035 0-1.973-.24-2.816-.72a5.383 5.383 0 01-2-2.032c-.48-.875-.72-1.861-.72-2.96s.24-2.08.72-2.944a5.231 5.231 0 012-2.032c.843-.491 1.781-.736 2.816-.736 1.195 0 2.24.299 3.136.896.896.597 1.547 1.429 1.952 2.496H10.08zm7.54 8.048c-.822 0-1.563-.181-2.224-.544a4.133 4.133 0 01-1.552-1.568c-.374-.683-.56-1.477-.56-2.384 0-.907.192-1.696.576-2.368a3.96 3.96 0 011.568-1.568c.661-.373 1.402-.56 2.224-.56.821 0 1.562.187 2.224.56a3.829 3.829 0 011.568 1.568c.384.672.576 1.461.576 2.368 0 .896-.192 1.685-.576 2.368a4.035 4.035 0 01-1.584 1.584c-.672.363-1.419.544-2.24.544zm0-.976c.576 0 1.109-.128 1.6-.384.49-.267.885-.661 1.184-1.184.309-.533.464-1.184.464-1.952s-.15-1.413-.448-1.936c-.299-.533-.694-.928-1.184-1.184a3.293 3.293 0 00-1.6-.4c-.576 0-1.11.133-1.6.4-.491.256-.886.651-1.184 1.184-.288.523-.432 1.168-.432 1.936s.144 1.419.432 1.952c.298.523.688.917 1.168 1.184.49.256 1.024.384 1.6.384zm11.952-10.992V129h-1.12v-11.84h1.12zm6.36 11.968c-.821 0-1.563-.181-2.224-.544a4.133 4.133 0 01-1.552-1.568c-.373-.683-.56-1.477-.56-2.384 0-.907.192-1.696.576-2.368a3.96 3.96 0 011.568-1.568c.661-.373 1.403-.56 2.224-.56.822 0 1.563.187 2.224.56a3.829 3.829 0 011.568 1.568c.384.672.576 1.461.576 2.368 0 .896-.192 1.685-.576 2.368a4.035 4.035 0 01-1.584 1.584c-.672.363-1.418.544-2.24.544zm0-.976c.576 0 1.11-.128 1.6-.384.49-.267.886-.661 1.184-1.184.31-.533.464-1.184.464-1.952s-.15-1.413-.448-1.936c-.298-.533-.693-.928-1.184-1.184a3.293 3.293 0 00-1.6-.4c-.576 0-1.11.133-1.6.4-.49.256-.885.651-1.184 1.184-.288.523-.432 1.168-.432 1.936s.144 1.419.432 1.952c.299.523.688.917 1.168 1.184.49.256 1.024.384 1.6.384zm10.538-8.048c1.045 0 1.898.325 2.56.976.661.64.992 1.573.992 2.8V129h-1.104v-4.992c0-.949-.24-1.675-.72-2.176-.47-.501-1.115-.752-1.936-.752-.843 0-1.515.267-2.016.8-.502.533-.752 1.317-.752 2.352V129h-1.12v-8.736h1.12v1.488a2.81 2.81 0 011.2-1.216c.522-.288 1.114-.432 1.776-.432zm9.693.032c.821 0 1.536.192 2.144.576.608.384 1.045.869 1.312 1.456v-1.904h1.12v8.96c0 .8-.176 1.509-.528 2.128a3.495 3.495 0 01-1.44 1.424c-.619.341-1.323.512-2.112.512-1.12 0-2.054-.267-2.8-.8-.736-.533-1.195-1.259-1.376-2.176h1.104a2.7 2.7 0 001.088 1.456c.544.363 1.205.544 1.984.544.565 0 1.072-.123 1.52-.368.448-.235.8-.587 1.056-1.056.256-.469.384-1.024.384-1.664v-2.16c-.278.597-.72 1.093-1.328 1.488-.598.384-1.307.576-2.128.576-.8 0-1.52-.187-2.16-.56a3.947 3.947 0 01-1.488-1.584c-.352-.683-.528-1.472-.528-2.368 0-.896.176-1.68.528-2.352a3.84 3.84 0 011.488-1.568c.64-.373 1.36-.56 2.16-.56zm3.456 4.496c0-.704-.144-1.323-.432-1.856a3.068 3.068 0 00-1.184-1.232 3.165 3.165 0 00-1.632-.432c-.619 0-1.174.139-1.664.416-.49.277-.88.683-1.168 1.216-.278.523-.416 1.147-.416 1.872 0 .715.138 1.344.416 1.888.288.533.677.944 1.168 1.232.49.277 1.045.416 1.664.416.597 0 1.141-.144 1.632-.432a3.068 3.068 0 001.184-1.232c.288-.533.432-1.152.432-1.856zm11.891 4.496c-.821 0-1.562-.181-2.224-.544a4.132 4.132 0 01-1.552-1.568c-.373-.683-.56-1.477-.56-2.384 0-.907.192-1.696.576-2.368a3.959 3.959 0 011.568-1.568c.662-.373 1.403-.56 2.224-.56.822 0 1.563.187 2.224.56a3.83 3.83 0 011.568 1.568c.384.672.576 1.461.576 2.368 0 .896-.192 1.685-.576 2.368a4.035 4.035 0 01-1.584 1.584c-.672.363-1.418.544-2.24.544zm0-.976c.576 0 1.11-.128 1.6-.384a3.01 3.01 0 001.184-1.184c.31-.533.464-1.184.464-1.952s-.15-1.413-.448-1.936c-.298-.533-.693-.928-1.184-1.184a3.294 3.294 0 00-1.6-.4c-.576 0-1.11.133-1.6.4-.49.256-.885.651-1.184 1.184-.288.523-.432 1.168-.432 1.936s.144 1.419.432 1.952a3.04 3.04 0 001.168 1.184c.49.256 1.024.384 1.6.384zm7.562-6.336a2.75 2.75 0 011.12-1.264c.512-.299 1.136-.448 1.872-.448v1.168h-.304c-.81 0-1.462.219-1.952.656-.49.437-.736 1.168-.736 2.192V129h-1.12v-8.736h1.12v1.552zm12.075 7.312c-1.002 0-1.824-.229-2.464-.688-.629-.469-.981-1.104-1.056-1.904h1.152c.054.491.283.891.688 1.2.416.299.971.448 1.664.448.608 0 1.083-.144 1.424-.432.352-.288.528-.645.528-1.072a.996.996 0 00-.288-.736 1.954 1.954 0 00-.736-.448 9.562 9.562 0 00-1.184-.368 12.118 12.118 0 01-1.584-.512 2.804 2.804 0 01-1.04-.752c-.277-.341-.416-.795-.416-1.36 0-.427.128-.821.384-1.184s.619-.651 1.088-.864c.47-.213 1.003-.32 1.6-.32.939 0 1.696.24 2.272.72.576.469.886 1.12.928 1.952h-1.12c-.032-.512-.234-.923-.608-1.232-.362-.32-.864-.48-1.504-.48-.565 0-1.024.133-1.376.4-.352.267-.528.597-.528.992 0 .341.102.624.304.848.214.213.475.384.784.512.31.117.726.251 1.248.4.63.171 1.131.336 1.504.496.374.16.694.395.96.704.267.309.406.72.416 1.232 0 .469-.128.891-.384 1.264-.256.363-.613.651-1.072.864-.458.213-.986.32-1.584.32zm9.309-9.024c.661 0 1.253.139 1.776.416.533.277.949.704 1.248 1.28.309.565.464 1.259.464 2.08V129h-1.104v-4.992c0-.949-.24-1.675-.72-2.176-.47-.501-1.115-.752-1.936-.752-.843 0-1.515.267-2.016.8-.502.533-.752 1.317-.752 2.352V129h-1.12v-11.84h1.12v4.592a2.905 2.905 0 011.216-1.216 3.838 3.838 0 011.824-.432zm9.789 9.024c-.822 0-1.563-.181-2.224-.544a4.13 4.13 0 01-1.552-1.568c-.374-.683-.56-1.477-.56-2.384 0-.907.192-1.696.576-2.368a3.955 3.955 0 011.568-1.568c.661-.373 1.402-.56 2.224-.56.821 0 1.562.187 2.224.56a3.833 3.833 0 011.568 1.568c.384.672.576 1.461.576 2.368 0 .896-.192 1.685-.576 2.368a4.035 4.035 0 01-1.584 1.584c-.672.363-1.419.544-2.24.544zm0-.976c.576 0 1.109-.128 1.6-.384.49-.267.885-.661 1.184-1.184.309-.533.464-1.184.464-1.952s-.15-1.413-.448-1.936c-.299-.533-.694-.928-1.184-1.184a3.294 3.294 0 00-1.6-.4c-.576 0-1.11.133-1.6.4-.491.256-.886.651-1.184 1.184-.288.523-.432 1.168-.432 1.936s.144 1.419.432 1.952c.298.523.688.917 1.168 1.184.49.256 1.024.384 1.6.384zm7.561-6.336a2.757 2.757 0 011.12-1.264c.512-.299 1.136-.448 1.872-.448v1.168h-.304c-.81 0-1.461.219-1.952.656-.49.437-.736 1.168-.736 2.192V129h-1.12v-8.736h1.12v1.552zm6.133-.608v5.424c0 .533.101.901.304 1.104.203.203.56.304 1.072.304h1.024v.96h-1.2c-.789 0-1.376-.181-1.76-.544-.384-.373-.576-.981-.576-1.824v-5.424h-1.216v-.944h1.216v-2.192h1.136v2.192h2.4v.944h-2.4zm12.462 7.92c-.821 0-1.563-.181-2.224-.544a4.13 4.13 0 01-1.552-1.568c-.373-.683-.56-1.477-.56-2.384 0-.907.192-1.696.576-2.368a3.962 3.962 0 011.568-1.568c.661-.373 1.403-.56 2.224-.56.821 0 1.563.187 2.224.56a3.827 3.827 0 011.568 1.568c.384.672.576 1.461.576 2.368 0 .896-.192 1.685-.576 2.368a4.035 4.035 0 01-1.584 1.584c-.672.363-1.419.544-2.24.544zm0-.976c.576 0 1.109-.128 1.6-.384a3.008 3.008 0 001.184-1.184c.309-.533.464-1.184.464-1.952s-.149-1.413-.448-1.936c-.299-.533-.693-.928-1.184-1.184a3.294 3.294 0 00-1.6-.4c-.576 0-1.109.133-1.6.4-.491.256-.885.651-1.184 1.184-.288.523-.432 1.168-.432 1.936s.144 1.419.432 1.952c.299.523.688.917 1.168 1.184a3.408 3.408 0 001.6.384zm10.538-8.048c1.045 0 1.898.325 2.56.976.661.64.992 1.573.992 2.8V129h-1.104v-4.992c0-.949-.24-1.675-.72-2.176-.47-.501-1.115-.752-1.936-.752-.843 0-1.515.267-2.016.8-.502.533-.752 1.317-.752 2.352V129h-1.12v-8.736h1.12v1.488a2.808 2.808 0 011.2-1.216c.522-.288 1.114-.432 1.776-.432zm11.875 1.104v5.424c0 .533.101.901.304 1.104.203.203.56.304 1.072.304h1.024v.96h-1.2c-.789 0-1.376-.181-1.76-.544-.384-.373-.576-.981-.576-1.824v-5.424h-1.216v-.944h1.216v-2.192h1.136v2.192h2.4v.944h-2.4zm8.407-1.104c.662 0 1.254.139 1.776.416.534.277.95.704 1.248 1.28.31.565.464 1.259.464 2.08V129h-1.104v-4.992c0-.949-.24-1.675-.72-2.176-.469-.501-1.114-.752-1.936-.752-.842 0-1.514.267-2.016.8-.501.533-.752 1.317-.752 2.352V129h-1.12v-11.84h1.12v4.592a2.91 2.91 0 011.216-1.216 3.837 3.837 0 011.824-.432zm13.869 4.08c0 .384-.01.677-.032.88h-7.248c.032.661.192 1.227.48 1.696.288.469.667.827 1.136 1.072.47.235.982.352 1.536.352.726 0 1.334-.176 1.824-.528.502-.352.832-.827.992-1.424h1.184a3.721 3.721 0 01-1.376 2.096c-.693.533-1.568.8-2.624.8-.821 0-1.557-.181-2.208-.544a4.028 4.028 0 01-1.536-1.568c-.362-.683-.544-1.477-.544-2.384 0-.907.182-1.701.544-2.384a3.787 3.787 0 011.52-1.568c.651-.363 1.392-.544 2.224-.544.832 0 1.558.181 2.176.544.63.363 1.11.853 1.44 1.472a4.07 4.07 0 01.512 2.032zm-1.136-.032c.011-.651-.122-1.205-.4-1.664a2.588 2.588 0 00-1.104-1.04 3.38 3.38 0 00-1.536-.352c-.832 0-1.541.267-2.128.8-.586.533-.912 1.285-.976 2.256h6.144zm8.648-6.336v7.04c0 1.109.261 1.931.784 2.464.533.533 1.259.8 2.176.8.917 0 1.632-.261 2.144-.784.523-.533.784-1.36.784-2.48v-7.04h1.12v7.024c0 1.419-.379 2.485-1.136 3.2-.747.715-1.723 1.072-2.928 1.072-1.205 0-2.187-.357-2.944-1.072-.747-.715-1.12-1.781-1.12-3.2v-7.024h1.12zm12.898 11.296c-.736 0-1.387-.128-1.952-.384a3.184 3.184 0 01-1.312-1.072 2.814 2.814 0 01-.512-1.536h1.184c.053.544.293 1.024.72 1.44.427.405 1.051.608 1.872.608.757 0 1.355-.192 1.792-.576a1.9 1.9 0 00.672-1.488c0-.48-.123-.864-.368-1.152a2.154 2.154 0 00-.912-.656 12.928 12.928 0 00-1.504-.48c-.747-.203-1.339-.4-1.776-.592a2.83 2.83 0 01-1.12-.896c-.309-.405-.464-.955-.464-1.648 0-.576.149-1.088.448-1.536.299-.459.72-.816 1.264-1.072.544-.256 1.168-.384 1.872-.384 1.035 0 1.867.256 2.496.768a2.817 2.817 0 011.104 1.952h-1.216c-.075-.459-.325-.864-.752-1.216-.427-.363-1.003-.544-1.728-.544-.672 0-1.232.181-1.68.544-.448.352-.672.837-.672 1.456 0 .469.123.848.368 1.136.245.288.549.507.912.656.373.149.875.309 1.504.48.725.203 1.312.405 1.76.608.448.192.827.491 1.136.896.309.405.464.949.464 1.632 0 .523-.139 1.019-.416 1.488-.277.469-.688.848-1.232 1.136-.544.288-1.195.432-1.952.432zM2.384 144.2a3.56 3.56 0 011.328-1.488c.608-.384 1.323-.576 2.144-.576.8 0 1.515.187 2.144.56.63.363 1.12.885 1.472 1.568.363.672.544 1.456.544 2.352 0 .896-.181 1.685-.544 2.368a3.808 3.808 0 01-1.488 1.584c-.63.373-1.339.56-2.128.56-.832 0-1.552-.187-2.16-.56a3.451 3.451 0 01-1.312-1.488V151H1.28v-11.84h1.104v5.04zm6.496 2.416c0-.725-.144-1.349-.432-1.872a2.887 2.887 0 00-1.152-1.216 3.326 3.326 0 00-1.664-.416 3.25 3.25 0 00-1.648.432c-.49.288-.88.699-1.168 1.232-.288.533-.432 1.152-.432 1.856 0 .704.144 1.323.432 1.856.288.533.677.944 1.168 1.232a3.25 3.25 0 001.648.432c.619 0 1.173-.139 1.664-.416.49-.288.875-.699 1.152-1.232.288-.544.432-1.173.432-1.888zm11.1-.432c0 .384-.01.677-.031.88H12.7c.032.661.192 1.227.48 1.696.288.469.667.827 1.136 1.072.47.235.981.352 1.536.352.725 0 1.333-.176 1.824-.528.501-.352.832-.827.992-1.424h1.184a3.724 3.724 0 01-1.376 2.096c-.694.533-1.568.8-2.624.8-.822 0-1.557-.181-2.208-.544a4.018 4.018 0 01-1.536-1.568c-.363-.683-.544-1.477-.544-2.384 0-.907.181-1.701.544-2.384a3.78 3.78 0 011.52-1.568c.65-.363 1.392-.544 2.224-.544.832 0 1.557.181 2.176.544.63.363 1.11.853 1.44 1.472.341.608.512 1.285.512 2.032zm-1.135-.032c.01-.651-.123-1.205-.4-1.664a2.596 2.596 0 00-1.104-1.04 3.382 3.382 0 00-1.536-.352c-.832 0-1.541.267-2.128.8-.587.533-.912 1.285-.976 2.256h6.144zm7.281-4.048c1.045 0 1.899.325 2.56.976.661.64.992 1.573.992 2.8V151h-1.104v-4.992c0-.949-.24-1.675-.72-2.176-.47-.501-1.115-.752-1.936-.752-.843 0-1.515.267-2.016.8-.501.533-.752 1.317-.752 2.352V151h-1.12v-8.736h1.12v1.488a2.81 2.81 0 011.2-1.216c.523-.288 1.115-.432 1.776-.432zm5.517 4.528c0-.907.181-1.696.544-2.368a3.81 3.81 0 011.504-1.568c.64-.373 1.37-.56 2.192-.56 1.077 0 1.963.267 2.656.8.704.533 1.157 1.259 1.36 2.176h-1.2c-.15-.629-.475-1.12-.976-1.472-.49-.363-1.104-.544-1.84-.544-.587 0-1.115.133-1.584.4-.47.267-.843.667-1.12 1.2-.267.523-.4 1.168-.4 1.936s.133 1.419.4 1.952c.277.533.65.933 1.12 1.2.47.267.997.4 1.584.4.736 0 1.35-.176 1.84-.528.501-.363.827-.864.976-1.504h1.2c-.203.896-.656 1.616-1.36 2.16-.704.544-1.59.816-2.656.816-.821 0-1.552-.181-2.192-.544a3.941 3.941 0 01-1.504-1.568c-.363-.683-.544-1.477-.544-2.384zm14.484-4.528c.662 0 1.254.139 1.776.416.534.277.95.704 1.248 1.28.31.565.464 1.259.464 2.08V151h-1.104v-4.992c0-.949-.24-1.675-.72-2.176-.469-.501-1.114-.752-1.935-.752-.843 0-1.515.267-2.017.8-.5.533-.752 1.317-.752 2.352V151h-1.12v-11.84h1.12v4.592a2.904 2.904 0 011.216-1.216 3.837 3.837 0 011.825-.432zm16.365 0c1.025 0 1.857.325 2.497.976.65.64.975 1.573.975 2.8V151h-1.103v-4.992c0-.949-.23-1.675-.689-2.176-.458-.501-1.082-.752-1.871-.752-.822 0-1.478.272-1.968.816-.491.544-.736 1.333-.736 2.368V151h-1.105v-4.992c0-.949-.229-1.675-.688-2.176-.458-.501-1.087-.752-1.888-.752-.82 0-1.477.272-1.967.816-.491.544-.736 1.333-.736 2.368V151h-1.12v-8.736h1.12v1.504a2.813 2.813 0 011.184-1.232 3.431 3.431 0 011.712-.432c.757 0 1.418.181 1.983.544.577.363.992.896 1.248 1.6.235-.693.635-1.221 1.2-1.584a3.513 3.513 0 011.953-.56zm5.448 4.512c0-.896.176-1.68.528-2.352a3.84 3.84 0 011.488-1.568c.64-.373 1.36-.56 2.16-.56.832 0 1.546.192 2.144.576.608.384 1.045.875 1.312 1.472v-1.92h1.12V151h-1.12v-1.936c-.278.597-.72 1.093-1.328 1.488-.597.384-1.312.576-2.144.576a4.18 4.18 0 01-2.144-.56 3.947 3.947 0 01-1.488-1.584c-.352-.683-.528-1.472-.528-2.368zm7.632.016c0-.704-.144-1.323-.432-1.856a3.068 3.068 0 00-1.184-1.232 3.165 3.165 0 00-1.632-.432c-.619 0-1.174.139-1.664.416-.49.277-.88.683-1.168 1.216-.278.523-.416 1.147-.416 1.872 0 .715.139 1.344.416 1.888.288.533.677.944 1.168 1.232.49.277 1.045.416 1.664.416.597 0 1.141-.144 1.632-.432a3.068 3.068 0 001.184-1.232c.288-.533.432-1.152.432-1.856zm4.797-2.816a2.75 2.75 0 011.12-1.264c.512-.299 1.136-.448 1.872-.448v1.168h-.304c-.81 0-1.462.219-1.952.656-.49.437-.736 1.168-.736 2.192V151h-1.12v-8.736h1.12v1.552zM89.766 151l-3.6-3.92V151h-1.12v-11.84h1.12v7.008l3.52-3.904h1.568l-4.144 4.352L91.286 151h-1.52zm11.182.128c-.822 0-1.563-.181-2.224-.544a4.132 4.132 0 01-1.552-1.568c-.374-.683-.56-1.477-.56-2.384 0-.907.192-1.696.576-2.368a3.959 3.959 0 011.568-1.568c.661-.373 1.402-.56 2.224-.56.821 0 1.562.187 2.224.56a3.833 3.833 0 011.568 1.568c.384.672.576 1.461.576 2.368 0 .896-.192 1.685-.576 2.368a4.035 4.035 0 01-1.584 1.584c-.672.363-1.419.544-2.24.544zm0-.976c.576 0 1.109-.128 1.6-.384.49-.267.885-.661 1.184-1.184.309-.533.464-1.184.464-1.952s-.15-1.413-.448-1.936c-.299-.533-.694-.928-1.184-1.184a3.294 3.294 0 00-1.6-.4c-.576 0-1.11.133-1.6.4-.49.256-.886.651-1.184 1.184-.288.523-.432 1.168-.432 1.936s.144 1.419.432 1.952a3.04 3.04 0 001.168 1.184c.49.256 1.024.384 1.6.384zm10.537-8.048c1.046 0 1.899.325 2.56.976.662.64.992 1.573.992 2.8V151h-1.104v-4.992c0-.949-.24-1.675-.72-2.176-.469-.501-1.114-.752-1.936-.752-.842 0-1.514.267-2.016.8-.501.533-.752 1.317-.752 2.352V151h-1.12v-8.736h1.12v1.488a2.818 2.818 0 011.2-1.216c.523-.288 1.115-.432 1.776-.432zm9.908 4.512c0-.896.176-1.68.528-2.352a3.846 3.846 0 011.488-1.568c.64-.373 1.36-.56 2.16-.56.832 0 1.547.192 2.144.576.608.384 1.045.875 1.312 1.472v-1.92h1.12V151h-1.12v-1.936c-.277.597-.72 1.093-1.328 1.488-.597.384-1.312.576-2.144.576a4.18 4.18 0 01-2.144-.56 3.952 3.952 0 01-1.488-1.584c-.352-.683-.528-1.472-.528-2.368zm7.632.016c0-.704-.144-1.323-.432-1.856a3.07 3.07 0 00-1.184-1.232 3.166 3.166 0 00-1.632-.432c-.619 0-1.173.139-1.664.416-.491.277-.88.683-1.168 1.216-.277.523-.416 1.147-.416 1.872 0 .715.139 1.344.416 1.888a3.1 3.1 0 001.168 1.232 3.326 3.326 0 001.664.416c.597 0 1.141-.144 1.632-.432a3.07 3.07 0 001.184-1.232c.288-.533.432-1.152.432-1.856zm7.773-4.528c1.045 0 1.899.325 2.56.976.661.64.992 1.573.992 2.8V151h-1.104v-4.992c0-.949-.24-1.675-.72-2.176-.469-.501-1.115-.752-1.936-.752-.843 0-1.515.267-2.016.8-.501.533-.752 1.317-.752 2.352V151h-1.12v-8.736h1.12v1.488a2.808 2.808 0 011.2-1.216c.523-.288 1.115-.432 1.776-.432zm9.908 4.512c0-.896.176-1.68.528-2.352a3.833 3.833 0 011.488-1.568c.64-.373 1.36-.56 2.16-.56.832 0 1.546.192 2.144.576.608.384 1.045.875 1.312 1.472v-1.92h1.12V151h-1.12v-1.936c-.278.597-.72 1.093-1.328 1.488-.598.384-1.312.576-2.144.576-.79 0-1.504-.187-2.144-.56a3.938 3.938 0 01-1.488-1.584c-.352-.683-.528-1.472-.528-2.368zm7.632.016c0-.704-.144-1.323-.432-1.856a3.07 3.07 0 00-1.184-1.232 3.166 3.166 0 00-1.632-.432c-.619 0-1.174.139-1.664.416-.491.277-.88.683-1.168 1.216-.278.523-.416 1.147-.416 1.872 0 .715.138 1.344.416 1.888a3.1 3.1 0 001.168 1.232c.49.277 1.045.416 1.664.416.597 0 1.141-.144 1.632-.432a3.07 3.07 0 001.184-1.232c.288-.533.432-1.152.432-1.856zm15.196-4.368L166.798 151h-1.12l-2.416-7.328-2.416 7.328h-1.136l-2.736-8.736h1.136l2.176 7.6 2.448-7.6h1.12l2.416 7.616 2.16-7.616h1.104zm1.015 4.352c0-.896.176-1.68.528-2.352a3.846 3.846 0 011.488-1.568c.64-.373 1.36-.56 2.16-.56.832 0 1.547.192 2.144.576.608.384 1.046.875 1.312 1.472v-1.92h1.12V151h-1.12v-1.936c-.277.597-.72 1.093-1.328 1.488-.597.384-1.312.576-2.144.576a4.18 4.18 0 01-2.144-.56 3.952 3.952 0 01-1.488-1.584c-.352-.683-.528-1.472-.528-2.368zm7.632.016c0-.704-.144-1.323-.432-1.856a3.064 3.064 0 00-1.184-1.232 3.161 3.161 0 00-1.632-.432c-.618 0-1.173.139-1.664.416-.49.277-.88.683-1.168 1.216-.277.523-.416 1.147-.416 1.872 0 .715.139 1.344.416 1.888.288.533.678.944 1.168 1.232a3.328 3.328 0 001.664.416c.598 0 1.142-.144 1.632-.432a3.064 3.064 0 001.184-1.232c.288-.533.432-1.152.432-1.856zm4.797-2.816a2.751 2.751 0 011.12-1.264c.512-.299 1.136-.448 1.872-.448v1.168h-.304c-.811 0-1.461.219-1.952.656-.491.437-.736 1.168-.736 2.192V151h-1.12v-8.736h1.12v1.552zm4.165 2.8c0-.896.181-1.68.544-2.352a3.846 3.846 0 011.488-1.568c.64-.373 1.36-.56 2.16-.56.768 0 1.461.187 2.08.56.619.373 1.072.859 1.36 1.456v-4.992h1.12V151h-1.12v-1.952c-.267.608-.704 1.109-1.312 1.504-.608.384-1.323.576-2.144.576-.8 0-1.52-.187-2.16-.56a3.952 3.952 0 01-1.488-1.584c-.352-.683-.528-1.472-.528-2.368zm7.632.016c0-.704-.144-1.323-.432-1.856a3.07 3.07 0 00-1.184-1.232 3.166 3.166 0 00-1.632-.432c-.619 0-1.173.139-1.664.416-.491.277-.88.683-1.168 1.216-.277.523-.416 1.147-.416 1.872 0 .715.139 1.344.416 1.888a3.1 3.1 0 001.168 1.232 3.326 3.326 0 001.664.416c.597 0 1.141-.144 1.632-.432a3.07 3.07 0 001.184-1.232c.288-.533.432-1.152.432-1.856zm9.101-2.032v.944h-6.224v-.944h6.224zM12.8 164.264L10.064 173h-1.12l-2.416-7.328L4.112 173H2.976L.24 164.264h1.136l2.176 7.6 2.448-7.6h1.12l2.416 7.616 2.16-7.616H12.8zm2.087-1.648a.786.786 0 01-.576-.24.804.804 0 01-.24-.592c0-.235.08-.427.24-.576.16-.16.352-.24.576-.24.224 0 .416.08.576.24.16.149.24.341.24.576 0 .235-.08.432-.24.592a.786.786 0 01-.576.24zm.56 1.648V173h-1.12v-8.736h1.12zm6.632-.16c1.046 0 1.899.325 2.56.976.662.64.992 1.573.992 2.8V173h-1.104v-4.992c0-.949-.24-1.675-.72-2.176-.47-.501-1.114-.752-1.936-.752-.842 0-1.514.267-2.016.8-.501.533-.752 1.317-.752 2.352V173h-1.12v-8.736h1.12v1.488a2.812 2.812 0 011.2-1.216c.523-.288 1.115-.432 1.776-.432zm10.125 0c1.045 0 1.899.325 2.56.976.661.64.992 1.573.992 2.8V173h-1.104v-4.992c0-.949-.24-1.675-.72-2.176-.47-.501-1.114-.752-1.936-.752-.842 0-1.514.267-2.016.8-.501.533-.752 1.317-.752 2.352V173h-1.12v-8.736h1.12v1.488a2.812 2.812 0 011.2-1.216c.523-.288 1.115-.432 1.776-.432zm6.59-1.488a.786.786 0 01-.577-.24.804.804 0 01-.24-.592c0-.235.08-.427.24-.576.16-.16.352-.24.576-.24.224 0 .416.08.576.24.16.149.24.341.24.576 0 .235-.08.432-.24.592a.786.786 0 01-.576.24zm.56 1.648V173h-1.12v-8.736h1.12zm6.631-.16c1.046 0 1.899.325 2.56.976.662.64.992 1.573.992 2.8V173h-1.104v-4.992c0-.949-.24-1.675-.72-2.176-.469-.501-1.114-.752-1.936-.752-.842 0-1.514.267-2.016.8-.501.533-.752 1.317-.752 2.352V173h-1.12v-8.736h1.12v1.488a2.81 2.81 0 011.2-1.216c.523-.288 1.115-.432 1.776-.432zm9.693.032c.822 0 1.536.192 2.144.576.608.384 1.046.869 1.312 1.456v-1.904h1.12v8.96c0 .8-.176 1.509-.528 2.128a3.495 3.495 0 01-1.44 1.424c-.618.341-1.322.512-2.112.512-1.12 0-2.053-.267-2.8-.8-.736-.533-1.194-1.259-1.376-2.176h1.104a2.7 2.7 0 001.088 1.456c.544.363 1.206.544 1.984.544.566 0 1.072-.123 1.52-.368.448-.235.8-.587 1.056-1.056.256-.469.384-1.024.384-1.664v-2.16c-.277.597-.72 1.093-1.328 1.488-.597.384-1.306.576-2.128.576-.8 0-1.52-.187-2.16-.56a3.947 3.947 0 01-1.488-1.584c-.352-.683-.528-1.472-.528-2.368 0-.896.176-1.68.528-2.352a3.84 3.84 0 011.488-1.568c.64-.373 1.36-.56 2.16-.56zm3.456 4.496c0-.704-.144-1.323-.432-1.856a3.068 3.068 0 00-1.184-1.232 3.165 3.165 0 00-1.632-.432c-.618 0-1.173.139-1.664.416-.49.277-.88.683-1.168 1.216-.277.523-.416 1.147-.416 1.872 0 .715.139 1.344.416 1.888.288.533.678.944 1.168 1.232.491.277 1.046.416 1.664.416.598 0 1.142-.144 1.632-.432a3.068 3.068 0 001.184-1.232c.288-.533.432-1.152.432-1.856zm9.172-2.448c.277-.587.715-1.072 1.312-1.456.608-.395 1.328-.592 2.16-.592.79 0 1.498.187 2.128.56a3.71 3.71 0 011.488 1.568c.362.672.544 1.456.544 2.352 0 .896-.181 1.685-.544 2.368a3.808 3.808 0 01-1.488 1.584c-.63.373-1.339.56-2.128.56-.822 0-1.536-.192-2.144-.576-.608-.395-1.05-.885-1.328-1.472v6.048h-1.104v-12.864h1.104v1.92zm6.496 2.432c0-.725-.144-1.349-.432-1.872a2.888 2.888 0 00-1.152-1.216 3.326 3.326 0 00-1.664-.416 3.25 3.25 0 00-1.648.432c-.49.288-.88.699-1.168 1.232-.288.533-.432 1.152-.432 1.856 0 .704.144 1.323.432 1.856.288.533.677.944 1.168 1.232a3.25 3.25 0 001.648.432c.618 0 1.173-.139 1.664-.416.49-.288.874-.699 1.152-1.232.288-.544.432-1.173.432-1.888zm4.317-7.456V173h-1.12v-11.84h1.12zm2.024 7.456c0-.896.176-1.68.528-2.352a3.842 3.842 0 011.488-1.568c.64-.373 1.36-.56 2.16-.56.832 0 1.547.192 2.144.576.608.384 1.045.875 1.312 1.472v-1.92h1.12V173h-1.12v-1.936c-.277.597-.72 1.093-1.328 1.488-.597.384-1.312.576-2.144.576a4.18 4.18 0 01-2.144-.56 3.948 3.948 0 01-1.488-1.584c-.352-.683-.528-1.472-.528-2.368zm7.632.016c0-.704-.144-1.323-.432-1.856a3.068 3.068 0 00-1.184-1.232 3.165 3.165 0 00-1.632-.432c-.619 0-1.173.139-1.664.416-.49.277-.88.683-1.168 1.216-.277.523-.416 1.147-.416 1.872 0 .715.139 1.344.416 1.888.288.533.677.944 1.168 1.232.49.277 1.045.416 1.664.416.597 0 1.141-.144 1.632-.432a3.068 3.068 0 001.184-1.232c.288-.533.432-1.152.432-1.856zm5.133-3.424v5.424c0 .533.101.901.304 1.104.203.203.56.304 1.072.304h1.024v.96h-1.2c-.79 0-1.376-.181-1.76-.544-.384-.373-.576-.981-.576-1.824v-5.424h-1.216v-.944h1.216v-2.192h1.136v2.192h2.4v.944h-2.4zm7.687 0h-2.032V173h-1.12v-7.792h-1.216v-.944h1.216v-.608c0-.949.24-1.648.72-2.096.49-.448 1.28-.672 2.368-.672v.96c-.725 0-1.237.139-1.536.416-.288.277-.432.741-.432 1.392v.608h2.032v.944zm5.587 7.92c-.821 0-1.563-.181-2.224-.544a4.13 4.13 0 01-1.552-1.568c-.373-.683-.56-1.477-.56-2.384 0-.907.192-1.696.576-2.368a3.962 3.962 0 011.568-1.568c.661-.373 1.403-.56 2.224-.56.821 0 1.563.187 2.224.56a3.827 3.827 0 011.568 1.568c.384.672.576 1.461.576 2.368 0 .896-.192 1.685-.576 2.368a4.035 4.035 0 01-1.584 1.584c-.672.363-1.419.544-2.24.544zm0-.976c.576 0 1.109-.128 1.6-.384a3.008 3.008 0 001.184-1.184c.309-.533.464-1.184.464-1.952s-.149-1.413-.448-1.936c-.299-.533-.693-.928-1.184-1.184a3.294 3.294 0 00-1.6-.4c-.576 0-1.109.133-1.6.4-.491.256-.885.651-1.184 1.184-.288.523-.432 1.168-.432 1.936s.144 1.419.432 1.952c.299.523.688.917 1.168 1.184a3.408 3.408 0 001.6.384zm7.562-6.336a2.746 2.746 0 011.12-1.264c.512-.299 1.136-.448 1.872-.448v1.168h-.304c-.811 0-1.462.219-1.952.656-.491.437-.736 1.168-.736 2.192V173h-1.12v-8.736h1.12v1.552zm15.077-1.712c1.024 0 1.856.325 2.496.976.65.64.976 1.573.976 2.8V173h-1.104v-4.992c0-.949-.23-1.675-.688-2.176-.459-.501-1.083-.752-1.872-.752-.822 0-1.478.272-1.968.816-.491.544-.736 1.333-.736 2.368V173h-1.104v-4.992c0-.949-.23-1.675-.688-2.176-.459-.501-1.088-.752-1.888-.752-.822 0-1.478.272-1.968.816-.491.544-.736 1.333-.736 2.368V173h-1.12v-8.736h1.12v1.504a2.812 2.812 0 011.184-1.232 3.43 3.43 0 011.712-.432c.757 0 1.418.181 1.984.544.576.363.992.896 1.248 1.6.234-.693.634-1.221 1.2-1.584a3.512 3.512 0 011.952-.56z" fill="#fff"/><rect y="194" width="143" height="31" rx="15.5" fill="#14964F"/><path d="M15.251 204.27V214h4.886v-1.288h-3.29v-8.442h-1.596zm13.57 5.866c0-2.422-1.735-3.976-3.933-3.976-2.198 0-3.934 1.554-3.934 3.976 0 2.422 1.666 3.99 3.864 3.99 2.212 0 4.004-1.568 4.004-3.99zm-6.243 0c0-1.75 1.078-2.59 2.282-2.59 1.19 0 2.324.84 2.324 2.59s-1.176 2.604-2.366 2.604c-1.204 0-2.24-.854-2.24-2.604zm7.29-.028c0 2.38 1.61 4.018 3.64 4.018 1.26 0 2.184-.63 2.674-1.288v1.288c0 1.54-.924 2.296-2.156 2.296-1.106 0-1.96-.546-2.198-1.344h-1.582c.196 1.708 1.722 2.73 3.78 2.73 2.408 0 3.766-1.582 3.766-3.682v-7.84h-1.61v1.12c-.476-.658-1.414-1.246-2.674-1.246-2.03 0-3.64 1.568-3.64 3.948zm6.314.028c0 1.666-1.134 2.604-2.338 2.604-1.19 0-2.338-.966-2.338-2.632 0-1.666 1.148-2.562 2.338-2.562 1.204 0 2.338.938 2.338 2.59zM43.525 214h1.596v-7.714h-1.596V214zm.812-8.736c.56 0 1.008-.448 1.008-1.022 0-.574-.448-1.022-1.008-1.022a1.01 1.01 0 00-1.022 1.022 1.01 1.01 0 001.022 1.022zM52.69 214h1.582v-4.55c0-2.156-1.358-3.29-3.164-3.29-.924 0-1.778.378-2.296 1.008v-.882h-1.596V214h1.596v-4.312c0-1.414.77-2.142 1.946-2.142 1.162 0 1.932.728 1.932 2.142V214zm6.723-3.892c0 2.38 1.61 4.018 3.612 4.018 1.288 0 2.212-.616 2.702-1.274V214h1.61v-7.714h-1.61v1.12c-.477-.63-1.373-1.246-2.675-1.246-2.03 0-3.64 1.568-3.64 3.948zm6.314.028c0 1.666-1.135 2.604-2.339 2.604-1.19 0-2.337-.966-2.337-2.632 0-1.666 1.148-2.562 2.337-2.562 1.205 0 2.339.938 2.339 2.59zm9.18 3.864h1.582v-4.55c0-2.156-1.358-3.29-3.164-3.29-.924 0-1.778.378-2.296 1.008v-.882h-1.596V214h1.596v-4.312c0-1.414.77-2.142 1.946-2.142 1.162 0 1.932.728 1.932 2.142V214zm3.086-3.892c0 2.38 1.61 4.018 3.64 4.018 1.26 0 2.184-.588 2.674-1.288V214h1.61v-10.36h-1.61v3.724c-.588-.728-1.652-1.204-2.66-1.204-2.044 0-3.654 1.568-3.654 3.948zm6.314.028c0 1.666-1.134 2.604-2.338 2.604-1.19 0-2.338-.966-2.338-2.632 0-1.666 1.148-2.562 2.338-2.562 1.204 0 2.338.938 2.338 2.59zm7.595 1.722c0 1.568.854 2.142 2.226 2.142h1.26v-1.33h-.98c-.672 0-.896-.238-.896-.812v-4.27h1.876v-1.302h-1.876v-1.918h-1.61v1.918h-.91v1.302h.91v4.27zm6.553-1.918c0-1.638.728-2.128 1.904-2.128h.406v-1.652c-1.092 0-1.862.476-2.31 1.246v-1.12h-1.596V214h1.596v-4.06zm3.245.168c0 2.38 1.61 4.018 3.612 4.018 1.288 0 2.212-.616 2.702-1.274V214h1.61v-7.714h-1.61v1.12c-.476-.63-1.372-1.246-2.674-1.246-2.03 0-3.64 1.568-3.64 3.948zm6.314.028c0 1.666-1.134 2.604-2.338 2.604-1.19 0-2.338-.966-2.338-2.632 0-1.666 1.148-2.562 2.338-2.562 1.204 0 2.338.938 2.338 2.59zm3.174-.028c0 2.38 1.61 4.018 3.64 4.018 1.26 0 2.184-.588 2.674-1.288V214h1.61v-10.36h-1.61v3.724c-.588-.728-1.652-1.204-2.66-1.204-2.044 0-3.654 1.568-3.654 3.948zm6.314.028c0 1.666-1.134 2.604-2.338 2.604-1.19 0-2.338-.966-2.338-2.632 0-1.666 1.148-2.562 2.338-2.562 1.204 0 2.338.938 2.338 2.59zm6.954-2.632c1.19 0 2.128.756 2.156 1.946h-4.27c.168-1.218 1.036-1.946 2.114-1.946zm3.612 4.2h-1.722c-.294.602-.84 1.078-1.82 1.078-1.176 0-2.086-.77-2.198-2.044h5.894c.042-.266.056-.518.056-.784 0-2.268-1.554-3.794-3.752-3.794-2.282 0-3.85 1.554-3.85 3.976 0 2.422 1.638 3.99 3.85 3.99 1.89 0 3.108-1.078 3.542-2.422z" fill="#fff"/></svg>