<svg width="300" height="600" viewBox="0 0 300 600" fill="none" xmlns="http://www.w3.org/2000/svg"><path fill="url(#paint0_linear_1_366)" d="M0 0h300v600H0z"/><rect x="78" y="330.683" width="143" height="31" rx="15.5" fill="#14964F"/><path d="M93.251 340.953v9.73h4.886v-1.288h-3.29v-8.442h-1.596zm13.571 5.866c0-2.422-1.736-3.976-3.934-3.976-2.198 0-3.934 1.554-3.934 3.976 0 2.422 1.666 3.99 3.864 3.99 2.212 0 4.004-1.568 4.004-3.99zm-6.244 0c0-1.75 1.078-2.59 2.282-2.59 1.19 0 2.324.84 2.324 2.59s-1.176 2.604-2.366 2.604c-1.204 0-2.24-.854-2.24-2.604zm7.29-.028c0 2.38 1.61 4.018 3.64 4.018 1.26 0 2.184-.63 2.674-1.288v1.288c0 1.54-.924 2.296-2.156 2.296-1.106 0-1.96-.546-2.198-1.344h-1.582c.196 1.708 1.722 2.73 3.78 2.73 2.408 0 3.766-1.582 3.766-3.682v-7.84h-1.61v1.12c-.476-.658-1.414-1.246-2.674-1.246-2.03 0-3.64 1.568-3.64 3.948zm6.314.028c0 1.666-1.134 2.604-2.338 2.604-1.19 0-2.338-.966-2.338-2.632 0-1.666 1.148-2.562 2.338-2.562 1.204 0 2.338.938 2.338 2.59zm7.343 3.864h1.596v-7.714h-1.596v7.714zm.812-8.736c.56 0 1.008-.448 1.008-1.022 0-.574-.448-1.022-1.008-1.022a1.01 1.01 0 00-1.022 1.022 1.01 1.01 0 001.022 1.022zm8.353 8.736h1.582v-4.55c0-2.156-1.358-3.29-3.164-3.29-.924 0-1.778.378-2.296 1.008v-.882h-1.596v7.714h1.596v-4.312c0-1.414.77-2.142 1.946-2.142 1.162 0 1.932.728 1.932 2.142v4.312zm6.723-3.892c0 2.38 1.61 4.018 3.612 4.018 1.288 0 2.212-.616 2.702-1.274v1.148h1.61v-7.714h-1.61v1.12c-.476-.63-1.372-1.246-2.674-1.246-2.03 0-3.64 1.568-3.64 3.948zm6.314.028c0 1.666-1.134 2.604-2.338 2.604-1.19 0-2.338-.966-2.338-2.632 0-1.666 1.148-2.562 2.338-2.562 1.204 0 2.338.938 2.338 2.59zm9.18 3.864h1.582v-4.55c0-2.156-1.358-3.29-3.164-3.29-.924 0-1.778.378-2.296 1.008v-.882h-1.596v7.714h1.596v-4.312c0-1.414.77-2.142 1.946-2.142 1.162 0 1.932.728 1.932 2.142v4.312zm3.086-3.892c0 2.38 1.61 4.018 3.64 4.018 1.26 0 2.184-.588 2.674-1.288v1.162h1.61v-10.36h-1.61v3.724c-.588-.728-1.652-1.204-2.66-1.204-2.044 0-3.654 1.568-3.654 3.948zm6.314.028c0 1.666-1.134 2.604-2.338 2.604-1.19 0-2.338-.966-2.338-2.632 0-1.666 1.148-2.562 2.338-2.562 1.204 0 2.338.938 2.338 2.59zm7.595 1.722c0 1.568.854 2.142 2.226 2.142h1.26v-1.33h-.98c-.672 0-.896-.238-.896-.812v-4.27h1.876v-1.302h-1.876v-1.918h-1.61v1.918h-.91v1.302h.91v4.27zm6.553-1.918c0-1.638.728-2.128 1.904-2.128h.406v-1.652c-1.092 0-1.862.476-2.31 1.246v-1.12h-1.596v7.714h1.596v-4.06zm3.245.168c0 2.38 1.61 4.018 3.612 4.018 1.288 0 2.212-.616 2.702-1.274v1.148h1.61v-7.714h-1.61v1.12c-.476-.63-1.372-1.246-2.674-1.246-2.03 0-3.64 1.568-3.64 3.948zm6.314.028c0 1.666-1.134 2.604-2.338 2.604-1.19 0-2.338-.966-2.338-2.632 0-1.666 1.148-2.562 2.338-2.562 1.204 0 2.338.938 2.338 2.59zm3.174-.028c0 2.38 1.61 4.018 3.64 4.018 1.26 0 2.184-.588 2.674-1.288v1.162h1.61v-10.36h-1.61v3.724c-.588-.728-1.652-1.204-2.66-1.204-2.044 0-3.654 1.568-3.654 3.948zm6.314.028c0 1.666-1.134 2.604-2.338 2.604-1.19 0-2.338-.966-2.338-2.632 0-1.666 1.148-2.562 2.338-2.562 1.204 0 2.338.938 2.338 2.59zm6.954-2.632c1.19 0 2.128.756 2.156 1.946h-4.27c.168-1.218 1.036-1.946 2.114-1.946zm3.612 4.2h-1.722c-.294.602-.84 1.078-1.82 1.078-1.176 0-2.086-.77-2.198-2.044h5.894c.042-.266.056-.518.056-.784 0-2.268-1.554-3.794-3.752-3.794-2.282 0-3.85 1.554-3.85 3.976 0 2.422 1.638 3.99 3.85 3.99 1.89 0 3.108-1.078 3.542-2.422zM64 275.577h19.58v5.959H70.796v4.153h11.556v5.651H70.796v8.728H64v-24.491z" fill="#fff"/><path fill-rule="evenodd" clip-rule="evenodd" d="M117.168 275.577h11.716c3.776 0 6.422.999 8.096 2.653 1.44 1.384 2.18 3.306 2.18 5.69v.077c0 3.729-2.024 6.228-5.099 7.536l5.916 8.535h-7.94l-4.982-7.42h-3.036v7.42h-6.89v-24.491h.039zm11.404 11.765c2.336 0 3.698-1.115 3.698-2.922v-.077c0-1.923-1.401-2.922-3.736-2.922h-4.516v5.882h4.554v.039z" fill="#fff"/><path d="M142.373 275.577h19.696v5.767h-12.977v3.729h11.748v5.345h-11.748v3.883h13.13v5.767h-19.849v-24.491zM172.857 287.611l-8.062-12.034h7.793l4.339 6.882 4.377-6.882h7.601l-8.024 11.957 8.408 12.534h-7.793l-4.684-7.382-4.723 7.382h-7.64l8.408-12.457zM195.931 288.456c0-2.806 2.15-5.152 5.222-5.152 1.996 0 3.34.885 4.185 2.192l-2.342 1.73c-.461-.654-.999-1.038-1.805-1.038-1.113 0-1.92.961-1.92 2.153v.038c0 1.269.807 2.23 1.959 2.23.806 0 1.343-.384 1.881-.999l2.303 1.653c-.921 1.346-2.188 2.23-4.338 2.23-2.995.039-5.145-2.268-5.145-5.037" fill="#fff"/><path fill-rule="evenodd" clip-rule="evenodd" d="M207.47 288.456c0-2.806 2.296-5.152 5.488-5.152 3.153 0 5.449 2.307 5.449 5.075v.039c0 2.768-2.296 5.114-5.488 5.114-3.153 0-5.449-2.307-5.449-5.076m7.551 0c0-1.23-.895-2.23-2.102-2.23-1.246 0-2.063 1-2.063 2.153v.039c0 1.192.895 2.191 2.102 2.191 1.284 0 2.063-.999 2.063-2.153" fill="#fff"/><path d="M220.259 283.497h3.417v1.345c.614-.807 1.535-1.538 2.918-1.538 1.305 0 2.303.577 2.802 1.577.845-.961 1.843-1.577 3.264-1.577 2.073 0 3.34 1.308 3.34 3.576v6.421h-3.417v-5.344c0-1.077-.538-1.615-1.344-1.615s-1.42.576-1.42 1.615v5.305h-3.379v-5.305c0-1.077-.537-1.615-1.344-1.615-.806 0-1.382.576-1.382 1.615v5.305h-3.417v-9.765h-.038z" fill="#fff"/><path fill-rule="evenodd" clip-rule="evenodd" d="M111.213 287.765c0-.247-.005-.49-.014-.731h2.933l.779-2.23h-3.951c-1.084-6.1-5.621-9.804-12.475-9.804-7.706 0-12.688 5.075-12.688 12.918 0 7.921 4.826 12.803 12.688 12.765 6.408 0 10.956-3.484 12.308-9.189h2.678l.817-2.23h-3.139c.042-.488.064-.987.064-1.499zm-12.572 9.381c-3.97 0-5.527-4.152-5.527-9.305 0-5.151 1.245-9.265 5.254-9.304 3.154 0 4.784 2.598 5.321 6.267h-3.413l-.779 2.23h4.384a28.734 28.734 0 01-.019 2.23h-4.21l-.817 2.23h4.802c-.54 3.342-1.992 5.652-4.996 5.652z" fill="#14964F"/><path d="M191.171 291.455c0-.499.192-.884.538-1.268a1.738 1.738 0 011.267-.539c.499 0 .921.193 1.266.539.346.346.538.769.538 1.268 0 .5-.192.923-.538 1.269-.345.346-.767.5-1.266.5-.5 0-.922-.154-1.267-.5-.384-.307-.538-.73-.538-1.269" fill="#fff"/><defs><linearGradient id="paint0_linear_1_366" x1="150" y1="190" x2="150" y2="711" gradientUnits="userSpaceOnUse"><stop stop-color="#12225C"/><stop offset="1" stop-color="#0954B5"/></linearGradient></defs></svg>