<svg width="114" height="67" viewBox="0 0 114 67" fill="none" xmlns="http://www.w3.org/2000/svg"><path d="M.4 3.04h4.32V15h2.3V3.04h4.32V1H.4v2.04zm17.778 1.6c-1.6 0-2.58.72-3.22 1.6V1h-2.16v14h2.16V9.82c0-2.06 1.04-3.32 2.74-3.32 1.6 0 2.46 1.04 2.46 2.98V15h2.16V9.3c0-3.42-1.86-4.66-4.14-4.66zm10.886 10.48c2.54 0 4.26-1.54 4.62-3.56h-2.16c-.3 1.14-1.26 1.8-2.58 1.8-1.7 0-2.8-1.14-2.86-2.88v-.14h7.72c.04-.28.06-.56.06-.82-.06-3-2.04-4.88-5-4.88-3.02 0-5.04 2.1-5.04 5.26 0 3.14 2.02 5.22 5.24 5.22zm-2.9-6.36c.16-1.46 1.34-2.38 2.72-2.38 1.5 0 2.56.86 2.74 2.38h-5.46zm20.044-4.12c-1.58 0-2.64.72-3.32 1.64V1h-2.16v14h1.88l.26-1.48c.64.92 1.74 1.6 3.34 1.6 2.8 0 4.84-2.1 4.84-5.24 0-3.3-2.04-5.24-4.84-5.24zm-.36 8.66c-1.8 0-2.98-1.42-2.98-3.44 0-1.98 1.18-3.38 2.98-3.38s3 1.4 3 3.4c0 2.02-1.2 3.42-3 3.42zm8.03-9.98c.74 0 1.32-.54 1.32-1.3s-.58-1.3-1.32-1.3c-.74 0-1.32.54-1.32 1.3s.58 1.3 1.32 1.3zM52.779 15h2.16V4.76h-2.16V15zm12.098-8.64c-.66-1.02-1.76-1.72-3.36-1.72-2.78 0-4.84 2.06-4.84 5.2 0 3.26 2.06 5.2 4.84 5.2 1.6 0 2.66-.66 3.34-1.68v1.14c0 1.96-1.06 2.86-2.94 2.86-1.52 0-2.52-.66-2.78-1.8h-2.2c.2 2.3 2.1 3.56 4.82 3.56 3.68 0 5.24-1.76 5.24-4.54V4.76h-1.88l-.24 1.6zm-3 6.86c-1.8 0-2.98-1.38-2.98-3.38 0-1.98 1.18-3.38 2.98-3.38s2.98 1.4 2.98 3.42c0 1.96-1.18 3.34-2.98 3.34zm15.05-6.86c-.66-1.02-1.76-1.72-3.36-1.72-2.78 0-4.84 2.06-4.84 5.2 0 3.26 2.06 5.2 4.84 5.2 1.6 0 2.66-.66 3.34-1.68v1.14c0 1.96-1.06 2.86-2.94 2.86-1.52 0-2.52-.66-2.78-1.8h-2.2c.2 2.3 2.1 3.56 4.82 3.56 3.68 0 5.24-1.76 5.24-4.54V4.76h-1.88l-.24 1.6zm-3 6.86c-1.8 0-2.98-1.38-2.98-3.38 0-1.98 1.18-3.38 2.98-3.38s2.98 1.4 2.98 3.42c0 1.96-1.18 3.34-2.98 3.34zm12.092 1.9c2.54 0 4.26-1.54 4.62-3.56h-2.16c-.3 1.14-1.26 1.8-2.58 1.8-1.7 0-2.8-1.14-2.86-2.88v-.14h7.72c.04-.28.06-.56.06-.82-.06-3-2.04-4.88-5-4.88-3.02 0-5.04 2.1-5.04 5.26 0 3.14 2.02 5.22 5.24 5.22zm-2.9-6.36c.16-1.46 1.34-2.38 2.72-2.38 1.5 0 2.56.86 2.74 2.38h-5.46zm8.947 2.86c.06 2.22 1.94 3.5 4.68 3.5 2.48 0 4.34-1.24 4.34-3.2 0-2.28-1.9-2.76-4.24-3.04-1.48-.16-2.46-.28-2.46-1.24 0-.82.84-1.34 2.12-1.34 1.28 0 2.16.66 2.28 1.6h2.12c-.14-2.1-1.92-3.26-4.44-3.26-2.46-.02-4.2 1.24-4.2 3.18 0 2.12 1.84 2.62 4.18 2.9 1.58.2 2.52.28 2.52 1.38 0 .82-.88 1.34-2.22 1.34-1.56 0-2.48-.76-2.56-1.82h-2.12zm11.434.6c0 1.86.84 2.78 2.8 2.78h2v-1.9h-1.52c-.82 0-1.1-.3-1.1-1.1V6.66h2.5v-1.9h-2.5V1.9h-2.18v2.86h-1.78v1.9h1.78v5.56zM8.88 30.36c-.66-1.02-1.76-1.72-3.36-1.72-2.78 0-4.84 2.06-4.84 5.2 0 3.26 2.06 5.2 4.84 5.2 1.6 0 2.66-.66 3.34-1.68v1.14c0 1.96-1.06 2.86-2.94 2.86-1.52 0-2.52-.66-2.78-1.8H.94c.2 2.3 2.1 3.56 4.82 3.56 3.68 0 5.24-1.76 5.24-4.54v-9.82H9.12l-.24 1.6zm-3 6.86c-1.8 0-2.98-1.38-2.98-3.38 0-1.98 1.18-3.38 2.98-3.38s2.98 1.4 2.98 3.42c0 1.96-1.18 3.34-2.98 3.34zm16.59-.1c-.44 0-.66-.14-.66-.66v-4.1c0-2.42-1.56-3.72-4.28-3.72-2.58 0-4.3 1.24-4.52 3.24h2.12c.16-.9 1.02-1.5 2.3-1.5 1.42 0 2.24.7 2.24 1.84v.62h-2.58c-2.86 0-4.38 1.18-4.38 3.28 0 1.9 1.56 3 3.8 3 1.66 0 2.7-.72 3.38-1.76 0 1.02.48 1.64 1.88 1.64h1.14v-1.88h-.44zm-2.8-2.32c-.02 1.58-1.06 2.64-2.86 2.64-1.18 0-1.9-.6-1.9-1.46 0-1.04.74-1.54 2.08-1.54h2.68v.36zm16.197-6.16c-1.68 0-2.84.74-3.5 1.86-.62-1.32-1.82-1.86-3.16-1.86-1.54.02-2.42.7-3 1.46l-.24-1.34h-1.88V39h2.16v-5.48c0-1.82.92-3.02 2.4-3.02 1.42 0 2.16.94 2.16 2.74V39h2.18v-5.54c0-1.84.94-2.96 2.42-2.96 1.4 0 2.14.94 2.14 2.74V39h2.16v-5.9c0-3.24-1.72-4.46-3.84-4.46zm10.58 10.48c2.54 0 4.26-1.54 4.62-3.56h-2.16c-.3 1.14-1.26 1.8-2.58 1.8-1.7 0-2.8-1.14-2.86-2.88v-.14h7.72c.04-.28.06-.56.06-.82-.06-3-2.04-4.88-5-4.88-3.02 0-5.04 2.1-5.04 5.26 0 3.14 2.02 5.22 5.24 5.22zm-2.9-6.36c.16-1.46 1.34-2.38 2.72-2.38 1.5 0 2.56.86 2.74 2.38h-5.46zm9.822 3.66c-.92 0-1.52.6-1.52 1.36 0 .86.52 1.28 1.18 1.28.24 0 .48-.06.66-.2.02.08.02.18.02.26 0 .7-.5 1.48-1.76 1.5v1.16c1.98-.02 3.22-1.12 3.22-3.06 0-1.28-.7-2.3-1.8-2.3zm9.69-9.1c.74 0 1.32-.54 1.32-1.3s-.58-1.3-1.32-1.3c-.74 0-1.32.54-1.32 1.3s.58 1.3 1.32 1.3zM61.958 39h2.16V28.76h-2.16V39zm9.677-10.36c-1.66 0-2.64.66-3.28 1.46l-.24-1.34h-1.88V39h2.16v-5.16c0-2.08 1.02-3.34 2.74-3.34 1.62 0 2.44 1.04 2.44 2.98V39h2.18v-5.7c0-3.42-1.86-4.66-4.12-4.66zm5.644 6.98c.06 2.22 1.94 3.5 4.68 3.5 2.48 0 4.34-1.24 4.34-3.2 0-2.28-1.9-2.76-4.24-3.04-1.48-.16-2.46-.28-2.46-1.24 0-.82.84-1.34 2.12-1.34 1.28 0 2.16.66 2.28 1.6h2.12c-.14-2.1-1.92-3.26-4.44-3.26-2.46-.02-4.2 1.24-4.2 3.18 0 2.12 1.84 2.62 4.18 2.9 1.58.2 2.52.28 2.52 1.38 0 .82-.88 1.34-2.22 1.34-1.56 0-2.48-.76-2.56-1.82h-2.12zm11.794-8.3c.74 0 1.32-.54 1.32-1.3s-.58-1.3-1.32-1.3c-.74 0-1.32.54-1.32 1.3s.58 1.3 1.32 1.3zM87.974 39h2.16V28.76h-2.16V39zm12.057-8.82c-.66-.9-1.76-1.54-3.32-1.54-2.78 0-4.84 2.08-4.84 5.24 0 3.28 2.06 5.24 4.84 5.24 1.62 0 2.68-.76 3.34-1.66l.26 1.54h1.88V25h-2.16v5.18zm-2.96 7.12c-1.8 0-2.98-1.4-2.98-3.42 0-2 1.18-3.4 2.98-3.4s2.98 1.4 2.98 3.44c0 1.98-1.18 3.38-2.98 3.38zm12.091 1.82c2.54 0 4.26-1.54 4.62-3.56h-2.16c-.3 1.14-1.26 1.8-2.58 1.8-1.7 0-2.8-1.14-2.86-2.88v-.14h7.72c.04-.28.06-.56.06-.82-.06-3-2.04-4.88-5-4.88-3.02 0-5.04 2.1-5.04 5.26 0 3.14 2.02 5.22 5.24 5.22zm-2.9-6.36c.16-1.46 1.34-2.38 2.72-2.38 1.5 0 2.56.86 2.74 2.38h-5.46zM4.02 63.06l-.4 1c-.32.84-.52 1.04-1.36 1.04H.74V67h2.32c1.5 0 1.94-.74 2.58-2.4l4.64-11.84h-2.3L5.2 60.54l-2.86-7.78H.04l3.98 10.3zm11.724.06c3.12 0 5.22-2.1 5.22-5.24 0-3.12-2.1-5.24-5.22-5.24-3.12 0-5.22 2.12-5.22 5.24 0 3.14 2.1 5.24 5.22 5.24zm0-1.84c-1.82 0-3-1.42-3-3.4s1.18-3.4 3-3.4 3.02 1.42 3.02 3.4-1.2 3.4-3.02 3.4zm13.977-3.4c0 2.12-1 3.36-2.64 3.36-1.58 0-2.38-1.02-2.38-3.02v-5.46h-2.16v5.7c0 3.5 1.86 4.66 4.04 4.66 1.58 0 2.52-.64 3.16-1.42l.24 1.3h1.9V52.76h-2.16v5.12zm9.468-5.12c-1.68 0-2.5.68-3.02 1.54l-.24-1.54h-1.92V63h2.16v-5.14c0-1.58.62-3.08 2.54-3.08h.96v-2.02h-.48zm12.31-.12c-1.6 0-2.58.72-3.22 1.6V49h-2.16v14h2.16v-5.18c0-2.06 1.04-3.32 2.74-3.32 1.6 0 2.46 1.04 2.46 2.98V63h2.16v-5.7c0-3.42-1.86-4.66-4.14-4.66zm10.886 10.48c2.54 0 4.26-1.54 4.62-3.56h-2.16c-.3 1.14-1.26 1.8-2.58 1.8-1.7 0-2.8-1.14-2.86-2.88v-.14h7.72c.04-.28.06-.56.06-.82-.06-3-2.04-4.88-5-4.88-3.02 0-5.04 2.1-5.04 5.26 0 3.14 2.02 5.22 5.24 5.22zm-2.9-6.36c.16-1.46 1.34-2.38 2.72-2.38 1.5 0 2.56.86 2.74 2.38h-5.46zm18.806 4.36c-.44 0-.66-.14-.66-.66v-4.1c0-2.42-1.56-3.72-4.28-3.72-2.58 0-4.3 1.24-4.52 3.24h2.12c.16-.9 1.02-1.5 2.3-1.5 1.42 0 2.24.7 2.24 1.84v.62h-2.58c-2.86 0-4.38 1.18-4.38 3.28 0 1.9 1.56 3 3.8 3 1.66 0 2.7-.72 3.38-1.76 0 1.02.48 1.64 1.88 1.64h1.14v-1.88h-.44zm-2.8-2.32c-.02 1.58-1.06 2.64-2.86 2.64-1.18 0-1.9-.6-1.9-1.46 0-1.04.74-1.54 2.08-1.54h2.68v.36zm12.118-4.62c-.66-.9-1.76-1.54-3.32-1.54-2.78 0-4.84 2.08-4.84 5.24 0 3.28 2.06 5.24 4.84 5.24 1.62 0 2.68-.76 3.34-1.66l.26 1.54h1.88V49h-2.16v5.18zm-2.96 7.12c-1.8 0-2.98-1.4-2.98-3.42 0-2 1.18-3.4 2.98-3.4s2.98 1.4 2.98 3.44c0 1.98-1.18 3.38-2.98 3.38zm8.951-7.72c0-1.66 1-2.78 2.54-2.78 1.34 0 2.24.8 2.24 1.94 0 .96-.52 1.6-1.42 2.2-1.2.78-2.14 1.44-2.14 3.06v.64h2.04v-.4c0-1 .68-1.52 1.76-2.26 1.04-.74 2-1.62 2-3.46 0-2.1-1.72-3.64-4.5-3.64-2.98 0-4.72 2.1-4.72 4.7h2.2zm.92 8.2c0 .8.6 1.34 1.38 1.34.78 0 1.36-.54 1.36-1.34s-.58-1.34-1.36-1.34c-.78 0-1.38.54-1.38 1.34z" fill="#000"/></svg>