<svg width="157" height="69" viewBox="0 0 157 69" fill="none" xmlns="http://www.w3.org/2000/svg"><path d="M.44 2.844h4.752V16h2.53V2.844h4.752V.6H.44v2.244zm18.283 1.892c-1.848 0-2.75.748-3.322 1.694l-.264-1.694h-2.112V16h2.376v-5.654c0-1.738.682-3.388 2.794-3.388h1.056V4.736h-.528zm11.946 9.196c-.484 0-.726-.154-.726-.726v-4.51c0-2.662-1.716-4.092-4.708-4.092-2.838 0-4.73 1.364-4.972 3.564h2.332c.176-.99 1.122-1.65 2.53-1.65 1.562 0 2.464.77 2.464 2.024v.682h-2.838c-3.146 0-4.818 1.298-4.818 3.608 0 2.09 1.716 3.3 4.18 3.3 1.826 0 2.97-.792 3.718-1.936 0 1.122.528 1.804 2.068 1.804h1.254v-2.068h-.484zm-3.08-2.552c-.022 1.738-1.166 2.904-3.146 2.904-1.298 0-2.09-.66-2.09-1.606 0-1.144.814-1.694 2.288-1.694h2.948v.396zm13.33-5.082c-.726-.99-1.936-1.694-3.652-1.694-3.058 0-5.324 2.288-5.324 5.764 0 3.608 2.266 5.764 5.324 5.764 1.782 0 2.948-.836 3.674-1.826L41.227 16h2.068V.6H40.92v5.698zm-3.256 7.832c-1.98 0-3.278-1.54-3.278-3.762 0-2.2 1.298-3.74 3.278-3.74s3.278 1.54 3.278 3.784c0 2.178-1.298 3.718-3.278 3.718zm13.3 2.002c2.794 0 4.686-1.694 5.082-3.916H53.67c-.33 1.254-1.386 1.98-2.838 1.98-1.87 0-3.08-1.254-3.146-3.168v-.154h8.492c.044-.308.066-.616.066-.902-.066-3.3-2.244-5.368-5.5-5.368-3.322 0-5.544 2.31-5.544 5.786 0 3.454 2.222 5.742 5.764 5.742zm-3.19-6.996c.176-1.606 1.474-2.618 2.992-2.618 1.65 0 2.816.946 3.014 2.618h-6.006zM66.83 16h2.904l4.158-11.264h-2.508l-3.058 8.712-3.102-8.712h-2.552L66.829 16zm13.073.132c3.432 0 5.742-2.31 5.742-5.764 0-3.432-2.31-5.764-5.742-5.764s-5.742 2.332-5.742 5.764c0 3.454 2.31 5.764 5.742 5.764zm0-2.024c-2.002 0-3.3-1.562-3.3-3.74s1.298-3.74 3.3-3.74 3.322 1.562 3.322 3.74-1.32 3.74-3.322 3.74zM87.555 16h2.376V.6h-2.376V16zm15.001-2.068c-.484 0-.726-.154-.726-.726v-4.51c0-2.662-1.716-4.092-4.708-4.092-2.838 0-4.73 1.364-4.972 3.564h2.332c.176-.99 1.122-1.65 2.53-1.65 1.562 0 2.464.77 2.464 2.024v.682h-2.838c-3.146 0-4.818 1.298-4.818 3.608 0 2.09 1.716 3.3 4.18 3.3 1.826 0 2.97-.792 3.718-1.936 0 1.122.528 1.804 2.068 1.804h1.254v-2.068h-.484zm-3.08-2.552c-.022 1.738-1.166 2.904-3.146 2.904-1.298 0-2.09-.66-2.09-1.606 0-1.144.814-1.694 2.288-1.694h2.948v.396zm5.672 1.562c0 2.046.924 3.058 3.08 3.058h2.2v-2.09h-1.672c-.902 0-1.21-.33-1.21-1.21V6.826h2.75v-2.09h-2.75V1.59h-2.398v3.146h-1.958v2.09h1.958v6.116zm8.001-9.79c.814 0 1.452-.594 1.452-1.43s-.638-1.43-1.452-1.43-1.452.594-1.452 1.43.638 1.43 1.452 1.43zM111.939 16h2.376V4.736h-2.376V16zm4.706 0h2.376V.6h-2.376V16zm5.915-12.848c.814 0 1.452-.594 1.452-1.43s-.638-1.43-1.452-1.43-1.452.594-1.452 1.43.638 1.43 1.452 1.43zM121.35 16h2.376V4.736h-2.376V16zm5.519-3.058c0 2.046.924 3.058 3.08 3.058h2.2v-2.09h-1.672c-.902 0-1.21-.33-1.21-1.21V6.826h2.75v-2.09h-2.75V1.59h-2.398v3.146h-1.958v2.09h1.958v6.116zm10.047 3.124l-.44 1.1c-.352.924-.572 1.144-1.496 1.144h-1.672v2.09h2.552c1.65 0 2.134-.814 2.838-2.64l5.104-13.024h-2.53l-3.058 8.558-3.146-8.558h-2.53l4.378 11.33zM6.49 40.132c3.432 0 5.742-2.31 5.742-5.764 0-3.432-2.31-5.764-5.742-5.764S.748 30.936.748 34.368c0 3.454 2.31 5.764 5.742 5.764zm0-2.024c-2.002 0-3.3-1.562-3.3-3.74s1.298-3.74 3.3-3.74 3.322 1.562 3.322 3.74-1.32 3.74-3.322 3.74zm13.593-9.504c-1.826 0-2.904.726-3.608 1.606l-.264-1.474h-2.068V40h2.376v-5.676c0-2.288 1.122-3.674 3.014-3.674 1.782 0 2.684 1.144 2.684 3.278V40h2.398v-6.27c0-3.762-2.046-5.126-4.532-5.126zm13.135 8.338c0 2.046.924 3.058 3.08 3.058h2.2v-2.09h-1.672c-.902 0-1.21-.33-1.21-1.21v-5.874h2.75v-2.09h-2.75V25.59h-2.398v3.146H31.26v2.09h1.958v6.116zm12.71-8.338c-1.76 0-2.838.792-3.542 1.76V24.6H40.01V40h2.376v-5.698c0-2.266 1.144-3.652 3.014-3.652 1.76 0 2.706 1.144 2.706 3.278V40h2.376v-6.27c0-3.762-2.046-5.126-4.554-5.126zm11.975 11.528c2.794 0 4.686-1.694 5.082-3.916h-2.376c-.33 1.254-1.386 1.98-2.838 1.98-1.87 0-3.08-1.254-3.146-3.168v-.154h8.492c.044-.308.066-.616.066-.902-.066-3.3-2.244-5.368-5.5-5.368-3.322 0-5.544 2.31-5.544 5.786 0 3.454 2.222 5.742 5.764 5.742zm-3.19-6.996c.176-1.606 1.474-2.618 2.992-2.618 1.65 0 2.816.946 3.014 2.618h-6.006zM72.36 40l1.43-3.806h6.314L81.556 40h2.706L78.52 24.6h-3.014L69.742 40h2.618zm4.576-12.672l2.464 6.71h-4.906l2.442-6.71zm15.999 7.04c0 2.332-1.1 3.696-2.904 3.696-1.738 0-2.618-1.122-2.618-3.322v-6.006h-2.376v6.27c0 3.85 2.046 5.126 4.444 5.126 1.738 0 2.772-.704 3.476-1.562L93.22 40h2.09V28.736h-2.376v5.632zm4.233 1.914c.066 2.442 2.134 3.85 5.148 3.85 2.728 0 4.774-1.364 4.774-3.52 0-2.508-2.09-3.036-4.664-3.344-1.628-.176-2.706-.308-2.706-1.364 0-.902.924-1.474 2.332-1.474s2.376.726 2.508 1.76h2.332c-.154-2.31-2.112-3.586-4.884-3.586-2.706-.022-4.62 1.364-4.62 3.498 0 2.332 2.024 2.882 4.598 3.19 1.738.22 2.772.308 2.772 1.518 0 .902-.968 1.474-2.442 1.474-1.716 0-2.728-.836-2.816-2.002h-2.332zm12.578.66c0 2.046.924 3.058 3.08 3.058h2.2v-2.09h-1.672c-.902 0-1.21-.33-1.21-1.21v-5.874h2.75v-2.09h-2.75V25.59h-2.398v3.146h-1.958v2.09h1.958v6.116zm12.489-8.206c-1.848 0-2.75.748-3.322 1.694l-.264-1.694h-2.112V40h2.376v-5.654c0-1.738.682-3.388 2.794-3.388h1.056v-2.222h-.528zm11.946 9.196c-.484 0-.726-.154-.726-.726v-4.51c0-2.662-1.716-4.092-4.708-4.092-2.838 0-4.73 1.364-4.972 3.564h2.332c.176-.99 1.122-1.65 2.53-1.65 1.562 0 2.464.77 2.464 2.024v.682h-2.838c-3.146 0-4.818 1.298-4.818 3.608 0 2.09 1.716 3.3 4.18 3.3 1.826 0 2.97-.792 3.718-1.936 0 1.122.528 1.804 2.068 1.804h1.254v-2.068h-.484zm-3.08-2.552c-.022 1.738-1.166 2.904-3.146 2.904-1.298 0-2.09-.66-2.09-1.606 0-1.144.814-1.694 2.288-1.694h2.948v.396zm4.858 4.62h2.376V24.6h-2.376V40zm5.915-12.848c.814 0 1.452-.594 1.452-1.43s-.638-1.43-1.452-1.43-1.452.594-1.452 1.43.638 1.43 1.452 1.43zM140.664 40h2.376V28.736h-2.376V40zm15.001-2.068c-.484 0-.726-.154-.726-.726v-4.51c0-2.662-1.716-4.092-4.708-4.092-2.838 0-4.73 1.364-4.972 3.564h2.332c.176-.99 1.122-1.65 2.53-1.65 1.562 0 2.464.77 2.464 2.024v.682h-2.838c-3.146 0-4.818 1.298-4.818 3.608 0 2.09 1.716 3.3 4.18 3.3 1.826 0 2.97-.792 3.718-1.936 0 1.122.528 1.804 2.068 1.804h1.254v-2.068h-.484zm-3.08-2.552c-.022 1.738-1.166 2.904-3.146 2.904-1.298 0-2.09-.66-2.09-1.606 0-1.144.814-1.694 2.288-1.694h2.948v.396zM.484 64h10.912v-2.134H3.938l4.092-3.41c1.87-1.562 3.256-2.992 3.256-5.28 0-2.816-1.936-4.708-5.39-4.708-3.278 0-5.39 2.134-5.39 5.06v.396h2.442v-.264c0-1.914 1.188-3.102 2.948-3.102s2.926.968 2.926 2.728c0 1.474-1.034 2.552-2.42 3.718L.484 62.042V64zm12.405-7.348c0 4.642 2.486 7.48 6.072 7.48s6.072-2.838 6.072-7.48v-.704c0-4.466-2.486-7.48-6.072-7.48s-6.072 3.014-6.072 7.48v.704zm9.68-.088c0 3.454-1.452 5.434-3.608 5.434s-3.608-1.98-3.608-5.434v-.528c0-3.432 1.452-5.434 3.608-5.434s3.608 2.002 3.608 5.434v.528zm4.178.088c0 4.642 2.486 7.48 6.072 7.48s6.072-2.838 6.072-7.48v-.704c0-4.466-2.486-7.48-6.072-7.48s-6.072 3.014-6.072 7.48v.704zm9.68-.088c0 3.454-1.452 5.434-3.608 5.434s-3.608-1.98-3.608-5.434v-.528c0-3.432 1.452-5.434 3.608-5.434s3.608 2.002 3.608 5.434v.528zm10.928 4.378c0 2.046.924 3.058 3.08 3.058h2.2v-2.09h-1.672c-.902 0-1.21-.33-1.21-1.21v-5.874h2.75v-2.09h-2.75V49.59h-2.398v3.146h-1.958v2.09h1.958v6.116zm11.88 3.19c3.431 0 5.741-2.31 5.741-5.764 0-3.432-2.31-5.764-5.742-5.764s-5.742 2.332-5.742 5.764c0 3.454 2.31 5.764 5.742 5.764zm0-2.024c-2.003 0-3.3-1.562-3.3-3.74s1.297-3.74 3.3-3.74c2.001 0 3.321 1.562 3.321 3.74s-1.32 3.74-3.322 3.74zm16.21-7.81c-.726-.99-1.936-1.694-3.652-1.694-3.058 0-5.324 2.288-5.324 5.764 0 3.608 2.266 5.764 5.324 5.764 1.782 0 2.948-.836 3.674-1.826L75.753 64h2.068V48.6h-2.376v5.698zm-3.256 7.832c-1.98 0-3.278-1.54-3.278-3.762 0-2.2 1.298-3.74 3.278-3.74s3.278 1.54 3.278 3.784c0 2.178-1.298 3.718-3.278 3.718zm18.25-.198c-.484 0-.726-.154-.726-.726v-4.51c0-2.662-1.716-4.092-4.708-4.092-2.838 0-4.73 1.364-4.972 3.564h2.332c.176-.99 1.122-1.65 2.53-1.65 1.562 0 2.464.77 2.464 2.024v.682H84.52c-3.146 0-4.818 1.298-4.818 3.608 0 2.09 1.716 3.3 4.18 3.3 1.826 0 2.97-.792 3.718-1.936 0 1.122.528 1.804 2.068 1.804h1.254v-2.068h-.484zm-3.08-2.552c-.022 1.738-1.166 2.904-3.146 2.904-1.298 0-2.09-.66-2.09-1.606 0-1.144.814-1.694 2.288-1.694h2.948v.396zM95 64.066l-.44 1.1c-.352.924-.572 1.144-1.496 1.144h-1.672v2.09h2.552c1.65 0 2.134-.814 2.838-2.64l5.104-13.024h-2.53l-3.058 8.558-3.146-8.558h-2.53L95 64.066z" fill="#000"/></svg>