<svg width="168" height="11" viewBox="0 0 168 11" fill="none" xmlns="http://www.w3.org/2000/svg"><path d="M.2 2.02h2.16V8h1.15V2.02h2.16V1H.2v1.02zm8.89.8c-.8 0-1.29.36-1.61.8V1H6.4v7h1.08V5.41c0-1.03.52-1.66 1.37-1.66.8 0 1.23.52 1.23 1.49V8h1.08V5.15c0-1.71-.93-2.33-2.07-2.33zm5.442 5.24c1.27 0 2.13-.77 2.31-1.78h-1.08c-.15.57-.63.9-1.29.9-.85 0-1.4-.57-1.43-1.44v-.07h3.86c.02-.14.03-.28.03-.41-.03-1.5-1.02-2.44-2.5-2.44-1.51 0-2.52 1.05-2.52 2.63 0 1.57 1.01 2.61 2.62 2.61zm-1.45-3.18c.08-.73.67-1.19 1.36-1.19.75 0 1.28.43 1.37 1.19h-2.73zm10.022-2.06c-.79 0-1.32.36-1.66.82V1h-1.08v7h.94l.13-.74c.32.46.87.8 1.67.8 1.4 0 2.42-1.05 2.42-2.62 0-1.65-1.02-2.62-2.42-2.62zm-.18 4.33c-.9 0-1.49-.71-1.49-1.72 0-.99.59-1.69 1.49-1.69s1.5.7 1.5 1.7c0 1.01-.6 1.71-1.5 1.71zm4.015-4.99c.37 0 .66-.27.66-.65s-.29-.65-.66-.65c-.37 0-.66.27-.66.65s.29.65.66.65zM26.39 8h1.08V2.88h-1.08V8zm6.049-4.32c-.33-.51-.88-.86-1.68-.86-1.39 0-2.42 1.03-2.42 2.6 0 1.63 1.03 2.6 2.42 2.6.8 0 1.33-.33 1.67-.84v.57c0 .98-.53 1.43-1.47 1.43-.76 0-1.26-.33-1.39-.9h-1.1c.1 1.15 1.05 1.78 2.41 1.78 1.84 0 2.62-.88 2.62-2.27V2.88h-.94l-.12.8zm-1.5 3.43c-.9 0-1.49-.69-1.49-1.69 0-.99.59-1.69 1.49-1.69s1.49.7 1.49 1.71c0 .98-.59 1.67-1.49 1.67zm7.525-3.43c-.33-.51-.88-.86-1.68-.86-1.39 0-2.42 1.03-2.42 2.6 0 1.63 1.03 2.6 2.42 2.6.8 0 1.33-.33 1.67-.84v.57c0 .98-.53 1.43-1.47 1.43-.76 0-1.26-.33-1.39-.9h-1.1c.1 1.15 1.05 1.78 2.41 1.78 1.84 0 2.62-.88 2.62-2.27V2.88h-.94l-.12.8zm-1.5 3.43c-.9 0-1.49-.69-1.49-1.69 0-.99.59-1.69 1.49-1.69s1.49.7 1.49 1.71c0 .98-.59 1.67-1.49 1.67zm6.046.95c1.27 0 2.13-.77 2.31-1.78h-1.08c-.15.57-.63.9-1.29.9-.85 0-1.4-.57-1.43-1.44v-.07h3.86c.02-.14.03-.28.03-.41-.03-1.5-1.02-2.44-2.5-2.44-1.51 0-2.52 1.05-2.52 2.63 0 1.57 1.01 2.61 2.62 2.61zm-1.45-3.18c.08-.73.67-1.19 1.36-1.19.75 0 1.28.43 1.37 1.19h-2.73zm4.474 1.43c.03 1.11.97 1.75 2.34 1.75 1.24 0 2.17-.62 2.17-1.6 0-1.14-.95-1.38-2.12-1.52-.74-.08-1.23-.14-1.23-.62 0-.41.42-.67 1.06-.67.64 0 1.08.33 1.14.8h1.06c-.07-1.05-.96-1.63-2.22-1.63-1.23-.01-2.1.62-2.1 1.59 0 1.06.92 1.31 2.09 1.45.79.1 1.26.14 1.26.69 0 .41-.44.67-1.11.67-.78 0-1.24-.38-1.28-.91h-1.06zm5.717.3c0 .93.42 1.39 1.4 1.39h1v-.95h-.76c-.41 0-.55-.15-.55-.55V3.83h1.25v-.95h-1.25V1.45h-1.09v1.43h-.89v.95h.89v2.78zm9.555-2.93c-.33-.51-.88-.86-1.68-.86-1.39 0-2.42 1.03-2.42 2.6 0 1.63 1.03 2.6 2.42 2.6.8 0 1.33-.33 1.67-.84v.57c0 .98-.53 1.43-1.47 1.43-.76 0-1.26-.33-1.39-.9h-1.1c.1 1.15 1.05 1.78 2.41 1.78 1.84 0 2.62-.88 2.62-2.27V2.88h-.94l-.12.8zm-1.5 3.43c-.9 0-1.49-.69-1.49-1.69 0-.99.59-1.69 1.49-1.69s1.49.7 1.49 1.71c0 .98-.59 1.67-1.49 1.67zm8.296-.05c-.22 0-.33-.07-.33-.33V4.68c0-1.21-.78-1.86-2.14-1.86-1.29 0-2.15.62-2.26 1.62h1.06c.08-.45.51-.75 1.15-.75.71 0 1.12.35 1.12.92v.31h-1.29c-1.43 0-2.19.59-2.19 1.64 0 .95.78 1.5 1.9 1.5.83 0 1.35-.36 1.69-.88 0 .51.24.82.94.82h.57v-.94h-.22zM66.7 5.9c-.01.79-.53 1.32-1.43 1.32-.59 0-.95-.3-.95-.73 0-.52.37-.77 1.04-.77h1.34v.18zm8.098-3.08c-.84 0-1.42.37-1.75.93-.31-.66-.91-.93-1.58-.93-.77.01-1.21.35-1.5.73l-.12-.67h-.94V8h1.08V5.26c0-.91.46-1.51 1.2-1.51.71 0 1.08.47 1.08 1.37V8h1.09V5.23c0-.92.47-1.48 1.21-1.48.7 0 1.07.47 1.07 1.37V8h1.08V5.05c0-1.62-.86-2.23-1.92-2.23zm5.29 5.24c1.27 0 2.13-.77 2.31-1.78h-1.08c-.15.57-.63.9-1.29.9-.85 0-1.4-.57-1.43-1.44v-.07h3.86c.02-.14.03-.28.03-.41-.03-1.5-1.02-2.44-2.5-2.44-1.51 0-2.52 1.05-2.52 2.63 0 1.57 1.01 2.61 2.62 2.61zm-1.45-3.18c.08-.73.67-1.19 1.36-1.19.75 0 1.28.43 1.37 1.19h-2.73zm4.91 1.83c-.46 0-.76.3-.76.68 0 .43.26.64.59.64.12 0 .24-.03.33-.1.01.04.01.09.01.13 0 .35-.25.74-.88.75v.58c.99-.01 1.61-.56 1.61-1.53 0-.64-.35-1.15-.9-1.15zm4.845-4.55c.37 0 .66-.27.66-.65s-.29-.65-.66-.65c-.37 0-.66.27-.66.65s.29.65.66.65zM87.844 8h1.08V2.88h-1.08V8zm4.84-5.18c-.83 0-1.32.33-1.64.73l-.12-.67h-.94V8h1.08V5.42c0-1.04.51-1.67 1.37-1.67.81 0 1.22.52 1.22 1.49V8h1.09V5.15c0-1.71-.93-2.33-2.06-2.33zm2.821 3.49c.03 1.11.97 1.75 2.34 1.75 1.24 0 2.17-.62 2.17-1.6 0-1.14-.95-1.38-2.12-1.52-.74-.08-1.23-.14-1.23-.62 0-.41.42-.67 1.06-.67.64 0 1.08.33 1.14.8h1.06c-.07-1.05-.96-1.63-2.22-1.63-1.23-.01-2.1.62-2.1 1.59 0 1.06.92 1.31 2.09 1.45.79.1 1.26.14 1.26.69 0 .41-.44.67-1.11.67-.78 0-1.24-.38-1.28-.91h-1.06zm5.897-4.15c.37 0 .66-.27.66-.65s-.29-.65-.66-.65c-.37 0-.66.27-.66.65s.29.65.66.65zm-.55 5.84h1.08V2.88h-1.08V8zm6.029-4.41c-.33-.45-.88-.77-1.66-.77-1.39 0-2.42 1.04-2.42 2.62 0 1.64 1.03 2.62 2.42 2.62.81 0 1.34-.38 1.67-.83l.13.77h.94V1h-1.08v2.59zm-1.48 3.56c-.9 0-1.49-.7-1.49-1.71 0-1 .59-1.7 1.49-1.7s1.49.7 1.49 1.72c0 .99-.59 1.69-1.49 1.69zm6.045.91c1.27 0 2.13-.77 2.31-1.78h-1.08c-.15.57-.63.9-1.29.9-.85 0-1.4-.57-1.43-1.44v-.07h3.86c.02-.14.03-.28.03-.41-.03-1.5-1.02-2.44-2.5-2.44-1.51 0-2.52 1.05-2.52 2.63 0 1.57 1.01 2.61 2.62 2.61zm-1.45-3.18c.08-.73.67-1.19 1.36-1.19.75 0 1.28.43 1.37 1.19h-2.73zm8.762 3.15l-.2.5c-.16.42-.26.52-.68.52h-.76V10h1.16c.75 0 .97-.37 1.29-1.2l2.32-5.92h-1.15l-1.39 3.89-1.43-3.89h-1.15l1.99 5.15zm5.862.03c1.56 0 2.61-1.05 2.61-2.62 0-1.56-1.05-2.62-2.61-2.62-1.56 0-2.61 1.06-2.61 2.62 0 1.57 1.05 2.62 2.61 2.62zm0-.92c-.91 0-1.5-.71-1.5-1.7s.59-1.7 1.5-1.7 1.51.71 1.51 1.7-.6 1.7-1.51 1.7zm6.988-1.7c0 1.06-.5 1.68-1.32 1.68-.79 0-1.19-.51-1.19-1.51V2.88h-1.08v2.85c0 1.75.93 2.33 2.02 2.33.79 0 1.26-.32 1.58-.71l.12.65h.95V2.88h-1.08v2.56zm4.735-2.56c-.84 0-1.25.34-1.51.77l-.12-.77h-.96V8h1.08V5.43c0-.79.31-1.54 1.27-1.54h.48V2.88h-.24zm6.154-.06c-.8 0-1.29.36-1.61.8V1h-1.08v7h1.08V5.41c0-1.03.52-1.66 1.37-1.66.8 0 1.23.52 1.23 1.49V8h1.08V5.15c0-1.71-.93-2.33-2.07-2.33zm5.443 5.24c1.27 0 2.13-.77 2.31-1.78h-1.08c-.15.57-.63.9-1.29.9-.85 0-1.4-.57-1.43-1.44v-.07h3.86c.02-.14.03-.28.03-.41-.03-1.5-1.02-2.44-2.5-2.44-1.51 0-2.52 1.05-2.52 2.63 0 1.57 1.01 2.61 2.62 2.61zm-1.45-3.18c.08-.73.67-1.19 1.36-1.19.75 0 1.28.43 1.37 1.19h-2.73zm9.404 2.18c-.22 0-.33-.07-.33-.33V4.68c0-1.21-.78-1.86-2.14-1.86-1.29 0-2.15.62-2.26 1.62h1.06c.08-.45.51-.75 1.15-.75.71 0 1.12.35 1.12.92v.31h-1.29c-1.43 0-2.19.59-2.19 1.64 0 .95.78 1.5 1.9 1.5.83 0 1.35-.36 1.69-.88 0 .51.24.82.94.82h.57v-.94h-.22zm-1.4-1.16c-.01.79-.53 1.32-1.43 1.32-.59 0-.95-.3-.95-.73 0-.52.37-.77 1.04-.77h1.34v.18zm6.059-2.31c-.33-.45-.88-.77-1.66-.77-1.39 0-2.42 1.04-2.42 2.62 0 1.64 1.03 2.62 2.42 2.62.81 0 1.34-.38 1.67-.83l.13.77h.94V1h-1.08v2.59zm-1.48 3.56c-.9 0-1.49-.7-1.49-1.71 0-1 .59-1.7 1.49-1.7s1.49.7 1.49 1.72c0 .99-.59 1.69-1.49 1.69zm4.475-3.86c0-.83.5-1.39 1.27-1.39.67 0 1.12.4 1.12.97 0 .48-.26.8-.71 1.1-.6.39-1.07.72-1.07 1.53v.32h1.02v-.2c0-.5.34-.76.88-1.13.52-.37 1-.81 1-1.73 0-1.05-.86-1.82-2.25-1.82-1.49 0-2.36 1.05-2.36 2.35h1.1zm.46 4.1c0 .4.3.67.69.67.39 0 .68-.27.68-.67s-.29-.67-.68-.67c-.39 0-.69.27-.69.67z" fill="#000"/></svg>