<svg width="101" height="25" viewBox="0 0 101 25" fill="none" xmlns="http://www.w3.org/2000/svg"><path d="M2.238 6.602c-.345 0-.642-.121-.891-.363a1.23 1.23 0 01-.374-.902c0-.36.125-.66.374-.902.25-.25.546-.374.89-.374.36 0 .66.125.903.374.25.242.374.543.374.902 0 .352-.125.653-.374.902a1.225 1.225 0 01-.902.363zm9.912-4.664v2.871h2.915v.638H12.15v2.915h3.245V9H11.38V1.3h4.015v.638H12.15zM20.058 9l-1.55-2.42L17.01 9h-.814l1.936-3.003-1.914-3.003h.87l1.528 2.387 1.485-2.387h.803l-1.914 2.97L20.927 9h-.869zm1.562-3.003c0-.623.124-1.166.374-1.628a2.62 2.62 0 011.034-1.078c.44-.257.942-.385 1.507-.385.74 0 1.35.183 1.826.55.484.367.796.865.935 1.496h-.825A1.658 1.658 0 0025.8 3.94c-.338-.25-.76-.374-1.265-.374-.404 0-.767.092-1.09.275-.322.183-.579.458-.77.825-.183.36-.274.803-.274 1.331 0 .528.091.975.275 1.342.19.367.447.642.77.825.322.183.685.275 1.089.275.506 0 .927-.121 1.265-.363.345-.25.568-.594.67-1.034h.826a2.519 2.519 0 01-.935 1.485c-.484.374-1.093.561-1.826.561-.565 0-1.067-.125-1.507-.374a2.71 2.71 0 01-1.034-1.078c-.25-.47-.374-1.016-.374-1.639zM29.488.86V9h-.77V.86h.77zm6.947 2.134V9h-.77V7.944c-.176.374-.448.66-.814.858a2.551 2.551 0 01-1.232.297c-.72 0-1.306-.22-1.76-.66-.455-.447-.682-1.093-.682-1.936V2.994h.759v3.421c0 .653.16 1.151.484 1.496.33.345.777.517 1.342.517.579 0 1.04-.183 1.386-.55.344-.367.517-.906.517-1.617V2.994h.77zm3.825 6.094c-.689 0-1.253-.158-1.694-.473a1.766 1.766 0 01-.726-1.309h.792c.037.337.195.612.474.825.285.205.667.308 1.143.308.418 0 .745-.099.98-.297a.916.916 0 00.363-.737.685.685 0 00-.198-.506 1.34 1.34 0 00-.506-.308 6.531 6.531 0 00-.814-.253 8.337 8.337 0 01-1.09-.352 1.928 1.928 0 01-.715-.517c-.19-.235-.285-.546-.285-.935 0-.293.087-.565.264-.814.175-.25.425-.447.748-.594a2.63 2.63 0 011.1-.22c.645 0 1.166.165 1.562.495.395.323.608.77.637 1.342h-.77a1.144 1.144 0 00-.417-.847c-.25-.22-.594-.33-1.034-.33-.39 0-.704.092-.947.275-.242.183-.363.41-.363.682 0 .235.07.429.21.583.146.147.326.264.539.352.212.08.498.172.858.275.432.117.777.231 1.033.341.257.11.477.271.66.484.184.213.28.495.286.847a1.5 1.5 0 01-.264.869c-.175.25-.421.447-.736.594-.316.147-.679.22-1.09.22zm3.925-7.227a.54.54 0 01-.396-.165.553.553 0 01-.165-.407c0-.161.055-.293.165-.396a.54.54 0 01.396-.165.54.54 0 01.396.165c.11.103.165.235.165.396a.553.553 0 01-.165.407.54.54 0 01-.396.165zm.385 1.133V9h-.77V2.994h.77zm3.878 5.258l2.024-5.258h.814L48.876 9h-.868l-2.41-6.006h.826l2.024 5.258zm9.315-2.563c0 .264-.007.466-.022.605h-4.983c.022.455.132.843.33 1.166.198.323.459.568.781.737.323.161.675.242 1.056.242.499 0 .917-.121 1.254-.363.345-.242.572-.568.682-.979h.814a2.559 2.559 0 01-.946 1.441c-.476.367-1.078.55-1.804.55-.564 0-1.07-.125-1.518-.374a2.765 2.765 0 01-1.056-1.078c-.25-.47-.374-1.016-.374-1.639s.125-1.17.374-1.639a2.6 2.6 0 011.045-1.078c.448-.25.957-.374 1.53-.374.571 0 1.07.125 1.495.374.433.25.763.587.99 1.012.235.418.352.884.352 1.397zm-.78-.022c.007-.447-.085-.829-.276-1.144a1.784 1.784 0 00-.759-.715 2.328 2.328 0 00-1.056-.242c-.572 0-1.06.183-1.463.55-.403.367-.627.884-.67 1.551h4.223zm6.209-2.024v3.729c0 .367.07.62.209.759.139.14.384.209.736.209h.704V9h-.825c-.542 0-.946-.125-1.21-.374-.264-.257-.395-.675-.395-1.254V3.643h-.837v-.649h.837V1.487h.78v1.507h1.65v.649h-1.65zm3.69.418a1.89 1.89 0 01.77-.869c.351-.205.78-.308 1.286-.308v.803h-.209c-.557 0-1.004.15-1.342.451-.337.3-.506.803-.506 1.507V9h-.77V2.994h.77v1.067zm2.863 1.925c0-.616.12-1.155.363-1.617.25-.47.59-.829 1.023-1.078.44-.257.935-.385 1.485-.385.572 0 1.063.132 1.474.396.418.264.718.601.902 1.012v-1.32h.77V9h-.77V7.669c-.19.41-.495.752-.913 1.023-.41.264-.902.396-1.474.396a2.871 2.871 0 01-1.474-.385 2.716 2.716 0 01-1.023-1.089c-.242-.47-.363-1.012-.363-1.628zm5.247.011c0-.484-.1-.91-.297-1.276a2.107 2.107 0 00-.814-.847 2.175 2.175 0 00-1.122-.297c-.425 0-.807.095-1.144.286-.337.19-.605.47-.803.836-.19.36-.286.788-.286 1.287 0 .491.095.924.286 1.298.198.367.466.649.803.847.337.19.719.286 1.144.286.41 0 .784-.099 1.122-.297.344-.198.616-.48.814-.847.198-.367.297-.792.297-1.276zm2.176-.011c0-.616.124-1.155.374-1.617.249-.47.59-.829 1.023-1.078.44-.257.935-.385 1.485-.385.528 0 1.004.128 1.43.385.425.257.737.59.935 1.001V.86h.77V9h-.77V7.658a2.346 2.346 0 01-.902 1.034c-.418.264-.91.396-1.474.396-.55 0-1.045-.128-1.485-.385a2.718 2.718 0 01-1.023-1.089c-.242-.47-.363-1.012-.363-1.628zm5.247.011c0-.484-.1-.91-.297-1.276a2.107 2.107 0 00-.814-.847 2.175 2.175 0 00-1.122-.297c-.426 0-.807.095-1.144.286-.338.19-.605.47-.803.836-.191.36-.286.788-.286 1.287 0 .491.095.924.286 1.298.198.367.465.649.803.847.337.19.718.286 1.144.286.41 0 .784-.099 1.122-.297.344-.198.616-.48.814-.847.198-.367.297-.792.297-1.276zm2.912-4.136a.54.54 0 01-.395-.165.553.553 0 01-.166-.407c0-.161.055-.293.165-.396a.54.54 0 01.397-.165.54.54 0 01.395.165c.11.103.165.235.165.396a.553.553 0 01-.165.407.54.54 0 01-.395.165zm.386 1.133V9h-.77V2.994h.77zm4.56-.11c.718 0 1.305.224 1.76.671.454.44.681 1.082.681 1.925V9h-.759V5.568c0-.653-.165-1.151-.495-1.496-.322-.345-.766-.517-1.33-.517-.58 0-1.042.183-1.387.55-.344.367-.517.906-.517 1.617V9h-.77V2.994h.77v1.023c.19-.367.466-.645.825-.836.36-.198.766-.297 1.221-.297zm6.663.022c.565 0 1.056.132 1.474.396.418.264.719.598.902 1.001V2.994h.77v6.16c0 .55-.12 1.038-.363 1.463a2.403 2.403 0 01-.99.979c-.425.235-.91.352-1.452.352-.77 0-1.412-.183-1.925-.55a2.34 2.34 0 01-.946-1.496h.76c.131.418.38.752.747 1.001.374.25.829.374 1.364.374a2.14 2.14 0 001.045-.253c.308-.161.55-.403.726-.726.176-.323.264-.704.264-1.144V7.669c-.19.41-.495.752-.913 1.023-.41.264-.898.396-1.463.396-.55 0-1.045-.128-1.485-.385a2.716 2.716 0 01-1.023-1.089c-.242-.47-.363-1.012-.363-1.628 0-.616.121-1.155.363-1.617.25-.47.59-.829 1.023-1.078.44-.257.935-.385 1.485-.385zm2.376 3.091c0-.484-.099-.91-.297-1.276a2.107 2.107 0 00-.814-.847 2.175 2.175 0 00-1.122-.297c-.425 0-.807.095-1.144.286-.337.19-.605.47-.803.836-.19.36-.286.788-.286 1.287 0 .491.095.924.286 1.298.198.367.466.649.803.847.337.19.719.286 1.144.286.41 0 .785-.099 1.122-.297.345-.198.616-.48.814-.847.198-.367.297-.792.297-1.276zM12.381 18.643v3.729c0 .367.07.62.209.759.14.14.385.209.737.209h.704V24h-.825c-.543 0-.946-.125-1.21-.374-.264-.257-.396-.675-.396-1.254v-3.729h-.836v-.649h.836v-1.507h.781v1.507h1.65v.649h-1.65zm5.549 5.445a3.127 3.127 0 01-1.53-.374 2.843 2.843 0 01-1.066-1.078c-.257-.47-.385-1.016-.385-1.639s.132-1.166.396-1.628c.264-.47.623-.829 1.078-1.078a3.055 3.055 0 011.529-.385c.565 0 1.074.128 1.529.385.462.25.821.609 1.078 1.078.264.462.396 1.005.396 1.628 0 .616-.132 1.159-.396 1.628-.264.47-.627.832-1.09 1.089a3.19 3.19 0 01-1.54.374zm0-.671c.396 0 .763-.088 1.1-.264.337-.183.609-.455.814-.814.213-.367.319-.814.319-1.342 0-.528-.103-.972-.308-1.331a1.977 1.977 0 00-.814-.814 2.267 2.267 0 00-1.1-.275c-.396 0-.763.092-1.1.275a1.977 1.977 0 00-.814.814c-.198.36-.297.803-.297 1.331 0 .528.099.975.297 1.342.205.36.473.63.803.814.337.176.704.264 1.1.264zm7.058.671a3.127 3.127 0 01-1.53-.374 2.843 2.843 0 01-1.066-1.078c-.257-.47-.386-1.016-.386-1.639s.133-1.166.396-1.628c.264-.47.624-.829 1.078-1.078a3.055 3.055 0 011.53-.385c.564 0 1.074.128 1.528.385.462.25.822.609 1.078 1.078.265.462.396 1.005.396 1.628 0 .616-.131 1.159-.396 1.628-.264.47-.627.832-1.088 1.089a3.19 3.19 0 01-1.54.374zm0-.671c.396 0 .762-.088 1.1-.264.337-.183.608-.455.813-.814.213-.367.32-.814.32-1.342 0-.528-.103-.972-.308-1.331a1.977 1.977 0 00-.814-.814 2.267 2.267 0 00-1.1-.275c-.396 0-.763.092-1.1.275a1.977 1.977 0 00-.815.814c-.197.36-.296.803-.296 1.331 0 .528.099.975.296 1.342.206.36.474.63.803.814.338.176.704.264 1.1.264zm5.198-7.557V24h-.77v-8.14h.77zm3.812 8.228c-.69 0-1.254-.158-1.694-.473a1.766 1.766 0 01-.726-1.309h.792c.037.337.194.612.473.825.286.205.667.308 1.144.308.418 0 .744-.099.979-.297a.916.916 0 00.363-.737.685.685 0 00-.198-.506 1.34 1.34 0 00-.506-.308 6.526 6.526 0 00-.814-.253 8.337 8.337 0 01-1.09-.352 1.928 1.928 0 01-.714-.517c-.19-.235-.286-.546-.286-.935 0-.293.088-.565.264-.814.176-.25.425-.447.748-.594a2.63 2.63 0 011.1-.22c.645 0 1.166.165 1.562.495.396.323.608.77.638 1.342h-.77a1.144 1.144 0 00-.418-.847c-.25-.22-.594-.33-1.034-.33-.389 0-.704.092-.946.275-.242.183-.363.41-.363.682 0 .235.07.429.209.583.147.147.326.264.539.352.212.08.498.172.858.275.433.117.777.231 1.034.341.256.11.476.271.66.484.183.213.279.495.286.847a1.5 1.5 0 01-.264.869c-.176.25-.422.447-.737.594-.316.147-.679.22-1.09.22z" fill="#fff"/></svg>