<svg width="97" height="23" viewBox="0 0 97 23" fill="none" xmlns="http://www.w3.org/2000/svg"><path d="M1.74 5.038a1.01 1.01 0 01-.729-.297 1.006 1.006 0 01-.306-.738c0-.294.102-.54.306-.738a.995.995 0 01.73-.306c.293 0 .539.102.737.306a.987.987 0 01.306.738c0 .288-.102.534-.306.738a1.002 1.002 0 01-.738.297zM9.85.709V7h-.63V.709h.63zm3.73 1.287c.589 0 1.069.183 1.44.549.373.36.559.885.559 1.575V7h-.621V4.192c0-.534-.135-.942-.405-1.224-.264-.282-.627-.423-1.09-.423-.473 0-.851.15-1.133.45-.282.3-.423.741-.423 1.323V7h-.63V2.086h.63v.837c.156-.3.38-.528.675-.684.294-.162.627-.243.999-.243zm5.084 5.076c-.564 0-1.026-.129-1.386-.387a1.445 1.445 0 01-.594-1.071h.648c.03.276.159.501.387.675.234.168.546.252.936.252.342 0 .609-.081.801-.243a.75.75 0 00.297-.603.56.56 0 00-.162-.414 1.096 1.096 0 00-.414-.252 5.346 5.346 0 00-.666-.207 6.818 6.818 0 01-.891-.288 1.577 1.577 0 01-.585-.423c-.156-.192-.234-.447-.234-.765 0-.24.072-.462.216-.666.144-.204.348-.366.612-.486s.564-.18.9-.18c.528 0 .954.135 1.278.405.324.264.498.63.522 1.098h-.63a.936.936 0 00-.342-.693c-.204-.18-.486-.27-.846-.27-.318 0-.576.075-.774.225-.198.15-.297.336-.297.558 0 .192.057.351.171.477.12.12.267.216.441.288.174.066.408.141.702.225.354.096.636.189.846.279.21.09.39.222.54.396.15.174.228.405.234.693 0 .264-.072.501-.216.711a1.484 1.484 0 01-.603.486 2.09 2.09 0 01-.891.18zm3.715-4.455v3.051c0 .3.057.507.17.621.115.114.316.171.604.171h.576V7h-.675c-.444 0-.774-.102-.99-.306-.216-.21-.324-.552-.324-1.026V2.617h-.684v-.531h.684V.853h.639v1.233h1.35v.531h-1.35zm2.704-1.458a.442.442 0 01-.324-.135.452.452 0 01-.135-.333c0-.132.045-.24.135-.324a.442.442 0 01.324-.135c.126 0 .234.045.324.135.09.084.135.192.135.324a.452.452 0 01-.135.333.442.442 0 01-.324.135zm.315.927V7h-.63V2.086h.63zm2.245.531v3.051c0 .3.058.507.171.621.114.114.316.171.604.171h.576V7h-.675c-.444 0-.774-.102-.99-.306-.216-.21-.325-.552-.325-1.026V2.617h-.684v-.531h.684V.853h.64v1.233h1.35v.531h-1.35zm6.646-.531V7h-.63v-.864a1.51 1.51 0 01-.666.702c-.3.162-.636.243-1.008.243-.587 0-1.067-.18-1.44-.54-.372-.366-.558-.894-.558-1.584V2.086h.622v2.799c0 .534.131.942.395 1.224.27.282.636.423 1.098.423.475 0 .853-.15 1.135-.45.282-.3.422-.741.422-1.323V2.086h.63zm2.258.531v3.051c0 .3.057.507.17.621.115.114.316.171.604.171h.576V7h-.675c-.444 0-.774-.102-.99-.306-.216-.21-.324-.552-.324-1.026V2.617h-.684v-.531h.684V.853h.639v1.233h1.35v.531h-1.35zm2.704-1.458a.442.442 0 01-.324-.135.452.452 0 01-.135-.333c0-.132.045-.24.135-.324a.442.442 0 01.324-.135c.126 0 .234.045.324.135.09.084.135.192.135.324a.452.452 0 01-.135.333.442.442 0 01-.324.135zm.315.927V7h-.63V2.086h.63zm3.578 4.986c-.462 0-.88-.102-1.252-.306a2.326 2.326 0 01-.873-.882c-.21-.384-.314-.831-.314-1.341s.108-.954.324-1.332c.215-.384.51-.678.881-.882a2.5 2.5 0 011.252-.315 2.5 2.5 0 011.25.315c.379.204.672.498.883.882.215.378.323.822.323 1.332 0 .504-.108.948-.324 1.332a2.272 2.272 0 01-.89.891 2.61 2.61 0 01-1.26.306zm0-.549c.324 0 .623-.072.9-.216.276-.15.498-.372.666-.666.173-.3.26-.666.26-1.098 0-.432-.084-.795-.252-1.089-.168-.3-.39-.522-.666-.666a1.855 1.855 0 00-.9-.225c-.324 0-.623.075-.9.225a1.618 1.618 0 00-.666.666c-.161.294-.242.657-.242 1.089 0 .432.08.798.242 1.098.169.294.388.516.657.666.276.144.576.216.9.216zm5.927-4.527c.588 0 1.068.183 1.44.549.372.36.558.885.558 1.575V7h-.621V4.192c0-.534-.135-.942-.405-1.224-.264-.282-.627-.423-1.09-.423-.473 0-.851.15-1.133.45-.282.3-.423.741-.423 1.323V7h-.63V2.086h.63v.837c.156-.3.38-.528.675-.684.294-.162.627-.243.999-.243zm3.103 2.538c0-.504.1-.945.297-1.323a2.16 2.16 0 01.837-.882c.36-.21.765-.315 1.215-.315.468 0 .87.108 1.206.324.342.216.588.492.738.828v-1.08h.63V7h-.63V5.911a1.993 1.993 0 01-.747.837c-.336.216-.738.324-1.206.324a2.35 2.35 0 01-1.206-.315 2.223 2.223 0 01-.837-.891c-.198-.384-.297-.828-.297-1.332zm4.293.009c0-.396-.08-.744-.243-1.044a1.724 1.724 0 00-.666-.693 1.78 1.78 0 00-.918-.243c-.348 0-.66.078-.936.234a1.681 1.681 0 00-.657.684c-.156.294-.234.645-.234 1.053 0 .402.078.756.234 1.062.162.3.381.531.657.693.276.156.588.234.936.234.336 0 .642-.081.918-.243.282-.162.504-.393.666-.693.162-.3.243-.648.243-1.044zM59.165.34V7h-.63V.34h.63zm4.478 3.06v.531h-3.5V3.4h3.5zm3.677-1.386c.462 0 .864.108 1.206.324.342.216.588.489.738.819V2.086h.63v5.04c0 .45-.099.849-.297 1.197a1.966 1.966 0 01-.81.801 2.418 2.418 0 01-1.188.288c-.63 0-1.155-.15-1.575-.45a1.915 1.915 0 01-.774-1.224h.621c.108.342.312.615.612.819.306.204.678.306 1.116.306.318 0 .603-.069.855-.207.252-.132.45-.33.594-.594.144-.264.216-.576.216-.936V5.911a1.993 1.993 0 01-.747.837c-.336.216-.735.324-1.197.324-.45 0-.855-.105-1.215-.315a2.223 2.223 0 01-.837-.891c-.198-.384-.297-.828-.297-1.332 0-.504.1-.945.297-1.323a2.16 2.16 0 01.837-.882c.36-.21.765-.315 1.215-.315zm1.944 2.529c0-.396-.08-.744-.243-1.044a1.724 1.724 0 00-.666-.693 1.78 1.78 0 00-.918-.243c-.348 0-.66.078-.936.234a1.681 1.681 0 00-.657.684c-.156.294-.234.645-.234 1.053 0 .402.078.756.234 1.062.162.3.381.531.657.693.276.156.588.234.936.234.336 0 .642-.081.918-.243.282-.162.504-.393.666-.693.162-.3.243-.648.243-1.044zm2.698-1.584c.138-.306.348-.543.63-.711.288-.168.64-.252 1.053-.252v.657h-.17c-.457 0-.823.123-1.099.369s-.414.657-.414 1.233V7h-.63V2.086h.63v.873zm2.343 1.575c0-.504.099-.945.297-1.323a2.16 2.16 0 01.837-.882c.36-.21.765-.315 1.215-.315.468 0 .87.108 1.206.324.342.216.588.492.738.828v-1.08h.63V7h-.63V5.911a1.993 1.993 0 01-.747.837c-.336.216-.738.324-1.206.324a2.35 2.35 0 01-1.206-.315 2.223 2.223 0 01-.837-.891c-.198-.384-.297-.828-.297-1.332zm4.293.009c0-.396-.081-.744-.243-1.044a1.724 1.724 0 00-.666-.693 1.78 1.78 0 00-.918-.243c-.348 0-.66.078-.936.234a1.681 1.681 0 00-.657.684c-.156.294-.234.645-.234 1.053 0 .402.078.756.234 1.062.162.3.381.531.657.693.276.156.588.234.936.234.336 0 .642-.081.918-.243.282-.162.504-.393.666-.693.162-.3.243-.648.243-1.044zm1.78-.009c0-.504.102-.945.306-1.323a2.16 2.16 0 01.837-.882c.36-.21.765-.315 1.215-.315.432 0 .822.105 1.17.315.348.21.603.483.765.819V.34h.63V7h-.63V5.902a1.92 1.92 0 01-.738.846c-.342.216-.744.324-1.206.324-.45 0-.855-.105-1.215-.315a2.223 2.223 0 01-.837-.891c-.198-.384-.297-.828-.297-1.332zm4.293.009c0-.396-.08-.744-.243-1.044a1.724 1.724 0 00-.666-.693 1.78 1.78 0 00-.918-.243c-.348 0-.66.078-.936.234a1.681 1.681 0 00-.657.684c-.156.294-.234.645-.234 1.053 0 .402.078.756.234 1.062.162.3.381.531.657.693.276.156.588.234.936.234.336 0 .642-.081.918-.243.282-.162.504-.393.666-.693.162-.3.243-.648.243-1.044zm6.514-.252c0 .216-.005.381-.017.495H87.09c.019.372.108.69.27.954.162.264.376.465.64.603.263.132.552.198.864.198.407 0 .75-.099 1.025-.297.282-.198.469-.465.559-.801h.666c-.12.48-.379.873-.775 1.179-.39.3-.882.45-1.475.45-.463 0-.877-.102-1.243-.306a2.262 2.262 0 01-.864-.882c-.204-.384-.306-.831-.306-1.341s.103-.957.306-1.341c.204-.384.49-.678.855-.882a2.526 2.526 0 011.252-.306c.468 0 .876.102 1.224.306.354.204.624.48.81.828.192.342.288.723.288 1.143zm-.639-.018c.006-.366-.069-.678-.225-.936a1.46 1.46 0 00-.62-.585 1.905 1.905 0 00-.864-.198c-.469 0-.868.15-1.198.45-.33.3-.513.723-.548 1.269h3.456zM9.841 16.166c.156-.33.402-.603.738-.819.342-.222.747-.333 1.215-.333.444 0 .843.105 1.197.315.36.204.639.498.837.882.204.378.306.819.306 1.323s-.102.948-.306 1.332a2.144 2.144 0 01-.837.891c-.354.21-.753.315-1.197.315-.462 0-.864-.108-1.206-.324a2.008 2.008 0 01-.747-.828v3.402H9.22v-7.236h.621v1.08zm3.654 1.368c0-.408-.081-.759-.243-1.053a1.624 1.624 0 00-.648-.684 1.869 1.869 0 00-.936-.234c-.336 0-.645.081-.927.243a1.744 1.744 0 00-.657.693c-.162.3-.243.648-.243 1.044s.081.744.243 1.044c.162.3.381.531.657.693.282.162.591.243.927.243.348 0 .66-.078.936-.234.276-.162.492-.393.648-.693.162-.306.243-.66.243-1.062zm2.428-1.575c.138-.306.348-.543.63-.711.288-.168.64-.252 1.053-.252v.657h-.17c-.457 0-.823.123-1.099.369s-.414.657-.414 1.233V20h-.63v-4.914h.63v.873zm2.946-1.8a.442.442 0 01-.324-.135.452.452 0 01-.135-.333c0-.132.045-.24.135-.324a.442.442 0 01.324-.135c.126 0 .234.045.324.135.09.084.135.192.135.324a.452.452 0 01-.135.333.442.442 0 01-.324.135zm.315.927V20h-.63v-4.914h.63zm1.139 2.457c0-.51.102-.954.306-1.332.204-.384.486-.678.846-.882.36-.21.77-.315 1.233-.315.606 0 1.104.15 1.494.45.396.3.65.708.765 1.224h-.675a1.356 1.356 0 00-.55-.828c-.275-.204-.62-.306-1.034-.306-.33 0-.627.075-.891.225a1.6 1.6 0 00-.63.675c-.15.294-.225.657-.225 1.089 0 .432.075.798.225 1.098.156.3.366.525.63.675.264.15.56.225.89.225.415 0 .76-.099 1.036-.297.282-.204.465-.486.549-.846h.675a2.061 2.061 0 01-.765 1.215c-.396.306-.894.459-1.494.459-.462 0-.873-.102-1.233-.306a2.218 2.218 0 01-.846-.882c-.204-.384-.306-.831-.306-1.341zm6.122-3.384a.442.442 0 01-.324-.135.452.452 0 01-.135-.333c0-.132.045-.24.135-.324a.442.442 0 01.324-.135c.126 0 .234.045.324.135.09.084.135.192.135.324a.452.452 0 01-.135.333.442.442 0 01-.324.135zm.315.927V20h-.63v-4.914h.63zm3.73-.09c.589 0 1.069.183 1.44.549.373.36.559.885.559 1.575V20h-.621v-2.808c0-.534-.135-.942-.405-1.224-.264-.282-.627-.423-1.09-.423-.473 0-.851.15-1.133.45-.282.3-.423.741-.423 1.323V20h-.63v-4.914h.63v.837c.156-.3.38-.528.675-.684.294-.162.627-.243.999-.243zm5.453.018c.462 0 .864.108 1.206.324.342.216.588.489.738.819v-1.071h.63v5.04c0 .45-.099.849-.297 1.197a1.966 1.966 0 01-.81.801 2.418 2.418 0 01-1.188.288c-.63 0-1.155-.15-1.575-.45a1.915 1.915 0 01-.774-1.224h.621c.108.342.312.615.612.819.306.204.678.306 1.116.306.318 0 .603-.069.855-.207.252-.132.45-.33.594-.594.144-.264.216-.576.216-.936v-1.215a1.993 1.993 0 01-.747.837c-.336.216-.735.324-1.197.324-.45 0-.855-.105-1.215-.315a2.223 2.223 0 01-.837-.891c-.198-.384-.297-.828-.297-1.332 0-.504.1-.945.297-1.323a2.16 2.16 0 01.837-.882c.36-.21.765-.315 1.215-.315zm1.944 2.529c0-.396-.08-.744-.243-1.044a1.724 1.724 0 00-.666-.693 1.78 1.78 0 00-.918-.243c-.348 0-.66.078-.936.234a1.681 1.681 0 00-.657.684c-.156.294-.234.645-.234 1.053 0 .402.078.756.234 1.062.162.3.381.531.657.693.276.156.588.234.936.234.336 0 .642-.081.918-.243.282-.162.504-.393.666-.693.162-.3.243-.648.243-1.044zm4.25-.009c0-.504.1-.945.297-1.323a2.16 2.16 0 01.837-.882c.36-.21.765-.315 1.215-.315.468 0 .87.108 1.206.324.342.216.588.492.738.828v-1.08h.63V20h-.63v-1.089a1.993 1.993 0 01-.747.837c-.336.216-.738.324-1.206.324a2.35 2.35 0 01-1.206-.315 2.223 2.223 0 01-.837-.891c-.198-.384-.297-.828-.297-1.332zm4.293.009c0-.396-.08-.744-.243-1.044a1.724 1.724 0 00-.666-.693 1.78 1.78 0 00-.918-.243c-.348 0-.66.078-.936.234a1.681 1.681 0 00-.657.684c-.156.294-.234.645-.234 1.053 0 .402.078.756.234 1.062.162.3.381.531.657.693.276.156.588.234.936.234.336 0 .642-.081.918-.243.282-.162.504-.393.666-.693.162-.3.243-.648.243-1.044zm4.372-2.547c.588 0 1.068.183 1.44.549.372.36.558.885.558 1.575V20h-.62v-2.808c0-.534-.136-.942-.406-1.224-.264-.282-.627-.423-1.089-.423-.474 0-.852.15-1.134.45-.282.3-.423.741-.423 1.323V20h-.63v-4.914h.63v.837c.156-.3.381-.528.675-.684.294-.162.627-.243 1-.243zm3.104 2.538c0-.504.102-.945.306-1.323a2.16 2.16 0 01.837-.882c.36-.21.765-.315 1.215-.315.432 0 .822.105 1.17.315.348.21.603.483.765.819V13.34h.63V20h-.63v-1.098a1.92 1.92 0 01-.738.846c-.342.216-.744.324-1.206.324-.45 0-.855-.105-1.215-.315a2.223 2.223 0 01-.837-.891c-.198-.384-.297-.828-.297-1.332zm4.293.009c0-.396-.081-.744-.243-1.044a1.724 1.724 0 00-.666-.693 1.78 1.78 0 00-.918-.243c-.348 0-.66.078-.936.234a1.681 1.681 0 00-.657.684c-.156.294-.234.645-.234 1.053 0 .402.078.756.234 1.062.162.3.38.531.657.693.276.156.588.234.936.234.336 0 .642-.081.918-.243.282-.162.504-.393.666-.693.162-.3.243-.648.243-1.044zm5.168-4.203V20h-.63v-6.66h.63zm1.741.819a.442.442 0 01-.324-.135.452.452 0 01-.135-.333c0-.132.045-.24.135-.324a.442.442 0 01.324-.135c.126 0 .234.045.324.135.09.084.135.192.135.324a.452.452 0 01-.135.333.442.442 0 01-.324.135zm.315.927V20h-.63v-4.914h.63zm1.139 2.448c0-.504.102-.945.306-1.323a2.16 2.16 0 01.837-.882c.36-.21.765-.315 1.215-.315.462 0 .864.111 1.206.333.342.216.585.489.729.819v-1.08h.63v7.236h-.63V18.92c-.144.33-.39.606-.738.828-.342.216-.747.324-1.215.324a2.35 2.35 0 01-1.206-.315 2.223 2.223 0 01-.837-.891c-.198-.384-.297-.828-.297-1.332zm4.293.009c0-.396-.081-.744-.243-1.044a1.724 1.724 0 00-.666-.693 1.78 1.78 0 00-.918-.243c-.348 0-.66.078-.936.234a1.681 1.681 0 00-.657.684c-.156.294-.234.645-.234 1.053 0 .402.078.756.234 1.062.162.3.38.531.657.693.276.156.588.234.936.234.336 0 .642-.081.918-.243.282-.162.504-.393.666-.693.162-.3.243-.648.243-1.044zm6.325-2.457V20h-.63v-.864a1.51 1.51 0 01-.666.702c-.3.162-.636.243-1.008.243-.588 0-1.068-.18-1.44-.54-.372-.366-.558-.894-.558-1.584v-2.871h.621v2.799c0 .534.132.942.396 1.224.27.282.636.423 1.098.423.474 0 .852-.15 1.134-.45.282-.3.423-.741.423-1.323v-2.673h.63zm1.753-.927a.442.442 0 01-.324-.135.452.452 0 01-.135-.333c0-.132.045-.24.135-.324a.442.442 0 01.324-.135c.126 0 .234.045.324.135.09.084.135.192.135.324a.452.452 0 01-.135.333.442.442 0 01-.324.135zm.315.927V20h-.63v-4.914h.63zm1.14 2.448c0-.504.101-.945.305-1.323a2.16 2.16 0 01.837-.882c.36-.21.765-.315 1.215-.315.432 0 .822.105 1.17.315.348.21.603.483.765.819V13.34h.63V20h-.63v-1.098a1.92 1.92 0 01-.738.846c-.342.216-.744.324-1.206.324-.45 0-.855-.105-1.215-.315a2.223 2.223 0 01-.837-.891c-.198-.384-.297-.828-.297-1.332zm4.292.009c0-.396-.08-.744-.243-1.044a1.724 1.724 0 00-.666-.693 1.78 1.78 0 00-.918-.243c-.348 0-.66.078-.936.234a1.681 1.681 0 00-.657.684c-.156.294-.234.645-.234 1.053 0 .402.078.756.234 1.062.162.3.381.531.657.693.276.156.588.234.936.234.336 0 .642-.081.918-.243.282-.162.504-.393.666-.693.162-.3.243-.648.243-1.044zm2.383-3.384a.442.442 0 01-.324-.135.452.452 0 01-.135-.333c0-.132.045-.24.135-.324a.442.442 0 01.324-.135c.126 0 .234.045.324.135.09.084.135.192.135.324a.452.452 0 01-.135.333.442.442 0 01-.324.135zm.315.927V20h-.63v-4.914h.63zm2.246.531v3.051c0 .3.057.507.171.621.114.114.315.171.603.171h.576V20h-.675c-.444 0-.774-.102-.99-.306-.216-.21-.324-.552-.324-1.026v-3.051h-.684v-.531h.684v-1.233h.639v1.233h1.35v.531h-1.35zm6.439-.531l-2.916 7.227h-.657l.954-2.34-2.016-4.887h.693l1.674 4.194 1.62-4.194h.648z" fill="#fff"/></svg>