<svg width="102" height="62" viewBox="0 0 102 62" fill="none" xmlns="http://www.w3.org/2000/svg"><path d="M.507 5.174h2.418V13h1.482V5.174h2.405V3.965H.507v1.209zM9.795 9.23c0-1.521.676-1.976 1.768-1.976h.377V5.72c-1.014 0-1.73.442-2.145 1.157v-1.04H8.313V13h1.482V9.23zm3.013.156c0 2.21 1.495 3.731 3.354 3.731 1.196 0 2.054-.572 2.51-1.183V13h1.494V5.837h-1.495v1.04c-.442-.585-1.274-1.157-2.483-1.157-1.885 0-3.38 1.456-3.38 3.666zm5.863.026c0 1.547-1.053 2.418-2.17 2.418-1.106 0-2.172-.897-2.172-2.444s1.066-2.379 2.171-2.379c1.118 0 2.171.871 2.171 2.405zm2.948-.026c0 2.21 1.495 3.731 3.38 3.731 1.17 0 2.028-.546 2.483-1.196V13h1.495V3.38h-1.495v3.458c-.546-.676-1.534-1.118-2.47-1.118-1.898 0-3.393 1.456-3.393 3.666zm5.863.026c0 1.547-1.053 2.418-2.171 2.418-1.105 0-2.171-.897-2.171-2.444s1.066-2.379 2.17-2.379c1.119 0 2.172.871 2.172 2.405zm6.457-2.444c1.105 0 1.976.702 2.002 1.807h-3.965c.156-1.131.962-1.807 1.963-1.807zm3.354 3.9h-1.599c-.273.559-.78 1.001-1.69 1.001-1.092 0-1.937-.715-2.04-1.898h5.472c.04-.247.052-.481.052-.728 0-2.106-1.443-3.523-3.484-3.523-2.119 0-3.575 1.443-3.575 3.692s1.521 3.705 3.575 3.705c1.755 0 2.886-1.001 3.29-2.249zm10.023-6.916h-4.992V13h4.992v-1.209h-3.51V9.022h3.12V7.813h-3.12V5.161h3.51V3.952zm1.812 5.746c0 2.301 1.612 3.393 3.51 3.393 1.885 0 3.549-1.092 3.549-3.393V3.965h-1.482v5.759c0 1.404-.793 2.067-2.054 2.067-1.248 0-2.041-.663-2.041-2.067V3.965h-1.482v5.733zm13.786-3.029c0 .897-.52 1.534-1.677 1.534h-1.638V5.174h1.638c1.157 0 1.677.585 1.677 1.495zm-4.797-2.704V13h1.482V9.386h1.13L62.81 13h1.769l-2.236-3.744c1.52-.377 2.093-1.521 2.093-2.587 0-1.469-1.053-2.704-3.198-2.704h-3.12zm8.032 11.31h1.456L71.14.728h-1.469l-3.523 14.547zm6.846-5.577c0 2.301 1.612 3.393 3.51 3.393 1.885 0 3.55-1.092 3.55-3.393V3.965h-1.483v5.759c0 1.404-.793 2.067-2.054 2.067-1.248 0-2.04-.663-2.04-2.067V3.965h-1.483v5.733zm15.086.741c0-3.302-4.784-2.028-4.784-4.069 0-.871.663-1.287 1.52-1.261.937.026 1.47.585 1.522 1.196h1.638c-.13-1.547-1.352-2.457-3.081-2.457-1.846 0-3.107.988-3.107 2.574 0 3.328 4.797 1.911 4.797 4.095 0 .767-.585 1.326-1.625 1.326-1.027 0-1.547-.598-1.612-1.339h-1.586c0 1.599 1.39 2.587 3.198 2.587 2.015 0 3.12-1.3 3.12-2.652zm4.7-6.474h-2.952V13h2.952c2.898 0 4.796-1.703 4.796-4.485 0-2.795-1.897-4.55-4.796-4.55zm-1.47 7.826V5.174h1.47c2.131 0 3.275 1.274 3.275 3.341 0 2.054-1.144 3.276-3.275 3.276h-1.47zM2.367 29h1.56l1.443-5.291L6.812 29h1.56l2.223-7.163H9.139L7.657 27.57l-1.456-5.733H4.654l-1.521 5.759-1.495-5.759H.13L2.366 29zm9.337 0h1.482v-7.163h-1.482V29zm.754-8.112c.52 0 .935-.416.935-.949a.935.935 0 00-.935-.949.938.938 0 00-.95.949c0 .533.417.949.95.949zm2.907 6.123c0 1.456.793 1.989 2.067 1.989h1.17v-1.235h-.91c-.624 0-.832-.221-.832-.754v-3.965h1.742v-1.209H16.86v-1.781h-1.495v1.781h-.845v1.209h.845v3.965zM19.967 29h1.482v-4.004c0-1.313.715-1.989 1.807-1.989 1.08 0 1.794.676 1.794 1.989V29h1.47v-4.225c0-2.002-1.249-3.055-2.848-3.055-.923 0-1.729.351-2.223.949V19.38h-1.482V29zm11.82 0h1.482v-9.62h-1.482V29zm10.252-3.588c0-2.249-1.612-3.692-3.653-3.692-2.04 0-3.653 1.443-3.653 3.692s1.547 3.705 3.588 3.705c2.054 0 3.718-1.456 3.718-3.705zm-5.798 0c0-1.625 1.001-2.405 2.12-2.405 1.104 0 2.157.78 2.157 2.405 0 1.625-1.092 2.418-2.197 2.418-1.118 0-2.08-.793-2.08-2.418zM44.895 29h1.56l1.443-5.291L49.341 29h1.56l2.223-7.163h-1.456l-1.482 5.733-1.456-5.733h-1.547l-1.52 5.759-1.496-5.759H42.66L44.895 29zM6.318 42.998c-.078-2.587-4.121-1.781-4.121-3.224 0-.481.416-.806 1.209-.806.806 0 1.287.429 1.339 1.053h1.482c-.078-1.43-1.144-2.301-2.769-2.301-1.69 0-2.756.923-2.756 2.067 0 2.626 4.16 1.82 4.16 3.224 0 .494-.455.858-1.313.858-.819 0-1.378-.481-1.43-1.066H.585c.065 1.3 1.274 2.314 2.99 2.314 1.69 0 2.743-.91 2.743-2.119zm3.083-4.108v-1.053H7.92v10.569h1.482V43.96a3.238 3.238 0 002.496 1.157c1.885 0 3.367-1.521 3.367-3.731s-1.482-3.666-3.367-3.666c-1.17 0-2.04.572-2.496 1.17zm4.355 2.496c0 1.547-1.066 2.444-2.184 2.444-1.105 0-2.17-.871-2.17-2.418 0-1.534 1.065-2.405 2.17-2.405 1.118 0 2.184.832 2.184 2.379zm4.456-.156c0-1.521.676-1.976 1.768-1.976h.377V37.72c-1.014 0-1.73.442-2.145 1.157v-1.04H16.73V45h1.482v-3.77zm6.523-2.262c1.105 0 1.976.702 2.002 1.807h-3.965c.156-1.131.962-1.807 1.963-1.807zm3.354 3.9H26.49c-.273.559-.78 1.001-1.69 1.001-1.092 0-1.937-.715-2.04-1.898h5.472c.04-.247.052-.481.052-.728 0-2.106-1.443-3.523-3.484-3.523-2.119 0-3.575 1.443-3.575 3.692s1.521 3.705 3.575 3.705c1.755 0 2.886-1.001 3.29-2.249zm1.16-1.482c0 2.21 1.495 3.731 3.354 3.731 1.196 0 2.054-.572 2.509-1.183V45h1.495v-7.163h-1.495v1.04c-.442-.585-1.274-1.157-2.483-1.157-1.885 0-3.38 1.456-3.38 3.666zm5.863.026c0 1.547-1.053 2.418-2.171 2.418-1.105 0-2.171-.897-2.171-2.444s1.066-2.379 2.17-2.379c1.119 0 2.172.871 2.172 2.405zm2.947-.026c0 2.21 1.495 3.731 3.38 3.731 1.17 0 2.028-.546 2.483-1.196V45h1.495v-9.62h-1.495v3.458c-.546-.676-1.534-1.118-2.47-1.118-1.898 0-3.393 1.456-3.393 3.666zm5.863.026c0 1.547-1.053 2.418-2.17 2.418-1.106 0-2.172-.897-2.172-2.444s1.066-2.379 2.171-2.379c1.118 0 2.171.871 2.171 2.405zm8.785 1.586c-.078-2.587-4.121-1.781-4.121-3.224 0-.481.416-.806 1.209-.806.806 0 1.287.429 1.339 1.053h1.482c-.078-1.43-1.144-2.301-2.77-2.301-1.69 0-2.755.923-2.755 2.067 0 2.626 4.16 1.82 4.16 3.224 0 .494-.455.858-1.313.858-.82 0-1.378-.481-1.43-1.066h-1.534c.065 1.3 1.274 2.314 2.99 2.314 1.69 0 2.743-.91 2.743-2.119zm4.484-1.612c0 2.21 1.495 3.731 3.354 3.731 1.196 0 2.054-.572 2.509-1.183V45h1.495v-7.163h-1.495v1.04c-.442-.585-1.274-1.157-2.483-1.157-1.885 0-3.38 1.456-3.38 3.666zm5.863.026c0 1.547-1.053 2.418-2.171 2.418-1.105 0-2.171-.897-2.171-2.444s1.066-2.379 2.171-2.379c1.118 0 2.171.871 2.171 2.405zM71.579 45h1.469v-4.225c0-2.002-1.261-3.055-2.939-3.055-.858 0-1.65.351-2.131.936v-.819h-1.482V45h1.482v-4.004c0-1.313.715-1.989 1.806-1.989 1.08 0 1.794.676 1.794 1.989V45zm2.865-3.614c0 2.21 1.495 3.731 3.38 3.731 1.17 0 2.028-.546 2.483-1.196V45h1.495v-9.62h-1.495v3.458c-.546-.676-1.534-1.118-2.47-1.118-1.898 0-3.393 1.456-3.393 3.666zm5.863.026c0 1.547-1.053 2.418-2.171 2.418-1.105 0-2.171-.897-2.171-2.444s1.066-2.379 2.17-2.379c1.119 0 2.172.871 2.172 2.405zM.78 56.138c0 2.756.728 4.836 3.38 4.836s3.38-2.08 3.38-4.836c0-2.704-.728-4.784-3.38-4.784S.78 53.434.78 56.138zm5.304 0c0 1.859-.195 3.484-1.924 3.484-1.729 0-1.924-1.625-1.924-3.484 0-1.768.195-3.432 1.924-3.432 1.729 0 1.924 1.664 1.924 3.432zm2.79-2.327c0 1.3.845 2.041 1.976 2.041s1.976-.741 1.976-2.041c0-1.287-.845-2.028-1.976-2.028-1.13 0-1.976.741-1.976 2.028zm1.976-1.131c.494 0 .82.325.82 1.131s-.326 1.144-.82 1.144c-.507 0-.819-.338-.819-1.144 0-.806.312-1.131.82-1.131zM10.161 61h1.456l5.187-9.048h-1.456L10.161 61zm4.004-1.872c0 1.3.845 2.041 1.976 2.041 1.118 0 1.963-.741 1.963-2.041 0-1.3-.845-2.028-1.963-2.028-1.13 0-1.976.728-1.976 2.028zm1.963-1.131c.494 0 .82.325.82 1.131s-.326 1.131-.82 1.131c-.494 0-.819-.325-.819-1.131s.325-1.131.82-1.131zm6.38-.585c0 2.249 1.455 3.705 3.51 3.705 1.754 0 2.898-.975 3.301-2.379H27.72c-.273.741-.819 1.131-1.703 1.131-1.196 0-1.989-.884-1.989-2.457 0-1.56.793-2.444 1.99-2.444.883 0 1.455.442 1.702 1.131h1.6c-.404-1.508-1.548-2.379-3.303-2.379-2.054 0-3.51 1.456-3.51 3.692zm15.113 0c0-2.249-1.612-3.692-3.653-3.692-2.04 0-3.653 1.443-3.653 3.692s1.547 3.705 3.588 3.705c2.054 0 3.718-1.456 3.718-3.705zm-5.798 0c0-1.625 1.001-2.405 2.12-2.405 1.104 0 2.157.78 2.157 2.405 0 1.625-1.092 2.418-2.197 2.418-1.118 0-2.08-.793-2.08-2.418zM49.24 61h1.47v-4.225c0-2.002-1.275-3.055-2.952-3.055-1.04 0-2.054.546-2.496 1.417-.494-.936-1.443-1.417-2.574-1.417-.858 0-1.638.351-2.119.936v-.819h-1.482V61h1.482v-4.004c0-1.313.715-1.989 1.807-1.989 1.08 0 1.794.676 1.794 1.989V61h1.47v-4.004c0-1.313.714-1.989 1.806-1.989 1.08 0 1.794.676 1.794 1.989V61zm13.508 0h1.47v-4.225c0-2.002-1.275-3.055-2.952-3.055-1.04 0-2.054.546-2.496 1.417-.494-.936-1.443-1.417-2.574-1.417-.858 0-1.638.351-2.119.936v-.819h-1.482V61h1.482v-4.004c0-1.313.715-1.989 1.807-1.989 1.08 0 1.794.676 1.794 1.989V61h1.47v-4.004c0-1.313.714-1.989 1.806-1.989 1.08 0 1.794.676 1.794 1.989V61zm3.355 0h1.482v-7.163h-1.482V61zm.754-8.112c.52 0 .936-.416.936-.949a.935.935 0 00-.936-.949.938.938 0 00-.949.949c0 .533.416.949.949.949zm8.017 6.11c-.078-2.587-4.121-1.781-4.121-3.224 0-.481.416-.806 1.209-.806.806 0 1.287.429 1.339 1.053h1.482c-.078-1.43-1.144-2.301-2.77-2.301-1.69 0-2.755.923-2.755 2.067 0 2.626 4.16 1.82 4.16 3.224 0 .494-.455.858-1.313.858-.82 0-1.378-.481-1.43-1.066H69.14c.065 1.3 1.274 2.314 2.99 2.314 1.69 0 2.743-.91 2.743-2.119zm6.944 0c-.078-2.587-4.121-1.781-4.121-3.224 0-.481.416-.806 1.209-.806.806 0 1.287.429 1.339 1.053h1.482c-.078-1.43-1.144-2.301-2.769-2.301-1.69 0-2.756.923-2.756 2.067 0 2.626 4.16 1.82 4.16 3.224 0 .494-.455.858-1.313.858-.819 0-1.378-.481-1.43-1.066h-1.534c.065 1.3 1.274 2.314 2.99 2.314 1.69 0 2.743-.91 2.743-2.119zM83.418 61H84.9v-7.163h-1.482V61zm.754-8.112c.52 0 .936-.416.936-.949a.935.935 0 00-.936-.949.938.938 0 00-.949.949c0 .533.416.949.95.949zm9.5 4.524c0-2.249-1.613-3.692-3.654-3.692-2.04 0-3.653 1.443-3.653 3.692s1.547 3.705 3.588 3.705c2.054 0 3.718-1.456 3.718-3.705zm-5.799 0c0-1.625 1.001-2.405 2.12-2.405 1.104 0 2.157.78 2.157 2.405 0 1.625-1.092 2.418-2.197 2.418-1.118 0-2.08-.793-2.08-2.418zM100.22 61h1.469v-4.225c0-2.002-1.261-3.055-2.938-3.055-.858 0-1.65.351-2.132.936v-.819h-1.482V61h1.482v-4.004c0-1.313.715-1.989 1.807-1.989 1.08 0 1.794.676 1.794 1.989V61z" fill="#fff"/></svg>