<svg width="82" height="21" viewBox="0 0 82 21" fill="none" xmlns="http://www.w3.org/2000/svg"><path d="M1.74 5.038a1.01 1.01 0 01-.729-.297 1.006 1.006 0 01-.306-.738c0-.294.102-.54.306-.738a.995.995 0 01.73-.306c.293 0 .539.102.737.306a.987.987 0 01.306.738c0 .288-.102.534-.306.738a1.002 1.002 0 01-.738.297zm8.11-3.816v2.349h2.385v.522H9.85v2.385h2.655V7H9.22V.7h3.285v.522H9.85zM16.32 7l-1.269-1.98L13.827 7h-.666l1.584-2.457-1.566-2.457h.711l1.251 1.953 1.215-1.953h.657l-1.566 2.43L17.031 7h-.71zm1.278-2.457c0-.51.102-.954.306-1.332.204-.384.486-.678.846-.882.36-.21.771-.315 1.233-.315.606 0 1.104.15 1.494.45.396.3.651.708.765 1.224h-.675a1.356 1.356 0 00-.549-.828c-.276-.204-.621-.306-1.035-.306-.33 0-.627.075-.891.225a1.6 1.6 0 00-.63.675c-.15.294-.225.657-.225 1.089 0 .432.075.798.225 1.098.156.3.366.525.63.675.264.15.561.225.891.225.414 0 .759-.099 1.035-.297.282-.204.465-.486.549-.846h.675a2.061 2.061 0 01-.765 1.215c-.396.306-.894.459-1.494.459-.462 0-.873-.102-1.233-.306a2.218 2.218 0 01-.846-.882c-.204-.384-.306-.831-.306-1.341zM24.036.34V7h-.63V.34h.63zm5.683 1.746V7h-.63v-.864a1.51 1.51 0 01-.666.702c-.3.162-.636.243-1.008.243-.588 0-1.068-.18-1.44-.54-.372-.366-.558-.894-.558-1.584V2.086h.621v2.799c0 .534.132.942.396 1.224.27.282.636.423 1.098.423.474 0 .852-.15 1.134-.45.282-.3.423-.741.423-1.323V2.086h.63zm3.13 4.986c-.563 0-1.025-.129-1.385-.387a1.445 1.445 0 01-.595-1.071h.648c.03.276.16.501.387.675.235.168.546.252.936.252.342 0 .61-.081.801-.243a.75.75 0 00.297-.603.56.56 0 00-.162-.414 1.096 1.096 0 00-.414-.252 5.346 5.346 0 00-.666-.207 6.818 6.818 0 01-.89-.288 1.577 1.577 0 01-.585-.423c-.157-.192-.235-.447-.235-.765 0-.24.072-.462.216-.666.144-.204.348-.366.612-.486s.565-.18.9-.18c.529 0 .955.135 1.279.405.323.264.497.63.521 1.098h-.63a.936.936 0 00-.342-.693c-.203-.18-.486-.27-.846-.27-.317 0-.575.075-.773.225-.198.15-.297.336-.297.558 0 .192.056.351.17.477.12.12.267.216.441.288.174.066.408.141.703.225.354.096.636.189.846.279.21.09.39.222.54.396.15.174.227.405.233.693 0 .264-.072.501-.215.711a1.484 1.484 0 01-.604.486 2.09 2.09 0 01-.89.18zm3.211-5.913a.442.442 0 01-.324-.135.452.452 0 01-.135-.333c0-.132.045-.24.135-.324a.442.442 0 01.324-.135c.126 0 .234.045.324.135.09.084.135.192.135.324a.452.452 0 01-.135.333.442.442 0 01-.324.135zm.315.927V7h-.63V2.086h.63zm3.173 4.302l1.656-4.302h.666L39.899 7h-.711l-1.971-4.914h.675l1.656 4.302zm7.622-2.097c0 .216-.006.381-.018.495h-4.077c.018.372.108.69.27.954.162.264.375.465.639.603.264.132.552.198.864.198.408 0 .75-.099 1.026-.297.282-.198.468-.465.558-.801h.666c-.12.48-.378.873-.774 1.179-.39.3-.882.45-1.476.45-.462 0-.876-.102-1.242-.306a2.262 2.262 0 01-.864-.882c-.204-.384-.306-.831-.306-1.341s.102-.957.306-1.341c.204-.384.489-.678.855-.882a2.526 2.526 0 011.25-.306c.469 0 .877.102 1.225.306.354.204.624.48.81.828.192.342.288.723.288 1.143zm-.64-.018c.007-.366-.068-.678-.224-.936a1.46 1.46 0 00-.621-.585 1.905 1.905 0 00-.864-.198c-.468 0-.867.15-1.197.45-.33.3-.513.723-.55 1.269h3.457zm5.081-1.656v3.051c0 .3.057.507.171.621.114.114.315.171.603.171h.576V7h-.675c-.444 0-.774-.102-.99-.306-.216-.21-.324-.552-.324-1.026V2.617h-.684v-.531h.684V.853h.64v1.233h1.35v.531h-1.35zm3.02.342c.137-.306.347-.543.63-.711.287-.168.638-.252 1.052-.252v.657h-.17c-.457 0-.823.123-1.099.369s-.414.657-.414 1.233V7H54V2.086h.63v.873zm2.342 1.575c0-.504.099-.945.297-1.323a2.16 2.16 0 01.837-.882c.36-.21.765-.315 1.215-.315.468 0 .87.108 1.206.324.342.216.588.492.738.828v-1.08h.63V7h-.63V5.911a1.993 1.993 0 01-.747.837c-.336.216-.738.324-1.206.324a2.35 2.35 0 01-1.206-.315 2.223 2.223 0 01-.837-.891c-.198-.384-.297-.828-.297-1.332zm4.293.009c0-.396-.081-.744-.243-1.044a1.724 1.724 0 00-.666-.693 1.78 1.78 0 00-.918-.243c-.348 0-.66.078-.936.234a1.681 1.681 0 00-.657.684c-.156.294-.234.645-.234 1.053 0 .402.078.756.234 1.062.162.3.381.531.657.693.276.156.588.234.936.234.336 0 .642-.081.918-.243.282-.162.504-.393.666-.693.162-.3.243-.648.243-1.044zm1.78-.009c0-.504.102-.945.306-1.323a2.16 2.16 0 01.837-.882c.36-.21.765-.315 1.215-.315.432 0 .822.105 1.17.315.348.21.603.483.765.819V.34h.63V7h-.63V5.902a1.92 1.92 0 01-.738.846c-.342.216-.744.324-1.206.324-.45 0-.855-.105-1.215-.315a2.223 2.223 0 01-.837-.891c-.198-.384-.297-.828-.297-1.332zm4.293.009c0-.396-.08-.744-.243-1.044a1.724 1.724 0 00-.666-.693 1.78 1.78 0 00-.918-.243c-.348 0-.66.078-.936.234a1.681 1.681 0 00-.657.684c-.156.294-.234.645-.234 1.053 0 .402.078.756.234 1.062.162.3.381.531.657.693.276.156.588.234.936.234.336 0 .642-.081.918-.243.282-.162.504-.393.666-.693.162-.3.243-.648.243-1.044zm2.383-3.384a.442.442 0 01-.323-.135.452.452 0 01-.136-.333c0-.132.045-.24.135-.324a.442.442 0 01.325-.135c.126 0 .234.045.323.135.09.084.135.192.135.324a.452.452 0 01-.135.333.442.442 0 01-.324.135zm.316.927V7h-.63V2.086h.63zm3.73-.09c.588 0 1.068.183 1.44.549.372.36.558.885.558 1.575V7h-.62V4.192c0-.534-.136-.942-.406-1.224-.264-.282-.627-.423-1.089-.423-.474 0-.852.15-1.134.45-.282.3-.423.741-.423 1.323V7h-.63V2.086h.63v.837c.156-.3.381-.528.675-.684.294-.162.627-.243 1-.243zm5.453.018c.462 0 .864.108 1.206.324.341.216.587.489.737.819V2.086h.63v5.04c0 .45-.099.849-.296 1.197a1.966 1.966 0 01-.81.801 2.418 2.418 0 01-1.189.288c-.63 0-1.154-.15-1.575-.45a1.915 1.915 0 01-.774-1.224h.621c.108.342.313.615.612.819.306.204.678.306 1.117.306.317 0 .603-.069.855-.207.251-.132.45-.33.593-.594.145-.264.217-.576.217-.936V5.911a1.993 1.993 0 01-.748.837c-.335.216-.734.324-1.197.324-.45 0-.855-.105-1.215-.315a2.223 2.223 0 01-.837-.891c-.198-.384-.297-.828-.297-1.332 0-.504.1-.945.297-1.323a2.16 2.16 0 01.837-.882c.36-.21.766-.315 1.216-.315zm1.944 2.529c0-.396-.082-.744-.244-1.044a1.724 1.724 0 00-.666-.693 1.78 1.78 0 00-.917-.243c-.348 0-.66.078-.936.234a1.681 1.681 0 00-.657.684c-.157.294-.235.645-.235 1.053 0 .402.078.756.234 1.062.162.3.382.531.657.693.276.156.589.234.937.234.336 0 .642-.081.918-.243.281-.162.504-.393.665-.693.162-.3.243-.648.243-1.044zM10.038 15.617v3.051c0 .3.057.507.171.621.114.114.315.171.603.171h.576V20h-.675c-.444 0-.774-.102-.99-.306-.216-.21-.324-.552-.324-1.026v-3.051h-.684v-.531H9.4v-1.233h.639v1.233h1.35v.531h-1.35zm4.54 4.455c-.462 0-.879-.102-1.251-.306a2.326 2.326 0 01-.873-.882c-.21-.384-.315-.831-.315-1.341s.108-.954.324-1.332c.216-.384.51-.678.882-.882a2.5 2.5 0 011.251-.315 2.5 2.5 0 011.251.315c.378.204.672.498.882.882.216.378.324.822.324 1.332 0 .504-.108.948-.324 1.332a2.272 2.272 0 01-.891.891 2.61 2.61 0 01-1.26.306zm0-.549c.324 0 .624-.072.9-.216.276-.15.498-.372.666-.666.174-.3.261-.666.261-1.098 0-.432-.084-.795-.252-1.089-.168-.3-.39-.522-.666-.666a1.855 1.855 0 00-.9-.225c-.324 0-.624.075-.9.225a1.618 1.618 0 00-.666.666c-.162.294-.243.657-.243 1.089 0 .432.081.798.243 1.098.168.294.387.516.657.666.276.144.576.216.9.216zm5.774.549c-.462 0-.879-.102-1.25-.306a2.326 2.326 0 01-.874-.882c-.21-.384-.315-.831-.315-1.341s.108-.954.324-1.332c.216-.384.51-.678.882-.882a2.5 2.5 0 011.251-.315 2.5 2.5 0 011.251.315c.378.204.672.498.882.882.216.378.324.822.324 1.332 0 .504-.108.948-.324 1.332a2.272 2.272 0 01-.89.891 2.61 2.61 0 01-1.26.306zm0-.549c.324 0 .624-.072.9-.216.276-.15.498-.372.666-.666.174-.3.261-.666.261-1.098 0-.432-.084-.795-.252-1.089-.168-.3-.39-.522-.666-.666a1.855 1.855 0 00-.9-.225c-.324 0-.624.075-.9.225a1.618 1.618 0 00-.666.666c-.162.294-.243.657-.243 1.089 0 .432.081.798.243 1.098.168.294.387.516.657.666.276.144.576.216.9.216zm4.254-6.183V20h-.63v-6.66h.63zm3.119 6.732c-.564 0-1.026-.129-1.386-.387a1.445 1.445 0 01-.595-1.071h.648c.03.276.16.501.387.675.235.168.546.252.936.252.342 0 .61-.081.801-.243a.75.75 0 00.297-.603.56.56 0 00-.162-.414 1.096 1.096 0 00-.414-.252 5.346 5.346 0 00-.665-.207 6.818 6.818 0 01-.892-.288 1.577 1.577 0 01-.585-.423c-.155-.192-.233-.447-.233-.765 0-.24.072-.462.215-.666.145-.204.349-.366.613-.486s.564-.18.9-.18c.527 0 .953.135 1.277.405.325.264.498.63.523 1.098h-.63a.936.936 0 00-.342-.693c-.204-.18-.486-.27-.846-.27-.319 0-.576.075-.774.225-.198.15-.297.336-.297.558 0 .192.056.351.17.477.12.12.267.216.441.288.175.066.409.141.703.225.354.096.636.189.846.279.21.09.39.222.54.396.15.174.227.405.233.693 0 .264-.072.501-.215.711a1.484 1.484 0 01-.604.486 2.09 2.09 0 01-.89.18z" fill="#fff"/></svg>