<svg width="84" height="42" viewBox="0 0 84 42" fill="none" xmlns="http://www.w3.org/2000/svg"><path d="M2.238 6.602c-.345 0-.642-.121-.891-.363a1.23 1.23 0 01-.374-.902c0-.36.125-.66.374-.902.25-.25.546-.374.89-.374.36 0 .66.125.903.374.25.242.374.543.374.902 0 .352-.125.653-.374.902a1.225 1.225 0 01-.902.363zm9.912-5.291V9h-.77V1.311h.77zm4.56 1.573c.718 0 1.305.224 1.76.671.454.44.682 1.082.682 1.925V9h-.76V5.568c0-.653-.164-1.151-.494-1.496-.323-.345-.767-.517-1.331-.517-.58 0-1.042.183-1.386.55-.345.367-.517.906-.517 1.617V9h-.77V2.994h.77v1.023c.19-.367.465-.645.825-.836.359-.198.766-.297 1.22-.297zm6.213 6.204c-.69 0-1.254-.158-1.694-.473a1.766 1.766 0 01-.726-1.309h.792c.036.337.194.612.473.825.286.205.667.308 1.144.308.418 0 .744-.099.979-.297a.916.916 0 00.363-.737.685.685 0 00-.198-.506 1.34 1.34 0 00-.506-.308 6.531 6.531 0 00-.814-.253 8.337 8.337 0 01-1.09-.352 1.928 1.928 0 01-.714-.517c-.191-.235-.286-.546-.286-.935 0-.293.088-.565.264-.814.176-.25.425-.447.748-.594a2.63 2.63 0 011.1-.22c.645 0 1.166.165 1.562.495.396.323.608.77.638 1.342h-.77a1.144 1.144 0 00-.418-.847c-.25-.22-.594-.33-1.034-.33-.39 0-.704.092-.946.275-.242.183-.363.41-.363.682 0 .235.07.429.209.583.146.147.326.264.539.352.212.08.498.172.858.275.432.117.777.231 1.034.341.256.11.476.271.66.484.183.213.278.495.286.847a1.5 1.5 0 01-.264.869c-.176.25-.422.447-.737.594-.316.147-.679.22-1.09.22zm4.54-5.445v3.729c0 .367.07.62.209.759.14.14.385.209.737.209h.704V9h-.825c-.543 0-.946-.125-1.21-.374-.264-.257-.396-.675-.396-1.254V3.643h-.836v-.649h.836V1.487h.781v1.507h1.65v.649h-1.65zm3.305-1.782a.54.54 0 01-.396-.165.553.553 0 01-.165-.407c0-.161.055-.293.165-.396a.54.54 0 01.396-.165.54.54 0 01.396.165c.11.103.165.235.165.396a.553.553 0 01-.165.407.54.54 0 01-.396.165zm.385 1.133V9h-.77V2.994h.77zm2.745.649v3.729c0 .367.07.62.209.759.139.14.385.209.737.209h.704V9h-.825c-.543 0-.946-.125-1.21-.374-.264-.257-.396-.675-.396-1.254V3.643h-.836v-.649h.836V1.487h.78v1.507h1.65v.649h-1.65zm8.122-.649V9h-.77V7.944c-.175.374-.447.66-.813.858a2.55 2.55 0 01-1.232.297c-.72 0-1.306-.22-1.76-.66-.455-.447-.682-1.093-.682-1.936V2.994h.759v3.421c0 .653.16 1.151.483 1.496.33.345.778.517 1.342.517.58 0 1.042-.183 1.386-.55.345-.367.518-.906.518-1.617V2.994h.77zm2.76.649v3.729c0 .367.07.62.208.759.14.14.385.209.737.209h.704V9h-.825c-.542 0-.946-.125-1.21-.374-.264-.257-.396-.675-.396-1.254V3.643h-.836v-.649h.836V1.487h.781v1.507h1.65v.649h-1.65zm3.304-1.782a.54.54 0 01-.396-.165.553.553 0 01-.165-.407c0-.161.055-.293.165-.396a.54.54 0 01.396-.165.54.54 0 01.396.165c.11.103.165.235.165.396a.553.553 0 01-.165.407.54.54 0 01-.396.165zm.385 1.133V9h-.77V2.994h.77zm4.373 6.094a3.127 3.127 0 01-1.529-.374 2.843 2.843 0 01-1.067-1.078c-.257-.47-.385-1.016-.385-1.639s.132-1.166.396-1.628c.264-.47.623-.829 1.078-1.078a3.056 3.056 0 011.529-.385c.565 0 1.074.128 1.529.385.462.25.821.609 1.078 1.078.264.462.396 1.005.396 1.628 0 .616-.132 1.159-.396 1.628-.264.47-.627.832-1.089 1.089a3.19 3.19 0 01-1.54.374zm0-.671c.396 0 .763-.088 1.1-.264.337-.183.609-.455.814-.814.213-.367.319-.814.319-1.342 0-.528-.103-.972-.308-1.331a1.977 1.977 0 00-.814-.814 2.267 2.267 0 00-1.1-.275c-.396 0-.763.092-1.1.275a1.977 1.977 0 00-.814.814c-.198.36-.297.803-.297 1.331 0 .528.099.975.297 1.342.205.36.473.63.803.814.337.176.704.264 1.1.264zm7.245-5.533c.718 0 1.305.224 1.76.671.454.44.682 1.082.682 1.925V9h-.76V5.568c0-.653-.164-1.151-.494-1.496-.323-.345-.767-.517-1.331-.517-.58 0-1.042.183-1.386.55-.345.367-.517.906-.517 1.617V9h-.77V2.994h.77v1.023c.19-.367.465-.645.825-.836.359-.198.766-.297 1.22-.297zm3.793 3.102c0-.616.12-1.155.363-1.617.249-.47.59-.829 1.023-1.078.44-.257.935-.385 1.485-.385.572 0 1.063.132 1.474.396.418.264.718.601.902 1.012v-1.32h.77V9h-.77V7.669c-.191.41-.495.752-.913 1.023-.411.264-.902.396-1.474.396a2.871 2.871 0 01-1.474-.385 2.716 2.716 0 01-1.023-1.089c-.242-.47-.363-1.012-.363-1.628zm5.247.011c0-.484-.1-.91-.297-1.276a2.108 2.108 0 00-.814-.847 2.176 2.176 0 00-1.122-.297c-.426 0-.807.095-1.144.286-.338.19-.605.47-.803.836-.191.36-.286.788-.286 1.287 0 .491.095.924.286 1.298.198.367.465.649.803.847.337.19.718.286 1.144.286.41 0 .784-.099 1.122-.297.344-.198.616-.48.814-.847.198-.367.297-.792.297-1.276zM72.424.86V9h-.77V.86h.77zm5.473 3.74v.649h-4.279V4.6h4.28zM13.9 17.906c.565 0 1.056.132 1.474.396.418.264.719.598.902 1.001v-1.309h.77v6.16c0 .55-.121 1.038-.363 1.463a2.403 2.403 0 01-.99.979c-.425.235-.91.352-1.452.352-.77 0-1.412-.183-1.925-.55a2.34 2.34 0 01-.946-1.496h.759c.132.418.381.752.748 1.001.374.25.829.374 1.364.374a2.14 2.14 0 001.045-.253c.308-.161.55-.403.726-.726.176-.323.264-.704.264-1.144v-1.485c-.19.41-.495.752-.913 1.023-.41.264-.898.396-1.463.396-.55 0-1.045-.128-1.485-.385a2.717 2.717 0 01-1.023-1.089c-.242-.47-.363-1.012-.363-1.628 0-.616.121-1.155.363-1.617.25-.47.59-.829 1.023-1.078.44-.257.935-.385 1.485-.385zm2.376 3.091c0-.484-.099-.91-.297-1.276a2.107 2.107 0 00-.814-.847 2.175 2.175 0 00-1.122-.297c-.425 0-.807.095-1.144.286-.337.19-.605.47-.803.836-.19.36-.286.788-.286 1.287 0 .491.095.924.286 1.298.198.367.466.649.803.847.337.19.719.286 1.144.286.41 0 .785-.099 1.122-.297.345-.198.616-.48.814-.847.198-.367.297-.792.297-1.276zm3.298-1.936a1.89 1.89 0 01.77-.869c.352-.205.78-.308 1.287-.308v.803h-.21c-.557 0-1.004.15-1.341.451-.338.3-.506.803-.506 1.507V24h-.77v-6.006h.77v1.067zm2.863 1.925c0-.616.121-1.155.363-1.617.25-.47.59-.829 1.023-1.078.44-.257.935-.385 1.485-.385.572 0 1.064.132 1.474.396.418.264.719.601.902 1.012v-1.32h.77V24h-.77v-1.331c-.19.41-.495.752-.913 1.023-.41.264-.902.396-1.474.396a2.87 2.87 0 01-1.474-.385 2.717 2.717 0 01-1.023-1.089c-.242-.47-.363-1.012-.363-1.628zm5.247.011c0-.484-.099-.91-.297-1.276a2.107 2.107 0 00-.814-.847 2.175 2.175 0 00-1.122-.297c-.425 0-.806.095-1.144.286-.337.19-.605.47-.803.836-.19.36-.286.788-.286 1.287 0 .491.096.924.286 1.298.198.367.466.649.803.847.337.19.719.286 1.144.286.41 0 .785-.099 1.122-.297.345-.198.616-.48.814-.847.198-.367.297-.792.297-1.276zm2.176-.011c0-.616.125-1.155.374-1.617.25-.47.59-.829 1.023-1.078.44-.257.935-.385 1.485-.385.528 0 1.005.128 1.43.385.425.257.737.59.935 1.001V15.86h.77V24h-.77v-1.342a2.347 2.347 0 01-.902 1.034c-.418.264-.91.396-1.474.396-.55 0-1.045-.128-1.485-.385a2.717 2.717 0 01-1.023-1.089c-.242-.47-.363-1.012-.363-1.628zm5.247.011c0-.484-.099-.91-.297-1.276a2.108 2.108 0 00-.814-.847 2.176 2.176 0 00-1.122-.297c-.425 0-.807.095-1.144.286-.337.19-.605.47-.803.836-.19.36-.286.788-.286 1.287 0 .491.095.924.286 1.298.198.367.466.649.803.847.337.19.719.286 1.144.286.41 0 .785-.099 1.122-.297.345-.198.616-.48.814-.847.198-.367.297-.792.297-1.276zm7.962-.308c0 .264-.007.466-.022.605h-4.983c.022.455.132.843.33 1.166.198.323.458.568.78.737.324.161.676.242 1.057.242.499 0 .917-.121 1.254-.363.345-.242.572-.568.682-.979h.814a2.559 2.559 0 01-.946 1.441c-.477.367-1.078.55-1.804.55-.565 0-1.07-.125-1.518-.374a2.765 2.765 0 01-1.056-1.078c-.25-.47-.374-1.016-.374-1.639s.125-1.17.374-1.639A2.6 2.6 0 0138.7 18.28c.447-.25.957-.374 1.529-.374s1.07.125 1.496.374c.433.25.763.587.99 1.012.235.418.352.884.352 1.397zm-.781-.022c.007-.447-.084-.829-.275-1.144a1.784 1.784 0 00-.76-.715 2.329 2.329 0 00-1.055-.242c-.572 0-1.06.183-1.463.55-.403.367-.627.884-.671 1.551h4.224zm5.967-1.353c.19-.403.492-.737.902-1.001.418-.271.913-.407 1.485-.407.543 0 1.03.128 1.463.385.44.25.781.609 1.023 1.078.25.462.374 1.001.374 1.617 0 .616-.124 1.159-.374 1.628-.242.47-.583.832-1.023 1.089-.432.257-.92.385-1.463.385-.564 0-1.056-.132-1.474-.396a2.454 2.454 0 01-.913-1.012v4.158h-.759v-8.844h.76v1.32zm4.466 1.672c0-.499-.099-.928-.297-1.287a1.984 1.984 0 00-.792-.836 2.283 2.283 0 00-1.144-.286c-.41 0-.788.099-1.133.297-.337.198-.605.48-.803.847-.198.367-.297.792-.297 1.276s.1.91.297 1.276c.198.367.466.649.803.847.345.198.723.297 1.133.297.426 0 .807-.095 1.144-.286.338-.198.602-.48.792-.847.198-.374.297-.807.297-1.298zm2.968-1.925a1.89 1.89 0 01.77-.869c.352-.205.781-.308 1.287-.308v.803h-.209c-.557 0-1.005.15-1.342.451-.337.3-.506.803-.506 1.507V24h-.77v-6.006h.77v1.067zm3.6-2.2a.54.54 0 01-.396-.165.553.553 0 01-.165-.407c0-.161.055-.293.165-.396a.54.54 0 01.396-.165.54.54 0 01.396.165c.11.103.165.235.165.396a.553.553 0 01-.165.407.54.54 0 01-.396.165zm.385 1.133V24h-.77v-6.006h.77zm1.392 3.003c0-.623.125-1.166.374-1.628a2.62 2.62 0 011.034-1.078c.44-.257.942-.385 1.507-.385.74 0 1.35.183 1.826.55.484.367.796.865.935 1.496h-.825a1.658 1.658 0 00-.67-1.012c-.338-.25-.76-.374-1.266-.374-.403 0-.766.092-1.089.275-.323.183-.58.458-.77.825-.183.36-.275.803-.275 1.331 0 .528.092.975.275 1.342.19.367.447.642.77.825.323.183.686.275 1.09.275.505 0 .927-.121 1.264-.363.345-.25.568-.594.671-1.034h.825a2.519 2.519 0 01-.935 1.485c-.484.374-1.093.561-1.826.561-.565 0-1.067-.125-1.507-.374a2.711 2.711 0 01-1.034-1.078c-.25-.47-.374-1.016-.374-1.639zm7.483-4.136a.54.54 0 01-.396-.165.553.553 0 01-.165-.407c0-.161.055-.293.165-.396a.54.54 0 01.396-.165.54.54 0 01.396.165c.11.103.165.235.165.396a.553.553 0 01-.165.407.54.54 0 01-.396.165zm.385 1.133V24h-.77v-6.006h.77zm4.56-.11c.719 0 1.305.224 1.76.671.454.44.682 1.082.682 1.925V24h-.76v-3.432c0-.653-.164-1.151-.494-1.496-.323-.345-.766-.517-1.331-.517-.58 0-1.041.183-1.386.55-.345.367-.517.906-.517 1.617V24h-.77v-6.006h.77v1.023c.19-.367.465-.645.825-.836.36-.198.766-.297 1.22-.297zm6.664.022c.565 0 1.056.132 1.474.396.418.264.719.598.902 1.001v-1.309h.77v6.16c0 .55-.121 1.038-.363 1.463a2.403 2.403 0 01-.99.979c-.425.235-.91.352-1.452.352-.77 0-1.412-.183-1.925-.55a2.34 2.34 0 01-.946-1.496h.759c.132.418.381.752.748 1.001.374.25.829.374 1.364.374a2.14 2.14 0 001.045-.253c.308-.161.55-.403.726-.726.176-.323.264-.704.264-1.144v-1.485c-.19.41-.495.752-.913 1.023-.41.264-.898.396-1.463.396-.55 0-1.045-.128-1.485-.385a2.717 2.717 0 01-1.023-1.089c-.242-.47-.363-1.012-.363-1.628 0-.616.12-1.155.363-1.617.25-.47.59-.829 1.023-1.078.44-.257.935-.385 1.485-.385zm2.376 3.091c0-.484-.1-.91-.297-1.276a2.107 2.107 0 00-.814-.847 2.175 2.175 0 00-1.122-.297c-.425 0-.807.095-1.144.286-.338.19-.605.47-.803.836-.19.36-.286.788-.286 1.287 0 .491.095.924.286 1.298.198.367.466.649.803.847.337.19.718.286 1.144.286.41 0 .785-.099 1.122-.297.344-.198.616-.48.814-.847.198-.367.297-.792.297-1.276zM11.028 35.986c0-.616.121-1.155.363-1.617.25-.47.59-.829 1.023-1.078.44-.257.935-.385 1.485-.385.572 0 1.063.132 1.474.396.418.264.719.601.902 1.012v-1.32h.77V39h-.77v-1.331c-.19.41-.495.752-.913 1.023-.41.264-.902.396-1.474.396a2.87 2.87 0 01-1.474-.385 2.717 2.717 0 01-1.023-1.089c-.242-.47-.363-1.012-.363-1.628zm5.247.011c0-.484-.099-.91-.297-1.276a2.107 2.107 0 00-.814-.847 2.175 2.175 0 00-1.122-.297c-.425 0-.807.095-1.144.286-.337.19-.605.47-.803.836-.19.36-.286.788-.286 1.287 0 .491.095.924.286 1.298.198.367.466.649.803.847.337.19.719.286 1.144.286.41 0 .785-.099 1.122-.297.345-.198.616-.48.814-.847.198-.367.297-.792.297-1.276zm5.344-3.113c.718 0 1.305.224 1.76.671.454.44.682 1.082.682 1.925V39h-.76v-3.432c0-.653-.164-1.151-.494-1.496-.323-.345-.766-.517-1.331-.517-.58 0-1.041.183-1.386.55-.345.367-.517.906-.517 1.617V39h-.77v-6.006h.77v1.023c.19-.367.465-.645.825-.836.36-.198.766-.297 1.22-.297zm3.793 3.102c0-.616.125-1.155.374-1.617.25-.47.59-.829 1.023-1.078.44-.257.935-.385 1.485-.385.528 0 1.005.128 1.43.385.425.257.737.59.935 1.001V30.86h.77V39h-.77v-1.342a2.346 2.346 0 01-.902 1.034c-.418.264-.91.396-1.474.396-.55 0-1.045-.128-1.485-.385a2.717 2.717 0 01-1.023-1.089c-.242-.47-.363-1.012-.363-1.628zm5.247.011c0-.484-.1-.91-.297-1.276a2.107 2.107 0 00-.814-.847 2.175 2.175 0 00-1.122-.297c-.425 0-.807.095-1.144.286-.337.19-.605.47-.803.836-.19.36-.286.788-.286 1.287 0 .491.095.924.286 1.298.198.367.466.649.803.847.337.19.718.286 1.144.286.41 0 .785-.099 1.122-.297.345-.198.616-.48.814-.847.198-.367.297-.792.297-1.276zm6.316-5.137V39h-.77v-8.14h.77zm2.129 1.001a.54.54 0 01-.396-.165.553.553 0 01-.165-.407c0-.161.055-.293.165-.396a.54.54 0 01.396-.165.54.54 0 01.396.165c.11.103.165.235.165.396a.553.553 0 01-.165.407.54.54 0 01-.396.165zm.385 1.133V39h-.77v-6.006h.77zm1.392 2.992c0-.616.124-1.155.373-1.617.25-.47.59-.829 1.024-1.078.44-.257.934-.385 1.485-.385.564 0 1.056.136 1.474.407.417.264.715.598.89 1.001v-1.32h.77v8.844h-.77V37.68c-.175.403-.476.74-.902 1.012-.418.264-.913.396-1.485.396a2.871 2.871 0 01-1.474-.385 2.718 2.718 0 01-1.023-1.089c-.242-.47-.363-1.012-.363-1.628zm5.246.011c0-.484-.099-.91-.297-1.276a2.107 2.107 0 00-.813-.847 2.175 2.175 0 00-1.123-.297c-.425 0-.806.095-1.143.286-.338.19-.605.47-.803.836-.191.36-.287.788-.287 1.287 0 .491.096.924.286 1.298.198.367.466.649.803.847.338.19.72.286 1.145.286.41 0 .784-.099 1.121-.297.345-.198.617-.48.815-.847.197-.367.296-.792.296-1.276zm7.731-3.003V39h-.77v-1.056c-.176.374-.447.66-.814.858a2.55 2.55 0 01-1.232.297c-.718 0-1.305-.22-1.76-.66-.454-.447-.682-1.093-.682-1.936v-3.509h.76v3.421c0 .653.16 1.151.483 1.496.33.345.778.517 1.342.517.58 0 1.042-.183 1.386-.55.345-.367.517-.906.517-1.617v-3.267h.77zm2.143-1.133a.54.54 0 01-.396-.165.553.553 0 01-.165-.407c0-.161.055-.293.165-.396a.54.54 0 01.396-.165.54.54 0 01.396.165c.11.103.165.235.165.396a.553.553 0 01-.165.407.54.54 0 01-.396.165zm.385 1.133V39h-.77v-6.006h.77zm1.392 2.992c0-.616.125-1.155.374-1.617.25-.47.59-.829 1.023-1.078.44-.257.935-.385 1.485-.385.528 0 1.005.128 1.43.385.425.257.737.59.935 1.001V30.86h.77V39h-.77v-1.342a2.346 2.346 0 01-.902 1.034c-.418.264-.91.396-1.474.396-.55 0-1.045-.128-1.485-.385a2.717 2.717 0 01-1.023-1.089c-.242-.47-.363-1.012-.363-1.628zm5.247.011c0-.484-.099-.91-.297-1.276a2.107 2.107 0 00-.814-.847 2.175 2.175 0 00-1.122-.297c-.425 0-.807.095-1.144.286-.337.19-.605.47-.803.836-.19.36-.286.788-.286 1.287 0 .491.095.924.286 1.298.198.367.466.649.803.847.337.19.719.286 1.144.286.41 0 .785-.099 1.122-.297.345-.198.616-.48.814-.847.198-.367.297-.792.297-1.276zm2.913-4.136a.54.54 0 01-.396-.165.553.553 0 01-.165-.407c0-.161.055-.293.165-.396a.54.54 0 01.396-.165.54.54 0 01.396.165c.11.103.165.235.165.396a.553.553 0 01-.165.407.54.54 0 01-.396.165zm.385 1.133V39h-.77v-6.006h.77zm2.745.649v3.729c0 .367.07.62.209.759.139.14.385.209.736.209h.704V39h-.825c-.542 0-.945-.125-1.21-.374-.264-.257-.395-.675-.395-1.254v-3.729h-.837v-.649h.837v-1.507h.78v1.507h1.65v.649h-1.65zm7.87-.649l-3.565 8.833h-.803l1.166-2.86-2.464-5.973h.847l2.046 5.126 1.98-5.126h.792z" fill="#fff"/></svg>