<svg width="104" height="23" viewBox="0 0 104 23" fill="none" xmlns="http://www.w3.org/2000/svg"><rect width="104" height="23" rx="11.5" fill="#14964F"/><path d="M11.822 8.05V15h3.49v-.92h-2.35V8.05h-1.14zm9.694 4.19c0-1.73-1.24-2.84-2.81-2.84s-2.81 1.11-2.81 2.84c0 1.73 1.19 2.85 2.76 2.85 1.58 0 2.86-1.12 2.86-2.85zm-4.46 0c0-1.25.77-1.85 1.63-1.85.85 0 1.66.6 1.66 1.85s-.84 1.86-1.69 1.86c-.86 0-1.6-.61-1.6-1.86zm5.207-.02c0 1.7 1.15 2.87 2.6 2.87.9 0 1.56-.45 1.91-.92v.92c0 1.1-.66 1.64-1.54 1.64-.79 0-1.4-.39-1.57-.96h-1.13c.14 1.22 1.23 1.95 2.7 1.95 1.72 0 2.69-1.13 2.69-2.63v-5.6h-1.15v.8c-.34-.47-1.01-.89-1.91-.89-1.45 0-2.6 1.12-2.6 2.82zm4.51.02c0 1.19-.81 1.86-1.67 1.86-.85 0-1.67-.69-1.67-1.88s.82-1.83 1.67-1.83c.86 0 1.67.67 1.67 1.85zM32.018 15h1.14V9.49h-1.14V15zm.58-6.24c.4 0 .72-.32.72-.73a.72.72 0 00-.72-.73c-.41 0-.73.32-.73.73s.32.73.73.73zM38.564 15h1.13v-3.25c0-1.54-.97-2.35-2.26-2.35-.66 0-1.27.27-1.64.72v-.63h-1.14V15h1.14v-3.08c0-1.01.55-1.53 1.39-1.53.83 0 1.38.52 1.38 1.53V15zm4.802-2.78c0 1.7 1.15 2.87 2.58 2.87.92 0 1.58-.44 1.93-.91V15h1.15V9.49h-1.15v.8c-.34-.45-.98-.89-1.91-.89-1.45 0-2.6 1.12-2.6 2.82zm4.51.02c0 1.19-.81 1.86-1.67 1.86-.85 0-1.67-.69-1.67-1.88s.82-1.83 1.67-1.83c.86 0 1.67.67 1.67 1.85zM54.433 15h1.13v-3.25c0-1.54-.97-2.35-2.26-2.35-.66 0-1.27.27-1.64.72v-.63h-1.14V15h1.14v-3.08c0-1.01.55-1.53 1.39-1.53.83 0 1.38.52 1.38 1.53V15zm2.205-2.78c0 1.7 1.15 2.87 2.6 2.87.9 0 1.56-.42 1.91-.92V15h1.15V7.6h-1.15v2.66c-.42-.52-1.18-.86-1.9-.86-1.46 0-2.61 1.12-2.61 2.82zm4.51.02c0 1.19-.81 1.86-1.67 1.86-.85 0-1.67-.69-1.67-1.88s.82-1.83 1.67-1.83c.86 0 1.67.67 1.67 1.85zm5.425 1.23c0 1.12.61 1.53 1.59 1.53h.9v-.95h-.7c-.48 0-.64-.17-.64-.58v-3.05h1.34v-.93h-1.34V8.12h-1.15v1.37h-.65v.93h.65v3.05zm4.68-1.37c0-1.17.52-1.52 1.36-1.52h.29V9.4c-.78 0-1.33.34-1.65.89v-.8h-1.14V15h1.14v-2.9zm2.318.12c0 1.7 1.15 2.87 2.58 2.87.92 0 1.58-.44 1.93-.91V15h1.15V9.49h-1.15v.8c-.34-.45-.98-.89-1.91-.89-1.45 0-2.6 1.12-2.6 2.82zm4.51.02c0 1.19-.81 1.86-1.67 1.86-.85 0-1.67-.69-1.67-1.88s.82-1.83 1.67-1.83c.86 0 1.67.67 1.67 1.85zm2.267-.02c0 1.7 1.15 2.87 2.6 2.87.9 0 1.56-.42 1.91-.92V15h1.15V7.6h-1.15v2.66c-.42-.52-1.18-.86-1.9-.86-1.46 0-2.61 1.12-2.61 2.82zm4.51.02c0 1.19-.81 1.86-1.67 1.86-.85 0-1.67-.69-1.67-1.88s.82-1.83 1.67-1.83c.86 0 1.67.67 1.67 1.85zm4.968-1.88c.85 0 1.52.54 1.54 1.39h-3.05c.12-.87.74-1.39 1.51-1.39zm2.58 3h-1.23c-.21.43-.6.77-1.3.77-.84 0-1.49-.55-1.57-1.46h4.21c.03-.19.04-.37.04-.56 0-1.62-1.11-2.71-2.68-2.71-1.63 0-2.75 1.11-2.75 2.84 0 1.73 1.17 2.85 2.75 2.85 1.35 0 2.22-.77 2.53-1.73z" fill="#fff"/></svg>