<svg width="104" height="21" viewBox="0 0 104 21" fill="none" xmlns="http://www.w3.org/2000/svg"><path d="M4.401.709v.522H2.655V7h-.63V1.231H.27V.709h4.131zm1.625 2.25c.138-.306.348-.543.63-.711.288-.168.639-.252 1.053-.252v.657h-.171c-.456 0-.822.123-1.098.369-.276.246-.414.657-.414 1.233V7h-.63V2.086h.63v.873zm2.343 1.575c0-.504.099-.945.297-1.323a2.16 2.16 0 01.837-.882c.36-.21.764-.315 1.214-.315.468 0 .87.108 1.207.324.341.216.588.492.738.828v-1.08h.63V7h-.63V5.911a1.993 1.993 0 01-.748.837c-.335.216-.737.324-1.205.324a2.35 2.35 0 01-1.206-.315 2.223 2.223 0 01-.837-.891c-.198-.384-.297-.828-.297-1.332zm4.293.009c0-.396-.082-.744-.244-1.044a1.724 1.724 0 00-.665-.693 1.78 1.78 0 00-.918-.243c-.349 0-.66.078-.936.234a1.681 1.681 0 00-.657.684c-.156.294-.234.645-.234 1.053 0 .402.078.756.234 1.062.162.3.38.531.657.693.276.156.588.234.936.234.335 0 .641-.081.917-.243.282-.162.505-.393.666-.693.163-.3.244-.648.244-1.044zm1.78-.009c0-.504.102-.945.306-1.323a2.16 2.16 0 01.837-.882c.36-.21.765-.315 1.215-.315.432 0 .822.105 1.17.315.348.21.603.483.765.819V.34h.63V7h-.63V5.902a1.92 1.92 0 01-.738.846c-.342.216-.744.324-1.206.324-.45 0-.855-.105-1.215-.315a2.223 2.223 0 01-.837-.891c-.198-.384-.297-.828-.297-1.332zm4.293.009c0-.396-.081-.744-.243-1.044a1.724 1.724 0 00-.666-.693 1.78 1.78 0 00-.918-.243c-.348 0-.66.078-.936.234a1.681 1.681 0 00-.657.684c-.156.294-.234.645-.234 1.053 0 .402.078.756.234 1.062.162.3.38.531.657.693.276.156.588.234.936.234.336 0 .642-.081.918-.243.282-.162.504-.393.666-.693.162-.3.243-.648.243-1.044zm6.514-.252c0 .216-.006.381-.018.495h-4.077c.018.372.108.69.27.954.162.264.375.465.639.603.264.132.552.198.864.198.408 0 .75-.099 1.026-.297.282-.198.468-.465.558-.801h.666c-.12.48-.378.873-.774 1.179-.39.3-.882.45-1.476.45-.462 0-.876-.102-1.242-.306a2.262 2.262 0 01-.864-.882c-.204-.384-.306-.831-.306-1.341s.102-.957.306-1.341c.204-.384.489-.678.855-.882a2.526 2.526 0 011.251-.306c.468 0 .876.102 1.224.306.354.204.624.48.81.828.192.342.288.723.288 1.143zm-.639-.018c.006-.366-.069-.678-.225-.936a1.46 1.46 0 00-.621-.585 1.905 1.905 0 00-.864-.198c-.468 0-.867.15-1.197.45-.33.3-.513.723-.549 1.269h3.456zm10.741-2.187L33.812 7h-.63l-1.359-4.122L30.464 7h-.639l-1.539-4.914h.64l1.223 4.275 1.377-4.275h.63l1.36 4.284 1.214-4.284h.621zm1.174-.927a.442.442 0 01-.324-.135.452.452 0 01-.135-.333c0-.132.045-.24.135-.324a.442.442 0 01.324-.135c.126 0 .234.045.324.135.09.084.135.192.135.324a.452.452 0 01-.135.333.442.442 0 01-.324.135zm.315.927V7h-.63V2.086h.63zm2.246.531v3.051c0 .3.057.507.17.621.115.114.316.171.604.171h.576V7h-.675c-.444 0-.774-.102-.99-.306-.216-.21-.324-.552-.324-1.026V2.617h-.684v-.531h.684V.853h.639v1.233h1.35v.531h-1.35zm4.729-.621c.372 0 .705.078.999.234.3.156.534.396.702.72.174.318.26.708.26 1.17V7h-.62V4.192c0-.534-.135-.942-.405-1.224-.264-.282-.627-.423-1.09-.423-.473 0-.851.15-1.133.45-.282.3-.423.741-.423 1.323V7h-.63V.34h.63v2.583c.156-.294.384-.522.684-.684a2.158 2.158 0 011.026-.243zm6.644.621v3.051c0 .3.057.507.17.621.115.114.316.171.604.171h.576V7h-.675c-.444 0-.774-.102-.99-.306-.216-.21-.324-.552-.324-1.026V2.617h-.684v-.531h.684V.853h.639v1.233h1.35v.531h-1.35zm4.729-.621c.372 0 .705.078.999.234.3.156.534.396.702.72.174.318.26.708.26 1.17V7h-.62V4.192c0-.534-.135-.942-.405-1.224-.264-.282-.627-.423-1.09-.423-.473 0-.851.15-1.133.45-.282.3-.423.741-.423 1.323V7h-.63V.34h.63v2.583c.156-.294.384-.522.684-.684a2.158 2.158 0 011.026-.243zm7.801 2.295c0 .216-.006.381-.018.495h-4.077c.018.372.108.69.27.954.162.264.375.465.64.603.263.132.551.198.863.198.408 0 .75-.099 1.026-.297.282-.198.468-.465.558-.801h.666c-.12.48-.378.873-.774 1.179-.39.3-.882.45-1.476.45-.462 0-.876-.102-1.242-.306a2.262 2.262 0 01-.864-.882c-.204-.384-.306-.831-.306-1.341s.102-.957.306-1.341c.204-.384.49-.678.855-.882a2.526 2.526 0 011.251-.306c.468 0 .876.102 1.224.306.354.204.624.48.81.828.192.342.288.723.288 1.143zm-.639-.018c.006-.366-.069-.678-.225-.936a1.46 1.46 0 00-.62-.585 1.905 1.905 0 00-.865-.198c-.468 0-.867.15-1.197.45-.33.3-.513.723-.549 1.269h3.456zm6.602-2.277c.372 0 .705.078.999.234.3.156.534.396.702.72.174.318.26.708.26 1.17V7h-.62V4.192c0-.534-.135-.942-.405-1.224-.264-.282-.627-.423-1.09-.423-.473 0-.851.15-1.133.45-.282.3-.423.741-.423 1.323V7h-.63V.34h.63v2.583c.156-.294.384-.522.684-.684a2.158 2.158 0 011.026-.243zm5.506 5.076c-.462 0-.88-.102-1.251-.306a2.326 2.326 0 01-.873-.882c-.21-.384-.315-.831-.315-1.341s.108-.954.324-1.332c.216-.384.51-.678.882-.882a2.5 2.5 0 011.25-.315 2.5 2.5 0 011.252.315c.378.204.672.498.882.882.216.378.324.822.324 1.332 0 .504-.108.948-.324 1.332a2.272 2.272 0 01-.891.891 2.61 2.61 0 01-1.26.306zm0-.549c.324 0 .624-.072.9-.216.276-.15.498-.372.666-.666.174-.3.26-.666.26-1.098 0-.432-.083-.795-.251-1.089-.168-.3-.39-.522-.666-.666a1.855 1.855 0 00-.9-.225c-.324 0-.624.075-.9.225a1.618 1.618 0 00-.666.666c-.162.294-.243.657-.243 1.089 0 .432.08.798.243 1.098.168.294.387.516.657.666.276.144.576.216.9.216zm9.473-4.527c.576 0 1.044.183 1.404.549.366.36.55.885.55 1.575V7h-.622V4.192c0-.534-.129-.942-.387-1.224-.258-.282-.609-.423-1.053-.423-.462 0-.83.153-1.107.459-.276.306-.414.75-.414 1.332V7h-.62V4.192c0-.534-.13-.942-.388-1.224-.258-.282-.612-.423-1.062-.423-.462 0-.83.153-1.107.459-.276.306-.414.75-.414 1.332V7h-.63V2.086h.63v.846c.156-.306.378-.537.666-.693a1.93 1.93 0 01.963-.243c.426 0 .798.102 1.116.306.324.204.558.504.702.9.132-.39.357-.687.675-.891.324-.21.69-.315 1.098-.315zm7.799 2.295c0 .216-.007.381-.019.495h-4.076c.017.372.108.69.27.954.162.264.374.465.638.603.264.132.552.198.864.198.409 0 .75-.099 1.026-.297.282-.198.468-.465.558-.801h.666c-.12.48-.377.873-.773 1.179-.39.3-.883.45-1.477.45-.462 0-.876-.102-1.242-.306a2.262 2.262 0 01-.864-.882c-.204-.384-.305-.831-.305-1.341s.102-.957.306-1.341c.203-.384.488-.678.854-.882a2.526 2.526 0 011.251-.306c.469 0 .877.102 1.225.306.353.204.623.48.81.828.192.342.288.723.288 1.143zm-.64-.018c.007-.366-.069-.678-.225-.936a1.46 1.46 0 00-.62-.585 1.905 1.905 0 00-.865-.198c-.468 0-.867.15-1.197.45-.33.3-.513.723-.549 1.269h3.457zm6.413 2.799c-.462 0-.88-.102-1.251-.306a2.326 2.326 0 01-.873-.882c-.21-.384-.315-.831-.315-1.341s.108-.954.324-1.332c.216-.384.51-.678.882-.882a2.5 2.5 0 011.25-.315 2.5 2.5 0 011.252.315c.378.204.672.498.882.882.216.378.324.822.324 1.332 0 .504-.108.948-.324 1.332a2.272 2.272 0 01-.891.891 2.61 2.61 0 01-1.26.306zm0-.549c.324 0 .624-.072.9-.216.276-.15.498-.372.666-.666.174-.3.26-.666.26-1.098 0-.432-.083-.795-.251-1.089-.168-.3-.39-.522-.666-.666a1.855 1.855 0 00-.9-.225c-.324 0-.624.075-.9.225a1.618 1.618 0 00-.666.666c-.162.294-.243.657-.243 1.089 0 .432.08.798.243 1.098.168.294.387.516.657.666.276.144.576.216.9.216zm5.558-3.906h-1.143V7h-.63V2.617h-.684v-.531h.684v-.342c0-.534.135-.927.405-1.179.276-.252.72-.378 1.332-.378v.54c-.408 0-.696.078-.864.234-.162.156-.243.417-.243.783v.342h1.143v.531zm-100.406 13H1.512V20h-.63v-4.383H.198v-.531h.684v-.342c0-.534.135-.927.405-1.179.276-.252.72-.378 1.332-.378v.54c-.408 0-.696.078-.864.234-.162.156-.243.417-.243.783v.342h1.143v.531zm3.143 4.455c-.462 0-.88-.102-1.251-.306a2.326 2.326 0 01-.873-.882c-.21-.384-.315-.831-.315-1.341s.108-.954.324-1.332c.216-.384.51-.678.882-.882a2.5 2.5 0 011.25-.315 2.5 2.5 0 011.252.315c.378.204.672.498.882.882.216.378.324.822.324 1.332 0 .504-.108.948-.324 1.332a2.272 2.272 0 01-.891.891 2.61 2.61 0 01-1.26.306zm0-.549c.324 0 .624-.072.9-.216.276-.15.498-.372.666-.666.174-.3.26-.666.26-1.098 0-.432-.083-.795-.251-1.089-.168-.3-.39-.522-.666-.666a1.855 1.855 0 00-.9-.225c-.324 0-.624.075-.9.225a1.618 1.618 0 00-.666.666c-.162.294-.243.657-.243 1.089 0 .432.08.798.243 1.098.168.294.387.516.657.666.276.144.576.216.9.216zm4.253-3.564c.138-.306.348-.543.63-.711.288-.168.64-.252 1.053-.252v.657h-.17c-.457 0-.823.123-1.099.369s-.414.657-.414 1.233V20h-.63v-4.914h.63v.873zm7.077 1.332c0 .216-.006.381-.018.495h-4.077c.018.372.108.69.27.954.162.264.375.465.639.603.264.132.552.198.864.198.408 0 .75-.099 1.026-.297.282-.198.468-.465.558-.801h.666c-.12.48-.378.873-.774 1.179-.39.3-.882.45-1.476.45-.462 0-.876-.102-1.242-.306a2.262 2.262 0 01-.864-.882c-.204-.384-.306-.831-.306-1.341s.102-.957.306-1.341c.204-.384.489-.678.855-.882a2.526 2.526 0 011.25-.306c.469 0 .877.102 1.225.306.354.204.624.48.81.828.192.342.288.723.288 1.143zm-.64-.018c.007-.366-.068-.678-.224-.936a1.46 1.46 0 00-.621-.585 1.905 1.905 0 00-.864-.198c-.468 0-.867.15-1.197.45-.33.3-.513.723-.55 1.269h3.457zM20.856 20l-1.27-1.98L18.361 20h-.666l1.584-2.457-1.566-2.457h.711l1.252 1.953 1.215-1.953h.657l-1.566 2.43L21.566 20h-.711zm3.747-2.466c0-.504.099-.945.297-1.323a2.16 2.16 0 01.837-.882c.36-.21.765-.315 1.215-.315.468 0 .87.108 1.206.324.342.216.588.492.738.828v-1.08h.63V20h-.63v-1.089a1.993 1.993 0 01-.747.837c-.336.216-.738.324-1.206.324a2.35 2.35 0 01-1.206-.315 2.223 2.223 0 01-.837-.891c-.198-.384-.297-.828-.297-1.332zm4.293.009c0-.396-.081-.744-.243-1.044a1.724 1.724 0 00-.666-.693 1.78 1.78 0 00-.918-.243c-.348 0-.66.078-.936.234a1.681 1.681 0 00-.657.684c-.156.294-.234.645-.234 1.053 0 .402.078.756.234 1.062.162.3.38.531.657.693.276.156.588.234.936.234.336 0 .642-.081.918-.243.282-.162.504-.393.666-.693.162-.3.243-.648.243-1.044zm4.372-2.547c.588 0 1.068.183 1.44.549.372.36.558.885.558 1.575V20h-.62v-2.808c0-.534-.136-.942-.406-1.224-.264-.282-.627-.423-1.089-.423-.474 0-.852.15-1.134.45-.282.3-.423.741-.423 1.323V20h-.63v-4.914h.63v.837c.156-.3.381-.528.675-.684.294-.162.627-.243 1-.243zm3.103 2.538c0-.504.102-.945.306-1.323a2.16 2.16 0 01.837-.882c.36-.21.766-.315 1.215-.315.432 0 .822.105 1.17.315.348.21.603.483.765.819V13.34h.63V20h-.63v-1.098a1.92 1.92 0 01-.737.846c-.343.216-.745.324-1.207.324-.45 0-.855-.105-1.215-.315a2.223 2.223 0 01-.837-.891c-.198-.384-.297-.828-.297-1.332zm4.294.009c0-.396-.081-.744-.244-1.044a1.724 1.724 0 00-.666-.693 1.78 1.78 0 00-.917-.243c-.349 0-.66.078-.937.234a1.681 1.681 0 00-.657.684c-.156.294-.233.645-.233 1.053 0 .402.078.756.233 1.062.163.3.381.531.657.693.276.156.589.234.937.234.335 0 .641-.081.917-.243.282-.162.505-.393.666-.693.163-.3.243-.648.243-1.044zm5.158-1.368c.162-.342.411-.621.747-.837.342-.216.744-.324 1.206-.324.45 0 .852.105 1.206.315.354.204.63.498.828.882.204.378.306.819.306 1.323s-.102.948-.306 1.332a2.144 2.144 0 01-.837.891c-.354.21-.753.315-1.197.315-.468 0-.873-.105-1.215-.315a1.941 1.941 0 01-.738-.837V20h-.62v-6.66h.62v2.835zm3.654 1.359c0-.408-.08-.759-.243-1.053a1.624 1.624 0 00-.648-.684 1.869 1.869 0 00-.936-.234c-.336 0-.645.081-.927.243a1.744 1.744 0 00-.657.693c-.162.3-.243.648-.243 1.044s.081.744.243 1.044c.162.3.381.531.657.693.282.162.591.243.927.243.348 0 .66-.078.936-.234.276-.162.492-.393.648-.693.162-.306.243-.66.243-1.062zm6.245-.243c0 .216-.006.381-.018.495h-4.077c.018.372.108.69.27.954.162.264.375.465.639.603.264.132.552.198.864.198.408 0 .75-.099 1.026-.297.282-.198.468-.465.558-.801h.666c-.12.48-.378.873-.774 1.179-.39.3-.882.45-1.476.45-.462 0-.876-.102-1.242-.306a2.262 2.262 0 01-.864-.882c-.204-.384-.306-.831-.306-1.341s.102-.957.306-1.341c.204-.384.489-.678.855-.882a2.526 2.526 0 011.25-.306c.469 0 .877.102 1.225.306.354.204.624.48.81.828.192.342.288.723.288 1.143zm-.64-.018c.007-.366-.068-.678-.224-.936a1.46 1.46 0 00-.621-.585 1.905 1.905 0 00-.864-.198c-.468 0-.867.15-1.197.45-.33.3-.513.723-.55 1.269h3.457zm4.096-2.277c.588 0 1.068.183 1.44.549.372.36.558.885.558 1.575V20h-.62v-2.808c0-.534-.136-.942-.406-1.224-.264-.282-.627-.423-1.089-.423-.474 0-.852.15-1.134.45-.282.3-.423.741-.423 1.323V20h-.63v-4.914h.63v.837c.156-.3.381-.528.675-.684.294-.162.627-.243 1-.243zm7.838 2.295c0 .216-.006.381-.018.495H62.92c.018.372.108.69.27.954.162.264.375.465.639.603.264.132.552.198.864.198.408 0 .75-.099 1.026-.297.282-.198.468-.465.558-.801h.666c-.12.48-.378.873-.774 1.179-.39.3-.882.45-1.476.45-.462 0-.876-.102-1.242-.306a2.262 2.262 0 01-.864-.882c-.204-.384-.306-.831-.306-1.341s.102-.957.306-1.341c.204-.384.489-.678.855-.882a2.526 2.526 0 011.25-.306c.469 0 .877.102 1.225.306.354.204.624.48.81.828.192.342.288.723.288 1.143zm-.64-.018c.007-.366-.068-.678-.224-.936a1.46 1.46 0 00-.621-.585 1.905 1.905 0 00-.864-.198c-.468 0-.867.15-1.197.45-.33.3-.513.723-.55 1.269h3.457zm3.727-1.656H68.96V20h-.63v-4.383h-.684v-.531h.684v-.342c0-.534.135-.927.405-1.179.276-.252.72-.378 1.332-.378v.54c-.408 0-.696.078-.864.234-.162.156-.243.417-.243.783v.342h1.143v.531zm1.307-1.458a.442.442 0 01-.324-.135.452.452 0 01-.135-.333c0-.132.045-.24.135-.324a.442.442 0 01.324-.135c.126 0 .234.045.324.135.09.084.135.192.135.324a.452.452 0 01-.135.333.442.442 0 01-.324.135zm.315.927V20h-.63v-4.914h.63zm2.246.531v3.051c0 .3.057.507.17.621.115.114.316.171.604.171h.576V20h-.675c-.444 0-.774-.102-.99-.306-.216-.21-.324-.552-.324-1.026v-3.051h-.684v-.531h.684v-1.233h.639v1.233h1.35v.531h-1.35zm6.793 0H79.62V20h-.63v-4.383h-.684v-.531h.684v-.342c0-.534.135-.927.405-1.179.276-.252.72-.378 1.332-.378v.54c-.408 0-.696.078-.864.234-.162.156-.243.417-.243.783v.342h1.143v.531zm1.622.342c.138-.306.348-.543.63-.711.288-.168.64-.252 1.053-.252v.657h-.17c-.457 0-.823.123-1.099.369s-.414.657-.414 1.233V20h-.63v-4.914h.63v.873zm4.782 4.113c-.462 0-.88-.102-1.251-.306a2.326 2.326 0 01-.873-.882c-.21-.384-.315-.831-.315-1.341s.108-.954.324-1.332c.216-.384.51-.678.882-.882a2.5 2.5 0 011.25-.315 2.5 2.5 0 011.252.315c.378.204.672.498.882.882.216.378.324.822.324 1.332 0 .504-.108.948-.324 1.332a2.272 2.272 0 01-.891.891 2.61 2.61 0 01-1.26.306zm0-.549c.324 0 .624-.072.9-.216.276-.15.498-.372.666-.666.174-.3.26-.666.26-1.098 0-.432-.083-.795-.251-1.089-.168-.3-.39-.522-.666-.666a1.855 1.855 0 00-.9-.225c-.324 0-.624.075-.9.225a1.618 1.618 0 00-.666.666c-.162.294-.243.657-.243 1.089 0 .432.08.798.243 1.098.168.294.387.516.657.666.276.144.576.216.9.216zm9.473-4.527c.576 0 1.044.183 1.404.549.366.36.55.885.55 1.575V20h-.622v-2.808c0-.534-.129-.942-.387-1.224-.258-.282-.609-.423-1.053-.423-.462 0-.83.153-1.107.459-.276.306-.414.75-.414 1.332V20h-.62v-2.808c0-.534-.13-.942-.388-1.224-.258-.282-.612-.423-1.062-.423-.462 0-.83.153-1.107.459-.276.306-.414.75-.414 1.332V20h-.63v-4.914h.63v.846c.156-.306.378-.537.666-.693a1.93 1.93 0 01.963-.243c.426 0 .798.102 1.116.306.324.204.558.504.702.9.132-.39.357-.687.675-.891.324-.21.69-.315 1.098-.315zm3.46 5.049a.452.452 0 01-.332-.135.47.47 0 01-.127-.333c0-.132.042-.24.126-.324a.452.452 0 01.333-.135c.126 0 .231.045.315.135.09.084.135.192.135.324a.452.452 0 01-.135.333.413.413 0 01-.315.135zm0-3.915a.452.452 0 01-.332-.135.47.47 0 01-.127-.333c0-.132.042-.24.126-.324a.452.452 0 01.333-.135c.126 0 .231.045.315.135.09.084.135.192.135.324a.452.452 0 01-.135.333.413.413 0 01-.315.135z" fill="#fff"/></svg>