<svg width="93" height="27" viewBox="0 0 93 27" fill="none" xmlns="http://www.w3.org/2000/svg"><path d="M2.238 6.602c-.345 0-.642-.121-.891-.363a1.23 1.23 0 01-.374-.902c0-.36.125-.66.374-.902.25-.25.546-.374.89-.374.36 0 .66.125.903.374.25.242.374.543.374.902 0 .352-.125.653-.374.902a1.225 1.225 0 01-.902.363zm13.597.572h-3.498L11.666 9h-.814l2.805-7.59h.869L17.32 9h-.814l-.671-1.826zm-.231-.638l-1.518-4.158-1.518 4.158h3.036zm10.872-3.542L24.595 9h-.77l-1.661-5.038L20.503 9h-.781L17.84 2.994h.78l1.497 5.225L21.8 2.994h.77l1.66 5.236 1.486-5.236h.759zm.698 2.992c0-.616.12-1.155.363-1.617.249-.47.59-.829 1.023-1.078.44-.257.934-.385 1.485-.385.571 0 1.063.132 1.473.396.418.264.72.601.902 1.012v-1.32h.77V9h-.77V7.669c-.19.41-.495.752-.913 1.023-.41.264-.902.396-1.474.396a2.871 2.871 0 01-1.474-.385 2.716 2.716 0 01-1.023-1.089c-.242-.47-.363-1.012-.363-1.628zm5.246.011c0-.484-.099-.91-.297-1.276a2.107 2.107 0 00-.813-.847 2.175 2.175 0 00-1.122-.297c-.426 0-.807.095-1.144.286-.338.19-.605.47-.803.836-.191.36-.287.788-.287 1.287 0 .491.096.924.287 1.298.198.367.465.649.803.847.337.19.718.286 1.143.286.411 0 .785-.099 1.122-.297.345-.198.616-.48.814-.847.199-.367.297-.792.297-1.276zm3.298-1.936a1.89 1.89 0 01.77-.869c.352-.205.781-.308 1.287-.308v.803h-.209c-.557 0-1.004.15-1.342.451-.337.3-.506.803-.506 1.507V9h-.77V2.994h.77v1.067zm2.864 1.925c0-.616.124-1.155.374-1.617.249-.47.59-.829 1.023-1.078.44-.257.935-.385 1.485-.385.528 0 1.004.128 1.43.385.425.257.737.59.935 1.001V.86h.77V9h-.77V7.658a2.346 2.346 0 01-.902 1.034c-.418.264-.91.396-1.474.396-.55 0-1.045-.128-1.485-.385a2.716 2.716 0 01-1.023-1.089c-.242-.47-.363-1.012-.363-1.628zm5.247.011c0-.484-.1-.91-.297-1.276a2.107 2.107 0 00-.814-.847 2.175 2.175 0 00-1.122-.297c-.426 0-.807.095-1.144.286-.338.19-.605.47-.803.836-.191.36-.286.788-.286 1.287 0 .491.095.924.286 1.298.198.367.465.649.803.847.337.19.718.286 1.144.286.41 0 .784-.099 1.122-.297.344-.198.616-.48.814-.847.198-.367.297-.792.297-1.276zM50.086 4.6v.649h-4.28V4.6h4.28zm9.895-1.606L58.1 9h-.77l-1.661-5.038L54.008 9h-.781l-1.881-6.006h.78l1.497 5.225 1.683-5.225h.77l1.66 5.236 1.486-5.236h.759zm1.434-1.133a.54.54 0 01-.396-.165.553.553 0 01-.165-.407c0-.161.055-.293.165-.396a.54.54 0 01.396-.165.54.54 0 01.396.165c.11.103.165.235.165.396a.553.553 0 01-.165.407.54.54 0 01-.396.165zm.385 1.133V9h-.77V2.994h.77zm4.56-.11c.719 0 1.305.224 1.76.671.455.44.682 1.082.682 1.925V9h-.759V5.568c0-.653-.165-1.151-.495-1.496-.323-.345-.766-.517-1.33-.517-.58 0-1.042.183-1.387.55-.345.367-.517.906-.517 1.617V9h-.77V2.994h.77v1.023c.19-.367.466-.645.825-.836.36-.198.766-.297 1.221-.297zm6.961 0c.719 0 1.305.224 1.76.671.455.44.682 1.082.682 1.925V9h-.759V5.568c0-.653-.165-1.151-.495-1.496-.323-.345-.766-.517-1.331-.517-.58 0-1.041.183-1.386.55-.345.367-.517.906-.517 1.617V9h-.77V2.994h.77v1.023c.19-.367.466-.645.825-.836.36-.198.766-.297 1.221-.297zm4.53-1.023a.54.54 0 01-.396-.165.553.553 0 01-.165-.407c0-.161.055-.293.165-.396a.54.54 0 01.396-.165.54.54 0 01.396.165c.11.103.165.235.165.396a.553.553 0 01-.165.407.54.54 0 01-.396.165zm.385 1.133V9h-.77V2.994h.77zm4.56-.11c.718 0 1.305.224 1.76.671.454.44.682 1.082.682 1.925V9h-.76V5.568c0-.653-.164-1.151-.494-1.496-.323-.345-.767-.517-1.331-.517-.58 0-1.042.183-1.386.55-.345.367-.517.906-.517 1.617V9h-.77V2.994h.77v1.023c.19-.367.465-.645.825-.836.359-.198.766-.297 1.22-.297zm6.663.022c.565 0 1.056.132 1.474.396.418.264.72.598.902 1.001V2.994h.77v6.16c0 .55-.12 1.038-.362 1.463a2.402 2.402 0 01-.99.979c-.426.235-.91.352-1.453.352-.77 0-1.411-.183-1.924-.55a2.34 2.34 0 01-.947-1.496h.76c.132.418.38.752.748 1.001.374.25.828.374 1.364.374a2.14 2.14 0 001.044-.253c.308-.161.55-.403.727-.726.175-.323.263-.704.263-1.144V7.669c-.19.41-.494.752-.912 1.023-.411.264-.899.396-1.463.396-.55 0-1.045-.128-1.485-.385a2.718 2.718 0 01-1.023-1.089c-.242-.47-.364-1.012-.364-1.628 0-.616.122-1.155.364-1.617.249-.47.59-.829 1.023-1.078.44-.257.934-.385 1.485-.385zm2.376 3.091c0-.484-.098-.91-.296-1.276a2.107 2.107 0 00-.814-.847 2.175 2.175 0 00-1.122-.297c-.426 0-.807.095-1.144.286-.338.19-.606.47-.803.836-.191.36-.287.788-.287 1.287 0 .491.096.924.287 1.298.197.367.465.649.802.847.338.19.72.286 1.145.286.41 0 .784-.099 1.122-.297.344-.198.616-.48.814-.847.198-.367.296-.792.296-1.276zM12.14 19.314c.19-.403.491-.737.902-1.001.418-.271.913-.407 1.485-.407.543 0 1.03.128 1.463.385.44.25.781.609 1.023 1.078.25.462.374 1.001.374 1.617 0 .616-.125 1.159-.374 1.628-.242.47-.583.832-1.023 1.089-.433.257-.92.385-1.463.385-.565 0-1.056-.132-1.474-.396a2.454 2.454 0 01-.913-1.012v4.158h-.759v-8.844h.759v1.32zm4.466 1.672c0-.499-.099-.928-.297-1.287a1.985 1.985 0 00-.792-.836 2.284 2.284 0 00-1.144-.286c-.41 0-.788.099-1.133.297-.337.198-.605.48-.803.847-.198.367-.297.792-.297 1.276s.099.91.297 1.276c.198.367.466.649.803.847.345.198.722.297 1.133.297.425 0 .807-.095 1.144-.286.337-.198.601-.48.792-.847.198-.374.297-.807.297-1.298zm2.968-5.126V24h-.77v-8.14h.77zm1.392 5.126c0-.616.12-1.155.363-1.617.249-.47.59-.829 1.023-1.078.44-.257.934-.385 1.485-.385.572 0 1.063.132 1.474.396.418.264.718.601.902 1.012v-1.32h.77V24h-.77v-1.331c-.191.41-.495.752-.913 1.023-.411.264-.902.396-1.474.396a2.871 2.871 0 01-1.474-.385 2.718 2.718 0 01-1.023-1.089c-.242-.47-.363-1.012-.363-1.628zm5.247.011c0-.484-.1-.91-.297-1.276a2.107 2.107 0 00-.814-.847 2.175 2.175 0 00-1.122-.297c-.426 0-.807.095-1.145.286-.337.19-.604.47-.802.836-.191.36-.287.788-.287 1.287 0 .491.096.924.287 1.298.198.367.465.649.802.847.338.19.72.286 1.145.286.41 0 .784-.099 1.122-.297.344-.198.616-.48.814-.847.198-.367.297-.792.297-1.276zm3.528-2.354v3.729c0 .367.07.62.21.759.139.14.384.209.736.209h.704V24h-.825c-.542 0-.946-.125-1.21-.374-.264-.257-.396-.675-.396-1.254v-3.729h-.836v-.649h.836v-1.507h.781v1.507h1.65v.649h-1.65zm5.285 0h-1.397V24h-.77v-5.357h-.836v-.649h.836v-.418c0-.653.165-1.133.495-1.441.338-.308.88-.462 1.628-.462v.66c-.498 0-.85.095-1.056.286-.198.19-.297.51-.297.957v.418h1.397v.649zm3.841 5.445a3.127 3.127 0 01-1.529-.374 2.843 2.843 0 01-1.067-1.078c-.256-.47-.385-1.016-.385-1.639s.132-1.166.396-1.628c.264-.47.624-.829 1.078-1.078a3.055 3.055 0 011.53-.385c.564 0 1.074.128 1.528.385.462.25.822.609 1.078 1.078.264.462.396 1.005.396 1.628 0 .616-.132 1.159-.396 1.628-.264.47-.627.832-1.089 1.089a3.19 3.19 0 01-1.54.374zm0-.671c.396 0 .763-.088 1.1-.264.338-.183.61-.455.814-.814.213-.367.32-.814.32-1.342 0-.528-.103-.972-.309-1.331a1.977 1.977 0 00-.814-.814 2.267 2.267 0 00-1.1-.275c-.396 0-.762.092-1.1.275a1.978 1.978 0 00-.814.814c-.198.36-.297.803-.297 1.331 0 .528.1.975.297 1.342.206.36.473.63.803.814.338.176.704.264 1.1.264zm5.199-4.356a1.89 1.89 0 01.77-.869c.352-.205.781-.308 1.287-.308v.803h-.209c-.557 0-1.005.15-1.342.451-.337.3-.506.803-.506 1.507V24h-.77v-6.006h.77v1.067zm10.365-1.177c.704 0 1.276.224 1.716.671.448.44.671 1.082.671 1.925V24h-.759v-3.432c0-.653-.157-1.151-.473-1.496-.315-.345-.744-.517-1.287-.517-.564 0-1.015.187-1.353.561-.337.374-.506.917-.506 1.628V24h-.759v-3.432c0-.653-.157-1.151-.473-1.496-.315-.345-.748-.517-1.298-.517-.564 0-1.015.187-1.353.561-.337.374-.506.917-.506 1.628V24h-.77v-6.006h.77v1.034c.191-.374.462-.656.814-.847a2.359 2.359 0 011.177-.297c.521 0 .976.125 1.364.374.396.25.682.616.858 1.1.162-.477.437-.84.825-1.089a2.413 2.413 0 011.342-.385zm6.166 6.204c-.69 0-1.254-.158-1.694-.473a1.766 1.766 0 01-.727-1.309h.793c.036.337.194.612.472.825.287.205.668.308 1.145.308.417 0 .744-.099.978-.297a.916.916 0 00.363-.737.685.685 0 00-.198-.506 1.34 1.34 0 00-.506-.308 6.532 6.532 0 00-.814-.253 8.327 8.327 0 01-1.089-.352 1.928 1.928 0 01-.715-.517c-.19-.235-.285-.546-.285-.935 0-.293.087-.565.264-.814.175-.25.425-.447.748-.594a2.63 2.63 0 011.1-.22c.645 0 1.166.165 1.562.495.395.323.608.77.637 1.342h-.77a1.144 1.144 0 00-.417-.847c-.25-.22-.594-.33-1.035-.33-.388 0-.703.092-.946.275-.242.183-.363.41-.363.682 0 .235.07.429.21.583.146.147.326.264.538.352.213.08.5.172.858.275.433.117.778.231 1.035.341.256.11.476.271.66.484.183.213.278.495.285.847a1.5 1.5 0 01-.264.869c-.175.25-.421.447-.736.594-.316.147-.679.22-1.09.22z" fill="#fff"/></svg>