<svg width="261" height="39" viewBox="0 0 261 39" fill="none" xmlns="http://www.w3.org/2000/svg"><path d="M20.869 1.104C10.573 1.053.847 7.83.847 19.781c0 10.243 8.692 18.572 19.4 18.572 6.105 0 11.744-2.017 16.09-5.483V17.039H20.87v6.932h6.208v3.466c-1.966 1.139-4.243 1.811-6.83 1.811-5.431 0-9.208-4.242-9.208-9.467 0-6.053 4.604-9.675 9.83-9.675 2.793 0 5.639.983 7.915 2.95l6.363-6.675C31.112 2.915 25.99 1.156 20.87 1.104zm22.541.57v36.162h20.384c9.415 0 12.416-4.915 12.416-9.881 0-3.777-1.707-7.553-6.777-9.106 3.414-1.396 5.328-4.087 5.328-8.018 0-6.053-4.397-9.21-11.847-9.21l-19.504.052zm9.726 14.589V9.589h6.933c2.897 0 4.5 1.138 4.5 3.363 0 2.172-1.655 3.31-4.5 3.31h-6.933zm0 13.658V22.73h8.226c3.57 0 4.708 1.81 4.708 3.621 0 1.81-1.138 3.57-4.708 3.57h-8.226zm28.67-28.248v36.163h9.727V27.541h6.208c10.761 0 15.883-3.984 15.883-12.83 0-8.847-4.863-13.038-15.986-13.038H81.807zm9.727 8.382h5.743c4.345 0 6.208 1.603 6.208 5.018 0 3.466-1.914 4.966-6.208 4.966h-5.743v-9.985zm33.701 28.66L143.341.743l-8.07.052-18.107 37.922h8.07zm56.174-37.093h-9.778v19.607c0 5.794-2.638 8.226-6.881 8.226-4.19 0-6.829-2.431-6.88-8.226V1.673h-9.726V21.23c0 11.848 6.415 17.124 16.606 17.124 10.192 0 16.659-5.276 16.659-17.124V1.622zm21.846-.518c-8.433.052-15.055 3.725-15.055 11.848 0 7.087 5.898 9.001 14.124 10.967 5.95 1.5 6.984 1.708 6.984 3.777 0 1.656-1.759 2.38-3.776 2.38-4.605 0-9.83-1.345-14.538-3.984l-4.346 7.243c4.967 3.311 11.072 5.07 17.797 5.07 9.312 0 15.158-4.242 15.158-11.95 0-7.399-6.053-9.468-14.537-11.744-5.639-1.397-6.312-1.863-6.312-3.001 0-1.655 1.604-2.38 3.467-2.38 3.569 0 8.432 1.242 12.571 3.363l4.087-7.502c-4.242-2.586-9.829-4.087-15.624-4.087zm21.935.57v36.162h15.52c10.71 0 19.401-7.812 19.401-18.055 0-10.296-8.691-18.16-19.401-18.16l-15.52.052zm9.726 8.69h5.432c5.381 0 9.778 4.036 9.778 9.365 0 5.38-4.397 9.416-9.778 9.416h-5.432v-18.78z" fill="#09B45B"/></svg>