<svg width="260" height="39" viewBox="0 0 260 39" fill="none" xmlns="http://www.w3.org/2000/svg"><path d="M.36 1.3h4.32V13h.972V1.3h4.32V.4H.36v.9zm13.798 2.574c-1.692 0-2.412.81-2.79 1.818l-.144-1.818h-.792V13h.918V8.374c0-1.854.486-3.618 2.628-3.618h.666v-.882h-.486zm9.487 8.28c-.54 0-.81-.18-.81-.882V7.024c0-2.088-1.278-3.258-3.564-3.258-2.088 0-3.474 1.008-3.708 2.664h.918c.234-1.116 1.206-1.854 2.754-1.854 1.71 0 2.682.9 2.682 2.412v.792h-3.096c-2.34 0-3.6 1.008-3.6 2.718 0 1.62 1.278 2.61 3.222 2.61 1.854 0 2.952-.846 3.51-1.98v.324c-.036 1.08.414 1.548 1.494 1.548h.54v-.846h-.342zM21.917 9.31c0 1.746-1.242 3.006-3.402 3.006-1.458 0-2.358-.738-2.358-1.872 0-1.206.9-1.872 2.592-1.872h3.168v.738zm10.61-3.384c-.559-1.296-1.783-2.16-3.493-2.16-2.502 0-4.302 1.908-4.302 4.662 0 2.88 1.8 4.68 4.302 4.68 1.71 0 2.898-.918 3.474-2.196L32.652 13h.792V.4h-.918v5.526zm-3.42 6.354c-2.035 0-3.439-1.584-3.439-3.852 0-2.25 1.404-3.852 3.438-3.852 2.034 0 3.438 1.602 3.438 3.87 0 2.25-1.404 3.834-3.438 3.834zm10.528.828c1.998 0 3.528-1.296 3.924-3.132h-.936c-.36 1.422-1.566 2.304-3.06 2.304-2.034 0-3.312-1.548-3.348-3.672v-.162h7.452c0-.126.018-.27.018-.378-.09-2.718-1.764-4.302-4.212-4.302-2.502 0-4.212 1.908-4.212 4.608 0 2.862 1.782 4.734 4.374 4.734zm-3.348-5.436c.144-1.854 1.53-3.096 3.204-3.096 1.782 0 3.06 1.098 3.204 3.096h-6.408zm19.608 5.436c2.7 0 4.608-1.458 5.148-3.996h-1.026c-.54 2.016-1.998 3.096-4.14 3.096-2.916 0-4.752-2.286-4.752-5.508s1.873-5.508 4.788-5.508c2.107 0 3.583 1.098 4.14 3.078h1.027C60.522 1.75 58.614.292 55.968.292c-3.547 0-5.85 2.628-5.85 6.408 0 3.816 2.25 6.408 5.777 6.408zm7.24-.108h.973V7.186h5.436v-.9h-5.436V1.3h6.516V.4h-7.488V13zm12.866 0c3.996 0 6.336-2.484 6.336-6.3 0-3.834-2.34-6.3-6.336-6.3H72.33V13h3.672zm-2.7-11.7h2.7c3.438 0 5.346 2.088 5.346 5.4 0 3.294-1.908 5.4-5.346 5.4h-2.7V1.3zm10.562 8.892c.072 1.89 1.602 2.916 3.888 2.916 1.962 0 3.546-.99 3.546-2.61 0-1.926-1.692-2.304-3.654-2.574-1.422-.198-2.682-.36-2.682-1.638 0-1.044 1.026-1.728 2.574-1.728 1.458 0 2.502.702 2.664 1.89h.936c-.162-1.782-1.62-2.682-3.6-2.682-2.034-.018-3.492 1.026-3.492 2.592 0 1.836 1.692 2.178 3.564 2.43 1.53.216 2.772.414 2.772 1.764 0 1.08-1.134 1.764-2.628 1.764-1.746 0-2.88-.81-2.952-2.124h-.936zM100.114 13h.99l2.7-7.668L106.378 13h.99l3.24-9.126h-.936l-2.808 8.028-2.61-8.028h-.846l-2.754 8.028-2.664-8.028h-.972L100.114 13zm12.247-11.052c.36 0 .648-.27.648-.648a.634.634 0 00-.648-.648.634.634 0 00-.648.648c0 .378.287.648.648.648zM111.893 13h.918V3.874h-.918V13zm3.76-2.124c0 1.458.594 2.124 2.142 2.124h1.332v-.846h-1.26c-.954 0-1.296-.36-1.296-1.296V4.72h2.466v-.846h-2.466V1.318h-.918v2.556h-1.728v.846h1.728v6.156zm9.082-7.11c-1.71 0-2.772.954-3.294 2.268V.4h-.918V13h.918V8.5c0-2.376 1.206-3.888 3.15-3.888 1.746 0 2.826 1.152 2.826 3.312V13h.918V7.888c0-2.88-1.53-4.122-3.6-4.122zm14.713 0c-1.71 0-2.772.954-3.294 2.268V.4h-.918V13h.918V8.5c0-2.376 1.206-3.888 3.15-3.888 1.746 0 2.826 1.152 2.826 3.312V13h.918V7.888c0-2.88-1.53-4.122-3.6-4.122zm6.118-1.818c.36 0 .648-.27.648-.648a.634.634 0 00-.648-.648c-.36 0-.648.27-.648.648s.288.648.648.648zM145.098 13h.918V3.874h-.918V13zm10.51-7.002c-.558-1.35-1.782-2.232-3.474-2.232-2.502 0-4.302 1.89-4.302 4.662 0 2.88 1.8 4.68 4.302 4.68 1.71 0 2.916-.9 3.492-2.322v1.62c0 2.43-1.152 3.474-3.348 3.474-1.71 0-2.898-.774-3.186-2.16h-.954c.288 1.944 1.854 2.988 4.068 2.988 2.952 0 4.338-1.404 4.338-4.266V3.874h-.792l-.144 2.124zm-3.402 6.282c-2.034 0-3.438-1.584-3.438-3.852s1.404-3.852 3.438-3.852c2.034 0 3.438 1.584 3.438 3.87 0 2.25-1.404 3.834-3.438 3.834zm10.709-8.514c-1.71 0-2.772.954-3.294 2.268V.4h-.918V13h.918V8.5c0-2.376 1.206-3.888 3.15-3.888 1.746 0 2.826 1.152 2.826 3.312V13h.918V7.888c0-2.88-1.53-4.122-3.6-4.122zm9.541 9.342c1.998 0 3.528-1.296 3.924-3.132h-.936c-.36 1.422-1.566 2.304-3.06 2.304-2.034 0-3.312-1.548-3.348-3.672v-.162h7.452c0-.126.018-.27.018-.378-.09-2.718-1.764-4.302-4.212-4.302-2.502 0-4.212 1.908-4.212 4.608 0 2.862 1.782 4.734 4.374 4.734zm-3.348-5.436c.144-1.854 1.53-3.096 3.204-3.096 1.782 0 3.06 1.098 3.204 3.096h-6.408zm12.938-3.798c-1.692 0-2.412.81-2.79 1.818l-.144-1.818h-.792V13h.918V8.374c0-1.854.486-3.618 2.628-3.618h.666v-.882h-.486zM188.744 13h.918V.4h-.918V13zm7.108.108c1.998 0 3.528-1.296 3.924-3.132h-.936c-.36 1.422-1.566 2.304-3.06 2.304-2.034 0-3.312-1.548-3.348-3.672v-.162h7.452c0-.126.018-.27.018-.378-.09-2.718-1.764-4.302-4.212-4.302-2.502 0-4.212 1.908-4.212 4.608 0 2.862 1.782 4.734 4.374 4.734zm-3.348-5.436c.144-1.854 1.53-3.096 3.204-3.096 1.782 0 3.06 1.098 3.204 3.096h-6.408zM203.976 13h1.098l3.564-9.126h-.954l-3.132 8.064-3.15-8.064h-.99L203.976 13zm9.56.108c1.998 0 3.528-1.296 3.924-3.132h-.936c-.36 1.422-1.566 2.304-3.06 2.304-2.034 0-3.312-1.548-3.348-3.672v-.162h7.452c0-.126.018-.27.018-.378-.09-2.718-1.764-4.302-4.212-4.302-2.502 0-4.212 1.908-4.212 4.608 0 2.862 1.782 4.734 4.374 4.734zm-3.348-5.436c.144-1.854 1.53-3.096 3.204-3.096 1.782 0 3.06 1.098 3.204 3.096h-6.408zm12.938-3.798c-1.692 0-2.412.81-2.79 1.818l-.144-1.818h-.792V13h.918V8.374c0-1.854.486-3.618 2.628-3.618h.666v-.882h-.486zm9.488 8.28c-.54 0-.81-.18-.81-.882V7.024c0-2.088-1.278-3.258-3.564-3.258-2.088 0-3.474 1.008-3.708 2.664h.918c.234-1.116 1.206-1.854 2.754-1.854 1.71 0 2.682.9 2.682 2.412v.792h-3.096c-2.34 0-3.6 1.008-3.6 2.718 0 1.62 1.278 2.61 3.222 2.61 1.854 0 2.952-.846 3.51-1.98v.324c-.036 1.08.414 1.548 1.494 1.548h.54v-.846h-.342zm-1.728-2.844c0 1.746-1.242 3.006-3.402 3.006-1.458 0-2.358-.738-2.358-1.872 0-1.206.9-1.872 2.592-1.872h3.168v.738zm10.732-3.312c-.558-1.35-1.782-2.232-3.474-2.232-2.502 0-4.302 1.89-4.302 4.662 0 2.88 1.8 4.68 4.302 4.68 1.71 0 2.916-.9 3.492-2.322v1.62c0 2.43-1.152 3.474-3.348 3.474-1.71 0-2.898-.774-3.186-2.16h-.954c.288 1.944 1.854 2.988 4.068 2.988 2.952 0 4.338-1.404 4.338-4.266V3.874h-.792l-.144 2.124zm-3.402 6.282c-2.034 0-3.438-1.584-3.438-3.852s1.404-3.852 3.438-3.852c2.034 0 3.438 1.584 3.438 3.87 0 2.25-1.404 3.834-3.438 3.834zm10.529.828c1.998 0 3.528-1.296 3.924-3.132h-.936c-.36 1.422-1.566 2.304-3.06 2.304-2.034 0-3.312-1.548-3.348-3.672v-.162h7.452c0-.126.018-.27.018-.378-.09-2.718-1.764-4.302-4.212-4.302-2.502 0-4.212 1.908-4.212 4.608 0 2.862 1.782 4.734 4.374 4.734zm-3.348-5.436c.144-1.854 1.53-3.096 3.204-3.096 1.782 0 3.06 1.098 3.204 3.096h-6.408zm13.374-5.796l-2.25.972.036-2.466h-.666l.036 2.466-2.232-.972-.27.63 2.304.882-1.584 1.89.486.45 1.584-1.962 1.584 1.962.504-.45-1.566-1.872 2.286-.882-.252-.648zM9.108 37.154c-.54 0-.81-.18-.81-.882v-4.248c0-2.088-1.278-3.258-3.564-3.258-2.088 0-3.474 1.008-3.708 2.664h.918c.234-1.116 1.206-1.854 2.754-1.854 1.71 0 2.682.9 2.682 2.412v.792H4.284c-2.34 0-3.6 1.008-3.6 2.718 0 1.62 1.278 2.61 3.222 2.61 1.854 0 2.952-.846 3.51-1.98v.324C7.38 37.532 7.83 38 8.91 38h.54v-.846h-.342zM7.38 34.31c0 1.746-1.242 3.006-3.402 3.006-1.458 0-2.358-.738-2.358-1.872 0-1.206.9-1.872 2.592-1.872H7.38v.738zm7.51-5.544c-1.674 0-2.754.864-3.276 2.052l-.144-1.944h-.792V38h.918v-4.5c0-2.376 1.206-3.888 3.15-3.888 1.764 0 2.826 1.152 2.826 3.312V38h.918v-5.112c0-2.88-1.53-4.122-3.6-4.122zm12.943 2.16c-.558-1.296-1.782-2.16-3.492-2.16-2.502 0-4.302 1.908-4.302 4.662 0 2.88 1.8 4.68 4.302 4.68 1.71 0 2.898-.918 3.474-2.196L27.959 38h.792V25.4h-.918v5.526zm-3.42 6.354c-2.034 0-3.438-1.584-3.438-3.852 0-2.25 1.404-3.852 3.438-3.852 2.034 0 3.438 1.602 3.438 3.87 0 2.25-1.404 3.834-3.438 3.834zm12.95-8.406v-1.368c0-.9.343-1.26 1.26-1.26h1.315V25.4h-1.35c-1.53 0-2.142.666-2.142 2.124v1.35h-1.728v.846h1.728V38h.918v-8.28h3.906V38h.918v-9.126h-4.824zm4.375-3.222c-.36 0-.648.27-.648.648s.288.648.648.648c.378 0 .648-.27.648-.648a.624.624 0 00-.648-.648zM43.368 38h1.062l3.024-4.014L50.478 38h1.116l-3.546-4.662 3.366-4.464H50.37l-2.88 3.78-2.844-3.78h-1.098l3.366 4.464L43.368 38zm13.125.108c1.998 0 3.528-1.296 3.924-3.132h-.936c-.36 1.422-1.566 2.304-3.06 2.304-2.034 0-3.312-1.548-3.348-3.672v-.162h7.452c0-.126.018-.27.018-.378-.09-2.718-1.764-4.302-4.212-4.302-2.502 0-4.212 1.908-4.212 4.608 0 2.862 1.782 4.734 4.374 4.734zm-3.348-5.436c.144-1.854 1.53-3.096 3.204-3.096 1.782 0 3.06 1.098 3.204 3.096h-6.408zm16.664-1.746c-.558-1.296-1.782-2.16-3.492-2.16-2.502 0-4.302 1.908-4.302 4.662 0 2.88 1.8 4.68 4.302 4.68 1.71 0 2.898-.918 3.474-2.196L69.935 38h.792V25.4h-.918v5.526zm-3.42 6.354c-2.034 0-3.438-1.584-3.438-3.852 0-2.25 1.404-3.852 3.438-3.852 2.034 0 3.438 1.602 3.438 3.87 0 2.25-1.404 3.834-3.438 3.834zm15.075-8.406c-1.692 0-2.412.81-2.79 1.818l-.144-1.818h-.792V38h.918v-4.626c0-1.854.486-3.618 2.628-3.618h.666v-.882h-.486zm2.314-1.926c.36 0 .648-.27.648-.648a.634.634 0 00-.648-.648c-.36 0-.648.27-.648.648s.288.648.648.648zM83.31 38h.918v-9.126h-.917V38zm2.663-2.808c.072 1.89 1.602 2.916 3.888 2.916 1.962 0 3.546-.99 3.546-2.61 0-1.926-1.692-2.304-3.654-2.574-1.422-.198-2.682-.36-2.682-1.638 0-1.044 1.026-1.728 2.574-1.728 1.458 0 2.502.702 2.664 1.89h.936c-.162-1.782-1.62-2.682-3.6-2.682-2.034-.018-3.492 1.026-3.492 2.592 0 1.836 1.692 2.178 3.564 2.43 1.53.216 2.772.414 2.772 1.764 0 1.08-1.134 1.764-2.628 1.764-1.746 0-2.88-.81-2.952-2.124h-.936zM95.158 38h.918v-2.466l2.142-2.196L101.71 38h1.116l-3.978-5.328 3.672-3.798h-1.134l-5.31 5.472V25.4h-.918V38z" fill="#000"/></svg>