<svg width="185" height="22" viewBox="0 0 185 22" fill="none" xmlns="http://www.w3.org/2000/svg"><path d="M3.55 8.74l-1.17.54.03-1.29h-.57l.02 1.28L.7 8.74l-.23.56 1.22.45-.84.99.43.4.83-1.05.84 1.05.44-.4-.83-.98 1.22-.45-.23-.57zm.877.06h2.27V15h.87V8.8h2.27V8h-5.41v.8zm11.81 5.47c-.26 0-.44-.05-.64-.28l-.39-.44 1.55-2.33h-.87l-1.18 1.77-1.4-1.56c1.28-.5 1.7-1.19 1.7-1.96 0-.87-.7-1.53-1.65-1.53-1.12 0-1.97.72-1.97 1.68 0 .6.18 1 .69 1.62-1.16.49-1.57 1.27-1.57 2 0 1.19.97 1.82 2.2 1.82.75 0 1.4-.3 1.97-.89l.4.45c.26.3.63.38 1.06.38h.76v-.73h-.66zm-2.94-5.64c.53 0 .88.36.88.86 0 .59-.41 1.08-1.31 1.44-.46-.54-.63-.84-.63-1.34 0-.56.42-.96 1.06-.96zm-.57 5.7c-.81 0-1.38-.43-1.38-1.17 0-.63.3-1.01 1.15-1.42.03.02.05.05.07.07l1.63 1.82c-.43.46-.91.7-1.47.7zm8.323.73c1.58 0 2.74-.9 3-2.35h-.92c-.26.98-1.01 1.55-2.09 1.55-1.47 0-2.37-1.15-2.37-2.76 0-1.62.94-2.76 2.41-2.76 1.05 0 1.79.58 2.06 1.55h.92c-.26-1.45-1.39-2.35-2.94-2.35-2.03 0-3.34 1.44-3.34 3.56 0 2.14 1.26 3.56 3.27 3.56zm3.67-1.74c.02 1.12.93 1.74 2.25 1.74 1.13 0 2.04-.59 2.04-1.54 0-1.13-.93-1.35-2.09-1.49-.74-.09-1.28-.16-1.28-.72 0-.47.48-.77 1.19-.77.7 0 1.18.39 1.24.91h.84c-.08-1.06-.92-1.6-2.08-1.61-1.15-.01-2 .6-2 1.53 0 1.06.91 1.29 2.05 1.43.76.09 1.32.14 1.32.78 0 .47-.51.78-1.23.78-.85 0-1.38-.44-1.41-1.04h-.84zm12.228.93c-.23 0-.33-.07-.33-.34v-2.23c0-1.19-.75-1.84-2.05-1.84-1.23 0-2.04.59-2.16 1.59h.82c.1-.52.58-.86 1.3-.86.8 0 1.27.4 1.27 1.06v.35h-1.5c-1.34 0-2.05.57-2.05 1.59 0 .93.76 1.49 1.88 1.49.88 0 1.39-.39 1.71-.85.01.5.24.79.92.79h.45v-.75h-.26zm-1.15-1.33c0 .85-.59 1.44-1.61 1.44-.68 0-1.11-.34-1.11-.84 0-.58.41-.85 1.14-.85h1.58v.25zm4.56-3.08c-.86 0-1.41.41-1.75.88l-.11-.82h-.71V17h.82v-2.78c.31.49.89.84 1.75.84 1.41 0 2.45-1.05 2.45-2.61 0-1.66-1.04-2.61-2.45-2.61zm-.08 4.49c-1 0-1.68-.78-1.68-1.9 0-1.09.68-1.86 1.68-1.86 1.01 0 1.69.77 1.69 1.88 0 1.11-.68 1.88-1.69 1.88zm5.987-4.49c-.86 0-1.41.41-1.75.88l-.11-.82h-.71V17h.82v-2.78c.31.49.89.84 1.75.84 1.41 0 2.45-1.05 2.45-2.61 0-1.66-1.04-2.61-2.45-2.61zm-.08 4.49c-1 0-1.68-.78-1.68-1.9 0-1.09.68-1.86 1.68-1.86 1.01 0 1.69.77 1.69 1.88 0 1.11-.68 1.88-1.69 1.88zm3.417.67h.82V8h-.82v7zm3.373.03l-.25.62c-.19.48-.27.6-.74.6h-.73V17h.98c.72 0 .91-.32 1.23-1.14l2.35-5.96h-.87l-1.52 4.07-1.57-4.07h-.87l1.99 5.13zm2.824-.53c0 .34.24.56.57.56.33 0 .57-.22.57-.56 0-.34-.24-.56-.57-.56-.33 0-.57.22-.57.56zm4.797.5h.87v-2.69h1.76l1.48 2.69h.98l-1.57-2.86c.9-.25 1.49-1.01 1.49-1.99 0-1.31-.93-2.15-2.33-2.15h-2.68v7zm2.62-6.2c.91 0 1.5.53 1.5 1.35 0 .82-.59 1.36-1.51 1.36h-1.74V8.8h1.75zm3.744.24c.3 0 .53-.22.53-.53 0-.31-.23-.53-.53-.53-.3 0-.53.22-.53.53 0 .31.23.53.53.53zM66.54 15h.82V9.9h-.82V15zm1.683-1.68c.02 1.12.93 1.74 2.25 1.74 1.13 0 2.04-.59 2.04-1.54 0-1.13-.93-1.35-2.09-1.49-.74-.09-1.28-.16-1.28-.72 0-.47.48-.77 1.19-.77.7 0 1.18.39 1.24.91h.84c-.08-1.06-.92-1.6-2.08-1.61-1.15-.01-2 .6-2 1.53 0 1.06.91 1.29 2.05 1.43.76.09 1.32.14 1.32.78 0 .47-.51.78-1.23.78-.85 0-1.38-.44-1.41-1.04h-.84zm5.15 1.68h.82v-1.34l1.03-1.06 1.69 2.4h.99l-2.13-2.99 1.99-2.11h-1.01l-2.56 2.71V8h-.82v7zm9.975.06c1.49 0 2.53-1.06 2.53-2.61 0-1.55-1.04-2.61-2.53-2.61-1.49 0-2.53 1.06-2.53 2.61 0 1.55 1.04 2.61 2.53 2.61zm0-.73c-1.01 0-1.69-.79-1.69-1.88 0-1.09.68-1.88 1.69-1.88 1.01 0 1.69.79 1.69 1.88 0 1.09-.68 1.88-1.69 1.88zm2.822-3.68h.92V15h.82v-4.35h1.44V9.9h-1.44v-.59c0-.39.15-.56.56-.56h.88V8h-.93c-.95 0-1.33.43-1.33 1.33v.57h-.92v.75zM92.46 15h.82V8h-.82v7zm4.243.06c1.49 0 2.53-1.06 2.53-2.61 0-1.55-1.04-2.61-2.53-2.61-1.49 0-2.53 1.06-2.53 2.61 0 1.55 1.04 2.61 2.53 2.61zm0-.73c-1.01 0-1.69-.79-1.69-1.88 0-1.09.68-1.88 1.69-1.88 1.01 0 1.69.79 1.69 1.88 0 1.09-.68 1.88-1.69 1.88zm3.19-1.01c.02 1.12.93 1.74 2.25 1.74 1.13 0 2.04-.59 2.04-1.54 0-1.13-.93-1.35-2.09-1.49-.74-.09-1.28-.16-1.28-.72 0-.47.48-.77 1.19-.77.7 0 1.18.39 1.24.91h.84c-.08-1.06-.92-1.6-2.08-1.61-1.15-.01-2 .6-2 1.53 0 1.06.91 1.29 2.05 1.43.76.09 1.32.14 1.32.78 0 .47-.51.78-1.23.78-.85 0-1.38-.44-1.41-1.04h-.84zm4.843 0c.02 1.12.93 1.74 2.25 1.74 1.13 0 2.04-.59 2.04-1.54 0-1.13-.93-1.35-2.09-1.49-.74-.09-1.28-.16-1.28-.72 0-.47.48-.77 1.19-.77.7 0 1.18.39 1.24.91h.84c-.08-1.06-.92-1.6-2.08-1.61-1.15-.01-2 .6-2 1.53 0 1.06.91 1.29 2.05 1.43.76.09 1.32.14 1.32.78 0 .47-.51.78-1.23.78-.85 0-1.38-.44-1.41-1.04h-.84zm10.067 1.74c1.49 0 2.53-1.06 2.53-2.61 0-1.55-1.04-2.61-2.53-2.61-1.49 0-2.53 1.06-2.53 2.61 0 1.55 1.04 2.61 2.53 2.61zm0-.73c-1.01 0-1.69-.79-1.69-1.88 0-1.09.68-1.88 1.69-1.88 1.01 0 1.69.79 1.69 1.88 0 1.09-.68 1.88-1.69 1.88zm2.822-3.68h.92V15h.82v-4.35h1.44V9.9h-1.44v-.59c0-.39.15-.56.56-.56h.88V8h-.93c-.95 0-1.33.43-1.33 1.33v.57h-.92v.75zm6.71-1.61c.3 0 .53-.22.53-.53 0-.31-.23-.53-.53-.53-.3 0-.53.22-.53.53 0 .31.23.53.53.53zm-.42 5.96h.82V9.9h-.82V15zm4.393-5.16c-.86 0-1.38.36-1.68.75l-.11-.69h-.71V15h.82v-2.55c0-1.15.58-1.86 1.54-1.86.89 0 1.38.56 1.38 1.62V15h.82v-2.84c0-1.69-.91-2.32-2.06-2.32zm4.27 5.16h.99l1.91-5.1h-.86l-1.53 4.17-1.54-4.17h-.88l1.91 5.1zm5.587.06c1.18 0 2.02-.75 2.22-1.77h-.83c-.17.66-.73 1.04-1.45 1.04-.97 0-1.58-.68-1.61-1.65v-.07h3.96c.01-.12.02-.24.02-.35-.04-1.51-.98-2.42-2.42-2.42s-2.42 1.06-2.42 2.61c0 1.56 1 2.61 2.53 2.61zm-1.62-3.13c.08-.83.77-1.37 1.52-1.37.85 0 1.45.49 1.53 1.37h-3.05zm4.587 1.39c.02 1.12.93 1.74 2.25 1.74 1.13 0 2.04-.59 2.04-1.54 0-1.13-.93-1.35-2.09-1.49-.74-.09-1.28-.16-1.28-.72 0-.47.48-.77 1.19-.77.7 0 1.18.39 1.24.91h.84c-.08-1.06-.92-1.6-2.08-1.61-1.15-.01-2 .6-2 1.53 0 1.06.91 1.29 2.05 1.43.76.09 1.32.14 1.32.78 0 .47-.51.78-1.23.78-.85 0-1.38-.44-1.41-1.04h-.84zm5.53.35c0 .9.35 1.33 1.33 1.33h.89v-.75h-.81c-.44 0-.59-.16-.59-.59v-3.01h1.32V9.9h-1.32V8.47h-.82V9.9h-.92v.75h.92v3.02zm8.57-3.83c-.91 0-1.46.42-1.77.97-.29-.65-.9-.97-1.61-.97-.79 0-1.22.39-1.49.76l-.11-.7h-.71V15h.82v-2.69c0-1.02.51-1.72 1.35-1.72.78 0 1.23.52 1.23 1.52V15h.82v-2.73c0-1.04.52-1.68 1.37-1.68.77 0 1.21.52 1.21 1.52V15h.82v-2.94c0-1.61-.87-2.22-1.93-2.22zm5.224 5.22c1.18 0 2.02-.75 2.22-1.77h-.83c-.17.66-.73 1.04-1.45 1.04-.97 0-1.58-.68-1.61-1.65v-.07h3.96c.01-.12.02-.24.02-.35-.04-1.51-.98-2.42-2.42-2.42s-2.42 1.06-2.42 2.61c0 1.56 1 2.61 2.53 2.61zm-1.62-3.13c.08-.83.77-1.37 1.52-1.37.85 0 1.45.49 1.53 1.37h-3.05zm7.315-2.09c-.86 0-1.38.36-1.68.75l-.11-.69h-.71V15h.82v-2.55c0-1.15.58-1.86 1.54-1.86.89 0 1.38.56 1.38 1.62V15h.82v-2.84c0-1.69-.91-2.32-2.06-2.32zm3.436 3.83c0 .9.35 1.33 1.33 1.33h.89v-.75h-.81c-.44 0-.59-.16-.59-.59v-3.01h1.32V9.9h-1.32V8.47h-.82V9.9h-.92v.75h.92v3.02zm2.819.83c0 .34.24.56.57.56.33 0 .57-.22.57-.56 0-.34-.24-.56-.57-.56-.33 0-.57.22-.57.56z" fill="#000"/></svg>