<svg width="183" height="98" viewBox="0 0 183 98" fill="none" xmlns="http://www.w3.org/2000/svg"><path d="M3.888 17.018L6.192 17l2.79-9.468L11.61 17h2.322L17.64 4.49h-2.196l-2.61 10.134-2.61-10.134H7.92L5.112 14.678 2.52 4.49H.342l3.546 12.528zM19.332 17h2.052v-5.544c0-1.818.99-2.754 2.502-2.754 1.494 0 2.484.936 2.484 2.754V17h2.034v-5.85c0-2.772-1.728-4.23-3.942-4.23-1.278 0-2.394.486-3.078 1.314V3.68h-2.052V17zm11.69 0h2.052V7.082h-2.052V17zm1.044-11.232c.72 0 1.296-.576 1.296-1.314 0-.738-.576-1.314-1.296-1.314-.738 0-1.314.576-1.314 1.314 0 .738.576 1.314 1.314 1.314zm3.018 6.264c0 3.114 2.016 5.13 4.86 5.13 2.43 0 4.014-1.35 4.572-3.294h-2.214c-.378 1.026-1.134 1.566-2.358 1.566-1.656 0-2.754-1.224-2.754-3.402 0-2.16 1.098-3.384 2.754-3.384 1.224 0 2.016.612 2.358 1.566h2.214c-.558-2.088-2.142-3.294-4.572-3.294-2.844 0-4.86 2.016-4.86 5.112zM46.561 17h2.052v-5.544c0-1.818.99-2.754 2.502-2.754 1.494 0 2.484.936 2.484 2.754V17h2.034v-5.85c0-2.772-1.728-4.23-3.942-4.23-1.278 0-2.394.486-3.078 1.314V3.68H46.56V17zm23.763-2.772c-.108-3.582-5.706-2.466-5.706-4.464 0-.666.576-1.116 1.674-1.116 1.116 0 1.782.594 1.854 1.458h2.052c-.108-1.98-1.584-3.186-3.834-3.186-2.34 0-3.816 1.278-3.816 2.862 0 3.636 5.76 2.52 5.76 4.464 0 .684-.63 1.188-1.818 1.188-1.134 0-1.908-.666-1.98-1.476h-2.124c.09 1.8 1.764 3.204 4.14 3.204 2.34 0 3.798-1.26 3.798-2.934zM72.541 17h2.052V7.082h-2.052V17zm1.044-11.232c.72 0 1.296-.576 1.296-1.314 0-.738-.576-1.314-1.296-1.314-.738 0-1.314.576-1.314 1.314 0 .738.576 1.314 1.314 1.314zm3.019 6.228c0 3.06 2.07 5.166 4.68 5.166 1.62 0 2.807-.756 3.438-1.656V17h2.07V3.68h-2.07v4.788c-.756-.936-2.124-1.548-3.42-1.548-2.629 0-4.699 2.016-4.699 5.076zm8.118.036c0 2.142-1.459 3.348-3.006 3.348-1.53 0-3.006-1.242-3.006-3.384s1.476-3.294 3.006-3.294c1.547 0 3.006 1.206 3.006 3.33zm8.94-3.384c1.53 0 2.737.972 2.773 2.502h-5.49c.216-1.566 1.332-2.502 2.718-2.502zm4.645 5.4h-2.214c-.378.774-1.08 1.386-2.34 1.386-1.512 0-2.682-.99-2.826-2.628h7.578a6.33 6.33 0 00.072-1.008c0-2.916-1.998-4.878-4.824-4.878-2.934 0-4.95 1.998-4.95 5.112s2.106 5.13 4.95 5.13c2.43 0 3.996-1.386 4.554-3.114zm16.415-2.016c0-3.114-2.232-5.112-5.058-5.112-2.826 0-5.058 1.998-5.058 5.112s2.142 5.13 4.968 5.13c2.844 0 5.148-2.016 5.148-5.13zm-8.028 0c0-2.25 1.386-3.33 2.934-3.33 1.53 0 2.988 1.08 2.988 3.33s-1.512 3.348-3.042 3.348c-1.548 0-2.88-1.098-2.88-3.348zM117.002 17h2.07V8.756h1.836V7.082h-1.836V6.38c0-1.134.432-1.566 1.692-1.566v-1.71c-2.592 0-3.762.99-3.762 3.276v.702h-1.17v1.674h1.17V17zm12.939.018l2.304-.018 2.79-9.468L137.663 17h2.322l3.708-12.51h-2.196l-2.61 10.134-2.61-10.134h-2.304l-2.808 10.188-2.592-10.188h-2.178l3.546 12.528zm14.76-5.022c0 3.06 2.07 5.166 4.644 5.166 1.656 0 2.844-.792 3.474-1.638V17h2.07V7.082h-2.07v1.44c-.612-.81-1.764-1.602-3.438-1.602-2.61 0-4.68 2.016-4.68 5.076zm8.118.036c0 2.142-1.458 3.348-3.006 3.348-1.53 0-3.006-1.242-3.006-3.384s1.476-3.294 3.006-3.294c1.548 0 3.006 1.206 3.006 3.33zM157.584 17h2.052V3.68h-2.052V17zm4.746 0h2.052V3.68h-2.052V17zM9.792 35.454c0-4.572-6.624-2.808-6.624-5.634 0-1.206.918-1.782 2.106-1.746 1.296.036 2.034.81 2.106 1.656h2.268c-.18-2.142-1.872-3.402-4.266-3.402-2.556 0-4.302 1.368-4.302 3.564 0 4.608 6.642 2.646 6.642 5.67 0 1.062-.81 1.836-2.25 1.836-1.422 0-2.142-.828-2.232-1.854H1.044c0 2.214 1.926 3.582 4.428 3.582 2.79 0 4.32-1.8 4.32-3.672zm2.745.792c0 2.016 1.098 2.754 2.862 2.754h1.62v-1.71h-1.26c-.864 0-1.152-.306-1.152-1.044v-5.49h2.412v-1.674h-2.412v-2.466h-2.07v2.466h-1.17v1.674h1.17v5.49zm8.425-2.466c0-2.106.936-2.736 2.448-2.736h.523V28.92c-1.404 0-2.395.612-2.97 1.602v-1.44H18.91V39h2.052v-5.22zm9.033-3.132c1.53 0 2.736.972 2.772 2.502h-5.49c.216-1.566 1.332-2.502 2.718-2.502zm4.644 5.4h-2.214c-.378.774-1.08 1.386-2.34 1.386-1.512 0-2.682-.99-2.826-2.628h7.578a6.33 6.33 0 00.072-1.008c0-2.916-1.998-4.878-4.824-4.878-2.934 0-4.95 1.998-4.95 5.112s2.106 5.13 4.95 5.13c2.43 0 3.996-1.386 4.554-3.114zm6.465-5.4c1.53 0 2.736.972 2.772 2.502h-5.49c.216-1.566 1.332-2.502 2.718-2.502zm4.644 5.4h-2.214c-.378.774-1.08 1.386-2.34 1.386-1.512 0-2.682-.99-2.826-2.628h7.578a6.33 6.33 0 00.072-1.008c0-2.916-1.998-4.878-4.824-4.878-2.934 0-4.95 1.998-4.95 5.112s2.106 5.13 4.95 5.13c2.43 0 3.996-1.386 4.554-3.114zm2.614.198c0 2.016 1.097 2.754 2.861 2.754h1.62v-1.71h-1.26c-.864 0-1.151-.306-1.151-1.044v-5.49h2.411v-1.674h-2.412v-2.466h-2.07v2.466h-1.17v1.674h1.17v5.49zM61.335 39h2.16l1.998-7.326L67.493 39h2.16l3.078-9.918h-2.016l-2.053 7.938-2.016-7.938h-2.142l-2.106 7.974-2.07-7.974H58.24L61.337 39zm12.928 0h2.052v-9.918h-2.052V39zm1.044-11.232c.72 0 1.296-.576 1.296-1.314 0-.738-.576-1.314-1.296-1.314-.738 0-1.314.576-1.314 1.314 0 .738.576 1.314 1.314 1.314zM79.01 39h2.052V25.68H79.01V39zm4.746 0h2.052V25.68h-2.052V39zm13.328-2.358l-2.79-7.56h-2.286l3.906 9.756-2.016 4.824h2.124l6.084-14.58h-2.124l-2.898 7.56zm16.021-2.61c0-3.114-2.232-5.112-5.058-5.112-2.826 0-5.058 1.998-5.058 5.112s2.142 5.13 4.968 5.13c2.844 0 5.148-2.016 5.148-5.13zm-8.028 0c0-2.25 1.386-3.33 2.934-3.33 1.53 0 2.988 1.08 2.988 3.33s-1.512 3.348-3.042 3.348c-1.548 0-2.88-1.098-2.88-3.348zm19.038-4.95h-2.052v5.526c0 1.818-.99 2.754-2.502 2.754-1.494 0-2.484-.936-2.484-2.754v-5.526h-2.034v5.832c0 2.772 1.764 4.23 4.086 4.23 1.17 0 2.286-.486 2.934-1.332V39h2.052v-9.918zm7.707 7.164c0 2.016 1.098 2.754 2.862 2.754h1.62v-1.71h-1.26c-.864 0-1.152-.306-1.152-1.044v-5.49h2.412v-1.674h-2.412v-2.466h-2.07v2.466h-1.17v1.674h1.17v5.49zm5.69-2.25c0 3.06 2.07 5.166 4.644 5.166 1.656 0 2.844-.792 3.474-1.638V39h2.07v-9.918h-2.07v1.44c-.612-.81-1.764-1.602-3.438-1.602-2.61 0-4.68 2.016-4.68 5.076zm8.118.036c0 2.142-1.458 3.348-3.006 3.348-1.53 0-3.006-1.242-3.006-3.384s1.476-3.294 3.006-3.294c1.548 0 3.006 1.206 3.006 3.33zM150.395 39h2.052v-4.266L156.119 39h2.772l-4.572-4.95 4.572-4.968h-2.844l-3.6 4.338v-7.74h-2.052V39zm14.143-8.352c1.53 0 2.736.972 2.772 2.502h-5.49c.216-1.566 1.332-2.502 2.718-2.502zm4.644 5.4h-2.214c-.378.774-1.08 1.386-2.34 1.386-1.512 0-2.682-.99-2.826-2.628h7.578a6.33 6.33 0 00.072-1.008c0-2.916-1.998-4.878-4.824-4.878-2.934 0-4.95 1.998-4.95 5.112s2.106 5.13 4.95 5.13c2.43 0 3.996-1.386 4.554-3.114zm1.659-6.03h1.926c0-1.26.81-1.98 2.088-1.98 1.296 0 2.07.774 2.07 2.034 0 1.89-1.566 2.25-3.6 2.25h-.594l.09 2.826h1.782l.072-1.422c2.412 0 4.212-1.116 4.212-3.654 0-2.34-1.638-3.762-4.05-3.762-2.448 0-4.014 1.53-3.996 3.708zm4.14 7.794c0-.738-.576-1.314-1.296-1.314-.738 0-1.314.576-1.314 1.314 0 .738.576 1.314 1.314 1.314.72 0 1.296-.576 1.296-1.314zM7.56 56.06a2.822 2.822 0 00-1.104-1.296c-.488-.32-1.064-.48-1.728-.48-.624 0-1.184.144-1.68.432-.496.288-.888.7-1.176 1.236-.288.528-.432 1.144-.432 1.848 0 .704.144 1.324.432 1.86.288.536.68.948 1.176 1.236a3.284 3.284 0 001.68.432c.584 0 1.108-.124 1.572-.372a2.925 2.925 0 001.128-1.08c.288-.472.452-1.02.492-1.644H4.392v-.684h4.416v.612a4.285 4.285 0 01-.6 2.004 3.944 3.944 0 01-1.452 1.404c-.6.344-1.276.516-2.028.516-.776 0-1.48-.18-2.112-.54a4.035 4.035 0 01-1.5-1.524c-.36-.656-.54-1.396-.54-2.22 0-.824.18-1.56.54-2.208a3.925 3.925 0 011.5-1.524 4.12 4.12 0 012.112-.552c.896 0 1.68.224 2.352.672.672.448 1.16 1.072 1.464 1.872H7.56zm5.655 6.036a3.411 3.411 0 01-1.668-.408 3.1 3.1 0 01-1.164-1.176c-.28-.512-.42-1.108-.42-1.788 0-.68.144-1.272.432-1.776a2.97 2.97 0 011.176-1.176 3.333 3.333 0 011.668-.42c.616 0 1.172.14 1.668.42.504.272.896.664 1.176 1.176.288.504.432 1.096.432 1.776 0 .672-.144 1.264-.432 1.776a3.03 3.03 0 01-1.188 1.188 3.48 3.48 0 01-1.68.408zm0-.732c.432 0 .832-.096 1.2-.288.368-.2.664-.496.888-.888.232-.4.348-.888.348-1.464s-.112-1.06-.336-1.452c-.224-.4-.52-.696-.888-.888-.368-.2-.768-.3-1.2-.3-.432 0-.832.1-1.2.3a2.157 2.157 0 00-.888.888c-.216.392-.324.876-.324 1.452s.108 1.064.324 1.464c.224.392.516.688.876.888.368.192.768.288 1.2.288zm8.964-8.244V62h-.84v-8.88h.84zm4.77 8.976a3.411 3.411 0 01-1.668-.408 3.1 3.1 0 01-1.164-1.176c-.28-.512-.42-1.108-.42-1.788 0-.68.144-1.272.432-1.776a2.97 2.97 0 011.176-1.176 3.333 3.333 0 011.668-.42c.616 0 1.172.14 1.668.42.504.272.896.664 1.176 1.176.288.504.432 1.096.432 1.776 0 .672-.144 1.264-.432 1.776a3.03 3.03 0 01-1.188 1.188 3.48 3.48 0 01-1.68.408zm0-.732c.432 0 .832-.096 1.2-.288.368-.2.664-.496.888-.888.232-.4.348-.888.348-1.464s-.112-1.06-.336-1.452c-.224-.4-.52-.696-.888-.888-.368-.2-.768-.3-1.2-.3-.432 0-.832.1-1.2.3a2.157 2.157 0 00-.888.888c-.216.392-.324.876-.324 1.452s.108 1.064.324 1.464c.224.392.516.688.876.888.368.192.768.288 1.2.288zm7.903-6.036c.784 0 1.424.244 1.92.732.496.48.744 1.18.744 2.1V62h-.828v-3.744c0-.712-.18-1.256-.54-1.632-.352-.376-.836-.564-1.452-.564-.632 0-1.136.2-1.512.6-.376.4-.564.988-.564 1.764V62h-.84v-6.552h.84v1.116c.208-.4.508-.704.9-.912a2.714 2.714 0 011.332-.324zm7.27.024c.616 0 1.152.144 1.608.432.456.288.784.652.984 1.092v-1.428h.84v6.72c0 .6-.132 1.132-.396 1.596a2.62 2.62 0 01-1.08 1.068c-.464.256-.992.384-1.584.384-.84 0-1.54-.2-2.1-.6a2.553 2.553 0 01-1.032-1.632h.828c.144.456.416.82.816 1.092.408.272.904.408 1.488.408.424 0 .804-.092 1.14-.276.336-.176.6-.44.792-.792.192-.352.288-.768.288-1.248v-1.62c-.208.448-.54.82-.996 1.116-.448.288-.98.432-1.596.432-.6 0-1.14-.14-1.62-.42a2.964 2.964 0 01-1.116-1.188c-.264-.512-.396-1.104-.396-1.776 0-.672.132-1.26.396-1.764a2.881 2.881 0 011.116-1.176c.48-.28 1.02-.42 1.62-.42zm2.592 3.372c0-.528-.108-.992-.324-1.392a2.3 2.3 0 00-.888-.924 2.373 2.373 0 00-1.224-.324c-.464 0-.88.104-1.248.312-.368.208-.66.512-.876.912-.208.392-.312.86-.312 1.404 0 .536.104 1.008.312 1.416.216.4.508.708.876.924.368.208.784.312 1.248.312.448 0 .856-.108 1.224-.324a2.3 2.3 0 00.888-.924c.216-.4.324-.864.324-1.392zm8.919 3.372a3.411 3.411 0 01-1.668-.408 3.1 3.1 0 01-1.164-1.176c-.28-.512-.42-1.108-.42-1.788 0-.68.144-1.272.432-1.776a2.97 2.97 0 011.176-1.176 3.333 3.333 0 011.668-.42c.616 0 1.172.14 1.668.42.504.272.896.664 1.176 1.176.288.504.432 1.096.432 1.776 0 .672-.144 1.264-.432 1.776a3.03 3.03 0 01-1.188 1.188 3.48 3.48 0 01-1.68.408zm0-.732c.432 0 .832-.096 1.2-.288.368-.2.664-.496.888-.888.232-.4.348-.888.348-1.464s-.112-1.06-.336-1.452c-.224-.4-.52-.696-.888-.888-.368-.2-.768-.3-1.2-.3-.432 0-.832.1-1.2.3a2.157 2.157 0 00-.888.888c-.216.392-.324.876-.324 1.452s.108 1.064.324 1.464c.224.392.516.688.876.888.368.192.768.288 1.2.288zm5.67-4.752c.185-.408.465-.724.84-.948.385-.224.853-.336 1.405-.336v.876h-.228c-.608 0-1.096.164-1.464.492-.368.328-.552.876-.552 1.644V62h-.84v-6.552h.84v1.164zm9.058 5.484c-.752 0-1.368-.172-1.849-.516-.472-.352-.736-.828-.791-1.428h.864c.04.368.212.668.516.9.311.224.728.336 1.248.336.456 0 .811-.108 1.067-.324.264-.216.397-.484.397-.804a.748.748 0 00-.216-.552 1.462 1.462 0 00-.552-.336 7.128 7.128 0 00-.889-.276 9.09 9.09 0 01-1.188-.384 2.103 2.103 0 01-.78-.564c-.207-.256-.312-.596-.312-1.02 0-.32.096-.616.288-.888.192-.272.465-.488.817-.648a2.87 2.87 0 011.2-.24c.704 0 1.272.18 1.704.54.431.352.663.84.695 1.464h-.84a1.248 1.248 0 00-.456-.924c-.272-.24-.648-.36-1.128-.36-.424 0-.768.1-1.032.3-.263.2-.395.448-.395.744 0 .256.076.468.228.636.16.16.356.288.588.384.231.088.543.188.936.3a8.84 8.84 0 011.128.372c.28.12.52.296.72.528.2.232.303.54.312.924 0 .352-.097.668-.288.948-.192.272-.46.488-.804.648-.345.16-.74.24-1.189.24zm6.98-6.768c.497 0 .94.104 1.333.312.4.208.712.528.936.96.232.424.348.944.348 1.56V62h-.828v-3.744c0-.712-.18-1.256-.54-1.632-.352-.376-.836-.564-1.452-.564-.632 0-1.136.2-1.512.6-.376.4-.564.988-.564 1.764V62h-.84v-8.88h.84v3.444a2.18 2.18 0 01.912-.912 2.878 2.878 0 011.368-.324zm7.343 6.768a3.411 3.411 0 01-1.668-.408 3.1 3.1 0 01-1.165-1.176c-.28-.512-.42-1.108-.42-1.788 0-.68.145-1.272.433-1.776a2.97 2.97 0 011.175-1.176 3.333 3.333 0 011.668-.42c.617 0 1.172.14 1.669.42.503.272.895.664 1.175 1.176.288.504.433 1.096.433 1.776 0 .672-.144 1.264-.432 1.776a3.03 3.03 0 01-1.189 1.188 3.48 3.48 0 01-1.68.408zm0-.732c.431 0 .832-.096 1.2-.288.367-.2.663-.496.888-.888.231-.4.347-.888.347-1.464s-.112-1.06-.335-1.452c-.225-.4-.52-.696-.889-.888-.367-.2-.767-.3-1.2-.3-.431 0-.831.1-1.2.3a2.157 2.157 0 00-.888.888c-.216.392-.323.876-.323 1.452s.107 1.064.323 1.464c.225.392.517.688.877.888.368.192.767.288 1.2.288zm5.67-4.752c.185-.408.465-.724.84-.948.385-.224.853-.336 1.405-.336v.876h-.228c-.608 0-1.096.164-1.464.492-.368.328-.552.876-.552 1.644V62h-.84v-6.552h.84v1.164zm4.6-.456v4.068c0 .4.076.676.228.828.152.152.42.228.804.228h.768V62h-.9c-.592 0-1.032-.136-1.32-.408-.288-.28-.432-.736-.432-1.368v-4.068h-.912v-.708h.912v-1.644h.852v1.644h1.8v.708h-1.8zm9.347 5.94a3.411 3.411 0 01-1.668-.408 3.102 3.102 0 01-1.164-1.176c-.28-.512-.42-1.108-.42-1.788 0-.68.144-1.272.432-1.776a2.97 2.97 0 011.176-1.176 3.333 3.333 0 011.668-.42c.616 0 1.172.14 1.668.42.504.272.896.664 1.176 1.176.288.504.432 1.096.432 1.776 0 .672-.144 1.264-.432 1.776a3.03 3.03 0 01-1.188 1.188 3.48 3.48 0 01-1.68.408zm0-.732c.432 0 .832-.096 1.2-.288.368-.2.664-.496.888-.888.232-.4.348-.888.348-1.464s-.112-1.06-.336-1.452c-.224-.4-.52-.696-.888-.888-.368-.2-.768-.3-1.2-.3-.432 0-.832.1-1.2.3a2.157 2.157 0 00-.888.888c-.216.392-.324.876-.324 1.452s.108 1.064.324 1.464c.224.392.516.688.876.888.368.192.768.288 1.2.288zm7.903-6.036c.784 0 1.424.244 1.92.732.496.48.744 1.18.744 2.1V62h-.828v-3.744c0-.712-.18-1.256-.54-1.632-.352-.376-.836-.564-1.452-.564-.632 0-1.136.2-1.512.6-.376.4-.564.988-.564 1.764V62h-.84v-6.552h.84v1.116c.208-.4.508-.704.9-.912a2.714 2.714 0 011.332-.324zm8.907.828v4.068c0 .4.076.676.228.828.152.152.42.228.804.228h.768V62h-.9c-.592 0-1.032-.136-1.32-.408-.288-.28-.432-.736-.432-1.368v-4.068h-.912v-.708h.912v-1.644h.852v1.644h1.8v.708h-1.8zm6.305-.828c.496 0 .94.104 1.332.312.4.208.712.528.936.96.232.424.348.944.348 1.56V62h-.828v-3.744c0-.712-.18-1.256-.54-1.632-.352-.376-.836-.564-1.452-.564-.632 0-1.136.2-1.512.6-.376.4-.564.988-.564 1.764V62h-.84v-8.88h.84v3.444a2.18 2.18 0 01.912-.912 2.878 2.878 0 011.368-.324zm10.402 3.06c0 .288-.008.508-.024.66h-5.436c.024.496.144.92.36 1.272s.5.62.852.804a2.54 2.54 0 001.152.264c.544 0 1-.132 1.368-.396a1.85 1.85 0 00.744-1.068h.888a2.792 2.792 0 01-1.032 1.572c-.52.4-1.176.6-1.968.6a3.343 3.343 0 01-1.656-.408 3.016 3.016 0 01-1.152-1.176c-.272-.512-.408-1.108-.408-1.788 0-.68.136-1.276.408-1.788a2.836 2.836 0 011.14-1.176c.488-.272 1.044-.408 1.668-.408.624 0 1.168.136 1.632.408.472.272.832.64 1.08 1.104.256.456.384.964.384 1.524zm-.852-.024c.008-.488-.092-.904-.3-1.248a1.947 1.947 0 00-.828-.78 2.54 2.54 0 00-1.152-.264c-.624 0-1.156.2-1.596.6-.44.4-.684.964-.732 1.692h4.608zm6.485-4.752v5.28c0 .832.197 1.448.589 1.848.4.4.944.6 1.632.6s1.224-.196 1.608-.588c.392-.4.588-1.02.588-1.86v-5.28h.84v5.268c0 1.064-.284 1.864-.853 2.4-.559.536-1.291.804-2.195.804-.904 0-1.64-.268-2.209-.804-.559-.536-.839-1.336-.839-2.4v-5.268h.839zm9.674 8.472c-.552 0-1.04-.096-1.464-.288a2.391 2.391 0 01-.984-.804 2.111 2.111 0 01-.384-1.152h.888c.04.408.22.768.54 1.08.32.304.788.456 1.404.456.568 0 1.016-.144 1.344-.432.336-.296.504-.668.504-1.116 0-.36-.092-.648-.276-.864a1.618 1.618 0 00-.684-.492 9.585 9.585 0 00-1.128-.36 9.862 9.862 0 01-1.332-.444 2.12 2.12 0 01-.84-.672c-.232-.304-.348-.716-.348-1.236 0-.432.112-.816.336-1.152.224-.344.54-.612.948-.804.408-.192.876-.288 1.404-.288.776 0 1.4.192 1.872.576.48.376.756.864.828 1.464h-.912c-.056-.344-.244-.648-.564-.912-.32-.272-.752-.408-1.296-.408-.504 0-.924.136-1.26.408-.336.264-.504.628-.504 1.092 0 .352.092.636.276.852.184.216.412.38.684.492.28.112.656.232 1.128.36.544.152.984.304 1.32.456a2.1 2.1 0 01.852.672c.232.304.348.712.348 1.224 0 .392-.104.764-.312 1.116a2.277 2.277 0 01-.924.852c-.408.216-.896.324-1.464.324zM1.788 72.9a2.67 2.67 0 01.996-1.116c.456-.288.992-.432 1.608-.432.6 0 1.136.14 1.608.42.472.272.84.664 1.104 1.176.272.504.408 1.092.408 1.764 0 .672-.136 1.264-.408 1.776a2.86 2.86 0 01-1.116 1.188c-.472.28-1.004.42-1.596.42-.624 0-1.164-.14-1.62-.42a2.589 2.589 0 01-.984-1.116V78H.96v-8.88h.828v3.78zm4.872 1.812c0-.544-.108-1.012-.324-1.404a2.166 2.166 0 00-.864-.912 2.492 2.492 0 00-1.248-.312c-.448 0-.86.108-1.236.324-.368.216-.66.524-.876.924-.216.4-.324.864-.324 1.392 0 .528.108.992.324 1.392.216.4.508.708.876.924.376.216.788.324 1.236.324.464 0 .88-.104 1.248-.312.368-.216.656-.524.864-.924.216-.408.324-.88.324-1.416zm8.326-.324c0 .288-.008.508-.024.66H9.526c.024.496.144.92.36 1.272s.5.62.852.804a2.54 2.54 0 001.152.264c.544 0 1-.132 1.368-.396a1.85 1.85 0 00.744-1.068h.888a2.792 2.792 0 01-1.032 1.572c-.52.4-1.176.6-1.968.6a3.343 3.343 0 01-1.656-.408 3.016 3.016 0 01-1.152-1.176c-.272-.512-.408-1.108-.408-1.788 0-.68.136-1.276.408-1.788a2.836 2.836 0 011.14-1.176c.488-.272 1.044-.408 1.668-.408.624 0 1.168.136 1.632.408.472.272.832.64 1.08 1.104.256.456.384.964.384 1.524zm-.852-.024c.008-.488-.092-.904-.3-1.248a1.947 1.947 0 00-.828-.78 2.54 2.54 0 00-1.152-.264c-.624 0-1.156.2-1.596.6-.44.4-.684.964-.732 1.692h4.608zm5.46-3.036c.784 0 1.424.244 1.92.732.497.48.745 1.18.745 2.1V78h-.829v-3.744c0-.712-.18-1.256-.54-1.632-.352-.376-.835-.564-1.451-.564-.633 0-1.137.2-1.512.6-.377.4-.564.988-.564 1.764V78h-.84v-6.552h.84v1.116c.207-.4.508-.704.9-.912a2.714 2.714 0 011.331-.324zm4.138 3.396c0-.68.136-1.272.408-1.776a2.858 2.858 0 011.128-1.176c.48-.28 1.028-.42 1.644-.42.808 0 1.472.2 1.992.6.528.4.868.944 1.02 1.632h-.9a1.808 1.808 0 00-.732-1.104c-.368-.272-.828-.408-1.38-.408-.44 0-.836.1-1.188.3-.352.2-.632.5-.84.9-.2.392-.3.876-.3 1.452s.1 1.064.3 1.464c.208.4.488.7.84.9.352.2.748.3 1.188.3.552 0 1.012-.132 1.38-.396.376-.272.62-.648.732-1.128h.9a2.748 2.748 0 01-1.02 1.62c-.528.408-1.192.612-1.992.612-.616 0-1.164-.136-1.644-.408a2.957 2.957 0 01-1.128-1.176c-.272-.512-.408-1.108-.408-1.788zm10.864-3.396c.496 0 .94.104 1.332.312.4.208.712.528.936.96.232.424.348.944.348 1.56V78h-.828v-3.744c0-.712-.18-1.256-.54-1.632-.352-.376-.836-.564-1.452-.564-.632 0-1.136.2-1.512.6-.376.4-.564.988-.564 1.764V78h-.84v-8.88h.84v3.444a2.18 2.18 0 01.912-.912 2.878 2.878 0 011.368-.324zm12.273 0c.768 0 1.392.244 1.872.732.488.48.732 1.18.732 2.1V78h-.828v-3.744c0-.712-.172-1.256-.516-1.632-.344-.376-.812-.564-1.404-.564-.616 0-1.108.204-1.476.612-.368.408-.552 1-.552 1.776V78h-.828v-3.744c0-.712-.172-1.256-.516-1.632-.344-.376-.816-.564-1.416-.564-.616 0-1.108.204-1.476.612-.368.408-.552 1-.552 1.776V78h-.84v-6.552h.84v1.128c.208-.408.504-.716.888-.924a2.573 2.573 0 011.284-.324c.568 0 1.064.136 1.488.408.432.272.744.672.936 1.2.176-.52.476-.916.9-1.188.432-.28.92-.42 1.464-.42zm4.086 3.384c0-.672.132-1.26.396-1.764a2.881 2.881 0 011.116-1.176c.48-.28 1.02-.42 1.62-.42.624 0 1.16.144 1.608.432.456.288.784.656.984 1.104v-1.44h.84V78h-.84v-1.452c-.208.448-.54.82-.996 1.116-.448.288-.984.432-1.608.432-.592 0-1.128-.14-1.608-.42a2.964 2.964 0 01-1.116-1.188c-.264-.512-.396-1.104-.396-1.776zm5.724.012c0-.528-.108-.992-.324-1.392a2.3 2.3 0 00-.888-.924 2.373 2.373 0 00-1.224-.324c-.464 0-.88.104-1.248.312-.368.208-.66.512-.876.912-.208.392-.312.86-.312 1.404 0 .536.104 1.008.312 1.416.216.4.508.708.876.924.368.208.784.312 1.248.312.448 0 .856-.108 1.224-.324a2.3 2.3 0 00.888-.924c.216-.4.324-.864.324-1.392zm3.598-2.112c.184-.408.464-.724.84-.948.384-.224.852-.336 1.404-.336v.876h-.228c-.608 0-1.096.164-1.464.492-.368.328-.552.876-.552 1.644V78h-.84v-6.552h.84v1.164zM67.324 78l-2.7-2.94V78h-.84v-8.88h.84v5.256l2.64-2.928h1.176l-3.108 3.264L68.464 78h-1.14zm8.387.096a3.411 3.411 0 01-1.668-.408 3.1 3.1 0 01-1.164-1.176c-.28-.512-.42-1.108-.42-1.788 0-.68.144-1.272.432-1.776a2.97 2.97 0 011.176-1.176 3.333 3.333 0 011.668-.42c.616 0 1.172.14 1.668.42.504.272.896.664 1.176 1.176.288.504.432 1.096.432 1.776 0 .672-.144 1.264-.432 1.776a3.03 3.03 0 01-1.188 1.188 3.48 3.48 0 01-1.68.408zm0-.732c.432 0 .832-.096 1.2-.288.368-.2.664-.496.888-.888.232-.4.348-.888.348-1.464s-.112-1.06-.336-1.452c-.224-.4-.52-.696-.888-.888-.368-.2-.768-.3-1.2-.3-.432 0-.832.1-1.2.3a2.157 2.157 0 00-.888.888c-.216.392-.324.876-.324 1.452s.108 1.064.324 1.464c.224.392.516.688.876.888.368.192.768.288 1.2.288zm7.903-6.036c.784 0 1.424.244 1.92.732.496.48.744 1.18.744 2.1V78h-.828v-3.744c0-.712-.18-1.256-.54-1.632-.352-.376-.836-.564-1.452-.564-.632 0-1.136.2-1.512.6-.376.4-.564.988-.564 1.764V78h-.84v-6.552h.84v1.116c.208-.4.508-.704.9-.912a2.714 2.714 0 011.332-.324zm7.43 3.384c0-.672.133-1.26.397-1.764a2.881 2.881 0 011.116-1.176c.48-.28 1.02-.42 1.62-.42.624 0 1.16.144 1.608.432.456.288.784.656.984 1.104v-1.44h.84V78h-.84v-1.452c-.208.448-.54.82-.996 1.116-.448.288-.984.432-1.608.432-.592 0-1.128-.14-1.608-.42a2.964 2.964 0 01-1.116-1.188c-.264-.512-.396-1.104-.396-1.776zm5.725.012c0-.528-.108-.992-.324-1.392a2.3 2.3 0 00-.888-.924 2.373 2.373 0 00-1.224-.324c-.464 0-.88.104-1.248.312-.368.208-.66.512-.876.912-.208.392-.312.86-.312 1.404 0 .536.104 1.008.312 1.416.216.4.508.708.876.924.368.208.784.312 1.248.312.448 0 .856-.108 1.224-.324a2.3 2.3 0 00.888-.924c.216-.4.324-.864.324-1.392zm5.829-3.396c.784 0 1.424.244 1.92.732.496.48.744 1.18.744 2.1V78h-.828v-3.744c0-.712-.18-1.256-.54-1.632-.352-.376-.836-.564-1.452-.564-.632 0-1.136.2-1.512.6-.376.4-.564.988-.564 1.764V78h-.84v-6.552h.84v1.116c.208-.4.508-.704.9-.912a2.714 2.714 0 011.332-.324zm7.431 3.384c0-.672.132-1.26.396-1.764a2.881 2.881 0 011.116-1.176c.48-.28 1.02-.42 1.62-.42.624 0 1.16.144 1.608.432.456.288.784.656.984 1.104v-1.44h.84V78h-.84v-1.452c-.208.448-.54.82-.996 1.116-.448.288-.984.432-1.608.432-.592 0-1.128-.14-1.608-.42a2.964 2.964 0 01-1.116-1.188c-.264-.512-.396-1.104-.396-1.776zm5.724.012c0-.528-.108-.992-.324-1.392a2.3 2.3 0 00-.888-.924 2.373 2.373 0 00-1.224-.324c-.464 0-.88.104-1.248.312-.368.208-.66.512-.876.912-.208.392-.312.86-.312 1.404 0 .536.104 1.008.312 1.416.216.4.508.708.876.924.368.208.784.312 1.248.312.448 0 .856-.108 1.224-.324a2.3 2.3 0 00.888-.924c.216-.4.324-.864.324-1.392zm11.398-3.276L125.099 78h-.84l-1.812-5.496L120.635 78h-.852l-2.052-6.552h.852l1.632 5.7 1.836-5.7h.84l1.812 5.712 1.62-5.712h.828zm.761 3.264c0-.672.132-1.26.396-1.764a2.881 2.881 0 011.116-1.176c.48-.28 1.02-.42 1.62-.42.624 0 1.16.144 1.608.432.456.288.784.656.984 1.104v-1.44h.84V78h-.84v-1.452c-.208.448-.54.82-.996 1.116-.448.288-.984.432-1.608.432-.592 0-1.128-.14-1.608-.42a2.964 2.964 0 01-1.116-1.188c-.264-.512-.396-1.104-.396-1.776zm5.724.012c0-.528-.108-.992-.324-1.392a2.3 2.3 0 00-.888-.924 2.373 2.373 0 00-1.224-.324c-.464 0-.88.104-1.248.312-.368.208-.66.512-.876.912-.208.392-.312.86-.312 1.404 0 .536.104 1.008.312 1.416.216.4.508.708.876.924.368.208.784.312 1.248.312.448 0 .856-.108 1.224-.324a2.3 2.3 0 00.888-.924c.216-.4.324-.864.324-1.392zm3.598-2.112c.184-.408.464-.724.84-.948.384-.224.852-.336 1.404-.336v.876h-.228c-.608 0-1.096.164-1.464.492-.368.328-.552.876-.552 1.644V78h-.84v-6.552h.84v1.164zm3.123 2.1c0-.672.136-1.26.408-1.764a2.881 2.881 0 011.116-1.176c.48-.28 1.02-.42 1.62-.42.576 0 1.096.14 1.56.42.464.28.804.644 1.02 1.092V69.12h.84V78h-.84v-1.464a2.56 2.56 0 01-.984 1.128c-.456.288-.992.432-1.608.432-.6 0-1.14-.14-1.62-.42a2.964 2.964 0 01-1.116-1.188c-.264-.512-.396-1.104-.396-1.776zm5.724.012c0-.528-.108-.992-.324-1.392a2.3 2.3 0 00-.888-.924 2.373 2.373 0 00-1.224-.324c-.464 0-.88.104-1.248.312-.368.208-.66.512-.876.912-.208.392-.312.86-.312 1.404 0 .536.104 1.008.312 1.416.216.4.508.708.876.924.368.208.784.312 1.248.312.448 0 .856-.108 1.224-.324a2.3 2.3 0 00.888-.924c.216-.4.324-.864.324-1.392zm6.826-1.524v.708h-4.668V73.2h4.668zM9.6 87.448L7.548 94h-.84l-1.812-5.496L3.084 94h-.852L.18 87.448h.852l1.632 5.7 1.836-5.7h.84l1.812 5.712 1.62-5.712H9.6zm1.565-1.236a.59.59 0 01-.432-.18.603.603 0 01-.18-.444c0-.176.06-.32.18-.432a.59.59 0 01.432-.18.59.59 0 01.432.18c.12.112.18.256.18.432s-.06.324-.18.444a.59.59 0 01-.432.18zm.42 1.236V94h-.84v-6.552h.84zm4.974-.12c.784 0 1.424.244 1.92.732.496.48.744 1.18.744 2.1V94h-.828v-3.744c0-.712-.18-1.256-.54-1.632-.352-.376-.836-.564-1.452-.564-.632 0-1.136.2-1.512.6-.376.4-.564.988-.564 1.764V94h-.84v-6.552h.84v1.116c.208-.4.508-.704.9-.912a2.714 2.714 0 011.332-.324zm7.594 0c.784 0 1.424.244 1.92.732.496.48.744 1.18.744 2.1V94h-.828v-3.744c0-.712-.18-1.256-.54-1.632-.352-.376-.836-.564-1.452-.564-.632 0-1.136.2-1.512.6-.376.4-.564.988-.564 1.764V94h-.84v-6.552h.84v1.116c.208-.4.508-.704.9-.912a2.714 2.714 0 011.332-.324zm4.942-1.116a.59.59 0 01-.432-.18.603.603 0 01-.18-.444c0-.176.06-.32.18-.432a.59.59 0 01.432-.18.59.59 0 01.432.18c.12.112.18.256.18.432s-.06.324-.18.444a.59.59 0 01-.432.18zm.42 1.236V94h-.84v-6.552h.84zm4.974-.12c.784 0 1.424.244 1.92.732.496.48.744 1.18.744 2.1V94h-.828v-3.744c0-.712-.18-1.256-.54-1.632-.352-.376-.836-.564-1.452-.564-.632 0-1.136.2-1.512.6-.376.4-.564.988-.564 1.764V94h-.84v-6.552h.84v1.116c.208-.4.508-.704.9-.912a2.714 2.714 0 011.332-.324zm7.27.024c.616 0 1.152.144 1.608.432.456.288.784.652.984 1.092v-1.428h.84v6.72c0 .6-.132 1.132-.396 1.596a2.62 2.62 0 01-1.08 1.068c-.464.256-.992.384-1.584.384-.84 0-1.54-.2-2.1-.6a2.553 2.553 0 01-1.032-1.632h.828c.144.456.416.82.816 1.092.408.272.904.408 1.488.408.424 0 .804-.092 1.14-.276.336-.176.6-.44.792-.792.192-.352.288-.768.288-1.248v-1.62c-.208.448-.54.82-.996 1.116-.448.288-.98.432-1.596.432-.6 0-1.14-.14-1.62-.42a2.964 2.964 0 01-1.116-1.188c-.264-.512-.396-1.104-.396-1.776 0-.672.132-1.26.396-1.764a2.881 2.881 0 011.116-1.176c.48-.28 1.02-.42 1.62-.42zm2.592 3.372c0-.528-.108-.992-.324-1.392a2.3 2.3 0 00-.888-.924 2.373 2.373 0 00-1.224-.324c-.464 0-.88.104-1.248.312-.368.208-.66.512-.876.912-.208.392-.312.86-.312 1.404 0 .536.104 1.008.312 1.416.216.4.508.708.876.924.368.208.784.312 1.248.312.448 0 .856-.108 1.224-.324a2.3 2.3 0 00.888-.924c.216-.4.324-.864.324-1.392zm6.878-1.836c.208-.44.536-.804.984-1.092.456-.296.996-.444 1.62-.444.592 0 1.124.14 1.596.42.48.272.852.664 1.116 1.176.272.504.408 1.092.408 1.764 0 .672-.136 1.264-.408 1.776a2.86 2.86 0 01-1.116 1.188c-.472.28-1.004.42-1.596.42-.616 0-1.152-.144-1.608-.432-.456-.296-.788-.664-.996-1.104v4.536h-.828v-9.648h.828v1.44zm4.872 1.824c0-.544-.108-1.012-.324-1.404a2.166 2.166 0 00-.864-.912 2.492 2.492 0 00-1.248-.312c-.448 0-.86.108-1.236.324-.368.216-.66.524-.876.924-.216.4-.324.864-.324 1.392 0 .528.108.992.324 1.392.216.4.508.708.876.924.376.216.788.324 1.236.324.464 0 .88-.104 1.248-.312.368-.216.656-.524.864-.924.216-.408.324-.88.324-1.416zm3.238-5.592V94h-.84v-8.88h.84zm1.518 5.592c0-.672.132-1.26.396-1.764a2.881 2.881 0 011.116-1.176c.48-.28 1.02-.42 1.62-.42.624 0 1.16.144 1.608.432.456.288.784.656.984 1.104v-1.44h.84V94h-.84v-1.452c-.208.448-.54.82-.996 1.116-.448.288-.984.432-1.608.432-.592 0-1.128-.14-1.608-.42a2.964 2.964 0 01-1.116-1.188c-.264-.512-.396-1.104-.396-1.776zm5.724.012c0-.528-.108-.992-.324-1.392a2.3 2.3 0 00-.888-.924 2.373 2.373 0 00-1.224-.324c-.464 0-.88.104-1.248.312-.368.208-.66.512-.876.912-.208.392-.312.86-.312 1.404 0 .536.104 1.008.312 1.416.216.4.508.708.876.924.368.208.784.312 1.248.312.448 0 .856-.108 1.224-.324a2.3 2.3 0 00.888-.924c.216-.4.324-.864.324-1.392zm3.85-2.568v4.068c0 .4.076.676.228.828.152.152.42.228.804.228h.768V94h-.9c-.592 0-1.032-.136-1.32-.408-.288-.28-.432-.736-.432-1.368v-4.068h-.912v-.708h.912v-1.644h.852v1.644h1.8v.708h-1.8zm5.765 0h-1.524V94h-.84v-5.844h-.912v-.708h.912v-.456c0-.712.18-1.236.54-1.572.368-.336.96-.504 1.776-.504v.72c-.544 0-.928.104-1.152.312-.216.208-.324.556-.324 1.044v.456h1.524v.708zm4.19 5.94a3.411 3.411 0 01-1.667-.408 3.1 3.1 0 01-1.164-1.176c-.28-.512-.42-1.108-.42-1.788 0-.68.144-1.272.432-1.776a2.97 2.97 0 011.176-1.176 3.333 3.333 0 011.668-.42c.616 0 1.172.14 1.668.42.504.272.896.664 1.176 1.176.288.504.432 1.096.432 1.776 0 .672-.144 1.264-.432 1.776a3.03 3.03 0 01-1.188 1.188 3.48 3.48 0 01-1.68.408zm0-.732c.433 0 .833-.096 1.2-.288.369-.2.665-.496.889-.888.232-.4.348-.888.348-1.464s-.112-1.06-.336-1.452c-.224-.4-.52-.696-.888-.888-.368-.2-.768-.3-1.2-.3-.432 0-.832.1-1.2.3a2.157 2.157 0 00-.888.888c-.216.392-.324.876-.324 1.452s.108 1.064.324 1.464c.224.392.516.688.876.888.368.192.768.288 1.2.288zm5.672-4.752c.184-.408.464-.724.84-.948.384-.224.852-.336 1.404-.336v.876h-.228c-.608 0-1.096.164-1.464.492-.368.328-.552.876-.552 1.644V94h-.84v-6.552h.84v1.164zm11.307-1.284c.769 0 1.392.244 1.873.732.487.48.731 1.18.731 2.1V94h-.828v-3.744c0-.712-.172-1.256-.516-1.632-.344-.376-.811-.564-1.403-.564-.616 0-1.108.204-1.476.612-.368.408-.552 1-.552 1.776V94h-.829v-3.744c0-.712-.171-1.256-.515-1.632-.344-.376-.816-.564-1.416-.564-.617 0-1.108.204-1.477.612-.367.408-.551 1-.551 1.776V94h-.84v-6.552h.84v1.128c.207-.408.503-.716.887-.924a2.573 2.573 0 011.284-.324c.569 0 1.064.136 1.489.408.431.272.743.672.935 1.2.176-.52.477-.916.9-1.188.433-.28.92-.42 1.465-.42z" fill="#fff"/></svg>