<svg width="300" height="40" viewBox="0 0 300 40" fill="none" xmlns="http://www.w3.org/2000/svg"><path fill="#fff" d="M0 0h300v40H0z"/><path d="M83 10.45h15.213v4.64H88.28v3.233h8.979v4.401h-8.98v6.797H83V10.449z" fill="#12225C"/><path fill-rule="evenodd" clip-rule="evenodd" d="M124.31 10.45h9.102c2.934 0 4.99.777 6.29 2.065 1.119 1.078 1.694 2.575 1.694 4.431v.06c0 2.904-1.573 4.85-3.962 5.868l4.597 6.647h-6.169l-3.871-5.779h-2.359v5.779h-5.353V10.449h.031zm8.86 9.16c1.815 0 2.873-.868 2.873-2.275v-.06c0-1.497-1.089-2.275-2.903-2.275h-3.508v4.58h3.538v.03z" fill="#12225C"/><path d="M143.892 10.45h15.303v4.49h-10.083v2.904h9.128v4.162h-9.128v3.024h10.202v4.49h-15.422V10.45zM167.577 19.82l-6.264-9.37h6.055l3.371 5.358 3.4-5.359h5.907l-6.235 9.311 6.533 9.76h-6.055l-3.64-5.748-3.669 5.749h-5.936l6.533-9.7zM185.505 20.479c0-2.186 1.67-4.012 4.057-4.012 1.551 0 2.595.688 3.251 1.706l-1.82 1.348c-.358-.51-.775-.809-1.402-.809-.865 0-1.491.749-1.491 1.677v.03c0 .988.626 1.736 1.521 1.736.627 0 1.044-.299 1.462-.778l1.79 1.287c-.716 1.048-1.701 1.737-3.371 1.737-2.327.03-3.997-1.767-3.997-3.922" fill="#12225C"/><path fill-rule="evenodd" clip-rule="evenodd" d="M194.47 20.479c0-2.186 1.784-4.012 4.264-4.012 2.449 0 4.234 1.796 4.234 3.952v.03c0 2.155-1.785 3.982-4.264 3.982-2.45 0-4.234-1.797-4.234-3.952m5.867 0c0-.958-.696-1.737-1.633-1.737-.968 0-1.603.779-1.603 1.677v.03c0 .928.695 1.706 1.633 1.706.998 0 1.603-.778 1.603-1.676" fill="#12225C"/><path d="M204.406 16.616h2.655v1.048c.477-.628 1.193-1.197 2.267-1.197 1.014 0 1.79.449 2.178 1.227.656-.748 1.431-1.227 2.535-1.227 1.611 0 2.595 1.018 2.595 2.784v5h-2.654V20.09c0-.838-.418-1.257-1.045-1.257-.626 0-1.103.45-1.103 1.258v4.131h-2.625V20.09c0-.839-.418-1.258-1.044-1.258-.627 0-1.074.45-1.074 1.258v4.131h-2.655v-7.605h-.03z" fill="#12225C"/><path fill-rule="evenodd" clip-rule="evenodd" d="M119.683 19.94c0-.192-.004-.382-.012-.569h2.28l.604-1.736h-3.069c-.842-4.75-4.368-7.635-9.692-7.635-5.988 0-9.859 3.952-9.859 10.06 0 6.167 3.75 9.97 9.859 9.94 4.978 0 8.512-2.714 9.562-7.156h2.081l.635-1.736h-2.439c.032-.38.05-.77.05-1.168zm-9.768 7.305c-3.085 0-4.295-3.233-4.295-7.245 0-4.012.968-7.216 4.083-7.245 2.45 0 3.717 2.022 4.134 4.88h-2.652l-.605 1.736h3.406a22.264 22.264 0 01-.015 1.736h-3.27l-.635 1.737h3.73c-.419 2.603-1.547 4.401-3.881 4.401z" fill="#14964F"/><path d="M181.806 22.814c0-.39.149-.689.418-.988.268-.27.596-.42.984-.42s.716.15.984.42c.269.27.418.599.418.988 0 .39-.149.719-.418.988-.268.27-.596.39-.984.39s-.716-.12-.984-.39c-.299-.24-.418-.569-.418-.988" fill="#12225C"/></svg>