<svg width="118" height="47" viewBox="0 0 118 47" fill="none" xmlns="http://www.w3.org/2000/svg"><path d="M1.987 6.384c-.376 0-.7-.132-.972-.396a1.341 1.341 0 01-.408-.984c0-.392.136-.72.408-.984.272-.272.596-.408.972-.408.392 0 .72.136.984.408.272.264.408.592.408.984 0 .384-.136.712-.408.984a1.336 1.336 0 01-.984.396zm9.625 1.956c1.472-1.104 2.608-2.092 3.408-2.964.808-.88 1.212-1.74 1.212-2.58 0-.552-.14-.992-.42-1.32-.272-.336-.72-.504-1.344-.504-.608 0-1.08.192-1.416.576-.328.376-.512.88-.552 1.512h-.816c.048-.888.32-1.576.816-2.064.504-.496 1.16-.744 1.968-.744.776 0 1.404.22 1.884.66.48.432.72 1.048.72 1.848 0 .968-.404 1.908-1.212 2.82-.8.904-1.788 1.788-2.964 2.652h4.44v.708h-5.724v-.6zm7.035-3.72c0-1.376.212-2.444.636-3.204.424-.76 1.184-1.14 2.28-1.14 1.096 0 1.856.38 2.28 1.14.424.76.636 1.828.636 3.204 0 1.4-.212 2.484-.636 3.252-.424.768-1.184 1.152-2.28 1.152-1.104 0-1.868-.384-2.292-1.152-.416-.768-.624-1.852-.624-3.252zm5.004 0c0-.744-.052-1.372-.156-1.884-.104-.512-.308-.924-.612-1.236-.304-.312-.744-.468-1.32-.468-.576 0-1.016.156-1.32.468-.304.312-.508.724-.612 1.236-.104.512-.156 1.14-.156 1.884 0 .768.052 1.412.156 1.932.104.512.308.924.612 1.236.304.312.744.468 1.32.468.576 0 1.016-.156 1.32-.468.304-.312.508-.724.612-1.236.104-.52.156-1.164.156-1.932zm11.264-2.172l-3.888 9.636h-.876l1.272-3.12-2.688-6.516h.924L31.89 8.04l2.16-5.592h.864zm7.067 2.94c0 .288-.008.508-.024.66h-5.436c.024.496.144.92.36 1.272s.5.62.852.804a2.54 2.54 0 001.152.264c.544 0 1-.132 1.368-.396a1.85 1.85 0 00.744-1.068h.888a2.792 2.792 0 01-1.032 1.572c-.52.4-1.176.6-1.968.6a3.343 3.343 0 01-1.656-.408 3.016 3.016 0 01-1.152-1.176c-.272-.512-.408-1.108-.408-1.788 0-.68.136-1.276.408-1.788a2.836 2.836 0 011.14-1.176c.488-.272 1.044-.408 1.668-.408.624 0 1.168.136 1.632.408.472.272.832.64 1.08 1.104.256.456.384.964.384 1.524zm-.852-.024c.008-.488-.092-.904-.3-1.248a1.947 1.947 0 00-.828-.78 2.54 2.54 0 00-1.152-.264c-.624 0-1.156.2-1.596.6-.44.4-.684.964-.732 1.692h4.608zm2.005.348c0-.672.132-1.26.396-1.764a2.881 2.881 0 011.116-1.176c.48-.28 1.02-.42 1.62-.42.624 0 1.16.144 1.608.432.456.288.784.656.984 1.104v-1.44h.84V9h-.84V7.548c-.208.448-.54.82-.996 1.116-.448.288-.984.432-1.608.432-.592 0-1.128-.14-1.608-.42a2.964 2.964 0 01-1.116-1.188c-.264-.512-.396-1.104-.396-1.776zm5.724.012c0-.528-.108-.992-.324-1.392a2.3 2.3 0 00-.888-.924 2.373 2.373 0 00-1.224-.324c-.464 0-.88.104-1.248.312-.368.208-.66.512-.876.912-.208.392-.312.86-.312 1.404 0 .536.104 1.008.312 1.416.216.4.508.708.876.924.368.208.784.312 1.248.312.448 0 .856-.108 1.224-.324a2.3 2.3 0 00.888-.924c.216-.4.324-.864.324-1.392zm3.597-2.112c.184-.408.464-.724.84-.948.384-.224.852-.336 1.404-.336v.876h-.228c-.608 0-1.096.164-1.464.492-.368.328-.552.876-.552 1.644V9h-.84V2.448h.84v1.164zm5.764 5.484c-.752 0-1.368-.172-1.848-.516-.472-.352-.736-.828-.792-1.428h.864c.04.368.212.668.516.9.312.224.728.336 1.248.336.456 0 .812-.108 1.068-.324.264-.216.396-.484.396-.804a.748.748 0 00-.216-.552 1.462 1.462 0 00-.552-.336 7.128 7.128 0 00-.888-.276 9.09 9.09 0 01-1.188-.384 2.103 2.103 0 01-.78-.564c-.208-.256-.312-.596-.312-1.02 0-.32.096-.616.288-.888.192-.272.464-.488.816-.648a2.87 2.87 0 011.2-.24c.704 0 1.272.18 1.704.54.432.352.664.84.696 1.464h-.84a1.248 1.248 0 00-.456-.924c-.272-.24-.648-.36-1.128-.36-.424 0-.768.1-1.032.3-.264.2-.396.448-.396.744 0 .256.076.468.228.636.16.16.356.288.588.384.232.088.544.188.936.3a8.84 8.84 0 011.128.372c.28.12.52.296.72.528.2.232.304.54.312.924 0 .352-.096.668-.288.948-.192.272-.46.488-.804.648-.344.16-.74.24-1.188.24zM17.888 22.388c0 .288-.008.508-.024.66h-5.436c.024.496.144.92.36 1.272s.5.62.852.804a2.54 2.54 0 001.152.264c.544 0 1-.132 1.368-.396a1.85 1.85 0 00.744-1.068h.888a2.792 2.792 0 01-1.032 1.572c-.52.4-1.176.6-1.968.6a3.343 3.343 0 01-1.656-.408 3.016 3.016 0 01-1.152-1.176c-.272-.512-.408-1.108-.408-1.788 0-.68.136-1.276.408-1.788a2.836 2.836 0 011.14-1.176c.488-.272 1.044-.408 1.668-.408.624 0 1.168.136 1.632.408.472.272.832.64 1.08 1.104.256.456.384.964.384 1.524zm-.852-.024c.008-.488-.092-.904-.3-1.248a1.947 1.947 0 00-.828-.78 2.54 2.54 0 00-1.152-.264c-.624 0-1.156.2-1.596.6-.44.4-.684.964-.732 1.692h4.608zM22.856 26l-1.691-2.64L19.533 26h-.888l2.112-3.276-2.088-3.276h.948l1.668 2.604 1.62-2.604h.876l-2.088 3.24L23.805 26h-.948zm2.916-5.112c.208-.44.536-.804.984-1.092.456-.296.996-.444 1.62-.444.592 0 1.124.14 1.596.42.48.272.852.664 1.116 1.176.272.504.408 1.092.408 1.764 0 .672-.136 1.264-.408 1.776a2.86 2.86 0 01-1.116 1.188c-.472.28-1.004.42-1.596.42-.616 0-1.152-.144-1.608-.432-.456-.296-.788-.664-.996-1.104v4.536h-.828v-9.648h.828v1.44zm4.872 1.824c0-.544-.108-1.012-.324-1.404a2.166 2.166 0 00-.864-.912 2.492 2.492 0 00-1.248-.312c-.448 0-.86.108-1.236.324-.368.216-.66.524-.876.924-.216.4-.324.864-.324 1.392 0 .528.108.992.324 1.392.216.4.508.708.876.924.376.216.788.324 1.236.324.464 0 .88-.104 1.248-.312.368-.216.656-.524.864-.924.216-.408.324-.88.324-1.416zm8.326-.324c0 .288-.008.508-.024.66H33.51c.024.496.144.92.36 1.272s.5.62.852.804a2.54 2.54 0 001.152.264c.544 0 1-.132 1.368-.396a1.85 1.85 0 00.744-1.068h.888a2.792 2.792 0 01-1.032 1.572c-.52.4-1.176.6-1.968.6a3.343 3.343 0 01-1.656-.408 3.016 3.016 0 01-1.152-1.176c-.272-.512-.408-1.108-.408-1.788 0-.68.136-1.276.408-1.788a2.836 2.836 0 011.14-1.176c.488-.272 1.044-.408 1.668-.408.624 0 1.168.136 1.632.408.472.272.832.64 1.08 1.104.256.456.384.964.384 1.524zm-.852-.024c.008-.488-.092-.904-.3-1.248a1.947 1.947 0 00-.828-.78 2.54 2.54 0 00-1.152-.264c-.624 0-1.156.2-1.596.6-.44.4-.684.964-.732 1.692h4.608zm3.229-1.752c.184-.408.464-.724.84-.948.384-.224.852-.336 1.404-.336v.876h-.228c-.608 0-1.096.164-1.464.492-.368.328-.552.876-.552 1.644V26h-.84v-6.552h.84v1.164zm3.928-2.4a.59.59 0 01-.432-.18.603.603 0 01-.18-.444c0-.176.06-.32.18-.432a.59.59 0 01.431-.18.59.59 0 01.432.18c.12.112.18.256.18.432s-.06.324-.18.444a.59.59 0 01-.431.18zm.42 1.236V26h-.84v-6.552h.84zm7.83 2.94c0 .288-.008.508-.024.66h-5.436c.024.496.144.92.36 1.272s.5.62.852.804a2.54 2.54 0 001.152.264c.544 0 1-.132 1.368-.396a1.85 1.85 0 00.744-1.068h.888a2.792 2.792 0 01-1.032 1.572c-.52.4-1.176.6-1.968.6a3.343 3.343 0 01-1.656-.408 3.016 3.016 0 01-1.152-1.176c-.272-.512-.408-1.108-.408-1.788 0-.68.136-1.276.408-1.788a2.836 2.836 0 011.14-1.176c.488-.272 1.044-.408 1.668-.408.624 0 1.168.136 1.632.408.472.272.832.64 1.08 1.104.256.456.384.964.384 1.524zm-.852-.024c.008-.488-.092-.904-.3-1.248a1.947 1.947 0 00-.828-.78 2.54 2.54 0 00-1.152-.264c-.624 0-1.156.2-1.596.6-.44.4-.684.964-.732 1.692h4.608zm5.46-3.036c.785 0 1.425.244 1.92.732.497.48.745 1.18.745 2.1V26h-.828v-3.744c0-.712-.18-1.256-.54-1.632-.352-.376-.836-.564-1.452-.564-.632 0-1.136.2-1.512.6-.376.4-.564.988-.564 1.764V26h-.84v-6.552h.84v1.116c.208-.4.508-.704.9-.912a2.714 2.714 0 011.332-.324zm4.138 3.396c0-.68.136-1.272.408-1.776a2.858 2.858 0 011.128-1.176c.48-.28 1.028-.42 1.644-.42.808 0 1.472.2 1.992.6.528.4.868.944 1.02 1.632h-.9a1.808 1.808 0 00-.732-1.104c-.368-.272-.828-.408-1.38-.408-.44 0-.836.1-1.188.3-.352.2-.632.5-.84.9-.2.392-.3.876-.3 1.452s.1 1.064.3 1.464c.208.4.488.7.84.9.352.2.748.3 1.188.3.552 0 1.012-.132 1.38-.396.376-.272.62-.648.732-1.128h.9a2.748 2.748 0 01-1.02 1.62c-.528.408-1.192.612-1.992.612-.616 0-1.164-.136-1.644-.408a2.957 2.957 0 01-1.128-1.176c-.272-.512-.408-1.108-.408-1.788zm13.672-.336c0 .288-.008.508-.024.66h-5.436c.024.496.144.92.36 1.272s.5.62.852.804a2.54 2.54 0 001.152.264c.544 0 1-.132 1.368-.396a1.85 1.85 0 00.744-1.068h.888a2.792 2.792 0 01-1.032 1.572c-.52.4-1.176.6-1.968.6a3.343 3.343 0 01-1.656-.408 3.016 3.016 0 01-1.152-1.176c-.272-.512-.408-1.108-.408-1.788 0-.68.136-1.276.408-1.788a2.836 2.836 0 011.14-1.176c.488-.272 1.044-.408 1.668-.408.624 0 1.168.136 1.632.408.472.272.832.64 1.08 1.104.256.456.384.964.384 1.524zm-.852-.024c.008-.488-.092-.904-.3-1.248a1.947 1.947 0 00-.828-.78 2.54 2.54 0 00-1.152-.264c-.624 0-1.156.2-1.596.6-.44.4-.684.964-.732 1.692h4.608zm3.157 2.244l-1.249 3.144h-.575l.887-3.144h.936zM12.788 37.9a2.67 2.67 0 01.996-1.116c.456-.288.992-.432 1.608-.432.6 0 1.136.14 1.608.42.472.272.84.664 1.104 1.176.272.504.408 1.092.408 1.764 0 .672-.136 1.264-.408 1.776a2.86 2.86 0 01-1.116 1.188c-.472.28-1.004.42-1.596.42-.624 0-1.164-.14-1.62-.42a2.589 2.589 0 01-.984-1.116V43h-.828v-8.88h.828v3.78zm4.872 1.812c0-.544-.108-1.012-.324-1.404a2.166 2.166 0 00-.864-.912 2.492 2.492 0 00-1.248-.312c-.448 0-.86.108-1.236.324-.368.216-.66.524-.876.924-.216.4-.324.864-.324 1.392 0 .528.108.992.324 1.392.216.4.508.708.876.924.376.216.788.324 1.236.324.464 0 .88-.104 1.248-.312.368-.216.656-.524.864-.924.216-.408.324-.88.324-1.416zm2.014 0c0-.672.132-1.26.396-1.764a2.881 2.881 0 011.116-1.176c.48-.28 1.02-.42 1.62-.42.624 0 1.16.144 1.608.432.456.288.784.656.984 1.104v-1.44h.84V43h-.84v-1.452c-.208.448-.54.82-.996 1.116-.448.288-.984.432-1.608.432-.592 0-1.128-.14-1.608-.42a2.964 2.964 0 01-1.116-1.188c-.264-.512-.396-1.104-.396-1.776zm5.724.012c0-.528-.108-.992-.324-1.392a2.3 2.3 0 00-.888-.924 2.373 2.373 0 00-1.224-.324c-.464 0-.88.104-1.248.312-.368.208-.66.512-.876.912-.208.392-.312.86-.312 1.404 0 .536.104 1.008.312 1.416.216.4.508.708.876.924.368.208.784.312 1.248.312.448 0 .856-.108 1.224-.324a2.3 2.3 0 00.888-.924c.216-.4.324-.864.324-1.392zm2.373 0c0-.68.136-1.272.408-1.776a2.858 2.858 0 011.128-1.176c.48-.28 1.028-.42 1.644-.42.808 0 1.472.2 1.992.6.528.4.868.944 1.02 1.632h-.9a1.808 1.808 0 00-.732-1.104c-.368-.272-.828-.408-1.38-.408-.44 0-.836.1-1.188.3-.352.2-.632.5-.84.9-.2.392-.3.876-.3 1.452s.1 1.064.3 1.464c.208.4.488.7.84.9.352.2.748.3 1.188.3.552 0 1.012-.132 1.38-.396.376-.272.62-.648.732-1.128h.9a2.748 2.748 0 01-1.02 1.62c-.528.408-1.192.612-1.992.612-.616 0-1.164-.136-1.644-.408a2.957 2.957 0 01-1.128-1.176c-.272-.512-.408-1.108-.408-1.788zM39.055 43l-2.7-2.94V43h-.84v-8.88h.84v5.256l2.64-2.928h1.176l-3.108 3.264L40.195 43h-1.14zm8.153-3.612c0 .288-.008.508-.024.66h-5.436c.024.496.144.92.36 1.272s.5.62.852.804a2.54 2.54 0 001.152.264c.544 0 1-.132 1.368-.396a1.85 1.85 0 00.744-1.068h.888a2.792 2.792 0 01-1.032 1.572c-.52.4-1.176.6-1.968.6a3.343 3.343 0 01-1.656-.408 3.016 3.016 0 01-1.152-1.176c-.272-.512-.408-1.108-.408-1.788 0-.68.136-1.276.408-1.788a2.836 2.836 0 011.14-1.176c.488-.272 1.044-.408 1.668-.408.624 0 1.168.136 1.632.408.472.272.832.64 1.08 1.104.256.456.384.964.384 1.524zm-.852-.024c.008-.488-.092-.904-.3-1.248a1.947 1.947 0 00-.828-.78 2.54 2.54 0 00-1.152-.264c-.624 0-1.156.2-1.596.6-.44.4-.684.964-.732 1.692h4.608zm2.005.348c0-.672.136-1.26.408-1.764a2.881 2.881 0 011.116-1.176c.48-.28 1.02-.42 1.62-.42.576 0 1.096.14 1.56.42.464.28.804.644 1.02 1.092V34.12h.84V43h-.84v-1.464a2.56 2.56 0 01-.984 1.128c-.456.288-.992.432-1.608.432-.6 0-1.14-.14-1.62-.42a2.964 2.964 0 01-1.116-1.188c-.264-.512-.396-1.104-.396-1.776zm5.724.012c0-.528-.108-.992-.324-1.392a2.3 2.3 0 00-.888-.924 2.373 2.373 0 00-1.224-.324c-.464 0-.88.104-1.248.312-.368.208-.66.512-.876.912-.208.392-.312.86-.312 1.404 0 .536.104 1.008.312 1.416.216.4.508.708.876.924.368.208.784.312 1.248.312.448 0 .856-.108 1.224-.324a2.3 2.3 0 00.888-.924c.216-.4.324-.864.324-1.392zm6.879-1.824a2.67 2.67 0 01.996-1.116c.456-.288.992-.432 1.608-.432.6 0 1.136.14 1.608.42.472.272.84.664 1.104 1.176.272.504.408 1.092.408 1.764 0 .672-.136 1.264-.408 1.776a2.86 2.86 0 01-1.116 1.188c-.472.28-1.004.42-1.596.42-.624 0-1.164-.14-1.62-.42a2.589 2.589 0 01-.984-1.116V43h-.828v-8.88h.828v3.78zm4.872 1.812c0-.544-.108-1.012-.324-1.404a2.166 2.166 0 00-.864-.912 2.492 2.492 0 00-1.248-.312c-.448 0-.86.108-1.236.324-.368.216-.66.524-.876.924-.216.4-.324.864-.324 1.392 0 .528.108.992.324 1.392.216.4.508.708.876.924.376.216.788.324 1.236.324.464 0 .88-.104 1.248-.312.368-.216.656-.524.864-.924.216-.408.324-.88.324-1.416zm7.797-3.264l-3.888 9.636h-.876l1.272-3.12-2.688-6.516h.924l2.232 5.592 2.16-5.592h.864zm6.977 6.636c-.552 0-1.04-.096-1.465-.288a2.391 2.391 0 01-.983-.804 2.111 2.111 0 01-.385-1.152h.888c.04.408.22.768.54 1.08.32.304.788.456 1.404.456.569 0 1.017-.144 1.345-.432.336-.296.504-.668.504-1.116 0-.36-.093-.648-.276-.864a1.618 1.618 0 00-.684-.492 9.585 9.585 0 00-1.129-.36 9.862 9.862 0 01-1.332-.444 2.12 2.12 0 01-.84-.672c-.231-.304-.347-.716-.347-1.236 0-.432.112-.816.336-1.152.223-.344.54-.612.947-.804.409-.192.877-.288 1.404-.288.776 0 1.4.192 1.872.576.48.376.756.864.828 1.464h-.911c-.056-.344-.244-.648-.564-.912-.32-.272-.752-.408-1.296-.408-.504 0-.924.136-1.26.408-.337.264-.505.628-.505 1.092 0 .352.093.636.277.852.184.216.412.38.684.492.28.112.655.232 1.127.36.544.152.984.304 1.32.456a2.1 2.1 0 01.853.672c.231.304.347.712.347 1.224 0 .392-.103.764-.311 1.116a2.277 2.277 0 01-.925.852c-.407.216-.895.324-1.463.324zm5.415-5.928v4.068c0 .4.076.676.228.828.152.152.42.228.804.228h.768V43h-.9c-.592 0-1.032-.136-1.32-.408-.288-.28-.432-.736-.432-1.368v-4.068h-.912v-.708h.912v-1.644h.852v1.644h1.8v.708h-1.8zm6.053 5.94a3.411 3.411 0 01-1.668-.408 3.1 3.1 0 01-1.164-1.176c-.28-.512-.42-1.108-.42-1.788 0-.68.144-1.272.432-1.776a2.97 2.97 0 011.176-1.176 3.333 3.333 0 011.668-.42c.616 0 1.172.14 1.668.42.504.272.896.664 1.176 1.176.288.504.432 1.096.432 1.776 0 .672-.144 1.264-.432 1.776a3.03 3.03 0 01-1.188 1.188 3.48 3.48 0 01-1.68.408zm0-.732c.432 0 .832-.096 1.2-.288.368-.2.664-.496.888-.888.232-.4.348-.888.348-1.464s-.112-1.06-.336-1.452c-.224-.4-.52-.696-.888-.888-.368-.2-.768-.3-1.2-.3-.432 0-.832.1-1.2.3a2.157 2.157 0 00-.888.888c-.216.392-.324.876-.324 1.452s.108 1.064.324 1.464c.224.392.516.688.876.888.368.192.768.288 1.2.288zm7.903-6.036c.784 0 1.424.244 1.92.732.496.48.744 1.18.744 2.1V43h-.828v-3.744c0-.712-.18-1.256-.54-1.632-.352-.376-.836-.564-1.452-.564-.632 0-1.136.2-1.512.6-.376.4-.564.988-.564 1.764V43h-.84v-6.552h.84v1.116c.208-.4.508-.704.9-.912a2.714 2.714 0 011.332-.324zm10.45 3.06c0 .288-.008.508-.024.66h-5.436c.024.496.144.92.36 1.272s.5.62.852.804a2.54 2.54 0 001.152.264c.544 0 1-.132 1.368-.396a1.85 1.85 0 00.744-1.068h.888a2.792 2.792 0 01-1.032 1.572c-.52.4-1.176.6-1.968.6a3.343 3.343 0 01-1.656-.408 3.016 3.016 0 01-1.152-1.176c-.272-.512-.408-1.108-.408-1.788 0-.68.136-1.276.408-1.788a2.836 2.836 0 011.14-1.176c.488-.272 1.044-.408 1.668-.408.624 0 1.168.136 1.632.408.472.272.832.64 1.08 1.104.256.456.384.964.384 1.524zm-.852-.024c.008-.488-.092-.904-.3-1.248a1.947 1.947 0 00-.828-.78 2.54 2.54 0 00-1.152-.264c-.624 0-1.156.2-1.596.6-.44.4-.684.964-.732 1.692h4.608zm5.413-.552L117.536 43h-.936l-2.136-3.504L112.436 43h-.936l2.532-4.224-2.532-4.164h.936l2.124 3.492 2.052-3.492h.936l-2.556 4.2z" fill="#fff"/></svg>