<svg width="160" height="600" viewBox="0 0 160 600" fill="none" xmlns="http://www.w3.org/2000/svg"><path fill="url(#paint0_linear_23_1459)" d="M0 0h160v600H0z"/><rect x="38" y="309" width="83" height="25" rx="12.5" fill="#14964F"/><path d="M50.818 318.378h2.046V325h1.254v-6.622h2.035v-1.023h-5.335v1.023zm7.859 3.432c0-1.287.572-1.672 1.496-1.672h.319v-1.298c-.858 0-1.463.374-1.815.979v-.88h-1.254V325h1.254v-3.19zm2.55.132c0 1.87 1.264 3.157 2.837 3.157 1.012 0 1.738-.484 2.123-1.001V325h1.265v-6.061h-1.265v.88c-.374-.495-1.078-.979-2.1-.979-1.596 0-2.86 1.232-2.86 3.102zm4.96.022c0 1.309-.89 2.046-1.837 2.046-.935 0-1.837-.759-1.837-2.068 0-1.309.902-2.013 1.837-2.013.946 0 1.837.737 1.837 2.035zm2.494-.022c0 1.87 1.265 3.157 2.86 3.157.99 0 1.716-.462 2.101-1.012V325h1.265v-8.14h-1.265v2.926c-.462-.572-1.298-.946-2.09-.946-1.606 0-2.87 1.232-2.87 3.102zm4.961.022c0 1.309-.89 2.046-1.837 2.046-.935 0-1.837-.759-1.837-2.068 0-1.309.902-2.013 1.837-2.013.946 0 1.837.737 1.837 2.035zm5.465-2.068c.934 0 1.671.594 1.694 1.529h-3.356c.133-.957.815-1.529 1.662-1.529zm2.838 3.3h-1.353c-.231.473-.66.847-1.43.847-.925 0-1.64-.605-1.728-1.606h4.632c.032-.209.043-.407.043-.616 0-1.782-1.22-2.981-2.947-2.981-1.794 0-3.026 1.221-3.026 3.124s1.288 3.135 3.026 3.135c1.484 0 2.441-.847 2.782-1.903zM90.502 325h1.243v-3.575c0-1.694-1.067-2.585-2.486-2.585-.726 0-1.397.297-1.804.792v-.693h-1.254V325h1.254v-3.388c0-1.111.605-1.683 1.529-1.683.913 0 1.518.572 1.518 1.683V325zm8.618-3.036c0-1.903-1.365-3.124-3.092-3.124s-3.09 1.221-3.09 3.124 1.308 3.135 3.035 3.135c1.739 0 3.147-1.232 3.147-3.135zm-4.907 0c0-1.375.848-2.035 1.794-2.035.934 0 1.825.66 1.825 2.035s-.923 2.046-1.858 2.046c-.947 0-1.76-.671-1.76-2.046zm7.323 3.036h1.32l1.221-4.477 1.221 4.477h1.32l1.881-6.061h-1.232l-1.254 4.851-1.232-4.851h-1.309l-1.287 4.873-1.265-4.873h-1.276l1.892 6.061zM17 267.42h14.265v4.342H21.95v3.025h8.418v4.117h-8.418v6.358H17V267.42z" fill="#fff"/><path fill-rule="evenodd" clip-rule="evenodd" d="M55.733 267.42h8.536c2.75 0 4.678.728 5.897 1.933 1.05 1.008 1.588 2.409 1.588 4.145v.056c0 2.717-1.474 4.538-3.714 5.49l4.31 6.218h-5.785l-3.63-5.406h-2.211v5.406h-5.019V267.42h.029zm8.308 8.571c1.702 0 2.694-.812 2.694-2.129v-.056c0-1.4-1.02-2.128-2.722-2.128h-3.29v4.285h3.318v.028z" fill="#fff"/><path d="M74.095 267.42h14.349v4.202H78.99v2.716h8.559v3.894h-8.56v2.829h9.566v4.201h-14.46V267.42zM96.303 276.187l-5.874-8.767h5.678l3.16 5.014 3.189-5.014h5.538l-5.845 8.711 6.125 9.131h-5.678l-3.412-5.378-3.44 5.378h-5.566l6.125-9.075zM113.113 276.803c0-2.045 1.566-3.753 3.804-3.753 1.454 0 2.433.644 3.048 1.596l-1.706 1.261c-.335-.476-.727-.756-1.314-.756-.812 0-1.399.7-1.399 1.568v.028c0 .924.587 1.625 1.427 1.625.587 0 .979-.28 1.37-.729l1.678 1.205c-.671.98-1.594 1.624-3.16 1.624-2.182.028-3.748-1.652-3.748-3.669" fill="#fff"/><path fill-rule="evenodd" clip-rule="evenodd" d="M121.519 276.803c0-2.045 1.673-3.753 3.998-3.753 2.297 0 3.97 1.68 3.97 3.697v.028c0 2.017-1.673 3.725-3.999 3.725-2.296 0-3.969-1.68-3.969-3.697m5.5 0c0-.896-.652-1.625-1.531-1.625-.907 0-1.503.729-1.503 1.569v.028c0 .868.653 1.597 1.532 1.597.935 0 1.502-.729 1.502-1.569" fill="#fff"/><path d="M130.835 273.19h2.49v.98c.447-.588 1.119-1.12 2.126-1.12.95 0 1.678.42 2.041 1.148.616-.7 1.343-1.148 2.378-1.148 1.51 0 2.433.952 2.433 2.605v4.677h-2.489v-3.893c0-.784-.392-1.176-.979-1.176-.588 0-1.035.42-1.035 1.176v3.865h-2.461v-3.865c0-.784-.392-1.176-.979-1.176-.588 0-1.007.42-1.007 1.176v3.865h-2.489v-7.114h-.029z" fill="#fff"/><path fill-rule="evenodd" clip-rule="evenodd" d="M51.395 276.299c0-.179-.003-.357-.01-.532h2.137l.567-1.625H51.21c-.79-4.444-4.096-7.142-9.088-7.142-5.615 0-9.244 3.697-9.244 9.411 0 5.77 3.516 9.327 9.244 9.299 4.668 0 7.981-2.538 8.966-6.694h1.95l.596-1.625H51.35c.03-.355.046-.719.046-1.092zm-9.159 6.834c-2.892 0-4.026-3.025-4.026-6.778 0-3.753.907-6.75 3.828-6.778 2.297 0 3.485 1.892 3.876 4.565h-2.487l-.567 1.625h3.194a20.965 20.965 0 01-.014 1.624h-3.067l-.595 1.625h3.498c-.393 2.435-1.451 4.117-3.64 4.117z" fill="#14964F"/><path d="M109.645 278.988c0-.364.14-.644.391-.925.252-.252.56-.392.923-.392.364 0 .672.14.923.392.252.253.392.561.392.925s-.14.672-.392.924c-.251.252-.559.364-.923.364-.363 0-.671-.112-.923-.364-.279-.224-.391-.532-.391-.924" fill="#fff"/><defs><linearGradient id="paint0_linear_23_1459" x1="80" y1="300" x2="80" y2="632" gradientUnits="userSpaceOnUse"><stop stop-color="#12225C"/><stop offset="1" stop-color="#0954B5"/></linearGradient></defs></svg>