<svg width="131" height="81" viewBox="0 0 131 81" fill="none" xmlns="http://www.w3.org/2000/svg"><path d="M.897 4.154h4.278V18h2.622V4.154h4.255V2.015H.897v2.139zm12.936 7.452c0 3.91 2.645 6.601 5.934 6.601 2.116 0 3.634-1.012 4.44-2.093V18h2.644V5.327h-2.645v1.84c-.782-1.035-2.254-2.047-4.393-2.047-3.335 0-5.98 2.576-5.98 6.486zm10.373.046c0 2.737-1.863 4.278-3.84 4.278-1.956 0-3.842-1.587-3.842-4.324s1.886-4.209 3.841-4.209c1.978 0 3.841 1.541 3.841 4.255zm8.711-4.462V5.327h-2.622v18.699h2.622V16.16a5.73 5.73 0 004.416 2.047c3.335 0 5.957-2.691 5.957-6.601S40.668 5.12 37.333 5.12c-2.07 0-3.61 1.012-4.416 2.07zm7.705 4.416c0 2.737-1.886 4.324-3.864 4.324-1.955 0-3.84-1.541-3.84-4.278 0-2.714 1.885-4.255 3.84-4.255 1.978 0 3.864 1.472 3.864 4.209zM51.858 18h2.622V5.327h-2.622V18zm1.334-14.352c.92 0 1.656-.736 1.656-1.679 0-.943-.736-1.679-1.656-1.679a1.66 1.66 0 00-1.68 1.679 1.66 1.66 0 001.68 1.679zM66.915 18h2.6v-7.475c0-3.542-2.232-5.405-5.199-5.405-1.518 0-2.92.621-3.772 1.656V5.327h-2.622V18h2.622v-7.084c0-2.323 1.265-3.519 3.197-3.519 1.91 0 3.174 1.196 3.174 3.519V18zm6.358-3.519c0 2.576 1.403 3.519 3.657 3.519H79v-2.185h-1.61c-1.104 0-1.472-.391-1.472-1.334V7.466H79V5.327h-3.082V2.176h-2.645v3.151h-1.495v2.139h1.495v7.015zm20.218-2.829c0-3.979-2.852-6.532-6.463-6.532-3.61 0-6.463 2.553-6.463 6.532s2.737 6.555 6.348 6.555c3.634 0 6.578-2.576 6.578-6.555zm-10.258 0c0-2.875 1.771-4.255 3.75-4.255 1.954 0 3.817 1.38 3.817 4.255s-1.932 4.278-3.887 4.278c-1.978 0-3.68-1.403-3.68-4.278zM2.14 42.481C2.139 45.057 3.542 46 5.796 46h2.07v-2.185h-1.61c-1.104 0-1.472-.391-1.472-1.334v-7.015h3.082v-2.139H4.784v-3.151H2.139v3.151H.644v2.139h1.495v7.015zm13.48-7.153c1.955 0 3.496 1.242 3.542 3.197h-7.015c.276-2.001 1.702-3.197 3.473-3.197zm5.934 6.9h-2.83c-.482.989-1.38 1.771-2.99 1.771-1.931 0-3.426-1.265-3.61-3.358h9.683c.069-.437.092-.851.092-1.288 0-3.726-2.553-6.233-6.164-6.233-3.75 0-6.325 2.553-6.325 6.532s2.69 6.555 6.325 6.555c3.105 0 5.106-1.771 5.819-3.979zm2.05-2.576c0 3.979 2.577 6.555 6.21 6.555 3.106 0 5.13-1.725 5.843-4.209h-2.83c-.482 1.311-1.448 2.001-3.012 2.001-2.116 0-3.52-1.564-3.52-4.347 0-2.76 1.404-4.324 3.52-4.324 1.564 0 2.576.782 3.013 2.001h2.829c-.713-2.668-2.737-4.209-5.842-4.209-3.634 0-6.21 2.576-6.21 6.532zM38.27 46h2.622v-7.084c0-2.323 1.265-3.519 3.197-3.519 1.909 0 3.174 1.196 3.174 3.519V46h2.599v-7.475c0-3.542-2.208-5.405-5.037-5.405-1.633 0-3.06.621-3.933 1.679V28.98h-2.622V46zm30.364-3.542c-.138-4.577-7.29-3.151-7.29-5.704 0-.851.735-1.426 2.138-1.426 1.426 0 2.277.759 2.37 1.863h2.621c-.138-2.53-2.024-4.071-4.899-4.071-2.99 0-4.876 1.633-4.876 3.657 0 4.646 7.36 3.22 7.36 5.704 0 .874-.805 1.518-2.323 1.518-1.449 0-2.438-.851-2.53-1.886H58.49c.115 2.3 2.254 4.094 5.29 4.094 2.99 0 4.853-1.61 4.853-3.749zm3.247.023c0 2.576 1.403 3.519 3.657 3.519h2.07v-2.185h-1.61c-1.104 0-1.472-.391-1.472-1.334v-7.015h3.082v-2.139h-3.082v-3.151H71.88v3.151h-1.495v2.139h1.495v7.015zM92.1 39.652c0-3.979-2.852-6.532-6.463-6.532s-6.463 2.553-6.463 6.532 2.737 6.555 6.348 6.555c3.634 0 6.578-2.576 6.578-6.555zm-10.258 0c0-2.875 1.77-4.255 3.749-4.255 1.955 0 3.818 1.38 3.818 4.255s-1.932 4.278-3.887 4.278c-1.978 0-3.68-1.403-3.68-4.278zm11.976 0c0 3.979 2.576 6.555 6.21 6.555 3.105 0 5.129-1.725 5.842-4.209h-2.829c-.483 1.311-1.449 2.001-3.013 2.001-2.116 0-3.52-1.564-3.52-4.347 0-2.76 1.404-4.324 3.52-4.324 1.564 0 2.576.782 3.013 2.001h2.829c-.713-2.668-2.737-4.209-5.842-4.209-3.634 0-6.21 2.576-6.21 6.532zM108.482 46h2.622v-5.451L115.796 46h3.542l-5.842-6.325 5.842-6.348h-3.634l-4.6 5.543v-9.89h-2.622V46zm22.188-3.542c-.138-4.577-7.291-3.151-7.291-5.704 0-.851.736-1.426 2.139-1.426 1.426 0 2.277.759 2.369 1.863h2.622c-.138-2.53-2.024-4.071-4.899-4.071-2.99 0-4.876 1.633-4.876 3.657 0 4.646 7.36 3.22 7.36 5.704 0 .874-.805 1.518-2.323 1.518-1.449 0-2.438-.851-2.53-1.886h-2.714c.115 2.3 2.254 4.094 5.29 4.094 2.99 0 4.853-1.61 4.853-3.749zM2.047 74h2.645V63.466h2.346v-2.139H4.692v-.897c0-1.449.552-2.001 2.162-2.001v-2.185c-3.312 0-4.807 1.265-4.807 4.186v.897H.552v2.139h1.495V74zm9.937-6.67c0-2.691 1.196-3.496 3.128-3.496h.667V61.12c-1.794 0-3.06.782-3.795 2.047v-1.84H9.362V74h2.622v-6.67zm18.28.322c0-3.979-2.852-6.532-6.463-6.532s-6.463 2.553-6.463 6.532 2.737 6.555 6.348 6.555c3.634 0 6.578-2.576 6.578-6.555zm-10.258 0c0-2.875 1.77-4.255 3.749-4.255 1.955 0 3.818 1.38 3.818 4.255s-1.932 4.278-3.887 4.278c-1.978 0-3.68-1.403-3.68-4.278zM50.819 74h2.599v-7.475c0-3.542-2.254-5.405-5.221-5.405-1.84 0-3.634.966-4.416 2.507-.874-1.656-2.553-2.507-4.554-2.507-1.518 0-2.898.621-3.75 1.656v-1.449h-2.621V74h2.622v-7.084c0-2.323 1.265-3.519 3.197-3.519 1.909 0 3.174 1.196 3.174 3.519V74h2.599v-7.084c0-2.323 1.265-3.519 3.197-3.519 1.909 0 3.174 1.196 3.174 3.519V74zm11.519-12.627h2.553c.16-1.173 1.012-2.277 2.852-2.277 1.794 0 2.737.966 2.737 2.415 0 1.794-1.45 2.484-3.818 2.507h-.621v2.162h.598c2.737 0 4.163.759 4.163 2.967 0 1.564-.966 2.76-2.921 2.76-1.978 0-3.128-1.196-3.243-2.76h-2.53c.16 3.289 2.622 4.945 5.796 4.945 3.496 0 5.382-2.024 5.382-4.692 0-2.323-1.127-3.772-2.875-4.301v-.092c1.31-.437 2.576-1.794 2.576-3.795 0-2.438-1.817-4.37-5.152-4.37-3.06 0-5.313 1.633-5.497 4.531zm22.644 1.817v-1.863H82.36v18.699h2.622V72.16a5.73 5.73 0 004.416 2.047c3.335 0 5.957-2.691 5.957-6.601s-2.622-6.486-5.957-6.486c-2.07 0-3.611 1.012-4.416 2.07zm7.705 4.416c0 2.737-1.886 4.324-3.864 4.324-1.955 0-3.841-1.541-3.841-4.278 0-2.714 1.886-4.255 3.84-4.255 1.979 0 3.865 1.472 3.865 4.209zm5.675 2.875c0 2.576 1.403 3.519 3.657 3.519h2.07v-2.185h-1.61c-1.104 0-1.472-.391-1.472-1.334v-7.015h3.082v-2.139h-3.082v-3.151h-2.645v3.151h-1.495v2.139h1.495v7.015zm17.596-.023c-.138-4.577-7.291-3.151-7.291-5.704 0-.851.736-1.426 2.139-1.426 1.426 0 2.277.759 2.369 1.863h2.622c-.138-2.53-2.024-4.071-4.899-4.071-2.99 0-4.876 1.633-4.876 3.657 0 4.646 7.36 3.22 7.36 5.704 0 .874-.805 1.518-2.323 1.518-1.449 0-2.438-.851-2.53-1.886h-2.714c.115 2.3 2.254 4.094 5.29 4.094 2.99 0 4.853-1.61 4.853-3.749z" fill="#fff"/></svg>