<svg width="108" height="14" viewBox="0 0 108 14" fill="none" xmlns="http://www.w3.org/2000/svg"><path d="M1.987 7.384c-.376 0-.7-.132-.972-.396a1.341 1.341 0 01-.408-.984c0-.392.136-.72.408-.984.272-.272.596-.408.972-.408.392 0 .72.136.984.408.272.264.408.592.408.984 0 .384-.136.712-.408.984a1.336 1.336 0 01-.984.396zm13.741 2.7c-.776 0-1.48-.18-2.112-.54a4.035 4.035 0 01-1.5-1.524c-.36-.656-.54-1.396-.54-2.22 0-.824.18-1.56.54-2.208a3.925 3.925 0 011.5-1.524 4.12 4.12 0 012.112-.552c.784 0 1.492.184 2.124.552.632.36 1.128.868 1.488 1.524.36.648.54 1.384.54 2.208 0 .824-.18 1.564-.54 2.22a3.948 3.948 0 01-1.488 1.524c-.632.36-1.34.54-2.124.54zm0-.732c.624 0 1.184-.144 1.68-.432.496-.288.888-.7 1.176-1.236.288-.544.432-1.172.432-1.884s-.144-1.336-.432-1.872a3.076 3.076 0 00-1.176-1.236 3.284 3.284 0 00-1.68-.432c-.624 0-1.184.144-1.68.432-.496.288-.888.7-1.176 1.236-.288.536-.432 1.16-.432 1.872 0 .712.144 1.34.432 1.884.288.536.68.948 1.176 1.236a3.284 3.284 0 001.68.432zm8.761-6.024c.784 0 1.424.244 1.92.732.496.48.744 1.18.744 2.1V10h-.828V6.256c0-.712-.18-1.256-.54-1.632-.352-.376-.836-.564-1.452-.564-.632 0-1.136.2-1.512.6-.376.4-.564.988-.564 1.764V10h-.84V3.448h.84v1.116c.208-.4.508-.704.9-.912a2.714 2.714 0 011.332-.324zm10.45 3.06c0 .288-.008.508-.024.66h-5.436c.024.496.144.92.36 1.272s.5.62.852.804a2.54 2.54 0 001.152.264c.544 0 1-.132 1.368-.396a1.85 1.85 0 00.744-1.068h.888a2.792 2.792 0 01-1.032 1.572c-.52.4-1.176.6-1.968.6a3.343 3.343 0 01-1.656-.408 3.016 3.016 0 01-1.152-1.176c-.272-.512-.408-1.108-.408-1.788 0-.68.136-1.276.408-1.788a2.836 2.836 0 011.14-1.176c.488-.272 1.044-.408 1.668-.408.624 0 1.168.136 1.632.408.472.272.832.64 1.08 1.104.256.456.384.964.384 1.524zm-.852-.024c.008-.488-.092-.904-.3-1.248a1.947 1.947 0 00-.828-.78 2.54 2.54 0 00-1.152-.264c-.624 0-1.156.2-1.596.6-.44.4-.684.964-.732 1.692h4.608zM40.544 5.2v.708h-4.668V5.2h4.668zm3.246-1.044v4.068c0 .4.076.676.228.828.152.152.42.228.804.228h.768V10h-.9c-.592 0-1.032-.136-1.32-.408-.288-.28-.432-.736-.432-1.368V4.156h-.912v-.708h.912V1.804h.852v1.644h1.8v.708h-1.8zm2.802 2.556c0-.672.132-1.26.396-1.764a2.881 2.881 0 011.116-1.176c.48-.28 1.02-.42 1.62-.42.624 0 1.16.144 1.608.432.456.288.784.656.984 1.104v-1.44h.84V10h-.84V8.548c-.208.448-.54.82-.996 1.116-.448.288-.984.432-1.608.432-.592 0-1.128-.14-1.608-.42a2.964 2.964 0 01-1.116-1.188c-.264-.512-.396-1.104-.396-1.776zm5.724.012c0-.528-.108-.992-.324-1.392a2.3 2.3 0 00-.888-.924 2.373 2.373 0 00-1.224-.324c-.464 0-.88.104-1.248.312-.368.208-.66.512-.876.912-.208.392-.312.86-.312 1.404 0 .536.104 1.008.312 1.416.216.4.508.708.876.924.368.208.784.312 1.248.312.448 0 .856-.108 1.224-.324a2.3 2.3 0 00.888-.924c.216-.4.324-.864.324-1.392zM55.9 4.888c.208-.44.536-.804.984-1.092.456-.296.996-.444 1.62-.444.592 0 1.124.14 1.596.42.48.272.852.664 1.116 1.176.272.504.408 1.092.408 1.764 0 .672-.136 1.264-.408 1.776a2.86 2.86 0 01-1.116 1.188c-.472.28-1.004.42-1.596.42-.616 0-1.152-.144-1.608-.432-.456-.296-.788-.664-.996-1.104v4.536h-.828V3.448h.828v1.44zm4.872 1.824c0-.544-.108-1.012-.324-1.404a2.166 2.166 0 00-.864-.912 2.492 2.492 0 00-1.248-.312c-.448 0-.86.108-1.236.324-.368.216-.66.524-.876.924-.216.4-.324.864-.324 1.392 0 .528.108.992.324 1.392.216.4.508.708.876.924.376.216.788.324 1.236.324.464 0 .88-.104 1.248-.312.368-.216.656-.524.864-.924.216-.408.324-.88.324-1.416zm6.783-2.556v4.068c0 .4.076.676.228.828.152.152.42.228.804.228h.768V10h-.9c-.592 0-1.032-.136-1.32-.408-.288-.28-.432-.736-.432-1.368V4.156h-.912v-.708h.912V1.804h.852v1.644h1.8v.708h-1.8zm4.025.456c.184-.408.464-.724.84-.948.384-.224.852-.336 1.404-.336v.876h-.228c-.608 0-1.096.164-1.464.492-.368.328-.552.876-.552 1.644V10h-.84V3.448h.84v1.164zm3.124 2.1c0-.672.132-1.26.396-1.764a2.881 2.881 0 011.116-1.176c.48-.28 1.02-.42 1.62-.42.624 0 1.16.144 1.608.432.456.288.784.656.984 1.104v-1.44h.84V10h-.84V8.548c-.208.448-.54.82-.996 1.116-.448.288-.984.432-1.608.432-.592 0-1.128-.14-1.608-.42A2.964 2.964 0 0175.1 8.488c-.264-.512-.396-1.104-.396-1.776zm5.724.012c0-.528-.108-.992-.324-1.392a2.3 2.3 0 00-.888-.924 2.373 2.373 0 00-1.224-.324c-.464 0-.88.104-1.248.312-.368.208-.66.512-.876.912-.208.392-.312.86-.312 1.404 0 .536.104 1.008.312 1.416.216.4.508.708.876.924.368.208.784.312 1.248.312.448 0 .856-.108 1.224-.324a2.3 2.3 0 00.888-.924c.216-.4.324-.864.324-1.392zm2.374-.012c0-.672.136-1.26.408-1.764a2.881 2.881 0 011.116-1.176c.48-.28 1.02-.42 1.62-.42.576 0 1.096.14 1.56.42.464.28.804.644 1.02 1.092V1.12h.84V10h-.84V8.536a2.56 2.56 0 01-.984 1.128c-.456.288-.992.432-1.608.432-.6 0-1.14-.14-1.62-.42a2.964 2.964 0 01-1.116-1.188c-.264-.512-.396-1.104-.396-1.776zm5.724.012c0-.528-.108-.992-.324-1.392a2.3 2.3 0 00-.888-.924 2.373 2.373 0 00-1.224-.324c-.464 0-.88.104-1.248.312-.368.208-.66.512-.876.912-.208.392-.312.86-.312 1.404 0 .536.104 1.008.312 1.416.216.4.508.708.876.924.368.208.784.312 1.248.312.448 0 .856-.108 1.224-.324a2.3 2.3 0 00.888-.924c.216-.4.324-.864.324-1.392zm3.177-4.512a.59.59 0 01-.432-.18.603.603 0 01-.18-.444c0-.176.06-.32.18-.432a.59.59 0 01.432-.18.59.59 0 01.432.18c.12.112.18.256.18.432s-.06.324-.18.444a.59.59 0 01-.432.18zm.42 1.236V10h-.84V3.448h.84zm4.974-.12c.784 0 1.424.244 1.92.732.496.48.744 1.18.744 2.1V10h-.828V6.256c0-.712-.18-1.256-.54-1.632-.352-.376-.836-.564-1.452-.564-.632 0-1.136.2-1.512.6-.376.4-.564.988-.564 1.764V10h-.84V3.448h.84v1.116c.208-.4.508-.704.9-.912a2.714 2.714 0 011.332-.324zm7.27.024c.616 0 1.152.144 1.608.432.456.288.784.652.984 1.092V3.448h.84v6.72c0 .6-.132 1.132-.396 1.596a2.62 2.62 0 01-1.08 1.068c-.464.256-.992.384-1.584.384-.84 0-1.54-.2-2.1-.6a2.553 2.553 0 01-1.032-1.632h.828c.144.456.416.82.816 1.092.408.272.904.408 1.488.408.424 0 .804-.092 1.14-.276.336-.176.6-.44.792-.792.192-.352.288-.768.288-1.248v-1.62c-.208.448-.54.82-.996 1.116-.448.288-.98.432-1.596.432-.6 0-1.14-.14-1.62-.42a2.964 2.964 0 01-1.116-1.188c-.264-.512-.396-1.104-.396-1.776 0-.672.132-1.26.396-1.764a2.881 2.881 0 011.116-1.176c.48-.28 1.02-.42 1.62-.42zm2.592 3.372c0-.528-.108-.992-.324-1.392a2.3 2.3 0 00-.888-.924 2.373 2.373 0 00-1.224-.324c-.464 0-.88.104-1.248.312-.368.208-.66.512-.876.912-.208.392-.312.86-.312 1.404 0 .536.104 1.008.312 1.416.216.4.508.708.876.924.368.208.784.312 1.248.312.448 0 .856-.108 1.224-.324a2.3 2.3 0 00.888-.924c.216-.4.324-.864.324-1.392z" fill="#fff"/></svg>