<svg width="113" height="17" viewBox="0 0 113 17" fill="none" xmlns="http://www.w3.org/2000/svg"><path d="M14.355 1.2H10.21v8.314c0 2.457-1.119 3.488-2.917 3.488-1.777 0-2.896-1.031-2.918-3.488V1.222H.25v8.292c0 5.023 2.72 7.26 7.042 7.26 4.321 0 7.063-2.237 7.063-7.26V1.2zm9.263-.22c-3.575.023-6.383 1.58-6.383 5.024 0 3.005 2.5 3.817 5.988 4.65 2.523.637 2.962.725 2.962 1.602 0 .702-.746 1.009-1.601 1.009-1.953 0-4.168-.57-6.165-1.69l-1.842 3.072c2.106 1.404 4.694 2.15 7.546 2.15 3.948 0 6.427-1.799 6.427-5.068 0-3.136-2.566-4.014-6.164-4.98-2.391-.591-2.676-.789-2.676-1.271 0-.702.68-1.01 1.47-1.01 1.513 0 3.575.527 5.33 1.426l1.733-3.18C28.444 1.617 26.075.98 23.618.98zm9.3.242v15.333H39.5c4.54 0 8.226-3.312 8.226-7.655 0-4.366-3.685-7.7-8.226-7.7l-6.581.022zm4.125 3.685h2.303c2.282 0 4.146 1.711 4.146 3.97 0 2.282-1.864 3.993-4.146 3.993h-2.303V4.907zm15.746 12.021l7.678-16.1-3.422.021-7.678 16.08h3.422zM70.181 1.003c-4.475 0-8.095 3.531-8.095 7.897 0 4.343 3.62 7.875 8.095 7.875 2.742 0 5.155-1.316 6.603-3.356L73.208 11.4a3.667 3.667 0 01-3.005 1.514c-2.238 0-3.795-1.799-3.795-4.014 0-2.238 1.557-4.037 3.795-4.037 1.272 0 2.325.593 3.005 1.514l3.576-2.018c-1.448-2.04-3.861-3.356-6.603-3.356zm25.165 15.552L89.226 1.2h-5.419l-6.054 15.355h4.936l.987-2.676h5.747l.987 2.676h4.936zM84.75 10.59l1.776-4.782 1.777 4.782h-3.553zm12.67-9.367v15.333h6.581c4.541 0 8.226-3.312 8.226-7.655 0-4.366-3.685-7.7-8.226-7.7l-6.58.022zm4.124 3.685h2.304c2.281 0 4.146 1.711 4.146 3.97 0 2.282-1.865 3.993-4.146 3.993h-2.304V4.907z" fill="#09B45B"/></svg>