<svg width="223" height="18" viewBox="0 0 223 18" fill="none" xmlns="http://www.w3.org/2000/svg"><path d="M7.884.489C3.972.513.9 2.217.9 5.985c0 3.288 2.736 4.176 6.552 5.088 2.76.696 3.24.792 3.24 1.752 0 .768-.816 1.104-1.752 1.104-2.136 0-4.56-.624-6.744-1.848L.18 15.441c2.304 1.536 5.136 2.352 8.256 2.352 4.32 0 7.032-1.968 7.032-5.544 0-3.432-2.808-4.392-6.744-5.448-2.616-.648-2.928-.864-2.928-1.392 0-.768.744-1.104 1.608-1.104 1.656 0 3.912.576 5.832 1.56l1.896-3.48c-1.968-1.2-4.56-1.896-7.248-1.896zm18.72.024c-4.968 0-9 3.864-9 8.64 0 4.752 4.032 8.616 9 8.616s9-3.864 9-8.616c0-4.776-4.032-8.64-9-8.64zm0 4.224c2.52 0 4.296 1.968 4.296 4.416 0 2.424-1.776 4.392-4.296 4.392-2.52 0-4.273-1.968-4.273-4.392 0-2.448 1.753-4.416 4.273-4.416zM46.99.513c-4.896 0-8.856 3.864-8.856 8.64 0 4.752 3.96 8.616 8.856 8.616 3 0 5.64-1.44 7.224-3.672l-3.912-2.208a4.012 4.012 0 01-3.288 1.656c-2.448 0-4.152-1.968-4.152-4.392 0-2.448 1.704-4.416 4.152-4.416 1.392 0 2.544.648 3.288 1.656l3.912-2.208C52.63 1.953 49.99.513 46.99.513zm14.323 17.016V.753h-4.512v16.776h4.512zm21.553 0L76.171.729h-5.928l-6.624 16.8h5.4l1.08-2.928h6.288l1.08 2.928h5.4zm-11.592-6.528l1.944-5.232 1.944 5.232h-3.888zm18.375 2.472V.729h-4.512v16.8h12.744v-4.056H89.65zm29.663-8.88V.729h-14.28v3.864h4.872v12.936h4.536V4.593h4.872zm2.27-3.84v16.776h4.512v-5.112H128.783l3.264 5.112h5.208l-3.768-5.712c2.328-.792 3.312-2.496 3.312-5.232 0-4.104-2.184-5.832-7.656-5.832h-7.56zm4.512 4.056h3.264c1.992 0 2.736.624 2.736 2.064 0 1.464-.744 2.064-2.736 2.064h-3.264V4.809zm31.561 12.72L150.96.729h-5.928l-6.624 16.8h5.4l1.08-2.928h6.288l1.08 2.928h5.4zm-11.592-6.528l1.944-5.232 1.944 5.232h-3.888zM159.927.753v16.776h7.2c4.968 0 9-3.624 9-8.376 0-4.776-4.032-8.424-9-8.424l-7.2.024zm4.512 4.032h2.52c2.496 0 4.536 1.872 4.536 4.344 0 2.496-2.04 4.368-4.536 4.368h-2.52V4.785zm19.172 12.744V.753h-4.512v16.776h4.512zm19.177 0V.729h-4.44v9.384L191.58.729h-4.68v16.8h4.44v-9.36l6.768 9.36h4.68zM214.907.489c-4.776-.024-9.288 3.12-9.288 8.664 0 4.752 4.032 8.616 9 8.616 2.832 0 5.448-.936 7.464-2.544V7.881h-7.176v3.216h2.88v1.608a6.233 6.233 0 01-3.168.84c-2.52 0-4.272-1.968-4.272-4.392 0-2.808 2.136-4.488 4.56-4.488 1.296 0 2.616.456 3.672 1.368l2.952-3.096c-1.872-1.608-4.248-2.424-6.624-2.448z" fill="#09B45B"/></svg>