<svg width="221" height="15" viewBox="0 0 221 15" fill="none" xmlns="http://www.w3.org/2000/svg"><path d="M2.84 4.992l-.936.432.024-1.032h-.456l.016 1.024-.928-.424-.184.448.976.36-.672.792.344.32.664-.84.672.84.352-.32-.664-.784.976-.36-.184-.456zm.742.048h1.816V10h.696V5.04H7.91V4.4H3.582v.64zm9.488 4.376c-.208 0-.352-.04-.512-.224l-.312-.352 1.24-1.864h-.696l-.944 1.416-1.12-1.248c1.024-.4 1.36-.952 1.36-1.568 0-.696-.56-1.224-1.32-1.224-.896 0-1.576.576-1.576 1.344 0 .48.144.8.552 1.296-.928.392-1.256 1.016-1.256 1.6 0 .952.776 1.456 1.76 1.456.6 0 1.12-.24 1.576-.712l.32.36c.208.24.504.304.848.304h.608v-.584h-.528zm-2.352-4.512c.424 0 .704.288.704.688 0 .472-.328.864-1.048 1.152-.368-.432-.504-.672-.504-1.072 0-.448.336-.768.848-.768zm-.456 4.56c-.648 0-1.104-.344-1.104-.936 0-.504.24-.808.92-1.136.024.016.04.04.056.056l1.304 1.456c-.344.368-.728.56-1.176.56zm6.698.584c1.264 0 2.192-.72 2.4-1.88h-.736c-.208.784-.808 1.24-1.672 1.24-1.176 0-1.896-.92-1.896-2.208 0-1.296.752-2.208 1.928-2.208.84 0 1.432.464 1.648 1.24h.736c-.208-1.16-1.112-1.88-2.352-1.88-1.624 0-2.672 1.152-2.672 2.848 0 1.712 1.008 2.848 2.616 2.848zm2.976-1.392c.016.896.744 1.392 1.8 1.392.904 0 1.632-.472 1.632-1.232 0-.904-.744-1.08-1.672-1.192-.592-.072-1.024-.128-1.024-.576 0-.376.384-.616.952-.616.56 0 .944.312.992.728h.672c-.064-.848-.736-1.28-1.664-1.288-.92-.008-1.6.48-1.6 1.224 0 .848.728 1.032 1.64 1.144.608.072 1.056.112 1.056.624 0 .376-.408.624-.984.624-.68 0-1.104-.352-1.128-.832h-.672zm9.862.744c-.184 0-.264-.056-.264-.272V7.344c0-.952-.6-1.472-1.64-1.472-.984 0-1.632.472-1.728 1.272h.656c.08-.416.464-.688 1.04-.688.64 0 1.016.32 1.016.848v.28h-1.2c-1.072 0-1.64.456-1.64 1.272 0 .744.608 1.192 1.504 1.192.704 0 1.112-.312 1.368-.68.008.4.192.632.736.632h.36v-.6h-.208zm-.92-1.064c0 .68-.472 1.152-1.288 1.152-.544 0-.888-.272-.888-.672 0-.464.328-.68.912-.68h1.264v.2zm3.688-2.464a1.65 1.65 0 00-1.4.704l-.088-.656h-.567v5.68h.655V9.376c.248.392.712.672 1.4.672 1.128 0 1.96-.84 1.96-2.088 0-1.328-.832-2.088-1.96-2.088zm-.064 3.592c-.8 0-1.344-.624-1.344-1.52 0-.872.544-1.488 1.344-1.488.808 0 1.352.616 1.352 1.504s-.544 1.504-1.352 1.504zm4.83-3.592a1.65 1.65 0 00-1.4.704l-.088-.656h-.568v5.68h.656V9.376c.248.392.712.672 1.4.672 1.128 0 1.96-.84 1.96-2.088 0-1.328-.832-2.088-1.96-2.088zm-.064 3.592c-.8 0-1.344-.624-1.344-1.52 0-.872.544-1.488 1.344-1.488.808 0 1.352.616 1.352 1.504s-.544 1.504-1.352 1.504zm2.774.536h.656V4.4h-.656V10zm2.738.024l-.2.496c-.152.384-.216.48-.592.48h-.584v.6h.784c.576 0 .728-.256.984-.912l1.88-4.768h-.696L43.14 9.176 41.884 5.92h-.696l1.592 4.104zM45.08 9.6c0 .272.192.448.456.448s.456-.176.456-.448-.192-.448-.456-.448-.456.176-.456.448zm3.918.4h.696V7.848h1.408L52.285 10h.784l-1.256-2.288c.72-.2 1.192-.808 1.192-1.592 0-1.048-.744-1.72-1.864-1.72h-2.144V10zm2.096-4.96c.728 0 1.2.424 1.2 1.08 0 .656-.472 1.088-1.208 1.088h-1.392V5.04h1.4zm3.035.192c.24 0 .424-.176.424-.424a.412.412 0 00-.424-.424.412.412 0 00-.424.424c0 .248.184.424.424.424zM53.792 10h.656V5.92h-.656V10zm1.386-1.344c.016.896.744 1.392 1.8 1.392.904 0 1.632-.472 1.632-1.232 0-.904-.744-1.08-1.672-1.192-.592-.072-1.024-.128-1.024-.576 0-.376.384-.616.952-.616.56 0 .944.312.992.728h.672c-.064-.848-.736-1.28-1.664-1.288-.92-.008-1.6.48-1.6 1.224 0 .848.728 1.032 1.64 1.144.608.072 1.056.112 1.056.624 0 .376-.408.624-.984.624-.68 0-1.104-.352-1.128-.832h-.672zM59.338 10h.657V8.928l.824-.848L62.17 10h.792l-1.704-2.392L62.85 5.92h-.808l-2.048 2.168V4.4h-.656V10zm8.06.048c1.192 0 2.024-.848 2.024-2.088 0-1.24-.832-2.088-2.024-2.088-1.192 0-2.024.848-2.024 2.088 0 1.24.832 2.088 2.024 2.088zm0-.584c-.808 0-1.352-.632-1.352-1.504s.544-1.504 1.352-1.504 1.352.632 1.352 1.504-.544 1.504-1.352 1.504zm2.298-2.944h.736V10h.656V6.52h1.152v-.6h-1.152v-.472c0-.312.12-.448.448-.448h.704v-.6h-.744c-.76 0-1.064.344-1.064 1.064v.456h-.736v.6zM74.807 10h.656V4.4h-.656V10zm3.435.048c1.192 0 2.024-.848 2.024-2.088 0-1.24-.832-2.088-2.024-2.088-1.192 0-2.024.848-2.024 2.088 0 1.24.832 2.088 2.024 2.088zm0-.584c-.808 0-1.352-.632-1.352-1.504s.544-1.504 1.352-1.504 1.352.632 1.352 1.504-.544 1.504-1.352 1.504zm2.593-.808c.016.896.744 1.392 1.8 1.392.904 0 1.632-.472 1.632-1.232 0-.904-.744-1.08-1.672-1.192-.592-.072-1.024-.128-1.024-.576 0-.376.384-.616.952-.616.56 0 .944.312.992.728h.672c-.064-.848-.736-1.28-1.664-1.288-.92-.008-1.6.48-1.6 1.224 0 .848.728 1.032 1.64 1.144.608.072 1.056.112 1.056.624 0 .376-.408.624-.984.624-.68 0-1.104-.352-1.128-.832h-.672zm3.914 0c.016.896.744 1.392 1.8 1.392.904 0 1.632-.472 1.632-1.232 0-.904-.744-1.08-1.672-1.192-.592-.072-1.024-.128-1.024-.576 0-.376.384-.616.952-.616.56 0 .944.312.992.728h.672c-.064-.848-.736-1.28-1.664-1.288-.92-.008-1.6.48-1.6 1.224 0 .848.728 1.032 1.64 1.144.608.072 1.056.112 1.056.624 0 .376-.408.624-.984.624-.68 0-1.104-.352-1.128-.832h-.672zm8.134 1.392c1.192 0 2.024-.848 2.024-2.088 0-1.24-.832-2.088-2.024-2.088-1.192 0-2.024.848-2.024 2.088 0 1.24.832 2.088 2.024 2.088zm0-.584c-.808 0-1.352-.632-1.352-1.504s.544-1.504 1.352-1.504 1.352.632 1.352 1.504-.544 1.504-1.352 1.504zM95.18 6.52h.736V10h.656V6.52h1.152v-.6h-1.152v-.472c0-.312.12-.448.448-.448h.704v-.6h-.744c-.76 0-1.064.344-1.064 1.064v.456h-.736v.6zm5.448-1.288c.24 0 .424-.176.424-.424a.412.412 0 00-.424-.424.412.412 0 00-.424.424c0 .248.184.424.424.424zM100.292 10h.656V5.92h-.656V10zm3.554-4.128c-.688 0-1.104.288-1.344.6l-.088-.552h-.568V10h.656V7.96c0-.92.464-1.488 1.232-1.488.712 0 1.104.448 1.104 1.296V10h.656V7.728c0-1.352-.728-1.856-1.648-1.856zM107.302 10h.792l1.528-4.08h-.688l-1.224 3.336-1.232-3.336h-.704l1.528 4.08zm4.51.048c.944 0 1.616-.6 1.776-1.416h-.664c-.136.528-.584.832-1.16.832-.776 0-1.264-.544-1.288-1.32v-.056h3.168c.008-.096.016-.192.016-.28-.032-1.208-.784-1.936-1.936-1.936s-1.936.848-1.936 2.088c0 1.248.8 2.088 2.024 2.088zm-1.296-2.504a1.208 1.208 0 011.216-1.096c.68 0 1.16.392 1.224 1.096h-2.44zm3.709 1.112c.016.896.744 1.392 1.8 1.392.904 0 1.632-.472 1.632-1.232 0-.904-.744-1.08-1.672-1.192-.592-.072-1.024-.128-1.024-.576 0-.376.384-.616.952-.616.56 0 .944.312.992.728h.672c-.064-.848-.736-1.28-1.664-1.288-.92-.008-1.6.48-1.6 1.224 0 .848.728 1.032 1.64 1.144.608.072 1.056.112 1.056.624 0 .376-.408.624-.984.624-.68 0-1.104-.352-1.128-.832h-.672zm4.465.28c0 .72.28 1.064 1.064 1.064h.712v-.6h-.648c-.352 0-.472-.128-.472-.472V6.52h1.056v-.6h-1.056V4.776h-.656V5.92h-.736v.6h.736v2.416zm6.896-3.064c-.728 0-1.168.336-1.416.776-.232-.52-.72-.776-1.288-.776-.632 0-.976.312-1.192.608l-.088-.56h-.568V10h.656V7.848c0-.816.408-1.376 1.08-1.376.624 0 .984.416.984 1.216V10h.656V7.816c0-.832.416-1.344 1.096-1.344.616 0 .968.416.968 1.216V10h.656V7.648c0-1.288-.696-1.776-1.544-1.776zm4.219 4.176c.944 0 1.616-.6 1.776-1.416h-.664c-.136.528-.584.832-1.16.832-.776 0-1.264-.544-1.288-1.32v-.056h3.168c.008-.096.016-.192.016-.28-.032-1.208-.784-1.936-1.936-1.936s-1.936.848-1.936 2.088c0 1.248.8 2.088 2.024 2.088zm-1.296-2.504a1.208 1.208 0 011.216-1.096c.68 0 1.16.392 1.224 1.096h-2.44zm5.892-1.672c-.688 0-1.104.288-1.344.6l-.088-.552h-.568V10h.656V7.96c0-.92.464-1.488 1.232-1.488.712 0 1.104.448 1.104 1.296V10h.656V7.728c0-1.352-.728-1.856-1.648-1.856zm2.789 3.064c0 .72.28 1.064 1.064 1.064h.712v-.6h-.648c-.352 0-.472-.128-.472-.472V6.52h1.056v-.6h-1.056V4.776h-.656V5.92h-.736v.6h.736v2.416zm2.295.664c0 .272.192.448.456.448s.456-.176.456-.448-.192-.448-.456-.448-.456.176-.456.448z" fill="#000"/></svg>