<svg width="109" height="27" viewBox="0 0 109 27" fill="none" xmlns="http://www.w3.org/2000/svg"><path d="M1.651 9.5l.845-2.249h3.731L7.085 9.5h1.599L5.291.4H3.51L.104 9.5h1.547zm2.704-7.488l1.456 3.965H2.912l1.443-3.965zM12.943 9.5h1.495V7.095l1.573-1.768 2.86 4.173h1.807L17.09 4.222 20.431.4h-1.82l-4.173 4.693V.4h-1.495v9.1zm11.924-6.734c-1.079 0-1.716.429-2.132.949l-.156-.871h-1.222V9.5h1.404V6.146c0-1.352.663-2.171 1.781-2.171 1.053 0 1.586.676 1.586 1.937V9.5h1.417V5.795c0-2.223-1.209-3.029-2.678-3.029zm7.05 6.812c2.028 0 3.393-1.365 3.393-3.406 0-2.028-1.365-3.406-3.393-3.406-2.028 0-3.393 1.378-3.393 3.406 0 2.041 1.365 3.406 3.393 3.406zm0-1.196c-1.183 0-1.95-.923-1.95-2.21s.767-2.21 1.95-2.21c1.183 0 1.963.923 1.963 2.21s-.78 2.21-1.963 2.21zm7.577 1.196c1.703 0 2.834-.949 3.094-2.457h-1.482c-.169.767-.741 1.261-1.599 1.261-1.131 0-1.872-.897-1.872-2.197 0-1.313.741-2.223 1.872-2.223.871 0 1.43.481 1.612 1.261h1.469c-.273-1.508-1.339-2.457-3.055-2.457-2.015 0-3.341 1.365-3.341 3.419 0 2.08 1.287 3.393 3.302 3.393zm4.169-.078h1.404V7.81l1.196-1.248L48.226 9.5h1.664l-2.665-3.965 2.509-2.691h-1.651l-3.016 3.224V.4h-1.404v9.1zm9.633.078c2.028 0 3.393-1.365 3.393-3.406 0-2.028-1.365-3.406-3.393-3.406-2.028 0-3.393 1.378-3.393 3.406 0 2.041 1.365 3.406 3.393 3.406zm0-1.196c-1.183 0-1.95-.923-1.95-2.21s.767-2.21 1.95-2.21c1.183 0 1.963.923 1.963 2.21s-.78 2.21-1.963 2.21zm9.085-2.21c0 1.378-.65 2.184-1.716 2.184-1.027 0-1.547-.663-1.547-1.963V2.844h-1.404v3.705c0 2.275 1.209 3.029 2.626 3.029 1.027 0 1.638-.416 2.054-.923l.156.845h1.235V2.844H62.38v3.328zm3.307 1.521c0 1.209.546 1.807 1.82 1.807h1.3V8.265h-.988c-.533 0-.715-.195-.715-.715V4.079h1.625V2.844h-1.625V.985h-1.417v1.859H64.53v1.235h1.157v3.614zm15.97-2.743c0-2.665-1.806-4.628-4.42-4.628-2.612 0-4.42 1.963-4.42 4.628s1.808 4.628 4.42 4.628c2.614 0 4.42-1.963 4.42-4.628zm-7.305 0c0-1.924 1.157-3.315 2.886-3.315s2.886 1.391 2.886 3.315-1.157 3.315-2.886 3.315c-1.73 0-2.886-1.391-2.886-3.315zm16.015-3.315V.4h-1.34c-1.286 0-1.858.611-1.858 1.781v.663h-2.444v-.559c0-.455.182-.65.637-.65h.988V.4h-1.183c-1.287 0-1.86.611-1.86 1.781v.663h-1.156v1.235h1.157V9.5h1.417V4.079h2.444V9.5h1.404V4.079h1.794V2.844h-1.794v-.559c0-.455.195-.65.65-.65h1.144zm3.617 7.943c1.65 0 2.769-1.001 3.003-2.314h-1.404c-.195.741-.82 1.17-1.677 1.17-1.105 0-1.82-.741-1.86-1.872v-.091h5.019c.026-.182.039-.364.039-.533-.04-1.95-1.326-3.172-3.25-3.172-1.963 0-3.276 1.365-3.276 3.419 0 2.041 1.313 3.393 3.406 3.393zM92.1 5.444c.104-.949.87-1.547 1.768-1.547.975 0 1.664.559 1.78 1.547H92.1zm9.507-2.6c-1.092 0-1.625.442-1.963 1.001l-.156-1.001H98.24V9.5h1.404V6.159c0-1.027.403-2.002 1.651-2.002h.624V2.844h-.312zm1.048 1.131c0 .52.377.884.897.884s.91-.364.91-.884-.39-.884-.91-.884-.897.364-.897.884zm0 4.719c0 .52.377.884.897.884s.91-.364.91-.884-.39-.884-.91-.884-.897.364-.897.884zM4.55 20.261c-1.43-.247-2.366-.442-2.366-1.378 0-.858.715-1.3 1.742-1.3 1.105 0 1.833.624 1.95 1.547h1.495c-.052-1.469-1.053-2.509-2.691-2.756v-1.378H3.419v1.352c-1.651.169-2.73 1.196-2.73 2.639 0 1.807 1.43 2.288 2.938 2.548 1.443.26 2.392.468 2.392 1.43 0 .871-.78 1.352-1.859 1.352-1.274 0-2.106-.715-2.184-1.781L.468 22.51c.052 1.612 1.131 2.782 2.951 3.016v1.365H4.68v-1.339c1.703-.182 2.834-1.261 2.834-2.743.013-1.794-1.456-2.275-2.964-2.548zM8.284 25.5h6.448v-1.261h-4.407l2.418-2.015c1.105-.923 1.924-1.768 1.924-3.12 0-1.664-1.144-2.782-3.185-2.782-1.937 0-3.185 1.261-3.185 2.99v.234H9.74v-.156c0-1.131.702-1.833 1.742-1.833s1.729.572 1.729 1.612c0 .871-.611 1.508-1.43 2.197l-3.497 2.977V25.5zm7.33-4.342c0 2.743 1.47 4.42 3.588 4.42 2.12 0 3.588-1.677 3.588-4.42v-.416c0-2.639-1.469-4.42-3.588-4.42-2.119 0-3.588 1.781-3.588 4.42v.416zm5.72-.052c0 2.041-.858 3.211-2.132 3.211s-2.132-1.17-2.132-3.211v-.312c0-2.028.858-3.211 2.132-3.211s2.132 1.183 2.132 3.211v.312zm2.469.052c0 2.743 1.469 4.42 3.588 4.42 2.119 0 3.588-1.677 3.588-4.42v-.416c0-2.639-1.47-4.42-3.588-4.42-2.12 0-3.588 1.781-3.588 4.42v.416zm5.72-.052c0 2.041-.858 3.211-2.132 3.211s-2.132-1.17-2.132-3.211v-.312c0-2.028.858-3.211 2.132-3.211s2.132 1.183 2.132 3.211v.312zm5.548-3.38h2.808V25.5h1.495v-7.774h2.807V16.4h-7.11v1.326zm10.803 1.118c-1.092 0-1.625.442-1.963 1.001l-.156-1.001h-1.248V25.5h1.404v-3.341c0-1.027.403-2.002 1.651-2.002h.624v-1.313h-.312zm7.06 5.434c-.287 0-.43-.091-.43-.429v-2.665c0-1.573-1.014-2.418-2.782-2.418-1.677 0-2.795.806-2.938 2.106h1.378c.104-.585.663-.975 1.495-.975.923 0 1.456.455 1.456 1.196v.403h-1.677c-1.859 0-2.847.767-2.847 2.132 0 1.235 1.014 1.95 2.47 1.95 1.08 0 1.755-.468 2.197-1.144 0 .663.312 1.066 1.222 1.066h.741v-1.222h-.286zm-1.82-1.508c-.014 1.027-.69 1.716-1.86 1.716-.767 0-1.235-.39-1.235-.949 0-.676.481-1.001 1.352-1.001h1.742v.234zm7.876-3.003c-.429-.585-1.144-1.001-2.158-1.001-1.807 0-3.146 1.352-3.146 3.406 0 2.132 1.34 3.406 3.146 3.406 1.053 0 1.742-.494 2.171-1.079l.17 1.001h1.221v-9.1H58.99v3.367zm-1.924 4.628c-1.17 0-1.937-.91-1.937-2.223 0-1.3.767-2.21 1.937-2.21s1.937.91 1.937 2.236c0 1.287-.767 2.197-1.937 2.197zm7.86 1.183c1.65 0 2.768-1.001 3.002-2.314h-1.404c-.195.741-.819 1.17-1.677 1.17-1.105 0-1.82-.741-1.859-1.872v-.091h5.018c.026-.182.04-.364.04-.533-.04-1.95-1.327-3.172-3.25-3.172-1.964 0-3.277 1.365-3.277 3.419 0 2.041 1.313 3.393 3.406 3.393zm-1.886-4.134c.104-.949.871-1.547 1.768-1.547.975 0 1.664.559 1.781 1.547H63.04zm9.61 4.056h3.457c2.197 0 3.38-.988 3.38-2.6 0-1.3-.832-1.937-1.91-2.106.948-.26 1.56-.91 1.56-1.989 0-1.495-1.145-2.405-3.147-2.405h-3.34v9.1zm3.38-7.852c1.04 0 1.611.494 1.611 1.3 0 .819-.585 1.313-1.612 1.313h-1.885v-2.613h1.885zm.09 3.848c1.157 0 1.833.494 1.833 1.391 0 .845-.637 1.352-1.833 1.352h-1.976v-2.743h1.976zm7.683 4.082c2.028 0 3.393-1.365 3.393-3.406 0-2.028-1.365-3.406-3.393-3.406-2.028 0-3.393 1.378-3.393 3.406 0 2.041 1.365 3.406 3.393 3.406zm0-1.196c-1.183 0-1.95-.923-1.95-2.21s.767-2.21 1.95-2.21c1.183 0 1.963.923 1.963 2.21s-.78 2.21-1.963 2.21zm8.032-5.616c-1.08 0-1.716.429-2.132.949l-.156-.871h-1.222V25.5h1.404v-3.354c0-1.352.663-2.171 1.78-2.171 1.054 0 1.587.676 1.587 1.937V25.5h1.417v-3.705c0-2.223-1.21-3.029-2.678-3.029zm8.518 3.406c0 1.378-.65 2.184-1.716 2.184-1.027 0-1.547-.663-1.547-1.963v-3.549h-1.404v3.705c0 2.275 1.209 3.029 2.626 3.029 1.027 0 1.638-.416 2.054-.923l.156.845h1.235v-6.656h-1.404v3.328zm2.501 1.131c.039 1.443 1.261 2.275 3.042 2.275 1.612 0 2.821-.806 2.821-2.08 0-1.482-1.235-1.794-2.756-1.976-.962-.104-1.599-.182-1.599-.806 0-.533.546-.871 1.378-.871.832 0 1.404.429 1.482 1.04h1.378c-.091-1.365-1.248-2.119-2.886-2.119-1.599-.013-2.73.806-2.73 2.067 0 1.378 1.196 1.703 2.717 1.885 1.027.13 1.638.182 1.638.897 0 .533-.572.871-1.443.871-1.014 0-1.612-.494-1.664-1.183h-1.378z" fill="#000"/></svg>