<svg width="94" height="19" viewBox="0 0 94 19" fill="none" xmlns="http://www.w3.org/2000/svg"><rect width="94" height="19" rx="9.5" fill="#000"/><path d="M13.321 13.054c1.422 0 2.466-.81 2.7-2.115h-.828c-.234.882-.909 1.395-1.881 1.395-1.323 0-2.133-1.035-2.133-2.484 0-1.458.846-2.484 2.169-2.484.945 0 1.611.522 1.854 1.395h.828c-.234-1.305-1.251-2.115-2.646-2.115-1.827 0-3.006 1.296-3.006 3.204 0 1.926 1.134 3.204 2.943 3.204zM16.858 13h.738V6.7h-.738V13zm5.808-.675c-.207 0-.297-.063-.297-.306v-2.007c0-1.071-.674-1.656-1.845-1.656-1.107 0-1.835.531-1.944 1.431h.739c.09-.468.521-.774 1.17-.774.72 0 1.142.36 1.142.954v.315h-1.35c-1.205 0-1.845.513-1.845 1.431 0 .837.684 1.341 1.692 1.341.793 0 1.252-.351 1.54-.765.009.45.216.711.828.711h.405v-.675h-.235zm-1.035-1.197c0 .765-.53 1.296-1.448 1.296-.613 0-1-.306-1-.756 0-.522.37-.765 1.026-.765h1.422v.225zm2.215-3.492c.27 0 .477-.198.477-.477a.464.464 0 00-.477-.477.464.464 0 00-.477.477c0 .279.207.477.477.477zM23.468 13h.738V8.41h-.738V13zm6.87-4.644c-.82 0-1.314.378-1.593.873-.261-.585-.81-.873-1.45-.873-.71 0-1.097.351-1.34.684l-.1-.63h-.638V13h.738v-2.421c0-.918.459-1.548 1.215-1.548.702 0 1.107.468 1.107 1.368V13h.738v-2.457c0-.936.468-1.512 1.233-1.512.693 0 1.089.468 1.089 1.368V13h.738v-2.646c0-1.449-.783-1.998-1.737-1.998zm9.62 2.844c0-1.224-1.053-1.566-2.079-1.737-.945-.162-1.71-.315-1.71-1.071 0-.675.549-1.035 1.368-1.035.855 0 1.44.477 1.53 1.206h.81c-.063-1.008-.747-1.737-1.881-1.89v-.945h-.684v.927c-1.152.081-1.926.774-1.926 1.782 0 1.224 1.044 1.557 2.061 1.728.954.162 1.728.324 1.728 1.107 0 .684-.603 1.071-1.449 1.071-.963 0-1.62-.558-1.683-1.404h-.81c.045 1.125.792 1.953 2.079 2.097v.927h.684v-.918c1.17-.099 1.962-.837 1.962-1.845zm.58 1.8h4.338v-.693h-3.294l1.89-1.602c.747-.639 1.359-1.233 1.359-2.178 0-1.134-.792-1.881-2.151-1.881-1.27 0-2.106.846-2.106 2.034v.162h.756v-.117c0-.864.54-1.404 1.35-1.404.837 0 1.377.45 1.377 1.242 0 .684-.486 1.17-1.071 1.674l-2.448 2.124V13zm5.005-3.006c0 1.881.972 3.06 2.394 3.06 1.413 0 2.385-1.179 2.385-3.06v-.288c0-1.791-.972-3.06-2.385-3.06-1.422 0-2.394 1.269-2.394 3.06v.288zm4.014-.027c0 1.494-.648 2.394-1.62 2.394-.98 0-1.629-.9-1.629-2.394v-.234c0-1.494.648-2.394 1.63-2.394.971 0 1.62.9 1.62 2.394v.234zm1.54.027c0 1.881.973 3.06 2.395 3.06 1.413 0 2.385-1.179 2.385-3.06v-.288c0-1.791-.972-3.06-2.385-3.06-1.422 0-2.394 1.269-2.394 3.06v.288zm4.015-.027c0 1.494-.648 2.394-1.62 2.394-.981 0-1.63-.9-1.63-2.394v-.234c0-1.494.649-2.394 1.63-2.394.972 0 1.62.9 1.62 2.394v.234zm6.326-1.611c-.774 0-1.269.369-1.575.792V6.7h-.738V13h.64l.098-.702c.28.441.801.756 1.575.756 1.27 0 2.205-.945 2.205-2.349 0-1.494-.936-2.349-2.205-2.349zm-.072 4.041c-.9 0-1.512-.702-1.512-1.71 0-.981.612-1.674 1.512-1.674.91 0 1.521.693 1.521 1.692s-.612 1.692-1.52 1.692zm5.235.657c1.341 0 2.277-.954 2.277-2.349 0-1.395-.936-2.349-2.277-2.349-1.34 0-2.277.954-2.277 2.349 0 1.395.936 2.349 2.277 2.349zm0-.657c-.909 0-1.52-.711-1.52-1.692s.611-1.692 1.52-1.692c.91 0 1.521.711 1.521 1.692s-.612 1.692-1.52 1.692zm5.374-4.041c-.774 0-1.242.324-1.512.675l-.1-.621h-.638V13h.738v-2.295c0-1.035.522-1.674 1.386-1.674.8 0 1.242.504 1.242 1.458V13h.738v-2.556c0-1.521-.82-2.088-1.854-2.088zm6.008 2.349c0 1.035-.504 1.674-1.341 1.674-.765 0-1.197-.504-1.197-1.458V8.41h-.738v2.556c0 1.521.8 2.088 1.809 2.088.756 0 1.197-.324 1.467-.666l.099.612h.639V8.41h-.738v2.295zm1.555.783c.018 1.008.837 1.566 2.025 1.566 1.017 0 1.836-.531 1.836-1.386 0-1.017-.837-1.215-1.881-1.341-.666-.081-1.152-.144-1.152-.648 0-.423.432-.693 1.07-.693.63 0 1.063.351 1.117.819h.756c-.072-.954-.828-1.44-1.872-1.449-1.035-.009-1.8.54-1.8 1.377 0 .954.819 1.161 1.845 1.287.684.081 1.188.126 1.188.702 0 .423-.46.702-1.107.702-.765 0-1.242-.396-1.27-.936h-.755z" fill="#fff"/></svg>