<svg width="258" height="59" viewBox="0 0 258 59" fill="none" xmlns="http://www.w3.org/2000/svg"><path d="M29.562 25.836L19.518.636h-8.892L.69 25.836h8.1l1.62-4.392h9.432l1.62 4.392h8.1zm-17.388-9.792l2.916-7.848 2.916 7.848h-5.832zm27.562 9.792V.672h-6.768v25.164h6.768zm16.238-6.696v-5.256H43.482v5.256h12.492zM59.757.672v25.164h6.768v-7.164h4.32c7.488 0 11.052-2.772 11.052-8.928 0-6.156-3.384-9.072-11.124-9.072H59.757zm6.768 5.832h3.996c3.024 0 4.32 1.116 4.32 3.492 0 2.412-1.332 3.456-4.32 3.456h-3.996V6.504zM98.94.312c-7.452 0-13.5 5.796-13.5 12.96 0 7.128 6.048 12.924 13.5 12.924s13.5-5.796 13.5-12.924c0-7.164-6.048-12.96-13.5-12.96zm0 6.336c3.78 0 6.444 2.952 6.444 6.624 0 3.636-2.664 6.588-6.444 6.588s-6.408-2.952-6.408-6.588c0-3.672 2.628-6.624 6.408-6.624zm45.99 19.188L153.21.672h-7.56l-4.5 14.58L136.758.636h-6.624l-4.392 14.616-4.5-14.58h-7.56l8.28 25.164h6.948l4.536-14.472 4.536 14.472h6.948zM177.311 6.72V.636h-20.628v25.2h20.844v-6.084h-14.076v-3.78h12.888v-5.76h-12.888V6.72h13.86zm4.052-6.048v25.164h6.768v-7.668h4.032l4.896 7.668h7.812l-5.652-8.568c3.492-1.188 4.968-3.744 4.968-7.848 0-6.156-3.276-8.748-11.484-8.748h-11.34zm6.768 6.084h4.896c2.988 0 4.104.936 4.104 3.096 0 2.196-1.116 3.096-4.104 3.096h-4.896V6.756zm40.789-.036V.636h-20.628v25.2h20.844v-6.084H215.06v-3.78h12.888v-5.76H215.06V6.72h13.86zm4.052-6.048v25.164h10.8c7.452 0 13.5-5.436 13.5-12.564 0-7.164-6.048-12.636-13.5-12.636l-10.8.036zm6.768 6.048h3.78c3.744 0 6.804 2.808 6.804 6.516 0 3.744-3.06 6.552-6.804 6.552h-3.78V6.72zM62.382 38.432v-5.796h-21.42v5.796h7.308v19.404h6.804V38.432h7.308zm3.405-5.76v25.164h6.767v-7.668H76.588l4.895 7.668h7.813l-5.653-8.568c3.493-1.188 4.969-3.744 4.969-7.848 0-6.156-3.276-8.748-11.485-8.748h-11.34zm6.767 6.084h4.897c2.988 0 4.104.936 4.104 3.096 0 2.196-1.117 3.096-4.105 3.096h-4.895v-6.192zm47.342 19.08l-10.044-25.2h-8.892l-9.936 25.2h8.1l1.62-4.392h9.432l1.62 4.392h8.1zm-17.388-9.792l2.916-7.848 2.916 7.848h-5.832zm20.794-15.372v25.164h10.8c7.452 0 13.5-5.436 13.5-12.564 0-7.164-6.048-12.636-13.5-12.636l-10.8.036zm6.768 6.048h3.78c3.744 0 6.804 2.808 6.804 6.516 0 3.744-3.06 6.552-6.804 6.552h-3.78V38.72zm28.758 19.116V32.672h-6.768v25.164h6.768zm28.766 0v-25.2h-6.66v14.076l-10.152-14.076h-7.02v25.2h6.66v-14.04l10.152 14.04h7.02zm18.179-25.56c-7.164-.036-13.932 4.68-13.932 12.996 0 7.128 6.048 12.924 13.5 12.924 4.248 0 8.172-1.404 11.196-3.816V43.364h-10.764v4.824h4.32V50.6a9.349 9.349 0 01-4.752 1.26c-3.78 0-6.408-2.952-6.408-6.588 0-4.212 3.204-6.732 6.84-6.732 1.944 0 3.924.684 5.508 2.052l4.428-4.644c-2.808-2.412-6.372-3.636-9.936-3.672z" fill="#09B45B"/></svg>