<svg width="159" height="34" viewBox="0 0 159 34" fill="none" xmlns="http://www.w3.org/2000/svg"><rect width="159" height="34" rx="17" fill="#14964F"/><path d="M15.216 11.88V23H20.8v-1.472h-3.76V11.88h-1.824zm15.509 6.704c0-2.768-1.984-4.544-4.496-4.544-2.512 0-4.496 1.776-4.496 4.544s1.904 4.56 4.416 4.56c2.528 0 4.576-1.792 4.576-4.56zm-7.136 0c0-2 1.232-2.96 2.608-2.96 1.36 0 2.656.96 2.656 2.96s-1.344 2.976-2.704 2.976c-1.376 0-2.56-.976-2.56-2.976zm8.331-.032c0 2.72 1.84 4.592 4.16 4.592 1.44 0 2.496-.72 3.056-1.472v1.472c0 1.76-1.056 2.624-2.464 2.624-1.264 0-2.24-.624-2.512-1.536h-1.808c.224 1.952 1.968 3.12 4.32 3.12 2.752 0 4.304-1.808 4.304-4.208v-8.96h-1.84v1.28c-.544-.752-1.616-1.424-3.056-1.424-2.32 0-4.16 1.792-4.16 4.512zm7.216.032c0 1.904-1.296 2.976-2.672 2.976-1.36 0-2.672-1.104-2.672-3.008s1.312-2.928 2.672-2.928c1.376 0 2.672 1.072 2.672 2.96zM47.528 23h1.824v-8.816h-1.824V23zm.928-9.984a1.15 1.15 0 001.152-1.168 1.15 1.15 0 00-1.152-1.168c-.656 0-1.168.512-1.168 1.168 0 .656.512 1.168 1.168 1.168zM58.003 23h1.808v-5.2c0-2.464-1.552-3.76-3.616-3.76-1.056 0-2.032.432-2.624 1.152v-1.008h-1.824V23h1.824v-4.928c0-1.616.88-2.448 2.224-2.448 1.328 0 2.208.832 2.208 2.448V23zm7.683-4.448c0 2.72 1.84 4.592 4.128 4.592 1.472 0 2.528-.704 3.088-1.456V23h1.84v-8.816h-1.84v1.28c-.544-.72-1.568-1.424-3.056-1.424-2.32 0-4.16 1.792-4.16 4.512zm7.216.032c0 1.904-1.296 2.976-2.672 2.976-1.36 0-2.672-1.104-2.672-3.008s1.312-2.928 2.672-2.928c1.376 0 2.672 1.072 2.672 2.96zM83.394 23H85.2v-5.2c0-2.464-1.551-3.76-3.615-3.76-1.056 0-2.032.432-2.624 1.152v-1.008h-1.825V23h1.825v-4.928c0-1.616.88-2.448 2.224-2.448 1.327 0 2.207.832 2.207 2.448V23zm3.526-4.448c0 2.72 1.84 4.592 4.16 4.592 1.44 0 2.496-.672 3.056-1.472V23h1.84V11.16h-1.84v4.256c-.672-.832-1.888-1.376-3.04-1.376-2.336 0-4.176 1.792-4.176 4.512zm7.216.032c0 1.904-1.296 2.976-2.672 2.976-1.36 0-2.672-1.104-2.672-3.008s1.312-2.928 2.672-2.928c1.376 0 2.672 1.072 2.672 2.96zm8.68 1.968c0 1.792.976 2.448 2.544 2.448h1.44v-1.52h-1.12c-.768 0-1.024-.272-1.024-.928v-4.88h2.144v-1.488h-2.144v-2.192h-1.84v2.192h-1.04v1.488h1.04v4.88zm7.489-2.192c0-1.872.832-2.432 2.176-2.432h.464V14.04c-1.248 0-2.128.544-2.64 1.424v-1.28h-1.824V23h1.824v-4.64zm3.709.192c0 2.72 1.84 4.592 4.128 4.592 1.472 0 2.528-.704 3.088-1.456V23h1.84v-8.816h-1.84v1.28c-.544-.72-1.568-1.424-3.056-1.424-2.32 0-4.16 1.792-4.16 4.512zm7.216.032c0 1.904-1.296 2.976-2.672 2.976-1.36 0-2.672-1.104-2.672-3.008s1.312-2.928 2.672-2.928c1.376 0 2.672 1.072 2.672 2.96zm3.628-.032c0 2.72 1.84 4.592 4.16 4.592 1.44 0 2.496-.672 3.056-1.472V23h1.84V11.16h-1.84v4.256c-.672-.832-1.888-1.376-3.04-1.376-2.336 0-4.176 1.792-4.176 4.512zm7.216.032c0 1.904-1.296 2.976-2.672 2.976-1.36 0-2.672-1.104-2.672-3.008s1.312-2.928 2.672-2.928c1.376 0 2.672 1.072 2.672 2.96zm7.947-3.008c1.36 0 2.432.864 2.464 2.224h-4.88c.192-1.392 1.184-2.224 2.416-2.224zm4.128 4.8h-1.968c-.336.688-.96 1.232-2.08 1.232-1.344 0-2.384-.88-2.512-2.336h6.736c.048-.304.064-.592.064-.896 0-2.592-1.776-4.336-4.288-4.336-2.608 0-4.4 1.776-4.4 4.544s1.872 4.56 4.4 4.56c2.16 0 3.552-1.232 4.048-2.768z" fill="#fff"/></svg>