<svg width="784" height="23" viewBox="0 0 784 23" fill="none" xmlns="http://www.w3.org/2000/svg"><path fill="#fff" d="M0 0h784v23H0z"/><path d="M13.68 7.602v.703L11.657 14h-1.301l2.03-5.375H9.812V7.602h3.867zm3.532-.014V14h-1.23V9.1l-1.222.47V8.542l2.32-.954h.132zm1.965 5.784c0-.194.064-.355.193-.484.129-.132.303-.198.523-.198.22 0 .394.066.523.198.129.13.193.29.193.484a.656.656 0 01-.193.483c-.129.129-.303.193-.523.193-.22 0-.394-.064-.523-.193a.656.656 0 01-.193-.483zm5.278-5.84h.162v1.045h-.057c-.278 0-.521.048-.73.145a1.33 1.33 0 00-.514.413 1.855 1.855 0 00-.303.65 3.284 3.284 0 00-.1.849v1.076c0 .223.014.42.043.59.032.17.078.311.136.426a.731.731 0 00.211.25.468.468 0 00.54-.004.745.745 0 00.212-.242c.058-.106.102-.229.131-.37a2.06 2.06 0 00.049-.46c0-.17-.016-.326-.049-.466a1.333 1.333 0 00-.136-.365.671.671 0 00-.215-.242.466.466 0 00-.277-.088.566.566 0 00-.382.136.836.836 0 00-.242.343 1.283 1.283 0 00-.092.435l-.37-.263c.012-.223.053-.433.124-.629.073-.199.173-.378.299-.536a1.34 1.34 0 01.452-.369c.176-.09.374-.136.593-.136.255 0 .478.057.668.171.19.114.349.271.475.47.129.2.224.431.286.695.064.26.096.539.096.835 0 .31-.044.599-.131.865a2.19 2.19 0 01-.374.7c-.161.198-.358.354-.589.465a1.743 1.743 0 01-.773.167c-.293 0-.558-.062-.796-.185a1.807 1.807 0 01-.606-.523 2.52 2.52 0 01-.383-.808 3.769 3.769 0 01-.131-1.028v-.497c0-.516.06-.987.18-1.415.12-.43.297-.803.532-1.116.237-.314.527-.556.87-.725.345-.173.742-.26 1.19-.26zM26.22 9.17v-.338c0-.243.044-.464.132-.664.09-.199.224-.358.4-.479.179-.12.4-.18.663-.18.267 0 .49.06.668.18.18.12.311.28.396.48.088.199.132.42.132.663v.338c0 .238-.044.456-.132.655a1.1 1.1 0 01-.4.48c-.176.12-.395.18-.66.18-.263 0-.484-.06-.663-.18a1.13 1.13 0 01-.404-.48 1.604 1.604 0 01-.132-.655zm.804-.338v.338c0 .1.015.195.044.286.03.088.074.16.132.215.059.053.132.08.22.08a.3.3 0 00.215-.08.502.502 0 00.123-.215.924.924 0 00.044-.286v-.338a.913.913 0 00-.044-.29.45.45 0 00-.127-.215.306.306 0 00-.22-.084.306.306 0 00-.22.084.502.502 0 00-.127.215c-.026.088-.04.185-.04.29zm1.723 3.942v-.343c0-.24.046-.46.136-.659.091-.2.224-.359.4-.479.179-.12.399-.18.66-.18.269 0 .492.06.667.18.176.12.308.28.396.479.09.2.136.419.136.66v.342c0 .24-.044.46-.132.66a1.105 1.105 0 01-.4.474c-.175.12-.395.18-.659.18s-.486-.06-.668-.18a1.13 1.13 0 01-.404-.48 1.604 1.604 0 01-.132-.654zm.804-.343v.339c0 .102.018.199.053.29.035.088.082.16.14.215a.31.31 0 00.207.079c.106 0 .186-.026.242-.08a.41.41 0 00.11-.214c.02-.091.03-.188.03-.29v-.335a.913.913 0 00-.043-.29.45.45 0 00-.128-.215.291.291 0 00-.215-.083.312.312 0 00-.224.083.48.48 0 00-.132.216.989.989 0 00-.04.285zm.717-3.911l-2.624 5.001-.589-.334 2.624-5.001.589.334zm3.66 3.265v-.32c0-.373.044-.702.132-.99.09-.287.22-.527.387-.72.167-.196.367-.344.602-.444.237-.102.502-.154.795-.154.296 0 .561.052.796.154.237.1.44.248.606.444.17.193.3.433.391.72.091.288.136.617.136.99v.32c0 .37-.045.697-.136.985-.09.287-.221.528-.39.725a1.605 1.605 0 01-.603.444c-.234.1-.498.149-.791.149-.293 0-.558-.05-.795-.15a1.644 1.644 0 01-.607-.443c-.17-.197-.3-.438-.391-.725a3.364 3.364 0 01-.132-.985zm1.23-.32v.32c0 .22.015.41.045.571.032.162.077.295.136.4a.627.627 0 00.22.233c.084.05.183.075.294.075.111 0 .21-.025.299-.075a.557.557 0 00.215-.233c.059-.105.101-.238.128-.4.029-.16.044-.351.044-.57v-.322c0-.213-.017-.401-.049-.562a1.325 1.325 0 00-.136-.4.619.619 0 00-.22-.237.518.518 0 00-.29-.084.518.518 0 00-.29.084.684.684 0 00-.215.237 1.325 1.325 0 00-.136.4c-.03.161-.044.349-.044.562zM40.078 14h-1.235V8.832c0-.366.063-.672.19-.918.125-.247.303-.434.531-.563.231-.129.505-.193.822-.193.102 0 .199.008.29.026.094.015.184.035.272.062l-.013.98a.75.75 0 00-.136-.027 1.514 1.514 0 00-.167-.009.59.59 0 00-.303.075.485.485 0 00-.19.215.88.88 0 00-.06.352V14zm.743-4.755v.927h-2.558v-.927h2.558zm3.99 1.06V14h-1.23V9.245h1.16l.07 1.06zm1.12-1.095l-.017 1.226a2.647 2.647 0 00-.404-.035.847.847 0 00-.352.066.586.586 0 00-.241.189.877.877 0 00-.141.307 1.94 1.94 0 00-.057.418l-.233-.088c0-.31.023-.595.07-.853.05-.26.123-.486.22-.676.097-.194.212-.343.347-.449a.746.746 0 01.466-.158c.059 0 .12.006.184.018.068.009.12.02.159.035zm2.457 4.878c-.325 0-.614-.05-.865-.15-.25-.1-.46-.243-.633-.43a1.926 1.926 0 01-.396-.69 2.883 2.883 0 01-.136-.923v-.391c0-.387.044-.725.132-1.015.088-.293.212-.54.373-.739.161-.199.36-.347.594-.443.237-.1.505-.15.804-.15.299 0 .56.05.786.15.229.096.418.243.567.44.15.192.263.433.339.72.076.287.114.62.114 1.002v.562H46.88v-.866h1.977v-.11c0-.193-.02-.354-.061-.483a.555.555 0 00-.194-.294.582.582 0 00-.351-.097.607.607 0 00-.312.075.513.513 0 00-.202.233 1.44 1.44 0 00-.11.413 4.4 4.4 0 00-.035.602v.391c0 .22.019.404.057.554a.98.98 0 00.167.36c.076.09.168.157.277.198.108.038.234.057.378.057a1.346 1.346 0 001.033-.435l.492.747a1.767 1.767 0 01-.352.334c-.15.111-.328.202-.536.272a2.25 2.25 0 01-.72.106zm4.465-4.843v.927h-2.426v-.927h2.426zm-1.868-1.173h1.226v4.478c0 .132.014.233.04.303a.27.27 0 00.119.15c.055.026.129.039.22.039a.837.837 0 00.29-.035v.962c-.097.038-.2.068-.308.088-.106.02-.232.03-.378.03-.246 0-.46-.046-.642-.14a.96.96 0 01-.417-.448c-.1-.208-.15-.48-.15-.817v-4.61zm4.65 4.834v-2.197a.916.916 0 00-.053-.343.341.341 0 00-.15-.185.432.432 0 00-.237-.061.49.49 0 00-.263.066.404.404 0 00-.158.188.803.803 0 00-.049.295H53.49c0-.205.04-.399.119-.58.079-.185.195-.346.347-.484.155-.14.34-.25.554-.33.214-.078.454-.118.72-.118.317 0 .598.054.844.163.246.105.441.274.585.505.143.232.215.532.215.901v2.118c0 .267.013.484.04.65.029.168.071.311.127.431V14H55.8a2.059 2.059 0 01-.127-.492c-.026-.2-.04-.4-.04-.602zm.15-1.81l.004.738h-.453a.769.769 0 00-.308.057.592.592 0 00-.215.162.671.671 0 00-.132.237c-.026.091-.04.188-.04.29 0 .115.017.211.049.29.032.08.08.14.145.18.064.042.14.062.228.062a.709.709 0 00.352-.083.57.57 0 00.22-.202c.05-.08.066-.153.048-.22l.281.479a2.183 2.183 0 01-.145.338 1.428 1.428 0 01-.224.325c-.09.1-.203.182-.338.247a1.104 1.104 0 01-.47.092c-.255 0-.488-.059-.7-.176a1.304 1.304 0 01-.5-.492c-.12-.211-.18-.461-.18-.752 0-.24.038-.457.114-.65a1.28 1.28 0 01.352-.497c.155-.137.351-.243.588-.316a2.84 2.84 0 01.835-.11h.488zm3.29-1.85V14H57.84V9.245h1.235zm-1.291-1.231c0-.19.06-.348.18-.47a.657.657 0 01.492-.19c.208 0 .372.063.492.19.12.122.18.28.18.47a.646.646 0 01-.184.47.645.645 0 01-.483.184.671.671 0 01-.497-.184.655.655 0 01-.18-.47zm3.56-.765V14h-1.236V7.25h1.235zm4.341 1.995V14H64.45V9.245h1.235zm-1.292-1.23c0-.19.06-.348.18-.47a.657.657 0 01.492-.19c.209 0 .373.063.493.19.12.122.18.28.18.47a.646.646 0 01-.185.47.645.645 0 01-.483.184.67.67 0 01-.497-.184.654.654 0 01-.18-.47zm3.476 2.245V14h-1.235V9.245h1.156l.08 1.015zm-.184 1.2l-.33.009a3.62 3.62 0 01.101-.963c.076-.284.183-.526.32-.725.141-.202.308-.356.502-.461.196-.109.414-.163.655-.163.184 0 .353.032.505.097a.99.99 0 01.4.308c.111.14.198.328.26.562.06.231.092.516.092.853V14h-1.235v-3.032c0-.205-.02-.364-.062-.475a.41.41 0 00-.184-.237.612.612 0 00-.308-.07.51.51 0 00-.312.1.767.767 0 00-.229.269 1.597 1.597 0 00-.136.404c-.03.155-.042.322-.04.501zm4.807 1.59l.765-3.805h1.283L73.234 14h-.77l.027-.95zm-.452-3.805l.777 3.81.014.945h-.774l-1.305-4.755h1.288zm4.948 4.843c-.325 0-.614-.05-.866-.15-.249-.1-.46-.243-.633-.43a1.926 1.926 0 01-.395-.69 2.886 2.886 0 01-.136-.923v-.391c0-.387.044-.725.131-1.015.088-.293.213-.54.374-.739.161-.199.359-.347.593-.443.237-.1.505-.15.804-.15.3 0 .561.05.787.15.228.096.418.243.567.44.15.192.262.433.338.72.076.287.114.62.114 1.002v.562H75.48v-.866h1.978v-.11c0-.193-.02-.354-.061-.483a.555.555 0 00-.194-.294.581.581 0 00-.351-.097.607.607 0 00-.312.075.513.513 0 00-.203.233 1.44 1.44 0 00-.11.413 4.4 4.4 0 00-.035.602v.391c0 .22.02.404.058.554a.98.98 0 00.166.36c.077.09.169.157.277.198.109.038.235.057.378.057a1.346 1.346 0 001.033-.435l.492.747a1.766 1.766 0 01-.351.334 1.92 1.92 0 01-.537.272 2.25 2.25 0 01-.72.106zm4.5-1.371a.327.327 0 00-.084-.22.986.986 0 00-.263-.198c-.12-.07-.28-.148-.48-.233a5.067 5.067 0 01-.575-.272 2.026 2.026 0 01-.426-.312 1.154 1.154 0 01-.26-.391 1.34 1.34 0 01-.088-.501c0-.202.037-.388.11-.558.077-.173.185-.324.326-.453.14-.132.312-.234.514-.308a1.97 1.97 0 01.69-.114c.357 0 .663.063.918.19.258.122.456.295.593.518.138.222.207.482.207.778h-1.23c0-.106-.017-.2-.049-.282a.393.393 0 00-.158-.197.508.508 0 00-.286-.07.454.454 0 00-.4.21.409.409 0 00-.057.22.36.36 0 00.04.171c.03.05.075.098.136.145.062.047.144.097.246.15a7.4 7.4 0 00.387.167c.316.117.576.243.778.378.205.134.357.293.457.474.1.179.15.4.15.664 0 .21-.042.403-.124.575-.079.173-.195.323-.347.449a1.61 1.61 0 01-.55.29c-.21.067-.446.1-.707.1-.384 0-.707-.075-.971-.228a1.572 1.572 0 01-.598-.584 1.508 1.508 0 01-.202-.747h1.169a.808.808 0 00.088.373c.056.088.13.15.224.185a.882.882 0 00.312.053.765.765 0 00.281-.044.35.35 0 00.172-.145.465.465 0 00.057-.233zm4.052-3.472v.927h-2.426v-.927h2.426zM83.67 8.072h1.226v4.478c0 .132.013.233.04.303a.27.27 0 00.118.15c.056.026.13.039.22.039a.837.837 0 00.29-.035v.962c-.097.038-.2.068-.308.088-.105.02-.231.03-.378.03-.246 0-.46-.046-.641-.14a.96.96 0 01-.418-.448c-.1-.208-.15-.48-.15-.817v-4.61zm2.28 3.713v-.32c0-.373.045-.702.133-.99.09-.287.22-.527.386-.72.167-.196.368-.344.602-.444.238-.102.503-.154.796-.154.296 0 .56.052.795.154.237.1.44.248.606.444.17.193.3.433.392.72.09.288.136.617.136.99v.32c0 .37-.046.697-.136.985-.091.287-.222.528-.392.725a1.605 1.605 0 01-.602.444c-.234.1-.498.149-.79.149-.293 0-.559-.05-.796-.15a1.643 1.643 0 01-.606-.443c-.17-.197-.3-.438-.391-.725a3.364 3.364 0 01-.132-.985zm1.231-.32v.32c0 .22.015.41.044.571.032.162.078.295.136.4a.627.627 0 00.22.233c.085.05.183.075.294.075.112 0 .211-.025.3-.075a.556.556 0 00.215-.233c.058-.105.1-.238.127-.4.03-.16.044-.351.044-.57v-.322c0-.213-.016-.401-.048-.562a1.327 1.327 0 00-.137-.4.618.618 0 00-.22-.237.518.518 0 00-.29-.084.518.518 0 00-.29.084.684.684 0 00-.215.237 1.325 1.325 0 00-.136.4c-.03.161-.044.349-.044.562zm4.623-1.16V14h-1.23V9.245h1.16l.07 1.06zm1.12-1.095l-.017 1.226a2.651 2.651 0 00-.404-.035.847.847 0 00-.352.066.587.587 0 00-.241.189.877.877 0 00-.141.307 1.946 1.946 0 00-.057.418l-.233-.088c0-.31.023-.595.07-.853.05-.26.123-.486.22-.676.097-.194.212-.343.347-.449a.747.747 0 01.466-.158c.059 0 .12.006.185.018.067.009.12.02.158.035zm4.8 3.696v-2.197a.916.916 0 00-.053-.343.341.341 0 00-.15-.185.433.433 0 00-.237-.061.49.49 0 00-.263.066.404.404 0 00-.159.188.805.805 0 00-.048.295H95.58c0-.205.04-.399.119-.58.079-.185.195-.346.347-.484.155-.14.34-.25.554-.33.214-.078.454-.118.72-.118.317 0 .598.054.844.163.246.105.441.274.585.505.143.232.215.532.215.901v2.118c0 .267.013.484.04.65.029.168.071.311.127.431V14h-1.24a2.06 2.06 0 01-.127-.492c-.026-.2-.04-.4-.04-.602zm.149-1.81l.004.738h-.452a.768.768 0 00-.308.057.591.591 0 00-.215.162.671.671 0 00-.132.237c-.026.091-.04.188-.04.29 0 .115.017.211.049.29a.373.373 0 00.373.242.709.709 0 00.352-.083.57.57 0 00.22-.202c.05-.08.066-.153.048-.22l.281.479a2.183 2.183 0 01-.145.338 1.431 1.431 0 01-.224.325c-.09.1-.204.182-.338.247a1.104 1.104 0 01-.47.092c-.255 0-.488-.059-.7-.176a1.303 1.303 0 01-.5-.492c-.12-.211-.18-.461-.18-.752 0-.24.038-.457.114-.65a1.28 1.28 0 01.351-.497c.156-.137.352-.243.59-.316a2.84 2.84 0 01.834-.11h.488zm3.718 1.968a.584.584 0 00.294-.07.445.445 0 00.194-.229c.044-.105.067-.242.07-.409h1.156c0 .358-.077.667-.229.928a1.559 1.559 0 01-.606.597 1.759 1.759 0 01-.857.207 2.09 2.09 0 01-.835-.154 1.493 1.493 0 01-.589-.448 2.072 2.072 0 01-.347-.716 3.777 3.777 0 01-.115-.976v-.347c0-.36.039-.683.115-.967a2.07 2.07 0 01.347-.72c.155-.197.35-.346.584-.449.238-.102.516-.154.835-.154.343 0 .641.072.892.216.252.14.449.348.589.624.144.275.216.615.216 1.02h-1.156a1.497 1.497 0 00-.066-.454.553.553 0 00-.18-.28.473.473 0 00-.317-.102.579.579 0 00-.334.088.526.526 0 00-.189.246 1.497 1.497 0 00-.083.396 5.744 5.744 0 00-.022.536v.347c0 .214.006.4.018.558.014.155.042.287.083.396a.502.502 0 00.189.237c.085.053.199.079.343.079zm4.139 0a.585.585 0 00.295-.07.444.444 0 00.193-.229c.044-.105.068-.242.071-.409h1.155c0 .358-.076.667-.228.928-.15.257-.352.457-.607.597a1.756 1.756 0 01-.857.207c-.319 0-.597-.051-.835-.154a1.49 1.49 0 01-.588-.448 2.071 2.071 0 01-.348-.716 3.787 3.787 0 01-.114-.976v-.347c0-.36.038-.683.114-.967a2.07 2.07 0 01.348-.72c.155-.197.35-.346.584-.449.237-.102.516-.154.835-.154.343 0 .64.072.892.216.252.14.448.348.589.624.144.275.215.615.215 1.02h-1.155a1.497 1.497 0 00-.066-.454.554.554 0 00-.181-.28.47.47 0 00-.316-.102.577.577 0 00-.334.088.526.526 0 00-.189.246 1.458 1.458 0 00-.083.396 5.744 5.744 0 00-.022.536v.347c0 .214.005.4.017.558.015.155.043.287.084.396a.502.502 0 00.189.237c.085.053.199.079.342.079zm2.281-1.279v-.32c0-.373.044-.702.132-.99.091-.287.22-.527.387-.72a1.6 1.6 0 01.602-.444c.237-.102.502-.154.795-.154.296 0 .561.052.796.154.237.1.439.248.606.444.17.193.3.433.391.72.091.288.136.617.136.99v.32c0 .37-.045.697-.136.985a2.027 2.027 0 01-.391.725 1.608 1.608 0 01-.602.444c-.234.1-.498.149-.791.149-.293 0-.558-.05-.795-.15a1.64 1.64 0 01-.607-.443c-.17-.197-.3-.438-.391-.725a3.36 3.36 0 01-.132-.985zm1.231-.32v.32c0 .22.014.41.044.571.032.162.077.295.136.4a.623.623 0 00.22.233.57.57 0 00.294.075.597.597 0 00.299-.075.55.55 0 00.215-.233 1.24 1.24 0 00.128-.4c.029-.16.044-.351.044-.57v-.322c0-.213-.017-.401-.049-.562a1.309 1.309 0 00-.136-.4.621.621 0 00-.22-.237.516.516 0 00-.29-.084.519.519 0 00-.29.084.679.679 0 00-.215.237 1.309 1.309 0 00-.136.4c-.03.161-.044.349-.044.562zm5.691 1.392V9.245h1.234V14h-1.16l-.074-1.143zm.14-.98l.343-.008c0 .319-.031.615-.092.887-.062.27-.154.504-.277.704-.123.199-.277.354-.462.465a1.265 1.265 0 01-.654.163 1.45 1.45 0 01-.536-.097 1.076 1.076 0 01-.418-.312 1.6 1.6 0 01-.277-.55 3.004 3.004 0 01-.097-.812V9.245h1.235v3.085c0 .129.012.24.036.334a.68.68 0 00.096.224c.041.059.09.101.145.128a.484.484 0 00.189.035c.194 0 .346-.05.457-.15a.836.836 0 00.242-.417c.047-.179.07-.381.07-.607zm3.199-1.617V14h-1.234V9.245h1.155l.079 1.015zm-.184 1.2l-.33.009a3.628 3.628 0 01.101-.963c.077-.284.183-.526.321-.725.141-.202.308-.356.501-.461.196-.109.415-.163.655-.163.184 0 .353.032.505.097a.983.983 0 01.4.308c.112.14.198.328.259.562.062.231.093.516.093.853V14h-1.235v-3.032a1.43 1.43 0 00-.062-.475.41.41 0 00-.184-.237.614.614 0 00-.308-.07.51.51 0 00-.312.1.758.758 0 00-.228.269 1.609 1.609 0 00-.137.404 2.5 2.5 0 00-.039.501zm5.48-2.215v.927h-2.426v-.927h2.426zm-1.868-1.173h1.226v4.478c0 .132.013.233.04.303.026.07.066.12.118.15.056.026.129.039.22.039a.838.838 0 00.29-.035v.962a1.684 1.684 0 01-.307.088c-.106.02-.232.03-.378.03-.246 0-.46-.046-.642-.14a.954.954 0 01-.417-.448c-.1-.208-.15-.48-.15-.817v-4.61zm4.663 4.645a.326.326 0 00-.084-.22.975.975 0 00-.263-.198 4.479 4.479 0 00-.479-.233 5.058 5.058 0 01-.576-.272 2.019 2.019 0 01-.426-.312 1.152 1.152 0 01-.26-.391 1.352 1.352 0 01-.088-.501 1.4 1.4 0 01.11-.558c.077-.173.185-.324.326-.453.14-.132.312-.234.514-.308a1.97 1.97 0 01.69-.114c.357 0 .663.063.918.19.258.122.456.295.593.518.138.222.207.482.207.778h-1.231a.77.77 0 00-.048-.282.393.393 0 00-.158-.197.51.51 0 00-.286-.07.459.459 0 00-.4.21.41.41 0 00-.057.22c0 .064.013.122.04.171.029.05.074.098.136.145.062.047.144.097.246.15.106.05.234.105.387.167.316.117.575.243.778.378.205.134.357.293.457.474.099.179.149.4.149.664 0 .21-.041.403-.123.575a1.255 1.255 0 01-.347.449 1.614 1.614 0 01-.549.29 2.32 2.32 0 01-.708.1c-.384 0-.707-.075-.971-.228a1.572 1.572 0 01-.598-.584 1.505 1.505 0 01-.202-.747h1.169a.805.805 0 00.088.373c.056.088.13.15.224.185a.884.884 0 00.312.053.764.764 0 00.281-.044.352.352 0 00.172-.145.466.466 0 00.057-.233zm5.344-5.467V14h-1.235V7.25h1.235zm.834 4.535v-.32c0-.373.044-.702.132-.99.091-.287.22-.527.387-.72.167-.196.368-.344.602-.444.237-.102.503-.154.795-.154.296 0 .562.052.796.154.237.1.439.248.606.444.17.193.301.433.391.72.091.288.137.617.137.99v.32c0 .37-.046.697-.137.985-.09.287-.221.528-.391.725a1.6 1.6 0 01-.602.444c-.234.1-.498.149-.791.149-.293 0-.558-.05-.795-.15a1.649 1.649 0 01-.607-.443 2.042 2.042 0 01-.391-.725 3.36 3.36 0 01-.132-.985zm1.231-.32v.32c0 .22.015.41.044.571.032.162.078.295.136.4a.631.631 0 00.22.233.57.57 0 00.294.075.595.595 0 00.299-.075.55.55 0 00.215-.233c.059-.105.102-.238.128-.4.029-.16.044-.351.044-.57v-.322c0-.213-.016-.401-.049-.562a1.309 1.309 0 00-.136-.4.62.62 0 00-.219-.237.52.52 0 00-.291-.084.519.519 0 00-.29.084.688.688 0 00-.215.237 1.336 1.336 0 00-.136.4 3.205 3.205 0 00-.044.562zm5.502 1.252a.326.326 0 00-.084-.22.975.975 0 00-.263-.198c-.12-.07-.28-.148-.479-.233a5.058 5.058 0 01-.576-.272 2.019 2.019 0 01-.426-.312 1.149 1.149 0 01-.259-.391 1.332 1.332 0 01-.088-.501 1.4 1.4 0 01.109-.558c.077-.173.185-.324.326-.453.14-.132.312-.234.514-.308a1.97 1.97 0 01.69-.114c.357 0 .663.063.918.19.258.122.456.295.593.518.138.222.207.482.207.778h-1.23a.77.77 0 00-.049-.282.393.393 0 00-.158-.197.51.51 0 00-.286-.07.459.459 0 00-.4.21.41.41 0 00-.057.22c0 .064.014.122.04.171a.52.52 0 00.136.145c.062.047.144.097.246.15.106.05.235.105.387.167.316.117.576.243.778.378.205.134.357.293.457.474.099.179.149.4.149.664 0 .21-.041.403-.123.575a1.255 1.255 0 01-.347.449 1.604 1.604 0 01-.549.29 2.32 2.32 0 01-.708.1c-.384 0-.707-.075-.971-.228a1.572 1.572 0 01-.598-.584 1.515 1.515 0 01-.202-.747h1.169a.805.805 0 00.088.373c.056.088.13.15.224.185a.884.884 0 00.312.053.764.764 0 00.281-.044.348.348 0 00.172-.145.466.466 0 00.057-.233zm3.893 1.37c-.325 0-.613-.049-.865-.149-.249-.1-.46-.243-.633-.43a1.928 1.928 0 01-.396-.69 2.909 2.909 0 01-.136-.923v-.391c0-.387.044-.725.132-1.015.088-.293.212-.54.374-.739.161-.199.358-.347.593-.443.237-.1.505-.15.804-.15.299 0 .561.05.787.15.228.096.417.243.567.44.149.192.262.433.338.72.076.287.114.62.114 1.002v.562h-3.186v-.866h1.978v-.11c0-.193-.021-.354-.062-.483a.554.554 0 00-.193-.294.582.582 0 00-.352-.097.608.608 0 00-.312.075.514.514 0 00-.202.233c-.05.105-.086.243-.11.413a4.484 4.484 0 00-.035.602v.391c0 .22.019.404.057.554a.982.982 0 00.167.36c.076.09.169.157.277.198.108.038.234.057.378.057a1.347 1.347 0 001.033-.435l.492.747a1.913 1.913 0 01-.888.606 2.25 2.25 0 01-.721.106zm5.705-3.857V14h-1.235V9.245h1.16l.075.985zm-.176 1.23l-.339.009a3.896 3.896 0 01.088-.923c.065-.281.161-.526.29-.734.132-.208.298-.37.497-.483a1.38 1.38 0 01.699-.172c.172 0 .332.032.479.097a.97.97 0 01.382.294c.108.132.192.305.25.519.059.21.088.464.088.76V14h-1.23v-3.023c0-.211-.021-.373-.062-.484a.424.424 0 00-.175-.237.53.53 0 00-.282-.07.505.505 0 00-.307.096.707.707 0 00-.216.273 1.803 1.803 0 00-.123.404 3.036 3.036 0 00-.039.501zm2.316-.123l-.444.057a3.64 3.64 0 01.083-.874c.062-.273.157-.51.286-.712.129-.205.29-.365.483-.48.197-.114.424-.17.682-.17.193 0 .369.031.527.096a.968.968 0 01.404.312c.114.14.201.327.259.558.062.231.093.513.093.844V14h-1.235v-3.028c0-.214-.021-.378-.062-.492-.041-.114-.099-.192-.175-.233a.57.57 0 00-.273-.062.454.454 0 00-.277.088.7.7 0 00-.193.247 1.347 1.347 0 00-.119.364 2.444 2.444 0 00-.039.453zm3.159.448v-.32c0-.373.044-.702.132-.99.091-.287.22-.527.387-.72.167-.196.368-.344.602-.444.237-.102.502-.154.795-.154.296 0 .561.052.796.154.237.1.439.248.606.444.17.193.301.433.391.72.091.288.137.617.137.99v.32c0 .37-.046.697-.137.985-.09.287-.221.528-.391.725a1.6 1.6 0 01-.602.444c-.234.1-.498.149-.791.149-.293 0-.558-.05-.795-.15a1.64 1.64 0 01-.607-.443c-.17-.197-.3-.438-.391-.725a3.36 3.36 0 01-.132-.985zm1.231-.32v.32c0 .22.014.41.044.571.032.162.077.295.136.4a.631.631 0 00.22.233.57.57 0 00.294.075.597.597 0 00.299-.075.55.55 0 00.215-.233 1.24 1.24 0 00.128-.4c.029-.16.044-.351.044-.57v-.322c0-.213-.016-.401-.049-.562a1.309 1.309 0 00-.136-.4.614.614 0 00-.22-.237.516.516 0 00-.29-.084.519.519 0 00-.29.084.688.688 0 00-.215.237 1.309 1.309 0 00-.136.4c-.03.161-.044.349-.044.562zm4.601-1.205V14h-1.235V9.245h1.156l.079 1.015zm-.185 1.2l-.329.009a3.628 3.628 0 01.101-.963c.076-.284.183-.526.321-.725.14-.202.307-.356.501-.461.196-.109.414-.163.654-.163.185 0 .353.032.506.097a.996.996 0 01.4.308c.111.14.197.328.259.562.061.231.092.516.092.853V14h-1.235v-3.032c0-.205-.02-.364-.061-.475a.411.411 0 00-.185-.237.61.61 0 00-.307-.07.506.506 0 00-.312.1.77.77 0 00-.229.269 1.61 1.61 0 00-.136.404 2.497 2.497 0 00-.04.501zm5.322 2.628c-.325 0-.614-.05-.866-.15-.249-.1-.46-.243-.632-.43a1.928 1.928 0 01-.396-.69 2.88 2.88 0 01-.136-.923v-.391c0-.387.044-.725.132-1.015.088-.293.212-.54.373-.739.161-.199.359-.347.593-.443.238-.1.506-.15.805-.15.298 0 .561.05.786.15.229.096.418.243.567.44.15.192.262.433.339.72.076.287.114.62.114 1.002v.562h-3.186v-.866h1.977v-.11c0-.193-.02-.354-.061-.483a.555.555 0 00-.194-.294.58.58 0 00-.351-.097.608.608 0 00-.312.075.514.514 0 00-.202.233 1.42 1.42 0 00-.11.413 4.324 4.324 0 00-.035.602v.391c0 .22.019.404.057.554a.982.982 0 00.167.36c.076.09.168.157.277.198.108.038.234.057.378.057a1.343 1.343 0 001.032-.435l.493.747a1.913 1.913 0 01-.888.606 2.25 2.25 0 01-.721.106zm3.525-.633l.993-4.21h1.283l-1.565 5.467c-.035.12-.083.249-.145.387-.061.14-.143.272-.246.395a1.137 1.137 0 01-.378.308c-.152.079-.335.118-.549.118a1.29 1.29 0 01-.264-.022 2.536 2.536 0 01-.246-.061v-.958h.075a.792.792 0 00.404-.053.44.44 0 00.198-.167c.053-.076.097-.171.132-.286l.308-.918zm-.255-4.21l.738 3.41.167 1.389-.831.079-1.393-4.878h1.319zm6.257 3.503l.831-3.503h.773l-.189 1.424-.817 3.331h-.646l.048-1.252zm-.237-3.503l.567 3.494-.004 1.261h-.756l-.989-4.755h1.182zm2.465 3.437l.55-3.437h1.191L177.644 14h-.756l.008-1.318zm-.518-3.437l.83 3.476.058 1.279h-.646l-.818-3.322-.184-1.433h.76zm4.078-1.995V14h-1.23V7.25h1.23zm-.176 4.21l-.334.009c0-.334.034-.642.101-.923.071-.281.172-.526.304-.734.131-.208.291-.37.479-.483.19-.115.399-.172.628-.172.196 0 .375.034.536.101.161.068.3.173.418.317.12.143.212.332.276.567.065.234.097.52.097.857V14h-1.235v-3.01c0-.205-.02-.367-.061-.484a.433.433 0 00-.185-.246.58.58 0 00-.307-.075.566.566 0 00-.339.102.694.694 0 00-.22.268 1.539 1.539 0 00-.123.404 3.421 3.421 0 00-.035.501zm5.322 2.628c-.325 0-.614-.05-.866-.15-.249-.1-.46-.243-.632-.43a1.928 1.928 0 01-.396-.69 2.88 2.88 0 01-.136-.923v-.391c0-.387.044-.725.132-1.015.088-.293.212-.54.373-.739.161-.199.359-.347.593-.443.238-.1.506-.15.805-.15.298 0 .561.05.786.15.229.096.418.243.567.44.15.192.262.433.339.72.076.287.114.62.114 1.002v.562h-3.186v-.866h1.977v-.11c0-.193-.02-.354-.061-.483a.555.555 0 00-.194-.294.581.581 0 00-.351-.097.608.608 0 00-.312.075.508.508 0 00-.202.233 1.42 1.42 0 00-.11.413 4.324 4.324 0 00-.035.602v.391c0 .22.019.404.057.554a.982.982 0 00.167.36c.076.09.168.157.277.198.108.038.234.057.378.057a1.343 1.343 0 001.032-.435l.492.747a1.776 1.776 0 01-.351.334c-.15.111-.328.202-.536.272a2.25 2.25 0 01-.721.106zm3.599-3.828V14h-1.235V9.245h1.156l.079 1.015zm-.184 1.2l-.33.009a3.628 3.628 0 01.101-.963c.076-.284.183-.526.321-.725.141-.202.308-.356.501-.461a1.33 1.33 0 01.655-.163c.184 0 .353.032.505.097a.99.99 0 01.4.308c.111.14.198.328.259.562.062.231.092.516.092.853V14h-1.234v-3.032a1.43 1.43 0 00-.062-.475.41.41 0 00-.184-.237.617.617 0 00-.308-.07.51.51 0 00-.312.1.77.77 0 00-.229.269 1.61 1.61 0 00-.136.404 2.5 2.5 0 00-.039.501zm7.554-2.215v.927h-2.426v-.927h2.426zm-1.868-1.173h1.226v4.478c0 .132.013.233.04.303.026.07.066.12.118.15.056.026.129.039.22.039a.838.838 0 00.29-.035v.962a1.707 1.707 0 01-.307.088c-.106.02-.232.03-.378.03-.246 0-.46-.046-.642-.14a.954.954 0 01-.417-.448c-.1-.208-.15-.48-.15-.817v-4.61zm3.784 2.232V14h-1.231V9.245h1.161l.07 1.06zm1.12-1.094l-.017 1.226a2.655 2.655 0 00-.404-.035.849.849 0 00-.352.066.588.588 0 00-.242.189.882.882 0 00-.14.307 1.844 1.844 0 00-.057.418l-.233-.088c0-.31.023-.595.07-.853.05-.26.123-.486.22-.676.096-.194.212-.343.347-.449a.747.747 0 01.466-.158c.058 0 .12.006.184.018.068.009.12.02.158.035zm2.593 3.696v-2.197a.898.898 0 00-.053-.343.34.34 0 00-.149-.185.432.432 0 00-.237-.061.489.489 0 00-.264.066.404.404 0 00-.158.188.81.81 0 00-.048.295h-1.235c0-.205.039-.399.118-.58.079-.185.195-.346.347-.484.156-.14.34-.25.554-.33.214-.078.454-.118.721-.118.316 0 .598.054.844.163.246.105.441.274.584.505.144.232.215.532.215.901v2.118c0 .267.014.484.04.65.029.168.072.311.127.431V14h-1.239a2.08 2.08 0 01-.127-.492c-.027-.2-.04-.4-.04-.602zm.15-1.81l.004.738h-.453a.766.766 0 00-.307.057.597.597 0 00-.216.162.674.674 0 00-.131.237c-.027.091-.04.188-.04.29 0 .115.016.211.048.29a.38.38 0 00.145.18.42.42 0 00.229.062.704.704 0 00.351-.083.568.568 0 00.22-.202c.05-.08.066-.153.049-.22l.281.479a2.212 2.212 0 01-.145.338 1.47 1.47 0 01-.224.325c-.091.1-.204.182-.339.247a1.102 1.102 0 01-.47.092c-.255 0-.488-.059-.699-.176a1.303 1.303 0 01-.501-.492c-.12-.211-.18-.461-.18-.752 0-.24.038-.457.114-.65.08-.196.197-.362.352-.497.155-.137.352-.243.589-.316.237-.073.515-.11.835-.11h.488zm4.302 1.854v-5.7h1.235V14l-1.116.004-.119-1.054zm-2.465-1.16v-.317c0-.387.032-.725.096-1.015.068-.29.167-.532.299-.725.132-.193.293-.337.483-.43.194-.097.415-.146.664-.146.226 0 .423.057.593.172.173.11.32.268.44.47.12.202.217.44.29.716.073.275.124.577.154.905v.457c-.036.311-.09.601-.163.87-.07.27-.167.505-.29.704-.12.199-.265.356-.435.47-.17.111-.368.167-.593.167a1.43 1.43 0 01-.664-.15c-.19-.1-.352-.246-.483-.439a2.262 2.262 0 01-.295-.72 4.572 4.572 0 01-.096-.99zm1.23-.317v.317c0 .222.01.414.031.575.023.158.06.289.11.391.052.1.121.175.206.224.085.047.191.07.317.07a.617.617 0 00.399-.122.751.751 0 00.229-.347c.053-.15.082-.321.088-.515v-.83a2.142 2.142 0 00-.057-.435 1.103 1.103 0 00-.136-.33.632.632 0 00-.22-.21.58.58 0 00-.299-.075.627.627 0 00-.316.074.516.516 0 00-.203.233 1.508 1.508 0 00-.114.4 4.17 4.17 0 00-.035.58zm4.689-2.228V14h-1.235V9.245h1.235zm-1.292-1.23c0-.19.06-.348.18-.47a.656.656 0 01.492-.19c.208 0 .372.063.493.19.12.122.18.28.18.47a.647.647 0 01-.185.47.644.644 0 01-.483.184.672.672 0 01-.497-.184.655.655 0 01-.18-.47zm3.476 2.245V14h-1.235V9.245h1.156l.079 1.015zm-.185 1.2l-.329.009a3.628 3.628 0 01.101-.963c.076-.284.183-.526.321-.725.14-.202.307-.356.501-.461a1.33 1.33 0 01.655-.163c.184 0 .353.032.505.097a.996.996 0 01.4.308c.111.14.198.328.259.562.062.231.092.516.092.853V14h-1.235v-3.032c0-.205-.02-.364-.061-.475a.411.411 0 00-.185-.237.61.61 0 00-.307-.07.51.51 0 00-.312.1.77.77 0 00-.229.269 1.61 1.61 0 00-.136.404 2.573 2.573 0 00-.04.501zm5.907-2.215h1.116V14c0 .434-.084.788-.251 1.063a1.46 1.46 0 01-.689.611 2.487 2.487 0 01-1.534.136 2.38 2.38 0 01-.536-.188 1.43 1.43 0 01-.427-.3l.418-.852c.114.114.264.211.448.29.185.082.366.123.545.123a.984.984 0 00.431-.083.519.519 0 00.263-.273 1.21 1.21 0 00.093-.518v-3.66l.123-1.104zm-2.655 2.545v-.317c0-.387.037-.725.11-1.015.074-.29.179-.532.317-.725.137-.193.306-.337.505-.43a1.55 1.55 0 01.677-.146c.261 0 .479.057.655.172.175.11.317.268.426.47.111.202.196.44.255.716.061.275.108.577.14.905v.457c-.032.311-.085.601-.158.87-.07.27-.164.505-.281.704-.117.199-.261.356-.431.47-.17.111-.375.167-.615.167-.246 0-.469-.05-.668-.15a1.409 1.409 0 01-.505-.439 2.21 2.21 0 01-.317-.72 4.028 4.028 0 01-.11-.99zm1.235-.317v.317c0 .222.013.414.04.575.029.158.073.289.132.391.058.1.133.175.224.224.094.047.203.07.329.07a.679.679 0 00.427-.122.727.727 0 00.237-.347c.053-.15.082-.321.088-.515v-.83a1.79 1.79 0 00-.057-.435 1.104 1.104 0 00-.137-.33.6.6 0 00-.228-.21.657.657 0 00-.321-.075.665.665 0 00-.325.074.605.605 0 00-.229.233 1.336 1.336 0 00-.136.4 3.323 3.323 0 00-.044.58zm8.64.396h1.279c-.018.48-.115.886-.29 1.217a1.764 1.764 0 01-.752.747c-.322.17-.712.255-1.169.255-.354 0-.669-.059-.945-.176a1.896 1.896 0 01-.703-.527 2.343 2.343 0 01-.439-.857 4.353 4.353 0 01-.145-1.182V10.26c0-.445.051-.84.154-1.182.105-.343.255-.63.448-.861.196-.235.432-.41.707-.528.279-.12.592-.18.941-.18.466 0 .855.088 1.169.264.313.176.555.432.725.769.173.334.277.743.312 1.226h-1.283c-.009-.305-.044-.543-.106-.716a.616.616 0 00-.281-.37c-.129-.073-.308-.11-.536-.11-.17 0-.317.032-.44.093a.707.707 0 00-.303.286 1.556 1.556 0 00-.176.518 4.95 4.95 0 00-.052.783v1.094c0 .302.016.56.048.773.032.211.084.384.154.519a.66.66 0 00.285.294c.124.062.279.092.466.092.217 0 .391-.032.523-.096a.6.6 0 00.299-.347c.065-.167.101-.405.11-.712zm3.371-4.267V14h-1.288V7.602h1.288zm2.003 2.72v1.063h-2.329v-1.063h2.329zm.247-2.72v1.067h-2.576V7.602h2.576zM233.274 14h-1.129l.008-1.063h1.121c.31 0 .552-.056.725-.167.173-.112.294-.288.365-.528.073-.24.11-.555.11-.945V10.3c0-.296-.019-.547-.057-.752a1.238 1.238 0 00-.194-.5.802.802 0 00-.365-.286 1.517 1.517 0 00-.566-.093h-1.169V7.602h1.169c.369 0 .704.06 1.006.18.302.12.561.296.778.527.216.229.383.511.501.848a3.5 3.5 0 01.175 1.152v.988c0 .434-.058.818-.175 1.152a2.393 2.393 0 01-.501.848 2.107 2.107 0 01-.778.523c-.305.12-.646.18-1.024.18zm-.382-6.398V14h-1.288V7.602h1.288zm5.849 5.115a.326.326 0 00-.084-.22.975.975 0 00-.263-.198 4.479 4.479 0 00-.479-.233 5.058 5.058 0 01-.576-.272 2.019 2.019 0 01-.426-.312 1.152 1.152 0 01-.26-.391 1.352 1.352 0 01-.088-.501 1.4 1.4 0 01.11-.558c.076-.173.185-.324.325-.453.141-.132.312-.234.515-.308a1.97 1.97 0 01.69-.114c.357 0 .663.063.918.19.258.122.456.295.593.518.138.222.207.482.207.778h-1.231a.77.77 0 00-.048-.282.393.393 0 00-.158-.197.51.51 0 00-.286-.07.459.459 0 00-.4.21.41.41 0 00-.057.22c0 .064.013.122.04.171.029.05.074.098.136.145.061.047.143.097.246.15.106.05.234.105.387.167.316.117.575.243.778.378.205.134.357.293.457.474.099.179.149.4.149.664 0 .21-.041.403-.123.575a1.255 1.255 0 01-.347.449 1.623 1.623 0 01-.549.29 2.32 2.32 0 01-.708.1c-.384 0-.708-.075-.971-.228a1.572 1.572 0 01-.598-.584 1.505 1.505 0 01-.202-.747h1.169a.805.805 0 00.088.373.44.44 0 00.224.185.884.884 0 00.312.053.764.764 0 00.281-.044.352.352 0 00.172-.145.466.466 0 00.057-.233zm5.168.03l.83-3.502h.774l-.189 1.424-.818 3.331h-.646l.049-1.252zm-.238-3.502l.567 3.494-.004 1.261h-.756l-.989-4.755h1.182zm2.466 3.437l.549-3.437h1.191L246.884 14h-.756l.009-1.318zm-.519-3.437l.831 3.476.057 1.279h-.646l-.818-3.322-.184-1.433h.76zm4.171 0V14h-1.235V9.245h1.235zm-1.292-1.23c0-.19.06-.348.18-.47a.656.656 0 01.492-.19c.208 0 .372.063.492.19.12.122.18.28.18.47a.646.646 0 01-.184.47.646.646 0 01-.484.184.67.67 0 01-.496-.184.655.655 0 01-.18-.47zm4.341 1.23v.927h-2.425v-.927h2.425zm-1.867-1.173h1.226v4.478c0 .132.013.233.039.303.027.07.066.12.119.15.056.026.129.039.22.039a.86.86 0 00.29-.035v.962a1.695 1.695 0 01-.308.088c-.105.02-.231.03-.378.03-.246 0-.46-.046-.641-.14a.96.96 0 01-.418-.448c-.099-.208-.149-.48-.149-.817v-4.61zm3.753-.822V14h-1.231V7.25h1.231zm-.176 4.21l-.334.009c0-.334.034-.642.101-.923.07-.281.171-.526.303-.734.132-.208.292-.37.479-.483a1.2 1.2 0 01.629-.172c.196 0 .375.034.536.101.161.068.3.173.417.317.12.143.213.332.277.567.065.234.097.52.097.857V14h-1.235v-3.01c0-.205-.021-.367-.062-.484a.431.431 0 00-.184-.246.584.584 0 00-.308-.075.563.563 0 00-.338.102.694.694 0 00-.22.268 1.467 1.467 0 00-.123.404 3.421 3.421 0 00-.035.501zm7.554-2.215v.927h-2.426v-.927h2.426zm-1.868-1.173h1.226v4.478a.91.91 0 00.04.303c.026.07.066.12.119.15.055.026.129.039.219.039a.838.838 0 00.29-.035v.962a1.684 1.684 0 01-.307.088c-.106.02-.232.03-.378.03-.246 0-.46-.046-.642-.14a.959.959 0 01-.417-.448c-.1-.208-.15-.48-.15-.817v-4.61zm3.753-.822V14h-1.23V7.25h1.23zm-.175 4.21l-.334.009c0-.334.033-.642.101-.923.07-.281.171-.526.303-.734.132-.208.291-.37.479-.483.19-.115.4-.172.628-.172.197 0 .375.034.536.101.162.068.301.173.418.317.12.143.212.332.277.567.064.234.096.52.096.857V14h-1.234v-3.01c0-.205-.021-.367-.062-.484a.433.433 0 00-.185-.246.58.58 0 00-.307-.075.566.566 0 00-.339.102.692.692 0 00-.219.268 1.467 1.467 0 00-.123.404 3.288 3.288 0 00-.035.501zm4.697-2.215V14h-1.235V9.245h1.235zm-1.292-1.23c0-.19.06-.348.18-.47a.66.66 0 01.493-.19c.208 0 .372.063.492.19.12.122.18.28.18.47a.647.647 0 01-.185.47.644.644 0 01-.483.184.674.674 0 01-.497-.184.655.655 0 01-.18-.47zm4.377 4.702a.33.33 0 00-.083-.22.998.998 0 00-.264-.198c-.12-.07-.28-.148-.479-.233a5.058 5.058 0 01-.576-.272 2.019 2.019 0 01-.426-.312 1.149 1.149 0 01-.259-.391 1.332 1.332 0 01-.088-.501 1.4 1.4 0 01.11-.558c.076-.173.184-.324.325-.453a1.48 1.48 0 01.514-.308 1.97 1.97 0 01.69-.114c.358 0 .664.063.919.19.257.122.455.295.593.518.138.222.206.482.206.778h-1.23a.77.77 0 00-.048-.282.395.395 0 00-.159-.197.506.506 0 00-.285-.07.456.456 0 00-.4.21.41.41 0 00-.057.22c0 .064.013.122.039.171.03.05.075.098.136.145.062.047.144.097.247.15.105.05.234.105.386.167.317.117.576.243.778.378.205.134.358.293.457.474.1.179.15.4.15.664 0 .21-.041.403-.123.575-.08.173-.195.323-.348.449a1.604 1.604 0 01-.549.29 2.32 2.32 0 01-.708.1c-.383 0-.707-.075-.971-.228a1.569 1.569 0 01-.597-.584 1.505 1.505 0 01-.202-.747h1.168a.818.818 0 00.088.373c.056.088.131.15.224.185a.884.884 0 00.312.053.77.77 0 00.282-.044.35.35 0 00.171-.145.466.466 0 00.057-.233zm5.282-2.558v5.67h-1.226V9.244h1.134l.092.914zm2.47 1.301v.316c0 .372-.032.702-.096.99a2.246 2.246 0 01-.291.724 1.287 1.287 0 01-.474.448c-.191.1-.413.15-.668.15-.237 0-.442-.056-.615-.167a1.423 1.423 0 01-.431-.47 2.757 2.757 0 01-.281-.699 6.419 6.419 0 01-.163-.857v-.492c.035-.325.087-.624.154-.897a2.7 2.7 0 01.277-.716c.12-.202.265-.357.435-.466.173-.111.378-.167.615-.167.258 0 .482.047.672.14.194.095.353.237.479.427.129.188.226.426.291.716.064.29.096.63.096 1.02zm-1.23.316v-.316c0-.229-.013-.423-.04-.585a1.252 1.252 0 00-.114-.395.516.516 0 00-.207-.224.638.638 0 00-.312-.07.68.68 0 00-.316.07.553.553 0 00-.215.206 1.018 1.018 0 00-.128.326c-.029.126-.045.27-.048.43v.862c.006.19.031.358.075.505a.742.742 0 00.224.351.632.632 0 00.417.128c.126 0 .23-.026.312-.08a.573.573 0 00.207-.236c.052-.106.089-.24.11-.4.023-.162.035-.352.035-.572zm3.217-1.472V14h-1.231V9.245h1.16l.071 1.06zm1.12-1.094l-.017 1.226a2.634 2.634 0 00-.405-.035.844.844 0 00-.351.066.582.582 0 00-.242.189.883.883 0 00-.141.307 1.965 1.965 0 00-.057.418l-.233-.088c0-.31.024-.595.071-.853.049-.26.123-.486.219-.676a1.29 1.29 0 01.348-.449.745.745 0 01.465-.158c.059 0 .12.006.185.018.067.009.12.02.158.035zm.33 2.575v-.32c0-.373.044-.702.132-.99.09-.287.219-.527.386-.72.167-.196.368-.344.602-.444a1.99 1.99 0 01.796-.154c.296 0 .561.052.795.154.237.1.44.248.607.444.17.193.3.433.391.72.091.288.136.617.136.99v.32c0 .37-.045.697-.136.985a2.027 2.027 0 01-.391.725 1.608 1.608 0 01-.602.444c-.235.1-.499.149-.791.149-.293 0-.559-.05-.796-.15a1.646 1.646 0 01-.606-.443 2.011 2.011 0 01-.391-.725 3.36 3.36 0 01-.132-.985zm1.23-.32v.32c0 .22.015.41.044.571.032.162.078.295.136.4a.631.631 0 00.22.233c.085.05.183.075.295.075.111 0 .21-.025.298-.075a.559.559 0 00.216-.233 1.24 1.24 0 00.127-.4c.029-.16.044-.351.044-.57v-.322c0-.213-.016-.401-.048-.562a1.335 1.335 0 00-.137-.4.612.612 0 00-.219-.237.519.519 0 00-.29-.084.516.516 0 00-.29.084.69.69 0 00-.216.237 1.336 1.336 0 00-.136.4 3.205 3.205 0 00-.044.562zm4.724 1.586l.765-3.806h1.283L289.48 14h-.769l.026-.95zm-.452-3.806l.777 3.81.014.945h-.774l-1.305-4.755h1.288zm4.385 0V14h-1.234V9.245h1.234zm-1.292-1.23c0-.19.06-.348.181-.47a.656.656 0 01.492-.19c.208 0 .372.063.492.19.12.122.18.28.18.47a.646.646 0 01-.184.47.648.648 0 01-.484.184.67.67 0 01-.496-.184.652.652 0 01-.181-.47zm4.571 4.935v-5.7h1.235V14l-1.117.004-.118-1.054zm-2.466-1.16v-.317c0-.387.033-.725.097-1.015.067-.29.167-.532.299-.725.132-.193.293-.337.483-.43.194-.097.415-.146.664-.146.225 0 .423.057.593.172a1.4 1.4 0 01.44.47c.12.202.216.44.29.716.073.275.124.577.153.905v.457c-.035.311-.089.601-.162.87-.07.27-.167.505-.29.704-.12.199-.265.356-.435.47a1.06 1.06 0 01-.594.167c-.249 0-.47-.05-.663-.15a1.315 1.315 0 01-.483-.439 2.24 2.24 0 01-.295-.72 4.568 4.568 0 01-.097-.99zm1.231-.317v.317c0 .222.01.414.031.575.023.158.06.289.109.391.053.1.122.175.207.224.085.047.19.07.316.07a.618.618 0 00.4-.122.751.751 0 00.229-.347c.053-.15.082-.321.088-.515v-.83a2.142 2.142 0 00-.057-.435 1.104 1.104 0 00-.137-.33.621.621 0 00-.219-.21.58.58 0 00-.299-.075.634.634 0 00-.317.074.514.514 0 00-.202.233c-.05.103-.088.236-.114.4a4.17 4.17 0 00-.035.58zm5.313 2.615c-.325 0-.614-.05-.866-.15-.249-.1-.46-.243-.633-.43a1.926 1.926 0 01-.395-.69 2.88 2.88 0 01-.136-.923v-.391c0-.387.044-.725.131-1.015a2.14 2.14 0 01.374-.739c.161-.199.359-.347.593-.443.238-.1.506-.15.804-.15.299 0 .561.05.787.15.229.096.418.243.567.44.149.192.262.433.338.72.076.287.115.62.115 1.002v.562h-3.186v-.866h1.977v-.11c0-.193-.02-.354-.061-.483a.555.555 0 00-.194-.294.581.581 0 00-.351-.097.608.608 0 00-.312.075.516.516 0 00-.203.233 1.456 1.456 0 00-.109.413 4.308 4.308 0 00-.036.602v.391c0 .22.019.404.058.554a.966.966 0 00.167.36.66.66 0 00.276.198c.109.038.235.057.378.057a1.343 1.343 0 001.033-.435l.492.747a1.776 1.776 0 01-.351.334c-.15.111-.328.202-.536.272-.208.07-.449.106-.721.106zm3.621-3.784V14h-1.231V9.245h1.161l.07 1.06zm1.121-1.094l-.018 1.226a2.655 2.655 0 00-.404-.035.849.849 0 00-.352.066.588.588 0 00-.242.189.882.882 0 00-.14.307 1.965 1.965 0 00-.057.418l-.233-.088c0-.31.023-.595.07-.853.05-.26.123-.486.22-.676.096-.194.212-.343.347-.449a.747.747 0 01.466-.158c.058 0 .12.006.184.018.068.009.12.02.159.035zm-.027 4.162c0-.194.065-.355.194-.484.128-.132.303-.198.522-.198.22 0 .395.066.523.198.129.13.194.29.194.484a.656.656 0 01-.194.483c-.128.129-.303.193-.523.193-.219 0-.394-.064-.522-.193a.656.656 0 01-.194-.483zm6.482-2.558l1.31-3.212h.909l-1.819 4.012V14h-.804v-2.386L309 7.602h.915l1.309 3.212zm2.492.589c0-.692.167-1.238.501-1.64.337-.404.781-.606 1.331-.606.551 0 .994.197 1.327.59.337.392.51.926.519 1.603v.501c0 .689-.167 1.233-.501 1.635-.334.401-.779.602-1.336.602-.551 0-.993-.195-1.327-.585-.331-.39-.502-.917-.514-1.582v-.518zm.778.448c0 .49.095.875.285 1.156.194.278.453.417.778.417.686 0 1.039-.495 1.059-1.485v-.536c0-.487-.096-.87-.29-1.152-.193-.284-.452-.426-.778-.426-.319 0-.575.142-.769.427-.19.28-.285.663-.285 1.146v.453zm6.328 1.731c-.258.337-.634.506-1.13.506-.43 0-.755-.148-.975-.444-.22-.299-.331-.732-.334-1.3V9.244h.773v3.041c0 .741.223 1.112.668 1.112.472 0 .797-.211.976-.633v-3.52h.778V14h-.739l-.017-.418zm6.302-.8a.574.574 0 00-.189-.43c-.126-.12-.37-.26-.73-.422-.419-.173-.715-.32-.888-.444a1.276 1.276 0 01-.382-.417 1.172 1.172 0 01-.127-.563c0-.386.14-.707.421-.962.285-.258.646-.387 1.086-.387.463 0 .835.135 1.116.405.281.269.422.615.422 1.037h-.773a.756.756 0 00-.216-.545.72.72 0 00-.549-.229c-.229 0-.409.06-.541.18a.613.613 0 00-.193.475c0 .158.047.286.141.382.096.097.326.224.69.383.577.225.969.446 1.177.663.208.214.312.487.312.818 0 .413-.142.744-.426.993-.284.246-.665.369-1.142.369-.496 0-.897-.142-1.205-.426a1.41 1.41 0 01-.461-1.081h.782c.009.263.09.47.242.62.152.149.366.223.642.223.257 0 .454-.057.588-.171a.592.592 0 00.203-.47zm2.57-3.05c.296-.383.674-.575 1.134-.575.841 0 1.267.561 1.279 1.683V14h-.774v-3.124c0-.373-.062-.636-.188-.791-.124-.159-.31-.238-.559-.238a.8.8 0 00-.523.194 1.412 1.412 0 00-.369.505V14h-.777V7.25h.777v2.483zm3.41 1.67c0-.69.167-1.237.501-1.638.337-.405.781-.607 1.332-.607s.993.197 1.327.59c.337.392.51.926.519 1.603v.501c0 .689-.167 1.233-.501 1.635-.334.401-.78.602-1.336.602-.551 0-.993-.195-1.327-.585-.331-.39-.503-.917-.515-1.582v-.518zm.778.45c0 .488.096.874.286 1.155a.902.902 0 00.778.417c.685 0 1.038-.495 1.059-1.485v-.536c0-.487-.097-.87-.29-1.152-.194-.284-.453-.426-.778-.426-.319 0-.576.142-.769.427-.19.28-.286.663-.286 1.146v.453zm6.328 1.73c-.257.337-.634.506-1.129.506-.431 0-.756-.148-.976-.444-.219-.299-.331-.732-.334-1.3V9.244h.774v3.041c0 .741.223 1.112.668 1.112.472 0 .797-.211.975-.633v-3.52h.778V14h-.738l-.018-.418zm2.765.418h-.778V7.25h.778V14zm1.063-2.593c0-.732.136-1.29.409-1.674.275-.384.669-.576 1.182-.576.454 0 .809.185 1.063.554V7.25h.778V14h-.712l-.039-.51c-.255.399-.62.598-1.094.598-.493 0-.879-.19-1.161-.571-.278-.384-.42-.925-.426-1.622v-.488zm.778.444c0 .533.079.926.237 1.178.158.249.416.373.774.373.386 0 .675-.194.865-.584v-2.4c-.199-.38-.486-.57-.861-.57-.357 0-.615.125-.773.377-.159.25-.239.633-.242 1.152v.474zm7.567 1.573c.258 0 .465-.079.62-.237.155-.161.24-.39.255-.685h.734c-.018.457-.18.836-.488 1.138a1.54 1.54 0 01-1.121.448c-.589 0-1.038-.185-1.349-.554-.307-.372-.461-.924-.461-1.657v-.523c0-.717.154-1.262.461-1.634.308-.375.756-.563 1.345-.563.486 0 .871.154 1.156.462.287.307.439.728.457 1.26h-.734c-.018-.35-.103-.614-.255-.79-.149-.176-.357-.264-.624-.264-.346 0-.602.114-.769.343-.167.226-.254.598-.259 1.116v.607c0 .56.082.955.246 1.186.167.232.429.347.786.347zm2.343-2.021c0-.692.167-1.238.501-1.64.336-.404.78-.606 1.331-.606.551 0 .993.197 1.327.59.337.392.51.926.519 1.603v.501c0 .689-.167 1.233-.501 1.635-.334.401-.779.602-1.336.602-.551 0-.993-.195-1.327-.585-.331-.39-.503-.917-.514-1.582v-.518zm.777.448c0 .49.096.875.286 1.156a.902.902 0 00.778.417c.685 0 1.038-.495 1.059-1.485v-.536c0-.487-.097-.87-.29-1.152-.193-.284-.453-.426-.778-.426-.319 0-.576.142-.769.427-.19.28-.286.663-.286 1.146v.453zm4.637-2.606l.022.514c.301-.401.687-.602 1.155-.602.841 0 1.267.561 1.279 1.683V14h-.773v-3.124c0-.373-.063-.636-.189-.791-.123-.159-.309-.238-.558-.238a.796.796 0 00-.523.194 1.389 1.389 0 00-.369.505V14h-.778V9.245h.734zm5.937 3.538a.574.574 0 00-.189-.43c-.126-.121-.369-.262-.73-.423-.419-.173-.715-.32-.887-.444a1.28 1.28 0 01-.383-.417 1.172 1.172 0 01-.127-.563c0-.386.14-.707.422-.962.284-.258.646-.387 1.085-.387.463 0 .835.135 1.116.405.282.269.422.615.422 1.037h-.773a.756.756 0 00-.216-.545.72.72 0 00-.549-.229c-.228 0-.409.06-.54.18a.61.61 0 00-.194.475c0 .158.047.286.141.382.096.097.326.224.69.383.577.225.969.446 1.177.663.208.214.312.487.312.818 0 .413-.142.744-.426.993-.284.246-.665.369-1.142.369-.495 0-.897-.142-1.204-.426a1.407 1.407 0 01-.462-1.081h.782c.009.263.09.47.242.62.152.149.366.223.642.223.257 0 .454-.057.589-.171a.594.594 0 00.202-.47zM368.709 14h-.778V9.245h.778V14zm.062-6.016a.499.499 0 01-.11.33c-.074.087-.185.131-.334.131-.147 0-.257-.044-.33-.132a.499.499 0 01-.11-.33c0-.13.037-.242.11-.333.073-.09.183-.136.33-.136.146 0 .256.047.329.14.076.091.115.201.115.33zm1.001 3.423c0-.732.137-1.29.409-1.674.276-.384.67-.576 1.182-.576.454 0 .809.185 1.064.554V7.25h.778V14h-.712l-.04-.51c-.255.399-.62.598-1.094.598-.492 0-.879-.19-1.16-.571-.279-.384-.421-.925-.427-1.622v-.488zm.778.444c0 .533.079.926.238 1.178.158.249.416.373.773.373.387 0 .675-.194.866-.584v-2.4c-.199-.38-.487-.57-.862-.57-.357 0-.615.125-.773.377-.158.25-.239.633-.242 1.152v.474zm5.551 2.237c-.592 0-1.046-.176-1.363-.527-.316-.355-.477-.873-.483-1.556v-.576c0-.709.154-1.264.461-1.665.311-.405.743-.607 1.297-.607.556 0 .972.177 1.248.532.275.354.416.907.422 1.657v.51h-2.655v.11c0 .51.096.88.286 1.111.193.232.47.347.831.347.228 0 .429-.042.602-.127.175-.088.339-.226.492-.413l.404.492c-.337.475-.851.712-1.542.712zm-.088-4.263c-.323 0-.561.112-.717.334-.155.22-.243.563-.263 1.028h1.872v-.105c-.021-.451-.103-.773-.246-.967-.141-.193-.356-.29-.646-.29zm4.57.15a1.894 1.894 0 00-.352-.031c-.398 0-.676.218-.835.655V14h-.777V9.245h.756l.013.484c.208-.381.502-.572.883-.572.123 0 .226.02.308.062l.004.756zm6.39 2.658l.72-3.388h.769L387.298 14h-.62l-.927-3.401-.905 3.401h-.624l-1.156-4.755h.765l.738 3.305.883-3.305h.615l.906 3.388zm3.085-2.9c.296-.384.673-.576 1.133-.576.841 0 1.267.561 1.279 1.683V14h-.773v-3.124c0-.373-.063-.636-.189-.791-.123-.159-.309-.238-.558-.238a.796.796 0 00-.523.194 1.389 1.389 0 00-.369.505V14h-.778V7.25h.778v2.483zm5.273 4.355c-.592 0-1.046-.176-1.362-.527-.317-.355-.478-.873-.484-1.556v-.576c0-.709.154-1.264.462-1.665.31-.405.742-.607 1.296-.607.557 0 .973.177 1.248.532.276.354.416.907.422 1.657v.51h-2.654v.11c0 .51.095.88.285 1.111.194.232.471.347.831.347.229 0 .429-.042.602-.127.176-.088.34-.226.492-.413l.405.492c-.337.475-.852.712-1.543.712zm-.088-4.263c-.322 0-.561.112-.716.334-.155.22-.243.563-.264 1.028h1.872v-.105c-.02-.451-.102-.773-.246-.967-.14-.193-.356-.29-.646-.29zm3.626-1.731v1.151h.716v.629h-.716v2.948c0 .188.03.33.092.427.061.096.167.145.316.145a.977.977 0 00.312-.053l-.008.659a1.7 1.7 0 01-.541.088c-.308 0-.542-.11-.703-.33-.161-.22-.242-.53-.242-.931V9.874h-.725v-.629h.725V8.094h.774zm2.421 1.639c.296-.384.674-.576 1.134-.576.841 0 1.267.561 1.279 1.683V14h-.774v-3.124c0-.373-.063-.636-.189-.791-.123-.159-.309-.238-.558-.238a.798.798 0 00-.523.194 1.412 1.412 0 00-.369.505V14h-.778V7.25h.778v2.483zm5.273 4.355c-.591 0-1.045-.176-1.362-.527-.316-.355-.477-.873-.483-1.556v-.576c0-.709.154-1.264.461-1.665.311-.405.743-.607 1.297-.607.556 0 .972.177 1.248.532.275.354.416.907.422 1.657v.51h-2.655v.11c0 .51.095.88.286 1.111.193.232.47.347.83.347.229 0 .43-.042.602-.127.176-.088.34-.226.493-.413l.404.492c-.337.475-.851.712-1.543.712zm-.087-4.263c-.323 0-.561.112-.717.334-.155.22-.243.563-.263 1.028h1.872v-.105c-.021-.451-.103-.773-.246-.967-.141-.193-.356-.29-.646-.29zm4.57.15a1.894 1.894 0 00-.352-.031c-.398 0-.676.218-.835.655V14h-.777V9.245h.755l.014.484c.208-.381.502-.572.883-.572a.69.69 0 01.308.062l.004.756zm4.144 2.733l.866-3.463h.826l-1.556 5.427c-.117.408-.283.717-.496.928-.214.213-.457.32-.73.32-.105 0-.24-.023-.404-.07v-.66l.171.019c.226 0 .402-.055.528-.163.128-.106.232-.29.312-.554l.153-.532-1.397-4.715h.848l.879 3.463zm2.289-1.305c0-.692.167-1.238.501-1.64.337-.404.781-.606 1.332-.606s.993.197 1.327.59c.337.392.51.926.519 1.603v.501c0 .689-.167 1.233-.501 1.635-.334.401-.78.602-1.336.602-.551 0-.993-.195-1.327-.585-.331-.39-.503-.917-.515-1.582v-.518zm.778.448c0 .49.096.875.286 1.156a.902.902 0 00.778.417c.685 0 1.038-.495 1.059-1.485v-.536c0-.487-.097-.87-.29-1.152-.194-.284-.453-.426-.778-.426-.319 0-.576.142-.769.427-.19.28-.286.663-.286 1.146v.453zm6.328 1.731c-.257.337-.634.506-1.129.506-.431 0-.756-.148-.976-.444-.219-.299-.331-.732-.334-1.3V9.244h.774v3.041c0 .741.223 1.112.668 1.112.472 0 .797-.211.975-.633v-3.52h.778V14h-.738l-.018-.418zm6.416 0c-.257.337-.634.506-1.129.506-.431 0-.756-.148-.976-.444-.219-.299-.331-.732-.334-1.3V9.244h.774v3.041c0 .741.223 1.112.668 1.112.472 0 .797-.211.975-.633v-3.52h.778V14h-.738l-.018-.418zm2.659-4.337l.022.514c.302-.401.687-.602 1.156-.602.841 0 1.267.561 1.279 1.683V14h-.774v-3.124c0-.373-.063-.636-.189-.791-.123-.159-.309-.238-.558-.238a.8.8 0 00-.523.194 1.412 1.412 0 00-.369.505V14h-.778V9.245h.734zm3.463 2.162c0-.732.136-1.29.409-1.674.275-.384.669-.576 1.182-.576.454 0 .808.185 1.063.554V7.25h.778V14h-.712l-.039-.51c-.255.399-.62.598-1.095.598-.492 0-.878-.19-1.16-.571-.278-.384-.42-.925-.426-1.622v-.488zm.778.444c0 .533.079.926.237 1.178.158.249.416.373.774.373.386 0 .675-.194.865-.584v-2.4c-.199-.38-.486-.57-.861-.57-.357 0-.615.125-.773.377-.159.25-.239.633-.242 1.152v.474zm5.55 2.237c-.592 0-1.046-.176-1.362-.527-.317-.355-.478-.873-.484-1.556v-.576c0-.709.154-1.264.462-1.665.31-.405.743-.607 1.296-.607.557 0 .973.177 1.248.532.276.354.416.907.422 1.657v.51h-2.654v.11c0 .51.095.88.286 1.111.193.232.47.347.83.347.229 0 .429-.042.602-.127.176-.088.34-.226.492-.413l.405.492c-.337.475-.851.712-1.543.712zm-.088-4.263c-.322 0-.561.112-.716.334-.155.22-.243.563-.264 1.028h1.872v-.105c-.02-.451-.102-.773-.246-.967-.14-.193-.356-.29-.646-.29zm4.571.15a1.901 1.901 0 00-.352-.031c-.398 0-.677.218-.835.655V14h-.778V9.245h.756l.013.484c.208-.381.503-.572.884-.572.123 0 .225.02.307.062l.005.756zm3.089 2.808a.574.574 0 00-.189-.43c-.126-.121-.369-.262-.73-.423-.418-.173-.714-.32-.887-.444a1.28 1.28 0 01-.383-.417 1.184 1.184 0 01-.127-.563c0-.386.141-.707.422-.962.284-.258.646-.387 1.085-.387.463 0 .835.135 1.117.405.281.269.421.615.421 1.037h-.773a.76.76 0 00-.215-.545.723.723 0 00-.55-.229c-.228 0-.408.06-.54.18a.61.61 0 00-.194.475c0 .158.047.286.141.382.097.097.327.224.69.383.577.225.97.446 1.178.663.208.214.312.487.312.818 0 .413-.142.744-.426.993-.285.246-.666.369-1.143.369-.495 0-.897-.142-1.204-.426a1.407 1.407 0 01-.462-1.081h.783c.008.263.089.47.241.62.153.149.367.223.642.223.258 0 .454-.057.589-.171a.591.591 0 00.202-.47zm2.812-4.69v1.152h.717v.629h-.717v2.948c0 .188.031.33.093.427.061.096.167.145.316.145a.977.977 0 00.312-.053l-.009.659a1.694 1.694 0 01-.54.088c-.308 0-.542-.11-.703-.33-.161-.22-.242-.53-.242-.931V9.874h-.725v-.629h.725V8.094h.773zM457.927 14c-.047-.102-.081-.275-.101-.519-.276.405-.627.607-1.055.607-.431 0-.768-.12-1.011-.36-.24-.244-.36-.585-.36-1.024 0-.484.164-.868.492-1.152.328-.284.778-.429 1.349-.435h.571v-.505c0-.284-.062-.486-.188-.607-.126-.12-.318-.18-.576-.18a.788.788 0 00-.571.211.69.69 0 00-.22.527h-.778c0-.243.072-.474.215-.694.144-.223.337-.397.58-.523.244-.126.515-.189.813-.189.487 0 .856.122 1.108.365.255.24.385.592.391 1.055v2.4c.003.365.053.683.149.953V14h-.808zm-1.037-.62c.19 0 .372-.052.545-.158a.978.978 0 00.377-.395v-1.134h-.439c-.369.006-.661.09-.874.25-.214.159-.321.381-.321.668 0 .27.054.466.162.59.109.12.292.18.55.18zm3.638-4.135l.022.514c.302-.401.687-.602 1.156-.602.841 0 1.267.561 1.279 1.683V14h-.774v-3.124c0-.373-.063-.636-.189-.791-.123-.159-.309-.238-.558-.238a.8.8 0 00-.523.194 1.412 1.412 0 00-.369.505V14h-.778V9.245h.734zm3.463 2.162c0-.732.136-1.29.409-1.674.275-.384.669-.576 1.182-.576.454 0 .809.185 1.064.554V7.25h.777V14h-.712l-.039-.51c-.255.399-.62.598-1.094.598-.493 0-.879-.19-1.161-.571-.278-.384-.42-.925-.426-1.622v-.488zm.778.444c0 .533.079.926.237 1.178.159.249.416.373.774.373.387 0 .675-.194.866-.584v-2.4c-.2-.38-.487-.57-.862-.57-.357 0-.615.125-.773.377-.158.25-.239.633-.242 1.152v.474zm6.693-2.118c.296-.384.674-.576 1.134-.576.841 0 1.267.561 1.279 1.683V14h-.774v-3.124c0-.373-.063-.636-.189-.791-.123-.159-.309-.238-.558-.238a.798.798 0 00-.523.194 1.412 1.412 0 00-.369.505V14h-.778V7.25h.778v2.483zm3.41 1.67c0-.692.167-1.238.501-1.64.337-.404.781-.606 1.332-.606.55 0 .993.197 1.327.59.337.392.51.926.518 1.603v.501c0 .689-.167 1.233-.501 1.635-.334.401-.779.602-1.336.602-.55 0-.993-.195-1.327-.585-.331-.39-.502-.917-.514-1.582v-.518zm.778.448c0 .49.095.875.286 1.156a.9.9 0 00.777.417c.686 0 1.039-.495 1.059-1.485v-.536c0-.487-.096-.87-.29-1.152-.193-.284-.452-.426-.777-.426-.32 0-.576.142-.769.427-.191.28-.286.663-.286 1.146v.453zm7.449.782l.72-3.388h.769L483.424 14h-.62l-.927-3.401-.905 3.401h-.624l-1.156-4.755h.765l.738 3.305.883-3.305h.615l.906 3.388zm8.494-.663c-.035.685-.228 1.21-.58 1.573-.348.363-.842.545-1.481.545-.641 0-1.151-.243-1.529-.73-.378-.489-.567-1.151-.567-1.986v-1.16c0-.832.193-1.49.58-1.973.39-.484.92-.725 1.591-.725.618 0 1.096.186 1.433.558.339.369.524.898.553 1.586h-.813c-.035-.521-.145-.893-.329-1.116-.185-.223-.466-.334-.844-.334-.437 0-.772.171-1.006.514-.235.34-.352.84-.352 1.499v1.173c0 .647.108 1.144.325 1.49.22.345.539.518.958.518.419 0 .721-.104.906-.312.184-.208.298-.581.342-1.12h.813zm4.061-.796h-2.162V14h-.804V7.602h3.331v.694h-2.527v2.188h2.162v.69zM497.012 14V7.602h1.525c.747 0 1.327.234 1.74.703.413.466.619 1.122.619 1.968v1.073c0 .846-.209 1.501-.628 1.964-.419.46-1.027.69-1.824.69h-1.432zm.804-5.704v5.014h.646c.565 0 .978-.161 1.239-.483.261-.325.394-.806.4-1.442v-1.133c0-.674-.13-1.168-.391-1.481-.258-.317-.649-.475-1.173-.475h-.721zm6.539 4.487a.574.574 0 00-.189-.43c-.126-.121-.369-.262-.729-.423-.419-.173-.715-.32-.888-.444a1.266 1.266 0 01-.382-.417 1.172 1.172 0 01-.128-.563c0-.386.141-.707.422-.962.284-.258.646-.387 1.085-.387.463 0 .835.135 1.117.405.281.269.421.615.421 1.037h-.773a.76.76 0 00-.215-.545.723.723 0 00-.55-.229c-.228 0-.408.06-.54.18a.61.61 0 00-.194.475c0 .158.047.286.141.382.097.097.327.224.69.383.577.225.97.446 1.178.663.208.214.312.487.312.818 0 .413-.142.744-.426.993-.285.246-.665.369-1.143.369-.495 0-.897-.142-1.204-.426a1.407 1.407 0 01-.462-1.081h.783c.008.263.089.47.241.62.153.149.367.223.642.223.258 0 .454-.057.589-.171a.591.591 0 00.202-.47zm7.405-.15l.72-3.388h.77L512.085 14h-.62l-.927-3.401-.905 3.401h-.624l-1.156-4.755h.765l.738 3.305.883-3.305h.615l.906 3.388zm2.144-1.23c0-.692.167-1.238.501-1.64.337-.404.781-.606 1.332-.606s.993.197 1.327.59c.337.392.51.926.519 1.603v.501c0 .689-.167 1.233-.501 1.635-.334.401-.78.602-1.336.602-.551 0-.994-.195-1.328-.585-.331-.39-.502-.917-.514-1.582v-.518zm.778.448c0 .49.095.875.286 1.156a.9.9 0 00.778.417c.685 0 1.038-.495 1.059-1.485v-.536c0-.487-.097-.87-.29-1.152-.194-.284-.453-.426-.778-.426-.32 0-.576.142-.769.427-.191.28-.286.663-.286 1.146v.453zm5.867-1.876a1.901 1.901 0 00-.352-.031c-.398 0-.676.218-.835.655V14h-.778V9.245h.756l.014.484c.208-.381.502-.572.883-.572.123 0 .225.02.307.062l.005.756zm1.973 1.85l-.413.474V14h-.778V7.25h.778v4.039l1.481-2.044h.931l-1.511 1.986L524.719 14h-.905l-1.292-2.175zM529.9 14c-.046-.102-.08-.275-.101-.519-.275.405-.627.607-1.054.607-.431 0-.768-.12-1.011-.36-.24-.244-.36-.585-.36-1.024 0-.484.164-.868.492-1.152.328-.284.778-.429 1.349-.435h.571v-.505c0-.284-.063-.486-.189-.607-.126-.12-.318-.18-.576-.18a.791.791 0 00-.571.211.694.694 0 00-.22.527h-.777c0-.243.071-.474.215-.694.144-.223.337-.397.58-.523a1.74 1.74 0 01.813-.189c.486 0 .856.122 1.107.365.255.24.386.592.392 1.055v2.4c.002.365.052.683.149.953V14h-.809zm-1.037-.62c.191 0 .372-.052.545-.158a.974.974 0 00.378-.395v-1.134h-.439c-.369.006-.661.09-.875.25-.214.159-.321.381-.321.668 0 .27.055.466.163.59.108.12.291.18.549.18zm3.639-4.135l.022.514c.302-.401.687-.602 1.156-.602.841 0 1.267.561 1.278 1.683V14h-.773v-3.124c0-.373-.063-.636-.189-.791-.123-.159-.309-.238-.558-.238a.798.798 0 00-.523.194 1.412 1.412 0 00-.369.505V14h-.778V9.245h.734zm3.463 2.162c0-.732.136-1.29.409-1.674.275-.384.669-.576 1.182-.576.454 0 .808.185 1.063.554V7.25h.778V14h-.712l-.039-.51c-.255.399-.62.598-1.095.598-.492 0-.879-.19-1.16-.571-.278-.384-.42-.925-.426-1.622v-.488zm.778.444c0 .533.079.926.237 1.178.158.249.416.373.773.373.387 0 .676-.194.866-.584v-2.4c-.199-.38-.486-.57-.861-.57-.358 0-.615.125-.774.377-.158.25-.238.633-.241 1.152v.474zm9.461.782l.721-3.388h.769L546.529 14h-.619l-.928-3.401-.905 3.401h-.624l-1.156-4.755h.765l.738 3.305.884-3.305h.615l.905 3.388zm3.085-2.9c.296-.384.674-.576 1.134-.576.841 0 1.267.561 1.279 1.683V14h-.774v-3.124c0-.373-.063-.636-.189-.791-.123-.159-.309-.238-.558-.238a.798.798 0 00-.523.194 1.412 1.412 0 00-.369.505V14h-.778V7.25h.778v2.483zm5.273 4.355c-.591 0-1.045-.176-1.362-.527-.316-.355-.477-.873-.483-1.556v-.576c0-.709.154-1.264.461-1.665.311-.405.743-.607 1.297-.607.556 0 .972.177 1.248.532.275.354.416.907.422 1.657v.51h-2.655v.11c0 .51.095.88.286 1.111.193.232.47.347.83.347.229 0 .43-.042.602-.127.176-.088.34-.226.493-.413l.404.492c-.337.475-.851.712-1.543.712zm-.087-4.263c-.323 0-.561.112-.717.334-.155.22-.243.563-.263 1.028h1.872v-.105c-.021-.451-.103-.773-.246-.967-.141-.193-.356-.29-.646-.29zm3.625-1.731v1.151h.716v.629h-.716v2.948c0 .188.031.33.092.427.062.096.167.145.317.145a.986.986 0 00.312-.053l-.009.659a1.7 1.7 0 01-.541.088c-.307 0-.542-.11-.703-.33-.161-.22-.241-.53-.241-.931V9.874h-.725v-.629h.725V8.094h.773zm2.421 1.639c.296-.384.674-.576 1.134-.576.841 0 1.267.561 1.279 1.683V14h-.773v-3.124c0-.373-.063-.636-.189-.791-.123-.159-.309-.238-.558-.238a.796.796 0 00-.523.194 1.402 1.402 0 00-.37.505V14h-.777V7.25h.777v2.483zm5.274 4.355c-.592 0-1.046-.176-1.362-.527-.317-.355-.478-.873-.484-1.556v-.576c0-.709.154-1.264.462-1.665.31-.405.742-.607 1.296-.607.557 0 .973.177 1.248.532.275.354.416.907.422 1.657v.51h-2.654v.11c0 .51.095.88.285 1.111.194.232.471.347.831.347.228 0 .429-.042.602-.127.176-.088.34-.226.492-.413l.404.492c-.337.475-.851.712-1.542.712zm-.088-4.263c-.322 0-.561.112-.716.334-.156.22-.243.563-.264 1.028h1.872v-.105c-.02-.451-.102-.773-.246-.967-.141-.193-.356-.29-.646-.29zm4.57.15a1.883 1.883 0 00-.351-.031c-.399 0-.677.218-.835.655V14h-.778V9.245h.756l.013.484c.208-.381.502-.572.883-.572.123 0 .226.02.308.062l.004.756zm4.144 2.733l.866-3.463h.826l-1.555 5.427c-.118.408-.283.717-.497.928-.214.213-.457.32-.729.32-.106 0-.241-.023-.405-.07v-.66l.172.019c.225 0 .401-.055.527-.163.129-.106.233-.29.312-.554l.154-.532-1.398-4.715h.848l.879 3.463zm2.29-1.305c0-.692.167-1.238.501-1.64.337-.404.781-.606 1.331-.606.551 0 .994.197 1.328.59.337.392.509.926.518 1.603v.501c0 .689-.167 1.233-.501 1.635-.334.401-.779.602-1.336.602-.551 0-.993-.195-1.327-.585-.331-.39-.502-.917-.514-1.582v-.518zm.778.448c0 .49.095.875.285 1.156.194.278.453.417.778.417.686 0 1.039-.495 1.059-1.485v-.536c0-.487-.096-.87-.29-1.152-.193-.284-.452-.426-.778-.426-.319 0-.575.142-.769.427-.19.28-.285.663-.285 1.146v.453zm6.328 1.731c-.258.337-.634.506-1.129.506-.431 0-.756-.148-.976-.444-.22-.299-.331-.732-.334-1.3V9.244h.773v3.041c0 .741.223 1.112.668 1.112.472 0 .797-.211.976-.633v-3.52h.778V14h-.739l-.017-.418zm5.642-.158c.258 0 .465-.079.62-.237.155-.161.24-.39.255-.685h.734c-.018.457-.18.836-.488 1.138a1.54 1.54 0 01-1.121.448c-.588 0-1.038-.185-1.349-.554-.307-.372-.461-.924-.461-1.657v-.523c0-.717.154-1.262.461-1.634.308-.375.756-.563 1.345-.563.486 0 .872.154 1.156.462.287.307.439.728.457 1.26h-.734c-.018-.35-.103-.614-.255-.79-.149-.176-.357-.264-.624-.264-.346 0-.602.114-.769.343-.167.226-.253.598-.259 1.116v.607c0 .56.082.955.246 1.186.167.232.429.347.786.347zm4.953.576c-.047-.102-.08-.275-.101-.519-.275.405-.627.607-1.055.607-.43 0-.767-.12-1.01-.36-.241-.244-.361-.585-.361-1.024 0-.484.164-.868.492-1.152.329-.284.778-.429 1.35-.435h.571v-.505c0-.284-.063-.486-.189-.607-.126-.12-.318-.18-.576-.18a.79.79 0 00-.571.211.69.69 0 00-.22.527h-.778c0-.243.072-.474.216-.694a1.49 1.49 0 01.58-.523 1.74 1.74 0 01.813-.189c.486 0 .855.122 1.107.365.255.24.385.592.391 1.055v2.4c.003.365.053.683.15.953V14h-.809zm-1.037-.62c.19 0 .372-.052.545-.158a.974.974 0 00.378-.395v-1.134h-.44c-.369.006-.66.09-.874.25-.214.159-.321.381-.321.668 0 .27.054.466.163.59.108.12.291.18.549.18zm3.639-4.135l.022.514c.301-.401.687-.602 1.155-.602.841 0 1.267.561 1.279 1.683V14h-.773v-3.124c0-.373-.063-.636-.189-.791-.123-.159-.309-.238-.558-.238a.796.796 0 00-.523.194 1.389 1.389 0 00-.369.505V14h-.778V9.245h.734zM605.152 14c-.047-.102-.08-.275-.101-.519-.275.405-.627.607-1.054.607-.431 0-.768-.12-1.011-.36-.24-.244-.361-.585-.361-1.024 0-.484.165-.868.493-1.152.328-.284.778-.429 1.349-.435h.571v-.505c0-.284-.063-.486-.189-.607-.126-.12-.318-.18-.576-.18a.791.791 0 00-.571.211.694.694 0 00-.22.527h-.777c0-.243.071-.474.215-.694a1.49 1.49 0 01.58-.523 1.74 1.74 0 01.813-.189c.486 0 .855.122 1.107.365.255.24.386.592.392 1.055v2.4c.002.365.052.683.149.953V14h-.809zm-1.037-.62c.191 0 .372-.052.545-.158a.974.974 0 00.378-.395v-1.134h-.439c-.37.006-.661.09-.875.25-.214.159-.321.381-.321.668 0 .27.055.466.163.59.108.12.291.18.549.18zm3.248.62V9.874h-.62v-.629h.62v-.55c.009-.483.13-.86.365-1.129.237-.272.571-.408 1.001-.408.156 0 .313.025.471.074l-.04.66a1.539 1.539 0 00-.356-.04c-.442 0-.663.315-.663.945v.448h.813v.629h-.813V14h-.778zm2.847 0V9.874h-.619v-.629h.619v-.55c.009-.483.131-.86.365-1.129.237-.272.571-.408 1.002-.408.155 0 .312.025.47.074l-.039.66a1.545 1.545 0 00-.356-.04c-.443 0-.664.315-.664.945v.448h.813v.629h-.813V14h-.778zm2.343-2.597c0-.692.167-1.238.501-1.64.337-.404.78-.606 1.331-.606.551 0 .993.197 1.327.59.337.392.51.926.519 1.603v.501c0 .689-.167 1.233-.501 1.635-.334.401-.779.602-1.336.602-.551 0-.993-.195-1.327-.585-.331-.39-.503-.917-.514-1.582v-.518zm.778.448c0 .49.095.875.285 1.156.194.278.453.417.778.417.686 0 1.039-.495 1.059-1.485v-.536c0-.487-.097-.87-.29-1.152-.193-.284-.453-.426-.778-.426-.319 0-.575.142-.769.427-.19.28-.285.663-.285 1.146v.453zm5.866-1.876a1.883 1.883 0 00-.351-.031c-.399 0-.677.218-.835.655V14h-.778V9.245h.756l.013.484c.208-.381.502-.572.883-.572.123 0 .226.02.308.062l.004.756zm.615 1.432c0-.732.137-1.29.409-1.674.276-.384.67-.576 1.182-.576.454 0 .809.185 1.064.554V7.25h.778V14h-.712l-.04-.51a1.223 1.223 0 01-1.094.598c-.492 0-.879-.19-1.16-.571-.279-.384-.421-.925-.427-1.622v-.488zm.778.444c0 .533.079.926.238 1.178.158.249.416.373.773.373.387 0 .675-.194.866-.584v-2.4c-.199-.38-.487-.57-.862-.57-.357 0-.615.125-.773.377-.158.25-.239.633-.242 1.152v.474zm6.935-3.757v1.151h.716v.629h-.716v2.948c0 .188.031.33.092.427.062.096.167.145.317.145a.986.986 0 00.312-.053l-.009.659a1.7 1.7 0 01-.541.088c-.307 0-.542-.11-.703-.33-.161-.22-.242-.53-.242-.931V9.874h-.725v-.629h.725V8.094h.774zm1.393 3.309c0-.692.167-1.238.501-1.64.337-.404.781-.606 1.331-.606.551 0 .994.197 1.328.59.337.392.509.926.518 1.603v.501c0 .689-.167 1.233-.501 1.635-.334.401-.779.602-1.336.602-.551 0-.993-.195-1.327-.585-.331-.39-.502-.917-.514-1.582v-.518zm.778.448c0 .49.095.875.285 1.156.194.278.453.417.778.417.686 0 1.039-.495 1.059-1.485v-.536c0-.487-.096-.87-.29-1.152-.193-.284-.452-.426-.778-.426-.319 0-.575.142-.769.427-.19.28-.285.663-.285 1.146v.453zm6.987-3.757v1.151h.716v.629h-.716v2.948c0 .188.031.33.092.427.062.096.167.145.317.145a.986.986 0 00.312-.053l-.009.659a1.7 1.7 0 01-.541.088c-.307 0-.542-.11-.703-.33-.161-.22-.241-.53-.241-.931V9.874h-.725v-.629h.725V8.094h.773zM640.774 14c-.046-.102-.08-.275-.101-.519-.275.405-.627.607-1.054.607-.431 0-.768-.12-1.011-.36-.24-.244-.36-.585-.36-1.024 0-.484.164-.868.492-1.152.328-.284.778-.429 1.349-.435h.571v-.505c0-.284-.063-.486-.189-.607-.126-.12-.318-.18-.575-.18a.792.792 0 00-.572.211.694.694 0 00-.22.527h-.777c0-.243.071-.474.215-.694.144-.223.337-.397.58-.523a1.74 1.74 0 01.813-.189c.486 0 .856.122 1.107.365.255.24.386.592.392 1.055v2.4c.003.365.052.683.149.953V14h-.809zm-1.037-.62c.191 0 .372-.052.545-.158a.974.974 0 00.378-.395v-1.134h-.439c-.369.006-.661.09-.875.25-.214.159-.321.381-.321.668 0 .27.055.466.163.59.108.12.291.18.549.18zm4.1-1.555l-.413.474V14h-.778V7.25h.778v4.039l1.481-2.044h.932l-1.512 1.986 1.71 2.769h-.906l-1.292-2.175zm4.566 2.263c-.591 0-1.046-.176-1.362-.527-.316-.355-.478-.873-.483-1.556v-.576c0-.709.153-1.264.461-1.665.311-.405.743-.607 1.296-.607.557 0 .973.177 1.248.532.276.354.416.907.422 1.657v.51h-2.654v.11c0 .51.095.88.286 1.111.193.232.47.347.83.347.229 0 .429-.042.602-.127.176-.088.34-.226.493-.413l.404.492c-.337.475-.851.712-1.543.712zm-.088-4.263c-.322 0-.561.112-.716.334-.155.22-.243.563-.264 1.028h1.873v-.105c-.021-.451-.103-.773-.247-.967-.14-.193-.356-.29-.646-.29zm5.691-1.731v1.151h.717v.629h-.717v2.948c0 .188.031.33.093.427.061.096.167.145.316.145a.977.977 0 00.312-.053l-.009.659a1.699 1.699 0 01-.54.088c-.308 0-.542-.11-.703-.33-.162-.22-.242-.53-.242-.931V9.874h-.725v-.629h.725V8.094h.773zm2.422 1.639c.296-.384.674-.576 1.134-.576.84 0 1.267.561 1.278 1.683V14h-.773v-3.124c0-.373-.063-.636-.189-.791-.123-.159-.309-.238-.558-.238a.796.796 0 00-.523.194 1.4 1.4 0 00-.369.505V14h-.778V7.25h.778v2.483zm5.273 4.355c-.592 0-1.046-.176-1.362-.527-.317-.355-.478-.873-.484-1.556v-.576c0-.709.154-1.264.462-1.665.31-.405.743-.607 1.296-.607.557 0 .973.177 1.248.532.276.354.416.907.422 1.657v.51h-2.654v.11c0 .51.095.88.286 1.111.193.232.47.347.83.347.229 0 .429-.042.602-.127.176-.088.34-.226.492-.413l.405.492c-.337.475-.851.712-1.543.712zm-.088-4.263c-.322 0-.561.112-.716.334-.155.22-.243.563-.264 1.028h1.872v-.105c-.02-.451-.102-.773-.246-.967-.14-.193-.356-.29-.646-.29zm5.449-.092c.296-.384.674-.576 1.134-.576.841 0 1.267.561 1.279 1.683V14h-.773v-3.124c0-.373-.063-.636-.189-.791-.123-.159-.309-.238-.558-.238a.796.796 0 00-.523.194 1.402 1.402 0 00-.37.505V14h-.777V7.25h.777v2.483zM671.475 14h-.778V9.245h.778V14zm.061-6.016a.494.494 0 01-.11.33c-.073.087-.184.131-.334.131-.146 0-.256-.044-.329-.132a.494.494 0 01-.11-.33.51.51 0 01.11-.333c.073-.09.183-.136.329-.136.147 0 .257.047.33.14.076.091.114.201.114.33zm1.011 3.423c0-.741.135-1.3.404-1.678.27-.381.664-.572 1.182-.572.484 0 .851.207 1.103.62l.04-.532h.703v4.799c0 .589-.151 1.04-.453 1.354-.301.316-.722.474-1.261.474a2.16 2.16 0 01-.791-.176c-.29-.114-.508-.256-.655-.426l.317-.536c.322.316.678.475 1.068.475.647 0 .98-.354.997-1.06v-.62c-.252.373-.609.559-1.072.559-.492 0-.876-.185-1.151-.554-.276-.372-.419-.905-.431-1.6v-.527zm.778.444c0 .533.077.926.233 1.178.158.249.416.373.773.373.387 0 .677-.197.87-.593v-2.377c-.202-.39-.489-.585-.861-.585-.358 0-.615.126-.774.378-.158.25-.238.633-.241 1.152v.474zm4.592-2.118c.296-.384.674-.576 1.134-.576.841 0 1.267.561 1.279 1.683V14h-.774v-3.124c0-.373-.063-.636-.189-.791-.123-.159-.309-.238-.558-.238a.798.798 0 00-.523.194 1.412 1.412 0 00-.369.505V14h-.778V7.25h.778v2.483zm7.603.242a1.901 1.901 0 00-.352-.031c-.398 0-.677.218-.835.655V14h-.778V9.245h.756l.013.484c.208-.381.503-.572.884-.572.123 0 .225.02.307.062l.005.756zM687.137 14h-.778V9.245h.778V14zm.061-6.016a.494.494 0 01-.11.33c-.073.087-.184.131-.334.131-.146 0-.256-.044-.329-.132a.499.499 0 01-.11-.33c0-.13.037-.242.11-.333.073-.09.183-.136.329-.136.147 0 .257.047.33.14.076.091.114.201.114.33zm3.476 4.799a.574.574 0 00-.189-.43c-.126-.121-.369-.262-.729-.423-.419-.173-.715-.32-.888-.444a1.276 1.276 0 01-.382-.417 1.172 1.172 0 01-.128-.563c0-.386.141-.707.422-.962.284-.258.646-.387 1.086-.387.463 0 .835.135 1.116.405.281.269.422.615.422 1.037h-.774a.755.755 0 00-.215-.545.723.723 0 00-.549-.229c-.229 0-.409.06-.541.18a.61.61 0 00-.193.475c0 .158.047.286.14.382.097.097.327.224.69.383.578.225.97.446 1.178.663.208.214.312.487.312.818 0 .413-.142.744-.426.993-.284.246-.665.369-1.143.369-.495 0-.896-.142-1.204-.426a1.41 1.41 0 01-.461-1.081H689c.009.263.089.47.242.62.152.149.366.223.641.223.258 0 .454-.057.589-.171a.591.591 0 00.202-.47zm2.989-.958l-.413.474V14h-.778V7.25h.778v4.039l1.48-2.044h.932l-1.512 1.986L695.86 14h-.905l-1.292-2.175zm4.768-.422c0-.692.167-1.238.501-1.64.337-.404.78-.606 1.331-.606.551 0 .993.197 1.327.59.337.392.51.926.519 1.603v.501c0 .689-.167 1.233-.501 1.635-.334.401-.779.602-1.336.602-.551 0-.993-.195-1.327-.585-.331-.39-.503-.917-.514-1.582v-.518zm.777.448c0 .49.096.875.286 1.156.194.278.453.417.778.417.686 0 1.039-.495 1.059-1.485v-.536c0-.487-.097-.87-.29-1.152-.193-.284-.453-.426-.778-.426-.319 0-.575.142-.769.427-.19.28-.286.663-.286 1.146v.453zM703.454 14V9.874h-.62v-.629h.62v-.55c.008-.483.13-.86.364-1.129.238-.272.572-.408 1.002-.408.156 0 .312.025.471.074l-.04.66a1.539 1.539 0 00-.356-.04c-.442 0-.664.315-.664.945v.448h.813v.629h-.813V14h-.777zm5.409 0h-.778V7.25h.778V14zm1.064-2.597c0-.692.167-1.238.501-1.64.337-.404.78-.606 1.331-.606.551 0 .993.197 1.327.59.337.392.51.926.519 1.603v.501c0 .689-.167 1.233-.501 1.635-.334.401-.779.602-1.336.602-.551 0-.993-.195-1.327-.585-.331-.39-.503-.917-.514-1.582v-.518zm.778.448c0 .49.095.875.285 1.156.194.278.453.417.778.417.686 0 1.039-.495 1.059-1.485v-.536c0-.487-.097-.87-.29-1.152-.193-.284-.453-.426-.778-.426-.319 0-.575.142-.769.427-.19.28-.285.663-.285 1.146v.453zm6.213.932a.574.574 0 00-.189-.43c-.125-.121-.369-.262-.729-.423-.419-.173-.715-.32-.888-.444a1.276 1.276 0 01-.382-.417 1.172 1.172 0 01-.127-.563c0-.386.14-.707.421-.962.285-.258.646-.387 1.086-.387.463 0 .835.135 1.116.405.281.269.422.615.422 1.037h-.773a.756.756 0 00-.216-.545.72.72 0 00-.549-.229c-.229 0-.409.06-.541.18a.61.61 0 00-.193.475c0 .158.047.286.141.382.096.097.326.224.69.383.577.225.969.446 1.177.663.208.214.312.487.312.818 0 .413-.142.744-.426.993-.284.246-.665.369-1.143.369-.495 0-.896-.142-1.204-.426a1.41 1.41 0 01-.461-1.081h.782c.009.263.089.47.242.62.152.149.366.223.641.223.258 0 .455-.057.589-.171a.591.591 0 00.202-.47zM719.551 14h-.778V9.245h.778V14zm.061-6.016a.494.494 0 01-.11.33c-.073.087-.184.131-.334.131-.146 0-.256-.044-.329-.132a.499.499 0 01-.11-.33c0-.13.037-.242.11-.333.073-.09.183-.136.329-.136.147 0 .257.047.33.14.076.091.114.201.114.33zm1.899 1.261l.022.514c.301-.401.687-.602 1.155-.602.841 0 1.268.561 1.279 1.683V14h-.773v-3.124c0-.373-.063-.636-.189-.791-.123-.159-.309-.238-.558-.238a.796.796 0 00-.523.194 1.389 1.389 0 00-.369.505V14h-.778V9.245h.734zm3.471 2.162c0-.741.135-1.3.405-1.678.269-.381.663-.572 1.182-.572.483 0 .851.207 1.103.62l.039-.532h.704v4.799c0 .589-.151 1.04-.453 1.354-.302.316-.722.474-1.261.474-.235 0-.498-.059-.791-.176-.29-.114-.509-.256-.655-.426l.316-.536c.323.316.679.475 1.068.475.648 0 .98-.354.998-1.06v-.62c-.252.373-.61.559-1.073.559-.492 0-.876-.185-1.151-.554-.275-.372-.419-.905-.431-1.6v-.527zm.778.444c0 .533.078.926.233 1.178.158.249.416.373.774.373.386 0 .676-.197.87-.593v-2.377c-.202-.39-.49-.585-.862-.585-.357 0-.615.126-.773.378-.158.25-.239.633-.242 1.152v.474zm7.181.857l.866-3.463h.826l-1.556 5.427c-.117.408-.283.717-.496.928-.214.213-.457.32-.73.32-.105 0-.24-.023-.404-.07v-.66l.171.019c.226 0 .402-.055.528-.163.128-.106.232-.29.312-.554l.153-.532-1.397-4.715h.848l.879 3.463zm2.289-1.305c0-.692.167-1.238.501-1.64.337-.404.781-.606 1.332-.606s.993.197 1.327.59c.337.392.51.926.519 1.603v.501c0 .689-.167 1.233-.501 1.635-.334.401-.78.602-1.336.602-.551 0-.993-.195-1.327-.585-.331-.39-.503-.917-.515-1.582v-.518zm.778.448c0 .49.096.875.286 1.156a.902.902 0 00.778.417c.685 0 1.038-.495 1.059-1.485v-.536c0-.487-.097-.87-.29-1.152-.194-.284-.453-.426-.778-.426-.319 0-.576.142-.769.427-.19.28-.286.663-.286 1.146v.453zm6.328 1.731c-.257.337-.634.506-1.129.506-.431 0-.756-.148-.976-.444-.219-.299-.331-.732-.334-1.3V9.244h.774v3.041c0 .741.223 1.112.668 1.112.472 0 .797-.211.975-.633v-3.52h.778V14h-.738l-.018-.418zm3.89-3.607a1.901 1.901 0 00-.352-.031c-.398 0-.677.218-.835.655V14h-.778V9.245h.756l.013.484c.208-.381.503-.572.884-.572.123 0 .225.02.307.062l.005.756zm3.577-.73l.017.44c.29-.352.673-.528 1.147-.528.531 0 .901.23 1.112.69.299-.46.715-.69 1.248-.69.876 0 1.324.547 1.345 1.64V14h-.774v-3.129c0-.346-.061-.602-.184-.769-.123-.17-.331-.255-.624-.255a.698.698 0 00-.571.273 1.235 1.235 0 00-.255.694V14h-.783v-3.164c-.008-.66-.276-.989-.804-.989-.392 0-.669.197-.83.589V14h-.774V9.245h.73zm5.88 2.158c0-.692.167-1.238.501-1.64.337-.404.78-.606 1.331-.606.551 0 .993.197 1.327.59.337.392.51.926.519 1.603v.501c0 .689-.167 1.233-.501 1.635-.334.401-.779.602-1.336.602-.551 0-.993-.195-1.327-.585-.331-.39-.503-.917-.514-1.582v-.518zm.777.448c0 .49.096.875.286 1.156a.902.902 0 00.778.417c.685 0 1.038-.495 1.059-1.485v-.536c0-.487-.097-.87-.29-1.152-.193-.284-.453-.426-.778-.426-.319 0-.576.142-.769.427-.19.28-.286.663-.286 1.146v.453zm4.637-2.606l.022.514c.301-.401.687-.602 1.155-.602.841 0 1.268.561 1.279 1.683V14h-.773v-3.124c0-.373-.063-.636-.189-.791-.123-.159-.309-.238-.558-.238a.796.796 0 00-.523.194 1.389 1.389 0 00-.369.505V14h-.778V9.245h.734zm5.326 4.843c-.592 0-1.046-.176-1.362-.527-.317-.355-.478-.873-.484-1.556v-.576c0-.709.154-1.264.462-1.665.31-.405.742-.607 1.296-.607.557 0 .973.177 1.248.532.275.354.416.907.422 1.657v.51h-2.654v.11c0 .51.095.88.285 1.111.194.232.47.347.831.347.228 0 .429-.042.602-.127.176-.088.34-.226.492-.413l.404.492c-.337.475-.851.712-1.542.712zm-.088-4.263c-.322 0-.561.112-.716.334-.156.22-.244.563-.264 1.028h1.872v-.105c-.02-.451-.102-.773-.246-.967-.141-.193-.356-.29-.646-.29zm3.907 2.883l.865-3.463h.827l-1.556 5.427c-.117.408-.283.717-.497.928-.214.213-.457.32-.729.32a1.53 1.53 0 01-.404-.07v-.66l.171.019c.226 0 .401-.055.527-.163.129-.106.233-.29.312-.554l.154-.532-1.397-4.715h.848l.879 3.463zm2.505.866c0-.14.041-.258.123-.352.085-.094.211-.14.378-.14s.293.046.377.14c.088.094.132.211.132.352a.467.467 0 01-.132.338c-.084.09-.21.136-.377.136s-.293-.045-.378-.136a.486.486 0 01-.123-.338z" fill="#000"/></svg>