<svg width="404" height="69" viewBox="0 0 404 69" fill="none" xmlns="http://www.w3.org/2000/svg"><path d="M.092 10.144H5.3V27h3.192V10.144h5.18V7.54H.092v2.604zm20.005 8.736c0-3.276 1.456-4.256 3.808-4.256h.812V11.32c-2.184 0-3.724.952-4.62 2.492v-2.24h-3.192V27h3.192v-8.12zm6.49.336c0 4.76 3.22 8.036 7.224 8.036 2.576 0 4.424-1.232 5.404-2.548V27h3.22V11.572h-3.22v2.24c-.952-1.26-2.744-2.492-5.348-2.492-4.06 0-7.28 3.136-7.28 7.896zm12.628.056c0 3.332-2.268 5.208-4.676 5.208-2.38 0-4.676-1.932-4.676-5.264 0-3.332 2.296-5.124 4.676-5.124 2.408 0 4.676 1.876 4.676 5.18zm6.348-.056c0 4.76 3.22 8.036 7.28 8.036 2.52 0 4.368-1.176 5.348-2.576V27h3.22V6.28h-3.22v7.448c-1.176-1.456-3.304-2.408-5.32-2.408-4.088 0-7.308 3.136-7.308 7.896zm12.628.056c0 3.332-2.268 5.208-4.676 5.208-2.38 0-4.676-1.932-4.676-5.264 0-3.332 2.296-5.124 4.676-5.124 2.408 0 4.676 1.876 4.676 5.18zM72.1 14.008c2.38 0 4.256 1.512 4.312 3.892h-8.54c.336-2.436 2.072-3.892 4.228-3.892zm7.224 8.4H75.88c-.588 1.204-1.68 2.156-3.64 2.156-2.352 0-4.172-1.54-4.396-4.088h11.788a9.847 9.847 0 00.112-1.568c0-4.536-3.108-7.588-7.504-7.588-4.564 0-7.7 3.108-7.7 7.952 0 4.844 3.276 7.98 7.7 7.98 3.78 0 6.216-2.156 7.084-4.844zM100.91 7.512H90.159V27h10.752v-2.604h-7.56v-5.964h6.72v-2.604h-6.72v-5.712h7.56V7.512zm3.903 12.376c0 4.956 3.472 7.308 7.56 7.308 4.06 0 7.644-2.352 7.644-7.308V7.54h-3.192v12.404c0 3.024-1.708 4.452-4.424 4.452-2.688 0-4.396-1.428-4.396-4.452V7.54h-3.192v12.348zm29.692-6.524c0 1.932-1.12 3.304-3.612 3.304h-3.528v-6.524h3.528c2.492 0 3.612 1.26 3.612 3.22zM124.174 7.54V27h3.192v-7.784h2.436l4.48 7.784h3.808l-4.816-8.064c3.276-.812 4.508-3.276 4.508-5.572 0-3.164-2.268-5.824-6.888-5.824h-6.72zm17.3 24.36h3.136L152.226.568h-3.164L141.474 31.9zm14.746-12.012c0 4.956 3.472 7.308 7.56 7.308 4.06 0 7.644-2.352 7.644-7.308V7.54h-3.192v12.404c0 3.024-1.708 4.452-4.424 4.452-2.688 0-4.396-1.428-4.396-4.452V7.54h-3.192v12.348zm32.492 1.596c0-7.112-10.304-4.368-10.304-8.764 0-1.876 1.428-2.772 3.276-2.716 2.016.056 3.164 1.26 3.276 2.576h3.528c-.28-3.332-2.912-5.292-6.636-5.292-3.976 0-6.692 2.128-6.692 5.544 0 7.168 10.332 4.116 10.332 8.82 0 1.652-1.26 2.856-3.5 2.856-2.212 0-3.332-1.288-3.472-2.884h-3.416c0 3.444 2.996 5.572 6.888 5.572 4.34 0 6.72-2.8 6.72-5.712zM198.835 7.54h-6.356V27h6.356c6.244 0 10.332-3.668 10.332-9.66 0-6.02-4.088-9.8-10.332-9.8zm-3.164 16.856V10.144h3.164c4.592 0 7.056 2.744 7.056 7.196 0 4.424-2.464 7.056-7.056 7.056h-3.164zM222.6 27h3.36l3.108-11.396L232.176 27h3.36l4.788-15.428h-3.136l-3.192 12.348-3.136-12.348h-3.332l-3.276 12.404-3.22-12.404h-3.248L222.6 27zm20.109 0h3.192V11.572h-3.192V27zm1.624-17.472c1.12 0 2.016-.896 2.016-2.044 0-1.148-.896-2.044-2.016-2.044a2.02 2.02 0 00-2.044 2.044 2.02 2.02 0 002.044 2.044zm6.263 13.188c0 3.136 1.708 4.284 4.452 4.284h2.52v-2.66h-1.96c-1.344 0-1.792-.476-1.792-1.624v-8.54h3.752v-2.604h-3.752V7.736h-3.22v3.836h-1.82v2.604h1.82v8.54zM260.51 27h3.192v-8.624c0-2.828 1.54-4.284 3.892-4.284 2.324 0 3.864 1.456 3.864 4.284V27h3.164v-9.1c0-4.312-2.688-6.58-6.132-6.58-1.988 0-3.724.756-4.788 2.044V6.28h-3.192V27zm25.457 0h3.192V6.28h-3.192V27zm22.083-7.728c0-4.844-3.472-7.952-7.868-7.952-4.396 0-7.868 3.108-7.868 7.952 0 4.844 3.332 7.98 7.728 7.98 4.424 0 8.008-3.136 8.008-7.98zm-12.488 0c0-3.5 2.156-5.18 4.564-5.18 2.38 0 4.648 1.68 4.648 5.18s-2.352 5.208-4.732 5.208c-2.408 0-4.48-1.708-4.48-5.208zM314.201 27h3.36l3.108-11.396L323.777 27h3.36l4.788-15.428h-3.136l-3.192 12.348-3.136-12.348h-3.332l-3.276 12.404-3.22-12.404h-3.248L314.201 27zM12.608 56.688c-.168-5.572-8.876-3.836-8.876-6.944 0-1.036.896-1.736 2.604-1.736 1.736 0 2.772.924 2.884 2.268h3.192c-.168-3.08-2.464-4.956-5.964-4.956-3.64 0-5.936 1.988-5.936 4.452 0 5.656 8.96 3.92 8.96 6.944 0 1.064-.98 1.848-2.828 1.848-1.764 0-2.968-1.036-3.08-2.296H.26c.14 2.8 2.744 4.984 6.44 4.984 3.64 0 5.908-1.96 5.908-4.564zm6.641-8.848v-2.268h-3.192v22.764h3.192V58.76a6.975 6.975 0 005.376 2.492c4.06 0 7.252-3.276 7.252-8.036s-3.192-7.896-7.252-7.896c-2.52 0-4.396 1.232-5.376 2.52zm9.38 5.376c0 3.332-2.296 5.264-4.704 5.264-2.38 0-4.676-1.876-4.676-5.208 0-3.304 2.296-5.18 4.676-5.18 2.408 0 4.704 1.792 4.704 5.124zm9.597-.336c0-3.276 1.456-4.256 3.808-4.256h.812V45.32c-2.184 0-3.724.952-4.62 2.492v-2.24h-3.192V61h3.192v-8.12zm14.05-4.872c2.38 0 4.256 1.512 4.312 3.892h-8.54c.336-2.436 2.072-3.892 4.228-3.892zm7.224 8.4h-3.444c-.588 1.204-1.68 2.156-3.64 2.156-2.352 0-4.172-1.54-4.396-4.088h11.788a9.847 9.847 0 00.112-1.568c0-4.536-3.108-7.588-7.504-7.588-4.564 0-7.7 3.108-7.7 7.952 0 4.844 3.276 7.98 7.7 7.98 3.78 0 6.216-2.156 7.084-4.844zm2.497-3.192c0 4.76 3.22 8.036 7.224 8.036 2.576 0 4.424-1.232 5.404-2.548V61h3.22V45.572h-3.22v2.24c-.952-1.26-2.744-2.492-5.348-2.492-4.06 0-7.28 3.136-7.28 7.896zm12.628.056c0 3.332-2.268 5.208-4.676 5.208-2.38 0-4.676-1.932-4.676-5.264 0-3.332 2.296-5.124 4.676-5.124 2.408 0 4.676 1.876 4.676 5.18zm6.349-.056c0 4.76 3.22 8.036 7.28 8.036 2.52 0 4.367-1.176 5.347-2.576V61h3.22V40.28h-3.22v7.448c-1.175-1.456-3.303-2.408-5.32-2.408-4.088 0-7.308 3.136-7.308 7.896zm12.627.056c0 3.332-2.267 5.208-4.675 5.208-2.38 0-4.677-1.932-4.677-5.264 0-3.332 2.297-5.124 4.677-5.124 2.407 0 4.675 1.876 4.675 5.18zm18.921 3.416c-.168-5.572-8.876-3.836-8.876-6.944 0-1.036.896-1.736 2.604-1.736 1.736 0 2.772.924 2.884 2.268h3.192c-.168-3.08-2.464-4.956-5.964-4.956-3.64 0-5.936 1.988-5.936 4.452 0 5.656 8.96 3.92 8.96 6.944 0 1.064-.98 1.848-2.828 1.848-1.764 0-2.968-1.036-3.08-2.296h-3.304c.14 2.8 2.744 4.984 6.44 4.984 3.64 0 5.908-1.96 5.908-4.564zm9.659-3.472c0 4.76 3.22 8.036 7.224 8.036 2.576 0 4.424-1.232 5.404-2.548V61h3.22V45.572h-3.22v2.24c-.952-1.26-2.744-2.492-5.348-2.492-4.06 0-7.28 3.136-7.28 7.896zm12.628.056c0 3.332-2.268 5.208-4.676 5.208-2.38 0-4.676-1.932-4.676-5.264 0-3.332 2.296-5.124 4.676-5.124 2.408 0 4.676 1.876 4.676 5.18zM153.169 61h3.164v-9.1c0-4.312-2.716-6.58-6.328-6.58-1.848 0-3.556.756-4.592 2.016v-1.764h-3.192V61h3.192v-8.624c0-2.828 1.54-4.284 3.892-4.284 2.324 0 3.864 1.456 3.864 4.284V61zm6.172-7.784c0 4.76 3.22 8.036 7.28 8.036 2.52 0 4.368-1.176 5.348-2.576V61h3.22V40.28h-3.22v7.448c-1.176-1.456-3.304-2.408-5.32-2.408-4.088 0-7.308 3.136-7.308 7.896zm12.628.056c0 3.332-2.268 5.208-4.676 5.208-2.38 0-4.676-1.932-4.676-5.264 0-3.332 2.296-5.124 4.676-5.124 2.408 0 4.676 1.876 4.676 5.18zm14.266-2.744c0 5.936 1.568 10.416 7.28 10.416s7.28-4.48 7.28-10.416c0-5.824-1.568-10.304-7.28-10.304s-7.28 4.48-7.28 10.304zm11.424 0c0 4.004-.42 7.504-4.144 7.504s-4.144-3.5-4.144-7.504c0-3.808.42-7.392 4.144-7.392s4.144 3.584 4.144 7.392zm6.009-5.012c0 2.8 1.82 4.396 4.256 4.396s4.256-1.596 4.256-4.396c0-2.772-1.82-4.368-4.256-4.368s-4.256 1.596-4.256 4.368zm4.256-2.436c1.064 0 1.764.7 1.764 2.436s-.7 2.464-1.764 2.464c-1.092 0-1.764-.728-1.764-2.464s.672-2.436 1.764-2.436zM206.44 61h3.136l11.172-19.488h-3.136L206.44 61zm8.624-4.032c0 2.8 1.82 4.396 4.256 4.396 2.408 0 4.228-1.596 4.228-4.396s-1.82-4.368-4.228-4.368c-2.436 0-4.256 1.568-4.256 4.368zm4.228-2.436c1.064 0 1.764.7 1.764 2.436s-.7 2.436-1.764 2.436-1.764-.7-1.764-2.436.7-2.436 1.764-2.436zm13.74-1.26c0 4.844 3.136 7.98 7.56 7.98 3.78 0 6.244-2.1 7.112-5.124h-3.444c-.588 1.596-1.764 2.436-3.668 2.436-2.576 0-4.284-1.904-4.284-5.292 0-3.36 1.708-5.264 4.284-5.264 1.904 0 3.136.952 3.668 2.436h3.444c-.868-3.248-3.332-5.124-7.112-5.124-4.424 0-7.56 3.136-7.56 7.952zm32.553 0c0-4.844-3.472-7.952-7.868-7.952-4.396 0-7.868 3.108-7.868 7.952 0 4.844 3.332 7.98 7.728 7.98 4.424 0 8.008-3.136 8.008-7.98zm-12.488 0c0-3.5 2.156-5.18 4.564-5.18 2.38 0 4.648 1.68 4.648 5.18s-2.352 5.208-4.732 5.208c-2.408 0-4.48-1.708-4.48-5.208zM290.609 61h3.164v-9.1c0-4.312-2.744-6.58-6.356-6.58-2.24 0-4.424 1.176-5.376 3.052-1.064-2.016-3.108-3.052-5.544-3.052-1.848 0-3.528.756-4.564 2.016v-1.764h-3.192V61h3.192v-8.624c0-2.828 1.54-4.284 3.892-4.284 2.324 0 3.864 1.456 3.864 4.284V61h3.164v-8.624c0-2.828 1.54-4.284 3.892-4.284 2.324 0 3.864 1.456 3.864 4.284V61zm29.093 0h3.164v-9.1c0-4.312-2.744-6.58-6.356-6.58-2.24 0-4.424 1.176-5.376 3.052-1.064-2.016-3.108-3.052-5.544-3.052-1.848 0-3.528.756-4.564 2.016v-1.764h-3.192V61h3.192v-8.624c0-2.828 1.54-4.284 3.892-4.284 2.324 0 3.864 1.456 3.864 4.284V61h3.164v-8.624c0-2.828 1.54-4.284 3.892-4.284 2.324 0 3.864 1.456 3.864 4.284V61zm7.226 0h3.192V45.572h-3.192V61zm1.624-17.472c1.12 0 2.016-.896 2.016-2.044 0-1.148-.896-2.044-2.016-2.044a2.02 2.02 0 00-2.044 2.044 2.02 2.02 0 002.044 2.044zm17.267 13.16c-.168-5.572-8.876-3.836-8.876-6.944 0-1.036.896-1.736 2.604-1.736 1.736 0 2.772.924 2.884 2.268h3.192c-.168-3.08-2.464-4.956-5.964-4.956-3.64 0-5.936 1.988-5.936 4.452 0 5.656 8.96 3.92 8.96 6.944 0 1.064-.98 1.848-2.828 1.848-1.764 0-2.968-1.036-3.08-2.296h-3.304c.14 2.8 2.744 4.984 6.44 4.984 3.64 0 5.908-1.96 5.908-4.564zm14.957 0c-.168-5.572-8.876-3.836-8.876-6.944 0-1.036.896-1.736 2.604-1.736 1.736 0 2.772.924 2.884 2.268h3.192c-.168-3.08-2.464-4.956-5.964-4.956-3.64 0-5.936 1.988-5.936 4.452 0 5.656 8.96 3.92 8.96 6.944 0 1.064-.98 1.848-2.828 1.848-1.764 0-2.968-1.036-3.08-2.296h-3.304c.14 2.8 2.744 4.984 6.44 4.984 3.64 0 5.908-1.96 5.908-4.564zM364.225 61h3.192V45.572h-3.192V61zm1.624-17.472c1.12 0 2.016-.896 2.016-2.044 0-1.148-.896-2.044-2.016-2.044a2.02 2.02 0 00-2.044 2.044 2.02 2.02 0 002.044 2.044zm20.459 9.744c0-4.844-3.472-7.952-7.868-7.952-4.396 0-7.868 3.108-7.868 7.952 0 4.844 3.332 7.98 7.728 7.98 4.424 0 8.008-3.136 8.008-7.98zm-12.488 0c0-3.5 2.156-5.18 4.564-5.18 2.38 0 4.648 1.68 4.648 5.18s-2.352 5.208-4.732 5.208c-2.408 0-4.48-1.708-4.48-5.208zM400.411 61h3.164v-9.1c0-4.312-2.716-6.58-6.328-6.58-1.848 0-3.556.756-4.592 2.016v-1.764h-3.192V61h3.192v-8.624c0-2.828 1.54-4.284 3.892-4.284 2.324 0 3.864 1.456 3.864 4.284V61z" fill="#fff"/></svg>