<svg width="491" height="83" viewBox="0 0 491 83" fill="none" xmlns="http://www.w3.org/2000/svg"><path d="M.326 12.532H6.65V33h3.876V12.532h6.29V9.37H.326v3.162zM24.617 23.14c0-3.978 1.768-5.168 4.624-5.168h.986V13.96c-2.652 0-4.522 1.156-5.61 3.026v-2.72h-3.876V33h3.876v-9.86zm7.881.408c0 5.78 3.91 9.758 8.772 9.758 3.128 0 5.372-1.496 6.562-3.094V33h3.91V14.266h-3.91v2.72c-1.156-1.53-3.332-3.026-6.494-3.026-4.93 0-8.84 3.808-8.84 9.588zm15.334.068c0 4.046-2.754 6.324-5.678 6.324-2.89 0-5.678-2.346-5.678-6.392s2.788-6.222 5.678-6.222c2.924 0 5.678 2.278 5.678 6.29zm7.71-.068c0 5.78 3.91 9.758 8.84 9.758 3.06 0 5.303-1.428 6.493-3.128V33h3.91V7.84h-3.91v9.044c-1.428-1.768-4.012-2.924-6.46-2.924-4.964 0-8.874 3.808-8.874 9.588zm15.333.068c0 4.046-2.754 6.324-5.678 6.324-2.89 0-5.678-2.346-5.678-6.392s2.788-6.222 5.678-6.222c2.924 0 5.678 2.278 5.678 6.29zm16.89-6.392c2.89 0 5.167 1.836 5.235 4.726H82.63c.408-2.958 2.516-4.726 5.134-4.726zm8.771 10.2h-4.182c-.714 1.462-2.04 2.618-4.42 2.618-2.856 0-5.066-1.87-5.338-4.964H96.91c.102-.646.136-1.258.136-1.904 0-5.508-3.774-9.214-9.112-9.214-5.542 0-9.35 3.774-9.35 9.656 0 5.882 3.978 9.69 9.35 9.69 4.59 0 7.548-2.618 8.602-5.882zM122.75 9.336h-13.056V33h13.056v-3.162h-9.18v-7.242h8.16v-3.162h-8.16v-6.936h9.18V9.336zm4.74 15.028c0 6.018 4.216 8.874 9.18 8.874 4.93 0 9.282-2.856 9.282-8.874V9.37h-3.876v15.062c0 3.672-2.074 5.406-5.372 5.406-3.264 0-5.338-1.734-5.338-5.406V9.37h-3.876v14.994zm36.054-7.922c0 2.346-1.36 4.012-4.386 4.012h-4.284v-7.922h4.284c3.026 0 4.386 1.53 4.386 3.91zM150.997 9.37V33h3.876v-9.452h2.958l5.44 9.452h4.624l-5.848-9.792c3.978-.986 5.474-3.978 5.474-6.766 0-3.842-2.754-7.072-8.364-7.072h-8.16zm21.007 29.58h3.808L185.06.904h-3.842l-9.214 38.046zm17.907-14.586c0 6.018 4.216 8.874 9.18 8.874 4.93 0 9.282-2.856 9.282-8.874V9.37h-3.876v15.062c0 3.672-2.074 5.406-5.372 5.406-3.264 0-5.338-1.734-5.338-5.406V9.37h-3.876v14.994zm39.454 1.938c0-8.636-12.512-5.304-12.512-10.642 0-2.278 1.734-3.366 3.978-3.298 2.448.068 3.842 1.53 3.978 3.128h4.284c-.34-4.046-3.536-6.426-8.058-6.426-4.828 0-8.126 2.584-8.126 6.732 0 8.704 12.546 4.998 12.546 10.71 0 2.006-1.53 3.468-4.25 3.468-2.686 0-4.046-1.564-4.216-3.502h-4.148c0 4.182 3.638 6.766 8.364 6.766 5.27 0 8.16-3.4 8.16-6.936zM241.657 9.37h-7.718V33h7.718c7.582 0 12.546-4.454 12.546-11.73 0-7.31-4.964-11.9-12.546-11.9zm-3.842 20.468V12.532h3.842c5.576 0 8.568 3.332 8.568 8.738 0 5.372-2.992 8.568-8.568 8.568h-3.842zM270.514 33h4.08l3.774-13.838L282.142 33h4.08l5.814-18.734h-3.808l-3.876 14.994-3.808-14.994h-4.046l-3.978 15.062-3.91-15.062h-3.944L270.514 33zm24.419 0h3.876V14.266h-3.876V33zm1.972-21.216c1.36 0 2.448-1.088 2.448-2.482 0-1.394-1.088-2.482-2.448-2.482a2.453 2.453 0 00-2.482 2.482 2.453 2.453 0 002.482 2.482zm7.605 16.014c0 3.808 2.074 5.202 5.406 5.202h3.06v-3.23h-2.38c-1.632 0-2.176-.578-2.176-1.972v-10.37h4.556v-3.162h-4.556V9.608h-3.91v4.658h-2.21v3.162h2.21v10.37zM316.548 33h3.876V22.528c0-3.434 1.87-5.202 4.726-5.202 2.822 0 4.692 1.768 4.692 5.202V33h3.842V21.95c0-5.236-3.264-7.99-7.446-7.99-2.414 0-4.522.918-5.814 2.482V7.84h-3.876V33zm30.912 0h3.876V7.84h-3.876V33zm26.815-9.384c0-5.882-4.216-9.656-9.554-9.656s-9.554 3.774-9.554 9.656c0 5.882 4.046 9.69 9.384 9.69 5.372 0 9.724-3.808 9.724-9.69zm-15.164 0c0-4.25 2.618-6.29 5.542-6.29 2.89 0 5.644 2.04 5.644 6.29s-2.856 6.324-5.746 6.324c-2.924 0-5.44-2.074-5.44-6.324zM381.745 33h4.08l3.774-13.838L393.373 33h4.08l5.814-18.734h-3.808l-3.876 14.994-3.808-14.994h-4.046l-3.978 15.062-3.91-15.062h-3.944L381.745 33zM15.524 68.764c-.204-6.766-10.778-4.658-10.778-8.432 0-1.258 1.088-2.108 3.162-2.108 2.108 0 3.366 1.122 3.502 2.754h3.876c-.204-3.74-2.992-6.018-7.242-6.018-4.42 0-7.208 2.414-7.208 5.406 0 6.868 10.88 4.76 10.88 8.432 0 1.292-1.19 2.244-3.434 2.244-2.142 0-3.604-1.258-3.74-2.788H.53c.17 3.4 3.332 6.052 7.82 6.052 4.42 0 7.174-2.38 7.174-5.542zm8.064-10.744v-2.754h-3.876v27.642h3.876V71.28a8.47 8.47 0 006.528 3.026c4.93 0 8.806-3.978 8.806-9.758 0-5.78-3.876-9.588-8.806-9.588-3.06 0-5.338 1.496-6.528 3.06zm11.39 6.528c0 4.046-2.788 6.392-5.712 6.392-2.89 0-5.678-2.278-5.678-6.324 0-4.012 2.788-6.29 5.678-6.29 2.924 0 5.712 2.176 5.712 6.222zm11.653-.408c0-3.978 1.768-5.168 4.624-5.168h.986V54.96c-2.652 0-4.522 1.156-5.61 3.026v-2.72h-3.876V74h3.876v-9.86zm17.06-5.916c2.89 0 5.169 1.836 5.237 4.726h-10.37c.408-2.958 2.516-4.726 5.134-4.726zm8.773 10.2h-4.182c-.714 1.462-2.04 2.618-4.42 2.618-2.856 0-5.066-1.87-5.338-4.964h14.314c.102-.646.136-1.258.136-1.904 0-5.508-3.774-9.214-9.112-9.214-5.542 0-9.35 3.774-9.35 9.656 0 5.882 3.978 9.69 9.35 9.69 4.59 0 7.548-2.618 8.602-5.882zm3.032-3.876c0 5.78 3.91 9.758 8.772 9.758 3.128 0 5.372-1.496 6.562-3.094V74h3.91V55.266h-3.91v2.72c-1.156-1.53-3.332-3.026-6.494-3.026-4.93 0-8.84 3.808-8.84 9.588zm15.334.068c0 4.046-2.754 6.324-5.678 6.324-2.89 0-5.678-2.346-5.678-6.392s2.788-6.222 5.678-6.222c2.924 0 5.678 2.278 5.678 6.29zm7.71-.068c0 5.78 3.909 9.758 8.839 9.758 3.06 0 5.304-1.428 6.494-3.128V74h3.91V48.84h-3.91v9.044c-1.428-1.768-4.012-2.924-6.46-2.924-4.964 0-8.874 3.808-8.874 9.588zm15.333.068c0 4.046-2.754 6.324-5.678 6.324-2.89 0-5.678-2.346-5.678-6.392s2.788-6.222 5.678-6.222c2.924 0 5.678 2.278 5.678 6.29zm22.975 4.148c-.204-6.766-10.778-4.658-10.778-8.432 0-1.258 1.088-2.108 3.162-2.108 2.108 0 3.366 1.122 3.502 2.754h3.876c-.204-3.74-2.992-6.018-7.242-6.018-4.42 0-7.208 2.414-7.208 5.406 0 6.868 10.88 4.76 10.88 8.432 0 1.292-1.19 2.244-3.434 2.244-2.142 0-3.604-1.258-3.74-2.788h-4.012c.17 3.4 3.332 6.052 7.82 6.052 4.42 0 7.174-2.38 7.174-5.542zm11.728-4.216c0 5.78 3.91 9.758 8.772 9.758 3.128 0 5.372-1.496 6.562-3.094V74h3.91V55.266h-3.91v2.72c-1.156-1.53-3.332-3.026-6.494-3.026-4.93 0-8.84 3.808-8.84 9.588zm15.334.068c0 4.046-2.754 6.324-5.678 6.324-2.89 0-5.678-2.346-5.678-6.392s2.788-6.222 5.678-6.222c2.924 0 5.678 2.278 5.678 6.29zM186.205 74h3.842V62.95c0-5.236-3.298-7.99-7.684-7.99-2.244 0-4.318.918-5.576 2.448v-2.142h-3.876V74h3.876V63.528c0-3.434 1.87-5.202 4.726-5.202 2.822 0 4.692 1.768 4.692 5.202V74zm7.494-9.452c0 5.78 3.91 9.758 8.84 9.758 3.06 0 5.304-1.428 6.494-3.128V74h3.91V48.84h-3.91v9.044c-1.428-1.768-4.012-2.924-6.46-2.924-4.964 0-8.874 3.808-8.874 9.588zm15.334.068c0 4.046-2.754 6.324-5.678 6.324-2.89 0-5.678-2.346-5.678-6.392s2.788-6.222 5.678-6.222c2.924 0 5.678 2.278 5.678 6.29zm17.323-3.332c0 7.208 1.904 12.648 8.84 12.648s8.84-5.44 8.84-12.648c0-7.072-1.904-12.512-8.84-12.512s-8.84 5.44-8.84 12.512zm13.872 0c0 4.862-.51 9.112-5.032 9.112s-5.032-4.25-5.032-9.112c0-4.624.51-8.976 5.032-8.976s5.032 4.352 5.032 8.976zm7.298-6.086c0 3.4 2.21 5.338 5.168 5.338s5.168-1.938 5.168-5.338c0-3.366-2.21-5.304-5.168-5.304s-5.168 1.938-5.168 5.304zm5.168-2.958c1.292 0 2.142.85 2.142 2.958s-.85 2.992-2.142 2.992c-1.326 0-2.142-.884-2.142-2.992s.816-2.958 2.142-2.958zM250.892 74h3.808l13.566-23.664h-3.808L250.892 74zm10.472-4.896c0 3.4 2.21 5.338 5.168 5.338 2.924 0 5.134-1.938 5.134-5.338 0-3.4-2.21-5.304-5.134-5.304-2.958 0-5.168 1.904-5.168 5.304zm5.134-2.958c1.292 0 2.142.85 2.142 2.958s-.85 2.958-2.142 2.958c-1.292 0-2.142-.85-2.142-2.958s.85-2.958 2.142-2.958zm16.684-1.53c0 5.882 3.808 9.69 9.18 9.69 4.59 0 7.582-2.55 8.636-6.222h-4.182c-.714 1.938-2.142 2.958-4.454 2.958-3.128 0-5.202-2.312-5.202-6.426 0-4.08 2.074-6.392 5.202-6.392 2.312 0 3.808 1.156 4.454 2.958h4.182c-1.054-3.944-4.046-6.222-8.636-6.222-5.372 0-9.18 3.808-9.18 9.656zm39.529 0c0-5.882-4.216-9.656-9.554-9.656s-9.554 3.774-9.554 9.656c0 5.882 4.046 9.69 9.384 9.69 5.372 0 9.724-3.808 9.724-9.69zm-15.164 0c0-4.25 2.618-6.29 5.542-6.29 2.89 0 5.644 2.04 5.644 6.29s-2.856 6.324-5.746 6.324c-2.924 0-5.44-2.074-5.44-6.324zM353.096 74h3.842V62.95c0-5.236-3.332-7.99-7.718-7.99-2.72 0-5.372 1.428-6.528 3.706-1.292-2.448-3.774-3.706-6.732-3.706-2.244 0-4.284.918-5.542 2.448v-2.142h-3.876V74h3.876V63.528c0-3.434 1.87-5.202 4.726-5.202 2.822 0 4.692 1.768 4.692 5.202V74h3.842V63.528c0-3.434 1.87-5.202 4.726-5.202 2.822 0 4.692 1.768 4.692 5.202V74zm35.328 0h3.842V62.95c0-5.236-3.332-7.99-7.718-7.99-2.72 0-5.372 1.428-6.528 3.706-1.292-2.448-3.774-3.706-6.732-3.706-2.244 0-4.284.918-5.542 2.448v-2.142h-3.876V74h3.876V63.528c0-3.434 1.87-5.202 4.726-5.202 2.822 0 4.692 1.768 4.692 5.202V74h3.842V63.528c0-3.434 1.87-5.202 4.726-5.202 2.822 0 4.692 1.768 4.692 5.202V74zm8.774 0h3.876V55.266h-3.876V74zm1.972-21.216c1.36 0 2.448-1.088 2.448-2.482 0-1.394-1.088-2.482-2.448-2.482a2.453 2.453 0 00-2.482 2.482 2.453 2.453 0 002.482 2.482zm20.967 15.98c-.204-6.766-10.778-4.658-10.778-8.432 0-1.258 1.088-2.108 3.162-2.108 2.108 0 3.366 1.122 3.502 2.754h3.876c-.204-3.74-2.992-6.018-7.242-6.018-4.42 0-7.208 2.414-7.208 5.406 0 6.868 10.88 4.76 10.88 8.432 0 1.292-1.19 2.244-3.434 2.244-2.142 0-3.604-1.258-3.74-2.788h-4.012c.17 3.4 3.332 6.052 7.82 6.052 4.42 0 7.174-2.38 7.174-5.542zm18.162 0c-.204-6.766-10.778-4.658-10.778-8.432 0-1.258 1.088-2.108 3.162-2.108 2.108 0 3.366 1.122 3.502 2.754h3.876c-.204-3.74-2.992-6.018-7.242-6.018-4.42 0-7.208 2.414-7.208 5.406 0 6.868 10.88 4.76 10.88 8.432 0 1.292-1.19 2.244-3.434 2.244-2.142 0-3.604-1.258-3.74-2.788h-4.012c.17 3.4 3.332 6.052 7.82 6.052 4.42 0 7.174-2.38 7.174-5.542zM442.488 74h3.876V55.266h-3.876V74zm1.972-21.216c1.36 0 2.448-1.088 2.448-2.482 0-1.394-1.088-2.482-2.448-2.482a2.453 2.453 0 00-2.482 2.482 2.453 2.453 0 002.482 2.482zm24.842 11.832c0-5.882-4.216-9.656-9.554-9.656s-9.554 3.774-9.554 9.656c0 5.882 4.046 9.69 9.384 9.69 5.372 0 9.724-3.808 9.724-9.69zm-15.164 0c0-4.25 2.618-6.29 5.542-6.29 2.89 0 5.644 2.04 5.644 6.29s-2.856 6.324-5.746 6.324c-2.924 0-5.44-2.074-5.44-6.324zM486.428 74h3.842V62.95c0-5.236-3.298-7.99-7.684-7.99-2.244 0-4.318.918-5.576 2.448v-2.142h-3.876V74h3.876V63.528c0-3.434 1.87-5.202 4.726-5.202 2.822 0 4.692 1.768 4.692 5.202V74z" fill="#fff"/></svg>