<svg width="321" height="12" viewBox="0 0 321 12" fill="none" xmlns="http://www.w3.org/2000/svg"><path d="M6.846 1.214v.812H4.13V11h-.98V2.026H.42v-.812h6.426zm2.527 3.5c.215-.476.542-.845.98-1.106.448-.261.994-.392 1.638-.392v1.022h-.266c-.709 0-1.278.191-1.708.574-.429.383-.644 1.022-.644 1.918V11h-.98V3.356h.98v1.358zm3.645 2.45c0-.784.154-1.47.462-2.058a3.36 3.36 0 011.302-1.372c.56-.327 1.19-.49 1.89-.49.728 0 1.353.168 1.876.504.532.336.914.765 1.148 1.288v-1.68h.98V11h-.98V9.306c-.243.523-.63.957-1.162 1.302-.523.336-1.148.504-1.876.504-.691 0-1.316-.163-1.876-.49a3.458 3.458 0 01-1.302-1.386c-.308-.597-.462-1.288-.462-2.072zm6.678.014c0-.616-.126-1.157-.378-1.624a2.682 2.682 0 00-1.036-1.078 2.769 2.769 0 00-1.428-.378c-.542 0-1.027.121-1.456.364-.43.243-.77.597-1.022 1.064-.243.457-.364 1.003-.364 1.638 0 .625.121 1.176.364 1.652.252.467.592.826 1.022 1.078.429.243.914.364 1.456.364.522 0 .998-.126 1.428-.378a2.682 2.682 0 001.036-1.078c.252-.467.378-1.008.378-1.624zm2.769-.014c0-.784.159-1.47.476-2.058a3.36 3.36 0 011.302-1.372c.56-.327 1.19-.49 1.89-.49.672 0 1.279.163 1.82.49.541.327.938.751 1.19 1.274V.64h.98V11h-.98V9.292c-.233.532-.616.97-1.148 1.316-.532.336-1.157.504-1.876.504-.7 0-1.33-.163-1.89-.49a3.458 3.458 0 01-1.302-1.386c-.308-.597-.462-1.288-.462-2.072zm6.678.014c0-.616-.126-1.157-.378-1.624a2.683 2.683 0 00-1.036-1.078 2.77 2.77 0 00-1.428-.378c-.541 0-1.027.121-1.456.364-.43.243-.77.597-1.022 1.064-.243.457-.364 1.003-.364 1.638 0 .625.121 1.176.364 1.652.252.467.593.826 1.022 1.078.43.243.915.364 1.456.364a2.77 2.77 0 001.428-.378 2.683 2.683 0 001.036-1.078c.252-.467.378-1.008.378-1.624zm10.133-.392c0 .336-.01.593-.028.77h-6.342c.028.579.168 1.073.42 1.484.252.41.584.723.994.938.41.205.859.308 1.344.308.635 0 1.167-.154 1.596-.462.439-.308.728-.723.868-1.246h1.036a3.256 3.256 0 01-1.204 1.834c-.606.467-1.372.7-2.296.7-.718 0-1.362-.159-1.932-.476a3.519 3.519 0 01-1.344-1.372c-.317-.597-.476-1.293-.476-2.086 0-.793.159-1.489.476-2.086a3.31 3.31 0 011.33-1.372c.57-.317 1.218-.476 1.946-.476s1.363.159 1.904.476c.55.317.97.747 1.26 1.288.299.532.448 1.125.448 1.778zm-.994-.028c.01-.57-.107-1.055-.35-1.456a2.27 2.27 0 00-.966-.91 2.962 2.962 0 00-1.344-.308c-.728 0-1.348.233-1.862.7-.513.467-.798 1.125-.854 1.974h5.376zm16.709-3.402L52.597 11h-.98l-2.114-6.412L47.389 11h-.994l-2.394-7.644h.994l1.904 6.65 2.142-6.65h.98l2.114 6.664 1.89-6.664h.966zm1.826-1.442a.687.687 0 01-.504-.21.704.704 0 01-.21-.518c0-.205.07-.373.21-.504.14-.14.308-.21.504-.21s.364.07.504.21c.14.13.21.299.21.504 0 .205-.07.378-.21.518a.687.687 0 01-.504.21zm.49 1.442V11h-.98V3.356h.98zm3.493.826v4.746c0 .467.089.789.266.966.178.177.49.266.938.266h.896V11h-1.05c-.69 0-1.204-.159-1.54-.476-.336-.327-.504-.859-.504-1.596V4.182h-1.064v-.826h1.064V1.438h.994v1.918h2.1v.826h-2.1zm7.356-.966c.58 0 1.097.121 1.554.364.467.243.831.616 1.093 1.12.27.495.406 1.101.406 1.82V11h-.966V6.632c0-.83-.21-1.465-.63-1.904-.411-.439-.976-.658-1.695-.658-.737 0-1.325.233-1.764.7-.438.467-.657 1.153-.657 2.058V11h-.98V.64h.98v4.018a2.543 2.543 0 011.064-1.064 3.358 3.358 0 011.595-.378zm10.336.966v4.746c0 .467.088.789.266.966.177.177.49.266.938.266h.896V11h-1.05c-.691 0-1.204-.159-1.54-.476-.336-.327-.504-.859-.504-1.596V4.182h-1.064v-.826h1.064V1.438h.994v1.918h2.1v.826h-2.1zm7.356-.966c.579 0 1.097.121 1.554.364.467.243.83.616 1.092 1.12.27.495.406 1.101.406 1.82V11h-.966V6.632c0-.83-.21-1.465-.63-1.904-.41-.439-.975-.658-1.694-.658-.737 0-1.325.233-1.764.7-.439.467-.658 1.153-.658 2.058V11h-.98V.64h.98v4.018a2.543 2.543 0 011.064-1.064 3.358 3.358 0 011.596-.378zm12.135 3.57c0 .336-.01.593-.028.77h-6.342c.028.579.168 1.073.42 1.484.252.41.584.723.994.938.41.205.859.308 1.344.308.635 0 1.167-.154 1.596-.462a2.16 2.16 0 00.868-1.246h1.036a3.257 3.257 0 01-1.204 1.834c-.606.467-1.372.7-2.296.7-.718 0-1.362-.159-1.932-.476a3.518 3.518 0 01-1.344-1.372c-.317-.597-.476-1.293-.476-2.086 0-.793.159-1.489.476-2.086a3.308 3.308 0 011.33-1.372c.57-.317 1.218-.476 1.946-.476s1.363.159 1.904.476c.55.317.97.747 1.26 1.288a3.57 3.57 0 01.448 1.778zm-.994-.028c.01-.57-.107-1.055-.35-1.456a2.272 2.272 0 00-.966-.91 2.963 2.963 0 00-1.344-.308c-.728 0-1.348.233-1.862.7-.513.467-.798 1.125-.854 1.974h5.376zm10.269-3.542c.579 0 1.097.121 1.554.364.467.243.831.616 1.092 1.12.271.495.406 1.101.406 1.82V11h-.966V6.632c0-.83-.21-1.465-.63-1.904-.411-.439-.975-.658-1.694-.658-.737 0-1.325.233-1.764.7-.439.467-.658 1.153-.658 2.058V11h-.98V.64h.98v4.018a2.543 2.543 0 011.064-1.064 3.358 3.358 0 011.596-.378zm8.565 7.896c-.718 0-1.367-.159-1.946-.476a3.62 3.62 0 01-1.358-1.372c-.326-.597-.49-1.293-.49-2.086 0-.793.168-1.484.504-2.072a3.469 3.469 0 011.372-1.372 3.892 3.892 0 011.946-.49c.719 0 1.368.163 1.946.49a3.346 3.346 0 011.372 1.372c.336.588.504 1.279.504 2.072 0 .784-.168 1.475-.504 2.072a3.535 3.535 0 01-1.386 1.386 4.06 4.06 0 01-1.96.476zm0-.854a2.98 2.98 0 001.4-.336c.43-.233.775-.579 1.036-1.036.271-.467.406-1.036.406-1.708 0-.672-.13-1.237-.392-1.694-.261-.467-.606-.812-1.036-1.036a2.884 2.884 0 00-1.4-.35c-.504 0-.97.117-1.4.35-.429.224-.774.57-1.036 1.036-.252.457-.378 1.022-.378 1.694 0 .672.126 1.241.378 1.708.262.457.602.803 1.022 1.036.43.224.896.336 1.4.336zm14.737-7.042c.896 0 1.624.285 2.184.854.569.56.854 1.377.854 2.45V11h-.966V6.632c0-.83-.201-1.465-.602-1.904-.401-.439-.947-.658-1.638-.658-.719 0-1.293.238-1.722.714-.429.476-.644 1.167-.644 2.072V11h-.966V6.632c0-.83-.201-1.465-.602-1.904-.401-.439-.952-.658-1.652-.658-.719 0-1.293.238-1.722.714-.429.476-.644 1.167-.644 2.072V11h-.98V3.356h.98v1.316a2.465 2.465 0 011.036-1.078 3.001 3.001 0 011.498-.378c.663 0 1.241.159 1.736.476.504.317.868.784 1.092 1.4.205-.607.555-1.069 1.05-1.386a3.07 3.07 0 011.708-.49zm12.13 3.57c0 .336-.009.593-.028.77h-6.342c.028.579.168 1.073.42 1.484.252.41.584.723.994.938.411.205.859.308 1.344.308.635 0 1.167-.154 1.596-.462.439-.308.728-.723.868-1.246h1.036a3.253 3.253 0 01-1.204 1.834c-.606.467-1.372.7-2.296.7-.718 0-1.362-.159-1.932-.476a3.523 3.523 0 01-1.344-1.372c-.317-.597-.476-1.293-.476-2.086 0-.793.159-1.489.476-2.086a3.315 3.315 0 011.33-1.372c.57-.317 1.218-.476 1.946-.476s1.363.159 1.904.476a3.21 3.21 0 011.26 1.288c.299.532.448 1.125.448 1.778zm-.994-.028c.01-.57-.107-1.055-.35-1.456a2.267 2.267 0 00-.966-.91 2.959 2.959 0 00-1.344-.308c-.728 0-1.348.233-1.862.7-.513.467-.798 1.125-.854 1.974h5.376zm9.975 4.354c-.719 0-1.367-.159-1.946-.476a3.62 3.62 0 01-1.358-1.372c-.327-.597-.49-1.293-.49-2.086 0-.793.168-1.484.504-2.072a3.462 3.462 0 011.372-1.372 3.889 3.889 0 011.946-.49c.719 0 1.367.163 1.946.49a3.352 3.352 0 011.372 1.372c.336.588.504 1.279.504 2.072 0 .784-.168 1.475-.504 2.072a3.535 3.535 0 01-1.386 1.386 4.06 4.06 0 01-1.96.476zm0-.854a2.98 2.98 0 001.4-.336 2.632 2.632 0 001.036-1.036c.271-.467.406-1.036.406-1.708 0-.672-.131-1.237-.392-1.694-.261-.467-.607-.812-1.036-1.036a2.884 2.884 0 00-1.4-.35c-.504 0-.971.117-1.4.35-.429.224-.775.57-1.036 1.036-.252.457-.378 1.022-.378 1.694 0 .672.126 1.241.378 1.708.261.457.602.803 1.022 1.036a2.98 2.98 0 001.4.336zm8.647-6.076h-1.778V11h-.98V4.182h-1.064v-.826h1.064v-.532c0-.83.21-1.442.63-1.834.429-.392 1.12-.588 2.072-.588v.84c-.635 0-1.083.121-1.344.364-.252.243-.378.649-.378 1.218v.532h1.778v.826zm8.394 0h-1.778V11h-.98V4.182h-1.064v-.826h1.064v-.532c0-.83.21-1.442.63-1.834.429-.392 1.12-.588 2.072-.588v.84c-.635 0-1.083.121-1.344.364-.252.243-.378.649-.378 1.218v.532h1.778v.826zm4.889 6.93c-.719 0-1.368-.159-1.946-.476a3.613 3.613 0 01-1.358-1.372c-.327-.597-.49-1.293-.49-2.086 0-.793.168-1.484.504-2.072a3.462 3.462 0 011.372-1.372c.578-.327 1.227-.49 1.946-.49.718 0 1.367.163 1.946.49a3.352 3.352 0 011.372 1.372c.336.588.504 1.279.504 2.072 0 .784-.168 1.475-.504 2.072a3.535 3.535 0 01-1.386 1.386 4.062 4.062 0 01-1.96.476zm0-.854c.504 0 .97-.112 1.4-.336a2.639 2.639 0 001.036-1.036c.27-.467.406-1.036.406-1.708 0-.672-.131-1.237-.392-1.694-.262-.467-.607-.812-1.036-1.036a2.887 2.887 0 00-1.4-.35c-.504 0-.971.117-1.4.35-.43.224-.775.57-1.036 1.036-.252.457-.378 1.022-.378 1.694 0 .672.126 1.241.378 1.708.261.457.602.803 1.022 1.036a2.98 2.98 0 001.4.336zm6.616-5.544c.215-.476.542-.845.98-1.106.448-.261.994-.392 1.638-.392v1.022h-.266c-.709 0-1.278.191-1.708.574-.429.383-.644 1.022-.644 1.918V11h-.98V3.356h.98v1.358zm11.008 2.072c0 .336-.009.593-.028.77h-6.342c.028.579.168 1.073.42 1.484.252.41.584.723.994.938.411.205.859.308 1.344.308.635 0 1.167-.154 1.596-.462.439-.308.728-.723.868-1.246h1.036a3.253 3.253 0 01-1.204 1.834c-.606.467-1.372.7-2.296.7-.718 0-1.362-.159-1.932-.476a3.523 3.523 0 01-1.344-1.372c-.317-.597-.476-1.293-.476-2.086 0-.793.159-1.489.476-2.086a3.315 3.315 0 011.33-1.372c.57-.317 1.218-.476 1.946-.476s1.363.159 1.904.476a3.21 3.21 0 011.26 1.288c.299.532.448 1.125.448 1.778zm-.994-.028c.01-.57-.107-1.055-.35-1.456a2.267 2.267 0 00-.966-.91 2.959 2.959 0 00-1.344-.308c-.728 0-1.348.233-1.862.7-.513.467-.798 1.125-.854 1.974h5.376zM197.022 11l-1.974-3.08-1.904 3.08h-1.036l2.464-3.822-2.436-3.822h1.106l1.946 3.038 1.89-3.038h1.022l-2.436 3.78L198.128 11h-1.106zm5.83-3.836c0-.784.154-1.47.462-2.058a3.357 3.357 0 011.302-1.372c.56-.327 1.19-.49 1.89-.49.728 0 1.353.168 1.876.504.532.336.914.765 1.148 1.288v-1.68h.98V11h-.98V9.306c-.243.523-.63.957-1.162 1.302-.523.336-1.148.504-1.876.504a3.653 3.653 0 01-1.876-.49 3.453 3.453 0 01-1.302-1.386c-.308-.597-.462-1.288-.462-2.072zm6.678.014c0-.616-.126-1.157-.378-1.624a2.687 2.687 0 00-1.036-1.078 2.772 2.772 0 00-1.428-.378c-.542 0-1.027.121-1.456.364-.43.243-.77.597-1.022 1.064-.243.457-.364 1.003-.364 1.638 0 .625.121 1.176.364 1.652.252.467.592.826 1.022 1.078.429.243.914.364 1.456.364.522 0 .998-.126 1.428-.378a2.687 2.687 0 001.036-1.078c.252-.467.378-1.008.378-1.624zm6.801-3.962c.915 0 1.661.285 2.24.854.579.56.868 1.377.868 2.45V11h-.966V6.632c0-.83-.21-1.465-.63-1.904-.411-.439-.975-.658-1.694-.658-.737 0-1.325.233-1.764.7-.439.467-.658 1.153-.658 2.058V11h-.98V3.356h.98v1.302a2.463 2.463 0 011.05-1.064 3.164 3.164 0 011.554-.378zm4.827 3.948c0-.784.159-1.47.476-2.058a3.37 3.37 0 011.302-1.372c.56-.327 1.19-.49 1.89-.49.672 0 1.279.163 1.82.49.542.327.938.751 1.19 1.274V.64h.98V11h-.98V9.292c-.233.532-.616.97-1.148 1.316-.532.336-1.157.504-1.876.504-.7 0-1.33-.163-1.89-.49a3.467 3.467 0 01-1.302-1.386c-.308-.597-.462-1.288-.462-2.072zm6.678.014c0-.616-.126-1.157-.378-1.624a2.68 2.68 0 00-1.036-1.078 2.767 2.767 0 00-1.428-.378 2.91 2.91 0 00-1.456.364c-.429.243-.77.597-1.022 1.064-.242.457-.364 1.003-.364 1.638 0 .625.122 1.176.364 1.652.252.467.593.826 1.022 1.078.43.243.915.364 1.456.364.523 0 .999-.126 1.428-.378a2.68 2.68 0 001.036-1.078c.252-.467.378-1.008.378-1.624zm8.025-2.128a3.12 3.12 0 011.162-1.302c.532-.336 1.158-.504 1.876-.504.7 0 1.326.163 1.876.49.551.317.98.775 1.288 1.372.318.588.476 1.274.476 2.058 0 .784-.158 1.475-.476 2.072a3.336 3.336 0 01-1.302 1.386c-.55.327-1.171.49-1.862.49-.728 0-1.358-.163-1.89-.49a3.026 3.026 0 01-1.148-1.302V11h-.966V.64h.966v4.41zm5.684 2.114c0-.635-.126-1.18-.378-1.638a2.518 2.518 0 00-1.008-1.064 2.904 2.904 0 00-1.456-.364c-.522 0-1.003.126-1.442.378-.429.252-.77.611-1.022 1.078-.252.467-.378 1.008-.378 1.624 0 .616.126 1.157.378 1.624.252.467.593.826 1.022 1.078.439.252.92.378 1.442.378.542 0 1.027-.121 1.456-.364a2.61 2.61 0 001.008-1.078c.252-.476.378-1.027.378-1.652zm9.714-.378c0 .336-.01.593-.028.77h-6.342c.028.579.168 1.073.42 1.484.252.41.583.723.994.938.41.205.858.308 1.344.308.634 0 1.166-.154 1.596-.462.438-.308.728-.723.868-1.246h1.036a3.258 3.258 0 01-1.204 1.834c-.607.467-1.372.7-2.296.7-.719 0-1.363-.159-1.932-.476a3.51 3.51 0 01-1.344-1.372c-.318-.597-.476-1.293-.476-2.086 0-.793.158-1.489.476-2.086a3.303 3.303 0 011.33-1.372c.569-.317 1.218-.476 1.946-.476s1.362.159 1.904.476c.55.317.97.747 1.26 1.288.298.532.448 1.125.448 1.778zm-.994-.028c.009-.57-.108-1.055-.35-1.456a2.279 2.279 0 00-.966-.91 2.965 2.965 0 00-1.344-.308c-.728 0-1.349.233-1.862.7-.514.467-.798 1.125-.854 1.974h5.376zm6.371-3.542c.914 0 1.661.285 2.24.854.578.56.868 1.377.868 2.45V11h-.966V6.632c0-.83-.21-1.465-.63-1.904-.411-.439-.976-.658-1.694-.658-.738 0-1.326.233-1.764.7-.439.467-.658 1.153-.658 2.058V11h-.98V3.356h.98v1.302a2.453 2.453 0 011.05-1.064 3.164 3.164 0 011.554-.378zm12.191 3.57c0 .336-.009.593-.028.77h-6.342c.028.579.168 1.073.42 1.484.252.41.583.723.994.938.411.205.859.308 1.344.308.635 0 1.167-.154 1.596-.462.439-.308.728-.723.868-1.246h1.036a3.258 3.258 0 01-1.204 1.834c-.607.467-1.372.7-2.296.7-.719 0-1.363-.159-1.932-.476a3.523 3.523 0 01-1.344-1.372c-.317-.597-.476-1.293-.476-2.086 0-.793.159-1.489.476-2.086a3.309 3.309 0 011.33-1.372c.569-.317 1.218-.476 1.946-.476s1.363.159 1.904.476a3.21 3.21 0 011.26 1.288c.299.532.448 1.125.448 1.778zm-.994-.028c.009-.57-.107-1.055-.35-1.456a2.267 2.267 0 00-.966-.91 2.965 2.965 0 00-1.344-.308c-.728 0-1.349.233-1.862.7-.513.467-.798 1.125-.854 1.974h5.376zm5.797-2.576h-1.778V11h-.98V4.182h-1.064v-.826h1.064v-.532c0-.83.21-1.442.63-1.834.429-.392 1.12-.588 2.072-.588v.84c-.635 0-1.083.121-1.344.364-.252.243-.378.649-.378 1.218v.532h1.778v.826zm2.033-2.268a.687.687 0 01-.504-.21.704.704 0 01-.21-.518c0-.205.07-.373.21-.504.14-.14.308-.21.504-.21s.364.07.504.21c.14.13.21.299.21.504 0 .205-.07.378-.21.518a.687.687 0 01-.504.21zm.49 1.442V11h-.98V3.356h.98zm3.493.826v4.746c0 .467.089.789.266.966.177.177.49.266.938.266h.896V11h-1.05c-.691 0-1.204-.159-1.54-.476-.336-.327-.504-.859-.504-1.596V4.182h-1.064v-.826h1.064V1.438h.994v1.918h2.1v.826h-2.1zm10.568 0h-1.778V11h-.98V4.182h-1.064v-.826h1.064v-.532c0-.83.21-1.442.63-1.834.429-.392 1.12-.588 2.072-.588v.84c-.635 0-1.083.121-1.344.364-.252.243-.378.649-.378 1.218v.532h1.778v.826zm2.523.532a2.4 2.4 0 01.98-1.106c.448-.261.994-.392 1.638-.392v1.022h-.266c-.71 0-1.279.191-1.708.574-.43.383-.644 1.022-.644 1.918V11h-.98V3.356h.98v1.358zm7.438 6.398c-.719 0-1.367-.159-1.946-.476a3.62 3.62 0 01-1.358-1.372c-.327-.597-.49-1.293-.49-2.086 0-.793.168-1.484.504-2.072a3.462 3.462 0 011.372-1.372 3.889 3.889 0 011.946-.49c.719 0 1.367.163 1.946.49a3.352 3.352 0 011.372 1.372c.336.588.504 1.279.504 2.072 0 .784-.168 1.475-.504 2.072a3.535 3.535 0 01-1.386 1.386 4.06 4.06 0 01-1.96.476zm0-.854a2.98 2.98 0 001.4-.336 2.632 2.632 0 001.036-1.036c.271-.467.406-1.036.406-1.708 0-.672-.131-1.237-.392-1.694-.261-.467-.607-.812-1.036-1.036a2.884 2.884 0 00-1.4-.35c-.504 0-.971.117-1.4.35-.429.224-.775.57-1.036 1.036-.252.457-.378 1.022-.378 1.694 0 .672.126 1.241.378 1.708.261.457.602.803 1.022 1.036a2.98 2.98 0 001.4.336zm14.736-7.042c.896 0 1.624.285 2.184.854.57.56.854 1.377.854 2.45V11h-.966V6.632c0-.83-.2-1.465-.602-1.904-.401-.439-.947-.658-1.638-.658-.718 0-1.292.238-1.722.714-.429.476-.644 1.167-.644 2.072V11h-.966V6.632c0-.83-.2-1.465-.602-1.904-.401-.439-.952-.658-1.652-.658-.718 0-1.292.238-1.722.714-.429.476-.644 1.167-.644 2.072V11h-.98V3.356h.98v1.316a2.465 2.465 0 011.036-1.078 3.004 3.004 0 011.498-.378c.663 0 1.242.159 1.736.476.504.317.868.784 1.092 1.4.206-.607.556-1.069 1.05-1.386a3.073 3.073 0 011.708-.49zm5.383 7.854a.704.704 0 01-.518-.21.73.73 0 01-.196-.518c0-.205.065-.373.196-.504.14-.14.313-.21.518-.21.196 0 .359.07.49.21.14.13.21.299.21.504 0 .205-.07.378-.21.518a.643.643 0 01-.49.21zm0-6.09a.704.704 0 01-.518-.21.73.73 0 01-.196-.518.68.68 0 01.196-.504c.14-.14.313-.21.518-.21.196 0 .359.07.49.21.14.13.21.299.21.504 0 .205-.07.378-.21.518a.643.643 0 01-.49.21z" fill="#fff"/></svg>