<svg width="86" height="13" viewBox="0 0 86 13" fill="none" xmlns="http://www.w3.org/2000/svg"><path d="M11.008.856H7.864V7.16c0 1.863-.848 2.645-2.212 2.645-1.347 0-2.196-.782-2.212-2.645V.873H.313V7.16c0 3.81 2.062 5.506 5.34 5.506 3.276 0 5.355-1.696 5.355-5.506V.856zM18.032.69c-2.71.016-4.84 1.197-4.84 3.809 0 2.279 1.896 2.894 4.541 3.526 1.913.483 2.246.55 2.246 1.215 0 .532-.566.765-1.215.765-1.48 0-3.16-.433-4.674-1.281l-1.397 2.329c1.597 1.064 3.56 1.63 5.722 1.63 2.994 0 4.874-1.364 4.874-3.843 0-2.378-1.946-3.044-4.674-3.775-1.813-.45-2.03-.6-2.03-.965 0-.533.516-.765 1.115-.765 1.148 0 2.711.399 4.042 1.08l1.314-2.411C21.692 1.172 19.896.69 18.032.69zm7.053.183V12.5h4.99c3.444 0 6.238-2.512 6.238-5.805 0-3.31-2.794-5.839-6.238-5.839l-4.99.017zm3.127 2.794h1.747c1.73 0 3.144 1.298 3.144 3.011 0 1.73-1.414 3.027-3.144 3.027h-1.747V3.667zm11.94 9.116L45.976.573 43.38.59l-5.822 12.193h2.595zM53.34.706c-3.393 0-6.138 2.678-6.138 5.989 0 3.293 2.745 5.971 6.138 5.971 2.08 0 3.91-.998 5.007-2.545l-2.711-1.53a2.78 2.78 0 01-2.279 1.148c-1.697 0-2.878-1.364-2.878-3.044 0-1.697 1.181-3.061 2.878-3.061.965 0 1.763.45 2.279 1.148l2.711-1.53C57.25 1.703 55.42.705 53.34.705zM72.423 12.5L67.782.856h-4.109L59.083 12.5h3.742l.748-2.03h4.359l.748 2.03h3.743zm-8.035-4.524l1.348-3.627 1.347 3.627h-2.695zM73.997.873V12.5h4.99c3.443 0 6.238-2.512 6.238-5.805 0-3.31-2.795-5.839-6.238-5.839l-4.99.017zm3.127 2.794h1.746c1.73 0 3.144 1.298 3.144 3.011 0 1.73-1.414 3.027-3.144 3.027h-1.746V3.667z" fill="#09B45B"/></svg>