<svg width="493" height="20" viewBox="0 0 493 20" fill="none" xmlns="http://www.w3.org/2000/svg"><path d="M.874 11.915c.133 2.508 1.957 4.199 4.94 4.199 2.793 0 4.636-1.52 4.636-3.762 0-2.527-2.242-3.173-4.446-3.553-2.033-.342-3.8-.684-3.8-2.584 0-1.729 1.349-2.698 3.439-2.698 1.995 0 3.363 1.121 3.591 2.85h1.045c-.19-2.28-1.919-3.781-4.636-3.781-2.698 0-4.465 1.425-4.465 3.686 0 2.527 2.166 3.097 4.294 3.458 2.09.361 3.952.779 3.952 2.717 0 1.71-1.444 2.736-3.591 2.736-2.242 0-3.762-1.292-3.895-3.268H.874zm15.859 4.199c2.109 0 3.724-1.368 4.142-3.306h-.988c-.38 1.501-1.653 2.432-3.23 2.432-2.147 0-3.496-1.634-3.534-3.876v-.171h7.866c0-.133.019-.285.019-.399-.095-2.869-1.862-4.541-4.446-4.541-2.641 0-4.446 2.014-4.446 4.864 0 3.021 1.88 4.997 4.617 4.997zm-3.534-5.738c.152-1.957 1.615-3.268 3.382-3.268 1.88 0 3.23 1.159 3.382 3.268h-6.764zm10.218-6.042a.67.67 0 00.684-.684.67.67 0 00-.684-.684.67.67 0 00-.684.684.67.67 0 00.684.684zM22.923 16h.97V6.367h-.97V16zm2.791-8.74h6.194l-6.46 7.98V16h8.018v-.893h-6.745l6.48-7.999v-.741h-7.487v.893zm12.988 8.854c2.109 0 3.724-1.368 4.142-3.306h-.988c-.38 1.501-1.653 2.432-3.23 2.432-2.147 0-3.496-1.634-3.534-3.876v-.171h7.866c0-.133.019-.285.019-.399-.095-2.869-1.862-4.541-4.446-4.541-2.641 0-4.446 2.014-4.446 4.864 0 3.021 1.88 4.997 4.617 4.997zm-3.534-5.738c.152-1.957 1.615-3.268 3.382-3.268 1.88 0 3.23 1.159 3.382 3.268h-6.764zm19.101 5.738c2.717 0 4.636-2.014 4.636-4.94 0-2.907-1.919-4.921-4.636-4.921s-4.617 2.014-4.617 4.921c0 2.926 1.9 4.94 4.617 4.94zm0-.874c-2.147 0-3.629-1.672-3.629-4.066 0-2.375 1.482-4.066 3.629-4.066 2.147 0 3.629 1.691 3.629 4.066 0 2.394-1.482 4.066-3.629 4.066zm11.007-8.987c-1.767 0-2.907.912-3.458 2.166l-.152-2.052h-.836V16h.97v-4.75c0-2.508 1.272-4.104 3.324-4.104 1.862 0 2.983 1.216 2.983 3.496V16h.97v-5.396c0-3.04-1.616-4.351-3.8-4.351zm15.322 9.861c2.11 0 3.724-1.368 4.142-3.306h-.988c-.38 1.501-1.653 2.432-3.23 2.432-2.147 0-3.496-1.634-3.534-3.876v-.171h7.866c0-.133.02-.285.02-.399-.096-2.869-1.863-4.541-4.447-4.541-2.64 0-4.446 2.014-4.446 4.864 0 3.021 1.881 4.997 4.617 4.997zm-3.534-5.738c.152-1.957 1.615-3.268 3.382-3.268 1.881 0 3.23 1.159 3.382 3.268h-6.764zm18.198 4.731c-.57 0-.855-.19-.855-.931V9.692c0-2.204-1.349-3.439-3.762-3.439-2.204 0-3.667 1.064-3.914 2.812h.97c.246-1.178 1.272-1.957 2.906-1.957 1.805 0 2.831.95 2.831 2.546v.836H90.17c-2.47 0-3.8 1.064-3.8 2.869 0 1.71 1.35 2.755 3.401 2.755 1.957 0 3.116-.893 3.705-2.09v.342c-.038 1.14.437 1.634 1.577 1.634h.57v-.893h-.36zm-1.824-3.002c0 1.843-1.31 3.173-3.59 3.173-1.54 0-2.49-.779-2.49-1.976 0-1.273.95-1.976 2.736-1.976h3.344v.779zm7.414-5.738c-1.786 0-2.546.855-2.945 1.919l-.152-1.919h-.836V16h.97v-4.883c0-1.957.512-3.819 2.773-3.819h.703v-.931h-.513zm6.395-.114c-1.767 0-2.907.912-3.458 2.166l-.152-2.052h-.836V16h.969v-4.75c0-2.508 1.273-4.104 3.325-4.104 1.862 0 2.983 1.216 2.983 3.496V16h.969v-5.396c0-3.04-1.615-4.351-3.8-4.351zm6.439-1.919a.67.67 0 00.684-.684.67.67 0 00-.684-.684.67.67 0 00-.684.684.67.67 0 00.684.684zM113.192 16h.969V6.367h-.969V16zm7.693-9.747c-1.767 0-2.907.912-3.458 2.166l-.152-2.052h-.836V16h.969v-4.75c0-2.508 1.273-4.104 3.325-4.104 1.862 0 2.983 1.216 2.983 3.496V16h.969v-5.396c0-3.04-1.615-4.351-3.8-4.351zm13.791 2.356c-.589-1.425-1.881-2.356-3.667-2.356-2.641 0-4.541 1.995-4.541 4.921 0 3.04 1.9 4.94 4.541 4.94 1.805 0 3.078-.95 3.686-2.451v1.71c0 2.565-1.216 3.667-3.534 3.667-1.805 0-3.059-.817-3.363-2.28h-1.007c.304 2.052 1.957 3.154 4.294 3.154 3.116 0 4.579-1.482 4.579-4.503V6.367h-.836l-.152 2.242zm-3.591 6.631c-2.147 0-3.629-1.672-3.629-4.066s1.482-4.066 3.629-4.066c2.147 0 3.629 1.672 3.629 4.085 0 2.375-1.482 4.047-3.629 4.047zm6.422-2.204c.076 1.995 1.691 3.078 4.104 3.078 2.071 0 3.743-1.045 3.743-2.755 0-2.033-1.786-2.432-3.857-2.717-1.501-.209-2.831-.38-2.831-1.729 0-1.102 1.083-1.824 2.717-1.824 1.539 0 2.641.741 2.812 1.995h.988c-.171-1.881-1.71-2.831-3.8-2.831-2.147-.019-3.686 1.083-3.686 2.736 0 1.938 1.786 2.299 3.762 2.565 1.615.228 2.926.437 2.926 1.862 0 1.14-1.197 1.862-2.774 1.862-1.843 0-3.04-.855-3.116-2.242h-.988zM154.661 16h1.045l2.85-8.094L161.273 16h1.045l3.42-9.633h-.988l-2.964 8.474-2.755-8.474h-.893l-2.907 8.474-2.812-8.474h-1.026L154.661 16zm12.926-11.666a.67.67 0 00.684-.684.67.67 0 00-.684-.684.67.67 0 00-.684.684.67.67 0 00.684.684zM167.093 16h.969V6.367h-.969V16zm3.969-2.242c0 1.539.627 2.242 2.261 2.242h1.406v-.893h-1.33c-1.007 0-1.368-.38-1.368-1.368V7.26h2.603v-.893h-2.603V3.669h-.969v2.698h-1.824v.893h1.824v6.498zm9.587-7.505c-1.805 0-2.926 1.007-3.477 2.394V2.7h-.969V16h.969v-4.75c0-2.508 1.273-4.104 3.325-4.104 1.843 0 2.983 1.216 2.983 3.496V16h.969v-5.396c0-3.04-1.615-4.351-3.8-4.351zm15.341 9.861c2.109 0 3.724-1.368 4.142-3.306h-.988c-.38 1.501-1.653 2.432-3.23 2.432-2.147 0-3.496-1.634-3.534-3.876v-.171h7.866c0-.133.019-.285.019-.399-.095-2.869-1.862-4.541-4.446-4.541-2.641 0-4.446 2.014-4.446 4.864 0 3.021 1.881 4.997 4.617 4.997zm-3.534-5.738c.152-1.957 1.615-3.268 3.382-3.268 1.881 0 3.23 1.159 3.382 3.268h-6.764zM200.82 16h1.121l3.192-4.237L208.325 16h1.178l-3.743-4.921 3.553-4.712h-1.102l-3.04 3.99-3.002-3.99h-1.159l3.553 4.712L200.82 16zm10.784-2.242c0 1.539.627 2.242 2.261 2.242h1.406v-.893h-1.33c-1.007 0-1.368-.38-1.368-1.368V7.26h2.603v-.893h-2.603V3.669h-.969v2.698h-1.824v.893h1.824v6.498zm9.101 2.356c2.109 0 3.724-1.368 4.142-3.306h-.988c-.38 1.501-1.653 2.432-3.23 2.432-2.147 0-3.496-1.634-3.534-3.876v-.171h7.866c0-.133.019-.285.019-.399-.095-2.869-1.862-4.541-4.446-4.541-2.641 0-4.446 2.014-4.446 4.864 0 3.021 1.881 4.997 4.617 4.997zm-3.534-5.738c.152-1.957 1.615-3.268 3.382-3.268 1.881 0 3.23 1.159 3.382 3.268h-6.764zm14.17-4.123c-1.767 0-2.907.912-3.458 2.166l-.152-2.052h-.836V16h.969v-4.75c0-2.508 1.273-4.104 3.325-4.104 1.862 0 2.983 1.216 2.983 3.496V16h.969v-5.396c0-3.04-1.615-4.351-3.8-4.351zm13.662 2.28c-.589-1.368-1.881-2.28-3.686-2.28-2.641 0-4.541 2.014-4.541 4.921 0 3.04 1.9 4.94 4.541 4.94 1.805 0 3.059-.969 3.667-2.318l.152 2.204h.836V2.7h-.969v5.833zm-3.61 6.707c-2.147 0-3.629-1.672-3.629-4.066 0-2.375 1.482-4.066 3.629-4.066 2.147 0 3.629 1.691 3.629 4.085 0 2.375-1.482 4.047-3.629 4.047zm11.114.874c2.109 0 3.724-1.368 4.142-3.306h-.988c-.38 1.501-1.653 2.432-3.23 2.432-2.147 0-3.496-1.634-3.534-3.876v-.171h7.866c0-.133.019-.285.019-.399-.095-2.869-1.862-4.541-4.446-4.541-2.641 0-4.446 2.014-4.446 4.864 0 3.021 1.881 4.997 4.617 4.997zm-3.534-5.738c.152-1.957 1.615-3.268 3.382-3.268 1.881 0 3.23 1.159 3.382 3.268h-6.764zm17.591-1.843c-.589-1.368-1.881-2.28-3.686-2.28-2.641 0-4.541 2.014-4.541 4.921 0 3.04 1.9 4.94 4.541 4.94 1.805 0 3.059-.969 3.667-2.318l.152 2.204h.836V2.7h-.969v5.833zm-3.61 6.707c-2.147 0-3.629-1.672-3.629-4.066 0-2.375 1.482-4.066 3.629-4.066 2.147 0 3.629 1.691 3.629 4.085 0 2.375-1.482 4.047-3.629 4.047zm16.425-8.987c-1.805 0-2.926 1.007-3.477 2.394V2.7h-.969V16h.969v-4.75c0-2.508 1.273-4.104 3.325-4.104 1.843 0 2.983 1.216 2.983 3.496V16h.969v-5.396c0-3.04-1.615-4.351-3.8-4.351zm10.071 9.861c2.717 0 4.636-2.014 4.636-4.94 0-2.907-1.919-4.921-4.636-4.921s-4.617 2.014-4.617 4.921c0 2.926 1.9 4.94 4.617 4.94zm0-.874c-2.147 0-3.629-1.672-3.629-4.066 0-2.375 1.482-4.066 3.629-4.066 2.147 0 3.629 1.691 3.629 4.066 0 2.394-1.482 4.066-3.629 4.066zm13.553-4.142c0 2.527-1.254 4.123-3.249 4.123-1.786 0-2.888-1.216-2.888-3.515V6.367h-.969v5.396c0 3.021 1.577 4.351 3.705 4.351 1.71 0 2.831-.912 3.382-2.147l.133 2.033h.855V6.367h-.969v4.731zm7.183-4.731c-1.786 0-2.546.855-2.945 1.919l-.152-1.919h-.836V16h.969v-4.883c0-1.957.513-3.819 2.774-3.819h.703v-.931h-.513zm1.271 6.669c.076 1.995 1.691 3.078 4.104 3.078 2.071 0 3.743-1.045 3.743-2.755 0-2.033-1.786-2.432-3.857-2.717-1.501-.209-2.831-.38-2.831-1.729 0-1.102 1.083-1.824 2.717-1.824 1.539 0 2.641.741 2.812 1.995h.988c-.171-1.881-1.71-2.831-3.8-2.831-2.147-.019-3.686 1.083-3.686 2.736 0 1.938 1.786 2.299 3.762 2.565 1.615.228 2.926.437 2.926 1.862 0 1.14-1.197 1.862-2.774 1.862-1.843 0-3.04-.855-3.116-2.242h-.988zm23.291 2.071c-.57 0-.855-.19-.855-.931V9.692c0-2.204-1.349-3.439-3.762-3.439-2.204 0-3.667 1.064-3.914 2.812h.969c.247-1.178 1.273-1.957 2.907-1.957 1.805 0 2.831.95 2.831 2.546v.836h-3.268c-2.47 0-3.8 1.064-3.8 2.869 0 1.71 1.349 2.755 3.401 2.755 1.957 0 3.116-.893 3.705-2.09v.342c-.038 1.14.437 1.634 1.577 1.634h.57v-.893h-.361zm-1.824-3.002c0 1.843-1.311 3.173-3.591 3.173-1.539 0-2.489-.779-2.489-1.976 0-1.273.95-1.976 2.736-1.976h3.344v.779zm7.927-5.852c-1.767 0-2.907.912-3.458 2.166l-.152-2.052h-.836V16h.969v-4.75c0-2.508 1.273-4.104 3.325-4.104 1.862 0 2.983 1.216 2.983 3.496V16h.969v-5.396c0-3.04-1.615-4.351-3.8-4.351zm13.662 2.28c-.589-1.368-1.881-2.28-3.686-2.28-2.641 0-4.541 2.014-4.541 4.921 0 3.04 1.9 4.94 4.541 4.94 1.805 0 3.059-.969 3.667-2.318l.152 2.204h.836V2.7h-.969v5.833zm-3.61 6.707c-2.147 0-3.629-1.672-3.629-4.066 0-2.375 1.482-4.066 3.629-4.066 2.147 0 3.629 1.691 3.629 4.085 0 2.375-1.482 4.047-3.629 4.047zm21.289-2.888c0-2.527-2.242-3.173-4.446-3.553-2.033-.342-3.8-.684-3.8-2.584 0-1.729 1.349-2.698 3.439-2.698 1.995 0 3.363 1.121 3.591 2.85h1.045c-.171-2.09-1.653-3.534-4.009-3.762V.648h-.912v1.938c-2.546.095-4.18 1.501-4.18 3.686 0 2.527 2.166 3.097 4.294 3.458 2.09.361 3.952.779 3.952 2.717 0 1.71-1.444 2.736-3.591 2.736-2.242 0-3.762-1.292-3.895-3.268h-1.064c.133 2.375 1.767 4.028 4.484 4.18v1.938h.912v-1.938c2.527-.152 4.18-1.634 4.18-3.743zm1.799-2.698c0 3.895 1.919 6.46 4.807 6.46 2.85 0 4.788-2.565 4.788-6.46v-.608c0-3.781-1.938-6.46-4.788-6.46-2.888 0-4.807 2.679-4.807 6.46v.608zm8.588-.038c0 3.382-1.501 5.586-3.781 5.586-2.299 0-3.8-2.204-3.8-5.586v-.532c0-3.382 1.501-5.586 3.8-5.586 2.28 0 3.781 2.204 3.781 5.586v.532zm12.371 6.498c2.185 0 3.724-1.254 4.104-3.211h-1.026c-.323 1.425-1.482 2.337-3.078 2.337-2.109 0-3.572-1.653-3.572-4.047 0-2.394 1.444-4.085 3.572-4.085 1.615 0 2.755.912 3.097 2.356h1.007c-.399-1.995-1.9-3.211-4.085-3.211-2.717 0-4.579 2.014-4.579 4.94 0 2.964 1.843 4.921 4.56 4.921zm10.244 0c2.717 0 4.636-2.014 4.636-4.94 0-2.907-1.919-4.921-4.636-4.921s-4.617 2.014-4.617 4.921c0 2.926 1.9 4.94 4.617 4.94zm0-.874c-2.147 0-3.629-1.672-3.629-4.066 0-2.375 1.482-4.066 3.629-4.066 2.147 0 3.629 1.691 3.629 4.066 0 2.394-1.482 4.066-3.629 4.066zm17.315-8.987c-1.767 0-2.907.988-3.458 2.413-.456-1.596-1.653-2.413-3.173-2.413-1.653 0-2.641.969-3.135 2.166l-.152-2.052h-.836V16h.969v-4.902c0-2.356 1.14-3.952 2.983-3.952 1.672 0 2.717 1.178 2.717 3.401V16h.969v-5.244c.057-2.204 1.197-3.61 3.002-3.61 1.672 0 2.679 1.121 2.679 3.306V16h.988v-5.586c0-2.907-1.539-4.161-3.553-4.161zm16.458 0c-1.767 0-2.907.988-3.458 2.413-.456-1.596-1.653-2.413-3.173-2.413-1.653 0-2.641.969-3.135 2.166l-.152-2.052h-.836V16h.969v-4.902c0-2.356 1.14-3.952 2.983-3.952 1.672 0 2.717 1.178 2.717 3.401V16h.969v-5.244c.057-2.204 1.197-3.61 3.002-3.61 1.672 0 2.679 1.121 2.679 3.306V16h.988v-5.586c0-2.907-1.539-4.161-3.553-4.161zm6.198-1.919a.67.67 0 00.684-.684.67.67 0 00-.684-.684.67.67 0 00-.684.684.67.67 0 00.684.684zM444.671 16h.969V6.367h-.969V16zm2.81-2.964c.076 1.995 1.691 3.078 4.104 3.078 2.071 0 3.743-1.045 3.743-2.755 0-2.033-1.786-2.432-3.857-2.717-1.501-.209-2.831-.38-2.831-1.729 0-1.102 1.083-1.824 2.717-1.824 1.539 0 2.641.741 2.812 1.995h.988c-.171-1.881-1.71-2.831-3.8-2.831-2.147-.019-3.686 1.083-3.686 2.736 0 1.938 1.786 2.299 3.762 2.565 1.615.228 2.926.437 2.926 1.862 0 1.14-1.197 1.862-2.774 1.862-1.843 0-3.04-.855-3.116-2.242h-.988zm9.074 0c.076 1.995 1.691 3.078 4.104 3.078 2.071 0 3.743-1.045 3.743-2.755 0-2.033-1.786-2.432-3.857-2.717-1.501-.209-2.831-.38-2.831-1.729 0-1.102 1.083-1.824 2.717-1.824 1.539 0 2.641.741 2.812 1.995h.988c-.171-1.881-1.71-2.831-3.8-2.831-2.147-.019-3.686 1.083-3.686 2.736 0 1.938 1.786 2.299 3.762 2.565 1.615.228 2.926.437 2.926 1.862 0 1.14-1.197 1.862-2.774 1.862-1.843 0-3.04-.855-3.116-2.242h-.988zm10.189-8.702a.67.67 0 00.684-.684.67.67 0 00-.684-.684.67.67 0 00-.684.684.67.67 0 00.684.684zM466.25 16h.969V6.367h-.969V16zm7.503.114c2.717 0 4.636-2.014 4.636-4.94 0-2.907-1.919-4.921-4.636-4.921s-4.617 2.014-4.617 4.921c0 2.926 1.9 4.94 4.617 4.94zm0-.874c-2.147 0-3.629-1.672-3.629-4.066 0-2.375 1.482-4.066 3.629-4.066 2.147 0 3.629 1.691 3.629 4.066 0 2.394-1.482 4.066-3.629 4.066zm11.008-8.987c-1.767 0-2.907.912-3.458 2.166l-.152-2.052h-.836V16h.969v-4.75c0-2.508 1.273-4.104 3.325-4.104 1.862 0 2.983 1.216 2.983 3.496V16h.969v-5.396c0-3.04-1.615-4.351-3.8-4.351zm5.83 9.12c0 .437.304.722.722.722s.722-.285.722-.722-.304-.703-.722-.703-.722.266-.722.703z" fill="#000"/></svg>