<svg width="540" height="71" viewBox="0 0 540 71" fill="none" xmlns="http://www.w3.org/2000/svg"><path d="M.64 11.864h6.912V31h3.68V11.864h6.912V8.6H.64v3.264zm26.594 2.752c-2.688 0-4 1.088-4.832 2.464l-.384-2.464h-3.072V31h3.456v-8.224c0-2.528.992-4.928 4.064-4.928h1.536v-3.232h-.768zm17.375 13.376c-.703 0-1.056-.224-1.056-1.056v-6.56c0-3.872-2.495-5.952-6.847-5.952-4.129 0-6.88 1.984-7.233 5.184h3.392c.256-1.44 1.633-2.4 3.68-2.4 2.273 0 3.584 1.12 3.584 2.944v.992h-4.127c-4.577 0-7.009 1.888-7.009 5.248 0 3.04 2.497 4.8 6.08 4.8 2.657 0 4.32-1.152 5.408-2.816 0 1.632.768 2.624 3.008 2.624h1.825v-3.008h-.705zm-4.48-3.712c-.032 2.528-1.695 4.224-4.575 4.224-1.889 0-3.04-.96-3.04-2.336 0-1.664 1.183-2.464 3.328-2.464h4.288v.576zm19.39-7.392c-1.056-1.44-2.816-2.464-5.312-2.464-4.448 0-7.744 3.328-7.744 8.384 0 5.248 3.296 8.384 7.744 8.384 2.592 0 4.288-1.216 5.344-2.656L59.967 31h3.008V8.6h-3.456v8.288zM54.783 28.28c-2.88 0-4.768-2.24-4.768-5.472 0-3.2 1.888-5.44 4.768-5.44s4.768 2.24 4.768 5.504c0 3.168-1.888 5.408-4.768 5.408zm19.345 2.912c4.064 0 6.816-2.464 7.392-5.696h-3.456c-.48 1.824-2.016 2.88-4.128 2.88-2.72 0-4.48-1.824-4.576-4.608v-.224h12.352c.064-.448.096-.896.096-1.312-.096-4.8-3.264-7.808-8-7.808-4.832 0-8.064 3.36-8.064 8.416 0 5.024 3.232 8.352 8.384 8.352zm-4.64-10.176c.256-2.336 2.144-3.808 4.352-3.808 2.4 0 4.096 1.376 4.384 3.808h-8.736zm38.278 6.976c-.704 0-1.056-.224-1.056-1.056v-6.56c0-3.872-2.496-5.952-6.848-5.952-4.128 0-6.88 1.984-7.232 5.184h3.392c.256-1.44 1.632-2.4 3.68-2.4 2.272 0 3.584 1.12 3.584 2.944v.992h-4.128c-4.576 0-7.008 1.888-7.008 5.248 0 3.04 2.496 4.8 6.08 4.8 2.656 0 4.32-1.152 5.408-2.816 0 1.632.768 2.624 3.008 2.624h1.824v-3.008h-.704zm-4.48-3.712c-.032 2.528-1.696 4.224-4.576 4.224-1.888 0-3.04-.96-3.04-2.336 0-1.664 1.184-2.464 3.328-2.464h4.288v.576zm15.674-9.856c-2.56 0-4.128 1.152-5.152 2.56V8.6h-3.456V31h3.456v-8.288c0-3.296 1.664-5.312 4.384-5.312 2.56 0 3.936 1.664 3.936 4.768V31h3.456v-9.12c0-5.472-2.976-7.456-6.624-7.456zm17.418 16.768c4.064 0 6.816-2.464 7.392-5.696h-3.456c-.48 1.824-2.016 2.88-4.128 2.88-2.72 0-4.48-1.824-4.576-4.608v-.224h12.352c.064-.448.096-.896.096-1.312-.096-4.8-3.264-7.808-8-7.808-4.832 0-8.064 3.36-8.064 8.416 0 5.024 3.232 8.352 8.384 8.352zm-4.64-10.176c.256-2.336 2.144-3.808 4.352-3.808 2.4 0 4.096 1.376 4.384 3.808h-8.736zm30.09 6.976c-.704 0-1.056-.224-1.056-1.056v-6.56c0-3.872-2.496-5.952-6.848-5.952-4.128 0-6.88 1.984-7.232 5.184h3.392c.256-1.44 1.632-2.4 3.68-2.4 2.272 0 3.584 1.12 3.584 2.944v.992h-4.128c-4.576 0-7.008 1.888-7.008 5.248 0 3.04 2.496 4.8 6.08 4.8 2.656 0 4.32-1.152 5.408-2.816 0 1.632.768 2.624 3.008 2.624h1.824v-3.008h-.704zm-4.48-3.712c-.032 2.528-1.696 4.224-4.576 4.224-1.888 0-3.04-.96-3.04-2.336 0-1.664 1.184-2.464 3.328-2.464h4.288v.576zm19.39-7.392c-1.056-1.44-2.816-2.464-5.312-2.464-4.448 0-7.744 3.328-7.744 8.384 0 5.248 3.296 8.384 7.744 8.384 2.592 0 4.288-1.216 5.344-2.656l.416 2.464h3.008V8.6h-3.456v8.288zm-4.736 11.392c-2.88 0-4.768-2.24-4.768-5.472 0-3.2 1.888-5.44 4.768-5.44s4.768 2.24 4.768 5.504c0 3.168-1.888 5.408-4.768 5.408zm27.501 2.912c4.992 0 8.352-3.36 8.352-8.384 0-4.992-3.36-8.384-8.352-8.384-4.992 0-8.352 3.392-8.352 8.384 0 5.024 3.36 8.384 8.352 8.384zm0-2.944c-2.912 0-4.8-2.272-4.8-5.44 0-3.168 1.888-5.44 4.8-5.44s4.832 2.272 4.832 5.44c0 3.168-1.92 5.44-4.832 5.44zm9.342-10.592h2.848V31h3.488V17.656h4.384v-3.04h-4.448V13.24c0-1.12.48-1.6 1.6-1.6h2.848V8.6h-3.296c-3.168 0-4.576 1.536-4.576 4.48v1.536h-2.848v3.04zm21.879 8.896c0 2.976 1.344 4.448 4.48 4.448h3.2v-3.04h-2.432c-1.312 0-1.76-.48-1.76-1.76v-8.544h4v-3.04h-4V10.04h-3.488v4.576h-2.848v3.04h2.848v8.896zm18.486-12.128c-2.56 0-4.128 1.152-5.152 2.56V8.6h-3.456V31h3.456v-8.288c0-3.296 1.664-5.312 4.384-5.312 2.56 0 3.936 1.664 3.936 4.768V31h3.456v-9.12c0-5.472-2.976-7.456-6.624-7.456zm17.418 16.768c4.064 0 6.816-2.464 7.392-5.696h-3.456c-.48 1.824-2.016 2.88-4.128 2.88-2.72 0-4.48-1.824-4.576-4.608v-.224h12.352c.064-.448.096-.896.096-1.312-.096-4.8-3.264-7.808-8-7.808-4.832 0-8.064 3.36-8.064 8.416 0 5.024 3.232 8.352 8.384 8.352zm-4.64-10.176c.256-2.336 2.144-3.808 4.352-3.808 2.4 0 4.096 1.376 4.384 3.808h-8.736zM285.642 31h3.68v-8.128h4.928L298.57 31h4.096l-4.736-8.928c2.624-.928 4.352-3.328 4.352-6.336 0-4.352-3.136-7.136-7.808-7.136h-8.832V31zm8.544-19.2c2.624 0 4.32 1.536 4.32 3.936s-1.696 3.936-4.32 3.936h-4.864V11.8h4.864zM305.579 31h8.512c5.408 0 8.32-2.432 8.32-6.4 0-3.2-2.048-4.768-4.704-5.184 2.336-.64 3.84-2.24 3.84-4.896 0-3.68-2.816-5.92-7.744-5.92h-8.224V31zm8.32-19.328c2.56 0 3.968 1.216 3.968 3.2 0 2.016-1.44 3.232-3.968 3.232h-4.64v-6.432h4.64zm.224 9.472c2.848 0 4.512 1.216 4.512 3.424 0 2.08-1.568 3.328-4.512 3.328h-4.864v-6.752h4.864zM326.908 31l2.08-5.536h9.184L340.284 31h3.936l-8.352-22.4h-4.384L323.1 31h3.808zm6.656-18.432l3.584 9.76h-7.136l3.552-9.76zm39.636 1.856c-2.688 0-4.544 1.184-5.6 2.976-.992-2.112-2.912-2.976-5.056-2.976-2.464.032-3.872 1.12-4.8 2.336l-.384-2.144h-3.008V31h3.456v-8.768c0-2.912 1.472-4.832 3.84-4.832 2.272 0 3.456 1.504 3.456 4.384V31h3.488v-8.864c0-2.944 1.504-4.736 3.872-4.736 2.24 0 3.424 1.504 3.424 4.384V31h3.456v-9.44c0-5.184-2.752-7.136-6.144-7.136zm16.928 16.768c4.064 0 6.816-2.464 7.392-5.696h-3.456c-.48 1.824-2.016 2.88-4.128 2.88-2.72 0-4.48-1.824-4.576-4.608v-.224h12.352c.064-.448.096-.896.096-1.312-.096-4.8-3.264-7.808-8-7.808-4.832 0-8.064 3.36-8.064 8.416 0 5.024 3.232 8.352 8.384 8.352zm-4.64-10.176c.256-2.336 2.144-3.808 4.352-3.808 2.4 0 4.096 1.376 4.384 3.808h-8.736zm22.89 10.176c4.064 0 6.816-2.464 7.392-5.696h-3.456c-.48 1.824-2.016 2.88-4.128 2.88-2.72 0-4.48-1.824-4.576-4.608v-.224h12.352c.064-.448.096-.896.096-1.312-.096-4.8-3.264-7.808-8-7.808-4.832 0-8.064 3.36-8.064 8.416 0 5.024 3.232 8.352 8.384 8.352zm-4.64-10.176c.256-2.336 2.144-3.808 4.352-3.808 2.4 0 4.096 1.376 4.384 3.808h-8.736zm16.173 5.536c0 2.976 1.344 4.448 4.48 4.448h3.2v-3.04h-2.432c-1.312 0-1.76-.48-1.76-1.76v-8.544h4v-3.04h-4V10.04h-3.488v4.576h-2.848v3.04h2.848v8.896zm11.639-14.24c1.184 0 2.112-.864 2.112-2.08 0-1.216-.928-2.08-2.112-2.08-1.184 0-2.112.864-2.112 2.08 0 1.216.928 2.08 2.112 2.08zM429.79 31h3.456V14.616h-3.456V31zm15.484-16.576c-2.656 0-4.224 1.056-5.248 2.336l-.385-2.144h-3.007V31h3.456v-8.256c0-3.328 1.632-5.344 4.384-5.344 2.592 0 3.904 1.664 3.904 4.768V31h3.488v-9.12c0-5.472-2.976-7.456-6.592-7.456zm22.247 2.752c-1.056-1.632-2.816-2.752-5.376-2.752-4.448 0-7.744 3.296-7.744 8.32 0 5.216 3.296 8.32 7.744 8.32 2.56 0 4.256-1.056 5.344-2.688V30.2c0 3.136-1.696 4.576-4.704 4.576-2.432 0-4.032-1.056-4.448-2.88h-3.52c.32 3.68 3.36 5.696 7.712 5.696 5.888 0 8.384-2.816 8.384-7.264V14.616h-3.008l-.384 2.56zm-4.801 10.976c-2.879 0-4.767-2.208-4.767-5.408 0-3.168 1.888-5.408 4.767-5.408 2.881 0 4.769 2.24 4.769 5.472 0 3.136-1.888 5.344-4.769 5.344zM.36 53.3h4.32V65h.972V53.3h4.32v-.9H.36v.9zm17.783 10.854c-.54 0-.81-.18-.81-.882v-4.248c0-2.088-1.278-3.258-3.564-3.258-2.088 0-3.474 1.008-3.708 2.664h.918c.234-1.116 1.206-1.854 2.754-1.854 1.71 0 2.682.9 2.682 2.412v.792H13.32c-2.34 0-3.6 1.008-3.6 2.718 0 1.62 1.278 2.61 3.222 2.61 1.854 0 2.952-.846 3.51-1.98v.324c-.036 1.08.414 1.548 1.494 1.548h.54v-.846h-.342zm-1.728-2.844c0 1.746-1.242 3.006-3.402 3.006-1.458 0-2.358-.738-2.358-1.872 0-1.206.9-1.872 2.592-1.872h3.168v.738zM19.713 65h.918v-2.466l2.142-2.196L26.265 65h1.116l-3.978-5.328 3.672-3.798H25.94l-5.31 5.472V52.4h-.918V65zm12.434.108c1.998 0 3.528-1.296 3.924-3.132h-.936c-.36 1.422-1.566 2.304-3.06 2.304-2.034 0-3.312-1.548-3.348-3.672v-.162h7.452c0-.126.018-.27.018-.378-.09-2.718-1.764-4.302-4.212-4.302-2.502 0-4.212 1.908-4.212 4.608 0 2.862 1.782 4.734 4.374 4.734zM28.8 59.672c.144-1.854 1.53-3.096 3.204-3.096 1.782 0 3.06 1.098 3.204 3.096H28.8zm22.092 4.482c-.54 0-.81-.18-.81-.882v-4.248c0-2.088-1.278-3.258-3.564-3.258-2.088 0-3.474 1.008-3.708 2.664h.918c.234-1.116 1.206-1.854 2.754-1.854 1.71 0 2.682.9 2.682 2.412v.792h-3.096c-2.34 0-3.6 1.008-3.6 2.718 0 1.62 1.278 2.61 3.222 2.61 1.854 0 2.952-.846 3.51-1.98v.324c-.036 1.08.414 1.548 1.494 1.548h.54v-.846h-.342zm-1.728-2.844c0 1.746-1.242 3.006-3.402 3.006-1.458 0-2.358-.738-2.358-1.872 0-1.206.9-1.872 2.592-1.872h3.168v.738zm12.56-5.544c-1.71 0-2.899.918-3.475 2.196l-.144-2.088h-.792V68.6h.918v-5.706c.522 1.332 1.764 2.214 3.492 2.214 2.502 0 4.302-1.908 4.302-4.68 0-2.862-1.8-4.662-4.302-4.662zm-.073 8.514c-2.034 0-3.438-1.584-3.438-3.87 0-2.232 1.404-3.834 3.438-3.834 2.034 0 3.438 1.602 3.438 3.852 0 2.268-1.404 3.852-3.438 3.852zm10.224.828c2.574 0 4.392-1.908 4.392-4.68 0-2.754-1.818-4.662-4.392-4.662-2.574 0-4.374 1.908-4.374 4.662 0 2.772 1.8 4.68 4.374 4.68zm0-.828c-2.034 0-3.438-1.584-3.438-3.852 0-2.25 1.404-3.852 3.438-3.852 2.034 0 3.438 1.602 3.438 3.852 0 2.268-1.404 3.852-3.438 3.852zm5.784-2.088c.072 1.89 1.602 2.916 3.888 2.916 1.962 0 3.546-.99 3.546-2.61 0-1.926-1.692-2.304-3.654-2.574-1.422-.198-2.682-.36-2.682-1.638 0-1.044 1.026-1.728 2.574-1.728 1.458 0 2.502.702 2.664 1.89h.936c-.162-1.782-1.62-2.682-3.6-2.682-2.034-.018-3.492 1.026-3.492 2.592 0 1.836 1.692 2.178 3.564 2.43 1.53.216 2.772.414 2.772 1.764 0 1.08-1.134 1.764-2.628 1.764-1.746 0-2.88-.81-2.952-2.124h-.936zm9.654-8.244c.36 0 .648-.27.648-.648a.634.634 0 00-.648-.648c-.36 0-.648.27-.648.648s.288.648.648.648zM86.844 65h.918v-9.126h-.918V65zm3.76-2.124c0 1.458.594 2.124 2.142 2.124h1.332v-.846h-1.26c-.954 0-1.296-.36-1.296-1.296V56.72h2.466v-.846h-2.466v-2.556h-.918v2.556h-1.728v.846h1.728v6.156zm5.338-8.928c.36 0 .649-.27.649-.648a.634.634 0 00-.648-.648c-.36 0-.648.27-.648.648s.287.648.647.648zM95.475 65h.918v-9.126h-.918V65zm7.108.108c2.574 0 4.392-1.908 4.392-4.68 0-2.754-1.818-4.662-4.392-4.662-2.574 0-4.374 1.908-4.374 4.662 0 2.772 1.8 4.68 4.374 4.68zm0-.828c-2.034 0-3.438-1.584-3.438-3.852 0-2.25 1.404-3.852 3.438-3.852 2.034 0 3.438 1.602 3.438 3.852 0 2.268-1.404 3.852-3.438 3.852zm10.428-8.514c-1.674 0-2.754.864-3.276 2.052l-.144-1.944h-.792V65h.918v-4.5c0-2.376 1.206-3.888 3.15-3.888 1.764 0 2.826 1.152 2.826 3.312V65h.918v-5.112c0-2.88-1.53-4.122-3.6-4.122zm14.515 9.342c2.574 0 4.392-1.908 4.392-4.68 0-2.754-1.818-4.662-4.392-4.662-2.574 0-4.374 1.908-4.374 4.662 0 2.772 1.8 4.68 4.374 4.68zm0-.828c-2.034 0-3.438-1.584-3.438-3.852 0-2.25 1.404-3.852 3.438-3.852 2.034 0 3.438 1.602 3.438 3.852 0 2.268-1.404 3.852-3.438 3.852zm10.428-8.514c-1.674 0-2.754.864-3.276 2.052l-.144-1.944h-.792V65h.918v-4.5c0-2.376 1.206-3.888 3.15-3.888 1.764 0 2.826 1.152 2.826 3.312V65h.918v-5.112c0-2.88-1.53-4.122-3.6-4.122zM148.671 65l1.512-3.852h5.796L157.491 65h1.044l-4.86-12.6h-1.134L147.663 65h1.008zm4.41-11.52l2.61 6.768h-5.22l2.61-6.768zm6.382 6.318c0 3.51 1.494 5.31 4.59 5.31 3.114 0 4.626-1.8 4.626-5.31V52.4h-.972v7.452c0 2.898-1.116 4.356-3.654 4.356-2.502 0-3.618-1.458-3.618-4.356V52.4h-.972v7.398zM174.896 65c3.996 0 6.336-2.484 6.336-6.3 0-3.834-2.34-6.3-6.336-6.3h-3.672V65h3.672zm-2.7-11.7h2.7c3.438 0 5.346 2.088 5.346 5.4 0 3.294-1.908 5.4-5.346 5.4h-2.7V53.3zm10.205 14.04l5.094-15.48h-.918l-5.094 15.48h.918zm6.646-7.542c0 3.51 1.494 5.31 4.59 5.31 3.114 0 4.626-1.8 4.626-5.31V52.4h-.972v7.452c0 2.898-1.116 4.356-3.654 4.356-2.502 0-3.618-1.458-3.618-4.356V52.4h-.972v7.398zm11.293 1.332c.126 2.376 1.854 3.978 4.68 3.978 2.646 0 4.392-1.44 4.392-3.564 0-2.394-2.124-3.006-4.212-3.366-1.926-.324-3.6-.648-3.6-2.448 0-1.638 1.278-2.556 3.258-2.556 1.89 0 3.186 1.062 3.402 2.7h.99c-.18-2.16-1.818-3.582-4.392-3.582-2.556 0-4.23 1.35-4.23 3.492 0 2.394 2.052 2.934 4.068 3.276 1.98.342 3.744.738 3.744 2.574 0 1.62-1.368 2.592-3.402 2.592-2.124 0-3.564-1.224-3.69-3.096h-1.008zM215.22 65c3.996 0 6.336-2.484 6.336-6.3 0-3.834-2.34-6.3-6.336-6.3h-3.672V65h3.672zm-2.7-11.7h2.7c3.438 0 5.346 2.088 5.346 5.4 0 3.294-1.908 5.4-5.346 5.4h-2.7V53.3zm20.238 2.466c-1.71 0-2.916.936-3.492 2.232V52.4h-.918V65h.792l.144-2.07c.54 1.314 1.764 2.178 3.474 2.178 2.502 0 4.302-1.908 4.302-4.68 0-2.862-1.8-4.662-4.302-4.662zm-.072 8.514c-2.034 0-3.438-1.584-3.438-3.87 0-2.232 1.404-3.834 3.438-3.834 2.034 0 3.438 1.602 3.438 3.852 0 2.268-1.404 3.852-3.438 3.852zm10.223.828c1.998 0 3.528-1.296 3.924-3.132h-.936c-.36 1.422-1.566 2.304-3.06 2.304-2.034 0-3.312-1.548-3.348-3.672v-.162h7.452c0-.126.018-.27.018-.378-.09-2.718-1.764-4.302-4.212-4.302-2.502 0-4.212 1.908-4.212 4.608 0 2.862 1.782 4.734 4.374 4.734zm-3.348-5.436c.144-1.854 1.53-3.096 3.204-3.096 1.782 0 3.06 1.098 3.204 3.096h-6.408zm8.028-2.952h1.728V65h.918v-8.28h2.736v-.846h-2.736v-1.368c0-.9.342-1.26 1.26-1.26h1.494V52.4h-1.53c-1.53 0-2.142.666-2.142 2.124v1.35h-1.728v.846zm10.05 8.388c2.574 0 4.392-1.908 4.392-4.68 0-2.754-1.818-4.662-4.392-4.662-2.574 0-4.374 1.908-4.374 4.662 0 2.772 1.8 4.68 4.374 4.68zm0-.828c-2.034 0-3.438-1.584-3.438-3.852 0-2.25 1.404-3.852 3.438-3.852 2.034 0 3.438 1.602 3.438 3.852 0 2.268-1.404 3.852-3.438 3.852zm9.942-8.406c-1.692 0-2.412.81-2.79 1.818l-.144-1.818h-.792V65h.918v-4.626c0-1.854.486-3.618 2.628-3.618h.666v-.882h-.486zm5.228 9.234c1.998 0 3.528-1.296 3.924-3.132h-.936c-.36 1.422-1.566 2.304-3.06 2.304-2.034 0-3.312-1.548-3.348-3.672v-.162h7.452c0-.126.018-.27.018-.378-.09-2.718-1.764-4.302-4.212-4.302-2.502 0-4.212 1.908-4.212 4.608 0 2.862 1.782 4.734 4.374 4.734zm-3.348-5.436c.144-1.854 1.53-3.096 3.204-3.096 1.782 0 3.06 1.098 3.204 3.096h-6.408zm18.276-3.906c-1.674 0-2.754.864-3.276 2.052l-.144-1.944h-.792V65h.918v-4.5c0-2.376 1.206-3.888 3.15-3.888 1.764 0 2.826 1.152 2.826 3.312V65h.918v-5.112c0-2.88-1.53-4.122-3.6-4.122zm9.523 9.342c1.998 0 3.528-1.296 3.924-3.132h-.936c-.36 1.422-1.566 2.304-3.06 2.304-2.034 0-3.312-1.548-3.348-3.672v-.162h7.452c0-.126.018-.27.018-.378-.09-2.718-1.764-4.302-4.212-4.302-2.502 0-4.212 1.908-4.212 4.608 0 2.862 1.782 4.734 4.374 4.734zm-3.348-5.436c.144-1.854 1.53-3.096 3.204-3.096 1.782 0 3.06 1.098 3.204 3.096h-6.408zM301.837 65h1.062l3.024-4.014L308.947 65h1.116l-3.546-4.662 3.366-4.464h-1.044l-2.88 3.78-2.844-3.78h-1.098l3.366 4.464L301.837 65zm10.216-2.124c0 1.458.594 2.124 2.142 2.124h1.332v-.846h-1.26c-.954 0-1.296-.36-1.296-1.296V56.72h2.466v-.846h-2.466v-2.556h-.918v2.556h-1.728v.846h1.728v6.156zm9.002-9.576h4.32V65h.972V53.3h4.32v-.9h-9.612v.9zm16.872 7.056c0 2.394-1.188 3.906-3.078 3.906-1.692 0-2.736-1.152-2.736-3.33v-5.058h-.918v5.112c0 2.862 1.494 4.122 3.51 4.122 1.62 0 2.682-.864 3.204-2.034l.126 1.926h.81v-9.126h-.918v4.482zm7.111 4.752c1.998 0 3.528-1.296 3.924-3.132h-.936c-.36 1.422-1.566 2.304-3.06 2.304-2.034 0-3.312-1.548-3.348-3.672v-.162h7.452c0-.126.018-.27.018-.378-.09-2.718-1.764-4.302-4.212-4.302-2.502 0-4.212 1.908-4.212 4.608 0 2.862 1.782 4.734 4.374 4.734zm-3.348-5.436c.144-1.854 1.53-3.096 3.204-3.096 1.782 0 3.06 1.098 3.204 3.096h-6.408zm8.781 2.52c.072 1.89 1.602 2.916 3.888 2.916 1.962 0 3.546-.99 3.546-2.61 0-1.926-1.692-2.304-3.654-2.574-1.422-.198-2.682-.36-2.682-1.638 0-1.044 1.026-1.728 2.574-1.728 1.458 0 2.502.702 2.664 1.89h.936c-.162-1.782-1.62-2.682-3.6-2.682-2.034-.018-3.492 1.026-3.492 2.592 0 1.836 1.692 2.178 3.564 2.43 1.53.216 2.772.414 2.772 1.764 0 1.08-1.134 1.764-2.628 1.764-1.746 0-2.88-.81-2.952-2.124h-.936zm16.637-4.266c-.558-1.296-1.782-2.16-3.492-2.16-2.502 0-4.302 1.908-4.302 4.662 0 2.88 1.8 4.68 4.302 4.68 1.71 0 2.898-.918 3.474-2.196l.144 2.088h.792V52.4h-.918v5.526zm-3.42 6.354c-2.034 0-3.438-1.584-3.438-3.852 0-2.25 1.404-3.852 3.438-3.852 2.034 0 3.438 1.602 3.438 3.87 0 2.25-1.404 3.834-3.438 3.834zm14.525-.126c-.54 0-.81-.18-.81-.882v-4.248c0-2.088-1.278-3.258-3.564-3.258-2.088 0-3.474 1.008-3.708 2.664h.918c.234-1.116 1.206-1.854 2.754-1.854 1.71 0 2.682.9 2.682 2.412v.792h-3.096c-2.34 0-3.6 1.008-3.6 2.718 0 1.62 1.278 2.61 3.222 2.61 1.854 0 2.952-.846 3.51-1.98v.324c-.036 1.08.414 1.548 1.494 1.548h.54v-.846h-.342zm-1.728-2.844c0 1.746-1.242 3.006-3.402 3.006-1.458 0-2.358-.738-2.358-1.872 0-1.206.9-1.872 2.592-1.872h3.168v.738zM382.22 65l-.594 1.476c-.414 1.008-.576 1.278-1.512 1.278h-1.152v.846h1.404c1.224 0 1.512-.468 2.088-1.908l4.374-10.818h-.99l-3.114 7.938-3.168-7.938h-.99L382.22 65zm5.014-.594c0 .414.288.684.684.684.396 0 .684-.27.684-.684 0-.414-.288-.666-.684-.666-.396 0-.684.252-.684.666z" fill="#000"/></svg>