<svg width="134" height="20" viewBox="0 0 134 20" fill="none" xmlns="http://www.w3.org/2000/svg"><path d="M15.772 5.124V.561H.302v18.9h15.632v-4.563H5.377v-2.835h9.666v-4.32H5.377V5.124h10.395zm20.4-4.563h-5.103v10.233c0 3.024-1.377 4.293-3.591 4.293-2.187 0-3.564-1.269-3.591-4.293V.588h-5.076v10.206c0 6.183 3.348 8.937 8.667 8.937s8.694-2.754 8.694-8.937V.561zm3.706.027v18.873h5.076v-5.75h3.024l3.672 5.75h5.86l-4.24-6.426c2.62-.89 3.726-2.808 3.726-5.886 0-4.617-2.457-6.56-8.613-6.56h-8.505zm5.076 4.563h3.672c2.241 0 3.078.702 3.078 2.322 0 1.647-.837 2.322-3.078 2.322h-3.672V5.151zm18.01 14.77L72.415.101 68.204.13l-9.45 19.791h4.212zM92.282.56h-5.103v10.233c0 3.024-1.377 4.293-3.59 4.293-2.188 0-3.565-1.269-3.592-4.293V.588H74.92v10.206c0 6.183 3.348 8.937 8.667 8.937 5.32 0 8.694-2.754 8.694-8.937V.561zm11.402-.27c-4.401.027-7.857 1.944-7.857 6.183 0 3.7 3.078 4.698 7.371 5.724 3.105.783 3.645.891 3.645 1.971 0 .864-.918 1.242-1.971 1.242-2.403 0-5.13-.702-7.587-2.079l-2.268 3.78c2.592 1.728 5.778 2.646 9.288 2.646 4.86 0 7.911-2.214 7.911-6.237 0-3.86-3.159-4.94-7.587-6.129-2.943-.729-3.294-.972-3.294-1.566 0-.864.837-1.242 1.809-1.242 1.863 0 4.401.648 6.561 1.755l2.133-3.915c-2.214-1.35-5.13-2.133-8.154-2.133zm11.447.297v18.873h8.1c5.589 0 10.125-4.077 10.125-9.423 0-5.373-4.536-9.477-10.125-9.477l-8.1.027zm5.076 4.536h2.835c2.808 0 5.103 2.106 5.103 4.887 0 2.808-2.295 4.914-5.103 4.914h-2.835v-9.8z" fill="#09B45B"/></svg>