<svg width="237" height="16" viewBox="0 0 237 16" fill="none" xmlns="http://www.w3.org/2000/svg"><path d="M3.692 12c3.774 0 5.984-2.346 5.984-5.95C9.676 2.429 7.466.1 3.692.1H.224V12h3.468zM1.142.95h2.55c3.247 0 5.049 1.972 5.049 5.1 0 3.111-1.802 5.1-5.049 5.1h-2.55V.95zm10.808.612c.34 0 .612-.255.612-.612a.599.599 0 00-.612-.612.599.599 0 00-.612.612c0 .357.272.612.612.612zM11.508 12h.867V3.381h-.867V12zm2.515-2.652c.068 1.785 1.513 2.754 3.672 2.754 1.853 0 3.349-.935 3.349-2.465 0-1.819-1.598-2.176-3.451-2.431-1.343-.187-2.533-.34-2.533-1.547 0-.986.969-1.632 2.43-1.632 1.378 0 2.364.663 2.517 1.785h.884c-.153-1.683-1.53-2.533-3.4-2.533-1.921-.017-3.298.969-3.298 2.448 0 1.734 1.598 2.057 3.366 2.295 1.445.204 2.618.391 2.618 1.666 0 1.02-1.071 1.666-2.482 1.666-1.65 0-2.72-.765-2.788-2.006h-.884zm12.432 2.754c1.955 0 3.332-1.122 3.672-2.873h-.918c-.29 1.275-1.326 2.091-2.754 2.091-1.887 0-3.196-1.479-3.196-3.621s1.292-3.655 3.196-3.655c1.445 0 2.465.816 2.77 2.108h.902c-.357-1.785-1.7-2.873-3.655-2.873-2.431 0-4.097 1.802-4.097 4.42 0 2.652 1.649 4.403 4.08 4.403zm9.165 0c2.431 0 4.148-1.802 4.148-4.42 0-2.601-1.717-4.403-4.148-4.403-2.431 0-4.131 1.802-4.131 4.403 0 2.618 1.7 4.42 4.131 4.42zm0-.782c-1.921 0-3.247-1.496-3.247-3.638 0-2.125 1.326-3.638 3.247-3.638 1.921 0 3.247 1.513 3.247 3.638 0 2.142-1.326 3.638-3.247 3.638zm8.005.68h1.036l3.367-8.619h-.901l-2.959 7.616-2.974-7.616h-.936L43.624 12zm9.028.102c1.887 0 3.332-1.224 3.706-2.958h-.884c-.34 1.343-1.479 2.176-2.89 2.176-1.92 0-3.128-1.462-3.162-3.468v-.153h7.038c0-.119.017-.255.017-.357-.085-2.567-1.666-4.063-3.978-4.063-2.363 0-3.978 1.802-3.978 4.352 0 2.703 1.683 4.471 4.131 4.471zm-3.162-5.134c.136-1.751 1.445-2.924 3.026-2.924 1.683 0 2.89 1.037 3.026 2.924h-6.052zm12.22-3.587c-1.598 0-2.278.765-2.635 1.717l-.136-1.717h-.748V12h.867V7.631c0-1.751.459-3.417 2.482-3.417h.629v-.833h-.46zM70.62 12l-.561 1.394c-.391.952-.544 1.207-1.428 1.207h-1.088v.799h1.326c1.156 0 1.428-.442 1.972-1.802l4.13-10.217h-.934l-2.941 7.497-2.992-7.497h-.935L70.62 12zm8.96.102c2.43 0 4.148-1.802 4.148-4.42 0-2.601-1.717-4.403-4.148-4.403-2.431 0-4.131 1.802-4.131 4.403 0 2.618 1.7 4.42 4.13 4.42zm0-.782c-1.921 0-3.247-1.496-3.247-3.638 0-2.125 1.326-3.638 3.247-3.638 1.92 0 3.247 1.513 3.247 3.638 0 2.142-1.326 3.638-3.247 3.638zm12.127-3.706c0 2.261-1.122 3.689-2.907 3.689-1.598 0-2.584-1.088-2.584-3.145V3.381h-.867v4.828c0 2.703 1.41 3.893 3.315 3.893 1.53 0 2.533-.816 3.026-1.921L91.81 12h.765V3.381h-.867v4.233zm6.427-4.233c-1.598 0-2.278.765-2.635 1.717l-.136-1.717h-.748V12h.867V7.631c0-1.751.459-3.417 2.482-3.417h.629v-.833h-.46zm10.49-.102c-1.615 0-2.754.884-3.298 2.108V.1h-.867V12h.748l.136-1.955c.51 1.241 1.666 2.057 3.281 2.057 2.363 0 4.063-1.802 4.063-4.42 0-2.703-1.7-4.403-4.063-4.403zm-.068 8.041c-1.921 0-3.247-1.496-3.247-3.655 0-2.108 1.326-3.621 3.247-3.621 1.921 0 3.247 1.513 3.247 3.638 0 2.142-1.326 3.638-3.247 3.638zm9.656.782c1.887 0 3.332-1.224 3.706-2.958h-.884c-.34 1.343-1.479 2.176-2.89 2.176-1.921 0-3.128-1.462-3.162-3.468v-.153h7.038c0-.119.017-.255.017-.357-.085-2.567-1.666-4.063-3.978-4.063-2.363 0-3.978 1.802-3.978 4.352 0 2.703 1.683 4.471 4.131 4.471zm-3.162-5.134c.136-1.751 1.445-2.924 3.026-2.924 1.683 0 2.89 1.037 3.026 2.924h-6.052zm8.293 2.38c.068 1.785 1.513 2.754 3.672 2.754 1.853 0 3.349-.935 3.349-2.465 0-1.819-1.598-2.176-3.451-2.431-1.343-.187-2.533-.34-2.533-1.547 0-.986.969-1.632 2.431-1.632 1.377 0 2.363.663 2.516 1.785h.884c-.153-1.683-1.53-2.533-3.4-2.533-1.921-.017-3.298.969-3.298 2.448 0 1.734 1.598 2.057 3.366 2.295 1.445.204 2.618.391 2.618 1.666 0 1.02-1.071 1.666-2.482 1.666-1.649 0-2.72-.765-2.788-2.006h-.884zm9.321.646c0 1.377.561 2.006 2.023 2.006h1.258v-.799h-1.19c-.901 0-1.224-.34-1.224-1.224V4.18h2.329v-.799h-2.329V.967h-.867v2.414h-1.632v.799h1.632v5.814zm9.828 0c0 1.377.561 2.006 2.023 2.006h1.258v-.799h-1.19c-.901 0-1.224-.34-1.224-1.224V4.18h2.329v-.799h-2.329V.967h-.867v2.414h-1.632v.799h1.632v5.814zm5.042-8.432c.34 0 .612-.255.612-.612a.599.599 0 00-.612-.612.599.599 0 00-.612.612c0 .357.272.612.612.612zM147.093 12h.867V3.381h-.867V12zm12.528-8.721c-1.581 0-2.601.884-3.094 2.159-.408-1.428-1.479-2.159-2.839-2.159-1.479 0-2.363.867-2.805 1.938l-.136-1.836h-.748V12h.867V7.614c0-2.108 1.02-3.536 2.669-3.536 1.496 0 2.431 1.054 2.431 3.043V12h.867V7.308c.051-1.972 1.071-3.23 2.686-3.23 1.496 0 2.397 1.003 2.397 2.958V12h.884V7.002c0-2.601-1.377-3.723-3.179-3.723zm8.778 8.823c1.887 0 3.332-1.224 3.706-2.958h-.884c-.34 1.343-1.479 2.176-2.89 2.176-1.921 0-3.128-1.462-3.162-3.468v-.153h7.038c0-.119.017-.255.017-.357-.085-2.567-1.666-4.063-3.978-4.063-2.363 0-3.978 1.802-3.978 4.352 0 2.703 1.683 4.471 4.131 4.471zm-3.162-5.134c.136-1.751 1.445-2.924 3.026-2.924 1.683 0 2.89 1.037 3.026 2.924h-6.052zm13.929 3.026c0 1.377.561 2.006 2.023 2.006h1.258v-.799h-1.19c-.901 0-1.224-.34-1.224-1.224V4.18h2.329v-.799h-2.329V.967h-.867v2.414h-1.632v.799h1.632v5.814zm8.142 2.108c2.431 0 4.148-1.802 4.148-4.42 0-2.601-1.717-4.403-4.148-4.403-2.431 0-4.131 1.802-4.131 4.403 0 2.618 1.7 4.42 4.131 4.42zm0-.782c-1.921 0-3.247-1.496-3.247-3.638 0-2.125 1.326-3.638 3.247-3.638 1.921 0 3.247 1.513 3.247 3.638 0 2.142-1.326 3.638-3.247 3.638zm11.099-1.326c0 1.377.561 2.006 2.023 2.006h1.258v-.799h-1.19c-.901 0-1.224-.34-1.224-1.224V4.18h2.329v-.799h-2.329V.967h-.867v2.414h-1.632v.799h1.632v5.814zm8.119-6.613c-1.598 0-2.278.765-2.635 1.717l-.136-1.717h-.748V12h.867V7.631c0-1.751.459-3.417 2.482-3.417h.629v-.833h-.459zm8.961 7.82c-.51 0-.765-.17-.765-.833V6.356c0-1.972-1.207-3.077-3.366-3.077-1.972 0-3.281.952-3.502 2.516h.867c.221-1.054 1.139-1.751 2.601-1.751 1.615 0 2.533.85 2.533 2.278v.748h-2.924c-2.21 0-3.4.952-3.4 2.567 0 1.53 1.207 2.465 3.043 2.465 1.751 0 2.788-.799 3.315-1.87v.306c-.034 1.02.391 1.462 1.411 1.462h.51v-.799h-.323zm-1.632-2.686c0 1.649-1.173 2.839-3.213 2.839-1.377 0-2.227-.697-2.227-1.768 0-1.139.85-1.768 2.448-1.768h2.992v.697zm10.019-3.196c-.527-1.224-1.683-2.04-3.298-2.04-2.363 0-4.063 1.802-4.063 4.403 0 2.72 1.7 4.42 4.063 4.42 1.615 0 2.737-.867 3.281-2.074l.136 1.972h.748V.1h-.867v5.219zm-3.23 6.001c-1.921 0-3.247-1.496-3.247-3.638 0-2.125 1.326-3.638 3.247-3.638 1.921 0 3.247 1.513 3.247 3.655 0 2.125-1.326 3.621-3.247 3.621zm9.945.782c1.887 0 3.332-1.224 3.706-2.958h-.884c-.34 1.343-1.479 2.176-2.89 2.176-1.921 0-3.128-1.462-3.162-3.468v-.153h7.038c0-.119.017-.255.017-.357-.085-2.567-1.666-4.063-3.978-4.063-2.363 0-3.978 1.802-3.978 4.352 0 2.703 1.683 4.471 4.131 4.471zm-3.162-5.134c.136-1.751 1.445-2.924 3.026-2.924 1.683 0 2.89 1.037 3.026 2.924h-6.052zm7.984 4.471c0 .391.272.646.646.646s.646-.255.646-.646-.272-.629-.646-.629-.646.238-.646.629z" fill="#000"/></svg>