<svg width="196" height="31" viewBox="0 0 196 31" fill="none" xmlns="http://www.w3.org/2000/svg"><rect width="196" height="31" rx="15.5" fill="#14964F"/><path d="M21.985 20h1.68l-3.486-9.744h-1.848L14.845 20h1.666l.7-1.988h4.074l.7 1.988zm-1.148-3.29H17.66l1.596-4.522 1.582 4.522zM30.655 20h1.582v-4.55c0-2.156-1.358-3.29-3.164-3.29-.924 0-1.778.378-2.296 1.008v-.882H25.18V20h1.596v-4.312c0-1.414.77-2.142 1.946-2.142 1.162 0 1.932.728 1.932 2.142V20zm14.552 0h1.582v-4.55c0-2.156-1.372-3.29-3.178-3.29-1.12 0-2.212.588-2.688 1.526-.532-1.008-1.554-1.526-2.772-1.526-.924 0-1.764.378-2.282 1.008v-.882h-1.596V20h1.596v-4.312c0-1.414.77-2.142 1.946-2.142 1.162 0 1.932.728 1.932 2.142V20h1.582v-4.312c0-1.414.77-2.142 1.946-2.142 1.162 0 1.932.728 1.932 2.142V20zm6.86-6.496c1.19 0 2.129.756 2.157 1.946h-4.27c.167-1.218 1.035-1.946 2.114-1.946zm3.612 4.2h-1.721c-.294.602-.84 1.078-1.82 1.078-1.176 0-2.087-.77-2.198-2.044h5.894c.041-.266.055-.518.055-.784 0-2.268-1.553-3.794-3.752-3.794-2.282 0-3.85 1.554-3.85 3.976 0 2.422 1.639 3.99 3.85 3.99 1.89 0 3.108-1.078 3.542-2.422zM57.46 20h1.596V9.64H57.46V20zm3.16-3.892c0 2.38 1.61 4.018 3.64 4.018 1.26 0 2.184-.588 2.674-1.288V20h1.61V9.64h-1.61v3.724c-.588-.728-1.652-1.204-2.66-1.204-2.044 0-3.654 1.568-3.654 3.948zm6.314.028c0 1.666-1.134 2.604-2.338 2.604-1.19 0-2.338-.966-2.338-2.632 0-1.666 1.148-2.562 2.338-2.562 1.204 0 2.338.938 2.338 2.59zm6.954-2.632c1.19 0 2.128.756 2.156 1.946h-4.27c.168-1.218 1.036-1.946 2.114-1.946zm3.612 4.2h-1.722c-.294.602-.84 1.078-1.82 1.078-1.176 0-2.086-.77-2.198-2.044h5.894c.042-.266.056-.518.056-.784 0-2.268-1.554-3.794-3.752-3.794-2.282 0-3.85 1.554-3.85 3.976 0 2.422 1.638 3.99 3.85 3.99 1.89 0 3.108-1.078 3.542-2.422zM84.754 20h1.582v-4.55c0-2.156-1.358-3.29-3.163-3.29-.924 0-1.779.378-2.297 1.008v-.882H79.28V20h1.596v-4.312c0-1.414.77-2.142 1.947-2.142 1.162 0 1.931.728 1.931 2.142V20zm14.241-7.714h-1.596v4.298c0 1.414-.77 2.142-1.946 2.142-1.162 0-1.932-.728-1.932-2.142v-4.298h-1.582v4.536c0 2.156 1.372 3.29 3.178 3.29.91 0 1.778-.378 2.282-1.036V20h1.596v-7.714zm7.58 7.714h1.582v-4.55c0-2.156-1.358-3.29-3.164-3.29-.924 0-1.778.378-2.296 1.008v-.882h-1.596V20h1.596v-4.312c0-1.414.77-2.142 1.946-2.142 1.162 0 1.932.728 1.932 2.142V20zm3.086-3.892c0 2.38 1.61 4.018 3.64 4.018 1.26 0 2.184-.588 2.674-1.288V20h1.61V9.64h-1.61v3.724c-.588-.728-1.652-1.204-2.66-1.204-2.044 0-3.654 1.568-3.654 3.948zm6.314.028c0 1.666-1.134 2.604-2.338 2.604-1.19 0-2.338-.966-2.338-2.632 0-1.666 1.148-2.562 2.338-2.562 1.204 0 2.338.938 2.338 2.59zM129.492 20h1.596v-9.73h-1.596v4.172h-4.578V10.27h-1.596V20h1.596v-4.256h4.578V20zm3.165-3.892c0 2.38 1.61 4.018 3.612 4.018 1.288 0 2.212-.616 2.702-1.274V20h1.61v-7.714h-1.61v1.12c-.476-.63-1.372-1.246-2.674-1.246-2.03 0-3.64 1.568-3.64 3.948zm6.314.028c0 1.666-1.134 2.604-2.338 2.604-1.19 0-2.338-.966-2.338-2.632 0-1.666 1.148-2.562 2.338-2.562 1.204 0 2.338.938 2.338 2.59zm9.18 3.864h1.582v-4.55c0-2.156-1.358-3.29-3.164-3.29-.924 0-1.778.378-2.296 1.008v-.882h-1.596V20h1.596v-4.312c0-1.414.77-2.142 1.946-2.142 1.162 0 1.932.728 1.932 2.142V20zm3.086-3.892c0 2.38 1.61 4.018 3.64 4.018 1.26 0 2.184-.588 2.674-1.288V20h1.61V9.64h-1.61v3.724c-.588-.728-1.652-1.204-2.66-1.204-2.044 0-3.654 1.568-3.654 3.948zm6.314.028c0 1.666-1.134 2.604-2.338 2.604-1.19 0-2.338-.966-2.338-2.632 0-1.666 1.148-2.562 2.338-2.562 1.204 0 2.338.938 2.338 2.59zm6.954-2.632c1.19 0 2.128.756 2.156 1.946h-4.27c.168-1.218 1.036-1.946 2.114-1.946zm3.612 4.2h-1.722c-.294.602-.84 1.078-1.82 1.078-1.176 0-2.086-.77-2.198-2.044h5.894c.042-.266.056-.518.056-.784 0-2.268-1.554-3.794-3.752-3.794-2.282 0-3.85 1.554-3.85 3.976 0 2.422 1.638 3.99 3.85 3.99 1.89 0 3.108-1.078 3.542-2.422zM169.898 20h1.596V9.64h-1.596V20zm9.165 0h1.582v-4.55c0-2.156-1.358-3.29-3.164-3.29-.924 0-1.778.378-2.296 1.008v-.882h-1.596V20h1.596v-4.312c0-1.414.77-2.142 1.946-2.142 1.162 0 1.932.728 1.932 2.142V20z" fill="#fff"/></svg>