<svg width="300" height="65" viewBox="0 0 300 65" fill="none" xmlns="http://www.w3.org/2000/svg"><path fill="#fff" d="M0 0h300v65H0z"/><path d="M17.092 10.18v.86L14.622 18h-1.59l2.48-6.569h-3.147V10.18h4.727zm4.318-.016V18h-1.504v-5.989l-1.493.575v-1.257l2.836-1.165h.161zm2.401 7.068c0-.236.079-.433.236-.59.158-.162.371-.243.64-.243.268 0 .481.081.639.242a.802.802 0 01.236.59.802.802 0 01-.236.592c-.158.157-.37.236-.64.236-.268 0-.481-.079-.639-.236a.802.802 0 01-.236-.591zm6.45-7.138h.2v1.278h-.07c-.34 0-.638.06-.892.177-.25.115-.46.283-.628.505a2.268 2.268 0 00-.371.795 4.013 4.013 0 00-.123 1.037v1.316c0 .272.017.512.053.72.04.207.095.38.167.52a.892.892 0 00.258.306.571.571 0 00.66-.005.91.91 0 00.258-.295c.072-.13.125-.28.161-.451.04-.172.06-.36.06-.564 0-.208-.02-.398-.06-.57a1.629 1.629 0 00-.166-.445.819.819 0 00-.264-.296.569.569 0 00-.338-.107.691.691 0 00-.467.166 1.024 1.024 0 00-.296.42 1.57 1.57 0 00-.112.53l-.452-.321c.015-.273.065-.529.15-.769.09-.243.212-.461.366-.655.154-.193.338-.343.553-.45.215-.112.457-.167.725-.167.312 0 .584.07.817.209.233.14.426.331.58.575.157.243.274.526.349.848.079.32.118.66.118 1.02 0 .38-.054.733-.161 1.059-.107.326-.26.61-.457.854a2.066 2.066 0 01-.72.57 2.13 2.13 0 01-.945.203 2.08 2.08 0 01-.972-.225 2.208 2.208 0 01-.741-.64 3.078 3.078 0 01-.467-.988 4.608 4.608 0 01-.161-1.256v-.607c0-.63.073-1.207.22-1.73.147-.526.363-.981.65-1.364a2.98 2.98 0 011.063-.886c.423-.212.908-.317 1.456-.317zm4.695 2.003v-.413c0-.298.054-.568.161-.811.111-.244.274-.44.489-.586.218-.147.489-.22.811-.22.326 0 .598.073.816.22.219.147.38.342.484.586.107.243.16.513.16.81v.414c0 .29-.053.557-.16.8-.108.244-.27.44-.489.586-.215.147-.483.22-.806.22-.322 0-.592-.073-.81-.22a1.381 1.381 0 01-.495-.585 1.961 1.961 0 01-.16-.8zm.983-.413v.413c0 .122.018.238.054.35a.63.63 0 00.16.263.387.387 0 00.27.096.367.367 0 00.262-.096.613.613 0 00.15-.264 1.13 1.13 0 00.055-.349v-.413c0-.13-.018-.247-.054-.355a.55.55 0 00-.156-.263.375.375 0 00-.268-.102.375.375 0 00-.269.102.613.613 0 00-.156.263 1.23 1.23 0 00-.048.355zm2.105 4.818v-.42c0-.293.056-.562.167-.805.11-.244.274-.439.489-.586.218-.146.487-.22.805-.22.33 0 .602.074.817.22.215.147.376.342.483.586.111.243.167.512.167.806v.419c0 .293-.054.562-.162.805a1.35 1.35 0 01-.488.58c-.215.147-.484.22-.806.22-.322 0-.594-.073-.816-.22a1.382 1.382 0 01-.494-.585 1.96 1.96 0 01-.162-.8zm.983-.42v.414c0 .125.022.244.065.355.043.107.1.195.172.263.075.064.159.096.252.096.129 0 .227-.032.296-.096a.5.5 0 00.134-.263c.025-.111.037-.23.037-.355v-.408c0-.129-.017-.247-.053-.355a.551.551 0 00-.156-.263.356.356 0 00-.263-.102.382.382 0 00-.274.102.588.588 0 00-.161.263 1.21 1.21 0 00-.049.35zm.876-4.78l-3.207 6.113-.72-.409 3.207-6.112.72.408zm7.46 5.414V9.75h1.51V18l-1.365.005-.145-1.289zm-3.013-1.418v-.386c0-.473.04-.887.118-1.241a2.61 2.61 0 01.365-.886c.162-.237.359-.412.591-.527a1.79 1.79 0 01.811-.177c.276 0 .518.07.725.21.212.136.39.327.538.574.146.247.265.54.354.876.09.336.152.705.188 1.106v.559c-.043.38-.11.734-.199 1.063-.086.33-.204.616-.354.86a1.792 1.792 0 01-.532.574c-.208.136-.45.204-.725.204-.304 0-.575-.06-.811-.182-.233-.122-.43-.301-.59-.537a2.75 2.75 0 01-.36-.881 5.548 5.548 0 01-.119-1.209zm1.504-.386v.386c0 .272.013.507.038.704.028.193.073.353.134.478a.671.671 0 00.252.274.792.792 0 00.387.086c.2 0 .364-.05.489-.15a.92.92 0 00.28-.425c.064-.183.1-.392.107-.628v-1.015a2.582 2.582 0 00-.07-.532 1.338 1.338 0 00-.167-.403.769.769 0 00-.268-.258.708.708 0 00-.366-.091c-.15 0-.279.03-.386.091a.629.629 0 00-.247.285c-.061.125-.108.288-.14.489a5.007 5.007 0 00-.043.709zm6.494 3.195c-.398 0-.75-.06-1.058-.182a2.092 2.092 0 01-.774-.527 2.356 2.356 0 01-.483-.843 3.526 3.526 0 01-.167-1.128v-.478c0-.472.054-.886.161-1.24.108-.359.26-.66.457-.903s.438-.424.725-.542c.29-.122.618-.183.983-.183s.686.06.961.183c.28.118.51.297.693.537.183.236.32.53.414.88.093.352.14.76.14 1.225v.688h-3.895v-1.058h2.417V14.4c0-.236-.025-.433-.075-.59a.679.679 0 00-.236-.36.71.71 0 00-.43-.119c-.15 0-.277.031-.381.092a.629.629 0 00-.247.285c-.061.128-.106.297-.134.504-.03.205-.043.45-.043.736v.478c0 .269.023.494.07.677.046.179.114.326.203.44a.81.81 0 00.339.242c.132.047.286.07.462.07.265 0 .503-.047.714-.14.215-.096.398-.227.548-.392l.601.913a2.16 2.16 0 01-.43.409 2.344 2.344 0 01-.655.332 2.747 2.747 0 01-.88.13zm4.425-4.624V18H55.27v-5.812h1.419l.085 1.295zm1.37-1.338l-.021 1.499a1.917 1.917 0 00-.248-.032 3.293 3.293 0 00-.247-.01c-.168 0-.311.026-.43.08a.718.718 0 00-.295.23c-.075.1-.132.226-.172.377-.039.15-.062.32-.07.51l-.284-.108c0-.38.029-.727.086-1.042.06-.318.15-.594.268-.827.119-.236.26-.419.425-.548a.912.912 0 01.57-.193c.07 0 .146.007.225.021.082.011.146.026.193.043zm4.952-1.965V18h-1.573v-7.82h1.573zm3.883 0l-2.535 3.883-1.552 1.934-.3-1.574 1.004-1.676 1.471-2.567h1.912zM65.163 18l-1.708-3.593 1.155-1.02L67.016 18h-1.853zm3.953-8.25V18h-1.51V9.75h1.51zm3.534 8.357c-.397 0-.75-.06-1.058-.182a2.092 2.092 0 01-.773-.527 2.357 2.357 0 01-.484-.843 3.526 3.526 0 01-.166-1.128v-.478c0-.472.054-.886.161-1.24.108-.359.26-.66.457-.903s.438-.424.725-.542c.29-.122.617-.183.983-.183.365 0 .685.06.961.183.28.118.51.297.693.537.183.236.32.53.413.88.094.352.14.76.14 1.225v.688h-3.894v-1.058h2.417V14.4c0-.236-.025-.433-.075-.59a.678.678 0 00-.236-.36.71.71 0 00-.43-.119c-.15 0-.278.031-.381.092a.628.628 0 00-.247.285 1.76 1.76 0 00-.135.504c-.029.205-.043.45-.043.736v.478c0 .269.023.494.07.677.047.179.115.326.204.44a.81.81 0 00.338.242c.133.047.287.07.462.07a1.647 1.647 0 001.262-.532l.602.913a2.156 2.156 0 01-.43.409 2.342 2.342 0 01-.655.332 2.747 2.747 0 01-.88.13zm4.501-5.918V18h-1.509v-5.812h1.51zm-1.579-1.504c0-.233.074-.425.22-.575.15-.154.351-.231.602-.231.254 0 .455.077.602.23.146.151.22.343.22.576a.79.79 0 01-.226.574c-.147.15-.343.226-.59.226-.255 0-.457-.075-.608-.226a.8.8 0 01-.22-.574zm4.249 2.744V18h-1.51v-5.812h1.413l.097 1.241zm-.226 1.466l-.403.011a4.427 4.427 0 01.124-1.176c.093-.347.224-.643.392-.886.172-.247.376-.435.612-.564.24-.133.507-.199.8-.199.226 0 .432.04.618.118.19.079.353.204.49.376.135.172.24.401.316.688.075.283.113.63.113 1.042V18h-1.51v-3.706c0-.25-.025-.444-.075-.58a.503.503 0 00-.225-.29.749.749 0 00-.376-.086.623.623 0 00-.382.123.937.937 0 00-.279.328c-.072.14-.127.304-.166.494-.036.19-.052.394-.049.613zm6.725 1.768v-2.686a1.12 1.12 0 00-.065-.419.417.417 0 00-.182-.226.53.53 0 00-.29-.075.598.598 0 00-.323.08.493.493 0 00-.193.232c-.04.1-.059.22-.059.36h-1.51c0-.25.05-.487.146-.71a1.68 1.68 0 01.424-.59c.19-.172.415-.306.677-.403.261-.097.555-.145.88-.145.387 0 .731.066 1.032.199.3.129.539.335.714.618.176.282.264.65.264 1.1v2.59c0 .325.016.59.048.794.036.204.088.38.156.527V18h-1.515a2.52 2.52 0 01-.156-.602 5.589 5.589 0 01-.048-.735zm.182-2.213l.006.902h-.553a.939.939 0 00-.376.07.722.722 0 00-.264.199.82.82 0 00-.16.29c-.033.11-.049.229-.049.354 0 .14.02.258.059.355.04.096.098.17.177.22.08.05.172.075.28.075a.867.867 0 00.43-.102.696.696 0 00.268-.247c.06-.097.08-.186.059-.269l.344.586a2.66 2.66 0 01-.178.413 1.748 1.748 0 01-.273.398 1.324 1.324 0 01-.414.3 1.349 1.349 0 01-.575.113c-.311 0-.596-.071-.854-.214a1.594 1.594 0 01-.612-.602 1.826 1.826 0 01-.22-.918c0-.294.046-.559.14-.795.096-.24.24-.443.429-.607.19-.169.43-.297.72-.387.29-.09.63-.134 1.02-.134h.596zm3.921-1.02V18h-1.509v-5.812h1.413l.096 1.241zm-.225 1.466l-.403.01a4.427 4.427 0 01.123-1.176 2.84 2.84 0 01.392-.886c.172-.247.376-.435.613-.564.24-.133.507-.199.8-.199.226 0 .432.04.618.118.19.079.353.204.489.376.136.172.241.401.317.688.075.283.112.63.112 1.042V18H91.75v-3.706c0-.25-.025-.444-.075-.58a.502.502 0 00-.226-.29.749.749 0 00-.376-.086.623.623 0 00-.381.123.937.937 0 00-.28.328 1.95 1.95 0 00-.166.494c-.036.19-.052.394-.048.613zM95.94 9.75V18h-1.51V9.75h1.51zm3.534 8.357c-.398 0-.75-.06-1.059-.182a2.092 2.092 0 01-.773-.527 2.354 2.354 0 01-.483-.843 3.526 3.526 0 01-.167-1.128v-.478c0-.472.054-.886.161-1.24.108-.359.26-.66.457-.903s.439-.424.725-.542c.29-.122.618-.183.983-.183s.686.06.961.183c.28.118.511.297.693.537.183.236.321.53.414.88.093.352.139.76.139 1.225v.688h-3.894v-1.058h2.417V14.4c0-.236-.025-.433-.075-.59a.678.678 0 00-.236-.36.71.71 0 00-.43-.119c-.15 0-.277.031-.381.092a.628.628 0 00-.247.285c-.061.128-.106.297-.135.504a5.4 5.4 0 00-.043.736v.478c0 .269.024.494.07.677.047.179.115.326.204.44a.81.81 0 00.339.242c.132.047.286.07.462.07a1.642 1.642 0 001.262-.532l.601.913a2.146 2.146 0 01-.429.409 2.343 2.343 0 01-.656.332 2.744 2.744 0 01-.88.13zm5.978-5.918h1.364V18c0 .53-.102.963-.306 1.3-.201.34-.482.589-.843.746-.359.162-.778.242-1.257.242-.183 0-.389-.025-.618-.075a2.896 2.896 0 01-.655-.231 1.723 1.723 0 01-.521-.365l.51-1.042c.14.14.322.258.548.354.225.1.447.15.666.15.211 0 .387-.033.526-.102a.635.635 0 00.322-.332c.076-.158.113-.37.113-.634v-4.474l.151-1.349zm-3.244 3.11v-.387c0-.473.044-.887.134-1.241.089-.355.218-.65.387-.886.168-.237.374-.412.617-.527.247-.118.523-.177.827-.177.319 0 .586.07.801.21.214.136.388.327.521.574.136.247.24.54.311.876.075.336.133.705.172 1.106v.559c-.039.38-.104.734-.193 1.063-.086.33-.201.616-.344.86a1.744 1.744 0 01-.526.574 1.344 1.344 0 01-.752.204c-.301 0-.573-.06-.817-.182-.24-.122-.446-.301-.617-.537a2.664 2.664 0 01-.387-.881 4.887 4.887 0 01-.134-1.209zm1.509-.387v.386c0 .272.016.507.048.704.036.193.09.353.161.478a.722.722 0 00.274.274.892.892 0 00.403.086c.218 0 .392-.05.521-.15a.883.883 0 00.29-.425c.065-.183.1-.392.107-.628v-1.015a2.146 2.146 0 00-.069-.532 1.343 1.343 0 00-.167-.403.741.741 0 00-.279-.258.803.803 0 00-.392-.091.817.817 0 00-.398.091.735.735 0 00-.279.285 1.6 1.6 0 00-.166.489 4.007 4.007 0 00-.054.709zm6.563 3.195c-.397 0-.75-.06-1.058-.182a2.09 2.09 0 01-.773-.527 2.345 2.345 0 01-.484-.843 3.527 3.527 0 01-.166-1.128v-.478c0-.472.054-.886.161-1.24a2.6 2.6 0 01.457-.903c.196-.243.438-.424.725-.542.29-.122.617-.183.983-.183.365 0 .685.06.961.183.279.118.51.297.693.537.182.236.32.53.413.88.093.352.14.76.14 1.225v.688h-3.894v-1.058h2.417V14.4c0-.236-.025-.433-.075-.59a.675.675 0 00-.237-.36.708.708 0 00-.429-.119.745.745 0 00-.382.092.634.634 0 00-.247.285 1.771 1.771 0 00-.134.504c-.029.205-.043.45-.043.736v.478c0 .269.023.494.07.677.046.179.115.326.204.44a.81.81 0 00.338.242c.133.047.287.07.462.07.265 0 .503-.047.715-.14.215-.096.397-.227.548-.392l.601.913a2.336 2.336 0 01-1.085.741 2.747 2.747 0 01-.881.13zm4.426-4.624V18h-1.504v-5.812h1.418l.086 1.295zm1.37-1.338l-.022 1.499a1.905 1.905 0 00-.247-.032 3.282 3.282 0 00-.247-.01 1.04 1.04 0 00-.43.08.719.719 0 00-.295.23 1.07 1.07 0 00-.172.377c-.039.15-.063.32-.07.51l-.284-.108c0-.38.028-.727.086-1.042.06-.318.15-.594.268-.827a1.58 1.58 0 01.424-.548.914.914 0 01.57-.193c.071 0 .147.007.225.021.083.011.147.026.194.043zm2.272-2.4V18h-1.504V9.745h1.504zm3.056 2.444l-2.047 2.89-1.23 1.38-.531-1.144.945-1.38 1.069-1.747h1.794zM119.835 18l-1.267-2.67 1.036-.956L121.56 18h-1.725zm2.101-2.707v-.392c0-.455.053-.858.161-1.209.111-.35.268-.644.472-.88.204-.24.45-.421.736-.543.29-.125.614-.188.972-.188.362 0 .686.063.973.188.29.122.537.303.741.543.207.236.367.53.478.88.111.351.166.754.166 1.209v.392c0 .451-.055.852-.166 1.203-.111.351-.271.646-.478.886-.204.24-.45.421-.736.543a2.453 2.453 0 01-.967.182c-.358 0-.682-.06-.972-.182a1.998 1.998 0 01-.741-.543 2.47 2.47 0 01-.478-.886 4.093 4.093 0 01-.161-1.203zm1.503-.392v.392c0 .269.018.501.054.698.04.197.095.36.167.489a.762.762 0 00.268.285.7.7 0 00.36.091c.136 0 .258-.03.365-.091a.683.683 0 00.264-.285 1.52 1.52 0 00.155-.489c.036-.197.054-.43.054-.698v-.392c0-.261-.02-.49-.059-.688a1.6 1.6 0 00-.167-.488.752.752 0 00-.268-.29.633.633 0 00-.355-.103.632.632 0 00-.354.103.835.835 0 00-.263.29 1.627 1.627 0 00-.167.488 3.863 3.863 0 00-.054.688zm5.624-1.472V18h-1.509v-5.812h1.412l.097 1.241zm-.226 1.466l-.402.011a4.416 4.416 0 01.123-1.176c.093-.347.224-.643.392-.886.172-.247.376-.435.612-.564a1.63 1.63 0 01.801-.199c.225 0 .431.04.617.118.19.079.353.204.489.376.136.172.242.401.317.688.075.283.113.63.113 1.042V18h-1.509v-3.706c0-.25-.025-.444-.076-.58a.502.502 0 00-.225-.29.75.75 0 00-.376-.086.623.623 0 00-.381.123.936.936 0 00-.28.328c-.071.14-.127.304-.166.494a3.06 3.06 0 00-.049.613zm6.698-2.707v1.134h-2.965v-1.133h2.965zm-2.283-1.434h1.499v5.473c0 .162.016.285.048.371a.336.336 0 00.145.183.635.635 0 00.269.048 1 1 0 00.354-.043v1.176a2.052 2.052 0 01-.376.108 2.447 2.447 0 01-.462.037c-.3 0-.562-.057-.784-.171a1.175 1.175 0 01-.51-.548c-.122-.255-.183-.588-.183-1v-5.634zm5.463 7.353c-.398 0-.75-.06-1.058-.182a2.095 2.095 0 01-.774-.527 2.358 2.358 0 01-.483-.843 3.526 3.526 0 01-.167-1.128v-.478c0-.472.054-.886.162-1.24a2.6 2.6 0 01.456-.903c.197-.243.439-.424.725-.542.29-.122.618-.183.983-.183s.686.06.962.183c.279.118.51.297.692.537.183.236.321.53.414.88.093.352.14.76.14 1.225v.688h-3.894v-1.058h2.417V14.4c0-.236-.026-.433-.076-.59a.68.68 0 00-.236-.36.71.71 0 00-.43-.119c-.15 0-.277.031-.381.092a.628.628 0 00-.247.285 1.739 1.739 0 00-.134.504c-.029.205-.043.45-.043.736v.478c0 .269.023.494.069.677.047.179.115.326.205.44a.804.804 0 00.338.242c.132.047.286.07.462.07a1.642 1.642 0 001.262-.532l.602.913a2.153 2.153 0 01-.43.409 2.35 2.35 0 01-.655.332 2.752 2.752 0 01-.881.13zm4.399-4.678V18h-1.51v-5.812h1.413l.097 1.241zm-.226 1.466l-.403.011a4.414 4.414 0 01.124-1.176c.093-.347.224-.643.392-.886.172-.247.376-.435.612-.564a1.63 1.63 0 01.801-.199c.225 0 .431.04.617.118.19.079.353.204.489.376.136.172.242.401.317.688.075.283.113.63.113 1.042V18h-1.51v-3.706c0-.25-.025-.444-.075-.58a.502.502 0 00-.225-.29.752.752 0 00-.376-.086.624.624 0 00-.382.123.934.934 0 00-.279.328 1.92 1.92 0 00-.166.494 3.06 3.06 0 00-.049.613zm8.411 1.945l.935-4.652h1.568L152.207 18h-.94l.032-1.16zm-.553-4.652l.951 4.657.016 1.155h-.945l-1.596-5.812h1.574zm6.048 5.92c-.398 0-.75-.061-1.058-.183a2.095 2.095 0 01-.774-.527 2.358 2.358 0 01-.483-.843 3.526 3.526 0 01-.167-1.128v-.478c0-.472.054-.886.162-1.24a2.6 2.6 0 01.456-.903c.197-.243.439-.424.725-.542.29-.122.618-.183.983-.183s.686.06.962.183c.279.118.51.297.692.537.183.236.321.53.414.88.093.352.14.76.14 1.225v.688h-3.894v-1.058h2.417V14.4c0-.236-.025-.433-.076-.59a.674.674 0 00-.236-.36.71.71 0 00-.43-.119c-.15 0-.277.031-.381.092a.628.628 0 00-.247.285 1.739 1.739 0 00-.134.504c-.029.205-.043.45-.043.736v.478c0 .269.023.494.07.677.046.179.114.326.204.44a.81.81 0 00.338.242c.133.047.287.07.462.07a1.642 1.642 0 001.262-.532l.602.913a2.153 2.153 0 01-.43.409 2.35 2.35 0 01-.655.332 2.747 2.747 0 01-.881.13zm4.426-4.625V18h-1.504v-5.812h1.418l.086 1.295zm1.369-1.338l-.021 1.499a1.93 1.93 0 00-.247-.032 3.304 3.304 0 00-.247-.01c-.169 0-.312.026-.43.08a.712.712 0 00-.295.23c-.076.1-.133.226-.172.377-.04.15-.063.32-.07.51l-.285-.108c0-.38.029-.727.086-1.042.061-.318.151-.594.269-.827.118-.236.259-.419.424-.548a.911.911 0 01.569-.193c.072 0 .147.007.226.021.082.011.147.026.193.043zm2.348-2.395V18h-1.51V9.75h1.51zm2.771 2.438V18h-1.509v-5.812h1.509zm-1.579-1.503c0-.233.073-.425.22-.575.151-.154.351-.231.602-.231.254 0 .454.077.601.23.147.151.22.343.22.576 0 .229-.075.42-.225.574-.147.15-.344.226-.591.226-.254 0-.456-.075-.607-.226a.8.8 0 01-.22-.574zm5.113 7.422c-.397 0-.75-.06-1.058-.182a2.09 2.09 0 01-.773-.527 2.345 2.345 0 01-.484-.843 3.527 3.527 0 01-.166-1.128v-.478c0-.472.053-.886.161-1.24a2.6 2.6 0 01.456-.903c.197-.243.439-.424.726-.542.29-.122.617-.183.982-.183.366 0 .686.06.962.183.279.118.51.297.693.537.182.236.32.53.413.88.093.352.14.76.14 1.225v.688H169.4v-1.058h2.417V14.4c0-.236-.025-.433-.075-.59a.675.675 0 00-.237-.36.708.708 0 00-.429-.119.745.745 0 00-.382.092.628.628 0 00-.247.285 1.771 1.771 0 00-.134.504c-.029.205-.043.45-.043.736v.478c0 .269.023.494.07.677.046.179.114.326.204.44a.81.81 0 00.338.242c.133.047.287.07.462.07.265 0 .503-.047.715-.14.214-.096.397-.227.547-.392l.602.913a2.336 2.336 0 01-1.085.741 2.747 2.747 0 01-.881.13zm4.426-4.624V18h-1.504v-5.812h1.418l.086 1.295zm1.37-1.338l-.022 1.499a1.905 1.905 0 00-.247-.032 3.282 3.282 0 00-.247-.01c-.168 0-.312.026-.43.08a.719.719 0 00-.295.23 1.07 1.07 0 00-.172.377c-.039.15-.063.32-.07.51l-.284-.108c0-.38.028-.727.085-1.042.061-.318.151-.594.269-.827a1.58 1.58 0 01.424-.548.914.914 0 01.57-.193c.071 0 .146.007.225.021.083.011.147.026.194.043zm3.002 5.962c-.397 0-.75-.06-1.058-.182a2.103 2.103 0 01-.774-.527 2.358 2.358 0 01-.483-.843 3.527 3.527 0 01-.166-1.128v-.478c0-.472.053-.886.161-1.24a2.6 2.6 0 01.456-.903c.197-.243.439-.424.725-.542.29-.122.618-.183.983-.183.366 0 .686.06.962.183.279.118.51.297.693.537.182.236.32.53.413.88.093.352.14.76.14 1.225v.688h-3.894v-1.058h2.417V14.4c0-.236-.025-.433-.075-.59a.681.681 0 00-.237-.36.708.708 0 00-.429-.119.745.745 0 00-.382.092.628.628 0 00-.247.285 1.739 1.739 0 00-.134.504c-.029.205-.043.45-.043.736v.478c0 .269.023.494.07.677.046.179.114.326.204.44a.81.81 0 00.338.242c.133.047.287.07.462.07a1.642 1.642 0 001.262-.532l.602.913a2.336 2.336 0 01-1.085.741 2.747 2.747 0 01-.881.13zm4.399-4.678V18h-1.509v-5.812h1.412l.097 1.241zm-.226 1.466l-.402.011a4.416 4.416 0 01.123-1.176c.093-.347.224-.643.392-.886.172-.247.376-.435.612-.564a1.63 1.63 0 01.801-.199c.225 0 .431.04.617.118.19.079.353.204.489.376.136.172.242.401.317.688.075.283.113.63.113 1.042V18h-1.509v-3.706c0-.25-.025-.444-.076-.58a.502.502 0 00-.225-.29.75.75 0 00-.376-.086.623.623 0 00-.381.123.936.936 0 00-.28.328c-.071.14-.127.304-.166.494a3.06 3.06 0 00-.049.613zm12.085-1.004v3.223a3.685 3.685 0 01-.488.413c-.212.154-.489.29-.833.409-.34.114-.755.171-1.246.171-.433 0-.827-.068-1.182-.204a2.391 2.391 0 01-.907-.617 2.806 2.806 0 01-.575-1.042c-.133-.42-.199-.915-.199-1.488v-1.332c0-.566.063-1.058.188-1.477.129-.423.315-.774.559-1.053.243-.28.533-.487.87-.623a3.07 3.07 0 011.149-.204c.588 0 1.069.098 1.445.295.38.197.666.49.859.876.197.386.316.861.355 1.423h-1.52c-.025-.33-.081-.587-.167-.773a.781.781 0 00-.349-.398c-.15-.082-.345-.123-.585-.123-.208 0-.389.037-.543.112a.912.912 0 00-.386.355 1.84 1.84 0 00-.231.634 5.06 5.06 0 00-.075.945v1.343c0 .369.028.684.085.945.058.262.142.475.253.64.114.164.258.284.43.36.175.07.381.107.617.107.19 0 .342-.02.457-.06.114-.039.206-.08.274-.123.071-.047.13-.082.177-.107v-1.44h-1.123v-1.187h2.691zm3.4 4.216c-.397 0-.75-.06-1.058-.182a2.09 2.09 0 01-.773-.527 2.345 2.345 0 01-.484-.843 3.527 3.527 0 01-.166-1.128v-.478c0-.472.054-.886.161-1.24.107-.359.26-.66.456-.903.197-.243.439-.424.726-.542.29-.122.617-.183.982-.183.366 0 .686.06.962.183.279.118.51.297.693.537.182.236.32.53.413.88.093.352.14.76.14 1.225v.688h-3.894v-1.058h2.417V14.4c0-.236-.025-.433-.075-.59a.675.675 0 00-.237-.36.708.708 0 00-.429-.119.745.745 0 00-.382.092.634.634 0 00-.247.285 1.771 1.771 0 00-.134.504c-.029.205-.043.45-.043.736v.478c0 .269.023.494.07.677.046.179.114.326.204.44a.81.81 0 00.338.242c.133.047.287.07.462.07.265 0 .503-.047.715-.14.214-.096.397-.227.547-.392l.602.913a2.336 2.336 0 01-1.085.741 2.747 2.747 0 01-.881.13zm4.501-8.357V18h-1.509V9.75h1.509zm4.007 6.966V9.75h1.509V18l-1.364.005-.145-1.289zm-3.013-1.418v-.386c0-.473.039-.887.118-1.241.082-.355.204-.65.365-.886.161-.237.358-.412.591-.527a1.79 1.79 0 01.811-.177c.276 0 .518.07.725.21.211.136.391.327.537.574.147.247.265.54.355.876.089.336.152.705.188 1.106v.559c-.043.38-.109.734-.199 1.063-.086.33-.204.616-.354.86a1.792 1.792 0 01-.532.574c-.208.136-.45.204-.725.204-.305 0-.575-.06-.811-.182a1.62 1.62 0 01-.591-.537 2.731 2.731 0 01-.36-.881 5.537 5.537 0 01-.118-1.209zm1.504-.386v.386c0 .272.012.507.037.704.029.193.074.353.135.478a.666.666 0 00.252.274.793.793 0 00.387.086c.2 0 .363-.05.489-.15a.923.923 0 00.279-.425c.064-.183.1-.392.107-.628v-1.015a2.534 2.534 0 00-.07-.532 1.317 1.317 0 00-.166-.403.769.769 0 00-.269-.258.705.705 0 00-.365-.091c-.15 0-.279.03-.387.091a.634.634 0 00-.247.285c-.06.125-.107.288-.139.489a4.962 4.962 0 00-.043.709zm6.692-5.162h1.499v6.902L214.78 18h-1.391V9.75zm4.517 5.15v.382a5.9 5.9 0 01-.113 1.236c-.071.35-.184.644-.338.88-.15.237-.344.414-.58.532a1.854 1.854 0 01-.838.177c-.29 0-.539-.068-.746-.204a1.736 1.736 0 01-.527-.574 3.807 3.807 0 01-.344-.865 7.331 7.331 0 01-.188-1.09v-.564c.036-.387.097-.747.183-1.08.09-.333.204-.621.344-.865.139-.247.313-.438.521-.575.211-.14.46-.209.746-.209.33 0 .613.06.849.183.236.118.43.295.58.531.154.237.267.532.338.887.076.35.113.757.113 1.219zm-1.498.382v-.381c0-.269-.011-.5-.033-.693a1.61 1.61 0 00-.118-.483.614.614 0 00-.247-.29.774.774 0 00-.413-.097.755.755 0 00-.387.091.772.772 0 00-.269.258 1.268 1.268 0 00-.161.398 2.61 2.61 0 00-.053.499v1.015c.003.247.034.466.091.655a.88.88 0 00.274.44c.129.105.301.157.515.157a.844.844 0 00.409-.086.572.572 0 00.241-.274c.061-.126.101-.287.118-.484.022-.2.033-.442.033-.725zm4.764 2.825c-.398 0-.75-.06-1.058-.182a2.095 2.095 0 01-.774-.527 2.358 2.358 0 01-.483-.843 3.526 3.526 0 01-.167-1.128v-.478c0-.472.054-.886.162-1.24a2.6 2.6 0 01.456-.903c.197-.243.439-.424.725-.542.29-.122.618-.183.983-.183s.686.06.962.183c.279.118.51.297.692.537.183.236.321.53.414.88.093.352.14.76.14 1.225v.688h-3.894v-1.058h2.417V14.4c0-.236-.025-.433-.076-.59a.68.68 0 00-.236-.36.71.71 0 00-.43-.119c-.15 0-.277.031-.381.092a.628.628 0 00-.247.285 1.739 1.739 0 00-.134.504c-.029.205-.043.45-.043.736v.478c0 .269.023.494.07.677.046.179.114.326.204.44a.81.81 0 00.338.242c.132.047.286.07.462.07a1.642 1.642 0 001.262-.532l.602.913a2.153 2.153 0 01-.43.409 2.35 2.35 0 01-.655.332 2.747 2.747 0 01-.881.13zm4.501-5.918V18h-1.509v-5.812h1.509zm-1.579-1.504c0-.233.073-.425.22-.575.15-.154.351-.231.602-.231.254 0 .454.077.601.23.147.151.22.343.22.576 0 .229-.075.42-.225.574-.147.15-.344.226-.591.226-.254 0-.457-.075-.607-.226a.8.8 0 01-.22-.574zm4.286 2.707V18h-1.509v-5.812h1.418l.091 1.204zm-.215 1.504l-.414.01a4.675 4.675 0 01.108-1.128c.079-.343.197-.642.354-.897.162-.254.364-.45.607-.59.244-.14.528-.21.854-.21.212 0 .407.04.586.118.179.075.335.195.467.36.133.161.235.373.306.634.072.258.108.567.108.93V18h-1.504v-3.695c0-.258-.025-.455-.075-.591a.524.524 0 00-.215-.29.645.645 0 00-.344-.086.618.618 0 00-.376.118.861.861 0 00-.263.333 2.1 2.1 0 00-.151.494c-.032.19-.048.394-.048.613zm2.831-.15l-.543.069c-.007-.383.027-.74.102-1.069.075-.333.192-.623.349-.87a1.75 1.75 0 01.591-.585c.24-.14.518-.21.833-.21.236 0 .451.04.644.118.194.079.358.206.494.382.14.171.246.399.317.682.075.283.113.626.113 1.03V18h-1.509v-3.7c0-.262-.025-.463-.075-.602-.051-.14-.122-.235-.215-.285a.693.693 0 00-.333-.075.555.555 0 00-.339.107.846.846 0 00-.236.301 1.637 1.637 0 00-.145.446 2.967 2.967 0 00-.048.553zm10.371.649h1.563c-.021.587-.139 1.083-.354 1.488a2.152 2.152 0 01-.919.913c-.394.208-.87.311-1.428.311-.434 0-.819-.071-1.155-.214a2.312 2.312 0 01-.86-.645 2.877 2.877 0 01-.537-1.047 5.344 5.344 0 01-.177-1.445v-1.327c0-.544.063-1.026.188-1.445a3 3 0 01.548-1.052c.24-.287.528-.502.865-.645.34-.147.723-.22 1.149-.22.569 0 1.046.107 1.429.322.383.215.678.528.886.94.211.408.338.908.381 1.499h-1.568c-.011-.373-.054-.665-.129-.876-.072-.215-.186-.365-.344-.451-.157-.09-.376-.134-.655-.134-.208 0-.387.037-.537.112a.865.865 0 00-.371.35 1.899 1.899 0 00-.215.633c-.043.262-.064.58-.064.957v1.337c0 .369.02.684.059.945.039.258.102.47.188.634a.808.808 0 00.349.36c.151.075.34.113.57.113.264 0 .478-.04.639-.119a.74.74 0 00.365-.424c.079-.204.123-.494.134-.87zm4.12-5.215V18h-1.574v-7.82h1.574zm2.449 3.324v1.3h-2.847v-1.3h2.847zm.301-3.324v1.305h-3.148V10.18h3.148zm2.959 7.82h-1.38l.011-1.3h1.369c.38 0 .675-.068.887-.204.211-.136.359-.35.445-.644.09-.294.135-.679.135-1.155v-1.22c0-.361-.024-.667-.07-.918a1.507 1.507 0 00-.237-.612.98.98 0 00-.445-.35 1.865 1.865 0 00-.693-.112h-1.429V10.18h1.429a3.3 3.3 0 011.23.22c.369.147.685.362.95.644.265.28.47.625.613 1.037.143.412.215.88.215 1.407v1.209c0 .53-.072.999-.215 1.407a2.893 2.893 0 01-.613 1.037c-.261.279-.578.492-.95.639-.373.147-.79.22-1.252.22zm-.467-7.82V18h-1.574v-7.82h1.574zm7.278 3.84v1.252h-2.616V14.02h2.616zM16.968 25.349v1.3h-3.206v-1.3h3.206zm-2.76-3.17V30h-1.574v-7.82h1.573zm3.899 0V30h-1.558v-7.82h1.558zm3.77 6.484v-2.686c0-.175-.021-.315-.064-.419a.417.417 0 00-.183-.226.53.53 0 00-.29-.075.597.597 0 00-.322.08.493.493 0 00-.193.232c-.04.1-.06.22-.06.36h-1.509c0-.25.049-.487.145-.71a1.68 1.68 0 01.425-.59 2.06 2.06 0 01.676-.403c.262-.097.556-.145.881-.145.387 0 .73.066 1.032.199.3.129.538.335.714.617.175.283.263.65.263 1.102v2.588c0 .326.016.591.048.795.036.204.088.38.156.527V30h-1.515a2.52 2.52 0 01-.155-.602 5.606 5.606 0 01-.049-.735zm.183-2.213l.005.902h-.553a.939.939 0 00-.376.07.723.723 0 00-.263.199.82.82 0 00-.161.29c-.032.11-.048.229-.048.354 0 .14.02.258.059.355.039.096.098.17.177.22.079.05.172.075.28.075a.867.867 0 00.429-.102.696.696 0 00.268-.247c.061-.097.081-.186.06-.269l.343.586a2.66 2.66 0 01-.177.413 1.748 1.748 0 01-.274.398 1.324 1.324 0 01-.413.3 1.349 1.349 0 01-.575.113c-.312 0-.596-.071-.854-.214a1.594 1.594 0 01-.612-.602 1.826 1.826 0 01-.22-.918c0-.294.046-.559.139-.795.097-.24.24-.443.43-.607.19-.169.43-.297.72-.387.29-.09.63-.134 1.02-.134h.596zm3.921-1.02V30h-1.51v-5.811h1.413l.097 1.24zm-.226 1.465l-.402.011a4.431 4.431 0 01.123-1.176c.093-.347.224-.643.392-.886a1.79 1.79 0 01.613-.564c.24-.133.506-.199.8-.199.225 0 .431.04.617.118.19.079.353.204.49.376.135.172.24.401.316.688.075.283.113.63.113 1.042V30h-1.51v-3.706c0-.25-.024-.444-.075-.58a.502.502 0 00-.225-.29.749.749 0 00-.376-.086.624.624 0 00-.381.123.937.937 0 00-.28.328 1.95 1.95 0 00-.166.494c-.036.19-.052.394-.049.612zm6.977 1.821V21.75h1.51V30l-1.365.005-.145-1.289zm-3.013-1.418v-.386c0-.473.04-.887.118-1.241.083-.355.204-.65.366-.886.16-.237.358-.412.59-.527.237-.118.507-.177.812-.177.275 0 .517.07.725.21a1.7 1.7 0 01.537.574c.147.247.265.54.354.876.09.336.152.705.188 1.106v.559c-.043.38-.109.734-.199 1.063-.086.33-.204.616-.354.86a1.794 1.794 0 01-.532.574c-.207.136-.45.204-.725.204-.304 0-.575-.06-.81-.182-.234-.122-.43-.301-.592-.537a2.75 2.75 0 01-.36-.881 5.548 5.548 0 01-.118-1.209zm1.504-.386v.386c0 .273.013.507.038.704.028.193.073.353.134.478a.671.671 0 00.253.274.792.792 0 00.386.086c.2 0 .364-.05.489-.15a.92.92 0 00.28-.425c.064-.183.1-.392.107-.628v-1.015a2.589 2.589 0 00-.07-.532 1.333 1.333 0 00-.167-.403.77.77 0 00-.268-.258.709.709 0 00-.365-.091c-.15 0-.28.03-.387.091a.628.628 0 00-.247.285c-.061.125-.108.288-.14.489a5.022 5.022 0 00-.043.709zm6.494 3.195c-.398 0-.75-.06-1.058-.182a2.09 2.09 0 01-.774-.527 2.354 2.354 0 01-.483-.843 3.526 3.526 0 01-.167-1.128v-.478c0-.472.054-.886.162-1.24.107-.359.26-.66.456-.903.197-.243.439-.424.725-.542.29-.122.618-.183.983-.183s.686.06.962.183c.279.118.51.297.692.537.183.236.32.53.414.88.093.352.14.76.14 1.225v.688h-3.895v-1.058h2.417V26.4c0-.236-.025-.433-.075-.59a.678.678 0 00-.236-.36.71.71 0 00-.43-.119c-.15 0-.277.031-.381.092a.628.628 0 00-.247.285 1.76 1.76 0 00-.134.504 5.4 5.4 0 00-.043.736v.478c0 .269.023.494.07.677.046.179.114.326.204.44a.809.809 0 00.338.242c.132.047.286.07.462.07.265 0 .503-.047.714-.14.215-.096.398-.227.548-.392l.602.913a2.156 2.156 0 01-.43.409 2.343 2.343 0 01-.655.332 2.748 2.748 0 01-.881.13zm4.5-8.357V30H40.71v-8.25h1.509zm5.243 3.642V30h-1.51v-5.811h1.419l.091 1.203zm-.215 1.503l-.413.011a4.681 4.681 0 01.107-1.128c.079-.343.197-.642.355-.897a1.74 1.74 0 01.606-.59c.244-.14.529-.21.854-.21.212 0 .407.04.586.118.179.075.335.195.467.36.133.161.235.372.306.634.072.258.108.567.108.93V30h-1.504v-3.695c0-.258-.025-.455-.075-.591a.519.519 0 00-.215-.29.644.644 0 00-.344-.086.619.619 0 00-.376.118.859.859 0 00-.263.333 2.12 2.12 0 00-.15.494c-.033.19-.049.394-.049.612zm2.83-.15l-.542.07c-.007-.383.027-.74.102-1.069.075-.333.192-.623.35-.87.157-.25.354-.446.59-.585.24-.14.518-.21.833-.21.236 0 .45.04.644.118.194.079.358.206.494.382.14.171.246.399.317.682.075.283.113.626.113 1.03V30h-1.51v-3.7c0-.262-.024-.463-.074-.602-.05-.14-.122-.235-.215-.285a.693.693 0 00-.333-.075.553.553 0 00-.339.107.851.851 0 00-.236.301 1.63 1.63 0 00-.145.446 2.949 2.949 0 00-.048.553zm5.613-2.556V30H54.18v-5.811h1.51zm-1.579-1.504c0-.233.074-.425.22-.575.151-.154.352-.231.602-.231.254 0 .455.077.602.23.146.151.22.343.22.576a.79.79 0 01-.226.574c-.147.15-.343.226-.59.226-.255 0-.457-.075-.607-.226a.8.8 0 01-.22-.574zm5.307 1.504v1.133h-2.965v-1.133h2.965zm-2.283-1.435h1.499v5.473c0 .162.016.285.048.371a.33.33 0 00.145.183.632.632 0 00.269.048 1.022 1.022 0 00.354-.043v1.176a2.065 2.065 0 01-.376.108 2.452 2.452 0 01-.462.037c-.3 0-.562-.057-.784-.171a1.172 1.172 0 01-.51-.548c-.122-.255-.183-.588-.183-1v-5.634zm8.47 5.962V21.75h1.51V30l-1.364.005-.145-1.289zm-3.013-1.418v-.386c0-.473.04-.887.118-1.241.083-.355.205-.65.366-.886.16-.237.358-.412.59-.527.237-.118.507-.177.812-.177.275 0 .517.07.725.21a1.7 1.7 0 01.537.574c.147.247.265.54.354.876.09.336.153.705.188 1.106v.559c-.043.38-.109.734-.198 1.063-.086.33-.205.616-.355.86a1.794 1.794 0 01-.532.574c-.207.136-.45.204-.725.204-.304 0-.575-.06-.81-.182-.234-.122-.43-.301-.592-.537a2.75 2.75 0 01-.36-.881 5.548 5.548 0 01-.118-1.209zm1.504-.386v.386c0 .273.013.507.038.704.028.193.073.353.134.478a.671.671 0 00.253.274.792.792 0 00.386.086c.2 0 .364-.05.489-.15a.92.92 0 00.28-.425c.064-.183.1-.392.107-.628v-1.015a2.589 2.589 0 00-.07-.532 1.338 1.338 0 00-.167-.403.77.77 0 00-.268-.258.71.71 0 00-.365-.091c-.15 0-.28.03-.387.091a.628.628 0 00-.247.285c-.061.125-.108.288-.14.489a5.022 5.022 0 00-.043.709zm5.731-2.723V30h-1.51v-5.811h1.51zm-1.579-1.504c0-.233.074-.425.22-.575.15-.154.351-.231.602-.231.254 0 .455.077.601.23.147.151.22.343.22.576a.79.79 0 01-.225.574c-.147.15-.344.226-.59.226-.255 0-.457-.075-.608-.226a.8.8 0 01-.22-.574zm5.113 7.422c-.397 0-.75-.06-1.058-.182a2.092 2.092 0 01-.773-.527 2.356 2.356 0 01-.484-.843 3.526 3.526 0 01-.166-1.128v-.478c0-.472.054-.886.161-1.24.108-.359.26-.66.457-.903s.438-.424.725-.542c.29-.122.617-.183.983-.183.365 0 .685.06.961.183.28.118.51.297.693.537.182.236.32.53.413.88.094.352.14.76.14 1.225v.688h-3.894v-1.058h2.417V26.4c0-.236-.025-.433-.075-.59a.678.678 0 00-.236-.36.71.71 0 00-.43-.119c-.15 0-.278.031-.382.092a.628.628 0 00-.247.285 1.76 1.76 0 00-.134.504c-.029.204-.043.45-.043.736v.478c0 .269.023.494.07.677.047.179.115.326.204.44a.81.81 0 00.338.242c.133.047.287.07.462.07.265 0 .504-.047.715-.14.215-.096.397-.227.548-.392l.601.913a2.156 2.156 0 01-.43.409 2.342 2.342 0 01-.655.332 2.747 2.747 0 01-.88.13zm5.5-1.675a.4.4 0 00-.102-.269 1.206 1.206 0 00-.322-.242 5.345 5.345 0 00-.585-.284 6.194 6.194 0 01-.704-.333 2.482 2.482 0 01-.521-.382 1.413 1.413 0 01-.317-.478 1.638 1.638 0 01-.107-.612c0-.247.044-.474.134-.682a1.64 1.64 0 01.397-.553c.172-.162.382-.287.629-.376.25-.093.532-.14.843-.14.437 0 .811.077 1.123.231.315.15.556.362.725.634.168.272.252.589.252.95H78.8a.935.935 0 00-.059-.343.481.481 0 00-.193-.242.622.622 0 00-.35-.086.556.556 0 00-.489.258.5.5 0 00-.069.268.44.44 0 00.049.21c.035.06.09.12.166.177.075.057.175.118.3.183.13.06.287.129.473.204.387.143.704.297.951.462.25.165.437.358.559.58.121.218.182.489.182.81 0 .259-.05.493-.15.704a1.532 1.532 0 01-.424.548c-.187.154-.41.272-.672.355a2.835 2.835 0 01-.864.123c-.47 0-.865-.093-1.188-.279a1.92 1.92 0 01-.73-.714 1.843 1.843 0 01-.247-.913h1.429a.985.985 0 00.107.456c.068.108.16.183.274.226.115.043.242.064.381.064.14 0 .255-.018.344-.053a.429.429 0 00.21-.178.569.569 0 00.07-.284zm4.76 1.675c-.398 0-.751-.06-1.059-.182a2.092 2.092 0 01-.773-.527 2.356 2.356 0 01-.484-.843 3.526 3.526 0 01-.166-1.128v-.478c0-.472.053-.886.16-1.24.108-.359.26-.66.457-.903s.439-.424.725-.542c.29-.122.618-.183.983-.183.366 0 .686.06.962.183.28.118.51.297.693.537.182.236.32.53.413.88.093.352.14.76.14 1.225v.688h-3.894v-1.058h2.417V26.4c0-.236-.025-.433-.075-.59a.679.679 0 00-.237-.36.71.71 0 00-.43-.119c-.15 0-.277.031-.38.092a.629.629 0 00-.248.285c-.06.128-.105.297-.134.504-.029.204-.043.45-.043.736v.478c0 .269.023.494.07.677.046.179.114.326.204.44a.81.81 0 00.338.242c.133.047.287.07.462.07.265 0 .503-.047.715-.14.214-.096.397-.227.547-.392l.602.913a2.16 2.16 0 01-.43.409 2.342 2.342 0 01-.655.332 2.747 2.747 0 01-.88.13zm4.436-4.715V30h-1.51v-5.811h1.418l.092 1.203zm-.215 1.503l-.414.011a4.676 4.676 0 01.108-1.128c.078-.343.197-.642.354-.897a1.74 1.74 0 01.607-.59c.244-.14.528-.21.854-.21.211 0 .406.04.586.118.179.075.334.195.467.36.132.161.234.372.306.634.072.258.107.567.107.93V30h-1.504v-3.695c0-.258-.025-.455-.075-.591a.519.519 0 00-.215-.29.644.644 0 00-.343-.086.618.618 0 00-.376.118.857.857 0 00-.263.333c-.065.14-.115.304-.15.494-.033.19-.05.394-.05.612zm2.83-.15l-.542.07c-.007-.383.027-.74.102-1.069.075-.333.191-.623.35-.87.157-.25.354-.446.59-.585.24-.14.517-.21.832-.21.237 0 .452.04.645.118.193.079.358.206.494.382.14.171.245.399.317.682.075.283.113.626.113 1.03V30h-1.51v-3.7c0-.262-.025-.463-.075-.602-.05-.14-.121-.235-.215-.285a.693.693 0 00-.332-.075.553.553 0 00-.339.107.85.85 0 00-.236.301 1.627 1.627 0 00-.145.446 2.94 2.94 0 00-.049.553zm9.475-3.169L98.464 30h-1.66l2.444-7.82h1.037l-.14 1.396zM101.472 30l-1.692-6.424-.156-1.396h1.053l2.465 7.82h-1.67zm.059-2.916v1.305h-3.529v-1.305h3.529zm3.502-1.655V30h-1.51v-5.811h1.413l.097 1.24zm-.226 1.466l-.403.011a4.414 4.414 0 01.124-1.176c.093-.347.224-.643.392-.886.172-.247.376-.435.612-.564a1.63 1.63 0 01.801-.199c.225 0 .431.04.617.118.19.079.353.204.489.376.136.172.242.401.317.688.075.283.113.63.113 1.042V30h-1.51v-3.706c0-.25-.025-.444-.075-.58a.502.502 0 00-.225-.29.752.752 0 00-.376-.086.624.624 0 00-.382.123.934.934 0 00-.279.328c-.072.14-.127.304-.167.494-.035.19-.051.394-.048.612zm4.168-5.145h1.499v6.902L110.366 30h-1.391v-8.25zm4.517 5.15v.382a5.9 5.9 0 01-.113 1.236c-.071.35-.184.644-.338.88-.15.237-.344.414-.58.532a1.854 1.854 0 01-.838.177c-.29 0-.539-.068-.747-.204a1.744 1.744 0 01-.526-.574 3.761 3.761 0 01-.344-.865 7.331 7.331 0 01-.188-1.09v-.564c.036-.387.097-.747.183-1.08.089-.333.204-.621.344-.865.139-.247.313-.438.521-.574.211-.14.46-.21.746-.21.33 0 .613.06.849.183.236.118.43.295.58.531.154.237.267.532.338.887.076.35.113.757.113 1.219zm-1.498.382v-.381c0-.269-.011-.5-.033-.693a1.61 1.61 0 00-.118-.483.614.614 0 00-.247-.29.777.777 0 00-.413-.097.755.755 0 00-.387.091.772.772 0 00-.269.258 1.268 1.268 0 00-.161.397 2.69 2.69 0 00-.054.5v1.015c.004.247.035.466.092.655a.88.88 0 00.274.44c.129.105.301.157.515.157a.844.844 0 00.409-.086.572.572 0 00.241-.274c.061-.126.101-.287.118-.484.022-.2.033-.442.033-.725zm4.001-3.093V30h-1.509v-5.811h1.509zm-1.579-1.504c0-.233.073-.425.22-.575.151-.154.351-.231.602-.231.254 0 .455.077.601.23.147.151.221.343.221.576 0 .229-.076.42-.226.574-.147.15-.344.226-.591.226-.254 0-.456-.075-.607-.226a.8.8 0 01-.22-.574zm5.113 7.422c-.397 0-.75-.06-1.058-.182a2.09 2.09 0 01-.773-.527 2.345 2.345 0 01-.484-.843 3.527 3.527 0 01-.166-1.128v-.478c0-.472.054-.886.161-1.24a2.6 2.6 0 01.457-.903c.196-.243.438-.424.725-.542.29-.122.617-.183.983-.183.365 0 .685.06.961.183.279.118.51.297.693.537.182.236.32.53.413.88.094.352.14.76.14 1.225v.688h-3.894v-1.058h2.417V26.4c0-.236-.025-.433-.075-.59a.675.675 0 00-.237-.36.708.708 0 00-.429-.119.745.745 0 00-.382.092.634.634 0 00-.247.285c-.06.128-.105.297-.134.504-.029.204-.043.45-.043.736v.478c0 .269.023.494.07.677.047.179.115.326.204.44a.81.81 0 00.338.242c.133.047.287.07.462.07.265 0 .503-.047.715-.14.215-.096.397-.227.548-.392l.601.913a2.336 2.336 0 01-1.085.741 2.747 2.747 0 01-.881.13zm5.457-5.918v1.133h-2.965v-1.133h2.965zm-2.282-1.435h1.498v5.473c0 .162.016.285.048.371a.333.333 0 00.146.183.63.63 0 00.268.048c.075 0 .145-.003.21-.01.064-.011.112-.022.145-.033v1.176a2.098 2.098 0 01-.376.108 2.454 2.454 0 01-.462.037 1.69 1.69 0 01-.785-.171 1.175 1.175 0 01-.51-.548c-.122-.255-.182-.588-.182-1v-5.634zm5.462 7.353c-.397 0-.75-.06-1.058-.182a2.103 2.103 0 01-.774-.527 2.358 2.358 0 01-.483-.843 3.527 3.527 0 01-.166-1.128v-.478c0-.472.053-.886.161-1.24a2.6 2.6 0 01.456-.903c.197-.243.439-.424.725-.542.29-.122.618-.183.983-.183s.686.06.962.183c.279.118.51.297.693.537.182.236.32.53.413.88.093.352.14.76.14 1.225v.688h-3.894v-1.058h2.417V26.4c0-.236-.025-.433-.075-.59a.681.681 0 00-.237-.36.708.708 0 00-.429-.119.745.745 0 00-.382.092.628.628 0 00-.247.285 1.739 1.739 0 00-.134.504c-.029.204-.043.45-.043.736v.478c0 .269.023.494.07.677.046.179.114.326.204.44a.81.81 0 00.338.242c.133.047.287.07.462.07a1.642 1.642 0 001.262-.532l.602.913a2.336 2.336 0 01-1.085.741 2.747 2.747 0 01-.881.13zm4.426-4.624V30h-1.504v-5.811h1.418l.086 1.294zm1.369-1.338l-.021 1.499a1.905 1.905 0 00-.247-.032 3.304 3.304 0 00-.247-.01c-.168 0-.312.026-.43.08a.712.712 0 00-.295.23 1.07 1.07 0 00-.172.377c-.04.15-.063.32-.07.51l-.285-.108c0-.38.029-.726.086-1.042.061-.318.151-.594.269-.827.118-.236.259-.419.424-.548a.911.911 0 01.569-.193c.072 0 .147.007.226.021.082.011.147.026.193.043zm-.032 5.087a.8.8 0 01.237-.59c.157-.162.37-.243.639-.243.268 0 .481.081.639.242a.804.804 0 01.236.59.804.804 0 01-.236.592c-.158.157-.371.236-.639.236-.269 0-.482-.079-.639-.236a.8.8 0 01-.237-.591zm9.314-1.209c0-.39-.106-.689-.317-.896-.211-.208-.593-.41-1.144-.607-.552-.197-.974-.403-1.268-.618a2.272 2.272 0 01-.655-.741 2.068 2.068 0 01-.215-.956c0-.62.206-1.13.618-1.531.415-.401.958-.602 1.627-.602.458 0 .867.104 1.225.312.358.204.634.489.827.854.193.365.29.766.29 1.203h-.988c0-.483-.117-.858-.349-1.123-.233-.265-.568-.397-1.005-.397-.397 0-.705.11-.924.333-.218.222-.327.533-.327.934 0 .33.118.606.354.828.237.222.602.42 1.096.596.77.254 1.319.567 1.649.94.333.372.499.86.499 1.46 0 .634-.206 1.143-.617 1.526-.412.38-.973.57-1.681.57-.455 0-.876-.099-1.263-.296a2.3 2.3 0 01-.907-.838 2.347 2.347 0 01-.328-1.24h.988c0 .483.134.859.403 1.127.272.269.641.403 1.107.403.433 0 .759-.11.977-.333.218-.222.328-.524.328-.908zM146.422 30h-.95v-5.811h.95V30zm.076-7.353a.606.606 0 01-.135.403c-.089.107-.225.16-.408.16-.179 0-.313-.053-.403-.16a.61.61 0 01-.134-.403c0-.161.045-.297.134-.408.09-.111.224-.167.403-.167.179 0 .313.058.403.172.093.111.14.245.14.403zm3.502 7.46c-.724 0-1.279-.214-1.666-.644-.386-.433-.583-1.067-.59-1.902v-.703c0-.867.188-1.545.564-2.036.379-.494.907-.74 1.584-.74.68 0 1.189.216 1.525.649.337.433.509 1.108.516 2.025v.623h-3.244v.134c0 .623.116 1.076.349 1.36.236.282.575.423 1.015.423.28 0 .525-.052.736-.155.215-.108.415-.276.602-.505l.494.601c-.412.58-1.04.87-1.885.87zm-.108-5.21c-.394 0-.686.137-.875.409-.19.268-.298.687-.323 1.256h2.288v-.128c-.025-.552-.125-.946-.3-1.182-.172-.236-.435-.354-.79-.354zm8.535 3.615a.702.702 0 00-.231-.526c-.154-.147-.451-.319-.892-.516-.512-.211-.873-.392-1.085-.542a1.57 1.57 0 01-.467-.51 1.431 1.431 0 01-.156-.688c0-.473.172-.865.516-1.176.347-.315.789-.473 1.326-.473.566 0 1.021.165 1.365.494.343.33.515.752.515 1.268h-.945a.927.927 0 00-.263-.666.883.883 0 00-.672-.28c-.279 0-.499.074-.66.22-.158.144-.236.337-.236.58 0 .194.057.35.171.468.119.118.4.274.844.467.705.276 1.185.546 1.439.811.254.262.381.595.381 1 0 .504-.173.909-.521 1.213-.347.301-.812.451-1.396.451-.605 0-1.096-.173-1.472-.52-.376-.348-.564-.788-.564-1.322h.956c.011.322.11.575.296.758.186.182.447.273.784.273.315 0 .555-.07.72-.21a.726.726 0 00.247-.574zm1.992-1.686c0-.845.205-1.513.613-2.004.412-.494.954-.74 1.627-.74s1.214.239 1.622.719c.412.48.623 1.133.634 1.96v.613c0 .841-.204 1.507-.612 1.998-.408.49-.953.735-1.633.735-.673 0-1.214-.238-1.622-.714-.405-.476-.614-1.12-.629-1.934v-.633zm.951.547c0 .598.116 1.07.349 1.413.237.34.553.51.951.51.838 0 1.269-.605 1.294-1.815v-.655c0-.595-.118-1.064-.354-1.407-.236-.348-.553-.521-.951-.521-.39 0-.703.173-.94.52-.233.344-.349.812-.349 1.402v.553zM167.166 30h-.951v-8.25h.951V30zm2.524 0h-.951v-8.25h.951V30zm2.745-7.219v1.408h.875v.767h-.875v3.605c0 .229.037.402.112.52.076.119.204.178.387.178.125 0 .253-.022.381-.065l-.01.806a2.077 2.077 0 01-.661.107c-.376 0-.662-.134-.859-.402-.197-.269-.296-.648-.296-1.14v-3.609h-.886v-.767h.886V22.78h.946zm4.087 7.326c-.723 0-1.278-.214-1.665-.644-.387-.433-.584-1.067-.591-1.902v-.703c0-.867.188-1.545.564-2.036.38-.494.908-.74 1.585-.74.68 0 1.188.216 1.525.649.337.433.508 1.108.516 2.025v.623h-3.245v.134c0 .623.117 1.076.35 1.36.236.282.574.423 1.015.423.279 0 .524-.052.736-.155.214-.108.415-.276.601-.505l.494.601c-.412.58-1.04.87-1.885.87zm-.107-5.21c-.394 0-.686.137-.876.409-.19.268-.297.687-.322 1.256h2.288v-.128c-.025-.552-.125-.946-.301-1.182-.172-.236-.435-.354-.789-.354zm4.082-.708l.026.628c.369-.49.84-.736 1.413-.736 1.028 0 1.549.686 1.563 2.057V30h-.945v-3.819c0-.455-.077-.777-.231-.967-.151-.193-.378-.29-.682-.29a.976.976 0 00-.64.237 1.725 1.725 0 00-.451.617V30h-.95v-5.811h.897zm9.92 5.3c-.315.412-.775.618-1.38.618-.527 0-.924-.18-1.193-.542-.268-.365-.404-.895-.408-1.59v-3.787h.945v3.717c0 .906.272 1.36.817 1.36.576 0 .974-.259 1.192-.774v-4.302h.951V30h-.903l-.021-.51zm-2.75-6.853c0-.16.048-.295.145-.403.1-.11.247-.166.44-.166.194 0 .341.055.441.166.1.108.15.242.15.403 0 .161-.05.296-.15.403-.1.107-.247.161-.441.161-.193 0-.34-.053-.44-.16a.578.578 0 01-.145-.404zm2.31.011c0-.161.048-.297.145-.408.1-.111.247-.167.44-.167s.34.056.44.167a.584.584 0 01.151.408c0 .161-.05.295-.151.403-.1.107-.247.16-.44.16s-.34-.053-.44-.16a.578.578 0 01-.145-.403zm7.003 4.727c0 .905-.162 1.588-.488 2.046-.326.458-.799.687-1.418.687-.616 0-1.078-.265-1.386-.794l-.048.687h-.865v-8.25h.945v3.078c.312-.498.759-.747 1.343-.747.637 0 1.115.226 1.434.677.319.451.48 1.131.483 2.04v.576zm-.945-.543c0-.687-.097-1.176-.29-1.466-.19-.294-.499-.44-.929-.44-.491 0-.856.264-1.096.794v2.766c.237.523.605.785 1.107.785.429 0 .737-.15.923-.452.187-.3.282-.768.285-1.402v-.585zm4.238 3.276c-.723 0-1.278-.214-1.665-.644-.387-.433-.584-1.067-.591-1.902v-.703c0-.867.188-1.545.564-2.036.38-.494.908-.74 1.585-.74.68 0 1.188.216 1.525.649.337.433.508 1.108.516 2.025v.623h-3.245v.134c0 .623.117 1.076.35 1.36.236.282.574.423 1.015.423.279 0 .524-.052.735-.155.215-.108.416-.276.602-.505l.494.601c-.412.58-1.04.87-1.885.87zm-.107-5.21c-.394 0-.686.137-.876.409-.19.268-.297.687-.322 1.256h2.288v-.128c-.025-.552-.125-.946-.301-1.182-.172-.236-.435-.354-.789-.354zm5.585.183a2.298 2.298 0 00-.429-.037c-.487 0-.827.266-1.021.8V30h-.95v-5.811h.923l.017.59c.254-.465.614-.698 1.079-.698.151 0 .276.025.376.075l.005.924zm1.977 4.92h-.951v-8.25h.951V30zm3.577.107c-.723 0-1.278-.214-1.665-.644-.387-.433-.584-1.067-.591-1.902v-.703c0-.867.188-1.545.564-2.036.38-.494.908-.74 1.585-.74.68 0 1.189.216 1.525.649.337.433.509 1.108.516 2.025v.623h-3.244v.134c0 .623.116 1.076.349 1.36.236.282.574.423 1.015.423.279 0 .524-.052.736-.155.215-.108.415-.276.601-.505l.494.601c-.411.58-1.04.87-1.885.87zm-.107-5.21c-.394 0-.686.137-.876.409-.19.268-.297.687-.322 1.256h2.288v-.128c-.025-.552-.125-.946-.301-1.182-.172-.236-.435-.354-.789-.354zm2.997 1.934c0-.906.165-1.59.494-2.052.329-.465.811-.698 1.445-.698.591 0 1.04.253 1.348.757l.048-.65h.86v5.866c0 .72-.185 1.27-.554 1.654-.368.387-.882.58-1.541.58-.287 0-.609-.071-.967-.215-.354-.14-.621-.313-.8-.52l.387-.656c.393.387.828.58 1.305.58.791 0 1.197-.431 1.219-1.294v-.758c-.308.455-.745.682-1.311.682-.601 0-1.07-.225-1.407-.676-.336-.455-.512-1.107-.526-1.955v-.645zm.951.543c0 .651.094 1.131.284 1.439.194.304.509.457.945.457.473 0 .828-.242 1.064-.726V25.64c-.247-.477-.598-.715-1.053-.715-.437 0-.752.154-.945.462-.193.305-.292.774-.295 1.408v.58zm6.74 2.733c-.723 0-1.278-.214-1.665-.644-.387-.433-.583-1.067-.591-1.902v-.703c0-.867.188-1.545.564-2.036.38-.494.908-.74 1.585-.74.68 0 1.189.216 1.525.649.337.433.509 1.108.516 2.025v.623h-3.244v.134c0 .623.116 1.076.349 1.36.236.282.575.423 1.015.423.279 0 .525-.052.736-.155.215-.108.415-.276.601-.505l.494.601c-.411.58-1.04.87-1.885.87zm-.107-5.21c-.394 0-.686.137-.876.409-.189.268-.297.687-.322 1.256h2.288v-.128c-.025-.552-.125-.946-.301-1.182-.172-.236-.435-.354-.789-.354zm4.082-.708l.027.628c.369-.49.839-.736 1.412-.736 1.028 0 1.549.686 1.563 2.057V30h-.945v-3.819c0-.455-.077-.777-.231-.967-.15-.193-.378-.29-.682-.29a.976.976 0 00-.639.237 1.713 1.713 0 00-.451.617V30h-.951v-5.811h.897zm4.442 7.369l-.564-.387c.336-.47.512-.953.526-1.45v-.897h.972v.778c0 .362-.089.724-.268 1.085a2.525 2.525 0 01-.666.87zm4.474-4.732c0-.845.204-1.513.612-2.004.412-.494.954-.74 1.628-.74.673 0 1.213.239 1.622.719.411.48.623 1.133.633 1.96v.613c0 .841-.204 1.507-.612 1.998-.408.49-.952.735-1.633.735-.673 0-1.214-.238-1.622-.714-.404-.476-.614-1.12-.628-1.934v-.633zm.951.547c0 .598.116 1.07.349 1.413.236.34.553.51.95.51.838 0 1.27-.605 1.295-1.815v-.655c0-.595-.118-1.064-.355-1.407-.236-.348-.553-.521-.95-.521-.391 0-.704.173-.94.52-.233.344-.349.812-.349 1.402v.553zm8.98 0c0 .906-.163 1.589-.489 2.047-.326.458-.798.687-1.418.687-.616 0-1.078-.265-1.385-.794l-.049.687h-.865v-8.25h.946v3.078c.311-.498.759-.747 1.343-.747.637 0 1.115.226 1.434.677.318.451.479 1.131.483 2.04v.576zm-.945-.542c0-.687-.097-1.176-.29-1.466-.19-.294-.5-.44-.93-.44-.49 0-.855.264-1.095.794v2.766c.236.523.605.785 1.106.785.43 0 .738-.15.924-.452.186-.3.281-.768.285-1.402v-.585zm8.234 1.192c0-.39-.106-.689-.317-.896-.212-.208-.593-.41-1.144-.607-.552-.197-.974-.403-1.268-.618a2.272 2.272 0 01-.655-.741 2.068 2.068 0 01-.215-.956c0-.62.206-1.13.618-1.531.415-.401.957-.602 1.627-.602.458 0 .867.104 1.225.312.358.204.633.489.827.854.193.365.29.766.29 1.203h-.988c0-.483-.117-.858-.35-1.123-.232-.265-.567-.397-1.004-.397-.397 0-.705.11-.924.333-.218.222-.327.533-.327.934 0 .33.118.606.354.828.236.222.602.42 1.096.596.77.254 1.319.567 1.649.94.333.372.499.86.499 1.46 0 .634-.206 1.143-.617 1.526-.412.38-.973.57-1.682.57-.454 0-.875-.099-1.262-.296-.383-.2-.686-.48-.908-.838a2.356 2.356 0 01-.327-1.24h.988c0 .483.134.859.403 1.127.272.269.641.403 1.106.403.434 0 .76-.11.978-.333.218-.222.328-.524.328-.908zM255.176 30h-.95v-5.811h.95V30zm.075-7.353a.605.605 0 01-.134.403c-.089.107-.225.16-.408.16-.179 0-.313-.053-.403-.16a.61.61 0 01-.134-.403c0-.161.045-.297.134-.408.09-.111.224-.167.403-.167.179 0 .313.058.403.172a.606.606 0 01.139.403zm3.502 7.46c-.723 0-1.278-.214-1.665-.644-.386-.433-.583-1.067-.59-1.902v-.703c0-.867.188-1.545.564-2.036.379-.494.907-.74 1.584-.74.68 0 1.189.216 1.525.649.337.433.509 1.108.516 2.025v.623h-3.244v.134c0 .623.116 1.076.349 1.36.236.282.575.423 1.015.423.279 0 .525-.052.736-.155.215-.108.415-.276.602-.505l.494.601c-.412.58-1.041.87-1.886.87zm-.107-5.21c-.394 0-.686.137-.875.409-.19.268-.298.687-.323 1.256h2.288v-.128c-.025-.552-.125-.946-.3-1.182-.172-.236-.436-.354-.79-.354zM14.358 40.556l1.101-4.367h.967L14.702 42h-.71l-1.745-5.812h.967l1.144 4.367zm5.135 1.552c-.724 0-1.279-.214-1.665-.644-.387-.433-.584-1.067-.591-1.901v-.704c0-.867.188-1.545.564-2.036.38-.494.908-.74 1.584-.74.68 0 1.19.216 1.526.649.336.433.508 1.108.515 2.025v.623h-3.244v.134c0 .623.117 1.076.35 1.36.236.282.574.423 1.014.423.28 0 .525-.051.736-.155.215-.108.416-.276.602-.505l.494.601c-.412.58-1.04.87-1.885.87zm-.108-5.21c-.394 0-.686.136-.875.409-.19.268-.297.687-.323 1.257h2.289v-.13c-.025-.55-.126-.945-.301-1.181-.172-.236-.435-.355-.79-.355zm5.586.183a2.31 2.31 0 00-.43-.038c-.486 0-.827.267-1.02.8V42h-.95v-5.812h.923l.016.591c.255-.465.614-.698 1.08-.698.15 0 .276.025.376.075l.005.924zm3.776 3.432a.702.702 0 00-.23-.526c-.155-.147-.452-.319-.892-.516-.512-.211-.874-.392-1.085-.542a1.562 1.562 0 01-.468-.51 1.432 1.432 0 01-.155-.688c0-.473.171-.865.515-1.176.348-.315.79-.473 1.327-.473.566 0 1.02.165 1.364.494.344.33.516.752.516 1.268h-.946a.926.926 0 00-.263-.666.882.882 0 00-.671-.28c-.28 0-.5.074-.66.22-.158.144-.237.337-.237.58 0 .194.057.35.172.468.118.118.399.274.843.467.705.276 1.185.546 1.44.811.254.262.38.595.38 1 0 .504-.173.909-.52 1.213-.348.301-.813.451-1.397.451-.605 0-1.095-.173-1.471-.52-.376-.348-.564-.788-.564-1.322h.956c.01.322.109.575.295.758.186.182.448.273.784.273.315 0 .555-.07.72-.21a.723.723 0 00.247-.574zm3.438-5.73v1.407h.875v.767h-.875v3.604c0 .23.037.403.112.521.076.119.205.178.387.178a1.2 1.2 0 00.381-.065l-.01.806a2.077 2.077 0 01-.661.107c-.376 0-.662-.134-.86-.402-.196-.269-.295-.648-.295-1.14v-3.608h-.886v-.769h.886v-1.407h.946zm4.087 7.325c-.723 0-1.278-.214-1.665-.644-.387-.433-.584-1.067-.59-1.901v-.704c0-.867.187-1.545.563-2.036.38-.494.908-.74 1.585-.74.68 0 1.188.216 1.525.649.337.433.508 1.108.516 2.025v.623H34.96v.134c0 .623.117 1.076.35 1.36.236.282.574.423 1.015.423.279 0 .524-.051.736-.155.214-.108.415-.276.601-.505l.494.601c-.412.58-1.04.87-1.885.87zm-.107-5.21c-.394 0-.686.136-.876.409-.19.268-.297.687-.322 1.257h2.288v-.13c-.025-.55-.125-.945-.3-1.181-.173-.236-.436-.355-.79-.355zm4.135-.112c.362-.47.824-.704 1.386-.704 1.028 0 1.549.686 1.563 2.057V42h-.945v-3.819c0-.455-.077-.777-.231-.967-.15-.193-.378-.29-.682-.29a.975.975 0 00-.64.237 1.719 1.719 0 00-.45.617V42h-.951v-8.25h.95v3.035zm6.446 5.322c-.724 0-1.279-.214-1.665-.644-.387-.433-.584-1.067-.591-1.901v-.704c0-.867.188-1.545.564-2.036.38-.494.907-.74 1.584-.74.68 0 1.189.216 1.526.649.336.433.508 1.108.515 2.025v.623h-3.244v.134c0 .623.116 1.076.35 1.36.236.282.574.423 1.014.423.28 0 .525-.051.736-.155.215-.108.416-.276.602-.505l.494.601c-.412.58-1.04.87-1.885.87zm-.108-5.21c-.394 0-.685.136-.875.409-.19.268-.297.687-.323 1.257h2.288v-.13c-.025-.55-.125-.945-.3-1.181-.172-.236-.435-.355-.79-.355zm4.082-.709l.027.629c.369-.49.84-.736 1.413-.736 1.027 0 1.548.686 1.563 2.057V42h-.946v-3.819c0-.455-.077-.777-.23-.967-.151-.193-.378-.29-.683-.29a.975.975 0 00-.639.237 1.719 1.719 0 00-.451.617V42h-.95v-5.812h.896zm4.442 7.37l-.564-.387c.337-.47.512-.953.526-1.45v-.897h.973v.779c0 .361-.09.723-.269 1.084a2.51 2.51 0 01-.666.87zm9.007-3.228l.881-4.142h.94L64.567 42h-.757l-1.134-4.157L61.57 42h-.763l-1.413-5.812h.935l.902 4.04 1.08-4.04h.752l1.106 4.142zM68.015 42h-.95v-5.812h.95V42zm.075-7.353a.608.608 0 01-.134.403c-.09.107-.225.16-.408.16-.18 0-.314-.053-.403-.16a.608.608 0 01-.134-.403.63.63 0 01.134-.408c.09-.111.224-.167.403-.167.179 0 .313.058.403.172.093.111.14.245.14.403zm3.502 7.46c-.723 0-1.278-.214-1.665-.644-.387-.433-.583-1.067-.59-1.901v-.704c0-.867.187-1.545.563-2.036.38-.494.908-.74 1.585-.74.68 0 1.189.216 1.525.649.337.433.509 1.108.516 2.025v.623h-3.244v.134c0 .623.116 1.076.349 1.36.236.282.575.423 1.015.423.28 0 .525-.051.736-.155.215-.108.415-.276.601-.505l.495.601c-.412.58-1.04.87-1.886.87zm-.107-5.21c-.394 0-.686.136-.876.409-.19.268-.297.687-.322 1.257h2.288v-.13c-.025-.55-.125-.945-.3-1.181-.172-.236-.436-.355-.79-.355zm10.747 2.622c-.043.837-.279 1.478-.709 1.922-.426.444-1.029.666-1.81.666-.784 0-1.407-.297-1.869-.891-.462-.598-.693-1.407-.693-2.428V37.37c0-1.017.237-1.82.71-2.411.476-.591 1.124-.887 1.944-.887.755 0 1.339.228 1.75.682.416.452.642 1.098.677 1.94h-.993c-.043-.638-.178-1.093-.403-1.365-.226-.272-.57-.408-1.031-.408-.534 0-.944.21-1.23.628-.287.416-.43 1.026-.43 1.832v1.434c0 .791.133 1.398.398 1.82.268.423.658.635 1.17.635.512 0 .881-.128 1.107-.382.225-.254.365-.71.419-1.37h.993zm4.963-.973h-2.642V42h-.983v-7.82h4.071v.848h-3.088v2.675h2.642v.843zM88.855 42v-7.82h1.864c.913 0 1.622.286 2.127.86.505.568.757 1.37.757 2.405v1.31c0 1.036-.256 1.836-.768 2.402-.512.562-1.255.843-2.229.843h-1.751zm.983-6.972v6.129h.79c.69 0 1.195-.197 1.514-.591.319-.398.482-.985.489-1.762v-1.386c0-.823-.16-1.426-.478-1.81-.315-.386-.793-.58-1.434-.58h-.881zm7.992 5.484a.702.702 0 00-.23-.526c-.155-.147-.452-.319-.892-.516-.513-.211-.874-.392-1.085-.542a1.562 1.562 0 01-.468-.51A1.432 1.432 0 0195 37.73c0-.473.172-.865.516-1.176.347-.315.79-.473 1.327-.473.566 0 1.02.165 1.364.494.344.33.516.752.516 1.268h-.946a.926.926 0 00-.263-.666.882.882 0 00-.671-.28c-.28 0-.5.074-.66.22-.158.144-.237.337-.237.58 0 .194.057.35.172.468.118.118.399.274.843.467.705.276 1.185.546 1.44.811.254.262.38.595.38 1 0 .504-.173.909-.52 1.213-.348.301-.813.451-1.397.451-.605 0-1.095-.173-1.471-.52-.376-.348-.564-.788-.564-1.322h.956c.01.322.109.575.295.758.186.182.448.273.784.273.315 0 .555-.07.72-.21a.723.723 0 00.247-.574zM102.965 42v-5.044h-.757v-.768h.757v-.67c.011-.592.159-1.052.446-1.381.29-.333.698-.5 1.224-.5.19 0 .382.03.575.091l-.048.806a1.884 1.884 0 00-.435-.048c-.541 0-.811.385-.811 1.155v.547h.993v.768h-.993V42h-.951zm6.026-.51c-.315.411-.775.617-1.38.617-.527 0-.924-.18-1.193-.542-.268-.365-.404-.895-.408-1.59v-3.787h.946v3.717c0 .906.272 1.36.816 1.36.576 0 .974-.259 1.192-.774v-4.303h.951V42h-.902l-.022-.51zm3.25-5.302l.027.629c.368-.49.839-.736 1.412-.736 1.028 0 1.549.686 1.563 2.057V42h-.945v-3.819c0-.455-.077-.777-.231-.967-.15-.193-.378-.29-.682-.29a.972.972 0 00-.639.237 1.716 1.716 0 00-.452.617V42h-.95v-5.812h.897zm5.892 3.153l-.505.58V42h-.951v-8.25h.951v4.936l1.81-2.498h1.139l-1.848 2.428L120.818 42h-1.106l-1.579-2.659zm4.748-4.56v1.407h.875v.768h-.875v3.604c0 .23.037.403.113.521.075.119.204.178.386.178.126 0 .253-.022.382-.065l-.011.806a2.077 2.077 0 01-.661.107c-.376 0-.662-.134-.859-.402-.197-.269-.295-.648-.295-1.14v-3.608h-.887v-.769h.887v-1.407h.945zM125.916 42h-.951v-5.812h.951V42zm.075-7.353a.606.606 0 01-.135.403c-.089.107-.225.16-.408.16-.179 0-.313-.053-.403-.16a.61.61 0 01-.134-.403c0-.161.045-.297.134-.408.09-.111.224-.167.403-.167.179 0 .314.058.403.172.093.111.14.245.14.403zm1.224 4.179c0-.845.204-1.513.613-2.004.411-.494.954-.74 1.627-.74s1.214.239 1.622.719c.412.48.623 1.133.634 1.96v.612c0 .842-.204 1.508-.612 1.999-.409.49-.953.735-1.633.735-.673 0-1.214-.238-1.622-.714-.405-.476-.614-1.12-.629-1.934v-.633zm.951.547c0 .599.116 1.07.349 1.413.236.34.553.51.951.51.838 0 1.269-.605 1.294-1.815v-.655c0-.595-.118-1.064-.354-1.407-.237-.348-.553-.521-.951-.521-.39 0-.704.173-.94.52-.233.344-.349.812-.349 1.402v.553zm5.667-3.184l.026.628c.369-.49.84-.736 1.413-.736 1.028 0 1.549.686 1.563 2.057V42h-.945v-3.819c0-.455-.077-.777-.231-.967-.151-.193-.378-.29-.682-.29a.976.976 0 00-.64.237 1.725 1.725 0 00-.451.617V42h-.95v-5.812h.897zM139.29 42h-.951v-5.812h.951V42zm.075-7.353a.606.606 0 01-.135.403c-.089.107-.225.16-.408.16-.179 0-.313-.053-.403-.16a.61.61 0 01-.134-.403c0-.161.045-.297.134-.408.09-.111.224-.167.403-.167.179 0 .314.058.403.172.093.111.14.245.14.403zm3.502 7.46c-.724 0-1.279-.214-1.665-.644-.387-.433-.584-1.067-.591-1.901v-.704c0-.867.188-1.545.564-2.036.379-.494.908-.74 1.584-.74.681 0 1.189.216 1.526.649.336.433.508 1.108.515 2.025v.623h-3.244v.134c0 .623.117 1.076.349 1.36.237.282.575.423 1.015.423.28 0 .525-.051.736-.155.215-.108.416-.276.602-.505l.494.601c-.412.58-1.04.87-1.885.87zm-.108-5.21c-.394 0-.685.136-.875.409-.19.268-.297.687-.322 1.257h2.288v-.13c-.025-.55-.126-.945-.301-1.181-.172-.236-.435-.355-.79-.355zm5.586.183a2.306 2.306 0 00-.429-.038c-.487 0-.828.267-1.021.8V42h-.951v-5.812h.924l.016.591c.255-.465.614-.698 1.08-.698.15 0 .276.025.376.075l.005.924zm3.03 5.027c-.724 0-1.279-.214-1.666-.644-.386-.433-.583-1.067-.59-1.901v-.704c0-.867.188-1.545.564-2.036.379-.494.907-.74 1.584-.74.68 0 1.189.216 1.525.649.337.433.509 1.108.516 2.025v.623h-3.244v.134c0 .623.116 1.076.349 1.36.236.282.575.423 1.015.423.28 0 .525-.051.736-.155.215-.108.415-.276.602-.505l.494.601c-.412.58-1.04.87-1.885.87zm-.108-5.21c-.394 0-.686.136-.875.409-.19.268-.298.687-.323 1.257h2.288v-.13c-.025-.55-.125-.945-.3-1.181-.172-.236-.435-.355-.79-.355zm4.082-.709l.027.629c.369-.49.84-.736 1.413-.736 1.027 0 1.548.686 1.563 2.057V42h-.946v-3.819c0-.455-.077-.777-.231-.967-.15-.193-.377-.29-.682-.29a.976.976 0 00-.639.237 1.713 1.713 0 00-.451.617V42h-.951v-5.812h.897zm4.442 7.37l-.564-.387c.337-.47.512-.953.526-1.45v-.897h.973v.779c0 .361-.09.723-.269 1.084a2.501 2.501 0 01-.666.87zm7.638-2.068c-.315.411-.776.617-1.381.617-.526 0-.923-.18-1.192-.542-.269-.365-.405-.895-.408-1.59v-3.787h.945v3.717c0 .906.272 1.36.816 1.36.577 0 .974-.259 1.193-.774v-4.303h.951V42h-.903l-.021-.51zm3.249-5.302l.027.629c.369-.49.84-.736 1.413-.736 1.027 0 1.548.686 1.563 2.057V42h-.946v-3.819c0-.455-.077-.777-.231-.967-.15-.193-.377-.29-.682-.29a.976.976 0 00-.639.237 1.725 1.725 0 00-.451.617V42h-.951v-5.812h.897zm4.233 2.643c0-.895.166-1.577.499-2.046.337-.47.818-.704 1.445-.704.555 0 .988.226 1.3.677V33.75h.95V42h-.87l-.048-.623c-.312.487-.757.73-1.337.73-.602 0-1.075-.232-1.418-.698-.341-.469-.514-1.13-.521-1.982v-.596zm.95.542c0 .652.097 1.132.29 1.44.194.304.509.456.946.456.472 0 .825-.238 1.058-.714v-2.932c-.244-.466-.595-.699-1.053-.699-.437 0-.752.154-.945.462-.194.305-.292.774-.296 1.407v.58zm7.031-.547c0-.845.204-1.513.612-2.004.412-.494.955-.74 1.628-.74.673 0 1.214.239 1.622.719.412.48.623 1.133.634 1.96v.612c0 .842-.204 1.508-.613 1.999-.408.49-.952.735-1.632.735-.674 0-1.214-.238-1.622-.714-.405-.476-.615-1.12-.629-1.934v-.633zm.951.547c0 .599.116 1.07.349 1.413.236.34.553.51.951.51.837 0 1.269-.605 1.294-1.815v-.655c0-.595-.118-1.064-.354-1.407-.237-.348-.554-.521-.951-.521-.39 0-.704.173-.94.52-.233.344-.349.812-.349 1.402v.553zm8.98 0c0 .907-.163 1.589-.489 2.047-.325.458-.798.687-1.417.687-.616 0-1.078-.265-1.386-.794l-.049.687h-.864v-8.25h.945v3.078c.312-.498.759-.747 1.343-.747.637 0 1.115.226 1.434.677.319.451.48 1.131.483 2.04v.575zm-.945-.542c0-.687-.097-1.176-.29-1.466-.19-.294-.5-.44-.929-.44-.491 0-.856.264-1.096.794v2.766c.236.523.605.785 1.106.785.43 0 .738-.15.924-.452.186-.3.281-.768.285-1.401v-.586zm8.234 1.192c0-.39-.106-.689-.317-.897-.211-.207-.593-.41-1.144-.606-.552-.197-.974-.403-1.268-.618a2.272 2.272 0 01-.655-.741 2.068 2.068 0 01-.215-.956c0-.62.206-1.13.618-1.531.415-.401.958-.602 1.627-.602.459 0 .867.104 1.225.312.358.204.634.489.827.854.193.365.29.766.29 1.203h-.988c0-.483-.117-.858-.349-1.123-.233-.265-.568-.397-1.005-.397-.397 0-.705.11-.924.333-.218.222-.327.533-.327.934 0 .33.118.606.354.828.237.222.602.42 1.096.596.77.254 1.32.567 1.649.94.333.372.499.86.499 1.46 0 .635-.205 1.143-.617 1.526-.412.38-.972.57-1.681.57-.455 0-.876-.099-1.263-.296a2.3 2.3 0 01-.907-.838 2.347 2.347 0 01-.328-1.24h.988c0 .483.135.859.403 1.127.272.269.641.403 1.107.403.433 0 .759-.11.977-.333.219-.222.328-.524.328-.908zm3.18 1.977h-.951v-5.812h.951V42zm.075-7.353a.606.606 0 01-.135.403c-.089.107-.225.16-.408.16-.179 0-.313-.053-.403-.16a.61.61 0 01-.134-.403c0-.161.045-.297.134-.408.09-.111.224-.167.403-.167.179 0 .314.058.403.172.093.111.14.245.14.403zm3.502 7.46c-.724 0-1.279-.214-1.665-.644-.387-.433-.584-1.067-.591-1.901v-.704c0-.867.188-1.545.564-2.036.379-.494.907-.74 1.584-.74.681 0 1.189.216 1.526.649.336.433.508 1.108.515 2.025v.623h-3.244v.134c0 .623.116 1.076.349 1.36.237.282.575.423 1.015.423.28 0 .525-.051.736-.155.215-.108.416-.276.602-.505l.494.601c-.412.58-1.04.87-1.885.87zm-.108-5.21c-.394 0-.685.136-.875.409-.19.268-.297.687-.323 1.257h2.289v-.13c-.026-.55-.126-.945-.301-1.181-.172-.236-.435-.355-.79-.355zm7.788 5.21c-.723 0-1.278-.214-1.665-.644-.386-.433-.583-1.067-.591-1.901v-.704c0-.867.188-1.545.564-2.036.38-.494.908-.74 1.585-.74.68 0 1.189.216 1.525.649.337.433.509 1.108.516 2.025v.623h-3.244v.134c0 .623.116 1.076.349 1.36.236.282.575.423 1.015.423.279 0 .525-.051.736-.155.215-.108.415-.276.601-.505l.495.601c-.412.58-1.041.87-1.886.87zm-.107-5.21c-.394 0-.686.136-.876.409-.189.268-.297.687-.322 1.257h2.288v-.13c-.025-.55-.125-.945-.301-1.181-.171-.236-.435-.355-.789-.355zm6.01 3.615a.702.702 0 00-.231-.526c-.154-.147-.451-.319-.891-.516-.512-.211-.874-.392-1.085-.542a1.563 1.563 0 01-.468-.51 1.443 1.443 0 01-.155-.688c0-.473.171-.865.515-1.176.348-.315.79-.473 1.327-.473.566 0 1.02.165 1.364.494.344.33.516.752.516 1.268h-.946a.923.923 0 00-.263-.666.88.88 0 00-.671-.28c-.279 0-.5.074-.661.22-.157.144-.236.337-.236.58 0 .194.057.35.172.468.118.118.399.274.843.467.705.276 1.185.546 1.439.811.255.262.382.595.382 1 0 .504-.174.909-.521 1.213-.347.301-.813.451-1.397.451-.605 0-1.095-.173-1.471-.52-.376-.348-.564-.788-.564-1.322h.956c.011.322.109.575.295.758.186.182.448.273.784.273.315 0 .555-.07.72-.21a.722.722 0 00.247-.574zm7.541 0a.702.702 0 00-.231-.526c-.154-.147-.451-.319-.891-.516-.512-.211-.874-.392-1.085-.542a1.563 1.563 0 01-.468-.51 1.443 1.443 0 01-.155-.688c0-.473.171-.865.515-1.176.348-.315.79-.473 1.327-.473.566 0 1.02.165 1.364.494.344.33.516.752.516 1.268h-.946a.923.923 0 00-.263-.666.88.88 0 00-.671-.28c-.279 0-.5.074-.661.22-.157.144-.236.337-.236.58 0 .194.057.35.172.468.118.118.399.274.843.467.705.276 1.185.546 1.439.811.255.262.382.595.382 1 0 .504-.174.909-.521 1.213-.347.301-.813.451-1.397.451-.605 0-1.095-.173-1.471-.52-.376-.348-.564-.788-.564-1.322h.956c.011.322.109.575.295.758.186.182.448.273.784.273.315 0 .555-.07.72-.21a.722.722 0 00.247-.574zM231.21 42h-.95v-5.812h.95V42zm.076-7.353a.606.606 0 01-.135.403c-.089.107-.225.16-.408.16-.179 0-.313-.053-.403-.16a.61.61 0 01-.134-.403c0-.161.045-.297.134-.408.09-.111.224-.167.403-.167.179 0 .313.058.403.172.093.111.14.245.14.403zm3.443 6.65c.315 0 .567-.097.757-.29.19-.198.293-.477.311-.838h.897c-.021.558-.22 1.022-.596 1.39a1.88 1.88 0 01-1.369.548c-.72 0-1.27-.225-1.649-.676-.376-.455-.564-1.13-.564-2.025v-.64c0-.877.188-1.543.564-1.997.376-.459.923-.688 1.643-.688.595 0 1.065.188 1.413.564.351.376.537.89.558 1.541h-.897c-.021-.43-.125-.751-.311-.966-.183-.215-.437-.322-.763-.322-.422 0-.736.14-.94.418-.204.276-.31.73-.317 1.365v.74c0 .685.101 1.168.301 1.451.204.283.525.424.962.424zm4.012-4.512c.361-.47.823-.704 1.385-.704 1.028 0 1.549.686 1.563 2.057V42h-.945v-3.819c0-.455-.077-.777-.231-.967-.15-.193-.378-.29-.682-.29a.976.976 0 00-.639.237 1.713 1.713 0 00-.451.617V42h-.951v-8.25h.951v3.035zM246.658 42h-.951v-8.25h.951V42zm3.577.107c-.723 0-1.278-.214-1.665-.644-.387-.433-.584-1.067-.591-1.901v-.704c0-.867.188-1.545.564-2.036.38-.494.908-.74 1.584-.74.681 0 1.189.216 1.526.649.336.433.508 1.108.515 2.025v.623h-3.244v.134c0 .623.117 1.076.349 1.36.237.282.575.423 1.016.423.279 0 .524-.051.735-.155.215-.108.416-.276.602-.505l.494.601c-.412.58-1.04.87-1.885.87zm-.108-5.21c-.393 0-.685.136-.875.409-.19.268-.297.687-.322 1.257h2.288v-.13c-.025-.55-.126-.945-.301-1.181-.172-.236-.435-.355-.79-.355zM254.338 42h-.95v-5.812h.95V42zm.076-7.353a.606.606 0 01-.135.403c-.089.107-.225.16-.408.16-.179 0-.313-.053-.403-.16a.61.61 0 01-.134-.403c0-.161.045-.297.134-.408.09-.111.224-.167.403-.167.179 0 .313.058.403.172.093.111.14.245.14.403zm4.248 5.865a.702.702 0 00-.231-.526c-.154-.147-.451-.319-.891-.516-.512-.211-.874-.392-1.085-.542a1.563 1.563 0 01-.468-.51 1.431 1.431 0 01-.155-.688c0-.473.171-.865.515-1.176.347-.315.79-.473 1.327-.473.566 0 1.02.165 1.364.494.344.33.516.752.516 1.268h-.946a.923.923 0 00-.263-.666.88.88 0 00-.671-.28c-.279 0-.5.074-.661.22-.157.144-.236.337-.236.58 0 .194.057.35.172.468.118.118.399.274.843.467.705.276 1.185.546 1.439.811.255.262.382.595.382 1 0 .504-.174.909-.521 1.213-.348.301-.813.451-1.397.451-.605 0-1.095-.173-1.471-.52-.376-.348-.564-.788-.564-1.322h.956c.01.322.109.575.295.758.186.182.448.273.784.273.315 0 .555-.07.72-.21a.722.722 0 00.247-.574zm3.438-5.73v1.407h.875v.767h-.875v3.604c0 .23.037.403.112.521.076.119.205.178.387.178.125 0 .253-.022.381-.065l-.01.806a2.077 2.077 0 01-.661.107c-.376 0-.662-.134-.859-.402-.197-.269-.296-.648-.296-1.14v-3.608h-.886v-.769h.886v-1.407h.946zm4.087 7.325c-.723 0-1.278-.214-1.665-.644-.387-.433-.584-1.067-.591-1.901v-.704c0-.867.188-1.545.564-2.036.38-.494.908-.74 1.585-.74.68 0 1.188.216 1.525.649.337.433.508 1.108.516 2.025v.623h-3.245v.134c0 .623.117 1.076.35 1.36.236.282.574.423 1.015.423.279 0 .524-.051.736-.155.214-.108.415-.276.601-.505l.494.601c-.412.58-1.04.87-1.885.87zm-.107-5.21c-.394 0-.686.136-.876.409-.19.268-.297.687-.322 1.257h2.288v-.13c-.025-.55-.125-.945-.301-1.181-.172-.236-.435-.355-.789-.355zm4.082-.709l.026.629c.369-.49.84-.736 1.413-.736 1.028 0 1.549.686 1.563 2.057V42h-.945v-3.819c0-.455-.077-.777-.231-.967-.151-.193-.378-.29-.682-.29a.972.972 0 00-.639.237 1.716 1.716 0 00-.452.617V42h-.95v-5.812h.897zM14.17 51.341l-.505.58V54h-.95v-8.25h.95v4.936l1.81-2.498h1.139l-1.848 2.428L16.856 54h-1.107l-1.58-2.659zm3.303-.515c0-.845.204-1.513.612-2.004.412-.494.955-.74 1.628-.74.673 0 1.214.239 1.622.719.412.48.623 1.133.634 1.96v.612c0 .842-.204 1.508-.613 1.999-.408.49-.952.735-1.632.735-.674 0-1.214-.238-1.622-.714-.405-.476-.614-1.12-.629-1.934v-.633zm.95.547c0 .599.117 1.07.35 1.413.236.34.553.51.95.51.838 0 1.27-.605 1.295-1.815v-.655c0-.595-.118-1.064-.354-1.407-.237-.348-.554-.521-.951-.521-.39 0-.704.173-.94.52-.233.344-.35.812-.35 1.402v.553zm-.483-4.737a.58.58 0 01.145-.403c.1-.11.247-.166.44-.166.194 0 .341.055.441.166.1.108.15.242.15.403 0 .161-.05.296-.15.403-.1.108-.247.161-.44.161-.194 0-.34-.053-.44-.16a.58.58 0 01-.146-.404zm2.31.011a.6.6 0 01.145-.408c.1-.111.247-.167.44-.167.194 0 .34.056.44.167.101.11.151.247.151.408 0 .161-.05.295-.15.403-.1.107-.247.16-.44.16-.194 0-.34-.053-.441-.16a.58.58 0 01-.145-.403zm3.84 1.541l.027.629c.369-.49.84-.736 1.413-.736 1.027 0 1.548.686 1.563 2.057V54h-.945v-3.819c0-.455-.078-.777-.232-.967-.15-.193-.377-.29-.682-.29a.975.975 0 00-.639.237 1.719 1.719 0 00-.451.617V54h-.95v-5.812h.896zm5.329 0l.026.629c.37-.49.84-.736 1.413-.736 1.028 0 1.549.686 1.563 2.057V54h-.945v-3.819c0-.455-.077-.777-.231-.967-.15-.193-.378-.29-.683-.29a.975.975 0 00-.639.237 1.718 1.718 0 00-.45.617V54h-.951v-5.812h.897zm6.51 5.92c-.724 0-1.28-.215-1.666-.645-.386-.433-.584-1.067-.59-1.901v-.704c0-.867.187-1.545.563-2.036.38-.494.908-.74 1.585-.74.68 0 1.189.216 1.525.649.337.433.509 1.108.516 2.025v.623h-3.244v.134c0 .623.116 1.076.349 1.36.236.282.575.423 1.015.423.28 0 .525-.051.736-.155.215-.108.415-.276.601-.505l.494.601c-.411.58-1.04.87-1.885.87zm-.108-5.21c-.394 0-.686.135-.876.408-.19.268-.297.687-.322 1.257h2.288v-.13c-.025-.55-.125-.945-.3-1.181-.172-.236-.436-.355-.79-.355zm4.082-.71l.027.629c.368-.49.84-.736 1.412-.736 1.028 0 1.549.686 1.563 2.057V54h-.945v-3.819c0-.455-.077-.777-.231-.967-.15-.193-.378-.29-.682-.29a.975.975 0 00-.64.237 1.719 1.719 0 00-.45.617V54h-.951v-5.812h.897zm4.442 7.37l-.564-.387c.336-.47.512-.953.526-1.45v-.897h.972v.779c0 .361-.09.723-.268 1.084a2.51 2.51 0 01-.666.87zm4.474-4.727c0-.895.166-1.577.5-2.046.336-.47.818-.704 1.444-.704.555 0 .989.226 1.3.677V45.75h.95V54h-.87l-.048-.623c-.311.487-.757.73-1.337.73-.602 0-1.074-.232-1.418-.698-.34-.469-.514-1.13-.521-1.982v-.596zm.95.542c0 .652.097 1.132.29 1.44.194.304.509.456.946.456.472 0 .825-.238 1.058-.714v-2.932c-.244-.466-.594-.699-1.053-.699-.437 0-.752.154-.945.462-.193.305-.292.774-.295 1.407v.58zM57.467 54c-.057-.125-.098-.337-.123-.634-.337.494-.767.741-1.29.741-.526 0-.937-.146-1.235-.44-.293-.297-.44-.714-.44-1.252 0-.59.2-1.06.602-1.407.4-.347.95-.524 1.648-.531h.699v-.618c0-.347-.077-.595-.231-.741-.154-.147-.389-.22-.704-.22-.286 0-.52.085-.698.257a.846.846 0 00-.269.645h-.95c0-.297.087-.58.263-.849.175-.272.412-.485.709-.639.297-.154.628-.23.993-.23.595 0 1.046.148 1.354.445.312.294.47.723.478 1.289v2.932c.004.448.064.837.183 1.166V54h-.989zm-1.267-.757c.233 0 .455-.065.666-.194.211-.129.365-.29.462-.483V51.18h-.537c-.452.007-.808.11-1.07.306-.26.194-.391.466-.391.817 0 .33.066.57.198.72.133.146.357.22.672.22zm6.375-.73a.702.702 0 00-.23-.527c-.155-.147-.452-.319-.892-.516-.512-.211-.874-.392-1.085-.542a1.563 1.563 0 01-.468-.51 1.434 1.434 0 01-.155-.688c0-.473.172-.865.515-1.176.348-.315.79-.473 1.327-.473.566 0 1.02.165 1.364.494.344.33.516.752.516 1.268h-.946a.925.925 0 00-.263-.666.882.882 0 00-.671-.28c-.28 0-.5.074-.66.22-.158.144-.237.337-.237.58 0 .194.057.35.172.468.118.118.4.274.843.467.706.276 1.185.546 1.44.811.254.262.38.595.38 1 0 .504-.173.909-.52 1.213-.347.301-.813.451-1.397.451-.605 0-1.095-.173-1.471-.52-.376-.348-.564-.788-.564-1.322h.956c.01.322.109.575.295.758.186.182.448.273.784.273.316 0 .555-.07.72-.21a.723.723 0 00.247-.574zm5.667-3.728c.361-.47.823-.704 1.385-.704 1.028 0 1.55.686 1.563 2.057V54h-.945v-3.819c0-.455-.077-.777-.23-.967-.151-.193-.379-.29-.683-.29a.975.975 0 00-.64.237 1.719 1.719 0 00-.45.617V54h-.951v-8.25h.95v3.035zm4.168 2.04c0-.844.204-1.512.612-2.003.412-.494.954-.74 1.627-.74.674 0 1.214.239 1.623.719.411.48.623 1.133.633 1.96v.612c0 .842-.204 1.508-.612 1.999-.408.49-.953.735-1.633.735-.673 0-1.214-.238-1.622-.714-.405-.476-.614-1.12-.628-1.934v-.633zm.95.548c0 .599.117 1.07.35 1.413.236.34.553.51.95.51.838 0 1.27-.605 1.295-1.815v-.655c0-.595-.119-1.064-.355-1.407-.236-.348-.553-.521-.95-.521-.39 0-.704.173-.94.52-.233.344-.35.812-.35 1.402v.553zm5.72-2.588c.362-.47.824-.704 1.386-.704 1.028 0 1.549.686 1.563 2.057V54h-.945v-3.819c0-.455-.077-.777-.23-.967-.151-.193-.379-.29-.683-.29a.975.975 0 00-.64.237 1.719 1.719 0 00-.45.617V54h-.951v-8.25h.95v3.035zm6.446 5.322c-.723 0-1.278-.214-1.665-.644-.387-.433-.584-1.067-.591-1.901v-.704c0-.867.188-1.545.564-2.036.38-.494.908-.74 1.585-.74.68 0 1.188.216 1.525.649.337.433.508 1.108.516 2.025v.623h-3.245v.134c0 .623.117 1.076.35 1.36.236.282.574.423 1.015.423.279 0 .524-.051.736-.155.214-.108.415-.276.601-.505l.494.601c-.412.58-1.04.87-1.885.87zm-.108-5.21c-.393 0-.685.136-.875.409-.19.268-.297.687-.322 1.257h2.288v-.13c-.025-.55-.126-.945-.301-1.181-.172-.236-.435-.355-.79-.355zm8.207 1.94H92.25V54h-.989v-7.82h2.192c.766 0 1.346.2 1.74.601.394.398.59.981.59 1.751 0 .484-.107.906-.322 1.268a2.007 2.007 0 01-.902.81l1.515 3.325V54h-1.058l-1.392-3.164zm-1.374-.844h1.192c.412 0 .74-.132.983-.397.247-.265.37-.62.37-1.064 0-1.002-.454-1.504-1.364-1.504H92.25v2.965zM97.996 54h-.951v-5.812h.95V54zm.075-7.353a.608.608 0 01-.135.403c-.089.107-.225.16-.408.16-.179 0-.313-.053-.403-.16a.607.607 0 01-.134-.403c0-.161.045-.297.134-.408.09-.111.224-.167.403-.167.18 0 .314.058.403.172.093.111.14.245.14.403zm4.248 5.865a.702.702 0 00-.231-.526c-.154-.147-.451-.319-.891-.516-.512-.211-.874-.392-1.085-.542a1.56 1.56 0 01-.468-.51 1.434 1.434 0 01-.155-.688c0-.473.172-.865.515-1.176.348-.315.79-.473 1.327-.473.566 0 1.021.165 1.364.494.344.33.516.752.516 1.268h-.945a.924.924 0 00-.264-.666.88.88 0 00-.671-.28c-.279 0-.499.074-.661.22-.157.144-.236.337-.236.58 0 .194.057.35.172.468.118.118.399.274.843.467.706.276 1.185.546 1.44.811.254.262.381.595.381 1 0 .504-.174.909-.521 1.213-.347.301-.813.451-1.396.451-.606 0-1.096-.173-1.472-.52-.376-.348-.564-.788-.564-1.322h.956c.011.322.109.575.295.758.187.182.448.273.785.273.315 0 .555-.07.719-.21a.722.722 0 00.247-.574zM105.538 54h-.951v-5.812h.951V54zm.075-7.353a.61.61 0 01-.134.403c-.09.107-.226.16-.409.16-.179 0-.313-.053-.403-.16a.61.61 0 01-.134-.403c0-.161.045-.297.134-.408.09-.111.224-.167.403-.167.179 0 .314.058.403.172.093.111.14.245.14.403zm2.884 4.694l-.505.58V54h-.95v-8.25h.95v4.936l1.81-2.498h1.139l-1.848 2.428 2.09 3.384h-1.107l-1.579-2.659zm3.303-.515c0-.845.204-1.513.613-2.004.411-.494.954-.74 1.627-.74s1.214.239 1.622.719c.412.48.623 1.133.634 1.96v.612c0 .842-.204 1.508-.612 1.999-.409.49-.953.735-1.633.735-.673 0-1.214-.238-1.622-.714-.405-.476-.614-1.12-.629-1.934v-.633zm.951.547c0 .599.116 1.07.349 1.413.236.34.553.51.951.51.838 0 1.269-.605 1.294-1.815v-.655c0-.595-.118-1.064-.354-1.407-.237-.348-.553-.521-.951-.521-.39 0-.704.173-.94.52-.233.344-.349.812-.349 1.402v.553zm9.373 2.734c-.724 0-1.279-.214-1.666-.644-.386-.433-.583-1.067-.59-1.901v-.704c0-.867.188-1.545.564-2.036.379-.494.907-.74 1.584-.74.68 0 1.189.216 1.526.649.336.433.508 1.108.515 2.025v.623h-3.244v.134c0 .623.116 1.076.349 1.36.236.282.575.423 1.015.423.28 0 .525-.051.736-.155.215-.108.415-.276.602-.505l.494.601c-.412.58-1.04.87-1.885.87zm-.108-5.21c-.394 0-.686.136-.875.409-.19.268-.298.687-.323 1.257h2.288v-.13c-.025-.55-.125-.945-.3-1.181-.172-.236-.435-.355-.79-.355zM126.227 54h-.951v-5.812h.951V54zm.075-7.353a.61.61 0 01-.134.403c-.09.107-.226.16-.408.16-.179 0-.314-.053-.403-.16a.605.605 0 01-.134-.403c0-.161.044-.297.134-.408.089-.111.224-.167.403-.167.179 0 .313.058.403.172a.606.606 0 01.139.403zm2.321 1.541l.026.629c.369-.49.84-.736 1.413-.736 1.028 0 1.549.686 1.563 2.057V54h-.945v-3.819c0-.455-.077-.777-.231-.967-.151-.193-.378-.29-.682-.29a.976.976 0 00-.64.237 1.725 1.725 0 00-.451.617V54h-.95v-5.812h.897zm5.312 5.001h2.803V54h-3.888v-.73l2.664-4.26h-2.643v-.822h3.76v.704l-2.696 4.297zm6.918.3c-.316.413-.776.618-1.381.618-.526 0-.924-.18-1.192-.542-.269-.365-.405-.895-.408-1.59v-3.787h.945v3.717c0 .906.272 1.36.816 1.36.577 0 .974-.259 1.193-.774v-4.303h.95V54h-.902l-.021-.51zm2.164-2.658c0-.906.165-1.59.494-2.052.33-.465.811-.698 1.445-.698.591 0 1.04.252 1.348.757l.049-.65h.859v5.866c0 .72-.184 1.27-.553 1.654-.369.387-.883.58-1.542.58-.286 0-.609-.071-.967-.215-.354-.14-.621-.313-.8-.52l.387-.656c.394.387.829.58 1.305.58.791 0 1.198-.431 1.219-1.294v-.758c-.308.455-.745.682-1.31.682-.602 0-1.071-.225-1.408-.676-.336-.455-.512-1.107-.526-1.955v-.645zm.951.542c0 .652.095 1.132.284 1.44.194.304.509.456.946.456.472 0 .827-.241 1.063-.725V49.64c-.247-.477-.598-.715-1.053-.715-.436 0-.751.154-.945.462-.193.305-.292.774-.295 1.407v.58zm6.74 2.734c-.723 0-1.278-.214-1.665-.644-.386-.433-.583-1.067-.59-1.901v-.704c0-.867.188-1.545.564-2.036.379-.494.907-.74 1.584-.74.68 0 1.189.216 1.525.649.337.433.509 1.108.516 2.025v.623h-3.244v.134c0 .623.116 1.076.349 1.36.236.282.575.423 1.015.423.28 0 .525-.051.736-.155.215-.108.415-.276.602-.505l.494.601c-.412.58-1.04.87-1.886.87zm-.107-5.21c-.394 0-.686.136-.875.409-.19.268-.298.687-.323 1.257h2.288v-.13c-.025-.55-.125-.945-.3-1.181-.172-.236-.435-.355-.79-.355zm4.136-.112c.361-.47.823-.704 1.386-.704 1.027 0 1.548.686 1.563 2.057V54h-.946v-3.819c0-.455-.077-.777-.231-.967-.15-.193-.377-.29-.682-.29a.976.976 0 00-.639.237 1.713 1.713 0 00-.451.617V54h-.951v-8.25h.951v3.035zm6.445 5.322c-.723 0-1.278-.214-1.665-.644-.387-.433-.584-1.067-.591-1.901v-.704c0-.867.188-1.545.564-2.036.38-.494.908-.74 1.585-.74.68 0 1.189.216 1.525.649.337.433.509 1.108.516 2.025v.623h-3.244v.134c0 .623.116 1.076.349 1.36.236.282.574.423 1.015.423.279 0 .524-.051.736-.155.215-.108.415-.276.601-.505l.494.601c-.411.58-1.04.87-1.885.87zm-.107-5.21c-.394 0-.686.136-.876.409-.19.268-.297.687-.322 1.257h2.288v-.13c-.025-.55-.125-.945-.301-1.181-.172-.236-.435-.355-.789-.355zm4.082-.709l.027.629c.368-.49.839-.736 1.412-.736 1.028 0 1.549.686 1.563 2.057V54h-.945v-3.819c0-.455-.077-.777-.231-.967-.15-.193-.378-.29-.682-.29a.972.972 0 00-.639.237 1.716 1.716 0 00-.452.617V54h-.95v-5.812h.897zm4.442 7.37l-.564-.387c.336-.47.512-.953.526-1.45v-.897h.972v.779c0 .361-.089.723-.268 1.084a2.525 2.525 0 01-.666.87zM175.432 54h-.983v-7.82h.983V54zm2.54-5.215c.362-.47.824-.704 1.386-.704 1.028 0 1.549.686 1.563 2.057V54h-.945v-3.819c0-.455-.077-.777-.231-.967-.151-.193-.378-.29-.683-.29a.976.976 0 00-.639.237 1.725 1.725 0 00-.451.617V54h-.951v-8.25h.951v3.035zm6.768.295a2.317 2.317 0 00-.43-.038c-.487 0-.827.267-1.02.8V54h-.951v-5.812h.924l.016.591c.254-.465.614-.698 1.079-.698.151 0 .276.025.376.075l.006.924zm8.502 3.948l-.172.215c-.494.576-1.217.864-2.17.864-.845 0-1.509-.279-1.992-.837-.48-.563-.725-1.356-.736-2.38v-1.536c0-1.096.218-1.916.655-2.46.441-.548 1.098-.822 1.971-.822.745 0 1.327.208 1.746.623.422.416.655 1.008.698 1.778h-.983c-.039-.487-.175-.866-.408-1.139-.229-.275-.578-.413-1.047-.413-.562 0-.974.184-1.236.553-.261.365-.397.95-.408 1.757v1.595c0 .787.151 1.393.451 1.815.301.42.733.629 1.295.629.53 0 .933-.13 1.208-.387l.145-.135v-1.804h-1.428v-.838h2.411v2.922zm3.55 1.08c-.723 0-1.278-.215-1.665-.645-.386-.433-.583-1.067-.59-1.901v-.704c0-.867.188-1.545.564-2.036.379-.494.907-.74 1.584-.74.68 0 1.189.216 1.525.649.337.433.509 1.108.516 2.025v.623h-3.244v.134c0 .623.116 1.076.349 1.36.236.282.575.423 1.015.423.279 0 .525-.051.736-.155.215-.108.415-.276.602-.505l.494.601c-.412.58-1.04.87-1.886.87zm-.107-5.21c-.394 0-.686.135-.875.408-.19.268-.298.687-.323 1.257h2.288v-.13c-.025-.55-.125-.945-.3-1.181-.172-.236-.435-.355-.79-.355zM200.896 54h-.951v-8.25h.951V54zm1.3-3.169c0-.895.166-1.577.499-2.046.337-.47.819-.704 1.445-.704.555 0 .988.226 1.3.677V45.75h.951V54h-.87l-.049-.623c-.311.487-.757.73-1.337.73-.602 0-1.074-.232-1.418-.698-.34-.469-.514-1.13-.521-1.982v-.596zm.95.542c0 .652.097 1.132.291 1.44.193.304.508.456.945.456.472 0 .825-.238 1.058-.714v-2.932c-.244-.466-.594-.699-1.053-.699-.437 0-.752.154-.945.462-.193.305-.292.774-.296 1.407v.58zm8.111 1.816h2.804V54h-3.889v-.73l2.664-4.26h-2.643v-.822h3.76v.704l-2.696 4.297zm6.918.3c-.315.413-.775.618-1.381.618-.526 0-.923-.18-1.192-.542-.269-.365-.405-.895-.408-1.59v-3.787h.945v3.717c0 .906.272 1.36.817 1.36.576 0 .974-.259 1.192-.774v-4.303h.951V54h-.903l-.021-.51zm6.526-.934l1.101-4.367h.967L225.044 54h-.709l-1.745-5.812h.967l1.144 4.367zm5.134 1.552c-.723 0-1.278-.214-1.665-.644-.386-.433-.583-1.067-.59-1.901v-.704c0-.867.188-1.545.564-2.036.379-.494.907-.74 1.584-.74.68 0 1.189.216 1.525.649.337.433.509 1.108.516 2.025v.623h-3.244v.134c0 .623.116 1.076.349 1.36.236.282.575.423 1.015.423.279 0 .525-.051.736-.155.215-.108.415-.276.602-.505l.494.601c-.412.58-1.04.87-1.886.87zm-.107-5.21c-.394 0-.686.136-.875.409-.19.268-.298.687-.323 1.257h2.288v-.13c-.025-.55-.125-.945-.3-1.181-.172-.236-.435-.355-.79-.355zm5.586.183a2.317 2.317 0 00-.43-.038c-.487 0-.827.267-1.02.8V54h-.951v-5.812h.924l.016.591c.254-.465.614-.698 1.08-.698a.84.84 0 01.376.075l.005.924zm1.977 4.92h-.951v-8.25h.951V54zm2.524 0h-.951v-5.812h.951V54zm.075-7.353a.61.61 0 01-.134.403c-.09.107-.226.16-.408.16-.179 0-.314-.053-.403-.16a.605.605 0 01-.134-.403c0-.161.044-.297.134-.408.089-.111.224-.167.403-.167.179 0 .313.058.402.172.094.111.14.245.14.403zm3.502 7.46c-.723 0-1.278-.214-1.665-.644-.387-.433-.584-1.067-.591-1.901v-.704c0-.867.188-1.545.564-2.036.38-.494.908-.74 1.585-.74.68 0 1.188.216 1.525.649.337.433.509 1.108.516 2.025v.623h-3.244v.134c0 .623.116 1.076.349 1.36.236.282.574.423 1.015.423.279 0 .524-.051.736-.155.214-.108.415-.276.601-.505l.494.601c-.411.58-1.04.87-1.885.87zm-.107-5.21c-.394 0-.686.136-.876.409-.19.268-.297.687-.322 1.257h2.288v-.13c-.025-.55-.125-.945-.301-1.181-.172-.236-.435-.355-.789-.355zm5.586.183a2.317 2.317 0 00-.43-.038c-.487 0-.827.267-1.021.8V54h-.95v-5.812h.924l.016.591c.254-.465.614-.698 1.079-.698.151 0 .276.025.376.075l.006.924zm3.029 5.027c-.723 0-1.278-.214-1.665-.644-.387-.433-.584-1.067-.591-1.901v-.704c0-.867.188-1.545.564-2.036.38-.494.908-.74 1.584-.74.681 0 1.189.216 1.526.649.336.433.508 1.108.515 2.025v.623h-3.244v.134c0 .623.117 1.076.349 1.36.237.282.575.423 1.016.423.279 0 .524-.051.735-.155.215-.108.416-.276.602-.505l.494.601c-.412.58-1.04.87-1.885.87zm-.108-5.21c-.393 0-.685.136-.875.409-.19.268-.297.687-.322 1.257h2.288v-.13c-.025-.55-.126-.945-.301-1.181-.172-.236-.435-.355-.79-.355zm4.083-.709l.026.629c.369-.49.84-.736 1.413-.736 1.028 0 1.549.686 1.563 2.057V54h-.945v-3.819c0-.455-.077-.777-.231-.967-.151-.193-.378-.29-.682-.29a.976.976 0 00-.64.237 1.725 1.725 0 00-.451.617V54h-.95v-5.812h.897zm4.495 5.291c0-.172.05-.315.151-.43.103-.114.257-.172.461-.172.205 0 .358.058.462.172a.601.601 0 01.161.43.569.569 0 01-.161.414c-.104.11-.257.166-.462.166-.204 0-.358-.055-.461-.166a.591.591 0 01-.151-.414z" fill="#000"/></svg>