<svg width="116" height="28" viewBox="0 0 116 28" fill="none" xmlns="http://www.w3.org/2000/svg"><path d="M1.987 7.384c-.376 0-.7-.132-.972-.396a1.341 1.341 0 01-.408-.984c0-.392.136-.72.408-.984.272-.272.596-.408.972-.408.392 0 .72.136.984.408.272.264.408.592.408.984 0 .384-.136.712-.408.984a1.336 1.336 0 01-.984.396zm16.201-5.772V10h-.84V6.076H12.8V10h-.84V1.612h.84V5.38h4.548V1.612h.84zm1.533 5.1c0-.672.131-1.26.395-1.764a2.881 2.881 0 011.117-1.176c.48-.28 1.02-.42 1.62-.42.623 0 1.16.144 1.607.432.456.288.784.656.985 1.104v-1.44h.84V10h-.84V8.548c-.209.448-.54.82-.997 1.116-.448.288-.983.432-1.608.432-.591 0-1.128-.14-1.607-.42a2.964 2.964 0 01-1.117-1.188c-.264-.512-.395-1.104-.395-1.776zm5.724.012c0-.528-.108-.992-.325-1.392a2.3 2.3 0 00-.887-.924 2.373 2.373 0 00-1.224-.324c-.465 0-.88.104-1.248.312-.369.208-.66.512-.877.912-.207.392-.311.86-.311 1.404 0 .536.104 1.008.311 1.416.216.4.508.708.877.924.367.208.784.312 1.248.312.447 0 .855-.108 1.224-.324a2.3 2.3 0 00.887-.924c.216-.4.325-.864.325-1.392zm5.83-3.396c.783 0 1.423.244 1.92.732.495.48.743 1.18.743 2.1V10h-.828V6.256c0-.712-.18-1.256-.54-1.632-.352-.376-.836-.564-1.452-.564-.632 0-1.136.2-1.512.6-.376.4-.564.988-.564 1.764V10h-.84V3.448h.84v1.116c.208-.4.508-.704.9-.912a2.714 2.714 0 011.332-.324zm4.137 3.384c0-.672.136-1.26.408-1.764a2.881 2.881 0 011.116-1.176c.48-.28 1.02-.42 1.62-.42.576 0 1.096.14 1.56.42.464.28.804.644 1.02 1.092V1.12h.84V10h-.84V8.536a2.56 2.56 0 01-.984 1.128c-.456.288-.992.432-1.608.432-.6 0-1.14-.14-1.62-.42a2.964 2.964 0 01-1.116-1.188c-.264-.512-.396-1.104-.396-1.776zm5.724.012c0-.528-.108-.992-.324-1.392a2.3 2.3 0 00-.888-.924 2.373 2.373 0 00-1.224-.324c-.464 0-.88.104-1.248.312-.368.208-.66.512-.876.912-.208.392-.312.86-.312 1.404 0 .536.104 1.008.312 1.416.216.4.508.708.876.924.368.208.784.312 1.248.312.448 0 .856-.108 1.224-.324a2.3 2.3 0 00.888-.924c.216-.4.324-.864.324-1.392zm8.686-.336c0 .288-.008.508-.024.66h-5.436c.024.496.144.92.36 1.272s.5.62.852.804a2.54 2.54 0 001.152.264c.544 0 1-.132 1.368-.396a1.85 1.85 0 00.744-1.068h.888a2.792 2.792 0 01-1.032 1.572c-.52.4-1.176.6-1.968.6a3.343 3.343 0 01-1.656-.408 3.016 3.016 0 01-1.152-1.176c-.272-.512-.408-1.108-.408-1.788 0-.68.136-1.276.408-1.788a2.836 2.836 0 011.14-1.176c.488-.272 1.044-.408 1.668-.408.624 0 1.168.136 1.632.408.472.272.832.64 1.08 1.104.256.456.384.964.384 1.524zm-.852-.024c.008-.488-.092-.904-.3-1.248a1.947 1.947 0 00-.828-.78 2.54 2.54 0 00-1.152-.264c-.624 0-1.156.2-1.596.6-.44.4-.684.964-.732 1.692h4.608zm3.228-5.244V10h-.84V1.12h.84zm12.996 2.208c.768 0 1.392.244 1.872.732.488.48.732 1.18.732 2.1V10h-.828V6.256c0-.712-.172-1.256-.516-1.632-.344-.376-.812-.564-1.404-.564-.616 0-1.108.204-1.476.612-.368.408-.552 1-.552 1.776V10h-.828V6.256c0-.712-.172-1.256-.516-1.632-.344-.376-.816-.564-1.416-.564-.616 0-1.108.204-1.476.612-.368.408-.552 1-.552 1.776V10h-.84V3.448h.84v1.128c.208-.408.504-.716.888-.924a2.573 2.573 0 011.284-.324c.568 0 1.064.136 1.488.408.432.272.744.672.936 1.2.176-.52.476-.916.9-1.188.432-.28.92-.42 1.464-.42zm4.89-1.116a.59.59 0 01-.433-.18.603.603 0 01-.18-.444c0-.176.06-.32.18-.432a.59.59 0 01.432-.18.59.59 0 01.432.18c.12.112.18.256.18.432s-.06.324-.18.444a.59.59 0 01-.432.18zm.42 1.236V10h-.84V3.448h.84zm2.993.708v4.068c0 .4.076.676.228.828.152.152.42.228.804.228h.768V10h-.9c-.592 0-1.032-.136-1.32-.408-.288-.28-.432-.736-.432-1.368V4.156h-.912v-.708h.912V1.804h.852v1.644h1.8v.708h-1.8zm12.407 2.232c0 .288-.008.508-.024.66h-5.436c.024.496.144.92.36 1.272s.5.62.852.804a2.54 2.54 0 001.152.264c.544 0 1-.132 1.368-.396a1.85 1.85 0 00.744-1.068h.888a2.792 2.792 0 01-1.032 1.572c-.52.4-1.176.6-1.968.6a3.343 3.343 0 01-1.656-.408A3.016 3.016 0 0180 8.512c-.272-.512-.408-1.108-.408-1.788 0-.68.136-1.276.408-1.788a2.836 2.836 0 011.14-1.176c.488-.272 1.044-.408 1.668-.408.624 0 1.168.136 1.632.408.472.272.832.64 1.08 1.104.256.456.384.964.384 1.524zm-.852-.024c.008-.488-.092-.904-.3-1.248a1.947 1.947 0 00-.828-.78 2.54 2.54 0 00-1.152-.264c-.624 0-1.156.2-1.596.6-.44.4-.684.964-.732 1.692h4.608zm2.808-4.152a.59.59 0 01-.431-.18.603.603 0 01-.18-.444c0-.176.06-.32.18-.432a.59.59 0 01.431-.18.59.59 0 01.433.18c.12.112.18.256.18.432s-.06.324-.18.444a.59.59 0 01-.433.18zm.42 1.236V10h-.84V3.448h.84zm4.975-.12c.784 0 1.424.244 1.92.732.496.48.744 1.18.744 2.1V10h-.828V6.256c0-.712-.18-1.256-.54-1.632-.352-.376-.836-.564-1.452-.564-.632 0-1.136.2-1.512.6-.376.4-.564.988-.564 1.764V10h-.84V3.448h.84v1.116c.208-.4.508-.704.9-.912a2.714 2.714 0 011.332-.324zm10.449 3.06c0 .288-.008.508-.024.66h-5.436c.024.496.144.92.36 1.272s.5.62.852.804c.352.176.736.264 1.152.264.544 0 1-.132 1.368-.396a1.85 1.85 0 00.744-1.068h.888a2.792 2.792 0 01-1.032 1.572c-.52.4-1.176.6-1.968.6a3.343 3.343 0 01-1.656-.408A3.016 3.016 0 0197.8 8.512c-.272-.512-.408-1.108-.408-1.788 0-.68.136-1.276.408-1.788a2.836 2.836 0 011.14-1.176c.488-.272 1.044-.408 1.668-.408.624 0 1.168.136 1.632.408.472.272.832.64 1.08 1.104.256.456.384.964.384 1.524zm-.852-.024c.008-.488-.092-.904-.3-1.248a1.947 1.947 0 00-.828-.78 2.54 2.54 0 00-1.152-.264c-.624 0-1.156.2-1.596.6-.44.4-.684.964-.732 1.692h4.608zm10.189-3.036c.768 0 1.392.244 1.872.732.488.48.732 1.18.732 2.1V10h-.828V6.256c0-.712-.172-1.256-.516-1.632-.344-.376-.812-.564-1.404-.564-.616 0-1.108.204-1.476.612-.368.408-.552 1-.552 1.776V10h-.828V6.256c0-.712-.172-1.256-.516-1.632-.344-.376-.816-.564-1.416-.564-.616 0-1.108.204-1.476.612-.368.408-.552 1-.552 1.776V10h-.84V3.448h.84v1.128c.208-.408.504-.716.888-.924a2.573 2.573 0 011.284-.324c.568 0 1.064.136 1.488.408.432.272.744.672.936 1.2.176-.52.476-.916.9-1.188.432-.28.92-.42 1.464-.42zM16.868 18.612v.696H14.54V27h-.84v-7.692h-2.34v-.696h5.508zm.942 5.1c0-.672.132-1.26.396-1.764a2.881 2.881 0 011.116-1.176c.48-.28 1.02-.42 1.62-.42.624 0 1.16.144 1.608.432.456.288.784.656.984 1.104v-1.44h.84V27h-.84v-1.452c-.208.448-.54.82-.996 1.116-.448.288-.984.432-1.608.432-.592 0-1.128-.14-1.608-.42a2.964 2.964 0 01-1.116-1.188c-.264-.512-.396-1.104-.396-1.776zm5.724.012c0-.528-.108-.992-.324-1.392a2.3 2.3 0 00-.888-.924 2.373 2.373 0 00-1.224-.324c-.464 0-.88.104-1.248.312-.368.208-.66.512-.876.912-.208.392-.312.86-.312 1.404 0 .536.104 1.008.312 1.416.216.4.508.708.876.924.368.208.784.312 1.248.312.448 0 .856-.108 1.224-.324a2.3 2.3 0 00.888-.924c.216-.4.324-.864.324-1.392zm5.014 3.372c-.752 0-1.368-.172-1.848-.516-.472-.352-.736-.828-.792-1.428h.864c.04.368.212.668.516.9.312.224.728.336 1.248.336.456 0 .812-.108 1.068-.324.264-.216.396-.484.396-.804a.748.748 0 00-.216-.552 1.462 1.462 0 00-.552-.336 7.128 7.128 0 00-.888-.276 9.09 9.09 0 01-1.188-.384 2.103 2.103 0 01-.78-.564c-.208-.256-.312-.596-.312-1.02 0-.32.096-.616.288-.888.192-.272.464-.488.816-.648a2.87 2.87 0 011.2-.24c.704 0 1.272.18 1.704.54.432.352.664.84.696 1.464h-.84a1.248 1.248 0 00-.456-.924c-.272-.24-.648-.36-1.128-.36-.424 0-.768.1-1.032.3-.264.2-.396.448-.396.744 0 .256.076.468.228.636.16.16.356.288.588.384.232.088.544.188.936.3a8.84 8.84 0 011.128.372c.28.12.52.296.72.528.2.232.304.54.312.924 0 .352-.096.668-.288.948-.192.272-.46.488-.804.648-.344.16-.74.24-1.188.24zm4.953-5.94v4.068c0 .4.076.676.228.828.152.152.42.228.804.228h.768V27h-.9c-.592 0-1.032-.136-1.32-.408-.288-.28-.432-.736-.432-1.368v-4.068h-.912v-.708h.912v-1.644h.852v1.644h1.8v.708h-1.8zm9.114 2.232c0 .288-.008.508-.024.66h-5.436c.024.496.144.92.36 1.272s.5.62.852.804a2.54 2.54 0 001.152.264c.544 0 1-.132 1.368-.396a1.85 1.85 0 00.744-1.068h.888a2.792 2.792 0 01-1.032 1.572c-.52.4-1.176.6-1.968.6a3.343 3.343 0 01-1.656-.408 3.016 3.016 0 01-1.152-1.176c-.272-.512-.408-1.108-.408-1.788 0-.68.136-1.276.408-1.788a2.836 2.836 0 011.14-1.176c.488-.272 1.044-.408 1.668-.408.624 0 1.168.136 1.632.408.472.272.832.64 1.08 1.104.256.456.384.964.384 1.524zm-.852-.024c.008-.488-.092-.904-.3-1.248a1.947 1.947 0 00-.828-.78 2.54 2.54 0 00-1.152-.264c-.624 0-1.156.2-1.596.6-.44.4-.684.964-.732 1.692h4.608zm5.46-3.036c.784 0 1.424.244 1.92.732.496.48.744 1.18.744 2.1V27h-.828v-3.744c0-.712-.18-1.256-.54-1.632-.352-.376-.836-.564-1.452-.564-.632 0-1.136.2-1.512.6-.376.4-.564.988-.564 1.764V27h-.84v-6.552h.84v1.116c.208-.4.508-.704.9-.912a2.714 2.714 0 011.332-.324zm4.138 3.384c0-.672.136-1.26.408-1.764a2.881 2.881 0 011.116-1.176c.48-.28 1.02-.42 1.62-.42.576 0 1.096.14 1.56.42.464.28.804.644 1.02 1.092V18.12h.84V27h-.84v-1.464a2.56 2.56 0 01-.984 1.128c-.456.288-.992.432-1.608.432-.6 0-1.14-.14-1.62-.42a2.964 2.964 0 01-1.116-1.188c-.264-.512-.396-1.104-.396-1.776zm5.724.012c0-.528-.108-.992-.324-1.392a2.3 2.3 0 00-.888-.924 2.373 2.373 0 00-1.224-.324c-.464 0-.88.104-1.248.312-.368.208-.66.512-.876.912-.208.392-.312.86-.312 1.404 0 .536.104 1.008.312 1.416.216.4.508.708.876.924.368.208.784.312 1.248.312.448 0 .856-.108 1.224-.324a2.3 2.3 0 00.888-.924c.216-.4.324-.864.324-1.392zm3.598-2.112c.184-.408.464-.724.84-.948.384-.224.852-.336 1.404-.336v.876h-.228c-.608 0-1.096.164-1.464.492-.368.328-.552.876-.552 1.644V27h-.84v-6.552h.84v1.164zm9.184-1.164V27h-.84v-1.152c-.192.408-.489.72-.889.936-.4.216-.848.324-1.344.324-.784 0-1.423-.24-1.92-.72-.495-.488-.743-1.192-.743-2.112v-3.828h.828v3.732c0 .712.175 1.256.528 1.632.36.376.848.564 1.464.564.632 0 1.136-.2 1.512-.6.376-.4.564-.988.564-1.764v-3.564h.84zm1.533 3.276c0-.68.136-1.272.408-1.776a2.858 2.858 0 011.128-1.176c.48-.28 1.028-.42 1.644-.42.808 0 1.472.2 1.992.6.528.4.868.944 1.02 1.632h-.9a1.808 1.808 0 00-.732-1.104c-.368-.272-.828-.408-1.38-.408-.44 0-.836.1-1.188.3-.352.2-.632.5-.84.9-.2.392-.3.876-.3 1.452s.1 1.064.3 1.464c.208.4.488.7.84.9.352.2.748.3 1.188.3.552 0 1.012-.132 1.38-.396.376-.272.62-.648.732-1.128h.9a2.748 2.748 0 01-1.02 1.62c-.528.408-1.192.612-1.992.612-.616 0-1.164-.136-1.644-.408a2.957 2.957 0 01-1.128-1.176c-.272-.512-.408-1.108-.408-1.788zM82.684 27l-2.7-2.94V27h-.84v-8.88h.84v5.256l2.64-2.928H83.8l-3.108 3.264L83.824 27h-1.14z" fill="#fff"/></svg>