<svg width="160" height="73" viewBox="0 0 160 73" fill="none" xmlns="http://www.w3.org/2000/svg"><path fill="#fff" d="M0 0h160v73H0z"/><path d="M9.629 5.89v.782L7.383 13H5.937l2.256-5.972H5.332V5.891h4.297zm3.926-.014V13h-1.367V7.556l-1.358.522V6.936l2.578-1.06h.147zm2.182 6.426c0-.215.072-.394.215-.537.143-.147.337-.22.581-.22.244 0 .438.073.581.22a.729.729 0 01.215.537.729.729 0 01-.215.537c-.143.143-.337.215-.58.215-.245 0-.439-.072-.582-.215a.729.729 0 01-.215-.537zm5.865-6.49h.18v1.163h-.063c-.31 0-.58.053-.81.16a1.478 1.478 0 00-.572.46c-.15.198-.262.44-.337.722-.075.28-.112.594-.112.943v1.196c0 .248.016.466.048.654.036.19.087.347.152.474a.81.81 0 00.234.278.52.52 0 00.6-.005.827.827 0 00.235-.268c.065-.117.114-.254.147-.41.036-.156.053-.327.053-.513a2.32 2.32 0 00-.053-.518 1.48 1.48 0 00-.152-.405.744.744 0 00-.239-.268.517.517 0 00-.308-.098.629.629 0 00-.424.151.931.931 0 00-.269.381 1.427 1.427 0 00-.102.484l-.41-.293a2.44 2.44 0 01.136-.699c.081-.221.192-.42.332-.595.14-.176.308-.313.503-.41.195-.101.415-.152.66-.152.283 0 .53.064.742.19.211.128.387.302.527.523.143.221.249.479.317.772.072.29.108.599.108.927 0 .345-.05.666-.147.962a2.43 2.43 0 01-.415.777c-.179.22-.397.393-.654.517-.254.124-.54.186-.86.186-.325 0-.62-.069-.883-.205a2.007 2.007 0 01-.674-.582 2.797 2.797 0 01-.425-.898 4.186 4.186 0 01-.147-1.143V9.72c0-.573.067-1.097.2-1.573.134-.478.331-.891.591-1.24a2.71 2.71 0 01.967-.805c.384-.192.826-.288 1.324-.288zm4.267 1.822v-.376c0-.27.049-.516.147-.737.1-.222.249-.4.444-.533.198-.133.444-.2.737-.2.297 0 .544.067.742.2.199.134.346.311.44.533.098.22.146.467.146.737v.376c0 .263-.048.506-.146.727a1.223 1.223 0 01-.444.533c-.196.133-.44.2-.733.2s-.539-.067-.737-.2a1.256 1.256 0 01-.45-.533 1.783 1.783 0 01-.146-.727zm.894-.376v.376c0 .11.016.216.048.317a.573.573 0 00.147.24.351.351 0 00.244.087c.098 0 .178-.029.24-.088a.557.557 0 00.136-.239c.033-.1.049-.207.049-.317v-.376c0-.117-.016-.225-.049-.322a.5.5 0 00-.142-.24.34.34 0 00-.244-.092.34.34 0 00-.244.092.559.559 0 00-.141.24c-.03.097-.044.205-.044.322zm1.914 4.38v-.381c0-.267.05-.511.151-.733.101-.22.25-.398.445-.532.198-.133.442-.2.732-.2.3 0 .547.067.742.2.195.134.342.311.44.532.1.222.15.466.15.733v.38c0 .268-.048.512-.146.733a1.229 1.229 0 01-.444.528c-.195.133-.44.2-.732.2-.293 0-.54-.067-.742-.2a1.257 1.257 0 01-.45-.533 1.783 1.783 0 01-.146-.727zm.893-.381v.376c0 .114.02.221.059.322.039.098.091.178.156.24a.343.343 0 00.23.087c.117 0 .206-.03.268-.088a.455.455 0 00.122-.239c.023-.1.034-.208.034-.322v-.371c0-.117-.016-.225-.048-.322a.5.5 0 00-.142-.24.324.324 0 00-.24-.093c-.1 0-.183.031-.248.093a.533.533 0 00-.147.24 1.1 1.1 0 00-.044.317zm.796-4.346l-2.915 5.557-.654-.371 2.915-5.557.654.371zm6.782 4.922V5.5h1.372V13l-1.24.005-.132-1.172zm-2.739-1.29v-.35c0-.43.036-.806.108-1.129.075-.322.185-.59.332-.805.146-.215.325-.375.537-.479.215-.107.46-.16.737-.16.25 0 .47.063.66.19.191.123.354.297.487.522.134.225.241.49.323.796.081.306.138.641.17 1.006v.508c-.038.345-.099.667-.18.966-.078.3-.185.56-.322.782a1.629 1.629 0 01-.484.522 1.175 1.175 0 01-.659.186c-.276 0-.522-.056-.737-.166a1.474 1.474 0 01-.537-.489 2.5 2.5 0 01-.327-.8 5.047 5.047 0 01-.108-1.1zm1.367-.35v.35c0 .248.012.462.034.64.027.176.067.321.123.435a.61.61 0 00.23.25.72.72 0 00.35.077.69.69 0 00.445-.136.837.837 0 00.254-.386c.058-.166.091-.357.098-.571v-.923a2.351 2.351 0 00-.064-.484 1.215 1.215 0 00-.151-.366.7.7 0 00-.244-.234.645.645 0 00-.332-.083.702.702 0 00-.352.083.57.57 0 00-.225.259 1.616 1.616 0 00-.127.444 4.566 4.566 0 00-.039.644zm5.904 2.905c-.362 0-.682-.056-.962-.166a1.901 1.901 0 01-.703-.479 2.142 2.142 0 01-.44-.766c-.1-.3-.151-.642-.151-1.026v-.434c0-.43.049-.806.146-1.128.098-.326.236-.6.415-.82a1.64 1.64 0 01.66-.494 2.29 2.29 0 01.893-.166c.332 0 .623.055.874.166.254.108.464.27.63.488.166.215.291.482.376.801.085.32.127.69.127 1.114v.624h-3.54v-.961h2.197v-.122c0-.215-.023-.394-.068-.538a.617.617 0 00-.215-.327.646.646 0 00-.39-.107.675.675 0 00-.347.083.571.571 0 00-.225.259c-.055.117-.096.27-.122.459-.026.185-.04.408-.04.669v.434c0 .244.022.45.064.615.043.163.105.297.186.4.085.102.187.175.307.22.121.043.261.064.42.064a1.497 1.497 0 001.147-.483l.548.83a1.961 1.961 0 01-.39.37 2.134 2.134 0 01-.596.303 2.5 2.5 0 01-.801.118zm4.023-4.204V13h-1.367V7.717h1.289l.078 1.177zm1.245-1.216l-.02 1.362a2.966 2.966 0 00-.45-.04.94.94 0 00-.39.074.65.65 0 00-.268.21.977.977 0 00-.156.342 2.157 2.157 0 00-.063.464l-.26-.098c0-.345.027-.66.079-.947.055-.29.137-.54.244-.752a1.43 1.43 0 01.386-.498.83.83 0 01.517-.176c.066 0 .134.007.206.02.074.01.133.022.175.039zM51.45 5.89V13h-1.43V5.89h1.43zm3.53 0l-2.304 3.53-1.411 1.758-.274-1.431.913-1.523 1.338-2.334h1.739zM53.33 13l-1.553-3.267 1.05-.927L55.015 13H53.33zm3.594-7.5V13h-1.372V5.5h1.372zm3.213 7.598c-.362 0-.682-.056-.962-.166a1.9 1.9 0 01-.703-.479 2.14 2.14 0 01-.44-.766c-.1-.3-.151-.642-.151-1.026v-.434c0-.43.049-.806.146-1.128.098-.326.236-.6.415-.82a1.64 1.64 0 01.66-.494c.263-.11.561-.166.893-.166.332 0 .623.055.874.166.254.108.464.27.63.488.166.215.291.482.376.801.085.32.127.69.127 1.114v.624h-3.54v-.961h2.197v-.122c0-.215-.023-.394-.068-.538a.617.617 0 00-.215-.327.646.646 0 00-.39-.107.675.675 0 00-.347.083.57.57 0 00-.225.259 1.6 1.6 0 00-.122.459c-.026.185-.04.408-.04.669v.434c0 .244.022.45.064.615.043.163.105.297.186.4.085.102.187.175.308.22.12.043.26.064.42.064.24 0 .457-.042.649-.127.195-.088.361-.207.498-.356l.547.83a1.961 1.961 0 01-.39.37 2.134 2.134 0 01-.596.303 2.5 2.5 0 01-.801.118zm4.091-5.381V13h-1.372V7.717h1.372zM62.793 6.35c0-.212.067-.386.2-.523a.73.73 0 01.547-.21c.231 0 .413.07.547.21.133.137.2.311.2.523a.718.718 0 01-.205.522c-.133.137-.312.205-.537.205-.231 0-.415-.068-.552-.205a.727.727 0 01-.2-.522zm3.862 2.495V13h-1.372V7.717h1.284l.088 1.128zm-.205 1.333l-.366.01c-.007-.398.03-.754.112-1.07a2.58 2.58 0 01.357-.806 1.63 1.63 0 01.556-.512c.219-.12.461-.18.728-.18.205 0 .392.035.561.107a1.1 1.1 0 01.445.341c.123.157.22.365.288.625.068.258.102.573.102.948V13h-1.372V9.63c0-.227-.023-.403-.068-.526a.457.457 0 00-.205-.264.681.681 0 00-.342-.078.567.567 0 00-.347.112.852.852 0 00-.254.298 1.773 1.773 0 00-.15.45 2.758 2.758 0 00-.045.556zm6.114 1.606V9.343c0-.16-.02-.287-.06-.381a.379.379 0 00-.165-.205.481.481 0 00-.264-.069.544.544 0 00-.293.074.449.449 0 00-.176.21.895.895 0 00-.053.327H70.18c0-.228.044-.443.132-.645a1.53 1.53 0 01.385-.537c.173-.156.378-.278.616-.366.237-.088.504-.132.8-.132.352 0 .664.06.938.18.273.118.49.305.65.562.159.257.238.591.238 1.001v2.354c0 .296.015.537.044.723.033.185.08.345.142.478V13h-1.377a2.295 2.295 0 01-.142-.547 5.091 5.091 0 01-.043-.669zm.166-2.012l.004.82h-.503a.854.854 0 00-.341.064.658.658 0 00-.24.18.747.747 0 00-.146.265c-.03.1-.044.208-.044.322 0 .127.018.234.054.322a.414.414 0 00.415.269c.15 0 .28-.031.39-.093a.633.633 0 00.245-.225c.055-.088.073-.169.053-.244l.313.532c-.04.12-.093.246-.161.376-.066.13-.149.251-.25.362-.1.11-.226.202-.375.273-.147.069-.321.103-.523.103a1.57 1.57 0 01-.776-.196 1.45 1.45 0 01-.557-.546 1.66 1.66 0 01-.2-.835c0-.267.042-.508.127-.723.088-.218.218-.402.39-.552.173-.153.391-.27.655-.351.263-.082.573-.123.927-.123h.543zm3.564-.927V13h-1.372V7.717h1.284l.088 1.128zm-.205 1.333l-.366.01c-.007-.398.03-.754.112-1.07a2.58 2.58 0 01.356-.806 1.63 1.63 0 01.557-.512c.218-.12.46-.18.728-.18.205 0 .392.035.561.107a1.1 1.1 0 01.444.341c.124.157.22.365.288.625.069.258.103.573.103.948V13H77.5V9.63c0-.227-.023-.403-.068-.526a.456.456 0 00-.205-.264.681.681 0 00-.342-.078.567.567 0 00-.347.112.851.851 0 00-.254.298 1.773 1.773 0 00-.151.45 2.758 2.758 0 00-.044.556zm5.22-4.678V13h-1.373V5.5h1.373zm3.213 7.598c-.362 0-.683-.056-.962-.166a1.901 1.901 0 01-.704-.479 2.142 2.142 0 01-.439-.766c-.1-.3-.151-.642-.151-1.026v-.434c0-.43.048-.806.146-1.128.098-.326.236-.6.415-.82a1.64 1.64 0 01.66-.494 2.29 2.29 0 01.893-.166c.332 0 .623.055.874.166.254.108.464.27.63.488.166.215.291.482.376.801.084.32.127.69.127 1.114v.624h-3.54v-.961h2.197v-.122c0-.215-.023-.394-.068-.538a.617.617 0 00-.215-.327.646.646 0 00-.39-.107.675.675 0 00-.348.083.571.571 0 00-.224.259c-.056.117-.096.27-.122.459-.026.185-.04.408-.04.669v.434c0 .244.022.45.064.615.043.163.104.297.186.4.084.102.187.175.307.22.12.043.26.064.42.064a1.497 1.497 0 001.147-.483l.548.83a1.961 1.961 0 01-.391.37 2.134 2.134 0 01-.596.303 2.5 2.5 0 01-.8.118zm5.434-5.381h1.24V13c0 .482-.093.876-.278 1.182a1.62 1.62 0 01-.767.678c-.325.147-.706.22-1.142.22-.166 0-.353-.023-.562-.068a2.649 2.649 0 01-.595-.21 1.577 1.577 0 01-.474-.332l.464-.947c.127.126.293.234.498.322.205.09.407.136.605.136.192 0 .352-.03.479-.092a.58.58 0 00.293-.303c.068-.143.102-.335.102-.576V8.942l.137-1.225zm-2.95 2.827v-.352c0-.43.041-.805.123-1.128.081-.322.198-.59.352-.805.153-.215.34-.375.561-.479a1.72 1.72 0 01.752-.16c.29 0 .532.063.728.19.195.123.353.297.473.522.124.225.218.49.283.796.069.306.12.641.157 1.006v.508a6.076 6.076 0 01-.176.966c-.078.3-.183.56-.313.782-.13.221-.29.395-.478.522a1.22 1.22 0 01-.684.186c-.273 0-.52-.056-.742-.166a1.57 1.57 0 01-.561-.489 2.446 2.446 0 01-.352-.8 4.462 4.462 0 01-.122-1.1zm1.373-.352v.352c0 .247.015.46.044.64.032.175.081.32.146.434.065.11.148.194.25.25a.809.809 0 00.366.077c.198 0 .356-.045.473-.136a.806.806 0 00.264-.386c.059-.166.091-.357.097-.571v-.923a1.976 1.976 0 00-.063-.484 1.218 1.218 0 00-.151-.366.675.675 0 00-.254-.234.73.73 0 00-.357-.083.74.74 0 00-.361.083.67.67 0 00-.254.259 1.473 1.473 0 00-.151.444 3.667 3.667 0 00-.05.644zm5.967 2.906c-.362 0-.682-.056-.962-.166a1.9 1.9 0 01-.703-.479 2.14 2.14 0 01-.44-.766c-.1-.3-.151-.642-.151-1.026v-.434c0-.43.049-.806.146-1.128.098-.326.236-.6.415-.82a1.64 1.64 0 01.66-.494 2.29 2.29 0 01.893-.166c.332 0 .624.055.874.166.254.108.464.27.63.488.166.215.291.482.376.801.085.32.127.69.127 1.114v.624h-3.54v-.961h2.197v-.122c0-.215-.023-.394-.068-.538a.617.617 0 00-.215-.327.646.646 0 00-.39-.107.675.675 0 00-.347.083.571.571 0 00-.225.259c-.055.117-.096.27-.122.459-.026.185-.04.408-.04.669v.434c0 .244.022.45.064.615.043.163.105.297.186.4.085.102.187.175.308.22.12.043.26.064.42.064a1.497 1.497 0 001.147-.483l.547.83a1.961 1.961 0 01-.39.37 2.134 2.134 0 01-.596.303 2.5 2.5 0 01-.801.118zm4.023-4.204V13h-1.367V7.717h1.289l.078 1.177zm1.245-1.216l-.02 1.362a2.966 2.966 0 00-.45-.04.94.94 0 00-.39.074.652.652 0 00-.268.21.977.977 0 00-.156.342 2.157 2.157 0 00-.063.464l-.26-.098c0-.345.027-.66.079-.947.055-.29.137-.54.244-.752a1.43 1.43 0 01.386-.498.83.83 0 01.517-.176c.066 0 .134.007.206.02.074.01.133.022.175.039zm2.066-2.183V13h-1.368V5.495h1.368zm2.778 2.222l-1.86 2.627-1.119 1.255-.483-1.04.859-1.255.972-1.587h1.631zM103.032 13l-1.152-2.427.942-.869L104.6 13h-1.568zm1.909-2.46v-.357c0-.414.049-.78.147-1.099.101-.319.244-.586.43-.8.185-.219.408-.383.669-.494.263-.114.558-.17.883-.17.329 0 .624.056.884.17.264.11.488.275.674.493.189.215.334.482.434.801.101.319.152.685.152 1.099v.356c0 .41-.051.775-.152 1.094-.1.319-.245.587-.434.806a1.79 1.79 0 01-.669.493c-.26.11-.553.166-.879.166-.325 0-.62-.056-.884-.166a1.83 1.83 0 01-.674-.494 2.263 2.263 0 01-.434-.805 3.726 3.726 0 01-.147-1.094zm1.368-.357v.356c0 .244.016.456.048.635.036.179.087.327.152.444.068.117.15.204.244.259a.633.633 0 00.327.083.662.662 0 00.332-.083.61.61 0 00.239-.259c.065-.117.113-.265.142-.444a3.55 3.55 0 00.049-.635v-.356a3.2 3.2 0 00-.054-.625 1.482 1.482 0 00-.151-.445.69.69 0 00-.244-.263.577.577 0 00-.323-.093c-.12 0-.228.03-.322.093a.757.757 0 00-.239.263 1.481 1.481 0 00-.152.445 3.59 3.59 0 00-.048.625zm5.112-1.338V13h-1.372V7.717h1.284l.088 1.128zm-.205 1.333l-.366.01a4.022 4.022 0 01.112-1.07 2.59 2.59 0 01.356-.806c.157-.224.342-.395.557-.512.218-.12.461-.18.728-.18.205 0 .392.035.561.107.173.071.321.185.444.341.124.157.22.365.288.625.069.258.103.573.103.948V13h-1.372V9.63c0-.227-.023-.403-.068-.526a.459.459 0 00-.205-.264.686.686 0 00-.342-.078.568.568 0 00-.347.112.847.847 0 00-.254.298 1.785 1.785 0 00-.151.45 2.744 2.744 0 00-.044.556zm6.089-2.461v1.03h-2.696v-1.03h2.696zm-2.076-1.304h1.363v4.976c0 .146.014.259.044.337a.298.298 0 00.132.166c.061.029.143.043.244.043a.928.928 0 00.322-.039v1.07a1.87 1.87 0 01-.342.098 2.228 2.228 0 01-.42.034c-.273 0-.511-.052-.713-.157a1.064 1.064 0 01-.463-.498c-.111-.23-.167-.534-.167-.908V6.413zm4.966 6.685c-.361 0-.682-.056-.962-.166a1.905 1.905 0 01-.703-.479 2.142 2.142 0 01-.439-.766 3.202 3.202 0 01-.152-1.026v-.434c0-.43.049-.806.147-1.128.098-.326.236-.6.415-.82.179-.222.399-.386.659-.494.264-.11.562-.166.894-.166.332 0 .623.055.874.166.254.108.464.27.63.488.166.215.291.482.376.801.084.32.127.69.127 1.114v.624h-3.54v-.961h2.197v-.122c0-.215-.023-.394-.069-.538a.616.616 0 00-.214-.327.647.647 0 00-.391-.107.677.677 0 00-.347.083.57.57 0 00-.224.259 1.58 1.58 0 00-.122.459 4.91 4.91 0 00-.039.669v.434c0 .244.021.45.063.615.042.163.104.297.186.4.084.102.187.175.307.22.121.043.261.064.42.064a1.6 1.6 0 00.65-.127c.195-.088.361-.207.498-.356l.546.83a1.946 1.946 0 01-.39.37 2.137 2.137 0 01-.596.303 2.5 2.5 0 01-.801.118zm3.999-4.253V13h-1.372V7.717h1.284l.088 1.128zm-.205 1.333l-.366.01a4.064 4.064 0 01.112-1.07 2.59 2.59 0 01.357-.806c.156-.224.342-.395.556-.512.219-.12.461-.18.728-.18.205 0 .392.035.562.107.172.071.32.185.444.341.124.157.22.365.288.625.068.258.102.573.102.948V13H125.4V9.63c0-.227-.022-.403-.068-.526a.459.459 0 00-.205-.264.68.68 0 00-.342-.078.568.568 0 00-.347.112.855.855 0 00-.253.298 1.746 1.746 0 00-.152.45 2.817 2.817 0 00-.044.556zM7.065 22.945l.85-4.228h1.426L7.89 24h-.855l.03-1.055zm-.503-4.228l.865 4.233L7.44 24h-.859l-1.45-5.283h1.43zm5.498 5.38c-.36 0-.681-.055-.961-.165a1.9 1.9 0 01-.704-.479 2.143 2.143 0 01-.439-.767c-.1-.299-.151-.64-.151-1.025v-.434c0-.43.049-.806.146-1.128.098-.326.236-.6.415-.82a1.64 1.64 0 01.66-.494c.263-.11.56-.166.893-.166.332 0 .623.055.874.166.254.108.464.27.63.488.166.215.291.482.376.801.085.32.127.69.127 1.113v.625h-3.54v-.961h2.197v-.122c0-.215-.023-.394-.068-.538a.616.616 0 00-.215-.327.646.646 0 00-.39-.107.675.675 0 00-.348.083.57.57 0 00-.224.259c-.055.117-.096.27-.122.459a4.91 4.91 0 00-.04.669v.434c0 .244.022.45.064.615.043.163.104.297.186.4.084.102.187.175.307.22.12.043.26.064.42.064a1.498 1.498 0 001.148-.483l.547.83a1.962 1.962 0 01-.391.37 2.134 2.134 0 01-.596.303 2.5 2.5 0 01-.8.118zm4.024-4.203V24h-1.367v-5.283h1.289l.078 1.177zm1.245-1.216l-.02 1.362a2.97 2.97 0 00-.45-.039.94.94 0 00-.39.073.652.652 0 00-.268.21.975.975 0 00-.156.342 2.163 2.163 0 00-.064.464l-.258-.098c0-.345.026-.66.078-.947.055-.29.136-.54.244-.752a1.43 1.43 0 01.386-.498.83.83 0 01.517-.176c.065 0 .134.007.205.02.075.01.134.023.176.039zm2.134-2.178V24H18.09v-7.5h1.372zm2.52 2.217V24H20.61v-5.283h1.372zm-1.436-1.367c0-.212.067-.386.2-.523a.73.73 0 01.547-.21c.231 0 .413.07.547.21.133.137.2.311.2.523a.718.718 0 01-.205.522c-.133.137-.313.205-.537.205-.231 0-.415-.068-.552-.205a.728.728 0 01-.2-.522zm4.648 6.748c-.361 0-.682-.056-.962-.166a1.9 1.9 0 01-.703-.479 2.14 2.14 0 01-.44-.767c-.1-.299-.15-.64-.15-1.025v-.434c0-.43.048-.806.146-1.128.098-.326.236-.6.415-.82a1.64 1.64 0 01.66-.494c.263-.11.56-.166.893-.166.332 0 .623.055.874.166.254.108.464.27.63.488.166.215.291.482.376.801.084.32.127.69.127 1.113v.625h-3.54v-.961h2.197v-.122c0-.215-.023-.394-.069-.538a.617.617 0 00-.214-.327.646.646 0 00-.391-.107.675.675 0 00-.347.083.57.57 0 00-.224.259 1.6 1.6 0 00-.122.459c-.026.185-.04.408-.04.669v.434c0 .244.022.45.064.615.042.163.104.297.186.4.084.102.187.175.307.22.12.043.26.064.42.064a1.497 1.497 0 001.147-.483l.547.83a1.961 1.961 0 01-.39.37 2.134 2.134 0 01-.596.303 2.5 2.5 0 01-.8.118zm4.024-4.204V24h-1.367v-5.283h1.289l.078 1.177zm1.245-1.216l-.02 1.362a2.968 2.968 0 00-.45-.039.94.94 0 00-.39.073.652.652 0 00-.268.21.976.976 0 00-.156.342 2.157 2.157 0 00-.064.464l-.259-.098c0-.345.027-.66.079-.947.055-.29.136-.54.244-.752a1.43 1.43 0 01.385-.498.83.83 0 01.518-.176c.065 0 .134.007.205.02.075.01.134.023.176.039zm2.73 5.42c-.362 0-.683-.056-.963-.166a1.902 1.902 0 01-.703-.479 2.142 2.142 0 01-.44-.767c-.1-.299-.15-.64-.15-1.025v-.434c0-.43.048-.806.146-1.128.098-.326.236-.6.415-.82a1.64 1.64 0 01.66-.494c.263-.11.56-.166.893-.166.332 0 .623.055.874.166.254.108.464.27.63.488.166.215.291.482.376.801.084.32.127.69.127 1.113v.625h-3.54v-.961h2.197v-.122a1.8 1.8 0 00-.069-.538.616.616 0 00-.214-.327.645.645 0 00-.391-.107.675.675 0 00-.347.083.57.57 0 00-.224.259c-.056.117-.096.27-.122.459a4.91 4.91 0 00-.04.669v.434c0 .244.022.45.064.615.042.163.104.297.186.4.084.102.187.175.307.22.12.043.26.064.42.064a1.497 1.497 0 001.148-.483l.547.83a1.96 1.96 0 01-.391.37 2.133 2.133 0 01-.596.303 2.5 2.5 0 01-.8.118zm3.998-4.253V24H35.82v-5.283h1.285l.087 1.128zm-.205 1.333l-.366.01c-.006-.398.031-.754.112-1.07a2.58 2.58 0 01.357-.805 1.63 1.63 0 01.556-.513c.219-.12.461-.18.728-.18.205 0 .392.035.561.107.173.071.321.185.445.341.124.157.22.365.288.625.068.258.102.573.102.948V24h-1.372v-3.37a1.59 1.59 0 00-.068-.526.457.457 0 00-.205-.264.682.682 0 00-.342-.078.567.567 0 00-.346.112.852.852 0 00-.254.298 1.776 1.776 0 00-.152.45 2.758 2.758 0 00-.044.556zm10.987-.913v2.93a2.874 2.874 0 01-1.201.747c-.31.104-.687.156-1.133.156-.394 0-.752-.062-1.075-.186a2.181 2.181 0 01-.825-.561 2.562 2.562 0 01-.522-.948c-.12-.38-.18-.831-.18-1.352V19.84c0-.514.056-.962.17-1.343.117-.384.287-.703.508-.957.221-.254.485-.443.79-.566.31-.124.658-.186 1.046-.186.534 0 .971.09 1.313.269.345.179.606.444.782.796.178.351.286.782.322 1.293h-1.382c-.023-.299-.073-.533-.152-.703a.714.714 0 00-.317-.361 1.105 1.105 0 00-.532-.112 1.11 1.11 0 00-.493.102.83.83 0 00-.352.323 1.68 1.68 0 00-.21.576c-.045.234-.068.52-.068.86v1.22c0 .335.026.622.078.86.052.237.129.43.23.58.104.15.234.259.39.327.16.066.347.098.562.098.172 0 .31-.018.415-.054.104-.035.187-.073.249-.112a2.38 2.38 0 01.16-.098v-1.308h-1.02v-1.08h2.447zm3.09 3.833c-.36 0-.681-.056-.962-.166a1.9 1.9 0 01-.703-.479 2.142 2.142 0 01-.439-.767 3.203 3.203 0 01-.151-1.025v-.434c0-.43.048-.806.146-1.128.098-.326.236-.6.415-.82a1.64 1.64 0 01.66-.494c.263-.11.56-.166.893-.166.332 0 .623.055.874.166.254.108.464.27.63.488.166.215.291.482.376.801.084.32.127.69.127 1.113v.625h-3.54v-.961h2.197v-.122a1.8 1.8 0 00-.068-.538.616.616 0 00-.215-.327.645.645 0 00-.39-.107.675.675 0 00-.348.083.57.57 0 00-.224.259c-.056.117-.096.27-.122.459a4.91 4.91 0 00-.04.669v.434c0 .244.022.45.064.615.042.163.104.297.186.4.084.102.187.175.307.22.12.043.26.064.42.064a1.497 1.497 0 001.147-.483l.548.83a1.96 1.96 0 01-.391.37 2.133 2.133 0 01-.596.303 2.5 2.5 0 01-.8.118zm4.092-7.598V24h-1.372v-7.5h1.372zm3.643 6.333V16.5h1.372V24l-1.24.005-.132-1.172zm-2.74-1.29v-.35c0-.43.036-.806.108-1.129.075-.322.185-.59.332-.805.146-.215.325-.375.537-.479.215-.107.46-.16.737-.16.251 0 .47.063.66.19.192.123.354.297.488.522.133.225.24.49.322.796.081.306.139.641.171 1.006v.508c-.039.345-.1.667-.18.966-.079.3-.186.56-.323.782a1.629 1.629 0 01-.483.522 1.175 1.175 0 01-.66.186c-.276 0-.522-.056-.737-.166a1.475 1.475 0 01-.537-.489 2.502 2.502 0 01-.327-.8 5.047 5.047 0 01-.107-1.1zm1.368-.35v.35c0 .248.011.462.034.64.026.176.067.321.122.435a.61.61 0 00.23.25.72.72 0 00.351.077.69.69 0 00.444-.136.837.837 0 00.254-.386c.059-.166.091-.357.098-.571v-.923a2.351 2.351 0 00-.063-.484 1.215 1.215 0 00-.152-.366.7.7 0 00-.244-.234.645.645 0 00-.332-.083.702.702 0 00-.352.083.57.57 0 00-.224.259 1.616 1.616 0 00-.127.444 4.564 4.564 0 00-.04.644zM63.51 16.5h1.362v6.274L64.775 24h-1.264v-7.5zm4.106 4.683v.346c0 .43-.034.804-.102 1.123-.066.32-.168.586-.308.801a1.316 1.316 0 01-.527.483 1.685 1.685 0 01-.762.162 1.21 1.21 0 01-.679-.186 1.583 1.583 0 01-.478-.522 3.416 3.416 0 01-.313-.787 6.614 6.614 0 01-.17-.99V21.1c.032-.352.087-.68.165-.982.082-.303.186-.565.313-.786.127-.225.285-.399.474-.522.191-.127.418-.19.678-.19.3 0 .557.054.772.165.214.108.39.269.527.484a2.3 2.3 0 01.308.805c.068.32.102.689.102 1.109zm-1.362.346v-.346c0-.244-.01-.454-.03-.63a1.499 1.499 0 00-.107-.44.564.564 0 00-.224-.263.707.707 0 00-.376-.088.686.686 0 00-.352.083.695.695 0 00-.244.234c-.065.101-.114.221-.147.361-.029.137-.045.288-.048.454v.923c.003.225.03.424.083.596a.806.806 0 00.249.4c.117.095.273.142.468.142a.767.767 0 00.371-.078.519.519 0 00.22-.25c.056-.113.091-.26.108-.438.02-.183.029-.402.029-.66zm4.33 2.569c-.36 0-.681-.056-.961-.166a1.9 1.9 0 01-.703-.479 2.142 2.142 0 01-.44-.767c-.1-.299-.15-.64-.15-1.025v-.434c0-.43.048-.806.146-1.128.097-.326.236-.6.415-.82a1.64 1.64 0 01.659-.494c.263-.11.561-.166.893-.166.332 0 .624.055.874.166.254.108.464.27.63.488.166.215.292.482.376.801.085.32.127.69.127 1.113v.625h-3.54v-.961h2.197v-.122c0-.215-.022-.394-.068-.538a.616.616 0 00-.215-.327.646.646 0 00-.39-.107.675.675 0 00-.347.083.57.57 0 00-.225.259c-.055.117-.096.27-.122.459-.026.185-.039.408-.039.669v.434c0 .244.021.45.064.615.042.163.104.297.185.4.085.102.187.175.308.22.12.043.26.064.42.064a1.498 1.498 0 001.147-.483l.547.83a1.961 1.961 0 01-.39.37 2.134 2.134 0 01-.596.303 2.5 2.5 0 01-.801.118zm4.093-5.381V24h-1.372v-5.283h1.372zm-1.436-1.367c0-.212.067-.386.2-.523a.73.73 0 01.547-.21c.231 0 .414.07.547.21.134.137.2.311.2.523a.718.718 0 01-.205.522c-.133.137-.312.205-.537.205-.231 0-.415-.068-.552-.205a.728.728 0 01-.2-.522zm3.897 2.46V24h-1.372v-5.283h1.289l.083 1.094zm-.196 1.368l-.376.01a4.255 4.255 0 01.098-1.026c.072-.312.18-.584.322-.815.147-.231.33-.41.552-.537.221-.127.48-.19.776-.19.192 0 .37.035.533.107.162.068.304.177.424.327.12.146.214.338.279.576.065.234.097.516.097.845V24h-1.367v-3.36c0-.234-.023-.413-.068-.537a.473.473 0 00-.195-.263.587.587 0 00-.313-.078.562.562 0 00-.342.107.782.782 0 00-.239.303 1.927 1.927 0 00-.137.45c-.029.172-.044.357-.044.556zm2.574-.137l-.494.064a4.026 4.026 0 01.093-.972c.069-.303.174-.567.318-.791.143-.228.322-.405.537-.532.218-.127.47-.19.757-.19.214 0 .41.035.586.107.175.071.325.187.449.346.127.157.223.363.288.62a3.7 3.7 0 01.102.938V24h-1.372v-3.364c0-.238-.023-.42-.068-.547-.046-.127-.11-.213-.195-.259a.63.63 0 00-.303-.068.503.503 0 00-.308.097.773.773 0 00-.215.274 1.48 1.48 0 00-.131.405c-.03.153-.044.32-.044.503zm9.428.59h1.421c-.02.535-.127.985-.322 1.353a1.957 1.957 0 01-.835.83c-.358.19-.791.284-1.299.284-.394 0-.744-.065-1.05-.196a2.096 2.096 0 01-.78-.586 2.61 2.61 0 01-.49-.952 4.853 4.853 0 01-.16-1.313v-1.206c0-.495.057-.933.17-1.314.118-.38.284-.7.499-.957.218-.26.48-.456.786-.586.309-.133.657-.2 1.045-.2.517 0 .95.098 1.298.293.349.195.617.48.806.855.192.37.308.825.347 1.362h-1.426c-.01-.339-.049-.604-.117-.796-.065-.195-.17-.332-.313-.41-.143-.082-.341-.122-.595-.122a1.08 1.08 0 00-.489.102.787.787 0 00-.337.318 1.704 1.704 0 00-.195.576c-.039.237-.058.527-.058.869v1.216c0 .335.017.622.053.86.036.233.093.426.171.575.078.15.184.26.318.328.136.068.309.102.517.102.241 0 .435-.036.581-.107a.67.67 0 00.332-.386c.072-.186.113-.45.122-.791zm3.745-4.74V24h-1.43v-7.11h1.43zm2.227 3.022v1.182h-2.588v-1.182h2.588zm.273-3.022v1.186h-2.86v-1.186h2.86zM97.88 24h-1.254l.01-1.182h1.245c.345 0 .614-.062.805-.185.193-.124.328-.32.406-.586.081-.267.122-.617.122-1.05V19.89c0-.33-.021-.607-.064-.835a1.362 1.362 0 00-.215-.557.892.892 0 00-.405-.317 1.689 1.689 0 00-.63-.103h-1.298v-1.186H97.9a3 3 0 011.119.2c.335.133.623.329.864.586.241.254.426.568.556.942.131.375.196.8.196 1.28v1.098c0 .482-.065.908-.196 1.28-.13.37-.315.685-.556.942a2.343 2.343 0 01-.864.58c-.339.134-.718.201-1.138.201zm-.424-7.11V24h-1.43v-7.11h1.43zm6.616 3.492v1.137h-2.378v-1.137h2.378zm5.161-.61v1.181h-2.915v-1.181h2.915zm-2.509-2.881V24h-1.431v-7.11h1.431zm3.545 0V24h-1.416v-7.11h1.416zm3.427 5.893v-2.441c0-.16-.019-.287-.058-.381a.38.38 0 00-.166-.205.485.485 0 00-.264-.069.544.544 0 00-.293.074.449.449 0 00-.176.21.89.89 0 00-.053.327h-1.373c0-.228.044-.443.132-.645.088-.205.217-.384.386-.537.173-.156.378-.278.615-.366.238-.088.505-.132.801-.132.352 0 .664.06.938.18a1.4 1.4 0 01.649.562c.159.258.239.591.239 1.001v2.354c0 .296.015.537.044.723.033.185.08.345.142.478V24h-1.377a2.303 2.303 0 01-.142-.547 5.143 5.143 0 01-.044-.669zm.166-2.011l.005.82h-.503a.857.857 0 00-.342.063.738.738 0 00-.385.444c-.03.102-.044.209-.044.323 0 .127.018.234.053.322.036.088.09.155.162.2a.46.46 0 00.254.069.789.789 0 00.39-.093.63.63 0 00.244-.225c.056-.088.074-.169.054-.244l.312.532c-.039.12-.092.246-.161.376-.065.13-.148.251-.249.362-.101.11-.226.201-.376.273-.146.069-.32.103-.522.103-.283 0-.542-.065-.776-.196a1.448 1.448 0 01-.557-.547 1.654 1.654 0 01-.2-.835c0-.266.042-.507.127-.722.088-.218.218-.402.39-.552.173-.153.391-.27.655-.351.263-.082.572-.122.927-.122h.542zm3.565-.928V24h-1.372v-5.283h1.284l.088 1.128zm-.205 1.333l-.367.01a4.02 4.02 0 01.113-1.07c.084-.316.203-.584.356-.805.156-.225.342-.396.557-.513.218-.12.46-.18.727-.18.205 0 .393.035.562.107.172.071.321.185.444.341.124.157.22.365.288.625.069.258.103.573.103.948V24h-1.372v-3.37c0-.227-.023-.403-.069-.526a.451.451 0 00-.205-.264.68.68 0 00-.341-.078.566.566 0 00-.347.112.847.847 0 00-.254.298 1.745 1.745 0 00-.151.45 2.674 2.674 0 00-.044.556zm6.342 1.655V16.5h1.373V24l-1.241.005-.132-1.172zm-2.739-1.29v-.35c0-.43.036-.806.108-1.129.074-.322.185-.59.332-.805.146-.215.325-.375.537-.479.215-.107.46-.16.737-.16.251 0 .47.063.659.19.192.123.355.297.489.522.133.225.24.49.322.796.081.306.138.641.171 1.006v.508c-.039.345-.1.667-.181.966-.078.3-.186.56-.322.782a1.635 1.635 0 01-.484.522 1.172 1.172 0 01-.659.186c-.277 0-.522-.056-.737-.166a1.467 1.467 0 01-.537-.489 2.486 2.486 0 01-.327-.8 5.02 5.02 0 01-.108-1.1zm1.367-.35v.35c0 .248.012.462.035.64.026.176.066.321.122.435.058.11.135.194.229.25a.723.723 0 00.352.077.69.69 0 00.444-.136.834.834 0 00.254-.386 1.89 1.89 0 00.098-.571v-.923a2.37 2.37 0 00-.064-.484 1.223 1.223 0 00-.151-.366.704.704 0 00-.244-.234.646.646 0 00-.332-.083.704.704 0 00-.352.083.578.578 0 00-.225.259 1.655 1.655 0 00-.127.444 4.564 4.564 0 00-.039.644zm5.904 2.905a2.6 2.6 0 01-.962-.166 1.897 1.897 0 01-.703-.479 2.144 2.144 0 01-.44-.767 3.203 3.203 0 01-.151-1.025v-.434c0-.43.049-.806.146-1.128a2.38 2.38 0 01.415-.82c.179-.222.399-.386.66-.494.263-.11.561-.166.893-.166.332 0 .623.055.874.166.254.108.464.27.63.488.166.215.291.482.376.801.085.32.127.69.127 1.113v.625h-3.54v-.961h2.197v-.122c0-.215-.023-.394-.068-.538a.617.617 0 00-.215-.327.647.647 0 00-.391-.107.674.674 0 00-.346.083.566.566 0 00-.225.259c-.055.117-.096.27-.122.459a4.91 4.91 0 00-.039.669v.434c0 .244.021.45.063.615.043.163.105.297.186.4.085.102.187.175.308.22.12.043.26.064.419.064.241 0 .458-.042.65-.127.195-.088.361-.207.498-.356l.547.83a2.124 2.124 0 01-.987.674 2.498 2.498 0 01-.8.117zm4.092-7.598V24h-1.373v-7.5h1.373zm4.765 3.31V24h-1.372v-5.283h1.289l.083 1.094zm-.195 1.368l-.376.01a4.261 4.261 0 01.097-1.026c.072-.312.18-.584.323-.815.146-.231.33-.41.552-.537.221-.127.48-.19.776-.19.192 0 .369.035.532.107.163.068.304.177.425.327.12.146.213.338.278.576.065.234.098.516.098.845V24h-1.367v-3.36c0-.234-.023-.413-.069-.537a.468.468 0 00-.195-.263.587.587 0 00-.312-.078.56.56 0 00-.342.107.781.781 0 00-.24.303 1.928 1.928 0 00-.136.45c-.03.172-.044.357-.044.556zm2.573-.137l-.493.064a3.966 3.966 0 01.093-.972c.068-.303.174-.567.317-.791.143-.228.322-.405.537-.532.218-.127.471-.19.757-.19.215 0 .41.035.586.107.176.071.325.187.449.346.127.157.223.363.288.62.069.258.103.57.103.938V24h-1.372v-3.364c0-.238-.023-.42-.069-.547-.045-.127-.11-.213-.195-.259a.632.632 0 00-.303-.068.502.502 0 00-.307.097.763.763 0 00-.215.274 1.457 1.457 0 00-.132.405c-.029.153-.044.32-.044.503zm5.103-2.324V24h-1.372v-5.283h1.372zm-1.436-1.367c0-.212.067-.386.2-.523a.73.73 0 01.547-.21c.231 0 .414.07.547.21.133.137.2.311.2.523a.717.717 0 01-.205.522c-.133.137-.312.205-.537.205-.231 0-.415-.068-.552-.205a.73.73 0 01-.2-.522zm4.824 1.367v1.03h-2.695v-1.03h2.695zm-2.075-1.304h1.362v4.976c0 .146.015.259.044.337.03.078.074.133.132.166.062.029.143.044.244.044a.998.998 0 00.323-.039v1.069a1.917 1.917 0 01-.342.098 2.228 2.228 0 01-.42.034c-.274 0-.511-.052-.713-.157a1.066 1.066 0 01-.464-.498c-.111-.23-.166-.534-.166-.908v-5.122zM8.067 33.833V27.5h1.371V35l-1.24.005-.132-1.172zm-2.74-1.29v-.35c0-.43.036-.806.108-1.128.074-.323.185-.591.332-.806.146-.215.325-.375.537-.479.215-.107.46-.16.737-.16.25 0 .47.063.66.19.191.123.354.297.487.522.134.225.241.49.323.796.081.306.138.641.17 1.006v.508c-.038.345-.099.667-.18.966-.078.3-.186.56-.322.782a1.63 1.63 0 01-.484.522 1.175 1.175 0 01-.659.186c-.277 0-.522-.056-.737-.166a1.474 1.474 0 01-.537-.489 2.5 2.5 0 01-.327-.8 5.046 5.046 0 01-.108-1.1zm1.367-.35v.35c0 .248.012.462.035.64.026.176.066.321.122.435a.61.61 0 00.23.25.72.72 0 00.35.077.69.69 0 00.445-.136.837.837 0 00.254-.386c.058-.166.091-.357.098-.571v-.923a2.351 2.351 0 00-.064-.484 1.215 1.215 0 00-.151-.366.7.7 0 00-.244-.234.645.645 0 00-.332-.083.703.703 0 00-.352.083.571.571 0 00-.225.259 1.618 1.618 0 00-.127.444c-.026.179-.039.394-.039.644zm5.21-2.476V35h-1.372v-5.283h1.372zM10.47 28.35c0-.212.067-.386.2-.523a.73.73 0 01.547-.21c.23 0 .413.07.547.21.133.137.2.311.2.523a.718.718 0 01-.205.522c-.134.137-.313.205-.537.205-.231 0-.415-.068-.552-.205a.728.728 0 01-.2-.522zm4.648 6.748c-.361 0-.682-.056-.962-.166a1.901 1.901 0 01-.703-.479 2.142 2.142 0 01-.44-.767c-.1-.299-.15-.64-.15-1.025v-.434c0-.43.048-.806.146-1.128.098-.326.236-.6.415-.82a1.64 1.64 0 01.659-.494 2.29 2.29 0 01.894-.166c.332 0 .623.055.874.166.254.108.464.27.63.488.165.215.29.482.375.801.085.32.127.69.127 1.113v.626h-3.54v-.962h2.198v-.122c0-.215-.023-.394-.069-.538a.616.616 0 00-.215-.327.645.645 0 00-.39-.107.675.675 0 00-.347.083.571.571 0 00-.224.259c-.056.117-.096.27-.122.459-.027.185-.04.408-.04.669v.434c0 .244.022.45.064.615.042.163.104.297.185.4.085.102.188.175.308.22.12.043.26.064.42.064a1.497 1.497 0 001.147-.483l.547.83a1.961 1.961 0 01-.39.37 2.134 2.134 0 01-.596.303 2.5 2.5 0 01-.8.118zm5-1.524a.363.363 0 00-.093-.244 1.097 1.097 0 00-.293-.22 4.828 4.828 0 00-.532-.258 5.635 5.635 0 01-.64-.303 2.25 2.25 0 01-.473-.347 1.284 1.284 0 01-.288-.434 1.488 1.488 0 01-.098-.557c0-.225.04-.431.122-.62a1.49 1.49 0 01.362-.503 1.64 1.64 0 01.57-.342 2.19 2.19 0 01.767-.127c.398 0 .738.07 1.021.21.286.137.506.329.66.576.152.248.229.536.229.864h-1.367a.85.85 0 00-.054-.312.437.437 0 00-.176-.22.565.565 0 00-.317-.078.504.504 0 00-.444.234.454.454 0 00-.064.245.4.4 0 00.044.19c.032.056.083.11.151.161.069.052.16.108.273.166.118.056.261.117.43.186.352.13.64.27.864.42.228.15.398.325.508.527.111.199.166.444.166.737 0 .235-.045.448-.136.64a1.393 1.393 0 01-.386.498 1.79 1.79 0 01-.61.322 2.578 2.578 0 01-.787.113c-.426 0-.786-.085-1.079-.254a1.745 1.745 0 01-.664-.65 1.675 1.675 0 01-.224-.83h1.298c.007.176.04.314.098.415a.494.494 0 00.25.205c.103.04.219.059.346.059a.85.85 0 00.312-.049.39.39 0 00.19-.161.517.517 0 00.064-.259zm4.326 1.524c-.361 0-.682-.056-.962-.166a1.902 1.902 0 01-.703-.479 2.142 2.142 0 01-.44-.767c-.1-.299-.15-.64-.15-1.025v-.434c0-.43.048-.806.146-1.128.098-.326.236-.6.415-.82a1.64 1.64 0 01.66-.494c.263-.11.56-.166.893-.166.332 0 .623.055.874.166.254.108.464.27.63.488.166.215.291.482.376.801.084.32.127.69.127 1.113v.626h-3.54v-.962h2.197v-.122a1.8 1.8 0 00-.069-.538.616.616 0 00-.214-.327.645.645 0 00-.391-.107.675.675 0 00-.347.083.57.57 0 00-.224.259c-.056.117-.096.27-.122.459a4.91 4.91 0 00-.04.669v.434c0 .244.022.45.064.615.042.163.104.297.186.4.084.102.187.175.307.22.12.043.26.064.42.064a1.497 1.497 0 001.147-.483l.547.83a1.96 1.96 0 01-.39.37 2.133 2.133 0 01-.596.303 2.5 2.5 0 01-.8.118zm4.034-4.287V35h-1.372v-5.283h1.289l.083 1.094zm-.196 1.367l-.376.01a4.255 4.255 0 01.098-1.026c.072-.312.179-.584.322-.815.147-.231.33-.41.552-.537.221-.127.48-.19.776-.19.192 0 .37.035.533.107.162.068.304.177.424.327.12.146.214.338.279.576.065.234.097.516.097.845V35H29.62v-3.36c0-.234-.023-.413-.068-.537a.473.473 0 00-.195-.263.587.587 0 00-.313-.078.562.562 0 00-.342.107.782.782 0 00-.24.303 1.922 1.922 0 00-.136.45c-.03.172-.044.357-.044.556zm2.574-.137l-.494.064a4.021 4.021 0 01.093-.972c.069-.303.174-.567.317-.791.144-.228.323-.405.538-.532.218-.127.47-.19.756-.19.215 0 .41.035.586.107.176.071.326.187.45.346.127.157.223.363.288.62a3.7 3.7 0 01.102.938V35H32.12v-3.364c0-.238-.023-.42-.068-.547-.046-.127-.11-.213-.196-.259a.63.63 0 00-.302-.068.503.503 0 00-.308.097.773.773 0 00-.215.274 1.48 1.48 0 00-.132.405c-.029.153-.043.32-.043.503zm8.613-2.88L37.939 35h-1.508l2.221-7.11h.943l-.127 1.27zM40.674 35l-1.538-5.84-.142-1.27h.957L42.192 35h-1.518zm.053-2.651v1.186H37.52V32.35h3.207zm3.184-1.504V35H42.54v-5.283h1.284l.088 1.128zm-.205 1.333l-.366.01a4.03 4.03 0 01.112-1.07c.085-.316.204-.584.357-.805a1.63 1.63 0 01.556-.513c.218-.12.46-.18.728-.18.205 0 .392.035.561.107.173.071.32.185.445.341.123.157.22.365.288.625.068.258.102.573.102.948V35h-1.372v-3.37a1.59 1.59 0 00-.068-.526.457.457 0 00-.205-.264.682.682 0 00-.342-.078.567.567 0 00-.347.112.85.85 0 00-.254.298 1.772 1.772 0 00-.151.45 2.751 2.751 0 00-.044.556zm3.79-4.678h1.361v6.274L48.76 35h-1.265v-7.5zm4.106 4.683v.346c0 .43-.035.804-.103 1.123-.065.32-.168.586-.308.801a1.316 1.316 0 01-.527.483 1.685 1.685 0 01-.762.162 1.21 1.21 0 01-.678-.186 1.582 1.582 0 01-.479-.522 3.416 3.416 0 01-.312-.787 6.601 6.601 0 01-.171-.99V32.1c.032-.352.088-.68.166-.982.081-.303.185-.565.312-.786a1.48 1.48 0 01.474-.522c.192-.127.418-.19.679-.19.3 0 .556.054.771.165.215.108.39.269.527.484a2.3 2.3 0 01.308.805c.068.32.103.689.103 1.109zm-1.363.346v-.346c0-.244-.01-.454-.029-.63a1.499 1.499 0 00-.108-.44.563.563 0 00-.224-.263.706.706 0 00-.376-.088.686.686 0 00-.352.083.696.696 0 00-.244.234c-.065.101-.114.221-.146.361a2.4 2.4 0 00-.05.454v.923c.004.225.032.424.084.596a.806.806 0 00.249.4c.117.095.273.142.469.142a.767.767 0 00.37-.078.518.518 0 00.22-.25c.056-.113.092-.26.108-.439.02-.182.03-.402.03-.659zm3.638-2.812V35h-1.372v-5.283h1.372zm-1.436-1.367c0-.212.067-.386.2-.523a.73.73 0 01.547-.21c.232 0 .414.07.547.21.134.137.2.311.2.523a.718.718 0 01-.205.522c-.133.137-.312.205-.537.205-.23 0-.415-.068-.551-.205a.728.728 0 01-.2-.522zm4.649 6.748c-.362 0-.682-.056-.962-.166a1.9 1.9 0 01-.703-.479 2.14 2.14 0 01-.44-.767 3.203 3.203 0 01-.151-1.025v-.434c0-.43.049-.806.146-1.128.098-.326.237-.6.416-.82a1.64 1.64 0 01.659-.494c.263-.11.561-.166.893-.166.332 0 .624.055.874.166.254.108.464.27.63.488.166.215.291.482.376.801.085.32.127.69.127 1.113v.626h-3.54v-.962h2.197v-.122c0-.215-.023-.394-.068-.538a.616.616 0 00-.215-.327.646.646 0 00-.39-.107.675.675 0 00-.347.083.57.57 0 00-.225.259c-.055.117-.096.27-.122.459a4.91 4.91 0 00-.039.669v.434c0 .244.021.45.063.615.043.163.105.297.186.4.085.102.187.175.308.22.12.043.26.064.42.064a1.498 1.498 0 001.148-.483l.546.83a1.962 1.962 0 01-.39.37 2.134 2.134 0 01-.596.303 2.5 2.5 0 01-.801.118zm4.96-5.381v1.03h-2.694v-1.03h2.695zm-2.074-1.304h1.362v4.976c0 .146.014.258.044.337.03.078.073.133.132.166.061.029.143.043.244.043a.95.95 0 00.322-.039v1.07a1.89 1.89 0 01-.342.097 2.231 2.231 0 01-.42.035c-.273 0-.51-.052-.712-.157a1.066 1.066 0 01-.464-.498c-.111-.23-.166-.533-.166-.908v-5.122zm4.965 6.685c-.36 0-.682-.056-.962-.166a1.9 1.9 0 01-.703-.479 2.14 2.14 0 01-.44-.767c-.1-.299-.15-.64-.15-1.025v-.434c0-.43.048-.806.146-1.128.098-.326.236-.6.415-.82a1.64 1.64 0 01.66-.494 2.29 2.29 0 01.893-.166c.332 0 .623.055.874.166.254.108.464.27.63.488.166.215.291.482.376.801.084.32.127.69.127 1.113v.626h-3.54v-.962h2.197v-.122c0-.215-.023-.394-.069-.538a.617.617 0 00-.214-.327.646.646 0 00-.391-.107.675.675 0 00-.347.083.57.57 0 00-.224.259 1.6 1.6 0 00-.122.459c-.026.185-.04.408-.04.669v.434c0 .244.022.45.064.615.042.163.104.297.186.4.084.102.187.175.307.22.12.043.26.064.42.064a1.497 1.497 0 001.147-.483l.547.83a1.961 1.961 0 01-.39.37 2.134 2.134 0 01-.596.303 2.5 2.5 0 01-.8.118zm4.024-4.204V35h-1.367v-5.283h1.289l.078 1.177zm1.245-1.216l-.02 1.362a2.968 2.968 0 00-.45-.039.94.94 0 00-.39.073.652.652 0 00-.268.21.976.976 0 00-.156.342 2.157 2.157 0 00-.064.464l-.258-.098c0-.345.026-.66.078-.947.055-.29.136-.54.244-.752a1.43 1.43 0 01.385-.498.83.83 0 01.518-.176c.065 0 .134.007.205.02.075.01.134.023.176.039zm-.03 4.624c0-.215.072-.394.215-.537.144-.147.337-.22.582-.22.244 0 .437.073.58.22a.73.73 0 01.215.537.73.73 0 01-.214.537c-.144.143-.337.215-.581.215-.245 0-.438-.072-.582-.215a.729.729 0 01-.214-.537zm8.467-1.099c0-.355-.096-.627-.288-.815-.192-.19-.538-.373-1.04-.552-.501-.18-.885-.366-1.152-.562a2.064 2.064 0 01-.596-.673 1.878 1.878 0 01-.195-.87c0-.563.187-1.027.561-1.391.378-.365.871-.547 1.48-.547.417 0 .788.094 1.113.283.326.186.576.444.752.776.176.333.264.697.264 1.094h-.899c0-.44-.105-.78-.317-1.02-.212-.241-.516-.361-.913-.361-.361 0-.641.1-.84.302-.198.202-.298.485-.298.85 0 .3.108.55.323.752.214.202.546.382.996.542.7.23 1.2.516 1.499.854.302.339.454.782.454 1.328 0 .577-.187 1.039-.562 1.387-.374.345-.883.518-1.528.518-.413 0-.796-.09-1.147-.269a2.093 2.093 0 01-.826-.762 2.138 2.138 0 01-.298-1.127h.899c0 .439.122.78.366 1.025.248.244.583.366 1.006.366.394 0 .69-.1.889-.303.198-.201.297-.477.297-.825zM81.538 35h-.864v-5.283h.864V35zm.068-6.685c0 .147-.04.269-.122.367-.081.097-.205.146-.37.146-.163 0-.285-.049-.367-.146a.552.552 0 01-.122-.367c0-.146.04-.27.122-.37.082-.102.204-.152.366-.152.163 0 .285.052.367.156.084.101.126.223.126.366zm3.184 6.783c-.658 0-1.162-.196-1.514-.586-.351-.394-.53-.97-.537-1.729v-.64c0-.787.171-1.404.513-1.85.345-.45.825-.674 1.44-.674.619 0 1.081.197 1.387.591.306.394.462 1.007.469 1.84v.567h-2.95v.122c0 .567.106.978.318 1.236.215.257.523.385.923.385.254 0 .477-.047.669-.141a1.69 1.69 0 00.547-.46l.449.548c-.374.527-.946.79-1.714.79zm-.098-4.737c-.358 0-.623.124-.795.371-.173.245-.27.625-.294 1.143h2.08v-.117c-.022-.502-.113-.86-.273-1.074-.156-.215-.395-.323-.718-.323zm7.76 3.287a.638.638 0 00-.21-.48c-.14-.133-.41-.289-.811-.468-.466-.192-.795-.356-.987-.493a1.42 1.42 0 01-.425-.464 1.303 1.303 0 01-.141-.625c0-.43.156-.786.469-1.07.315-.286.718-.429 1.206-.429.514 0 .928.15 1.24.45.313.299.469.683.469 1.152h-.86c0-.238-.08-.44-.239-.606a.802.802 0 00-.61-.254c-.254 0-.454.067-.6.2a.678.678 0 00-.216.528c0 .176.052.317.157.425.107.107.362.249.766.425.641.25 1.078.496 1.309.737.23.237.346.54.346.908 0 .459-.157.827-.473 1.103-.316.274-.74.41-1.27.41-.55 0-.996-.157-1.338-.473a1.564 1.564 0 01-.512-1.201h.869c.01.293.1.522.268.688.17.166.407.25.713.25.287 0 .505-.064.655-.191a.658.658 0 00.224-.523zm1.81-1.534c0-.768.186-1.375.557-1.821.375-.45.868-.674 1.48-.674s1.103.218 1.474.654c.375.437.567 1.03.577 1.783v.556c0 .765-.186 1.37-.557 1.817-.371.446-.866.669-1.484.669-.612 0-1.104-.217-1.475-.65-.368-.433-.558-1.019-.571-1.758v-.576zm.865.498c0 .544.106.972.317 1.285.215.309.503.463.865.463.761 0 1.154-.55 1.176-1.65v-.596c0-.54-.107-.966-.322-1.279-.215-.316-.503-.474-.864-.474-.355 0-.64.158-.855.474-.211.313-.317.737-.317 1.274v.503zM100.396 35h-.865v-7.5h.865V35zm2.294 0h-.864v-7.5h.864V35zm2.496-6.563v1.28h.795v.698h-.795v3.276c0 .209.034.367.102.474.068.108.186.161.352.161.114 0 .229-.02.346-.058l-.009.732a1.893 1.893 0 01-.601.098c-.342 0-.602-.122-.781-.367-.179-.244-.269-.589-.269-1.035v-3.281h-.805v-.698h.805v-1.28h.86zm3.715 6.66c-.657 0-1.162-.195-1.513-.585-.352-.394-.531-.97-.537-1.729v-.64c0-.787.17-1.404.512-1.85.345-.45.825-.674 1.441-.674.618 0 1.08.197 1.386.591.306.394.463 1.007.469 1.84v.567h-2.949v.122c0 .567.106.978.317 1.236.215.257.523.385.923.385.254 0 .477-.047.669-.141a1.69 1.69 0 00.547-.46l.449.548c-.374.527-.945.79-1.714.79zm-.097-4.736c-.358 0-.624.124-.796.371-.173.245-.27.625-.293 1.143h2.08v-.117c-.023-.502-.114-.86-.274-1.074-.156-.215-.395-.323-.717-.323zm3.711-.644l.024.571c.335-.446.763-.669 1.284-.669.934 0 1.408.623 1.421 1.87V35h-.859v-3.472c0-.413-.07-.706-.21-.879-.137-.175-.344-.263-.62-.263a.885.885 0 00-.581.215c-.17.143-.306.33-.411.561V35h-.864v-5.283h.816zM8.34 45.537c-.287.373-.705.56-1.255.56-.479 0-.84-.164-1.084-.492-.244-.332-.368-.814-.371-1.446v-3.442h.86v3.379c0 .823.247 1.235.741 1.235.525 0 .886-.234 1.084-.703v-3.911h.865V46h-.82l-.02-.464zm-2.5-6.231c0-.147.044-.269.132-.366.09-.101.224-.152.4-.152.176 0 .31.05.4.152.092.097.137.22.137.366a.516.516 0 01-.137.366c-.09.098-.224.146-.4.146-.176 0-.31-.048-.4-.146a.527.527 0 01-.132-.366zm2.1.01c0-.147.043-.27.131-.372.091-.1.225-.151.4-.151.176 0 .31.05.401.151.091.101.137.225.137.371a.516.516 0 01-.137.367c-.091.097-.225.146-.4.146-.176 0-.31-.049-.4-.146a.527.527 0 01-.133-.367zm6.367 4.296c0 .824-.149 1.444-.445 1.86-.296.417-.726.626-1.289.626-.56 0-.98-.241-1.26-.723L11.27 46h-.787v-7.5h.86v2.798c.283-.453.69-.679 1.22-.679.58 0 1.014.205 1.304.615.29.41.436 1.029.44 1.856v.522zm-.86-.493c0-.625-.088-1.07-.263-1.333-.173-.267-.454-.4-.845-.4-.446 0-.778.24-.996.722v2.515c.215.475.55.713 1.006.713.39 0 .67-.137.84-.41.169-.274.255-.699.258-1.275v-.532zm3.853 2.979c-.658 0-1.162-.196-1.514-.586-.351-.394-.53-.97-.537-1.729v-.64c0-.787.17-1.404.513-1.85.345-.45.825-.674 1.44-.674.619 0 1.08.197 1.387.591.306.394.462 1.007.469 1.84v.567h-2.95v.122c0 .567.106.978.318 1.236.215.257.522.385.923.385a1.5 1.5 0 00.669-.141 1.69 1.69 0 00.546-.46l.45.548c-.375.527-.946.79-1.714.79zm-.098-4.737c-.358 0-.623.124-.796.371-.172.245-.27.625-.293 1.143h2.08v-.117c-.022-.502-.114-.86-.273-1.074-.156-.215-.396-.323-.718-.323zm5.078.166a2.111 2.111 0 00-.39-.034c-.443 0-.752.243-.928.728V46h-.864v-5.283h.84l.014.537c.231-.423.558-.635.982-.635a.76.76 0 01.341.069l.005.84zM24.077 46h-.864v-7.5h.864V46zm3.252.098c-.657 0-1.162-.196-1.514-.586-.351-.394-.53-.97-.537-1.729v-.64c0-.787.171-1.404.513-1.85.345-.45.825-.674 1.44-.674.619 0 1.081.197 1.387.591.306.394.462 1.007.469 1.84v.567h-2.95v.122c0 .567.107.978.318 1.236.215.257.523.385.923.385a1.5 1.5 0 00.669-.141 1.69 1.69 0 00.547-.46l.449.548c-.374.527-.946.79-1.714.79zm-.098-4.737c-.358 0-.623.124-.796.371-.172.245-.27.625-.292 1.143h2.08v-.117c-.023-.502-.114-.86-.274-1.074-.156-.215-.395-.323-.718-.323zm2.725 1.758c0-.823.15-1.445.45-1.865.299-.423.737-.635 1.313-.635.537 0 .945.23 1.225.689l.044-.591h.782v5.332c0 .654-.168 1.155-.503 1.504-.336.351-.803.527-1.402.527-.26 0-.553-.065-.879-.195-.322-.127-.564-.285-.727-.474l.351-.596c.358.352.754.528 1.187.528.72 0 1.089-.393 1.108-1.177v-.688c-.28.413-.677.62-1.191.62-.547 0-.973-.205-1.28-.616-.305-.413-.465-1.005-.478-1.777v-.586zm.864.493c0 .593.087 1.029.26 1.309.175.277.461.415.859.415.43 0 .751-.22.966-.66v-2.64c-.224-.434-.543-.65-.957-.65-.397 0-.683.14-.86.42-.175.276-.264.703-.268 1.279v.527zm6.128 2.486c-.657 0-1.162-.196-1.513-.586-.352-.394-.531-.97-.538-1.729v-.64c0-.787.171-1.404.513-1.85.345-.45.825-.674 1.44-.674.62 0 1.081.197 1.387.591.306.394.462 1.007.47 1.84v.567h-2.95v.122c0 .567.106.978.317 1.236.215.257.523.385.923.385.254 0 .477-.047.669-.141a1.69 1.69 0 00.547-.46l.45.548c-.375.527-.946.79-1.715.79zm-.097-4.737c-.358 0-.624.124-.796.371-.173.245-.27.625-.293 1.143h2.08v-.117c-.023-.502-.114-.86-.274-1.074-.156-.215-.395-.323-.717-.323zm3.71-.644l.025.571c.335-.446.763-.669 1.284-.669.934 0 1.408.623 1.421 1.87V46h-.86v-3.472c0-.413-.07-.706-.21-.879-.136-.175-.343-.263-.62-.263a.886.886 0 00-.58.215 1.56 1.56 0 00-.41.561V46h-.865v-5.283h.816zm4.039 6.699l-.513-.351c.306-.427.465-.866.478-1.319v-.815h.884v.708c0 .328-.081.657-.244.986-.16.329-.361.592-.605.791zm4.067-4.302c0-.768.185-1.375.557-1.821.374-.45.867-.674 1.48-.674.611 0 1.103.218 1.474.654.374.437.566 1.03.576 1.783v.556c0 .765-.186 1.37-.557 1.817-.37.446-.866.669-1.484.669-.612 0-1.104-.217-1.475-.65-.368-.433-.558-1.019-.571-1.758v-.576zm.864.498c0 .544.106.972.318 1.285.215.309.503.463.864.463.762 0 1.154-.55 1.177-1.65v-.596c0-.54-.108-.966-.323-1.279-.215-.316-.502-.474-.864-.474-.355 0-.64.158-.854.474-.212.313-.318.737-.318 1.274v.503zm8.164 0c0 .824-.148 1.444-.444 1.86-.296.417-.726.626-1.29.626-.559 0-.979-.241-1.259-.723l-.044.625h-.786v-7.5h.86v2.798c.283-.453.69-.679 1.22-.679.58 0 1.014.205 1.304.615.29.41.436 1.029.44 1.856v.522zm-.86-.493c0-.625-.087-1.07-.263-1.333-.172-.267-.454-.4-.845-.4-.445 0-.777.24-.996.722v2.515c.215.475.55.713 1.006.713.39 0 .67-.137.84-.41.17-.274.256-.699.259-1.275v-.532zm7.486 1.084c0-.355-.096-.627-.288-.815-.192-.19-.538-.373-1.04-.552-.501-.18-.885-.366-1.152-.562a2.064 2.064 0 01-.596-.673 1.878 1.878 0 01-.195-.87c0-.563.187-1.027.561-1.391.378-.365.871-.547 1.48-.547.416 0 .788.094 1.113.283.326.186.576.444.752.776.176.333.264.697.264 1.094h-.899c0-.44-.105-.78-.317-1.02-.212-.241-.516-.361-.913-.361-.361 0-.642.1-.84.302-.199.202-.298.485-.298.85 0 .3.107.55.322.752.215.202.547.382.997.542.7.23 1.199.516 1.498.854.303.339.455.782.455 1.328 0 .577-.188 1.039-.562 1.387-.374.345-.884.518-1.528.518-.414 0-.796-.09-1.148-.269a2.093 2.093 0 01-.825-.762 2.138 2.138 0 01-.298-1.127h.899c0 .439.122.78.366 1.025.247.244.583.366 1.006.366.394 0 .69-.1.888-.303.199-.201.298-.477.298-.825zM67.211 46h-.863v-5.283h.864V46zm.07-6.685c0 .147-.041.269-.123.367-.081.097-.205.146-.37.146-.164 0-.286-.049-.367-.146a.552.552 0 01-.122-.367c0-.146.04-.27.122-.37.081-.102.203-.152.366-.152.163 0 .285.052.366.156a.55.55 0 01.127.366zm3.183 6.783c-.658 0-1.162-.196-1.514-.586-.351-.394-.53-.97-.537-1.729v-.64c0-.787.171-1.404.513-1.85.345-.45.825-.674 1.44-.674.619 0 1.08.197 1.387.591.306.394.462 1.007.469 1.84v.567h-2.95v.122c0 .567.106.978.318 1.236.215.257.522.385.923.385.254 0 .477-.047.669-.141.195-.098.377-.25.546-.46l.45.548c-.375.527-.946.79-1.714.79zm-.098-4.737c-.358 0-.623.124-.796.371-.172.245-.27.625-.293 1.143h2.08v-.117c-.022-.502-.114-.86-.273-1.074-.156-.215-.395-.323-.718-.323zm7.08 4.737c-.657 0-1.162-.196-1.513-.586-.352-.394-.531-.97-.538-1.729v-.64c0-.787.171-1.404.513-1.85.345-.45.825-.674 1.44-.674.62 0 1.081.197 1.387.591.306.394.463 1.007.47 1.84v.567h-2.95v.122c0 .567.106.978.317 1.236.215.257.523.385.923.385a1.5 1.5 0 00.67-.141c.194-.098.377-.25.546-.46l.45.548c-.375.527-.947.79-1.715.79zm-.097-4.737c-.358 0-.624.124-.796.371-.173.245-.27.625-.293 1.143h2.08v-.117c-.023-.502-.114-.86-.274-1.074-.156-.215-.395-.323-.717-.323zm5.463 3.287a.638.638 0 00-.21-.48c-.14-.133-.41-.289-.81-.468-.466-.192-.794-.356-.986-.493a1.42 1.42 0 01-.425-.464 1.303 1.303 0 01-.142-.625c0-.43.156-.786.469-1.07.316-.286.718-.429 1.206-.429.514 0 .928.15 1.24.45.313.299.469.683.469 1.152h-.86c0-.238-.08-.44-.239-.606a.802.802 0 00-.61-.254c-.254 0-.454.067-.6.2a.677.677 0 00-.215.528c0 .176.052.317.156.425.107.107.363.249.767.424.64.251 1.077.497 1.308.738.231.237.347.54.347.908 0 .459-.158.827-.474 1.103-.316.274-.739.41-1.27.41-.55 0-.996-.157-1.337-.473a1.564 1.564 0 01-.513-1.201h.87c.009.293.098.522.268.688.169.166.407.25.713.25.286 0 .504-.064.654-.191a.658.658 0 00.225-.523zm6.856 0a.638.638 0 00-.21-.48c-.14-.133-.41-.289-.81-.468-.466-.192-.795-.356-.987-.493a1.42 1.42 0 01-.425-.464 1.303 1.303 0 01-.141-.625c0-.43.156-.786.469-1.07.315-.286.717-.429 1.206-.429.514 0 .927.15 1.24.45.312.299.468.683.468 1.152h-.859c0-.238-.08-.44-.24-.606a.802.802 0 00-.61-.254c-.253 0-.454.067-.6.2a.678.678 0 00-.215.528c0 .176.052.317.156.425.108.107.363.249.767.424.641.251 1.077.497 1.309.738.23.237.346.54.346.908 0 .459-.158.827-.473 1.103-.316.274-.74.41-1.27.41-.55 0-.996-.157-1.338-.473a1.564 1.564 0 01-.512-1.201h.869c.01.293.099.522.268.688.17.166.407.25.713.25.287 0 .505-.064.654-.191a.658.658 0 00.225-.523zM92.593 46h-.865v-5.283h.865V46zm.068-6.685c0 .147-.04.269-.122.367-.081.097-.205.146-.371.146-.163 0-.285-.049-.366-.146a.552.552 0 01-.122-.367c0-.146.04-.27.122-.37.081-.102.203-.152.366-.152.163 0 .285.052.366.156.085.101.127.223.127.366zm3.13 6.045c.287 0 .516-.087.689-.263.172-.18.266-.433.283-.762h.815c-.02.508-.2.93-.542 1.265a1.71 1.71 0 01-1.245.498c-.654 0-1.154-.205-1.499-.616-.342-.413-.513-1.027-.513-1.84v-.582c0-.797.171-1.402.513-1.816.342-.416.84-.625 1.494-.625.54 0 .969.171 1.284.513.32.342.489.809.508 1.401h-.815c-.02-.39-.114-.683-.284-.879-.165-.195-.397-.293-.693-.293-.384 0-.669.127-.854.381-.186.25-.282.664-.288 1.24v.674c0 .622.09 1.061.273 1.319.186.257.477.385.874.385zm3.648-4.101c.328-.427.748-.64 1.259-.64.934 0 1.408.623 1.421 1.87V46h-.859v-3.472c0-.413-.07-.706-.21-.879-.137-.175-.344-.263-.62-.263a.887.887 0 00-.581.215c-.17.143-.306.33-.41.561V46h-.865v-7.5h.865v2.759zM106.636 46h-.865v-7.5h.865V46zm3.252.098c-.658 0-1.162-.196-1.514-.586-.352-.394-.531-.97-.537-1.729v-.64c0-.787.171-1.404.513-1.85.345-.45.825-.674 1.44-.674.619 0 1.081.197 1.387.591.306.394.462 1.007.469 1.84v.567h-2.95v.122c0 .567.106.978.318 1.236.215.257.522.385.923.385.253 0 .476-.047.668-.141a1.68 1.68 0 00.547-.46l.45.548c-.375.527-.946.79-1.714.79zm-.098-4.737c-.358 0-.623.124-.796.371-.172.245-.27.625-.293 1.143h2.08v-.117c-.023-.502-.114-.86-.273-1.074-.156-.215-.396-.323-.718-.323zM113.618 46h-.864v-5.283h.864V46zm.069-6.685a.55.55 0 01-.123.367c-.081.097-.205.146-.371.146-.162 0-.284-.049-.366-.146a.555.555 0 01-.122-.367c0-.146.041-.27.122-.37.082-.102.204-.152.366-.152.163 0 .285.052.367.156.084.101.127.223.127.366zm3.862 5.333a.638.638 0 00-.21-.48c-.14-.133-.41-.289-.811-.468-.465-.192-.794-.356-.986-.493a1.426 1.426 0 01-.425-.464 1.308 1.308 0 01-.141-.625c0-.43.156-.786.468-1.07.316-.286.718-.429 1.206-.429.515 0 .928.15 1.241.45.312.299.468.683.468 1.152h-.859c0-.238-.08-.44-.239-.606a.803.803 0 00-.611-.254c-.254 0-.454.067-.6.2a.678.678 0 00-.215.528c0 .176.052.317.156.425.108.107.363.249.767.424.641.251 1.077.497 1.308.738.232.237.347.54.347.908 0 .459-.158.827-.474 1.103-.315.274-.738.41-1.269.41-.55 0-.996-.157-1.338-.473a1.564 1.564 0 01-.513-1.201h.869c.01.293.1.522.269.688.169.166.407.25.713.25.286 0 .504-.064.654-.191a.657.657 0 00.225-.523zm3.125-5.21v1.279h.796v.698h-.796v3.276c0 .209.034.367.102.474.069.108.186.161.352.161.114 0 .229-.02.347-.058l-.01.732a1.889 1.889 0 01-.601.098c-.342 0-.602-.122-.781-.367-.179-.244-.269-.589-.269-1.035v-3.281h-.805v-.698h.805v-1.28h.86zm3.716 6.66c-.658 0-1.162-.196-1.514-.586-.352-.394-.531-.97-.537-1.729v-.64c0-.787.171-1.404.513-1.85.345-.45.825-.674 1.44-.674.618 0 1.081.197 1.387.591.306.394.462 1.007.468 1.84v.567h-2.949v.122c0 .567.106.978.318 1.236.214.257.522.385.922.385.254 0 .477-.047.669-.141a1.68 1.68 0 00.547-.46l.45.548c-.375.527-.946.79-1.714.79zm-.098-4.737c-.358 0-.623.124-.796.371-.172.245-.27.625-.293 1.143h2.08v-.117c-.023-.502-.114-.86-.273-1.074-.156-.215-.396-.323-.718-.323zm3.711-.644l.024.571c.336-.446.764-.669 1.285-.669.934 0 1.407.623 1.42 1.87V46h-.859v-3.472c0-.413-.07-.706-.21-.879-.137-.175-.343-.263-.62-.263a.885.885 0 00-.581.215c-.169.143-.306.33-.41.561V46h-.864v-5.283h.815zM6.973 54.583l-.46.527V57H5.65v-7.5h.865v4.487l1.645-2.27h1.035l-1.68 2.207L9.415 57H8.408l-1.435-2.417zm3.003-.469c0-.768.185-1.375.556-1.821.375-.45.868-.674 1.48-.674s1.103.218 1.474.654c.375.437.567 1.03.576 1.783v.556c0 .765-.185 1.37-.556 1.817-.371.446-.866.669-1.485.669-.612 0-1.103-.217-1.474-.65-.368-.433-.558-1.019-.571-1.758v-.576zm.864.498c0 .544.106.972.317 1.285.215.309.503.463.864.463.762 0 1.154-.55 1.177-1.65v-.596c0-.54-.107-.966-.322-1.279-.215-.316-.503-.474-.864-.474-.355 0-.64.158-.855.474-.211.313-.317.737-.317 1.274v.503zm-.44-4.306c0-.147.044-.269.132-.366.091-.101.225-.152.4-.152.176 0 .31.05.401.152.091.097.137.22.137.366a.516.516 0 01-.137.366c-.091.098-.225.146-.4.146-.176 0-.31-.048-.4-.146a.527.527 0 01-.133-.366zm2.1.01c0-.147.044-.27.132-.372.091-.1.224-.151.4-.151.176 0 .31.05.4.151.092.101.137.225.137.371a.516.516 0 01-.136.367c-.091.097-.225.146-.4.146-.177 0-.31-.049-.401-.146a.527.527 0 01-.132-.367zm3.491 1.4l.025.572c.335-.446.763-.669 1.284-.669.934 0 1.408.623 1.42 1.87V57h-.859v-3.472c0-.413-.07-.706-.21-.879-.136-.175-.343-.263-.62-.263a.886.886 0 00-.58.215c-.17.143-.307.33-.411.561V57h-.864v-5.283h.815zm4.844 0l.024.572c.336-.446.764-.669 1.285-.669.934 0 1.407.623 1.42 1.87V57h-.859v-3.472c0-.413-.07-.706-.21-.879-.137-.175-.343-.263-.62-.263a.887.887 0 00-.581.215c-.17.143-.306.33-.41.561V57h-.864v-5.283h.815zm5.918 5.382c-.658 0-1.162-.196-1.514-.586-.351-.394-.53-.97-.537-1.729v-.64c0-.787.171-1.404.513-1.85.345-.45.825-.674 1.44-.674.619 0 1.081.197 1.387.591.306.394.462 1.007.469 1.84v.567h-2.95v.122c0 .567.106.978.318 1.236.215.257.522.385.923.385.254 0 .477-.047.669-.141a1.69 1.69 0 00.547-.46l.449.548c-.375.527-.946.79-1.714.79zm-.098-4.737c-.358 0-.623.124-.796.371-.172.245-.27.625-.293 1.143h2.08v-.117c-.022-.502-.113-.86-.273-1.074-.156-.215-.396-.323-.718-.323zm3.711-.644l.025.571c.335-.446.763-.669 1.284-.669.934 0 1.408.623 1.42 1.87V57h-.859v-3.472c0-.413-.07-.706-.21-.879-.136-.175-.343-.263-.62-.263a.886.886 0 00-.58.215c-.17.143-.307.33-.411.561V57h-.864v-5.283h.815zm4.038 6.699l-.512-.351c.306-.427.465-.866.478-1.319v-.815h.884v.708c0 .328-.081.657-.244.986-.16.329-.362.592-.606.791zm4.068-4.297c0-.814.151-1.434.454-1.86.306-.427.744-.64 1.313-.64.505 0 .899.205 1.182.615V49.5h.864V57h-.79l-.045-.566c-.283.442-.688.664-1.216.664-.547 0-.976-.212-1.289-.635-.309-.427-.467-1.027-.473-1.802v-.542zm.864.493c0 .593.088 1.029.264 1.309.175.277.462.415.859.415.43 0 .75-.216.962-.65V53.02c-.221-.423-.54-.634-.957-.634-.397 0-.684.14-.86.42-.175.276-.265.703-.268 1.279v.527zM46.333 57c-.052-.114-.09-.306-.112-.576-.306.449-.697.674-1.172.674-.479 0-.853-.134-1.123-.4-.267-.27-.4-.65-.4-1.138 0-.538.182-.964.546-1.28.365-.316.864-.477 1.5-.483h.634v-.562c0-.315-.07-.54-.21-.673-.14-.134-.353-.2-.64-.2-.26 0-.472.078-.634.234a.769.769 0 00-.245.586h-.864c0-.27.08-.528.24-.772a1.66 1.66 0 01.644-.58c.27-.14.571-.21.903-.21.54 0 .95.134 1.23.404.284.267.429.658.435 1.172v2.666c.004.407.059.76.166 1.06V57h-.898zm-1.152-.688c.211 0 .413-.06.605-.176.192-.117.332-.264.42-.44v-1.26h-.488c-.41.007-.734.1-.972.279-.238.176-.356.423-.356.742 0 .3.06.518.18.654.12.134.324.2.61.2zm5.796-.664a.638.638 0 00-.21-.48c-.14-.133-.41-.289-.81-.468-.466-.192-.795-.356-.987-.493a1.42 1.42 0 01-.425-.464 1.303 1.303 0 01-.142-.625c0-.43.157-.786.47-1.07.315-.286.717-.429 1.205-.429.514 0 .928.15 1.24.45.313.299.47.683.47 1.152h-.86c0-.238-.08-.44-.24-.606a.802.802 0 00-.61-.254c-.254 0-.454.067-.6.2a.678.678 0 00-.215.528c0 .176.052.317.156.425.107.107.363.249.767.424.64.251 1.077.497 1.308.738.231.237.347.54.347.908 0 .459-.158.827-.474 1.103-.316.274-.739.41-1.27.41-.55 0-.995-.157-1.337-.473a1.564 1.564 0 01-.513-1.201h.87c.009.293.099.522.268.688.169.166.407.25.713.25.286 0 .504-.064.654-.191a.658.658 0 00.225-.523zm5.15-3.39c.33-.426.75-.639 1.26-.639.935 0 1.409.623 1.422 1.87V57h-.86v-3.472c0-.413-.07-.706-.21-.879-.136-.175-.343-.263-.62-.263a.886.886 0 00-.58.215c-.17.143-.307.33-.411.561V57h-.864v-7.5h.864v2.759zm3.79 1.856c0-.768.185-1.375.557-1.821.374-.45.867-.674 1.48-.674.611 0 1.103.218 1.474.654.374.437.566 1.03.576 1.783v.556c0 .765-.186 1.37-.557 1.817-.37.446-.866.669-1.484.669-.612 0-1.104-.217-1.475-.65-.368-.433-.558-1.019-.571-1.758v-.576zm.864.498c0 .544.106.972.318 1.285.215.309.503.463.864.463.762 0 1.154-.55 1.177-1.65v-.596c0-.54-.108-.966-.323-1.279-.215-.316-.502-.474-.864-.474-.355 0-.64.158-.854.474-.212.313-.318.737-.318 1.274v.503zm5.2-2.353c.33-.427.75-.64 1.26-.64.934 0 1.408.623 1.421 1.87V57h-.86v-3.472c0-.413-.07-.706-.21-.879-.136-.175-.343-.263-.62-.263a.886.886 0 00-.58.215c-.17.143-.306.33-.41.561V57h-.865v-7.5h.864v2.759zm5.86 4.839c-.658 0-1.162-.196-1.514-.586-.351-.394-.53-.97-.537-1.729v-.64c0-.787.17-1.404.513-1.85.345-.45.825-.674 1.44-.674.619 0 1.08.197 1.387.591.306.394.462 1.007.469 1.84v.567h-2.95v.122c0 .567.106.978.318 1.236.215.257.522.385.923.385.254 0 .477-.047.669-.141a1.69 1.69 0 00.547-.46l.449.548c-.375.527-.946.79-1.714.79zm-.098-4.737c-.358 0-.623.124-.796.371-.172.245-.27.625-.293 1.143h2.08v-.117c-.022-.502-.114-.86-.273-1.074-.156-.215-.396-.323-.718-.323zm7.461 1.763h-1.25V57h-.898v-7.11h1.992c.697 0 1.224.183 1.582.547.358.362.537.892.537 1.592 0 .44-.098.824-.293 1.153a1.825 1.825 0 01-.82.737l1.377 3.022V57h-.962l-1.265-2.876zm-1.25-.767h1.084c.374 0 .672-.12.894-.36.224-.242.337-.564.337-.968 0-.911-.414-1.367-1.24-1.367h-1.075v2.695zM83.18 57h-.865v-5.283h.865V57zm.068-6.685c0 .147-.04.269-.122.367-.081.097-.205.146-.371.146-.163 0-.285-.049-.366-.146a.552.552 0 01-.122-.367c0-.146.04-.27.122-.37.081-.102.203-.152.366-.152.163 0 .285.052.366.156a.55.55 0 01.127.366zm3.862 5.333a.638.638 0 00-.21-.48c-.14-.133-.41-.289-.81-.468-.466-.192-.794-.356-.986-.493a1.42 1.42 0 01-.425-.464 1.303 1.303 0 01-.142-.625c0-.43.156-.786.469-1.07.316-.286.718-.429 1.206-.429.514 0 .928.15 1.24.45.313.299.469.683.469 1.152h-.86c0-.238-.08-.44-.239-.606a.802.802 0 00-.61-.254c-.254 0-.454.067-.6.2a.677.677 0 00-.216.528c0 .176.053.317.157.425.107.107.363.249.766.424.642.251 1.078.497 1.309.738.231.237.347.54.347.908 0 .459-.158.827-.474 1.103-.316.274-.739.41-1.27.41-.55 0-.996-.157-1.337-.473a1.564 1.564 0 01-.513-1.201h.869c.01.293.1.522.269.688.169.166.406.25.713.25.286 0 .504-.064.654-.191a.658.658 0 00.224-.523zM90.034 57h-.864v-5.283h.864V57zm.069-6.685c0 .147-.041.269-.122.367-.082.097-.206.146-.372.146-.162 0-.284-.049-.366-.146a.552.552 0 01-.122-.367c0-.146.04-.27.122-.37.082-.102.204-.152.366-.152.163 0 .285.052.367.156.084.101.127.223.127.366zm2.622 4.268l-.46.527V57h-.864v-7.5h.865v4.487l1.645-2.27h1.035l-1.68 2.207 1.9 3.076H94.16l-1.435-2.417zm3.003-.469c0-.768.185-1.375.556-1.821.374-.45.868-.674 1.48-.674s1.103.218 1.474.654c.375.437.567 1.03.576 1.783v.556c0 .765-.185 1.37-.556 1.817-.371.446-.866.669-1.485.669-.611 0-1.103-.217-1.474-.65-.368-.433-.558-1.019-.572-1.758v-.576zm.864.498c0 .544.106.972.317 1.285.215.309.503.463.864.463.762 0 1.154-.55 1.177-1.65v-.596c0-.54-.107-.966-.322-1.279-.215-.316-.503-.474-.864-.474-.355 0-.64.158-.855.474-.211.313-.317.737-.317 1.274v.503zm8.52 2.486c-.657 0-1.162-.196-1.513-.586-.352-.394-.531-.97-.537-1.729v-.64c0-.787.17-1.404.512-1.85.345-.45.825-.674 1.441-.674.618 0 1.08.197 1.386.591.306.394.463 1.007.469 1.84v.567h-2.949v.122c0 .567.106.978.317 1.236.215.257.523.385.923.385.254 0 .477-.047.669-.141a1.69 1.69 0 00.547-.46l.449.548c-.374.527-.945.79-1.714.79zm-.097-4.737c-.358 0-.624.124-.796.371-.173.245-.27.625-.293 1.143h2.08v-.117c-.023-.502-.114-.86-.274-1.074-.156-.215-.395-.323-.717-.323zM108.843 57h-.864v-5.283h.864V57zm.068-6.685a.555.555 0 01-.122.367c-.081.097-.205.146-.371.146-.163 0-.285-.049-.366-.146a.55.55 0 01-.122-.367c0-.146.04-.27.122-.37.081-.102.203-.152.366-.152.163 0 .285.052.366.156a.55.55 0 01.127.366zm2.11 1.402l.024.571c.335-.446.763-.669 1.284-.669.934 0 1.408.623 1.421 1.87V57h-.859v-3.472c0-.413-.07-.706-.21-.879-.137-.175-.344-.263-.62-.263a.89.89 0 00-.582.215c-.169.143-.305.33-.41.561V57h-.864v-5.283h.816zm4.829 4.546h2.548V57h-3.535v-.664l2.422-3.872h-2.402v-.747h3.418v.64l-2.451 3.906zm6.289.273c-.287.374-.705.562-1.255.562-.479 0-.84-.165-1.084-.493-.244-.332-.368-.814-.371-1.446v-3.442h.859v3.379c0 .823.247 1.235.742 1.235.524 0 .886-.234 1.084-.703v-3.911h.865V57h-.821l-.019-.464zm1.967-2.417c0-.823.15-1.445.45-1.865.299-.423.737-.635 1.313-.635.537 0 .946.23 1.226.689l.044-.591h.781v5.332c0 .654-.168 1.155-.503 1.504-.335.351-.802.527-1.401.527-.261 0-.554-.065-.879-.195-.323-.127-.565-.285-.728-.474l.352-.596c.358.352.753.528 1.186.528.72 0 1.089-.393 1.109-1.177v-.688c-.28.413-.677.62-1.192.62-.547 0-.973-.205-1.279-.616-.306-.413-.466-1.005-.479-1.777v-.586zm.865.493c0 .593.086 1.029.258 1.309.176.277.463.415.86.415.43 0 .752-.22.967-.66v-2.64c-.225-.434-.544-.65-.957-.65-.398 0-.684.14-.86.42-.176.276-.265.703-.268 1.279v.527zm6.128 2.486c-.658 0-1.162-.196-1.514-.586-.352-.394-.531-.97-.537-1.729v-.64c0-.787.171-1.404.513-1.85.345-.45.825-.674 1.44-.674.618 0 1.081.197 1.387.591.306.394.462 1.007.468 1.84v.567h-2.949v.122c0 .567.106.978.318 1.236.214.257.522.385.922.385.254 0 .477-.047.669-.141a1.68 1.68 0 00.547-.46l.449.548c-.374.527-.945.79-1.713.79zm-.098-4.737c-.358 0-.623.124-.796.371-.172.245-.27.625-.293 1.143h2.08v-.117c-.023-.502-.114-.86-.273-1.074-.157-.215-.396-.323-.718-.323zm3.76-.102c.329-.427.748-.64 1.26-.64.934 0 1.407.623 1.42 1.87V57h-.859v-3.472c0-.413-.07-.706-.21-.879-.137-.175-.343-.263-.62-.263a.885.885 0 00-.581.215c-.169.143-.306.33-.41.561V57h-.865v-7.5h.865v2.759zm5.859 4.839c-.657 0-1.162-.196-1.514-.586-.351-.394-.53-.97-.537-1.729v-.64c0-.787.171-1.404.513-1.85.345-.45.825-.674 1.44-.674.619 0 1.081.197 1.387.591.306.394.462 1.007.469 1.84v.567h-2.949v.122c0 .567.106.978.317 1.236.215.257.523.385.923.385.254 0 .477-.047.669-.141a1.7 1.7 0 00.547-.46l.449.548c-.374.527-.946.79-1.714.79zm-.098-4.737c-.358 0-.623.124-.795.371-.173.245-.271.625-.293 1.143h2.08v-.117c-.023-.502-.114-.86-.274-1.074-.156-.215-.395-.323-.718-.323zm3.711-.644l.025.571c.335-.446.763-.669 1.284-.669.934 0 1.408.623 1.421 1.87V57h-.859v-3.472c0-.413-.07-.706-.21-.879-.137-.175-.344-.263-.621-.263a.889.889 0 00-.581.215c-.169.143-.306.33-.41.561V57h-.864v-5.283h.815zm4.038 6.699l-.512-.351c.306-.427.465-.866.478-1.319v-.815h.884v.708c0 .328-.081.657-.244.986-.16.329-.361.592-.606.791zM6.699 68h-.893v-7.11h.893V68zm2.31-4.741c.329-.427.748-.64 1.26-.64.934 0 1.407.623 1.42 1.87V68h-.859v-3.472c0-.413-.07-.706-.21-.879-.137-.175-.343-.263-.62-.263a.886.886 0 00-.581.215c-.17.143-.306.33-.41.561V68h-.864v-7.5h.864v2.759zm6.152.268a2.11 2.11 0 00-.39-.034c-.443 0-.752.243-.928.728V68h-.864v-5.283h.84l.014.537c.231-.423.558-.635.982-.635a.76.76 0 01.341.069l.005.84zm7.73 3.59l-.157.194c-.449.525-1.106.787-1.972.787-.768 0-1.372-.254-1.812-.762-.436-.511-.659-1.232-.669-2.163v-1.397c0-.996.199-1.741.596-2.236.4-.498.998-.747 1.792-.747.677 0 1.206.189 1.587.566.384.378.596.917.635 1.617h-.894c-.036-.443-.16-.788-.371-1.036-.208-.25-.526-.375-.952-.375-.511 0-.886.167-1.123.502-.238.332-.361.865-.371 1.597v1.45c0 .716.136 1.266.41 1.65.273.382.666.572 1.177.572.481 0 .848-.117 1.098-.352l.132-.122v-1.64h-1.299v-.762h2.193v2.656zm3.227.98c-.657 0-1.162-.195-1.513-.585-.352-.394-.531-.97-.538-1.729v-.64c0-.787.171-1.404.513-1.85.345-.45.825-.674 1.44-.674.619 0 1.081.197 1.387.591.306.394.462 1.007.469 1.84v.567h-2.95v.122c0 .567.107.978.318 1.236.215.257.523.385.923.385.254 0 .477-.047.669-.141a1.69 1.69 0 00.547-.46l.449.548c-.374.527-.946.79-1.714.79zm-.098-4.736c-.358 0-.623.124-.795.371-.173.245-.27.625-.293 1.143h2.08v-.117c-.023-.501-.114-.86-.274-1.074-.156-.215-.395-.323-.718-.323zM29.85 68h-.865v-7.5h.865V68zm1.181-2.88c0-.815.152-1.435.454-1.861.306-.427.744-.64 1.314-.64.504 0 .898.205 1.181.615V60.5h.865V68h-.791l-.044-.566c-.283.442-.689.664-1.216.664-.547 0-.977-.212-1.29-.635-.308-.426-.466-1.027-.473-1.802v-.542zm.864.492c0 .593.088 1.029.264 1.309.176.277.462.415.86.415.43 0 .75-.216.962-.65V64.02c-.222-.423-.54-.634-.957-.634-.398 0-.684.14-.86.42-.176.276-.265.703-.268 1.279v.527zm7.374 1.65h2.548V68h-3.535v-.664l2.422-3.872h-2.402v-.747h3.418v.64l-2.451 3.906zm6.289.274c-.287.374-.705.562-1.255.562-.479 0-.84-.165-1.084-.493-.244-.333-.368-.814-.371-1.446v-3.442h.86v3.379c0 .823.246 1.235.741 1.235.524 0 .886-.234 1.084-.703v-3.911h.865V68h-.82l-.02-.464zm5.932-.85l1.001-3.97h.88L51.801 68h-.645l-1.587-5.283h.88l1.04 3.97zm4.668 1.412c-.657 0-1.162-.196-1.513-.586-.352-.394-.531-.97-.538-1.729v-.64c0-.787.171-1.404.513-1.85.345-.45.825-.674 1.44-.674.62 0 1.081.197 1.387.591.306.394.462 1.007.469 1.84v.567h-2.95v.122c0 .567.107.978.318 1.236.215.257.523.385.923.385.254 0 .477-.047.669-.141a1.69 1.69 0 00.547-.46l.45.548c-.375.527-.947.79-1.715.79zm-.097-4.737c-.358 0-.624.124-.796.371-.173.245-.27.625-.293 1.143h2.08v-.117c-.023-.501-.114-.86-.274-1.074-.156-.215-.395-.323-.717-.323zm5.078.166a2.11 2.11 0 00-.39-.034c-.444 0-.753.243-.929.728V68h-.864v-5.283h.84l.015.537c.23-.423.558-.635.981-.635a.76.76 0 01.342.069l.005.84zM62.935 68h-.865v-7.5h.865V68zm2.294 0h-.864v-5.283h.865V68zm.069-6.685c0 .147-.04.269-.122.367-.082.097-.205.146-.371.146-.163 0-.285-.049-.367-.146a.552.552 0 01-.122-.367c0-.146.041-.27.123-.37.08-.102.203-.152.366-.152.162 0 .284.052.366.156.084.101.127.223.127.366zm3.183 6.783c-.657 0-1.162-.196-1.513-.586-.352-.394-.53-.97-.537-1.729v-.64c0-.787.17-1.404.512-1.85.345-.45.826-.674 1.44-.674.62 0 1.082.197 1.388.591.305.394.462 1.007.468 1.84v.567H67.29v.122c0 .567.106.978.317 1.236.215.257.523.385.923.385.254 0 .477-.047.67-.141a1.69 1.69 0 00.546-.46l.45.548c-.375.527-.946.79-1.715.79zm-.097-4.737c-.358 0-.624.124-.796.371-.173.245-.27.625-.293 1.143h2.08v-.117c-.023-.501-.114-.86-.273-1.074-.157-.215-.396-.323-.718-.323zm5.078.166a2.11 2.11 0 00-.39-.034c-.443 0-.753.243-.928.728V68h-.865v-5.283h.84l.015.537c.23-.423.558-.635.981-.635a.76.76 0 01.342.069l.005.84zm2.754 4.57c-.658 0-1.162-.195-1.514-.585-.351-.394-.53-.97-.537-1.729v-.64c0-.787.17-1.404.513-1.85.345-.45.825-.674 1.44-.674.619 0 1.08.197 1.387.591.306.394.462 1.007.469 1.84v.567h-2.95v.122c0 .567.106.978.318 1.236.215.257.522.385.923.385.254 0 .477-.047.669-.141a1.69 1.69 0 00.547-.46l.449.548c-.375.527-.946.79-1.714.79zm-.098-4.736c-.358 0-.623.124-.796.371-.172.245-.27.625-.293 1.143h2.08v-.117c-.022-.501-.114-.86-.273-1.074-.156-.215-.396-.323-.718-.323zm3.711-.644l.025.571c.335-.446.763-.669 1.284-.669.934 0 1.408.623 1.42 1.87V68H81.7v-3.472c0-.413-.07-.706-.21-.879-.136-.175-.343-.263-.62-.263a.886.886 0 00-.58.215c-.17.143-.307.33-.411.561V68h-.864v-5.283h.815zm4.087 4.81c0-.157.046-.287.137-.391.094-.104.234-.156.42-.156.185 0 .325.052.42.156a.55.55 0 01.146.39.52.52 0 01-.146.376c-.095.101-.235.152-.42.152-.186 0-.326-.05-.42-.152a.54.54 0 01-.137-.376z" fill="#000"/></svg>