<svg width="134" height="89" viewBox="0 0 134 89" fill="none" xmlns="http://www.w3.org/2000/svg"><path d="M9.18 2.08H1.5V16h7.68v-1.86h-5.4V9.88h4.8V8.02h-4.8V3.94h5.4V2.08zM11.988 16h2.28V4.98h-2.28V16zm1.16-12.48c.8 0 1.44-.64 1.44-1.46S13.948.6 13.148.6c-.82 0-1.46.64-1.46 1.46s.64 1.46 1.46 1.46zM25.082 16h2.26V9.5c0-3.08-1.94-4.7-4.52-4.7-1.32 0-2.54.54-3.28 1.44V4.98h-2.28V16h2.28V9.84c0-2.02 1.1-3.06 2.78-3.06 1.66 0 2.76 1.04 2.76 3.06V16zm13.388-3.08c-.12-3.98-6.34-2.74-6.34-4.96 0-.74.64-1.24 1.86-1.24 1.24 0 1.98.66 2.06 1.62h2.28c-.12-2.2-1.76-3.54-4.26-3.54-2.6 0-4.24 1.42-4.24 3.18 0 4.04 6.4 2.8 6.4 4.96 0 .76-.7 1.32-2.02 1.32-1.26 0-2.12-.74-2.2-1.64h-2.36c.1 2 1.96 3.56 4.6 3.56 2.6 0 4.22-1.4 4.22-3.26zm2.824.02c0 2.24 1.22 3.06 3.18 3.06h1.8v-1.9h-1.4c-.96 0-1.28-.34-1.28-1.16v-6.1h2.68V4.98h-2.68V2.24h-2.3v2.74h-1.3v1.86h1.3v6.1zM48.375 16h2.28V4.98h-2.28V16zm1.16-12.48c.8 0 1.44-.64 1.44-1.46S50.335.6 49.535.6c-.82 0-1.46.64-1.46 1.46s.64 1.46 1.46 1.46zm8.753 3.2c1.7 0 3.04 1.08 3.08 2.78h-6.1c.24-1.74 1.48-2.78 3.02-2.78zm5.16 6h-2.46c-.42.86-1.2 1.54-2.6 1.54-1.68 0-2.98-1.1-3.14-2.92h8.42c.06-.38.08-.74.08-1.12 0-3.24-2.22-5.42-5.36-5.42-3.26 0-5.5 2.22-5.5 5.68 0 3.46 2.34 5.7 5.5 5.7 2.7 0 4.44-1.54 5.06-3.46zm1.784-2.28c0 3.4 2.3 5.74 5.2 5.74 1.8 0 3.12-.9 3.82-1.84v1.84c0 2.2-1.32 3.28-3.08 3.28-1.58 0-2.8-.78-3.14-1.92h-2.26c.28 2.44 2.46 3.9 5.4 3.9 3.44 0 5.38-2.26 5.38-5.26V4.98h-2.3v1.6c-.68-.94-2.02-1.78-3.82-1.78-2.9 0-5.2 2.24-5.2 5.64zm9.02.04c0 2.38-1.62 3.72-3.34 3.72-1.7 0-3.34-1.38-3.34-3.76s1.64-3.66 3.34-3.66c1.72 0 3.34 1.34 3.34 3.7zM84.742 16h2.28V4.98h-2.28V16zm1.16-12.48c.8 0 1.44-.64 1.44-1.46S86.702.6 85.902.6c-.82 0-1.46.64-1.46 1.46s.64 1.46 1.46 1.46zM97.836 16h2.26V9.5c0-3.08-1.94-4.7-4.52-4.7-1.32 0-2.54.54-3.28 1.44V4.98h-2.28V16h2.28V9.84c0-2.02 1.1-3.06 2.78-3.06 1.66 0 2.76 1.04 2.76 3.06V16zM.78 27.96H4.5V40h2.28V27.96h3.7V26.1H.78v1.86zm16.65 2.76c1.7 0 3.04 1.08 3.08 2.78h-6.1c.24-1.74 1.48-2.78 3.02-2.78zm5.16 6h-2.46c-.42.86-1.2 1.54-2.6 1.54-1.68 0-2.98-1.1-3.14-2.92h8.42c.06-.38.08-.74.08-1.12 0-3.24-2.22-5.42-5.36-5.42-3.26 0-5.5 2.22-5.5 5.68 0 3.46 2.34 5.7 5.5 5.7 2.7 0 4.44-1.54 5.06-3.46zm1.783-2.24c0 3.46 2.24 5.7 5.4 5.7 2.7 0 4.46-1.5 5.08-3.66h-2.46c-.42 1.14-1.26 1.74-2.62 1.74-1.84 0-3.06-1.36-3.06-3.78 0-2.4 1.22-3.76 3.06-3.76 1.36 0 2.24.68 2.62 1.74h2.46c-.62-2.32-2.38-3.66-5.08-3.66-3.16 0-5.4 2.24-5.4 5.68zM37.125 40h2.28v-6.16c0-2.02 1.1-3.06 2.78-3.06 1.66 0 2.76 1.04 2.76 3.06V40h2.26v-6.5c0-3.08-1.92-4.7-4.38-4.7-1.42 0-2.66.54-3.42 1.46V25.2h-2.28V40zm20.808 0h2.26v-6.5c0-3.08-1.94-4.7-4.52-4.7-1.32 0-2.54.54-3.28 1.44v-1.26h-2.28V40h2.28v-6.16c0-2.02 1.1-3.06 2.78-3.06 1.66 0 2.76 1.04 2.76 3.06V40zm15.669-5.52c0-3.46-2.48-5.68-5.62-5.68s-5.62 2.22-5.62 5.68c0 3.46 2.38 5.7 5.52 5.7 3.16 0 5.72-2.24 5.72-5.7zm-8.92 0c0-2.5 1.54-3.7 3.26-3.7 1.7 0 3.32 1.2 3.32 3.7s-1.68 3.72-3.38 3.72c-1.72 0-3.2-1.22-3.2-3.72zM75.856 40h2.28V25.2h-2.28V40zm15.773-5.52c0-3.46-2.48-5.68-5.62-5.68s-5.62 2.22-5.62 5.68c0 3.46 2.38 5.7 5.52 5.7 3.16 0 5.72-2.24 5.72-5.7zm-8.92 0c0-2.5 1.54-3.7 3.26-3.7 1.7 0 3.32 1.2 3.32 3.7s-1.68 3.72-3.38 3.72c-1.72 0-3.2-1.22-3.2-3.72zm10.414-.04c0 3.4 2.3 5.74 5.2 5.74 1.8 0 3.12-.9 3.82-1.84v1.84c0 2.2-1.32 3.28-3.08 3.28-1.58 0-2.8-.78-3.14-1.92h-2.26c.28 2.44 2.46 3.9 5.4 3.9 3.44 0 5.38-2.26 5.38-5.26v-11.2h-2.3v1.6c-.68-.94-2.02-1.78-3.82-1.78-2.9 0-5.2 2.24-5.2 5.64zm9.02.04c0 2.38-1.62 3.72-3.34 3.72-1.7 0-3.34-1.38-3.34-3.76s1.64-3.66 3.34-3.66c1.72 0 3.34 1.34 3.34 3.7zm5.295 5.52h2.28V28.98h-2.28V40zm1.16-12.48c.8 0 1.44-.64 1.44-1.46s-.64-1.46-1.44-1.46c-.82 0-1.46.64-1.46 1.46s.64 1.46 1.46 1.46zm8.753 3.2c1.7 0 3.04 1.08 3.08 2.78h-6.1c.24-1.74 1.48-2.78 3.02-2.78zm5.16 6h-2.46c-.42.86-1.2 1.54-2.6 1.54-1.68 0-2.98-1.1-3.14-2.92h8.42c.06-.38.08-.74.08-1.12 0-3.24-2.22-5.42-5.36-5.42-3.26 0-5.5 2.22-5.5 5.68 0 3.46 2.34 5.7 5.5 5.7 2.7 0 4.44-1.54 5.06-3.46zm2.784-3h8.22V31.8h-8.22v1.92zM3.64 64h2.4l2.22-8.14L10.48 64h2.4l3.42-11.02h-2.24l-2.28 8.82-2.24-8.82H7.16l-2.34 8.86-2.3-8.86H.2L3.64 64zm19.004-9.28c1.7 0 3.04 1.08 3.08 2.78h-6.1c.24-1.74 1.48-2.78 3.02-2.78zm5.16 6h-2.46c-.42.86-1.2 1.54-2.6 1.54-1.68 0-2.98-1.1-3.14-2.92h8.42c.06-.38.08-.74.08-1.12 0-3.24-2.22-5.42-5.36-5.42-3.26 0-5.5 2.22-5.5 5.68 0 3.46 2.34 5.7 5.5 5.7 2.7 0 4.44-1.54 5.06-3.46zm4.824-2.52c0-2.34 1.04-3.04 2.72-3.04h.58V52.8c-1.56 0-2.66.68-3.3 1.78v-1.6h-2.28V64h2.28v-5.8zm5.755 2.74c0 2.24 1.22 3.06 3.18 3.06h1.8v-1.9h-1.4c-.96 0-1.28-.34-1.28-1.16v-6.1h2.68v-1.86h-2.68v-2.74h-2.3v2.74h-1.3v1.86h1.3v6.1zm11.722-6.22c1.7 0 3.04 1.08 3.08 2.78h-6.1c.24-1.74 1.48-2.78 3.02-2.78zm5.16 6h-2.46c-.42.86-1.2 1.54-2.6 1.54-1.68 0-2.98-1.1-3.14-2.92h8.42c.06-.38.08-.74.08-1.12 0-3.24-2.22-5.42-5.36-5.42-3.26 0-5.5 2.22-5.5 5.68 0 3.46 2.34 5.7 5.5 5.7 2.7 0 4.44-1.54 5.06-3.46zm6.979-2.28c0 3.4 2.3 5.74 5.16 5.74 1.84 0 3.16-.88 3.86-1.82V64h2.3V52.98h-2.3v1.6c-.68-.9-1.96-1.78-3.82-1.78-2.9 0-5.2 2.24-5.2 5.64zm9.02.04c0 2.38-1.62 3.72-3.34 3.72-1.7 0-3.34-1.38-3.34-3.76s1.64-3.66 3.34-3.66c1.72 0 3.34 1.34 3.34 3.7zm7.575-3.86V49.2h-2.28V64h2.28v-1.6c.72.96 2.02 1.78 3.84 1.78 2.9 0 5.18-2.34 5.18-5.74 0-3.4-2.26-5.64-5.18-5.64-1.74 0-3.12.82-3.84 1.82zm6.7 3.82c0 2.38-1.64 3.76-3.36 3.76-1.7 0-3.34-1.34-3.34-3.72 0-2.36 1.64-3.7 3.34-3.7 1.72 0 3.36 1.28 3.36 3.66zm9.43-5.42h2.22c.14-1.02.88-1.98 2.48-1.98 1.56 0 2.38.84 2.38 2.1 0 1.56-1.26 2.16-3.32 2.18h-.54v1.88h.52c2.38 0 3.62.66 3.62 2.58 0 1.36-.84 2.4-2.54 2.4-1.72 0-2.72-1.04-2.82-2.4h-2.2c.14 2.86 2.28 4.3 5.04 4.3 3.04 0 4.68-1.76 4.68-4.08 0-2.02-.98-3.28-2.5-3.74v-.08c1.14-.38 2.24-1.56 2.24-3.3 0-2.12-1.58-3.8-4.48-3.8-2.66 0-4.62 1.42-4.78 3.94zM3.78 80.5v-4.54H6.3c1.78 0 2.58.84 2.58 2.28 0 1.4-.8 2.26-2.58 2.26H3.78zm7.44-2.26c0-2.26-1.62-4.14-4.92-4.14H1.5V88h2.28v-5.64H6.3c3.62 0 4.92-2.14 4.92-4.12zM13.395 88h2.28v-4.74l4.08 4.74h3.08l-5.08-5.5 5.08-5.52h-3.16l-4 4.82v-8.6h-2.28V88zm11.434-3.06c0 2.24 1.22 3.06 3.18 3.06h1.8v-1.9h-1.4c-.96 0-1.28-.34-1.28-1.16v-6.1h2.68v-1.86h-2.68v-2.74h-2.3v2.74h-1.3v1.86h1.3v6.1zm9.441 1.74c0-.82-.64-1.46-1.44-1.46-.82 0-1.46.64-1.46 1.46s.64 1.46 1.46 1.46c.8 0 1.44-.64 1.44-1.46z" fill="#fff"/></svg>