<svg width="132" height="22" viewBox="0 0 132 22" fill="none" xmlns="http://www.w3.org/2000/svg"><rect width="132" height="22" rx="11" fill="#14964F"/><path d="M17.384 14h1.08l-2.241-6.264h-1.188L12.794 14h1.07l.45-1.278h2.62l.45 1.278zm-.738-2.115h-2.043l1.026-2.907 1.017 2.907zM22.957 14h1.017v-2.925c0-1.386-.873-2.115-2.034-2.115-.594 0-1.143.243-1.476.648v-.567h-1.026V14h1.026v-2.772c0-.909.495-1.377 1.251-1.377.747 0 1.242.468 1.242 1.377V14zm9.355 0h1.017v-2.925c0-1.386-.882-2.115-2.043-2.115-.72 0-1.422.378-1.728.981-.342-.648-1-.981-1.782-.981-.594 0-1.134.243-1.467.648v-.567h-1.026V14h1.026v-2.772c0-.909.495-1.377 1.25-1.377.748 0 1.243.468 1.243 1.377V14h1.017v-2.772c0-.909.495-1.377 1.25-1.377.748 0 1.243.468 1.243 1.377V14zm4.41-4.176c.765 0 1.368.486 1.386 1.251h-2.744c.108-.783.666-1.251 1.358-1.251zm2.322 2.7h-1.106c-.19.387-.54.693-1.17.693-.757 0-1.342-.495-1.413-1.314h3.789c.026-.171.035-.333.035-.504 0-1.458-.998-2.439-2.412-2.439-1.467 0-2.475.999-2.475 2.556s1.053 2.565 2.475 2.565c1.215 0 1.998-.693 2.277-1.557zM40.19 14h1.026V7.34H40.19V14zm2.031-2.502c0 1.53 1.035 2.583 2.34 2.583.81 0 1.404-.378 1.72-.828V14h1.034V7.34H46.28v2.394c-.378-.468-1.062-.774-1.71-.774-1.314 0-2.349 1.008-2.349 2.538zm4.06.018c0 1.071-.73 1.674-1.504 1.674-.765 0-1.503-.621-1.503-1.692s.738-1.647 1.503-1.647c.774 0 1.503.603 1.503 1.665zm4.47-1.692c.765 0 1.368.486 1.386 1.251H49.39c.108-.783.666-1.251 1.359-1.251zm2.322 2.7h-1.107c-.19.387-.54.693-1.17.693-.756 0-1.341-.495-1.413-1.314h3.789c.027-.171.036-.333.036-.504 0-1.458-1-2.439-2.412-2.439-1.467 0-2.475.999-2.475 2.556s1.053 2.565 2.475 2.565c1.215 0 1.998-.693 2.277-1.557zM57.735 14h1.017v-2.925c0-1.386-.873-2.115-2.034-2.115-.594 0-1.143.243-1.476.648v-.567h-1.025V14h1.026v-2.772c0-.909.494-1.377 1.25-1.377.747 0 1.242.468 1.242 1.377V14zm9.155-4.959h-1.026v2.763c0 .909-.495 1.377-1.25 1.377-.748 0-1.243-.468-1.243-1.377V9.041h-1.017v2.916c0 1.386.882 2.115 2.043 2.115.585 0 1.143-.243 1.467-.666V14h1.026V9.041zM71.763 14h1.017v-2.925c0-1.386-.873-2.115-2.034-2.115-.594 0-1.143.243-1.476.648v-.567h-1.026V14h1.026v-2.772c0-.909.495-1.377 1.25-1.377.748 0 1.243.468 1.243 1.377V14zm1.984-2.502c0 1.53 1.035 2.583 2.34 2.583.81 0 1.404-.378 1.719-.828V14h1.035V7.34h-1.035v2.394c-.378-.468-1.062-.774-1.71-.774-1.314 0-2.35 1.008-2.35 2.538zm4.059.018c0 1.071-.73 1.674-1.503 1.674-.765 0-1.503-.621-1.503-1.692s.738-1.647 1.503-1.647c.774 0 1.503.603 1.503 1.665zM82.526 14h1.026v-2.772c0-.909.495-1.377 1.251-1.377.747 0 1.242.468 1.242 1.377V14h1.017v-2.925c0-1.386-.864-2.115-1.97-2.115-.64 0-1.198.243-1.54.657V7.34h-1.026V14zm5.503-2.502c0 1.53 1.035 2.583 2.322 2.583.828 0 1.422-.396 1.737-.819V14h1.035V9.041h-1.035v.72c-.306-.405-.882-.801-1.72-.801-1.304 0-2.34 1.008-2.34 2.538zm4.059.018c0 1.071-.73 1.674-1.503 1.674-.765 0-1.503-.621-1.503-1.692s.738-1.647 1.503-1.647c.774 0 1.503.603 1.503 1.665zM97.989 14h1.017v-2.925c0-1.386-.873-2.115-2.034-2.115-.594 0-1.143.243-1.476.648v-.567H94.47V14h1.026v-2.772c0-.909.495-1.377 1.251-1.377.747 0 1.242.468 1.242 1.377V14zm1.984-2.502c0 1.53 1.035 2.583 2.34 2.583.81 0 1.404-.378 1.719-.828V14h1.035V7.34h-1.035v2.394c-.378-.468-1.062-.774-1.71-.774-1.314 0-2.349 1.008-2.349 2.538zm4.059.018c0 1.071-.729 1.674-1.503 1.674-.765 0-1.503-.621-1.503-1.692s.738-1.647 1.503-1.647c.774 0 1.503.603 1.503 1.665zm4.471-1.692c.765 0 1.368.486 1.386 1.251h-2.745c.108-.783.666-1.251 1.359-1.251zm2.322 2.7h-1.107c-.189.387-.54.693-1.17.693-.756 0-1.341-.495-1.413-1.314h3.789c.027-.171.036-.333.036-.504 0-1.458-.999-2.439-2.412-2.439-1.467 0-2.475.999-2.475 2.556s1.053 2.565 2.475 2.565c1.215 0 1.998-.693 2.277-1.557zM111.969 14h1.026V7.34h-1.026V14zm5.892 0h1.017v-2.925c0-1.386-.873-2.115-2.034-2.115-.594 0-1.143.243-1.476.648v-.567h-1.026V14h1.026v-2.772c0-.909.495-1.377 1.251-1.377.747 0 1.242.468 1.242 1.377V14z" fill="#fff"/></svg>