<svg width="125" height="48" viewBox="0 0 125 48" fill="none" xmlns="http://www.w3.org/2000/svg"><path d="M1.987 7.384c-.376 0-.7-.132-.972-.396a1.341 1.341 0 01-.408-.984c0-.392.136-.72.408-.984.272-.272.596-.408.972-.408.392 0 .72.136.984.408.272.264.408.592.408.984 0 .384-.136.712-.408.984a1.336 1.336 0 01-.984.396zm9.625 1.956c1.472-1.104 2.608-2.092 3.408-2.964.808-.88 1.212-1.74 1.212-2.58 0-.552-.14-.992-.42-1.32-.272-.336-.72-.504-1.344-.504-.608 0-1.08.192-1.416.576-.328.376-.512.88-.552 1.512h-.816c.048-.888.32-1.576.816-2.064.504-.496 1.16-.744 1.968-.744.776 0 1.404.22 1.884.66.48.432.72 1.048.72 1.848 0 .968-.404 1.908-1.212 2.82-.8.904-1.788 1.788-2.964 2.652h4.44v.708h-5.724v-.6zm7.035-3.72c0-1.376.212-2.444.636-3.204.424-.76 1.184-1.14 2.28-1.14 1.096 0 1.856.38 2.28 1.14.424.76.636 1.828.636 3.204 0 1.4-.212 2.484-.636 3.252-.424.768-1.184 1.152-2.28 1.152-1.104 0-1.868-.384-2.292-1.152-.416-.768-.624-1.852-.624-3.252zm5.004 0c0-.744-.052-1.372-.156-1.884-.104-.512-.308-.924-.612-1.236-.304-.312-.744-.468-1.32-.468-.576 0-1.016.156-1.32.468-.304.312-.508.724-.612 1.236-.104.512-.156 1.14-.156 1.884 0 .768.052 1.412.156 1.932.104.512.308.924.612 1.236.304.312.744.468 1.32.468.576 0 1.016-.156 1.32-.468.304-.312.508-.724.612-1.236.104-.52.156-1.164.156-1.932zm9.74-4.008V7.96c0 .64-.196 1.156-.588 1.548-.392.384-.916.576-1.572.576-.68 0-1.224-.204-1.632-.612-.4-.416-.6-.976-.6-1.68h.852c.008.456.12.828.336 1.116.224.288.572.432 1.044.432.448 0 .78-.132.996-.396.216-.264.324-.592.324-.984V1.612h.84zm1.728 5.1c0-.672.132-1.26.396-1.764a2.881 2.881 0 011.116-1.176c.48-.28 1.02-.42 1.62-.42.624 0 1.16.144 1.608.432.456.288.784.656.984 1.104v-1.44h.84V10h-.84V8.548c-.208.448-.54.82-.996 1.116-.448.288-.984.432-1.608.432-.592 0-1.128-.14-1.608-.42a2.964 2.964 0 01-1.116-1.188c-.264-.512-.396-1.104-.396-1.776zm5.724.012c0-.528-.108-.992-.324-1.392a2.3 2.3 0 00-.888-.924 2.373 2.373 0 00-1.224-.324c-.464 0-.88.104-1.248.312-.368.208-.66.512-.876.912-.208.392-.312.86-.312 1.404 0 .536.104 1.008.312 1.416.216.4.508.708.876.924.368.208.784.312 1.248.312.448 0 .856-.108 1.224-.324a2.3 2.3 0 00.888-.924c.216-.4.324-.864.324-1.392zm5.878-3.396c.496 0 .94.104 1.332.312.4.208.712.528.936.96.232.424.348.944.348 1.56V10h-.828V6.256c0-.712-.18-1.256-.54-1.632-.352-.376-.836-.564-1.452-.564-.632 0-1.136.2-1.512.6-.376.4-.564.988-.564 1.764V10h-.84V1.12h.84v3.444a2.18 2.18 0 01.912-.912 2.878 2.878 0 011.368-.324zm5.313 1.284c.184-.408.464-.724.84-.948.384-.224.852-.336 1.404-.336v.876h-.228c-.608 0-1.096.164-1.464.492-.368.328-.552.876-.552 1.644V10h-.84V3.448h.84v1.164zm9.436 1.776c0 .288-.008.508-.024.66H56.01c.024.496.144.92.36 1.272s.5.62.852.804a2.54 2.54 0 001.152.264c.544 0 1-.132 1.368-.396a1.85 1.85 0 00.744-1.068h.888a2.792 2.792 0 01-1.032 1.572c-.52.4-1.176.6-1.968.6a3.343 3.343 0 01-1.656-.408 3.016 3.016 0 01-1.152-1.176c-.272-.512-.408-1.108-.408-1.788 0-.68.136-1.276.408-1.788a2.836 2.836 0 011.14-1.176c.488-.272 1.044-.408 1.668-.408.624 0 1.168.136 1.632.408.472.272.832.64 1.08 1.104.256.456.384.964.384 1.524zm-.852-.024c.008-.488-.092-.904-.3-1.248a1.947 1.947 0 00-.828-.78 2.54 2.54 0 00-1.152-.264c-.624 0-1.156.2-1.596.6-.44.4-.684.964-.732 1.692h4.608zm6.522-4.068v3.132h3.18v.696h-3.18v3.18h3.54V10H66.3V1.6h4.38v.696h-3.54zm6.035 2.316c.184-.408.464-.724.84-.948.384-.224.852-.336 1.404-.336v.876h-.228c-.608 0-1.096.164-1.464.492-.368.328-.552.876-.552 1.644V10h-.84V3.448h.84v1.164zm6.088-.456h-1.524V10h-.84V4.156h-.912v-.708h.912v-.456c0-.712.18-1.236.54-1.572.368-.336.96-.504 1.776-.504v.72c-.544 0-.928.104-1.152.312-.216.208-.324.556-.324 1.044v.456h1.524v.708zm.938 2.556c0-.672.132-1.26.396-1.764a2.881 2.881 0 011.116-1.176c.48-.28 1.02-.42 1.62-.42.624 0 1.16.144 1.608.432.456.288.784.656.984 1.104v-1.44h.84V10h-.84V8.548c-.208.448-.54.82-.996 1.116-.448.288-.984.432-1.608.432-.592 0-1.128-.14-1.608-.42a2.964 2.964 0 01-1.116-1.188c-.264-.512-.396-1.104-.396-1.776zm5.724.012c0-.528-.108-.992-.324-1.392a2.3 2.3 0 00-.888-.924 2.373 2.373 0 00-1.224-.324c-.464 0-.88.104-1.248.312-.368.208-.66.512-.876.912-.208.392-.312.86-.312 1.404 0 .536.104 1.008.312 1.416.216.4.508.708.876.924.368.208.784.312 1.248.312.448 0 .856-.108 1.224-.324a2.3 2.3 0 00.888-.924c.216-.4.324-.864.324-1.392zm5.878-3.396c.496 0 .94.104 1.332.312.4.208.712.528.936.96.232.424.348.944.348 1.56V10h-.828V6.256c0-.712-.18-1.256-.54-1.632-.352-.376-.836-.564-1.452-.564-.632 0-1.136.2-1.512.6-.376.4-.564.988-.564 1.764V10h-.84V1.12h.84v3.444a2.18 2.18 0 01.912-.912 2.878 2.878 0 011.368-.324zm5.313 1.284c.184-.408.464-.724.84-.948.384-.224.852-.336 1.404-.336v.876h-.228c-.608 0-1.096.164-1.464.492-.368.328-.552.876-.552 1.644V10h-.84V3.448h.84v1.164zm9.184-1.164V10h-.84V8.848c-.192.408-.488.72-.888.936-.4.216-.848.324-1.344.324-.784 0-1.424-.24-1.92-.72-.496-.488-.744-1.192-.744-2.112V3.448h.828V7.18c0 .712.176 1.256.528 1.632.36.376.848.564 1.464.564.632 0 1.136-.2 1.512-.6.376-.4.564-.988.564-1.764V3.448h.84zm4.99-.12c.784 0 1.424.244 1.92.732.496.48.744 1.18.744 2.1V10h-.828V6.256c0-.712-.18-1.256-.54-1.632-.352-.376-.836-.564-1.452-.564-.632 0-1.136.2-1.512.6-.376.4-.564.988-.564 1.764V10h-.84V3.448h.84v1.116c.208-.4.508-.704.9-.912a2.714 2.714 0 011.332-.324zm7.27.024c.616 0 1.152.144 1.608.432.456.288.784.652.984 1.092V3.448h.84v6.72c0 .6-.132 1.132-.396 1.596a2.62 2.62 0 01-1.08 1.068c-.464.256-.992.384-1.584.384-.84 0-1.54-.2-2.1-.6a2.553 2.553 0 01-1.032-1.632h.828c.144.456.416.82.816 1.092.408.272.904.408 1.488.408.424 0 .804-.092 1.14-.276.336-.176.6-.44.792-.792.192-.352.288-.768.288-1.248v-1.62c-.208.448-.54.82-.996 1.116-.448.288-.98.432-1.596.432-.6 0-1.14-.14-1.62-.42a2.964 2.964 0 01-1.116-1.188c-.264-.512-.396-1.104-.396-1.776 0-.672.132-1.26.396-1.764a2.881 2.881 0 011.116-1.176c.48-.28 1.02-.42 1.62-.42zm2.592 3.372c0-.528-.108-.992-.324-1.392a2.3 2.3 0 00-.888-.924 2.373 2.373 0 00-1.224-.324c-.464 0-.88.104-1.248.312-.368.208-.66.512-.876.912-.208.392-.312.86-.312 1.404 0 .536.104 1.008.312 1.416.216.4.508.708.876.924.368.208.784.312 1.248.312.448 0 .856-.108 1.224-.324a2.3 2.3 0 00.888-.924c.216-.4.324-.864.324-1.392zm3.525 1.884l-1.248 3.144h-.576l.888-3.144h.936zM13.052 21.156v4.068c0 .4.076.676.228.828.152.152.42.228.804.228h.768V27h-.9c-.592 0-1.032-.136-1.32-.408-.288-.28-.432-.736-.432-1.368v-4.068h-.912v-.708h.912v-1.644h.852v1.644h1.8v.708h-1.8zm9.113 2.232c0 .288-.008.508-.024.66h-5.436c.024.496.144.92.36 1.272s.5.62.852.804a2.54 2.54 0 001.152.264c.544 0 1-.132 1.368-.396a1.85 1.85 0 00.744-1.068h.888a2.792 2.792 0 01-1.032 1.572c-.52.4-1.176.6-1.968.6a3.343 3.343 0 01-1.656-.408 3.016 3.016 0 01-1.152-1.176c-.272-.512-.408-1.108-.408-1.788 0-.68.136-1.276.408-1.788a2.836 2.836 0 011.14-1.176c.488-.272 1.044-.408 1.668-.408.624 0 1.168.136 1.632.408.472.272.832.64 1.08 1.104.256.456.384.964.384 1.524zm-.852-.024c.008-.488-.092-.904-.3-1.248a1.947 1.947 0 00-.828-.78 2.54 2.54 0 00-1.152-.264c-.624 0-1.156.2-1.596.6-.44.4-.684.964-.732 1.692h4.608zm2.81-4.152a.59.59 0 01-.433-.18.603.603 0 01-.18-.444c0-.176.06-.32.18-.432a.59.59 0 01.432-.18.59.59 0 01.432.18c.12.112.18.256.18.432s-.06.324-.18.444a.59.59 0 01-.432.18zm.42 1.236V27h-.84v-6.552h.84zm2.741-2.328V27h-.84v-8.88h.84zm7.523 8.064l2.209-5.736h.888L35.275 27h-.947l-2.629-6.552h.9l2.209 5.736zm7.103.912a3.411 3.411 0 01-1.668-.408 3.1 3.1 0 01-1.164-1.176c-.28-.512-.42-1.108-.42-1.788 0-.68.144-1.272.432-1.776a2.97 2.97 0 011.176-1.176 3.333 3.333 0 011.668-.42c.616 0 1.172.14 1.668.42.504.272.896.664 1.176 1.176.288.504.432 1.096.432 1.776 0 .672-.144 1.264-.432 1.776a3.03 3.03 0 01-1.188 1.188 3.48 3.48 0 01-1.68.408zm0-.732c.432 0 .832-.096 1.2-.288.368-.2.664-.496.888-.888.232-.4.348-.888.348-1.464s-.112-1.06-.336-1.452c-.224-.4-.52-.696-.888-.888-.368-.2-.768-.3-1.2-.3-.432 0-.832.1-1.2.3a2.157 2.157 0 00-.888.888c-.216.392-.324.876-.324 1.452s.108 1.064.324 1.464c.224.392.516.688.876.888.368.192.768.288 1.2.288zm7.903-6.036c.784 0 1.424.244 1.92.732.496.48.744 1.18.744 2.1V27h-.828v-3.744c0-.712-.18-1.256-.54-1.632-.352-.376-.836-.564-1.452-.564-.632 0-1.136.2-1.512.6-.376.4-.564.988-.564 1.764V27h-.84v-6.552h.84v1.116c.208-.4.508-.704.9-.912a2.714 2.714 0 011.332-.324zm10.359 6.756c-.552 0-1.04-.096-1.464-.288a2.391 2.391 0 01-.984-.804 2.111 2.111 0 01-.384-1.152h.888c.04.408.22.768.54 1.08.32.304.788.456 1.404.456.568 0 1.016-.144 1.344-.432.336-.296.504-.668.504-1.116 0-.36-.092-.648-.276-.864a1.618 1.618 0 00-.684-.492 9.585 9.585 0 00-1.128-.36 9.862 9.862 0 01-1.332-.444 2.12 2.12 0 01-.84-.672c-.232-.304-.348-.716-.348-1.236 0-.432.112-.816.336-1.152.224-.344.54-.612.948-.804.408-.192.876-.288 1.404-.288.776 0 1.4.192 1.872.576.48.376.756.864.828 1.464h-.912c-.056-.344-.244-.648-.564-.912-.32-.272-.752-.408-1.296-.408-.504 0-.924.136-1.26.408-.336.264-.504.628-.504 1.092 0 .352.092.636.276.852.184.216.412.38.684.492.28.112.656.232 1.128.36.544.152.984.304 1.32.456a2.1 2.1 0 01.852.672c.232.304.348.712.348 1.224 0 .392-.104.764-.312 1.116a2.277 2.277 0 01-.924.852c-.408.216-.896.324-1.464.324zm5.415-5.928v4.068c0 .4.076.676.228.828.152.152.42.228.804.228h.768V27h-.9c-.592 0-1.032-.136-1.32-.408-.288-.28-.432-.736-.432-1.368v-4.068h-.912v-.708h.912v-1.644h.852v1.644h1.8v.708h-1.8zm6.053 5.94a3.411 3.411 0 01-1.668-.408 3.1 3.1 0 01-1.163-1.176c-.28-.512-.42-1.108-.42-1.788 0-.68.144-1.272.431-1.776a2.97 2.97 0 011.177-1.176 3.333 3.333 0 011.668-.42c.615 0 1.171.14 1.667.42.505.272.897.664 1.177 1.176.287.504.431 1.096.431 1.776 0 .672-.144 1.264-.431 1.776a3.03 3.03 0 01-1.189 1.188 3.48 3.48 0 01-1.68.408zm0-.732c.433 0 .832-.096 1.2-.288.368-.2.664-.496.888-.888.233-.4.349-.888.349-1.464s-.112-1.06-.337-1.452c-.224-.4-.52-.696-.887-.888-.368-.2-.768-.3-1.2-.3-.433 0-.833.1-1.2.3a2.157 2.157 0 00-.889.888c-.215.392-.323.876-.323 1.452s.108 1.064.323 1.464c.225.392.517.688.877.888.367.192.767.288 1.2.288zm7.904-6.036c.784 0 1.424.244 1.92.732.496.48.744 1.18.744 2.1V27h-.828v-3.744c0-.712-.18-1.256-.54-1.632-.352-.376-.836-.564-1.452-.564-.632 0-1.136.2-1.512.6-.376.4-.564.988-.564 1.764V27h-.84v-6.552h.84v1.116c.208-.4.508-.704.9-.912a2.714 2.714 0 011.332-.324zm10.45 3.06c0 .288-.008.508-.025.66h-5.435c.023.496.143.92.36 1.272.215.352.5.62.852.804a2.54 2.54 0 001.151.264c.544 0 1-.132 1.368-.396a1.85 1.85 0 00.745-1.068h.887a2.792 2.792 0 01-1.032 1.572c-.52.4-1.175.6-1.968.6a3.343 3.343 0 01-1.656-.408 3.016 3.016 0 01-1.151-1.176c-.273-.512-.409-1.108-.409-1.788 0-.68.136-1.276.409-1.788a2.836 2.836 0 011.14-1.176c.487-.272 1.043-.408 1.667-.408.624 0 1.168.136 1.632.408.472.272.833.64 1.08 1.104.257.456.385.964.385 1.524zm-.853-.024c.008-.488-.092-.904-.3-1.248a1.947 1.947 0 00-.828-.78 2.54 2.54 0 00-1.151-.264c-.624 0-1.156.2-1.596.6-.44.4-.684.964-.733 1.692h4.608zm5.413-.552L97.098 27h-.936l-2.136-3.504L91.998 27h-.936l2.532-4.224-2.532-4.164h.936l2.124 3.492 2.052-3.492h.936l-2.556 4.2zM18.56 38.06a2.822 2.822 0 00-1.104-1.296c-.488-.32-1.064-.48-1.728-.48-.624 0-1.184.144-1.68.432-.496.288-.888.7-1.176 1.236-.288.528-.432 1.144-.432 1.848 0 .704.144 1.324.432 1.86.288.536.68.948 1.176 1.236a3.284 3.284 0 001.68.432c.584 0 1.108-.124 1.572-.372a2.925 2.925 0 001.128-1.08c.288-.472.452-1.02.492-1.644h-3.528v-.684h4.416v.612a4.285 4.285 0 01-.6 2.004 3.944 3.944 0 01-1.452 1.404c-.6.344-1.276.516-2.028.516-.776 0-1.48-.18-2.112-.54a4.035 4.035 0 01-1.5-1.524c-.36-.656-.54-1.396-.54-2.22 0-.824.18-1.56.54-2.208a3.925 3.925 0 011.5-1.524 4.12 4.12 0 012.112-.552c.896 0 1.68.224 2.352.672.672.448 1.16 1.072 1.464 1.872h-.984zm3.627.552c.184-.408.464-.724.84-.948.384-.224.852-.336 1.404-.336v.876h-.228c-.608 0-1.096.164-1.464.492-.368.328-.552.876-.552 1.644V44h-.84v-6.552h.84v1.164zm6.375 5.484a3.411 3.411 0 01-1.668-.408 3.1 3.1 0 01-1.164-1.176c-.28-.512-.42-1.108-.42-1.788 0-.68.144-1.272.432-1.776a2.97 2.97 0 011.176-1.176 3.333 3.333 0 011.668-.42c.616 0 1.172.14 1.668.42.504.272.896.664 1.176 1.176.288.504.432 1.096.432 1.776 0 .672-.144 1.264-.432 1.776a3.03 3.03 0 01-1.188 1.188 3.48 3.48 0 01-1.68.408zm0-.732c.432 0 .832-.096 1.2-.288.368-.2.664-.496.888-.888.232-.4.348-.888.348-1.464s-.112-1.06-.336-1.452c-.224-.4-.52-.696-.888-.888-.368-.2-.768-.3-1.2-.3-.432 0-.832.1-1.2.3a2.157 2.157 0 00-.888.888c-.216.392-.324.876-.324 1.452s.108 1.064.324 1.464c.224.392.516.688.876.888.368.192.768.288 1.2.288zm10.508-5.916V44h-.84v-1.152c-.192.408-.488.72-.888.936-.4.216-.848.324-1.344.324-.784 0-1.424-.24-1.92-.72-.496-.488-.744-1.192-.744-2.112v-3.828h.828v3.732c0 .712.176 1.256.528 1.632.36.376.848.564 1.464.564.632 0 1.136-.2 1.512-.6.376-.4.564-.988.564-1.764v-3.564h.84zm2.745 1.44c.208-.44.536-.804.984-1.092.456-.296.996-.444 1.62-.444.592 0 1.124.14 1.596.42.48.272.852.664 1.116 1.176.272.504.408 1.092.408 1.764 0 .672-.136 1.264-.408 1.776a2.86 2.86 0 01-1.116 1.188c-.472.28-1.004.42-1.596.42-.616 0-1.152-.144-1.608-.432-.456-.296-.788-.664-.996-1.104v4.536h-.828v-9.648h.828v1.44zm4.872 1.824c0-.544-.108-1.012-.324-1.404a2.166 2.166 0 00-.864-.912 2.492 2.492 0 00-1.248-.312c-.448 0-.86.108-1.236.324-.368.216-.66.524-.876.924-.216.4-.324.864-.324 1.392 0 .528.108.992.324 1.392.216.4.508.708.876.924.376.216.788.324 1.236.324.464 0 .88-.104 1.248-.312.368-.216.656-.524.864-.924.216-.408.324-.88.324-1.416z" fill="#fff"/></svg>