<svg width="134" height="32" viewBox="0 0 134 32" fill="none" xmlns="http://www.w3.org/2000/svg"><path d="M1.024 12h1.84V7.936h2.464L7.488 12h2.048L7.168 7.536c1.312-.464 2.176-1.664 2.176-3.168C9.344 2.192 7.776.8 5.44.8H1.024V12zm4.272-9.6c1.312 0 2.16.768 2.16 1.968s-.848 1.968-2.16 1.968H2.864V2.4h2.432zm9.018 9.696c2.032 0 3.408-1.232 3.696-2.848h-1.728c-.24.912-1.008 1.44-2.064 1.44-1.36 0-2.24-.912-2.288-2.304v-.112h6.176c.032-.224.048-.448.048-.656-.048-2.4-1.632-3.904-4-3.904-2.416 0-4.032 1.68-4.032 4.208 0 2.512 1.616 4.176 4.192 4.176zm-2.32-5.088c.128-1.168 1.072-1.904 2.176-1.904 1.2 0 2.048.688 2.192 1.904h-4.368zm15.045 3.488c-.352 0-.528-.112-.528-.528v-3.28c0-1.936-1.248-2.976-3.424-2.976-2.064 0-3.44.992-3.616 2.592h1.696c.128-.72.816-1.2 1.84-1.2 1.136 0 1.792.56 1.792 1.472v.496h-2.064c-2.288 0-3.504.944-3.504 2.624 0 1.52 1.248 2.4 3.04 2.4 1.328 0 2.16-.576 2.704-1.408 0 .816.384 1.312 1.504 1.312h.912v-1.504h-.352zM24.8 8.64c-.016 1.264-.848 2.112-2.288 2.112-.944 0-1.52-.48-1.52-1.168 0-.832.592-1.232 1.664-1.232H24.8v.288zm9.695-3.696c-.528-.72-1.408-1.232-2.656-1.232-2.224 0-3.872 1.664-3.872 4.192 0 2.624 1.648 4.192 3.872 4.192 1.296 0 2.144-.608 2.672-1.328L34.718 12h1.504V.8h-1.728v4.144zm-2.368 5.696c-1.44 0-2.384-1.12-2.384-2.736 0-1.6.944-2.72 2.384-2.72s2.384 1.12 2.384 2.752c0 1.584-.944 2.704-2.384 2.704zm8.153 1.408l-.32.8c-.257.672-.417.832-1.089.832h-1.215v1.52h1.855c1.2 0 1.553-.592 2.065-1.92l3.711-9.472h-1.84l-2.224 6.224-2.288-6.224h-1.84l3.184 8.24zm10.567-2.272c0 1.488.672 2.224 2.24 2.224h1.6v-1.52H53.47c-.656 0-.88-.24-.88-.88V5.328h2v-1.52h-2V1.52h-1.744v2.288h-1.424v1.52h1.424v4.448zm8.64 2.32c2.496 0 4.176-1.68 4.176-4.192 0-2.496-1.68-4.192-4.176-4.192-2.496 0-4.176 1.696-4.176 4.192 0 2.512 1.68 4.192 4.176 4.192zm0-1.472c-1.456 0-2.4-1.136-2.4-2.72 0-1.584.944-2.72 2.4-2.72s2.416 1.136 2.416 2.72c0 1.584-.96 2.72-2.416 2.72zm10.25-.848c0 1.488.673 2.224 2.24 2.224h1.6v-1.52h-1.215c-.656 0-.88-.24-.88-.88V5.328h2v-1.52h-2V1.52h-1.744v2.288h-1.424v1.52h1.424v4.448zm9.084-5.968c-1.344 0-2 .544-2.416 1.232l-.192-1.232h-1.536V12h1.728V7.888c0-1.264.496-2.464 2.032-2.464h.768V3.808h-.384zm8.688 6.688c-.352 0-.528-.112-.528-.528v-3.28c0-1.936-1.248-2.976-3.424-2.976-2.064 0-3.44.992-3.616 2.592h1.696c.128-.72.816-1.2 1.84-1.2 1.136 0 1.792.56 1.792 1.472v.496h-2.064c-2.288 0-3.504.944-3.504 2.624 0 1.52 1.248 2.4 3.04 2.4 1.328 0 2.16-.576 2.704-1.408 0 .816.384 1.312 1.504 1.312h.912v-1.504h-.352zm-2.24-1.856c-.016 1.264-.848 2.112-2.288 2.112-.944 0-1.52-.48-1.52-1.168 0-.832.592-1.232 1.664-1.232h2.144v.288zm9.695-3.696c-.528-.72-1.408-1.232-2.656-1.232-2.224 0-3.872 1.664-3.872 4.192 0 2.624 1.648 4.192 3.872 4.192 1.296 0 2.144-.608 2.672-1.328L95.187 12h1.504V.8h-1.728v4.144zm-2.368 5.696c-1.44 0-2.384-1.12-2.384-2.736 0-1.6.944-2.72 2.384-2.72s2.384 1.12 2.384 2.752c0 1.584-.944 2.704-2.384 2.704zm9.672 1.456c2.032 0 3.408-1.232 3.696-2.848h-1.728c-.24.912-1.008 1.44-2.064 1.44-1.36 0-2.24-.912-2.288-2.304v-.112h6.176c.032-.224.048-.448.048-.656-.048-2.4-1.632-3.904-4-3.904-2.416 0-4.032 1.68-4.032 4.208 0 2.512 1.616 4.176 4.192 4.176zm-2.32-5.088c.128-1.168 1.072-1.904 2.176-1.904 1.2 0 2.048.688 2.192 1.904h-4.368zm12.243 2.768c0 1.488.672 2.224 2.24 2.224h1.6v-1.52h-1.216c-.656 0-.88-.24-.88-.88V5.328h2v-1.52h-2V1.52h-1.744v2.288h-1.424v1.52h1.424v4.448zm9.243-6.064c-1.28 0-2.064.576-2.576 1.28V.8h-1.728V12h1.728V7.856c0-1.648.832-2.656 2.192-2.656 1.28 0 1.968.832 1.968 2.384V12h1.728V7.44c0-2.736-1.488-3.728-3.312-3.728zm8.709 8.384c2.032 0 3.408-1.232 3.696-2.848h-1.728c-.24.912-1.008 1.44-2.064 1.44-1.36 0-2.24-.912-2.288-2.304v-.112h6.176c.032-.224.048-.448.048-.656-.048-2.4-1.632-3.904-4-3.904-2.416 0-4.032 1.68-4.032 4.208 0 2.512 1.616 4.176 4.192 4.176zm-2.32-5.088c.128-1.168 1.072-1.904 2.176-1.904 1.2 0 2.048.688 2.192 1.904h-4.368zm-122.83 15.8c-1.344 0-2 .544-2.416 1.232l-.192-1.232H.848V31h1.728v-4.112c0-1.264.496-2.464 2.032-2.464h.768v-1.616h-.384zm4.947 8.288c2.032 0 3.408-1.232 3.696-2.848h-1.728c-.24.912-1.008 1.44-2.064 1.44-1.36 0-2.24-.912-2.288-2.304v-.112h6.176c.032-.224.048-.448.048-.656-.048-2.4-1.632-3.904-4-3.904-2.416 0-4.032 1.68-4.032 4.208 0 2.512 1.616 4.176 4.192 4.176zm-2.32-5.088c.128-1.168 1.072-1.904 2.176-1.904 1.2 0 2.048.688 2.192 1.904H7.62zm15.045 3.488c-.352 0-.528-.112-.528-.528v-3.28c0-1.936-1.248-2.976-3.424-2.976-2.064 0-3.44.992-3.616 2.592h1.696c.128-.72.816-1.2 1.84-1.2 1.136 0 1.792.56 1.792 1.472v.496H18.36c-2.288 0-3.504.944-3.504 2.624 0 1.52 1.248 2.4 3.04 2.4 1.328 0 2.16-.576 2.704-1.408 0 .816.384 1.312 1.504 1.312h.912v-1.504h-.352zm-2.24-1.856c-.016 1.264-.848 2.112-2.288 2.112-.944 0-1.52-.48-1.52-1.168 0-.832.592-1.232 1.664-1.232h2.144v.288zM23.957 31h1.728V19.8h-1.728V31zm16.94-8.288c-1.344 0-2.272.592-2.8 1.488-.496-1.056-1.456-1.488-2.528-1.488-1.232.016-1.936.56-2.4 1.168l-.192-1.072h-1.504V31h1.728v-4.384c0-1.456.736-2.416 1.92-2.416 1.136 0 1.728.752 1.728 2.192V31h1.744v-4.432c0-1.472.752-2.368 1.936-2.368 1.12 0 1.712.752 1.712 2.192V31h1.728v-4.72c0-2.592-1.376-3.568-3.072-3.568zm12.127 6.784c-.352 0-.529-.112-.529-.528v-3.28c0-1.936-1.247-2.976-3.423-2.976-2.065 0-3.44.992-3.617 2.592h1.697c.127-.72.816-1.2 1.84-1.2 1.136 0 1.791.56 1.791 1.472v.496H48.72c-2.288 0-3.504.944-3.504 2.624 0 1.52 1.248 2.4 3.04 2.4 1.328 0 2.16-.576 2.704-1.408 0 .816.384 1.312 1.505 1.312h.912v-1.504h-.352zm-2.24-1.856c-.017 1.264-.849 2.112-2.288 2.112-.945 0-1.52-.48-1.52-1.168 0-.832.592-1.232 1.663-1.232h2.144v.288zm7.677-4.832c-1.344 0-2 .544-2.416 1.232l-.192-1.232h-1.536V31h1.728v-4.112c0-1.264.496-2.464 2.032-2.464h.768v-1.616h-.384zM59.91 31h1.727v-2.08l1.473-1.536L65.526 31h2.047l-3.28-4.88 3.088-3.312H65.35l-3.711 3.968V19.8H59.91V31zm11.872.096c2.032 0 3.408-1.232 3.696-2.848H73.75c-.24.912-1.008 1.44-2.064 1.44-1.36 0-2.24-.912-2.288-2.304v-.112h6.176c.032-.224.048-.448.048-.656-.048-2.4-1.632-3.904-4-3.904-2.416 0-4.032 1.68-4.032 4.208 0 2.512 1.616 4.176 4.192 4.176zm-2.32-5.088c.128-1.168 1.072-1.904 2.176-1.904 1.2 0 2.048.688 2.192 1.904h-4.368zm8.086 2.768c0 1.488.672 2.224 2.24 2.224h1.6v-1.52h-1.216c-.656 0-.88-.24-.88-.88v-4.272h2v-1.52h-2V20.52H77.55v2.288h-1.424v1.52h1.424v4.448zm4.588-.48c.048 1.776 1.552 2.8 3.744 2.8 1.984 0 3.472-.992 3.472-2.56 0-1.824-1.52-2.208-3.392-2.432-1.184-.128-1.968-.224-1.968-.992 0-.656.672-1.072 1.696-1.072s1.728.528 1.824 1.28h1.696c-.112-1.68-1.536-2.608-3.552-2.608-1.968-.016-3.36.992-3.36 2.544 0 1.696 1.472 2.096 3.344 2.32 1.264.16 2.016.224 2.016 1.104 0 .656-.704 1.072-1.776 1.072-1.248 0-1.984-.608-2.048-1.456h-1.696zm9.525-4.832c0-1.328.8-2.224 2.031-2.224 1.073 0 1.793.64 1.793 1.552 0 .768-.416 1.28-1.136 1.76-.96.624-1.712 1.152-1.712 2.448v.512h1.631v-.32c0-.8.544-1.216 1.408-1.808.832-.592 1.6-1.296 1.6-2.768 0-1.68-1.376-2.912-3.6-2.912-2.384 0-3.776 1.68-3.776 3.76h1.76zm.735 6.56c0 .64.48 1.072 1.104 1.072.624 0 1.088-.432 1.088-1.072 0-.64-.463-1.072-1.088-1.072-.624 0-1.104.432-1.104 1.072z" fill="#000"/></svg>