<svg width="112" height="31" viewBox="0 0 112 31" fill="none" xmlns="http://www.w3.org/2000/svg"><path d="M.96 13h7.035v-1.53h-5.31V8.425h4.23V6.94h-4.23V4.03h5.13V2.5H.96V13zm15.087-1.41c-.33 0-.495-.105-.495-.495V8.02c0-1.815-1.17-2.79-3.21-2.79-1.935 0-3.225.93-3.39 2.43h1.59c.12-.675.765-1.125 1.725-1.125 1.065 0 1.68.525 1.68 1.38v.465h-1.935c-2.145 0-3.285.885-3.285 2.46 0 1.425 1.17 2.25 2.85 2.25 1.245 0 2.025-.54 2.535-1.32 0 .765.36 1.23 1.41 1.23h.855v-1.41h-.33zm-2.1-1.74c-.015 1.185-.795 1.98-2.145 1.98-.885 0-1.425-.45-1.425-1.095 0-.78.555-1.155 1.56-1.155h2.01v.27zm7.198-4.53c-1.26 0-1.875.51-2.265 1.155L18.7 5.32h-1.44V13h1.62V9.145c0-1.185.465-2.31 1.905-2.31h.72V5.32h-.36zm5.409-.09c-1.245 0-1.98.495-2.46 1.095l-.18-1.005h-1.41V13h1.62V9.13c0-1.56.765-2.505 2.055-2.505 1.215 0 1.83.78 1.83 2.235V13h1.635V8.725c0-2.565-1.395-3.495-3.09-3.495zM39.41 6.955c-1.65-.285-2.73-.51-2.73-1.59 0-.99.825-1.5 2.01-1.5 1.275 0 2.115.72 2.25 1.785h1.725c-.06-1.695-1.215-2.895-3.105-3.18V.88h-1.455v1.56c-1.905.195-3.15 1.38-3.15 3.045 0 2.085 1.65 2.64 3.39 2.94 1.665.3 2.76.54 2.76 1.65 0 1.005-.9 1.56-2.145 1.56-1.47 0-2.43-.825-2.52-2.055l-1.74-.03c.06 1.86 1.305 3.21 3.405 3.48v1.575h1.455V13.06c1.965-.21 3.27-1.455 3.27-3.165.015-2.07-1.68-2.625-3.42-2.94zM43.72 13h7.44v-1.455h-5.085l2.79-2.325c1.275-1.065 2.22-2.04 2.22-3.6 0-1.92-1.32-3.21-3.675-3.21-2.235 0-3.675 1.455-3.675 3.45v.27h1.665v-.18c0-1.305.81-2.115 2.01-2.115 1.2 0 1.995.66 1.995 1.86 0 1.005-.705 1.74-1.65 2.535l-4.035 3.435V13zm8.458-5.01c0 3.165 1.695 5.1 4.14 5.1 2.445 0 4.14-1.935 4.14-5.1v-.48c0-3.045-1.695-5.1-4.14-5.1-2.445 0-4.14 2.055-4.14 5.1v.48zm6.6-.06c0 2.355-.99 3.705-2.46 3.705s-2.46-1.35-2.46-3.705v-.36c0-2.34.99-3.705 2.46-3.705s2.46 1.365 2.46 3.705v.36zm2.848.06c0 3.165 1.695 5.1 4.14 5.1 2.445 0 4.14-1.935 4.14-5.1v-.48c0-3.045-1.695-5.1-4.14-5.1-2.445 0-4.14 2.055-4.14 5.1v.48zm6.6-.06c0 2.355-.99 3.705-2.46 3.705s-2.46-1.35-2.46-3.705v-.36c0-2.34.99-3.705 2.46-3.705s2.46 1.365 2.46 3.705v.36zM76.891 13h1.755l1.68-5.22 1.62 5.22h1.74l2.55-7.68h-1.65l-1.815 5.88-1.68-5.88h-1.485l-1.755 5.88-1.755-5.88h-1.71L76.891 13zm11.023-8.76c.555 0 .99-.405.99-.975s-.435-.975-.99-.975c-.555 0-.99.405-.99.975s.435.975.99.975zM87.089 13h1.62V5.32h-1.62V13zm3.763-2.085c0 1.395.63 2.085 2.1 2.085h1.5v-1.425h-1.14c-.615 0-.825-.225-.825-.825V6.745h1.875V5.32h-1.875V3.175h-1.635V5.32h-1.335v1.425h1.335v4.17zm8.665-5.685c-1.2 0-1.934.54-2.414 1.2V2.5h-1.62V13h1.62V9.115c0-1.545.78-2.49 2.055-2.49 1.2 0 1.845.78 1.845 2.235V13h1.62V8.725c0-2.565-1.395-3.495-3.106-3.495zM7.816 28.59c-.33 0-.495-.105-.495-.495V25.02c0-1.815-1.17-2.79-3.21-2.79-1.935 0-3.225.93-3.39 2.43h1.59c.12-.675.765-1.125 1.725-1.125 1.065 0 1.68.525 1.68 1.38v.465H3.78c-2.145 0-3.285.885-3.285 2.46 0 1.425 1.17 2.25 2.85 2.25 1.245 0 2.025-.54 2.535-1.32 0 .765.36 1.23 1.41 1.23h.855v-1.41h-.33zm-2.1-1.74c-.015 1.185-.795 1.98-2.145 1.98-.885 0-1.425-.45-1.425-1.095 0-.78.555-1.155 1.56-1.155h2.01v.27zm7.15 3.15h1.62v-1.95l1.38-1.44L18.13 30h1.92l-3.075-4.575 2.895-3.105h-1.905l-3.48 3.72V19.5h-1.62V30zm12.02-7.77c-1.246 0-1.98.495-2.46 1.095l-.18-1.005h-1.41V30h1.62v-3.87c0-1.56.764-2.505 2.054-2.505 1.215 0 1.83.78 1.83 2.235V30h1.635v-4.275c0-2.565-1.395-3.495-3.09-3.495zm8.134 7.86c2.34 0 3.915-1.575 3.915-3.93 0-2.34-1.575-3.93-3.915-3.93s-3.915 1.59-3.915 3.93c0 2.355 1.575 3.93 3.915 3.93zm0-1.38c-1.365 0-2.25-1.065-2.25-2.55 0-1.485.885-2.55 2.25-2.55s2.265 1.065 2.265 2.55c0 1.485-.9 2.55-2.265 2.55zm8.742 1.38c1.965 0 3.27-1.095 3.57-2.835h-1.71c-.195.885-.855 1.455-1.845 1.455-1.305 0-2.16-1.035-2.16-2.535 0-1.515.855-2.565 2.16-2.565 1.005 0 1.65.555 1.86 1.455h1.695c-.315-1.74-1.545-2.835-3.525-2.835-2.325 0-3.855 1.575-3.855 3.945 0 2.4 1.485 3.915 3.81 3.915zm4.81-.09h1.62v-1.95l1.38-1.44L51.836 30h1.92l-3.075-4.575 2.895-3.105h-1.905l-3.48 3.72V19.5h-1.62V30zm11.116.09c2.34 0 3.915-1.575 3.915-3.93 0-2.34-1.575-3.93-3.915-3.93s-3.915 1.59-3.915 3.93c0 2.355 1.575 3.93 3.915 3.93zm0-1.38c-1.365 0-2.25-1.065-2.25-2.55 0-1.485.885-2.55 2.25-2.55s2.265 1.065 2.265 2.55c0 1.485-.9 2.55-2.265 2.55zm10.482-2.55c0 1.59-.75 2.52-1.98 2.52-1.185 0-1.785-.765-1.785-2.265V22.32h-1.62v4.275c0 2.625 1.395 3.495 3.03 3.495 1.185 0 1.89-.48 2.37-1.065l.18.975h1.425v-7.68h-1.62v3.84zm3.816 1.755c0 1.395.63 2.085 2.1 2.085h1.5v-1.425h-1.14c-.615 0-.825-.225-.825-.825v-4.005h1.875V22.32H73.62v-2.145h-1.635v2.145H70.65v1.425h1.335v4.17zm12.098 2.175c2.34 0 3.915-1.575 3.915-3.93 0-2.34-1.575-3.93-3.915-3.93s-3.915 1.59-3.915 3.93c0 2.355 1.575 3.93 3.915 3.93zm0-1.38c-1.365 0-2.25-1.065-2.25-2.55 0-1.485.885-2.55 2.25-2.55s2.265 1.065 2.265 2.55c0 1.485-.9 2.55-2.265 2.55zm13.86-7.785V19.5h-1.546c-1.485 0-2.145.705-2.145 2.055v.765h-2.82v-.645c0-.525.21-.75.735-.75h1.14V19.5h-1.365c-1.485 0-2.145.705-2.145 2.055v.765h-1.335v1.425h1.335V30h1.635v-6.255h2.82V30h1.62v-6.255h2.07V22.32h-2.07v-.645c0-.525.225-.75.75-.75h1.32zm4.173 9.165c1.905 0 3.195-1.155 3.465-2.67h-1.62c-.225.855-.945 1.35-1.935 1.35-1.275 0-2.1-.855-2.145-2.16v-.105h5.79a4.4 4.4 0 00.045-.615c-.045-2.25-1.53-3.66-3.75-3.66-2.265 0-3.78 1.575-3.78 3.945 0 2.355 1.515 3.915 3.93 3.915zm-2.175-4.77c.12-1.095 1.005-1.785 2.04-1.785 1.125 0 1.92.645 2.055 1.785h-4.095zm10.969-3c-1.26 0-1.875.51-2.265 1.155l-.18-1.155h-1.44V30h1.62v-3.855c0-1.185.465-2.31 1.905-2.31h.72V22.32h-.36z" fill="#000"/></svg>