<svg width="86" height="16" viewBox="0 0 86 16" fill="none" xmlns="http://www.w3.org/2000/svg"><rect width="86" height="16" rx="8" fill="#000"/><path d="M12.952 11.048c1.264 0 2.192-.72 2.4-1.88h-.736c-.208.784-.808 1.24-1.672 1.24-1.176 0-1.896-.92-1.896-2.208 0-1.296.752-2.208 1.928-2.208.84 0 1.432.464 1.648 1.24h.736c-.208-1.16-1.112-1.88-2.352-1.88-1.624 0-2.672 1.152-2.672 2.848 0 1.712 1.008 2.848 2.616 2.848zM16.096 11h.656V5.4h-.656V11zm5.163-.6c-.184 0-.264-.056-.264-.272V8.344c0-.952-.6-1.472-1.64-1.472-.984 0-1.632.472-1.728 1.272h.656c.08-.416.464-.688 1.04-.688.64 0 1.016.32 1.016.848v.28h-1.2c-1.072 0-1.64.456-1.64 1.272 0 .744.608 1.192 1.504 1.192.704 0 1.112-.312 1.368-.68.008.4.192.632.736.632h.36v-.6h-.208zm-.92-1.064c0 .68-.472 1.152-1.288 1.152-.544 0-.888-.272-.888-.672 0-.464.328-.68.912-.68h1.264v.2zm1.968-3.104c.24 0 .424-.176.424-.424a.412.412 0 00-.424-.424.412.412 0 00-.424.424c0 .248.184.424.424.424zM21.971 11h.656V6.92h-.656V11zm6.107-4.128c-.728 0-1.168.336-1.416.776-.232-.52-.72-.776-1.288-.776-.632 0-.976.312-1.192.608l-.088-.56h-.568V11h.656V8.848c0-.816.408-1.376 1.08-1.376.624 0 .984.416.984 1.216V11h.656V8.816c0-.832.416-1.344 1.096-1.344.616 0 .968.416.968 1.216V11h.656V8.648c0-1.288-.696-1.776-1.544-1.776zM36.63 9.4c0-1.088-.936-1.392-1.848-1.544-.84-.144-1.52-.28-1.52-.952 0-.6.488-.92 1.216-.92.76 0 1.28.424 1.36 1.072h.72c-.056-.896-.664-1.544-1.672-1.68v-.84h-.608v.824c-1.024.072-1.712.688-1.712 1.584 0 1.088.928 1.384 1.832 1.536.848.144 1.536.288 1.536.984 0 .608-.536.952-1.288.952-.856 0-1.44-.496-1.496-1.248h-.72c.04 1 .704 1.736 1.848 1.864v.824h.608v-.816c1.04-.088 1.744-.744 1.744-1.64zm.516 1.6H41v-.616h-2.928l1.68-1.424c.664-.568 1.208-1.096 1.208-1.936 0-1.008-.704-1.672-1.912-1.672-1.128 0-1.872.752-1.872 1.808v.144h.672V7.2c0-.768.48-1.248 1.2-1.248.744 0 1.224.4 1.224 1.104 0 .608-.432 1.04-.952 1.488l-2.176 1.888V11zm4.449-2.672c0 1.672.864 2.72 2.128 2.72 1.256 0 2.12-1.048 2.12-2.72v-.256c0-1.592-.864-2.72-2.12-2.72-1.264 0-2.128 1.128-2.128 2.72v.256zm3.568-.024c0 1.328-.576 2.128-1.44 2.128-.872 0-1.448-.8-1.448-2.128v-.208c0-1.328.576-2.128 1.448-2.128.864 0 1.44.8 1.44 2.128v.208zm1.37.024c0 1.672.864 2.72 2.128 2.72 1.256 0 2.12-1.048 2.12-2.72v-.256c0-1.592-.864-2.72-2.12-2.72-1.264 0-2.128 1.128-2.128 2.72v.256zm3.568-.024c0 1.328-.577 2.128-1.44 2.128-.872 0-1.448-.8-1.448-2.128v-.208c0-1.328.575-2.128 1.447-2.128.864 0 1.44.8 1.44 2.128v.208zm5.623-1.432a1.65 1.65 0 00-1.4.704V5.4h-.656V11h.568l.088-.624c.248.392.712.672 1.4.672 1.128 0 1.96-.84 1.96-2.088 0-1.328-.832-2.088-1.96-2.088zm-.064 3.592c-.8 0-1.344-.624-1.344-1.52 0-.872.544-1.488 1.344-1.488.808 0 1.352.616 1.352 1.504s-.544 1.504-1.352 1.504zm4.653.584c1.192 0 2.024-.848 2.024-2.088 0-1.24-.832-2.088-2.024-2.088-1.192 0-2.024.848-2.024 2.088 0 1.24.832 2.088 2.024 2.088zm0-.584c-.808 0-1.352-.632-1.352-1.504s.544-1.504 1.352-1.504 1.352.632 1.352 1.504-.544 1.504-1.352 1.504zm4.777-3.592c-.688 0-1.104.288-1.344.6l-.088-.552h-.568V11h.656V8.96c0-.92.464-1.488 1.232-1.488.712 0 1.104.448 1.104 1.296V11h.656V8.728c0-1.352-.728-1.856-1.648-1.856zm5.34 2.088c0 .92-.448 1.488-1.192 1.488-.68 0-1.064-.448-1.064-1.296V6.92h-.656v2.272c0 1.352.712 1.856 1.608 1.856.672 0 1.064-.288 1.304-.592l.088.544h.568V6.92h-.656v2.04zm1.382.696c.016.896.744 1.392 1.8 1.392.904 0 1.632-.472 1.632-1.232 0-.904-.744-1.08-1.672-1.192-.592-.072-1.024-.128-1.024-.576 0-.376.384-.616.952-.616.56 0 .944.312.992.728h.672c-.064-.848-.736-1.28-1.664-1.288-.92-.008-1.6.48-1.6 1.224 0 .848.728 1.032 1.64 1.144.608.072 1.056.112 1.056.624 0 .376-.408.624-.984.624-.68 0-1.104-.352-1.128-.832h-.672z" fill="#fff"/></svg>