<svg width="139" height="26" viewBox="0 0 139 26" fill="none" xmlns="http://www.w3.org/2000/svg"><rect width="139" height="26" rx="13" fill="#fff"/><path d="M24.428 17.072c1.896 0 3.288-1.08 3.6-2.82h-1.104c-.312 1.176-1.212 1.86-2.508 1.86-1.764 0-2.844-1.38-2.844-3.312 0-1.944 1.128-3.312 2.892-3.312 1.26 0 2.148.696 2.472 1.86h1.104c-.312-1.74-1.668-2.82-3.528-2.82-2.436 0-4.008 1.728-4.008 4.272 0 2.568 1.512 4.272 3.924 4.272zM29.145 17h.984V8.6h-.984V17zm7.744-.9c-.276 0-.396-.084-.396-.408v-2.676c0-1.428-.9-2.208-2.46-2.208-1.476 0-2.448.708-2.592 1.908h.984c.12-.624.696-1.032 1.56-1.032.96 0 1.524.48 1.524 1.272v.42h-1.8c-1.608 0-2.46.684-2.46 1.908 0 1.116.912 1.788 2.256 1.788 1.056 0 1.668-.468 2.052-1.02.012.6.288.948 1.104.948h.54v-.9h-.312zm-1.38-1.596c0 1.02-.708 1.728-1.932 1.728-.816 0-1.332-.408-1.332-1.008 0-.696.492-1.02 1.368-1.02h1.896v.3zm2.952-4.656c.36 0 .636-.264.636-.636a.618.618 0 00-.636-.636.618.618 0 00-.636.636c0 .372.276.636.636.636zM37.957 17h.984v-6.12h-.984V17zm9.16-6.192c-1.092 0-1.752.504-2.124 1.164-.348-.78-1.08-1.164-1.932-1.164-.948 0-1.464.468-1.788.912l-.132-.84h-.852V17h.984v-3.228c0-1.224.612-2.064 1.62-2.064.936 0 1.476.624 1.476 1.824V17h.984v-3.276c0-1.248.624-2.016 1.644-2.016.924 0 1.452.624 1.452 1.824V17h.984v-3.528c0-1.932-1.044-2.664-2.316-2.664zM59.944 14.6c0-1.632-1.404-2.088-2.772-2.316-1.26-.216-2.28-.42-2.28-1.428 0-.9.732-1.38 1.824-1.38 1.14 0 1.92.636 2.04 1.608h1.08c-.084-1.344-.996-2.316-2.508-2.52v-1.26h-.912V8.54c-1.536.108-2.568 1.032-2.568 2.376 0 1.632 1.392 2.076 2.748 2.304 1.272.216 2.304.432 2.304 1.476 0 .912-.804 1.428-1.932 1.428-1.284 0-2.16-.744-2.244-1.872h-1.08c.06 1.5 1.056 2.604 2.772 2.796v1.236h.912V17.06c1.56-.132 2.616-1.116 2.616-2.46zm.773 2.4h5.784v-.924H62.11l2.52-2.136c.996-.852 1.812-1.644 1.812-2.904 0-1.512-1.056-2.508-2.868-2.508-1.692 0-2.808 1.128-2.808 2.712v.216h1.008V11.3c0-1.152.72-1.872 1.8-1.872 1.116 0 1.836.6 1.836 1.656 0 .912-.648 1.56-1.428 2.232l-3.264 2.832V17zm6.674-4.008c0 2.508 1.296 4.08 3.192 4.08 1.884 0 3.18-1.572 3.18-4.08v-.384c0-2.388-1.296-4.08-3.18-4.08-1.896 0-3.192 1.692-3.192 4.08v.384zm5.352-.036c0 1.992-.864 3.192-2.16 3.192-1.308 0-2.172-1.2-2.172-3.192v-.312c0-1.992.864-3.192 2.172-3.192 1.296 0 2.16 1.2 2.16 3.192v.312zm2.054.036c0 2.508 1.296 4.08 3.192 4.08 1.884 0 3.18-1.572 3.18-4.08v-.384c0-2.388-1.296-4.08-3.18-4.08-1.896 0-3.192 1.692-3.192 4.08v.384zm5.352-.036c0 1.992-.864 3.192-2.16 3.192-1.308 0-2.172-1.2-2.172-3.192v-.312c0-1.992.864-3.192 2.172-3.192 1.296 0 2.16 1.2 2.16 3.192v.312zm8.435-2.148c-1.032 0-1.692.492-2.1 1.056V8.6H85.5V17h.852l.132-.936c.372.588 1.068 1.008 2.1 1.008 1.692 0 2.94-1.26 2.94-3.132 0-1.992-1.248-3.132-2.94-3.132zm-.096 5.388c-1.2 0-2.016-.936-2.016-2.28 0-1.308.816-2.232 2.016-2.232 1.212 0 2.028.924 2.028 2.256 0 1.332-.816 2.256-2.028 2.256zm6.98.876c1.789 0 3.037-1.272 3.037-3.132s-1.248-3.132-3.036-3.132-3.036 1.272-3.036 3.132 1.248 3.132 3.036 3.132zm0-.876c-1.211 0-2.027-.948-2.027-2.256 0-1.308.816-2.256 2.028-2.256 1.212 0 2.028.948 2.028 2.256 0 1.308-.816 2.256-2.028 2.256zm7.165-5.388c-1.032 0-1.656.432-2.016.9l-.132-.828h-.852V17h.984v-3.06c0-1.38.696-2.232 1.848-2.232 1.068 0 1.656.672 1.656 1.944V17h.984v-3.408c0-2.028-1.092-2.784-2.472-2.784zm8.011 3.132c0 1.38-.672 2.232-1.789 2.232-1.019 0-1.595-.672-1.595-1.944V10.88h-.984v3.408c0 2.028 1.068 2.784 2.412 2.784 1.008 0 1.596-.432 1.956-.888l.132.816h.852v-6.12h-.984v3.06zm2.073 1.044c.024 1.344 1.116 2.088 2.7 2.088 1.356 0 2.448-.708 2.448-1.848 0-1.356-1.116-1.62-2.508-1.788-.888-.108-1.536-.192-1.536-.864 0-.564.576-.924 1.428-.924.84 0 1.416.468 1.488 1.092h1.008c-.096-1.272-1.104-1.92-2.496-1.932-1.38-.012-2.4.72-2.4 1.836 0 1.272 1.092 1.548 2.46 1.716.912.108 1.584.168 1.584.936 0 .564-.612.936-1.476.936-1.02 0-1.656-.528-1.692-1.248h-1.008z" fill="#000"/></svg>