<svg width="107" height="17" viewBox="0 0 107 17" fill="none" xmlns="http://www.w3.org/2000/svg"><path d="M14.58 1.2h-4.147v8.314c0 2.457-1.119 3.488-2.917 3.488-1.777 0-2.896-1.031-2.918-3.488V1.222H.474v8.292c0 5.023 2.72 7.26 7.042 7.26 4.321 0 7.063-2.237 7.063-7.26V1.2zm9.262-.22c-3.575.023-6.383 1.58-6.383 5.024 0 3.005 2.5 3.817 5.989 4.65 2.522.637 2.96.725 2.96 1.602 0 .702-.745 1.009-1.6 1.009-1.953 0-4.168-.57-6.165-1.69l-1.842 3.072c2.106 1.404 4.694 2.15 7.546 2.15 3.948 0 6.427-1.799 6.427-5.068 0-3.136-2.566-4.014-6.164-4.98-2.391-.591-2.676-.789-2.676-1.271 0-.702.68-1.01 1.47-1.01 1.513 0 3.575.527 5.33 1.426l1.733-3.18C28.668 1.617 26.3.98 23.842.98zm9.301.242v15.333h6.58c4.542 0 8.227-3.312 8.227-7.655 0-4.366-3.685-7.7-8.226-7.7l-6.581.022zm4.124 3.685h2.303c2.282 0 4.146 1.711 4.146 3.97 0 2.282-1.864 3.993-4.146 3.993h-2.303V4.907zm15.746 12.021l7.678-16.1-3.422.021-7.677 16.08h3.422zM73.148 1.2h-4.124v9.191c0 1.865-.856 2.61-2.172 2.61-.811 0-1.448-.284-1.886-.92l-3.313 2.15c1.031 1.908 2.918 2.544 5.418 2.544 3.73 0 6.077-1.448 6.077-6.384V1.2zm3.14.022v15.333h4.124V12.19h2.633c4.563 0 6.734-1.689 6.734-5.44 0-3.751-2.062-5.528-6.778-5.528h-6.713zm4.124 3.554h2.435c1.843 0 2.633.68 2.633 2.127 0 1.47-.812 2.106-2.633 2.106h-2.435V4.776zm20.106 6.515l6.12-10.091h-4.892l-3.268 5.725L95.23 1.2h-4.935l6.098 10.135v5.22h4.124v-5.264z" fill="#09B45B"/></svg>