<svg width="128" height="22" viewBox="0 0 128 22" fill="none" xmlns="http://www.w3.org/2000/svg"><path d="M7.685 2.907V.975H.545v1.932H2.98v6.468h2.268V2.907h2.436zM8.82.987v8.388h2.256V6.819H12.42l1.632 2.556h2.604l-1.884-2.856c1.164-.396 1.656-1.248 1.656-2.616 0-2.052-1.092-2.916-3.828-2.916H8.82zm2.256 2.028h1.632c.996 0 1.368.312 1.368 1.032 0 .732-.372 1.032-1.368 1.032h-1.632V3.015zm8.976 6.36V.987h-2.256v8.388h2.256zm8.593-6.372V.975h-6.876v8.4h6.948V7.347h-4.692v-1.26h4.296v-1.92h-4.296V3.003h4.62zm1.35-2.016v8.388h3.6c2.485 0 4.5-1.812 4.5-4.188 0-2.388-2.015-4.212-4.5-4.212l-3.6.012zm2.256 2.016h1.26c1.248 0 2.268.936 2.268 2.172 0 1.248-1.02 2.184-2.268 2.184h-1.26V3.003zm11.026 4.14V5.39h-4.164v1.752h4.164zM53.6 9.375L50.25.975h-2.965l-3.312 8.4h2.7l.54-1.464h3.145l.54 1.464h2.7zM47.803 6.11l.972-2.616.971 2.616h-1.944zm14.803 3.264v-8.4h-2.22v4.692L57.002.975h-2.34v8.4h2.22v-4.68l3.384 4.68h2.34zM64.249.987v8.388h3.6c2.484 0 4.5-1.812 4.5-4.188 0-2.388-2.016-4.212-4.5-4.212l-3.6.012zm2.256 2.016h1.26c1.248 0 2.268.936 2.268 2.172 0 1.248-1.02 2.184-2.268 2.184h-1.26V3.003zm11.026 4.14V5.39h-4.164v1.752h4.164zm7.837-4.236V.975h-7.14v1.932h2.436v6.468h2.268V2.907h2.436zm8.011.096V.975h-6.876v8.4h6.948V7.347H88.76v-1.26h4.296v-1.92H88.76V3.003h4.62zM98.15.855c-1.955.012-3.491.864-3.491 2.748 0 1.644 1.368 2.088 3.276 2.544 1.38.348 1.62.396 1.62.876 0 .384-.408.552-.876.552-1.068 0-2.28-.312-3.372-.924l-1.008 1.68c1.152.768 2.568 1.176 4.128 1.176 2.16 0 3.516-.984 3.516-2.772 0-1.716-1.404-2.196-3.372-2.724-1.308-.324-1.464-.432-1.464-.696 0-.384.372-.552.804-.552.828 0 1.956.288 2.916.78l.948-1.74c-.984-.6-2.28-.948-3.624-.948zm11.665 2.052V.975h-7.14v1.932h2.436v6.468h2.268V2.907h2.436zm8.011.096V.975h-6.876v8.4h6.948V7.347h-4.692v-1.26h4.296v-1.92h-4.296V3.003h4.62zm1.35-2.016v8.388h3.6c2.484 0 4.5-1.812 4.5-4.188 0-2.388-2.016-4.212-4.5-4.212l-3.6.012zm2.256 2.016h1.26c1.248 0 2.268.936 2.268 2.172 0 1.248-1.02 2.184-2.268 2.184h-1.26V3.003zm-79.72 11.904v-1.932h-7.14v1.932h2.435v6.468h2.268v-6.468h2.436zm1.134-1.92v8.388h2.256v-2.556H46.445l1.632 2.556h2.604l-1.884-2.856c1.164-.396 1.656-1.248 1.656-2.616 0-2.052-1.092-2.916-3.828-2.916h-3.78zm2.256 2.028h1.632c.996 0 1.368.312 1.368 1.032 0 .732-.372 1.032-1.368 1.032h-1.632v-2.064zm15.78 6.36l-3.347-8.4H54.57l-3.312 8.4h2.7l.54-1.464h3.144l.54 1.464h2.7zm-5.795-3.264l.972-2.616.972 2.616h-1.944zm6.931-5.124v8.388h3.6c2.484 0 4.5-1.812 4.5-4.188 0-2.388-2.016-4.212-4.5-4.212l-3.6.012zm2.256 2.016h1.26c1.248 0 2.268.936 2.268 2.172 0 1.248-1.02 2.184-2.268 2.184h-1.26v-4.356zm9.586 6.372v-8.388h-2.256v8.388h2.256zm9.589 0v-8.4h-2.22v4.692l-3.384-4.692h-2.34v8.4h2.22v-4.68l3.384 4.68h2.34zm6.06-8.52c-2.389-.012-4.645 1.56-4.645 4.332 0 2.376 2.016 4.308 4.5 4.308 1.416 0 2.724-.468 3.732-1.272V16.55h-3.588v1.608h1.44v.804c-.456.264-.984.42-1.584.42-1.26 0-2.136-.984-2.136-2.196 0-1.404 1.068-2.244 2.28-2.244.648 0 1.308.228 1.836.684l1.476-1.548a5.16 5.16 0 00-3.312-1.224z" fill="#09B45B"/></svg>